<?xml version="1.0" encoding="utf-8" standalone="no"?>
<!DOCTYPE svg PUBLIC "-//W3C//DTD SVG 1.1//EN"
  "http://www.w3.org/Graphics/SVG/1.1/DTD/svg11.dtd">
<svg xmlns:xlink="http://www.w3.org/1999/xlink" width="876.52625pt" height="370.537812pt" viewBox="0 0 876.52625 370.537812" xmlns="http://www.w3.org/2000/svg" version="1.1">
 <metadata>
  <rdf:RDF xmlns:dc="http://purl.org/dc/elements/1.1/" xmlns:cc="http://creativecommons.org/ns#" xmlns:rdf="http://www.w3.org/1999/02/22-rdf-syntax-ns#">
   <cc:Work>
    <dc:type rdf:resource="http://purl.org/dc/dcmitype/StillImage"/>
    <dc:date>2026-03-19T12:20:01.426224</dc:date>
    <dc:format>image/svg+xml</dc:format>
    <dc:creator>
     <cc:Agent>
      <dc:title>Matplotlib v3.10.8, https://matplotlib.org/</dc:title>
     </cc:Agent>
    </dc:creator>
   </cc:Work>
  </rdf:RDF>
 </metadata>
 <defs>
  <style type="text/css">*{stroke-linejoin: round; stroke-linecap: butt}</style>
 </defs>
 <g id="figure_1">
  <g id="patch_1">
   <path d="M 0 370.537812 
L 876.52625 370.537812 
L 876.52625 0 
L 0 0 
z
" style="fill: #ffffff"/>
  </g>
  <g id="axes_1">
   <g id="patch_2">
    <path d="M 88.12625 320.4 
L 427.778424 320.4 
L 427.778424 43.2 
L 88.12625 43.2 
z
" style="fill: #ffffff"/>
   </g>
   <g id="matplotlib.axis_1">
    <g id="xtick_1">
     <g id="line2d_1">
      <defs>
       <path id="meddd3195de" d="M 0 0 
L 0 3.5 
" style="stroke: #000000; stroke-width: 0.8"/>
      </defs>
      <g>
       <use xlink:href="#meddd3195de" x="103.564985" y="320.4" style="stroke: #000000; stroke-width: 0.8"/>
      </g>
     </g>
     <g id="text_1">
      <!-- 0 -->
      <g transform="translate(98.79311 338.797656) scale(0.15 -0.15)">
       <defs>
        <path id="DejaVuSans-30" d="M 2034 4250 
Q 1547 4250 1301 3770 
Q 1056 3291 1056 2328 
Q 1056 1369 1301 889 
Q 1547 409 2034 409 
Q 2525 409 2770 889 
Q 3016 1369 3016 2328 
Q 3016 3291 2770 3770 
Q 2525 4250 2034 4250 
z
M 2034 4750 
Q 2819 4750 3233 4129 
Q 3647 3509 3647 2328 
Q 3647 1150 3233 529 
Q 2819 -91 2034 -91 
Q 1250 -91 836 529 
Q 422 1150 422 2328 
Q 422 3509 836 4129 
Q 1250 4750 2034 4750 
z
" transform="scale(0.015625)"/>
       </defs>
       <use xlink:href="#DejaVuSans-30"/>
      </g>
     </g>
    </g>
    <g id="xtick_2">
     <g id="line2d_2">
      <g>
       <use xlink:href="#meddd3195de" x="165.319926" y="320.4" style="stroke: #000000; stroke-width: 0.8"/>
      </g>
     </g>
     <g id="text_2">
      <!-- 5 -->
      <g transform="translate(160.548051 338.797656) scale(0.15 -0.15)">
       <defs>
        <path id="DejaVuSans-35" d="M 691 4666 
L 3169 4666 
L 3169 4134 
L 1269 4134 
L 1269 2991 
Q 1406 3038 1543 3061 
Q 1681 3084 1819 3084 
Q 2600 3084 3056 2656 
Q 3513 2228 3513 1497 
Q 3513 744 3044 326 
Q 2575 -91 1722 -91 
Q 1428 -91 1123 -41 
Q 819 9 494 109 
L 494 744 
Q 775 591 1075 516 
Q 1375 441 1709 441 
Q 2250 441 2565 725 
Q 2881 1009 2881 1497 
Q 2881 1984 2565 2268 
Q 2250 2553 1709 2553 
Q 1456 2553 1204 2497 
Q 953 2441 691 2322 
L 691 4666 
z
" transform="scale(0.015625)"/>
       </defs>
       <use xlink:href="#DejaVuSans-35"/>
      </g>
     </g>
    </g>
    <g id="xtick_3">
     <g id="line2d_3">
      <g>
       <use xlink:href="#meddd3195de" x="227.074867" y="320.4" style="stroke: #000000; stroke-width: 0.8"/>
      </g>
     </g>
     <g id="text_3">
      <!-- 10 -->
      <g transform="translate(217.531117 338.797656) scale(0.15 -0.15)">
       <defs>
        <path id="DejaVuSans-31" d="M 794 531 
L 1825 531 
L 1825 4091 
L 703 3866 
L 703 4441 
L 1819 4666 
L 2450 4666 
L 2450 531 
L 3481 531 
L 3481 0 
L 794 0 
L 794 531 
z
" transform="scale(0.015625)"/>
       </defs>
       <use xlink:href="#DejaVuSans-31"/>
       <use xlink:href="#DejaVuSans-30" transform="translate(63.623047 0)"/>
      </g>
     </g>
    </g>
    <g id="xtick_4">
     <g id="line2d_4">
      <g>
       <use xlink:href="#meddd3195de" x="288.829807" y="320.4" style="stroke: #000000; stroke-width: 0.8"/>
      </g>
     </g>
     <g id="text_4">
      <!-- 15 -->
      <g transform="translate(279.286057 338.797656) scale(0.15 -0.15)">
       <use xlink:href="#DejaVuSans-31"/>
       <use xlink:href="#DejaVuSans-35" transform="translate(63.623047 0)"/>
      </g>
     </g>
    </g>
    <g id="xtick_5">
     <g id="line2d_5">
      <g>
       <use xlink:href="#meddd3195de" x="350.584748" y="320.4" style="stroke: #000000; stroke-width: 0.8"/>
      </g>
     </g>
     <g id="text_5">
      <!-- 20 -->
      <g transform="translate(341.040998 338.797656) scale(0.15 -0.15)">
       <defs>
        <path id="DejaVuSans-32" d="M 1228 531 
L 3431 531 
L 3431 0 
L 469 0 
L 469 531 
Q 828 903 1448 1529 
Q 2069 2156 2228 2338 
Q 2531 2678 2651 2914 
Q 2772 3150 2772 3378 
Q 2772 3750 2511 3984 
Q 2250 4219 1831 4219 
Q 1534 4219 1204 4116 
Q 875 4013 500 3803 
L 500 4441 
Q 881 4594 1212 4672 
Q 1544 4750 1819 4750 
Q 2544 4750 2975 4387 
Q 3406 4025 3406 3419 
Q 3406 3131 3298 2873 
Q 3191 2616 2906 2266 
Q 2828 2175 2409 1742 
Q 1991 1309 1228 531 
z
" transform="scale(0.015625)"/>
       </defs>
       <use xlink:href="#DejaVuSans-32"/>
       <use xlink:href="#DejaVuSans-30" transform="translate(63.623047 0)"/>
      </g>
     </g>
    </g>
    <g id="xtick_6">
     <g id="line2d_6">
      <g>
       <use xlink:href="#meddd3195de" x="412.339689" y="320.4" style="stroke: #000000; stroke-width: 0.8"/>
      </g>
     </g>
     <g id="text_6">
      <!-- 25 -->
      <g transform="translate(402.795939 338.797656) scale(0.15 -0.15)">
       <use xlink:href="#DejaVuSans-32"/>
       <use xlink:href="#DejaVuSans-35" transform="translate(63.623047 0)"/>
      </g>
     </g>
    </g>
    <g id="text_7">
     <!-- time [hr] -->
     <g transform="translate(212.877806 359.594375) scale(0.18 -0.18)">
      <defs>
       <path id="DejaVuSans-Bold-74" d="M 1759 4494 
L 1759 3500 
L 2913 3500 
L 2913 2700 
L 1759 2700 
L 1759 1216 
Q 1759 972 1856 886 
Q 1953 800 2241 800 
L 2816 800 
L 2816 0 
L 1856 0 
Q 1194 0 917 276 
Q 641 553 641 1216 
L 641 2700 
L 84 2700 
L 84 3500 
L 641 3500 
L 641 4494 
L 1759 4494 
z
" transform="scale(0.015625)"/>
       <path id="DejaVuSans-Bold-69" d="M 538 3500 
L 1656 3500 
L 1656 0 
L 538 0 
L 538 3500 
z
M 538 4863 
L 1656 4863 
L 1656 3950 
L 538 3950 
L 538 4863 
z
" transform="scale(0.015625)"/>
       <path id="DejaVuSans-Bold-6d" d="M 3781 2919 
Q 3994 3244 4286 3414 
Q 4578 3584 4928 3584 
Q 5531 3584 5847 3212 
Q 6163 2841 6163 2131 
L 6163 0 
L 5038 0 
L 5038 1825 
Q 5041 1866 5042 1909 
Q 5044 1953 5044 2034 
Q 5044 2406 4934 2573 
Q 4825 2741 4581 2741 
Q 4263 2741 4089 2478 
Q 3916 2216 3909 1719 
L 3909 0 
L 2784 0 
L 2784 1825 
Q 2784 2406 2684 2573 
Q 2584 2741 2328 2741 
Q 2006 2741 1831 2477 
Q 1656 2213 1656 1722 
L 1656 0 
L 531 0 
L 531 3500 
L 1656 3500 
L 1656 2988 
Q 1863 3284 2130 3434 
Q 2397 3584 2719 3584 
Q 3081 3584 3359 3409 
Q 3638 3234 3781 2919 
z
" transform="scale(0.015625)"/>
       <path id="DejaVuSans-Bold-65" d="M 4031 1759 
L 4031 1441 
L 1416 1441 
Q 1456 1047 1700 850 
Q 1944 653 2381 653 
Q 2734 653 3104 758 
Q 3475 863 3866 1075 
L 3866 213 
Q 3469 63 3072 -14 
Q 2675 -91 2278 -91 
Q 1328 -91 801 392 
Q 275 875 275 1747 
Q 275 2603 792 3093 
Q 1309 3584 2216 3584 
Q 3041 3584 3536 3087 
Q 4031 2591 4031 1759 
z
M 2881 2131 
Q 2881 2450 2695 2645 
Q 2509 2841 2209 2841 
Q 1884 2841 1681 2658 
Q 1478 2475 1428 2131 
L 2881 2131 
z
" transform="scale(0.015625)"/>
       <path id="DejaVuSans-Bold-20" transform="scale(0.015625)"/>
       <path id="DejaVuSans-Bold-5b" d="M 550 4863 
L 2491 4863 
L 2491 4159 
L 1613 4159 
L 1613 -141 
L 2491 -141 
L 2491 -844 
L 550 -844 
L 550 4863 
z
" transform="scale(0.015625)"/>
       <path id="DejaVuSans-Bold-68" d="M 4056 2131 
L 4056 0 
L 2931 0 
L 2931 347 
L 2931 1625 
Q 2931 2084 2911 2256 
Q 2891 2428 2841 2509 
Q 2775 2619 2662 2680 
Q 2550 2741 2406 2741 
Q 2056 2741 1856 2470 
Q 1656 2200 1656 1722 
L 1656 0 
L 538 0 
L 538 4863 
L 1656 4863 
L 1656 2988 
Q 1909 3294 2193 3439 
Q 2478 3584 2822 3584 
Q 3428 3584 3742 3212 
Q 4056 2841 4056 2131 
z
" transform="scale(0.015625)"/>
       <path id="DejaVuSans-Bold-72" d="M 3138 2547 
Q 2991 2616 2845 2648 
Q 2700 2681 2553 2681 
Q 2122 2681 1889 2404 
Q 1656 2128 1656 1613 
L 1656 0 
L 538 0 
L 538 3500 
L 1656 3500 
L 1656 2925 
Q 1872 3269 2151 3426 
Q 2431 3584 2822 3584 
Q 2878 3584 2943 3579 
Q 3009 3575 3134 3559 
L 3138 2547 
z
" transform="scale(0.015625)"/>
       <path id="DejaVuSans-Bold-5d" d="M 2375 -844 
L 434 -844 
L 434 -141 
L 1313 -141 
L 1313 4159 
L 434 4159 
L 434 4863 
L 2375 4863 
L 2375 -844 
z
" transform="scale(0.015625)"/>
      </defs>
      <use xlink:href="#DejaVuSans-Bold-74"/>
      <use xlink:href="#DejaVuSans-Bold-69" transform="translate(47.802734 0)"/>
      <use xlink:href="#DejaVuSans-Bold-6d" transform="translate(82.080078 0)"/>
      <use xlink:href="#DejaVuSans-Bold-65" transform="translate(186.279297 0)"/>
      <use xlink:href="#DejaVuSans-Bold-20" transform="translate(254.101562 0)"/>
      <use xlink:href="#DejaVuSans-Bold-5b" transform="translate(288.916016 0)"/>
      <use xlink:href="#DejaVuSans-Bold-68" transform="translate(334.619141 0)"/>
      <use xlink:href="#DejaVuSans-Bold-72" transform="translate(405.810547 0)"/>
      <use xlink:href="#DejaVuSans-Bold-5d" transform="translate(455.126953 0)"/>
     </g>
    </g>
   </g>
   <g id="matplotlib.axis_2">
    <g id="ytick_1">
     <g id="line2d_7">
      <defs>
       <path id="mb9586c8bc1" d="M 0 0 
L -3.5 0 
" style="stroke: #000000; stroke-width: 0.8"/>
      </defs>
      <g>
       <use xlink:href="#mb9586c8bc1" x="88.12625" y="307.8" style="stroke: #000000; stroke-width: 0.8"/>
      </g>
     </g>
     <g id="text_8">
      <!-- 0.0000 -->
      <g transform="translate(28.640313 313.498828) scale(0.15 -0.15)">
       <defs>
        <path id="DejaVuSans-2e" d="M 684 794 
L 1344 794 
L 1344 0 
L 684 0 
L 684 794 
z
" transform="scale(0.015625)"/>
       </defs>
       <use xlink:href="#DejaVuSans-30"/>
       <use xlink:href="#DejaVuSans-2e" transform="translate(63.623047 0)"/>
       <use xlink:href="#DejaVuSans-30" transform="translate(95.410156 0)"/>
       <use xlink:href="#DejaVuSans-30" transform="translate(159.033203 0)"/>
       <use xlink:href="#DejaVuSans-30" transform="translate(222.65625 0)"/>
       <use xlink:href="#DejaVuSans-30" transform="translate(286.279297 0)"/>
      </g>
     </g>
    </g>
    <g id="ytick_2">
     <g id="line2d_8">
      <g>
       <use xlink:href="#mb9586c8bc1" x="88.12625" y="272.643793" style="stroke: #000000; stroke-width: 0.8"/>
      </g>
     </g>
     <g id="text_9">
      <!-- 0.0005 -->
      <g transform="translate(28.640313 278.342621) scale(0.15 -0.15)">
       <use xlink:href="#DejaVuSans-30"/>
       <use xlink:href="#DejaVuSans-2e" transform="translate(63.623047 0)"/>
       <use xlink:href="#DejaVuSans-30" transform="translate(95.410156 0)"/>
       <use xlink:href="#DejaVuSans-30" transform="translate(159.033203 0)"/>
       <use xlink:href="#DejaVuSans-30" transform="translate(222.65625 0)"/>
       <use xlink:href="#DejaVuSans-35" transform="translate(286.279297 0)"/>
      </g>
     </g>
    </g>
    <g id="ytick_3">
     <g id="line2d_9">
      <g>
       <use xlink:href="#mb9586c8bc1" x="88.12625" y="237.487585" style="stroke: #000000; stroke-width: 0.8"/>
      </g>
     </g>
     <g id="text_10">
      <!-- 0.0010 -->
      <g transform="translate(28.640313 243.186414) scale(0.15 -0.15)">
       <use xlink:href="#DejaVuSans-30"/>
       <use xlink:href="#DejaVuSans-2e" transform="translate(63.623047 0)"/>
       <use xlink:href="#DejaVuSans-30" transform="translate(95.410156 0)"/>
       <use xlink:href="#DejaVuSans-30" transform="translate(159.033203 0)"/>
       <use xlink:href="#DejaVuSans-31" transform="translate(222.65625 0)"/>
       <use xlink:href="#DejaVuSans-30" transform="translate(286.279297 0)"/>
      </g>
     </g>
    </g>
    <g id="ytick_4">
     <g id="line2d_10">
      <g>
       <use xlink:href="#mb9586c8bc1" x="88.12625" y="202.331378" style="stroke: #000000; stroke-width: 0.8"/>
      </g>
     </g>
     <g id="text_11">
      <!-- 0.0015 -->
      <g transform="translate(28.640313 208.030206) scale(0.15 -0.15)">
       <use xlink:href="#DejaVuSans-30"/>
       <use xlink:href="#DejaVuSans-2e" transform="translate(63.623047 0)"/>
       <use xlink:href="#DejaVuSans-30" transform="translate(95.410156 0)"/>
       <use xlink:href="#DejaVuSans-30" transform="translate(159.033203 0)"/>
       <use xlink:href="#DejaVuSans-31" transform="translate(222.65625 0)"/>
       <use xlink:href="#DejaVuSans-35" transform="translate(286.279297 0)"/>
      </g>
     </g>
    </g>
    <g id="ytick_5">
     <g id="line2d_11">
      <g>
       <use xlink:href="#mb9586c8bc1" x="88.12625" y="167.175171" style="stroke: #000000; stroke-width: 0.8"/>
      </g>
     </g>
     <g id="text_12">
      <!-- 0.0020 -->
      <g transform="translate(28.640313 172.873999) scale(0.15 -0.15)">
       <use xlink:href="#DejaVuSans-30"/>
       <use xlink:href="#DejaVuSans-2e" transform="translate(63.623047 0)"/>
       <use xlink:href="#DejaVuSans-30" transform="translate(95.410156 0)"/>
       <use xlink:href="#DejaVuSans-30" transform="translate(159.033203 0)"/>
       <use xlink:href="#DejaVuSans-32" transform="translate(222.65625 0)"/>
       <use xlink:href="#DejaVuSans-30" transform="translate(286.279297 0)"/>
      </g>
     </g>
    </g>
    <g id="ytick_6">
     <g id="line2d_12">
      <g>
       <use xlink:href="#mb9586c8bc1" x="88.12625" y="132.018963" style="stroke: #000000; stroke-width: 0.8"/>
      </g>
     </g>
     <g id="text_13">
      <!-- 0.0025 -->
      <g transform="translate(28.640313 137.717792) scale(0.15 -0.15)">
       <use xlink:href="#DejaVuSans-30"/>
       <use xlink:href="#DejaVuSans-2e" transform="translate(63.623047 0)"/>
       <use xlink:href="#DejaVuSans-30" transform="translate(95.410156 0)"/>
       <use xlink:href="#DejaVuSans-30" transform="translate(159.033203 0)"/>
       <use xlink:href="#DejaVuSans-32" transform="translate(222.65625 0)"/>
       <use xlink:href="#DejaVuSans-35" transform="translate(286.279297 0)"/>
      </g>
     </g>
    </g>
    <g id="ytick_7">
     <g id="line2d_13">
      <g>
       <use xlink:href="#mb9586c8bc1" x="88.12625" y="96.862756" style="stroke: #000000; stroke-width: 0.8"/>
      </g>
     </g>
     <g id="text_14">
      <!-- 0.0030 -->
      <g transform="translate(28.640313 102.561584) scale(0.15 -0.15)">
       <defs>
        <path id="DejaVuSans-33" d="M 2597 2516 
Q 3050 2419 3304 2112 
Q 3559 1806 3559 1356 
Q 3559 666 3084 287 
Q 2609 -91 1734 -91 
Q 1441 -91 1130 -33 
Q 819 25 488 141 
L 488 750 
Q 750 597 1062 519 
Q 1375 441 1716 441 
Q 2309 441 2620 675 
Q 2931 909 2931 1356 
Q 2931 1769 2642 2001 
Q 2353 2234 1838 2234 
L 1294 2234 
L 1294 2753 
L 1863 2753 
Q 2328 2753 2575 2939 
Q 2822 3125 2822 3475 
Q 2822 3834 2567 4026 
Q 2313 4219 1838 4219 
Q 1578 4219 1281 4162 
Q 984 4106 628 3988 
L 628 4550 
Q 988 4650 1302 4700 
Q 1616 4750 1894 4750 
Q 2613 4750 3031 4423 
Q 3450 4097 3450 3541 
Q 3450 3153 3228 2886 
Q 3006 2619 2597 2516 
z
" transform="scale(0.015625)"/>
       </defs>
       <use xlink:href="#DejaVuSans-30"/>
       <use xlink:href="#DejaVuSans-2e" transform="translate(63.623047 0)"/>
       <use xlink:href="#DejaVuSans-30" transform="translate(95.410156 0)"/>
       <use xlink:href="#DejaVuSans-30" transform="translate(159.033203 0)"/>
       <use xlink:href="#DejaVuSans-33" transform="translate(222.65625 0)"/>
       <use xlink:href="#DejaVuSans-30" transform="translate(286.279297 0)"/>
      </g>
     </g>
    </g>
    <g id="ytick_8">
     <g id="line2d_14">
      <g>
       <use xlink:href="#mb9586c8bc1" x="88.12625" y="61.706549" style="stroke: #000000; stroke-width: 0.8"/>
      </g>
     </g>
     <g id="text_15">
      <!-- 0.0035 -->
      <g transform="translate(28.640313 67.405377) scale(0.15 -0.15)">
       <use xlink:href="#DejaVuSans-30"/>
       <use xlink:href="#DejaVuSans-2e" transform="translate(63.623047 0)"/>
       <use xlink:href="#DejaVuSans-30" transform="translate(95.410156 0)"/>
       <use xlink:href="#DejaVuSans-30" transform="translate(159.033203 0)"/>
       <use xlink:href="#DejaVuSans-33" transform="translate(222.65625 0)"/>
       <use xlink:href="#DejaVuSans-35" transform="translate(286.279297 0)"/>
      </g>
     </g>
    </g>
    <g id="text_16">
     <!-- apixaban plasma [µM] -->
     <g transform="translate(20.877188 294.6825) rotate(-90) scale(0.18 -0.18)">
      <defs>
       <path id="DejaVuSans-Bold-61" d="M 2106 1575 
Q 1756 1575 1579 1456 
Q 1403 1338 1403 1106 
Q 1403 894 1545 773 
Q 1688 653 1941 653 
Q 2256 653 2472 879 
Q 2688 1106 2688 1447 
L 2688 1575 
L 2106 1575 
z
M 3816 1997 
L 3816 0 
L 2688 0 
L 2688 519 
Q 2463 200 2181 54 
Q 1900 -91 1497 -91 
Q 953 -91 614 226 
Q 275 544 275 1050 
Q 275 1666 698 1953 
Q 1122 2241 2028 2241 
L 2688 2241 
L 2688 2328 
Q 2688 2594 2478 2717 
Q 2269 2841 1825 2841 
Q 1466 2841 1156 2769 
Q 847 2697 581 2553 
L 581 3406 
Q 941 3494 1303 3539 
Q 1666 3584 2028 3584 
Q 2975 3584 3395 3211 
Q 3816 2838 3816 1997 
z
" transform="scale(0.015625)"/>
       <path id="DejaVuSans-Bold-70" d="M 1656 506 
L 1656 -1331 
L 538 -1331 
L 538 3500 
L 1656 3500 
L 1656 2988 
Q 1888 3294 2169 3439 
Q 2450 3584 2816 3584 
Q 3463 3584 3878 3070 
Q 4294 2556 4294 1747 
Q 4294 938 3878 423 
Q 3463 -91 2816 -91 
Q 2450 -91 2169 54 
Q 1888 200 1656 506 
z
M 2400 2772 
Q 2041 2772 1848 2508 
Q 1656 2244 1656 1747 
Q 1656 1250 1848 986 
Q 2041 722 2400 722 
Q 2759 722 2948 984 
Q 3138 1247 3138 1747 
Q 3138 2247 2948 2509 
Q 2759 2772 2400 2772 
z
" transform="scale(0.015625)"/>
       <path id="DejaVuSans-Bold-78" d="M 1422 1791 
L 159 3500 
L 1344 3500 
L 2059 2463 
L 2784 3500 
L 3969 3500 
L 2706 1797 
L 4031 0 
L 2847 0 
L 2059 1106 
L 1281 0 
L 97 0 
L 1422 1791 
z
" transform="scale(0.015625)"/>
       <path id="DejaVuSans-Bold-62" d="M 2400 722 
Q 2759 722 2948 984 
Q 3138 1247 3138 1747 
Q 3138 2247 2948 2509 
Q 2759 2772 2400 2772 
Q 2041 2772 1848 2508 
Q 1656 2244 1656 1747 
Q 1656 1250 1848 986 
Q 2041 722 2400 722 
z
M 1656 2988 
Q 1888 3294 2169 3439 
Q 2450 3584 2816 3584 
Q 3463 3584 3878 3070 
Q 4294 2556 4294 1747 
Q 4294 938 3878 423 
Q 3463 -91 2816 -91 
Q 2450 -91 2169 54 
Q 1888 200 1656 506 
L 1656 0 
L 538 0 
L 538 4863 
L 1656 4863 
L 1656 2988 
z
" transform="scale(0.015625)"/>
       <path id="DejaVuSans-Bold-6e" d="M 4056 2131 
L 4056 0 
L 2931 0 
L 2931 347 
L 2931 1631 
Q 2931 2084 2911 2256 
Q 2891 2428 2841 2509 
Q 2775 2619 2662 2680 
Q 2550 2741 2406 2741 
Q 2056 2741 1856 2470 
Q 1656 2200 1656 1722 
L 1656 0 
L 538 0 
L 538 3500 
L 1656 3500 
L 1656 2988 
Q 1909 3294 2193 3439 
Q 2478 3584 2822 3584 
Q 3428 3584 3742 3212 
Q 4056 2841 4056 2131 
z
" transform="scale(0.015625)"/>
       <path id="DejaVuSans-Bold-6c" d="M 538 4863 
L 1656 4863 
L 1656 0 
L 538 0 
L 538 4863 
z
" transform="scale(0.015625)"/>
       <path id="DejaVuSans-Bold-73" d="M 3272 3391 
L 3272 2541 
Q 2913 2691 2578 2766 
Q 2244 2841 1947 2841 
Q 1628 2841 1473 2761 
Q 1319 2681 1319 2516 
Q 1319 2381 1436 2309 
Q 1553 2238 1856 2203 
L 2053 2175 
Q 2913 2066 3209 1816 
Q 3506 1566 3506 1031 
Q 3506 472 3093 190 
Q 2681 -91 1863 -91 
Q 1516 -91 1145 -36 
Q 775 19 384 128 
L 384 978 
Q 719 816 1070 734 
Q 1422 653 1784 653 
Q 2113 653 2278 743 
Q 2444 834 2444 1013 
Q 2444 1163 2330 1236 
Q 2216 1309 1875 1350 
L 1678 1375 
Q 931 1469 631 1722 
Q 331 1975 331 2491 
Q 331 3047 712 3315 
Q 1094 3584 1881 3584 
Q 2191 3584 2531 3537 
Q 2872 3491 3272 3391 
z
" transform="scale(0.015625)"/>
       <path id="DejaVuSans-Bold-b5" d="M 544 -1338 
L 544 3500 
L 1672 3500 
L 1672 1466 
Q 1672 1103 1828 926 
Q 1984 750 2303 750 
Q 2625 750 2781 926 
Q 2938 1103 2938 1466 
L 2938 3500 
L 4063 3500 
L 4063 1159 
Q 4063 938 4114 850 
Q 4166 763 4288 763 
Q 4344 763 4395 778 
Q 4447 794 4506 831 
L 4506 50 
Q 4341 -22 4195 -56 
Q 4050 -91 3909 -91 
Q 3631 -91 3454 26 
Q 3278 144 3169 403 
Q 3022 156 2811 32 
Q 2600 -91 2322 -91 
Q 2091 -91 1928 -17 
Q 1766 56 1672 206 
L 1672 -1338 
L 544 -1338 
z
" transform="scale(0.015625)"/>
       <path id="DejaVuSans-Bold-4d" d="M 588 4666 
L 2119 4666 
L 3181 2169 
L 4250 4666 
L 5778 4666 
L 5778 0 
L 4641 0 
L 4641 3413 
L 3566 897 
L 2803 897 
L 1728 3413 
L 1728 0 
L 588 0 
L 588 4666 
z
" transform="scale(0.015625)"/>
      </defs>
      <use xlink:href="#DejaVuSans-Bold-61"/>
      <use xlink:href="#DejaVuSans-Bold-70" transform="translate(67.480469 0)"/>
      <use xlink:href="#DejaVuSans-Bold-69" transform="translate(139.0625 0)"/>
      <use xlink:href="#DejaVuSans-Bold-78" transform="translate(173.339844 0)"/>
      <use xlink:href="#DejaVuSans-Bold-61" transform="translate(237.841797 0)"/>
      <use xlink:href="#DejaVuSans-Bold-62" transform="translate(305.322266 0)"/>
      <use xlink:href="#DejaVuSans-Bold-61" transform="translate(376.904297 0)"/>
      <use xlink:href="#DejaVuSans-Bold-6e" transform="translate(444.384766 0)"/>
      <use xlink:href="#DejaVuSans-Bold-20" transform="translate(515.576172 0)"/>
      <use xlink:href="#DejaVuSans-Bold-70" transform="translate(550.390625 0)"/>
      <use xlink:href="#DejaVuSans-Bold-6c" transform="translate(621.972656 0)"/>
      <use xlink:href="#DejaVuSans-Bold-61" transform="translate(656.25 0)"/>
      <use xlink:href="#DejaVuSans-Bold-73" transform="translate(723.730469 0)"/>
      <use xlink:href="#DejaVuSans-Bold-6d" transform="translate(783.251953 0)"/>
      <use xlink:href="#DejaVuSans-Bold-61" transform="translate(887.451172 0)"/>
      <use xlink:href="#DejaVuSans-Bold-20" transform="translate(954.931641 0)"/>
      <use xlink:href="#DejaVuSans-Bold-5b" transform="translate(989.746094 0)"/>
      <use xlink:href="#DejaVuSans-Bold-b5" transform="translate(1035.449219 0)"/>
      <use xlink:href="#DejaVuSans-Bold-4d" transform="translate(1109.033203 0)"/>
      <use xlink:href="#DejaVuSans-Bold-5d" transform="translate(1208.544922 0)"/>
     </g>
    </g>
   </g>
   <g id="LineCollection_1">
    <path clip-path="url(#p91b23ffe99)" style="fill: none; stroke: #1f77b4"/>
    <path d="M 106.652732 262.856672 
L 106.652732 201.863139 
" clip-path="url(#p91b23ffe99)" style="fill: none; stroke: #1f77b4"/>
    <path d="M 109.740479 222.730394 
L 109.740479 94.322634 
" clip-path="url(#p91b23ffe99)" style="fill: none; stroke: #1f77b4"/>
    <path d="M 112.828226 190.628454 
L 112.828226 55.8 
" clip-path="url(#p91b23ffe99)" style="fill: none; stroke: #1f77b4"/>
    <path d="M 115.915973 185.812934 
L 115.915973 57.405174 
" clip-path="url(#p91b23ffe99)" style="fill: none; stroke: #1f77b4"/>
    <path d="M 119.00372 171.367902 
L 119.00372 65.429511 
" clip-path="url(#p91b23ffe99)" style="fill: none; stroke: #1f77b4"/>
    <path d="M 122.091467 172.973076 
L 122.091467 67.034684 
" clip-path="url(#p91b23ffe99)" style="fill: none; stroke: #1f77b4"/>
    <path d="M 128.266961 164.947208 
L 128.266961 65.429511 
" clip-path="url(#p91b23ffe99)" style="fill: none; stroke: #1f77b4"/>
    <path d="M 134.442456 169.762729 
L 134.442456 73.455378 
" clip-path="url(#p91b23ffe99)" style="fill: none; stroke: #1f77b4"/>
    <path d="M 140.61795 176.180363 
L 140.61795 83.08642 
" clip-path="url(#p91b23ffe99)" style="fill: none; stroke: #1f77b4"/>
    <path d="M 152.968938 192.233628 
L 152.968938 99.136624 
" clip-path="url(#p91b23ffe99)" style="fill: none; stroke: #1f77b4"/>
    <path d="M 177.670914 232.359905 
L 177.670914 171.366372 
" clip-path="url(#p91b23ffe99)" style="fill: none; stroke: #1f77b4"/>
    <path d="M 202.37289 251.620457 
L 202.37289 206.678659 
" clip-path="url(#p91b23ffe99)" style="fill: none; stroke: #1f77b4"/>
    <path d="M 251.776843 278.906877 
L 251.776843 246.806467 
" clip-path="url(#p91b23ffe99)" style="fill: none; stroke: #1f77b4"/>
    <path d="M 399.988701 298.167429 
L 399.988701 285.329101 
" clip-path="url(#p91b23ffe99)" style="fill: none; stroke: #1f77b4"/>
   </g>
   <g id="LineCollection_2">
    <path clip-path="url(#p91b23ffe99)" style="fill: none; stroke: #000000"/>
    <path d="M 106.652732 291.748265 
L 106.652732 246.806467 
" clip-path="url(#p91b23ffe99)" style="fill: none; stroke: #000000"/>
    <path d="M 109.740479 238.780599 
L 109.740479 184.20776 
" clip-path="url(#p91b23ffe99)" style="fill: none; stroke: #000000"/>
    <path d="M 112.828226 221.125221 
L 112.828226 160.131688 
" clip-path="url(#p91b23ffe99)" style="fill: none; stroke: #000000"/>
    <path d="M 115.915973 211.49418 
L 115.915973 163.342035 
" clip-path="url(#p91b23ffe99)" style="fill: none; stroke: #000000"/>
    <path d="M 119.00372 209.889006 
L 119.00372 161.736861 
" clip-path="url(#p91b23ffe99)" style="fill: none; stroke: #000000"/>
    <path d="M 122.091467 213.099353 
L 122.091467 168.157555 
" clip-path="url(#p91b23ffe99)" style="fill: none; stroke: #000000"/>
    <path d="M 128.266961 214.704527 
L 128.266961 172.970015 
" clip-path="url(#p91b23ffe99)" style="fill: none; stroke: #000000"/>
    <path d="M 134.442456 217.914874 
L 134.442456 182.601057 
" clip-path="url(#p91b23ffe99)" style="fill: none; stroke: #000000"/>
    <path d="M 140.61795 225.939211 
L 140.61795 184.20776 
" clip-path="url(#p91b23ffe99)" style="fill: none; stroke: #000000"/>
    <path d="M 152.968938 237.175426 
L 152.968938 192.233628 
" clip-path="url(#p91b23ffe99)" style="fill: none; stroke: #000000"/>
    <path d="M 177.670914 266.067019 
L 177.670914 233.966609 
" clip-path="url(#p91b23ffe99)" style="fill: none; stroke: #000000"/>
    <path d="M 202.37289 277.303233 
L 202.37289 254.830804 
" clip-path="url(#p91b23ffe99)" style="fill: none; stroke: #000000"/>
    <path d="M 251.776843 294.958612 
L 251.776843 275.69959 
" clip-path="url(#p91b23ffe99)" style="fill: none; stroke: #000000"/>
    <path d="M 399.988701 304.589653 
L 399.988701 298.168959 
" clip-path="url(#p91b23ffe99)" style="fill: none; stroke: #000000"/>
   </g>
   <g id="line2d_15">
    <path d="M 103.564985 307.8 
L 104.182535 307.323541 
L 104.800084 305.76213 
L 105.417633 303.472023 
L 106.652732 297.730842 
L 112.828226 266.757249 
L 115.298424 256.250973 
L 117.151072 249.221546 
L 119.00372 242.880801 
L 120.856369 237.184256 
L 122.709017 232.086686 
L 124.561665 227.544439 
L 126.414313 223.516243 
L 128.266961 219.963418 
L 130.11961 216.849854 
L 131.972258 214.141898 
L 133.824906 211.808214 
L 135.677554 209.819637 
L 137.530203 208.149033 
L 139.382851 206.77116 
L 141.235499 205.662544 
L 143.088147 204.801357 
L 144.940795 204.167311 
L 146.793444 203.741548 
L 148.646092 203.506547 
L 151.11629 203.461987 
L 153.586487 203.692349 
L 156.056685 204.165567 
L 158.526882 204.852617 
L 161.614629 205.972379 
L 164.702376 207.339615 
L 168.407673 209.250526 
L 172.730519 211.776957 
L 177.670914 214.957775 
L 183.846408 219.230938 
L 193.109649 225.958659 
L 209.165934 237.640682 
L 217.811625 243.634629 
L 225.222218 248.516789 
L 232.632811 253.132591 
L 239.425855 257.117582 
L 246.218898 260.863593 
L 253.011942 264.372502 
L 259.804985 267.649829 
L 267.215578 270.970467 
L 274.626171 274.037739 
L 282.036764 276.865659 
L 289.447357 279.468909 
L 297.475499 282.05277 
L 305.503641 284.408959 
L 314.149333 286.71237 
L 322.795025 288.793894 
L 332.058266 290.800568 
L 341.939056 292.711207 
L 352.437396 294.50898 
L 363.553286 296.181448 
L 375.286724 297.72042 
L 388.255262 299.186389 
L 401.841349 300.494748 
L 412.339689 301.368317 
L 412.339689 301.368317 
" clip-path="url(#p91b23ffe99)" style="fill: none; stroke: #1f77b4; stroke-width: 2; stroke-linecap: square"/>
   </g>
   <g id="line2d_16">
    <path d="M 103.564985 307.8 
L 106.652732 232.359905 
L 109.740479 158.526514 
L 112.828226 123.214227 
L 115.915973 121.609054 
L 119.00372 118.398707 
L 122.091467 120.00388 
L 128.266961 115.18836 
L 134.442456 121.609054 
L 140.61795 129.633391 
L 152.968938 145.685126 
L 177.670914 201.863139 
L 202.37289 229.149558 
L 251.776843 262.856672 
L 399.988701 291.748265 
" clip-path="url(#p91b23ffe99)" style="fill: none; stroke-dasharray: 3.7,1.6; stroke-dashoffset: 0; stroke: #1f77b4"/>
    <defs>
     <path id="m98034f3b0a" d="M -3 3 
L 3 3 
L 3 -3 
L -3 -3 
z
" style="stroke: #000000; stroke-linejoin: miter"/>
    </defs>
    <g clip-path="url(#p91b23ffe99)">
     <use xlink:href="#m98034f3b0a" x="103.564985" y="307.8" style="fill: #1f77b4; stroke: #000000; stroke-linejoin: miter"/>
     <use xlink:href="#m98034f3b0a" x="106.652732" y="232.359905" style="fill: #1f77b4; stroke: #000000; stroke-linejoin: miter"/>
     <use xlink:href="#m98034f3b0a" x="109.740479" y="158.526514" style="fill: #1f77b4; stroke: #000000; stroke-linejoin: miter"/>
     <use xlink:href="#m98034f3b0a" x="112.828226" y="123.214227" style="fill: #1f77b4; stroke: #000000; stroke-linejoin: miter"/>
     <use xlink:href="#m98034f3b0a" x="115.915973" y="121.609054" style="fill: #1f77b4; stroke: #000000; stroke-linejoin: miter"/>
     <use xlink:href="#m98034f3b0a" x="119.00372" y="118.398707" style="fill: #1f77b4; stroke: #000000; stroke-linejoin: miter"/>
     <use xlink:href="#m98034f3b0a" x="122.091467" y="120.00388" style="fill: #1f77b4; stroke: #000000; stroke-linejoin: miter"/>
     <use xlink:href="#m98034f3b0a" x="128.266961" y="115.18836" style="fill: #1f77b4; stroke: #000000; stroke-linejoin: miter"/>
     <use xlink:href="#m98034f3b0a" x="134.442456" y="121.609054" style="fill: #1f77b4; stroke: #000000; stroke-linejoin: miter"/>
     <use xlink:href="#m98034f3b0a" x="140.61795" y="129.633391" style="fill: #1f77b4; stroke: #000000; stroke-linejoin: miter"/>
     <use xlink:href="#m98034f3b0a" x="152.968938" y="145.685126" style="fill: #1f77b4; stroke: #000000; stroke-linejoin: miter"/>
     <use xlink:href="#m98034f3b0a" x="177.670914" y="201.863139" style="fill: #1f77b4; stroke: #000000; stroke-linejoin: miter"/>
     <use xlink:href="#m98034f3b0a" x="202.37289" y="229.149558" style="fill: #1f77b4; stroke: #000000; stroke-linejoin: miter"/>
     <use xlink:href="#m98034f3b0a" x="251.776843" y="262.856672" style="fill: #1f77b4; stroke: #000000; stroke-linejoin: miter"/>
     <use xlink:href="#m98034f3b0a" x="399.988701" y="291.748265" style="fill: #1f77b4; stroke: #000000; stroke-linejoin: miter"/>
    </g>
   </g>
   <g id="line2d_17">
    <path d="M 103.564985 307.8 
L 104.182535 307.323541 
L 104.800084 305.76213 
L 105.417633 303.472023 
L 106.652732 297.730842 
L 112.828226 266.757249 
L 115.298424 256.250973 
L 117.151072 249.221546 
L 119.00372 242.880801 
L 120.856369 237.184256 
L 122.709017 232.086686 
L 124.561665 227.544439 
L 126.414313 223.516243 
L 128.266961 219.963418 
L 130.11961 216.849854 
L 131.972258 214.141898 
L 133.824906 211.808214 
L 135.677554 209.819637 
L 137.530203 208.149033 
L 139.382851 206.77116 
L 141.235499 205.662544 
L 143.088147 204.801357 
L 144.940795 204.167311 
L 146.793444 203.741548 
L 148.646092 203.506547 
L 151.11629 203.461987 
L 153.586487 203.692349 
L 156.056685 204.165567 
L 158.526882 204.852617 
L 161.614629 205.972379 
L 164.702376 207.339615 
L 168.407673 209.250526 
L 172.730519 211.776957 
L 177.670914 214.957775 
L 183.846408 219.230938 
L 193.109649 225.958659 
L 209.165934 237.640682 
L 217.811625 243.634629 
L 225.222218 248.516789 
L 232.632811 253.132591 
L 239.425855 257.117582 
L 246.218898 260.863593 
L 253.011942 264.372502 
L 259.804985 267.649829 
L 267.215578 270.970467 
L 274.626171 274.037739 
L 282.036764 276.865659 
L 289.447357 279.468909 
L 297.475499 282.05277 
L 305.503641 284.408959 
L 314.149333 286.71237 
L 322.795025 288.793894 
L 332.058266 290.800568 
L 341.939056 292.711207 
L 352.437396 294.50898 
L 363.553286 296.181448 
L 375.286724 297.72042 
L 388.255262 299.186389 
L 401.841349 300.494748 
L 412.339689 301.368317 
L 412.339689 301.368317 
" clip-path="url(#p91b23ffe99)" style="fill: none; stroke: #000000; stroke-width: 2; stroke-linecap: square"/>
   </g>
   <g id="line2d_18">
    <path d="M 103.564985 307.8 
L 106.652732 269.277366 
L 109.740479 211.49418 
L 112.828226 190.628454 
L 115.915973 187.418107 
L 119.00372 185.812934 
L 122.091467 190.628454 
L 128.266961 193.837271 
L 134.442456 200.257965 
L 140.61795 205.073486 
L 152.968938 214.704527 
L 177.670914 250.016814 
L 202.37289 266.067019 
L 251.776843 285.329101 
L 399.988701 301.379306 
" clip-path="url(#p91b23ffe99)" style="fill: none; stroke-dasharray: 3.7,1.6; stroke-dashoffset: 0; stroke: #000000"/>
    <defs>
     <path id="m2a7c9bf31e" d="M -3 3 
L 3 3 
L 3 -3 
L -3 -3 
z
" style="stroke: #000000; stroke-linejoin: miter"/>
    </defs>
    <g clip-path="url(#p91b23ffe99)">
     <use xlink:href="#m2a7c9bf31e" x="103.564985" y="307.8" style="stroke: #000000; stroke-linejoin: miter"/>
     <use xlink:href="#m2a7c9bf31e" x="106.652732" y="269.277366" style="stroke: #000000; stroke-linejoin: miter"/>
     <use xlink:href="#m2a7c9bf31e" x="109.740479" y="211.49418" style="stroke: #000000; stroke-linejoin: miter"/>
     <use xlink:href="#m2a7c9bf31e" x="112.828226" y="190.628454" style="stroke: #000000; stroke-linejoin: miter"/>
     <use xlink:href="#m2a7c9bf31e" x="115.915973" y="187.418107" style="stroke: #000000; stroke-linejoin: miter"/>
     <use xlink:href="#m2a7c9bf31e" x="119.00372" y="185.812934" style="stroke: #000000; stroke-linejoin: miter"/>
     <use xlink:href="#m2a7c9bf31e" x="122.091467" y="190.628454" style="stroke: #000000; stroke-linejoin: miter"/>
     <use xlink:href="#m2a7c9bf31e" x="128.266961" y="193.837271" style="stroke: #000000; stroke-linejoin: miter"/>
     <use xlink:href="#m2a7c9bf31e" x="134.442456" y="200.257965" style="stroke: #000000; stroke-linejoin: miter"/>
     <use xlink:href="#m2a7c9bf31e" x="140.61795" y="205.073486" style="stroke: #000000; stroke-linejoin: miter"/>
     <use xlink:href="#m2a7c9bf31e" x="152.968938" y="214.704527" style="stroke: #000000; stroke-linejoin: miter"/>
     <use xlink:href="#m2a7c9bf31e" x="177.670914" y="250.016814" style="stroke: #000000; stroke-linejoin: miter"/>
     <use xlink:href="#m2a7c9bf31e" x="202.37289" y="266.067019" style="stroke: #000000; stroke-linejoin: miter"/>
     <use xlink:href="#m2a7c9bf31e" x="251.776843" y="285.329101" style="stroke: #000000; stroke-linejoin: miter"/>
     <use xlink:href="#m2a7c9bf31e" x="399.988701" y="301.379306" style="stroke: #000000; stroke-linejoin: miter"/>
    </g>
   </g>
   <g id="patch_3">
    <path d="M 88.12625 320.4 
L 88.12625 43.2 
" style="fill: none; stroke: #000000; stroke-width: 0.8; stroke-linejoin: miter; stroke-linecap: square"/>
   </g>
   <g id="patch_4">
    <path d="M 427.778424 320.4 
L 427.778424 43.2 
" style="fill: none; stroke: #000000; stroke-width: 0.8; stroke-linejoin: miter; stroke-linecap: square"/>
   </g>
   <g id="patch_5">
    <path d="M 88.12625 320.4 
L 427.778424 320.4 
" style="fill: none; stroke: #000000; stroke-width: 0.8; stroke-linejoin: miter; stroke-linecap: square"/>
   </g>
   <g id="patch_6">
    <path d="M 88.12625 43.2 
L 427.778424 43.2 
" style="fill: none; stroke: #000000; stroke-width: 0.8; stroke-linejoin: miter; stroke-linecap: square"/>
   </g>
   <g id="legend_1">
    <g id="patch_7">
     <path d="M 220.028268 129.92625 
L 418.678424 129.92625 
Q 421.278424 129.92625 421.278424 127.32625 
L 421.278424 52.3 
Q 421.278424 49.7 418.678424 49.7 
L 220.028268 49.7 
Q 217.428268 49.7 217.428268 52.3 
L 217.428268 127.32625 
Q 217.428268 129.92625 220.028268 129.92625 
z
" style="fill: #ffffff; opacity: 0.8; stroke: #cccccc; stroke-linejoin: miter"/>
    </g>
    <g id="line2d_19">
     <path d="M 222.628268 60.227969 
L 248.628268 60.227969 
" style="fill: none; stroke: #1f77b4; stroke-width: 2; stroke-linecap: square"/>
    </g>
    <g id="line2d_20"/>
    <g id="text_17">
     <!-- EDO50, KET -->
     <g transform="translate(259.028268 64.777969) scale(0.13 -0.13)">
      <defs>
       <path id="DejaVuSans-45" d="M 628 4666 
L 3578 4666 
L 3578 4134 
L 1259 4134 
L 1259 2753 
L 3481 2753 
L 3481 2222 
L 1259 2222 
L 1259 531 
L 3634 531 
L 3634 0 
L 628 0 
L 628 4666 
z
" transform="scale(0.015625)"/>
       <path id="DejaVuSans-44" d="M 1259 4147 
L 1259 519 
L 2022 519 
Q 2988 519 3436 956 
Q 3884 1394 3884 2338 
Q 3884 3275 3436 3711 
Q 2988 4147 2022 4147 
L 1259 4147 
z
M 628 4666 
L 1925 4666 
Q 3281 4666 3915 4102 
Q 4550 3538 4550 2338 
Q 4550 1131 3912 565 
Q 3275 0 1925 0 
L 628 0 
L 628 4666 
z
" transform="scale(0.015625)"/>
       <path id="DejaVuSans-4f" d="M 2522 4238 
Q 1834 4238 1429 3725 
Q 1025 3213 1025 2328 
Q 1025 1447 1429 934 
Q 1834 422 2522 422 
Q 3209 422 3611 934 
Q 4013 1447 4013 2328 
Q 4013 3213 3611 3725 
Q 3209 4238 2522 4238 
z
M 2522 4750 
Q 3503 4750 4090 4092 
Q 4678 3434 4678 2328 
Q 4678 1225 4090 567 
Q 3503 -91 2522 -91 
Q 1538 -91 948 565 
Q 359 1222 359 2328 
Q 359 3434 948 4092 
Q 1538 4750 2522 4750 
z
" transform="scale(0.015625)"/>
       <path id="DejaVuSans-2c" d="M 750 794 
L 1409 794 
L 1409 256 
L 897 -744 
L 494 -744 
L 750 256 
L 750 794 
z
" transform="scale(0.015625)"/>
       <path id="DejaVuSans-20" transform="scale(0.015625)"/>
       <path id="DejaVuSans-4b" d="M 628 4666 
L 1259 4666 
L 1259 2694 
L 3353 4666 
L 4166 4666 
L 1850 2491 
L 4331 0 
L 3500 0 
L 1259 2247 
L 1259 0 
L 628 0 
L 628 4666 
z
" transform="scale(0.015625)"/>
       <path id="DejaVuSans-54" d="M -19 4666 
L 3928 4666 
L 3928 4134 
L 2272 4134 
L 2272 0 
L 1638 0 
L 1638 4134 
L -19 4134 
L -19 4666 
z
" transform="scale(0.015625)"/>
      </defs>
      <use xlink:href="#DejaVuSans-45"/>
      <use xlink:href="#DejaVuSans-44" transform="translate(63.183594 0)"/>
      <use xlink:href="#DejaVuSans-4f" transform="translate(140.185547 0)"/>
      <use xlink:href="#DejaVuSans-35" transform="translate(218.896484 0)"/>
      <use xlink:href="#DejaVuSans-30" transform="translate(282.519531 0)"/>
      <use xlink:href="#DejaVuSans-2c" transform="translate(346.142578 0)"/>
      <use xlink:href="#DejaVuSans-20" transform="translate(377.929688 0)"/>
      <use xlink:href="#DejaVuSans-4b" transform="translate(409.716797 0)"/>
      <use xlink:href="#DejaVuSans-45" transform="translate(475.292969 0)"/>
      <use xlink:href="#DejaVuSans-54" transform="translate(538.476562 0)"/>
     </g>
    </g>
    <g id="LineCollection_3">
     <path d="M 235.628268 85.809531 
L 235.628268 72.809531 
" style="fill: none; stroke: #1f77b4"/>
    </g>
    <g id="line2d_21">
     <path d="M 222.628268 79.309531 
L 248.628268 79.309531 
" style="fill: none; stroke-dasharray: 3.7,1.6; stroke-dashoffset: 0; stroke: #1f77b4"/>
    </g>
    <g id="line2d_22">
     <g>
      <use xlink:href="#m98034f3b0a" x="235.628268" y="79.309531" style="fill: #1f77b4; stroke: #000000; stroke-linejoin: miter"/>
     </g>
    </g>
    <g id="text_18">
     <!-- EDO50, KET±SD (n=18) -->
     <g transform="translate(259.028268 83.859531) scale(0.13 -0.13)">
      <defs>
       <path id="DejaVuSans-b1" d="M 2944 4013 
L 2944 2803 
L 4684 2803 
L 4684 2272 
L 2944 2272 
L 2944 1063 
L 2419 1063 
L 2419 2272 
L 678 2272 
L 678 2803 
L 2419 2803 
L 2419 4013 
L 2944 4013 
z
M 678 531 
L 4684 531 
L 4684 0 
L 678 0 
L 678 531 
z
" transform="scale(0.015625)"/>
       <path id="DejaVuSans-53" d="M 3425 4513 
L 3425 3897 
Q 3066 4069 2747 4153 
Q 2428 4238 2131 4238 
Q 1616 4238 1336 4038 
Q 1056 3838 1056 3469 
Q 1056 3159 1242 3001 
Q 1428 2844 1947 2747 
L 2328 2669 
Q 3034 2534 3370 2195 
Q 3706 1856 3706 1288 
Q 3706 609 3251 259 
Q 2797 -91 1919 -91 
Q 1588 -91 1214 -16 
Q 841 59 441 206 
L 441 856 
Q 825 641 1194 531 
Q 1563 422 1919 422 
Q 2459 422 2753 634 
Q 3047 847 3047 1241 
Q 3047 1584 2836 1778 
Q 2625 1972 2144 2069 
L 1759 2144 
Q 1053 2284 737 2584 
Q 422 2884 422 3419 
Q 422 4038 858 4394 
Q 1294 4750 2059 4750 
Q 2388 4750 2728 4690 
Q 3069 4631 3425 4513 
z
" transform="scale(0.015625)"/>
       <path id="DejaVuSans-28" d="M 1984 4856 
Q 1566 4138 1362 3434 
Q 1159 2731 1159 2009 
Q 1159 1288 1364 580 
Q 1569 -128 1984 -844 
L 1484 -844 
Q 1016 -109 783 600 
Q 550 1309 550 2009 
Q 550 2706 781 3412 
Q 1013 4119 1484 4856 
L 1984 4856 
z
" transform="scale(0.015625)"/>
       <path id="DejaVuSans-6e" d="M 3513 2113 
L 3513 0 
L 2938 0 
L 2938 2094 
Q 2938 2591 2744 2837 
Q 2550 3084 2163 3084 
Q 1697 3084 1428 2787 
Q 1159 2491 1159 1978 
L 1159 0 
L 581 0 
L 581 3500 
L 1159 3500 
L 1159 2956 
Q 1366 3272 1645 3428 
Q 1925 3584 2291 3584 
Q 2894 3584 3203 3211 
Q 3513 2838 3513 2113 
z
" transform="scale(0.015625)"/>
       <path id="DejaVuSans-3d" d="M 678 2906 
L 4684 2906 
L 4684 2381 
L 678 2381 
L 678 2906 
z
M 678 1631 
L 4684 1631 
L 4684 1100 
L 678 1100 
L 678 1631 
z
" transform="scale(0.015625)"/>
       <path id="DejaVuSans-38" d="M 2034 2216 
Q 1584 2216 1326 1975 
Q 1069 1734 1069 1313 
Q 1069 891 1326 650 
Q 1584 409 2034 409 
Q 2484 409 2743 651 
Q 3003 894 3003 1313 
Q 3003 1734 2745 1975 
Q 2488 2216 2034 2216 
z
M 1403 2484 
Q 997 2584 770 2862 
Q 544 3141 544 3541 
Q 544 4100 942 4425 
Q 1341 4750 2034 4750 
Q 2731 4750 3128 4425 
Q 3525 4100 3525 3541 
Q 3525 3141 3298 2862 
Q 3072 2584 2669 2484 
Q 3125 2378 3379 2068 
Q 3634 1759 3634 1313 
Q 3634 634 3220 271 
Q 2806 -91 2034 -91 
Q 1263 -91 848 271 
Q 434 634 434 1313 
Q 434 1759 690 2068 
Q 947 2378 1403 2484 
z
M 1172 3481 
Q 1172 3119 1398 2916 
Q 1625 2713 2034 2713 
Q 2441 2713 2670 2916 
Q 2900 3119 2900 3481 
Q 2900 3844 2670 4047 
Q 2441 4250 2034 4250 
Q 1625 4250 1398 4047 
Q 1172 3844 1172 3481 
z
" transform="scale(0.015625)"/>
       <path id="DejaVuSans-29" d="M 513 4856 
L 1013 4856 
Q 1481 4119 1714 3412 
Q 1947 2706 1947 2009 
Q 1947 1309 1714 600 
Q 1481 -109 1013 -844 
L 513 -844 
Q 928 -128 1133 580 
Q 1338 1288 1338 2009 
Q 1338 2731 1133 3434 
Q 928 4138 513 4856 
z
" transform="scale(0.015625)"/>
      </defs>
      <use xlink:href="#DejaVuSans-45"/>
      <use xlink:href="#DejaVuSans-44" transform="translate(63.183594 0)"/>
      <use xlink:href="#DejaVuSans-4f" transform="translate(140.185547 0)"/>
      <use xlink:href="#DejaVuSans-35" transform="translate(218.896484 0)"/>
      <use xlink:href="#DejaVuSans-30" transform="translate(282.519531 0)"/>
      <use xlink:href="#DejaVuSans-2c" transform="translate(346.142578 0)"/>
      <use xlink:href="#DejaVuSans-20" transform="translate(377.929688 0)"/>
      <use xlink:href="#DejaVuSans-4b" transform="translate(409.716797 0)"/>
      <use xlink:href="#DejaVuSans-45" transform="translate(475.292969 0)"/>
      <use xlink:href="#DejaVuSans-54" transform="translate(538.476562 0)"/>
      <use xlink:href="#DejaVuSans-b1" transform="translate(599.560547 0)"/>
      <use xlink:href="#DejaVuSans-53" transform="translate(683.349609 0)"/>
      <use xlink:href="#DejaVuSans-44" transform="translate(746.826172 0)"/>
      <use xlink:href="#DejaVuSans-20" transform="translate(823.828125 0)"/>
      <use xlink:href="#DejaVuSans-28" transform="translate(855.615234 0)"/>
      <use xlink:href="#DejaVuSans-6e" transform="translate(894.628906 0)"/>
      <use xlink:href="#DejaVuSans-3d" transform="translate(958.007812 0)"/>
      <use xlink:href="#DejaVuSans-31" transform="translate(1041.796875 0)"/>
      <use xlink:href="#DejaVuSans-38" transform="translate(1105.419922 0)"/>
      <use xlink:href="#DejaVuSans-29" transform="translate(1169.042969 0)"/>
     </g>
    </g>
    <g id="line2d_23">
     <path d="M 222.628268 98.391094 
L 248.628268 98.391094 
" style="fill: none; stroke: #000000; stroke-width: 2; stroke-linecap: square"/>
    </g>
    <g id="line2d_24"/>
    <g id="text_19">
     <!-- EDO50 -->
     <g transform="translate(259.028268 102.941094) scale(0.13 -0.13)">
      <use xlink:href="#DejaVuSans-45"/>
      <use xlink:href="#DejaVuSans-44" transform="translate(63.183594 0)"/>
      <use xlink:href="#DejaVuSans-4f" transform="translate(140.185547 0)"/>
      <use xlink:href="#DejaVuSans-35" transform="translate(218.896484 0)"/>
      <use xlink:href="#DejaVuSans-30" transform="translate(282.519531 0)"/>
     </g>
    </g>
    <g id="LineCollection_4">
     <path d="M 235.628268 123.972656 
L 235.628268 110.972656 
" style="fill: none; stroke: #000000"/>
    </g>
    <g id="line2d_25">
     <path d="M 222.628268 117.472656 
L 248.628268 117.472656 
" style="fill: none; stroke-dasharray: 3.7,1.6; stroke-dashoffset: 0; stroke: #000000"/>
    </g>
    <g id="line2d_26">
     <g>
      <use xlink:href="#m2a7c9bf31e" x="235.628268" y="117.472656" style="stroke: #000000; stroke-linejoin: miter"/>
     </g>
    </g>
    <g id="text_20">
     <!-- EDO50±SD (n=18) -->
     <g transform="translate(259.028268 122.022656) scale(0.13 -0.13)">
      <use xlink:href="#DejaVuSans-45"/>
      <use xlink:href="#DejaVuSans-44" transform="translate(63.183594 0)"/>
      <use xlink:href="#DejaVuSans-4f" transform="translate(140.185547 0)"/>
      <use xlink:href="#DejaVuSans-35" transform="translate(218.896484 0)"/>
      <use xlink:href="#DejaVuSans-30" transform="translate(282.519531 0)"/>
      <use xlink:href="#DejaVuSans-b1" transform="translate(346.142578 0)"/>
      <use xlink:href="#DejaVuSans-53" transform="translate(429.931641 0)"/>
      <use xlink:href="#DejaVuSans-44" transform="translate(493.408203 0)"/>
      <use xlink:href="#DejaVuSans-20" transform="translate(570.410156 0)"/>
      <use xlink:href="#DejaVuSans-28" transform="translate(602.197266 0)"/>
      <use xlink:href="#DejaVuSans-6e" transform="translate(641.210938 0)"/>
      <use xlink:href="#DejaVuSans-3d" transform="translate(704.589844 0)"/>
      <use xlink:href="#DejaVuSans-31" transform="translate(788.378906 0)"/>
      <use xlink:href="#DejaVuSans-38" transform="translate(852.001953 0)"/>
      <use xlink:href="#DejaVuSans-29" transform="translate(915.625 0)"/>
     </g>
    </g>
   </g>
  </g>
  <g id="axes_2">
   <g id="patch_8">
    <path d="M 529.674076 320.4 
L 869.32625 320.4 
L 869.32625 43.2 
L 529.674076 43.2 
z
" style="fill: #ffffff"/>
   </g>
   <g id="matplotlib.axis_3">
    <g id="xtick_7">
     <g id="line2d_27">
      <g>
       <use xlink:href="#meddd3195de" x="545.112811" y="320.4" style="stroke: #000000; stroke-width: 0.8"/>
      </g>
     </g>
     <g id="text_21">
      <!-- 0 -->
      <g transform="translate(540.340936 338.797656) scale(0.15 -0.15)">
       <use xlink:href="#DejaVuSans-30"/>
      </g>
     </g>
    </g>
    <g id="xtick_8">
     <g id="line2d_28">
      <g>
       <use xlink:href="#meddd3195de" x="606.867752" y="320.4" style="stroke: #000000; stroke-width: 0.8"/>
      </g>
     </g>
     <g id="text_22">
      <!-- 5 -->
      <g transform="translate(602.095877 338.797656) scale(0.15 -0.15)">
       <use xlink:href="#DejaVuSans-35"/>
      </g>
     </g>
    </g>
    <g id="xtick_9">
     <g id="line2d_29">
      <g>
       <use xlink:href="#meddd3195de" x="668.622693" y="320.4" style="stroke: #000000; stroke-width: 0.8"/>
      </g>
     </g>
     <g id="text_23">
      <!-- 10 -->
      <g transform="translate(659.078943 338.797656) scale(0.15 -0.15)">
       <use xlink:href="#DejaVuSans-31"/>
       <use xlink:href="#DejaVuSans-30" transform="translate(63.623047 0)"/>
      </g>
     </g>
    </g>
    <g id="xtick_10">
     <g id="line2d_30">
      <g>
       <use xlink:href="#meddd3195de" x="730.377633" y="320.4" style="stroke: #000000; stroke-width: 0.8"/>
      </g>
     </g>
     <g id="text_24">
      <!-- 15 -->
      <g transform="translate(720.833883 338.797656) scale(0.15 -0.15)">
       <use xlink:href="#DejaVuSans-31"/>
       <use xlink:href="#DejaVuSans-35" transform="translate(63.623047 0)"/>
      </g>
     </g>
    </g>
    <g id="xtick_11">
     <g id="line2d_31">
      <g>
       <use xlink:href="#meddd3195de" x="792.132574" y="320.4" style="stroke: #000000; stroke-width: 0.8"/>
      </g>
     </g>
     <g id="text_25">
      <!-- 20 -->
      <g transform="translate(782.588824 338.797656) scale(0.15 -0.15)">
       <use xlink:href="#DejaVuSans-32"/>
       <use xlink:href="#DejaVuSans-30" transform="translate(63.623047 0)"/>
      </g>
     </g>
    </g>
    <g id="xtick_12">
     <g id="line2d_32">
      <g>
       <use xlink:href="#meddd3195de" x="853.887515" y="320.4" style="stroke: #000000; stroke-width: 0.8"/>
      </g>
     </g>
     <g id="text_26">
      <!-- 25 -->
      <g transform="translate(844.343765 338.797656) scale(0.15 -0.15)">
       <use xlink:href="#DejaVuSans-32"/>
       <use xlink:href="#DejaVuSans-35" transform="translate(63.623047 0)"/>
      </g>
     </g>
    </g>
    <g id="text_27">
     <!-- time [hr] -->
     <g transform="translate(654.425632 359.594375) scale(0.18 -0.18)">
      <use xlink:href="#DejaVuSans-Bold-74"/>
      <use xlink:href="#DejaVuSans-Bold-69" transform="translate(47.802734 0)"/>
      <use xlink:href="#DejaVuSans-Bold-6d" transform="translate(82.080078 0)"/>
      <use xlink:href="#DejaVuSans-Bold-65" transform="translate(186.279297 0)"/>
      <use xlink:href="#DejaVuSans-Bold-20" transform="translate(254.101562 0)"/>
      <use xlink:href="#DejaVuSans-Bold-5b" transform="translate(288.916016 0)"/>
      <use xlink:href="#DejaVuSans-Bold-68" transform="translate(334.619141 0)"/>
      <use xlink:href="#DejaVuSans-Bold-72" transform="translate(405.810547 0)"/>
      <use xlink:href="#DejaVuSans-Bold-5d" transform="translate(455.126953 0)"/>
     </g>
    </g>
   </g>
   <g id="matplotlib.axis_4">
    <g id="ytick_9">
     <g id="line2d_33">
      <g>
       <use xlink:href="#mb9586c8bc1" x="529.674076" y="307.8" style="stroke: #000000; stroke-width: 0.8"/>
      </g>
     </g>
     <g id="text_28">
      <!-- 0.000 -->
      <g transform="translate(479.731889 313.498828) scale(0.15 -0.15)">
       <use xlink:href="#DejaVuSans-30"/>
       <use xlink:href="#DejaVuSans-2e" transform="translate(63.623047 0)"/>
       <use xlink:href="#DejaVuSans-30" transform="translate(95.410156 0)"/>
       <use xlink:href="#DejaVuSans-30" transform="translate(159.033203 0)"/>
       <use xlink:href="#DejaVuSans-30" transform="translate(222.65625 0)"/>
      </g>
     </g>
    </g>
    <g id="ytick_10">
     <g id="line2d_34">
      <g>
       <use xlink:href="#mb9586c8bc1" x="529.674076" y="254.686006" style="stroke: #000000; stroke-width: 0.8"/>
      </g>
     </g>
     <g id="text_29">
      <!-- 0.005 -->
      <g transform="translate(479.731889 260.384834) scale(0.15 -0.15)">
       <use xlink:href="#DejaVuSans-30"/>
       <use xlink:href="#DejaVuSans-2e" transform="translate(63.623047 0)"/>
       <use xlink:href="#DejaVuSans-30" transform="translate(95.410156 0)"/>
       <use xlink:href="#DejaVuSans-30" transform="translate(159.033203 0)"/>
       <use xlink:href="#DejaVuSans-35" transform="translate(222.65625 0)"/>
      </g>
     </g>
    </g>
    <g id="ytick_11">
     <g id="line2d_35">
      <g>
       <use xlink:href="#mb9586c8bc1" x="529.674076" y="201.572012" style="stroke: #000000; stroke-width: 0.8"/>
      </g>
     </g>
     <g id="text_30">
      <!-- 0.010 -->
      <g transform="translate(479.731889 207.27084) scale(0.15 -0.15)">
       <use xlink:href="#DejaVuSans-30"/>
       <use xlink:href="#DejaVuSans-2e" transform="translate(63.623047 0)"/>
       <use xlink:href="#DejaVuSans-30" transform="translate(95.410156 0)"/>
       <use xlink:href="#DejaVuSans-31" transform="translate(159.033203 0)"/>
       <use xlink:href="#DejaVuSans-30" transform="translate(222.65625 0)"/>
      </g>
     </g>
    </g>
    <g id="ytick_12">
     <g id="line2d_36">
      <g>
       <use xlink:href="#mb9586c8bc1" x="529.674076" y="148.458018" style="stroke: #000000; stroke-width: 0.8"/>
      </g>
     </g>
     <g id="text_31">
      <!-- 0.015 -->
      <g transform="translate(479.731889 154.156846) scale(0.15 -0.15)">
       <use xlink:href="#DejaVuSans-30"/>
       <use xlink:href="#DejaVuSans-2e" transform="translate(63.623047 0)"/>
       <use xlink:href="#DejaVuSans-30" transform="translate(95.410156 0)"/>
       <use xlink:href="#DejaVuSans-31" transform="translate(159.033203 0)"/>
       <use xlink:href="#DejaVuSans-35" transform="translate(222.65625 0)"/>
      </g>
     </g>
    </g>
    <g id="ytick_13">
     <g id="line2d_37">
      <g>
       <use xlink:href="#mb9586c8bc1" x="529.674076" y="95.344024" style="stroke: #000000; stroke-width: 0.8"/>
      </g>
     </g>
     <g id="text_32">
      <!-- 0.020 -->
      <g transform="translate(479.731889 101.042852) scale(0.15 -0.15)">
       <use xlink:href="#DejaVuSans-30"/>
       <use xlink:href="#DejaVuSans-2e" transform="translate(63.623047 0)"/>
       <use xlink:href="#DejaVuSans-30" transform="translate(95.410156 0)"/>
       <use xlink:href="#DejaVuSans-32" transform="translate(159.033203 0)"/>
       <use xlink:href="#DejaVuSans-30" transform="translate(222.65625 0)"/>
      </g>
     </g>
    </g>
    <g id="text_33">
     <!-- apixaban urine [µmole] -->
     <g transform="translate(471.968764 300.51) rotate(-90) scale(0.18 -0.18)">
      <defs>
       <path id="DejaVuSans-Bold-75" d="M 500 1363 
L 500 3500 
L 1625 3500 
L 1625 3150 
Q 1625 2866 1622 2436 
Q 1619 2006 1619 1863 
Q 1619 1441 1641 1255 
Q 1663 1069 1716 984 
Q 1784 875 1895 815 
Q 2006 756 2150 756 
Q 2500 756 2700 1025 
Q 2900 1294 2900 1772 
L 2900 3500 
L 4019 3500 
L 4019 0 
L 2900 0 
L 2900 506 
Q 2647 200 2364 54 
Q 2081 -91 1741 -91 
Q 1134 -91 817 281 
Q 500 653 500 1363 
z
" transform="scale(0.015625)"/>
       <path id="DejaVuSans-Bold-6f" d="M 2203 2784 
Q 1831 2784 1636 2517 
Q 1441 2250 1441 1747 
Q 1441 1244 1636 976 
Q 1831 709 2203 709 
Q 2569 709 2762 976 
Q 2956 1244 2956 1747 
Q 2956 2250 2762 2517 
Q 2569 2784 2203 2784 
z
M 2203 3584 
Q 3106 3584 3614 3096 
Q 4122 2609 4122 1747 
Q 4122 884 3614 396 
Q 3106 -91 2203 -91 
Q 1297 -91 786 396 
Q 275 884 275 1747 
Q 275 2609 786 3096 
Q 1297 3584 2203 3584 
z
" transform="scale(0.015625)"/>
      </defs>
      <use xlink:href="#DejaVuSans-Bold-61"/>
      <use xlink:href="#DejaVuSans-Bold-70" transform="translate(67.480469 0)"/>
      <use xlink:href="#DejaVuSans-Bold-69" transform="translate(139.0625 0)"/>
      <use xlink:href="#DejaVuSans-Bold-78" transform="translate(173.339844 0)"/>
      <use xlink:href="#DejaVuSans-Bold-61" transform="translate(237.841797 0)"/>
      <use xlink:href="#DejaVuSans-Bold-62" transform="translate(305.322266 0)"/>
      <use xlink:href="#DejaVuSans-Bold-61" transform="translate(376.904297 0)"/>
      <use xlink:href="#DejaVuSans-Bold-6e" transform="translate(444.384766 0)"/>
      <use xlink:href="#DejaVuSans-Bold-20" transform="translate(515.576172 0)"/>
      <use xlink:href="#DejaVuSans-Bold-75" transform="translate(550.390625 0)"/>
      <use xlink:href="#DejaVuSans-Bold-72" transform="translate(621.582031 0)"/>
      <use xlink:href="#DejaVuSans-Bold-69" transform="translate(670.898438 0)"/>
      <use xlink:href="#DejaVuSans-Bold-6e" transform="translate(705.175781 0)"/>
      <use xlink:href="#DejaVuSans-Bold-65" transform="translate(776.367188 0)"/>
      <use xlink:href="#DejaVuSans-Bold-20" transform="translate(844.189453 0)"/>
      <use xlink:href="#DejaVuSans-Bold-5b" transform="translate(879.003906 0)"/>
      <use xlink:href="#DejaVuSans-Bold-b5" transform="translate(924.707031 0)"/>
      <use xlink:href="#DejaVuSans-Bold-6d" transform="translate(998.291016 0)"/>
      <use xlink:href="#DejaVuSans-Bold-6f" transform="translate(1102.490234 0)"/>
      <use xlink:href="#DejaVuSans-Bold-6c" transform="translate(1171.191406 0)"/>
      <use xlink:href="#DejaVuSans-Bold-65" transform="translate(1205.46875 0)"/>
      <use xlink:href="#DejaVuSans-Bold-5d" transform="translate(1273.291016 0)"/>
     </g>
    </g>
   </g>
   <g id="LineCollection_5">
    <path clip-path="url(#p0bc24c6244)" style="fill: none; stroke: #1f77b4"/>
    <path d="M 841.536527 132.113868 
L 841.536527 55.8 
" clip-path="url(#p0bc24c6244)" style="fill: none; stroke: #1f77b4"/>
   </g>
   <g id="LineCollection_6">
    <path clip-path="url(#p0bc24c6244)" style="fill: none; stroke: #000000"/>
    <path d="M 841.536527 209.89272 
L 841.536527 124.821523 
" clip-path="url(#p0bc24c6244)" style="fill: none; stroke: #000000"/>
   </g>
   <g id="line2d_38">
    <path d="M 545.112811 307.8 
L 547.583009 307.737772 
L 549.435657 307.515891 
L 551.288305 307.107631 
L 553.140954 306.515862 
L 555.611151 305.461841 
L 558.081349 304.135672 
L 560.551546 302.570619 
L 563.639293 300.32533 
L 566.727041 297.809556 
L 570.432337 294.500889 
L 574.755183 290.331227 
L 580.313127 284.625977 
L 588.34127 276.002733 
L 606.250203 256.660664 
L 613.660795 249.021513 
L 620.453839 242.321682 
L 627.246882 235.948339 
L 633.422376 230.454412 
L 639.597871 225.252855 
L 645.773365 220.343945 
L 651.948859 215.723559 
L 658.124353 211.384389 
L 664.299847 207.316886 
L 670.475341 203.509986 
L 676.650835 199.951673 
L 683.443878 196.309668 
L 690.236922 192.936312 
L 697.029965 189.81473 
L 703.823009 186.928402 
L 711.233602 184.029237 
L 718.644195 181.371232 
L 726.672337 178.742154 
L 734.700479 176.351788 
L 743.346171 174.020737 
L 751.991863 171.918592 
L 761.255104 169.895498 
L 771.135894 167.972008 
L 781.634234 166.164314 
L 792.750124 164.484261 
L 804.483562 162.939519 
L 816.83455 161.533889 
L 830.420637 160.212238 
L 845.241823 158.998247 
L 853.887515 158.38457 
L 853.887515 158.38457 
" clip-path="url(#p0bc24c6244)" style="fill: none; stroke: #1f77b4; stroke-width: 2; stroke-linecap: square"/>
   </g>
   <g id="line2d_39">
    <path d="M 545.112811 307.8 
L 841.536527 93.956934 
" clip-path="url(#p0bc24c6244)" style="fill: none; stroke-dasharray: 3.7,1.6; stroke-dashoffset: 0; stroke: #1f77b4"/>
    <g clip-path="url(#p0bc24c6244)">
     <use xlink:href="#m98034f3b0a" x="545.112811" y="307.8" style="fill: #1f77b4; stroke: #000000; stroke-linejoin: miter"/>
     <use xlink:href="#m98034f3b0a" x="841.536527" y="93.956934" style="fill: #1f77b4; stroke: #000000; stroke-linejoin: miter"/>
    </g>
   </g>
   <g id="line2d_40">
    <path d="M 545.112811 307.8 
L 547.583009 307.737772 
L 549.435657 307.515891 
L 551.288305 307.107631 
L 553.140954 306.515862 
L 555.611151 305.461841 
L 558.081349 304.135672 
L 560.551546 302.570619 
L 563.639293 300.32533 
L 566.727041 297.809556 
L 570.432337 294.500889 
L 574.755183 290.331227 
L 580.313127 284.625977 
L 588.34127 276.002733 
L 606.250203 256.660664 
L 613.660795 249.021513 
L 620.453839 242.321682 
L 627.246882 235.948339 
L 633.422376 230.454412 
L 639.597871 225.252855 
L 645.773365 220.343945 
L 651.948859 215.723559 
L 658.124353 211.384389 
L 664.299847 207.316886 
L 670.475341 203.509986 
L 676.650835 199.951673 
L 683.443878 196.309668 
L 690.236922 192.936312 
L 697.029965 189.81473 
L 703.823009 186.928402 
L 711.233602 184.029237 
L 718.644195 181.371232 
L 726.672337 178.742154 
L 734.700479 176.351788 
L 743.346171 174.020737 
L 751.991863 171.918592 
L 761.255104 169.895498 
L 771.135894 167.972008 
L 781.634234 166.164314 
L 792.750124 164.484261 
L 804.483562 162.939519 
L 816.83455 161.533889 
L 830.420637 160.212238 
L 845.241823 158.998247 
L 853.887515 158.38457 
L 853.887515 158.38457 
" clip-path="url(#p0bc24c6244)" style="fill: none; stroke: #000000; stroke-width: 2; stroke-linecap: square"/>
   </g>
   <g id="line2d_41">
    <path d="M 545.112811 307.8 
L 841.536527 167.357121 
" clip-path="url(#p0bc24c6244)" style="fill: none; stroke-dasharray: 3.7,1.6; stroke-dashoffset: 0; stroke: #000000"/>
    <g clip-path="url(#p0bc24c6244)">
     <use xlink:href="#m2a7c9bf31e" x="545.112811" y="307.8" style="stroke: #000000; stroke-linejoin: miter"/>
     <use xlink:href="#m2a7c9bf31e" x="841.536527" y="167.357121" style="stroke: #000000; stroke-linejoin: miter"/>
    </g>
   </g>
   <g id="patch_9">
    <path d="M 529.674076 320.4 
L 529.674076 43.2 
" style="fill: none; stroke: #000000; stroke-width: 0.8; stroke-linejoin: miter; stroke-linecap: square"/>
   </g>
   <g id="patch_10">
    <path d="M 869.32625 320.4 
L 869.32625 43.2 
" style="fill: none; stroke: #000000; stroke-width: 0.8; stroke-linejoin: miter; stroke-linecap: square"/>
   </g>
   <g id="patch_11">
    <path d="M 529.674076 320.4 
L 869.32625 320.4 
" style="fill: none; stroke: #000000; stroke-width: 0.8; stroke-linejoin: miter; stroke-linecap: square"/>
   </g>
   <g id="patch_12">
    <path d="M 529.674076 43.2 
L 869.32625 43.2 
" style="fill: none; stroke: #000000; stroke-width: 0.8; stroke-linejoin: miter; stroke-linecap: square"/>
   </g>
   <g id="legend_2">
    <g id="patch_13">
     <path d="M 538.774076 129.92625 
L 737.424232 129.92625 
Q 740.024232 129.92625 740.024232 127.32625 
L 740.024232 52.3 
Q 740.024232 49.7 737.424232 49.7 
L 538.774076 49.7 
Q 536.174076 49.7 536.174076 52.3 
L 536.174076 127.32625 
Q 536.174076 129.92625 538.774076 129.92625 
z
" style="fill: #ffffff; opacity: 0.8; stroke: #cccccc; stroke-linejoin: miter"/>
    </g>
    <g id="line2d_42">
     <path d="M 541.374076 60.227969 
L 567.374076 60.227969 
" style="fill: none; stroke: #1f77b4; stroke-width: 2; stroke-linecap: square"/>
    </g>
    <g id="line2d_43"/>
    <g id="text_34">
     <!-- EDO50, KET -->
     <g transform="translate(577.774076 64.777969) scale(0.13 -0.13)">
      <use xlink:href="#DejaVuSans-45"/>
      <use xlink:href="#DejaVuSans-44" transform="translate(63.183594 0)"/>
      <use xlink:href="#DejaVuSans-4f" transform="translate(140.185547 0)"/>
      <use xlink:href="#DejaVuSans-35" transform="translate(218.896484 0)"/>
      <use xlink:href="#DejaVuSans-30" transform="translate(282.519531 0)"/>
      <use xlink:href="#DejaVuSans-2c" transform="translate(346.142578 0)"/>
      <use xlink:href="#DejaVuSans-20" transform="translate(377.929688 0)"/>
      <use xlink:href="#DejaVuSans-4b" transform="translate(409.716797 0)"/>
      <use xlink:href="#DejaVuSans-45" transform="translate(475.292969 0)"/>
      <use xlink:href="#DejaVuSans-54" transform="translate(538.476562 0)"/>
     </g>
    </g>
    <g id="LineCollection_7">
     <path d="M 554.374076 85.809531 
L 554.374076 72.809531 
" style="fill: none; stroke: #1f77b4"/>
    </g>
    <g id="line2d_44">
     <path d="M 541.374076 79.309531 
L 567.374076 79.309531 
" style="fill: none; stroke-dasharray: 3.7,1.6; stroke-dashoffset: 0; stroke: #1f77b4"/>
    </g>
    <g id="line2d_45">
     <g>
      <use xlink:href="#m98034f3b0a" x="554.374076" y="79.309531" style="fill: #1f77b4; stroke: #000000; stroke-linejoin: miter"/>
     </g>
    </g>
    <g id="text_35">
     <!-- EDO50, KET±SD (n=18) -->
     <g transform="translate(577.774076 83.859531) scale(0.13 -0.13)">
      <use xlink:href="#DejaVuSans-45"/>
      <use xlink:href="#DejaVuSans-44" transform="translate(63.183594 0)"/>
      <use xlink:href="#DejaVuSans-4f" transform="translate(140.185547 0)"/>
      <use xlink:href="#DejaVuSans-35" transform="translate(218.896484 0)"/>
      <use xlink:href="#DejaVuSans-30" transform="translate(282.519531 0)"/>
      <use xlink:href="#DejaVuSans-2c" transform="translate(346.142578 0)"/>
      <use xlink:href="#DejaVuSans-20" transform="translate(377.929688 0)"/>
      <use xlink:href="#DejaVuSans-4b" transform="translate(409.716797 0)"/>
      <use xlink:href="#DejaVuSans-45" transform="translate(475.292969 0)"/>
      <use xlink:href="#DejaVuSans-54" transform="translate(538.476562 0)"/>
      <use xlink:href="#DejaVuSans-b1" transform="translate(599.560547 0)"/>
      <use xlink:href="#DejaVuSans-53" transform="translate(683.349609 0)"/>
      <use xlink:href="#DejaVuSans-44" transform="translate(746.826172 0)"/>
      <use xlink:href="#DejaVuSans-20" transform="translate(823.828125 0)"/>
      <use xlink:href="#DejaVuSans-28" transform="translate(855.615234 0)"/>
      <use xlink:href="#DejaVuSans-6e" transform="translate(894.628906 0)"/>
      <use xlink:href="#DejaVuSans-3d" transform="translate(958.007812 0)"/>
      <use xlink:href="#DejaVuSans-31" transform="translate(1041.796875 0)"/>
      <use xlink:href="#DejaVuSans-38" transform="translate(1105.419922 0)"/>
      <use xlink:href="#DejaVuSans-29" transform="translate(1169.042969 0)"/>
     </g>
    </g>
    <g id="line2d_46">
     <path d="M 541.374076 98.391094 
L 567.374076 98.391094 
" style="fill: none; stroke: #000000; stroke-width: 2; stroke-linecap: square"/>
    </g>
    <g id="line2d_47"/>
    <g id="text_36">
     <!-- EDO50 -->
     <g transform="translate(577.774076 102.941094) scale(0.13 -0.13)">
      <use xlink:href="#DejaVuSans-45"/>
      <use xlink:href="#DejaVuSans-44" transform="translate(63.183594 0)"/>
      <use xlink:href="#DejaVuSans-4f" transform="translate(140.185547 0)"/>
      <use xlink:href="#DejaVuSans-35" transform="translate(218.896484 0)"/>
      <use xlink:href="#DejaVuSans-30" transform="translate(282.519531 0)"/>
     </g>
    </g>
    <g id="LineCollection_8">
     <path d="M 554.374076 123.972656 
L 554.374076 110.972656 
" style="fill: none; stroke: #000000"/>
    </g>
    <g id="line2d_48">
     <path d="M 541.374076 117.472656 
L 567.374076 117.472656 
" style="fill: none; stroke-dasharray: 3.7,1.6; stroke-dashoffset: 0; stroke: #000000"/>
    </g>
    <g id="line2d_49">
     <g>
      <use xlink:href="#m2a7c9bf31e" x="554.374076" y="117.472656" style="stroke: #000000; stroke-linejoin: miter"/>
     </g>
    </g>
    <g id="text_37">
     <!-- EDO50±SD (n=18) -->
     <g transform="translate(577.774076 122.022656) scale(0.13 -0.13)">
      <use xlink:href="#DejaVuSans-45"/>
      <use xlink:href="#DejaVuSans-44" transform="translate(63.183594 0)"/>
      <use xlink:href="#DejaVuSans-4f" transform="translate(140.185547 0)"/>
      <use xlink:href="#DejaVuSans-35" transform="translate(218.896484 0)"/>
      <use xlink:href="#DejaVuSans-30" transform="translate(282.519531 0)"/>
      <use xlink:href="#DejaVuSans-b1" transform="translate(346.142578 0)"/>
      <use xlink:href="#DejaVuSans-53" transform="translate(429.931641 0)"/>
      <use xlink:href="#DejaVuSans-44" transform="translate(493.408203 0)"/>
      <use xlink:href="#DejaVuSans-20" transform="translate(570.410156 0)"/>
      <use xlink:href="#DejaVuSans-28" transform="translate(602.197266 0)"/>
      <use xlink:href="#DejaVuSans-6e" transform="translate(641.210938 0)"/>
      <use xlink:href="#DejaVuSans-3d" transform="translate(704.589844 0)"/>
      <use xlink:href="#DejaVuSans-31" transform="translate(788.378906 0)"/>
      <use xlink:href="#DejaVuSans-38" transform="translate(852.001953 0)"/>
      <use xlink:href="#DejaVuSans-29" transform="translate(915.625 0)"/>
     </g>
    </g>
   </g>
  </g>
  <g id="text_38">
   <!-- Mikus2019 (healthy) -->
   <g transform="translate(321.065703 26.196094) scale(0.25 -0.25)">
    <defs>
     <path id="DejaVuSans-Bold-6b" d="M 538 4863 
L 1656 4863 
L 1656 2216 
L 2944 3500 
L 4244 3500 
L 2534 1894 
L 4378 0 
L 3022 0 
L 1656 1459 
L 1656 0 
L 538 0 
L 538 4863 
z
" transform="scale(0.015625)"/>
     <path id="DejaVuSans-Bold-32" d="M 1844 884 
L 3897 884 
L 3897 0 
L 506 0 
L 506 884 
L 2209 2388 
Q 2438 2594 2547 2791 
Q 2656 2988 2656 3200 
Q 2656 3528 2436 3728 
Q 2216 3928 1850 3928 
Q 1569 3928 1234 3808 
Q 900 3688 519 3450 
L 519 4475 
Q 925 4609 1322 4679 
Q 1719 4750 2100 4750 
Q 2938 4750 3402 4381 
Q 3866 4013 3866 3353 
Q 3866 2972 3669 2642 
Q 3472 2313 2841 1759 
L 1844 884 
z
" transform="scale(0.015625)"/>
     <path id="DejaVuSans-Bold-30" d="M 2944 2338 
Q 2944 3213 2780 3570 
Q 2616 3928 2228 3928 
Q 1841 3928 1675 3570 
Q 1509 3213 1509 2338 
Q 1509 1453 1675 1090 
Q 1841 728 2228 728 
Q 2613 728 2778 1090 
Q 2944 1453 2944 2338 
z
M 4147 2328 
Q 4147 1169 3647 539 
Q 3147 -91 2228 -91 
Q 1306 -91 806 539 
Q 306 1169 306 2328 
Q 306 3491 806 4120 
Q 1306 4750 2228 4750 
Q 3147 4750 3647 4120 
Q 4147 3491 4147 2328 
z
" transform="scale(0.015625)"/>
     <path id="DejaVuSans-Bold-31" d="M 750 831 
L 1813 831 
L 1813 3847 
L 722 3622 
L 722 4441 
L 1806 4666 
L 2950 4666 
L 2950 831 
L 4013 831 
L 4013 0 
L 750 0 
L 750 831 
z
" transform="scale(0.015625)"/>
     <path id="DejaVuSans-Bold-39" d="M 641 103 
L 641 966 
Q 928 831 1190 764 
Q 1453 697 1709 697 
Q 2247 697 2547 995 
Q 2847 1294 2900 1881 
Q 2688 1725 2447 1647 
Q 2206 1569 1925 1569 
Q 1209 1569 770 1986 
Q 331 2403 331 3084 
Q 331 3838 820 4291 
Q 1309 4744 2131 4744 
Q 3044 4744 3544 4128 
Q 4044 3513 4044 2388 
Q 4044 1231 3459 570 
Q 2875 -91 1856 -91 
Q 1528 -91 1228 -42 
Q 928 6 641 103 
z
M 2125 2350 
Q 2441 2350 2600 2554 
Q 2759 2759 2759 3169 
Q 2759 3575 2600 3781 
Q 2441 3988 2125 3988 
Q 1809 3988 1650 3781 
Q 1491 3575 1491 3169 
Q 1491 2759 1650 2554 
Q 1809 2350 2125 2350 
z
" transform="scale(0.015625)"/>
     <path id="DejaVuSans-Bold-28" d="M 2413 -844 
L 1484 -844 
Q 1006 -72 778 623 
Q 550 1319 550 2003 
Q 550 2688 779 3389 
Q 1009 4091 1484 4856 
L 2413 4856 
Q 2013 4116 1813 3408 
Q 1613 2700 1613 2009 
Q 1613 1319 1811 609 
Q 2009 -100 2413 -844 
z
" transform="scale(0.015625)"/>
     <path id="DejaVuSans-Bold-79" d="M 78 3500 
L 1197 3500 
L 2138 1125 
L 2938 3500 
L 4056 3500 
L 2584 -331 
Q 2363 -916 2067 -1148 
Q 1772 -1381 1288 -1381 
L 641 -1381 
L 641 -647 
L 991 -647 
Q 1275 -647 1404 -556 
Q 1534 -466 1606 -231 
L 1638 -134 
L 78 3500 
z
" transform="scale(0.015625)"/>
     <path id="DejaVuSans-Bold-29" d="M 513 -844 
Q 913 -100 1113 609 
Q 1313 1319 1313 2009 
Q 1313 2700 1113 3408 
Q 913 4116 513 4856 
L 1441 4856 
Q 1916 4091 2145 3389 
Q 2375 2688 2375 2003 
Q 2375 1319 2147 623 
Q 1919 -72 1441 -844 
L 513 -844 
z
" transform="scale(0.015625)"/>
    </defs>
    <use xlink:href="#DejaVuSans-Bold-4d"/>
    <use xlink:href="#DejaVuSans-Bold-69" transform="translate(99.511719 0)"/>
    <use xlink:href="#DejaVuSans-Bold-6b" transform="translate(133.789062 0)"/>
    <use xlink:href="#DejaVuSans-Bold-75" transform="translate(200.292969 0)"/>
    <use xlink:href="#DejaVuSans-Bold-73" transform="translate(271.484375 0)"/>
    <use xlink:href="#DejaVuSans-Bold-32" transform="translate(331.005859 0)"/>
    <use xlink:href="#DejaVuSans-Bold-30" transform="translate(400.585938 0)"/>
    <use xlink:href="#DejaVuSans-Bold-31" transform="translate(470.166016 0)"/>
    <use xlink:href="#DejaVuSans-Bold-39" transform="translate(539.746094 0)"/>
    <use xlink:href="#DejaVuSans-Bold-20" transform="translate(609.326172 0)"/>
    <use xlink:href="#DejaVuSans-Bold-28" transform="translate(644.140625 0)"/>
    <use xlink:href="#DejaVuSans-Bold-68" transform="translate(689.84375 0)"/>
    <use xlink:href="#DejaVuSans-Bold-65" transform="translate(761.035156 0)"/>
    <use xlink:href="#DejaVuSans-Bold-61" transform="translate(828.857422 0)"/>
    <use xlink:href="#DejaVuSans-Bold-6c" transform="translate(896.337891 0)"/>
    <use xlink:href="#DejaVuSans-Bold-74" transform="translate(930.615234 0)"/>
    <use xlink:href="#DejaVuSans-Bold-68" transform="translate(978.417969 0)"/>
    <use xlink:href="#DejaVuSans-Bold-79" transform="translate(1049.609375 0)"/>
    <use xlink:href="#DejaVuSans-Bold-29" transform="translate(1114.794922 0)"/>
   </g>
  </g>
 </g>
 <defs>
  <clipPath id="p91b23ffe99">
   <rect x="88.12625" y="43.2" width="339.652174" height="277.2"/>
  </clipPath>
  <clipPath id="p0bc24c6244">
   <rect x="529.674076" y="43.2" width="339.652174" height="277.2"/>
  </clipPath>
 </defs>
</svg>
