<?xml version="1.0" encoding="utf-8" standalone="no"?>
<!DOCTYPE svg PUBLIC "-//W3C//DTD SVG 1.1//EN"
  "http://www.w3.org/Graphics/SVG/1.1/DTD/svg11.dtd">
<svg xmlns:xlink="http://www.w3.org/1999/xlink" width="441.075625pt" height="414.385812pt" viewBox="0 0 441.075625 414.385812" xmlns="http://www.w3.org/2000/svg" version="1.1">
 <metadata>
  <rdf:RDF xmlns:dc="http://purl.org/dc/elements/1.1/" xmlns:cc="http://creativecommons.org/ns#" xmlns:rdf="http://www.w3.org/1999/02/22-rdf-syntax-ns#">
   <cc:Work>
    <dc:type rdf:resource="http://purl.org/dc/dcmitype/StillImage"/>
    <dc:date>2026-03-23T09:58:33.838227</dc:date>
    <dc:format>image/svg+xml</dc:format>
    <dc:creator>
     <cc:Agent>
      <dc:title>Matplotlib v3.10.8, https://matplotlib.org/</dc:title>
     </cc:Agent>
    </dc:creator>
   </cc:Work>
  </rdf:RDF>
 </metadata>
 <defs>
  <style type="text/css">*{stroke-linejoin: round; stroke-linecap: butt}</style>
 </defs>
 <g id="figure_1">
  <g id="patch_1">
   <path d="M 0 414.385812 
L 441.075625 414.385812 
L 441.075625 -0 
L 0 -0 
z
" style="fill: #ffffff"/>
  </g>
  <g id="axes_1">
   <g id="patch_2">
    <path d="M 59.615938 364.248 
L 433.420138 364.248 
L 433.420138 48.24 
L 59.615938 48.24 
z
" style="fill: #ffffff"/>
   </g>
   <g id="matplotlib.axis_1">
    <g id="xtick_1">
     <g id="line2d_1">
      <defs>
       <path id="m3f26d153e2" d="M 0 0 
L 0 3.5 
" style="stroke: #000000; stroke-width: 0.8"/>
      </defs>
      <g>
       <use xlink:href="#m3f26d153e2" x="108.218386" y="364.248" style="stroke: #000000; stroke-width: 0.8"/>
      </g>
     </g>
     <g id="text_1">
      <!-- −60 -->
      <g transform="translate(92.389871 382.645656) scale(0.15 -0.15)">
       <defs>
        <path id="DejaVuSans-2212" d="M 678 2272 
L 4684 2272 
L 4684 1741 
L 678 1741 
L 678 2272 
z
" transform="scale(0.015625)"/>
        <path id="DejaVuSans-36" d="M 2113 2584 
Q 1688 2584 1439 2293 
Q 1191 2003 1191 1497 
Q 1191 994 1439 701 
Q 1688 409 2113 409 
Q 2538 409 2786 701 
Q 3034 994 3034 1497 
Q 3034 2003 2786 2293 
Q 2538 2584 2113 2584 
z
M 3366 4563 
L 3366 3988 
Q 3128 4100 2886 4159 
Q 2644 4219 2406 4219 
Q 1781 4219 1451 3797 
Q 1122 3375 1075 2522 
Q 1259 2794 1537 2939 
Q 1816 3084 2150 3084 
Q 2853 3084 3261 2657 
Q 3669 2231 3669 1497 
Q 3669 778 3244 343 
Q 2819 -91 2113 -91 
Q 1303 -91 875 529 
Q 447 1150 447 2328 
Q 447 3434 972 4092 
Q 1497 4750 2381 4750 
Q 2619 4750 2861 4703 
Q 3103 4656 3366 4563 
z
" transform="scale(0.015625)"/>
        <path id="DejaVuSans-30" d="M 2034 4250 
Q 1547 4250 1301 3770 
Q 1056 3291 1056 2328 
Q 1056 1369 1301 889 
Q 1547 409 2034 409 
Q 2525 409 2770 889 
Q 3016 1369 3016 2328 
Q 3016 3291 2770 3770 
Q 2525 4250 2034 4250 
z
M 2034 4750 
Q 2819 4750 3233 4129 
Q 3647 3509 3647 2328 
Q 3647 1150 3233 529 
Q 2819 -91 2034 -91 
Q 1250 -91 836 529 
Q 422 1150 422 2328 
Q 422 3509 836 4129 
Q 1250 4750 2034 4750 
z
" transform="scale(0.015625)"/>
       </defs>
       <use xlink:href="#DejaVuSans-2212"/>
       <use xlink:href="#DejaVuSans-36" transform="translate(83.789062 0)"/>
       <use xlink:href="#DejaVuSans-30" transform="translate(147.412109 0)"/>
      </g>
     </g>
    </g>
    <g id="xtick_2">
     <g id="line2d_2">
      <g>
       <use xlink:href="#m3f26d153e2" x="160.903968" y="364.248" style="stroke: #000000; stroke-width: 0.8"/>
      </g>
     </g>
     <g id="text_2">
      <!-- −40 -->
      <g transform="translate(145.075452 382.645656) scale(0.15 -0.15)">
       <defs>
        <path id="DejaVuSans-34" d="M 2419 4116 
L 825 1625 
L 2419 1625 
L 2419 4116 
z
M 2253 4666 
L 3047 4666 
L 3047 1625 
L 3713 1625 
L 3713 1100 
L 3047 1100 
L 3047 0 
L 2419 0 
L 2419 1100 
L 313 1100 
L 313 1709 
L 2253 4666 
z
" transform="scale(0.015625)"/>
       </defs>
       <use xlink:href="#DejaVuSans-2212"/>
       <use xlink:href="#DejaVuSans-34" transform="translate(83.789062 0)"/>
       <use xlink:href="#DejaVuSans-30" transform="translate(147.412109 0)"/>
      </g>
     </g>
    </g>
    <g id="xtick_3">
     <g id="line2d_3">
      <g>
       <use xlink:href="#m3f26d153e2" x="213.589549" y="364.248" style="stroke: #000000; stroke-width: 0.8"/>
      </g>
     </g>
     <g id="text_3">
      <!-- −20 -->
      <g transform="translate(197.761034 382.645656) scale(0.15 -0.15)">
       <defs>
        <path id="DejaVuSans-32" d="M 1228 531 
L 3431 531 
L 3431 0 
L 469 0 
L 469 531 
Q 828 903 1448 1529 
Q 2069 2156 2228 2338 
Q 2531 2678 2651 2914 
Q 2772 3150 2772 3378 
Q 2772 3750 2511 3984 
Q 2250 4219 1831 4219 
Q 1534 4219 1204 4116 
Q 875 4013 500 3803 
L 500 4441 
Q 881 4594 1212 4672 
Q 1544 4750 1819 4750 
Q 2544 4750 2975 4387 
Q 3406 4025 3406 3419 
Q 3406 3131 3298 2873 
Q 3191 2616 2906 2266 
Q 2828 2175 2409 1742 
Q 1991 1309 1228 531 
z
" transform="scale(0.015625)"/>
       </defs>
       <use xlink:href="#DejaVuSans-2212"/>
       <use xlink:href="#DejaVuSans-32" transform="translate(83.789062 0)"/>
       <use xlink:href="#DejaVuSans-30" transform="translate(147.412109 0)"/>
      </g>
     </g>
    </g>
    <g id="xtick_4">
     <g id="line2d_4">
      <g>
       <use xlink:href="#m3f26d153e2" x="266.275131" y="364.248" style="stroke: #000000; stroke-width: 0.8"/>
      </g>
     </g>
     <g id="text_4">
      <!-- 0 -->
      <g transform="translate(261.503256 382.645656) scale(0.15 -0.15)">
       <use xlink:href="#DejaVuSans-30"/>
      </g>
     </g>
    </g>
    <g id="xtick_5">
     <g id="line2d_5">
      <g>
       <use xlink:href="#m3f26d153e2" x="318.960712" y="364.248" style="stroke: #000000; stroke-width: 0.8"/>
      </g>
     </g>
     <g id="text_5">
      <!-- 20 -->
      <g transform="translate(309.416962 382.645656) scale(0.15 -0.15)">
       <use xlink:href="#DejaVuSans-32"/>
       <use xlink:href="#DejaVuSans-30" transform="translate(63.623047 0)"/>
      </g>
     </g>
    </g>
    <g id="xtick_6">
     <g id="line2d_6">
      <g>
       <use xlink:href="#m3f26d153e2" x="371.646293" y="364.248" style="stroke: #000000; stroke-width: 0.8"/>
      </g>
     </g>
     <g id="text_6">
      <!-- 40 -->
      <g transform="translate(362.102543 382.645656) scale(0.15 -0.15)">
       <use xlink:href="#DejaVuSans-34"/>
       <use xlink:href="#DejaVuSans-30" transform="translate(63.623047 0)"/>
      </g>
     </g>
    </g>
    <g id="xtick_7">
     <g id="line2d_7">
      <g>
       <use xlink:href="#m3f26d153e2" x="424.331875" y="364.248" style="stroke: #000000; stroke-width: 0.8"/>
      </g>
     </g>
     <g id="text_7">
      <!-- 60 -->
      <g transform="translate(414.788125 382.645656) scale(0.15 -0.15)">
       <use xlink:href="#DejaVuSans-36"/>
       <use xlink:href="#DejaVuSans-30" transform="translate(63.623047 0)"/>
      </g>
     </g>
    </g>
    <g id="text_8">
     <!-- time [hr] -->
     <g transform="translate(201.443506 403.442375) scale(0.18 -0.18)">
      <defs>
       <path id="DejaVuSans-Bold-74" d="M 1759 4494 
L 1759 3500 
L 2913 3500 
L 2913 2700 
L 1759 2700 
L 1759 1216 
Q 1759 972 1856 886 
Q 1953 800 2241 800 
L 2816 800 
L 2816 0 
L 1856 0 
Q 1194 0 917 276 
Q 641 553 641 1216 
L 641 2700 
L 84 2700 
L 84 3500 
L 641 3500 
L 641 4494 
L 1759 4494 
z
" transform="scale(0.015625)"/>
       <path id="DejaVuSans-Bold-69" d="M 538 3500 
L 1656 3500 
L 1656 0 
L 538 0 
L 538 3500 
z
M 538 4863 
L 1656 4863 
L 1656 3950 
L 538 3950 
L 538 4863 
z
" transform="scale(0.015625)"/>
       <path id="DejaVuSans-Bold-6d" d="M 3781 2919 
Q 3994 3244 4286 3414 
Q 4578 3584 4928 3584 
Q 5531 3584 5847 3212 
Q 6163 2841 6163 2131 
L 6163 0 
L 5038 0 
L 5038 1825 
Q 5041 1866 5042 1909 
Q 5044 1953 5044 2034 
Q 5044 2406 4934 2573 
Q 4825 2741 4581 2741 
Q 4263 2741 4089 2478 
Q 3916 2216 3909 1719 
L 3909 0 
L 2784 0 
L 2784 1825 
Q 2784 2406 2684 2573 
Q 2584 2741 2328 2741 
Q 2006 2741 1831 2477 
Q 1656 2213 1656 1722 
L 1656 0 
L 531 0 
L 531 3500 
L 1656 3500 
L 1656 2988 
Q 1863 3284 2130 3434 
Q 2397 3584 2719 3584 
Q 3081 3584 3359 3409 
Q 3638 3234 3781 2919 
z
" transform="scale(0.015625)"/>
       <path id="DejaVuSans-Bold-65" d="M 4031 1759 
L 4031 1441 
L 1416 1441 
Q 1456 1047 1700 850 
Q 1944 653 2381 653 
Q 2734 653 3104 758 
Q 3475 863 3866 1075 
L 3866 213 
Q 3469 63 3072 -14 
Q 2675 -91 2278 -91 
Q 1328 -91 801 392 
Q 275 875 275 1747 
Q 275 2603 792 3093 
Q 1309 3584 2216 3584 
Q 3041 3584 3536 3087 
Q 4031 2591 4031 1759 
z
M 2881 2131 
Q 2881 2450 2695 2645 
Q 2509 2841 2209 2841 
Q 1884 2841 1681 2658 
Q 1478 2475 1428 2131 
L 2881 2131 
z
" transform="scale(0.015625)"/>
       <path id="DejaVuSans-Bold-20" transform="scale(0.015625)"/>
       <path id="DejaVuSans-Bold-5b" d="M 550 4863 
L 2491 4863 
L 2491 4159 
L 1613 4159 
L 1613 -141 
L 2491 -141 
L 2491 -844 
L 550 -844 
L 550 4863 
z
" transform="scale(0.015625)"/>
       <path id="DejaVuSans-Bold-68" d="M 4056 2131 
L 4056 0 
L 2931 0 
L 2931 347 
L 2931 1625 
Q 2931 2084 2911 2256 
Q 2891 2428 2841 2509 
Q 2775 2619 2662 2680 
Q 2550 2741 2406 2741 
Q 2056 2741 1856 2470 
Q 1656 2200 1656 1722 
L 1656 0 
L 538 0 
L 538 4863 
L 1656 4863 
L 1656 2988 
Q 1909 3294 2193 3439 
Q 2478 3584 2822 3584 
Q 3428 3584 3742 3212 
Q 4056 2841 4056 2131 
z
" transform="scale(0.015625)"/>
       <path id="DejaVuSans-Bold-72" d="M 3138 2547 
Q 2991 2616 2845 2648 
Q 2700 2681 2553 2681 
Q 2122 2681 1889 2404 
Q 1656 2128 1656 1613 
L 1656 0 
L 538 0 
L 538 3500 
L 1656 3500 
L 1656 2925 
Q 1872 3269 2151 3426 
Q 2431 3584 2822 3584 
Q 2878 3584 2943 3579 
Q 3009 3575 3134 3559 
L 3138 2547 
z
" transform="scale(0.015625)"/>
       <path id="DejaVuSans-Bold-5d" d="M 2375 -844 
L 434 -844 
L 434 -141 
L 1313 -141 
L 1313 4159 
L 434 4159 
L 434 4863 
L 2375 4863 
L 2375 -844 
z
" transform="scale(0.015625)"/>
      </defs>
      <use xlink:href="#DejaVuSans-Bold-74"/>
      <use xlink:href="#DejaVuSans-Bold-69" transform="translate(47.802734 0)"/>
      <use xlink:href="#DejaVuSans-Bold-6d" transform="translate(82.080078 0)"/>
      <use xlink:href="#DejaVuSans-Bold-65" transform="translate(186.279297 0)"/>
      <use xlink:href="#DejaVuSans-Bold-20" transform="translate(254.101562 0)"/>
      <use xlink:href="#DejaVuSans-Bold-5b" transform="translate(288.916016 0)"/>
      <use xlink:href="#DejaVuSans-Bold-68" transform="translate(334.619141 0)"/>
      <use xlink:href="#DejaVuSans-Bold-72" transform="translate(405.810547 0)"/>
      <use xlink:href="#DejaVuSans-Bold-5d" transform="translate(455.126953 0)"/>
     </g>
    </g>
   </g>
   <g id="matplotlib.axis_2">
    <g id="ytick_1">
     <g id="line2d_8">
      <defs>
       <path id="m2ad2b7c265" d="M 0 0 
L -3.5 0 
" style="stroke: #000000; stroke-width: 0.8"/>
      </defs>
      <g>
       <use xlink:href="#m2ad2b7c265" x="59.615938" y="349.884" style="stroke: #000000; stroke-width: 0.8"/>
      </g>
     </g>
     <g id="text_9">
      <!-- 0.0 -->
      <g transform="translate(28.76125 355.582828) scale(0.15 -0.15)">
       <defs>
        <path id="DejaVuSans-2e" d="M 684 794 
L 1344 794 
L 1344 0 
L 684 0 
L 684 794 
z
" transform="scale(0.015625)"/>
       </defs>
       <use xlink:href="#DejaVuSans-30"/>
       <use xlink:href="#DejaVuSans-2e" transform="translate(63.623047 0)"/>
       <use xlink:href="#DejaVuSans-30" transform="translate(95.410156 0)"/>
      </g>
     </g>
    </g>
    <g id="ytick_2">
     <g id="line2d_9">
      <g>
       <use xlink:href="#m2ad2b7c265" x="59.615938" y="310.798286" style="stroke: #000000; stroke-width: 0.8"/>
      </g>
     </g>
     <g id="text_10">
      <!-- 0.2 -->
      <g transform="translate(28.76125 316.497114) scale(0.15 -0.15)">
       <use xlink:href="#DejaVuSans-30"/>
       <use xlink:href="#DejaVuSans-2e" transform="translate(63.623047 0)"/>
       <use xlink:href="#DejaVuSans-32" transform="translate(95.410156 0)"/>
      </g>
     </g>
    </g>
    <g id="ytick_3">
     <g id="line2d_10">
      <g>
       <use xlink:href="#m2ad2b7c265" x="59.615938" y="271.712571" style="stroke: #000000; stroke-width: 0.8"/>
      </g>
     </g>
     <g id="text_11">
      <!-- 0.4 -->
      <g transform="translate(28.76125 277.4114) scale(0.15 -0.15)">
       <use xlink:href="#DejaVuSans-30"/>
       <use xlink:href="#DejaVuSans-2e" transform="translate(63.623047 0)"/>
       <use xlink:href="#DejaVuSans-34" transform="translate(95.410156 0)"/>
      </g>
     </g>
    </g>
    <g id="ytick_4">
     <g id="line2d_11">
      <g>
       <use xlink:href="#m2ad2b7c265" x="59.615938" y="232.626857" style="stroke: #000000; stroke-width: 0.8"/>
      </g>
     </g>
     <g id="text_12">
      <!-- 0.6 -->
      <g transform="translate(28.76125 238.325685) scale(0.15 -0.15)">
       <use xlink:href="#DejaVuSans-30"/>
       <use xlink:href="#DejaVuSans-2e" transform="translate(63.623047 0)"/>
       <use xlink:href="#DejaVuSans-36" transform="translate(95.410156 0)"/>
      </g>
     </g>
    </g>
    <g id="ytick_5">
     <g id="line2d_12">
      <g>
       <use xlink:href="#m2ad2b7c265" x="59.615938" y="193.541143" style="stroke: #000000; stroke-width: 0.8"/>
      </g>
     </g>
     <g id="text_13">
      <!-- 0.8 -->
      <g transform="translate(28.76125 199.239971) scale(0.15 -0.15)">
       <defs>
        <path id="DejaVuSans-38" d="M 2034 2216 
Q 1584 2216 1326 1975 
Q 1069 1734 1069 1313 
Q 1069 891 1326 650 
Q 1584 409 2034 409 
Q 2484 409 2743 651 
Q 3003 894 3003 1313 
Q 3003 1734 2745 1975 
Q 2488 2216 2034 2216 
z
M 1403 2484 
Q 997 2584 770 2862 
Q 544 3141 544 3541 
Q 544 4100 942 4425 
Q 1341 4750 2034 4750 
Q 2731 4750 3128 4425 
Q 3525 4100 3525 3541 
Q 3525 3141 3298 2862 
Q 3072 2584 2669 2484 
Q 3125 2378 3379 2068 
Q 3634 1759 3634 1313 
Q 3634 634 3220 271 
Q 2806 -91 2034 -91 
Q 1263 -91 848 271 
Q 434 634 434 1313 
Q 434 1759 690 2068 
Q 947 2378 1403 2484 
z
M 1172 3481 
Q 1172 3119 1398 2916 
Q 1625 2713 2034 2713 
Q 2441 2713 2670 2916 
Q 2900 3119 2900 3481 
Q 2900 3844 2670 4047 
Q 2441 4250 2034 4250 
Q 1625 4250 1398 4047 
Q 1172 3844 1172 3481 
z
" transform="scale(0.015625)"/>
       </defs>
       <use xlink:href="#DejaVuSans-30"/>
       <use xlink:href="#DejaVuSans-2e" transform="translate(63.623047 0)"/>
       <use xlink:href="#DejaVuSans-38" transform="translate(95.410156 0)"/>
      </g>
     </g>
    </g>
    <g id="ytick_6">
     <g id="line2d_13">
      <g>
       <use xlink:href="#m2ad2b7c265" x="59.615938" y="154.455429" style="stroke: #000000; stroke-width: 0.8"/>
      </g>
     </g>
     <g id="text_14">
      <!-- 1.0 -->
      <g transform="translate(28.76125 160.154257) scale(0.15 -0.15)">
       <defs>
        <path id="DejaVuSans-31" d="M 794 531 
L 1825 531 
L 1825 4091 
L 703 3866 
L 703 4441 
L 1819 4666 
L 2450 4666 
L 2450 531 
L 3481 531 
L 3481 0 
L 794 0 
L 794 531 
z
" transform="scale(0.015625)"/>
       </defs>
       <use xlink:href="#DejaVuSans-31"/>
       <use xlink:href="#DejaVuSans-2e" transform="translate(63.623047 0)"/>
       <use xlink:href="#DejaVuSans-30" transform="translate(95.410156 0)"/>
      </g>
     </g>
    </g>
    <g id="ytick_7">
     <g id="line2d_14">
      <g>
       <use xlink:href="#m2ad2b7c265" x="59.615938" y="115.369714" style="stroke: #000000; stroke-width: 0.8"/>
      </g>
     </g>
     <g id="text_15">
      <!-- 1.2 -->
      <g transform="translate(28.76125 121.068542) scale(0.15 -0.15)">
       <use xlink:href="#DejaVuSans-31"/>
       <use xlink:href="#DejaVuSans-2e" transform="translate(63.623047 0)"/>
       <use xlink:href="#DejaVuSans-32" transform="translate(95.410156 0)"/>
      </g>
     </g>
    </g>
    <g id="ytick_8">
     <g id="line2d_15">
      <g>
       <use xlink:href="#m2ad2b7c265" x="59.615938" y="76.284" style="stroke: #000000; stroke-width: 0.8"/>
      </g>
     </g>
     <g id="text_16">
      <!-- 1.4 -->
      <g transform="translate(28.76125 81.982828) scale(0.15 -0.15)">
       <use xlink:href="#DejaVuSans-31"/>
       <use xlink:href="#DejaVuSans-2e" transform="translate(63.623047 0)"/>
       <use xlink:href="#DejaVuSans-34" transform="translate(95.410156 0)"/>
      </g>
     </g>
    </g>
    <g id="text_17">
     <!-- anti-FXa activity [IU/ml] -->
     <g transform="translate(20.877188 327.824156) rotate(-90) scale(0.18 -0.18)">
      <defs>
       <path id="DejaVuSans-Bold-61" d="M 2106 1575 
Q 1756 1575 1579 1456 
Q 1403 1338 1403 1106 
Q 1403 894 1545 773 
Q 1688 653 1941 653 
Q 2256 653 2472 879 
Q 2688 1106 2688 1447 
L 2688 1575 
L 2106 1575 
z
M 3816 1997 
L 3816 0 
L 2688 0 
L 2688 519 
Q 2463 200 2181 54 
Q 1900 -91 1497 -91 
Q 953 -91 614 226 
Q 275 544 275 1050 
Q 275 1666 698 1953 
Q 1122 2241 2028 2241 
L 2688 2241 
L 2688 2328 
Q 2688 2594 2478 2717 
Q 2269 2841 1825 2841 
Q 1466 2841 1156 2769 
Q 847 2697 581 2553 
L 581 3406 
Q 941 3494 1303 3539 
Q 1666 3584 2028 3584 
Q 2975 3584 3395 3211 
Q 3816 2838 3816 1997 
z
" transform="scale(0.015625)"/>
       <path id="DejaVuSans-Bold-6e" d="M 4056 2131 
L 4056 0 
L 2931 0 
L 2931 347 
L 2931 1631 
Q 2931 2084 2911 2256 
Q 2891 2428 2841 2509 
Q 2775 2619 2662 2680 
Q 2550 2741 2406 2741 
Q 2056 2741 1856 2470 
Q 1656 2200 1656 1722 
L 1656 0 
L 538 0 
L 538 3500 
L 1656 3500 
L 1656 2988 
Q 1909 3294 2193 3439 
Q 2478 3584 2822 3584 
Q 3428 3584 3742 3212 
Q 4056 2841 4056 2131 
z
" transform="scale(0.015625)"/>
       <path id="DejaVuSans-Bold-2d" d="M 347 2297 
L 2309 2297 
L 2309 1388 
L 347 1388 
L 347 2297 
z
" transform="scale(0.015625)"/>
       <path id="DejaVuSans-Bold-46" d="M 588 4666 
L 3834 4666 
L 3834 3756 
L 1791 3756 
L 1791 2888 
L 3713 2888 
L 3713 1978 
L 1791 1978 
L 1791 0 
L 588 0 
L 588 4666 
z
" transform="scale(0.015625)"/>
       <path id="DejaVuSans-Bold-58" d="M 3188 2381 
L 4806 0 
L 3553 0 
L 2463 1594 
L 1381 0 
L 122 0 
L 1741 2381 
L 184 4666 
L 1441 4666 
L 2463 3163 
L 3481 4666 
L 4744 4666 
L 3188 2381 
z
" transform="scale(0.015625)"/>
       <path id="DejaVuSans-Bold-63" d="M 3366 3391 
L 3366 2478 
Q 3138 2634 2908 2709 
Q 2678 2784 2431 2784 
Q 1963 2784 1702 2511 
Q 1441 2238 1441 1747 
Q 1441 1256 1702 982 
Q 1963 709 2431 709 
Q 2694 709 2930 787 
Q 3166 866 3366 1019 
L 3366 103 
Q 3103 6 2833 -42 
Q 2563 -91 2291 -91 
Q 1344 -91 809 395 
Q 275 881 275 1747 
Q 275 2613 809 3098 
Q 1344 3584 2291 3584 
Q 2566 3584 2833 3536 
Q 3100 3488 3366 3391 
z
" transform="scale(0.015625)"/>
       <path id="DejaVuSans-Bold-76" d="M 97 3500 
L 1216 3500 
L 2088 1081 
L 2956 3500 
L 4078 3500 
L 2700 0 
L 1472 0 
L 97 3500 
z
" transform="scale(0.015625)"/>
       <path id="DejaVuSans-Bold-79" d="M 78 3500 
L 1197 3500 
L 2138 1125 
L 2938 3500 
L 4056 3500 
L 2584 -331 
Q 2363 -916 2067 -1148 
Q 1772 -1381 1288 -1381 
L 641 -1381 
L 641 -647 
L 991 -647 
Q 1275 -647 1404 -556 
Q 1534 -466 1606 -231 
L 1638 -134 
L 78 3500 
z
" transform="scale(0.015625)"/>
       <path id="DejaVuSans-Bold-49" d="M 588 4666 
L 1791 4666 
L 1791 0 
L 588 0 
L 588 4666 
z
" transform="scale(0.015625)"/>
       <path id="DejaVuSans-Bold-55" d="M 588 4666 
L 1791 4666 
L 1791 1869 
Q 1791 1291 1980 1042 
Q 2169 794 2597 794 
Q 3028 794 3217 1042 
Q 3406 1291 3406 1869 
L 3406 4666 
L 4609 4666 
L 4609 1869 
Q 4609 878 4112 393 
Q 3616 -91 2597 -91 
Q 1581 -91 1084 393 
Q 588 878 588 1869 
L 588 4666 
z
" transform="scale(0.015625)"/>
       <path id="DejaVuSans-Bold-2f" d="M 1644 4666 
L 2338 4666 
L 691 -594 
L 0 -594 
L 1644 4666 
z
" transform="scale(0.015625)"/>
       <path id="DejaVuSans-Bold-6c" d="M 538 4863 
L 1656 4863 
L 1656 0 
L 538 0 
L 538 4863 
z
" transform="scale(0.015625)"/>
      </defs>
      <use xlink:href="#DejaVuSans-Bold-61"/>
      <use xlink:href="#DejaVuSans-Bold-6e" transform="translate(67.480469 0)"/>
      <use xlink:href="#DejaVuSans-Bold-74" transform="translate(138.671875 0)"/>
      <use xlink:href="#DejaVuSans-Bold-69" transform="translate(186.474609 0)"/>
      <use xlink:href="#DejaVuSans-Bold-2d" transform="translate(220.751953 0)"/>
      <use xlink:href="#DejaVuSans-Bold-46" transform="translate(262.255859 0)"/>
      <use xlink:href="#DejaVuSans-Bold-58" transform="translate(330.566406 0)"/>
      <use xlink:href="#DejaVuSans-Bold-61" transform="translate(407.666016 0)"/>
      <use xlink:href="#DejaVuSans-Bold-20" transform="translate(475.146484 0)"/>
      <use xlink:href="#DejaVuSans-Bold-61" transform="translate(509.960938 0)"/>
      <use xlink:href="#DejaVuSans-Bold-63" transform="translate(577.441406 0)"/>
      <use xlink:href="#DejaVuSans-Bold-74" transform="translate(636.71875 0)"/>
      <use xlink:href="#DejaVuSans-Bold-69" transform="translate(684.521484 0)"/>
      <use xlink:href="#DejaVuSans-Bold-76" transform="translate(718.798828 0)"/>
      <use xlink:href="#DejaVuSans-Bold-69" transform="translate(783.984375 0)"/>
      <use xlink:href="#DejaVuSans-Bold-74" transform="translate(818.261719 0)"/>
      <use xlink:href="#DejaVuSans-Bold-79" transform="translate(866.064453 0)"/>
      <use xlink:href="#DejaVuSans-Bold-20" transform="translate(931.25 0)"/>
      <use xlink:href="#DejaVuSans-Bold-5b" transform="translate(966.064453 0)"/>
      <use xlink:href="#DejaVuSans-Bold-49" transform="translate(1011.767578 0)"/>
      <use xlink:href="#DejaVuSans-Bold-55" transform="translate(1048.974609 0)"/>
      <use xlink:href="#DejaVuSans-Bold-2f" transform="translate(1130.175781 0)"/>
      <use xlink:href="#DejaVuSans-Bold-6d" transform="translate(1166.699219 0)"/>
      <use xlink:href="#DejaVuSans-Bold-6c" transform="translate(1270.898438 0)"/>
      <use xlink:href="#DejaVuSans-Bold-5d" transform="translate(1305.175781 0)"/>
     </g>
    </g>
   </g>
   <g id="line2d_16">
    <path d="M 76.607037 349.884 
L 76.67026 349.812453 
L 76.796706 348.970311 
L 77.081208 344.722779 
L 77.997937 325.635155 
L 79.072723 305.645763 
L 80.052675 291.440729 
L 80.969404 281.197449 
L 81.854521 273.651084 
L 82.708028 268.203702 
L 83.498312 264.509761 
L 84.225373 262.084963 
L 84.889211 260.570155 
L 85.489827 259.698209 
L 86.027219 259.270011 
L 86.533001 259.135641 
L 87.038783 259.232837 
L 87.607787 259.587023 
L 88.271625 260.285575 
L 89.061909 261.45649 
L 90.041861 263.324051 
L 91.306315 266.24881 
L 93.013328 270.81279 
L 95.826738 279.075676 
L 100.631663 293.134796 
L 103.38185 300.459153 
L 105.879147 306.4882 
L 108.218386 311.577381 
L 108.218386 311.577381 
L 108.281609 311.647787 
L 108.31322 311.610596 
L 108.439666 310.984016 
L 108.724168 307.808652 
L 109.70412 292.670637 
L 110.715683 279.072781 
L 111.632412 269.620495 
L 112.485918 262.975064 
L 113.307813 258.237192 
L 114.066486 255.090035 
L 114.761936 253.087705 
L 115.394163 251.898985 
L 115.963167 251.277304 
L 116.468948 251.038812 
L 116.943119 251.054076 
L 117.4489 251.297586 
L 118.049516 251.855787 
L 118.776577 252.868486 
L 119.661695 254.515074 
L 120.768092 257.07553 
L 122.222214 261.050108 
L 124.308563 267.47338 
L 132.274623 292.607588 
L 134.835142 299.662851 
L 137.237605 305.646008 
L 139.545233 310.813139 
L 139.892958 311.484093 
L 139.924569 311.447799 
L 140.051015 310.824757 
L 140.335517 307.657075 
L 141.315469 292.542794 
L 142.327032 278.965546 
L 143.243761 269.529052 
L 144.097267 262.896225 
L 144.919162 258.168846 
L 145.677835 255.030131 
L 146.373284 253.03462 
L 147.005511 251.851423 
L 147.574516 251.23422 
L 148.080297 250.999353 
L 148.554467 251.017738 
L 149.060249 251.264305 
L 149.660865 251.825805 
L 150.387926 252.842062 
L 151.273043 254.492417 
L 152.379441 257.056836 
L 153.833563 261.035588 
L 155.919912 267.463276 
L 163.885972 292.605057 
L 166.446491 299.661229 
L 168.848953 305.64494 
L 171.156582 310.812423 
L 171.504307 311.48342 
L 171.535918 311.447129 
L 171.662363 310.824102 
L 171.946866 307.656452 
L 172.926817 292.542268 
L 173.938381 278.965104 
L 174.85511 269.528676 
L 175.708616 262.895901 
L 176.530511 258.168565 
L 177.289184 255.029884 
L 177.984633 253.034401 
L 178.61686 251.851227 
L 179.185864 251.234043 
L 179.691646 250.999191 
L 180.165816 251.017589 
L 180.671598 251.264168 
L 181.272213 251.825682 
L 181.999275 252.841954 
L 182.884392 254.492324 
L 183.990789 257.056759 
L 185.444912 261.035528 
L 187.531261 267.463234 
L 195.49732 292.605046 
L 198.05784 299.661222 
L 200.460302 305.644935 
L 202.767931 310.81242 
L 203.115656 311.483417 
L 203.147267 311.447126 
L 203.273712 310.824099 
L 203.558214 307.656449 
L 204.538166 292.542266 
L 205.549729 278.965103 
L 206.466459 269.528674 
L 207.319965 262.8959 
L 208.14186 258.168564 
L 208.900532 255.029883 
L 209.595982 253.034401 
L 210.228209 251.851227 
L 210.797213 251.234042 
L 211.302995 250.99919 
L 211.777165 251.017588 
L 212.282947 251.264168 
L 212.883562 251.825681 
L 213.610623 252.841953 
L 214.495741 254.492324 
L 215.602138 257.056759 
L 217.05626 261.035528 
L 219.142609 267.463234 
L 227.108669 292.605046 
L 229.669189 299.661222 
L 232.071651 305.644935 
L 234.37928 310.81242 
L 234.727004 311.483417 
L 234.758616 311.447126 
L 234.885061 310.824099 
L 235.169563 307.656449 
L 236.149515 292.542266 
L 237.161078 278.965103 
L 238.077807 269.528674 
L 238.931314 262.8959 
L 239.753209 258.168564 
L 240.511881 255.029883 
L 241.207331 253.034401 
L 241.839558 251.851227 
L 242.408562 251.234042 
L 242.914344 250.99919 
L 243.388514 251.017588 
L 243.894296 251.264168 
L 244.494911 251.825681 
L 245.221972 252.841953 
L 246.10709 254.492324 
L 247.213487 257.056759 
L 248.667609 261.035528 
L 250.753958 267.463234 
L 258.720018 292.605046 
L 261.280537 299.661222 
L 263.683 305.644935 
L 265.990628 310.81242 
L 266.338353 311.483417 
L 266.369965 311.447126 
L 266.49641 310.824099 
L 266.780912 307.656449 
L 267.760864 292.542266 
L 268.772427 278.965103 
L 269.689156 269.528674 
L 270.542663 262.8959 
L 271.364558 258.168564 
L 272.12323 255.029883 
L 272.81868 253.034401 
L 273.450907 251.851227 
L 274.019911 251.234042 
L 274.525693 250.99919 
L 274.999863 251.017588 
L 275.505644 251.264168 
L 276.10626 251.825681 
L 276.833321 252.841953 
L 277.718439 254.492324 
L 278.824836 257.056759 
L 280.278958 261.035528 
L 282.365307 267.463234 
L 290.331367 292.605046 
L 292.891886 299.661222 
L 295.294349 305.644935 
L 297.601977 310.81242 
L 297.886479 311.411195 
L 297.886479 311.411195 
L 298.005022 311.385801 
L 298.242107 309.544971 
L 298.83482 300.929635 
L 300.138788 281.940656 
L 301.087128 271.497207 
L 301.916926 264.549603 
L 302.746724 259.338479 
L 303.576522 255.596021 
L 304.287777 253.380119 
L 304.88049 252.134794 
L 305.473203 251.366123 
L 305.947373 251.054906 
L 306.421544 250.98417 
L 306.895714 251.129143 
L 307.488427 251.579371 
L 308.199682 252.461938 
L 309.02948 253.887133 
L 310.096363 256.218545 
L 311.400331 259.633371 
L 313.297012 265.307924 
L 317.090374 277.592902 
L 320.646651 288.780966 
L 323.373129 296.631701 
L 325.862523 303.123247 
L 328.233374 308.686228 
L 330.485683 313.426874 
L 332.737991 317.667573 
L 334.9903 321.445612 
L 337.242609 324.801207 
L 339.494917 327.774741 
L 341.865768 330.53477 
L 344.23662 332.957062 
L 346.726013 335.179604 
L 349.33395 337.199049 
L 352.060428 339.016731 
L 354.90545 340.637923 
L 357.869014 342.071081 
L 361.069663 343.371151 
L 364.507397 344.52805 
L 368.300759 345.567956 
L 372.568291 346.498737 
L 377.309993 347.299603 
L 382.762951 347.989356 
L 389.164249 348.568057 
L 396.988058 349.041123 
L 406.82709 349.402659 
L 416.429037 349.605386 
L 416.429037 349.605386 
" clip-path="url(#pc48ac7a237)" style="fill: none; stroke: #800080; stroke-width: 2; stroke-linecap: square"/>
   </g>
   <g id="line2d_17">
    <path d="M 267.59227 234.581143 
L 268.90941 187.678286 
L 271.543689 156.409714 
L 274.177968 140.775429 
L 276.812247 62.604 
L 279.446526 127.095429 
L 282.080805 177.906857 
L 287.349363 191.586857 
L 300.520758 211.129714 
L 303.155037 259.986857 
L 305.789317 230.672571 
L 308.423596 193.541143 
L 311.057875 177.906857 
L 313.692154 185.724 
L 318.960712 195.495429 
L 329.497828 203.312571 
L 361.109177 220.901143 
" clip-path="url(#pc48ac7a237)" style="fill: none; stroke-dasharray: 3.7,1.6; stroke-dashoffset: 0; stroke: #800080"/>
    <defs>
     <path id="mab35583553" d="M -3 3 
L 3 3 
L 3 -3 
L -3 -3 
z
" style="stroke: #000000; stroke-linejoin: miter"/>
    </defs>
    <g clip-path="url(#pc48ac7a237)">
     <use xlink:href="#mab35583553" x="267.59227" y="234.581143" style="fill: #800080; stroke: #000000; stroke-linejoin: miter"/>
     <use xlink:href="#mab35583553" x="268.90941" y="187.678286" style="fill: #800080; stroke: #000000; stroke-linejoin: miter"/>
     <use xlink:href="#mab35583553" x="271.543689" y="156.409714" style="fill: #800080; stroke: #000000; stroke-linejoin: miter"/>
     <use xlink:href="#mab35583553" x="274.177968" y="140.775429" style="fill: #800080; stroke: #000000; stroke-linejoin: miter"/>
     <use xlink:href="#mab35583553" x="276.812247" y="62.604" style="fill: #800080; stroke: #000000; stroke-linejoin: miter"/>
     <use xlink:href="#mab35583553" x="279.446526" y="127.095429" style="fill: #800080; stroke: #000000; stroke-linejoin: miter"/>
     <use xlink:href="#mab35583553" x="282.080805" y="177.906857" style="fill: #800080; stroke: #000000; stroke-linejoin: miter"/>
     <use xlink:href="#mab35583553" x="287.349363" y="191.586857" style="fill: #800080; stroke: #000000; stroke-linejoin: miter"/>
     <use xlink:href="#mab35583553" x="300.520758" y="211.129714" style="fill: #800080; stroke: #000000; stroke-linejoin: miter"/>
     <use xlink:href="#mab35583553" x="303.155037" y="259.986857" style="fill: #800080; stroke: #000000; stroke-linejoin: miter"/>
     <use xlink:href="#mab35583553" x="305.789317" y="230.672571" style="fill: #800080; stroke: #000000; stroke-linejoin: miter"/>
     <use xlink:href="#mab35583553" x="308.423596" y="193.541143" style="fill: #800080; stroke: #000000; stroke-linejoin: miter"/>
     <use xlink:href="#mab35583553" x="311.057875" y="177.906857" style="fill: #800080; stroke: #000000; stroke-linejoin: miter"/>
     <use xlink:href="#mab35583553" x="313.692154" y="185.724" style="fill: #800080; stroke: #000000; stroke-linejoin: miter"/>
     <use xlink:href="#mab35583553" x="318.960712" y="195.495429" style="fill: #800080; stroke: #000000; stroke-linejoin: miter"/>
     <use xlink:href="#mab35583553" x="329.497828" y="203.312571" style="fill: #800080; stroke: #000000; stroke-linejoin: miter"/>
     <use xlink:href="#mab35583553" x="361.109177" y="220.901143" style="fill: #800080; stroke: #000000; stroke-linejoin: miter"/>
    </g>
   </g>
   <g id="patch_3">
    <path d="M 59.615938 364.248 
L 59.615938 48.24 
" style="fill: none; stroke: #000000; stroke-width: 0.8; stroke-linejoin: miter; stroke-linecap: square"/>
   </g>
   <g id="patch_4">
    <path d="M 433.420138 364.248 
L 433.420138 48.24 
" style="fill: none; stroke: #000000; stroke-width: 0.8; stroke-linejoin: miter; stroke-linecap: square"/>
   </g>
   <g id="patch_5">
    <path d="M 59.615937 364.248 
L 433.420137 364.248 
" style="fill: none; stroke: #000000; stroke-width: 0.8; stroke-linejoin: miter; stroke-linecap: square"/>
   </g>
   <g id="patch_6">
    <path d="M 59.615937 48.24 
L 433.420137 48.24 
" style="fill: none; stroke: #000000; stroke-width: 0.8; stroke-linejoin: miter; stroke-linecap: square"/>
   </g>
   <g id="legend_1">
    <g id="patch_7">
     <path d="M 66.265938 83.728437 
L 245.150938 83.728437 
Q 247.050938 83.728437 247.050938 81.828437 
L 247.050938 54.89 
Q 247.050938 52.99 245.150938 52.99 
L 66.265938 52.99 
Q 64.365938 52.99 64.365938 54.89 
L 64.365938 81.828437 
Q 64.365938 83.728437 66.265938 83.728437 
z
" style="fill: #ffffff; opacity: 0.8; stroke: #cccccc; stroke-linejoin: miter"/>
    </g>
    <g id="line2d_18">
     <path d="M 68.165937 60.683516 
L 87.165937 60.683516 
" style="fill: none; stroke: #800080; stroke-width: 2; stroke-linecap: square"/>
    </g>
    <g id="line2d_19"/>
    <g id="text_18">
     <!-- sim multiple: 2.5mg PO -->
     <g transform="translate(94.765938 64.008516) scale(0.095 -0.095)">
      <defs>
       <path id="DejaVuSans-73" d="M 2834 3397 
L 2834 2853 
Q 2591 2978 2328 3040 
Q 2066 3103 1784 3103 
Q 1356 3103 1142 2972 
Q 928 2841 928 2578 
Q 928 2378 1081 2264 
Q 1234 2150 1697 2047 
L 1894 2003 
Q 2506 1872 2764 1633 
Q 3022 1394 3022 966 
Q 3022 478 2636 193 
Q 2250 -91 1575 -91 
Q 1294 -91 989 -36 
Q 684 19 347 128 
L 347 722 
Q 666 556 975 473 
Q 1284 391 1588 391 
Q 1994 391 2212 530 
Q 2431 669 2431 922 
Q 2431 1156 2273 1281 
Q 2116 1406 1581 1522 
L 1381 1569 
Q 847 1681 609 1914 
Q 372 2147 372 2553 
Q 372 3047 722 3315 
Q 1072 3584 1716 3584 
Q 2034 3584 2315 3537 
Q 2597 3491 2834 3397 
z
" transform="scale(0.015625)"/>
       <path id="DejaVuSans-69" d="M 603 3500 
L 1178 3500 
L 1178 0 
L 603 0 
L 603 3500 
z
M 603 4863 
L 1178 4863 
L 1178 4134 
L 603 4134 
L 603 4863 
z
" transform="scale(0.015625)"/>
       <path id="DejaVuSans-6d" d="M 3328 2828 
Q 3544 3216 3844 3400 
Q 4144 3584 4550 3584 
Q 5097 3584 5394 3201 
Q 5691 2819 5691 2113 
L 5691 0 
L 5113 0 
L 5113 2094 
Q 5113 2597 4934 2840 
Q 4756 3084 4391 3084 
Q 3944 3084 3684 2787 
Q 3425 2491 3425 1978 
L 3425 0 
L 2847 0 
L 2847 2094 
Q 2847 2600 2669 2842 
Q 2491 3084 2119 3084 
Q 1678 3084 1418 2786 
Q 1159 2488 1159 1978 
L 1159 0 
L 581 0 
L 581 3500 
L 1159 3500 
L 1159 2956 
Q 1356 3278 1631 3431 
Q 1906 3584 2284 3584 
Q 2666 3584 2933 3390 
Q 3200 3197 3328 2828 
z
" transform="scale(0.015625)"/>
       <path id="DejaVuSans-20" transform="scale(0.015625)"/>
       <path id="DejaVuSans-75" d="M 544 1381 
L 544 3500 
L 1119 3500 
L 1119 1403 
Q 1119 906 1312 657 
Q 1506 409 1894 409 
Q 2359 409 2629 706 
Q 2900 1003 2900 1516 
L 2900 3500 
L 3475 3500 
L 3475 0 
L 2900 0 
L 2900 538 
Q 2691 219 2414 64 
Q 2138 -91 1772 -91 
Q 1169 -91 856 284 
Q 544 659 544 1381 
z
M 1991 3584 
L 1991 3584 
z
" transform="scale(0.015625)"/>
       <path id="DejaVuSans-6c" d="M 603 4863 
L 1178 4863 
L 1178 0 
L 603 0 
L 603 4863 
z
" transform="scale(0.015625)"/>
       <path id="DejaVuSans-74" d="M 1172 4494 
L 1172 3500 
L 2356 3500 
L 2356 3053 
L 1172 3053 
L 1172 1153 
Q 1172 725 1289 603 
Q 1406 481 1766 481 
L 2356 481 
L 2356 0 
L 1766 0 
Q 1100 0 847 248 
Q 594 497 594 1153 
L 594 3053 
L 172 3053 
L 172 3500 
L 594 3500 
L 594 4494 
L 1172 4494 
z
" transform="scale(0.015625)"/>
       <path id="DejaVuSans-70" d="M 1159 525 
L 1159 -1331 
L 581 -1331 
L 581 3500 
L 1159 3500 
L 1159 2969 
Q 1341 3281 1617 3432 
Q 1894 3584 2278 3584 
Q 2916 3584 3314 3078 
Q 3713 2572 3713 1747 
Q 3713 922 3314 415 
Q 2916 -91 2278 -91 
Q 1894 -91 1617 61 
Q 1341 213 1159 525 
z
M 3116 1747 
Q 3116 2381 2855 2742 
Q 2594 3103 2138 3103 
Q 1681 3103 1420 2742 
Q 1159 2381 1159 1747 
Q 1159 1113 1420 752 
Q 1681 391 2138 391 
Q 2594 391 2855 752 
Q 3116 1113 3116 1747 
z
" transform="scale(0.015625)"/>
       <path id="DejaVuSans-65" d="M 3597 1894 
L 3597 1613 
L 953 1613 
Q 991 1019 1311 708 
Q 1631 397 2203 397 
Q 2534 397 2845 478 
Q 3156 559 3463 722 
L 3463 178 
Q 3153 47 2828 -22 
Q 2503 -91 2169 -91 
Q 1331 -91 842 396 
Q 353 884 353 1716 
Q 353 2575 817 3079 
Q 1281 3584 2069 3584 
Q 2775 3584 3186 3129 
Q 3597 2675 3597 1894 
z
M 3022 2063 
Q 3016 2534 2758 2815 
Q 2500 3097 2075 3097 
Q 1594 3097 1305 2825 
Q 1016 2553 972 2059 
L 3022 2063 
z
" transform="scale(0.015625)"/>
       <path id="DejaVuSans-3a" d="M 750 794 
L 1409 794 
L 1409 0 
L 750 0 
L 750 794 
z
M 750 3309 
L 1409 3309 
L 1409 2516 
L 750 2516 
L 750 3309 
z
" transform="scale(0.015625)"/>
       <path id="DejaVuSans-35" d="M 691 4666 
L 3169 4666 
L 3169 4134 
L 1269 4134 
L 1269 2991 
Q 1406 3038 1543 3061 
Q 1681 3084 1819 3084 
Q 2600 3084 3056 2656 
Q 3513 2228 3513 1497 
Q 3513 744 3044 326 
Q 2575 -91 1722 -91 
Q 1428 -91 1123 -41 
Q 819 9 494 109 
L 494 744 
Q 775 591 1075 516 
Q 1375 441 1709 441 
Q 2250 441 2565 725 
Q 2881 1009 2881 1497 
Q 2881 1984 2565 2268 
Q 2250 2553 1709 2553 
Q 1456 2553 1204 2497 
Q 953 2441 691 2322 
L 691 4666 
z
" transform="scale(0.015625)"/>
       <path id="DejaVuSans-67" d="M 2906 1791 
Q 2906 2416 2648 2759 
Q 2391 3103 1925 3103 
Q 1463 3103 1205 2759 
Q 947 2416 947 1791 
Q 947 1169 1205 825 
Q 1463 481 1925 481 
Q 2391 481 2648 825 
Q 2906 1169 2906 1791 
z
M 3481 434 
Q 3481 -459 3084 -895 
Q 2688 -1331 1869 -1331 
Q 1566 -1331 1297 -1286 
Q 1028 -1241 775 -1147 
L 775 -588 
Q 1028 -725 1275 -790 
Q 1522 -856 1778 -856 
Q 2344 -856 2625 -561 
Q 2906 -266 2906 331 
L 2906 616 
Q 2728 306 2450 153 
Q 2172 0 1784 0 
Q 1141 0 747 490 
Q 353 981 353 1791 
Q 353 2603 747 3093 
Q 1141 3584 1784 3584 
Q 2172 3584 2450 3431 
Q 2728 3278 2906 2969 
L 2906 3500 
L 3481 3500 
L 3481 434 
z
" transform="scale(0.015625)"/>
       <path id="DejaVuSans-50" d="M 1259 4147 
L 1259 2394 
L 2053 2394 
Q 2494 2394 2734 2622 
Q 2975 2850 2975 3272 
Q 2975 3691 2734 3919 
Q 2494 4147 2053 4147 
L 1259 4147 
z
M 628 4666 
L 2053 4666 
Q 2838 4666 3239 4311 
Q 3641 3956 3641 3272 
Q 3641 2581 3239 2228 
Q 2838 1875 2053 1875 
L 1259 1875 
L 1259 0 
L 628 0 
L 628 4666 
z
" transform="scale(0.015625)"/>
       <path id="DejaVuSans-4f" d="M 2522 4238 
Q 1834 4238 1429 3725 
Q 1025 3213 1025 2328 
Q 1025 1447 1429 934 
Q 1834 422 2522 422 
Q 3209 422 3611 934 
Q 4013 1447 4013 2328 
Q 4013 3213 3611 3725 
Q 3209 4238 2522 4238 
z
M 2522 4750 
Q 3503 4750 4090 4092 
Q 4678 3434 4678 2328 
Q 4678 1225 4090 567 
Q 3503 -91 2522 -91 
Q 1538 -91 948 565 
Q 359 1222 359 2328 
Q 359 3434 948 4092 
Q 1538 4750 2522 4750 
z
" transform="scale(0.015625)"/>
      </defs>
      <use xlink:href="#DejaVuSans-73"/>
      <use xlink:href="#DejaVuSans-69" transform="translate(52.099609 0)"/>
      <use xlink:href="#DejaVuSans-6d" transform="translate(79.882812 0)"/>
      <use xlink:href="#DejaVuSans-20" transform="translate(177.294922 0)"/>
      <use xlink:href="#DejaVuSans-6d" transform="translate(209.082031 0)"/>
      <use xlink:href="#DejaVuSans-75" transform="translate(306.494141 0)"/>
      <use xlink:href="#DejaVuSans-6c" transform="translate(369.873047 0)"/>
      <use xlink:href="#DejaVuSans-74" transform="translate(397.65625 0)"/>
      <use xlink:href="#DejaVuSans-69" transform="translate(436.865234 0)"/>
      <use xlink:href="#DejaVuSans-70" transform="translate(464.648438 0)"/>
      <use xlink:href="#DejaVuSans-6c" transform="translate(528.125 0)"/>
      <use xlink:href="#DejaVuSans-65" transform="translate(555.908203 0)"/>
      <use xlink:href="#DejaVuSans-3a" transform="translate(617.431641 0)"/>
      <use xlink:href="#DejaVuSans-20" transform="translate(651.123047 0)"/>
      <use xlink:href="#DejaVuSans-32" transform="translate(682.910156 0)"/>
      <use xlink:href="#DejaVuSans-2e" transform="translate(746.533203 0)"/>
      <use xlink:href="#DejaVuSans-35" transform="translate(778.320312 0)"/>
      <use xlink:href="#DejaVuSans-6d" transform="translate(841.943359 0)"/>
      <use xlink:href="#DejaVuSans-67" transform="translate(939.355469 0)"/>
      <use xlink:href="#DejaVuSans-20" transform="translate(1002.832031 0)"/>
      <use xlink:href="#DejaVuSans-50" transform="translate(1034.619141 0)"/>
      <use xlink:href="#DejaVuSans-4f" transform="translate(1094.921875 0)"/>
     </g>
    </g>
    <g id="line2d_20">
     <path d="M 68.165937 74.627734 
L 87.165937 74.627734 
" style="fill: none; stroke-dasharray: 3.7,1.6; stroke-dashoffset: 0; stroke: #800080"/>
    </g>
    <g id="line2d_21">
     <g>
      <use xlink:href="#mab35583553" x="77.665937" y="74.627734" style="fill: #800080; stroke: #000000; stroke-linejoin: miter"/>
     </g>
    </g>
    <g id="text_19">
     <!-- exp multiple: 2.5mg PO (n=14) -->
     <g transform="translate(94.765938 77.952734) scale(0.095 -0.095)">
      <defs>
       <path id="DejaVuSans-78" d="M 3513 3500 
L 2247 1797 
L 3578 0 
L 2900 0 
L 1881 1375 
L 863 0 
L 184 0 
L 1544 1831 
L 300 3500 
L 978 3500 
L 1906 2253 
L 2834 3500 
L 3513 3500 
z
" transform="scale(0.015625)"/>
       <path id="DejaVuSans-28" d="M 1984 4856 
Q 1566 4138 1362 3434 
Q 1159 2731 1159 2009 
Q 1159 1288 1364 580 
Q 1569 -128 1984 -844 
L 1484 -844 
Q 1016 -109 783 600 
Q 550 1309 550 2009 
Q 550 2706 781 3412 
Q 1013 4119 1484 4856 
L 1984 4856 
z
" transform="scale(0.015625)"/>
       <path id="DejaVuSans-6e" d="M 3513 2113 
L 3513 0 
L 2938 0 
L 2938 2094 
Q 2938 2591 2744 2837 
Q 2550 3084 2163 3084 
Q 1697 3084 1428 2787 
Q 1159 2491 1159 1978 
L 1159 0 
L 581 0 
L 581 3500 
L 1159 3500 
L 1159 2956 
Q 1366 3272 1645 3428 
Q 1925 3584 2291 3584 
Q 2894 3584 3203 3211 
Q 3513 2838 3513 2113 
z
" transform="scale(0.015625)"/>
       <path id="DejaVuSans-3d" d="M 678 2906 
L 4684 2906 
L 4684 2381 
L 678 2381 
L 678 2906 
z
M 678 1631 
L 4684 1631 
L 4684 1100 
L 678 1100 
L 678 1631 
z
" transform="scale(0.015625)"/>
       <path id="DejaVuSans-29" d="M 513 4856 
L 1013 4856 
Q 1481 4119 1714 3412 
Q 1947 2706 1947 2009 
Q 1947 1309 1714 600 
Q 1481 -109 1013 -844 
L 513 -844 
Q 928 -128 1133 580 
Q 1338 1288 1338 2009 
Q 1338 2731 1133 3434 
Q 928 4138 513 4856 
z
" transform="scale(0.015625)"/>
      </defs>
      <use xlink:href="#DejaVuSans-65"/>
      <use xlink:href="#DejaVuSans-78" transform="translate(59.773438 0)"/>
      <use xlink:href="#DejaVuSans-70" transform="translate(118.953125 0)"/>
      <use xlink:href="#DejaVuSans-20" transform="translate(182.429688 0)"/>
      <use xlink:href="#DejaVuSans-6d" transform="translate(214.216797 0)"/>
      <use xlink:href="#DejaVuSans-75" transform="translate(311.628906 0)"/>
      <use xlink:href="#DejaVuSans-6c" transform="translate(375.007812 0)"/>
      <use xlink:href="#DejaVuSans-74" transform="translate(402.791016 0)"/>
      <use xlink:href="#DejaVuSans-69" transform="translate(442 0)"/>
      <use xlink:href="#DejaVuSans-70" transform="translate(469.783203 0)"/>
      <use xlink:href="#DejaVuSans-6c" transform="translate(533.259766 0)"/>
      <use xlink:href="#DejaVuSans-65" transform="translate(561.042969 0)"/>
      <use xlink:href="#DejaVuSans-3a" transform="translate(622.566406 0)"/>
      <use xlink:href="#DejaVuSans-20" transform="translate(656.257812 0)"/>
      <use xlink:href="#DejaVuSans-32" transform="translate(688.044922 0)"/>
      <use xlink:href="#DejaVuSans-2e" transform="translate(751.667969 0)"/>
      <use xlink:href="#DejaVuSans-35" transform="translate(783.455078 0)"/>
      <use xlink:href="#DejaVuSans-6d" transform="translate(847.078125 0)"/>
      <use xlink:href="#DejaVuSans-67" transform="translate(944.490234 0)"/>
      <use xlink:href="#DejaVuSans-20" transform="translate(1007.966797 0)"/>
      <use xlink:href="#DejaVuSans-50" transform="translate(1039.753906 0)"/>
      <use xlink:href="#DejaVuSans-4f" transform="translate(1100.056641 0)"/>
      <use xlink:href="#DejaVuSans-20" transform="translate(1178.767578 0)"/>
      <use xlink:href="#DejaVuSans-28" transform="translate(1210.554688 0)"/>
      <use xlink:href="#DejaVuSans-6e" transform="translate(1249.568359 0)"/>
      <use xlink:href="#DejaVuSans-3d" transform="translate(1312.947266 0)"/>
      <use xlink:href="#DejaVuSans-31" transform="translate(1396.736328 0)"/>
      <use xlink:href="#DejaVuSans-34" transform="translate(1460.359375 0)"/>
      <use xlink:href="#DejaVuSans-29" transform="translate(1523.982422 0)"/>
     </g>
    </g>
   </g>
  </g>
  <g id="text_20">
   <!-- Frost2014 -->
   <g transform="translate(169.791672 26.196094) scale(0.25 -0.25)">
    <defs>
     <path id="DejaVuSans-Bold-6f" d="M 2203 2784 
Q 1831 2784 1636 2517 
Q 1441 2250 1441 1747 
Q 1441 1244 1636 976 
Q 1831 709 2203 709 
Q 2569 709 2762 976 
Q 2956 1244 2956 1747 
Q 2956 2250 2762 2517 
Q 2569 2784 2203 2784 
z
M 2203 3584 
Q 3106 3584 3614 3096 
Q 4122 2609 4122 1747 
Q 4122 884 3614 396 
Q 3106 -91 2203 -91 
Q 1297 -91 786 396 
Q 275 884 275 1747 
Q 275 2609 786 3096 
Q 1297 3584 2203 3584 
z
" transform="scale(0.015625)"/>
     <path id="DejaVuSans-Bold-73" d="M 3272 3391 
L 3272 2541 
Q 2913 2691 2578 2766 
Q 2244 2841 1947 2841 
Q 1628 2841 1473 2761 
Q 1319 2681 1319 2516 
Q 1319 2381 1436 2309 
Q 1553 2238 1856 2203 
L 2053 2175 
Q 2913 2066 3209 1816 
Q 3506 1566 3506 1031 
Q 3506 472 3093 190 
Q 2681 -91 1863 -91 
Q 1516 -91 1145 -36 
Q 775 19 384 128 
L 384 978 
Q 719 816 1070 734 
Q 1422 653 1784 653 
Q 2113 653 2278 743 
Q 2444 834 2444 1013 
Q 2444 1163 2330 1236 
Q 2216 1309 1875 1350 
L 1678 1375 
Q 931 1469 631 1722 
Q 331 1975 331 2491 
Q 331 3047 712 3315 
Q 1094 3584 1881 3584 
Q 2191 3584 2531 3537 
Q 2872 3491 3272 3391 
z
" transform="scale(0.015625)"/>
     <path id="DejaVuSans-Bold-32" d="M 1844 884 
L 3897 884 
L 3897 0 
L 506 0 
L 506 884 
L 2209 2388 
Q 2438 2594 2547 2791 
Q 2656 2988 2656 3200 
Q 2656 3528 2436 3728 
Q 2216 3928 1850 3928 
Q 1569 3928 1234 3808 
Q 900 3688 519 3450 
L 519 4475 
Q 925 4609 1322 4679 
Q 1719 4750 2100 4750 
Q 2938 4750 3402 4381 
Q 3866 4013 3866 3353 
Q 3866 2972 3669 2642 
Q 3472 2313 2841 1759 
L 1844 884 
z
" transform="scale(0.015625)"/>
     <path id="DejaVuSans-Bold-30" d="M 2944 2338 
Q 2944 3213 2780 3570 
Q 2616 3928 2228 3928 
Q 1841 3928 1675 3570 
Q 1509 3213 1509 2338 
Q 1509 1453 1675 1090 
Q 1841 728 2228 728 
Q 2613 728 2778 1090 
Q 2944 1453 2944 2338 
z
M 4147 2328 
Q 4147 1169 3647 539 
Q 3147 -91 2228 -91 
Q 1306 -91 806 539 
Q 306 1169 306 2328 
Q 306 3491 806 4120 
Q 1306 4750 2228 4750 
Q 3147 4750 3647 4120 
Q 4147 3491 4147 2328 
z
" transform="scale(0.015625)"/>
     <path id="DejaVuSans-Bold-31" d="M 750 831 
L 1813 831 
L 1813 3847 
L 722 3622 
L 722 4441 
L 1806 4666 
L 2950 4666 
L 2950 831 
L 4013 831 
L 4013 0 
L 750 0 
L 750 831 
z
" transform="scale(0.015625)"/>
     <path id="DejaVuSans-Bold-34" d="M 2356 3675 
L 1038 1722 
L 2356 1722 
L 2356 3675 
z
M 2156 4666 
L 3494 4666 
L 3494 1722 
L 4159 1722 
L 4159 850 
L 3494 850 
L 3494 0 
L 2356 0 
L 2356 850 
L 288 850 
L 288 1881 
L 2156 4666 
z
" transform="scale(0.015625)"/>
    </defs>
    <use xlink:href="#DejaVuSans-Bold-46"/>
    <use xlink:href="#DejaVuSans-Bold-72" transform="translate(61.935547 0)"/>
    <use xlink:href="#DejaVuSans-Bold-6f" transform="translate(111.251953 0)"/>
    <use xlink:href="#DejaVuSans-Bold-73" transform="translate(179.953125 0)"/>
    <use xlink:href="#DejaVuSans-Bold-74" transform="translate(239.474609 0)"/>
    <use xlink:href="#DejaVuSans-Bold-32" transform="translate(287.277344 0)"/>
    <use xlink:href="#DejaVuSans-Bold-30" transform="translate(356.857422 0)"/>
    <use xlink:href="#DejaVuSans-Bold-31" transform="translate(426.4375 0)"/>
    <use xlink:href="#DejaVuSans-Bold-34" transform="translate(496.017578 0)"/>
   </g>
  </g>
 </g>
 <defs>
  <clipPath id="pc48ac7a237">
   <rect x="59.615938" y="48.24" width="373.8042" height="316.008"/>
  </clipPath>
 </defs>
</svg>
