<?xml version="1.0" encoding="utf-8" standalone="no"?>
<!DOCTYPE svg PUBLIC "-//W3C//DTD SVG 1.1//EN"
  "http://www.w3.org/Graphics/SVG/1.1/DTD/svg11.dtd">
<svg xmlns:xlink="http://www.w3.org/1999/xlink" width="445.711562pt" height="414.385812pt" viewBox="0 0 445.711562 414.385812" xmlns="http://www.w3.org/2000/svg" version="1.1">
 <metadata>
  <rdf:RDF xmlns:dc="http://purl.org/dc/elements/1.1/" xmlns:cc="http://creativecommons.org/ns#" xmlns:rdf="http://www.w3.org/1999/02/22-rdf-syntax-ns#">
   <cc:Work>
    <dc:type rdf:resource="http://purl.org/dc/dcmitype/StillImage"/>
    <dc:date>2026-03-23T09:58:33.700312</dc:date>
    <dc:format>image/svg+xml</dc:format>
    <dc:creator>
     <cc:Agent>
      <dc:title>Matplotlib v3.10.8, https://matplotlib.org/</dc:title>
     </cc:Agent>
    </dc:creator>
   </cc:Work>
  </rdf:RDF>
 </metadata>
 <defs>
  <style type="text/css">*{stroke-linejoin: round; stroke-linecap: butt}</style>
 </defs>
 <g id="figure_1">
  <g id="patch_1">
   <path d="M 0 414.385812 
L 445.711562 414.385812 
L 445.711562 -0 
L 0 -0 
z
" style="fill: #ffffff"/>
  </g>
  <g id="axes_1">
   <g id="patch_2">
    <path d="M 64.251875 364.248 
L 438.056075 364.248 
L 438.056075 48.24 
L 64.251875 48.24 
z
" style="fill: #ffffff"/>
   </g>
   <g id="matplotlib.axis_1">
    <g id="xtick_1">
     <g id="line2d_1">
      <defs>
       <path id="m787e773751" d="M 0 0 
L 0 3.5 
" style="stroke: #000000; stroke-width: 0.8"/>
      </defs>
      <g>
       <use xlink:href="#m787e773751" x="112.854324" y="364.248" style="stroke: #000000; stroke-width: 0.8"/>
      </g>
     </g>
     <g id="text_1">
      <!-- −60 -->
      <g transform="translate(97.025808 382.645656) scale(0.15 -0.15)">
       <defs>
        <path id="DejaVuSans-2212" d="M 678 2272 
L 4684 2272 
L 4684 1741 
L 678 1741 
L 678 2272 
z
" transform="scale(0.015625)"/>
        <path id="DejaVuSans-36" d="M 2113 2584 
Q 1688 2584 1439 2293 
Q 1191 2003 1191 1497 
Q 1191 994 1439 701 
Q 1688 409 2113 409 
Q 2538 409 2786 701 
Q 3034 994 3034 1497 
Q 3034 2003 2786 2293 
Q 2538 2584 2113 2584 
z
M 3366 4563 
L 3366 3988 
Q 3128 4100 2886 4159 
Q 2644 4219 2406 4219 
Q 1781 4219 1451 3797 
Q 1122 3375 1075 2522 
Q 1259 2794 1537 2939 
Q 1816 3084 2150 3084 
Q 2853 3084 3261 2657 
Q 3669 2231 3669 1497 
Q 3669 778 3244 343 
Q 2819 -91 2113 -91 
Q 1303 -91 875 529 
Q 447 1150 447 2328 
Q 447 3434 972 4092 
Q 1497 4750 2381 4750 
Q 2619 4750 2861 4703 
Q 3103 4656 3366 4563 
z
" transform="scale(0.015625)"/>
        <path id="DejaVuSans-30" d="M 2034 4250 
Q 1547 4250 1301 3770 
Q 1056 3291 1056 2328 
Q 1056 1369 1301 889 
Q 1547 409 2034 409 
Q 2525 409 2770 889 
Q 3016 1369 3016 2328 
Q 3016 3291 2770 3770 
Q 2525 4250 2034 4250 
z
M 2034 4750 
Q 2819 4750 3233 4129 
Q 3647 3509 3647 2328 
Q 3647 1150 3233 529 
Q 2819 -91 2034 -91 
Q 1250 -91 836 529 
Q 422 1150 422 2328 
Q 422 3509 836 4129 
Q 1250 4750 2034 4750 
z
" transform="scale(0.015625)"/>
       </defs>
       <use xlink:href="#DejaVuSans-2212"/>
       <use xlink:href="#DejaVuSans-36" transform="translate(83.789062 0)"/>
       <use xlink:href="#DejaVuSans-30" transform="translate(147.412109 0)"/>
      </g>
     </g>
    </g>
    <g id="xtick_2">
     <g id="line2d_2">
      <g>
       <use xlink:href="#m787e773751" x="165.539905" y="364.248" style="stroke: #000000; stroke-width: 0.8"/>
      </g>
     </g>
     <g id="text_2">
      <!-- −40 -->
      <g transform="translate(149.71139 382.645656) scale(0.15 -0.15)">
       <defs>
        <path id="DejaVuSans-34" d="M 2419 4116 
L 825 1625 
L 2419 1625 
L 2419 4116 
z
M 2253 4666 
L 3047 4666 
L 3047 1625 
L 3713 1625 
L 3713 1100 
L 3047 1100 
L 3047 0 
L 2419 0 
L 2419 1100 
L 313 1100 
L 313 1709 
L 2253 4666 
z
" transform="scale(0.015625)"/>
       </defs>
       <use xlink:href="#DejaVuSans-2212"/>
       <use xlink:href="#DejaVuSans-34" transform="translate(83.789062 0)"/>
       <use xlink:href="#DejaVuSans-30" transform="translate(147.412109 0)"/>
      </g>
     </g>
    </g>
    <g id="xtick_3">
     <g id="line2d_3">
      <g>
       <use xlink:href="#m787e773751" x="218.225487" y="364.248" style="stroke: #000000; stroke-width: 0.8"/>
      </g>
     </g>
     <g id="text_3">
      <!-- −20 -->
      <g transform="translate(202.396971 382.645656) scale(0.15 -0.15)">
       <defs>
        <path id="DejaVuSans-32" d="M 1228 531 
L 3431 531 
L 3431 0 
L 469 0 
L 469 531 
Q 828 903 1448 1529 
Q 2069 2156 2228 2338 
Q 2531 2678 2651 2914 
Q 2772 3150 2772 3378 
Q 2772 3750 2511 3984 
Q 2250 4219 1831 4219 
Q 1534 4219 1204 4116 
Q 875 4013 500 3803 
L 500 4441 
Q 881 4594 1212 4672 
Q 1544 4750 1819 4750 
Q 2544 4750 2975 4387 
Q 3406 4025 3406 3419 
Q 3406 3131 3298 2873 
Q 3191 2616 2906 2266 
Q 2828 2175 2409 1742 
Q 1991 1309 1228 531 
z
" transform="scale(0.015625)"/>
       </defs>
       <use xlink:href="#DejaVuSans-2212"/>
       <use xlink:href="#DejaVuSans-32" transform="translate(83.789062 0)"/>
       <use xlink:href="#DejaVuSans-30" transform="translate(147.412109 0)"/>
      </g>
     </g>
    </g>
    <g id="xtick_4">
     <g id="line2d_4">
      <g>
       <use xlink:href="#m787e773751" x="270.911068" y="364.248" style="stroke: #000000; stroke-width: 0.8"/>
      </g>
     </g>
     <g id="text_4">
      <!-- 0 -->
      <g transform="translate(266.139193 382.645656) scale(0.15 -0.15)">
       <use xlink:href="#DejaVuSans-30"/>
      </g>
     </g>
    </g>
    <g id="xtick_5">
     <g id="line2d_5">
      <g>
       <use xlink:href="#m787e773751" x="323.596649" y="364.248" style="stroke: #000000; stroke-width: 0.8"/>
      </g>
     </g>
     <g id="text_5">
      <!-- 20 -->
      <g transform="translate(314.052899 382.645656) scale(0.15 -0.15)">
       <use xlink:href="#DejaVuSans-32"/>
       <use xlink:href="#DejaVuSans-30" transform="translate(63.623047 0)"/>
      </g>
     </g>
    </g>
    <g id="xtick_6">
     <g id="line2d_6">
      <g>
       <use xlink:href="#m787e773751" x="376.282231" y="364.248" style="stroke: #000000; stroke-width: 0.8"/>
      </g>
     </g>
     <g id="text_6">
      <!-- 40 -->
      <g transform="translate(366.738481 382.645656) scale(0.15 -0.15)">
       <use xlink:href="#DejaVuSans-34"/>
       <use xlink:href="#DejaVuSans-30" transform="translate(63.623047 0)"/>
      </g>
     </g>
    </g>
    <g id="xtick_7">
     <g id="line2d_7">
      <g>
       <use xlink:href="#m787e773751" x="428.967812" y="364.248" style="stroke: #000000; stroke-width: 0.8"/>
      </g>
     </g>
     <g id="text_7">
      <!-- 60 -->
      <g transform="translate(419.424062 382.645656) scale(0.15 -0.15)">
       <use xlink:href="#DejaVuSans-36"/>
       <use xlink:href="#DejaVuSans-30" transform="translate(63.623047 0)"/>
      </g>
     </g>
    </g>
    <g id="text_8">
     <!-- time [hr] -->
     <g transform="translate(206.079444 403.442375) scale(0.18 -0.18)">
      <defs>
       <path id="DejaVuSans-Bold-74" d="M 1759 4494 
L 1759 3500 
L 2913 3500 
L 2913 2700 
L 1759 2700 
L 1759 1216 
Q 1759 972 1856 886 
Q 1953 800 2241 800 
L 2816 800 
L 2816 0 
L 1856 0 
Q 1194 0 917 276 
Q 641 553 641 1216 
L 641 2700 
L 84 2700 
L 84 3500 
L 641 3500 
L 641 4494 
L 1759 4494 
z
" transform="scale(0.015625)"/>
       <path id="DejaVuSans-Bold-69" d="M 538 3500 
L 1656 3500 
L 1656 0 
L 538 0 
L 538 3500 
z
M 538 4863 
L 1656 4863 
L 1656 3950 
L 538 3950 
L 538 4863 
z
" transform="scale(0.015625)"/>
       <path id="DejaVuSans-Bold-6d" d="M 3781 2919 
Q 3994 3244 4286 3414 
Q 4578 3584 4928 3584 
Q 5531 3584 5847 3212 
Q 6163 2841 6163 2131 
L 6163 0 
L 5038 0 
L 5038 1825 
Q 5041 1866 5042 1909 
Q 5044 1953 5044 2034 
Q 5044 2406 4934 2573 
Q 4825 2741 4581 2741 
Q 4263 2741 4089 2478 
Q 3916 2216 3909 1719 
L 3909 0 
L 2784 0 
L 2784 1825 
Q 2784 2406 2684 2573 
Q 2584 2741 2328 2741 
Q 2006 2741 1831 2477 
Q 1656 2213 1656 1722 
L 1656 0 
L 531 0 
L 531 3500 
L 1656 3500 
L 1656 2988 
Q 1863 3284 2130 3434 
Q 2397 3584 2719 3584 
Q 3081 3584 3359 3409 
Q 3638 3234 3781 2919 
z
" transform="scale(0.015625)"/>
       <path id="DejaVuSans-Bold-65" d="M 4031 1759 
L 4031 1441 
L 1416 1441 
Q 1456 1047 1700 850 
Q 1944 653 2381 653 
Q 2734 653 3104 758 
Q 3475 863 3866 1075 
L 3866 213 
Q 3469 63 3072 -14 
Q 2675 -91 2278 -91 
Q 1328 -91 801 392 
Q 275 875 275 1747 
Q 275 2603 792 3093 
Q 1309 3584 2216 3584 
Q 3041 3584 3536 3087 
Q 4031 2591 4031 1759 
z
M 2881 2131 
Q 2881 2450 2695 2645 
Q 2509 2841 2209 2841 
Q 1884 2841 1681 2658 
Q 1478 2475 1428 2131 
L 2881 2131 
z
" transform="scale(0.015625)"/>
       <path id="DejaVuSans-Bold-20" transform="scale(0.015625)"/>
       <path id="DejaVuSans-Bold-5b" d="M 550 4863 
L 2491 4863 
L 2491 4159 
L 1613 4159 
L 1613 -141 
L 2491 -141 
L 2491 -844 
L 550 -844 
L 550 4863 
z
" transform="scale(0.015625)"/>
       <path id="DejaVuSans-Bold-68" d="M 4056 2131 
L 4056 0 
L 2931 0 
L 2931 347 
L 2931 1625 
Q 2931 2084 2911 2256 
Q 2891 2428 2841 2509 
Q 2775 2619 2662 2680 
Q 2550 2741 2406 2741 
Q 2056 2741 1856 2470 
Q 1656 2200 1656 1722 
L 1656 0 
L 538 0 
L 538 4863 
L 1656 4863 
L 1656 2988 
Q 1909 3294 2193 3439 
Q 2478 3584 2822 3584 
Q 3428 3584 3742 3212 
Q 4056 2841 4056 2131 
z
" transform="scale(0.015625)"/>
       <path id="DejaVuSans-Bold-72" d="M 3138 2547 
Q 2991 2616 2845 2648 
Q 2700 2681 2553 2681 
Q 2122 2681 1889 2404 
Q 1656 2128 1656 1613 
L 1656 0 
L 538 0 
L 538 3500 
L 1656 3500 
L 1656 2925 
Q 1872 3269 2151 3426 
Q 2431 3584 2822 3584 
Q 2878 3584 2943 3579 
Q 3009 3575 3134 3559 
L 3138 2547 
z
" transform="scale(0.015625)"/>
       <path id="DejaVuSans-Bold-5d" d="M 2375 -844 
L 434 -844 
L 434 -141 
L 1313 -141 
L 1313 4159 
L 434 4159 
L 434 4863 
L 2375 4863 
L 2375 -844 
z
" transform="scale(0.015625)"/>
      </defs>
      <use xlink:href="#DejaVuSans-Bold-74"/>
      <use xlink:href="#DejaVuSans-Bold-69" transform="translate(47.802734 0)"/>
      <use xlink:href="#DejaVuSans-Bold-6d" transform="translate(82.080078 0)"/>
      <use xlink:href="#DejaVuSans-Bold-65" transform="translate(186.279297 0)"/>
      <use xlink:href="#DejaVuSans-Bold-20" transform="translate(254.101562 0)"/>
      <use xlink:href="#DejaVuSans-Bold-5b" transform="translate(288.916016 0)"/>
      <use xlink:href="#DejaVuSans-Bold-68" transform="translate(334.619141 0)"/>
      <use xlink:href="#DejaVuSans-Bold-72" transform="translate(405.810547 0)"/>
      <use xlink:href="#DejaVuSans-Bold-5d" transform="translate(455.126953 0)"/>
     </g>
    </g>
   </g>
   <g id="matplotlib.axis_2">
    <g id="ytick_1">
     <g id="line2d_8">
      <defs>
       <path id="m48197115c5" d="M 0 0 
L -3.5 0 
" style="stroke: #000000; stroke-width: 0.8"/>
      </defs>
      <g>
       <use xlink:href="#m48197115c5" x="64.251875" y="349.884" style="stroke: #000000; stroke-width: 0.8"/>
      </g>
     </g>
     <g id="text_9">
      <!-- 0 -->
      <g transform="translate(47.708125 355.582828) scale(0.15 -0.15)">
       <use xlink:href="#DejaVuSans-30"/>
      </g>
     </g>
    </g>
    <g id="ytick_2">
     <g id="line2d_9">
      <g>
       <use xlink:href="#m48197115c5" x="64.251875" y="314.368191" style="stroke: #000000; stroke-width: 0.8"/>
      </g>
     </g>
     <g id="text_10">
      <!-- 25 -->
      <g transform="translate(38.164375 320.067019) scale(0.15 -0.15)">
       <defs>
        <path id="DejaVuSans-35" d="M 691 4666 
L 3169 4666 
L 3169 4134 
L 1269 4134 
L 1269 2991 
Q 1406 3038 1543 3061 
Q 1681 3084 1819 3084 
Q 2600 3084 3056 2656 
Q 3513 2228 3513 1497 
Q 3513 744 3044 326 
Q 2575 -91 1722 -91 
Q 1428 -91 1123 -41 
Q 819 9 494 109 
L 494 744 
Q 775 591 1075 516 
Q 1375 441 1709 441 
Q 2250 441 2565 725 
Q 2881 1009 2881 1497 
Q 2881 1984 2565 2268 
Q 2250 2553 1709 2553 
Q 1456 2553 1204 2497 
Q 953 2441 691 2322 
L 691 4666 
z
" transform="scale(0.015625)"/>
       </defs>
       <use xlink:href="#DejaVuSans-32"/>
       <use xlink:href="#DejaVuSans-35" transform="translate(63.623047 0)"/>
      </g>
     </g>
    </g>
    <g id="ytick_3">
     <g id="line2d_10">
      <g>
       <use xlink:href="#m48197115c5" x="64.251875" y="278.852381" style="stroke: #000000; stroke-width: 0.8"/>
      </g>
     </g>
     <g id="text_11">
      <!-- 50 -->
      <g transform="translate(38.164375 284.55121) scale(0.15 -0.15)">
       <use xlink:href="#DejaVuSans-35"/>
       <use xlink:href="#DejaVuSans-30" transform="translate(63.623047 0)"/>
      </g>
     </g>
    </g>
    <g id="ytick_4">
     <g id="line2d_11">
      <g>
       <use xlink:href="#m48197115c5" x="64.251875" y="243.336572" style="stroke: #000000; stroke-width: 0.8"/>
      </g>
     </g>
     <g id="text_12">
      <!-- 75 -->
      <g transform="translate(38.164375 249.0354) scale(0.15 -0.15)">
       <defs>
        <path id="DejaVuSans-37" d="M 525 4666 
L 3525 4666 
L 3525 4397 
L 1831 0 
L 1172 0 
L 2766 4134 
L 525 4134 
L 525 4666 
z
" transform="scale(0.015625)"/>
       </defs>
       <use xlink:href="#DejaVuSans-37"/>
       <use xlink:href="#DejaVuSans-35" transform="translate(63.623047 0)"/>
      </g>
     </g>
    </g>
    <g id="ytick_5">
     <g id="line2d_12">
      <g>
       <use xlink:href="#m48197115c5" x="64.251875" y="207.820763" style="stroke: #000000; stroke-width: 0.8"/>
      </g>
     </g>
     <g id="text_13">
      <!-- 100 -->
      <g transform="translate(28.620625 213.519591) scale(0.15 -0.15)">
       <defs>
        <path id="DejaVuSans-31" d="M 794 531 
L 1825 531 
L 1825 4091 
L 703 3866 
L 703 4441 
L 1819 4666 
L 2450 4666 
L 2450 531 
L 3481 531 
L 3481 0 
L 794 0 
L 794 531 
z
" transform="scale(0.015625)"/>
       </defs>
       <use xlink:href="#DejaVuSans-31"/>
       <use xlink:href="#DejaVuSans-30" transform="translate(63.623047 0)"/>
       <use xlink:href="#DejaVuSans-30" transform="translate(127.246094 0)"/>
      </g>
     </g>
    </g>
    <g id="ytick_6">
     <g id="line2d_13">
      <g>
       <use xlink:href="#m48197115c5" x="64.251875" y="172.304954" style="stroke: #000000; stroke-width: 0.8"/>
      </g>
     </g>
     <g id="text_14">
      <!-- 125 -->
      <g transform="translate(28.620625 178.003782) scale(0.15 -0.15)">
       <use xlink:href="#DejaVuSans-31"/>
       <use xlink:href="#DejaVuSans-32" transform="translate(63.623047 0)"/>
       <use xlink:href="#DejaVuSans-35" transform="translate(127.246094 0)"/>
      </g>
     </g>
    </g>
    <g id="ytick_7">
     <g id="line2d_14">
      <g>
       <use xlink:href="#m48197115c5" x="64.251875" y="136.789144" style="stroke: #000000; stroke-width: 0.8"/>
      </g>
     </g>
     <g id="text_15">
      <!-- 150 -->
      <g transform="translate(28.620625 142.487972) scale(0.15 -0.15)">
       <use xlink:href="#DejaVuSans-31"/>
       <use xlink:href="#DejaVuSans-35" transform="translate(63.623047 0)"/>
       <use xlink:href="#DejaVuSans-30" transform="translate(127.246094 0)"/>
      </g>
     </g>
    </g>
    <g id="ytick_8">
     <g id="line2d_15">
      <g>
       <use xlink:href="#m48197115c5" x="64.251875" y="101.273335" style="stroke: #000000; stroke-width: 0.8"/>
      </g>
     </g>
     <g id="text_16">
      <!-- 175 -->
      <g transform="translate(28.620625 106.972163) scale(0.15 -0.15)">
       <use xlink:href="#DejaVuSans-31"/>
       <use xlink:href="#DejaVuSans-37" transform="translate(63.623047 0)"/>
       <use xlink:href="#DejaVuSans-35" transform="translate(127.246094 0)"/>
      </g>
     </g>
    </g>
    <g id="ytick_9">
     <g id="line2d_16">
      <g>
       <use xlink:href="#m48197115c5" x="64.251875" y="65.757526" style="stroke: #000000; stroke-width: 0.8"/>
      </g>
     </g>
     <g id="text_17">
      <!-- 200 -->
      <g transform="translate(28.620625 71.456354) scale(0.15 -0.15)">
       <use xlink:href="#DejaVuSans-32"/>
       <use xlink:href="#DejaVuSans-30" transform="translate(63.623047 0)"/>
       <use xlink:href="#DejaVuSans-30" transform="translate(127.246094 0)"/>
      </g>
     </g>
    </g>
    <g id="text_18">
     <!-- apixaban plasma [nM] -->
     <g transform="translate(20.877187 318.911344) rotate(-90) scale(0.18 -0.18)">
      <defs>
       <path id="DejaVuSans-Bold-61" d="M 2106 1575 
Q 1756 1575 1579 1456 
Q 1403 1338 1403 1106 
Q 1403 894 1545 773 
Q 1688 653 1941 653 
Q 2256 653 2472 879 
Q 2688 1106 2688 1447 
L 2688 1575 
L 2106 1575 
z
M 3816 1997 
L 3816 0 
L 2688 0 
L 2688 519 
Q 2463 200 2181 54 
Q 1900 -91 1497 -91 
Q 953 -91 614 226 
Q 275 544 275 1050 
Q 275 1666 698 1953 
Q 1122 2241 2028 2241 
L 2688 2241 
L 2688 2328 
Q 2688 2594 2478 2717 
Q 2269 2841 1825 2841 
Q 1466 2841 1156 2769 
Q 847 2697 581 2553 
L 581 3406 
Q 941 3494 1303 3539 
Q 1666 3584 2028 3584 
Q 2975 3584 3395 3211 
Q 3816 2838 3816 1997 
z
" transform="scale(0.015625)"/>
       <path id="DejaVuSans-Bold-70" d="M 1656 506 
L 1656 -1331 
L 538 -1331 
L 538 3500 
L 1656 3500 
L 1656 2988 
Q 1888 3294 2169 3439 
Q 2450 3584 2816 3584 
Q 3463 3584 3878 3070 
Q 4294 2556 4294 1747 
Q 4294 938 3878 423 
Q 3463 -91 2816 -91 
Q 2450 -91 2169 54 
Q 1888 200 1656 506 
z
M 2400 2772 
Q 2041 2772 1848 2508 
Q 1656 2244 1656 1747 
Q 1656 1250 1848 986 
Q 2041 722 2400 722 
Q 2759 722 2948 984 
Q 3138 1247 3138 1747 
Q 3138 2247 2948 2509 
Q 2759 2772 2400 2772 
z
" transform="scale(0.015625)"/>
       <path id="DejaVuSans-Bold-78" d="M 1422 1791 
L 159 3500 
L 1344 3500 
L 2059 2463 
L 2784 3500 
L 3969 3500 
L 2706 1797 
L 4031 0 
L 2847 0 
L 2059 1106 
L 1281 0 
L 97 0 
L 1422 1791 
z
" transform="scale(0.015625)"/>
       <path id="DejaVuSans-Bold-62" d="M 2400 722 
Q 2759 722 2948 984 
Q 3138 1247 3138 1747 
Q 3138 2247 2948 2509 
Q 2759 2772 2400 2772 
Q 2041 2772 1848 2508 
Q 1656 2244 1656 1747 
Q 1656 1250 1848 986 
Q 2041 722 2400 722 
z
M 1656 2988 
Q 1888 3294 2169 3439 
Q 2450 3584 2816 3584 
Q 3463 3584 3878 3070 
Q 4294 2556 4294 1747 
Q 4294 938 3878 423 
Q 3463 -91 2816 -91 
Q 2450 -91 2169 54 
Q 1888 200 1656 506 
L 1656 0 
L 538 0 
L 538 4863 
L 1656 4863 
L 1656 2988 
z
" transform="scale(0.015625)"/>
       <path id="DejaVuSans-Bold-6e" d="M 4056 2131 
L 4056 0 
L 2931 0 
L 2931 347 
L 2931 1631 
Q 2931 2084 2911 2256 
Q 2891 2428 2841 2509 
Q 2775 2619 2662 2680 
Q 2550 2741 2406 2741 
Q 2056 2741 1856 2470 
Q 1656 2200 1656 1722 
L 1656 0 
L 538 0 
L 538 3500 
L 1656 3500 
L 1656 2988 
Q 1909 3294 2193 3439 
Q 2478 3584 2822 3584 
Q 3428 3584 3742 3212 
Q 4056 2841 4056 2131 
z
" transform="scale(0.015625)"/>
       <path id="DejaVuSans-Bold-6c" d="M 538 4863 
L 1656 4863 
L 1656 0 
L 538 0 
L 538 4863 
z
" transform="scale(0.015625)"/>
       <path id="DejaVuSans-Bold-73" d="M 3272 3391 
L 3272 2541 
Q 2913 2691 2578 2766 
Q 2244 2841 1947 2841 
Q 1628 2841 1473 2761 
Q 1319 2681 1319 2516 
Q 1319 2381 1436 2309 
Q 1553 2238 1856 2203 
L 2053 2175 
Q 2913 2066 3209 1816 
Q 3506 1566 3506 1031 
Q 3506 472 3093 190 
Q 2681 -91 1863 -91 
Q 1516 -91 1145 -36 
Q 775 19 384 128 
L 384 978 
Q 719 816 1070 734 
Q 1422 653 1784 653 
Q 2113 653 2278 743 
Q 2444 834 2444 1013 
Q 2444 1163 2330 1236 
Q 2216 1309 1875 1350 
L 1678 1375 
Q 931 1469 631 1722 
Q 331 1975 331 2491 
Q 331 3047 712 3315 
Q 1094 3584 1881 3584 
Q 2191 3584 2531 3537 
Q 2872 3491 3272 3391 
z
" transform="scale(0.015625)"/>
       <path id="DejaVuSans-Bold-4d" d="M 588 4666 
L 2119 4666 
L 3181 2169 
L 4250 4666 
L 5778 4666 
L 5778 0 
L 4641 0 
L 4641 3413 
L 3566 897 
L 2803 897 
L 1728 3413 
L 1728 0 
L 588 0 
L 588 4666 
z
" transform="scale(0.015625)"/>
      </defs>
      <use xlink:href="#DejaVuSans-Bold-61"/>
      <use xlink:href="#DejaVuSans-Bold-70" transform="translate(67.480469 0)"/>
      <use xlink:href="#DejaVuSans-Bold-69" transform="translate(139.0625 0)"/>
      <use xlink:href="#DejaVuSans-Bold-78" transform="translate(173.339844 0)"/>
      <use xlink:href="#DejaVuSans-Bold-61" transform="translate(237.841797 0)"/>
      <use xlink:href="#DejaVuSans-Bold-62" transform="translate(305.322266 0)"/>
      <use xlink:href="#DejaVuSans-Bold-61" transform="translate(376.904297 0)"/>
      <use xlink:href="#DejaVuSans-Bold-6e" transform="translate(444.384766 0)"/>
      <use xlink:href="#DejaVuSans-Bold-20" transform="translate(515.576172 0)"/>
      <use xlink:href="#DejaVuSans-Bold-70" transform="translate(550.390625 0)"/>
      <use xlink:href="#DejaVuSans-Bold-6c" transform="translate(621.972656 0)"/>
      <use xlink:href="#DejaVuSans-Bold-61" transform="translate(656.25 0)"/>
      <use xlink:href="#DejaVuSans-Bold-73" transform="translate(723.730469 0)"/>
      <use xlink:href="#DejaVuSans-Bold-6d" transform="translate(783.251953 0)"/>
      <use xlink:href="#DejaVuSans-Bold-61" transform="translate(887.451172 0)"/>
      <use xlink:href="#DejaVuSans-Bold-20" transform="translate(954.931641 0)"/>
      <use xlink:href="#DejaVuSans-Bold-5b" transform="translate(989.746094 0)"/>
      <use xlink:href="#DejaVuSans-Bold-6e" transform="translate(1035.449219 0)"/>
      <use xlink:href="#DejaVuSans-Bold-4d" transform="translate(1106.640625 0)"/>
      <use xlink:href="#DejaVuSans-Bold-5d" transform="translate(1206.152344 0)"/>
     </g>
    </g>
   </g>
   <g id="LineCollection_1">
    <path clip-path="url(#pe02ae3ba9e)" style="fill: none; stroke: #800080"/>
    <path clip-path="url(#pe02ae3ba9e)" style="fill: none; stroke: #800080"/>
    <path clip-path="url(#pe02ae3ba9e)" style="fill: none; stroke: #800080"/>
    <path clip-path="url(#pe02ae3ba9e)" style="fill: none; stroke: #800080"/>
    <path clip-path="url(#pe02ae3ba9e)" style="fill: none; stroke: #800080"/>
    <path clip-path="url(#pe02ae3ba9e)" style="fill: none; stroke: #800080"/>
    <path clip-path="url(#pe02ae3ba9e)" style="fill: none; stroke: #800080"/>
    <path clip-path="url(#pe02ae3ba9e)" style="fill: none; stroke: #800080"/>
    <path clip-path="url(#pe02ae3ba9e)" style="fill: none; stroke: #800080"/>
    <path clip-path="url(#pe02ae3ba9e)" style="fill: none; stroke: #800080"/>
    <path clip-path="url(#pe02ae3ba9e)" style="fill: none; stroke: #800080"/>
    <path clip-path="url(#pe02ae3ba9e)" style="fill: none; stroke: #800080"/>
    <path clip-path="url(#pe02ae3ba9e)" style="fill: none; stroke: #800080"/>
    <path clip-path="url(#pe02ae3ba9e)" style="fill: none; stroke: #800080"/>
    <path clip-path="url(#pe02ae3ba9e)" style="fill: none; stroke: #800080"/>
    <path clip-path="url(#pe02ae3ba9e)" style="fill: none; stroke: #800080"/>
    <path clip-path="url(#pe02ae3ba9e)" style="fill: none; stroke: #800080"/>
    <path clip-path="url(#pe02ae3ba9e)" style="fill: none; stroke: #800080"/>
    <path clip-path="url(#pe02ae3ba9e)" style="fill: none; stroke: #800080"/>
   </g>
   <g id="line2d_17">
    <path d="M 81.242975 349.884 
L 81.306198 349.801873 
L 81.432643 348.835201 
L 81.717145 343.959574 
L 82.633874 322.049409 
L 83.70866 299.104128 
L 84.688612 282.798554 
L 85.605341 271.040571 
L 86.490459 262.378303 
L 87.343965 256.125401 
L 88.134249 251.885227 
L 88.86131 249.101867 
L 89.525148 247.36306 
L 90.125764 246.362177 
L 90.663157 245.87066 
L 91.137327 245.717951 
L 91.611497 245.800543 
L 92.117279 246.120365 
L 92.717895 246.774281 
L 93.444956 247.90884 
L 94.361685 249.78217 
L 95.499693 252.643292 
L 97.017038 257.108756 
L 99.261444 264.488878 
L 106.121107 287.435059 
L 108.744848 295.237957 
L 111.178922 301.791751 
L 112.917547 305.993688 
L 113.012381 305.69165 
L 113.202049 303.860618 
L 113.644608 296.722181 
L 115.193564 270.782438 
L 116.110293 259.413856 
L 116.963799 251.373938 
L 117.785694 245.600002 
L 118.544367 241.724355 
L 119.239816 239.218985 
L 119.872043 237.691357 
L 120.441048 236.849043 
L 120.946829 236.473838 
L 121.389388 236.402854 
L 121.863558 236.565842 
L 122.400951 237.017473 
L 123.033178 237.867242 
L 123.823462 239.341457 
L 124.803414 241.686659 
L 126.036256 245.2546 
L 127.711658 250.845591 
L 130.430234 260.812918 
L 135.361604 278.871915 
L 138.08018 287.934924 
L 140.545865 295.397349 
L 142.885105 301.783444 
L 144.528895 305.805788 
L 144.623729 305.506822 
L 144.813398 303.681782 
L 145.255956 296.556583 
L 146.804912 270.655918 
L 147.721642 259.305968 
L 148.575148 251.280921 
L 149.397043 245.519365 
L 150.155715 241.653678 
L 150.851165 239.156354 
L 151.483392 237.635242 
L 152.052396 236.798211 
L 152.558178 236.427283 
L 153.000737 236.359745 
L 153.474907 236.526142 
L 154.0123 236.981313 
L 154.644527 237.834845 
L 155.434811 239.313216 
L 156.414763 241.66284 
L 157.647605 245.235375 
L 159.323007 250.831222 
L 162.041583 260.803958 
L 166.972953 278.868112 
L 169.691529 287.932553 
L 172.157214 295.395804 
L 174.496454 301.782415 
L 176.140244 305.805015 
L 176.235078 305.506061 
L 176.424746 303.681046 
L 176.867305 296.555901 
L 178.416261 270.655397 
L 179.33299 259.305524 
L 180.186497 251.280538 
L 181.008392 245.519033 
L 181.767064 241.653387 
L 182.462514 239.156096 
L 183.094741 237.635011 
L 183.663745 236.798002 
L 184.169527 236.427091 
L 184.612086 236.359568 
L 185.086256 236.525979 
L 185.623649 236.981164 
L 186.255876 237.834711 
L 187.04616 239.3131 
L 188.026111 241.662742 
L 189.258954 245.235296 
L 190.934355 250.831163 
L 193.652931 260.803922 
L 198.584302 278.868096 
L 201.302878 287.932543 
L 203.768563 295.395798 
L 206.107803 301.78241 
L 207.751593 305.805012 
L 207.846427 305.506058 
L 208.036095 303.681043 
L 208.478654 296.555899 
L 210.02761 270.655395 
L 210.944339 259.305522 
L 211.797846 251.280537 
L 212.619741 245.519032 
L 213.378413 241.653386 
L 214.073863 239.156095 
L 214.70609 237.63501 
L 215.275094 236.798001 
L 215.780876 236.42709 
L 216.223435 236.359567 
L 216.697605 236.525978 
L 217.234998 236.981163 
L 217.867225 237.834711 
L 218.657508 239.3131 
L 219.63746 241.662742 
L 220.870303 245.235296 
L 222.545704 250.831163 
L 225.26428 260.803921 
L 230.195651 278.868096 
L 232.914227 287.932543 
L 235.379912 295.395798 
L 237.719152 301.78241 
L 239.362942 305.805012 
L 239.457776 305.506058 
L 239.647444 303.681043 
L 240.090003 296.555899 
L 241.638959 270.655395 
L 242.555688 259.305522 
L 243.409195 251.280537 
L 244.23109 245.519032 
L 244.989762 241.653386 
L 245.685212 239.156095 
L 246.317439 237.63501 
L 246.886443 236.798001 
L 247.392224 236.42709 
L 247.834783 236.359567 
L 248.308954 236.525978 
L 248.846347 236.981163 
L 249.478574 237.834711 
L 250.268857 239.3131 
L 251.248809 241.662742 
L 252.481652 245.235296 
L 254.157053 250.831163 
L 256.875629 260.803921 
L 261.807 278.868096 
L 264.525576 287.932543 
L 266.991261 295.395798 
L 269.330501 301.78241 
L 270.974291 305.805012 
L 271.069125 305.506058 
L 271.258793 303.681043 
L 271.701352 296.555899 
L 273.250308 270.655395 
L 274.167037 259.305522 
L 275.020543 251.280537 
L 275.842438 245.519032 
L 276.601111 241.653386 
L 277.29656 239.156095 
L 277.928787 237.63501 
L 278.497792 236.798001 
L 279.003573 236.42709 
L 279.446132 236.359567 
L 279.920302 236.525978 
L 280.457695 236.981163 
L 281.089922 237.834711 
L 281.880206 239.3131 
L 282.860158 241.662742 
L 284.093 245.235296 
L 285.768402 250.831163 
L 288.486978 260.803921 
L 293.418348 278.868096 
L 296.136924 287.932543 
L 298.60261 295.395798 
L 300.941849 301.78241 
L 302.522417 305.72211 
L 302.522417 305.72211 
L 302.640959 305.692962 
L 302.878045 303.579922 
L 303.470757 293.690612 
L 304.774725 271.893679 
L 305.723066 259.905927 
L 306.552864 251.93096 
L 307.382662 245.949253 
L 308.093917 242.174401 
L 308.805172 239.467804 
L 309.397885 237.920184 
L 309.990598 236.934022 
L 310.464768 236.503027 
L 310.938938 236.355585 
L 311.413109 236.462624 
L 311.887279 236.797548 
L 312.479992 237.499815 
L 313.191247 238.70244 
L 314.139588 240.810809 
L 315.325013 244.075314 
L 316.866066 249.047596 
L 319.236918 257.584645 
L 325.519673 280.562032 
L 328.127609 289.129226 
L 330.617003 296.544305 
L 332.987854 302.895514 
L 335.240163 308.306011 
L 337.492472 313.144728 
L 339.74478 317.454753 
L 341.997089 321.282319 
L 344.249397 324.673735 
L 346.501706 327.673543 
L 348.872557 330.454027 
L 351.243408 332.8916 
L 353.732802 335.126282 
L 356.222196 337.06951 
L 358.830132 338.833095 
L 361.675153 340.482604 
L 364.638717 341.940414 
L 367.839366 343.26259 
L 371.277101 344.438991 
L 375.070462 345.496316 
L 379.219452 346.419314 
L 383.961154 347.239003 
L 389.295569 347.931813 
L 395.578325 348.518913 
L 403.165049 348.997764 
L 412.766996 349.371019 
L 421.064975 349.564186 
L 421.064975 349.564186 
" clip-path="url(#pe02ae3ba9e)" style="fill: none; stroke: #800080; stroke-width: 2; stroke-linecap: square"/>
   </g>
   <g id="line2d_18">
    <path d="M 272.228208 293.336957 
L 273.545347 205.44016 
L 276.179626 139.494375 
L 278.813905 62.604 
L 281.448184 66.190362 
L 284.082463 73.486755 
L 286.716742 91.727737 
L 291.985301 117.326944 
L 302.522417 135.567926 
L 305.156696 172.080806 
L 307.790975 237.810173 
L 310.425254 201.142709 
L 313.059533 135.196923 
L 315.693812 120.511387 
L 318.328091 120.48047 
L 323.596649 127.745946 
L 334.133766 186.117087 
L 365.745115 324.90313 
L 397.356463 333.961787 
" clip-path="url(#pe02ae3ba9e)" style="fill: none; stroke-dasharray: 3.7,1.6; stroke-dashoffset: 0; stroke: #800080"/>
    <defs>
     <path id="m57a5281d5f" d="M -3 3 
L 3 3 
L 3 -3 
L -3 -3 
z
" style="stroke: #000000; stroke-linejoin: miter"/>
    </defs>
    <g clip-path="url(#pe02ae3ba9e)">
     <use xlink:href="#m57a5281d5f" x="272.228208" y="293.336957" style="fill: #800080; stroke: #000000; stroke-linejoin: miter"/>
     <use xlink:href="#m57a5281d5f" x="273.545347" y="205.44016" style="fill: #800080; stroke: #000000; stroke-linejoin: miter"/>
     <use xlink:href="#m57a5281d5f" x="276.179626" y="139.494375" style="fill: #800080; stroke: #000000; stroke-linejoin: miter"/>
     <use xlink:href="#m57a5281d5f" x="278.813905" y="62.604" style="fill: #800080; stroke: #000000; stroke-linejoin: miter"/>
     <use xlink:href="#m57a5281d5f" x="281.448184" y="66.190362" style="fill: #800080; stroke: #000000; stroke-linejoin: miter"/>
     <use xlink:href="#m57a5281d5f" x="284.082463" y="73.486755" style="fill: #800080; stroke: #000000; stroke-linejoin: miter"/>
     <use xlink:href="#m57a5281d5f" x="286.716742" y="91.727737" style="fill: #800080; stroke: #000000; stroke-linejoin: miter"/>
     <use xlink:href="#m57a5281d5f" x="291.985301" y="117.326944" style="fill: #800080; stroke: #000000; stroke-linejoin: miter"/>
     <use xlink:href="#m57a5281d5f" x="302.522417" y="135.567926" style="fill: #800080; stroke: #000000; stroke-linejoin: miter"/>
     <use xlink:href="#m57a5281d5f" x="305.156696" y="172.080806" style="fill: #800080; stroke: #000000; stroke-linejoin: miter"/>
     <use xlink:href="#m57a5281d5f" x="307.790975" y="237.810173" style="fill: #800080; stroke: #000000; stroke-linejoin: miter"/>
     <use xlink:href="#m57a5281d5f" x="310.425254" y="201.142709" style="fill: #800080; stroke: #000000; stroke-linejoin: miter"/>
     <use xlink:href="#m57a5281d5f" x="313.059533" y="135.196923" style="fill: #800080; stroke: #000000; stroke-linejoin: miter"/>
     <use xlink:href="#m57a5281d5f" x="315.693812" y="120.511387" style="fill: #800080; stroke: #000000; stroke-linejoin: miter"/>
     <use xlink:href="#m57a5281d5f" x="318.328091" y="120.48047" style="fill: #800080; stroke: #000000; stroke-linejoin: miter"/>
     <use xlink:href="#m57a5281d5f" x="323.596649" y="127.745946" style="fill: #800080; stroke: #000000; stroke-linejoin: miter"/>
     <use xlink:href="#m57a5281d5f" x="334.133766" y="186.117087" style="fill: #800080; stroke: #000000; stroke-linejoin: miter"/>
     <use xlink:href="#m57a5281d5f" x="365.745115" y="324.90313" style="fill: #800080; stroke: #000000; stroke-linejoin: miter"/>
     <use xlink:href="#m57a5281d5f" x="397.356463" y="333.961787" style="fill: #800080; stroke: #000000; stroke-linejoin: miter"/>
    </g>
   </g>
   <g id="patch_3">
    <path d="M 64.251875 364.248 
L 64.251875 48.24 
" style="fill: none; stroke: #000000; stroke-width: 0.8; stroke-linejoin: miter; stroke-linecap: square"/>
   </g>
   <g id="patch_4">
    <path d="M 438.056075 364.248 
L 438.056075 48.24 
" style="fill: none; stroke: #000000; stroke-width: 0.8; stroke-linejoin: miter; stroke-linecap: square"/>
   </g>
   <g id="patch_5">
    <path d="M 64.251875 364.248 
L 438.056075 364.248 
" style="fill: none; stroke: #000000; stroke-width: 0.8; stroke-linejoin: miter; stroke-linecap: square"/>
   </g>
   <g id="patch_6">
    <path d="M 64.251875 48.24 
L 438.056075 48.24 
" style="fill: none; stroke: #000000; stroke-width: 0.8; stroke-linejoin: miter; stroke-linecap: square"/>
   </g>
   <g id="legend_1">
    <g id="patch_7">
     <path d="M 70.901875 83.728437 
L 271.093594 83.728437 
Q 272.993594 83.728437 272.993594 81.828437 
L 272.993594 54.89 
Q 272.993594 52.99 271.093594 52.99 
L 70.901875 52.99 
Q 69.001875 52.99 69.001875 54.89 
L 69.001875 81.828437 
Q 69.001875 83.728437 70.901875 83.728437 
z
" style="fill: #ffffff; opacity: 0.8; stroke: #cccccc; stroke-linejoin: miter"/>
    </g>
    <g id="line2d_19">
     <path d="M 72.801875 60.683516 
L 91.801875 60.683516 
" style="fill: none; stroke: #800080; stroke-width: 2; stroke-linecap: square"/>
    </g>
    <g id="line2d_20"/>
    <g id="text_19">
     <!-- sim multiple: 2.5mg PO -->
     <g transform="translate(99.401875 64.008516) scale(0.095 -0.095)">
      <defs>
       <path id="DejaVuSans-73" d="M 2834 3397 
L 2834 2853 
Q 2591 2978 2328 3040 
Q 2066 3103 1784 3103 
Q 1356 3103 1142 2972 
Q 928 2841 928 2578 
Q 928 2378 1081 2264 
Q 1234 2150 1697 2047 
L 1894 2003 
Q 2506 1872 2764 1633 
Q 3022 1394 3022 966 
Q 3022 478 2636 193 
Q 2250 -91 1575 -91 
Q 1294 -91 989 -36 
Q 684 19 347 128 
L 347 722 
Q 666 556 975 473 
Q 1284 391 1588 391 
Q 1994 391 2212 530 
Q 2431 669 2431 922 
Q 2431 1156 2273 1281 
Q 2116 1406 1581 1522 
L 1381 1569 
Q 847 1681 609 1914 
Q 372 2147 372 2553 
Q 372 3047 722 3315 
Q 1072 3584 1716 3584 
Q 2034 3584 2315 3537 
Q 2597 3491 2834 3397 
z
" transform="scale(0.015625)"/>
       <path id="DejaVuSans-69" d="M 603 3500 
L 1178 3500 
L 1178 0 
L 603 0 
L 603 3500 
z
M 603 4863 
L 1178 4863 
L 1178 4134 
L 603 4134 
L 603 4863 
z
" transform="scale(0.015625)"/>
       <path id="DejaVuSans-6d" d="M 3328 2828 
Q 3544 3216 3844 3400 
Q 4144 3584 4550 3584 
Q 5097 3584 5394 3201 
Q 5691 2819 5691 2113 
L 5691 0 
L 5113 0 
L 5113 2094 
Q 5113 2597 4934 2840 
Q 4756 3084 4391 3084 
Q 3944 3084 3684 2787 
Q 3425 2491 3425 1978 
L 3425 0 
L 2847 0 
L 2847 2094 
Q 2847 2600 2669 2842 
Q 2491 3084 2119 3084 
Q 1678 3084 1418 2786 
Q 1159 2488 1159 1978 
L 1159 0 
L 581 0 
L 581 3500 
L 1159 3500 
L 1159 2956 
Q 1356 3278 1631 3431 
Q 1906 3584 2284 3584 
Q 2666 3584 2933 3390 
Q 3200 3197 3328 2828 
z
" transform="scale(0.015625)"/>
       <path id="DejaVuSans-20" transform="scale(0.015625)"/>
       <path id="DejaVuSans-75" d="M 544 1381 
L 544 3500 
L 1119 3500 
L 1119 1403 
Q 1119 906 1312 657 
Q 1506 409 1894 409 
Q 2359 409 2629 706 
Q 2900 1003 2900 1516 
L 2900 3500 
L 3475 3500 
L 3475 0 
L 2900 0 
L 2900 538 
Q 2691 219 2414 64 
Q 2138 -91 1772 -91 
Q 1169 -91 856 284 
Q 544 659 544 1381 
z
M 1991 3584 
L 1991 3584 
z
" transform="scale(0.015625)"/>
       <path id="DejaVuSans-6c" d="M 603 4863 
L 1178 4863 
L 1178 0 
L 603 0 
L 603 4863 
z
" transform="scale(0.015625)"/>
       <path id="DejaVuSans-74" d="M 1172 4494 
L 1172 3500 
L 2356 3500 
L 2356 3053 
L 1172 3053 
L 1172 1153 
Q 1172 725 1289 603 
Q 1406 481 1766 481 
L 2356 481 
L 2356 0 
L 1766 0 
Q 1100 0 847 248 
Q 594 497 594 1153 
L 594 3053 
L 172 3053 
L 172 3500 
L 594 3500 
L 594 4494 
L 1172 4494 
z
" transform="scale(0.015625)"/>
       <path id="DejaVuSans-70" d="M 1159 525 
L 1159 -1331 
L 581 -1331 
L 581 3500 
L 1159 3500 
L 1159 2969 
Q 1341 3281 1617 3432 
Q 1894 3584 2278 3584 
Q 2916 3584 3314 3078 
Q 3713 2572 3713 1747 
Q 3713 922 3314 415 
Q 2916 -91 2278 -91 
Q 1894 -91 1617 61 
Q 1341 213 1159 525 
z
M 3116 1747 
Q 3116 2381 2855 2742 
Q 2594 3103 2138 3103 
Q 1681 3103 1420 2742 
Q 1159 2381 1159 1747 
Q 1159 1113 1420 752 
Q 1681 391 2138 391 
Q 2594 391 2855 752 
Q 3116 1113 3116 1747 
z
" transform="scale(0.015625)"/>
       <path id="DejaVuSans-65" d="M 3597 1894 
L 3597 1613 
L 953 1613 
Q 991 1019 1311 708 
Q 1631 397 2203 397 
Q 2534 397 2845 478 
Q 3156 559 3463 722 
L 3463 178 
Q 3153 47 2828 -22 
Q 2503 -91 2169 -91 
Q 1331 -91 842 396 
Q 353 884 353 1716 
Q 353 2575 817 3079 
Q 1281 3584 2069 3584 
Q 2775 3584 3186 3129 
Q 3597 2675 3597 1894 
z
M 3022 2063 
Q 3016 2534 2758 2815 
Q 2500 3097 2075 3097 
Q 1594 3097 1305 2825 
Q 1016 2553 972 2059 
L 3022 2063 
z
" transform="scale(0.015625)"/>
       <path id="DejaVuSans-3a" d="M 750 794 
L 1409 794 
L 1409 0 
L 750 0 
L 750 794 
z
M 750 3309 
L 1409 3309 
L 1409 2516 
L 750 2516 
L 750 3309 
z
" transform="scale(0.015625)"/>
       <path id="DejaVuSans-2e" d="M 684 794 
L 1344 794 
L 1344 0 
L 684 0 
L 684 794 
z
" transform="scale(0.015625)"/>
       <path id="DejaVuSans-67" d="M 2906 1791 
Q 2906 2416 2648 2759 
Q 2391 3103 1925 3103 
Q 1463 3103 1205 2759 
Q 947 2416 947 1791 
Q 947 1169 1205 825 
Q 1463 481 1925 481 
Q 2391 481 2648 825 
Q 2906 1169 2906 1791 
z
M 3481 434 
Q 3481 -459 3084 -895 
Q 2688 -1331 1869 -1331 
Q 1566 -1331 1297 -1286 
Q 1028 -1241 775 -1147 
L 775 -588 
Q 1028 -725 1275 -790 
Q 1522 -856 1778 -856 
Q 2344 -856 2625 -561 
Q 2906 -266 2906 331 
L 2906 616 
Q 2728 306 2450 153 
Q 2172 0 1784 0 
Q 1141 0 747 490 
Q 353 981 353 1791 
Q 353 2603 747 3093 
Q 1141 3584 1784 3584 
Q 2172 3584 2450 3431 
Q 2728 3278 2906 2969 
L 2906 3500 
L 3481 3500 
L 3481 434 
z
" transform="scale(0.015625)"/>
       <path id="DejaVuSans-50" d="M 1259 4147 
L 1259 2394 
L 2053 2394 
Q 2494 2394 2734 2622 
Q 2975 2850 2975 3272 
Q 2975 3691 2734 3919 
Q 2494 4147 2053 4147 
L 1259 4147 
z
M 628 4666 
L 2053 4666 
Q 2838 4666 3239 4311 
Q 3641 3956 3641 3272 
Q 3641 2581 3239 2228 
Q 2838 1875 2053 1875 
L 1259 1875 
L 1259 0 
L 628 0 
L 628 4666 
z
" transform="scale(0.015625)"/>
       <path id="DejaVuSans-4f" d="M 2522 4238 
Q 1834 4238 1429 3725 
Q 1025 3213 1025 2328 
Q 1025 1447 1429 934 
Q 1834 422 2522 422 
Q 3209 422 3611 934 
Q 4013 1447 4013 2328 
Q 4013 3213 3611 3725 
Q 3209 4238 2522 4238 
z
M 2522 4750 
Q 3503 4750 4090 4092 
Q 4678 3434 4678 2328 
Q 4678 1225 4090 567 
Q 3503 -91 2522 -91 
Q 1538 -91 948 565 
Q 359 1222 359 2328 
Q 359 3434 948 4092 
Q 1538 4750 2522 4750 
z
" transform="scale(0.015625)"/>
      </defs>
      <use xlink:href="#DejaVuSans-73"/>
      <use xlink:href="#DejaVuSans-69" transform="translate(52.099609 0)"/>
      <use xlink:href="#DejaVuSans-6d" transform="translate(79.882812 0)"/>
      <use xlink:href="#DejaVuSans-20" transform="translate(177.294922 0)"/>
      <use xlink:href="#DejaVuSans-6d" transform="translate(209.082031 0)"/>
      <use xlink:href="#DejaVuSans-75" transform="translate(306.494141 0)"/>
      <use xlink:href="#DejaVuSans-6c" transform="translate(369.873047 0)"/>
      <use xlink:href="#DejaVuSans-74" transform="translate(397.65625 0)"/>
      <use xlink:href="#DejaVuSans-69" transform="translate(436.865234 0)"/>
      <use xlink:href="#DejaVuSans-70" transform="translate(464.648438 0)"/>
      <use xlink:href="#DejaVuSans-6c" transform="translate(528.125 0)"/>
      <use xlink:href="#DejaVuSans-65" transform="translate(555.908203 0)"/>
      <use xlink:href="#DejaVuSans-3a" transform="translate(617.431641 0)"/>
      <use xlink:href="#DejaVuSans-20" transform="translate(651.123047 0)"/>
      <use xlink:href="#DejaVuSans-32" transform="translate(682.910156 0)"/>
      <use xlink:href="#DejaVuSans-2e" transform="translate(746.533203 0)"/>
      <use xlink:href="#DejaVuSans-35" transform="translate(778.320312 0)"/>
      <use xlink:href="#DejaVuSans-6d" transform="translate(841.943359 0)"/>
      <use xlink:href="#DejaVuSans-67" transform="translate(939.355469 0)"/>
      <use xlink:href="#DejaVuSans-20" transform="translate(1002.832031 0)"/>
      <use xlink:href="#DejaVuSans-50" transform="translate(1034.619141 0)"/>
      <use xlink:href="#DejaVuSans-4f" transform="translate(1094.921875 0)"/>
     </g>
    </g>
    <g id="LineCollection_2">
     <path d="M 82.301875 79.377734 
L 82.301875 69.877734 
" style="fill: none; stroke: #800080"/>
    </g>
    <g id="line2d_21">
     <path d="M 72.801875 74.627734 
L 91.801875 74.627734 
" style="fill: none; stroke-dasharray: 3.7,1.6; stroke-dashoffset: 0; stroke: #800080"/>
    </g>
    <g id="line2d_22">
     <g>
      <use xlink:href="#m57a5281d5f" x="82.301875" y="74.627734" style="fill: #800080; stroke: #000000; stroke-linejoin: miter"/>
     </g>
    </g>
    <g id="text_20">
     <!-- exp multiple: 2.5mg PO±SD (n=14) -->
     <g transform="translate(99.401875 77.952734) scale(0.095 -0.095)">
      <defs>
       <path id="DejaVuSans-78" d="M 3513 3500 
L 2247 1797 
L 3578 0 
L 2900 0 
L 1881 1375 
L 863 0 
L 184 0 
L 1544 1831 
L 300 3500 
L 978 3500 
L 1906 2253 
L 2834 3500 
L 3513 3500 
z
" transform="scale(0.015625)"/>
       <path id="DejaVuSans-b1" d="M 2944 4013 
L 2944 2803 
L 4684 2803 
L 4684 2272 
L 2944 2272 
L 2944 1063 
L 2419 1063 
L 2419 2272 
L 678 2272 
L 678 2803 
L 2419 2803 
L 2419 4013 
L 2944 4013 
z
M 678 531 
L 4684 531 
L 4684 0 
L 678 0 
L 678 531 
z
" transform="scale(0.015625)"/>
       <path id="DejaVuSans-53" d="M 3425 4513 
L 3425 3897 
Q 3066 4069 2747 4153 
Q 2428 4238 2131 4238 
Q 1616 4238 1336 4038 
Q 1056 3838 1056 3469 
Q 1056 3159 1242 3001 
Q 1428 2844 1947 2747 
L 2328 2669 
Q 3034 2534 3370 2195 
Q 3706 1856 3706 1288 
Q 3706 609 3251 259 
Q 2797 -91 1919 -91 
Q 1588 -91 1214 -16 
Q 841 59 441 206 
L 441 856 
Q 825 641 1194 531 
Q 1563 422 1919 422 
Q 2459 422 2753 634 
Q 3047 847 3047 1241 
Q 3047 1584 2836 1778 
Q 2625 1972 2144 2069 
L 1759 2144 
Q 1053 2284 737 2584 
Q 422 2884 422 3419 
Q 422 4038 858 4394 
Q 1294 4750 2059 4750 
Q 2388 4750 2728 4690 
Q 3069 4631 3425 4513 
z
" transform="scale(0.015625)"/>
       <path id="DejaVuSans-44" d="M 1259 4147 
L 1259 519 
L 2022 519 
Q 2988 519 3436 956 
Q 3884 1394 3884 2338 
Q 3884 3275 3436 3711 
Q 2988 4147 2022 4147 
L 1259 4147 
z
M 628 4666 
L 1925 4666 
Q 3281 4666 3915 4102 
Q 4550 3538 4550 2338 
Q 4550 1131 3912 565 
Q 3275 0 1925 0 
L 628 0 
L 628 4666 
z
" transform="scale(0.015625)"/>
       <path id="DejaVuSans-28" d="M 1984 4856 
Q 1566 4138 1362 3434 
Q 1159 2731 1159 2009 
Q 1159 1288 1364 580 
Q 1569 -128 1984 -844 
L 1484 -844 
Q 1016 -109 783 600 
Q 550 1309 550 2009 
Q 550 2706 781 3412 
Q 1013 4119 1484 4856 
L 1984 4856 
z
" transform="scale(0.015625)"/>
       <path id="DejaVuSans-6e" d="M 3513 2113 
L 3513 0 
L 2938 0 
L 2938 2094 
Q 2938 2591 2744 2837 
Q 2550 3084 2163 3084 
Q 1697 3084 1428 2787 
Q 1159 2491 1159 1978 
L 1159 0 
L 581 0 
L 581 3500 
L 1159 3500 
L 1159 2956 
Q 1366 3272 1645 3428 
Q 1925 3584 2291 3584 
Q 2894 3584 3203 3211 
Q 3513 2838 3513 2113 
z
" transform="scale(0.015625)"/>
       <path id="DejaVuSans-3d" d="M 678 2906 
L 4684 2906 
L 4684 2381 
L 678 2381 
L 678 2906 
z
M 678 1631 
L 4684 1631 
L 4684 1100 
L 678 1100 
L 678 1631 
z
" transform="scale(0.015625)"/>
       <path id="DejaVuSans-29" d="M 513 4856 
L 1013 4856 
Q 1481 4119 1714 3412 
Q 1947 2706 1947 2009 
Q 1947 1309 1714 600 
Q 1481 -109 1013 -844 
L 513 -844 
Q 928 -128 1133 580 
Q 1338 1288 1338 2009 
Q 1338 2731 1133 3434 
Q 928 4138 513 4856 
z
" transform="scale(0.015625)"/>
      </defs>
      <use xlink:href="#DejaVuSans-65"/>
      <use xlink:href="#DejaVuSans-78" transform="translate(59.773438 0)"/>
      <use xlink:href="#DejaVuSans-70" transform="translate(118.953125 0)"/>
      <use xlink:href="#DejaVuSans-20" transform="translate(182.429688 0)"/>
      <use xlink:href="#DejaVuSans-6d" transform="translate(214.216797 0)"/>
      <use xlink:href="#DejaVuSans-75" transform="translate(311.628906 0)"/>
      <use xlink:href="#DejaVuSans-6c" transform="translate(375.007812 0)"/>
      <use xlink:href="#DejaVuSans-74" transform="translate(402.791016 0)"/>
      <use xlink:href="#DejaVuSans-69" transform="translate(442 0)"/>
      <use xlink:href="#DejaVuSans-70" transform="translate(469.783203 0)"/>
      <use xlink:href="#DejaVuSans-6c" transform="translate(533.259766 0)"/>
      <use xlink:href="#DejaVuSans-65" transform="translate(561.042969 0)"/>
      <use xlink:href="#DejaVuSans-3a" transform="translate(622.566406 0)"/>
      <use xlink:href="#DejaVuSans-20" transform="translate(656.257812 0)"/>
      <use xlink:href="#DejaVuSans-32" transform="translate(688.044922 0)"/>
      <use xlink:href="#DejaVuSans-2e" transform="translate(751.667969 0)"/>
      <use xlink:href="#DejaVuSans-35" transform="translate(783.455078 0)"/>
      <use xlink:href="#DejaVuSans-6d" transform="translate(847.078125 0)"/>
      <use xlink:href="#DejaVuSans-67" transform="translate(944.490234 0)"/>
      <use xlink:href="#DejaVuSans-20" transform="translate(1007.966797 0)"/>
      <use xlink:href="#DejaVuSans-50" transform="translate(1039.753906 0)"/>
      <use xlink:href="#DejaVuSans-4f" transform="translate(1100.056641 0)"/>
      <use xlink:href="#DejaVuSans-b1" transform="translate(1178.767578 0)"/>
      <use xlink:href="#DejaVuSans-53" transform="translate(1262.556641 0)"/>
      <use xlink:href="#DejaVuSans-44" transform="translate(1326.033203 0)"/>
      <use xlink:href="#DejaVuSans-20" transform="translate(1403.035156 0)"/>
      <use xlink:href="#DejaVuSans-28" transform="translate(1434.822266 0)"/>
      <use xlink:href="#DejaVuSans-6e" transform="translate(1473.835938 0)"/>
      <use xlink:href="#DejaVuSans-3d" transform="translate(1537.214844 0)"/>
      <use xlink:href="#DejaVuSans-31" transform="translate(1621.003906 0)"/>
      <use xlink:href="#DejaVuSans-34" transform="translate(1684.626953 0)"/>
      <use xlink:href="#DejaVuSans-29" transform="translate(1748.25 0)"/>
     </g>
    </g>
   </g>
  </g>
  <g id="text_21">
   <!-- Frost2014 -->
   <g transform="translate(174.427609 26.196094) scale(0.25 -0.25)">
    <defs>
     <path id="DejaVuSans-Bold-46" d="M 588 4666 
L 3834 4666 
L 3834 3756 
L 1791 3756 
L 1791 2888 
L 3713 2888 
L 3713 1978 
L 1791 1978 
L 1791 0 
L 588 0 
L 588 4666 
z
" transform="scale(0.015625)"/>
     <path id="DejaVuSans-Bold-6f" d="M 2203 2784 
Q 1831 2784 1636 2517 
Q 1441 2250 1441 1747 
Q 1441 1244 1636 976 
Q 1831 709 2203 709 
Q 2569 709 2762 976 
Q 2956 1244 2956 1747 
Q 2956 2250 2762 2517 
Q 2569 2784 2203 2784 
z
M 2203 3584 
Q 3106 3584 3614 3096 
Q 4122 2609 4122 1747 
Q 4122 884 3614 396 
Q 3106 -91 2203 -91 
Q 1297 -91 786 396 
Q 275 884 275 1747 
Q 275 2609 786 3096 
Q 1297 3584 2203 3584 
z
" transform="scale(0.015625)"/>
     <path id="DejaVuSans-Bold-32" d="M 1844 884 
L 3897 884 
L 3897 0 
L 506 0 
L 506 884 
L 2209 2388 
Q 2438 2594 2547 2791 
Q 2656 2988 2656 3200 
Q 2656 3528 2436 3728 
Q 2216 3928 1850 3928 
Q 1569 3928 1234 3808 
Q 900 3688 519 3450 
L 519 4475 
Q 925 4609 1322 4679 
Q 1719 4750 2100 4750 
Q 2938 4750 3402 4381 
Q 3866 4013 3866 3353 
Q 3866 2972 3669 2642 
Q 3472 2313 2841 1759 
L 1844 884 
z
" transform="scale(0.015625)"/>
     <path id="DejaVuSans-Bold-30" d="M 2944 2338 
Q 2944 3213 2780 3570 
Q 2616 3928 2228 3928 
Q 1841 3928 1675 3570 
Q 1509 3213 1509 2338 
Q 1509 1453 1675 1090 
Q 1841 728 2228 728 
Q 2613 728 2778 1090 
Q 2944 1453 2944 2338 
z
M 4147 2328 
Q 4147 1169 3647 539 
Q 3147 -91 2228 -91 
Q 1306 -91 806 539 
Q 306 1169 306 2328 
Q 306 3491 806 4120 
Q 1306 4750 2228 4750 
Q 3147 4750 3647 4120 
Q 4147 3491 4147 2328 
z
" transform="scale(0.015625)"/>
     <path id="DejaVuSans-Bold-31" d="M 750 831 
L 1813 831 
L 1813 3847 
L 722 3622 
L 722 4441 
L 1806 4666 
L 2950 4666 
L 2950 831 
L 4013 831 
L 4013 0 
L 750 0 
L 750 831 
z
" transform="scale(0.015625)"/>
     <path id="DejaVuSans-Bold-34" d="M 2356 3675 
L 1038 1722 
L 2356 1722 
L 2356 3675 
z
M 2156 4666 
L 3494 4666 
L 3494 1722 
L 4159 1722 
L 4159 850 
L 3494 850 
L 3494 0 
L 2356 0 
L 2356 850 
L 288 850 
L 288 1881 
L 2156 4666 
z
" transform="scale(0.015625)"/>
    </defs>
    <use xlink:href="#DejaVuSans-Bold-46"/>
    <use xlink:href="#DejaVuSans-Bold-72" transform="translate(61.935547 0)"/>
    <use xlink:href="#DejaVuSans-Bold-6f" transform="translate(111.251953 0)"/>
    <use xlink:href="#DejaVuSans-Bold-73" transform="translate(179.953125 0)"/>
    <use xlink:href="#DejaVuSans-Bold-74" transform="translate(239.474609 0)"/>
    <use xlink:href="#DejaVuSans-Bold-32" transform="translate(287.277344 0)"/>
    <use xlink:href="#DejaVuSans-Bold-30" transform="translate(356.857422 0)"/>
    <use xlink:href="#DejaVuSans-Bold-31" transform="translate(426.4375 0)"/>
    <use xlink:href="#DejaVuSans-Bold-34" transform="translate(496.017578 0)"/>
   </g>
  </g>
 </g>
 <defs>
  <clipPath id="pe02ae3ba9e">
   <rect x="64.251875" y="48.24" width="373.8042" height="316.008"/>
  </clipPath>
 </defs>
</svg>
