<?xml version="1.0" encoding="utf-8" standalone="no"?>
<!DOCTYPE svg PUBLIC "-//W3C//DTD SVG 1.1//EN"
  "http://www.w3.org/Graphics/SVG/1.1/DTD/svg11.dtd">
<svg xmlns:xlink="http://www.w3.org/1999/xlink" width="440.620137pt" height="414.4055pt" viewBox="0 0 440.620137 414.4055" xmlns="http://www.w3.org/2000/svg" version="1.1">
 <metadata>
  <rdf:RDF xmlns:dc="http://purl.org/dc/elements/1.1/" xmlns:cc="http://creativecommons.org/ns#" xmlns:rdf="http://www.w3.org/1999/02/22-rdf-syntax-ns#">
   <cc:Work>
    <dc:type rdf:resource="http://purl.org/dc/dcmitype/StillImage"/>
    <dc:date>2026-03-19T14:06:09.400686</dc:date>
    <dc:format>image/svg+xml</dc:format>
    <dc:creator>
     <cc:Agent>
      <dc:title>Matplotlib v3.10.8, https://matplotlib.org/</dc:title>
     </cc:Agent>
    </dc:creator>
   </cc:Work>
  </rdf:RDF>
 </metadata>
 <defs>
  <style type="text/css">*{stroke-linejoin: round; stroke-linecap: butt}</style>
 </defs>
 <g id="figure_1">
  <g id="patch_1">
   <path d="M 0 414.4055 
L 440.620137 414.4055 
L 440.620137 0 
L 0 0 
z
" style="fill: #ffffff"/>
  </g>
  <g id="axes_1">
   <g id="patch_2">
    <path d="M 59.615938 364.248 
L 433.420138 364.248 
L 433.420138 48.24 
L 59.615938 48.24 
z
" style="fill: #ffffff"/>
   </g>
   <g id="matplotlib.axis_1">
    <g id="xtick_1">
     <g id="line2d_1">
      <defs>
       <path id="m975170f44f" d="M 0 0 
L 0 3.5 
" style="stroke: #000000; stroke-width: 0.8"/>
      </defs>
      <g>
       <use xlink:href="#m975170f44f" x="76.607038" y="364.248" style="stroke: #000000; stroke-width: 0.8"/>
      </g>
     </g>
     <g id="text_1">
      <!-- 0.0 -->
      <g transform="translate(64.679694 382.645656) scale(0.15 -0.15)">
       <defs>
        <path id="DejaVuSans-30" d="M 2034 4250 
Q 1547 4250 1301 3770 
Q 1056 3291 1056 2328 
Q 1056 1369 1301 889 
Q 1547 409 2034 409 
Q 2525 409 2770 889 
Q 3016 1369 3016 2328 
Q 3016 3291 2770 3770 
Q 2525 4250 2034 4250 
z
M 2034 4750 
Q 2819 4750 3233 4129 
Q 3647 3509 3647 2328 
Q 3647 1150 3233 529 
Q 2819 -91 2034 -91 
Q 1250 -91 836 529 
Q 422 1150 422 2328 
Q 422 3509 836 4129 
Q 1250 4750 2034 4750 
z
" transform="scale(0.015625)"/>
        <path id="DejaVuSans-2e" d="M 684 794 
L 1344 794 
L 1344 0 
L 684 0 
L 684 794 
z
" transform="scale(0.015625)"/>
       </defs>
       <use xlink:href="#DejaVuSans-30"/>
       <use xlink:href="#DejaVuSans-2e" transform="translate(63.623047 0)"/>
       <use xlink:href="#DejaVuSans-30" transform="translate(95.410156 0)"/>
      </g>
     </g>
    </g>
    <g id="xtick_2">
     <g id="line2d_2">
      <g>
       <use xlink:href="#m975170f44f" x="168.970958" y="364.248" style="stroke: #000000; stroke-width: 0.8"/>
      </g>
     </g>
     <g id="text_2">
      <!-- 0.1 -->
      <g transform="translate(157.043614 382.645656) scale(0.15 -0.15)">
       <defs>
        <path id="DejaVuSans-31" d="M 794 531 
L 1825 531 
L 1825 4091 
L 703 3866 
L 703 4441 
L 1819 4666 
L 2450 4666 
L 2450 531 
L 3481 531 
L 3481 0 
L 794 0 
L 794 531 
z
" transform="scale(0.015625)"/>
       </defs>
       <use xlink:href="#DejaVuSans-30"/>
       <use xlink:href="#DejaVuSans-2e" transform="translate(63.623047 0)"/>
       <use xlink:href="#DejaVuSans-31" transform="translate(95.410156 0)"/>
      </g>
     </g>
    </g>
    <g id="xtick_3">
     <g id="line2d_3">
      <g>
       <use xlink:href="#m975170f44f" x="261.334879" y="364.248" style="stroke: #000000; stroke-width: 0.8"/>
      </g>
     </g>
     <g id="text_3">
      <!-- 0.2 -->
      <g transform="translate(249.407535 382.645656) scale(0.15 -0.15)">
       <defs>
        <path id="DejaVuSans-32" d="M 1228 531 
L 3431 531 
L 3431 0 
L 469 0 
L 469 531 
Q 828 903 1448 1529 
Q 2069 2156 2228 2338 
Q 2531 2678 2651 2914 
Q 2772 3150 2772 3378 
Q 2772 3750 2511 3984 
Q 2250 4219 1831 4219 
Q 1534 4219 1204 4116 
Q 875 4013 500 3803 
L 500 4441 
Q 881 4594 1212 4672 
Q 1544 4750 1819 4750 
Q 2544 4750 2975 4387 
Q 3406 4025 3406 3419 
Q 3406 3131 3298 2873 
Q 3191 2616 2906 2266 
Q 2828 2175 2409 1742 
Q 1991 1309 1228 531 
z
" transform="scale(0.015625)"/>
       </defs>
       <use xlink:href="#DejaVuSans-30"/>
       <use xlink:href="#DejaVuSans-2e" transform="translate(63.623047 0)"/>
       <use xlink:href="#DejaVuSans-32" transform="translate(95.410156 0)"/>
      </g>
     </g>
    </g>
    <g id="xtick_4">
     <g id="line2d_4">
      <g>
       <use xlink:href="#m975170f44f" x="353.698799" y="364.248" style="stroke: #000000; stroke-width: 0.8"/>
      </g>
     </g>
     <g id="text_4">
      <!-- 0.3 -->
      <g transform="translate(341.771456 382.645656) scale(0.15 -0.15)">
       <defs>
        <path id="DejaVuSans-33" d="M 2597 2516 
Q 3050 2419 3304 2112 
Q 3559 1806 3559 1356 
Q 3559 666 3084 287 
Q 2609 -91 1734 -91 
Q 1441 -91 1130 -33 
Q 819 25 488 141 
L 488 750 
Q 750 597 1062 519 
Q 1375 441 1716 441 
Q 2309 441 2620 675 
Q 2931 909 2931 1356 
Q 2931 1769 2642 2001 
Q 2353 2234 1838 2234 
L 1294 2234 
L 1294 2753 
L 1863 2753 
Q 2328 2753 2575 2939 
Q 2822 3125 2822 3475 
Q 2822 3834 2567 4026 
Q 2313 4219 1838 4219 
Q 1578 4219 1281 4162 
Q 984 4106 628 3988 
L 628 4550 
Q 988 4650 1302 4700 
Q 1616 4750 1894 4750 
Q 2613 4750 3031 4423 
Q 3450 4097 3450 3541 
Q 3450 3153 3228 2886 
Q 3006 2619 2597 2516 
z
" transform="scale(0.015625)"/>
       </defs>
       <use xlink:href="#DejaVuSans-30"/>
       <use xlink:href="#DejaVuSans-2e" transform="translate(63.623047 0)"/>
       <use xlink:href="#DejaVuSans-33" transform="translate(95.410156 0)"/>
      </g>
     </g>
    </g>
    <g id="text_5">
     <!-- apixaban plasma [µM] -->
     <g transform="translate(133.635537 403.442375) scale(0.18 -0.18)">
      <defs>
       <path id="DejaVuSans-Bold-61" d="M 2106 1575 
Q 1756 1575 1579 1456 
Q 1403 1338 1403 1106 
Q 1403 894 1545 773 
Q 1688 653 1941 653 
Q 2256 653 2472 879 
Q 2688 1106 2688 1447 
L 2688 1575 
L 2106 1575 
z
M 3816 1997 
L 3816 0 
L 2688 0 
L 2688 519 
Q 2463 200 2181 54 
Q 1900 -91 1497 -91 
Q 953 -91 614 226 
Q 275 544 275 1050 
Q 275 1666 698 1953 
Q 1122 2241 2028 2241 
L 2688 2241 
L 2688 2328 
Q 2688 2594 2478 2717 
Q 2269 2841 1825 2841 
Q 1466 2841 1156 2769 
Q 847 2697 581 2553 
L 581 3406 
Q 941 3494 1303 3539 
Q 1666 3584 2028 3584 
Q 2975 3584 3395 3211 
Q 3816 2838 3816 1997 
z
" transform="scale(0.015625)"/>
       <path id="DejaVuSans-Bold-70" d="M 1656 506 
L 1656 -1331 
L 538 -1331 
L 538 3500 
L 1656 3500 
L 1656 2988 
Q 1888 3294 2169 3439 
Q 2450 3584 2816 3584 
Q 3463 3584 3878 3070 
Q 4294 2556 4294 1747 
Q 4294 938 3878 423 
Q 3463 -91 2816 -91 
Q 2450 -91 2169 54 
Q 1888 200 1656 506 
z
M 2400 2772 
Q 2041 2772 1848 2508 
Q 1656 2244 1656 1747 
Q 1656 1250 1848 986 
Q 2041 722 2400 722 
Q 2759 722 2948 984 
Q 3138 1247 3138 1747 
Q 3138 2247 2948 2509 
Q 2759 2772 2400 2772 
z
" transform="scale(0.015625)"/>
       <path id="DejaVuSans-Bold-69" d="M 538 3500 
L 1656 3500 
L 1656 0 
L 538 0 
L 538 3500 
z
M 538 4863 
L 1656 4863 
L 1656 3950 
L 538 3950 
L 538 4863 
z
" transform="scale(0.015625)"/>
       <path id="DejaVuSans-Bold-78" d="M 1422 1791 
L 159 3500 
L 1344 3500 
L 2059 2463 
L 2784 3500 
L 3969 3500 
L 2706 1797 
L 4031 0 
L 2847 0 
L 2059 1106 
L 1281 0 
L 97 0 
L 1422 1791 
z
" transform="scale(0.015625)"/>
       <path id="DejaVuSans-Bold-62" d="M 2400 722 
Q 2759 722 2948 984 
Q 3138 1247 3138 1747 
Q 3138 2247 2948 2509 
Q 2759 2772 2400 2772 
Q 2041 2772 1848 2508 
Q 1656 2244 1656 1747 
Q 1656 1250 1848 986 
Q 2041 722 2400 722 
z
M 1656 2988 
Q 1888 3294 2169 3439 
Q 2450 3584 2816 3584 
Q 3463 3584 3878 3070 
Q 4294 2556 4294 1747 
Q 4294 938 3878 423 
Q 3463 -91 2816 -91 
Q 2450 -91 2169 54 
Q 1888 200 1656 506 
L 1656 0 
L 538 0 
L 538 4863 
L 1656 4863 
L 1656 2988 
z
" transform="scale(0.015625)"/>
       <path id="DejaVuSans-Bold-6e" d="M 4056 2131 
L 4056 0 
L 2931 0 
L 2931 347 
L 2931 1631 
Q 2931 2084 2911 2256 
Q 2891 2428 2841 2509 
Q 2775 2619 2662 2680 
Q 2550 2741 2406 2741 
Q 2056 2741 1856 2470 
Q 1656 2200 1656 1722 
L 1656 0 
L 538 0 
L 538 3500 
L 1656 3500 
L 1656 2988 
Q 1909 3294 2193 3439 
Q 2478 3584 2822 3584 
Q 3428 3584 3742 3212 
Q 4056 2841 4056 2131 
z
" transform="scale(0.015625)"/>
       <path id="DejaVuSans-Bold-20" transform="scale(0.015625)"/>
       <path id="DejaVuSans-Bold-6c" d="M 538 4863 
L 1656 4863 
L 1656 0 
L 538 0 
L 538 4863 
z
" transform="scale(0.015625)"/>
       <path id="DejaVuSans-Bold-73" d="M 3272 3391 
L 3272 2541 
Q 2913 2691 2578 2766 
Q 2244 2841 1947 2841 
Q 1628 2841 1473 2761 
Q 1319 2681 1319 2516 
Q 1319 2381 1436 2309 
Q 1553 2238 1856 2203 
L 2053 2175 
Q 2913 2066 3209 1816 
Q 3506 1566 3506 1031 
Q 3506 472 3093 190 
Q 2681 -91 1863 -91 
Q 1516 -91 1145 -36 
Q 775 19 384 128 
L 384 978 
Q 719 816 1070 734 
Q 1422 653 1784 653 
Q 2113 653 2278 743 
Q 2444 834 2444 1013 
Q 2444 1163 2330 1236 
Q 2216 1309 1875 1350 
L 1678 1375 
Q 931 1469 631 1722 
Q 331 1975 331 2491 
Q 331 3047 712 3315 
Q 1094 3584 1881 3584 
Q 2191 3584 2531 3537 
Q 2872 3491 3272 3391 
z
" transform="scale(0.015625)"/>
       <path id="DejaVuSans-Bold-6d" d="M 3781 2919 
Q 3994 3244 4286 3414 
Q 4578 3584 4928 3584 
Q 5531 3584 5847 3212 
Q 6163 2841 6163 2131 
L 6163 0 
L 5038 0 
L 5038 1825 
Q 5041 1866 5042 1909 
Q 5044 1953 5044 2034 
Q 5044 2406 4934 2573 
Q 4825 2741 4581 2741 
Q 4263 2741 4089 2478 
Q 3916 2216 3909 1719 
L 3909 0 
L 2784 0 
L 2784 1825 
Q 2784 2406 2684 2573 
Q 2584 2741 2328 2741 
Q 2006 2741 1831 2477 
Q 1656 2213 1656 1722 
L 1656 0 
L 531 0 
L 531 3500 
L 1656 3500 
L 1656 2988 
Q 1863 3284 2130 3434 
Q 2397 3584 2719 3584 
Q 3081 3584 3359 3409 
Q 3638 3234 3781 2919 
z
" transform="scale(0.015625)"/>
       <path id="DejaVuSans-Bold-5b" d="M 550 4863 
L 2491 4863 
L 2491 4159 
L 1613 4159 
L 1613 -141 
L 2491 -141 
L 2491 -844 
L 550 -844 
L 550 4863 
z
" transform="scale(0.015625)"/>
       <path id="DejaVuSans-Bold-b5" d="M 544 -1338 
L 544 3500 
L 1672 3500 
L 1672 1466 
Q 1672 1103 1828 926 
Q 1984 750 2303 750 
Q 2625 750 2781 926 
Q 2938 1103 2938 1466 
L 2938 3500 
L 4063 3500 
L 4063 1159 
Q 4063 938 4114 850 
Q 4166 763 4288 763 
Q 4344 763 4395 778 
Q 4447 794 4506 831 
L 4506 50 
Q 4341 -22 4195 -56 
Q 4050 -91 3909 -91 
Q 3631 -91 3454 26 
Q 3278 144 3169 403 
Q 3022 156 2811 32 
Q 2600 -91 2322 -91 
Q 2091 -91 1928 -17 
Q 1766 56 1672 206 
L 1672 -1338 
L 544 -1338 
z
" transform="scale(0.015625)"/>
       <path id="DejaVuSans-Bold-4d" d="M 588 4666 
L 2119 4666 
L 3181 2169 
L 4250 4666 
L 5778 4666 
L 5778 0 
L 4641 0 
L 4641 3413 
L 3566 897 
L 2803 897 
L 1728 3413 
L 1728 0 
L 588 0 
L 588 4666 
z
" transform="scale(0.015625)"/>
       <path id="DejaVuSans-Bold-5d" d="M 2375 -844 
L 434 -844 
L 434 -141 
L 1313 -141 
L 1313 4159 
L 434 4159 
L 434 4863 
L 2375 4863 
L 2375 -844 
z
" transform="scale(0.015625)"/>
      </defs>
      <use xlink:href="#DejaVuSans-Bold-61"/>
      <use xlink:href="#DejaVuSans-Bold-70" transform="translate(67.480469 0)"/>
      <use xlink:href="#DejaVuSans-Bold-69" transform="translate(139.0625 0)"/>
      <use xlink:href="#DejaVuSans-Bold-78" transform="translate(173.339844 0)"/>
      <use xlink:href="#DejaVuSans-Bold-61" transform="translate(237.841797 0)"/>
      <use xlink:href="#DejaVuSans-Bold-62" transform="translate(305.322266 0)"/>
      <use xlink:href="#DejaVuSans-Bold-61" transform="translate(376.904297 0)"/>
      <use xlink:href="#DejaVuSans-Bold-6e" transform="translate(444.384766 0)"/>
      <use xlink:href="#DejaVuSans-Bold-20" transform="translate(515.576172 0)"/>
      <use xlink:href="#DejaVuSans-Bold-70" transform="translate(550.390625 0)"/>
      <use xlink:href="#DejaVuSans-Bold-6c" transform="translate(621.972656 0)"/>
      <use xlink:href="#DejaVuSans-Bold-61" transform="translate(656.25 0)"/>
      <use xlink:href="#DejaVuSans-Bold-73" transform="translate(723.730469 0)"/>
      <use xlink:href="#DejaVuSans-Bold-6d" transform="translate(783.251953 0)"/>
      <use xlink:href="#DejaVuSans-Bold-61" transform="translate(887.451172 0)"/>
      <use xlink:href="#DejaVuSans-Bold-20" transform="translate(954.931641 0)"/>
      <use xlink:href="#DejaVuSans-Bold-5b" transform="translate(989.746094 0)"/>
      <use xlink:href="#DejaVuSans-Bold-b5" transform="translate(1035.449219 0)"/>
      <use xlink:href="#DejaVuSans-Bold-4d" transform="translate(1109.033203 0)"/>
      <use xlink:href="#DejaVuSans-Bold-5d" transform="translate(1208.544922 0)"/>
     </g>
    </g>
   </g>
   <g id="matplotlib.axis_2">
    <g id="ytick_1">
     <g id="line2d_5">
      <defs>
       <path id="m418b127f2c" d="M 0 0 
L -3.5 0 
" style="stroke: #000000; stroke-width: 0.8"/>
      </defs>
      <g>
       <use xlink:href="#m418b127f2c" x="59.615938" y="349.884" style="stroke: #000000; stroke-width: 0.8"/>
      </g>
     </g>
     <g id="text_6">
      <!-- 0.0 -->
      <g transform="translate(28.76125 355.582828) scale(0.15 -0.15)">
       <use xlink:href="#DejaVuSans-30"/>
       <use xlink:href="#DejaVuSans-2e" transform="translate(63.623047 0)"/>
       <use xlink:href="#DejaVuSans-30" transform="translate(95.410156 0)"/>
      </g>
     </g>
    </g>
    <g id="ytick_2">
     <g id="line2d_6">
      <g>
       <use xlink:href="#m418b127f2c" x="59.615938" y="305.736929" style="stroke: #000000; stroke-width: 0.8"/>
      </g>
     </g>
     <g id="text_7">
      <!-- 0.5 -->
      <g transform="translate(28.76125 311.435757) scale(0.15 -0.15)">
       <defs>
        <path id="DejaVuSans-35" d="M 691 4666 
L 3169 4666 
L 3169 4134 
L 1269 4134 
L 1269 2991 
Q 1406 3038 1543 3061 
Q 1681 3084 1819 3084 
Q 2600 3084 3056 2656 
Q 3513 2228 3513 1497 
Q 3513 744 3044 326 
Q 2575 -91 1722 -91 
Q 1428 -91 1123 -41 
Q 819 9 494 109 
L 494 744 
Q 775 591 1075 516 
Q 1375 441 1709 441 
Q 2250 441 2565 725 
Q 2881 1009 2881 1497 
Q 2881 1984 2565 2268 
Q 2250 2553 1709 2553 
Q 1456 2553 1204 2497 
Q 953 2441 691 2322 
L 691 4666 
z
" transform="scale(0.015625)"/>
       </defs>
       <use xlink:href="#DejaVuSans-30"/>
       <use xlink:href="#DejaVuSans-2e" transform="translate(63.623047 0)"/>
       <use xlink:href="#DejaVuSans-35" transform="translate(95.410156 0)"/>
      </g>
     </g>
    </g>
    <g id="ytick_3">
     <g id="line2d_7">
      <g>
       <use xlink:href="#m418b127f2c" x="59.615938" y="261.589858" style="stroke: #000000; stroke-width: 0.8"/>
      </g>
     </g>
     <g id="text_8">
      <!-- 1.0 -->
      <g transform="translate(28.76125 267.288686) scale(0.15 -0.15)">
       <use xlink:href="#DejaVuSans-31"/>
       <use xlink:href="#DejaVuSans-2e" transform="translate(63.623047 0)"/>
       <use xlink:href="#DejaVuSans-30" transform="translate(95.410156 0)"/>
      </g>
     </g>
    </g>
    <g id="ytick_4">
     <g id="line2d_8">
      <g>
       <use xlink:href="#m418b127f2c" x="59.615938" y="217.442787" style="stroke: #000000; stroke-width: 0.8"/>
      </g>
     </g>
     <g id="text_9">
      <!-- 1.5 -->
      <g transform="translate(28.76125 223.141616) scale(0.15 -0.15)">
       <use xlink:href="#DejaVuSans-31"/>
       <use xlink:href="#DejaVuSans-2e" transform="translate(63.623047 0)"/>
       <use xlink:href="#DejaVuSans-35" transform="translate(95.410156 0)"/>
      </g>
     </g>
    </g>
    <g id="ytick_5">
     <g id="line2d_9">
      <g>
       <use xlink:href="#m418b127f2c" x="59.615938" y="173.295717" style="stroke: #000000; stroke-width: 0.8"/>
      </g>
     </g>
     <g id="text_10">
      <!-- 2.0 -->
      <g transform="translate(28.76125 178.994545) scale(0.15 -0.15)">
       <use xlink:href="#DejaVuSans-32"/>
       <use xlink:href="#DejaVuSans-2e" transform="translate(63.623047 0)"/>
       <use xlink:href="#DejaVuSans-30" transform="translate(95.410156 0)"/>
      </g>
     </g>
    </g>
    <g id="ytick_6">
     <g id="line2d_10">
      <g>
       <use xlink:href="#m418b127f2c" x="59.615938" y="129.148646" style="stroke: #000000; stroke-width: 0.8"/>
      </g>
     </g>
     <g id="text_11">
      <!-- 2.5 -->
      <g transform="translate(28.76125 134.847474) scale(0.15 -0.15)">
       <use xlink:href="#DejaVuSans-32"/>
       <use xlink:href="#DejaVuSans-2e" transform="translate(63.623047 0)"/>
       <use xlink:href="#DejaVuSans-35" transform="translate(95.410156 0)"/>
      </g>
     </g>
    </g>
    <g id="ytick_7">
     <g id="line2d_11">
      <g>
       <use xlink:href="#m418b127f2c" x="59.615938" y="85.001575" style="stroke: #000000; stroke-width: 0.8"/>
      </g>
     </g>
     <g id="text_12">
      <!-- 3.0 -->
      <g transform="translate(28.76125 90.700403) scale(0.15 -0.15)">
       <use xlink:href="#DejaVuSans-33"/>
       <use xlink:href="#DejaVuSans-2e" transform="translate(63.623047 0)"/>
       <use xlink:href="#DejaVuSans-30" transform="translate(95.410156 0)"/>
      </g>
     </g>
    </g>
    <g id="text_13">
     <!-- anti-FXa activity [IU/ml] -->
     <g transform="translate(20.877188 327.824156) rotate(-90) scale(0.18 -0.18)">
      <defs>
       <path id="DejaVuSans-Bold-74" d="M 1759 4494 
L 1759 3500 
L 2913 3500 
L 2913 2700 
L 1759 2700 
L 1759 1216 
Q 1759 972 1856 886 
Q 1953 800 2241 800 
L 2816 800 
L 2816 0 
L 1856 0 
Q 1194 0 917 276 
Q 641 553 641 1216 
L 641 2700 
L 84 2700 
L 84 3500 
L 641 3500 
L 641 4494 
L 1759 4494 
z
" transform="scale(0.015625)"/>
       <path id="DejaVuSans-Bold-2d" d="M 347 2297 
L 2309 2297 
L 2309 1388 
L 347 1388 
L 347 2297 
z
" transform="scale(0.015625)"/>
       <path id="DejaVuSans-Bold-46" d="M 588 4666 
L 3834 4666 
L 3834 3756 
L 1791 3756 
L 1791 2888 
L 3713 2888 
L 3713 1978 
L 1791 1978 
L 1791 0 
L 588 0 
L 588 4666 
z
" transform="scale(0.015625)"/>
       <path id="DejaVuSans-Bold-58" d="M 3188 2381 
L 4806 0 
L 3553 0 
L 2463 1594 
L 1381 0 
L 122 0 
L 1741 2381 
L 184 4666 
L 1441 4666 
L 2463 3163 
L 3481 4666 
L 4744 4666 
L 3188 2381 
z
" transform="scale(0.015625)"/>
       <path id="DejaVuSans-Bold-63" d="M 3366 3391 
L 3366 2478 
Q 3138 2634 2908 2709 
Q 2678 2784 2431 2784 
Q 1963 2784 1702 2511 
Q 1441 2238 1441 1747 
Q 1441 1256 1702 982 
Q 1963 709 2431 709 
Q 2694 709 2930 787 
Q 3166 866 3366 1019 
L 3366 103 
Q 3103 6 2833 -42 
Q 2563 -91 2291 -91 
Q 1344 -91 809 395 
Q 275 881 275 1747 
Q 275 2613 809 3098 
Q 1344 3584 2291 3584 
Q 2566 3584 2833 3536 
Q 3100 3488 3366 3391 
z
" transform="scale(0.015625)"/>
       <path id="DejaVuSans-Bold-76" d="M 97 3500 
L 1216 3500 
L 2088 1081 
L 2956 3500 
L 4078 3500 
L 2700 0 
L 1472 0 
L 97 3500 
z
" transform="scale(0.015625)"/>
       <path id="DejaVuSans-Bold-79" d="M 78 3500 
L 1197 3500 
L 2138 1125 
L 2938 3500 
L 4056 3500 
L 2584 -331 
Q 2363 -916 2067 -1148 
Q 1772 -1381 1288 -1381 
L 641 -1381 
L 641 -647 
L 991 -647 
Q 1275 -647 1404 -556 
Q 1534 -466 1606 -231 
L 1638 -134 
L 78 3500 
z
" transform="scale(0.015625)"/>
       <path id="DejaVuSans-Bold-49" d="M 588 4666 
L 1791 4666 
L 1791 0 
L 588 0 
L 588 4666 
z
" transform="scale(0.015625)"/>
       <path id="DejaVuSans-Bold-55" d="M 588 4666 
L 1791 4666 
L 1791 1869 
Q 1791 1291 1980 1042 
Q 2169 794 2597 794 
Q 3028 794 3217 1042 
Q 3406 1291 3406 1869 
L 3406 4666 
L 4609 4666 
L 4609 1869 
Q 4609 878 4112 393 
Q 3616 -91 2597 -91 
Q 1581 -91 1084 393 
Q 588 878 588 1869 
L 588 4666 
z
" transform="scale(0.015625)"/>
       <path id="DejaVuSans-Bold-2f" d="M 1644 4666 
L 2338 4666 
L 691 -594 
L 0 -594 
L 1644 4666 
z
" transform="scale(0.015625)"/>
      </defs>
      <use xlink:href="#DejaVuSans-Bold-61"/>
      <use xlink:href="#DejaVuSans-Bold-6e" transform="translate(67.480469 0)"/>
      <use xlink:href="#DejaVuSans-Bold-74" transform="translate(138.671875 0)"/>
      <use xlink:href="#DejaVuSans-Bold-69" transform="translate(186.474609 0)"/>
      <use xlink:href="#DejaVuSans-Bold-2d" transform="translate(220.751953 0)"/>
      <use xlink:href="#DejaVuSans-Bold-46" transform="translate(262.255859 0)"/>
      <use xlink:href="#DejaVuSans-Bold-58" transform="translate(330.566406 0)"/>
      <use xlink:href="#DejaVuSans-Bold-61" transform="translate(407.666016 0)"/>
      <use xlink:href="#DejaVuSans-Bold-20" transform="translate(475.146484 0)"/>
      <use xlink:href="#DejaVuSans-Bold-61" transform="translate(509.960938 0)"/>
      <use xlink:href="#DejaVuSans-Bold-63" transform="translate(577.441406 0)"/>
      <use xlink:href="#DejaVuSans-Bold-74" transform="translate(636.71875 0)"/>
      <use xlink:href="#DejaVuSans-Bold-69" transform="translate(684.521484 0)"/>
      <use xlink:href="#DejaVuSans-Bold-76" transform="translate(718.798828 0)"/>
      <use xlink:href="#DejaVuSans-Bold-69" transform="translate(783.984375 0)"/>
      <use xlink:href="#DejaVuSans-Bold-74" transform="translate(818.261719 0)"/>
      <use xlink:href="#DejaVuSans-Bold-79" transform="translate(866.064453 0)"/>
      <use xlink:href="#DejaVuSans-Bold-20" transform="translate(931.25 0)"/>
      <use xlink:href="#DejaVuSans-Bold-5b" transform="translate(966.064453 0)"/>
      <use xlink:href="#DejaVuSans-Bold-49" transform="translate(1011.767578 0)"/>
      <use xlink:href="#DejaVuSans-Bold-55" transform="translate(1048.974609 0)"/>
      <use xlink:href="#DejaVuSans-Bold-2f" transform="translate(1130.175781 0)"/>
      <use xlink:href="#DejaVuSans-Bold-6d" transform="translate(1166.699219 0)"/>
      <use xlink:href="#DejaVuSans-Bold-6c" transform="translate(1270.898438 0)"/>
      <use xlink:href="#DejaVuSans-Bold-5d" transform="translate(1305.175781 0)"/>
     </g>
    </g>
   </g>
   <g id="line2d_12">
    <path d="M 76.607038 349.884 
L 209.078456 269.68821 
L 76.607144 349.883936 
" clip-path="url(#p5adeab3088)" style="fill: none; stroke: #000000; stroke-width: 2; stroke-linecap: square"/>
   </g>
   <g id="line2d_13">
    <defs>
     <path id="m88965866d3" d="M 0 3 
C 0.795609 3 1.55874 2.683901 2.12132 2.12132 
C 2.683901 1.55874 3 0.795609 3 0 
C 3 -0.795609 2.683901 -1.55874 2.12132 -2.12132 
C 1.55874 -2.683901 0.795609 -3 0 -3 
C -0.795609 -3 -1.55874 -2.683901 -2.12132 -2.12132 
C -2.683901 -1.55874 -3 -0.795609 -3 0 
C -3 0.795609 -2.683901 1.55874 -2.12132 2.12132 
C -1.55874 2.683901 -0.795609 3 0 3 
z
" style="stroke: #7f7f7f"/>
    </defs>
    <g clip-path="url(#p5adeab3088)">
     <use xlink:href="#m88965866d3" x="385.493958" y="121.837008" style="fill: #ffffff; stroke: #7f7f7f"/>
     <use xlink:href="#m88965866d3" x="378.00227" y="141.828567" style="fill: #ffffff; stroke: #7f7f7f"/>
     <use xlink:href="#m88965866d3" x="373.780143" y="147.011434" style="fill: #ffffff; stroke: #7f7f7f"/>
     <use xlink:href="#m88965866d3" x="335.743454" y="165.521417" style="fill: #ffffff; stroke: #7f7f7f"/>
     <use xlink:href="#m88965866d3" x="287.336639" y="159.597763" style="fill: #ffffff; stroke: #7f7f7f"/>
     <use xlink:href="#m88965866d3" x="279.343532" y="155.896473" style="fill: #ffffff; stroke: #7f7f7f"/>
     <use xlink:href="#m88965866d3" x="291.19134" y="231.417984" style="fill: #ffffff; stroke: #7f7f7f"/>
     <use xlink:href="#m88965866d3" x="293.990982" y="216.610174" style="fill: #ffffff; stroke: #7f7f7f"/>
     <use xlink:href="#m88965866d3" x="285.529965" y="214.388693" style="fill: #ffffff; stroke: #7f7f7f"/>
     <use xlink:href="#m88965866d3" x="274.718501" y="211.427308" style="fill: #ffffff; stroke: #7f7f7f"/>
     <use xlink:href="#m88965866d3" x="268.620734" y="219.571559" style="fill: #ffffff; stroke: #7f7f7f"/>
     <use xlink:href="#m88965866d3" x="259.220901" y="218.090866" style="fill: #ffffff; stroke: #7f7f7f"/>
     <use xlink:href="#m88965866d3" x="257.827964" y="230.678079" style="fill: #ffffff; stroke: #7f7f7f"/>
     <use xlink:href="#m88965866d3" x="235.285942" y="240.303024" style="fill: #ffffff; stroke: #7f7f7f"/>
     <use xlink:href="#m88965866d3" x="225.437897" y="255.110834" style="fill: #ffffff; stroke: #7f7f7f"/>
     <use xlink:href="#m88965866d3" x="213.680724" y="247.70737" style="fill: #ffffff; stroke: #7f7f7f"/>
     <use xlink:href="#m88965866d3" x="209.920598" y="246.966583" style="fill: #ffffff; stroke: #7f7f7f"/>
     <use xlink:href="#m88965866d3" x="207.115026" y="257.332315" style="fill: #ffffff; stroke: #7f7f7f"/>
     <use xlink:href="#m88965866d3" x="194.417088" y="249.188063" style="fill: #ffffff; stroke: #7f7f7f"/>
     <use xlink:href="#m88965866d3" x="197.728018" y="265.477449" style="fill: #ffffff; stroke: #7f7f7f"/>
     <use xlink:href="#m88965866d3" x="188.342979" y="275.102394" style="fill: #ffffff; stroke: #7f7f7f"/>
     <use xlink:href="#m88965866d3" x="180.819772" y="271.40022" style="fill: #ffffff; stroke: #7f7f7f"/>
     <use xlink:href="#m88965866d3" x="176.585806" y="267.698047" style="fill: #ffffff; stroke: #7f7f7f"/>
     <use xlink:href="#m88965866d3" x="168.630146" y="292.131685" style="fill: #ffffff; stroke: #7f7f7f"/>
     <use xlink:href="#m88965866d3" x="163.92628" y="288.429511" style="fill: #ffffff; stroke: #7f7f7f"/>
     <use xlink:href="#m88965866d3" x="140.918297" y="301.016724" style="fill: #ffffff; stroke: #7f7f7f"/>
     <use xlink:href="#m88965866d3" x="139.044626" y="305.459686" style="fill: #ffffff; stroke: #7f7f7f"/>
     <use xlink:href="#m88965866d3" x="129.181807" y="309.160976" style="fill: #ffffff; stroke: #7f7f7f"/>
     <use xlink:href="#m88965866d3" x="116.978393" y="319.526708" style="fill: #ffffff; stroke: #7f7f7f"/>
     <use xlink:href="#m88965866d3" x="110.404835" y="323.228882" style="fill: #ffffff; stroke: #7f7f7f"/>
     <use xlink:href="#m88965866d3" x="105.236014" y="323.228882" style="fill: #ffffff; stroke: #7f7f7f"/>
     <use xlink:href="#m88965866d3" x="101.012882" y="327.671843" style="fill: #ffffff; stroke: #7f7f7f"/>
     <use xlink:href="#m88965866d3" x="90.681168" y="332.113921" style="fill: #ffffff; stroke: #7f7f7f"/>
    </g>
   </g>
   <g id="line2d_14">
    <path d="M 76.607038 349.884 
L 233.806847 254.718091 
L 76.607204 349.883899 
" clip-path="url(#p5adeab3088)" style="fill: none; stroke: #000000; stroke-width: 2; stroke-linecap: square"/>
   </g>
   <g id="line2d_15">
    <defs>
     <path id="m7fba8da8b6" d="M 0 -3 
L -0.673542 -0.927051 
L -2.85317 -0.927051 
L -1.089814 0.354102 
L -1.763356 2.427051 
L -0 1.145898 
L 1.763356 2.427051 
L 1.089814 0.354102 
L 2.85317 -0.927051 
L 0.673542 -0.927051 
z
" style="stroke: #74a9cf; stroke-linejoin: bevel"/>
    </defs>
    <g clip-path="url(#p5adeab3088)">
     <use xlink:href="#m7fba8da8b6" x="347.92126" y="135.904913" style="fill: #ffffff; stroke: #74a9cf; stroke-linejoin: bevel"/>
     <use xlink:href="#m7fba8da8b6" x="350.750471" y="143.30926" style="fill: #ffffff; stroke: #74a9cf; stroke-linejoin: bevel"/>
     <use xlink:href="#m7fba8da8b6" x="327.732618" y="148.492126" style="fill: #ffffff; stroke: #74a9cf; stroke-linejoin: bevel"/>
     <use xlink:href="#m7fba8da8b6" x="323.030741" y="146.270646" style="fill: #ffffff; stroke: #74a9cf; stroke-linejoin: bevel"/>
     <use xlink:href="#m7fba8da8b6" x="323.52231" y="162.560032" style="fill: #ffffff; stroke: #74a9cf; stroke-linejoin: bevel"/>
     <use xlink:href="#m7fba8da8b6" x="315.501625" y="138.126394" style="fill: #ffffff; stroke: #74a9cf; stroke-linejoin: bevel"/>
     <use xlink:href="#m7fba8da8b6" x="319.777943" y="173.665669" style="fill: #ffffff; stroke: #74a9cf; stroke-linejoin: bevel"/>
     <use xlink:href="#m7fba8da8b6" x="309.416661" y="155.896473" style="fill: #ffffff; stroke: #74a9cf; stroke-linejoin: bevel"/>
     <use xlink:href="#m7fba8da8b6" x="288.782763" y="186.99367" style="fill: #ffffff; stroke: #74a9cf; stroke-linejoin: bevel"/>
     <use xlink:href="#m7fba8da8b6" x="271.409541" y="196.618614" style="fill: #ffffff; stroke: #74a9cf; stroke-linejoin: bevel"/>
     <use xlink:href="#m7fba8da8b6" x="273.79251" y="221.79304" style="fill: #ffffff; stroke: #74a9cf; stroke-linejoin: bevel"/>
     <use xlink:href="#m7fba8da8b6" x="270.026454" y="216.610174" style="fill: #ffffff; stroke: #74a9cf; stroke-linejoin: bevel"/>
     <use xlink:href="#m7fba8da8b6" x="265.816147" y="230.678079" style="fill: #ffffff; stroke: #74a9cf; stroke-linejoin: bevel"/>
     <use xlink:href="#m7fba8da8b6" x="260.614822" y="206.244441" style="fill: #ffffff; stroke: #74a9cf; stroke-linejoin: bevel"/>
     <use xlink:href="#m7fba8da8b6" x="258.750036" y="217.350079" style="fill: #ffffff; stroke: #74a9cf; stroke-linejoin: bevel"/>
     <use xlink:href="#m7fba8da8b6" x="251.234708" y="219.571559" style="fill: #ffffff; stroke: #74a9cf; stroke-linejoin: bevel"/>
     <use xlink:href="#m7fba8da8b6" x="245.633414" y="247.70737" style="fill: #ffffff; stroke: #74a9cf; stroke-linejoin: bevel"/>
     <use xlink:href="#m7fba8da8b6" x="216.512889" y="257.332315" style="fill: #ffffff; stroke: #74a9cf; stroke-linejoin: bevel"/>
     <use xlink:href="#m7fba8da8b6" x="208.521752" y="255.110834" style="fill: #ffffff; stroke: #74a9cf; stroke-linejoin: bevel"/>
     <use xlink:href="#m7fba8da8b6" x="202.886005" y="257.332315" style="fill: #ffffff; stroke: #74a9cf; stroke-linejoin: bevel"/>
     <use xlink:href="#m7fba8da8b6" x="202.431864" y="269.17874" style="fill: #ffffff; stroke: #74a9cf; stroke-linejoin: bevel"/>
     <use xlink:href="#m7fba8da8b6" x="196.772478" y="253.630141" style="fill: #ffffff; stroke: #74a9cf; stroke-linejoin: bevel"/>
     <use xlink:href="#m7fba8da8b6" x="193.020232" y="258.813008" style="fill: #ffffff; stroke: #74a9cf; stroke-linejoin: bevel"/>
     <use xlink:href="#m7fba8da8b6" x="162.037855" y="281.765953" style="fill: #ffffff; stroke: #74a9cf; stroke-linejoin: bevel"/>
     <use xlink:href="#m7fba8da8b6" x="158.753519" y="285.468126" style="fill: #ffffff; stroke: #74a9cf; stroke-linejoin: bevel"/>
     <use xlink:href="#m7fba8da8b6" x="143.724853" y="291.39178" style="fill: #ffffff; stroke: #74a9cf; stroke-linejoin: bevel"/>
     <use xlink:href="#m7fba8da8b6" x="136.225285" y="305.459686" style="fill: #ffffff; stroke: #74a9cf; stroke-linejoin: bevel"/>
     <use xlink:href="#m7fba8da8b6" x="125.428576" y="313.603937" style="fill: #ffffff; stroke: #74a9cf; stroke-linejoin: bevel"/>
     <use xlink:href="#m7fba8da8b6" x="122.139335" y="313.603937" style="fill: #ffffff; stroke: #74a9cf; stroke-linejoin: bevel"/>
     <use xlink:href="#m7fba8da8b6" x="118.384133" y="316.565323" style="fill: #ffffff; stroke: #74a9cf; stroke-linejoin: bevel"/>
     <use xlink:href="#m7fba8da8b6" x="118.391028" y="321.748189" style="fill: #ffffff; stroke: #74a9cf; stroke-linejoin: bevel"/>
     <use xlink:href="#m7fba8da8b6" x="108.5223" y="321.008284" style="fill: #ffffff; stroke: #74a9cf; stroke-linejoin: bevel"/>
     <use xlink:href="#m7fba8da8b6" x="105.707864" y="324.709574" style="fill: #ffffff; stroke: #74a9cf; stroke-linejoin: bevel"/>
     <use xlink:href="#m7fba8da8b6" x="101.013867" y="328.411748" style="fill: #ffffff; stroke: #74a9cf; stroke-linejoin: bevel"/>
     <use xlink:href="#m7fba8da8b6" x="93.025704" y="328.411748" style="fill: #ffffff; stroke: #74a9cf; stroke-linejoin: bevel"/>
    </g>
   </g>
   <g id="line2d_16">
    <path d="M 76.607038 349.884 
L 296.258749 216.910844 
L 76.607473 349.883736 
" clip-path="url(#p5adeab3088)" style="fill: none; stroke: #000000; stroke-width: 2; stroke-linecap: square"/>
   </g>
   <g id="line2d_17">
    <defs>
     <path id="m23eb6e4c63" d="M 0 -3 
L -3 3 
L 3 3 
z
" style="stroke: #2b8cbe; stroke-linejoin: miter"/>
    </defs>
    <g clip-path="url(#p5adeab3088)">
     <use xlink:href="#m23eb6e4c63" x="416.429037" y="63.344788" style="fill: #ffffff; stroke: #2b8cbe; stroke-linejoin: miter"/>
     <use xlink:href="#m23eb6e4c63" x="416.049773" y="131.462835" style="fill: #ffffff; stroke: #2b8cbe; stroke-linejoin: miter"/>
     <use xlink:href="#m23eb6e4c63" x="391.599606" y="119.615527" style="fill: #ffffff; stroke: #2b8cbe; stroke-linejoin: miter"/>
     <use xlink:href="#m23eb6e4c63" x="391.625214" y="138.866299" style="fill: #ffffff; stroke: #2b8cbe; stroke-linejoin: miter"/>
     <use xlink:href="#m23eb6e4c63" x="385.956944" y="116.654142" style="fill: #ffffff; stroke: #2b8cbe; stroke-linejoin: miter"/>
     <use xlink:href="#m23eb6e4c63" x="376.48718" y="62.604" style="fill: #ffffff; stroke: #2b8cbe; stroke-linejoin: miter"/>
     <use xlink:href="#m23eb6e4c63" x="360.163108" y="154.414897" style="fill: #ffffff; stroke: #2b8cbe; stroke-linejoin: miter"/>
     <use xlink:href="#m23eb6e4c63" x="339.491761" y="157.377166" style="fill: #ffffff; stroke: #2b8cbe; stroke-linejoin: miter"/>
     <use xlink:href="#m23eb6e4c63" x="333.944659" y="226.235118" style="fill: #ffffff; stroke: #2b8cbe; stroke-linejoin: miter"/>
     <use xlink:href="#m23eb6e4c63" x="331.020894" y="147.751338" style="fill: #ffffff; stroke: #2b8cbe; stroke-linejoin: miter"/>
     <use xlink:href="#m23eb6e4c63" x="325.459018" y="205.503654" style="fill: #ffffff; stroke: #2b8cbe; stroke-linejoin: miter"/>
     <use xlink:href="#m23eb6e4c63" x="324.062142" y="215.128598" style="fill: #ffffff; stroke: #2b8cbe; stroke-linejoin: miter"/>
     <use xlink:href="#m23eb6e4c63" x="308.471956" y="152.1943" style="fill: #ffffff; stroke: #2b8cbe; stroke-linejoin: miter"/>
     <use xlink:href="#m23eb6e4c63" x="307.527251" y="148.492126" style="fill: #ffffff; stroke: #2b8cbe; stroke-linejoin: miter"/>
     <use xlink:href="#m23eb6e4c63" x="304.734484" y="168.482803" style="fill: #ffffff; stroke: #2b8cbe; stroke-linejoin: miter"/>
     <use xlink:href="#m23eb6e4c63" x="291.56765" y="161.079339" style="fill: #ffffff; stroke: #2b8cbe; stroke-linejoin: miter"/>
     <use xlink:href="#m23eb6e4c63" x="291.162757" y="209.945732" style="fill: #ffffff; stroke: #2b8cbe; stroke-linejoin: miter"/>
     <use xlink:href="#m23eb6e4c63" x="292.120286" y="223.273733" style="fill: #ffffff; stroke: #2b8cbe; stroke-linejoin: miter"/>
     <use xlink:href="#m23eb6e4c63" x="282.709619" y="213.647905" style="fill: #ffffff; stroke: #2b8cbe; stroke-linejoin: miter"/>
     <use xlink:href="#m23eb6e4c63" x="281.302893" y="215.869386" style="fill: #ffffff; stroke: #2b8cbe; stroke-linejoin: miter"/>
     <use xlink:href="#m23eb6e4c63" x="278.958357" y="219.571559" style="fill: #ffffff; stroke: #2b8cbe; stroke-linejoin: miter"/>
     <use xlink:href="#m23eb6e4c63" x="275.656312" y="209.945732" style="fill: #ffffff; stroke: #2b8cbe; stroke-linejoin: miter"/>
     <use xlink:href="#m23eb6e4c63" x="270.033369" y="221.79304" style="fill: #ffffff; stroke: #2b8cbe; stroke-linejoin: miter"/>
     <use xlink:href="#m23eb6e4c63" x="270.042234" y="228.456599" style="fill: #ffffff; stroke: #2b8cbe; stroke-linejoin: miter"/>
     <use xlink:href="#m23eb6e4c63" x="269.112283" y="235.860945" style="fill: #ffffff; stroke: #2b8cbe; stroke-linejoin: miter"/>
     <use xlink:href="#m23eb6e4c63" x="257.847683" y="245.48589" style="fill: #ffffff; stroke: #2b8cbe; stroke-linejoin: miter"/>
     <use xlink:href="#m23eb6e4c63" x="254.537738" y="229.937291" style="fill: #ffffff; stroke: #2b8cbe; stroke-linejoin: miter"/>
     <use xlink:href="#m23eb6e4c63" x="246.075736" y="226.975906" style="fill: #ffffff; stroke: #2b8cbe; stroke-linejoin: miter"/>
     <use xlink:href="#m23eb6e4c63" x="243.268194" y="235.860945" style="fill: #ffffff; stroke: #2b8cbe; stroke-linejoin: miter"/>
     <use xlink:href="#m23eb6e4c63" x="229.6354" y="231.417984" style="fill: #ffffff; stroke: #2b8cbe; stroke-linejoin: miter"/>
     <use xlink:href="#m23eb6e4c63" x="229.644265" y="238.081543" style="fill: #ffffff; stroke: #2b8cbe; stroke-linejoin: miter"/>
     <use xlink:href="#m23eb6e4c63" x="223.101241" y="264.736662" style="fill: #ffffff; stroke: #2b8cbe; stroke-linejoin: miter"/>
     <use xlink:href="#m23eb6e4c63" x="221.216735" y="261.034488" style="fill: #ffffff; stroke: #2b8cbe; stroke-linejoin: miter"/>
     <use xlink:href="#m23eb6e4c63" x="212.755718" y="258.813008" style="fill: #ffffff; stroke: #2b8cbe; stroke-linejoin: miter"/>
     <use xlink:href="#m23eb6e4c63" x="203.831695" y="261.775276" style="fill: #ffffff; stroke: #2b8cbe; stroke-linejoin: miter"/>
     <use xlink:href="#m23eb6e4c63" x="198.209737" y="274.361606" style="fill: #ffffff; stroke: #2b8cbe; stroke-linejoin: miter"/>
     <use xlink:href="#m23eb6e4c63" x="197.250238" y="259.553795" style="fill: #ffffff; stroke: #2b8cbe; stroke-linejoin: miter"/>
     <use xlink:href="#m23eb6e4c63" x="191.143606" y="261.034488" style="fill: #ffffff; stroke: #2b8cbe; stroke-linejoin: miter"/>
     <use xlink:href="#m23eb6e4c63" x="190.237314" y="286.208914" style="fill: #ffffff; stroke: #2b8cbe; stroke-linejoin: miter"/>
     <use xlink:href="#m23eb6e4c63" x="181.287682" y="269.919528" style="fill: #ffffff; stroke: #2b8cbe; stroke-linejoin: miter"/>
     <use xlink:href="#m23eb6e4c63" x="178.941176" y="272.141008" style="fill: #ffffff; stroke: #2b8cbe; stroke-linejoin: miter"/>
     <use xlink:href="#m23eb6e4c63" x="173.316263" y="282.50674" style="fill: #ffffff; stroke: #2b8cbe; stroke-linejoin: miter"/>
     <use xlink:href="#m23eb6e4c63" x="169.567957" y="290.650992" style="fill: #ffffff; stroke: #2b8cbe; stroke-linejoin: miter"/>
     <use xlink:href="#m23eb6e4c63" x="167.681481" y="285.468126" style="fill: #ffffff; stroke: #2b8cbe; stroke-linejoin: miter"/>
     <use xlink:href="#m23eb6e4c63" x="158.761398" y="291.39178" style="fill: #ffffff; stroke: #2b8cbe; stroke-linejoin: miter"/>
     <use xlink:href="#m23eb6e4c63" x="149.803887" y="269.17874" style="fill: #ffffff; stroke: #2b8cbe; stroke-linejoin: miter"/>
     <use xlink:href="#m23eb6e4c63" x="142.797857" y="301.016724" style="fill: #ffffff; stroke: #2b8cbe; stroke-linejoin: miter"/>
     <use xlink:href="#m23eb6e4c63" x="133.887644" y="314.343842" style="fill: #ffffff; stroke: #2b8cbe; stroke-linejoin: miter"/>
     <use xlink:href="#m23eb6e4c63" x="131.995259" y="304.718898" style="fill: #ffffff; stroke: #2b8cbe; stroke-linejoin: miter"/>
     <use xlink:href="#m23eb6e4c63" x="127.768207" y="306.19959" style="fill: #ffffff; stroke: #2b8cbe; stroke-linejoin: miter"/>
     <use xlink:href="#m23eb6e4c63" x="124.96362" y="317.306111" style="fill: #ffffff; stroke: #2b8cbe; stroke-linejoin: miter"/>
     <use xlink:href="#m23eb6e4c63" x="122.137365" y="312.123244" style="fill: #ffffff; stroke: #2b8cbe; stroke-linejoin: miter"/>
     <use xlink:href="#m23eb6e4c63" x="121.206449" y="318.786803" style="fill: #ffffff; stroke: #2b8cbe; stroke-linejoin: miter"/>
     <use xlink:href="#m23eb6e4c63" x="120.278488" y="327.671843" style="fill: #ffffff; stroke: #2b8cbe; stroke-linejoin: miter"/>
     <use xlink:href="#m23eb6e4c63" x="114.164961" y="323.969669" style="fill: #ffffff; stroke: #2b8cbe; stroke-linejoin: miter"/>
     <use xlink:href="#m23eb6e4c63" x="111.809571" y="319.526708" style="fill: #ffffff; stroke: #2b8cbe; stroke-linejoin: miter"/>
     <use xlink:href="#m23eb6e4c63" x="110.406805" y="324.709574" style="fill: #ffffff; stroke: #2b8cbe; stroke-linejoin: miter"/>
     <use xlink:href="#m23eb6e4c63" x="107.58055" y="319.526708" style="fill: #ffffff; stroke: #2b8cbe; stroke-linejoin: miter"/>
     <use xlink:href="#m23eb6e4c63" x="101.482782" y="327.671843" style="fill: #ffffff; stroke: #2b8cbe; stroke-linejoin: miter"/>
     <use xlink:href="#m23eb6e4c63" x="93.499524" y="331.374016" style="fill: #ffffff; stroke: #2b8cbe; stroke-linejoin: miter"/>
    </g>
   </g>
   <g id="patch_3">
    <path d="M 59.615938 364.248 
L 59.615938 48.24 
" style="fill: none; stroke: #000000; stroke-width: 0.8; stroke-linejoin: miter; stroke-linecap: square"/>
   </g>
   <g id="patch_4">
    <path d="M 433.420138 364.248 
L 433.420138 48.24 
" style="fill: none; stroke: #000000; stroke-width: 0.8; stroke-linejoin: miter; stroke-linecap: square"/>
   </g>
   <g id="patch_5">
    <path d="M 59.615938 364.248 
L 433.420137 364.248 
" style="fill: none; stroke: #000000; stroke-width: 0.8; stroke-linejoin: miter; stroke-linecap: square"/>
   </g>
   <g id="patch_6">
    <path d="M 59.615938 48.24 
L 433.420137 48.24 
" style="fill: none; stroke: #000000; stroke-width: 0.8; stroke-linejoin: miter; stroke-linecap: square"/>
   </g>
   <g id="legend_1">
    <g id="patch_7">
     <path d="M 68.715937 134.96625 
L 319.934844 134.96625 
Q 322.534844 134.96625 322.534844 132.36625 
L 322.534844 57.34 
Q 322.534844 54.74 319.934844 54.74 
L 68.715937 54.74 
Q 66.115938 54.74 66.115938 57.34 
L 66.115938 132.36625 
Q 66.115938 134.96625 68.715937 134.96625 
z
" style="fill: #ffffff; opacity: 0.8; stroke: #cccccc; stroke-linejoin: miter"/>
    </g>
    <g id="line2d_18">
     <path d="M 71.315938 65.267969 
L 97.315938 65.267969 
" style="fill: none; stroke: #000000; stroke-width: 2; stroke-linecap: square"/>
    </g>
    <g id="line2d_19"/>
    <g id="text_14">
     <!-- sim: 5mg PO -->
     <g transform="translate(107.715937 69.817969) scale(0.13 -0.13)">
      <defs>
       <path id="DejaVuSans-73" d="M 2834 3397 
L 2834 2853 
Q 2591 2978 2328 3040 
Q 2066 3103 1784 3103 
Q 1356 3103 1142 2972 
Q 928 2841 928 2578 
Q 928 2378 1081 2264 
Q 1234 2150 1697 2047 
L 1894 2003 
Q 2506 1872 2764 1633 
Q 3022 1394 3022 966 
Q 3022 478 2636 193 
Q 2250 -91 1575 -91 
Q 1294 -91 989 -36 
Q 684 19 347 128 
L 347 722 
Q 666 556 975 473 
Q 1284 391 1588 391 
Q 1994 391 2212 530 
Q 2431 669 2431 922 
Q 2431 1156 2273 1281 
Q 2116 1406 1581 1522 
L 1381 1569 
Q 847 1681 609 1914 
Q 372 2147 372 2553 
Q 372 3047 722 3315 
Q 1072 3584 1716 3584 
Q 2034 3584 2315 3537 
Q 2597 3491 2834 3397 
z
" transform="scale(0.015625)"/>
       <path id="DejaVuSans-69" d="M 603 3500 
L 1178 3500 
L 1178 0 
L 603 0 
L 603 3500 
z
M 603 4863 
L 1178 4863 
L 1178 4134 
L 603 4134 
L 603 4863 
z
" transform="scale(0.015625)"/>
       <path id="DejaVuSans-6d" d="M 3328 2828 
Q 3544 3216 3844 3400 
Q 4144 3584 4550 3584 
Q 5097 3584 5394 3201 
Q 5691 2819 5691 2113 
L 5691 0 
L 5113 0 
L 5113 2094 
Q 5113 2597 4934 2840 
Q 4756 3084 4391 3084 
Q 3944 3084 3684 2787 
Q 3425 2491 3425 1978 
L 3425 0 
L 2847 0 
L 2847 2094 
Q 2847 2600 2669 2842 
Q 2491 3084 2119 3084 
Q 1678 3084 1418 2786 
Q 1159 2488 1159 1978 
L 1159 0 
L 581 0 
L 581 3500 
L 1159 3500 
L 1159 2956 
Q 1356 3278 1631 3431 
Q 1906 3584 2284 3584 
Q 2666 3584 2933 3390 
Q 3200 3197 3328 2828 
z
" transform="scale(0.015625)"/>
       <path id="DejaVuSans-3a" d="M 750 794 
L 1409 794 
L 1409 0 
L 750 0 
L 750 794 
z
M 750 3309 
L 1409 3309 
L 1409 2516 
L 750 2516 
L 750 3309 
z
" transform="scale(0.015625)"/>
       <path id="DejaVuSans-20" transform="scale(0.015625)"/>
       <path id="DejaVuSans-67" d="M 2906 1791 
Q 2906 2416 2648 2759 
Q 2391 3103 1925 3103 
Q 1463 3103 1205 2759 
Q 947 2416 947 1791 
Q 947 1169 1205 825 
Q 1463 481 1925 481 
Q 2391 481 2648 825 
Q 2906 1169 2906 1791 
z
M 3481 434 
Q 3481 -459 3084 -895 
Q 2688 -1331 1869 -1331 
Q 1566 -1331 1297 -1286 
Q 1028 -1241 775 -1147 
L 775 -588 
Q 1028 -725 1275 -790 
Q 1522 -856 1778 -856 
Q 2344 -856 2625 -561 
Q 2906 -266 2906 331 
L 2906 616 
Q 2728 306 2450 153 
Q 2172 0 1784 0 
Q 1141 0 747 490 
Q 353 981 353 1791 
Q 353 2603 747 3093 
Q 1141 3584 1784 3584 
Q 2172 3584 2450 3431 
Q 2728 3278 2906 2969 
L 2906 3500 
L 3481 3500 
L 3481 434 
z
" transform="scale(0.015625)"/>
       <path id="DejaVuSans-50" d="M 1259 4147 
L 1259 2394 
L 2053 2394 
Q 2494 2394 2734 2622 
Q 2975 2850 2975 3272 
Q 2975 3691 2734 3919 
Q 2494 4147 2053 4147 
L 1259 4147 
z
M 628 4666 
L 2053 4666 
Q 2838 4666 3239 4311 
Q 3641 3956 3641 3272 
Q 3641 2581 3239 2228 
Q 2838 1875 2053 1875 
L 1259 1875 
L 1259 0 
L 628 0 
L 628 4666 
z
" transform="scale(0.015625)"/>
       <path id="DejaVuSans-4f" d="M 2522 4238 
Q 1834 4238 1429 3725 
Q 1025 3213 1025 2328 
Q 1025 1447 1429 934 
Q 1834 422 2522 422 
Q 3209 422 3611 934 
Q 4013 1447 4013 2328 
Q 4013 3213 3611 3725 
Q 3209 4238 2522 4238 
z
M 2522 4750 
Q 3503 4750 4090 4092 
Q 4678 3434 4678 2328 
Q 4678 1225 4090 567 
Q 3503 -91 2522 -91 
Q 1538 -91 948 565 
Q 359 1222 359 2328 
Q 359 3434 948 4092 
Q 1538 4750 2522 4750 
z
" transform="scale(0.015625)"/>
      </defs>
      <use xlink:href="#DejaVuSans-73"/>
      <use xlink:href="#DejaVuSans-69" transform="translate(52.099609 0)"/>
      <use xlink:href="#DejaVuSans-6d" transform="translate(79.882812 0)"/>
      <use xlink:href="#DejaVuSans-3a" transform="translate(177.294922 0)"/>
      <use xlink:href="#DejaVuSans-20" transform="translate(210.986328 0)"/>
      <use xlink:href="#DejaVuSans-35" transform="translate(242.773438 0)"/>
      <use xlink:href="#DejaVuSans-6d" transform="translate(306.396484 0)"/>
      <use xlink:href="#DejaVuSans-67" transform="translate(403.808594 0)"/>
      <use xlink:href="#DejaVuSans-20" transform="translate(467.285156 0)"/>
      <use xlink:href="#DejaVuSans-50" transform="translate(499.072266 0)"/>
      <use xlink:href="#DejaVuSans-4f" transform="translate(559.375 0)"/>
     </g>
    </g>
    <g id="line2d_20"/>
    <g id="line2d_21">
     <g>
      <use xlink:href="#m88965866d3" x="84.315938" y="84.349531" style="fill: #ffffff; stroke: #7f7f7f"/>
     </g>
    </g>
    <g id="text_15">
     <!-- exp individ: 5mg PO (n=1) -->
     <g transform="translate(107.715937 88.899531) scale(0.13 -0.13)">
      <defs>
       <path id="DejaVuSans-65" d="M 3597 1894 
L 3597 1613 
L 953 1613 
Q 991 1019 1311 708 
Q 1631 397 2203 397 
Q 2534 397 2845 478 
Q 3156 559 3463 722 
L 3463 178 
Q 3153 47 2828 -22 
Q 2503 -91 2169 -91 
Q 1331 -91 842 396 
Q 353 884 353 1716 
Q 353 2575 817 3079 
Q 1281 3584 2069 3584 
Q 2775 3584 3186 3129 
Q 3597 2675 3597 1894 
z
M 3022 2063 
Q 3016 2534 2758 2815 
Q 2500 3097 2075 3097 
Q 1594 3097 1305 2825 
Q 1016 2553 972 2059 
L 3022 2063 
z
" transform="scale(0.015625)"/>
       <path id="DejaVuSans-78" d="M 3513 3500 
L 2247 1797 
L 3578 0 
L 2900 0 
L 1881 1375 
L 863 0 
L 184 0 
L 1544 1831 
L 300 3500 
L 978 3500 
L 1906 2253 
L 2834 3500 
L 3513 3500 
z
" transform="scale(0.015625)"/>
       <path id="DejaVuSans-70" d="M 1159 525 
L 1159 -1331 
L 581 -1331 
L 581 3500 
L 1159 3500 
L 1159 2969 
Q 1341 3281 1617 3432 
Q 1894 3584 2278 3584 
Q 2916 3584 3314 3078 
Q 3713 2572 3713 1747 
Q 3713 922 3314 415 
Q 2916 -91 2278 -91 
Q 1894 -91 1617 61 
Q 1341 213 1159 525 
z
M 3116 1747 
Q 3116 2381 2855 2742 
Q 2594 3103 2138 3103 
Q 1681 3103 1420 2742 
Q 1159 2381 1159 1747 
Q 1159 1113 1420 752 
Q 1681 391 2138 391 
Q 2594 391 2855 752 
Q 3116 1113 3116 1747 
z
" transform="scale(0.015625)"/>
       <path id="DejaVuSans-6e" d="M 3513 2113 
L 3513 0 
L 2938 0 
L 2938 2094 
Q 2938 2591 2744 2837 
Q 2550 3084 2163 3084 
Q 1697 3084 1428 2787 
Q 1159 2491 1159 1978 
L 1159 0 
L 581 0 
L 581 3500 
L 1159 3500 
L 1159 2956 
Q 1366 3272 1645 3428 
Q 1925 3584 2291 3584 
Q 2894 3584 3203 3211 
Q 3513 2838 3513 2113 
z
" transform="scale(0.015625)"/>
       <path id="DejaVuSans-64" d="M 2906 2969 
L 2906 4863 
L 3481 4863 
L 3481 0 
L 2906 0 
L 2906 525 
Q 2725 213 2448 61 
Q 2172 -91 1784 -91 
Q 1150 -91 751 415 
Q 353 922 353 1747 
Q 353 2572 751 3078 
Q 1150 3584 1784 3584 
Q 2172 3584 2448 3432 
Q 2725 3281 2906 2969 
z
M 947 1747 
Q 947 1113 1208 752 
Q 1469 391 1925 391 
Q 2381 391 2643 752 
Q 2906 1113 2906 1747 
Q 2906 2381 2643 2742 
Q 2381 3103 1925 3103 
Q 1469 3103 1208 2742 
Q 947 2381 947 1747 
z
" transform="scale(0.015625)"/>
       <path id="DejaVuSans-76" d="M 191 3500 
L 800 3500 
L 1894 563 
L 2988 3500 
L 3597 3500 
L 2284 0 
L 1503 0 
L 191 3500 
z
" transform="scale(0.015625)"/>
       <path id="DejaVuSans-28" d="M 1984 4856 
Q 1566 4138 1362 3434 
Q 1159 2731 1159 2009 
Q 1159 1288 1364 580 
Q 1569 -128 1984 -844 
L 1484 -844 
Q 1016 -109 783 600 
Q 550 1309 550 2009 
Q 550 2706 781 3412 
Q 1013 4119 1484 4856 
L 1984 4856 
z
" transform="scale(0.015625)"/>
       <path id="DejaVuSans-3d" d="M 678 2906 
L 4684 2906 
L 4684 2381 
L 678 2381 
L 678 2906 
z
M 678 1631 
L 4684 1631 
L 4684 1100 
L 678 1100 
L 678 1631 
z
" transform="scale(0.015625)"/>
       <path id="DejaVuSans-29" d="M 513 4856 
L 1013 4856 
Q 1481 4119 1714 3412 
Q 1947 2706 1947 2009 
Q 1947 1309 1714 600 
Q 1481 -109 1013 -844 
L 513 -844 
Q 928 -128 1133 580 
Q 1338 1288 1338 2009 
Q 1338 2731 1133 3434 
Q 928 4138 513 4856 
z
" transform="scale(0.015625)"/>
      </defs>
      <use xlink:href="#DejaVuSans-65"/>
      <use xlink:href="#DejaVuSans-78" transform="translate(59.773438 0)"/>
      <use xlink:href="#DejaVuSans-70" transform="translate(118.953125 0)"/>
      <use xlink:href="#DejaVuSans-20" transform="translate(182.429688 0)"/>
      <use xlink:href="#DejaVuSans-69" transform="translate(214.216797 0)"/>
      <use xlink:href="#DejaVuSans-6e" transform="translate(242 0)"/>
      <use xlink:href="#DejaVuSans-64" transform="translate(305.378906 0)"/>
      <use xlink:href="#DejaVuSans-69" transform="translate(368.855469 0)"/>
      <use xlink:href="#DejaVuSans-76" transform="translate(396.638672 0)"/>
      <use xlink:href="#DejaVuSans-69" transform="translate(455.818359 0)"/>
      <use xlink:href="#DejaVuSans-64" transform="translate(483.601562 0)"/>
      <use xlink:href="#DejaVuSans-3a" transform="translate(547.078125 0)"/>
      <use xlink:href="#DejaVuSans-20" transform="translate(580.769531 0)"/>
      <use xlink:href="#DejaVuSans-35" transform="translate(612.556641 0)"/>
      <use xlink:href="#DejaVuSans-6d" transform="translate(676.179688 0)"/>
      <use xlink:href="#DejaVuSans-67" transform="translate(773.591797 0)"/>
      <use xlink:href="#DejaVuSans-20" transform="translate(837.068359 0)"/>
      <use xlink:href="#DejaVuSans-50" transform="translate(868.855469 0)"/>
      <use xlink:href="#DejaVuSans-4f" transform="translate(929.158203 0)"/>
      <use xlink:href="#DejaVuSans-20" transform="translate(1007.869141 0)"/>
      <use xlink:href="#DejaVuSans-28" transform="translate(1039.65625 0)"/>
      <use xlink:href="#DejaVuSans-6e" transform="translate(1078.669922 0)"/>
      <use xlink:href="#DejaVuSans-3d" transform="translate(1142.048828 0)"/>
      <use xlink:href="#DejaVuSans-31" transform="translate(1225.837891 0)"/>
      <use xlink:href="#DejaVuSans-29" transform="translate(1289.460938 0)"/>
     </g>
    </g>
    <g id="line2d_22"/>
    <g id="line2d_23">
     <g>
      <use xlink:href="#m7fba8da8b6" x="84.315938" y="103.431094" style="fill: #ffffff; stroke: #74a9cf; stroke-linejoin: bevel"/>
     </g>
    </g>
    <g id="text_16">
     <!-- exp individ MiHI: 5mg PO (n=1) -->
     <g transform="translate(107.715937 107.981094) scale(0.13 -0.13)">
      <defs>
       <path id="DejaVuSans-4d" d="M 628 4666 
L 1569 4666 
L 2759 1491 
L 3956 4666 
L 4897 4666 
L 4897 0 
L 4281 0 
L 4281 4097 
L 3078 897 
L 2444 897 
L 1241 4097 
L 1241 0 
L 628 0 
L 628 4666 
z
" transform="scale(0.015625)"/>
       <path id="DejaVuSans-48" d="M 628 4666 
L 1259 4666 
L 1259 2753 
L 3553 2753 
L 3553 4666 
L 4184 4666 
L 4184 0 
L 3553 0 
L 3553 2222 
L 1259 2222 
L 1259 0 
L 628 0 
L 628 4666 
z
" transform="scale(0.015625)"/>
       <path id="DejaVuSans-49" d="M 628 4666 
L 1259 4666 
L 1259 0 
L 628 0 
L 628 4666 
z
" transform="scale(0.015625)"/>
      </defs>
      <use xlink:href="#DejaVuSans-65"/>
      <use xlink:href="#DejaVuSans-78" transform="translate(59.773438 0)"/>
      <use xlink:href="#DejaVuSans-70" transform="translate(118.953125 0)"/>
      <use xlink:href="#DejaVuSans-20" transform="translate(182.429688 0)"/>
      <use xlink:href="#DejaVuSans-69" transform="translate(214.216797 0)"/>
      <use xlink:href="#DejaVuSans-6e" transform="translate(242 0)"/>
      <use xlink:href="#DejaVuSans-64" transform="translate(305.378906 0)"/>
      <use xlink:href="#DejaVuSans-69" transform="translate(368.855469 0)"/>
      <use xlink:href="#DejaVuSans-76" transform="translate(396.638672 0)"/>
      <use xlink:href="#DejaVuSans-69" transform="translate(455.818359 0)"/>
      <use xlink:href="#DejaVuSans-64" transform="translate(483.601562 0)"/>
      <use xlink:href="#DejaVuSans-20" transform="translate(547.078125 0)"/>
      <use xlink:href="#DejaVuSans-4d" transform="translate(578.865234 0)"/>
      <use xlink:href="#DejaVuSans-69" transform="translate(665.144531 0)"/>
      <use xlink:href="#DejaVuSans-48" transform="translate(692.927734 0)"/>
      <use xlink:href="#DejaVuSans-49" transform="translate(768.123047 0)"/>
      <use xlink:href="#DejaVuSans-3a" transform="translate(797.615234 0)"/>
      <use xlink:href="#DejaVuSans-20" transform="translate(831.306641 0)"/>
      <use xlink:href="#DejaVuSans-35" transform="translate(863.09375 0)"/>
      <use xlink:href="#DejaVuSans-6d" transform="translate(926.716797 0)"/>
      <use xlink:href="#DejaVuSans-67" transform="translate(1024.128906 0)"/>
      <use xlink:href="#DejaVuSans-20" transform="translate(1087.605469 0)"/>
      <use xlink:href="#DejaVuSans-50" transform="translate(1119.392578 0)"/>
      <use xlink:href="#DejaVuSans-4f" transform="translate(1179.695312 0)"/>
      <use xlink:href="#DejaVuSans-20" transform="translate(1258.40625 0)"/>
      <use xlink:href="#DejaVuSans-28" transform="translate(1290.193359 0)"/>
      <use xlink:href="#DejaVuSans-6e" transform="translate(1329.207031 0)"/>
      <use xlink:href="#DejaVuSans-3d" transform="translate(1392.585938 0)"/>
      <use xlink:href="#DejaVuSans-31" transform="translate(1476.375 0)"/>
      <use xlink:href="#DejaVuSans-29" transform="translate(1539.998047 0)"/>
     </g>
    </g>
    <g id="line2d_24"/>
    <g id="line2d_25">
     <g>
      <use xlink:href="#m23eb6e4c63" x="84.315938" y="122.512656" style="fill: #ffffff; stroke: #2b8cbe; stroke-linejoin: miter"/>
     </g>
    </g>
    <g id="text_17">
     <!-- exp individ MoHI: 5mg PO (n=1) -->
     <g transform="translate(107.715937 127.062656) scale(0.13 -0.13)">
      <defs>
       <path id="DejaVuSans-6f" d="M 1959 3097 
Q 1497 3097 1228 2736 
Q 959 2375 959 1747 
Q 959 1119 1226 758 
Q 1494 397 1959 397 
Q 2419 397 2687 759 
Q 2956 1122 2956 1747 
Q 2956 2369 2687 2733 
Q 2419 3097 1959 3097 
z
M 1959 3584 
Q 2709 3584 3137 3096 
Q 3566 2609 3566 1747 
Q 3566 888 3137 398 
Q 2709 -91 1959 -91 
Q 1206 -91 779 398 
Q 353 888 353 1747 
Q 353 2609 779 3096 
Q 1206 3584 1959 3584 
z
" transform="scale(0.015625)"/>
      </defs>
      <use xlink:href="#DejaVuSans-65"/>
      <use xlink:href="#DejaVuSans-78" transform="translate(59.773438 0)"/>
      <use xlink:href="#DejaVuSans-70" transform="translate(118.953125 0)"/>
      <use xlink:href="#DejaVuSans-20" transform="translate(182.429688 0)"/>
      <use xlink:href="#DejaVuSans-69" transform="translate(214.216797 0)"/>
      <use xlink:href="#DejaVuSans-6e" transform="translate(242 0)"/>
      <use xlink:href="#DejaVuSans-64" transform="translate(305.378906 0)"/>
      <use xlink:href="#DejaVuSans-69" transform="translate(368.855469 0)"/>
      <use xlink:href="#DejaVuSans-76" transform="translate(396.638672 0)"/>
      <use xlink:href="#DejaVuSans-69" transform="translate(455.818359 0)"/>
      <use xlink:href="#DejaVuSans-64" transform="translate(483.601562 0)"/>
      <use xlink:href="#DejaVuSans-20" transform="translate(547.078125 0)"/>
      <use xlink:href="#DejaVuSans-4d" transform="translate(578.865234 0)"/>
      <use xlink:href="#DejaVuSans-6f" transform="translate(665.144531 0)"/>
      <use xlink:href="#DejaVuSans-48" transform="translate(726.326172 0)"/>
      <use xlink:href="#DejaVuSans-49" transform="translate(801.521484 0)"/>
      <use xlink:href="#DejaVuSans-3a" transform="translate(831.013672 0)"/>
      <use xlink:href="#DejaVuSans-20" transform="translate(864.705078 0)"/>
      <use xlink:href="#DejaVuSans-35" transform="translate(896.492188 0)"/>
      <use xlink:href="#DejaVuSans-6d" transform="translate(960.115234 0)"/>
      <use xlink:href="#DejaVuSans-67" transform="translate(1057.527344 0)"/>
      <use xlink:href="#DejaVuSans-20" transform="translate(1121.003906 0)"/>
      <use xlink:href="#DejaVuSans-50" transform="translate(1152.791016 0)"/>
      <use xlink:href="#DejaVuSans-4f" transform="translate(1213.09375 0)"/>
      <use xlink:href="#DejaVuSans-20" transform="translate(1291.804688 0)"/>
      <use xlink:href="#DejaVuSans-28" transform="translate(1323.591797 0)"/>
      <use xlink:href="#DejaVuSans-6e" transform="translate(1362.605469 0)"/>
      <use xlink:href="#DejaVuSans-3d" transform="translate(1425.984375 0)"/>
      <use xlink:href="#DejaVuSans-31" transform="translate(1509.773438 0)"/>
      <use xlink:href="#DejaVuSans-29" transform="translate(1573.396484 0)"/>
     </g>
    </g>
   </g>
  </g>
  <g id="text_18">
   <!-- Frost2021a -->
   <g transform="translate(161.356125 26.196094) scale(0.25 -0.25)">
    <defs>
     <path id="DejaVuSans-Bold-72" d="M 3138 2547 
Q 2991 2616 2845 2648 
Q 2700 2681 2553 2681 
Q 2122 2681 1889 2404 
Q 1656 2128 1656 1613 
L 1656 0 
L 538 0 
L 538 3500 
L 1656 3500 
L 1656 2925 
Q 1872 3269 2151 3426 
Q 2431 3584 2822 3584 
Q 2878 3584 2943 3579 
Q 3009 3575 3134 3559 
L 3138 2547 
z
" transform="scale(0.015625)"/>
     <path id="DejaVuSans-Bold-6f" d="M 2203 2784 
Q 1831 2784 1636 2517 
Q 1441 2250 1441 1747 
Q 1441 1244 1636 976 
Q 1831 709 2203 709 
Q 2569 709 2762 976 
Q 2956 1244 2956 1747 
Q 2956 2250 2762 2517 
Q 2569 2784 2203 2784 
z
M 2203 3584 
Q 3106 3584 3614 3096 
Q 4122 2609 4122 1747 
Q 4122 884 3614 396 
Q 3106 -91 2203 -91 
Q 1297 -91 786 396 
Q 275 884 275 1747 
Q 275 2609 786 3096 
Q 1297 3584 2203 3584 
z
" transform="scale(0.015625)"/>
     <path id="DejaVuSans-Bold-32" d="M 1844 884 
L 3897 884 
L 3897 0 
L 506 0 
L 506 884 
L 2209 2388 
Q 2438 2594 2547 2791 
Q 2656 2988 2656 3200 
Q 2656 3528 2436 3728 
Q 2216 3928 1850 3928 
Q 1569 3928 1234 3808 
Q 900 3688 519 3450 
L 519 4475 
Q 925 4609 1322 4679 
Q 1719 4750 2100 4750 
Q 2938 4750 3402 4381 
Q 3866 4013 3866 3353 
Q 3866 2972 3669 2642 
Q 3472 2313 2841 1759 
L 1844 884 
z
" transform="scale(0.015625)"/>
     <path id="DejaVuSans-Bold-30" d="M 2944 2338 
Q 2944 3213 2780 3570 
Q 2616 3928 2228 3928 
Q 1841 3928 1675 3570 
Q 1509 3213 1509 2338 
Q 1509 1453 1675 1090 
Q 1841 728 2228 728 
Q 2613 728 2778 1090 
Q 2944 1453 2944 2338 
z
M 4147 2328 
Q 4147 1169 3647 539 
Q 3147 -91 2228 -91 
Q 1306 -91 806 539 
Q 306 1169 306 2328 
Q 306 3491 806 4120 
Q 1306 4750 2228 4750 
Q 3147 4750 3647 4120 
Q 4147 3491 4147 2328 
z
" transform="scale(0.015625)"/>
     <path id="DejaVuSans-Bold-31" d="M 750 831 
L 1813 831 
L 1813 3847 
L 722 3622 
L 722 4441 
L 1806 4666 
L 2950 4666 
L 2950 831 
L 4013 831 
L 4013 0 
L 750 0 
L 750 831 
z
" transform="scale(0.015625)"/>
    </defs>
    <use xlink:href="#DejaVuSans-Bold-46"/>
    <use xlink:href="#DejaVuSans-Bold-72" transform="translate(61.935547 0)"/>
    <use xlink:href="#DejaVuSans-Bold-6f" transform="translate(111.251953 0)"/>
    <use xlink:href="#DejaVuSans-Bold-73" transform="translate(179.953125 0)"/>
    <use xlink:href="#DejaVuSans-Bold-74" transform="translate(239.474609 0)"/>
    <use xlink:href="#DejaVuSans-Bold-32" transform="translate(287.277344 0)"/>
    <use xlink:href="#DejaVuSans-Bold-30" transform="translate(356.857422 0)"/>
    <use xlink:href="#DejaVuSans-Bold-32" transform="translate(426.4375 0)"/>
    <use xlink:href="#DejaVuSans-Bold-31" transform="translate(496.017578 0)"/>
    <use xlink:href="#DejaVuSans-Bold-61" transform="translate(565.597656 0)"/>
   </g>
  </g>
 </g>
 <defs>
  <clipPath id="p5adeab3088">
   <rect x="59.615938" y="48.24" width="373.8042" height="316.008"/>
  </clipPath>
 </defs>
</svg>
