<?xml version="1.0" encoding="utf-8" standalone="no"?>
<!DOCTYPE svg PUBLIC "-//W3C//DTD SVG 1.1//EN"
  "http://www.w3.org/Graphics/SVG/1.1/DTD/svg11.dtd">
<svg xmlns:xlink="http://www.w3.org/1999/xlink" width="1439.443612pt" height="414.4055pt" viewBox="0 0 1439.443612 414.4055" xmlns="http://www.w3.org/2000/svg" version="1.1">
 <metadata>
  <rdf:RDF xmlns:dc="http://purl.org/dc/elements/1.1/" xmlns:cc="http://creativecommons.org/ns#" xmlns:rdf="http://www.w3.org/1999/02/22-rdf-syntax-ns#">
   <cc:Work>
    <dc:type rdf:resource="http://purl.org/dc/dcmitype/StillImage"/>
    <dc:date>2026-04-22T17:47:31.011799</dc:date>
    <dc:format>image/svg+xml</dc:format>
    <dc:creator>
     <cc:Agent>
      <dc:title>Matplotlib v3.10.8, https://matplotlib.org/</dc:title>
     </cc:Agent>
    </dc:creator>
   </cc:Work>
  </rdf:RDF>
 </metadata>
 <defs>
  <style type="text/css">*{stroke-linejoin: round; stroke-linecap: butt}</style>
 </defs>
 <g id="figure_1">
  <g id="patch_1">
   <path d="M 0 414.4055 
L 1439.443612 414.4055 
L 1439.443612 0 
L 0 0 
z
" style="fill: #ffffff"/>
  </g>
  <g id="axes_1">
   <g id="patch_2">
    <path d="M 64.251875 364.248 
L 440.204375 364.248 
L 440.204375 48.24 
L 64.251875 48.24 
z
" style="fill: #ffffff"/>
   </g>
   <g id="matplotlib.axis_1">
    <g id="xtick_1">
     <g id="line2d_1">
      <defs>
       <path id="ma20639b9c7" d="M 0 0 
L 0 3.5 
" style="stroke: #000000; stroke-width: 0.8"/>
      </defs>
      <g>
       <use xlink:href="#ma20639b9c7" x="113.133648" y="364.248" style="stroke: #000000; stroke-width: 0.8"/>
      </g>
     </g>
     <g id="text_1">
      <!-- −60 -->
      <g transform="translate(97.305133 382.645656) scale(0.15 -0.15)">
       <defs>
        <path id="DejaVuSans-2212" d="M 678 2272 
L 4684 2272 
L 4684 1741 
L 678 1741 
L 678 2272 
z
" transform="scale(0.015625)"/>
        <path id="DejaVuSans-36" d="M 2113 2584 
Q 1688 2584 1439 2293 
Q 1191 2003 1191 1497 
Q 1191 994 1439 701 
Q 1688 409 2113 409 
Q 2538 409 2786 701 
Q 3034 994 3034 1497 
Q 3034 2003 2786 2293 
Q 2538 2584 2113 2584 
z
M 3366 4563 
L 3366 3988 
Q 3128 4100 2886 4159 
Q 2644 4219 2406 4219 
Q 1781 4219 1451 3797 
Q 1122 3375 1075 2522 
Q 1259 2794 1537 2939 
Q 1816 3084 2150 3084 
Q 2853 3084 3261 2657 
Q 3669 2231 3669 1497 
Q 3669 778 3244 343 
Q 2819 -91 2113 -91 
Q 1303 -91 875 529 
Q 447 1150 447 2328 
Q 447 3434 972 4092 
Q 1497 4750 2381 4750 
Q 2619 4750 2861 4703 
Q 3103 4656 3366 4563 
z
" transform="scale(0.015625)"/>
        <path id="DejaVuSans-30" d="M 2034 4250 
Q 1547 4250 1301 3770 
Q 1056 3291 1056 2328 
Q 1056 1369 1301 889 
Q 1547 409 2034 409 
Q 2525 409 2770 889 
Q 3016 1369 3016 2328 
Q 3016 3291 2770 3770 
Q 2525 4250 2034 4250 
z
M 2034 4750 
Q 2819 4750 3233 4129 
Q 3647 3509 3647 2328 
Q 3647 1150 3233 529 
Q 2819 -91 2034 -91 
Q 1250 -91 836 529 
Q 422 1150 422 2328 
Q 422 3509 836 4129 
Q 1250 4750 2034 4750 
z
" transform="scale(0.015625)"/>
       </defs>
       <use xlink:href="#DejaVuSans-2212"/>
       <use xlink:href="#DejaVuSans-36" transform="translate(83.789062 0)"/>
       <use xlink:href="#DejaVuSans-30" transform="translate(147.412109 0)"/>
      </g>
     </g>
    </g>
    <g id="xtick_2">
     <g id="line2d_2">
      <g>
       <use xlink:href="#ma20639b9c7" x="166.12202" y="364.248" style="stroke: #000000; stroke-width: 0.8"/>
      </g>
     </g>
     <g id="text_2">
      <!-- −40 -->
      <g transform="translate(150.293505 382.645656) scale(0.15 -0.15)">
       <defs>
        <path id="DejaVuSans-34" d="M 2419 4116 
L 825 1625 
L 2419 1625 
L 2419 4116 
z
M 2253 4666 
L 3047 4666 
L 3047 1625 
L 3713 1625 
L 3713 1100 
L 3047 1100 
L 3047 0 
L 2419 0 
L 2419 1100 
L 313 1100 
L 313 1709 
L 2253 4666 
z
" transform="scale(0.015625)"/>
       </defs>
       <use xlink:href="#DejaVuSans-2212"/>
       <use xlink:href="#DejaVuSans-34" transform="translate(83.789062 0)"/>
       <use xlink:href="#DejaVuSans-30" transform="translate(147.412109 0)"/>
      </g>
     </g>
    </g>
    <g id="xtick_3">
     <g id="line2d_3">
      <g>
       <use xlink:href="#ma20639b9c7" x="219.110392" y="364.248" style="stroke: #000000; stroke-width: 0.8"/>
      </g>
     </g>
     <g id="text_3">
      <!-- −20 -->
      <g transform="translate(203.281877 382.645656) scale(0.15 -0.15)">
       <defs>
        <path id="DejaVuSans-32" d="M 1228 531 
L 3431 531 
L 3431 0 
L 469 0 
L 469 531 
Q 828 903 1448 1529 
Q 2069 2156 2228 2338 
Q 2531 2678 2651 2914 
Q 2772 3150 2772 3378 
Q 2772 3750 2511 3984 
Q 2250 4219 1831 4219 
Q 1534 4219 1204 4116 
Q 875 4013 500 3803 
L 500 4441 
Q 881 4594 1212 4672 
Q 1544 4750 1819 4750 
Q 2544 4750 2975 4387 
Q 3406 4025 3406 3419 
Q 3406 3131 3298 2873 
Q 3191 2616 2906 2266 
Q 2828 2175 2409 1742 
Q 1991 1309 1228 531 
z
" transform="scale(0.015625)"/>
       </defs>
       <use xlink:href="#DejaVuSans-2212"/>
       <use xlink:href="#DejaVuSans-32" transform="translate(83.789062 0)"/>
       <use xlink:href="#DejaVuSans-30" transform="translate(147.412109 0)"/>
      </g>
     </g>
    </g>
    <g id="xtick_4">
     <g id="line2d_4">
      <g>
       <use xlink:href="#ma20639b9c7" x="272.098765" y="364.248" style="stroke: #000000; stroke-width: 0.8"/>
      </g>
     </g>
     <g id="text_4">
      <!-- 0 -->
      <g transform="translate(267.32689 382.645656) scale(0.15 -0.15)">
       <use xlink:href="#DejaVuSans-30"/>
      </g>
     </g>
    </g>
    <g id="xtick_5">
     <g id="line2d_5">
      <g>
       <use xlink:href="#ma20639b9c7" x="325.087137" y="364.248" style="stroke: #000000; stroke-width: 0.8"/>
      </g>
     </g>
     <g id="text_5">
      <!-- 20 -->
      <g transform="translate(315.543387 382.645656) scale(0.15 -0.15)">
       <use xlink:href="#DejaVuSans-32"/>
       <use xlink:href="#DejaVuSans-30" transform="translate(63.623047 0)"/>
      </g>
     </g>
    </g>
    <g id="xtick_6">
     <g id="line2d_6">
      <g>
       <use xlink:href="#ma20639b9c7" x="378.075509" y="364.248" style="stroke: #000000; stroke-width: 0.8"/>
      </g>
     </g>
     <g id="text_6">
      <!-- 40 -->
      <g transform="translate(368.531759 382.645656) scale(0.15 -0.15)">
       <use xlink:href="#DejaVuSans-34"/>
       <use xlink:href="#DejaVuSans-30" transform="translate(63.623047 0)"/>
      </g>
     </g>
    </g>
    <g id="xtick_7">
     <g id="line2d_7">
      <g>
       <use xlink:href="#ma20639b9c7" x="431.063881" y="364.248" style="stroke: #000000; stroke-width: 0.8"/>
      </g>
     </g>
     <g id="text_7">
      <!-- 60 -->
      <g transform="translate(421.520131 382.645656) scale(0.15 -0.15)">
       <use xlink:href="#DejaVuSans-36"/>
       <use xlink:href="#DejaVuSans-30" transform="translate(63.623047 0)"/>
      </g>
     </g>
    </g>
    <g id="text_8">
     <!-- time [hr] -->
     <g transform="translate(207.153594 403.442375) scale(0.18 -0.18)">
      <defs>
       <path id="DejaVuSans-Bold-74" d="M 1759 4494 
L 1759 3500 
L 2913 3500 
L 2913 2700 
L 1759 2700 
L 1759 1216 
Q 1759 972 1856 886 
Q 1953 800 2241 800 
L 2816 800 
L 2816 0 
L 1856 0 
Q 1194 0 917 276 
Q 641 553 641 1216 
L 641 2700 
L 84 2700 
L 84 3500 
L 641 3500 
L 641 4494 
L 1759 4494 
z
" transform="scale(0.015625)"/>
       <path id="DejaVuSans-Bold-69" d="M 538 3500 
L 1656 3500 
L 1656 0 
L 538 0 
L 538 3500 
z
M 538 4863 
L 1656 4863 
L 1656 3950 
L 538 3950 
L 538 4863 
z
" transform="scale(0.015625)"/>
       <path id="DejaVuSans-Bold-6d" d="M 3781 2919 
Q 3994 3244 4286 3414 
Q 4578 3584 4928 3584 
Q 5531 3584 5847 3212 
Q 6163 2841 6163 2131 
L 6163 0 
L 5038 0 
L 5038 1825 
Q 5041 1866 5042 1909 
Q 5044 1953 5044 2034 
Q 5044 2406 4934 2573 
Q 4825 2741 4581 2741 
Q 4263 2741 4089 2478 
Q 3916 2216 3909 1719 
L 3909 0 
L 2784 0 
L 2784 1825 
Q 2784 2406 2684 2573 
Q 2584 2741 2328 2741 
Q 2006 2741 1831 2477 
Q 1656 2213 1656 1722 
L 1656 0 
L 531 0 
L 531 3500 
L 1656 3500 
L 1656 2988 
Q 1863 3284 2130 3434 
Q 2397 3584 2719 3584 
Q 3081 3584 3359 3409 
Q 3638 3234 3781 2919 
z
" transform="scale(0.015625)"/>
       <path id="DejaVuSans-Bold-65" d="M 4031 1759 
L 4031 1441 
L 1416 1441 
Q 1456 1047 1700 850 
Q 1944 653 2381 653 
Q 2734 653 3104 758 
Q 3475 863 3866 1075 
L 3866 213 
Q 3469 63 3072 -14 
Q 2675 -91 2278 -91 
Q 1328 -91 801 392 
Q 275 875 275 1747 
Q 275 2603 792 3093 
Q 1309 3584 2216 3584 
Q 3041 3584 3536 3087 
Q 4031 2591 4031 1759 
z
M 2881 2131 
Q 2881 2450 2695 2645 
Q 2509 2841 2209 2841 
Q 1884 2841 1681 2658 
Q 1478 2475 1428 2131 
L 2881 2131 
z
" transform="scale(0.015625)"/>
       <path id="DejaVuSans-Bold-20" transform="scale(0.015625)"/>
       <path id="DejaVuSans-Bold-5b" d="M 550 4863 
L 2491 4863 
L 2491 4159 
L 1613 4159 
L 1613 -141 
L 2491 -141 
L 2491 -844 
L 550 -844 
L 550 4863 
z
" transform="scale(0.015625)"/>
       <path id="DejaVuSans-Bold-68" d="M 4056 2131 
L 4056 0 
L 2931 0 
L 2931 347 
L 2931 1625 
Q 2931 2084 2911 2256 
Q 2891 2428 2841 2509 
Q 2775 2619 2662 2680 
Q 2550 2741 2406 2741 
Q 2056 2741 1856 2470 
Q 1656 2200 1656 1722 
L 1656 0 
L 538 0 
L 538 4863 
L 1656 4863 
L 1656 2988 
Q 1909 3294 2193 3439 
Q 2478 3584 2822 3584 
Q 3428 3584 3742 3212 
Q 4056 2841 4056 2131 
z
" transform="scale(0.015625)"/>
       <path id="DejaVuSans-Bold-72" d="M 3138 2547 
Q 2991 2616 2845 2648 
Q 2700 2681 2553 2681 
Q 2122 2681 1889 2404 
Q 1656 2128 1656 1613 
L 1656 0 
L 538 0 
L 538 3500 
L 1656 3500 
L 1656 2925 
Q 1872 3269 2151 3426 
Q 2431 3584 2822 3584 
Q 2878 3584 2943 3579 
Q 3009 3575 3134 3559 
L 3138 2547 
z
" transform="scale(0.015625)"/>
       <path id="DejaVuSans-Bold-5d" d="M 2375 -844 
L 434 -844 
L 434 -141 
L 1313 -141 
L 1313 4159 
L 434 4159 
L 434 4863 
L 2375 4863 
L 2375 -844 
z
" transform="scale(0.015625)"/>
      </defs>
      <use xlink:href="#DejaVuSans-Bold-74"/>
      <use xlink:href="#DejaVuSans-Bold-69" transform="translate(47.802734 0)"/>
      <use xlink:href="#DejaVuSans-Bold-6d" transform="translate(82.080078 0)"/>
      <use xlink:href="#DejaVuSans-Bold-65" transform="translate(186.279297 0)"/>
      <use xlink:href="#DejaVuSans-Bold-20" transform="translate(254.101562 0)"/>
      <use xlink:href="#DejaVuSans-Bold-5b" transform="translate(288.916016 0)"/>
      <use xlink:href="#DejaVuSans-Bold-68" transform="translate(334.619141 0)"/>
      <use xlink:href="#DejaVuSans-Bold-72" transform="translate(405.810547 0)"/>
      <use xlink:href="#DejaVuSans-Bold-5d" transform="translate(455.126953 0)"/>
     </g>
    </g>
   </g>
   <g id="matplotlib.axis_2">
    <g id="ytick_1">
     <g id="line2d_8">
      <defs>
       <path id="m4e2cd51513" d="M 0 0 
L -3.5 0 
" style="stroke: #000000; stroke-width: 0.8"/>
      </defs>
      <g>
       <use xlink:href="#m4e2cd51513" x="64.251875" y="349.884" style="stroke: #000000; stroke-width: 0.8"/>
      </g>
     </g>
     <g id="text_9">
      <!-- 0 -->
      <g transform="translate(47.708125 355.582828) scale(0.15 -0.15)">
       <use xlink:href="#DejaVuSans-30"/>
      </g>
     </g>
    </g>
    <g id="ytick_2">
     <g id="line2d_9">
      <g>
       <use xlink:href="#m4e2cd51513" x="64.251875" y="310.731918" style="stroke: #000000; stroke-width: 0.8"/>
      </g>
     </g>
     <g id="text_10">
      <!-- 25 -->
      <g transform="translate(38.164375 316.430746) scale(0.15 -0.15)">
       <defs>
        <path id="DejaVuSans-35" d="M 691 4666 
L 3169 4666 
L 3169 4134 
L 1269 4134 
L 1269 2991 
Q 1406 3038 1543 3061 
Q 1681 3084 1819 3084 
Q 2600 3084 3056 2656 
Q 3513 2228 3513 1497 
Q 3513 744 3044 326 
Q 2575 -91 1722 -91 
Q 1428 -91 1123 -41 
Q 819 9 494 109 
L 494 744 
Q 775 591 1075 516 
Q 1375 441 1709 441 
Q 2250 441 2565 725 
Q 2881 1009 2881 1497 
Q 2881 1984 2565 2268 
Q 2250 2553 1709 2553 
Q 1456 2553 1204 2497 
Q 953 2441 691 2322 
L 691 4666 
z
" transform="scale(0.015625)"/>
       </defs>
       <use xlink:href="#DejaVuSans-32"/>
       <use xlink:href="#DejaVuSans-35" transform="translate(63.623047 0)"/>
      </g>
     </g>
    </g>
    <g id="ytick_3">
     <g id="line2d_10">
      <g>
       <use xlink:href="#m4e2cd51513" x="64.251875" y="271.579836" style="stroke: #000000; stroke-width: 0.8"/>
      </g>
     </g>
     <g id="text_11">
      <!-- 50 -->
      <g transform="translate(38.164375 277.278664) scale(0.15 -0.15)">
       <use xlink:href="#DejaVuSans-35"/>
       <use xlink:href="#DejaVuSans-30" transform="translate(63.623047 0)"/>
      </g>
     </g>
    </g>
    <g id="ytick_4">
     <g id="line2d_11">
      <g>
       <use xlink:href="#m4e2cd51513" x="64.251875" y="232.427754" style="stroke: #000000; stroke-width: 0.8"/>
      </g>
     </g>
     <g id="text_12">
      <!-- 75 -->
      <g transform="translate(38.164375 238.126582) scale(0.15 -0.15)">
       <defs>
        <path id="DejaVuSans-37" d="M 525 4666 
L 3525 4666 
L 3525 4397 
L 1831 0 
L 1172 0 
L 2766 4134 
L 525 4134 
L 525 4666 
z
" transform="scale(0.015625)"/>
       </defs>
       <use xlink:href="#DejaVuSans-37"/>
       <use xlink:href="#DejaVuSans-35" transform="translate(63.623047 0)"/>
      </g>
     </g>
    </g>
    <g id="ytick_5">
     <g id="line2d_12">
      <g>
       <use xlink:href="#m4e2cd51513" x="64.251875" y="193.275672" style="stroke: #000000; stroke-width: 0.8"/>
      </g>
     </g>
     <g id="text_13">
      <!-- 100 -->
      <g transform="translate(28.620625 198.9745) scale(0.15 -0.15)">
       <defs>
        <path id="DejaVuSans-31" d="M 794 531 
L 1825 531 
L 1825 4091 
L 703 3866 
L 703 4441 
L 1819 4666 
L 2450 4666 
L 2450 531 
L 3481 531 
L 3481 0 
L 794 0 
L 794 531 
z
" transform="scale(0.015625)"/>
       </defs>
       <use xlink:href="#DejaVuSans-31"/>
       <use xlink:href="#DejaVuSans-30" transform="translate(63.623047 0)"/>
       <use xlink:href="#DejaVuSans-30" transform="translate(127.246094 0)"/>
      </g>
     </g>
    </g>
    <g id="ytick_6">
     <g id="line2d_13">
      <g>
       <use xlink:href="#m4e2cd51513" x="64.251875" y="154.12359" style="stroke: #000000; stroke-width: 0.8"/>
      </g>
     </g>
     <g id="text_14">
      <!-- 125 -->
      <g transform="translate(28.620625 159.822418) scale(0.15 -0.15)">
       <use xlink:href="#DejaVuSans-31"/>
       <use xlink:href="#DejaVuSans-32" transform="translate(63.623047 0)"/>
       <use xlink:href="#DejaVuSans-35" transform="translate(127.246094 0)"/>
      </g>
     </g>
    </g>
    <g id="ytick_7">
     <g id="line2d_14">
      <g>
       <use xlink:href="#m4e2cd51513" x="64.251875" y="114.971507" style="stroke: #000000; stroke-width: 0.8"/>
      </g>
     </g>
     <g id="text_15">
      <!-- 150 -->
      <g transform="translate(28.620625 120.670336) scale(0.15 -0.15)">
       <use xlink:href="#DejaVuSans-31"/>
       <use xlink:href="#DejaVuSans-35" transform="translate(63.623047 0)"/>
       <use xlink:href="#DejaVuSans-30" transform="translate(127.246094 0)"/>
      </g>
     </g>
    </g>
    <g id="ytick_8">
     <g id="line2d_15">
      <g>
       <use xlink:href="#m4e2cd51513" x="64.251875" y="75.819425" style="stroke: #000000; stroke-width: 0.8"/>
      </g>
     </g>
     <g id="text_16">
      <!-- 175 -->
      <g transform="translate(28.620625 81.518253) scale(0.15 -0.15)">
       <use xlink:href="#DejaVuSans-31"/>
       <use xlink:href="#DejaVuSans-37" transform="translate(63.623047 0)"/>
       <use xlink:href="#DejaVuSans-35" transform="translate(127.246094 0)"/>
      </g>
     </g>
    </g>
    <g id="text_17">
     <!-- apixaban plasma [nM] -->
     <g transform="translate(20.877188 318.911344) rotate(-90) scale(0.18 -0.18)">
      <defs>
       <path id="DejaVuSans-Bold-61" d="M 2106 1575 
Q 1756 1575 1579 1456 
Q 1403 1338 1403 1106 
Q 1403 894 1545 773 
Q 1688 653 1941 653 
Q 2256 653 2472 879 
Q 2688 1106 2688 1447 
L 2688 1575 
L 2106 1575 
z
M 3816 1997 
L 3816 0 
L 2688 0 
L 2688 519 
Q 2463 200 2181 54 
Q 1900 -91 1497 -91 
Q 953 -91 614 226 
Q 275 544 275 1050 
Q 275 1666 698 1953 
Q 1122 2241 2028 2241 
L 2688 2241 
L 2688 2328 
Q 2688 2594 2478 2717 
Q 2269 2841 1825 2841 
Q 1466 2841 1156 2769 
Q 847 2697 581 2553 
L 581 3406 
Q 941 3494 1303 3539 
Q 1666 3584 2028 3584 
Q 2975 3584 3395 3211 
Q 3816 2838 3816 1997 
z
" transform="scale(0.015625)"/>
       <path id="DejaVuSans-Bold-70" d="M 1656 506 
L 1656 -1331 
L 538 -1331 
L 538 3500 
L 1656 3500 
L 1656 2988 
Q 1888 3294 2169 3439 
Q 2450 3584 2816 3584 
Q 3463 3584 3878 3070 
Q 4294 2556 4294 1747 
Q 4294 938 3878 423 
Q 3463 -91 2816 -91 
Q 2450 -91 2169 54 
Q 1888 200 1656 506 
z
M 2400 2772 
Q 2041 2772 1848 2508 
Q 1656 2244 1656 1747 
Q 1656 1250 1848 986 
Q 2041 722 2400 722 
Q 2759 722 2948 984 
Q 3138 1247 3138 1747 
Q 3138 2247 2948 2509 
Q 2759 2772 2400 2772 
z
" transform="scale(0.015625)"/>
       <path id="DejaVuSans-Bold-78" d="M 1422 1791 
L 159 3500 
L 1344 3500 
L 2059 2463 
L 2784 3500 
L 3969 3500 
L 2706 1797 
L 4031 0 
L 2847 0 
L 2059 1106 
L 1281 0 
L 97 0 
L 1422 1791 
z
" transform="scale(0.015625)"/>
       <path id="DejaVuSans-Bold-62" d="M 2400 722 
Q 2759 722 2948 984 
Q 3138 1247 3138 1747 
Q 3138 2247 2948 2509 
Q 2759 2772 2400 2772 
Q 2041 2772 1848 2508 
Q 1656 2244 1656 1747 
Q 1656 1250 1848 986 
Q 2041 722 2400 722 
z
M 1656 2988 
Q 1888 3294 2169 3439 
Q 2450 3584 2816 3584 
Q 3463 3584 3878 3070 
Q 4294 2556 4294 1747 
Q 4294 938 3878 423 
Q 3463 -91 2816 -91 
Q 2450 -91 2169 54 
Q 1888 200 1656 506 
L 1656 0 
L 538 0 
L 538 4863 
L 1656 4863 
L 1656 2988 
z
" transform="scale(0.015625)"/>
       <path id="DejaVuSans-Bold-6e" d="M 4056 2131 
L 4056 0 
L 2931 0 
L 2931 347 
L 2931 1631 
Q 2931 2084 2911 2256 
Q 2891 2428 2841 2509 
Q 2775 2619 2662 2680 
Q 2550 2741 2406 2741 
Q 2056 2741 1856 2470 
Q 1656 2200 1656 1722 
L 1656 0 
L 538 0 
L 538 3500 
L 1656 3500 
L 1656 2988 
Q 1909 3294 2193 3439 
Q 2478 3584 2822 3584 
Q 3428 3584 3742 3212 
Q 4056 2841 4056 2131 
z
" transform="scale(0.015625)"/>
       <path id="DejaVuSans-Bold-6c" d="M 538 4863 
L 1656 4863 
L 1656 0 
L 538 0 
L 538 4863 
z
" transform="scale(0.015625)"/>
       <path id="DejaVuSans-Bold-73" d="M 3272 3391 
L 3272 2541 
Q 2913 2691 2578 2766 
Q 2244 2841 1947 2841 
Q 1628 2841 1473 2761 
Q 1319 2681 1319 2516 
Q 1319 2381 1436 2309 
Q 1553 2238 1856 2203 
L 2053 2175 
Q 2913 2066 3209 1816 
Q 3506 1566 3506 1031 
Q 3506 472 3093 190 
Q 2681 -91 1863 -91 
Q 1516 -91 1145 -36 
Q 775 19 384 128 
L 384 978 
Q 719 816 1070 734 
Q 1422 653 1784 653 
Q 2113 653 2278 743 
Q 2444 834 2444 1013 
Q 2444 1163 2330 1236 
Q 2216 1309 1875 1350 
L 1678 1375 
Q 931 1469 631 1722 
Q 331 1975 331 2491 
Q 331 3047 712 3315 
Q 1094 3584 1881 3584 
Q 2191 3584 2531 3537 
Q 2872 3491 3272 3391 
z
" transform="scale(0.015625)"/>
       <path id="DejaVuSans-Bold-4d" d="M 588 4666 
L 2119 4666 
L 3181 2169 
L 4250 4666 
L 5778 4666 
L 5778 0 
L 4641 0 
L 4641 3413 
L 3566 897 
L 2803 897 
L 1728 3413 
L 1728 0 
L 588 0 
L 588 4666 
z
" transform="scale(0.015625)"/>
      </defs>
      <use xlink:href="#DejaVuSans-Bold-61"/>
      <use xlink:href="#DejaVuSans-Bold-70" transform="translate(67.480469 0)"/>
      <use xlink:href="#DejaVuSans-Bold-69" transform="translate(139.0625 0)"/>
      <use xlink:href="#DejaVuSans-Bold-78" transform="translate(173.339844 0)"/>
      <use xlink:href="#DejaVuSans-Bold-61" transform="translate(237.841797 0)"/>
      <use xlink:href="#DejaVuSans-Bold-62" transform="translate(305.322266 0)"/>
      <use xlink:href="#DejaVuSans-Bold-61" transform="translate(376.904297 0)"/>
      <use xlink:href="#DejaVuSans-Bold-6e" transform="translate(444.384766 0)"/>
      <use xlink:href="#DejaVuSans-Bold-20" transform="translate(515.576172 0)"/>
      <use xlink:href="#DejaVuSans-Bold-70" transform="translate(550.390625 0)"/>
      <use xlink:href="#DejaVuSans-Bold-6c" transform="translate(621.972656 0)"/>
      <use xlink:href="#DejaVuSans-Bold-61" transform="translate(656.25 0)"/>
      <use xlink:href="#DejaVuSans-Bold-73" transform="translate(723.730469 0)"/>
      <use xlink:href="#DejaVuSans-Bold-6d" transform="translate(783.251953 0)"/>
      <use xlink:href="#DejaVuSans-Bold-61" transform="translate(887.451172 0)"/>
      <use xlink:href="#DejaVuSans-Bold-20" transform="translate(954.931641 0)"/>
      <use xlink:href="#DejaVuSans-Bold-5b" transform="translate(989.746094 0)"/>
      <use xlink:href="#DejaVuSans-Bold-6e" transform="translate(1035.449219 0)"/>
      <use xlink:href="#DejaVuSans-Bold-4d" transform="translate(1106.640625 0)"/>
      <use xlink:href="#DejaVuSans-Bold-5d" transform="translate(1206.152344 0)"/>
     </g>
    </g>
   </g>
   <g id="LineCollection_1">
    <path clip-path="url(#p4ea12495cf)" style="fill: none; stroke: #000000"/>
    <path clip-path="url(#p4ea12495cf)" style="fill: none; stroke: #000000"/>
    <path clip-path="url(#p4ea12495cf)" style="fill: none; stroke: #000000"/>
    <path clip-path="url(#p4ea12495cf)" style="fill: none; stroke: #000000"/>
    <path clip-path="url(#p4ea12495cf)" style="fill: none; stroke: #000000"/>
    <path clip-path="url(#p4ea12495cf)" style="fill: none; stroke: #000000"/>
    <path clip-path="url(#p4ea12495cf)" style="fill: none; stroke: #000000"/>
    <path clip-path="url(#p4ea12495cf)" style="fill: none; stroke: #000000"/>
    <path clip-path="url(#p4ea12495cf)" style="fill: none; stroke: #000000"/>
    <path clip-path="url(#p4ea12495cf)" style="fill: none; stroke: #000000"/>
    <path clip-path="url(#p4ea12495cf)" style="fill: none; stroke: #000000"/>
    <path clip-path="url(#p4ea12495cf)" style="fill: none; stroke: #000000"/>
    <path clip-path="url(#p4ea12495cf)" style="fill: none; stroke: #000000"/>
    <path clip-path="url(#p4ea12495cf)" style="fill: none; stroke: #000000"/>
    <path clip-path="url(#p4ea12495cf)" style="fill: none; stroke: #000000"/>
    <path clip-path="url(#p4ea12495cf)" style="fill: none; stroke: #000000"/>
    <path clip-path="url(#p4ea12495cf)" style="fill: none; stroke: #000000"/>
    <path clip-path="url(#p4ea12495cf)" style="fill: none; stroke: #000000"/>
    <path clip-path="url(#p4ea12495cf)" style="fill: none; stroke: #000000"/>
    <path clip-path="url(#p4ea12495cf)" style="fill: none; stroke: #000000"/>
    <path clip-path="url(#p4ea12495cf)" style="fill: none; stroke: #000000"/>
    <path clip-path="url(#p4ea12495cf)" style="fill: none; stroke: #000000"/>
   </g>
   <g id="line2d_16">
    <path d="M 81.340625 349.884 
L 81.467797 343.067541 
L 82.167244 307.211186 
L 82.86669 281.763101 
L 83.566137 263.898203 
L 84.23379 252.065499 
L 84.901444 244.007923 
L 85.505511 239.155567 
L 86.077785 236.178728 
L 86.586474 234.558242 
L 87.031576 233.76731 
L 87.413092 233.468258 
L 87.762816 233.449798 
L 88.144332 233.663712 
L 88.621227 234.214466 
L 89.257088 235.333416 
L 90.115499 237.346253 
L 91.355427 240.883906 
L 93.612732 248.126065 
L 97.777618 261.418475 
L 100.511818 269.362552 
L 103.150639 276.352026 
L 105.757667 282.638604 
L 108.396488 288.428515 
L 111.067102 293.756202 
L 113.133648 297.54472 
L 113.133648 297.54472 
L 113.26082 291.645687 
L 113.960267 260.651075 
L 114.659713 238.976612 
L 115.327367 224.64252 
L 115.963227 215.282689 
L 116.567295 209.311356 
L 117.139569 205.655473 
L 117.648258 203.67288 
L 118.09336 202.712921 
L 118.474876 202.358431 
L 118.792806 202.339216 
L 119.14253 202.563933 
L 119.587632 203.162181 
L 120.159906 204.343746 
L 120.954732 206.555739 
L 122.067488 210.38002 
L 123.911483 217.633487 
L 129.34809 239.348997 
L 132.050497 249.059911 
L 134.657525 257.617244 
L 137.264553 265.424771 
L 139.871581 272.545031 
L 142.510402 279.116218 
L 144.926672 284.623291 
L 144.926672 284.623291 
L 145.053844 278.777253 
L 145.75329 248.070256 
L 146.452737 226.676978 
L 147.12039 212.605426 
L 147.756251 203.49042 
L 148.360318 197.747057 
L 148.932592 194.303078 
L 149.441281 192.505582 
L 149.85459 191.741598 
L 150.204313 191.495606 
L 150.522244 191.540983 
L 150.871967 191.84296 
L 151.317069 192.547267 
L 151.921137 193.960526 
L 152.747755 196.520169 
L 153.924097 200.954789 
L 155.990644 209.765925 
L 160.664218 229.775936 
L 163.398418 240.40692 
L 166.037239 249.780438 
L 168.644267 258.230545 
L 171.251295 265.940615 
L 173.890116 273.059051 
L 176.56073 279.626386 
L 176.719695 279.998429 
L 176.719695 279.998429 
L 176.846867 274.17136 
L 177.546313 243.567305 
L 178.24576 222.274669 
L 178.913413 208.297084 
L 179.549274 199.269706 
L 180.153341 193.607938 
L 180.693823 190.384229 
L 181.202511 188.587193 
L 181.61582 187.833041 
L 181.965544 187.600779 
L 182.283474 187.662254 
L 182.633197 187.985307 
L 183.110092 188.785341 
L 183.745953 190.361651 
L 184.604365 193.15543 
L 185.844292 198.026905 
L 188.13339 208.104078 
L 192.266483 226.201178 
L 195.000683 237.134123 
L 197.639504 246.778962 
L 200.246532 255.475928 
L 202.85356 263.412562 
L 205.492381 270.741124 
L 208.131202 277.426194 
L 208.512718 278.343088 
L 208.512718 278.343088 
L 208.63989 272.522808 
L 209.339337 241.955598 
L 210.038783 220.698984 
L 210.706437 206.755032 
L 211.342297 197.759018 
L 211.946365 192.126455 
L 212.486846 188.928398 
L 212.963741 187.235939 
L 213.377051 186.456966 
L 213.726774 186.20955 
L 214.044704 186.261197 
L 214.394427 186.577165 
L 214.83953 187.308284 
L 215.443597 188.77082 
L 216.270216 191.415541 
L 217.478351 196.126197 
L 219.57669 205.373624 
L 224.154885 225.600037 
L 226.889085 236.584066 
L 229.527906 246.271986 
L 232.134934 255.007742 
L 234.741962 262.980203 
L 237.380783 270.342364 
L 240.019604 277.058566 
L 240.305741 277.750605 
L 240.305741 277.750605 
L 240.432913 271.932755 
L 241.13236 241.378733 
L 241.831806 220.135011 
L 242.49946 206.203098 
L 243.13532 197.21831 
L 243.739388 191.596199 
L 244.279869 188.407324 
L 244.756765 186.722834 
L 245.170074 185.950669 
L 245.519797 185.708942 
L 245.837727 185.765706 
L 246.187451 186.087242 
L 246.632553 186.825359 
L 247.23662 188.29723 
L 248.063239 190.954435 
L 249.271374 195.682747 
L 251.369713 204.959248 
L 255.916116 225.108924 
L 258.650316 236.13442 
L 261.289137 245.859726 
L 263.896165 254.629516 
L 266.503192 262.633203 
L 269.142013 270.024309 
L 271.780834 276.766996 
L 272.098765 277.538542 
L 272.098765 277.538542 
L 272.225937 271.721562 
L 272.925383 241.17226 
L 273.62483 219.933153 
L 274.292483 206.005548 
L 274.928344 197.024778 
L 275.532411 191.406409 
L 276.072892 188.22082 
L 276.549788 186.539182 
L 276.963097 185.769454 
L 277.31282 185.529763 
L 277.630751 185.588359 
L 277.980474 185.911888 
L 278.425576 186.652509 
L 279.029644 188.127722 
L 279.856262 190.789395 
L 281.064397 195.524027 
L 283.162737 204.810934 
L 287.709139 224.980875 
L 290.443339 236.0172 
L 293.08216 245.752088 
L 295.689188 254.530575 
L 298.296216 262.542256 
L 300.935037 269.940796 
L 303.573858 276.69031 
L 303.891788 277.46264 
L 303.891788 277.46264 
L 304.964802 232.706568 
L 305.680145 213.752172 
L 306.395488 201.108213 
L 306.991608 194.137631 
L 307.587727 189.603297 
L 308.064622 187.339234 
L 308.541517 186.032158 
L 308.899189 185.565092 
L 309.25686 185.463473 
L 309.614532 185.670758 
L 310.091427 186.345112 
L 310.687547 187.696561 
L 311.522113 190.282301 
L 312.714352 194.870425 
L 314.741157 203.782455 
L 319.51011 224.968531 
L 322.252259 236.036584 
L 324.875183 245.713562 
L 327.498108 254.546284 
L 330.121032 262.602996 
L 332.743956 269.95346 
L 335.366881 276.662863 
L 337.989805 282.790474 
L 340.731953 288.632499 
L 343.474102 293.951875 
L 346.21625 298.797783 
L 349.077622 303.397288 
L 351.938994 307.574298 
L 354.800366 311.36915 
L 357.780962 314.954747 
L 360.761558 318.201666 
L 363.861378 321.254539 
L 367.080422 324.110284 
L 370.418689 326.768253 
L 373.87618 329.229979 
L 377.452895 331.498922 
L 381.148834 333.580209 
L 385.083221 335.536021 
L 389.136831 337.304801 
L 393.548113 338.981784 
L 398.197843 340.507153 
L 403.205244 341.911384 
L 408.570317 343.182877 
L 414.412285 344.337476 
L 420.850372 345.380544 
L 423.115625 345.698775 
L 423.115625 345.698775 
" clip-path="url(#p4ea12495cf)" style="fill: none; stroke: #000000; stroke-width: 2; stroke-linecap: square"/>
   </g>
   <g id="line2d_17">
    <path d="M 272.098765 310.518903 
L 273.423474 264.166928 
L 274.748183 191.878296 
L 277.397602 62.604 
L 280.04702 78.043298 
L 282.696439 99.719663 
L 285.345858 129.030471 
L 287.995276 175.416528 
L 290.644695 204.182019 
L 295.943532 242.490563 
L 303.891788 287.342916 
L 306.541206 260.11113 
L 309.190625 201.762173 
L 311.840044 174.837128 
L 314.489462 179.574573 
L 317.138881 190.923991 
L 319.788299 209.567028 
L 322.437718 222.552397 
L 325.087137 246.410032 
L 335.684811 268.052314 
L 367.477834 327.934976 
L 399.270858 338.568665 
" clip-path="url(#p4ea12495cf)" style="fill: none; stroke-dasharray: 3.7,1.6; stroke-dashoffset: 0; stroke: #000000"/>
    <defs>
     <path id="m357fb76abc" d="M -3 3 
L 3 3 
L 3 -3 
L -3 -3 
z
" style="stroke: #000000; stroke-linejoin: miter"/>
    </defs>
    <g clip-path="url(#p4ea12495cf)">
     <use xlink:href="#m357fb76abc" x="272.098765" y="310.518903" style="stroke: #000000; stroke-linejoin: miter"/>
     <use xlink:href="#m357fb76abc" x="273.423474" y="264.166928" style="stroke: #000000; stroke-linejoin: miter"/>
     <use xlink:href="#m357fb76abc" x="274.748183" y="191.878296" style="stroke: #000000; stroke-linejoin: miter"/>
     <use xlink:href="#m357fb76abc" x="277.397602" y="62.604" style="stroke: #000000; stroke-linejoin: miter"/>
     <use xlink:href="#m357fb76abc" x="280.04702" y="78.043298" style="stroke: #000000; stroke-linejoin: miter"/>
     <use xlink:href="#m357fb76abc" x="282.696439" y="99.719663" style="stroke: #000000; stroke-linejoin: miter"/>
     <use xlink:href="#m357fb76abc" x="285.345858" y="129.030471" style="stroke: #000000; stroke-linejoin: miter"/>
     <use xlink:href="#m357fb76abc" x="287.995276" y="175.416528" style="stroke: #000000; stroke-linejoin: miter"/>
     <use xlink:href="#m357fb76abc" x="290.644695" y="204.182019" style="stroke: #000000; stroke-linejoin: miter"/>
     <use xlink:href="#m357fb76abc" x="295.943532" y="242.490563" style="stroke: #000000; stroke-linejoin: miter"/>
     <use xlink:href="#m357fb76abc" x="303.891788" y="287.342916" style="stroke: #000000; stroke-linejoin: miter"/>
     <use xlink:href="#m357fb76abc" x="306.541206" y="260.11113" style="stroke: #000000; stroke-linejoin: miter"/>
     <use xlink:href="#m357fb76abc" x="309.190625" y="201.762173" style="stroke: #000000; stroke-linejoin: miter"/>
     <use xlink:href="#m357fb76abc" x="311.840044" y="174.837128" style="stroke: #000000; stroke-linejoin: miter"/>
     <use xlink:href="#m357fb76abc" x="314.489462" y="179.574573" style="stroke: #000000; stroke-linejoin: miter"/>
     <use xlink:href="#m357fb76abc" x="317.138881" y="190.923991" style="stroke: #000000; stroke-linejoin: miter"/>
     <use xlink:href="#m357fb76abc" x="319.788299" y="209.567028" style="stroke: #000000; stroke-linejoin: miter"/>
     <use xlink:href="#m357fb76abc" x="322.437718" y="222.552397" style="stroke: #000000; stroke-linejoin: miter"/>
     <use xlink:href="#m357fb76abc" x="325.087137" y="246.410032" style="stroke: #000000; stroke-linejoin: miter"/>
     <use xlink:href="#m357fb76abc" x="335.684811" y="268.052314" style="stroke: #000000; stroke-linejoin: miter"/>
     <use xlink:href="#m357fb76abc" x="367.477834" y="327.934976" style="stroke: #000000; stroke-linejoin: miter"/>
     <use xlink:href="#m357fb76abc" x="399.270858" y="338.568665" style="stroke: #000000; stroke-linejoin: miter"/>
    </g>
   </g>
   <g id="patch_3">
    <path d="M 64.251875 364.248 
L 64.251875 48.24 
" style="fill: none; stroke: #000000; stroke-width: 0.8; stroke-linejoin: miter; stroke-linecap: square"/>
   </g>
   <g id="patch_4">
    <path d="M 440.204375 364.248 
L 440.204375 48.24 
" style="fill: none; stroke: #000000; stroke-width: 0.8; stroke-linejoin: miter; stroke-linecap: square"/>
   </g>
   <g id="patch_5">
    <path d="M 64.251875 364.248 
L 440.204375 364.248 
" style="fill: none; stroke: #000000; stroke-width: 0.8; stroke-linejoin: miter; stroke-linecap: square"/>
   </g>
   <g id="patch_6">
    <path d="M 64.251875 48.24 
L 440.204375 48.24 
" style="fill: none; stroke: #000000; stroke-width: 0.8; stroke-linejoin: miter; stroke-linecap: square"/>
   </g>
   <g id="legend_1">
    <g id="patch_7">
     <path d="M 71.251875 85.59625 
L 237.9675 85.59625 
Q 239.9675 85.59625 239.9675 83.59625 
L 239.9675 55.24 
Q 239.9675 53.24 237.9675 53.24 
L 71.251875 53.24 
Q 69.251875 53.24 69.251875 55.24 
L 69.251875 83.59625 
Q 69.251875 85.59625 71.251875 85.59625 
z
" style="fill: #ffffff; opacity: 0.8; stroke: #cccccc; stroke-linejoin: miter"/>
    </g>
    <g id="line2d_18">
     <path d="M 73.251875 61.338437 
L 93.251875 61.338437 
" style="fill: none; stroke: #000000; stroke-width: 2; stroke-linecap: square"/>
    </g>
    <g id="line2d_19"/>
    <g id="text_18">
     <!-- sim: 2.5mg PO -->
     <g transform="translate(101.251875 64.838437) scale(0.1 -0.1)">
      <defs>
       <path id="DejaVuSans-73" d="M 2834 3397 
L 2834 2853 
Q 2591 2978 2328 3040 
Q 2066 3103 1784 3103 
Q 1356 3103 1142 2972 
Q 928 2841 928 2578 
Q 928 2378 1081 2264 
Q 1234 2150 1697 2047 
L 1894 2003 
Q 2506 1872 2764 1633 
Q 3022 1394 3022 966 
Q 3022 478 2636 193 
Q 2250 -91 1575 -91 
Q 1294 -91 989 -36 
Q 684 19 347 128 
L 347 722 
Q 666 556 975 473 
Q 1284 391 1588 391 
Q 1994 391 2212 530 
Q 2431 669 2431 922 
Q 2431 1156 2273 1281 
Q 2116 1406 1581 1522 
L 1381 1569 
Q 847 1681 609 1914 
Q 372 2147 372 2553 
Q 372 3047 722 3315 
Q 1072 3584 1716 3584 
Q 2034 3584 2315 3537 
Q 2597 3491 2834 3397 
z
" transform="scale(0.015625)"/>
       <path id="DejaVuSans-69" d="M 603 3500 
L 1178 3500 
L 1178 0 
L 603 0 
L 603 3500 
z
M 603 4863 
L 1178 4863 
L 1178 4134 
L 603 4134 
L 603 4863 
z
" transform="scale(0.015625)"/>
       <path id="DejaVuSans-6d" d="M 3328 2828 
Q 3544 3216 3844 3400 
Q 4144 3584 4550 3584 
Q 5097 3584 5394 3201 
Q 5691 2819 5691 2113 
L 5691 0 
L 5113 0 
L 5113 2094 
Q 5113 2597 4934 2840 
Q 4756 3084 4391 3084 
Q 3944 3084 3684 2787 
Q 3425 2491 3425 1978 
L 3425 0 
L 2847 0 
L 2847 2094 
Q 2847 2600 2669 2842 
Q 2491 3084 2119 3084 
Q 1678 3084 1418 2786 
Q 1159 2488 1159 1978 
L 1159 0 
L 581 0 
L 581 3500 
L 1159 3500 
L 1159 2956 
Q 1356 3278 1631 3431 
Q 1906 3584 2284 3584 
Q 2666 3584 2933 3390 
Q 3200 3197 3328 2828 
z
" transform="scale(0.015625)"/>
       <path id="DejaVuSans-3a" d="M 750 794 
L 1409 794 
L 1409 0 
L 750 0 
L 750 794 
z
M 750 3309 
L 1409 3309 
L 1409 2516 
L 750 2516 
L 750 3309 
z
" transform="scale(0.015625)"/>
       <path id="DejaVuSans-20" transform="scale(0.015625)"/>
       <path id="DejaVuSans-2e" d="M 684 794 
L 1344 794 
L 1344 0 
L 684 0 
L 684 794 
z
" transform="scale(0.015625)"/>
       <path id="DejaVuSans-67" d="M 2906 1791 
Q 2906 2416 2648 2759 
Q 2391 3103 1925 3103 
Q 1463 3103 1205 2759 
Q 947 2416 947 1791 
Q 947 1169 1205 825 
Q 1463 481 1925 481 
Q 2391 481 2648 825 
Q 2906 1169 2906 1791 
z
M 3481 434 
Q 3481 -459 3084 -895 
Q 2688 -1331 1869 -1331 
Q 1566 -1331 1297 -1286 
Q 1028 -1241 775 -1147 
L 775 -588 
Q 1028 -725 1275 -790 
Q 1522 -856 1778 -856 
Q 2344 -856 2625 -561 
Q 2906 -266 2906 331 
L 2906 616 
Q 2728 306 2450 153 
Q 2172 0 1784 0 
Q 1141 0 747 490 
Q 353 981 353 1791 
Q 353 2603 747 3093 
Q 1141 3584 1784 3584 
Q 2172 3584 2450 3431 
Q 2728 3278 2906 2969 
L 2906 3500 
L 3481 3500 
L 3481 434 
z
" transform="scale(0.015625)"/>
       <path id="DejaVuSans-50" d="M 1259 4147 
L 1259 2394 
L 2053 2394 
Q 2494 2394 2734 2622 
Q 2975 2850 2975 3272 
Q 2975 3691 2734 3919 
Q 2494 4147 2053 4147 
L 1259 4147 
z
M 628 4666 
L 2053 4666 
Q 2838 4666 3239 4311 
Q 3641 3956 3641 3272 
Q 3641 2581 3239 2228 
Q 2838 1875 2053 1875 
L 1259 1875 
L 1259 0 
L 628 0 
L 628 4666 
z
" transform="scale(0.015625)"/>
       <path id="DejaVuSans-4f" d="M 2522 4238 
Q 1834 4238 1429 3725 
Q 1025 3213 1025 2328 
Q 1025 1447 1429 934 
Q 1834 422 2522 422 
Q 3209 422 3611 934 
Q 4013 1447 4013 2328 
Q 4013 3213 3611 3725 
Q 3209 4238 2522 4238 
z
M 2522 4750 
Q 3503 4750 4090 4092 
Q 4678 3434 4678 2328 
Q 4678 1225 4090 567 
Q 3503 -91 2522 -91 
Q 1538 -91 948 565 
Q 359 1222 359 2328 
Q 359 3434 948 4092 
Q 1538 4750 2522 4750 
z
" transform="scale(0.015625)"/>
      </defs>
      <use xlink:href="#DejaVuSans-73"/>
      <use xlink:href="#DejaVuSans-69" transform="translate(52.099609 0)"/>
      <use xlink:href="#DejaVuSans-6d" transform="translate(79.882812 0)"/>
      <use xlink:href="#DejaVuSans-3a" transform="translate(177.294922 0)"/>
      <use xlink:href="#DejaVuSans-20" transform="translate(210.986328 0)"/>
      <use xlink:href="#DejaVuSans-32" transform="translate(242.773438 0)"/>
      <use xlink:href="#DejaVuSans-2e" transform="translate(306.396484 0)"/>
      <use xlink:href="#DejaVuSans-35" transform="translate(338.183594 0)"/>
      <use xlink:href="#DejaVuSans-6d" transform="translate(401.806641 0)"/>
      <use xlink:href="#DejaVuSans-67" transform="translate(499.21875 0)"/>
      <use xlink:href="#DejaVuSans-20" transform="translate(562.695312 0)"/>
      <use xlink:href="#DejaVuSans-50" transform="translate(594.482422 0)"/>
      <use xlink:href="#DejaVuSans-4f" transform="translate(654.785156 0)"/>
     </g>
    </g>
    <g id="LineCollection_2">
     <path d="M 83.251875 81.016562 
L 83.251875 71.016562 
" style="fill: none; stroke: #000000"/>
    </g>
    <g id="line2d_20">
     <path d="M 73.251875 76.016562 
L 93.251875 76.016562 
" style="fill: none; stroke-dasharray: 3.7,1.6; stroke-dashoffset: 0; stroke: #000000"/>
    </g>
    <g id="line2d_21">
     <g>
      <use xlink:href="#m357fb76abc" x="83.251875" y="76.016562" style="stroke: #000000; stroke-linejoin: miter"/>
     </g>
    </g>
    <g id="text_19">
     <!-- exp: 2.5mg PO±SD (n=14) -->
     <g transform="translate(101.251875 79.516562) scale(0.1 -0.1)">
      <defs>
       <path id="DejaVuSans-65" d="M 3597 1894 
L 3597 1613 
L 953 1613 
Q 991 1019 1311 708 
Q 1631 397 2203 397 
Q 2534 397 2845 478 
Q 3156 559 3463 722 
L 3463 178 
Q 3153 47 2828 -22 
Q 2503 -91 2169 -91 
Q 1331 -91 842 396 
Q 353 884 353 1716 
Q 353 2575 817 3079 
Q 1281 3584 2069 3584 
Q 2775 3584 3186 3129 
Q 3597 2675 3597 1894 
z
M 3022 2063 
Q 3016 2534 2758 2815 
Q 2500 3097 2075 3097 
Q 1594 3097 1305 2825 
Q 1016 2553 972 2059 
L 3022 2063 
z
" transform="scale(0.015625)"/>
       <path id="DejaVuSans-78" d="M 3513 3500 
L 2247 1797 
L 3578 0 
L 2900 0 
L 1881 1375 
L 863 0 
L 184 0 
L 1544 1831 
L 300 3500 
L 978 3500 
L 1906 2253 
L 2834 3500 
L 3513 3500 
z
" transform="scale(0.015625)"/>
       <path id="DejaVuSans-70" d="M 1159 525 
L 1159 -1331 
L 581 -1331 
L 581 3500 
L 1159 3500 
L 1159 2969 
Q 1341 3281 1617 3432 
Q 1894 3584 2278 3584 
Q 2916 3584 3314 3078 
Q 3713 2572 3713 1747 
Q 3713 922 3314 415 
Q 2916 -91 2278 -91 
Q 1894 -91 1617 61 
Q 1341 213 1159 525 
z
M 3116 1747 
Q 3116 2381 2855 2742 
Q 2594 3103 2138 3103 
Q 1681 3103 1420 2742 
Q 1159 2381 1159 1747 
Q 1159 1113 1420 752 
Q 1681 391 2138 391 
Q 2594 391 2855 752 
Q 3116 1113 3116 1747 
z
" transform="scale(0.015625)"/>
       <path id="DejaVuSans-b1" d="M 2944 4013 
L 2944 2803 
L 4684 2803 
L 4684 2272 
L 2944 2272 
L 2944 1063 
L 2419 1063 
L 2419 2272 
L 678 2272 
L 678 2803 
L 2419 2803 
L 2419 4013 
L 2944 4013 
z
M 678 531 
L 4684 531 
L 4684 0 
L 678 0 
L 678 531 
z
" transform="scale(0.015625)"/>
       <path id="DejaVuSans-53" d="M 3425 4513 
L 3425 3897 
Q 3066 4069 2747 4153 
Q 2428 4238 2131 4238 
Q 1616 4238 1336 4038 
Q 1056 3838 1056 3469 
Q 1056 3159 1242 3001 
Q 1428 2844 1947 2747 
L 2328 2669 
Q 3034 2534 3370 2195 
Q 3706 1856 3706 1288 
Q 3706 609 3251 259 
Q 2797 -91 1919 -91 
Q 1588 -91 1214 -16 
Q 841 59 441 206 
L 441 856 
Q 825 641 1194 531 
Q 1563 422 1919 422 
Q 2459 422 2753 634 
Q 3047 847 3047 1241 
Q 3047 1584 2836 1778 
Q 2625 1972 2144 2069 
L 1759 2144 
Q 1053 2284 737 2584 
Q 422 2884 422 3419 
Q 422 4038 858 4394 
Q 1294 4750 2059 4750 
Q 2388 4750 2728 4690 
Q 3069 4631 3425 4513 
z
" transform="scale(0.015625)"/>
       <path id="DejaVuSans-44" d="M 1259 4147 
L 1259 519 
L 2022 519 
Q 2988 519 3436 956 
Q 3884 1394 3884 2338 
Q 3884 3275 3436 3711 
Q 2988 4147 2022 4147 
L 1259 4147 
z
M 628 4666 
L 1925 4666 
Q 3281 4666 3915 4102 
Q 4550 3538 4550 2338 
Q 4550 1131 3912 565 
Q 3275 0 1925 0 
L 628 0 
L 628 4666 
z
" transform="scale(0.015625)"/>
       <path id="DejaVuSans-28" d="M 1984 4856 
Q 1566 4138 1362 3434 
Q 1159 2731 1159 2009 
Q 1159 1288 1364 580 
Q 1569 -128 1984 -844 
L 1484 -844 
Q 1016 -109 783 600 
Q 550 1309 550 2009 
Q 550 2706 781 3412 
Q 1013 4119 1484 4856 
L 1984 4856 
z
" transform="scale(0.015625)"/>
       <path id="DejaVuSans-6e" d="M 3513 2113 
L 3513 0 
L 2938 0 
L 2938 2094 
Q 2938 2591 2744 2837 
Q 2550 3084 2163 3084 
Q 1697 3084 1428 2787 
Q 1159 2491 1159 1978 
L 1159 0 
L 581 0 
L 581 3500 
L 1159 3500 
L 1159 2956 
Q 1366 3272 1645 3428 
Q 1925 3584 2291 3584 
Q 2894 3584 3203 3211 
Q 3513 2838 3513 2113 
z
" transform="scale(0.015625)"/>
       <path id="DejaVuSans-3d" d="M 678 2906 
L 4684 2906 
L 4684 2381 
L 678 2381 
L 678 2906 
z
M 678 1631 
L 4684 1631 
L 4684 1100 
L 678 1100 
L 678 1631 
z
" transform="scale(0.015625)"/>
       <path id="DejaVuSans-29" d="M 513 4856 
L 1013 4856 
Q 1481 4119 1714 3412 
Q 1947 2706 1947 2009 
Q 1947 1309 1714 600 
Q 1481 -109 1013 -844 
L 513 -844 
Q 928 -128 1133 580 
Q 1338 1288 1338 2009 
Q 1338 2731 1133 3434 
Q 928 4138 513 4856 
z
" transform="scale(0.015625)"/>
      </defs>
      <use xlink:href="#DejaVuSans-65"/>
      <use xlink:href="#DejaVuSans-78" transform="translate(59.773438 0)"/>
      <use xlink:href="#DejaVuSans-70" transform="translate(118.953125 0)"/>
      <use xlink:href="#DejaVuSans-3a" transform="translate(182.429688 0)"/>
      <use xlink:href="#DejaVuSans-20" transform="translate(216.121094 0)"/>
      <use xlink:href="#DejaVuSans-32" transform="translate(247.908203 0)"/>
      <use xlink:href="#DejaVuSans-2e" transform="translate(311.53125 0)"/>
      <use xlink:href="#DejaVuSans-35" transform="translate(343.318359 0)"/>
      <use xlink:href="#DejaVuSans-6d" transform="translate(406.941406 0)"/>
      <use xlink:href="#DejaVuSans-67" transform="translate(504.353516 0)"/>
      <use xlink:href="#DejaVuSans-20" transform="translate(567.830078 0)"/>
      <use xlink:href="#DejaVuSans-50" transform="translate(599.617188 0)"/>
      <use xlink:href="#DejaVuSans-4f" transform="translate(659.919922 0)"/>
      <use xlink:href="#DejaVuSans-b1" transform="translate(738.630859 0)"/>
      <use xlink:href="#DejaVuSans-53" transform="translate(822.419922 0)"/>
      <use xlink:href="#DejaVuSans-44" transform="translate(885.896484 0)"/>
      <use xlink:href="#DejaVuSans-20" transform="translate(962.898438 0)"/>
      <use xlink:href="#DejaVuSans-28" transform="translate(994.685547 0)"/>
      <use xlink:href="#DejaVuSans-6e" transform="translate(1033.699219 0)"/>
      <use xlink:href="#DejaVuSans-3d" transform="translate(1097.078125 0)"/>
      <use xlink:href="#DejaVuSans-31" transform="translate(1180.867188 0)"/>
      <use xlink:href="#DejaVuSans-34" transform="translate(1244.490234 0)"/>
      <use xlink:href="#DejaVuSans-29" transform="translate(1308.113281 0)"/>
     </g>
    </g>
   </g>
  </g>
  <g id="axes_2">
   <g id="patch_8">
    <path d="M 552.990125 364.248 
L 928.942625 364.248 
L 928.942625 48.24 
L 552.990125 48.24 
z
" style="fill: #ffffff"/>
   </g>
   <g id="matplotlib.axis_3">
    <g id="xtick_8">
     <g id="line2d_22">
      <g>
       <use xlink:href="#ma20639b9c7" x="601.871898" y="364.248" style="stroke: #000000; stroke-width: 0.8"/>
      </g>
     </g>
     <g id="text_20">
      <!-- −60 -->
      <g transform="translate(586.043383 382.645656) scale(0.15 -0.15)">
       <use xlink:href="#DejaVuSans-2212"/>
       <use xlink:href="#DejaVuSans-36" transform="translate(83.789062 0)"/>
       <use xlink:href="#DejaVuSans-30" transform="translate(147.412109 0)"/>
      </g>
     </g>
    </g>
    <g id="xtick_9">
     <g id="line2d_23">
      <g>
       <use xlink:href="#ma20639b9c7" x="654.86027" y="364.248" style="stroke: #000000; stroke-width: 0.8"/>
      </g>
     </g>
     <g id="text_21">
      <!-- −40 -->
      <g transform="translate(639.031755 382.645656) scale(0.15 -0.15)">
       <use xlink:href="#DejaVuSans-2212"/>
       <use xlink:href="#DejaVuSans-34" transform="translate(83.789062 0)"/>
       <use xlink:href="#DejaVuSans-30" transform="translate(147.412109 0)"/>
      </g>
     </g>
    </g>
    <g id="xtick_10">
     <g id="line2d_24">
      <g>
       <use xlink:href="#ma20639b9c7" x="707.848642" y="364.248" style="stroke: #000000; stroke-width: 0.8"/>
      </g>
     </g>
     <g id="text_22">
      <!-- −20 -->
      <g transform="translate(692.020127 382.645656) scale(0.15 -0.15)">
       <use xlink:href="#DejaVuSans-2212"/>
       <use xlink:href="#DejaVuSans-32" transform="translate(83.789062 0)"/>
       <use xlink:href="#DejaVuSans-30" transform="translate(147.412109 0)"/>
      </g>
     </g>
    </g>
    <g id="xtick_11">
     <g id="line2d_25">
      <g>
       <use xlink:href="#ma20639b9c7" x="760.837015" y="364.248" style="stroke: #000000; stroke-width: 0.8"/>
      </g>
     </g>
     <g id="text_23">
      <!-- 0 -->
      <g transform="translate(756.06514 382.645656) scale(0.15 -0.15)">
       <use xlink:href="#DejaVuSans-30"/>
      </g>
     </g>
    </g>
    <g id="xtick_12">
     <g id="line2d_26">
      <g>
       <use xlink:href="#ma20639b9c7" x="813.825387" y="364.248" style="stroke: #000000; stroke-width: 0.8"/>
      </g>
     </g>
     <g id="text_24">
      <!-- 20 -->
      <g transform="translate(804.281637 382.645656) scale(0.15 -0.15)">
       <use xlink:href="#DejaVuSans-32"/>
       <use xlink:href="#DejaVuSans-30" transform="translate(63.623047 0)"/>
      </g>
     </g>
    </g>
    <g id="xtick_13">
     <g id="line2d_27">
      <g>
       <use xlink:href="#ma20639b9c7" x="866.813759" y="364.248" style="stroke: #000000; stroke-width: 0.8"/>
      </g>
     </g>
     <g id="text_25">
      <!-- 40 -->
      <g transform="translate(857.270009 382.645656) scale(0.15 -0.15)">
       <use xlink:href="#DejaVuSans-34"/>
       <use xlink:href="#DejaVuSans-30" transform="translate(63.623047 0)"/>
      </g>
     </g>
    </g>
    <g id="xtick_14">
     <g id="line2d_28">
      <g>
       <use xlink:href="#ma20639b9c7" x="919.802131" y="364.248" style="stroke: #000000; stroke-width: 0.8"/>
      </g>
     </g>
     <g id="text_26">
      <!-- 60 -->
      <g transform="translate(910.258381 382.645656) scale(0.15 -0.15)">
       <use xlink:href="#DejaVuSans-36"/>
       <use xlink:href="#DejaVuSans-30" transform="translate(63.623047 0)"/>
      </g>
     </g>
    </g>
    <g id="text_27">
     <!-- time [hr] -->
     <g transform="translate(695.891844 403.442375) scale(0.18 -0.18)">
      <use xlink:href="#DejaVuSans-Bold-74"/>
      <use xlink:href="#DejaVuSans-Bold-69" transform="translate(47.802734 0)"/>
      <use xlink:href="#DejaVuSans-Bold-6d" transform="translate(82.080078 0)"/>
      <use xlink:href="#DejaVuSans-Bold-65" transform="translate(186.279297 0)"/>
      <use xlink:href="#DejaVuSans-Bold-20" transform="translate(254.101562 0)"/>
      <use xlink:href="#DejaVuSans-Bold-5b" transform="translate(288.916016 0)"/>
      <use xlink:href="#DejaVuSans-Bold-68" transform="translate(334.619141 0)"/>
      <use xlink:href="#DejaVuSans-Bold-72" transform="translate(405.810547 0)"/>
      <use xlink:href="#DejaVuSans-Bold-5d" transform="translate(455.126953 0)"/>
     </g>
    </g>
   </g>
   <g id="matplotlib.axis_4">
    <g id="ytick_9">
     <g id="line2d_29">
      <g>
       <use xlink:href="#m4e2cd51513" x="552.990125" y="349.884" style="stroke: #000000; stroke-width: 0.8"/>
      </g>
     </g>
     <g id="text_28">
      <!-- 0.0 -->
      <g transform="translate(522.135438 355.582828) scale(0.15 -0.15)">
       <use xlink:href="#DejaVuSans-30"/>
       <use xlink:href="#DejaVuSans-2e" transform="translate(63.623047 0)"/>
       <use xlink:href="#DejaVuSans-30" transform="translate(95.410156 0)"/>
      </g>
     </g>
    </g>
    <g id="ytick_10">
     <g id="line2d_30">
      <g>
       <use xlink:href="#m4e2cd51513" x="552.990125" y="298.121838" style="stroke: #000000; stroke-width: 0.8"/>
      </g>
     </g>
     <g id="text_29">
      <!-- 0.2 -->
      <g transform="translate(522.135438 303.820666) scale(0.15 -0.15)">
       <use xlink:href="#DejaVuSans-30"/>
       <use xlink:href="#DejaVuSans-2e" transform="translate(63.623047 0)"/>
       <use xlink:href="#DejaVuSans-32" transform="translate(95.410156 0)"/>
      </g>
     </g>
    </g>
    <g id="ytick_11">
     <g id="line2d_31">
      <g>
       <use xlink:href="#m4e2cd51513" x="552.990125" y="246.359676" style="stroke: #000000; stroke-width: 0.8"/>
      </g>
     </g>
     <g id="text_30">
      <!-- 0.4 -->
      <g transform="translate(522.135438 252.058504) scale(0.15 -0.15)">
       <use xlink:href="#DejaVuSans-30"/>
       <use xlink:href="#DejaVuSans-2e" transform="translate(63.623047 0)"/>
       <use xlink:href="#DejaVuSans-34" transform="translate(95.410156 0)"/>
      </g>
     </g>
    </g>
    <g id="ytick_12">
     <g id="line2d_32">
      <g>
       <use xlink:href="#m4e2cd51513" x="552.990125" y="194.597514" style="stroke: #000000; stroke-width: 0.8"/>
      </g>
     </g>
     <g id="text_31">
      <!-- 0.6 -->
      <g transform="translate(522.135438 200.296342) scale(0.15 -0.15)">
       <use xlink:href="#DejaVuSans-30"/>
       <use xlink:href="#DejaVuSans-2e" transform="translate(63.623047 0)"/>
       <use xlink:href="#DejaVuSans-36" transform="translate(95.410156 0)"/>
      </g>
     </g>
    </g>
    <g id="ytick_13">
     <g id="line2d_33">
      <g>
       <use xlink:href="#m4e2cd51513" x="552.990125" y="142.835351" style="stroke: #000000; stroke-width: 0.8"/>
      </g>
     </g>
     <g id="text_32">
      <!-- 0.8 -->
      <g transform="translate(522.135438 148.534179) scale(0.15 -0.15)">
       <defs>
        <path id="DejaVuSans-38" d="M 2034 2216 
Q 1584 2216 1326 1975 
Q 1069 1734 1069 1313 
Q 1069 891 1326 650 
Q 1584 409 2034 409 
Q 2484 409 2743 651 
Q 3003 894 3003 1313 
Q 3003 1734 2745 1975 
Q 2488 2216 2034 2216 
z
M 1403 2484 
Q 997 2584 770 2862 
Q 544 3141 544 3541 
Q 544 4100 942 4425 
Q 1341 4750 2034 4750 
Q 2731 4750 3128 4425 
Q 3525 4100 3525 3541 
Q 3525 3141 3298 2862 
Q 3072 2584 2669 2484 
Q 3125 2378 3379 2068 
Q 3634 1759 3634 1313 
Q 3634 634 3220 271 
Q 2806 -91 2034 -91 
Q 1263 -91 848 271 
Q 434 634 434 1313 
Q 434 1759 690 2068 
Q 947 2378 1403 2484 
z
M 1172 3481 
Q 1172 3119 1398 2916 
Q 1625 2713 2034 2713 
Q 2441 2713 2670 2916 
Q 2900 3119 2900 3481 
Q 2900 3844 2670 4047 
Q 2441 4250 2034 4250 
Q 1625 4250 1398 4047 
Q 1172 3844 1172 3481 
z
" transform="scale(0.015625)"/>
       </defs>
       <use xlink:href="#DejaVuSans-30"/>
       <use xlink:href="#DejaVuSans-2e" transform="translate(63.623047 0)"/>
       <use xlink:href="#DejaVuSans-38" transform="translate(95.410156 0)"/>
      </g>
     </g>
    </g>
    <g id="ytick_14">
     <g id="line2d_34">
      <g>
       <use xlink:href="#m4e2cd51513" x="552.990125" y="91.073189" style="stroke: #000000; stroke-width: 0.8"/>
      </g>
     </g>
     <g id="text_33">
      <!-- 1.0 -->
      <g transform="translate(522.135438 96.772017) scale(0.15 -0.15)">
       <use xlink:href="#DejaVuSans-31"/>
       <use xlink:href="#DejaVuSans-2e" transform="translate(63.623047 0)"/>
       <use xlink:href="#DejaVuSans-30" transform="translate(95.410156 0)"/>
      </g>
     </g>
    </g>
    <g id="text_34">
     <!-- anti-FXa activity [IU/ml] -->
     <g transform="translate(514.251375 327.824156) rotate(-90) scale(0.18 -0.18)">
      <defs>
       <path id="DejaVuSans-Bold-2d" d="M 347 2297 
L 2309 2297 
L 2309 1388 
L 347 1388 
L 347 2297 
z
" transform="scale(0.015625)"/>
       <path id="DejaVuSans-Bold-46" d="M 588 4666 
L 3834 4666 
L 3834 3756 
L 1791 3756 
L 1791 2888 
L 3713 2888 
L 3713 1978 
L 1791 1978 
L 1791 0 
L 588 0 
L 588 4666 
z
" transform="scale(0.015625)"/>
       <path id="DejaVuSans-Bold-58" d="M 3188 2381 
L 4806 0 
L 3553 0 
L 2463 1594 
L 1381 0 
L 122 0 
L 1741 2381 
L 184 4666 
L 1441 4666 
L 2463 3163 
L 3481 4666 
L 4744 4666 
L 3188 2381 
z
" transform="scale(0.015625)"/>
       <path id="DejaVuSans-Bold-63" d="M 3366 3391 
L 3366 2478 
Q 3138 2634 2908 2709 
Q 2678 2784 2431 2784 
Q 1963 2784 1702 2511 
Q 1441 2238 1441 1747 
Q 1441 1256 1702 982 
Q 1963 709 2431 709 
Q 2694 709 2930 787 
Q 3166 866 3366 1019 
L 3366 103 
Q 3103 6 2833 -42 
Q 2563 -91 2291 -91 
Q 1344 -91 809 395 
Q 275 881 275 1747 
Q 275 2613 809 3098 
Q 1344 3584 2291 3584 
Q 2566 3584 2833 3536 
Q 3100 3488 3366 3391 
z
" transform="scale(0.015625)"/>
       <path id="DejaVuSans-Bold-76" d="M 97 3500 
L 1216 3500 
L 2088 1081 
L 2956 3500 
L 4078 3500 
L 2700 0 
L 1472 0 
L 97 3500 
z
" transform="scale(0.015625)"/>
       <path id="DejaVuSans-Bold-79" d="M 78 3500 
L 1197 3500 
L 2138 1125 
L 2938 3500 
L 4056 3500 
L 2584 -331 
Q 2363 -916 2067 -1148 
Q 1772 -1381 1288 -1381 
L 641 -1381 
L 641 -647 
L 991 -647 
Q 1275 -647 1404 -556 
Q 1534 -466 1606 -231 
L 1638 -134 
L 78 3500 
z
" transform="scale(0.015625)"/>
       <path id="DejaVuSans-Bold-49" d="M 588 4666 
L 1791 4666 
L 1791 0 
L 588 0 
L 588 4666 
z
" transform="scale(0.015625)"/>
       <path id="DejaVuSans-Bold-55" d="M 588 4666 
L 1791 4666 
L 1791 1869 
Q 1791 1291 1980 1042 
Q 2169 794 2597 794 
Q 3028 794 3217 1042 
Q 3406 1291 3406 1869 
L 3406 4666 
L 4609 4666 
L 4609 1869 
Q 4609 878 4112 393 
Q 3616 -91 2597 -91 
Q 1581 -91 1084 393 
Q 588 878 588 1869 
L 588 4666 
z
" transform="scale(0.015625)"/>
       <path id="DejaVuSans-Bold-2f" d="M 1644 4666 
L 2338 4666 
L 691 -594 
L 0 -594 
L 1644 4666 
z
" transform="scale(0.015625)"/>
      </defs>
      <use xlink:href="#DejaVuSans-Bold-61"/>
      <use xlink:href="#DejaVuSans-Bold-6e" transform="translate(67.480469 0)"/>
      <use xlink:href="#DejaVuSans-Bold-74" transform="translate(138.671875 0)"/>
      <use xlink:href="#DejaVuSans-Bold-69" transform="translate(186.474609 0)"/>
      <use xlink:href="#DejaVuSans-Bold-2d" transform="translate(220.751953 0)"/>
      <use xlink:href="#DejaVuSans-Bold-46" transform="translate(262.255859 0)"/>
      <use xlink:href="#DejaVuSans-Bold-58" transform="translate(330.566406 0)"/>
      <use xlink:href="#DejaVuSans-Bold-61" transform="translate(407.666016 0)"/>
      <use xlink:href="#DejaVuSans-Bold-20" transform="translate(475.146484 0)"/>
      <use xlink:href="#DejaVuSans-Bold-61" transform="translate(509.960938 0)"/>
      <use xlink:href="#DejaVuSans-Bold-63" transform="translate(577.441406 0)"/>
      <use xlink:href="#DejaVuSans-Bold-74" transform="translate(636.71875 0)"/>
      <use xlink:href="#DejaVuSans-Bold-69" transform="translate(684.521484 0)"/>
      <use xlink:href="#DejaVuSans-Bold-76" transform="translate(718.798828 0)"/>
      <use xlink:href="#DejaVuSans-Bold-69" transform="translate(783.984375 0)"/>
      <use xlink:href="#DejaVuSans-Bold-74" transform="translate(818.261719 0)"/>
      <use xlink:href="#DejaVuSans-Bold-79" transform="translate(866.064453 0)"/>
      <use xlink:href="#DejaVuSans-Bold-20" transform="translate(931.25 0)"/>
      <use xlink:href="#DejaVuSans-Bold-5b" transform="translate(966.064453 0)"/>
      <use xlink:href="#DejaVuSans-Bold-49" transform="translate(1011.767578 0)"/>
      <use xlink:href="#DejaVuSans-Bold-55" transform="translate(1048.974609 0)"/>
      <use xlink:href="#DejaVuSans-Bold-2f" transform="translate(1130.175781 0)"/>
      <use xlink:href="#DejaVuSans-Bold-6d" transform="translate(1166.699219 0)"/>
      <use xlink:href="#DejaVuSans-Bold-6c" transform="translate(1270.898438 0)"/>
      <use xlink:href="#DejaVuSans-Bold-5d" transform="translate(1305.175781 0)"/>
     </g>
    </g>
   </g>
   <g id="line2d_35">
    <path d="M 570.078875 349.884 
L 570.206047 343.86687 
L 570.905494 312.215192 
L 571.60494 289.751265 
L 572.304387 273.981286 
L 572.97204 263.536138 
L 573.639694 256.423429 
L 574.243761 252.140083 
L 574.816035 249.512321 
L 575.324724 248.081861 
L 575.801619 247.350751 
L 576.214928 247.101782 
L 576.596445 247.131806 
L 577.009754 247.396902 
L 577.550235 248.038399 
L 578.249682 249.247459 
L 579.235266 251.449536 
L 580.729538 255.413872 
L 588.804966 277.706599 
L 591.47558 284.046186 
L 594.114401 289.744179 
L 596.785015 294.985244 
L 599.487422 299.801353 
L 601.871898 303.68226 
L 601.871898 303.68226 
L 601.99907 298.474975 
L 602.698517 271.11493 
L 603.397963 251.982112 
L 604.065617 239.328901 
L 604.701477 231.066646 
L 605.305545 225.795539 
L 605.877819 222.568361 
L 606.386508 220.818256 
L 606.83161 219.970866 
L 607.213126 219.657945 
L 607.562849 219.650139 
L 607.944366 219.897139 
L 608.421261 220.515341 
L 609.057122 221.759853 
L 609.915533 223.989199 
L 611.155461 227.899748 
L 613.412766 235.902018 
L 617.641238 250.826238 
L 620.375438 259.621494 
L 623.014259 267.374007 
L 625.65308 274.440783 
L 628.291901 280.878246 
L 630.962515 286.811433 
L 633.664922 292.276056 
L 633.664922 292.276056 
L 633.792094 287.115551 
L 634.49154 260.009395 
L 635.190987 241.12479 
L 635.85864 228.703331 
L 636.494501 220.657192 
L 637.098568 215.587321 
L 637.670842 212.547199 
L 638.179531 210.960486 
L 638.59284 210.28609 
L 638.942563 210.068944 
L 639.260494 210.108999 
L 639.64201 210.410127 
L 640.118905 211.108536 
L 640.754766 212.476834 
L 641.613177 214.894849 
L 642.884898 219.218877 
L 645.237582 228.170083 
L 649.275296 243.403869 
L 652.009496 252.826669 
L 654.648317 261.137421 
L 657.287138 268.717222 
L 659.925959 275.625502 
L 662.596573 281.995581 
L 665.267187 287.79921 
L 665.457945 288.193527 
L 665.457945 288.193527 
L 665.585117 283.049766 
L 666.284563 256.03448 
L 666.98401 237.238715 
L 667.651663 224.900205 
L 668.287524 216.931418 
L 668.891591 211.933574 
L 669.432073 209.087892 
L 669.940761 207.501585 
L 670.35407 206.835868 
L 670.703794 206.630842 
L 671.021724 206.685108 
L 671.40324 207.006668 
L 671.880135 207.734886 
L 672.515996 209.148647 
L 673.406201 211.737108 
L 674.709715 216.306793 
L 677.221363 226.119091 
L 681.036526 240.821817 
L 683.770726 250.462905 
L 686.409547 258.967431 
L 689.016575 266.636001 
L 691.655396 273.715596 
L 694.294217 280.170427 
L 696.964831 286.12627 
L 697.250968 286.732299 
L 697.250968 286.732299 
L 697.37814 281.594531 
L 698.077587 254.61177 
L 698.777033 235.847802 
L 699.444687 223.538981 
L 700.080547 215.59788 
L 700.684615 210.625817 
L 701.225096 207.802778 
L 701.733784 206.237424 
L 702.147094 205.58848 
L 702.496817 205.397472 
L 702.814747 205.464345 
L 703.196263 205.800865 
L 703.673159 206.547523 
L 704.309019 207.985434 
L 705.199224 210.606882 
L 706.502738 215.223189 
L 709.04618 225.247242 
L 712.829549 239.938586 
L 715.563749 249.654367 
L 718.20257 258.224985 
L 720.809598 265.953544 
L 723.448419 273.088925 
L 726.08724 279.594981 
L 728.757854 285.598405 
L 729.043991 286.209292 
L 729.043991 286.209292 
L 729.171163 281.07367 
L 729.87061 254.10255 
L 730.570056 235.349963 
L 731.23771 223.051769 
L 731.87357 215.120577 
L 732.477638 210.157741 
L 733.018119 207.342808 
L 733.495015 205.855848 
L 733.908324 205.174231 
L 734.258047 204.96085 
L 734.575977 205.010958 
L 734.957494 205.331208 
L 735.434389 206.062493 
L 736.070249 207.486785 
L 736.960454 210.098986 
L 738.232175 214.595557 
L 740.648445 224.123948 
L 744.59078 239.504192 
L 747.32498 249.256622 
L 749.963801 257.860304 
L 752.570828 265.618968 
L 755.209649 272.782294 
L 757.84847 279.313928 
L 760.519084 285.341026 
L 760.837015 286.022097 
L 760.837015 286.022097 
L 760.964187 280.887242 
L 761.663633 253.920289 
L 762.36308 235.171776 
L 763.030733 222.877385 
L 763.666594 214.94974 
L 764.270661 209.990207 
L 764.811142 207.178174 
L 765.288038 205.693732 
L 765.701347 205.014266 
L 766.05107 204.802683 
L 766.369001 204.854408 
L 766.750517 205.176576 
L 767.227412 205.910226 
L 767.863273 207.337615 
L 768.753477 209.954046 
L 770.056991 214.576357 
L 772.536847 224.378768 
L 776.383803 239.390926 
L 779.118003 249.152935 
L 781.756824 257.765093 
L 784.363852 265.531449 
L 787.002673 272.70193 
L 789.641494 279.240133 
L 792.312108 285.273333 
L 792.630038 285.955095 
L 792.630038 285.955095 
L 793.703052 246.447323 
L 794.418395 229.715605 
L 795.133738 218.554333 
L 795.729858 212.401153 
L 796.325977 208.398536 
L 796.802872 206.399967 
L 797.279767 205.246165 
L 797.637439 204.833868 
L 797.99511 204.744166 
L 798.352782 204.927144 
L 798.829677 205.52242 
L 799.425797 206.715392 
L 800.260363 208.997916 
L 801.452602 213.048016 
L 803.479407 220.914982 
L 808.367584 240.059256 
L 811.109733 249.792017 
L 813.732657 258.299206 
L 816.355581 266.063672 
L 818.978506 273.145964 
L 821.60143 279.607547 
L 824.224355 285.505736 
L 826.966503 291.126099 
L 829.708651 296.241097 
L 832.450799 300.8987 
L 835.312172 305.317612 
L 838.173544 309.329057 
L 841.15414 313.116553 
L 844.134735 316.544023 
L 847.234555 319.764707 
L 850.334375 322.669866 
L 853.553419 325.386833 
L 856.891686 327.915117 
L 860.349177 330.256297 
L 863.925892 332.413771 
L 867.741055 334.452433 
L 871.675442 336.304384 
L 875.848276 338.025014 
L 880.259558 339.606429 
L 885.028512 341.078834 
L 890.155137 342.426551 
L 895.758657 343.664257 
L 901.839073 344.775594 
L 908.515608 345.768206 
L 911.853875 346.189554 
L 911.853875 346.189554 
" clip-path="url(#p0a5174e616)" style="fill: none; stroke: #000000; stroke-width: 2; stroke-linecap: square"/>
   </g>
   <g id="line2d_36">
    <path d="M 759.777247 259.300216 
L 762.161724 184.245081 
L 764.175282 98.837514 
L 765.314532 62.604 
L 768.626305 88.485081 
L 771.540666 119.542378 
L 774.057613 166.128324 
L 776.574561 194.597514 
L 782.403282 230.831027 
L 789.980619 285.181297 
L 792.312108 256.712108 
L 794.325666 197.185622 
L 796.975084 163.540216 
L 800.657776 163.540216 
L 802.856794 179.068865 
L 806.142073 197.185622 
L 807.572759 215.302378 
L 813.427974 241.183459 
L 824.449555 259.300216 
L 855.182811 318.826703 
L 888.035602 321.414811 
" clip-path="url(#p0a5174e616)" style="fill: none; stroke-dasharray: 3.7,1.6; stroke-dashoffset: 0; stroke: #000000"/>
    <g clip-path="url(#p0a5174e616)">
     <use xlink:href="#m357fb76abc" x="759.777247" y="259.300216" style="stroke: #000000; stroke-linejoin: miter"/>
     <use xlink:href="#m357fb76abc" x="762.161724" y="184.245081" style="stroke: #000000; stroke-linejoin: miter"/>
     <use xlink:href="#m357fb76abc" x="764.175282" y="98.837514" style="stroke: #000000; stroke-linejoin: miter"/>
     <use xlink:href="#m357fb76abc" x="765.314532" y="62.604" style="stroke: #000000; stroke-linejoin: miter"/>
     <use xlink:href="#m357fb76abc" x="768.626305" y="88.485081" style="stroke: #000000; stroke-linejoin: miter"/>
     <use xlink:href="#m357fb76abc" x="771.540666" y="119.542378" style="stroke: #000000; stroke-linejoin: miter"/>
     <use xlink:href="#m357fb76abc" x="774.057613" y="166.128324" style="stroke: #000000; stroke-linejoin: miter"/>
     <use xlink:href="#m357fb76abc" x="776.574561" y="194.597514" style="stroke: #000000; stroke-linejoin: miter"/>
     <use xlink:href="#m357fb76abc" x="782.403282" y="230.831027" style="stroke: #000000; stroke-linejoin: miter"/>
     <use xlink:href="#m357fb76abc" x="789.980619" y="285.181297" style="stroke: #000000; stroke-linejoin: miter"/>
     <use xlink:href="#m357fb76abc" x="792.312108" y="256.712108" style="stroke: #000000; stroke-linejoin: miter"/>
     <use xlink:href="#m357fb76abc" x="794.325666" y="197.185622" style="stroke: #000000; stroke-linejoin: miter"/>
     <use xlink:href="#m357fb76abc" x="796.975084" y="163.540216" style="stroke: #000000; stroke-linejoin: miter"/>
     <use xlink:href="#m357fb76abc" x="800.657776" y="163.540216" style="stroke: #000000; stroke-linejoin: miter"/>
     <use xlink:href="#m357fb76abc" x="802.856794" y="179.068865" style="stroke: #000000; stroke-linejoin: miter"/>
     <use xlink:href="#m357fb76abc" x="806.142073" y="197.185622" style="stroke: #000000; stroke-linejoin: miter"/>
     <use xlink:href="#m357fb76abc" x="807.572759" y="215.302378" style="stroke: #000000; stroke-linejoin: miter"/>
     <use xlink:href="#m357fb76abc" x="813.427974" y="241.183459" style="stroke: #000000; stroke-linejoin: miter"/>
     <use xlink:href="#m357fb76abc" x="824.449555" y="259.300216" style="stroke: #000000; stroke-linejoin: miter"/>
     <use xlink:href="#m357fb76abc" x="855.182811" y="318.826703" style="stroke: #000000; stroke-linejoin: miter"/>
     <use xlink:href="#m357fb76abc" x="888.035602" y="321.414811" style="stroke: #000000; stroke-linejoin: miter"/>
    </g>
   </g>
   <g id="patch_9">
    <path d="M 552.990125 364.248 
L 552.990125 48.24 
" style="fill: none; stroke: #000000; stroke-width: 0.8; stroke-linejoin: miter; stroke-linecap: square"/>
   </g>
   <g id="patch_10">
    <path d="M 928.942625 364.248 
L 928.942625 48.24 
" style="fill: none; stroke: #000000; stroke-width: 0.8; stroke-linejoin: miter; stroke-linecap: square"/>
   </g>
   <g id="patch_11">
    <path d="M 552.990125 364.248 
L 928.942625 364.248 
" style="fill: none; stroke: #000000; stroke-width: 0.8; stroke-linejoin: miter; stroke-linecap: square"/>
   </g>
   <g id="patch_12">
    <path d="M 552.990125 48.24 
L 928.942625 48.24 
" style="fill: none; stroke: #000000; stroke-width: 0.8; stroke-linejoin: miter; stroke-linecap: square"/>
   </g>
   <g id="legend_2">
    <g id="patch_13">
     <path d="M 777.655125 85.59625 
L 921.942625 85.59625 
Q 923.942625 85.59625 923.942625 83.59625 
L 923.942625 55.24 
Q 923.942625 53.24 921.942625 53.24 
L 777.655125 53.24 
Q 775.655125 53.24 775.655125 55.24 
L 775.655125 83.59625 
Q 775.655125 85.59625 777.655125 85.59625 
z
" style="fill: #ffffff; opacity: 0.8; stroke: #cccccc; stroke-linejoin: miter"/>
    </g>
    <g id="line2d_37">
     <path d="M 779.655125 61.338437 
L 799.655125 61.338437 
" style="fill: none; stroke: #000000; stroke-width: 2; stroke-linecap: square"/>
    </g>
    <g id="line2d_38"/>
    <g id="text_35">
     <!-- sim: 2.5mg PO -->
     <g transform="translate(807.655125 64.838437) scale(0.1 -0.1)">
      <use xlink:href="#DejaVuSans-73"/>
      <use xlink:href="#DejaVuSans-69" transform="translate(52.099609 0)"/>
      <use xlink:href="#DejaVuSans-6d" transform="translate(79.882812 0)"/>
      <use xlink:href="#DejaVuSans-3a" transform="translate(177.294922 0)"/>
      <use xlink:href="#DejaVuSans-20" transform="translate(210.986328 0)"/>
      <use xlink:href="#DejaVuSans-32" transform="translate(242.773438 0)"/>
      <use xlink:href="#DejaVuSans-2e" transform="translate(306.396484 0)"/>
      <use xlink:href="#DejaVuSans-35" transform="translate(338.183594 0)"/>
      <use xlink:href="#DejaVuSans-6d" transform="translate(401.806641 0)"/>
      <use xlink:href="#DejaVuSans-67" transform="translate(499.21875 0)"/>
      <use xlink:href="#DejaVuSans-20" transform="translate(562.695312 0)"/>
      <use xlink:href="#DejaVuSans-50" transform="translate(594.482422 0)"/>
      <use xlink:href="#DejaVuSans-4f" transform="translate(654.785156 0)"/>
     </g>
    </g>
    <g id="line2d_39">
     <path d="M 779.655125 76.016562 
L 799.655125 76.016562 
" style="fill: none; stroke-dasharray: 3.7,1.6; stroke-dashoffset: 0; stroke: #000000"/>
    </g>
    <g id="line2d_40">
     <g>
      <use xlink:href="#m357fb76abc" x="789.655125" y="76.016562" style="stroke: #000000; stroke-linejoin: miter"/>
     </g>
    </g>
    <g id="text_36">
     <!-- exp: 2.5mg PO (n=14) -->
     <g transform="translate(807.655125 79.516562) scale(0.1 -0.1)">
      <use xlink:href="#DejaVuSans-65"/>
      <use xlink:href="#DejaVuSans-78" transform="translate(59.773438 0)"/>
      <use xlink:href="#DejaVuSans-70" transform="translate(118.953125 0)"/>
      <use xlink:href="#DejaVuSans-3a" transform="translate(182.429688 0)"/>
      <use xlink:href="#DejaVuSans-20" transform="translate(216.121094 0)"/>
      <use xlink:href="#DejaVuSans-32" transform="translate(247.908203 0)"/>
      <use xlink:href="#DejaVuSans-2e" transform="translate(311.53125 0)"/>
      <use xlink:href="#DejaVuSans-35" transform="translate(343.318359 0)"/>
      <use xlink:href="#DejaVuSans-6d" transform="translate(406.941406 0)"/>
      <use xlink:href="#DejaVuSans-67" transform="translate(504.353516 0)"/>
      <use xlink:href="#DejaVuSans-20" transform="translate(567.830078 0)"/>
      <use xlink:href="#DejaVuSans-50" transform="translate(599.617188 0)"/>
      <use xlink:href="#DejaVuSans-4f" transform="translate(659.919922 0)"/>
      <use xlink:href="#DejaVuSans-20" transform="translate(738.630859 0)"/>
      <use xlink:href="#DejaVuSans-28" transform="translate(770.417969 0)"/>
      <use xlink:href="#DejaVuSans-6e" transform="translate(809.431641 0)"/>
      <use xlink:href="#DejaVuSans-3d" transform="translate(872.810547 0)"/>
      <use xlink:href="#DejaVuSans-31" transform="translate(956.599609 0)"/>
      <use xlink:href="#DejaVuSans-34" transform="translate(1020.222656 0)"/>
      <use xlink:href="#DejaVuSans-29" transform="translate(1083.845703 0)"/>
     </g>
    </g>
   </g>
  </g>
  <g id="axes_3">
   <g id="patch_14">
    <path d="M 1041.728375 364.248 
L 1417.680875 364.248 
L 1417.680875 48.24 
L 1041.728375 48.24 
z
" style="fill: #ffffff"/>
   </g>
   <g id="matplotlib.axis_5">
    <g id="xtick_15">
     <g id="line2d_41">
      <g>
       <use xlink:href="#ma20639b9c7" x="1058.817125" y="364.248" style="stroke: #000000; stroke-width: 0.8"/>
      </g>
     </g>
     <g id="text_37">
      <!-- 0.00 -->
      <g transform="translate(1042.117906 382.645656) scale(0.15 -0.15)">
       <use xlink:href="#DejaVuSans-30"/>
       <use xlink:href="#DejaVuSans-2e" transform="translate(63.623047 0)"/>
       <use xlink:href="#DejaVuSans-30" transform="translate(95.410156 0)"/>
       <use xlink:href="#DejaVuSans-30" transform="translate(159.033203 0)"/>
      </g>
     </g>
    </g>
    <g id="xtick_16">
     <g id="line2d_42">
      <g>
       <use xlink:href="#ma20639b9c7" x="1130.162579" y="364.248" style="stroke: #000000; stroke-width: 0.8"/>
      </g>
     </g>
     <g id="text_38">
      <!-- 0.05 -->
      <g transform="translate(1113.46336 382.645656) scale(0.15 -0.15)">
       <use xlink:href="#DejaVuSans-30"/>
       <use xlink:href="#DejaVuSans-2e" transform="translate(63.623047 0)"/>
       <use xlink:href="#DejaVuSans-30" transform="translate(95.410156 0)"/>
       <use xlink:href="#DejaVuSans-35" transform="translate(159.033203 0)"/>
      </g>
     </g>
    </g>
    <g id="xtick_17">
     <g id="line2d_43">
      <g>
       <use xlink:href="#ma20639b9c7" x="1201.508032" y="364.248" style="stroke: #000000; stroke-width: 0.8"/>
      </g>
     </g>
     <g id="text_39">
      <!-- 0.10 -->
      <g transform="translate(1184.808813 382.645656) scale(0.15 -0.15)">
       <use xlink:href="#DejaVuSans-30"/>
       <use xlink:href="#DejaVuSans-2e" transform="translate(63.623047 0)"/>
       <use xlink:href="#DejaVuSans-31" transform="translate(95.410156 0)"/>
       <use xlink:href="#DejaVuSans-30" transform="translate(159.033203 0)"/>
      </g>
     </g>
    </g>
    <g id="xtick_18">
     <g id="line2d_44">
      <g>
       <use xlink:href="#ma20639b9c7" x="1272.853486" y="364.248" style="stroke: #000000; stroke-width: 0.8"/>
      </g>
     </g>
     <g id="text_40">
      <!-- 0.15 -->
      <g transform="translate(1256.154267 382.645656) scale(0.15 -0.15)">
       <use xlink:href="#DejaVuSans-30"/>
       <use xlink:href="#DejaVuSans-2e" transform="translate(63.623047 0)"/>
       <use xlink:href="#DejaVuSans-31" transform="translate(95.410156 0)"/>
       <use xlink:href="#DejaVuSans-35" transform="translate(159.033203 0)"/>
      </g>
     </g>
    </g>
    <g id="xtick_19">
     <g id="line2d_45">
      <g>
       <use xlink:href="#ma20639b9c7" x="1344.198939" y="364.248" style="stroke: #000000; stroke-width: 0.8"/>
      </g>
     </g>
     <g id="text_41">
      <!-- 0.20 -->
      <g transform="translate(1327.499721 382.645656) scale(0.15 -0.15)">
       <use xlink:href="#DejaVuSans-30"/>
       <use xlink:href="#DejaVuSans-2e" transform="translate(63.623047 0)"/>
       <use xlink:href="#DejaVuSans-32" transform="translate(95.410156 0)"/>
       <use xlink:href="#DejaVuSans-30" transform="translate(159.033203 0)"/>
      </g>
     </g>
    </g>
    <g id="xtick_20">
     <g id="line2d_46">
      <g>
       <use xlink:href="#ma20639b9c7" x="1415.544393" y="364.248" style="stroke: #000000; stroke-width: 0.8"/>
      </g>
     </g>
     <g id="text_42">
      <!-- 0.25 -->
      <g transform="translate(1398.845174 382.645656) scale(0.15 -0.15)">
       <use xlink:href="#DejaVuSans-30"/>
       <use xlink:href="#DejaVuSans-2e" transform="translate(63.623047 0)"/>
       <use xlink:href="#DejaVuSans-32" transform="translate(95.410156 0)"/>
       <use xlink:href="#DejaVuSans-35" transform="translate(159.033203 0)"/>
      </g>
     </g>
    </g>
    <g id="text_43">
     <!-- apixaban plasma [µM] -->
     <g transform="translate(1116.822125 403.442375) scale(0.18 -0.18)">
      <defs>
       <path id="DejaVuSans-Bold-b5" d="M 544 -1338 
L 544 3500 
L 1672 3500 
L 1672 1466 
Q 1672 1103 1828 926 
Q 1984 750 2303 750 
Q 2625 750 2781 926 
Q 2938 1103 2938 1466 
L 2938 3500 
L 4063 3500 
L 4063 1159 
Q 4063 938 4114 850 
Q 4166 763 4288 763 
Q 4344 763 4395 778 
Q 4447 794 4506 831 
L 4506 50 
Q 4341 -22 4195 -56 
Q 4050 -91 3909 -91 
Q 3631 -91 3454 26 
Q 3278 144 3169 403 
Q 3022 156 2811 32 
Q 2600 -91 2322 -91 
Q 2091 -91 1928 -17 
Q 1766 56 1672 206 
L 1672 -1338 
L 544 -1338 
z
" transform="scale(0.015625)"/>
      </defs>
      <use xlink:href="#DejaVuSans-Bold-61"/>
      <use xlink:href="#DejaVuSans-Bold-70" transform="translate(67.480469 0)"/>
      <use xlink:href="#DejaVuSans-Bold-69" transform="translate(139.0625 0)"/>
      <use xlink:href="#DejaVuSans-Bold-78" transform="translate(173.339844 0)"/>
      <use xlink:href="#DejaVuSans-Bold-61" transform="translate(237.841797 0)"/>
      <use xlink:href="#DejaVuSans-Bold-62" transform="translate(305.322266 0)"/>
      <use xlink:href="#DejaVuSans-Bold-61" transform="translate(376.904297 0)"/>
      <use xlink:href="#DejaVuSans-Bold-6e" transform="translate(444.384766 0)"/>
      <use xlink:href="#DejaVuSans-Bold-20" transform="translate(515.576172 0)"/>
      <use xlink:href="#DejaVuSans-Bold-70" transform="translate(550.390625 0)"/>
      <use xlink:href="#DejaVuSans-Bold-6c" transform="translate(621.972656 0)"/>
      <use xlink:href="#DejaVuSans-Bold-61" transform="translate(656.25 0)"/>
      <use xlink:href="#DejaVuSans-Bold-73" transform="translate(723.730469 0)"/>
      <use xlink:href="#DejaVuSans-Bold-6d" transform="translate(783.251953 0)"/>
      <use xlink:href="#DejaVuSans-Bold-61" transform="translate(887.451172 0)"/>
      <use xlink:href="#DejaVuSans-Bold-20" transform="translate(954.931641 0)"/>
      <use xlink:href="#DejaVuSans-Bold-5b" transform="translate(989.746094 0)"/>
      <use xlink:href="#DejaVuSans-Bold-b5" transform="translate(1035.449219 0)"/>
      <use xlink:href="#DejaVuSans-Bold-4d" transform="translate(1109.033203 0)"/>
      <use xlink:href="#DejaVuSans-Bold-5d" transform="translate(1208.544922 0)"/>
     </g>
    </g>
   </g>
   <g id="matplotlib.axis_6">
    <g id="ytick_15">
     <g id="line2d_47">
      <g>
       <use xlink:href="#m4e2cd51513" x="1041.728375" y="349.884" style="stroke: #000000; stroke-width: 0.8"/>
      </g>
     </g>
     <g id="text_44">
      <!-- 0.0 -->
      <g transform="translate(1010.873688 355.582828) scale(0.15 -0.15)">
       <use xlink:href="#DejaVuSans-30"/>
       <use xlink:href="#DejaVuSans-2e" transform="translate(63.623047 0)"/>
       <use xlink:href="#DejaVuSans-30" transform="translate(95.410156 0)"/>
      </g>
     </g>
    </g>
    <g id="ytick_16">
     <g id="line2d_48">
      <g>
       <use xlink:href="#m4e2cd51513" x="1041.728375" y="312.331059" style="stroke: #000000; stroke-width: 0.8"/>
      </g>
     </g>
     <g id="text_45">
      <!-- 0.2 -->
      <g transform="translate(1010.873688 318.029887) scale(0.15 -0.15)">
       <use xlink:href="#DejaVuSans-30"/>
       <use xlink:href="#DejaVuSans-2e" transform="translate(63.623047 0)"/>
       <use xlink:href="#DejaVuSans-32" transform="translate(95.410156 0)"/>
      </g>
     </g>
    </g>
    <g id="ytick_17">
     <g id="line2d_49">
      <g>
       <use xlink:href="#m4e2cd51513" x="1041.728375" y="274.778118" style="stroke: #000000; stroke-width: 0.8"/>
      </g>
     </g>
     <g id="text_46">
      <!-- 0.4 -->
      <g transform="translate(1010.873688 280.476946) scale(0.15 -0.15)">
       <use xlink:href="#DejaVuSans-30"/>
       <use xlink:href="#DejaVuSans-2e" transform="translate(63.623047 0)"/>
       <use xlink:href="#DejaVuSans-34" transform="translate(95.410156 0)"/>
      </g>
     </g>
    </g>
    <g id="ytick_18">
     <g id="line2d_50">
      <g>
       <use xlink:href="#m4e2cd51513" x="1041.728375" y="237.225176" style="stroke: #000000; stroke-width: 0.8"/>
      </g>
     </g>
     <g id="text_47">
      <!-- 0.6 -->
      <g transform="translate(1010.873688 242.924005) scale(0.15 -0.15)">
       <use xlink:href="#DejaVuSans-30"/>
       <use xlink:href="#DejaVuSans-2e" transform="translate(63.623047 0)"/>
       <use xlink:href="#DejaVuSans-36" transform="translate(95.410156 0)"/>
      </g>
     </g>
    </g>
    <g id="ytick_19">
     <g id="line2d_51">
      <g>
       <use xlink:href="#m4e2cd51513" x="1041.728375" y="199.672235" style="stroke: #000000; stroke-width: 0.8"/>
      </g>
     </g>
     <g id="text_48">
      <!-- 0.8 -->
      <g transform="translate(1010.873688 205.371063) scale(0.15 -0.15)">
       <use xlink:href="#DejaVuSans-30"/>
       <use xlink:href="#DejaVuSans-2e" transform="translate(63.623047 0)"/>
       <use xlink:href="#DejaVuSans-38" transform="translate(95.410156 0)"/>
      </g>
     </g>
    </g>
    <g id="ytick_20">
     <g id="line2d_52">
      <g>
       <use xlink:href="#m4e2cd51513" x="1041.728375" y="162.119294" style="stroke: #000000; stroke-width: 0.8"/>
      </g>
     </g>
     <g id="text_49">
      <!-- 1.0 -->
      <g transform="translate(1010.873688 167.818122) scale(0.15 -0.15)">
       <use xlink:href="#DejaVuSans-31"/>
       <use xlink:href="#DejaVuSans-2e" transform="translate(63.623047 0)"/>
       <use xlink:href="#DejaVuSans-30" transform="translate(95.410156 0)"/>
      </g>
     </g>
    </g>
    <g id="ytick_21">
     <g id="line2d_53">
      <g>
       <use xlink:href="#m4e2cd51513" x="1041.728375" y="124.566353" style="stroke: #000000; stroke-width: 0.8"/>
      </g>
     </g>
     <g id="text_50">
      <!-- 1.2 -->
      <g transform="translate(1010.873688 130.265181) scale(0.15 -0.15)">
       <use xlink:href="#DejaVuSans-31"/>
       <use xlink:href="#DejaVuSans-2e" transform="translate(63.623047 0)"/>
       <use xlink:href="#DejaVuSans-32" transform="translate(95.410156 0)"/>
      </g>
     </g>
    </g>
    <g id="ytick_22">
     <g id="line2d_54">
      <g>
       <use xlink:href="#m4e2cd51513" x="1041.728375" y="87.013412" style="stroke: #000000; stroke-width: 0.8"/>
      </g>
     </g>
     <g id="text_51">
      <!-- 1.4 -->
      <g transform="translate(1010.873688 92.71224) scale(0.15 -0.15)">
       <use xlink:href="#DejaVuSans-31"/>
       <use xlink:href="#DejaVuSans-2e" transform="translate(63.623047 0)"/>
       <use xlink:href="#DejaVuSans-34" transform="translate(95.410156 0)"/>
      </g>
     </g>
    </g>
    <g id="ytick_23">
     <g id="line2d_55">
      <g>
       <use xlink:href="#m4e2cd51513" x="1041.728375" y="49.460471" style="stroke: #000000; stroke-width: 0.8"/>
      </g>
     </g>
     <g id="text_52">
      <!-- 1.6 -->
      <g transform="translate(1010.873688 55.159299) scale(0.15 -0.15)">
       <use xlink:href="#DejaVuSans-31"/>
       <use xlink:href="#DejaVuSans-2e" transform="translate(63.623047 0)"/>
       <use xlink:href="#DejaVuSans-36" transform="translate(95.410156 0)"/>
      </g>
     </g>
    </g>
    <g id="text_53">
     <!-- anti-FXa activity [IU/ml] -->
     <g transform="translate(1002.989625 327.824156) rotate(-90) scale(0.18 -0.18)">
      <use xlink:href="#DejaVuSans-Bold-61"/>
      <use xlink:href="#DejaVuSans-Bold-6e" transform="translate(67.480469 0)"/>
      <use xlink:href="#DejaVuSans-Bold-74" transform="translate(138.671875 0)"/>
      <use xlink:href="#DejaVuSans-Bold-69" transform="translate(186.474609 0)"/>
      <use xlink:href="#DejaVuSans-Bold-2d" transform="translate(220.751953 0)"/>
      <use xlink:href="#DejaVuSans-Bold-46" transform="translate(262.255859 0)"/>
      <use xlink:href="#DejaVuSans-Bold-58" transform="translate(330.566406 0)"/>
      <use xlink:href="#DejaVuSans-Bold-61" transform="translate(407.666016 0)"/>
      <use xlink:href="#DejaVuSans-Bold-20" transform="translate(475.146484 0)"/>
      <use xlink:href="#DejaVuSans-Bold-61" transform="translate(509.960938 0)"/>
      <use xlink:href="#DejaVuSans-Bold-63" transform="translate(577.441406 0)"/>
      <use xlink:href="#DejaVuSans-Bold-74" transform="translate(636.71875 0)"/>
      <use xlink:href="#DejaVuSans-Bold-69" transform="translate(684.521484 0)"/>
      <use xlink:href="#DejaVuSans-Bold-76" transform="translate(718.798828 0)"/>
      <use xlink:href="#DejaVuSans-Bold-69" transform="translate(783.984375 0)"/>
      <use xlink:href="#DejaVuSans-Bold-74" transform="translate(818.261719 0)"/>
      <use xlink:href="#DejaVuSans-Bold-79" transform="translate(866.064453 0)"/>
      <use xlink:href="#DejaVuSans-Bold-20" transform="translate(931.25 0)"/>
      <use xlink:href="#DejaVuSans-Bold-5b" transform="translate(966.064453 0)"/>
      <use xlink:href="#DejaVuSans-Bold-49" transform="translate(1011.767578 0)"/>
      <use xlink:href="#DejaVuSans-Bold-55" transform="translate(1048.974609 0)"/>
      <use xlink:href="#DejaVuSans-Bold-2f" transform="translate(1130.175781 0)"/>
      <use xlink:href="#DejaVuSans-Bold-6d" transform="translate(1166.699219 0)"/>
      <use xlink:href="#DejaVuSans-Bold-6c" transform="translate(1270.898438 0)"/>
      <use xlink:href="#DejaVuSans-Bold-5d" transform="translate(1305.175781 0)"/>
     </g>
    </g>
   </g>
   <g id="line2d_56">
    <defs>
     <path id="m7c9d2ad972" d="M 0 3 
C 0.795609 3 1.55874 2.683901 2.12132 2.12132 
C 2.683901 1.55874 3 0.795609 3 0 
C 3 -0.795609 2.683901 -1.55874 2.12132 -2.12132 
C 1.55874 -2.683901 0.795609 -3 0 -3 
C -0.795609 -3 -1.55874 -2.683901 -2.12132 -2.12132 
C -2.683901 -1.55874 -3 -0.795609 -3 0 
C -3 0.795609 -2.683901 1.55874 -2.12132 2.12132 
C -1.55874 2.683901 -0.795609 3 0 3 
z
" style="stroke: #000000"/>
    </defs>
    <g clip-path="url(#p20a926b95f)">
     <use xlink:href="#m7c9d2ad972" x="1058.910286" y="349.884" style="fill: #ffffff; stroke: #000000"/>
     <use xlink:href="#m7c9d2ad972" x="1058.972393" y="329.229882" style="fill: #ffffff; stroke: #000000"/>
     <use xlink:href="#m7c9d2ad972" x="1069.747963" y="334.862824" style="fill: #ffffff; stroke: #000000"/>
     <use xlink:href="#m7c9d2ad972" x="1084.467329" y="329.229882" style="fill: #ffffff; stroke: #000000"/>
     <use xlink:href="#m7c9d2ad972" x="1084.374169" y="308.575765" style="fill: #ffffff; stroke: #000000"/>
     <use xlink:href="#m7c9d2ad972" x="1095.491328" y="314.208706" style="fill: #ffffff; stroke: #000000"/>
     <use xlink:href="#m7c9d2ad972" x="1110.210694" y="308.575765" style="fill: #ffffff; stroke: #000000"/>
     <use xlink:href="#m7c9d2ad972" x="1110.08648" y="280.411059" style="fill: #ffffff; stroke: #000000"/>
     <use xlink:href="#m7c9d2ad972" x="1124.930061" y="301.065176" style="fill: #ffffff; stroke: #000000"/>
     <use xlink:href="#m7c9d2ad972" x="1132.16553" y="265.389882" style="fill: #ffffff; stroke: #000000"/>
     <use xlink:href="#m7c9d2ad972" x="1135.923006" y="286.044" style="fill: #ffffff; stroke: #000000"/>
     <use xlink:href="#m7c9d2ad972" x="1154.24458" y="252.246353" style="fill: #ffffff; stroke: #000000"/>
     <use xlink:href="#m7c9d2ad972" x="1154.368795" y="286.044" style="fill: #ffffff; stroke: #000000"/>
     <use xlink:href="#m7c9d2ad972" x="1169.088161" y="272.900471" style="fill: #ffffff; stroke: #000000"/>
     <use xlink:href="#m7c9d2ad972" x="1176.292577" y="231.592235" style="fill: #ffffff; stroke: #000000"/>
     <use xlink:href="#m7c9d2ad972" x="1180.050052" y="252.246353" style="fill: #ffffff; stroke: #000000"/>
     <use xlink:href="#m7c9d2ad972" x="1194.769419" y="244.735765" style="fill: #ffffff; stroke: #000000"/>
     <use xlink:href="#m7c9d2ad972" x="1194.645205" y="210.938118" style="fill: #ffffff; stroke: #000000"/>
     <use xlink:href="#m7c9d2ad972" x="1213.153101" y="231.592235" style="fill: #ffffff; stroke: #000000"/>
     <use xlink:href="#m7c9d2ad972" x="1213.028887" y="195.916941" style="fill: #ffffff; stroke: #000000"/>
     <use xlink:href="#m7c9d2ad972" x="1224.208153" y="224.081647" style="fill: #ffffff; stroke: #000000"/>
     <use xlink:href="#m7c9d2ad972" x="1242.498674" y="188.406353" style="fill: #ffffff; stroke: #000000"/>
     <use xlink:href="#m7c9d2ad972" x="1231.381515" y="175.262824" style="fill: #ffffff; stroke: #000000"/>
     <use xlink:href="#m7c9d2ad972" x="1261.006569" y="203.427529" style="fill: #ffffff; stroke: #000000"/>
     <use xlink:href="#m7c9d2ad972" x="1257.186987" y="167.752235" style="fill: #ffffff; stroke: #000000"/>
     <use xlink:href="#m7c9d2ad972" x="1268.335199" y="188.406353" style="fill: #ffffff; stroke: #000000"/>
     <use xlink:href="#m7c9d2ad972" x="1286.656774" y="160.241647" style="fill: #ffffff; stroke: #000000"/>
     <use xlink:href="#m7c9d2ad972" x="1279.172876" y="133.954588" style="fill: #ffffff; stroke: #000000"/>
     <use xlink:href="#m7c9d2ad972" x="1305.102562" y="160.241647" style="fill: #ffffff; stroke: #000000"/>
     <use xlink:href="#m7c9d2ad972" x="1297.618665" y="133.954588" style="fill: #ffffff; stroke: #000000"/>
     <use xlink:href="#m7c9d2ad972" x="1316.0334" y="126.444" style="fill: #ffffff; stroke: #000000"/>
     <use xlink:href="#m7c9d2ad972" x="1319.821929" y="154.608706" style="fill: #ffffff; stroke: #000000"/>
     <use xlink:href="#m7c9d2ad972" x="1323.299923" y="98.279294" style="fill: #ffffff; stroke: #000000"/>
     <use xlink:href="#m7c9d2ad972" x="1334.448135" y="118.933412" style="fill: #ffffff; stroke: #000000"/>
     <use xlink:href="#m7c9d2ad972" x="1349.198556" y="118.933412" style="fill: #ffffff; stroke: #000000"/>
     <use xlink:href="#m7c9d2ad972" x="1360.346768" y="147.098118" style="fill: #ffffff; stroke: #000000"/>
     <use xlink:href="#m7c9d2ad972" x="1363.917922" y="111.422824" style="fill: #ffffff; stroke: #000000"/>
     <use xlink:href="#m7c9d2ad972" x="1363.762655" y="77.625176" style="fill: #ffffff; stroke: #000000"/>
     <use xlink:href="#m7c9d2ad972" x="1382.332657" y="105.789882" style="fill: #ffffff; stroke: #000000"/>
     <use xlink:href="#m7c9d2ad972" x="1397.020971" y="90.768706" style="fill: #ffffff; stroke: #000000"/>
     <use xlink:href="#m7c9d2ad972" x="1400.592125" y="62.604" style="fill: #ffffff; stroke: #000000"/>
    </g>
   </g>
   <g id="line2d_57">
    <path d="M 1058.817125 349.884 
L 1208.628768 244.584513 
L 1062.630418 347.203715 
" clip-path="url(#p20a926b95f)" style="fill: none; stroke: #000000; stroke-width: 2; stroke-linecap: square"/>
   </g>
   <g id="line2d_58">
    <g clip-path="url(#p20a926b95f)">
     <use xlink:href="#m357fb76abc" x="1115.614006" y="239.102824" style="stroke: #000000; stroke-linejoin: miter"/>
     <use xlink:href="#m357fb76abc" x="1203.899153" y="194.039294" style="stroke: #000000; stroke-linejoin: miter"/>
     <use xlink:href="#m357fb76abc" x="1270.136303" y="163.996941" style="stroke: #000000; stroke-linejoin: miter"/>
     <use xlink:href="#m357fb76abc" x="1347.366398" y="148.975765" style="stroke: #000000; stroke-linejoin: miter"/>
     <use xlink:href="#m357fb76abc" x="1343.76419" y="73.869882" style="stroke: #000000; stroke-linejoin: miter"/>
     <use xlink:href="#m357fb76abc" x="1336.43556" y="135.832235" style="stroke: #000000; stroke-linejoin: miter"/>
     <use xlink:href="#m357fb76abc" x="1318.113986" y="184.651059" style="stroke: #000000; stroke-linejoin: miter"/>
     <use xlink:href="#m357fb76abc" x="1274.0801" y="197.794588" style="stroke: #000000; stroke-linejoin: miter"/>
     <use xlink:href="#m357fb76abc" x="1237.405897" y="216.571059" style="stroke: #000000; stroke-linejoin: miter"/>
     <use xlink:href="#m357fb76abc" x="1171.386121" y="263.512235" style="stroke: #000000; stroke-linejoin: miter"/>
     <use xlink:href="#m357fb76abc" x="1208.215592" y="235.347529" style="stroke: #000000; stroke-linejoin: miter"/>
     <use xlink:href="#m357fb76abc" x="1274.452742" y="199.672235" style="stroke: #000000; stroke-linejoin: miter"/>
     <use xlink:href="#m357fb76abc" x="1289.203162" y="184.651059" style="stroke: #000000; stroke-linejoin: miter"/>
     <use xlink:href="#m357fb76abc" x="1289.234216" y="192.161647" style="stroke: #000000; stroke-linejoin: miter"/>
     <use xlink:href="#m357fb76abc" x="1281.936639" y="201.549882" style="stroke: #000000; stroke-linejoin: miter"/>
     <use xlink:href="#m357fb76abc" x="1223.307601" y="209.060471" style="stroke: #000000; stroke-linejoin: miter"/>
     <use xlink:href="#m357fb76abc" x="1083.908366" y="225.959294" style="stroke: #000000; stroke-linejoin: miter"/>
    </g>
   </g>
   <g id="patch_15">
    <path d="M 1041.728375 364.248 
L 1041.728375 48.24 
" style="fill: none; stroke: #000000; stroke-width: 0.8; stroke-linejoin: miter; stroke-linecap: square"/>
   </g>
   <g id="patch_16">
    <path d="M 1417.680875 364.248 
L 1417.680875 48.24 
" style="fill: none; stroke: #000000; stroke-width: 0.8; stroke-linejoin: miter; stroke-linecap: square"/>
   </g>
   <g id="patch_17">
    <path d="M 1041.728375 364.248 
L 1417.680875 364.248 
" style="fill: none; stroke: #000000; stroke-width: 0.8; stroke-linejoin: miter; stroke-linecap: square"/>
   </g>
   <g id="patch_18">
    <path d="M 1041.728375 48.24 
L 1417.680875 48.24 
" style="fill: none; stroke: #000000; stroke-width: 0.8; stroke-linejoin: miter; stroke-linecap: square"/>
   </g>
   <g id="legend_3">
    <g id="patch_19">
     <path d="M 1048.728375 100.274375 
L 1191.058063 100.274375 
Q 1193.058063 100.274375 1193.058063 98.274375 
L 1193.058063 55.24 
Q 1193.058063 53.24 1191.058063 53.24 
L 1048.728375 53.24 
Q 1046.728375 53.24 1046.728375 55.24 
L 1046.728375 98.274375 
Q 1046.728375 100.274375 1048.728375 100.274375 
z
" style="fill: #ffffff; opacity: 0.8; stroke: #cccccc; stroke-linejoin: miter"/>
    </g>
    <g id="line2d_59"/>
    <g id="line2d_60">
     <g>
      <use xlink:href="#m7c9d2ad972" x="1060.728375" y="61.338437" style="fill: #ffffff; stroke: #000000"/>
     </g>
    </g>
    <g id="text_54">
     <!-- exp individ: 2.5mg PO -->
     <g transform="translate(1078.728375 64.838437) scale(0.1 -0.1)">
      <defs>
       <path id="DejaVuSans-64" d="M 2906 2969 
L 2906 4863 
L 3481 4863 
L 3481 0 
L 2906 0 
L 2906 525 
Q 2725 213 2448 61 
Q 2172 -91 1784 -91 
Q 1150 -91 751 415 
Q 353 922 353 1747 
Q 353 2572 751 3078 
Q 1150 3584 1784 3584 
Q 2172 3584 2448 3432 
Q 2725 3281 2906 2969 
z
M 947 1747 
Q 947 1113 1208 752 
Q 1469 391 1925 391 
Q 2381 391 2643 752 
Q 2906 1113 2906 1747 
Q 2906 2381 2643 2742 
Q 2381 3103 1925 3103 
Q 1469 3103 1208 2742 
Q 947 2381 947 1747 
z
" transform="scale(0.015625)"/>
       <path id="DejaVuSans-76" d="M 191 3500 
L 800 3500 
L 1894 563 
L 2988 3500 
L 3597 3500 
L 2284 0 
L 1503 0 
L 191 3500 
z
" transform="scale(0.015625)"/>
      </defs>
      <use xlink:href="#DejaVuSans-65"/>
      <use xlink:href="#DejaVuSans-78" transform="translate(59.773438 0)"/>
      <use xlink:href="#DejaVuSans-70" transform="translate(118.953125 0)"/>
      <use xlink:href="#DejaVuSans-20" transform="translate(182.429688 0)"/>
      <use xlink:href="#DejaVuSans-69" transform="translate(214.216797 0)"/>
      <use xlink:href="#DejaVuSans-6e" transform="translate(242 0)"/>
      <use xlink:href="#DejaVuSans-64" transform="translate(305.378906 0)"/>
      <use xlink:href="#DejaVuSans-69" transform="translate(368.855469 0)"/>
      <use xlink:href="#DejaVuSans-76" transform="translate(396.638672 0)"/>
      <use xlink:href="#DejaVuSans-69" transform="translate(455.818359 0)"/>
      <use xlink:href="#DejaVuSans-64" transform="translate(483.601562 0)"/>
      <use xlink:href="#DejaVuSans-3a" transform="translate(547.078125 0)"/>
      <use xlink:href="#DejaVuSans-20" transform="translate(580.769531 0)"/>
      <use xlink:href="#DejaVuSans-32" transform="translate(612.556641 0)"/>
      <use xlink:href="#DejaVuSans-2e" transform="translate(676.179688 0)"/>
      <use xlink:href="#DejaVuSans-35" transform="translate(707.966797 0)"/>
      <use xlink:href="#DejaVuSans-6d" transform="translate(771.589844 0)"/>
      <use xlink:href="#DejaVuSans-67" transform="translate(869.001953 0)"/>
      <use xlink:href="#DejaVuSans-20" transform="translate(932.478516 0)"/>
      <use xlink:href="#DejaVuSans-50" transform="translate(964.265625 0)"/>
      <use xlink:href="#DejaVuSans-4f" transform="translate(1024.568359 0)"/>
     </g>
    </g>
    <g id="line2d_61">
     <path d="M 1050.728375 76.016562 
L 1070.728375 76.016562 
" style="fill: none; stroke: #000000; stroke-width: 2; stroke-linecap: square"/>
    </g>
    <g id="line2d_62"/>
    <g id="text_55">
     <!-- sim: 2.5mg PO -->
     <g transform="translate(1078.728375 79.516562) scale(0.1 -0.1)">
      <use xlink:href="#DejaVuSans-73"/>
      <use xlink:href="#DejaVuSans-69" transform="translate(52.099609 0)"/>
      <use xlink:href="#DejaVuSans-6d" transform="translate(79.882812 0)"/>
      <use xlink:href="#DejaVuSans-3a" transform="translate(177.294922 0)"/>
      <use xlink:href="#DejaVuSans-20" transform="translate(210.986328 0)"/>
      <use xlink:href="#DejaVuSans-32" transform="translate(242.773438 0)"/>
      <use xlink:href="#DejaVuSans-2e" transform="translate(306.396484 0)"/>
      <use xlink:href="#DejaVuSans-35" transform="translate(338.183594 0)"/>
      <use xlink:href="#DejaVuSans-6d" transform="translate(401.806641 0)"/>
      <use xlink:href="#DejaVuSans-67" transform="translate(499.21875 0)"/>
      <use xlink:href="#DejaVuSans-20" transform="translate(562.695312 0)"/>
      <use xlink:href="#DejaVuSans-50" transform="translate(594.482422 0)"/>
      <use xlink:href="#DejaVuSans-4f" transform="translate(654.785156 0)"/>
     </g>
    </g>
    <g id="line2d_63"/>
    <g id="line2d_64">
     <g>
      <use xlink:href="#m357fb76abc" x="1060.728375" y="90.694687" style="stroke: #000000; stroke-linejoin: miter"/>
     </g>
    </g>
    <g id="text_56">
     <!-- exp: 2.5mg PO -->
     <g transform="translate(1078.728375 94.194687) scale(0.1 -0.1)">
      <use xlink:href="#DejaVuSans-65"/>
      <use xlink:href="#DejaVuSans-78" transform="translate(59.773438 0)"/>
      <use xlink:href="#DejaVuSans-70" transform="translate(118.953125 0)"/>
      <use xlink:href="#DejaVuSans-3a" transform="translate(182.429688 0)"/>
      <use xlink:href="#DejaVuSans-20" transform="translate(216.121094 0)"/>
      <use xlink:href="#DejaVuSans-32" transform="translate(247.908203 0)"/>
      <use xlink:href="#DejaVuSans-2e" transform="translate(311.53125 0)"/>
      <use xlink:href="#DejaVuSans-35" transform="translate(343.318359 0)"/>
      <use xlink:href="#DejaVuSans-6d" transform="translate(406.941406 0)"/>
      <use xlink:href="#DejaVuSans-67" transform="translate(504.353516 0)"/>
      <use xlink:href="#DejaVuSans-20" transform="translate(567.830078 0)"/>
      <use xlink:href="#DejaVuSans-50" transform="translate(599.617188 0)"/>
      <use xlink:href="#DejaVuSans-4f" transform="translate(659.919922 0)"/>
     </g>
    </g>
   </g>
  </g>
  <g id="text_57">
   <!-- Frost2014 -->
   <g transform="translate(648.439609 26.196094) scale(0.25 -0.25)">
    <defs>
     <path id="DejaVuSans-Bold-6f" d="M 2203 2784 
Q 1831 2784 1636 2517 
Q 1441 2250 1441 1747 
Q 1441 1244 1636 976 
Q 1831 709 2203 709 
Q 2569 709 2762 976 
Q 2956 1244 2956 1747 
Q 2956 2250 2762 2517 
Q 2569 2784 2203 2784 
z
M 2203 3584 
Q 3106 3584 3614 3096 
Q 4122 2609 4122 1747 
Q 4122 884 3614 396 
Q 3106 -91 2203 -91 
Q 1297 -91 786 396 
Q 275 884 275 1747 
Q 275 2609 786 3096 
Q 1297 3584 2203 3584 
z
" transform="scale(0.015625)"/>
     <path id="DejaVuSans-Bold-32" d="M 1844 884 
L 3897 884 
L 3897 0 
L 506 0 
L 506 884 
L 2209 2388 
Q 2438 2594 2547 2791 
Q 2656 2988 2656 3200 
Q 2656 3528 2436 3728 
Q 2216 3928 1850 3928 
Q 1569 3928 1234 3808 
Q 900 3688 519 3450 
L 519 4475 
Q 925 4609 1322 4679 
Q 1719 4750 2100 4750 
Q 2938 4750 3402 4381 
Q 3866 4013 3866 3353 
Q 3866 2972 3669 2642 
Q 3472 2313 2841 1759 
L 1844 884 
z
" transform="scale(0.015625)"/>
     <path id="DejaVuSans-Bold-30" d="M 2944 2338 
Q 2944 3213 2780 3570 
Q 2616 3928 2228 3928 
Q 1841 3928 1675 3570 
Q 1509 3213 1509 2338 
Q 1509 1453 1675 1090 
Q 1841 728 2228 728 
Q 2613 728 2778 1090 
Q 2944 1453 2944 2338 
z
M 4147 2328 
Q 4147 1169 3647 539 
Q 3147 -91 2228 -91 
Q 1306 -91 806 539 
Q 306 1169 306 2328 
Q 306 3491 806 4120 
Q 1306 4750 2228 4750 
Q 3147 4750 3647 4120 
Q 4147 3491 4147 2328 
z
" transform="scale(0.015625)"/>
     <path id="DejaVuSans-Bold-31" d="M 750 831 
L 1813 831 
L 1813 3847 
L 722 3622 
L 722 4441 
L 1806 4666 
L 2950 4666 
L 2950 831 
L 4013 831 
L 4013 0 
L 750 0 
L 750 831 
z
" transform="scale(0.015625)"/>
     <path id="DejaVuSans-Bold-34" d="M 2356 3675 
L 1038 1722 
L 2356 1722 
L 2356 3675 
z
M 2156 4666 
L 3494 4666 
L 3494 1722 
L 4159 1722 
L 4159 850 
L 3494 850 
L 3494 0 
L 2356 0 
L 2356 850 
L 288 850 
L 288 1881 
L 2156 4666 
z
" transform="scale(0.015625)"/>
    </defs>
    <use xlink:href="#DejaVuSans-Bold-46"/>
    <use xlink:href="#DejaVuSans-Bold-72" transform="translate(61.935547 0)"/>
    <use xlink:href="#DejaVuSans-Bold-6f" transform="translate(111.251953 0)"/>
    <use xlink:href="#DejaVuSans-Bold-73" transform="translate(179.953125 0)"/>
    <use xlink:href="#DejaVuSans-Bold-74" transform="translate(239.474609 0)"/>
    <use xlink:href="#DejaVuSans-Bold-32" transform="translate(287.277344 0)"/>
    <use xlink:href="#DejaVuSans-Bold-30" transform="translate(356.857422 0)"/>
    <use xlink:href="#DejaVuSans-Bold-31" transform="translate(426.4375 0)"/>
    <use xlink:href="#DejaVuSans-Bold-34" transform="translate(496.017578 0)"/>
   </g>
  </g>
 </g>
 <defs>
  <clipPath id="p4ea12495cf">
   <rect x="64.251875" y="48.24" width="375.9525" height="316.008"/>
  </clipPath>
  <clipPath id="p0a5174e616">
   <rect x="552.990125" y="48.24" width="375.9525" height="316.008"/>
  </clipPath>
  <clipPath id="p20a926b95f">
   <rect x="1041.728375" y="48.24" width="375.9525" height="316.008"/>
  </clipPath>
 </defs>
</svg>
