<?xml version="1.0" encoding="utf-8" standalone="no"?>
<!DOCTYPE svg PUBLIC "-//W3C//DTD SVG 1.1//EN"
  "http://www.w3.org/Graphics/SVG/1.1/DTD/svg11.dtd">
<svg xmlns:xlink="http://www.w3.org/1999/xlink" width="440.4992pt" height="414.385812pt" viewBox="0 0 440.4992 414.385812" xmlns="http://www.w3.org/2000/svg" version="1.1">
 <metadata>
  <rdf:RDF xmlns:dc="http://purl.org/dc/elements/1.1/" xmlns:cc="http://creativecommons.org/ns#" xmlns:rdf="http://www.w3.org/1999/02/22-rdf-syntax-ns#">
   <cc:Work>
    <dc:type rdf:resource="http://purl.org/dc/dcmitype/StillImage"/>
    <dc:date>2026-03-23T09:58:22.354012</dc:date>
    <dc:format>image/svg+xml</dc:format>
    <dc:creator>
     <cc:Agent>
      <dc:title>Matplotlib v3.10.8, https://matplotlib.org/</dc:title>
     </cc:Agent>
    </dc:creator>
   </cc:Work>
  </rdf:RDF>
 </metadata>
 <defs>
  <style type="text/css">*{stroke-linejoin: round; stroke-linecap: butt}</style>
 </defs>
 <g id="figure_1">
  <g id="patch_1">
   <path d="M 0 414.385812 
L 440.4992 414.385812 
L 440.4992 -0 
L 0 -0 
z
" style="fill: #ffffff"/>
  </g>
  <g id="axes_1">
   <g id="patch_2">
    <path d="M 59.495 364.248 
L 433.2992 364.248 
L 433.2992 48.24 
L 59.495 48.24 
z
" style="fill: #ffffff"/>
   </g>
   <g id="matplotlib.axis_1">
    <g id="xtick_1">
     <g id="line2d_1">
      <defs>
       <path id="m1761ede5c7" d="M 0 0 
L 0 3.5 
" style="stroke: #000000; stroke-width: 0.8"/>
      </defs>
      <g>
       <use xlink:href="#m1761ede5c7" x="59.495" y="364.248" style="stroke: #000000; stroke-width: 0.8"/>
      </g>
     </g>
     <g id="text_1">
      <!-- −20 -->
      <g transform="translate(43.666484 382.645656) scale(0.15 -0.15)">
       <defs>
        <path id="DejaVuSans-2212" d="M 678 2272 
L 4684 2272 
L 4684 1741 
L 678 1741 
L 678 2272 
z
" transform="scale(0.015625)"/>
        <path id="DejaVuSans-32" d="M 1228 531 
L 3431 531 
L 3431 0 
L 469 0 
L 469 531 
Q 828 903 1448 1529 
Q 2069 2156 2228 2338 
Q 2531 2678 2651 2914 
Q 2772 3150 2772 3378 
Q 2772 3750 2511 3984 
Q 2250 4219 1831 4219 
Q 1534 4219 1204 4116 
Q 875 4013 500 3803 
L 500 4441 
Q 881 4594 1212 4672 
Q 1544 4750 1819 4750 
Q 2544 4750 2975 4387 
Q 3406 4025 3406 3419 
Q 3406 3131 3298 2873 
Q 3191 2616 2906 2266 
Q 2828 2175 2409 1742 
Q 1991 1309 1228 531 
z
" transform="scale(0.015625)"/>
        <path id="DejaVuSans-30" d="M 2034 4250 
Q 1547 4250 1301 3770 
Q 1056 3291 1056 2328 
Q 1056 1369 1301 889 
Q 1547 409 2034 409 
Q 2525 409 2770 889 
Q 3016 1369 3016 2328 
Q 3016 3291 2770 3770 
Q 2525 4250 2034 4250 
z
M 2034 4750 
Q 2819 4750 3233 4129 
Q 3647 3509 3647 2328 
Q 3647 1150 3233 529 
Q 2819 -91 2034 -91 
Q 1250 -91 836 529 
Q 422 1150 422 2328 
Q 422 3509 836 4129 
Q 1250 4750 2034 4750 
z
" transform="scale(0.015625)"/>
       </defs>
       <use xlink:href="#DejaVuSans-2212"/>
       <use xlink:href="#DejaVuSans-32" transform="translate(83.789062 0)"/>
       <use xlink:href="#DejaVuSans-30" transform="translate(147.412109 0)"/>
      </g>
     </g>
    </g>
    <g id="xtick_2">
     <g id="line2d_2">
      <g>
       <use xlink:href="#m1761ede5c7" x="138.190621" y="364.248" style="stroke: #000000; stroke-width: 0.8"/>
      </g>
     </g>
     <g id="text_2">
      <!-- 0 -->
      <g transform="translate(133.418746 382.645656) scale(0.15 -0.15)">
       <use xlink:href="#DejaVuSans-30"/>
      </g>
     </g>
    </g>
    <g id="xtick_3">
     <g id="line2d_3">
      <g>
       <use xlink:href="#m1761ede5c7" x="216.886242" y="364.248" style="stroke: #000000; stroke-width: 0.8"/>
      </g>
     </g>
     <g id="text_3">
      <!-- 20 -->
      <g transform="translate(207.342492 382.645656) scale(0.15 -0.15)">
       <use xlink:href="#DejaVuSans-32"/>
       <use xlink:href="#DejaVuSans-30" transform="translate(63.623047 0)"/>
      </g>
     </g>
    </g>
    <g id="xtick_4">
     <g id="line2d_4">
      <g>
       <use xlink:href="#m1761ede5c7" x="295.581863" y="364.248" style="stroke: #000000; stroke-width: 0.8"/>
      </g>
     </g>
     <g id="text_4">
      <!-- 40 -->
      <g transform="translate(286.038113 382.645656) scale(0.15 -0.15)">
       <defs>
        <path id="DejaVuSans-34" d="M 2419 4116 
L 825 1625 
L 2419 1625 
L 2419 4116 
z
M 2253 4666 
L 3047 4666 
L 3047 1625 
L 3713 1625 
L 3713 1100 
L 3047 1100 
L 3047 0 
L 2419 0 
L 2419 1100 
L 313 1100 
L 313 1709 
L 2253 4666 
z
" transform="scale(0.015625)"/>
       </defs>
       <use xlink:href="#DejaVuSans-34"/>
       <use xlink:href="#DejaVuSans-30" transform="translate(63.623047 0)"/>
      </g>
     </g>
    </g>
    <g id="xtick_5">
     <g id="line2d_5">
      <g>
       <use xlink:href="#m1761ede5c7" x="374.277484" y="364.248" style="stroke: #000000; stroke-width: 0.8"/>
      </g>
     </g>
     <g id="text_5">
      <!-- 60 -->
      <g transform="translate(364.733734 382.645656) scale(0.15 -0.15)">
       <defs>
        <path id="DejaVuSans-36" d="M 2113 2584 
Q 1688 2584 1439 2293 
Q 1191 2003 1191 1497 
Q 1191 994 1439 701 
Q 1688 409 2113 409 
Q 2538 409 2786 701 
Q 3034 994 3034 1497 
Q 3034 2003 2786 2293 
Q 2538 2584 2113 2584 
z
M 3366 4563 
L 3366 3988 
Q 3128 4100 2886 4159 
Q 2644 4219 2406 4219 
Q 1781 4219 1451 3797 
Q 1122 3375 1075 2522 
Q 1259 2794 1537 2939 
Q 1816 3084 2150 3084 
Q 2853 3084 3261 2657 
Q 3669 2231 3669 1497 
Q 3669 778 3244 343 
Q 2819 -91 2113 -91 
Q 1303 -91 875 529 
Q 447 1150 447 2328 
Q 447 3434 972 4092 
Q 1497 4750 2381 4750 
Q 2619 4750 2861 4703 
Q 3103 4656 3366 4563 
z
" transform="scale(0.015625)"/>
       </defs>
       <use xlink:href="#DejaVuSans-36"/>
       <use xlink:href="#DejaVuSans-30" transform="translate(63.623047 0)"/>
      </g>
     </g>
    </g>
    <g id="text_6">
     <!-- time [hr] -->
     <g transform="translate(201.322569 403.442375) scale(0.18 -0.18)">
      <defs>
       <path id="DejaVuSans-Bold-74" d="M 1759 4494 
L 1759 3500 
L 2913 3500 
L 2913 2700 
L 1759 2700 
L 1759 1216 
Q 1759 972 1856 886 
Q 1953 800 2241 800 
L 2816 800 
L 2816 0 
L 1856 0 
Q 1194 0 917 276 
Q 641 553 641 1216 
L 641 2700 
L 84 2700 
L 84 3500 
L 641 3500 
L 641 4494 
L 1759 4494 
z
" transform="scale(0.015625)"/>
       <path id="DejaVuSans-Bold-69" d="M 538 3500 
L 1656 3500 
L 1656 0 
L 538 0 
L 538 3500 
z
M 538 4863 
L 1656 4863 
L 1656 3950 
L 538 3950 
L 538 4863 
z
" transform="scale(0.015625)"/>
       <path id="DejaVuSans-Bold-6d" d="M 3781 2919 
Q 3994 3244 4286 3414 
Q 4578 3584 4928 3584 
Q 5531 3584 5847 3212 
Q 6163 2841 6163 2131 
L 6163 0 
L 5038 0 
L 5038 1825 
Q 5041 1866 5042 1909 
Q 5044 1953 5044 2034 
Q 5044 2406 4934 2573 
Q 4825 2741 4581 2741 
Q 4263 2741 4089 2478 
Q 3916 2216 3909 1719 
L 3909 0 
L 2784 0 
L 2784 1825 
Q 2784 2406 2684 2573 
Q 2584 2741 2328 2741 
Q 2006 2741 1831 2477 
Q 1656 2213 1656 1722 
L 1656 0 
L 531 0 
L 531 3500 
L 1656 3500 
L 1656 2988 
Q 1863 3284 2130 3434 
Q 2397 3584 2719 3584 
Q 3081 3584 3359 3409 
Q 3638 3234 3781 2919 
z
" transform="scale(0.015625)"/>
       <path id="DejaVuSans-Bold-65" d="M 4031 1759 
L 4031 1441 
L 1416 1441 
Q 1456 1047 1700 850 
Q 1944 653 2381 653 
Q 2734 653 3104 758 
Q 3475 863 3866 1075 
L 3866 213 
Q 3469 63 3072 -14 
Q 2675 -91 2278 -91 
Q 1328 -91 801 392 
Q 275 875 275 1747 
Q 275 2603 792 3093 
Q 1309 3584 2216 3584 
Q 3041 3584 3536 3087 
Q 4031 2591 4031 1759 
z
M 2881 2131 
Q 2881 2450 2695 2645 
Q 2509 2841 2209 2841 
Q 1884 2841 1681 2658 
Q 1478 2475 1428 2131 
L 2881 2131 
z
" transform="scale(0.015625)"/>
       <path id="DejaVuSans-Bold-20" transform="scale(0.015625)"/>
       <path id="DejaVuSans-Bold-5b" d="M 550 4863 
L 2491 4863 
L 2491 4159 
L 1613 4159 
L 1613 -141 
L 2491 -141 
L 2491 -844 
L 550 -844 
L 550 4863 
z
" transform="scale(0.015625)"/>
       <path id="DejaVuSans-Bold-68" d="M 4056 2131 
L 4056 0 
L 2931 0 
L 2931 347 
L 2931 1625 
Q 2931 2084 2911 2256 
Q 2891 2428 2841 2509 
Q 2775 2619 2662 2680 
Q 2550 2741 2406 2741 
Q 2056 2741 1856 2470 
Q 1656 2200 1656 1722 
L 1656 0 
L 538 0 
L 538 4863 
L 1656 4863 
L 1656 2988 
Q 1909 3294 2193 3439 
Q 2478 3584 2822 3584 
Q 3428 3584 3742 3212 
Q 4056 2841 4056 2131 
z
" transform="scale(0.015625)"/>
       <path id="DejaVuSans-Bold-72" d="M 3138 2547 
Q 2991 2616 2845 2648 
Q 2700 2681 2553 2681 
Q 2122 2681 1889 2404 
Q 1656 2128 1656 1613 
L 1656 0 
L 538 0 
L 538 3500 
L 1656 3500 
L 1656 2925 
Q 1872 3269 2151 3426 
Q 2431 3584 2822 3584 
Q 2878 3584 2943 3579 
Q 3009 3575 3134 3559 
L 3138 2547 
z
" transform="scale(0.015625)"/>
       <path id="DejaVuSans-Bold-5d" d="M 2375 -844 
L 434 -844 
L 434 -141 
L 1313 -141 
L 1313 4159 
L 434 4159 
L 434 4863 
L 2375 4863 
L 2375 -844 
z
" transform="scale(0.015625)"/>
      </defs>
      <use xlink:href="#DejaVuSans-Bold-74"/>
      <use xlink:href="#DejaVuSans-Bold-69" transform="translate(47.802734 0)"/>
      <use xlink:href="#DejaVuSans-Bold-6d" transform="translate(82.080078 0)"/>
      <use xlink:href="#DejaVuSans-Bold-65" transform="translate(186.279297 0)"/>
      <use xlink:href="#DejaVuSans-Bold-20" transform="translate(254.101562 0)"/>
      <use xlink:href="#DejaVuSans-Bold-5b" transform="translate(288.916016 0)"/>
      <use xlink:href="#DejaVuSans-Bold-68" transform="translate(334.619141 0)"/>
      <use xlink:href="#DejaVuSans-Bold-72" transform="translate(405.810547 0)"/>
      <use xlink:href="#DejaVuSans-Bold-5d" transform="translate(455.126953 0)"/>
     </g>
    </g>
   </g>
   <g id="matplotlib.axis_2">
    <g id="ytick_1">
     <g id="line2d_6">
      <defs>
       <path id="m4b7e675a50" d="M 0 0 
L -3.5 0 
" style="stroke: #000000; stroke-width: 0.8"/>
      </defs>
      <g>
       <use xlink:href="#m4b7e675a50" x="59.495" y="349.884" style="stroke: #000000; stroke-width: 0.8"/>
      </g>
     </g>
     <g id="text_7">
      <!-- 0.0 -->
      <g transform="translate(28.640313 355.582828) scale(0.15 -0.15)">
       <defs>
        <path id="DejaVuSans-2e" d="M 684 794 
L 1344 794 
L 1344 0 
L 684 0 
L 684 794 
z
" transform="scale(0.015625)"/>
       </defs>
       <use xlink:href="#DejaVuSans-30"/>
       <use xlink:href="#DejaVuSans-2e" transform="translate(63.623047 0)"/>
       <use xlink:href="#DejaVuSans-30" transform="translate(95.410156 0)"/>
      </g>
     </g>
    </g>
    <g id="ytick_2">
     <g id="line2d_7">
      <g>
       <use xlink:href="#m4b7e675a50" x="59.495" y="310.080944" style="stroke: #000000; stroke-width: 0.8"/>
      </g>
     </g>
     <g id="text_8">
      <!-- 0.1 -->
      <g transform="translate(28.640313 315.779772) scale(0.15 -0.15)">
       <defs>
        <path id="DejaVuSans-31" d="M 794 531 
L 1825 531 
L 1825 4091 
L 703 3866 
L 703 4441 
L 1819 4666 
L 2450 4666 
L 2450 531 
L 3481 531 
L 3481 0 
L 794 0 
L 794 531 
z
" transform="scale(0.015625)"/>
       </defs>
       <use xlink:href="#DejaVuSans-30"/>
       <use xlink:href="#DejaVuSans-2e" transform="translate(63.623047 0)"/>
       <use xlink:href="#DejaVuSans-31" transform="translate(95.410156 0)"/>
      </g>
     </g>
    </g>
    <g id="ytick_3">
     <g id="line2d_8">
      <g>
       <use xlink:href="#m4b7e675a50" x="59.495" y="270.277888" style="stroke: #000000; stroke-width: 0.8"/>
      </g>
     </g>
     <g id="text_9">
      <!-- 0.2 -->
      <g transform="translate(28.640313 275.976716) scale(0.15 -0.15)">
       <use xlink:href="#DejaVuSans-30"/>
       <use xlink:href="#DejaVuSans-2e" transform="translate(63.623047 0)"/>
       <use xlink:href="#DejaVuSans-32" transform="translate(95.410156 0)"/>
      </g>
     </g>
    </g>
    <g id="ytick_4">
     <g id="line2d_9">
      <g>
       <use xlink:href="#m4b7e675a50" x="59.495" y="230.474832" style="stroke: #000000; stroke-width: 0.8"/>
      </g>
     </g>
     <g id="text_10">
      <!-- 0.3 -->
      <g transform="translate(28.640313 236.173661) scale(0.15 -0.15)">
       <defs>
        <path id="DejaVuSans-33" d="M 2597 2516 
Q 3050 2419 3304 2112 
Q 3559 1806 3559 1356 
Q 3559 666 3084 287 
Q 2609 -91 1734 -91 
Q 1441 -91 1130 -33 
Q 819 25 488 141 
L 488 750 
Q 750 597 1062 519 
Q 1375 441 1716 441 
Q 2309 441 2620 675 
Q 2931 909 2931 1356 
Q 2931 1769 2642 2001 
Q 2353 2234 1838 2234 
L 1294 2234 
L 1294 2753 
L 1863 2753 
Q 2328 2753 2575 2939 
Q 2822 3125 2822 3475 
Q 2822 3834 2567 4026 
Q 2313 4219 1838 4219 
Q 1578 4219 1281 4162 
Q 984 4106 628 3988 
L 628 4550 
Q 988 4650 1302 4700 
Q 1616 4750 1894 4750 
Q 2613 4750 3031 4423 
Q 3450 4097 3450 3541 
Q 3450 3153 3228 2886 
Q 3006 2619 2597 2516 
z
" transform="scale(0.015625)"/>
       </defs>
       <use xlink:href="#DejaVuSans-30"/>
       <use xlink:href="#DejaVuSans-2e" transform="translate(63.623047 0)"/>
       <use xlink:href="#DejaVuSans-33" transform="translate(95.410156 0)"/>
      </g>
     </g>
    </g>
    <g id="ytick_5">
     <g id="line2d_10">
      <g>
       <use xlink:href="#m4b7e675a50" x="59.495" y="190.671777" style="stroke: #000000; stroke-width: 0.8"/>
      </g>
     </g>
     <g id="text_11">
      <!-- 0.4 -->
      <g transform="translate(28.640313 196.370605) scale(0.15 -0.15)">
       <use xlink:href="#DejaVuSans-30"/>
       <use xlink:href="#DejaVuSans-2e" transform="translate(63.623047 0)"/>
       <use xlink:href="#DejaVuSans-34" transform="translate(95.410156 0)"/>
      </g>
     </g>
    </g>
    <g id="ytick_6">
     <g id="line2d_11">
      <g>
       <use xlink:href="#m4b7e675a50" x="59.495" y="150.868721" style="stroke: #000000; stroke-width: 0.8"/>
      </g>
     </g>
     <g id="text_12">
      <!-- 0.5 -->
      <g transform="translate(28.640313 156.567549) scale(0.15 -0.15)">
       <defs>
        <path id="DejaVuSans-35" d="M 691 4666 
L 3169 4666 
L 3169 4134 
L 1269 4134 
L 1269 2991 
Q 1406 3038 1543 3061 
Q 1681 3084 1819 3084 
Q 2600 3084 3056 2656 
Q 3513 2228 3513 1497 
Q 3513 744 3044 326 
Q 2575 -91 1722 -91 
Q 1428 -91 1123 -41 
Q 819 9 494 109 
L 494 744 
Q 775 591 1075 516 
Q 1375 441 1709 441 
Q 2250 441 2565 725 
Q 2881 1009 2881 1497 
Q 2881 1984 2565 2268 
Q 2250 2553 1709 2553 
Q 1456 2553 1204 2497 
Q 953 2441 691 2322 
L 691 4666 
z
" transform="scale(0.015625)"/>
       </defs>
       <use xlink:href="#DejaVuSans-30"/>
       <use xlink:href="#DejaVuSans-2e" transform="translate(63.623047 0)"/>
       <use xlink:href="#DejaVuSans-35" transform="translate(95.410156 0)"/>
      </g>
     </g>
    </g>
    <g id="ytick_7">
     <g id="line2d_12">
      <g>
       <use xlink:href="#m4b7e675a50" x="59.495" y="111.065665" style="stroke: #000000; stroke-width: 0.8"/>
      </g>
     </g>
     <g id="text_13">
      <!-- 0.6 -->
      <g transform="translate(28.640313 116.764493) scale(0.15 -0.15)">
       <use xlink:href="#DejaVuSans-30"/>
       <use xlink:href="#DejaVuSans-2e" transform="translate(63.623047 0)"/>
       <use xlink:href="#DejaVuSans-36" transform="translate(95.410156 0)"/>
      </g>
     </g>
    </g>
    <g id="ytick_8">
     <g id="line2d_13">
      <g>
       <use xlink:href="#m4b7e675a50" x="59.495" y="71.262609" style="stroke: #000000; stroke-width: 0.8"/>
      </g>
     </g>
     <g id="text_14">
      <!-- 0.7 -->
      <g transform="translate(28.640313 76.961437) scale(0.15 -0.15)">
       <defs>
        <path id="DejaVuSans-37" d="M 525 4666 
L 3525 4666 
L 3525 4397 
L 1831 0 
L 1172 0 
L 2766 4134 
L 525 4134 
L 525 4666 
z
" transform="scale(0.015625)"/>
       </defs>
       <use xlink:href="#DejaVuSans-30"/>
       <use xlink:href="#DejaVuSans-2e" transform="translate(63.623047 0)"/>
       <use xlink:href="#DejaVuSans-37" transform="translate(95.410156 0)"/>
      </g>
     </g>
    </g>
    <g id="text_15">
     <!-- apixaban plasma [µM] -->
     <g transform="translate(20.877188 319.1265) rotate(-90) scale(0.18 -0.18)">
      <defs>
       <path id="DejaVuSans-Bold-61" d="M 2106 1575 
Q 1756 1575 1579 1456 
Q 1403 1338 1403 1106 
Q 1403 894 1545 773 
Q 1688 653 1941 653 
Q 2256 653 2472 879 
Q 2688 1106 2688 1447 
L 2688 1575 
L 2106 1575 
z
M 3816 1997 
L 3816 0 
L 2688 0 
L 2688 519 
Q 2463 200 2181 54 
Q 1900 -91 1497 -91 
Q 953 -91 614 226 
Q 275 544 275 1050 
Q 275 1666 698 1953 
Q 1122 2241 2028 2241 
L 2688 2241 
L 2688 2328 
Q 2688 2594 2478 2717 
Q 2269 2841 1825 2841 
Q 1466 2841 1156 2769 
Q 847 2697 581 2553 
L 581 3406 
Q 941 3494 1303 3539 
Q 1666 3584 2028 3584 
Q 2975 3584 3395 3211 
Q 3816 2838 3816 1997 
z
" transform="scale(0.015625)"/>
       <path id="DejaVuSans-Bold-70" d="M 1656 506 
L 1656 -1331 
L 538 -1331 
L 538 3500 
L 1656 3500 
L 1656 2988 
Q 1888 3294 2169 3439 
Q 2450 3584 2816 3584 
Q 3463 3584 3878 3070 
Q 4294 2556 4294 1747 
Q 4294 938 3878 423 
Q 3463 -91 2816 -91 
Q 2450 -91 2169 54 
Q 1888 200 1656 506 
z
M 2400 2772 
Q 2041 2772 1848 2508 
Q 1656 2244 1656 1747 
Q 1656 1250 1848 986 
Q 2041 722 2400 722 
Q 2759 722 2948 984 
Q 3138 1247 3138 1747 
Q 3138 2247 2948 2509 
Q 2759 2772 2400 2772 
z
" transform="scale(0.015625)"/>
       <path id="DejaVuSans-Bold-78" d="M 1422 1791 
L 159 3500 
L 1344 3500 
L 2059 2463 
L 2784 3500 
L 3969 3500 
L 2706 1797 
L 4031 0 
L 2847 0 
L 2059 1106 
L 1281 0 
L 97 0 
L 1422 1791 
z
" transform="scale(0.015625)"/>
       <path id="DejaVuSans-Bold-62" d="M 2400 722 
Q 2759 722 2948 984 
Q 3138 1247 3138 1747 
Q 3138 2247 2948 2509 
Q 2759 2772 2400 2772 
Q 2041 2772 1848 2508 
Q 1656 2244 1656 1747 
Q 1656 1250 1848 986 
Q 2041 722 2400 722 
z
M 1656 2988 
Q 1888 3294 2169 3439 
Q 2450 3584 2816 3584 
Q 3463 3584 3878 3070 
Q 4294 2556 4294 1747 
Q 4294 938 3878 423 
Q 3463 -91 2816 -91 
Q 2450 -91 2169 54 
Q 1888 200 1656 506 
L 1656 0 
L 538 0 
L 538 4863 
L 1656 4863 
L 1656 2988 
z
" transform="scale(0.015625)"/>
       <path id="DejaVuSans-Bold-6e" d="M 4056 2131 
L 4056 0 
L 2931 0 
L 2931 347 
L 2931 1631 
Q 2931 2084 2911 2256 
Q 2891 2428 2841 2509 
Q 2775 2619 2662 2680 
Q 2550 2741 2406 2741 
Q 2056 2741 1856 2470 
Q 1656 2200 1656 1722 
L 1656 0 
L 538 0 
L 538 3500 
L 1656 3500 
L 1656 2988 
Q 1909 3294 2193 3439 
Q 2478 3584 2822 3584 
Q 3428 3584 3742 3212 
Q 4056 2841 4056 2131 
z
" transform="scale(0.015625)"/>
       <path id="DejaVuSans-Bold-6c" d="M 538 4863 
L 1656 4863 
L 1656 0 
L 538 0 
L 538 4863 
z
" transform="scale(0.015625)"/>
       <path id="DejaVuSans-Bold-73" d="M 3272 3391 
L 3272 2541 
Q 2913 2691 2578 2766 
Q 2244 2841 1947 2841 
Q 1628 2841 1473 2761 
Q 1319 2681 1319 2516 
Q 1319 2381 1436 2309 
Q 1553 2238 1856 2203 
L 2053 2175 
Q 2913 2066 3209 1816 
Q 3506 1566 3506 1031 
Q 3506 472 3093 190 
Q 2681 -91 1863 -91 
Q 1516 -91 1145 -36 
Q 775 19 384 128 
L 384 978 
Q 719 816 1070 734 
Q 1422 653 1784 653 
Q 2113 653 2278 743 
Q 2444 834 2444 1013 
Q 2444 1163 2330 1236 
Q 2216 1309 1875 1350 
L 1678 1375 
Q 931 1469 631 1722 
Q 331 1975 331 2491 
Q 331 3047 712 3315 
Q 1094 3584 1881 3584 
Q 2191 3584 2531 3537 
Q 2872 3491 3272 3391 
z
" transform="scale(0.015625)"/>
       <path id="DejaVuSans-Bold-b5" d="M 544 -1338 
L 544 3500 
L 1672 3500 
L 1672 1466 
Q 1672 1103 1828 926 
Q 1984 750 2303 750 
Q 2625 750 2781 926 
Q 2938 1103 2938 1466 
L 2938 3500 
L 4063 3500 
L 4063 1159 
Q 4063 938 4114 850 
Q 4166 763 4288 763 
Q 4344 763 4395 778 
Q 4447 794 4506 831 
L 4506 50 
Q 4341 -22 4195 -56 
Q 4050 -91 3909 -91 
Q 3631 -91 3454 26 
Q 3278 144 3169 403 
Q 3022 156 2811 32 
Q 2600 -91 2322 -91 
Q 2091 -91 1928 -17 
Q 1766 56 1672 206 
L 1672 -1338 
L 544 -1338 
z
" transform="scale(0.015625)"/>
       <path id="DejaVuSans-Bold-4d" d="M 588 4666 
L 2119 4666 
L 3181 2169 
L 4250 4666 
L 5778 4666 
L 5778 0 
L 4641 0 
L 4641 3413 
L 3566 897 
L 2803 897 
L 1728 3413 
L 1728 0 
L 588 0 
L 588 4666 
z
" transform="scale(0.015625)"/>
      </defs>
      <use xlink:href="#DejaVuSans-Bold-61"/>
      <use xlink:href="#DejaVuSans-Bold-70" transform="translate(67.480469 0)"/>
      <use xlink:href="#DejaVuSans-Bold-69" transform="translate(139.0625 0)"/>
      <use xlink:href="#DejaVuSans-Bold-78" transform="translate(173.339844 0)"/>
      <use xlink:href="#DejaVuSans-Bold-61" transform="translate(237.841797 0)"/>
      <use xlink:href="#DejaVuSans-Bold-62" transform="translate(305.322266 0)"/>
      <use xlink:href="#DejaVuSans-Bold-61" transform="translate(376.904297 0)"/>
      <use xlink:href="#DejaVuSans-Bold-6e" transform="translate(444.384766 0)"/>
      <use xlink:href="#DejaVuSans-Bold-20" transform="translate(515.576172 0)"/>
      <use xlink:href="#DejaVuSans-Bold-70" transform="translate(550.390625 0)"/>
      <use xlink:href="#DejaVuSans-Bold-6c" transform="translate(621.972656 0)"/>
      <use xlink:href="#DejaVuSans-Bold-61" transform="translate(656.25 0)"/>
      <use xlink:href="#DejaVuSans-Bold-73" transform="translate(723.730469 0)"/>
      <use xlink:href="#DejaVuSans-Bold-6d" transform="translate(783.251953 0)"/>
      <use xlink:href="#DejaVuSans-Bold-61" transform="translate(887.451172 0)"/>
      <use xlink:href="#DejaVuSans-Bold-20" transform="translate(954.931641 0)"/>
      <use xlink:href="#DejaVuSans-Bold-5b" transform="translate(989.746094 0)"/>
      <use xlink:href="#DejaVuSans-Bold-b5" transform="translate(1035.449219 0)"/>
      <use xlink:href="#DejaVuSans-Bold-4d" transform="translate(1109.033203 0)"/>
      <use xlink:href="#DejaVuSans-Bold-5d" transform="translate(1208.544922 0)"/>
     </g>
    </g>
   </g>
   <g id="LineCollection_1">
    <path clip-path="url(#p2a0901772e)" style="fill: none; stroke: #000000"/>
    <path d="M 140.158012 344.64058 
L 140.158012 263.670987 
" clip-path="url(#p2a0901772e)" style="fill: none; stroke: #000000"/>
    <path d="M 142.125402 294.886169 
L 142.125402 193.823347 
" clip-path="url(#p2a0901772e)" style="fill: none; stroke: #000000"/>
    <path d="M 146.060183 213.709708 
L 146.060183 119.17923 
" clip-path="url(#p2a0901772e)" style="fill: none; stroke: #000000"/>
    <path d="M 149.994964 203.761172 
L 149.994964 92.97828 
" clip-path="url(#p2a0901772e)" style="fill: none; stroke: #000000"/>
    <path d="M 153.929745 229.921758 
L 153.929745 103.271072 
" clip-path="url(#p2a0901772e)" style="fill: none; stroke: #000000"/>
    <path d="M 161.799307 264.342342 
L 161.799307 174.00351 
" clip-path="url(#p2a0901772e)" style="fill: none; stroke: #000000"/>
    <path d="M 173.603651 300.272433 
L 173.603651 238.825819 
" clip-path="url(#p2a0901772e)" style="fill: none; stroke: #000000"/>
    <path d="M 185.407994 315.31731 
L 185.407994 278.812122 
" clip-path="url(#p2a0901772e)" style="fill: none; stroke: #000000"/>
    <path d="M 209.01668 333.024167 
L 209.01668 317.892833 
" clip-path="url(#p2a0901772e)" style="fill: none; stroke: #000000"/>
    <path d="M 232.625366 339.525266 
L 232.625366 324.507497 
" clip-path="url(#p2a0901772e)" style="fill: none; stroke: #000000"/>
    <path d="M 279.842739 346.869602 
L 279.842739 339.790009 
" clip-path="url(#p2a0901772e)" style="fill: none; stroke: #000000"/>
    <path d="M 327.060112 348.467956 
L 327.060112 343.270303 
" clip-path="url(#p2a0901772e)" style="fill: none; stroke: #000000"/>
    <path d="M 374.277484 348.721731 
L 374.277484 345.993786 
" clip-path="url(#p2a0901772e)" style="fill: none; stroke: #000000"/>
    <path d="M 421.494857 349.08052 
L 421.494857 347.193474 
" clip-path="url(#p2a0901772e)" style="fill: none; stroke: #000000"/>
   </g>
   <g id="LineCollection_2">
    <path d="M 138.190621 256.981091 
L 138.190621 254.520582 
" clip-path="url(#p2a0901772e)" style="fill: none; stroke: #bcbd22"/>
    <path d="M 140.158012 206.598394 
L 140.158012 206.598394 
" clip-path="url(#p2a0901772e)" style="fill: none; stroke: #bcbd22"/>
    <path d="M 142.125402 148.306552 
L 142.125402 148.297344 
" clip-path="url(#p2a0901772e)" style="fill: none; stroke: #bcbd22"/>
    <path d="M 146.060183 107.835579 
L 146.060183 94.58799 
" clip-path="url(#p2a0901772e)" style="fill: none; stroke: #bcbd22"/>
    <path d="M 149.994964 77.511272 
L 149.994964 62.604 
" clip-path="url(#p2a0901772e)" style="fill: none; stroke: #bcbd22"/>
    <path d="M 153.929745 77.361457 
L 153.929745 77.361457 
" clip-path="url(#p2a0901772e)" style="fill: none; stroke: #bcbd22"/>
    <path d="M 161.799307 129.137934 
L 161.799307 123.213073 
" clip-path="url(#p2a0901772e)" style="fill: none; stroke: #bcbd22"/>
    <path d="M 173.603651 210.526243 
L 173.603651 206.841839 
" clip-path="url(#p2a0901772e)" style="fill: none; stroke: #bcbd22"/>
    <path d="M 185.407994 248.256565 
L 185.407994 248.251923 
" clip-path="url(#p2a0901772e)" style="fill: none; stroke: #bcbd22"/>
    <path d="M 209.01668 297.923868 
L 209.01668 297.923868 
" clip-path="url(#p2a0901772e)" style="fill: none; stroke: #bcbd22"/>
    <path d="M 232.625366 307.824535 
L 232.625366 306.69965 
" clip-path="url(#p2a0901772e)" style="fill: none; stroke: #bcbd22"/>
    <path d="M 279.842739 337.179549 
L 279.842739 337.178968 
" clip-path="url(#p2a0901772e)" style="fill: none; stroke: #bcbd22"/>
    <path d="M 327.060112 343.045783 
L 327.060112 342.864992 
" clip-path="url(#p2a0901772e)" style="fill: none; stroke: #bcbd22"/>
    <path d="M 374.277484 346.251161 
L 374.277484 346.251161 
" clip-path="url(#p2a0901772e)" style="fill: none; stroke: #bcbd22"/>
    <path d="M 421.494857 346.620702 
L 421.494857 346.534577 
" clip-path="url(#p2a0901772e)" style="fill: none; stroke: #bcbd22"/>
   </g>
   <g id="line2d_14">
    <path d="M 138.190621 349.884 
L 138.56836 347.37361 
L 139.323838 333.318322 
L 141.212533 293.570692 
L 142.34575 273.92019 
L 143.478967 257.74031 
L 144.612184 244.629211 
L 145.745401 234.174699 
L 146.878618 226.006511 
L 148.011835 219.800108 
L 148.767313 216.6111 
L 149.52279 214.092901 
L 150.278268 212.17754 
L 151.033746 210.803102 
L 151.789224 209.913206 
L 152.544702 209.456529 
L 153.30018 209.386376 
L 154.055658 209.660275 
L 154.811136 210.239617 
L 155.566614 211.08932 
L 156.699831 212.801925 
L 157.833048 214.956477 
L 159.344004 218.37602 
L 161.232699 223.30368 
L 163.876872 230.978529 
L 169.165217 247.315191 
L 173.698085 260.961815 
L 177.097736 270.504024 
L 180.119648 278.362147 
L 183.14156 285.596659 
L 186.163472 292.206683 
L 188.807645 297.493278 
L 191.451817 302.337659 
L 194.09599 306.765065 
L 196.740163 310.802866 
L 199.384336 314.479156 
L 202.028509 317.82179 
L 205.050421 321.267955 
L 208.072333 324.351784 
L 211.094244 327.108948 
L 214.116156 329.572349 
L 217.138068 331.772098 
L 220.537719 333.965662 
L 223.93737 335.895207 
L 227.71476 337.767367 
L 231.492149 339.38984 
L 235.647278 340.925416 
L 240.180146 342.345959 
L 245.090753 343.632167 
L 250.379098 344.773201 
L 256.045183 345.765815 
L 262.466746 346.659905 
L 269.643786 347.431572 
L 277.954044 348.097434 
L 287.775258 348.655363 
L 299.862905 349.108998 
L 315.350203 349.454566 
L 336.881325 349.695015 
L 371.633311 349.833757 
L 433.582504 349.879264 
L 433.582504 349.879264 
" clip-path="url(#p2a0901772e)" style="fill: none; stroke: #000000; stroke-width: 2; stroke-linecap: square"/>
   </g>
   <g id="line2d_15">
    <path d="M 138.190621 349.884 
L 140.158012 304.155783 
L 142.125402 244.354758 
L 146.060183 166.444469 
L 149.994964 148.369726 
L 153.929745 166.596415 
L 161.799307 219.172926 
L 173.603651 269.549126 
L 185.407994 297.064716 
L 209.01668 325.4585 
L 232.625366 332.016381 
L 279.842739 343.329806 
L 327.060112 345.86913 
L 374.277484 347.357758 
L 421.494857 348.136997 
" clip-path="url(#p2a0901772e)" style="fill: none; stroke-dasharray: 3.7,1.6; stroke-dashoffset: 0; stroke: #000000"/>
    <defs>
     <path id="me2cf4287f0" d="M -3 3 
L 3 3 
L 3 -3 
L -3 -3 
z
" style="stroke: #000000; stroke-linejoin: miter"/>
    </defs>
    <g clip-path="url(#p2a0901772e)">
     <use xlink:href="#me2cf4287f0" x="138.190621" y="349.884" style="stroke: #000000; stroke-linejoin: miter"/>
     <use xlink:href="#me2cf4287f0" x="140.158012" y="304.155783" style="stroke: #000000; stroke-linejoin: miter"/>
     <use xlink:href="#me2cf4287f0" x="142.125402" y="244.354758" style="stroke: #000000; stroke-linejoin: miter"/>
     <use xlink:href="#me2cf4287f0" x="146.060183" y="166.444469" style="stroke: #000000; stroke-linejoin: miter"/>
     <use xlink:href="#me2cf4287f0" x="149.994964" y="148.369726" style="stroke: #000000; stroke-linejoin: miter"/>
     <use xlink:href="#me2cf4287f0" x="153.929745" y="166.596415" style="stroke: #000000; stroke-linejoin: miter"/>
     <use xlink:href="#me2cf4287f0" x="161.799307" y="219.172926" style="stroke: #000000; stroke-linejoin: miter"/>
     <use xlink:href="#me2cf4287f0" x="173.603651" y="269.549126" style="stroke: #000000; stroke-linejoin: miter"/>
     <use xlink:href="#me2cf4287f0" x="185.407994" y="297.064716" style="stroke: #000000; stroke-linejoin: miter"/>
     <use xlink:href="#me2cf4287f0" x="209.01668" y="325.4585" style="stroke: #000000; stroke-linejoin: miter"/>
     <use xlink:href="#me2cf4287f0" x="232.625366" y="332.016381" style="stroke: #000000; stroke-linejoin: miter"/>
     <use xlink:href="#me2cf4287f0" x="279.842739" y="343.329806" style="stroke: #000000; stroke-linejoin: miter"/>
     <use xlink:href="#me2cf4287f0" x="327.060112" y="345.86913" style="stroke: #000000; stroke-linejoin: miter"/>
     <use xlink:href="#me2cf4287f0" x="374.277484" y="347.357758" style="stroke: #000000; stroke-linejoin: miter"/>
     <use xlink:href="#me2cf4287f0" x="421.494857" y="348.136997" style="stroke: #000000; stroke-linejoin: miter"/>
    </g>
   </g>
   <g id="line2d_16">
    <path d="M 59.416304 199.470675 
L 60.439347 201.350702 
L 61.698477 204.156924 
L 63.27239 208.265741 
L 65.23978 214.078916 
L 67.994127 222.982283 
L 78.53934 257.758793 
L 81.765861 267.310369 
L 84.756294 275.487628 
L 87.668032 282.806584 
L 90.501075 289.326883 
L 91.051944 290.469882 
L 91.13064 290.377513 
L 91.288031 289.579891 
L 91.602813 286.324836 
L 92.311074 275.642795 
L 94.121073 247.855223 
L 95.301508 233.43973 
L 96.403246 222.702897 
L 97.426289 214.80242 
L 98.370637 209.055645 
L 99.314984 204.608912 
L 100.180636 201.537766 
L 100.967592 199.483736 
L 101.675853 198.171617 
L 102.384113 197.316018 
L 103.013678 196.901805 
L 103.564548 196.782483 
L 104.115417 196.870839 
L 104.744982 197.204257 
L 105.453243 197.847564 
L 106.318895 198.976214 
L 107.341938 200.730356 
L 108.522372 203.228108 
L 109.938893 206.762607 
L 111.748892 211.916713 
L 114.188457 219.604318 
L 118.516716 234.137965 
L 123.710627 251.342702 
L 127.173234 262.041937 
L 130.321059 271.050986 
L 133.232797 278.730399 
L 136.065839 285.594337 
L 138.190621 290.357427 
L 138.190621 290.357427 
L 138.56836 289.075112 
L 139.323838 278.939469 
L 141.212533 249.58198 
L 142.34575 235.357621 
L 143.478967 223.947454 
L 144.612184 215.018401 
L 145.745401 208.228792 
L 146.500879 204.737931 
L 147.256357 201.97955 
L 148.011835 199.879482 
L 148.767313 198.370146 
L 149.52279 197.389991 
L 150.278268 196.882991 
L 151.033746 196.798162 
L 151.789224 197.089138 
L 152.544702 197.713764 
L 153.30018 198.63374 
L 154.433397 200.492282 
L 155.566614 202.83372 
L 157.07757 206.553223 
L 158.966265 211.916713 
L 161.610438 220.274624 
L 166.898784 238.073393 
L 171.431651 252.94567 
L 174.831302 263.346241 
L 177.853214 271.911821 
L 180.875126 279.798012 
L 183.897038 287.003711 
L 186.541211 292.766859 
L 189.185383 298.048026 
L 191.829556 302.87469 
L 194.473729 307.276666 
L 197.117902 311.28456 
L 199.762075 314.92873 
L 202.406248 318.238592 
L 205.42816 321.647838 
L 208.450072 324.69626 
L 211.471983 327.420108 
L 214.493895 329.852582 
L 217.515807 332.023899 
L 220.915458 334.188438 
L 224.315109 336.09197 
L 228.092499 337.938516 
L 231.869888 339.538534 
L 236.025017 341.05267 
L 240.557885 342.453243 
L 245.468492 343.721274 
L 250.756837 344.846121 
L 256.422922 345.824616 
L 262.844485 346.705963 
L 270.021525 347.466618 
L 278.331783 348.12297 
L 288.152997 348.672927 
L 300.240644 349.120078 
L 315.727942 349.460706 
L 337.259064 349.697717 
L 372.388789 349.835183 
L 433.582504 349.879264 
L 433.582504 349.879264 
" clip-path="url(#p2a0901772e)" style="fill: none; stroke: #bcbd22; stroke-width: 2; stroke-linecap: square"/>
   </g>
   <g id="line2d_17">
    <path d="M 138.190621 255.750836 
L 140.158012 206.598394 
L 142.125402 148.301948 
L 146.060183 101.211785 
L 149.994964 70.057636 
L 153.929745 77.361457 
L 161.799307 126.175503 
L 173.603651 208.684041 
L 185.407994 248.254244 
L 209.01668 297.923868 
L 232.625366 307.262092 
L 279.842739 337.179259 
L 327.060112 342.955387 
L 374.277484 346.251161 
L 421.494857 346.57764 
" clip-path="url(#p2a0901772e)" style="fill: none; stroke-dasharray: 3.7,1.6; stroke-dashoffset: 0; stroke: #bcbd22"/>
    <defs>
     <path id="m619a1b2308" d="M -3 3 
L 3 3 
L 3 -3 
L -3 -3 
z
" style="stroke: #000000; stroke-linejoin: miter"/>
    </defs>
    <g clip-path="url(#p2a0901772e)">
     <use xlink:href="#m619a1b2308" x="138.190621" y="255.750836" style="fill: #bcbd22; stroke: #000000; stroke-linejoin: miter"/>
     <use xlink:href="#m619a1b2308" x="140.158012" y="206.598394" style="fill: #bcbd22; stroke: #000000; stroke-linejoin: miter"/>
     <use xlink:href="#m619a1b2308" x="142.125402" y="148.301948" style="fill: #bcbd22; stroke: #000000; stroke-linejoin: miter"/>
     <use xlink:href="#m619a1b2308" x="146.060183" y="101.211785" style="fill: #bcbd22; stroke: #000000; stroke-linejoin: miter"/>
     <use xlink:href="#m619a1b2308" x="149.994964" y="70.057636" style="fill: #bcbd22; stroke: #000000; stroke-linejoin: miter"/>
     <use xlink:href="#m619a1b2308" x="153.929745" y="77.361457" style="fill: #bcbd22; stroke: #000000; stroke-linejoin: miter"/>
     <use xlink:href="#m619a1b2308" x="161.799307" y="126.175503" style="fill: #bcbd22; stroke: #000000; stroke-linejoin: miter"/>
     <use xlink:href="#m619a1b2308" x="173.603651" y="208.684041" style="fill: #bcbd22; stroke: #000000; stroke-linejoin: miter"/>
     <use xlink:href="#m619a1b2308" x="185.407994" y="248.254244" style="fill: #bcbd22; stroke: #000000; stroke-linejoin: miter"/>
     <use xlink:href="#m619a1b2308" x="209.01668" y="297.923868" style="fill: #bcbd22; stroke: #000000; stroke-linejoin: miter"/>
     <use xlink:href="#m619a1b2308" x="232.625366" y="307.262092" style="fill: #bcbd22; stroke: #000000; stroke-linejoin: miter"/>
     <use xlink:href="#m619a1b2308" x="279.842739" y="337.179259" style="fill: #bcbd22; stroke: #000000; stroke-linejoin: miter"/>
     <use xlink:href="#m619a1b2308" x="327.060112" y="342.955387" style="fill: #bcbd22; stroke: #000000; stroke-linejoin: miter"/>
     <use xlink:href="#m619a1b2308" x="374.277484" y="346.251161" style="fill: #bcbd22; stroke: #000000; stroke-linejoin: miter"/>
     <use xlink:href="#m619a1b2308" x="421.494857" y="346.57764" style="fill: #bcbd22; stroke: #000000; stroke-linejoin: miter"/>
    </g>
   </g>
   <g id="patch_3">
    <path d="M 59.495 364.248 
L 59.495 48.24 
" style="fill: none; stroke: #000000; stroke-width: 0.8; stroke-linejoin: miter; stroke-linecap: square"/>
   </g>
   <g id="patch_4">
    <path d="M 433.2992 364.248 
L 433.2992 48.24 
" style="fill: none; stroke: #000000; stroke-width: 0.8; stroke-linejoin: miter; stroke-linecap: square"/>
   </g>
   <g id="patch_5">
    <path d="M 59.495 364.248 
L 433.2992 364.248 
" style="fill: none; stroke: #000000; stroke-width: 0.8; stroke-linejoin: miter; stroke-linecap: square"/>
   </g>
   <g id="patch_6">
    <path d="M 59.495 48.24 
L 433.2992 48.24 
" style="fill: none; stroke: #000000; stroke-width: 0.8; stroke-linejoin: miter; stroke-linecap: square"/>
   </g>
   <g id="legend_1">
    <g id="patch_7">
     <path d="M 232.677012 111.616875 
L 426.6492 111.616875 
Q 428.5492 111.616875 428.5492 109.716875 
L 428.5492 54.89 
Q 428.5492 52.99 426.6492 52.99 
L 232.677012 52.99 
Q 230.777012 52.99 230.777012 54.89 
L 230.777012 109.716875 
Q 230.777012 111.616875 232.677012 111.616875 
z
" style="fill: #ffffff; opacity: 0.8; stroke: #cccccc; stroke-linejoin: miter"/>
    </g>
    <g id="line2d_18">
     <path d="M 234.577012 60.683516 
L 253.577012 60.683516 
" style="fill: none; stroke: #000000; stroke-width: 2; stroke-linecap: square"/>
    </g>
    <g id="line2d_19"/>
    <g id="text_16">
     <!-- sim single 10mg PO -->
     <g transform="translate(261.177012 64.008516) scale(0.095 -0.095)">
      <defs>
       <path id="DejaVuSans-73" d="M 2834 3397 
L 2834 2853 
Q 2591 2978 2328 3040 
Q 2066 3103 1784 3103 
Q 1356 3103 1142 2972 
Q 928 2841 928 2578 
Q 928 2378 1081 2264 
Q 1234 2150 1697 2047 
L 1894 2003 
Q 2506 1872 2764 1633 
Q 3022 1394 3022 966 
Q 3022 478 2636 193 
Q 2250 -91 1575 -91 
Q 1294 -91 989 -36 
Q 684 19 347 128 
L 347 722 
Q 666 556 975 473 
Q 1284 391 1588 391 
Q 1994 391 2212 530 
Q 2431 669 2431 922 
Q 2431 1156 2273 1281 
Q 2116 1406 1581 1522 
L 1381 1569 
Q 847 1681 609 1914 
Q 372 2147 372 2553 
Q 372 3047 722 3315 
Q 1072 3584 1716 3584 
Q 2034 3584 2315 3537 
Q 2597 3491 2834 3397 
z
" transform="scale(0.015625)"/>
       <path id="DejaVuSans-69" d="M 603 3500 
L 1178 3500 
L 1178 0 
L 603 0 
L 603 3500 
z
M 603 4863 
L 1178 4863 
L 1178 4134 
L 603 4134 
L 603 4863 
z
" transform="scale(0.015625)"/>
       <path id="DejaVuSans-6d" d="M 3328 2828 
Q 3544 3216 3844 3400 
Q 4144 3584 4550 3584 
Q 5097 3584 5394 3201 
Q 5691 2819 5691 2113 
L 5691 0 
L 5113 0 
L 5113 2094 
Q 5113 2597 4934 2840 
Q 4756 3084 4391 3084 
Q 3944 3084 3684 2787 
Q 3425 2491 3425 1978 
L 3425 0 
L 2847 0 
L 2847 2094 
Q 2847 2600 2669 2842 
Q 2491 3084 2119 3084 
Q 1678 3084 1418 2786 
Q 1159 2488 1159 1978 
L 1159 0 
L 581 0 
L 581 3500 
L 1159 3500 
L 1159 2956 
Q 1356 3278 1631 3431 
Q 1906 3584 2284 3584 
Q 2666 3584 2933 3390 
Q 3200 3197 3328 2828 
z
" transform="scale(0.015625)"/>
       <path id="DejaVuSans-20" transform="scale(0.015625)"/>
       <path id="DejaVuSans-6e" d="M 3513 2113 
L 3513 0 
L 2938 0 
L 2938 2094 
Q 2938 2591 2744 2837 
Q 2550 3084 2163 3084 
Q 1697 3084 1428 2787 
Q 1159 2491 1159 1978 
L 1159 0 
L 581 0 
L 581 3500 
L 1159 3500 
L 1159 2956 
Q 1366 3272 1645 3428 
Q 1925 3584 2291 3584 
Q 2894 3584 3203 3211 
Q 3513 2838 3513 2113 
z
" transform="scale(0.015625)"/>
       <path id="DejaVuSans-67" d="M 2906 1791 
Q 2906 2416 2648 2759 
Q 2391 3103 1925 3103 
Q 1463 3103 1205 2759 
Q 947 2416 947 1791 
Q 947 1169 1205 825 
Q 1463 481 1925 481 
Q 2391 481 2648 825 
Q 2906 1169 2906 1791 
z
M 3481 434 
Q 3481 -459 3084 -895 
Q 2688 -1331 1869 -1331 
Q 1566 -1331 1297 -1286 
Q 1028 -1241 775 -1147 
L 775 -588 
Q 1028 -725 1275 -790 
Q 1522 -856 1778 -856 
Q 2344 -856 2625 -561 
Q 2906 -266 2906 331 
L 2906 616 
Q 2728 306 2450 153 
Q 2172 0 1784 0 
Q 1141 0 747 490 
Q 353 981 353 1791 
Q 353 2603 747 3093 
Q 1141 3584 1784 3584 
Q 2172 3584 2450 3431 
Q 2728 3278 2906 2969 
L 2906 3500 
L 3481 3500 
L 3481 434 
z
" transform="scale(0.015625)"/>
       <path id="DejaVuSans-6c" d="M 603 4863 
L 1178 4863 
L 1178 0 
L 603 0 
L 603 4863 
z
" transform="scale(0.015625)"/>
       <path id="DejaVuSans-65" d="M 3597 1894 
L 3597 1613 
L 953 1613 
Q 991 1019 1311 708 
Q 1631 397 2203 397 
Q 2534 397 2845 478 
Q 3156 559 3463 722 
L 3463 178 
Q 3153 47 2828 -22 
Q 2503 -91 2169 -91 
Q 1331 -91 842 396 
Q 353 884 353 1716 
Q 353 2575 817 3079 
Q 1281 3584 2069 3584 
Q 2775 3584 3186 3129 
Q 3597 2675 3597 1894 
z
M 3022 2063 
Q 3016 2534 2758 2815 
Q 2500 3097 2075 3097 
Q 1594 3097 1305 2825 
Q 1016 2553 972 2059 
L 3022 2063 
z
" transform="scale(0.015625)"/>
       <path id="DejaVuSans-50" d="M 1259 4147 
L 1259 2394 
L 2053 2394 
Q 2494 2394 2734 2622 
Q 2975 2850 2975 3272 
Q 2975 3691 2734 3919 
Q 2494 4147 2053 4147 
L 1259 4147 
z
M 628 4666 
L 2053 4666 
Q 2838 4666 3239 4311 
Q 3641 3956 3641 3272 
Q 3641 2581 3239 2228 
Q 2838 1875 2053 1875 
L 1259 1875 
L 1259 0 
L 628 0 
L 628 4666 
z
" transform="scale(0.015625)"/>
       <path id="DejaVuSans-4f" d="M 2522 4238 
Q 1834 4238 1429 3725 
Q 1025 3213 1025 2328 
Q 1025 1447 1429 934 
Q 1834 422 2522 422 
Q 3209 422 3611 934 
Q 4013 1447 4013 2328 
Q 4013 3213 3611 3725 
Q 3209 4238 2522 4238 
z
M 2522 4750 
Q 3503 4750 4090 4092 
Q 4678 3434 4678 2328 
Q 4678 1225 4090 567 
Q 3503 -91 2522 -91 
Q 1538 -91 948 565 
Q 359 1222 359 2328 
Q 359 3434 948 4092 
Q 1538 4750 2522 4750 
z
" transform="scale(0.015625)"/>
      </defs>
      <use xlink:href="#DejaVuSans-73"/>
      <use xlink:href="#DejaVuSans-69" transform="translate(52.099609 0)"/>
      <use xlink:href="#DejaVuSans-6d" transform="translate(79.882812 0)"/>
      <use xlink:href="#DejaVuSans-20" transform="translate(177.294922 0)"/>
      <use xlink:href="#DejaVuSans-73" transform="translate(209.082031 0)"/>
      <use xlink:href="#DejaVuSans-69" transform="translate(261.181641 0)"/>
      <use xlink:href="#DejaVuSans-6e" transform="translate(288.964844 0)"/>
      <use xlink:href="#DejaVuSans-67" transform="translate(352.34375 0)"/>
      <use xlink:href="#DejaVuSans-6c" transform="translate(415.820312 0)"/>
      <use xlink:href="#DejaVuSans-65" transform="translate(443.603516 0)"/>
      <use xlink:href="#DejaVuSans-20" transform="translate(505.126953 0)"/>
      <use xlink:href="#DejaVuSans-31" transform="translate(536.914062 0)"/>
      <use xlink:href="#DejaVuSans-30" transform="translate(600.537109 0)"/>
      <use xlink:href="#DejaVuSans-6d" transform="translate(664.160156 0)"/>
      <use xlink:href="#DejaVuSans-67" transform="translate(761.572266 0)"/>
      <use xlink:href="#DejaVuSans-20" transform="translate(825.048828 0)"/>
      <use xlink:href="#DejaVuSans-50" transform="translate(856.835938 0)"/>
      <use xlink:href="#DejaVuSans-4f" transform="translate(917.138672 0)"/>
     </g>
    </g>
    <g id="LineCollection_3">
     <path d="M 244.077012 79.377734 
L 244.077012 69.877734 
" style="fill: none; stroke: #000000"/>
    </g>
    <g id="line2d_20">
     <path d="M 234.577012 74.627734 
L 253.577012 74.627734 
" style="fill: none; stroke-dasharray: 3.7,1.6; stroke-dashoffset: 0; stroke: #000000"/>
    </g>
    <g id="line2d_21">
     <g>
      <use xlink:href="#me2cf4287f0" x="244.077012" y="74.627734" style="stroke: #000000; stroke-linejoin: miter"/>
     </g>
    </g>
    <g id="text_17">
     <!-- exp single 10mg PO±SD (n=12) -->
     <g transform="translate(261.177012 77.952734) scale(0.095 -0.095)">
      <defs>
       <path id="DejaVuSans-78" d="M 3513 3500 
L 2247 1797 
L 3578 0 
L 2900 0 
L 1881 1375 
L 863 0 
L 184 0 
L 1544 1831 
L 300 3500 
L 978 3500 
L 1906 2253 
L 2834 3500 
L 3513 3500 
z
" transform="scale(0.015625)"/>
       <path id="DejaVuSans-70" d="M 1159 525 
L 1159 -1331 
L 581 -1331 
L 581 3500 
L 1159 3500 
L 1159 2969 
Q 1341 3281 1617 3432 
Q 1894 3584 2278 3584 
Q 2916 3584 3314 3078 
Q 3713 2572 3713 1747 
Q 3713 922 3314 415 
Q 2916 -91 2278 -91 
Q 1894 -91 1617 61 
Q 1341 213 1159 525 
z
M 3116 1747 
Q 3116 2381 2855 2742 
Q 2594 3103 2138 3103 
Q 1681 3103 1420 2742 
Q 1159 2381 1159 1747 
Q 1159 1113 1420 752 
Q 1681 391 2138 391 
Q 2594 391 2855 752 
Q 3116 1113 3116 1747 
z
" transform="scale(0.015625)"/>
       <path id="DejaVuSans-b1" d="M 2944 4013 
L 2944 2803 
L 4684 2803 
L 4684 2272 
L 2944 2272 
L 2944 1063 
L 2419 1063 
L 2419 2272 
L 678 2272 
L 678 2803 
L 2419 2803 
L 2419 4013 
L 2944 4013 
z
M 678 531 
L 4684 531 
L 4684 0 
L 678 0 
L 678 531 
z
" transform="scale(0.015625)"/>
       <path id="DejaVuSans-53" d="M 3425 4513 
L 3425 3897 
Q 3066 4069 2747 4153 
Q 2428 4238 2131 4238 
Q 1616 4238 1336 4038 
Q 1056 3838 1056 3469 
Q 1056 3159 1242 3001 
Q 1428 2844 1947 2747 
L 2328 2669 
Q 3034 2534 3370 2195 
Q 3706 1856 3706 1288 
Q 3706 609 3251 259 
Q 2797 -91 1919 -91 
Q 1588 -91 1214 -16 
Q 841 59 441 206 
L 441 856 
Q 825 641 1194 531 
Q 1563 422 1919 422 
Q 2459 422 2753 634 
Q 3047 847 3047 1241 
Q 3047 1584 2836 1778 
Q 2625 1972 2144 2069 
L 1759 2144 
Q 1053 2284 737 2584 
Q 422 2884 422 3419 
Q 422 4038 858 4394 
Q 1294 4750 2059 4750 
Q 2388 4750 2728 4690 
Q 3069 4631 3425 4513 
z
" transform="scale(0.015625)"/>
       <path id="DejaVuSans-44" d="M 1259 4147 
L 1259 519 
L 2022 519 
Q 2988 519 3436 956 
Q 3884 1394 3884 2338 
Q 3884 3275 3436 3711 
Q 2988 4147 2022 4147 
L 1259 4147 
z
M 628 4666 
L 1925 4666 
Q 3281 4666 3915 4102 
Q 4550 3538 4550 2338 
Q 4550 1131 3912 565 
Q 3275 0 1925 0 
L 628 0 
L 628 4666 
z
" transform="scale(0.015625)"/>
       <path id="DejaVuSans-28" d="M 1984 4856 
Q 1566 4138 1362 3434 
Q 1159 2731 1159 2009 
Q 1159 1288 1364 580 
Q 1569 -128 1984 -844 
L 1484 -844 
Q 1016 -109 783 600 
Q 550 1309 550 2009 
Q 550 2706 781 3412 
Q 1013 4119 1484 4856 
L 1984 4856 
z
" transform="scale(0.015625)"/>
       <path id="DejaVuSans-3d" d="M 678 2906 
L 4684 2906 
L 4684 2381 
L 678 2381 
L 678 2906 
z
M 678 1631 
L 4684 1631 
L 4684 1100 
L 678 1100 
L 678 1631 
z
" transform="scale(0.015625)"/>
       <path id="DejaVuSans-29" d="M 513 4856 
L 1013 4856 
Q 1481 4119 1714 3412 
Q 1947 2706 1947 2009 
Q 1947 1309 1714 600 
Q 1481 -109 1013 -844 
L 513 -844 
Q 928 -128 1133 580 
Q 1338 1288 1338 2009 
Q 1338 2731 1133 3434 
Q 928 4138 513 4856 
z
" transform="scale(0.015625)"/>
      </defs>
      <use xlink:href="#DejaVuSans-65"/>
      <use xlink:href="#DejaVuSans-78" transform="translate(59.773438 0)"/>
      <use xlink:href="#DejaVuSans-70" transform="translate(118.953125 0)"/>
      <use xlink:href="#DejaVuSans-20" transform="translate(182.429688 0)"/>
      <use xlink:href="#DejaVuSans-73" transform="translate(214.216797 0)"/>
      <use xlink:href="#DejaVuSans-69" transform="translate(266.316406 0)"/>
      <use xlink:href="#DejaVuSans-6e" transform="translate(294.099609 0)"/>
      <use xlink:href="#DejaVuSans-67" transform="translate(357.478516 0)"/>
      <use xlink:href="#DejaVuSans-6c" transform="translate(420.955078 0)"/>
      <use xlink:href="#DejaVuSans-65" transform="translate(448.738281 0)"/>
      <use xlink:href="#DejaVuSans-20" transform="translate(510.261719 0)"/>
      <use xlink:href="#DejaVuSans-31" transform="translate(542.048828 0)"/>
      <use xlink:href="#DejaVuSans-30" transform="translate(605.671875 0)"/>
      <use xlink:href="#DejaVuSans-6d" transform="translate(669.294922 0)"/>
      <use xlink:href="#DejaVuSans-67" transform="translate(766.707031 0)"/>
      <use xlink:href="#DejaVuSans-20" transform="translate(830.183594 0)"/>
      <use xlink:href="#DejaVuSans-50" transform="translate(861.970703 0)"/>
      <use xlink:href="#DejaVuSans-4f" transform="translate(922.273438 0)"/>
      <use xlink:href="#DejaVuSans-b1" transform="translate(1000.984375 0)"/>
      <use xlink:href="#DejaVuSans-53" transform="translate(1084.773438 0)"/>
      <use xlink:href="#DejaVuSans-44" transform="translate(1148.25 0)"/>
      <use xlink:href="#DejaVuSans-20" transform="translate(1225.251953 0)"/>
      <use xlink:href="#DejaVuSans-28" transform="translate(1257.039062 0)"/>
      <use xlink:href="#DejaVuSans-6e" transform="translate(1296.052734 0)"/>
      <use xlink:href="#DejaVuSans-3d" transform="translate(1359.431641 0)"/>
      <use xlink:href="#DejaVuSans-31" transform="translate(1443.220703 0)"/>
      <use xlink:href="#DejaVuSans-32" transform="translate(1506.84375 0)"/>
      <use xlink:href="#DejaVuSans-29" transform="translate(1570.466797 0)"/>
     </g>
    </g>
    <g id="line2d_22">
     <path d="M 234.577012 88.571953 
L 253.577012 88.571953 
" style="fill: none; stroke: #bcbd22; stroke-width: 2; stroke-linecap: square"/>
    </g>
    <g id="line2d_23"/>
    <g id="text_18">
     <!-- sim multiple 10mg PO -->
     <g transform="translate(261.177012 91.896953) scale(0.095 -0.095)">
      <defs>
       <path id="DejaVuSans-75" d="M 544 1381 
L 544 3500 
L 1119 3500 
L 1119 1403 
Q 1119 906 1312 657 
Q 1506 409 1894 409 
Q 2359 409 2629 706 
Q 2900 1003 2900 1516 
L 2900 3500 
L 3475 3500 
L 3475 0 
L 2900 0 
L 2900 538 
Q 2691 219 2414 64 
Q 2138 -91 1772 -91 
Q 1169 -91 856 284 
Q 544 659 544 1381 
z
M 1991 3584 
L 1991 3584 
z
" transform="scale(0.015625)"/>
       <path id="DejaVuSans-74" d="M 1172 4494 
L 1172 3500 
L 2356 3500 
L 2356 3053 
L 1172 3053 
L 1172 1153 
Q 1172 725 1289 603 
Q 1406 481 1766 481 
L 2356 481 
L 2356 0 
L 1766 0 
Q 1100 0 847 248 
Q 594 497 594 1153 
L 594 3053 
L 172 3053 
L 172 3500 
L 594 3500 
L 594 4494 
L 1172 4494 
z
" transform="scale(0.015625)"/>
      </defs>
      <use xlink:href="#DejaVuSans-73"/>
      <use xlink:href="#DejaVuSans-69" transform="translate(52.099609 0)"/>
      <use xlink:href="#DejaVuSans-6d" transform="translate(79.882812 0)"/>
      <use xlink:href="#DejaVuSans-20" transform="translate(177.294922 0)"/>
      <use xlink:href="#DejaVuSans-6d" transform="translate(209.082031 0)"/>
      <use xlink:href="#DejaVuSans-75" transform="translate(306.494141 0)"/>
      <use xlink:href="#DejaVuSans-6c" transform="translate(369.873047 0)"/>
      <use xlink:href="#DejaVuSans-74" transform="translate(397.65625 0)"/>
      <use xlink:href="#DejaVuSans-69" transform="translate(436.865234 0)"/>
      <use xlink:href="#DejaVuSans-70" transform="translate(464.648438 0)"/>
      <use xlink:href="#DejaVuSans-6c" transform="translate(528.125 0)"/>
      <use xlink:href="#DejaVuSans-65" transform="translate(555.908203 0)"/>
      <use xlink:href="#DejaVuSans-20" transform="translate(617.431641 0)"/>
      <use xlink:href="#DejaVuSans-31" transform="translate(649.21875 0)"/>
      <use xlink:href="#DejaVuSans-30" transform="translate(712.841797 0)"/>
      <use xlink:href="#DejaVuSans-6d" transform="translate(776.464844 0)"/>
      <use xlink:href="#DejaVuSans-67" transform="translate(873.876953 0)"/>
      <use xlink:href="#DejaVuSans-20" transform="translate(937.353516 0)"/>
      <use xlink:href="#DejaVuSans-50" transform="translate(969.140625 0)"/>
      <use xlink:href="#DejaVuSans-4f" transform="translate(1029.443359 0)"/>
     </g>
    </g>
    <g id="LineCollection_4">
     <path d="M 244.077012 107.266172 
L 244.077012 97.766172 
" style="fill: none; stroke: #bcbd22"/>
    </g>
    <g id="line2d_24">
     <path d="M 234.577012 102.516172 
L 253.577012 102.516172 
" style="fill: none; stroke-dasharray: 3.7,1.6; stroke-dashoffset: 0; stroke: #bcbd22"/>
    </g>
    <g id="line2d_25">
     <g>
      <use xlink:href="#m619a1b2308" x="244.077012" y="102.516172" style="fill: #bcbd22; stroke: #000000; stroke-linejoin: miter"/>
     </g>
    </g>
    <g id="text_19">
     <!-- exp multiple 10mg PO±SD (n=12) -->
     <g transform="translate(261.177012 105.841172) scale(0.095 -0.095)">
      <use xlink:href="#DejaVuSans-65"/>
      <use xlink:href="#DejaVuSans-78" transform="translate(59.773438 0)"/>
      <use xlink:href="#DejaVuSans-70" transform="translate(118.953125 0)"/>
      <use xlink:href="#DejaVuSans-20" transform="translate(182.429688 0)"/>
      <use xlink:href="#DejaVuSans-6d" transform="translate(214.216797 0)"/>
      <use xlink:href="#DejaVuSans-75" transform="translate(311.628906 0)"/>
      <use xlink:href="#DejaVuSans-6c" transform="translate(375.007812 0)"/>
      <use xlink:href="#DejaVuSans-74" transform="translate(402.791016 0)"/>
      <use xlink:href="#DejaVuSans-69" transform="translate(442 0)"/>
      <use xlink:href="#DejaVuSans-70" transform="translate(469.783203 0)"/>
      <use xlink:href="#DejaVuSans-6c" transform="translate(533.259766 0)"/>
      <use xlink:href="#DejaVuSans-65" transform="translate(561.042969 0)"/>
      <use xlink:href="#DejaVuSans-20" transform="translate(622.566406 0)"/>
      <use xlink:href="#DejaVuSans-31" transform="translate(654.353516 0)"/>
      <use xlink:href="#DejaVuSans-30" transform="translate(717.976562 0)"/>
      <use xlink:href="#DejaVuSans-6d" transform="translate(781.599609 0)"/>
      <use xlink:href="#DejaVuSans-67" transform="translate(879.011719 0)"/>
      <use xlink:href="#DejaVuSans-20" transform="translate(942.488281 0)"/>
      <use xlink:href="#DejaVuSans-50" transform="translate(974.275391 0)"/>
      <use xlink:href="#DejaVuSans-4f" transform="translate(1034.578125 0)"/>
      <use xlink:href="#DejaVuSans-b1" transform="translate(1113.289062 0)"/>
      <use xlink:href="#DejaVuSans-53" transform="translate(1197.078125 0)"/>
      <use xlink:href="#DejaVuSans-44" transform="translate(1260.554688 0)"/>
      <use xlink:href="#DejaVuSans-20" transform="translate(1337.556641 0)"/>
      <use xlink:href="#DejaVuSans-28" transform="translate(1369.34375 0)"/>
      <use xlink:href="#DejaVuSans-6e" transform="translate(1408.357422 0)"/>
      <use xlink:href="#DejaVuSans-3d" transform="translate(1471.736328 0)"/>
      <use xlink:href="#DejaVuSans-31" transform="translate(1555.525391 0)"/>
      <use xlink:href="#DejaVuSans-32" transform="translate(1619.148438 0)"/>
      <use xlink:href="#DejaVuSans-29" transform="translate(1682.771484 0)"/>
     </g>
    </g>
   </g>
  </g>
  <g id="text_20">
   <!-- Cui2013 -->
   <g transform="translate(183.221516 26.196094) scale(0.25 -0.25)">
    <defs>
     <path id="DejaVuSans-Bold-43" d="M 4288 256 
Q 3956 84 3597 -3 
Q 3238 -91 2847 -91 
Q 1681 -91 1000 561 
Q 319 1213 319 2328 
Q 319 3447 1000 4098 
Q 1681 4750 2847 4750 
Q 3238 4750 3597 4662 
Q 3956 4575 4288 4403 
L 4288 3438 
Q 3953 3666 3628 3772 
Q 3303 3878 2944 3878 
Q 2300 3878 1931 3465 
Q 1563 3053 1563 2328 
Q 1563 1606 1931 1193 
Q 2300 781 2944 781 
Q 3303 781 3628 887 
Q 3953 994 4288 1222 
L 4288 256 
z
" transform="scale(0.015625)"/>
     <path id="DejaVuSans-Bold-75" d="M 500 1363 
L 500 3500 
L 1625 3500 
L 1625 3150 
Q 1625 2866 1622 2436 
Q 1619 2006 1619 1863 
Q 1619 1441 1641 1255 
Q 1663 1069 1716 984 
Q 1784 875 1895 815 
Q 2006 756 2150 756 
Q 2500 756 2700 1025 
Q 2900 1294 2900 1772 
L 2900 3500 
L 4019 3500 
L 4019 0 
L 2900 0 
L 2900 506 
Q 2647 200 2364 54 
Q 2081 -91 1741 -91 
Q 1134 -91 817 281 
Q 500 653 500 1363 
z
" transform="scale(0.015625)"/>
     <path id="DejaVuSans-Bold-32" d="M 1844 884 
L 3897 884 
L 3897 0 
L 506 0 
L 506 884 
L 2209 2388 
Q 2438 2594 2547 2791 
Q 2656 2988 2656 3200 
Q 2656 3528 2436 3728 
Q 2216 3928 1850 3928 
Q 1569 3928 1234 3808 
Q 900 3688 519 3450 
L 519 4475 
Q 925 4609 1322 4679 
Q 1719 4750 2100 4750 
Q 2938 4750 3402 4381 
Q 3866 4013 3866 3353 
Q 3866 2972 3669 2642 
Q 3472 2313 2841 1759 
L 1844 884 
z
" transform="scale(0.015625)"/>
     <path id="DejaVuSans-Bold-30" d="M 2944 2338 
Q 2944 3213 2780 3570 
Q 2616 3928 2228 3928 
Q 1841 3928 1675 3570 
Q 1509 3213 1509 2338 
Q 1509 1453 1675 1090 
Q 1841 728 2228 728 
Q 2613 728 2778 1090 
Q 2944 1453 2944 2338 
z
M 4147 2328 
Q 4147 1169 3647 539 
Q 3147 -91 2228 -91 
Q 1306 -91 806 539 
Q 306 1169 306 2328 
Q 306 3491 806 4120 
Q 1306 4750 2228 4750 
Q 3147 4750 3647 4120 
Q 4147 3491 4147 2328 
z
" transform="scale(0.015625)"/>
     <path id="DejaVuSans-Bold-31" d="M 750 831 
L 1813 831 
L 1813 3847 
L 722 3622 
L 722 4441 
L 1806 4666 
L 2950 4666 
L 2950 831 
L 4013 831 
L 4013 0 
L 750 0 
L 750 831 
z
" transform="scale(0.015625)"/>
     <path id="DejaVuSans-Bold-33" d="M 2981 2516 
Q 3453 2394 3698 2092 
Q 3944 1791 3944 1325 
Q 3944 631 3412 270 
Q 2881 -91 1863 -91 
Q 1503 -91 1142 -33 
Q 781 25 428 141 
L 428 1069 
Q 766 900 1098 814 
Q 1431 728 1753 728 
Q 2231 728 2486 893 
Q 2741 1059 2741 1369 
Q 2741 1688 2480 1852 
Q 2219 2016 1709 2016 
L 1228 2016 
L 1228 2791 
L 1734 2791 
Q 2188 2791 2409 2933 
Q 2631 3075 2631 3366 
Q 2631 3634 2415 3781 
Q 2200 3928 1806 3928 
Q 1516 3928 1219 3862 
Q 922 3797 628 3669 
L 628 4550 
Q 984 4650 1334 4700 
Q 1684 4750 2022 4750 
Q 2931 4750 3382 4451 
Q 3834 4153 3834 3553 
Q 3834 3144 3618 2883 
Q 3403 2622 2981 2516 
z
" transform="scale(0.015625)"/>
    </defs>
    <use xlink:href="#DejaVuSans-Bold-43"/>
    <use xlink:href="#DejaVuSans-Bold-75" transform="translate(73.388672 0)"/>
    <use xlink:href="#DejaVuSans-Bold-69" transform="translate(144.580078 0)"/>
    <use xlink:href="#DejaVuSans-Bold-32" transform="translate(178.857422 0)"/>
    <use xlink:href="#DejaVuSans-Bold-30" transform="translate(248.4375 0)"/>
    <use xlink:href="#DejaVuSans-Bold-31" transform="translate(318.017578 0)"/>
    <use xlink:href="#DejaVuSans-Bold-33" transform="translate(387.597656 0)"/>
   </g>
  </g>
 </g>
 <defs>
  <clipPath id="p2a0901772e">
   <rect x="59.495" y="48.24" width="373.8042" height="316.008"/>
  </clipPath>
 </defs>
</svg>
