<?xml version="1.0" encoding="utf-8" standalone="no"?>
<!DOCTYPE svg PUBLIC "-//W3C//DTD SVG 1.1//EN"
  "http://www.w3.org/Graphics/SVG/1.1/DTD/svg11.dtd">
<svg xmlns:xlink="http://www.w3.org/1999/xlink" width="720pt" height="360pt" viewBox="0 0 720 360" xmlns="http://www.w3.org/2000/svg" version="1.1">
 <metadata>
  <rdf:RDF xmlns:dc="http://purl.org/dc/elements/1.1/" xmlns:cc="http://creativecommons.org/ns#" xmlns:rdf="http://www.w3.org/1999/02/22-rdf-syntax-ns#">
   <cc:Work>
    <dc:type rdf:resource="http://purl.org/dc/dcmitype/StillImage"/>
    <dc:date>2026-04-17T10:54:56.252861</dc:date>
    <dc:format>image/svg+xml</dc:format>
    <dc:creator>
     <cc:Agent>
      <dc:title>Matplotlib v3.10.8, https://matplotlib.org/</dc:title>
     </cc:Agent>
    </dc:creator>
   </cc:Work>
  </rdf:RDF>
 </metadata>
 <defs>
  <style type="text/css">*{stroke-linejoin: round; stroke-linecap: butt}</style>
 </defs>
 <g id="figure_1">
  <g id="patch_1">
   <path d="M 0 360 
L 720 360 
L 720 0 
L 0 0 
z
" style="fill: #ffffff"/>
  </g>
  <g id="axes_1">
   <g id="patch_2">
    <path d="M 90 320.4 
L 343.636364 320.4 
L 343.636364 43.2 
L 90 43.2 
z
" style="fill: #ffffff"/>
   </g>
   <g id="matplotlib.axis_1">
    <g id="xtick_1">
     <g id="line2d_1">
      <defs>
       <path id="m2d388c24e5" d="M 0 0 
L 0 3.5 
" style="stroke: #000000; stroke-width: 0.8"/>
      </defs>
      <g>
       <use xlink:href="#m2d388c24e5" x="111.136364" y="320.4" style="stroke: #000000; stroke-width: 0.8"/>
      </g>
     </g>
     <g id="text_1">
      <!-- 0 -->
      <g transform="translate(107.955114 334.998438) scale(0.1 -0.1)">
       <defs>
        <path id="DejaVuSans-30" d="M 2034 4250 
Q 1547 4250 1301 3770 
Q 1056 3291 1056 2328 
Q 1056 1369 1301 889 
Q 1547 409 2034 409 
Q 2525 409 2770 889 
Q 3016 1369 3016 2328 
Q 3016 3291 2770 3770 
Q 2525 4250 2034 4250 
z
M 2034 4750 
Q 2819 4750 3233 4129 
Q 3647 3509 3647 2328 
Q 3647 1150 3233 529 
Q 2819 -91 2034 -91 
Q 1250 -91 836 529 
Q 422 1150 422 2328 
Q 422 3509 836 4129 
Q 1250 4750 2034 4750 
z
" transform="scale(0.015625)"/>
       </defs>
       <use xlink:href="#DejaVuSans-30"/>
      </g>
     </g>
    </g>
    <g id="xtick_2">
     <g id="line2d_2">
      <g>
       <use xlink:href="#m2d388c24e5" x="153.073593" y="320.4" style="stroke: #000000; stroke-width: 0.8"/>
      </g>
     </g>
     <g id="text_2">
      <!-- 2000 -->
      <g transform="translate(140.348593 334.998438) scale(0.1 -0.1)">
       <defs>
        <path id="DejaVuSans-32" d="M 1228 531 
L 3431 531 
L 3431 0 
L 469 0 
L 469 531 
Q 828 903 1448 1529 
Q 2069 2156 2228 2338 
Q 2531 2678 2651 2914 
Q 2772 3150 2772 3378 
Q 2772 3750 2511 3984 
Q 2250 4219 1831 4219 
Q 1534 4219 1204 4116 
Q 875 4013 500 3803 
L 500 4441 
Q 881 4594 1212 4672 
Q 1544 4750 1819 4750 
Q 2544 4750 2975 4387 
Q 3406 4025 3406 3419 
Q 3406 3131 3298 2873 
Q 3191 2616 2906 2266 
Q 2828 2175 2409 1742 
Q 1991 1309 1228 531 
z
" transform="scale(0.015625)"/>
       </defs>
       <use xlink:href="#DejaVuSans-32"/>
       <use xlink:href="#DejaVuSans-30" transform="translate(63.623047 0)"/>
       <use xlink:href="#DejaVuSans-30" transform="translate(127.246094 0)"/>
       <use xlink:href="#DejaVuSans-30" transform="translate(190.869141 0)"/>
      </g>
     </g>
    </g>
    <g id="xtick_3">
     <g id="line2d_3">
      <g>
       <use xlink:href="#m2d388c24e5" x="195.010823" y="320.4" style="stroke: #000000; stroke-width: 0.8"/>
      </g>
     </g>
     <g id="text_3">
      <!-- 4000 -->
      <g transform="translate(182.285823 334.998438) scale(0.1 -0.1)">
       <defs>
        <path id="DejaVuSans-34" d="M 2419 4116 
L 825 1625 
L 2419 1625 
L 2419 4116 
z
M 2253 4666 
L 3047 4666 
L 3047 1625 
L 3713 1625 
L 3713 1100 
L 3047 1100 
L 3047 0 
L 2419 0 
L 2419 1100 
L 313 1100 
L 313 1709 
L 2253 4666 
z
" transform="scale(0.015625)"/>
       </defs>
       <use xlink:href="#DejaVuSans-34"/>
       <use xlink:href="#DejaVuSans-30" transform="translate(63.623047 0)"/>
       <use xlink:href="#DejaVuSans-30" transform="translate(127.246094 0)"/>
       <use xlink:href="#DejaVuSans-30" transform="translate(190.869141 0)"/>
      </g>
     </g>
    </g>
    <g id="xtick_4">
     <g id="line2d_4">
      <g>
       <use xlink:href="#m2d388c24e5" x="236.948052" y="320.4" style="stroke: #000000; stroke-width: 0.8"/>
      </g>
     </g>
     <g id="text_4">
      <!-- 6000 -->
      <g transform="translate(224.223052 334.998438) scale(0.1 -0.1)">
       <defs>
        <path id="DejaVuSans-36" d="M 2113 2584 
Q 1688 2584 1439 2293 
Q 1191 2003 1191 1497 
Q 1191 994 1439 701 
Q 1688 409 2113 409 
Q 2538 409 2786 701 
Q 3034 994 3034 1497 
Q 3034 2003 2786 2293 
Q 2538 2584 2113 2584 
z
M 3366 4563 
L 3366 3988 
Q 3128 4100 2886 4159 
Q 2644 4219 2406 4219 
Q 1781 4219 1451 3797 
Q 1122 3375 1075 2522 
Q 1259 2794 1537 2939 
Q 1816 3084 2150 3084 
Q 2853 3084 3261 2657 
Q 3669 2231 3669 1497 
Q 3669 778 3244 343 
Q 2819 -91 2113 -91 
Q 1303 -91 875 529 
Q 447 1150 447 2328 
Q 447 3434 972 4092 
Q 1497 4750 2381 4750 
Q 2619 4750 2861 4703 
Q 3103 4656 3366 4563 
z
" transform="scale(0.015625)"/>
       </defs>
       <use xlink:href="#DejaVuSans-36"/>
       <use xlink:href="#DejaVuSans-30" transform="translate(63.623047 0)"/>
       <use xlink:href="#DejaVuSans-30" transform="translate(127.246094 0)"/>
       <use xlink:href="#DejaVuSans-30" transform="translate(190.869141 0)"/>
      </g>
     </g>
    </g>
    <g id="xtick_5">
     <g id="line2d_5">
      <g>
       <use xlink:href="#m2d388c24e5" x="278.885281" y="320.4" style="stroke: #000000; stroke-width: 0.8"/>
      </g>
     </g>
     <g id="text_5">
      <!-- 8000 -->
      <g transform="translate(266.160281 334.998438) scale(0.1 -0.1)">
       <defs>
        <path id="DejaVuSans-38" d="M 2034 2216 
Q 1584 2216 1326 1975 
Q 1069 1734 1069 1313 
Q 1069 891 1326 650 
Q 1584 409 2034 409 
Q 2484 409 2743 651 
Q 3003 894 3003 1313 
Q 3003 1734 2745 1975 
Q 2488 2216 2034 2216 
z
M 1403 2484 
Q 997 2584 770 2862 
Q 544 3141 544 3541 
Q 544 4100 942 4425 
Q 1341 4750 2034 4750 
Q 2731 4750 3128 4425 
Q 3525 4100 3525 3541 
Q 3525 3141 3298 2862 
Q 3072 2584 2669 2484 
Q 3125 2378 3379 2068 
Q 3634 1759 3634 1313 
Q 3634 634 3220 271 
Q 2806 -91 2034 -91 
Q 1263 -91 848 271 
Q 434 634 434 1313 
Q 434 1759 690 2068 
Q 947 2378 1403 2484 
z
M 1172 3481 
Q 1172 3119 1398 2916 
Q 1625 2713 2034 2713 
Q 2441 2713 2670 2916 
Q 2900 3119 2900 3481 
Q 2900 3844 2670 4047 
Q 2441 4250 2034 4250 
Q 1625 4250 1398 4047 
Q 1172 3844 1172 3481 
z
" transform="scale(0.015625)"/>
       </defs>
       <use xlink:href="#DejaVuSans-38"/>
       <use xlink:href="#DejaVuSans-30" transform="translate(63.623047 0)"/>
       <use xlink:href="#DejaVuSans-30" transform="translate(127.246094 0)"/>
       <use xlink:href="#DejaVuSans-30" transform="translate(190.869141 0)"/>
      </g>
     </g>
    </g>
    <g id="xtick_6">
     <g id="line2d_6">
      <g>
       <use xlink:href="#m2d388c24e5" x="320.822511" y="320.4" style="stroke: #000000; stroke-width: 0.8"/>
      </g>
     </g>
     <g id="text_6">
      <!-- 10000 -->
      <g transform="translate(304.916261 334.998438) scale(0.1 -0.1)">
       <defs>
        <path id="DejaVuSans-31" d="M 794 531 
L 1825 531 
L 1825 4091 
L 703 3866 
L 703 4441 
L 1819 4666 
L 2450 4666 
L 2450 531 
L 3481 531 
L 3481 0 
L 794 0 
L 794 531 
z
" transform="scale(0.015625)"/>
       </defs>
       <use xlink:href="#DejaVuSans-31"/>
       <use xlink:href="#DejaVuSans-30" transform="translate(63.623047 0)"/>
       <use xlink:href="#DejaVuSans-30" transform="translate(127.246094 0)"/>
       <use xlink:href="#DejaVuSans-30" transform="translate(190.869141 0)"/>
       <use xlink:href="#DejaVuSans-30" transform="translate(254.492188 0)"/>
      </g>
     </g>
    </g>
    <g id="text_7">
     <!-- time -->
     <g transform="translate(203.262869 350.19625) scale(0.12 -0.12)">
      <defs>
       <path id="DejaVuSans-74" d="M 1172 4494 
L 1172 3500 
L 2356 3500 
L 2356 3053 
L 1172 3053 
L 1172 1153 
Q 1172 725 1289 603 
Q 1406 481 1766 481 
L 2356 481 
L 2356 0 
L 1766 0 
Q 1100 0 847 248 
Q 594 497 594 1153 
L 594 3053 
L 172 3053 
L 172 3500 
L 594 3500 
L 594 4494 
L 1172 4494 
z
" transform="scale(0.015625)"/>
       <path id="DejaVuSans-69" d="M 603 3500 
L 1178 3500 
L 1178 0 
L 603 0 
L 603 3500 
z
M 603 4863 
L 1178 4863 
L 1178 4134 
L 603 4134 
L 603 4863 
z
" transform="scale(0.015625)"/>
       <path id="DejaVuSans-6d" d="M 3328 2828 
Q 3544 3216 3844 3400 
Q 4144 3584 4550 3584 
Q 5097 3584 5394 3201 
Q 5691 2819 5691 2113 
L 5691 0 
L 5113 0 
L 5113 2094 
Q 5113 2597 4934 2840 
Q 4756 3084 4391 3084 
Q 3944 3084 3684 2787 
Q 3425 2491 3425 1978 
L 3425 0 
L 2847 0 
L 2847 2094 
Q 2847 2600 2669 2842 
Q 2491 3084 2119 3084 
Q 1678 3084 1418 2786 
Q 1159 2488 1159 1978 
L 1159 0 
L 581 0 
L 581 3500 
L 1159 3500 
L 1159 2956 
Q 1356 3278 1631 3431 
Q 1906 3584 2284 3584 
Q 2666 3584 2933 3390 
Q 3200 3197 3328 2828 
z
" transform="scale(0.015625)"/>
       <path id="DejaVuSans-65" d="M 3597 1894 
L 3597 1613 
L 953 1613 
Q 991 1019 1311 708 
Q 1631 397 2203 397 
Q 2534 397 2845 478 
Q 3156 559 3463 722 
L 3463 178 
Q 3153 47 2828 -22 
Q 2503 -91 2169 -91 
Q 1331 -91 842 396 
Q 353 884 353 1716 
Q 353 2575 817 3079 
Q 1281 3584 2069 3584 
Q 2775 3584 3186 3129 
Q 3597 2675 3597 1894 
z
M 3022 2063 
Q 3016 2534 2758 2815 
Q 2500 3097 2075 3097 
Q 1594 3097 1305 2825 
Q 1016 2553 972 2059 
L 3022 2063 
z
" transform="scale(0.015625)"/>
      </defs>
      <use xlink:href="#DejaVuSans-74"/>
      <use xlink:href="#DejaVuSans-69" transform="translate(39.208984 0)"/>
      <use xlink:href="#DejaVuSans-6d" transform="translate(66.992188 0)"/>
      <use xlink:href="#DejaVuSans-65" transform="translate(164.404297 0)"/>
     </g>
    </g>
   </g>
   <g id="matplotlib.axis_2">
    <g id="ytick_1">
     <g id="line2d_7">
      <defs>
       <path id="mae0bbb7fc7" d="M 0 0 
L -3.5 0 
" style="stroke: #000000; stroke-width: 0.8"/>
      </defs>
      <g>
       <use xlink:href="#mae0bbb7fc7" x="90" y="310.725131" style="stroke: #000000; stroke-width: 0.8"/>
      </g>
     </g>
     <g id="text_8">
      <!-- 27.5 -->
      <g transform="translate(60.734375 314.524349) scale(0.1 -0.1)">
       <defs>
        <path id="DejaVuSans-37" d="M 525 4666 
L 3525 4666 
L 3525 4397 
L 1831 0 
L 1172 0 
L 2766 4134 
L 525 4134 
L 525 4666 
z
" transform="scale(0.015625)"/>
        <path id="DejaVuSans-2e" d="M 684 794 
L 1344 794 
L 1344 0 
L 684 0 
L 684 794 
z
" transform="scale(0.015625)"/>
        <path id="DejaVuSans-35" d="M 691 4666 
L 3169 4666 
L 3169 4134 
L 1269 4134 
L 1269 2991 
Q 1406 3038 1543 3061 
Q 1681 3084 1819 3084 
Q 2600 3084 3056 2656 
Q 3513 2228 3513 1497 
Q 3513 744 3044 326 
Q 2575 -91 1722 -91 
Q 1428 -91 1123 -41 
Q 819 9 494 109 
L 494 744 
Q 775 591 1075 516 
Q 1375 441 1709 441 
Q 2250 441 2565 725 
Q 2881 1009 2881 1497 
Q 2881 1984 2565 2268 
Q 2250 2553 1709 2553 
Q 1456 2553 1204 2497 
Q 953 2441 691 2322 
L 691 4666 
z
" transform="scale(0.015625)"/>
       </defs>
       <use xlink:href="#DejaVuSans-32"/>
       <use xlink:href="#DejaVuSans-37" transform="translate(63.623047 0)"/>
       <use xlink:href="#DejaVuSans-2e" transform="translate(127.246094 0)"/>
       <use xlink:href="#DejaVuSans-35" transform="translate(159.033203 0)"/>
      </g>
     </g>
    </g>
    <g id="ytick_2">
     <g id="line2d_8">
      <g>
       <use xlink:href="#mae0bbb7fc7" x="90" y="274.160998" style="stroke: #000000; stroke-width: 0.8"/>
      </g>
     </g>
     <g id="text_9">
      <!-- 30.0 -->
      <g transform="translate(60.734375 277.960217) scale(0.1 -0.1)">
       <defs>
        <path id="DejaVuSans-33" d="M 2597 2516 
Q 3050 2419 3304 2112 
Q 3559 1806 3559 1356 
Q 3559 666 3084 287 
Q 2609 -91 1734 -91 
Q 1441 -91 1130 -33 
Q 819 25 488 141 
L 488 750 
Q 750 597 1062 519 
Q 1375 441 1716 441 
Q 2309 441 2620 675 
Q 2931 909 2931 1356 
Q 2931 1769 2642 2001 
Q 2353 2234 1838 2234 
L 1294 2234 
L 1294 2753 
L 1863 2753 
Q 2328 2753 2575 2939 
Q 2822 3125 2822 3475 
Q 2822 3834 2567 4026 
Q 2313 4219 1838 4219 
Q 1578 4219 1281 4162 
Q 984 4106 628 3988 
L 628 4550 
Q 988 4650 1302 4700 
Q 1616 4750 1894 4750 
Q 2613 4750 3031 4423 
Q 3450 4097 3450 3541 
Q 3450 3153 3228 2886 
Q 3006 2619 2597 2516 
z
" transform="scale(0.015625)"/>
       </defs>
       <use xlink:href="#DejaVuSans-33"/>
       <use xlink:href="#DejaVuSans-30" transform="translate(63.623047 0)"/>
       <use xlink:href="#DejaVuSans-2e" transform="translate(127.246094 0)"/>
       <use xlink:href="#DejaVuSans-30" transform="translate(159.033203 0)"/>
      </g>
     </g>
    </g>
    <g id="ytick_3">
     <g id="line2d_9">
      <g>
       <use xlink:href="#mae0bbb7fc7" x="90" y="237.596866" style="stroke: #000000; stroke-width: 0.8"/>
      </g>
     </g>
     <g id="text_10">
      <!-- 32.5 -->
      <g transform="translate(60.734375 241.396085) scale(0.1 -0.1)">
       <use xlink:href="#DejaVuSans-33"/>
       <use xlink:href="#DejaVuSans-32" transform="translate(63.623047 0)"/>
       <use xlink:href="#DejaVuSans-2e" transform="translate(127.246094 0)"/>
       <use xlink:href="#DejaVuSans-35" transform="translate(159.033203 0)"/>
      </g>
     </g>
    </g>
    <g id="ytick_4">
     <g id="line2d_10">
      <g>
       <use xlink:href="#mae0bbb7fc7" x="90" y="201.032734" style="stroke: #000000; stroke-width: 0.8"/>
      </g>
     </g>
     <g id="text_11">
      <!-- 35.0 -->
      <g transform="translate(60.734375 204.831952) scale(0.1 -0.1)">
       <use xlink:href="#DejaVuSans-33"/>
       <use xlink:href="#DejaVuSans-35" transform="translate(63.623047 0)"/>
       <use xlink:href="#DejaVuSans-2e" transform="translate(127.246094 0)"/>
       <use xlink:href="#DejaVuSans-30" transform="translate(159.033203 0)"/>
      </g>
     </g>
    </g>
    <g id="ytick_5">
     <g id="line2d_11">
      <g>
       <use xlink:href="#mae0bbb7fc7" x="90" y="164.468601" style="stroke: #000000; stroke-width: 0.8"/>
      </g>
     </g>
     <g id="text_12">
      <!-- 37.5 -->
      <g transform="translate(60.734375 168.26782) scale(0.1 -0.1)">
       <use xlink:href="#DejaVuSans-33"/>
       <use xlink:href="#DejaVuSans-37" transform="translate(63.623047 0)"/>
       <use xlink:href="#DejaVuSans-2e" transform="translate(127.246094 0)"/>
       <use xlink:href="#DejaVuSans-35" transform="translate(159.033203 0)"/>
      </g>
     </g>
    </g>
    <g id="ytick_6">
     <g id="line2d_12">
      <g>
       <use xlink:href="#mae0bbb7fc7" x="90" y="127.904469" style="stroke: #000000; stroke-width: 0.8"/>
      </g>
     </g>
     <g id="text_13">
      <!-- 40.0 -->
      <g transform="translate(60.734375 131.703688) scale(0.1 -0.1)">
       <use xlink:href="#DejaVuSans-34"/>
       <use xlink:href="#DejaVuSans-30" transform="translate(63.623047 0)"/>
       <use xlink:href="#DejaVuSans-2e" transform="translate(127.246094 0)"/>
       <use xlink:href="#DejaVuSans-30" transform="translate(159.033203 0)"/>
      </g>
     </g>
    </g>
    <g id="ytick_7">
     <g id="line2d_13">
      <g>
       <use xlink:href="#mae0bbb7fc7" x="90" y="91.340337" style="stroke: #000000; stroke-width: 0.8"/>
      </g>
     </g>
     <g id="text_14">
      <!-- 42.5 -->
      <g transform="translate(60.734375 95.139555) scale(0.1 -0.1)">
       <use xlink:href="#DejaVuSans-34"/>
       <use xlink:href="#DejaVuSans-32" transform="translate(63.623047 0)"/>
       <use xlink:href="#DejaVuSans-2e" transform="translate(127.246094 0)"/>
       <use xlink:href="#DejaVuSans-35" transform="translate(159.033203 0)"/>
      </g>
     </g>
    </g>
    <g id="ytick_8">
     <g id="line2d_14">
      <g>
       <use xlink:href="#mae0bbb7fc7" x="90" y="54.776204" style="stroke: #000000; stroke-width: 0.8"/>
      </g>
     </g>
     <g id="text_15">
      <!-- 45.0 -->
      <g transform="translate(60.734375 58.575423) scale(0.1 -0.1)">
       <use xlink:href="#DejaVuSans-34"/>
       <use xlink:href="#DejaVuSans-35" transform="translate(63.623047 0)"/>
       <use xlink:href="#DejaVuSans-2e" transform="translate(127.246094 0)"/>
       <use xlink:href="#DejaVuSans-30" transform="translate(159.033203 0)"/>
      </g>
     </g>
    </g>
    <g id="text_16">
     <!-- aPTT -->
     <g transform="translate(54.23875 196.319062) rotate(-90) scale(0.12 -0.12)">
      <defs>
       <path id="DejaVuSans-61" d="M 2194 1759 
Q 1497 1759 1228 1600 
Q 959 1441 959 1056 
Q 959 750 1161 570 
Q 1363 391 1709 391 
Q 2188 391 2477 730 
Q 2766 1069 2766 1631 
L 2766 1759 
L 2194 1759 
z
M 3341 1997 
L 3341 0 
L 2766 0 
L 2766 531 
Q 2569 213 2275 61 
Q 1981 -91 1556 -91 
Q 1019 -91 701 211 
Q 384 513 384 1019 
Q 384 1609 779 1909 
Q 1175 2209 1959 2209 
L 2766 2209 
L 2766 2266 
Q 2766 2663 2505 2880 
Q 2244 3097 1772 3097 
Q 1472 3097 1187 3025 
Q 903 2953 641 2809 
L 641 3341 
Q 956 3463 1253 3523 
Q 1550 3584 1831 3584 
Q 2591 3584 2966 3190 
Q 3341 2797 3341 1997 
z
" transform="scale(0.015625)"/>
       <path id="DejaVuSans-50" d="M 1259 4147 
L 1259 2394 
L 2053 2394 
Q 2494 2394 2734 2622 
Q 2975 2850 2975 3272 
Q 2975 3691 2734 3919 
Q 2494 4147 2053 4147 
L 1259 4147 
z
M 628 4666 
L 2053 4666 
Q 2838 4666 3239 4311 
Q 3641 3956 3641 3272 
Q 3641 2581 3239 2228 
Q 2838 1875 2053 1875 
L 1259 1875 
L 1259 0 
L 628 0 
L 628 4666 
z
" transform="scale(0.015625)"/>
       <path id="DejaVuSans-54" d="M -19 4666 
L 3928 4666 
L 3928 4134 
L 2272 4134 
L 2272 0 
L 1638 0 
L 1638 4134 
L -19 4134 
L -19 4666 
z
" transform="scale(0.015625)"/>
      </defs>
      <use xlink:href="#DejaVuSans-61"/>
      <use xlink:href="#DejaVuSans-50" transform="translate(61.279297 0)"/>
      <use xlink:href="#DejaVuSans-54" transform="translate(121.582031 0)"/>
      <use xlink:href="#DejaVuSans-54" transform="translate(180.916016 0)"/>
     </g>
    </g>
   </g>
   <g id="LineCollection_1">
    <path d="M 111.136364 287.762855 
L 111.136364 167.539988 
" clip-path="url(#p8055f6e660)" style="fill: none; stroke: #000000; stroke-width: 1.5"/>
    <path d="M 114.910714 227.651422 
L 114.910714 88.707719 
" clip-path="url(#p8055f6e660)" style="fill: none; stroke: #000000; stroke-width: 1.5"/>
    <path d="M 118.685065 205.859199 
L 118.685065 117.227742 
" clip-path="url(#p8055f6e660)" style="fill: none; stroke: #000000; stroke-width: 1.5"/>
    <path d="M 122.459416 250.321184 
L 122.459416 142.676378 
" clip-path="url(#p8055f6e660)" style="fill: none; stroke: #000000; stroke-width: 1.5"/>
    <path d="M 126.233766 247.396053 
L 126.233766 152.329309 
" clip-path="url(#p8055f6e660)" style="fill: none; stroke: #000000; stroke-width: 1.5"/>
    <path d="M 130.008117 244.17841 
L 130.008117 149.404179 
" clip-path="url(#p8055f6e660)" style="fill: none; stroke: #000000; stroke-width: 1.5"/>
    <path d="M 133.782468 263.338015 
L 133.782468 181.141846 
" clip-path="url(#p8055f6e660)" style="fill: none; stroke: #000000; stroke-width: 1.5"/>
    <path d="M 137.556818 307.8 
L 137.556818 174.999071 
" clip-path="url(#p8055f6e660)" style="fill: none; stroke: #000000; stroke-width: 1.5"/>
    <path d="M 141.331169 254.27011 
L 141.331169 165.638654 
" clip-path="url(#p8055f6e660)" style="fill: none; stroke: #000000; stroke-width: 1.5"/>
    <path d="M 292.305195 242.130818 
L 292.305195 159.934649 
" clip-path="url(#p8055f6e660)" style="fill: none; stroke: #000000; stroke-width: 1.5"/>
    <path d="M 296.079545 182.165641 
L 296.079545 55.8 
" clip-path="url(#p8055f6e660)" style="fill: none; stroke: #000000; stroke-width: 1.5"/>
    <path d="M 299.853896 182.311898 
L 299.853896 87.537667 
" clip-path="url(#p8055f6e660)" style="fill: none; stroke: #000000; stroke-width: 1.5"/>
    <path d="M 303.628247 229.991526 
L 303.628247 128.782008 
" clip-path="url(#p8055f6e660)" style="fill: none; stroke: #000000; stroke-width: 1.5"/>
    <path d="M 307.402597 229.991526 
L 307.402597 160.665932 
" clip-path="url(#p8055f6e660)" style="fill: none; stroke: #000000; stroke-width: 1.5"/>
    <path d="M 311.176948 239.93697 
L 311.176948 163.883575 
" clip-path="url(#p8055f6e660)" style="fill: none; stroke: #000000; stroke-width: 1.5"/>
    <path d="M 314.951299 224.141265 
L 314.951299 192.549855 
" clip-path="url(#p8055f6e660)" style="fill: none; stroke: #000000; stroke-width: 1.5"/>
    <path d="M 318.725649 227.505165 
L 318.725649 157.887057 
" clip-path="url(#p8055f6e660)" style="fill: none; stroke: #000000; stroke-width: 1.5"/>
    <path d="M 322.5 243.300871 
L 322.5 116.935229 
" clip-path="url(#p8055f6e660)" style="fill: none; stroke: #000000; stroke-width: 1.5"/>
   </g>
   <g id="line2d_15">
    <path d="M 111.136364 227.651422 
L 111.141267 227.546711 
L 111.203858 215.697235 
L 111.540914 170.854223 
L 111.913372 145.149376 
L 112.343604 129.204182 
L 112.837007 119.747198 
L 113.265142 115.626355 
L 113.645182 113.84826 
L 114.025222 113.221124 
L 114.312617 113.282762 
L 114.808956 114.137987 
L 115.435786 116.096812 
L 116.383829 120.052415 
L 118.953533 132.437586 
L 121.85342 145.894043 
L 124.27373 156.018828 
L 126.277179 163.607958 
L 128.55626 171.404161 
L 130.83534 178.362932 
L 133.114421 184.547129 
L 135.393502 190.022364 
L 137.672583 194.854092 
L 139.951664 199.105749 
L 141.332526 201.649325 
L 141.339356 201.312846 
L 142.067468 134.691635 
L 142.448639 121.384457 
L 142.815115 113.9434 
L 143.280189 108.786719 
L 143.696342 106.620715 
L 144.063573 105.919125 
L 144.247189 105.872129 
L 144.430805 105.983837 
L 144.798037 106.58552 
L 145.348884 108.165232 
L 146.266963 111.84451 
L 147.851445 119.419284 
L 151.657654 137.836579 
L 154.226957 149.094776 
L 156.693575 158.858426 
L 158.731975 166.168483 
L 160.770376 172.820499 
L 162.808776 178.848613 
L 164.847177 184.2912 
L 166.885577 189.188921 
L 168.923978 193.58327 
L 170.962378 197.515479 
L 171.527313 198.732244 
L 171.534506 198.369476 
L 172.215517 135.346059 
L 172.651269 119.897493 
L 173.05935 112.067752 
L 173.506624 107.508731 
L 173.977264 105.383103 
L 174.173466 105.031548 
L 174.369667 104.912703 
L 174.565869 104.985808 
L 174.958273 105.582127 
L 175.546878 107.264337 
L 176.331686 110.372945 
L 177.919813 117.908756 
L 182.038333 137.84953 
L 184.349142 147.994558 
L 186.692212 157.371604 
L 188.820331 165.105535 
L 190.948451 172.122837 
L 193.07657 178.460485 
L 195.204689 184.160847 
L 197.332808 189.269256 
L 199.460928 193.832207 
L 201.720779 198.128402 
L 201.722074 199.149221 
L 201.830726 183.518216 
L 202.188635 148.433732 
L 202.558854 129.097947 
L 202.93572 117.903478 
L 203.369986 110.686478 
L 203.759887 107.228842 
L 204.230963 105.347139 
L 204.428596 105.066509 
L 204.626229 105.008808 
L 204.823863 105.134987 
L 205.219129 105.818194 
L 205.81203 107.595916 
L 206.800196 111.67704 
L 208.585978 120.330874 
L 212.034448 137.013618 
L 214.756304 148.955011 
L 217.285234 158.942554 
L 219.360521 166.355562 
L 221.435808 173.092115 
L 223.511095 179.18757 
L 225.586383 184.681793 
L 227.66167 189.617097 
L 229.736957 194.03669 
L 231.915584 198.16544 
L 231.916878 199.203045 
L 232.025418 183.580603 
L 232.396638 147.559942 
L 232.794837 127.579535 
L 233.246381 115.537751 
L 233.673478 109.515447 
L 234.100575 106.446024 
L 234.385306 105.453326 
L 234.62645 105.080722 
L 234.867594 105.03985 
L 235.108739 105.26123 
L 235.591027 106.287047 
L 236.314459 108.77237 
L 237.52018 114.150829 
L 243.815098 144.134685 
L 246.131468 153.762502 
L 248.449851 162.505463 
L 251.058787 171.312873 
L 253.667722 179.091229 
L 256.276658 185.918389 
L 258.885594 191.878576 
L 261.494529 197.057546 
L 262.11039 198.16749 
L 262.111612 198.626626 
L 262.217378 183.473523 
L 262.593711 147.072674 
L 262.991821 127.246044 
L 263.403787 116.053822 
L 263.87942 109.219773 
L 264.21863 106.666262 
L 264.557841 105.342348 
L 264.897052 104.876499 
L 265.066658 104.884519 
L 265.405869 105.266979 
L 265.961609 106.657421 
L 266.763165 109.668314 
L 268.217774 116.449212 
L 273.017572 139.601381 
L 275.560737 150.55313 
L 277.498257 158.172322 
L 280.039456 167.235974 
L 282.580655 175.292953 
L 285.121854 182.410065 
L 287.663053 188.662563 
L 290.204253 194.129184 
L 292.305195 198.102435 
L 292.306494 198.890379 
L 292.410398 183.947454 
L 292.760711 149.145449 
L 293.15808 128.414577 
L 293.631663 115.503434 
L 294.100605 109.046306 
L 294.490616 106.348107 
L 294.750624 105.419892 
L 294.987021 105.016049 
L 295.223417 104.939735 
L 295.459814 105.123377 
L 295.932608 106.071544 
L 296.641798 108.444095 
L 297.823782 113.658412 
L 304.592197 145.733886 
L 306.87571 155.087502 
L 309.159223 163.57762 
L 311.861307 172.551654 
L 314.56339 180.434475 
L 316.364779 185.126577 
L 318.166168 189.400479 
L 319.967557 193.284439 
L 321.768946 196.806583 
L 323.570335 199.994467 
L 325.371724 202.874745 
L 327.173113 205.472931 
L 329.875197 208.893853 
L 332.57728 211.809871 
L 335.279364 214.289188 
L 337.981447 216.392562 
L 340.68353 218.173602 
L 343.385614 219.67923 
L 344.286308 220.12712 
L 344.286308 220.12712 
" clip-path="url(#p8055f6e660)" style="fill: none; stroke: #0000ff; stroke-width: 1.5; stroke-linecap: square"/>
   </g>
   <g id="line2d_16">
    <path d="M 111.136364 227.651422 
L 114.910714 158.179571 
L 118.685065 161.543471 
L 122.459416 196.498781 
L 126.233766 199.862681 
L 130.008117 196.791294 
L 133.782468 222.23993 
L 137.556818 241.399536 
L 141.331169 209.954382 
L 292.305195 201.032734 
L 296.079545 118.982821 
L 299.853896 134.924782 
L 303.628247 179.386767 
L 307.402597 195.328729 
L 311.176948 201.910273 
L 314.951299 208.34556 
L 318.725649 192.696111 
L 322.5 180.11805 
" clip-path="url(#p8055f6e660)" style="fill: none; stroke: #000000; stroke-width: 1.5; stroke-linecap: square"/>
    <defs>
     <path id="m3ebfe6a1d5" d="M -5 5 
L 5 5 
L 5 -5 
L -5 -5 
z
" style="stroke: #000000; stroke-linejoin: miter"/>
    </defs>
    <g clip-path="url(#p8055f6e660)">
     <use xlink:href="#m3ebfe6a1d5" x="111.136364" y="227.651422" style="stroke: #000000; stroke-linejoin: miter"/>
     <use xlink:href="#m3ebfe6a1d5" x="114.910714" y="158.179571" style="stroke: #000000; stroke-linejoin: miter"/>
     <use xlink:href="#m3ebfe6a1d5" x="118.685065" y="161.543471" style="stroke: #000000; stroke-linejoin: miter"/>
     <use xlink:href="#m3ebfe6a1d5" x="122.459416" y="196.498781" style="stroke: #000000; stroke-linejoin: miter"/>
     <use xlink:href="#m3ebfe6a1d5" x="126.233766" y="199.862681" style="stroke: #000000; stroke-linejoin: miter"/>
     <use xlink:href="#m3ebfe6a1d5" x="130.008117" y="196.791294" style="stroke: #000000; stroke-linejoin: miter"/>
     <use xlink:href="#m3ebfe6a1d5" x="133.782468" y="222.23993" style="stroke: #000000; stroke-linejoin: miter"/>
     <use xlink:href="#m3ebfe6a1d5" x="137.556818" y="241.399536" style="stroke: #000000; stroke-linejoin: miter"/>
     <use xlink:href="#m3ebfe6a1d5" x="141.331169" y="209.954382" style="stroke: #000000; stroke-linejoin: miter"/>
     <use xlink:href="#m3ebfe6a1d5" x="292.305195" y="201.032734" style="stroke: #000000; stroke-linejoin: miter"/>
     <use xlink:href="#m3ebfe6a1d5" x="296.079545" y="118.982821" style="stroke: #000000; stroke-linejoin: miter"/>
     <use xlink:href="#m3ebfe6a1d5" x="299.853896" y="134.924782" style="stroke: #000000; stroke-linejoin: miter"/>
     <use xlink:href="#m3ebfe6a1d5" x="303.628247" y="179.386767" style="stroke: #000000; stroke-linejoin: miter"/>
     <use xlink:href="#m3ebfe6a1d5" x="307.402597" y="195.328729" style="stroke: #000000; stroke-linejoin: miter"/>
     <use xlink:href="#m3ebfe6a1d5" x="311.176948" y="201.910273" style="stroke: #000000; stroke-linejoin: miter"/>
     <use xlink:href="#m3ebfe6a1d5" x="314.951299" y="208.34556" style="stroke: #000000; stroke-linejoin: miter"/>
     <use xlink:href="#m3ebfe6a1d5" x="318.725649" y="192.696111" style="stroke: #000000; stroke-linejoin: miter"/>
     <use xlink:href="#m3ebfe6a1d5" x="322.5" y="180.11805" style="stroke: #000000; stroke-linejoin: miter"/>
    </g>
   </g>
   <g id="patch_3">
    <path d="M 90 320.4 
L 90 43.2 
" style="fill: none; stroke: #000000; stroke-width: 0.8; stroke-linejoin: miter; stroke-linecap: square"/>
   </g>
   <g id="patch_4">
    <path d="M 343.636364 320.4 
L 343.636364 43.2 
" style="fill: none; stroke: #000000; stroke-width: 0.8; stroke-linejoin: miter; stroke-linecap: square"/>
   </g>
   <g id="patch_5">
    <path d="M 90 320.4 
L 343.636364 320.4 
" style="fill: none; stroke: #000000; stroke-width: 0.8; stroke-linejoin: miter; stroke-linecap: square"/>
   </g>
   <g id="patch_6">
    <path d="M 90 43.2 
L 343.636364 43.2 
" style="fill: none; stroke: #000000; stroke-width: 0.8; stroke-linejoin: miter; stroke-linecap: square"/>
   </g>
   <g id="text_17">
    <!-- Frost2013a fm_API25_aPTT -->
    <g transform="translate(122.372869 37.2) scale(0.14 -0.14)">
     <defs>
      <path id="DejaVuSans-46" d="M 628 4666 
L 3309 4666 
L 3309 4134 
L 1259 4134 
L 1259 2759 
L 3109 2759 
L 3109 2228 
L 1259 2228 
L 1259 0 
L 628 0 
L 628 4666 
z
" transform="scale(0.015625)"/>
      <path id="DejaVuSans-72" d="M 2631 2963 
Q 2534 3019 2420 3045 
Q 2306 3072 2169 3072 
Q 1681 3072 1420 2755 
Q 1159 2438 1159 1844 
L 1159 0 
L 581 0 
L 581 3500 
L 1159 3500 
L 1159 2956 
Q 1341 3275 1631 3429 
Q 1922 3584 2338 3584 
Q 2397 3584 2469 3576 
Q 2541 3569 2628 3553 
L 2631 2963 
z
" transform="scale(0.015625)"/>
      <path id="DejaVuSans-6f" d="M 1959 3097 
Q 1497 3097 1228 2736 
Q 959 2375 959 1747 
Q 959 1119 1226 758 
Q 1494 397 1959 397 
Q 2419 397 2687 759 
Q 2956 1122 2956 1747 
Q 2956 2369 2687 2733 
Q 2419 3097 1959 3097 
z
M 1959 3584 
Q 2709 3584 3137 3096 
Q 3566 2609 3566 1747 
Q 3566 888 3137 398 
Q 2709 -91 1959 -91 
Q 1206 -91 779 398 
Q 353 888 353 1747 
Q 353 2609 779 3096 
Q 1206 3584 1959 3584 
z
" transform="scale(0.015625)"/>
      <path id="DejaVuSans-73" d="M 2834 3397 
L 2834 2853 
Q 2591 2978 2328 3040 
Q 2066 3103 1784 3103 
Q 1356 3103 1142 2972 
Q 928 2841 928 2578 
Q 928 2378 1081 2264 
Q 1234 2150 1697 2047 
L 1894 2003 
Q 2506 1872 2764 1633 
Q 3022 1394 3022 966 
Q 3022 478 2636 193 
Q 2250 -91 1575 -91 
Q 1294 -91 989 -36 
Q 684 19 347 128 
L 347 722 
Q 666 556 975 473 
Q 1284 391 1588 391 
Q 1994 391 2212 530 
Q 2431 669 2431 922 
Q 2431 1156 2273 1281 
Q 2116 1406 1581 1522 
L 1381 1569 
Q 847 1681 609 1914 
Q 372 2147 372 2553 
Q 372 3047 722 3315 
Q 1072 3584 1716 3584 
Q 2034 3584 2315 3537 
Q 2597 3491 2834 3397 
z
" transform="scale(0.015625)"/>
      <path id="DejaVuSans-20" transform="scale(0.015625)"/>
      <path id="DejaVuSans-66" d="M 2375 4863 
L 2375 4384 
L 1825 4384 
Q 1516 4384 1395 4259 
Q 1275 4134 1275 3809 
L 1275 3500 
L 2222 3500 
L 2222 3053 
L 1275 3053 
L 1275 0 
L 697 0 
L 697 3053 
L 147 3053 
L 147 3500 
L 697 3500 
L 697 3744 
Q 697 4328 969 4595 
Q 1241 4863 1831 4863 
L 2375 4863 
z
" transform="scale(0.015625)"/>
      <path id="DejaVuSans-5f" d="M 3263 -1063 
L 3263 -1509 
L -63 -1509 
L -63 -1063 
L 3263 -1063 
z
" transform="scale(0.015625)"/>
      <path id="DejaVuSans-41" d="M 2188 4044 
L 1331 1722 
L 3047 1722 
L 2188 4044 
z
M 1831 4666 
L 2547 4666 
L 4325 0 
L 3669 0 
L 3244 1197 
L 1141 1197 
L 716 0 
L 50 0 
L 1831 4666 
z
" transform="scale(0.015625)"/>
      <path id="DejaVuSans-49" d="M 628 4666 
L 1259 4666 
L 1259 0 
L 628 0 
L 628 4666 
z
" transform="scale(0.015625)"/>
     </defs>
     <use xlink:href="#DejaVuSans-46"/>
     <use xlink:href="#DejaVuSans-72" transform="translate(50.269531 0)"/>
     <use xlink:href="#DejaVuSans-6f" transform="translate(89.132812 0)"/>
     <use xlink:href="#DejaVuSans-73" transform="translate(150.314453 0)"/>
     <use xlink:href="#DejaVuSans-74" transform="translate(202.414062 0)"/>
     <use xlink:href="#DejaVuSans-32" transform="translate(241.623047 0)"/>
     <use xlink:href="#DejaVuSans-30" transform="translate(305.246094 0)"/>
     <use xlink:href="#DejaVuSans-31" transform="translate(368.869141 0)"/>
     <use xlink:href="#DejaVuSans-33" transform="translate(432.492188 0)"/>
     <use xlink:href="#DejaVuSans-61" transform="translate(496.115234 0)"/>
     <use xlink:href="#DejaVuSans-20" transform="translate(557.394531 0)"/>
     <use xlink:href="#DejaVuSans-66" transform="translate(589.181641 0)"/>
     <use xlink:href="#DejaVuSans-6d" transform="translate(624.386719 0)"/>
     <use xlink:href="#DejaVuSans-5f" transform="translate(721.798828 0)"/>
     <use xlink:href="#DejaVuSans-41" transform="translate(771.798828 0)"/>
     <use xlink:href="#DejaVuSans-50" transform="translate(840.207031 0)"/>
     <use xlink:href="#DejaVuSans-49" transform="translate(900.509766 0)"/>
     <use xlink:href="#DejaVuSans-32" transform="translate(930.001953 0)"/>
     <use xlink:href="#DejaVuSans-35" transform="translate(993.625 0)"/>
     <use xlink:href="#DejaVuSans-5f" transform="translate(1057.248047 0)"/>
     <use xlink:href="#DejaVuSans-61" transform="translate(1107.248047 0)"/>
     <use xlink:href="#DejaVuSans-50" transform="translate(1168.527344 0)"/>
     <use xlink:href="#DejaVuSans-54" transform="translate(1228.830078 0)"/>
     <use xlink:href="#DejaVuSans-54" transform="translate(1288.164062 0)"/>
    </g>
   </g>
   <g id="legend_1">
    <g id="patch_7">
     <path d="M 200.586364 80.834375 
L 336.636364 80.834375 
Q 338.636364 80.834375 338.636364 78.834375 
L 338.636364 50.2 
Q 338.636364 48.2 336.636364 48.2 
L 200.586364 48.2 
Q 198.586364 48.2 198.586364 50.2 
L 198.586364 78.834375 
Q 198.586364 80.834375 200.586364 80.834375 
z
" style="fill: #ffffff; opacity: 0.8; stroke: #cccccc; stroke-linejoin: miter"/>
    </g>
    <g id="line2d_17">
     <path d="M 202.586364 56.298437 
L 212.586364 56.298437 
L 222.586364 56.298437 
" style="fill: none; stroke: #0000ff; stroke-width: 1.5; stroke-linecap: square"/>
    </g>
    <g id="text_18">
     <!-- observable -->
     <g transform="translate(230.586364 59.798437) scale(0.1 -0.1)">
      <defs>
       <path id="DejaVuSans-62" d="M 3116 1747 
Q 3116 2381 2855 2742 
Q 2594 3103 2138 3103 
Q 1681 3103 1420 2742 
Q 1159 2381 1159 1747 
Q 1159 1113 1420 752 
Q 1681 391 2138 391 
Q 2594 391 2855 752 
Q 3116 1113 3116 1747 
z
M 1159 2969 
Q 1341 3281 1617 3432 
Q 1894 3584 2278 3584 
Q 2916 3584 3314 3078 
Q 3713 2572 3713 1747 
Q 3713 922 3314 415 
Q 2916 -91 2278 -91 
Q 1894 -91 1617 61 
Q 1341 213 1159 525 
L 1159 0 
L 581 0 
L 581 4863 
L 1159 4863 
L 1159 2969 
z
" transform="scale(0.015625)"/>
       <path id="DejaVuSans-76" d="M 191 3500 
L 800 3500 
L 1894 563 
L 2988 3500 
L 3597 3500 
L 2284 0 
L 1503 0 
L 191 3500 
z
" transform="scale(0.015625)"/>
       <path id="DejaVuSans-6c" d="M 603 4863 
L 1178 4863 
L 1178 0 
L 603 0 
L 603 4863 
z
" transform="scale(0.015625)"/>
      </defs>
      <use xlink:href="#DejaVuSans-6f"/>
      <use xlink:href="#DejaVuSans-62" transform="translate(61.181641 0)"/>
      <use xlink:href="#DejaVuSans-73" transform="translate(124.658203 0)"/>
      <use xlink:href="#DejaVuSans-65" transform="translate(176.757812 0)"/>
      <use xlink:href="#DejaVuSans-72" transform="translate(238.28125 0)"/>
      <use xlink:href="#DejaVuSans-76" transform="translate(279.394531 0)"/>
      <use xlink:href="#DejaVuSans-61" transform="translate(338.574219 0)"/>
      <use xlink:href="#DejaVuSans-62" transform="translate(399.853516 0)"/>
      <use xlink:href="#DejaVuSans-6c" transform="translate(463.330078 0)"/>
      <use xlink:href="#DejaVuSans-65" transform="translate(491.113281 0)"/>
     </g>
    </g>
    <g id="LineCollection_2">
     <path d="M 212.586364 75.976562 
L 212.586364 65.976562 
" style="fill: none; stroke: #000000; stroke-width: 1.5"/>
    </g>
    <g id="line2d_18">
     <path d="M 202.586364 70.976562 
L 222.586364 70.976562 
" style="fill: none; stroke: #000000; stroke-width: 1.5; stroke-linecap: square"/>
    </g>
    <g id="line2d_19">
     <g>
      <use xlink:href="#m3ebfe6a1d5" x="212.586364" y="70.976562" style="stroke: #000000; stroke-linejoin: miter"/>
     </g>
    </g>
    <g id="text_19">
     <!-- reference_data ± SD -->
     <g transform="translate(230.586364 74.476562) scale(0.1 -0.1)">
      <defs>
       <path id="DejaVuSans-6e" d="M 3513 2113 
L 3513 0 
L 2938 0 
L 2938 2094 
Q 2938 2591 2744 2837 
Q 2550 3084 2163 3084 
Q 1697 3084 1428 2787 
Q 1159 2491 1159 1978 
L 1159 0 
L 581 0 
L 581 3500 
L 1159 3500 
L 1159 2956 
Q 1366 3272 1645 3428 
Q 1925 3584 2291 3584 
Q 2894 3584 3203 3211 
Q 3513 2838 3513 2113 
z
" transform="scale(0.015625)"/>
       <path id="DejaVuSans-63" d="M 3122 3366 
L 3122 2828 
Q 2878 2963 2633 3030 
Q 2388 3097 2138 3097 
Q 1578 3097 1268 2742 
Q 959 2388 959 1747 
Q 959 1106 1268 751 
Q 1578 397 2138 397 
Q 2388 397 2633 464 
Q 2878 531 3122 666 
L 3122 134 
Q 2881 22 2623 -34 
Q 2366 -91 2075 -91 
Q 1284 -91 818 406 
Q 353 903 353 1747 
Q 353 2603 823 3093 
Q 1294 3584 2113 3584 
Q 2378 3584 2631 3529 
Q 2884 3475 3122 3366 
z
" transform="scale(0.015625)"/>
       <path id="DejaVuSans-64" d="M 2906 2969 
L 2906 4863 
L 3481 4863 
L 3481 0 
L 2906 0 
L 2906 525 
Q 2725 213 2448 61 
Q 2172 -91 1784 -91 
Q 1150 -91 751 415 
Q 353 922 353 1747 
Q 353 2572 751 3078 
Q 1150 3584 1784 3584 
Q 2172 3584 2448 3432 
Q 2725 3281 2906 2969 
z
M 947 1747 
Q 947 1113 1208 752 
Q 1469 391 1925 391 
Q 2381 391 2643 752 
Q 2906 1113 2906 1747 
Q 2906 2381 2643 2742 
Q 2381 3103 1925 3103 
Q 1469 3103 1208 2742 
Q 947 2381 947 1747 
z
" transform="scale(0.015625)"/>
       <path id="DejaVuSans-b1" d="M 2944 4013 
L 2944 2803 
L 4684 2803 
L 4684 2272 
L 2944 2272 
L 2944 1063 
L 2419 1063 
L 2419 2272 
L 678 2272 
L 678 2803 
L 2419 2803 
L 2419 4013 
L 2944 4013 
z
M 678 531 
L 4684 531 
L 4684 0 
L 678 0 
L 678 531 
z
" transform="scale(0.015625)"/>
       <path id="DejaVuSans-53" d="M 3425 4513 
L 3425 3897 
Q 3066 4069 2747 4153 
Q 2428 4238 2131 4238 
Q 1616 4238 1336 4038 
Q 1056 3838 1056 3469 
Q 1056 3159 1242 3001 
Q 1428 2844 1947 2747 
L 2328 2669 
Q 3034 2534 3370 2195 
Q 3706 1856 3706 1288 
Q 3706 609 3251 259 
Q 2797 -91 1919 -91 
Q 1588 -91 1214 -16 
Q 841 59 441 206 
L 441 856 
Q 825 641 1194 531 
Q 1563 422 1919 422 
Q 2459 422 2753 634 
Q 3047 847 3047 1241 
Q 3047 1584 2836 1778 
Q 2625 1972 2144 2069 
L 1759 2144 
Q 1053 2284 737 2584 
Q 422 2884 422 3419 
Q 422 4038 858 4394 
Q 1294 4750 2059 4750 
Q 2388 4750 2728 4690 
Q 3069 4631 3425 4513 
z
" transform="scale(0.015625)"/>
       <path id="DejaVuSans-44" d="M 1259 4147 
L 1259 519 
L 2022 519 
Q 2988 519 3436 956 
Q 3884 1394 3884 2338 
Q 3884 3275 3436 3711 
Q 2988 4147 2022 4147 
L 1259 4147 
z
M 628 4666 
L 1925 4666 
Q 3281 4666 3915 4102 
Q 4550 3538 4550 2338 
Q 4550 1131 3912 565 
Q 3275 0 1925 0 
L 628 0 
L 628 4666 
z
" transform="scale(0.015625)"/>
      </defs>
      <use xlink:href="#DejaVuSans-72"/>
      <use xlink:href="#DejaVuSans-65" transform="translate(38.863281 0)"/>
      <use xlink:href="#DejaVuSans-66" transform="translate(100.386719 0)"/>
      <use xlink:href="#DejaVuSans-65" transform="translate(135.591797 0)"/>
      <use xlink:href="#DejaVuSans-72" transform="translate(197.115234 0)"/>
      <use xlink:href="#DejaVuSans-65" transform="translate(235.978516 0)"/>
      <use xlink:href="#DejaVuSans-6e" transform="translate(297.501953 0)"/>
      <use xlink:href="#DejaVuSans-63" transform="translate(360.880859 0)"/>
      <use xlink:href="#DejaVuSans-65" transform="translate(415.861328 0)"/>
      <use xlink:href="#DejaVuSans-5f" transform="translate(477.384766 0)"/>
      <use xlink:href="#DejaVuSans-64" transform="translate(527.384766 0)"/>
      <use xlink:href="#DejaVuSans-61" transform="translate(590.861328 0)"/>
      <use xlink:href="#DejaVuSans-74" transform="translate(652.140625 0)"/>
      <use xlink:href="#DejaVuSans-61" transform="translate(691.349609 0)"/>
      <use xlink:href="#DejaVuSans-20" transform="translate(752.628906 0)"/>
      <use xlink:href="#DejaVuSans-b1" transform="translate(784.416016 0)"/>
      <use xlink:href="#DejaVuSans-20" transform="translate(868.205078 0)"/>
      <use xlink:href="#DejaVuSans-53" transform="translate(899.992188 0)"/>
      <use xlink:href="#DejaVuSans-44" transform="translate(963.46875 0)"/>
     </g>
    </g>
   </g>
  </g>
  <g id="axes_2">
   <g id="patch_8">
    <path d="M 394.363636 320.4 
L 648 320.4 
L 648 43.2 
L 394.363636 43.2 
z
" style="fill: #ffffff"/>
   </g>
   <g id="matplotlib.axis_3">
    <g id="xtick_7">
     <g id="line2d_20">
      <g>
       <use xlink:href="#m2d388c24e5" x="415.5" y="320.4" style="stroke: #000000; stroke-width: 0.8"/>
      </g>
     </g>
     <g id="text_20">
      <!-- 0 -->
      <g transform="translate(412.31875 334.998438) scale(0.1 -0.1)">
       <use xlink:href="#DejaVuSans-30"/>
      </g>
     </g>
    </g>
    <g id="xtick_8">
     <g id="line2d_21">
      <g>
       <use xlink:href="#m2d388c24e5" x="457.437229" y="320.4" style="stroke: #000000; stroke-width: 0.8"/>
      </g>
     </g>
     <g id="text_21">
      <!-- 2000 -->
      <g transform="translate(444.712229 334.998438) scale(0.1 -0.1)">
       <use xlink:href="#DejaVuSans-32"/>
       <use xlink:href="#DejaVuSans-30" transform="translate(63.623047 0)"/>
       <use xlink:href="#DejaVuSans-30" transform="translate(127.246094 0)"/>
       <use xlink:href="#DejaVuSans-30" transform="translate(190.869141 0)"/>
      </g>
     </g>
    </g>
    <g id="xtick_9">
     <g id="line2d_22">
      <g>
       <use xlink:href="#m2d388c24e5" x="499.374459" y="320.4" style="stroke: #000000; stroke-width: 0.8"/>
      </g>
     </g>
     <g id="text_22">
      <!-- 4000 -->
      <g transform="translate(486.649459 334.998438) scale(0.1 -0.1)">
       <use xlink:href="#DejaVuSans-34"/>
       <use xlink:href="#DejaVuSans-30" transform="translate(63.623047 0)"/>
       <use xlink:href="#DejaVuSans-30" transform="translate(127.246094 0)"/>
       <use xlink:href="#DejaVuSans-30" transform="translate(190.869141 0)"/>
      </g>
     </g>
    </g>
    <g id="xtick_10">
     <g id="line2d_23">
      <g>
       <use xlink:href="#m2d388c24e5" x="541.311688" y="320.4" style="stroke: #000000; stroke-width: 0.8"/>
      </g>
     </g>
     <g id="text_23">
      <!-- 6000 -->
      <g transform="translate(528.586688 334.998438) scale(0.1 -0.1)">
       <use xlink:href="#DejaVuSans-36"/>
       <use xlink:href="#DejaVuSans-30" transform="translate(63.623047 0)"/>
       <use xlink:href="#DejaVuSans-30" transform="translate(127.246094 0)"/>
       <use xlink:href="#DejaVuSans-30" transform="translate(190.869141 0)"/>
      </g>
     </g>
    </g>
    <g id="xtick_11">
     <g id="line2d_24">
      <g>
       <use xlink:href="#m2d388c24e5" x="583.248918" y="320.4" style="stroke: #000000; stroke-width: 0.8"/>
      </g>
     </g>
     <g id="text_24">
      <!-- 8000 -->
      <g transform="translate(570.523918 334.998438) scale(0.1 -0.1)">
       <use xlink:href="#DejaVuSans-38"/>
       <use xlink:href="#DejaVuSans-30" transform="translate(63.623047 0)"/>
       <use xlink:href="#DejaVuSans-30" transform="translate(127.246094 0)"/>
       <use xlink:href="#DejaVuSans-30" transform="translate(190.869141 0)"/>
      </g>
     </g>
    </g>
    <g id="xtick_12">
     <g id="line2d_25">
      <g>
       <use xlink:href="#m2d388c24e5" x="625.186147" y="320.4" style="stroke: #000000; stroke-width: 0.8"/>
      </g>
     </g>
     <g id="text_25">
      <!-- 10000 -->
      <g transform="translate(609.279897 334.998438) scale(0.1 -0.1)">
       <use xlink:href="#DejaVuSans-31"/>
       <use xlink:href="#DejaVuSans-30" transform="translate(63.623047 0)"/>
       <use xlink:href="#DejaVuSans-30" transform="translate(127.246094 0)"/>
       <use xlink:href="#DejaVuSans-30" transform="translate(190.869141 0)"/>
       <use xlink:href="#DejaVuSans-30" transform="translate(254.492188 0)"/>
      </g>
     </g>
    </g>
    <g id="text_26">
     <!-- time -->
     <g transform="translate(507.626506 350.19625) scale(0.12 -0.12)">
      <use xlink:href="#DejaVuSans-74"/>
      <use xlink:href="#DejaVuSans-69" transform="translate(39.208984 0)"/>
      <use xlink:href="#DejaVuSans-6d" transform="translate(66.992188 0)"/>
      <use xlink:href="#DejaVuSans-65" transform="translate(164.404297 0)"/>
     </g>
    </g>
   </g>
   <g id="matplotlib.axis_4">
    <g id="ytick_9">
     <g id="line2d_26">
      <g>
       <use xlink:href="#mae0bbb7fc7" x="394.363636" y="314.474171" style="stroke: #000000; stroke-width: 0.8"/>
      </g>
     </g>
     <g id="text_27">
      <!-- $\mathdefault{10^{1}}$ -->
      <g transform="translate(369.763636 318.27339) scale(0.1 -0.1)">
       <use xlink:href="#DejaVuSans-31" transform="translate(0 0.684375)"/>
       <use xlink:href="#DejaVuSans-30" transform="translate(63.623047 0.684375)"/>
       <use xlink:href="#DejaVuSans-31" transform="translate(128.203125 38.965625) scale(0.7)"/>
      </g>
     </g>
    </g>
    <g id="ytick_10">
     <g id="line2d_27">
      <defs>
       <path id="m1a9d30c2e5" d="M 0 0 
L -2 0 
" style="stroke: #000000; stroke-width: 0.6"/>
      </defs>
      <g>
       <use xlink:href="#m1a9d30c2e5" x="394.363636" y="191.311534" style="stroke: #000000; stroke-width: 0.6"/>
      </g>
     </g>
     <g id="text_28">
      <!-- $\mathdefault{2\times10^{1}}$ -->
      <g transform="translate(352.763636 195.110753) scale(0.1 -0.1)">
       <defs>
        <path id="DejaVuSans-d7" d="M 4488 3438 
L 3059 2003 
L 4488 575 
L 4116 197 
L 2681 1631 
L 1247 197 
L 878 575 
L 2303 2003 
L 878 3438 
L 1247 3816 
L 2681 2381 
L 4116 3816 
L 4488 3438 
z
" transform="scale(0.015625)"/>
       </defs>
       <use xlink:href="#DejaVuSans-32" transform="translate(0 0.684375)"/>
       <use xlink:href="#DejaVuSans-d7" transform="translate(83.105469 0.684375)"/>
       <use xlink:href="#DejaVuSans-31" transform="translate(186.376953 0.684375)"/>
       <use xlink:href="#DejaVuSans-30" transform="translate(250 0.684375)"/>
       <use xlink:href="#DejaVuSans-31" transform="translate(314.580078 38.965625) scale(0.7)"/>
      </g>
     </g>
    </g>
    <g id="ytick_11">
     <g id="line2d_28">
      <g>
       <use xlink:href="#m1a9d30c2e5" x="394.363636" y="119.26601" style="stroke: #000000; stroke-width: 0.6"/>
      </g>
     </g>
     <g id="text_29">
      <!-- $\mathdefault{3\times10^{1}}$ -->
      <g transform="translate(352.763636 123.065229) scale(0.1 -0.1)">
       <use xlink:href="#DejaVuSans-33" transform="translate(0 0.684375)"/>
       <use xlink:href="#DejaVuSans-d7" transform="translate(83.105469 0.684375)"/>
       <use xlink:href="#DejaVuSans-31" transform="translate(186.376953 0.684375)"/>
       <use xlink:href="#DejaVuSans-30" transform="translate(250 0.684375)"/>
       <use xlink:href="#DejaVuSans-31" transform="translate(314.580078 38.965625) scale(0.7)"/>
      </g>
     </g>
    </g>
    <g id="ytick_12">
     <g id="line2d_29">
      <g>
       <use xlink:href="#m1a9d30c2e5" x="394.363636" y="68.148897" style="stroke: #000000; stroke-width: 0.6"/>
      </g>
     </g>
     <g id="text_30">
      <!-- $\mathdefault{4\times10^{1}}$ -->
      <g transform="translate(352.763636 71.948116) scale(0.1 -0.1)">
       <use xlink:href="#DejaVuSans-34" transform="translate(0 0.684375)"/>
       <use xlink:href="#DejaVuSans-d7" transform="translate(83.105469 0.684375)"/>
       <use xlink:href="#DejaVuSans-31" transform="translate(186.376953 0.684375)"/>
       <use xlink:href="#DejaVuSans-30" transform="translate(250 0.684375)"/>
       <use xlink:href="#DejaVuSans-31" transform="translate(314.580078 38.965625) scale(0.7)"/>
      </g>
     </g>
    </g>
    <g id="text_31">
     <!-- aPTT -->
     <g transform="translate(346.268011 196.319062) rotate(-90) scale(0.12 -0.12)">
      <use xlink:href="#DejaVuSans-61"/>
      <use xlink:href="#DejaVuSans-50" transform="translate(61.279297 0)"/>
      <use xlink:href="#DejaVuSans-54" transform="translate(121.582031 0)"/>
      <use xlink:href="#DejaVuSans-54" transform="translate(180.916016 0)"/>
     </g>
    </g>
   </g>
   <g id="LineCollection_3">
    <path d="M 415.5 124.861465 
L 415.5 80.614336 
" clip-path="url(#p63e8a9bd94)" style="fill: none; stroke: #000000; stroke-width: 1.5"/>
    <path d="M 419.274351 101.36415 
L 419.274351 56.625779 
" clip-path="url(#p63e8a9bd94)" style="fill: none; stroke: #000000; stroke-width: 1.5"/>
    <path d="M 423.048701 93.558847 
L 423.048701 64.935361 
" clip-path="url(#p63e8a9bd94)" style="fill: none; stroke: #000000; stroke-width: 1.5"/>
    <path d="M 426.823052 109.864876 
L 426.823052 72.693087 
" clip-path="url(#p63e8a9bd94)" style="fill: none; stroke: #000000; stroke-width: 1.5"/>
    <path d="M 430.597403 108.744884 
L 430.597403 75.726602 
" clip-path="url(#p63e8a9bd94)" style="fill: none; stroke: #000000; stroke-width: 1.5"/>
    <path d="M 434.371753 107.520992 
L 434.371753 74.801874 
" clip-path="url(#p63e8a9bd94)" style="fill: none; stroke: #000000; stroke-width: 1.5"/>
    <path d="M 438.146104 114.936269 
L 438.146104 85.101963 
" clip-path="url(#p63e8a9bd94)" style="fill: none; stroke: #000000; stroke-width: 1.5"/>
    <path d="M 441.920455 133.439138 
L 441.920455 83.061247 
" clip-path="url(#p63e8a9bd94)" style="fill: none; stroke: #000000; stroke-width: 1.5"/>
    <path d="M 445.694805 111.388151 
L 445.694805 79.995966 
" clip-path="url(#p63e8a9bd94)" style="fill: none; stroke: #000000; stroke-width: 1.5"/>
    <path d="M 596.668831 106.746519 
L 596.668831 78.153663 
" clip-path="url(#p63e8a9bd94)" style="fill: none; stroke: #000000; stroke-width: 1.5"/>
    <path d="M 600.443182 85.444373 
L 600.443182 47.497102 
" clip-path="url(#p63e8a9bd94)" style="fill: none; stroke: #000000; stroke-width: 1.5"/>
    <path d="M 604.217532 85.493343 
L 604.217532 56.293034 
" clip-path="url(#p63e8a9bd94)" style="fill: none; stroke: #000000; stroke-width: 1.5"/>
    <path d="M 607.991883 102.223058 
L 607.991883 68.415627 
" clip-path="url(#p63e8a9bd94)" style="fill: none; stroke: #000000; stroke-width: 1.5"/>
    <path d="M 611.766234 102.223058 
L 611.766234 78.388791 
" clip-path="url(#p63e8a9bd94)" style="fill: none; stroke: #000000; stroke-width: 1.5"/>
    <path d="M 615.540584 105.920454 
L 615.540584 79.427066 
" clip-path="url(#p63e8a9bd94)" style="fill: none; stroke: #000000; stroke-width: 1.5"/>
    <path d="M 619.314935 100.083524 
L 619.314935 88.955191 
" clip-path="url(#p63e8a9bd94)" style="fill: none; stroke: #000000; stroke-width: 1.5"/>
    <path d="M 623.089286 101.310606 
L 623.089286 77.496955 
" clip-path="url(#p63e8a9bd94)" style="fill: none; stroke: #000000; stroke-width: 1.5"/>
    <path d="M 626.863636 107.188662 
L 626.863636 64.848131 
" clip-path="url(#p63e8a9bd94)" style="fill: none; stroke: #000000; stroke-width: 1.5"/>
   </g>
   <g id="line2d_30">
    <path d="M 415.5 101.36415 
L 415.506574 101.275347 
L 415.712933 88.920265 
L 416.074418 77.260335 
L 416.492125 70.602546 
L 416.922356 67.045014 
L 417.371373 65.095923 
L 417.818798 64.142493 
L 418.198838 63.802429 
L 418.676254 63.762532 
L 419.172592 64.016131 
L 419.799422 64.598347 
L 420.747466 65.779907 
L 422.995957 69.054045 
L 426.701118 74.360735 
L 429.121428 77.506664 
L 432.160202 81.058443 
L 435.198977 84.175865 
L 438.237751 86.883716 
L 441.276526 89.215293 
L 444.3153 91.207948 
L 445.696683 92.089311 
L 445.704639 91.909035 
L 446.21113 73.960804 
L 446.59239 68.220394 
L 447.032161 64.706951 
L 447.411288 63.060264 
L 447.876362 62.016335 
L 448.243594 61.663178 
L 448.610826 61.58009 
L 449.161673 61.789022 
L 449.896136 62.444943 
L 450.814216 63.581718 
L 453.055601 66.843976 
L 456.877725 72.392717 
L 459.698278 76.131607 
L 462.416145 79.402103 
L 465.134012 82.343088 
L 467.85188 84.963035 
L 470.569747 87.277878 
L 473.287614 89.308406 
L 475.89156 91.07835 
L 475.897422 90.978276 
L 476.579153 70.42358 
L 477.014905 65.733483 
L 477.422986 63.402867 
L 477.870261 62.059771 
L 478.3409 61.437009 
L 478.733304 61.299487 
L 479.125707 61.388706 
L 479.714313 61.799736 
L 480.49912 62.654851 
L 481.97989 64.692084 
L 488.250617 73.743187 
L 491.055848 77.33202 
L 493.893341 80.608663 
L 496.730833 83.531524 
L 499.568325 86.113574 
L 502.405818 88.37522 
L 505.24331 90.34149 
L 506.084416 90.870293 
L 506.08571 91.222982 
L 506.194362 85.897757 
L 506.552272 74.496144 
L 506.922491 68.511755 
L 507.299357 65.137033 
L 507.733622 62.994868 
L 508.123524 61.977645 
L 508.594599 61.426492 
L 508.989866 61.327575 
L 509.385132 61.445871 
L 509.978033 61.888691 
L 510.966199 63.025515 
L 512.651394 65.419446 
L 517.759012 72.836905 
L 520.265345 76.133141 
L 523.032395 79.452218 
L 525.799444 82.432467 
L 528.566494 85.082545 
L 531.333544 87.419018 
L 534.100594 89.463604 
L 536.279221 90.883077 
L 536.280514 91.241598 
L 536.389054 85.918698 
L 536.724122 75.01914 
L 537.068164 69.120702 
L 537.519709 64.976151 
L 537.894749 63.121813 
L 538.321846 61.976492 
L 538.748943 61.457548 
L 539.231231 61.336648 
L 539.713519 61.527082 
L 540.436951 62.160451 
L 541.401528 63.349859 
L 543.571825 66.506655 
L 547.599642 72.354124 
L 550.495104 76.181443 
L 552.813487 78.981632 
L 555.422423 81.847798 
L 558.031359 84.41811 
L 560.640294 86.705157 
L 563.24923 88.726128 
L 566.47598 91.041852 
L 566.483309 90.889181 
L 567.038989 72.460059 
L 567.482044 66.688073 
L 567.957677 63.601509 
L 568.412661 62.133329 
L 568.751872 61.581649 
L 569.091083 61.330816 
L 569.430294 61.291251 
L 569.769505 61.403051 
L 570.525634 62.005506 
L 571.449678 63.1106 
L 573.396362 65.91049 
L 577.743467 72.242039 
L 580.4696 75.863268 
L 583.556026 79.571458 
L 586.097225 82.308464 
L 588.638424 84.76673 
L 591.179623 86.958626 
L 593.720823 88.900413 
L 596.668831 90.86133 
L 596.670131 91.133487 
L 596.774034 86.041881 
L 597.124348 74.720312 
L 597.521716 68.303897 
L 597.916369 64.895291 
L 598.334237 62.913275 
L 598.724249 61.924654 
L 599.11426 61.447769 
L 599.587054 61.307387 
L 600.059847 61.475413 
L 600.769038 62.074823 
L 601.714624 63.222597 
L 603.605798 65.950869 
L 607.814077 72.087695 
L 610.668468 75.885637 
L 613.52286 79.328079 
L 616.224943 82.254665 
L 618.927027 84.865767 
L 621.62911 87.176335 
L 624.331194 89.206195 
L 627.033277 90.978088 
L 629.735361 92.516111 
L 632.437444 93.844547 
L 636.040222 95.330384 
L 639.643 96.537684 
L 643.245778 97.513317 
L 647.74925 98.468831 
L 648.649945 98.630249 
L 648.649945 98.630249 
" clip-path="url(#p63e8a9bd94)" style="fill: none; stroke: #0000ff; stroke-width: 1.5; stroke-linecap: square"/>
   </g>
   <g id="line2d_31">
    <path d="M 415.5 101.36415 
L 419.274351 77.590622 
L 423.048701 78.671356 
L 426.823052 90.30871 
L 430.597403 91.469897 
L 434.371753 90.409382 
L 438.146104 99.393686 
L 441.920455 106.470737 
L 445.694805 94.999693 
L 596.668831 91.875573 
L 600.443182 65.459638 
L 604.217532 70.294027 
L 607.991883 84.516506 
L 611.766234 89.906592 
L 615.540584 92.180439 
L 619.314935 94.432252 
L 623.089286 89.005138 
L 626.863636 84.760212 
" clip-path="url(#p63e8a9bd94)" style="fill: none; stroke: #000000; stroke-width: 1.5; stroke-linecap: square"/>
    <g clip-path="url(#p63e8a9bd94)">
     <use xlink:href="#m3ebfe6a1d5" x="415.5" y="101.36415" style="stroke: #000000; stroke-linejoin: miter"/>
     <use xlink:href="#m3ebfe6a1d5" x="419.274351" y="77.590622" style="stroke: #000000; stroke-linejoin: miter"/>
     <use xlink:href="#m3ebfe6a1d5" x="423.048701" y="78.671356" style="stroke: #000000; stroke-linejoin: miter"/>
     <use xlink:href="#m3ebfe6a1d5" x="426.823052" y="90.30871" style="stroke: #000000; stroke-linejoin: miter"/>
     <use xlink:href="#m3ebfe6a1d5" x="430.597403" y="91.469897" style="stroke: #000000; stroke-linejoin: miter"/>
     <use xlink:href="#m3ebfe6a1d5" x="434.371753" y="90.409382" style="stroke: #000000; stroke-linejoin: miter"/>
     <use xlink:href="#m3ebfe6a1d5" x="438.146104" y="99.393686" style="stroke: #000000; stroke-linejoin: miter"/>
     <use xlink:href="#m3ebfe6a1d5" x="441.920455" y="106.470737" style="stroke: #000000; stroke-linejoin: miter"/>
     <use xlink:href="#m3ebfe6a1d5" x="445.694805" y="94.999693" style="stroke: #000000; stroke-linejoin: miter"/>
     <use xlink:href="#m3ebfe6a1d5" x="596.668831" y="91.875573" style="stroke: #000000; stroke-linejoin: miter"/>
     <use xlink:href="#m3ebfe6a1d5" x="600.443182" y="65.459638" style="stroke: #000000; stroke-linejoin: miter"/>
     <use xlink:href="#m3ebfe6a1d5" x="604.217532" y="70.294027" style="stroke: #000000; stroke-linejoin: miter"/>
     <use xlink:href="#m3ebfe6a1d5" x="607.991883" y="84.516506" style="stroke: #000000; stroke-linejoin: miter"/>
     <use xlink:href="#m3ebfe6a1d5" x="611.766234" y="89.906592" style="stroke: #000000; stroke-linejoin: miter"/>
     <use xlink:href="#m3ebfe6a1d5" x="615.540584" y="92.180439" style="stroke: #000000; stroke-linejoin: miter"/>
     <use xlink:href="#m3ebfe6a1d5" x="619.314935" y="94.432252" style="stroke: #000000; stroke-linejoin: miter"/>
     <use xlink:href="#m3ebfe6a1d5" x="623.089286" y="89.005138" style="stroke: #000000; stroke-linejoin: miter"/>
     <use xlink:href="#m3ebfe6a1d5" x="626.863636" y="84.760212" style="stroke: #000000; stroke-linejoin: miter"/>
    </g>
   </g>
   <g id="patch_9">
    <path d="M 394.363636 320.4 
L 394.363636 43.2 
" style="fill: none; stroke: #000000; stroke-width: 0.8; stroke-linejoin: miter; stroke-linecap: square"/>
   </g>
   <g id="patch_10">
    <path d="M 648 320.4 
L 648 43.2 
" style="fill: none; stroke: #000000; stroke-width: 0.8; stroke-linejoin: miter; stroke-linecap: square"/>
   </g>
   <g id="patch_11">
    <path d="M 394.363636 320.4 
L 648 320.4 
" style="fill: none; stroke: #000000; stroke-width: 0.8; stroke-linejoin: miter; stroke-linecap: square"/>
   </g>
   <g id="patch_12">
    <path d="M 394.363636 43.2 
L 648 43.2 
" style="fill: none; stroke: #000000; stroke-width: 0.8; stroke-linejoin: miter; stroke-linecap: square"/>
   </g>
   <g id="text_32">
    <!-- Frost2013a fm_API25_aPTT -->
    <g transform="translate(426.736506 37.2) scale(0.14 -0.14)">
     <use xlink:href="#DejaVuSans-46"/>
     <use xlink:href="#DejaVuSans-72" transform="translate(50.269531 0)"/>
     <use xlink:href="#DejaVuSans-6f" transform="translate(89.132812 0)"/>
     <use xlink:href="#DejaVuSans-73" transform="translate(150.314453 0)"/>
     <use xlink:href="#DejaVuSans-74" transform="translate(202.414062 0)"/>
     <use xlink:href="#DejaVuSans-32" transform="translate(241.623047 0)"/>
     <use xlink:href="#DejaVuSans-30" transform="translate(305.246094 0)"/>
     <use xlink:href="#DejaVuSans-31" transform="translate(368.869141 0)"/>
     <use xlink:href="#DejaVuSans-33" transform="translate(432.492188 0)"/>
     <use xlink:href="#DejaVuSans-61" transform="translate(496.115234 0)"/>
     <use xlink:href="#DejaVuSans-20" transform="translate(557.394531 0)"/>
     <use xlink:href="#DejaVuSans-66" transform="translate(589.181641 0)"/>
     <use xlink:href="#DejaVuSans-6d" transform="translate(624.386719 0)"/>
     <use xlink:href="#DejaVuSans-5f" transform="translate(721.798828 0)"/>
     <use xlink:href="#DejaVuSans-41" transform="translate(771.798828 0)"/>
     <use xlink:href="#DejaVuSans-50" transform="translate(840.207031 0)"/>
     <use xlink:href="#DejaVuSans-49" transform="translate(900.509766 0)"/>
     <use xlink:href="#DejaVuSans-32" transform="translate(930.001953 0)"/>
     <use xlink:href="#DejaVuSans-35" transform="translate(993.625 0)"/>
     <use xlink:href="#DejaVuSans-5f" transform="translate(1057.248047 0)"/>
     <use xlink:href="#DejaVuSans-61" transform="translate(1107.248047 0)"/>
     <use xlink:href="#DejaVuSans-50" transform="translate(1168.527344 0)"/>
     <use xlink:href="#DejaVuSans-54" transform="translate(1228.830078 0)"/>
     <use xlink:href="#DejaVuSans-54" transform="translate(1288.164062 0)"/>
    </g>
   </g>
   <g id="legend_2">
    <g id="patch_13">
     <path d="M 401.363636 315.4 
L 537.413636 315.4 
Q 539.413636 315.4 539.413636 313.4 
L 539.413636 284.765625 
Q 539.413636 282.765625 537.413636 282.765625 
L 401.363636 282.765625 
Q 399.363636 282.765625 399.363636 284.765625 
L 399.363636 313.4 
Q 399.363636 315.4 401.363636 315.4 
z
" style="fill: #ffffff; opacity: 0.8; stroke: #cccccc; stroke-linejoin: miter"/>
    </g>
    <g id="line2d_32">
     <path d="M 403.363636 290.864062 
L 413.363636 290.864062 
L 423.363636 290.864062 
" style="fill: none; stroke: #0000ff; stroke-width: 1.5; stroke-linecap: square"/>
    </g>
    <g id="text_33">
     <!-- observable -->
     <g transform="translate(431.363636 294.364062) scale(0.1 -0.1)">
      <use xlink:href="#DejaVuSans-6f"/>
      <use xlink:href="#DejaVuSans-62" transform="translate(61.181641 0)"/>
      <use xlink:href="#DejaVuSans-73" transform="translate(124.658203 0)"/>
      <use xlink:href="#DejaVuSans-65" transform="translate(176.757812 0)"/>
      <use xlink:href="#DejaVuSans-72" transform="translate(238.28125 0)"/>
      <use xlink:href="#DejaVuSans-76" transform="translate(279.394531 0)"/>
      <use xlink:href="#DejaVuSans-61" transform="translate(338.574219 0)"/>
      <use xlink:href="#DejaVuSans-62" transform="translate(399.853516 0)"/>
      <use xlink:href="#DejaVuSans-6c" transform="translate(463.330078 0)"/>
      <use xlink:href="#DejaVuSans-65" transform="translate(491.113281 0)"/>
     </g>
    </g>
    <g id="LineCollection_4">
     <path d="M 413.363636 310.542188 
L 413.363636 300.542188 
" style="fill: none; stroke: #000000; stroke-width: 1.5"/>
    </g>
    <g id="line2d_33">
     <path d="M 403.363636 305.542188 
L 423.363636 305.542188 
" style="fill: none; stroke: #000000; stroke-width: 1.5; stroke-linecap: square"/>
    </g>
    <g id="line2d_34">
     <g>
      <use xlink:href="#m3ebfe6a1d5" x="413.363636" y="305.542188" style="stroke: #000000; stroke-linejoin: miter"/>
     </g>
    </g>
    <g id="text_34">
     <!-- reference_data ± SD -->
     <g transform="translate(431.363636 309.042188) scale(0.1 -0.1)">
      <use xlink:href="#DejaVuSans-72"/>
      <use xlink:href="#DejaVuSans-65" transform="translate(38.863281 0)"/>
      <use xlink:href="#DejaVuSans-66" transform="translate(100.386719 0)"/>
      <use xlink:href="#DejaVuSans-65" transform="translate(135.591797 0)"/>
      <use xlink:href="#DejaVuSans-72" transform="translate(197.115234 0)"/>
      <use xlink:href="#DejaVuSans-65" transform="translate(235.978516 0)"/>
      <use xlink:href="#DejaVuSans-6e" transform="translate(297.501953 0)"/>
      <use xlink:href="#DejaVuSans-63" transform="translate(360.880859 0)"/>
      <use xlink:href="#DejaVuSans-65" transform="translate(415.861328 0)"/>
      <use xlink:href="#DejaVuSans-5f" transform="translate(477.384766 0)"/>
      <use xlink:href="#DejaVuSans-64" transform="translate(527.384766 0)"/>
      <use xlink:href="#DejaVuSans-61" transform="translate(590.861328 0)"/>
      <use xlink:href="#DejaVuSans-74" transform="translate(652.140625 0)"/>
      <use xlink:href="#DejaVuSans-61" transform="translate(691.349609 0)"/>
      <use xlink:href="#DejaVuSans-20" transform="translate(752.628906 0)"/>
      <use xlink:href="#DejaVuSans-b1" transform="translate(784.416016 0)"/>
      <use xlink:href="#DejaVuSans-20" transform="translate(868.205078 0)"/>
      <use xlink:href="#DejaVuSans-53" transform="translate(899.992188 0)"/>
      <use xlink:href="#DejaVuSans-44" transform="translate(963.46875 0)"/>
     </g>
    </g>
   </g>
  </g>
 </g>
 <defs>
  <clipPath id="p8055f6e660">
   <rect x="90" y="43.2" width="253.636364" height="277.2"/>
  </clipPath>
  <clipPath id="p63e8a9bd94">
   <rect x="394.363636" y="43.2" width="253.636364" height="277.2"/>
  </clipPath>
 </defs>
</svg>
