<?xml version="1.0" encoding="utf-8" standalone="no"?>
<!DOCTYPE svg PUBLIC "-//W3C//DTD SVG 1.1//EN"
  "http://www.w3.org/Graphics/SVG/1.1/DTD/svg11.dtd">
<svg xmlns:xlink="http://www.w3.org/1999/xlink" width="720pt" height="360pt" viewBox="0 0 720 360" xmlns="http://www.w3.org/2000/svg" version="1.1">
 <metadata>
  <rdf:RDF xmlns:dc="http://purl.org/dc/elements/1.1/" xmlns:cc="http://creativecommons.org/ns#" xmlns:rdf="http://www.w3.org/1999/02/22-rdf-syntax-ns#">
   <cc:Work>
    <dc:type rdf:resource="http://purl.org/dc/dcmitype/StillImage"/>
    <dc:date>2026-04-17T10:54:56.011545</dc:date>
    <dc:format>image/svg+xml</dc:format>
    <dc:creator>
     <cc:Agent>
      <dc:title>Matplotlib v3.10.8, https://matplotlib.org/</dc:title>
     </cc:Agent>
    </dc:creator>
   </cc:Work>
  </rdf:RDF>
 </metadata>
 <defs>
  <style type="text/css">*{stroke-linejoin: round; stroke-linecap: butt}</style>
 </defs>
 <g id="figure_1">
  <g id="patch_1">
   <path d="M 0 360 
L 720 360 
L 720 0 
L 0 0 
z
" style="fill: #ffffff"/>
  </g>
  <g id="axes_1">
   <g id="patch_2">
    <path d="M 90 320.4 
L 343.636364 320.4 
L 343.636364 43.2 
L 90 43.2 
z
" style="fill: #ffffff"/>
   </g>
   <g id="matplotlib.axis_1">
    <g id="xtick_1">
     <g id="line2d_1">
      <defs>
       <path id="m35b51f7e76" d="M 0 0 
L 0 3.5 
" style="stroke: #000000; stroke-width: 0.8"/>
      </defs>
      <g>
       <use xlink:href="#m35b51f7e76" x="111.136364" y="320.4" style="stroke: #000000; stroke-width: 0.8"/>
      </g>
     </g>
     <g id="text_1">
      <!-- 0 -->
      <g transform="translate(107.955114 334.998438) scale(0.1 -0.1)">
       <defs>
        <path id="DejaVuSans-30" d="M 2034 4250 
Q 1547 4250 1301 3770 
Q 1056 3291 1056 2328 
Q 1056 1369 1301 889 
Q 1547 409 2034 409 
Q 2525 409 2770 889 
Q 3016 1369 3016 2328 
Q 3016 3291 2770 3770 
Q 2525 4250 2034 4250 
z
M 2034 4750 
Q 2819 4750 3233 4129 
Q 3647 3509 3647 2328 
Q 3647 1150 3233 529 
Q 2819 -91 2034 -91 
Q 1250 -91 836 529 
Q 422 1150 422 2328 
Q 422 3509 836 4129 
Q 1250 4750 2034 4750 
z
" transform="scale(0.015625)"/>
       </defs>
       <use xlink:href="#DejaVuSans-30"/>
      </g>
     </g>
    </g>
    <g id="xtick_2">
     <g id="line2d_2">
      <g>
       <use xlink:href="#m35b51f7e76" x="153.073593" y="320.4" style="stroke: #000000; stroke-width: 0.8"/>
      </g>
     </g>
     <g id="text_2">
      <!-- 2000 -->
      <g transform="translate(140.348593 334.998438) scale(0.1 -0.1)">
       <defs>
        <path id="DejaVuSans-32" d="M 1228 531 
L 3431 531 
L 3431 0 
L 469 0 
L 469 531 
Q 828 903 1448 1529 
Q 2069 2156 2228 2338 
Q 2531 2678 2651 2914 
Q 2772 3150 2772 3378 
Q 2772 3750 2511 3984 
Q 2250 4219 1831 4219 
Q 1534 4219 1204 4116 
Q 875 4013 500 3803 
L 500 4441 
Q 881 4594 1212 4672 
Q 1544 4750 1819 4750 
Q 2544 4750 2975 4387 
Q 3406 4025 3406 3419 
Q 3406 3131 3298 2873 
Q 3191 2616 2906 2266 
Q 2828 2175 2409 1742 
Q 1991 1309 1228 531 
z
" transform="scale(0.015625)"/>
       </defs>
       <use xlink:href="#DejaVuSans-32"/>
       <use xlink:href="#DejaVuSans-30" transform="translate(63.623047 0)"/>
       <use xlink:href="#DejaVuSans-30" transform="translate(127.246094 0)"/>
       <use xlink:href="#DejaVuSans-30" transform="translate(190.869141 0)"/>
      </g>
     </g>
    </g>
    <g id="xtick_3">
     <g id="line2d_3">
      <g>
       <use xlink:href="#m35b51f7e76" x="195.010823" y="320.4" style="stroke: #000000; stroke-width: 0.8"/>
      </g>
     </g>
     <g id="text_3">
      <!-- 4000 -->
      <g transform="translate(182.285823 334.998438) scale(0.1 -0.1)">
       <defs>
        <path id="DejaVuSans-34" d="M 2419 4116 
L 825 1625 
L 2419 1625 
L 2419 4116 
z
M 2253 4666 
L 3047 4666 
L 3047 1625 
L 3713 1625 
L 3713 1100 
L 3047 1100 
L 3047 0 
L 2419 0 
L 2419 1100 
L 313 1100 
L 313 1709 
L 2253 4666 
z
" transform="scale(0.015625)"/>
       </defs>
       <use xlink:href="#DejaVuSans-34"/>
       <use xlink:href="#DejaVuSans-30" transform="translate(63.623047 0)"/>
       <use xlink:href="#DejaVuSans-30" transform="translate(127.246094 0)"/>
       <use xlink:href="#DejaVuSans-30" transform="translate(190.869141 0)"/>
      </g>
     </g>
    </g>
    <g id="xtick_4">
     <g id="line2d_4">
      <g>
       <use xlink:href="#m35b51f7e76" x="236.948052" y="320.4" style="stroke: #000000; stroke-width: 0.8"/>
      </g>
     </g>
     <g id="text_4">
      <!-- 6000 -->
      <g transform="translate(224.223052 334.998438) scale(0.1 -0.1)">
       <defs>
        <path id="DejaVuSans-36" d="M 2113 2584 
Q 1688 2584 1439 2293 
Q 1191 2003 1191 1497 
Q 1191 994 1439 701 
Q 1688 409 2113 409 
Q 2538 409 2786 701 
Q 3034 994 3034 1497 
Q 3034 2003 2786 2293 
Q 2538 2584 2113 2584 
z
M 3366 4563 
L 3366 3988 
Q 3128 4100 2886 4159 
Q 2644 4219 2406 4219 
Q 1781 4219 1451 3797 
Q 1122 3375 1075 2522 
Q 1259 2794 1537 2939 
Q 1816 3084 2150 3084 
Q 2853 3084 3261 2657 
Q 3669 2231 3669 1497 
Q 3669 778 3244 343 
Q 2819 -91 2113 -91 
Q 1303 -91 875 529 
Q 447 1150 447 2328 
Q 447 3434 972 4092 
Q 1497 4750 2381 4750 
Q 2619 4750 2861 4703 
Q 3103 4656 3366 4563 
z
" transform="scale(0.015625)"/>
       </defs>
       <use xlink:href="#DejaVuSans-36"/>
       <use xlink:href="#DejaVuSans-30" transform="translate(63.623047 0)"/>
       <use xlink:href="#DejaVuSans-30" transform="translate(127.246094 0)"/>
       <use xlink:href="#DejaVuSans-30" transform="translate(190.869141 0)"/>
      </g>
     </g>
    </g>
    <g id="xtick_5">
     <g id="line2d_5">
      <g>
       <use xlink:href="#m35b51f7e76" x="278.885281" y="320.4" style="stroke: #000000; stroke-width: 0.8"/>
      </g>
     </g>
     <g id="text_5">
      <!-- 8000 -->
      <g transform="translate(266.160281 334.998438) scale(0.1 -0.1)">
       <defs>
        <path id="DejaVuSans-38" d="M 2034 2216 
Q 1584 2216 1326 1975 
Q 1069 1734 1069 1313 
Q 1069 891 1326 650 
Q 1584 409 2034 409 
Q 2484 409 2743 651 
Q 3003 894 3003 1313 
Q 3003 1734 2745 1975 
Q 2488 2216 2034 2216 
z
M 1403 2484 
Q 997 2584 770 2862 
Q 544 3141 544 3541 
Q 544 4100 942 4425 
Q 1341 4750 2034 4750 
Q 2731 4750 3128 4425 
Q 3525 4100 3525 3541 
Q 3525 3141 3298 2862 
Q 3072 2584 2669 2484 
Q 3125 2378 3379 2068 
Q 3634 1759 3634 1313 
Q 3634 634 3220 271 
Q 2806 -91 2034 -91 
Q 1263 -91 848 271 
Q 434 634 434 1313 
Q 434 1759 690 2068 
Q 947 2378 1403 2484 
z
M 1172 3481 
Q 1172 3119 1398 2916 
Q 1625 2713 2034 2713 
Q 2441 2713 2670 2916 
Q 2900 3119 2900 3481 
Q 2900 3844 2670 4047 
Q 2441 4250 2034 4250 
Q 1625 4250 1398 4047 
Q 1172 3844 1172 3481 
z
" transform="scale(0.015625)"/>
       </defs>
       <use xlink:href="#DejaVuSans-38"/>
       <use xlink:href="#DejaVuSans-30" transform="translate(63.623047 0)"/>
       <use xlink:href="#DejaVuSans-30" transform="translate(127.246094 0)"/>
       <use xlink:href="#DejaVuSans-30" transform="translate(190.869141 0)"/>
      </g>
     </g>
    </g>
    <g id="xtick_6">
     <g id="line2d_6">
      <g>
       <use xlink:href="#m35b51f7e76" x="320.822511" y="320.4" style="stroke: #000000; stroke-width: 0.8"/>
      </g>
     </g>
     <g id="text_6">
      <!-- 10000 -->
      <g transform="translate(304.916261 334.998438) scale(0.1 -0.1)">
       <defs>
        <path id="DejaVuSans-31" d="M 794 531 
L 1825 531 
L 1825 4091 
L 703 3866 
L 703 4441 
L 1819 4666 
L 2450 4666 
L 2450 531 
L 3481 531 
L 3481 0 
L 794 0 
L 794 531 
z
" transform="scale(0.015625)"/>
       </defs>
       <use xlink:href="#DejaVuSans-31"/>
       <use xlink:href="#DejaVuSans-30" transform="translate(63.623047 0)"/>
       <use xlink:href="#DejaVuSans-30" transform="translate(127.246094 0)"/>
       <use xlink:href="#DejaVuSans-30" transform="translate(190.869141 0)"/>
       <use xlink:href="#DejaVuSans-30" transform="translate(254.492188 0)"/>
      </g>
     </g>
    </g>
    <g id="text_7">
     <!-- time -->
     <g transform="translate(203.262869 350.19625) scale(0.12 -0.12)">
      <defs>
       <path id="DejaVuSans-74" d="M 1172 4494 
L 1172 3500 
L 2356 3500 
L 2356 3053 
L 1172 3053 
L 1172 1153 
Q 1172 725 1289 603 
Q 1406 481 1766 481 
L 2356 481 
L 2356 0 
L 1766 0 
Q 1100 0 847 248 
Q 594 497 594 1153 
L 594 3053 
L 172 3053 
L 172 3500 
L 594 3500 
L 594 4494 
L 1172 4494 
z
" transform="scale(0.015625)"/>
       <path id="DejaVuSans-69" d="M 603 3500 
L 1178 3500 
L 1178 0 
L 603 0 
L 603 3500 
z
M 603 4863 
L 1178 4863 
L 1178 4134 
L 603 4134 
L 603 4863 
z
" transform="scale(0.015625)"/>
       <path id="DejaVuSans-6d" d="M 3328 2828 
Q 3544 3216 3844 3400 
Q 4144 3584 4550 3584 
Q 5097 3584 5394 3201 
Q 5691 2819 5691 2113 
L 5691 0 
L 5113 0 
L 5113 2094 
Q 5113 2597 4934 2840 
Q 4756 3084 4391 3084 
Q 3944 3084 3684 2787 
Q 3425 2491 3425 1978 
L 3425 0 
L 2847 0 
L 2847 2094 
Q 2847 2600 2669 2842 
Q 2491 3084 2119 3084 
Q 1678 3084 1418 2786 
Q 1159 2488 1159 1978 
L 1159 0 
L 581 0 
L 581 3500 
L 1159 3500 
L 1159 2956 
Q 1356 3278 1631 3431 
Q 1906 3584 2284 3584 
Q 2666 3584 2933 3390 
Q 3200 3197 3328 2828 
z
" transform="scale(0.015625)"/>
       <path id="DejaVuSans-65" d="M 3597 1894 
L 3597 1613 
L 953 1613 
Q 991 1019 1311 708 
Q 1631 397 2203 397 
Q 2534 397 2845 478 
Q 3156 559 3463 722 
L 3463 178 
Q 3153 47 2828 -22 
Q 2503 -91 2169 -91 
Q 1331 -91 842 396 
Q 353 884 353 1716 
Q 353 2575 817 3079 
Q 1281 3584 2069 3584 
Q 2775 3584 3186 3129 
Q 3597 2675 3597 1894 
z
M 3022 2063 
Q 3016 2534 2758 2815 
Q 2500 3097 2075 3097 
Q 1594 3097 1305 2825 
Q 1016 2553 972 2059 
L 3022 2063 
z
" transform="scale(0.015625)"/>
      </defs>
      <use xlink:href="#DejaVuSans-74"/>
      <use xlink:href="#DejaVuSans-69" transform="translate(39.208984 0)"/>
      <use xlink:href="#DejaVuSans-6d" transform="translate(66.992188 0)"/>
      <use xlink:href="#DejaVuSans-65" transform="translate(164.404297 0)"/>
     </g>
    </g>
   </g>
   <g id="matplotlib.axis_2">
    <g id="ytick_1">
     <g id="line2d_7">
      <defs>
       <path id="m6597c40032" d="M 0 0 
L -3.5 0 
" style="stroke: #000000; stroke-width: 0.8"/>
      </defs>
      <g>
       <use xlink:href="#m6597c40032" x="90" y="294.101538" style="stroke: #000000; stroke-width: 0.8"/>
      </g>
     </g>
     <g id="text_8">
      <!-- 28 -->
      <g transform="translate(70.275 297.900757) scale(0.1 -0.1)">
       <use xlink:href="#DejaVuSans-32"/>
       <use xlink:href="#DejaVuSans-38" transform="translate(63.623047 0)"/>
      </g>
     </g>
    </g>
    <g id="ytick_2">
     <g id="line2d_8">
      <g>
       <use xlink:href="#m6597c40032" x="90" y="242.409231" style="stroke: #000000; stroke-width: 0.8"/>
      </g>
     </g>
     <g id="text_9">
      <!-- 30 -->
      <g transform="translate(70.275 246.20845) scale(0.1 -0.1)">
       <defs>
        <path id="DejaVuSans-33" d="M 2597 2516 
Q 3050 2419 3304 2112 
Q 3559 1806 3559 1356 
Q 3559 666 3084 287 
Q 2609 -91 1734 -91 
Q 1441 -91 1130 -33 
Q 819 25 488 141 
L 488 750 
Q 750 597 1062 519 
Q 1375 441 1716 441 
Q 2309 441 2620 675 
Q 2931 909 2931 1356 
Q 2931 1769 2642 2001 
Q 2353 2234 1838 2234 
L 1294 2234 
L 1294 2753 
L 1863 2753 
Q 2328 2753 2575 2939 
Q 2822 3125 2822 3475 
Q 2822 3834 2567 4026 
Q 2313 4219 1838 4219 
Q 1578 4219 1281 4162 
Q 984 4106 628 3988 
L 628 4550 
Q 988 4650 1302 4700 
Q 1616 4750 1894 4750 
Q 2613 4750 3031 4423 
Q 3450 4097 3450 3541 
Q 3450 3153 3228 2886 
Q 3006 2619 2597 2516 
z
" transform="scale(0.015625)"/>
       </defs>
       <use xlink:href="#DejaVuSans-33"/>
       <use xlink:href="#DejaVuSans-30" transform="translate(63.623047 0)"/>
      </g>
     </g>
    </g>
    <g id="ytick_3">
     <g id="line2d_9">
      <g>
       <use xlink:href="#m6597c40032" x="90" y="190.716923" style="stroke: #000000; stroke-width: 0.8"/>
      </g>
     </g>
     <g id="text_10">
      <!-- 32 -->
      <g transform="translate(70.275 194.516142) scale(0.1 -0.1)">
       <use xlink:href="#DejaVuSans-33"/>
       <use xlink:href="#DejaVuSans-32" transform="translate(63.623047 0)"/>
      </g>
     </g>
    </g>
    <g id="ytick_4">
     <g id="line2d_10">
      <g>
       <use xlink:href="#m6597c40032" x="90" y="139.024615" style="stroke: #000000; stroke-width: 0.8"/>
      </g>
     </g>
     <g id="text_11">
      <!-- 34 -->
      <g transform="translate(70.275 142.823834) scale(0.1 -0.1)">
       <use xlink:href="#DejaVuSans-33"/>
       <use xlink:href="#DejaVuSans-34" transform="translate(63.623047 0)"/>
      </g>
     </g>
    </g>
    <g id="ytick_5">
     <g id="line2d_11">
      <g>
       <use xlink:href="#m6597c40032" x="90" y="87.332308" style="stroke: #000000; stroke-width: 0.8"/>
      </g>
     </g>
     <g id="text_12">
      <!-- 36 -->
      <g transform="translate(70.275 91.131526) scale(0.1 -0.1)">
       <use xlink:href="#DejaVuSans-33"/>
       <use xlink:href="#DejaVuSans-36" transform="translate(63.623047 0)"/>
      </g>
     </g>
    </g>
    <g id="text_13">
     <!-- aPTT -->
     <g transform="translate(63.779375 196.319062) rotate(-90) scale(0.12 -0.12)">
      <defs>
       <path id="DejaVuSans-61" d="M 2194 1759 
Q 1497 1759 1228 1600 
Q 959 1441 959 1056 
Q 959 750 1161 570 
Q 1363 391 1709 391 
Q 2188 391 2477 730 
Q 2766 1069 2766 1631 
L 2766 1759 
L 2194 1759 
z
M 3341 1997 
L 3341 0 
L 2766 0 
L 2766 531 
Q 2569 213 2275 61 
Q 1981 -91 1556 -91 
Q 1019 -91 701 211 
Q 384 513 384 1019 
Q 384 1609 779 1909 
Q 1175 2209 1959 2209 
L 2766 2209 
L 2766 2266 
Q 2766 2663 2505 2880 
Q 2244 3097 1772 3097 
Q 1472 3097 1187 3025 
Q 903 2953 641 2809 
L 641 3341 
Q 956 3463 1253 3523 
Q 1550 3584 1831 3584 
Q 2591 3584 2966 3190 
Q 3341 2797 3341 1997 
z
" transform="scale(0.015625)"/>
       <path id="DejaVuSans-50" d="M 1259 4147 
L 1259 2394 
L 2053 2394 
Q 2494 2394 2734 2622 
Q 2975 2850 2975 3272 
Q 2975 3691 2734 3919 
Q 2494 4147 2053 4147 
L 1259 4147 
z
M 628 4666 
L 2053 4666 
Q 2838 4666 3239 4311 
Q 3641 3956 3641 3272 
Q 3641 2581 3239 2228 
Q 2838 1875 2053 1875 
L 1259 1875 
L 1259 0 
L 628 0 
L 628 4666 
z
" transform="scale(0.015625)"/>
       <path id="DejaVuSans-54" d="M -19 4666 
L 3928 4666 
L 3928 4134 
L 2272 4134 
L 2272 0 
L 1638 0 
L 1638 4134 
L -19 4134 
L -19 4666 
z
" transform="scale(0.015625)"/>
      </defs>
      <use xlink:href="#DejaVuSans-61"/>
      <use xlink:href="#DejaVuSans-50" transform="translate(61.279297 0)"/>
      <use xlink:href="#DejaVuSans-54" transform="translate(121.582031 0)"/>
      <use xlink:href="#DejaVuSans-54" transform="translate(180.916016 0)"/>
     </g>
    </g>
   </g>
   <g id="LineCollection_1">
    <path d="M 111.136364 271.873846 
L 111.136364 160.218462 
" clip-path="url(#pe3dc7cace5)" style="fill: none; stroke: #000000; stroke-width: 1.5"/>
    <path d="M 114.910714 182.963077 
L 114.910714 59.935385 
" clip-path="url(#pe3dc7cace5)" style="fill: none; stroke: #000000; stroke-width: 1.5"/>
    <path d="M 118.685065 200.021538 
L 118.685065 76.993846 
" clip-path="url(#pe3dc7cace5)" style="fill: none; stroke: #000000; stroke-width: 1.5"/>
    <path d="M 122.459416 217.08 
L 122.459416 60.452308 
" clip-path="url(#pe3dc7cace5)" style="fill: none; stroke: #000000; stroke-width: 1.5"/>
    <path d="M 126.233766 217.338462 
L 126.233766 127.910769 
" clip-path="url(#pe3dc7cace5)" style="fill: none; stroke: #000000; stroke-width: 1.5"/>
    <path d="M 130.008117 273.166154 
L 130.008117 83.455385 
" clip-path="url(#pe3dc7cace5)" style="fill: none; stroke: #000000; stroke-width: 1.5"/>
    <path d="M 133.782468 290.483077 
L 133.782468 55.8 
" clip-path="url(#pe3dc7cace5)" style="fill: none; stroke: #000000; stroke-width: 1.5"/>
    <path d="M 137.556818 273.683077 
L 137.556818 117.572308 
" clip-path="url(#pe3dc7cace5)" style="fill: none; stroke: #000000; stroke-width: 1.5"/>
    <path d="M 141.331169 307.8 
L 141.331169 162.544615 
" clip-path="url(#pe3dc7cace5)" style="fill: none; stroke: #000000; stroke-width: 1.5"/>
    <path d="M 292.305195 225.350769 
L 292.305195 113.178462 
" clip-path="url(#pe3dc7cace5)" style="fill: none; stroke: #000000; stroke-width: 1.5"/>
    <path d="M 296.079545 192.009231 
L 296.079545 57.609231 
" clip-path="url(#pe3dc7cace5)" style="fill: none; stroke: #000000; stroke-width: 1.5"/>
    <path d="M 299.853896 214.495385 
L 299.853896 57.867692 
" clip-path="url(#pe3dc7cace5)" style="fill: none; stroke: #000000; stroke-width: 1.5"/>
    <path d="M 303.628247 264.895385 
L 303.628247 119.64 
" clip-path="url(#pe3dc7cace5)" style="fill: none; stroke: #000000; stroke-width: 1.5"/>
    <path d="M 307.402597 248.353846 
L 307.402597 103.098462 
" clip-path="url(#pe3dc7cace5)" style="fill: none; stroke: #000000; stroke-width: 1.5"/>
    <path d="M 311.176948 254.556923 
L 311.176948 86.556923 
" clip-path="url(#pe3dc7cace5)" style="fill: none; stroke: #000000; stroke-width: 1.5"/>
    <path d="M 314.951299 237.756923 
L 314.951299 126.101538 
" clip-path="url(#pe3dc7cace5)" style="fill: none; stroke: #000000; stroke-width: 1.5"/>
    <path d="M 318.725649 282.987692 
L 318.725649 126.36 
" clip-path="url(#pe3dc7cace5)" style="fill: none; stroke: #000000; stroke-width: 1.5"/>
    <path d="M 322.5 283.246154 
L 322.5 160.218462 
" clip-path="url(#pe3dc7cace5)" style="fill: none; stroke: #000000; stroke-width: 1.5"/>
   </g>
   <g id="line2d_12">
    <path d="M 111.136364 216.046154 
L 111.14144 215.967038 
L 111.208155 207.115501 
L 111.606819 167.124151 
L 112.060522 141.811721 
L 112.544827 127.089373 
L 112.997683 119.716444 
L 113.187665 117.808532 
L 113.733035 114.898607 
L 113.957363 114.501012 
L 114.181692 114.435487 
L 114.40602 114.636525 
L 114.854678 115.638089 
L 115.527663 118.114709 
L 116.649306 123.473545 
L 120.54221 142.983461 
L 122.758231 152.583883 
L 124.721248 160.078048 
L 126.431262 165.90332 
L 128.141276 171.136766 
L 129.85129 175.835513 
L 131.561303 180.051729 
L 133.271317 183.833256 
L 134.981331 187.223568 
L 136.691345 190.26207 
L 138.401359 192.984441 
L 140.111372 195.422869 
L 141.331169 196.997737 
L 141.332417 197.607572 
L 141.440106 185.135207 
L 141.856573 149.525417 
L 142.265786 129.624516 
L 142.751277 116.405121 
L 143.235322 109.616186 
L 143.598355 107.063145 
L 143.935144 105.977722 
L 144.150922 105.758448 
L 144.3667 105.827301 
L 144.798256 106.620261 
L 145.44559 108.897448 
L 146.308703 113.008718 
L 151.919811 142.057928 
L 153.968533 150.922975 
L 156.017255 158.784257 
L 158.196113 166.151335 
L 159.86279 171.164576 
L 161.529467 175.691133 
L 163.196144 179.775107 
L 164.862821 183.457247 
L 166.529498 186.77505 
L 169.029513 191.143036 
L 171.527444 194.873114 
L 171.528716 194.86653 
L 171.546422 193.292395 
L 171.970075 152.792992 
L 172.43648 128.703102 
L 172.814316 117.538139 
L 173.274792 109.755374 
L 173.620149 106.595895 
L 173.806411 105.555591 
L 174.125971 104.581282 
L 174.32691 104.383115 
L 174.52785 104.436721 
L 174.929728 105.127919 
L 175.532546 107.161816 
L 176.336303 110.90663 
L 178.171622 120.875541 
L 180.690356 134.205771 
L 182.460852 142.650573 
L 184.401725 150.989924 
L 186.62514 159.449646 
L 188.92842 167.106448 
L 191.2317 173.766203 
L 193.534981 179.549045 
L 195.838261 184.563325 
L 198.141541 188.905866 
L 200.444821 192.662627 
L 201.720779 194.513961 
L 201.722009 194.880956 
L 201.831631 182.363946 
L 202.256183 146.820706 
L 202.670771 127.243978 
L 203.136024 114.853413 
L 203.582636 108.493387 
L 203.917556 105.947315 
L 204.252477 104.688225 
L 204.587397 104.347665 
L 204.754857 104.43789 
L 204.922317 104.667333 
L 205.409441 105.944464 
L 206.029015 108.442093 
L 207.196371 114.398902 
L 210.950189 134.507147 
L 212.849837 143.505809 
L 214.988326 152.542866 
L 217.126815 160.51439 
L 218.548382 165.277444 
L 220.322272 170.675032 
L 222.096161 175.519335 
L 223.870051 179.863056 
L 225.643941 183.754739 
L 227.417831 187.238876 
L 229.191721 190.356092 
L 230.965611 193.143357 
L 231.915584 194.509887 
L 231.916896 195.635551 
L 232.024203 183.314211 
L 232.449703 147.443169 
L 232.887921 126.918042 
L 233.387599 114.203833 
L 233.762358 109.020041 
L 234.137117 106.170567 
L 234.386957 105.183143 
L 234.575902 104.803304 
L 234.764847 104.680012 
L 234.953792 104.769797 
L 235.331682 105.45084 
L 235.898517 107.347512 
L 236.843242 111.778269 
L 239.524201 126.369872 
L 241.692468 137.441575 
L 243.866827 147.335724 
L 246.054779 156.115447 
L 248.032091 163.127985 
L 250.009404 169.353798 
L 251.986716 174.873518 
L 253.964028 179.761517 
L 255.94134 184.085702 
L 257.918652 187.907684 
L 259.895965 191.283093 
L 262.11039 194.587027 
L 262.111619 195.628417 
L 262.207751 184.597907 
L 262.620396 148.954247 
L 263.006897 129.683202 
L 263.494249 115.880441 
L 263.963275 108.959301 
L 264.432301 105.702422 
L 264.744985 104.841811 
L 264.991985 104.684488 
L 265.238986 104.880785 
L 265.732988 106.046563 
L 266.47399 109.004203 
L 267.708994 115.36133 
L 271.208591 134.105778 
L 273.113079 143.171293 
L 275.108574 151.680246 
L 276.959124 158.730108 
L 278.809675 165.043209 
L 280.660225 170.688641 
L 282.227491 174.995924 
L 284.128322 179.692221 
L 286.029153 183.866601 
L 287.929984 187.573995 
L 289.830815 190.864195 
L 292.305195 194.58617 
L 292.306426 195.115801 
L 292.415532 182.639975 
L 292.821586 148.176448 
L 293.222414 128.584227 
L 293.728221 114.83597 
L 294.22298 108.079141 
L 294.552819 105.800154 
L 294.882658 104.706594 
L 295.047578 104.495813 
L 295.295424 104.508568 
L 295.543269 104.840841 
L 296.03896 106.203121 
L 296.782497 109.332965 
L 298.269571 117.175803 
L 301.167132 132.742763 
L 303.104869 142.090465 
L 305.044179 150.483911 
L 306.790502 157.271594 
L 308.307158 162.621713 
L 310.176254 168.578054 
L 312.045351 173.894939 
L 313.914448 178.635999 
L 315.783545 182.859593 
L 317.652642 186.619078 
L 319.521738 189.962956 
L 321.390835 192.935171 
L 323.259932 195.575428 
L 325.129029 197.919499 
L 326.998126 199.99956 
L 328.867222 201.844491 
L 331.670868 204.226898 
L 334.474513 206.214052 
L 337.278158 207.87029 
L 340.081803 209.249821 
L 342.885448 210.398222 
L 343.819997 210.736461 
L 343.819997 210.736461 
" clip-path="url(#pe3dc7cace5)" style="fill: none; stroke: #0000ff; stroke-width: 1.5; stroke-linecap: square"/>
   </g>
   <g id="line2d_13">
    <path d="M 111.136364 216.046154 
L 114.910714 121.449231 
L 118.685065 138.507692 
L 122.459416 138.766154 
L 126.233766 172.624615 
L 130.008117 178.310769 
L 133.782468 173.141538 
L 137.556818 195.627692 
L 141.331169 235.172308 
L 292.305195 169.264615 
L 296.079545 124.809231 
L 299.853896 136.181538 
L 303.628247 192.267692 
L 307.402597 175.726154 
L 311.176948 170.556923 
L 314.951299 181.929231 
L 318.725649 204.673846 
L 322.5 221.732308 
" clip-path="url(#pe3dc7cace5)" style="fill: none; stroke: #000000; stroke-width: 1.5; stroke-linecap: square"/>
    <defs>
     <path id="ma727eaceb1" d="M -5 5 
L 5 5 
L 5 -5 
L -5 -5 
z
" style="stroke: #000000; stroke-linejoin: miter"/>
    </defs>
    <g clip-path="url(#pe3dc7cace5)">
     <use xlink:href="#ma727eaceb1" x="111.136364" y="216.046154" style="stroke: #000000; stroke-linejoin: miter"/>
     <use xlink:href="#ma727eaceb1" x="114.910714" y="121.449231" style="stroke: #000000; stroke-linejoin: miter"/>
     <use xlink:href="#ma727eaceb1" x="118.685065" y="138.507692" style="stroke: #000000; stroke-linejoin: miter"/>
     <use xlink:href="#ma727eaceb1" x="122.459416" y="138.766154" style="stroke: #000000; stroke-linejoin: miter"/>
     <use xlink:href="#ma727eaceb1" x="126.233766" y="172.624615" style="stroke: #000000; stroke-linejoin: miter"/>
     <use xlink:href="#ma727eaceb1" x="130.008117" y="178.310769" style="stroke: #000000; stroke-linejoin: miter"/>
     <use xlink:href="#ma727eaceb1" x="133.782468" y="173.141538" style="stroke: #000000; stroke-linejoin: miter"/>
     <use xlink:href="#ma727eaceb1" x="137.556818" y="195.627692" style="stroke: #000000; stroke-linejoin: miter"/>
     <use xlink:href="#ma727eaceb1" x="141.331169" y="235.172308" style="stroke: #000000; stroke-linejoin: miter"/>
     <use xlink:href="#ma727eaceb1" x="292.305195" y="169.264615" style="stroke: #000000; stroke-linejoin: miter"/>
     <use xlink:href="#ma727eaceb1" x="296.079545" y="124.809231" style="stroke: #000000; stroke-linejoin: miter"/>
     <use xlink:href="#ma727eaceb1" x="299.853896" y="136.181538" style="stroke: #000000; stroke-linejoin: miter"/>
     <use xlink:href="#ma727eaceb1" x="303.628247" y="192.267692" style="stroke: #000000; stroke-linejoin: miter"/>
     <use xlink:href="#ma727eaceb1" x="307.402597" y="175.726154" style="stroke: #000000; stroke-linejoin: miter"/>
     <use xlink:href="#ma727eaceb1" x="311.176948" y="170.556923" style="stroke: #000000; stroke-linejoin: miter"/>
     <use xlink:href="#ma727eaceb1" x="314.951299" y="181.929231" style="stroke: #000000; stroke-linejoin: miter"/>
     <use xlink:href="#ma727eaceb1" x="318.725649" y="204.673846" style="stroke: #000000; stroke-linejoin: miter"/>
     <use xlink:href="#ma727eaceb1" x="322.5" y="221.732308" style="stroke: #000000; stroke-linejoin: miter"/>
    </g>
   </g>
   <g id="patch_3">
    <path d="M 90 320.4 
L 90 43.2 
" style="fill: none; stroke: #000000; stroke-width: 0.8; stroke-linejoin: miter; stroke-linecap: square"/>
   </g>
   <g id="patch_4">
    <path d="M 343.636364 320.4 
L 343.636364 43.2 
" style="fill: none; stroke: #000000; stroke-width: 0.8; stroke-linejoin: miter; stroke-linecap: square"/>
   </g>
   <g id="patch_5">
    <path d="M 90 320.4 
L 343.636364 320.4 
" style="fill: none; stroke: #000000; stroke-width: 0.8; stroke-linejoin: miter; stroke-linecap: square"/>
   </g>
   <g id="patch_6">
    <path d="M 90 43.2 
L 343.636364 43.2 
" style="fill: none; stroke: #000000; stroke-width: 0.8; stroke-linejoin: miter; stroke-linecap: square"/>
   </g>
   <g id="text_14">
    <!-- Frost2013a fm_API10_aPTT -->
    <g transform="translate(122.372869 37.2) scale(0.14 -0.14)">
     <defs>
      <path id="DejaVuSans-46" d="M 628 4666 
L 3309 4666 
L 3309 4134 
L 1259 4134 
L 1259 2759 
L 3109 2759 
L 3109 2228 
L 1259 2228 
L 1259 0 
L 628 0 
L 628 4666 
z
" transform="scale(0.015625)"/>
      <path id="DejaVuSans-72" d="M 2631 2963 
Q 2534 3019 2420 3045 
Q 2306 3072 2169 3072 
Q 1681 3072 1420 2755 
Q 1159 2438 1159 1844 
L 1159 0 
L 581 0 
L 581 3500 
L 1159 3500 
L 1159 2956 
Q 1341 3275 1631 3429 
Q 1922 3584 2338 3584 
Q 2397 3584 2469 3576 
Q 2541 3569 2628 3553 
L 2631 2963 
z
" transform="scale(0.015625)"/>
      <path id="DejaVuSans-6f" d="M 1959 3097 
Q 1497 3097 1228 2736 
Q 959 2375 959 1747 
Q 959 1119 1226 758 
Q 1494 397 1959 397 
Q 2419 397 2687 759 
Q 2956 1122 2956 1747 
Q 2956 2369 2687 2733 
Q 2419 3097 1959 3097 
z
M 1959 3584 
Q 2709 3584 3137 3096 
Q 3566 2609 3566 1747 
Q 3566 888 3137 398 
Q 2709 -91 1959 -91 
Q 1206 -91 779 398 
Q 353 888 353 1747 
Q 353 2609 779 3096 
Q 1206 3584 1959 3584 
z
" transform="scale(0.015625)"/>
      <path id="DejaVuSans-73" d="M 2834 3397 
L 2834 2853 
Q 2591 2978 2328 3040 
Q 2066 3103 1784 3103 
Q 1356 3103 1142 2972 
Q 928 2841 928 2578 
Q 928 2378 1081 2264 
Q 1234 2150 1697 2047 
L 1894 2003 
Q 2506 1872 2764 1633 
Q 3022 1394 3022 966 
Q 3022 478 2636 193 
Q 2250 -91 1575 -91 
Q 1294 -91 989 -36 
Q 684 19 347 128 
L 347 722 
Q 666 556 975 473 
Q 1284 391 1588 391 
Q 1994 391 2212 530 
Q 2431 669 2431 922 
Q 2431 1156 2273 1281 
Q 2116 1406 1581 1522 
L 1381 1569 
Q 847 1681 609 1914 
Q 372 2147 372 2553 
Q 372 3047 722 3315 
Q 1072 3584 1716 3584 
Q 2034 3584 2315 3537 
Q 2597 3491 2834 3397 
z
" transform="scale(0.015625)"/>
      <path id="DejaVuSans-20" transform="scale(0.015625)"/>
      <path id="DejaVuSans-66" d="M 2375 4863 
L 2375 4384 
L 1825 4384 
Q 1516 4384 1395 4259 
Q 1275 4134 1275 3809 
L 1275 3500 
L 2222 3500 
L 2222 3053 
L 1275 3053 
L 1275 0 
L 697 0 
L 697 3053 
L 147 3053 
L 147 3500 
L 697 3500 
L 697 3744 
Q 697 4328 969 4595 
Q 1241 4863 1831 4863 
L 2375 4863 
z
" transform="scale(0.015625)"/>
      <path id="DejaVuSans-5f" d="M 3263 -1063 
L 3263 -1509 
L -63 -1509 
L -63 -1063 
L 3263 -1063 
z
" transform="scale(0.015625)"/>
      <path id="DejaVuSans-41" d="M 2188 4044 
L 1331 1722 
L 3047 1722 
L 2188 4044 
z
M 1831 4666 
L 2547 4666 
L 4325 0 
L 3669 0 
L 3244 1197 
L 1141 1197 
L 716 0 
L 50 0 
L 1831 4666 
z
" transform="scale(0.015625)"/>
      <path id="DejaVuSans-49" d="M 628 4666 
L 1259 4666 
L 1259 0 
L 628 0 
L 628 4666 
z
" transform="scale(0.015625)"/>
     </defs>
     <use xlink:href="#DejaVuSans-46"/>
     <use xlink:href="#DejaVuSans-72" transform="translate(50.269531 0)"/>
     <use xlink:href="#DejaVuSans-6f" transform="translate(89.132812 0)"/>
     <use xlink:href="#DejaVuSans-73" transform="translate(150.314453 0)"/>
     <use xlink:href="#DejaVuSans-74" transform="translate(202.414062 0)"/>
     <use xlink:href="#DejaVuSans-32" transform="translate(241.623047 0)"/>
     <use xlink:href="#DejaVuSans-30" transform="translate(305.246094 0)"/>
     <use xlink:href="#DejaVuSans-31" transform="translate(368.869141 0)"/>
     <use xlink:href="#DejaVuSans-33" transform="translate(432.492188 0)"/>
     <use xlink:href="#DejaVuSans-61" transform="translate(496.115234 0)"/>
     <use xlink:href="#DejaVuSans-20" transform="translate(557.394531 0)"/>
     <use xlink:href="#DejaVuSans-66" transform="translate(589.181641 0)"/>
     <use xlink:href="#DejaVuSans-6d" transform="translate(624.386719 0)"/>
     <use xlink:href="#DejaVuSans-5f" transform="translate(721.798828 0)"/>
     <use xlink:href="#DejaVuSans-41" transform="translate(771.798828 0)"/>
     <use xlink:href="#DejaVuSans-50" transform="translate(840.207031 0)"/>
     <use xlink:href="#DejaVuSans-49" transform="translate(900.509766 0)"/>
     <use xlink:href="#DejaVuSans-31" transform="translate(930.001953 0)"/>
     <use xlink:href="#DejaVuSans-30" transform="translate(993.625 0)"/>
     <use xlink:href="#DejaVuSans-5f" transform="translate(1057.248047 0)"/>
     <use xlink:href="#DejaVuSans-61" transform="translate(1107.248047 0)"/>
     <use xlink:href="#DejaVuSans-50" transform="translate(1168.527344 0)"/>
     <use xlink:href="#DejaVuSans-54" transform="translate(1228.830078 0)"/>
     <use xlink:href="#DejaVuSans-54" transform="translate(1288.164062 0)"/>
    </g>
   </g>
   <g id="legend_1">
    <g id="patch_7">
     <path d="M 200.586364 80.834375 
L 336.636364 80.834375 
Q 338.636364 80.834375 338.636364 78.834375 
L 338.636364 50.2 
Q 338.636364 48.2 336.636364 48.2 
L 200.586364 48.2 
Q 198.586364 48.2 198.586364 50.2 
L 198.586364 78.834375 
Q 198.586364 80.834375 200.586364 80.834375 
z
" style="fill: #ffffff; opacity: 0.8; stroke: #cccccc; stroke-linejoin: miter"/>
    </g>
    <g id="line2d_14">
     <path d="M 202.586364 56.298437 
L 212.586364 56.298437 
L 222.586364 56.298437 
" style="fill: none; stroke: #0000ff; stroke-width: 1.5; stroke-linecap: square"/>
    </g>
    <g id="text_15">
     <!-- observable -->
     <g transform="translate(230.586364 59.798437) scale(0.1 -0.1)">
      <defs>
       <path id="DejaVuSans-62" d="M 3116 1747 
Q 3116 2381 2855 2742 
Q 2594 3103 2138 3103 
Q 1681 3103 1420 2742 
Q 1159 2381 1159 1747 
Q 1159 1113 1420 752 
Q 1681 391 2138 391 
Q 2594 391 2855 752 
Q 3116 1113 3116 1747 
z
M 1159 2969 
Q 1341 3281 1617 3432 
Q 1894 3584 2278 3584 
Q 2916 3584 3314 3078 
Q 3713 2572 3713 1747 
Q 3713 922 3314 415 
Q 2916 -91 2278 -91 
Q 1894 -91 1617 61 
Q 1341 213 1159 525 
L 1159 0 
L 581 0 
L 581 4863 
L 1159 4863 
L 1159 2969 
z
" transform="scale(0.015625)"/>
       <path id="DejaVuSans-76" d="M 191 3500 
L 800 3500 
L 1894 563 
L 2988 3500 
L 3597 3500 
L 2284 0 
L 1503 0 
L 191 3500 
z
" transform="scale(0.015625)"/>
       <path id="DejaVuSans-6c" d="M 603 4863 
L 1178 4863 
L 1178 0 
L 603 0 
L 603 4863 
z
" transform="scale(0.015625)"/>
      </defs>
      <use xlink:href="#DejaVuSans-6f"/>
      <use xlink:href="#DejaVuSans-62" transform="translate(61.181641 0)"/>
      <use xlink:href="#DejaVuSans-73" transform="translate(124.658203 0)"/>
      <use xlink:href="#DejaVuSans-65" transform="translate(176.757812 0)"/>
      <use xlink:href="#DejaVuSans-72" transform="translate(238.28125 0)"/>
      <use xlink:href="#DejaVuSans-76" transform="translate(279.394531 0)"/>
      <use xlink:href="#DejaVuSans-61" transform="translate(338.574219 0)"/>
      <use xlink:href="#DejaVuSans-62" transform="translate(399.853516 0)"/>
      <use xlink:href="#DejaVuSans-6c" transform="translate(463.330078 0)"/>
      <use xlink:href="#DejaVuSans-65" transform="translate(491.113281 0)"/>
     </g>
    </g>
    <g id="LineCollection_2">
     <path d="M 212.586364 75.976562 
L 212.586364 65.976562 
" style="fill: none; stroke: #000000; stroke-width: 1.5"/>
    </g>
    <g id="line2d_15">
     <path d="M 202.586364 70.976562 
L 222.586364 70.976562 
" style="fill: none; stroke: #000000; stroke-width: 1.5; stroke-linecap: square"/>
    </g>
    <g id="line2d_16">
     <g>
      <use xlink:href="#ma727eaceb1" x="212.586364" y="70.976562" style="stroke: #000000; stroke-linejoin: miter"/>
     </g>
    </g>
    <g id="text_16">
     <!-- reference_data ± SD -->
     <g transform="translate(230.586364 74.476562) scale(0.1 -0.1)">
      <defs>
       <path id="DejaVuSans-6e" d="M 3513 2113 
L 3513 0 
L 2938 0 
L 2938 2094 
Q 2938 2591 2744 2837 
Q 2550 3084 2163 3084 
Q 1697 3084 1428 2787 
Q 1159 2491 1159 1978 
L 1159 0 
L 581 0 
L 581 3500 
L 1159 3500 
L 1159 2956 
Q 1366 3272 1645 3428 
Q 1925 3584 2291 3584 
Q 2894 3584 3203 3211 
Q 3513 2838 3513 2113 
z
" transform="scale(0.015625)"/>
       <path id="DejaVuSans-63" d="M 3122 3366 
L 3122 2828 
Q 2878 2963 2633 3030 
Q 2388 3097 2138 3097 
Q 1578 3097 1268 2742 
Q 959 2388 959 1747 
Q 959 1106 1268 751 
Q 1578 397 2138 397 
Q 2388 397 2633 464 
Q 2878 531 3122 666 
L 3122 134 
Q 2881 22 2623 -34 
Q 2366 -91 2075 -91 
Q 1284 -91 818 406 
Q 353 903 353 1747 
Q 353 2603 823 3093 
Q 1294 3584 2113 3584 
Q 2378 3584 2631 3529 
Q 2884 3475 3122 3366 
z
" transform="scale(0.015625)"/>
       <path id="DejaVuSans-64" d="M 2906 2969 
L 2906 4863 
L 3481 4863 
L 3481 0 
L 2906 0 
L 2906 525 
Q 2725 213 2448 61 
Q 2172 -91 1784 -91 
Q 1150 -91 751 415 
Q 353 922 353 1747 
Q 353 2572 751 3078 
Q 1150 3584 1784 3584 
Q 2172 3584 2448 3432 
Q 2725 3281 2906 2969 
z
M 947 1747 
Q 947 1113 1208 752 
Q 1469 391 1925 391 
Q 2381 391 2643 752 
Q 2906 1113 2906 1747 
Q 2906 2381 2643 2742 
Q 2381 3103 1925 3103 
Q 1469 3103 1208 2742 
Q 947 2381 947 1747 
z
" transform="scale(0.015625)"/>
       <path id="DejaVuSans-b1" d="M 2944 4013 
L 2944 2803 
L 4684 2803 
L 4684 2272 
L 2944 2272 
L 2944 1063 
L 2419 1063 
L 2419 2272 
L 678 2272 
L 678 2803 
L 2419 2803 
L 2419 4013 
L 2944 4013 
z
M 678 531 
L 4684 531 
L 4684 0 
L 678 0 
L 678 531 
z
" transform="scale(0.015625)"/>
       <path id="DejaVuSans-53" d="M 3425 4513 
L 3425 3897 
Q 3066 4069 2747 4153 
Q 2428 4238 2131 4238 
Q 1616 4238 1336 4038 
Q 1056 3838 1056 3469 
Q 1056 3159 1242 3001 
Q 1428 2844 1947 2747 
L 2328 2669 
Q 3034 2534 3370 2195 
Q 3706 1856 3706 1288 
Q 3706 609 3251 259 
Q 2797 -91 1919 -91 
Q 1588 -91 1214 -16 
Q 841 59 441 206 
L 441 856 
Q 825 641 1194 531 
Q 1563 422 1919 422 
Q 2459 422 2753 634 
Q 3047 847 3047 1241 
Q 3047 1584 2836 1778 
Q 2625 1972 2144 2069 
L 1759 2144 
Q 1053 2284 737 2584 
Q 422 2884 422 3419 
Q 422 4038 858 4394 
Q 1294 4750 2059 4750 
Q 2388 4750 2728 4690 
Q 3069 4631 3425 4513 
z
" transform="scale(0.015625)"/>
       <path id="DejaVuSans-44" d="M 1259 4147 
L 1259 519 
L 2022 519 
Q 2988 519 3436 956 
Q 3884 1394 3884 2338 
Q 3884 3275 3436 3711 
Q 2988 4147 2022 4147 
L 1259 4147 
z
M 628 4666 
L 1925 4666 
Q 3281 4666 3915 4102 
Q 4550 3538 4550 2338 
Q 4550 1131 3912 565 
Q 3275 0 1925 0 
L 628 0 
L 628 4666 
z
" transform="scale(0.015625)"/>
      </defs>
      <use xlink:href="#DejaVuSans-72"/>
      <use xlink:href="#DejaVuSans-65" transform="translate(38.863281 0)"/>
      <use xlink:href="#DejaVuSans-66" transform="translate(100.386719 0)"/>
      <use xlink:href="#DejaVuSans-65" transform="translate(135.591797 0)"/>
      <use xlink:href="#DejaVuSans-72" transform="translate(197.115234 0)"/>
      <use xlink:href="#DejaVuSans-65" transform="translate(235.978516 0)"/>
      <use xlink:href="#DejaVuSans-6e" transform="translate(297.501953 0)"/>
      <use xlink:href="#DejaVuSans-63" transform="translate(360.880859 0)"/>
      <use xlink:href="#DejaVuSans-65" transform="translate(415.861328 0)"/>
      <use xlink:href="#DejaVuSans-5f" transform="translate(477.384766 0)"/>
      <use xlink:href="#DejaVuSans-64" transform="translate(527.384766 0)"/>
      <use xlink:href="#DejaVuSans-61" transform="translate(590.861328 0)"/>
      <use xlink:href="#DejaVuSans-74" transform="translate(652.140625 0)"/>
      <use xlink:href="#DejaVuSans-61" transform="translate(691.349609 0)"/>
      <use xlink:href="#DejaVuSans-20" transform="translate(752.628906 0)"/>
      <use xlink:href="#DejaVuSans-b1" transform="translate(784.416016 0)"/>
      <use xlink:href="#DejaVuSans-20" transform="translate(868.205078 0)"/>
      <use xlink:href="#DejaVuSans-53" transform="translate(899.992188 0)"/>
      <use xlink:href="#DejaVuSans-44" transform="translate(963.46875 0)"/>
     </g>
    </g>
   </g>
  </g>
  <g id="axes_2">
   <g id="patch_8">
    <path d="M 394.363636 320.4 
L 648 320.4 
L 648 43.2 
L 394.363636 43.2 
z
" style="fill: #ffffff"/>
   </g>
   <g id="matplotlib.axis_3">
    <g id="xtick_7">
     <g id="line2d_17">
      <g>
       <use xlink:href="#m35b51f7e76" x="415.5" y="320.4" style="stroke: #000000; stroke-width: 0.8"/>
      </g>
     </g>
     <g id="text_17">
      <!-- 0 -->
      <g transform="translate(412.31875 334.998438) scale(0.1 -0.1)">
       <use xlink:href="#DejaVuSans-30"/>
      </g>
     </g>
    </g>
    <g id="xtick_8">
     <g id="line2d_18">
      <g>
       <use xlink:href="#m35b51f7e76" x="457.437229" y="320.4" style="stroke: #000000; stroke-width: 0.8"/>
      </g>
     </g>
     <g id="text_18">
      <!-- 2000 -->
      <g transform="translate(444.712229 334.998438) scale(0.1 -0.1)">
       <use xlink:href="#DejaVuSans-32"/>
       <use xlink:href="#DejaVuSans-30" transform="translate(63.623047 0)"/>
       <use xlink:href="#DejaVuSans-30" transform="translate(127.246094 0)"/>
       <use xlink:href="#DejaVuSans-30" transform="translate(190.869141 0)"/>
      </g>
     </g>
    </g>
    <g id="xtick_9">
     <g id="line2d_19">
      <g>
       <use xlink:href="#m35b51f7e76" x="499.374459" y="320.4" style="stroke: #000000; stroke-width: 0.8"/>
      </g>
     </g>
     <g id="text_19">
      <!-- 4000 -->
      <g transform="translate(486.649459 334.998438) scale(0.1 -0.1)">
       <use xlink:href="#DejaVuSans-34"/>
       <use xlink:href="#DejaVuSans-30" transform="translate(63.623047 0)"/>
       <use xlink:href="#DejaVuSans-30" transform="translate(127.246094 0)"/>
       <use xlink:href="#DejaVuSans-30" transform="translate(190.869141 0)"/>
      </g>
     </g>
    </g>
    <g id="xtick_10">
     <g id="line2d_20">
      <g>
       <use xlink:href="#m35b51f7e76" x="541.311688" y="320.4" style="stroke: #000000; stroke-width: 0.8"/>
      </g>
     </g>
     <g id="text_20">
      <!-- 6000 -->
      <g transform="translate(528.586688 334.998438) scale(0.1 -0.1)">
       <use xlink:href="#DejaVuSans-36"/>
       <use xlink:href="#DejaVuSans-30" transform="translate(63.623047 0)"/>
       <use xlink:href="#DejaVuSans-30" transform="translate(127.246094 0)"/>
       <use xlink:href="#DejaVuSans-30" transform="translate(190.869141 0)"/>
      </g>
     </g>
    </g>
    <g id="xtick_11">
     <g id="line2d_21">
      <g>
       <use xlink:href="#m35b51f7e76" x="583.248918" y="320.4" style="stroke: #000000; stroke-width: 0.8"/>
      </g>
     </g>
     <g id="text_21">
      <!-- 8000 -->
      <g transform="translate(570.523918 334.998438) scale(0.1 -0.1)">
       <use xlink:href="#DejaVuSans-38"/>
       <use xlink:href="#DejaVuSans-30" transform="translate(63.623047 0)"/>
       <use xlink:href="#DejaVuSans-30" transform="translate(127.246094 0)"/>
       <use xlink:href="#DejaVuSans-30" transform="translate(190.869141 0)"/>
      </g>
     </g>
    </g>
    <g id="xtick_12">
     <g id="line2d_22">
      <g>
       <use xlink:href="#m35b51f7e76" x="625.186147" y="320.4" style="stroke: #000000; stroke-width: 0.8"/>
      </g>
     </g>
     <g id="text_22">
      <!-- 10000 -->
      <g transform="translate(609.279897 334.998438) scale(0.1 -0.1)">
       <use xlink:href="#DejaVuSans-31"/>
       <use xlink:href="#DejaVuSans-30" transform="translate(63.623047 0)"/>
       <use xlink:href="#DejaVuSans-30" transform="translate(127.246094 0)"/>
       <use xlink:href="#DejaVuSans-30" transform="translate(190.869141 0)"/>
       <use xlink:href="#DejaVuSans-30" transform="translate(254.492188 0)"/>
      </g>
     </g>
    </g>
    <g id="text_23">
     <!-- time -->
     <g transform="translate(507.626506 350.19625) scale(0.12 -0.12)">
      <use xlink:href="#DejaVuSans-74"/>
      <use xlink:href="#DejaVuSans-69" transform="translate(39.208984 0)"/>
      <use xlink:href="#DejaVuSans-6d" transform="translate(66.992188 0)"/>
      <use xlink:href="#DejaVuSans-65" transform="translate(164.404297 0)"/>
     </g>
    </g>
   </g>
   <g id="matplotlib.axis_4">
    <g id="ytick_6">
     <g id="line2d_23">
      <g>
       <use xlink:href="#m6597c40032" x="394.363636" y="301.718572" style="stroke: #000000; stroke-width: 0.8"/>
      </g>
     </g>
     <g id="text_24">
      <!-- $\mathdefault{10^{1}}$ -->
      <g transform="translate(369.763636 305.517791) scale(0.1 -0.1)">
       <use xlink:href="#DejaVuSans-31" transform="translate(0 0.684375)"/>
       <use xlink:href="#DejaVuSans-30" transform="translate(63.623047 0.684375)"/>
       <use xlink:href="#DejaVuSans-31" transform="translate(128.203125 38.965625) scale(0.7)"/>
      </g>
     </g>
    </g>
    <g id="ytick_7">
     <g id="line2d_24">
      <defs>
       <path id="mc930446aa2" d="M 0 0 
L -2 0 
" style="stroke: #000000; stroke-width: 0.6"/>
      </defs>
      <g>
       <use xlink:href="#mc930446aa2" x="394.363636" y="166.932316" style="stroke: #000000; stroke-width: 0.6"/>
      </g>
     </g>
     <g id="text_25">
      <!-- $\mathdefault{2\times10^{1}}$ -->
      <g transform="translate(352.763636 170.731535) scale(0.1 -0.1)">
       <defs>
        <path id="DejaVuSans-d7" d="M 4488 3438 
L 3059 2003 
L 4488 575 
L 4116 197 
L 2681 1631 
L 1247 197 
L 878 575 
L 2303 2003 
L 878 3438 
L 1247 3816 
L 2681 2381 
L 4116 3816 
L 4488 3438 
z
" transform="scale(0.015625)"/>
       </defs>
       <use xlink:href="#DejaVuSans-32" transform="translate(0 0.684375)"/>
       <use xlink:href="#DejaVuSans-d7" transform="translate(83.105469 0.684375)"/>
       <use xlink:href="#DejaVuSans-31" transform="translate(186.376953 0.684375)"/>
       <use xlink:href="#DejaVuSans-30" transform="translate(250 0.684375)"/>
       <use xlink:href="#DejaVuSans-31" transform="translate(314.580078 38.965625) scale(0.7)"/>
      </g>
     </g>
    </g>
    <g id="ytick_8">
     <g id="line2d_25">
      <g>
       <use xlink:href="#mc930446aa2" x="394.363636" y="88.08741" style="stroke: #000000; stroke-width: 0.6"/>
      </g>
     </g>
     <g id="text_26">
      <!-- $\mathdefault{3\times10^{1}}$ -->
      <g transform="translate(352.763636 91.886629) scale(0.1 -0.1)">
       <use xlink:href="#DejaVuSans-33" transform="translate(0 0.684375)"/>
       <use xlink:href="#DejaVuSans-d7" transform="translate(83.105469 0.684375)"/>
       <use xlink:href="#DejaVuSans-31" transform="translate(186.376953 0.684375)"/>
       <use xlink:href="#DejaVuSans-30" transform="translate(250 0.684375)"/>
       <use xlink:href="#DejaVuSans-31" transform="translate(314.580078 38.965625) scale(0.7)"/>
      </g>
     </g>
    </g>
    <g id="text_27">
     <!-- aPTT -->
     <g transform="translate(346.268011 196.319062) rotate(-90) scale(0.12 -0.12)">
      <use xlink:href="#DejaVuSans-61"/>
      <use xlink:href="#DejaVuSans-50" transform="translate(61.279297 0)"/>
      <use xlink:href="#DejaVuSans-54" transform="translate(121.582031 0)"/>
      <use xlink:href="#DejaVuSans-54" transform="translate(180.916016 0)"/>
     </g>
    </g>
   </g>
   <g id="LineCollection_3">
    <path d="M 415.5 95.620776 
L 415.5 68.496041 
" clip-path="url(#p05cecb9afa)" style="fill: none; stroke: #000000; stroke-width: 1.5"/>
    <path d="M 419.274351 73.723015 
L 419.274351 46.991029 
" clip-path="url(#p05cecb9afa)" style="fill: none; stroke: #000000; stroke-width: 1.5"/>
    <path d="M 423.048701 77.737565 
L 423.048701 50.485286 
" clip-path="url(#p05cecb9afa)" style="fill: none; stroke: #000000; stroke-width: 1.5"/>
    <path d="M 426.823052 81.836746 
L 426.823052 47.095999 
" clip-path="url(#p05cecb9afa)" style="fill: none; stroke: #000000; stroke-width: 1.5"/>
    <path d="M 430.597403 81.899524 
L 430.597403 61.304885 
" clip-path="url(#p05cecb9afa)" style="fill: none; stroke: #000000; stroke-width: 1.5"/>
    <path d="M 434.371753 95.957963 
L 434.371753 51.82544 
" clip-path="url(#p05cecb9afa)" style="fill: none; stroke: #000000; stroke-width: 1.5"/>
    <path d="M 438.146104 100.533596 
L 438.146104 46.153309 
" clip-path="url(#p05cecb9afa)" style="fill: none; stroke: #000000; stroke-width: 1.5"/>
    <path d="M 441.920455 96.093001 
L 441.920455 59.058768 
" clip-path="url(#p05cecb9afa)" style="fill: none; stroke: #000000; stroke-width: 1.5"/>
    <path d="M 445.694805 105.219497 
L 445.694805 69.024214 
" clip-path="url(#p05cecb9afa)" style="fill: none; stroke: #000000; stroke-width: 1.5"/>
    <path d="M 596.668831 83.855769 
L 596.668831 58.111968 
" clip-path="url(#p05cecb9afa)" style="fill: none; stroke: #000000; stroke-width: 1.5"/>
    <path d="M 600.443182 75.841617 
L 600.443182 46.519368 
" clip-path="url(#p05cecb9afa)" style="fill: none; stroke: #000000; stroke-width: 1.5"/>
    <path d="M 604.217532 81.210076 
L 604.217532 46.571718 
" clip-path="url(#p05cecb9afa)" style="fill: none; stroke: #000000; stroke-width: 1.5"/>
    <path d="M 607.991883 93.810003 
L 607.991883 59.50592 
" clip-path="url(#p05cecb9afa)" style="fill: none; stroke: #000000; stroke-width: 1.5"/>
    <path d="M 611.766234 89.58398 
L 611.766234 55.957162 
" clip-path="url(#p05cecb9afa)" style="fill: none; stroke: #000000; stroke-width: 1.5"/>
    <path d="M 615.540584 91.157995 
L 615.540584 52.472009 
" clip-path="url(#p05cecb9afa)" style="fill: none; stroke: #000000; stroke-width: 1.5"/>
    <path d="M 619.314935 86.924164 
L 619.314935 60.909937 
" clip-path="url(#p05cecb9afa)" style="fill: none; stroke: #000000; stroke-width: 1.5"/>
    <path d="M 623.089286 98.539869 
L 623.089286 60.966309 
" clip-path="url(#p05cecb9afa)" style="fill: none; stroke: #000000; stroke-width: 1.5"/>
    <path d="M 626.863636 98.608279 
L 626.863636 68.496041 
" clip-path="url(#p05cecb9afa)" style="fill: none; stroke: #000000; stroke-width: 1.5"/>
   </g>
   <g id="line2d_26">
    <path d="M 415.5 81.585835 
L 415.509323 81.489894 
L 416.207163 66.653103 
L 416.682035 62.385508 
L 417.134891 60.197199 
L 417.551301 59.109801 
L 418.096671 58.482082 
L 418.545328 58.382366 
L 418.993985 58.515023 
L 419.666971 58.977259 
L 420.788614 60.091055 
L 426.013857 65.731793 
L 428.229878 67.750646 
L 430.794898 69.789376 
L 433.359919 71.542623 
L 435.92494 73.04606 
L 438.48996 74.332303 
L 441.909988 75.759558 
L 445.330016 76.912595 
L 445.694805 77.019871 
L 445.696053 77.164401 
L 445.803742 74.229624 
L 446.220209 66.086382 
L 446.629423 61.679731 
L 447.114914 58.806809 
L 447.598958 57.347728 
L 447.961991 56.801848 
L 448.29878 56.570231 
L 448.730336 56.538154 
L 449.37767 56.84473 
L 450.240783 57.612592 
L 451.967007 59.582118 
L 455.445041 63.548993 
L 457.819989 65.924984 
L 460.380892 68.171107 
L 462.559749 69.845997 
L 465.059765 71.52794 
L 467.55978 72.981861 
L 470.893134 74.612963 
L 474.226488 75.945968 
L 475.892353 76.515619 
L 475.899788 76.41741 
L 476.545341 63.968173 
L 476.951251 60.358179 
L 477.40819 58.078799 
L 477.868666 56.885027 
L 478.170048 56.480227 
L 478.690547 56.230459 
L 479.092425 56.297347 
L 479.695243 56.656731 
L 480.69994 57.624229 
L 482.8501 60.149556 
L 485.854052 63.549325 
L 488.280143 65.966949 
L 490.988776 68.32179 
L 493.292057 70.0642 
L 496.363097 72.058339 
L 499.434137 73.72488 
L 502.505177 75.112207 
L 506.087158 76.517455 
L 506.093866 76.434712 
L 506.7975 63.326617 
L 507.220509 59.879952 
L 507.685762 57.794041 
L 508.113733 56.794953 
L 508.448653 56.400824 
L 508.783573 56.238603 
L 509.285953 56.290975 
L 509.979602 56.722698 
L 511.012227 57.747878 
L 514.290057 61.602523 
L 516.678851 64.20144 
L 519.351962 66.76334 
L 522.025073 68.980782 
L 524.685908 70.881645 
L 527.346743 72.512666 
L 530.007577 73.907502 
L 532.668412 75.09698 
L 536.279221 76.431364 
L 536.280532 76.697421 
L 536.38784 73.804821 
L 536.770794 66.225411 
L 537.172422 61.720312 
L 537.626316 58.857275 
L 538.125995 57.220126 
L 538.500754 56.611362 
L 538.939538 56.319934 
L 539.317428 56.312797 
L 539.884263 56.572284 
L 540.640043 57.21315 
L 541.872652 58.574875 
L 546.056104 63.398771 
L 548.665335 66.007115 
L 551.07752 68.117087 
L 553.713936 70.122359 
L 556.350352 71.847801 
L 558.986768 73.32728 
L 561.623185 74.592112 
L 564.259601 75.670701 
L 566.474026 76.449584 
L 566.475255 76.695734 
L 566.571388 74.104186 
L 566.984033 65.958506 
L 567.370533 61.69258 
L 567.857885 58.693653 
L 568.326911 57.207129 
L 568.795937 56.511529 
L 569.108621 56.328135 
L 569.602623 56.336437 
L 570.096624 56.584912 
L 570.837627 57.216737 
L 572.319632 58.873654 
L 576.334023 63.487958 
L 578.85536 66.00327 
L 581.322761 68.158849 
L 583.790161 70.038934 
L 586.591127 71.876041 
L 589.442374 73.461849 
L 592.29362 74.800004 
L 595.144867 75.925902 
L 596.67157 76.572959 
L 596.683961 76.350954 
L 597.147368 66.332677 
L 597.586051 61.452104 
L 597.990696 58.914108 
L 598.421697 57.388425 
L 598.916455 56.532366 
L 599.246295 56.299336 
L 599.65906 56.257169 
L 600.154751 56.452133 
L 600.898288 57.042242 
L 602.137516 58.387161 
L 607.080958 64.030968 
L 609.407815 66.301163 
L 611.736246 68.30659 
L 614.539891 70.40088 
L 617.343536 72.184941 
L 620.147181 73.698912 
L 622.950826 74.979529 
L 625.754472 76.059779 
L 629.492665 77.238369 
L 633.230859 78.171523 
L 637.903601 79.066532 
L 642.576343 79.73015 
L 648.183633 80.302271 
L 648.183633 80.302271 
" clip-path="url(#p05cecb9afa)" style="fill: none; stroke: #0000ff; stroke-width: 1.5; stroke-linecap: square"/>
   </g>
   <g id="line2d_27">
    <path d="M 415.5 81.585835 
L 419.274351 59.898024 
L 423.048701 63.634401 
L 426.823052 63.691569 
L 430.597403 71.329686 
L 434.371753 72.64237 
L 438.146104 71.448656 
L 441.920455 76.695563 
L 445.694805 86.28091 
L 596.668831 70.558155 
L 600.443182 60.628322 
L 604.217532 63.120648 
L 607.991883 75.902489 
L 611.766234 72.044597 
L 615.540584 70.854535 
L 619.314935 73.482352 
L 623.089286 78.846981 
L 626.863636 82.969866 
" clip-path="url(#p05cecb9afa)" style="fill: none; stroke: #000000; stroke-width: 1.5; stroke-linecap: square"/>
    <g clip-path="url(#p05cecb9afa)">
     <use xlink:href="#ma727eaceb1" x="415.5" y="81.585835" style="stroke: #000000; stroke-linejoin: miter"/>
     <use xlink:href="#ma727eaceb1" x="419.274351" y="59.898024" style="stroke: #000000; stroke-linejoin: miter"/>
     <use xlink:href="#ma727eaceb1" x="423.048701" y="63.634401" style="stroke: #000000; stroke-linejoin: miter"/>
     <use xlink:href="#ma727eaceb1" x="426.823052" y="63.691569" style="stroke: #000000; stroke-linejoin: miter"/>
     <use xlink:href="#ma727eaceb1" x="430.597403" y="71.329686" style="stroke: #000000; stroke-linejoin: miter"/>
     <use xlink:href="#ma727eaceb1" x="434.371753" y="72.64237" style="stroke: #000000; stroke-linejoin: miter"/>
     <use xlink:href="#ma727eaceb1" x="438.146104" y="71.448656" style="stroke: #000000; stroke-linejoin: miter"/>
     <use xlink:href="#ma727eaceb1" x="441.920455" y="76.695563" style="stroke: #000000; stroke-linejoin: miter"/>
     <use xlink:href="#ma727eaceb1" x="445.694805" y="86.28091" style="stroke: #000000; stroke-linejoin: miter"/>
     <use xlink:href="#ma727eaceb1" x="596.668831" y="70.558155" style="stroke: #000000; stroke-linejoin: miter"/>
     <use xlink:href="#ma727eaceb1" x="600.443182" y="60.628322" style="stroke: #000000; stroke-linejoin: miter"/>
     <use xlink:href="#ma727eaceb1" x="604.217532" y="63.120648" style="stroke: #000000; stroke-linejoin: miter"/>
     <use xlink:href="#ma727eaceb1" x="607.991883" y="75.902489" style="stroke: #000000; stroke-linejoin: miter"/>
     <use xlink:href="#ma727eaceb1" x="611.766234" y="72.044597" style="stroke: #000000; stroke-linejoin: miter"/>
     <use xlink:href="#ma727eaceb1" x="615.540584" y="70.854535" style="stroke: #000000; stroke-linejoin: miter"/>
     <use xlink:href="#ma727eaceb1" x="619.314935" y="73.482352" style="stroke: #000000; stroke-linejoin: miter"/>
     <use xlink:href="#ma727eaceb1" x="623.089286" y="78.846981" style="stroke: #000000; stroke-linejoin: miter"/>
     <use xlink:href="#ma727eaceb1" x="626.863636" y="82.969866" style="stroke: #000000; stroke-linejoin: miter"/>
    </g>
   </g>
   <g id="patch_9">
    <path d="M 394.363636 320.4 
L 394.363636 43.2 
" style="fill: none; stroke: #000000; stroke-width: 0.8; stroke-linejoin: miter; stroke-linecap: square"/>
   </g>
   <g id="patch_10">
    <path d="M 648 320.4 
L 648 43.2 
" style="fill: none; stroke: #000000; stroke-width: 0.8; stroke-linejoin: miter; stroke-linecap: square"/>
   </g>
   <g id="patch_11">
    <path d="M 394.363636 320.4 
L 648 320.4 
" style="fill: none; stroke: #000000; stroke-width: 0.8; stroke-linejoin: miter; stroke-linecap: square"/>
   </g>
   <g id="patch_12">
    <path d="M 394.363636 43.2 
L 648 43.2 
" style="fill: none; stroke: #000000; stroke-width: 0.8; stroke-linejoin: miter; stroke-linecap: square"/>
   </g>
   <g id="text_28">
    <!-- Frost2013a fm_API10_aPTT -->
    <g transform="translate(426.736506 37.2) scale(0.14 -0.14)">
     <use xlink:href="#DejaVuSans-46"/>
     <use xlink:href="#DejaVuSans-72" transform="translate(50.269531 0)"/>
     <use xlink:href="#DejaVuSans-6f" transform="translate(89.132812 0)"/>
     <use xlink:href="#DejaVuSans-73" transform="translate(150.314453 0)"/>
     <use xlink:href="#DejaVuSans-74" transform="translate(202.414062 0)"/>
     <use xlink:href="#DejaVuSans-32" transform="translate(241.623047 0)"/>
     <use xlink:href="#DejaVuSans-30" transform="translate(305.246094 0)"/>
     <use xlink:href="#DejaVuSans-31" transform="translate(368.869141 0)"/>
     <use xlink:href="#DejaVuSans-33" transform="translate(432.492188 0)"/>
     <use xlink:href="#DejaVuSans-61" transform="translate(496.115234 0)"/>
     <use xlink:href="#DejaVuSans-20" transform="translate(557.394531 0)"/>
     <use xlink:href="#DejaVuSans-66" transform="translate(589.181641 0)"/>
     <use xlink:href="#DejaVuSans-6d" transform="translate(624.386719 0)"/>
     <use xlink:href="#DejaVuSans-5f" transform="translate(721.798828 0)"/>
     <use xlink:href="#DejaVuSans-41" transform="translate(771.798828 0)"/>
     <use xlink:href="#DejaVuSans-50" transform="translate(840.207031 0)"/>
     <use xlink:href="#DejaVuSans-49" transform="translate(900.509766 0)"/>
     <use xlink:href="#DejaVuSans-31" transform="translate(930.001953 0)"/>
     <use xlink:href="#DejaVuSans-30" transform="translate(993.625 0)"/>
     <use xlink:href="#DejaVuSans-5f" transform="translate(1057.248047 0)"/>
     <use xlink:href="#DejaVuSans-61" transform="translate(1107.248047 0)"/>
     <use xlink:href="#DejaVuSans-50" transform="translate(1168.527344 0)"/>
     <use xlink:href="#DejaVuSans-54" transform="translate(1228.830078 0)"/>
     <use xlink:href="#DejaVuSans-54" transform="translate(1288.164062 0)"/>
    </g>
   </g>
   <g id="legend_2">
    <g id="patch_13">
     <path d="M 401.363636 315.4 
L 537.413636 315.4 
Q 539.413636 315.4 539.413636 313.4 
L 539.413636 284.765625 
Q 539.413636 282.765625 537.413636 282.765625 
L 401.363636 282.765625 
Q 399.363636 282.765625 399.363636 284.765625 
L 399.363636 313.4 
Q 399.363636 315.4 401.363636 315.4 
z
" style="fill: #ffffff; opacity: 0.8; stroke: #cccccc; stroke-linejoin: miter"/>
    </g>
    <g id="line2d_28">
     <path d="M 403.363636 290.864062 
L 413.363636 290.864062 
L 423.363636 290.864062 
" style="fill: none; stroke: #0000ff; stroke-width: 1.5; stroke-linecap: square"/>
    </g>
    <g id="text_29">
     <!-- observable -->
     <g transform="translate(431.363636 294.364062) scale(0.1 -0.1)">
      <use xlink:href="#DejaVuSans-6f"/>
      <use xlink:href="#DejaVuSans-62" transform="translate(61.181641 0)"/>
      <use xlink:href="#DejaVuSans-73" transform="translate(124.658203 0)"/>
      <use xlink:href="#DejaVuSans-65" transform="translate(176.757812 0)"/>
      <use xlink:href="#DejaVuSans-72" transform="translate(238.28125 0)"/>
      <use xlink:href="#DejaVuSans-76" transform="translate(279.394531 0)"/>
      <use xlink:href="#DejaVuSans-61" transform="translate(338.574219 0)"/>
      <use xlink:href="#DejaVuSans-62" transform="translate(399.853516 0)"/>
      <use xlink:href="#DejaVuSans-6c" transform="translate(463.330078 0)"/>
      <use xlink:href="#DejaVuSans-65" transform="translate(491.113281 0)"/>
     </g>
    </g>
    <g id="LineCollection_4">
     <path d="M 413.363636 310.542188 
L 413.363636 300.542188 
" style="fill: none; stroke: #000000; stroke-width: 1.5"/>
    </g>
    <g id="line2d_29">
     <path d="M 403.363636 305.542188 
L 423.363636 305.542188 
" style="fill: none; stroke: #000000; stroke-width: 1.5; stroke-linecap: square"/>
    </g>
    <g id="line2d_30">
     <g>
      <use xlink:href="#ma727eaceb1" x="413.363636" y="305.542188" style="stroke: #000000; stroke-linejoin: miter"/>
     </g>
    </g>
    <g id="text_30">
     <!-- reference_data ± SD -->
     <g transform="translate(431.363636 309.042188) scale(0.1 -0.1)">
      <use xlink:href="#DejaVuSans-72"/>
      <use xlink:href="#DejaVuSans-65" transform="translate(38.863281 0)"/>
      <use xlink:href="#DejaVuSans-66" transform="translate(100.386719 0)"/>
      <use xlink:href="#DejaVuSans-65" transform="translate(135.591797 0)"/>
      <use xlink:href="#DejaVuSans-72" transform="translate(197.115234 0)"/>
      <use xlink:href="#DejaVuSans-65" transform="translate(235.978516 0)"/>
      <use xlink:href="#DejaVuSans-6e" transform="translate(297.501953 0)"/>
      <use xlink:href="#DejaVuSans-63" transform="translate(360.880859 0)"/>
      <use xlink:href="#DejaVuSans-65" transform="translate(415.861328 0)"/>
      <use xlink:href="#DejaVuSans-5f" transform="translate(477.384766 0)"/>
      <use xlink:href="#DejaVuSans-64" transform="translate(527.384766 0)"/>
      <use xlink:href="#DejaVuSans-61" transform="translate(590.861328 0)"/>
      <use xlink:href="#DejaVuSans-74" transform="translate(652.140625 0)"/>
      <use xlink:href="#DejaVuSans-61" transform="translate(691.349609 0)"/>
      <use xlink:href="#DejaVuSans-20" transform="translate(752.628906 0)"/>
      <use xlink:href="#DejaVuSans-b1" transform="translate(784.416016 0)"/>
      <use xlink:href="#DejaVuSans-20" transform="translate(868.205078 0)"/>
      <use xlink:href="#DejaVuSans-53" transform="translate(899.992188 0)"/>
      <use xlink:href="#DejaVuSans-44" transform="translate(963.46875 0)"/>
     </g>
    </g>
   </g>
  </g>
 </g>
 <defs>
  <clipPath id="pe3dc7cace5">
   <rect x="90" y="43.2" width="253.636364" height="277.2"/>
  </clipPath>
  <clipPath id="p05cecb9afa">
   <rect x="394.363636" y="43.2" width="253.636364" height="277.2"/>
  </clipPath>
 </defs>
</svg>
