<?xml version="1.0" encoding="utf-8" standalone="no"?>
<!DOCTYPE svg PUBLIC "-//W3C//DTD SVG 1.1//EN"
  "http://www.w3.org/Graphics/SVG/1.1/DTD/svg11.dtd">
<svg xmlns:xlink="http://www.w3.org/1999/xlink" width="720pt" height="360pt" viewBox="0 0 720 360" xmlns="http://www.w3.org/2000/svg" version="1.1">
 <metadata>
  <rdf:RDF xmlns:dc="http://purl.org/dc/elements/1.1/" xmlns:cc="http://creativecommons.org/ns#" xmlns:rdf="http://www.w3.org/1999/02/22-rdf-syntax-ns#">
   <cc:Work>
    <dc:type rdf:resource="http://purl.org/dc/dcmitype/StillImage"/>
    <dc:date>2026-04-17T10:54:56.125514</dc:date>
    <dc:format>image/svg+xml</dc:format>
    <dc:creator>
     <cc:Agent>
      <dc:title>Matplotlib v3.10.8, https://matplotlib.org/</dc:title>
     </cc:Agent>
    </dc:creator>
   </cc:Work>
  </rdf:RDF>
 </metadata>
 <defs>
  <style type="text/css">*{stroke-linejoin: round; stroke-linecap: butt}</style>
 </defs>
 <g id="figure_1">
  <g id="patch_1">
   <path d="M 0 360 
L 720 360 
L 720 0 
L 0 0 
z
" style="fill: #ffffff"/>
  </g>
  <g id="axes_1">
   <g id="patch_2">
    <path d="M 90 320.4 
L 343.636364 320.4 
L 343.636364 43.2 
L 90 43.2 
z
" style="fill: #ffffff"/>
   </g>
   <g id="matplotlib.axis_1">
    <g id="xtick_1">
     <g id="line2d_1">
      <defs>
       <path id="m5330700c6a" d="M 0 0 
L 0 3.5 
" style="stroke: #000000; stroke-width: 0.8"/>
      </defs>
      <g>
       <use xlink:href="#m5330700c6a" x="111.136364" y="320.4" style="stroke: #000000; stroke-width: 0.8"/>
      </g>
     </g>
     <g id="text_1">
      <!-- 0 -->
      <g transform="translate(107.955114 334.998438) scale(0.1 -0.1)">
       <defs>
        <path id="DejaVuSans-30" d="M 2034 4250 
Q 1547 4250 1301 3770 
Q 1056 3291 1056 2328 
Q 1056 1369 1301 889 
Q 1547 409 2034 409 
Q 2525 409 2770 889 
Q 3016 1369 3016 2328 
Q 3016 3291 2770 3770 
Q 2525 4250 2034 4250 
z
M 2034 4750 
Q 2819 4750 3233 4129 
Q 3647 3509 3647 2328 
Q 3647 1150 3233 529 
Q 2819 -91 2034 -91 
Q 1250 -91 836 529 
Q 422 1150 422 2328 
Q 422 3509 836 4129 
Q 1250 4750 2034 4750 
z
" transform="scale(0.015625)"/>
       </defs>
       <use xlink:href="#DejaVuSans-30"/>
      </g>
     </g>
    </g>
    <g id="xtick_2">
     <g id="line2d_2">
      <g>
       <use xlink:href="#m5330700c6a" x="153.073593" y="320.4" style="stroke: #000000; stroke-width: 0.8"/>
      </g>
     </g>
     <g id="text_2">
      <!-- 2000 -->
      <g transform="translate(140.348593 334.998438) scale(0.1 -0.1)">
       <defs>
        <path id="DejaVuSans-32" d="M 1228 531 
L 3431 531 
L 3431 0 
L 469 0 
L 469 531 
Q 828 903 1448 1529 
Q 2069 2156 2228 2338 
Q 2531 2678 2651 2914 
Q 2772 3150 2772 3378 
Q 2772 3750 2511 3984 
Q 2250 4219 1831 4219 
Q 1534 4219 1204 4116 
Q 875 4013 500 3803 
L 500 4441 
Q 881 4594 1212 4672 
Q 1544 4750 1819 4750 
Q 2544 4750 2975 4387 
Q 3406 4025 3406 3419 
Q 3406 3131 3298 2873 
Q 3191 2616 2906 2266 
Q 2828 2175 2409 1742 
Q 1991 1309 1228 531 
z
" transform="scale(0.015625)"/>
       </defs>
       <use xlink:href="#DejaVuSans-32"/>
       <use xlink:href="#DejaVuSans-30" transform="translate(63.623047 0)"/>
       <use xlink:href="#DejaVuSans-30" transform="translate(127.246094 0)"/>
       <use xlink:href="#DejaVuSans-30" transform="translate(190.869141 0)"/>
      </g>
     </g>
    </g>
    <g id="xtick_3">
     <g id="line2d_3">
      <g>
       <use xlink:href="#m5330700c6a" x="195.010823" y="320.4" style="stroke: #000000; stroke-width: 0.8"/>
      </g>
     </g>
     <g id="text_3">
      <!-- 4000 -->
      <g transform="translate(182.285823 334.998438) scale(0.1 -0.1)">
       <defs>
        <path id="DejaVuSans-34" d="M 2419 4116 
L 825 1625 
L 2419 1625 
L 2419 4116 
z
M 2253 4666 
L 3047 4666 
L 3047 1625 
L 3713 1625 
L 3713 1100 
L 3047 1100 
L 3047 0 
L 2419 0 
L 2419 1100 
L 313 1100 
L 313 1709 
L 2253 4666 
z
" transform="scale(0.015625)"/>
       </defs>
       <use xlink:href="#DejaVuSans-34"/>
       <use xlink:href="#DejaVuSans-30" transform="translate(63.623047 0)"/>
       <use xlink:href="#DejaVuSans-30" transform="translate(127.246094 0)"/>
       <use xlink:href="#DejaVuSans-30" transform="translate(190.869141 0)"/>
      </g>
     </g>
    </g>
    <g id="xtick_4">
     <g id="line2d_4">
      <g>
       <use xlink:href="#m5330700c6a" x="236.948052" y="320.4" style="stroke: #000000; stroke-width: 0.8"/>
      </g>
     </g>
     <g id="text_4">
      <!-- 6000 -->
      <g transform="translate(224.223052 334.998438) scale(0.1 -0.1)">
       <defs>
        <path id="DejaVuSans-36" d="M 2113 2584 
Q 1688 2584 1439 2293 
Q 1191 2003 1191 1497 
Q 1191 994 1439 701 
Q 1688 409 2113 409 
Q 2538 409 2786 701 
Q 3034 994 3034 1497 
Q 3034 2003 2786 2293 
Q 2538 2584 2113 2584 
z
M 3366 4563 
L 3366 3988 
Q 3128 4100 2886 4159 
Q 2644 4219 2406 4219 
Q 1781 4219 1451 3797 
Q 1122 3375 1075 2522 
Q 1259 2794 1537 2939 
Q 1816 3084 2150 3084 
Q 2853 3084 3261 2657 
Q 3669 2231 3669 1497 
Q 3669 778 3244 343 
Q 2819 -91 2113 -91 
Q 1303 -91 875 529 
Q 447 1150 447 2328 
Q 447 3434 972 4092 
Q 1497 4750 2381 4750 
Q 2619 4750 2861 4703 
Q 3103 4656 3366 4563 
z
" transform="scale(0.015625)"/>
       </defs>
       <use xlink:href="#DejaVuSans-36"/>
       <use xlink:href="#DejaVuSans-30" transform="translate(63.623047 0)"/>
       <use xlink:href="#DejaVuSans-30" transform="translate(127.246094 0)"/>
       <use xlink:href="#DejaVuSans-30" transform="translate(190.869141 0)"/>
      </g>
     </g>
    </g>
    <g id="xtick_5">
     <g id="line2d_5">
      <g>
       <use xlink:href="#m5330700c6a" x="278.885281" y="320.4" style="stroke: #000000; stroke-width: 0.8"/>
      </g>
     </g>
     <g id="text_5">
      <!-- 8000 -->
      <g transform="translate(266.160281 334.998438) scale(0.1 -0.1)">
       <defs>
        <path id="DejaVuSans-38" d="M 2034 2216 
Q 1584 2216 1326 1975 
Q 1069 1734 1069 1313 
Q 1069 891 1326 650 
Q 1584 409 2034 409 
Q 2484 409 2743 651 
Q 3003 894 3003 1313 
Q 3003 1734 2745 1975 
Q 2488 2216 2034 2216 
z
M 1403 2484 
Q 997 2584 770 2862 
Q 544 3141 544 3541 
Q 544 4100 942 4425 
Q 1341 4750 2034 4750 
Q 2731 4750 3128 4425 
Q 3525 4100 3525 3541 
Q 3525 3141 3298 2862 
Q 3072 2584 2669 2484 
Q 3125 2378 3379 2068 
Q 3634 1759 3634 1313 
Q 3634 634 3220 271 
Q 2806 -91 2034 -91 
Q 1263 -91 848 271 
Q 434 634 434 1313 
Q 434 1759 690 2068 
Q 947 2378 1403 2484 
z
M 1172 3481 
Q 1172 3119 1398 2916 
Q 1625 2713 2034 2713 
Q 2441 2713 2670 2916 
Q 2900 3119 2900 3481 
Q 2900 3844 2670 4047 
Q 2441 4250 2034 4250 
Q 1625 4250 1398 4047 
Q 1172 3844 1172 3481 
z
" transform="scale(0.015625)"/>
       </defs>
       <use xlink:href="#DejaVuSans-38"/>
       <use xlink:href="#DejaVuSans-30" transform="translate(63.623047 0)"/>
       <use xlink:href="#DejaVuSans-30" transform="translate(127.246094 0)"/>
       <use xlink:href="#DejaVuSans-30" transform="translate(190.869141 0)"/>
      </g>
     </g>
    </g>
    <g id="xtick_6">
     <g id="line2d_6">
      <g>
       <use xlink:href="#m5330700c6a" x="320.822511" y="320.4" style="stroke: #000000; stroke-width: 0.8"/>
      </g>
     </g>
     <g id="text_6">
      <!-- 10000 -->
      <g transform="translate(304.916261 334.998438) scale(0.1 -0.1)">
       <defs>
        <path id="DejaVuSans-31" d="M 794 531 
L 1825 531 
L 1825 4091 
L 703 3866 
L 703 4441 
L 1819 4666 
L 2450 4666 
L 2450 531 
L 3481 531 
L 3481 0 
L 794 0 
L 794 531 
z
" transform="scale(0.015625)"/>
       </defs>
       <use xlink:href="#DejaVuSans-31"/>
       <use xlink:href="#DejaVuSans-30" transform="translate(63.623047 0)"/>
       <use xlink:href="#DejaVuSans-30" transform="translate(127.246094 0)"/>
       <use xlink:href="#DejaVuSans-30" transform="translate(190.869141 0)"/>
       <use xlink:href="#DejaVuSans-30" transform="translate(254.492188 0)"/>
      </g>
     </g>
    </g>
    <g id="text_7">
     <!-- time -->
     <g transform="translate(203.262869 350.19625) scale(0.12 -0.12)">
      <defs>
       <path id="DejaVuSans-74" d="M 1172 4494 
L 1172 3500 
L 2356 3500 
L 2356 3053 
L 1172 3053 
L 1172 1153 
Q 1172 725 1289 603 
Q 1406 481 1766 481 
L 2356 481 
L 2356 0 
L 1766 0 
Q 1100 0 847 248 
Q 594 497 594 1153 
L 594 3053 
L 172 3053 
L 172 3500 
L 594 3500 
L 594 4494 
L 1172 4494 
z
" transform="scale(0.015625)"/>
       <path id="DejaVuSans-69" d="M 603 3500 
L 1178 3500 
L 1178 0 
L 603 0 
L 603 3500 
z
M 603 4863 
L 1178 4863 
L 1178 4134 
L 603 4134 
L 603 4863 
z
" transform="scale(0.015625)"/>
       <path id="DejaVuSans-6d" d="M 3328 2828 
Q 3544 3216 3844 3400 
Q 4144 3584 4550 3584 
Q 5097 3584 5394 3201 
Q 5691 2819 5691 2113 
L 5691 0 
L 5113 0 
L 5113 2094 
Q 5113 2597 4934 2840 
Q 4756 3084 4391 3084 
Q 3944 3084 3684 2787 
Q 3425 2491 3425 1978 
L 3425 0 
L 2847 0 
L 2847 2094 
Q 2847 2600 2669 2842 
Q 2491 3084 2119 3084 
Q 1678 3084 1418 2786 
Q 1159 2488 1159 1978 
L 1159 0 
L 581 0 
L 581 3500 
L 1159 3500 
L 1159 2956 
Q 1356 3278 1631 3431 
Q 1906 3584 2284 3584 
Q 2666 3584 2933 3390 
Q 3200 3197 3328 2828 
z
" transform="scale(0.015625)"/>
       <path id="DejaVuSans-65" d="M 3597 1894 
L 3597 1613 
L 953 1613 
Q 991 1019 1311 708 
Q 1631 397 2203 397 
Q 2534 397 2845 478 
Q 3156 559 3463 722 
L 3463 178 
Q 3153 47 2828 -22 
Q 2503 -91 2169 -91 
Q 1331 -91 842 396 
Q 353 884 353 1716 
Q 353 2575 817 3079 
Q 1281 3584 2069 3584 
Q 2775 3584 3186 3129 
Q 3597 2675 3597 1894 
z
M 3022 2063 
Q 3016 2534 2758 2815 
Q 2500 3097 2075 3097 
Q 1594 3097 1305 2825 
Q 1016 2553 972 2059 
L 3022 2063 
z
" transform="scale(0.015625)"/>
      </defs>
      <use xlink:href="#DejaVuSans-74"/>
      <use xlink:href="#DejaVuSans-69" transform="translate(39.208984 0)"/>
      <use xlink:href="#DejaVuSans-6d" transform="translate(66.992188 0)"/>
      <use xlink:href="#DejaVuSans-65" transform="translate(164.404297 0)"/>
     </g>
    </g>
   </g>
   <g id="matplotlib.axis_2">
    <g id="ytick_1">
     <g id="line2d_7">
      <defs>
       <path id="m9f67e3399c" d="M 0 0 
L -3.5 0 
" style="stroke: #000000; stroke-width: 0.8"/>
      </defs>
      <g>
       <use xlink:href="#m9f67e3399c" x="90" y="272.367533" style="stroke: #000000; stroke-width: 0.8"/>
      </g>
     </g>
     <g id="text_8">
      <!-- 30 -->
      <g transform="translate(70.275 276.166752) scale(0.1 -0.1)">
       <defs>
        <path id="DejaVuSans-33" d="M 2597 2516 
Q 3050 2419 3304 2112 
Q 3559 1806 3559 1356 
Q 3559 666 3084 287 
Q 2609 -91 1734 -91 
Q 1441 -91 1130 -33 
Q 819 25 488 141 
L 488 750 
Q 750 597 1062 519 
Q 1375 441 1716 441 
Q 2309 441 2620 675 
Q 2931 909 2931 1356 
Q 2931 1769 2642 2001 
Q 2353 2234 1838 2234 
L 1294 2234 
L 1294 2753 
L 1863 2753 
Q 2328 2753 2575 2939 
Q 2822 3125 2822 3475 
Q 2822 3834 2567 4026 
Q 2313 4219 1838 4219 
Q 1578 4219 1281 4162 
Q 984 4106 628 3988 
L 628 4550 
Q 988 4650 1302 4700 
Q 1616 4750 1894 4750 
Q 2613 4750 3031 4423 
Q 3450 4097 3450 3541 
Q 3450 3153 3228 2886 
Q 3006 2619 2597 2516 
z
" transform="scale(0.015625)"/>
       </defs>
       <use xlink:href="#DejaVuSans-33"/>
       <use xlink:href="#DejaVuSans-30" transform="translate(63.623047 0)"/>
      </g>
     </g>
    </g>
    <g id="ytick_2">
     <g id="line2d_8">
      <g>
       <use xlink:href="#m9f67e3399c" x="90" y="218.681977" style="stroke: #000000; stroke-width: 0.8"/>
      </g>
     </g>
     <g id="text_9">
      <!-- 35 -->
      <g transform="translate(70.275 222.481196) scale(0.1 -0.1)">
       <defs>
        <path id="DejaVuSans-35" d="M 691 4666 
L 3169 4666 
L 3169 4134 
L 1269 4134 
L 1269 2991 
Q 1406 3038 1543 3061 
Q 1681 3084 1819 3084 
Q 2600 3084 3056 2656 
Q 3513 2228 3513 1497 
Q 3513 744 3044 326 
Q 2575 -91 1722 -91 
Q 1428 -91 1123 -41 
Q 819 9 494 109 
L 494 744 
Q 775 591 1075 516 
Q 1375 441 1709 441 
Q 2250 441 2565 725 
Q 2881 1009 2881 1497 
Q 2881 1984 2565 2268 
Q 2250 2553 1709 2553 
Q 1456 2553 1204 2497 
Q 953 2441 691 2322 
L 691 4666 
z
" transform="scale(0.015625)"/>
       </defs>
       <use xlink:href="#DejaVuSans-33"/>
       <use xlink:href="#DejaVuSans-35" transform="translate(63.623047 0)"/>
      </g>
     </g>
    </g>
    <g id="ytick_3">
     <g id="line2d_9">
      <g>
       <use xlink:href="#m9f67e3399c" x="90" y="164.996421" style="stroke: #000000; stroke-width: 0.8"/>
      </g>
     </g>
     <g id="text_10">
      <!-- 40 -->
      <g transform="translate(70.275 168.79564) scale(0.1 -0.1)">
       <use xlink:href="#DejaVuSans-34"/>
       <use xlink:href="#DejaVuSans-30" transform="translate(63.623047 0)"/>
      </g>
     </g>
    </g>
    <g id="ytick_4">
     <g id="line2d_10">
      <g>
       <use xlink:href="#m9f67e3399c" x="90" y="111.310865" style="stroke: #000000; stroke-width: 0.8"/>
      </g>
     </g>
     <g id="text_11">
      <!-- 45 -->
      <g transform="translate(70.275 115.110084) scale(0.1 -0.1)">
       <use xlink:href="#DejaVuSans-34"/>
       <use xlink:href="#DejaVuSans-35" transform="translate(63.623047 0)"/>
      </g>
     </g>
    </g>
    <g id="ytick_5">
     <g id="line2d_11">
      <g>
       <use xlink:href="#m9f67e3399c" x="90" y="57.625309" style="stroke: #000000; stroke-width: 0.8"/>
      </g>
     </g>
     <g id="text_12">
      <!-- 50 -->
      <g transform="translate(70.275 61.424528) scale(0.1 -0.1)">
       <use xlink:href="#DejaVuSans-35"/>
       <use xlink:href="#DejaVuSans-30" transform="translate(63.623047 0)"/>
      </g>
     </g>
    </g>
    <g id="text_13">
     <!-- aPTT -->
     <g transform="translate(63.779375 196.319062) rotate(-90) scale(0.12 -0.12)">
      <defs>
       <path id="DejaVuSans-61" d="M 2194 1759 
Q 1497 1759 1228 1600 
Q 959 1441 959 1056 
Q 959 750 1161 570 
Q 1363 391 1709 391 
Q 2188 391 2477 730 
Q 2766 1069 2766 1631 
L 2766 1759 
L 2194 1759 
z
M 3341 1997 
L 3341 0 
L 2766 0 
L 2766 531 
Q 2569 213 2275 61 
Q 1981 -91 1556 -91 
Q 1019 -91 701 211 
Q 384 513 384 1019 
Q 384 1609 779 1909 
Q 1175 2209 1959 2209 
L 2766 2209 
L 2766 2266 
Q 2766 2663 2505 2880 
Q 2244 3097 1772 3097 
Q 1472 3097 1187 3025 
Q 903 2953 641 2809 
L 641 3341 
Q 956 3463 1253 3523 
Q 1550 3584 1831 3584 
Q 2591 3584 2966 3190 
Q 3341 2797 3341 1997 
z
" transform="scale(0.015625)"/>
       <path id="DejaVuSans-50" d="M 1259 4147 
L 1259 2394 
L 2053 2394 
Q 2494 2394 2734 2622 
Q 2975 2850 2975 3272 
Q 2975 3691 2734 3919 
Q 2494 4147 2053 4147 
L 1259 4147 
z
M 628 4666 
L 2053 4666 
Q 2838 4666 3239 4311 
Q 3641 3956 3641 3272 
Q 3641 2581 3239 2228 
Q 2838 1875 2053 1875 
L 1259 1875 
L 1259 0 
L 628 0 
L 628 4666 
z
" transform="scale(0.015625)"/>
       <path id="DejaVuSans-54" d="M -19 4666 
L 3928 4666 
L 3928 4134 
L 2272 4134 
L 2272 0 
L 1638 0 
L 1638 4134 
L -19 4134 
L -19 4666 
z
" transform="scale(0.015625)"/>
      </defs>
      <use xlink:href="#DejaVuSans-61"/>
      <use xlink:href="#DejaVuSans-50" transform="translate(61.279297 0)"/>
      <use xlink:href="#DejaVuSans-54" transform="translate(121.582031 0)"/>
      <use xlink:href="#DejaVuSans-54" transform="translate(180.916016 0)"/>
     </g>
    </g>
   </g>
   <g id="LineCollection_1">
    <path d="M 111.136364 296.740775 
L 111.136364 274.192842 
" clip-path="url(#p66a9437d4a)" style="fill: none; stroke: #000000; stroke-width: 1.5"/>
    <path d="M 114.910714 277.091862 
L 114.910714 232.210737 
" clip-path="url(#p66a9437d4a)" style="fill: none; stroke: #000000; stroke-width: 1.5"/>
    <path d="M 118.685065 282.567789 
L 118.685065 204.186877 
" clip-path="url(#p66a9437d4a)" style="fill: none; stroke: #000000; stroke-width: 1.5"/>
    <path d="M 122.459416 282.67516 
L 122.459416 243.377333 
" clip-path="url(#p66a9437d4a)" style="fill: none; stroke: #000000; stroke-width: 1.5"/>
    <path d="M 126.233766 282.567789 
L 126.233766 260.234597 
" clip-path="url(#p66a9437d4a)" style="fill: none; stroke: #000000; stroke-width: 1.5"/>
    <path d="M 130.008117 291.050107 
L 130.008117 173.371368 
" clip-path="url(#p66a9437d4a)" style="fill: none; stroke: #000000; stroke-width: 1.5"/>
    <path d="M 133.782468 285.359438 
L 133.782468 195.81193 
" clip-path="url(#p66a9437d4a)" style="fill: none; stroke: #000000; stroke-width: 1.5"/>
    <path d="M 137.556818 279.77614 
L 137.556818 257.442948 
" clip-path="url(#p66a9437d4a)" style="fill: none; stroke: #000000; stroke-width: 1.5"/>
    <path d="M 141.331169 282.567789 
L 141.331169 265.817895 
" clip-path="url(#p66a9437d4a)" style="fill: none; stroke: #000000; stroke-width: 1.5"/>
    <path d="M 292.305195 296.633404 
L 292.305195 218.252493 
" clip-path="url(#p66a9437d4a)" style="fill: none; stroke: #000000; stroke-width: 1.5"/>
    <path d="M 296.079545 274.192842 
L 296.079545 195.81193 
" clip-path="url(#p66a9437d4a)" style="fill: none; stroke: #000000; stroke-width: 1.5"/>
    <path d="M 299.853896 265.710524 
L 299.853896 215.460844 
" clip-path="url(#p66a9437d4a)" style="fill: none; stroke: #000000; stroke-width: 1.5"/>
    <path d="M 303.628247 282.67516 
L 303.628247 215.460844 
" clip-path="url(#p66a9437d4a)" style="fill: none; stroke: #000000; stroke-width: 1.5"/>
    <path d="M 307.402597 274.300213 
L 307.402597 240.585684 
" clip-path="url(#p66a9437d4a)" style="fill: none; stroke: #000000; stroke-width: 1.5"/>
    <path d="M 311.176948 240.585684 
L 311.176948 100.573754 
" clip-path="url(#p66a9437d4a)" style="fill: none; stroke: #000000; stroke-width: 1.5"/>
    <path d="M 314.951299 296.526033 
L 314.951299 55.8 
" clip-path="url(#p66a9437d4a)" style="fill: none; stroke: #000000; stroke-width: 1.5"/>
    <path d="M 318.725649 257.442948 
L 318.725649 246.276353 
" clip-path="url(#p66a9437d4a)" style="fill: none; stroke: #000000; stroke-width: 1.5"/>
    <path d="M 322.5 307.8 
L 322.5 173.371368 
" clip-path="url(#p66a9437d4a)" style="fill: none; stroke: #000000; stroke-width: 1.5"/>
   </g>
   <g id="line2d_12">
    <path d="M 111.136364 285.466809 
L 111.143782 285.367848 
L 111.356271 274.020704 
L 111.77183 260.080244 
L 112.151744 252.832803 
L 112.638768 247.615003 
L 113.110739 245.026184 
L 113.5072 243.954303 
L 113.903662 243.516673 
L 114.300123 243.498332 
L 114.696584 243.759339 
L 115.291276 244.480217 
L 116.192025 245.972737 
L 123.147682 258.569108 
L 125.263437 261.763939 
L 126.233766 263.115815 
L 126.235635 263.714889 
L 126.335619 259.918612 
L 126.750551 248.304904 
L 127.191103 241.568006 
L 127.593335 238.150505 
L 127.956806 236.404638 
L 128.281515 235.550145 
L 128.606225 235.155151 
L 128.930934 235.086688 
L 129.255643 235.25213 
L 129.742707 235.800454 
L 130.474392 237.032476 
L 131.942118 240.115419 
L 135.876525 248.605924 
L 138.278495 253.260519 
L 140.780489 257.61607 
L 141.331169 258.502202 
L 141.333034 258.968479 
L 141.441817 255.125652 
L 141.839037 244.762625 
L 142.239399 238.83378 
L 142.71368 235.013918 
L 143.13668 233.312352 
L 143.464823 232.681549 
L 143.792967 232.458109 
L 144.12111 232.52408 
L 144.542353 232.903968 
L 145.313865 234.124692 
L 146.599718 236.837543 
L 151.550736 247.854793 
L 154.134346 252.927484 
L 156.428571 256.96883 
L 156.430481 257.717603 
L 156.531093 254.214586 
L 156.956866 243.350086 
L 157.388652 237.354838 
L 157.791251 234.258576 
L 158.189897 232.608266 
L 158.508024 231.948233 
L 158.82615 231.688741 
L 159.144277 231.716423 
L 159.582973 232.082741 
L 160.199145 233.006241 
L 161.226098 235.084675 
L 167.843706 249.719963 
L 170.075184 253.967785 
L 171.525974 256.506259 
L 171.52791 256.964152 
L 171.631464 253.40945 
L 172.056071 242.760026 
L 172.492322 236.816441 
L 172.901797 233.756245 
L 173.351969 232.03813 
L 173.652084 231.507186 
L 173.952199 231.311613 
L 174.185905 231.333032 
L 174.653316 231.702128 
L 175.354432 232.773474 
L 176.522959 235.207684 
L 182.787428 249.160503 
L 185.012522 253.448186 
L 186.625555 256.438694 
L 186.638775 256.157715 
L 187.137376 242.678642 
L 187.537112 237.038624 
L 187.917925 233.942878 
L 188.358182 232.026784 
L 188.798439 231.214975 
L 189.091944 231.073581 
L 189.651583 231.374093 
L 190.264088 232.231802 
L 191.28493 234.261658 
L 194.433843 241.544934 
L 197.036036 247.256108 
L 199.20453 251.60471 
L 201.722956 256.474832 
L 201.737156 256.159509 
L 202.200594 243.331796 
L 202.587674 237.545882 
L 202.919745 234.558135 
L 203.374533 232.266688 
L 203.82932 231.26907 
L 204.132511 231.063619 
L 204.284107 231.060443 
L 204.774087 231.381006 
L 205.375322 232.235406 
L 206.176969 233.797847 
L 208.33022 238.740617 
L 211.560096 246.025216 
L 214.179738 251.354569 
L 216.820359 256.477735 
L 216.833576 256.196192 
L 217.306516 243.168144 
L 217.711613 237.251375 
L 218.059665 234.267606 
L 218.520676 232.107436 
L 218.828017 231.403275 
L 219.135357 231.094709 
L 219.522054 231.103576 
L 219.988107 231.512601 
L 220.687187 232.616412 
L 221.852319 235.070592 
L 227.59057 247.985682 
L 229.838429 252.421631 
L 231.91776 256.503745 
L 231.933547 256.132262 
L 232.363051 243.990988 
L 232.793052 237.440752 
L 233.18344 234.108962 
L 233.631056 232.078201 
L 233.940707 231.389124 
L 234.250359 231.095518 
L 234.560011 231.087737 
L 234.99467 231.414759 
L 235.682282 232.437295 
L 236.699223 234.515942 
L 243.663346 249.966888 
L 245.986019 254.357207 
L 247.012987 256.15484 
L 247.014903 257.491075 
L 247.123895 253.69214 
L 247.52918 243.323725 
L 247.949672 237.336658 
L 248.375446 233.998476 
L 248.806503 232.257655 
L 249.210813 231.551353 
L 249.588378 231.415261 
L 249.965943 231.618291 
L 250.53229 232.332185 
L 251.312355 233.773593 
L 253.086203 237.765067 
L 256.538607 245.597766 
L 259.304434 251.251483 
L 261.903425 255.995365 
L 262.11039 256.345524 
L 262.112316 257.203619 
L 262.215583 253.632326 
L 262.56679 244.31947 
L 263.04313 237.255924 
L 263.440079 234.092186 
L 263.779074 232.555211 
L 264.168481 231.648447 
L 264.428085 231.399392 
L 264.624737 231.350729 
L 265.166089 231.663788 
L 265.839855 232.633034 
L 266.73821 234.423411 
L 269.106312 239.877197 
L 272.004893 246.352121 
L 274.591158 251.583941 
L 277.207792 256.314761 
L 277.209732 256.851827 
L 277.313756 253.284332 
L 277.674014 243.875465 
L 278.127399 237.20111 
L 278.580784 233.682736 
L 278.900398 232.326688 
L 279.315179 231.44495 
L 279.5917 231.239338 
L 279.941201 231.283277 
L 280.577268 231.938138 
L 281.26653 233.131138 
L 282.645054 236.13849 
L 286.899396 245.828393 
L 289.663046 251.454529 
L 292.307373 256.459827 
L 292.317643 256.274928 
L 292.887767 241.481319 
L 293.314635 236.096507 
L 293.779879 232.986956 
L 294.18909 231.65071 
L 294.542267 231.15914 
L 294.895445 231.079647 
L 295.248623 231.286651 
L 295.77839 231.953323 
L 296.661335 233.600973 
L 298.51811 237.824155 
L 302.0661 245.869431 
L 304.356476 250.573247 
L 306.886047 255.269831 
L 307.404779 256.365523 
L 307.420616 255.993441 
L 307.871178 243.475368 
L 308.281441 237.352079 
L 308.663498 234.091308 
L 309.137402 231.967752 
L 309.4439 231.315771 
L 309.819945 231.023188 
L 310.19599 231.118433 
L 310.572035 231.478083 
L 311.136103 232.338171 
L 312.076215 234.23515 
L 314.571505 240.016692 
L 317.281111 246.082275 
L 320.047681 251.687953 
L 322.154581 255.537225 
L 324.26148 259.03064 
L 326.368379 262.182104 
L 328.475279 265.009818 
L 330.582178 267.534835 
L 332.689078 269.779883 
L 334.795977 271.768392 
L 337.605176 274.060985 
L 340.414375 275.9924 
L 343.223574 277.612429 
L 343.925874 277.974189 
L 343.925874 277.974189 
" clip-path="url(#p66a9437d4a)" style="fill: none; stroke: #0000ff; stroke-width: 1.5; stroke-linecap: square"/>
   </g>
   <g id="line2d_13">
    <path d="M 111.136364 285.466809 
L 114.910714 254.6513 
L 118.685065 243.377333 
L 122.459416 263.026246 
L 126.233766 271.401193 
L 130.008117 232.210737 
L 133.782468 240.585684 
L 137.556818 268.609544 
L 141.331169 274.192842 
L 292.305195 257.442948 
L 296.079545 235.002386 
L 299.853896 240.585684 
L 303.628247 249.068002 
L 307.402597 257.442948 
L 311.176948 170.579719 
L 314.951299 176.163017 
L 318.725649 251.859651 
L 322.5 240.585684 
" clip-path="url(#p66a9437d4a)" style="fill: none; stroke: #000000; stroke-width: 1.5; stroke-linecap: square"/>
    <defs>
     <path id="mcdf38826cd" d="M -5 5 
L 5 5 
L 5 -5 
L -5 -5 
z
" style="stroke: #000000; stroke-linejoin: miter"/>
    </defs>
    <g clip-path="url(#p66a9437d4a)">
     <use xlink:href="#mcdf38826cd" x="111.136364" y="285.466809" style="stroke: #000000; stroke-linejoin: miter"/>
     <use xlink:href="#mcdf38826cd" x="114.910714" y="254.6513" style="stroke: #000000; stroke-linejoin: miter"/>
     <use xlink:href="#mcdf38826cd" x="118.685065" y="243.377333" style="stroke: #000000; stroke-linejoin: miter"/>
     <use xlink:href="#mcdf38826cd" x="122.459416" y="263.026246" style="stroke: #000000; stroke-linejoin: miter"/>
     <use xlink:href="#mcdf38826cd" x="126.233766" y="271.401193" style="stroke: #000000; stroke-linejoin: miter"/>
     <use xlink:href="#mcdf38826cd" x="130.008117" y="232.210737" style="stroke: #000000; stroke-linejoin: miter"/>
     <use xlink:href="#mcdf38826cd" x="133.782468" y="240.585684" style="stroke: #000000; stroke-linejoin: miter"/>
     <use xlink:href="#mcdf38826cd" x="137.556818" y="268.609544" style="stroke: #000000; stroke-linejoin: miter"/>
     <use xlink:href="#mcdf38826cd" x="141.331169" y="274.192842" style="stroke: #000000; stroke-linejoin: miter"/>
     <use xlink:href="#mcdf38826cd" x="292.305195" y="257.442948" style="stroke: #000000; stroke-linejoin: miter"/>
     <use xlink:href="#mcdf38826cd" x="296.079545" y="235.002386" style="stroke: #000000; stroke-linejoin: miter"/>
     <use xlink:href="#mcdf38826cd" x="299.853896" y="240.585684" style="stroke: #000000; stroke-linejoin: miter"/>
     <use xlink:href="#mcdf38826cd" x="303.628247" y="249.068002" style="stroke: #000000; stroke-linejoin: miter"/>
     <use xlink:href="#mcdf38826cd" x="307.402597" y="257.442948" style="stroke: #000000; stroke-linejoin: miter"/>
     <use xlink:href="#mcdf38826cd" x="311.176948" y="170.579719" style="stroke: #000000; stroke-linejoin: miter"/>
     <use xlink:href="#mcdf38826cd" x="314.951299" y="176.163017" style="stroke: #000000; stroke-linejoin: miter"/>
     <use xlink:href="#mcdf38826cd" x="318.725649" y="251.859651" style="stroke: #000000; stroke-linejoin: miter"/>
     <use xlink:href="#mcdf38826cd" x="322.5" y="240.585684" style="stroke: #000000; stroke-linejoin: miter"/>
    </g>
   </g>
   <g id="patch_3">
    <path d="M 90 320.4 
L 90 43.2 
" style="fill: none; stroke: #000000; stroke-width: 0.8; stroke-linejoin: miter; stroke-linecap: square"/>
   </g>
   <g id="patch_4">
    <path d="M 343.636364 320.4 
L 343.636364 43.2 
" style="fill: none; stroke: #000000; stroke-width: 0.8; stroke-linejoin: miter; stroke-linecap: square"/>
   </g>
   <g id="patch_5">
    <path d="M 90 320.4 
L 343.636364 320.4 
" style="fill: none; stroke: #000000; stroke-width: 0.8; stroke-linejoin: miter; stroke-linecap: square"/>
   </g>
   <g id="patch_6">
    <path d="M 90 43.2 
L 343.636364 43.2 
" style="fill: none; stroke: #000000; stroke-width: 0.8; stroke-linejoin: miter; stroke-linecap: square"/>
   </g>
   <g id="text_14">
    <!-- Frost2013a fm_API10x2_aPTT -->
    <g transform="translate(113.775994 37.2) scale(0.14 -0.14)">
     <defs>
      <path id="DejaVuSans-46" d="M 628 4666 
L 3309 4666 
L 3309 4134 
L 1259 4134 
L 1259 2759 
L 3109 2759 
L 3109 2228 
L 1259 2228 
L 1259 0 
L 628 0 
L 628 4666 
z
" transform="scale(0.015625)"/>
      <path id="DejaVuSans-72" d="M 2631 2963 
Q 2534 3019 2420 3045 
Q 2306 3072 2169 3072 
Q 1681 3072 1420 2755 
Q 1159 2438 1159 1844 
L 1159 0 
L 581 0 
L 581 3500 
L 1159 3500 
L 1159 2956 
Q 1341 3275 1631 3429 
Q 1922 3584 2338 3584 
Q 2397 3584 2469 3576 
Q 2541 3569 2628 3553 
L 2631 2963 
z
" transform="scale(0.015625)"/>
      <path id="DejaVuSans-6f" d="M 1959 3097 
Q 1497 3097 1228 2736 
Q 959 2375 959 1747 
Q 959 1119 1226 758 
Q 1494 397 1959 397 
Q 2419 397 2687 759 
Q 2956 1122 2956 1747 
Q 2956 2369 2687 2733 
Q 2419 3097 1959 3097 
z
M 1959 3584 
Q 2709 3584 3137 3096 
Q 3566 2609 3566 1747 
Q 3566 888 3137 398 
Q 2709 -91 1959 -91 
Q 1206 -91 779 398 
Q 353 888 353 1747 
Q 353 2609 779 3096 
Q 1206 3584 1959 3584 
z
" transform="scale(0.015625)"/>
      <path id="DejaVuSans-73" d="M 2834 3397 
L 2834 2853 
Q 2591 2978 2328 3040 
Q 2066 3103 1784 3103 
Q 1356 3103 1142 2972 
Q 928 2841 928 2578 
Q 928 2378 1081 2264 
Q 1234 2150 1697 2047 
L 1894 2003 
Q 2506 1872 2764 1633 
Q 3022 1394 3022 966 
Q 3022 478 2636 193 
Q 2250 -91 1575 -91 
Q 1294 -91 989 -36 
Q 684 19 347 128 
L 347 722 
Q 666 556 975 473 
Q 1284 391 1588 391 
Q 1994 391 2212 530 
Q 2431 669 2431 922 
Q 2431 1156 2273 1281 
Q 2116 1406 1581 1522 
L 1381 1569 
Q 847 1681 609 1914 
Q 372 2147 372 2553 
Q 372 3047 722 3315 
Q 1072 3584 1716 3584 
Q 2034 3584 2315 3537 
Q 2597 3491 2834 3397 
z
" transform="scale(0.015625)"/>
      <path id="DejaVuSans-20" transform="scale(0.015625)"/>
      <path id="DejaVuSans-66" d="M 2375 4863 
L 2375 4384 
L 1825 4384 
Q 1516 4384 1395 4259 
Q 1275 4134 1275 3809 
L 1275 3500 
L 2222 3500 
L 2222 3053 
L 1275 3053 
L 1275 0 
L 697 0 
L 697 3053 
L 147 3053 
L 147 3500 
L 697 3500 
L 697 3744 
Q 697 4328 969 4595 
Q 1241 4863 1831 4863 
L 2375 4863 
z
" transform="scale(0.015625)"/>
      <path id="DejaVuSans-5f" d="M 3263 -1063 
L 3263 -1509 
L -63 -1509 
L -63 -1063 
L 3263 -1063 
z
" transform="scale(0.015625)"/>
      <path id="DejaVuSans-41" d="M 2188 4044 
L 1331 1722 
L 3047 1722 
L 2188 4044 
z
M 1831 4666 
L 2547 4666 
L 4325 0 
L 3669 0 
L 3244 1197 
L 1141 1197 
L 716 0 
L 50 0 
L 1831 4666 
z
" transform="scale(0.015625)"/>
      <path id="DejaVuSans-49" d="M 628 4666 
L 1259 4666 
L 1259 0 
L 628 0 
L 628 4666 
z
" transform="scale(0.015625)"/>
      <path id="DejaVuSans-78" d="M 3513 3500 
L 2247 1797 
L 3578 0 
L 2900 0 
L 1881 1375 
L 863 0 
L 184 0 
L 1544 1831 
L 300 3500 
L 978 3500 
L 1906 2253 
L 2834 3500 
L 3513 3500 
z
" transform="scale(0.015625)"/>
     </defs>
     <use xlink:href="#DejaVuSans-46"/>
     <use xlink:href="#DejaVuSans-72" transform="translate(50.269531 0)"/>
     <use xlink:href="#DejaVuSans-6f" transform="translate(89.132812 0)"/>
     <use xlink:href="#DejaVuSans-73" transform="translate(150.314453 0)"/>
     <use xlink:href="#DejaVuSans-74" transform="translate(202.414062 0)"/>
     <use xlink:href="#DejaVuSans-32" transform="translate(241.623047 0)"/>
     <use xlink:href="#DejaVuSans-30" transform="translate(305.246094 0)"/>
     <use xlink:href="#DejaVuSans-31" transform="translate(368.869141 0)"/>
     <use xlink:href="#DejaVuSans-33" transform="translate(432.492188 0)"/>
     <use xlink:href="#DejaVuSans-61" transform="translate(496.115234 0)"/>
     <use xlink:href="#DejaVuSans-20" transform="translate(557.394531 0)"/>
     <use xlink:href="#DejaVuSans-66" transform="translate(589.181641 0)"/>
     <use xlink:href="#DejaVuSans-6d" transform="translate(624.386719 0)"/>
     <use xlink:href="#DejaVuSans-5f" transform="translate(721.798828 0)"/>
     <use xlink:href="#DejaVuSans-41" transform="translate(771.798828 0)"/>
     <use xlink:href="#DejaVuSans-50" transform="translate(840.207031 0)"/>
     <use xlink:href="#DejaVuSans-49" transform="translate(900.509766 0)"/>
     <use xlink:href="#DejaVuSans-31" transform="translate(930.001953 0)"/>
     <use xlink:href="#DejaVuSans-30" transform="translate(993.625 0)"/>
     <use xlink:href="#DejaVuSans-78" transform="translate(1057.248047 0)"/>
     <use xlink:href="#DejaVuSans-32" transform="translate(1116.427734 0)"/>
     <use xlink:href="#DejaVuSans-5f" transform="translate(1180.050781 0)"/>
     <use xlink:href="#DejaVuSans-61" transform="translate(1230.050781 0)"/>
     <use xlink:href="#DejaVuSans-50" transform="translate(1291.330078 0)"/>
     <use xlink:href="#DejaVuSans-54" transform="translate(1351.632812 0)"/>
     <use xlink:href="#DejaVuSans-54" transform="translate(1410.966797 0)"/>
    </g>
   </g>
   <g id="legend_1">
    <g id="patch_7">
     <path d="M 200.586364 80.834375 
L 336.636364 80.834375 
Q 338.636364 80.834375 338.636364 78.834375 
L 338.636364 50.2 
Q 338.636364 48.2 336.636364 48.2 
L 200.586364 48.2 
Q 198.586364 48.2 198.586364 50.2 
L 198.586364 78.834375 
Q 198.586364 80.834375 200.586364 80.834375 
z
" style="fill: #ffffff; opacity: 0.8; stroke: #cccccc; stroke-linejoin: miter"/>
    </g>
    <g id="line2d_14">
     <path d="M 202.586364 56.298437 
L 212.586364 56.298437 
L 222.586364 56.298437 
" style="fill: none; stroke: #0000ff; stroke-width: 1.5; stroke-linecap: square"/>
    </g>
    <g id="text_15">
     <!-- observable -->
     <g transform="translate(230.586364 59.798437) scale(0.1 -0.1)">
      <defs>
       <path id="DejaVuSans-62" d="M 3116 1747 
Q 3116 2381 2855 2742 
Q 2594 3103 2138 3103 
Q 1681 3103 1420 2742 
Q 1159 2381 1159 1747 
Q 1159 1113 1420 752 
Q 1681 391 2138 391 
Q 2594 391 2855 752 
Q 3116 1113 3116 1747 
z
M 1159 2969 
Q 1341 3281 1617 3432 
Q 1894 3584 2278 3584 
Q 2916 3584 3314 3078 
Q 3713 2572 3713 1747 
Q 3713 922 3314 415 
Q 2916 -91 2278 -91 
Q 1894 -91 1617 61 
Q 1341 213 1159 525 
L 1159 0 
L 581 0 
L 581 4863 
L 1159 4863 
L 1159 2969 
z
" transform="scale(0.015625)"/>
       <path id="DejaVuSans-76" d="M 191 3500 
L 800 3500 
L 1894 563 
L 2988 3500 
L 3597 3500 
L 2284 0 
L 1503 0 
L 191 3500 
z
" transform="scale(0.015625)"/>
       <path id="DejaVuSans-6c" d="M 603 4863 
L 1178 4863 
L 1178 0 
L 603 0 
L 603 4863 
z
" transform="scale(0.015625)"/>
      </defs>
      <use xlink:href="#DejaVuSans-6f"/>
      <use xlink:href="#DejaVuSans-62" transform="translate(61.181641 0)"/>
      <use xlink:href="#DejaVuSans-73" transform="translate(124.658203 0)"/>
      <use xlink:href="#DejaVuSans-65" transform="translate(176.757812 0)"/>
      <use xlink:href="#DejaVuSans-72" transform="translate(238.28125 0)"/>
      <use xlink:href="#DejaVuSans-76" transform="translate(279.394531 0)"/>
      <use xlink:href="#DejaVuSans-61" transform="translate(338.574219 0)"/>
      <use xlink:href="#DejaVuSans-62" transform="translate(399.853516 0)"/>
      <use xlink:href="#DejaVuSans-6c" transform="translate(463.330078 0)"/>
      <use xlink:href="#DejaVuSans-65" transform="translate(491.113281 0)"/>
     </g>
    </g>
    <g id="LineCollection_2">
     <path d="M 212.586364 75.976562 
L 212.586364 65.976562 
" style="fill: none; stroke: #000000; stroke-width: 1.5"/>
    </g>
    <g id="line2d_15">
     <path d="M 202.586364 70.976562 
L 222.586364 70.976562 
" style="fill: none; stroke: #000000; stroke-width: 1.5; stroke-linecap: square"/>
    </g>
    <g id="line2d_16">
     <g>
      <use xlink:href="#mcdf38826cd" x="212.586364" y="70.976562" style="stroke: #000000; stroke-linejoin: miter"/>
     </g>
    </g>
    <g id="text_16">
     <!-- reference_data ± SD -->
     <g transform="translate(230.586364 74.476562) scale(0.1 -0.1)">
      <defs>
       <path id="DejaVuSans-6e" d="M 3513 2113 
L 3513 0 
L 2938 0 
L 2938 2094 
Q 2938 2591 2744 2837 
Q 2550 3084 2163 3084 
Q 1697 3084 1428 2787 
Q 1159 2491 1159 1978 
L 1159 0 
L 581 0 
L 581 3500 
L 1159 3500 
L 1159 2956 
Q 1366 3272 1645 3428 
Q 1925 3584 2291 3584 
Q 2894 3584 3203 3211 
Q 3513 2838 3513 2113 
z
" transform="scale(0.015625)"/>
       <path id="DejaVuSans-63" d="M 3122 3366 
L 3122 2828 
Q 2878 2963 2633 3030 
Q 2388 3097 2138 3097 
Q 1578 3097 1268 2742 
Q 959 2388 959 1747 
Q 959 1106 1268 751 
Q 1578 397 2138 397 
Q 2388 397 2633 464 
Q 2878 531 3122 666 
L 3122 134 
Q 2881 22 2623 -34 
Q 2366 -91 2075 -91 
Q 1284 -91 818 406 
Q 353 903 353 1747 
Q 353 2603 823 3093 
Q 1294 3584 2113 3584 
Q 2378 3584 2631 3529 
Q 2884 3475 3122 3366 
z
" transform="scale(0.015625)"/>
       <path id="DejaVuSans-64" d="M 2906 2969 
L 2906 4863 
L 3481 4863 
L 3481 0 
L 2906 0 
L 2906 525 
Q 2725 213 2448 61 
Q 2172 -91 1784 -91 
Q 1150 -91 751 415 
Q 353 922 353 1747 
Q 353 2572 751 3078 
Q 1150 3584 1784 3584 
Q 2172 3584 2448 3432 
Q 2725 3281 2906 2969 
z
M 947 1747 
Q 947 1113 1208 752 
Q 1469 391 1925 391 
Q 2381 391 2643 752 
Q 2906 1113 2906 1747 
Q 2906 2381 2643 2742 
Q 2381 3103 1925 3103 
Q 1469 3103 1208 2742 
Q 947 2381 947 1747 
z
" transform="scale(0.015625)"/>
       <path id="DejaVuSans-b1" d="M 2944 4013 
L 2944 2803 
L 4684 2803 
L 4684 2272 
L 2944 2272 
L 2944 1063 
L 2419 1063 
L 2419 2272 
L 678 2272 
L 678 2803 
L 2419 2803 
L 2419 4013 
L 2944 4013 
z
M 678 531 
L 4684 531 
L 4684 0 
L 678 0 
L 678 531 
z
" transform="scale(0.015625)"/>
       <path id="DejaVuSans-53" d="M 3425 4513 
L 3425 3897 
Q 3066 4069 2747 4153 
Q 2428 4238 2131 4238 
Q 1616 4238 1336 4038 
Q 1056 3838 1056 3469 
Q 1056 3159 1242 3001 
Q 1428 2844 1947 2747 
L 2328 2669 
Q 3034 2534 3370 2195 
Q 3706 1856 3706 1288 
Q 3706 609 3251 259 
Q 2797 -91 1919 -91 
Q 1588 -91 1214 -16 
Q 841 59 441 206 
L 441 856 
Q 825 641 1194 531 
Q 1563 422 1919 422 
Q 2459 422 2753 634 
Q 3047 847 3047 1241 
Q 3047 1584 2836 1778 
Q 2625 1972 2144 2069 
L 1759 2144 
Q 1053 2284 737 2584 
Q 422 2884 422 3419 
Q 422 4038 858 4394 
Q 1294 4750 2059 4750 
Q 2388 4750 2728 4690 
Q 3069 4631 3425 4513 
z
" transform="scale(0.015625)"/>
       <path id="DejaVuSans-44" d="M 1259 4147 
L 1259 519 
L 2022 519 
Q 2988 519 3436 956 
Q 3884 1394 3884 2338 
Q 3884 3275 3436 3711 
Q 2988 4147 2022 4147 
L 1259 4147 
z
M 628 4666 
L 1925 4666 
Q 3281 4666 3915 4102 
Q 4550 3538 4550 2338 
Q 4550 1131 3912 565 
Q 3275 0 1925 0 
L 628 0 
L 628 4666 
z
" transform="scale(0.015625)"/>
      </defs>
      <use xlink:href="#DejaVuSans-72"/>
      <use xlink:href="#DejaVuSans-65" transform="translate(38.863281 0)"/>
      <use xlink:href="#DejaVuSans-66" transform="translate(100.386719 0)"/>
      <use xlink:href="#DejaVuSans-65" transform="translate(135.591797 0)"/>
      <use xlink:href="#DejaVuSans-72" transform="translate(197.115234 0)"/>
      <use xlink:href="#DejaVuSans-65" transform="translate(235.978516 0)"/>
      <use xlink:href="#DejaVuSans-6e" transform="translate(297.501953 0)"/>
      <use xlink:href="#DejaVuSans-63" transform="translate(360.880859 0)"/>
      <use xlink:href="#DejaVuSans-65" transform="translate(415.861328 0)"/>
      <use xlink:href="#DejaVuSans-5f" transform="translate(477.384766 0)"/>
      <use xlink:href="#DejaVuSans-64" transform="translate(527.384766 0)"/>
      <use xlink:href="#DejaVuSans-61" transform="translate(590.861328 0)"/>
      <use xlink:href="#DejaVuSans-74" transform="translate(652.140625 0)"/>
      <use xlink:href="#DejaVuSans-61" transform="translate(691.349609 0)"/>
      <use xlink:href="#DejaVuSans-20" transform="translate(752.628906 0)"/>
      <use xlink:href="#DejaVuSans-b1" transform="translate(784.416016 0)"/>
      <use xlink:href="#DejaVuSans-20" transform="translate(868.205078 0)"/>
      <use xlink:href="#DejaVuSans-53" transform="translate(899.992188 0)"/>
      <use xlink:href="#DejaVuSans-44" transform="translate(963.46875 0)"/>
     </g>
    </g>
   </g>
  </g>
  <g id="axes_2">
   <g id="patch_8">
    <path d="M 394.363636 320.4 
L 648 320.4 
L 648 43.2 
L 394.363636 43.2 
z
" style="fill: #ffffff"/>
   </g>
   <g id="matplotlib.axis_3">
    <g id="xtick_7">
     <g id="line2d_17">
      <g>
       <use xlink:href="#m5330700c6a" x="415.5" y="320.4" style="stroke: #000000; stroke-width: 0.8"/>
      </g>
     </g>
     <g id="text_17">
      <!-- 0 -->
      <g transform="translate(412.31875 334.998438) scale(0.1 -0.1)">
       <use xlink:href="#DejaVuSans-30"/>
      </g>
     </g>
    </g>
    <g id="xtick_8">
     <g id="line2d_18">
      <g>
       <use xlink:href="#m5330700c6a" x="457.437229" y="320.4" style="stroke: #000000; stroke-width: 0.8"/>
      </g>
     </g>
     <g id="text_18">
      <!-- 2000 -->
      <g transform="translate(444.712229 334.998438) scale(0.1 -0.1)">
       <use xlink:href="#DejaVuSans-32"/>
       <use xlink:href="#DejaVuSans-30" transform="translate(63.623047 0)"/>
       <use xlink:href="#DejaVuSans-30" transform="translate(127.246094 0)"/>
       <use xlink:href="#DejaVuSans-30" transform="translate(190.869141 0)"/>
      </g>
     </g>
    </g>
    <g id="xtick_9">
     <g id="line2d_19">
      <g>
       <use xlink:href="#m5330700c6a" x="499.374459" y="320.4" style="stroke: #000000; stroke-width: 0.8"/>
      </g>
     </g>
     <g id="text_19">
      <!-- 4000 -->
      <g transform="translate(486.649459 334.998438) scale(0.1 -0.1)">
       <use xlink:href="#DejaVuSans-34"/>
       <use xlink:href="#DejaVuSans-30" transform="translate(63.623047 0)"/>
       <use xlink:href="#DejaVuSans-30" transform="translate(127.246094 0)"/>
       <use xlink:href="#DejaVuSans-30" transform="translate(190.869141 0)"/>
      </g>
     </g>
    </g>
    <g id="xtick_10">
     <g id="line2d_20">
      <g>
       <use xlink:href="#m5330700c6a" x="541.311688" y="320.4" style="stroke: #000000; stroke-width: 0.8"/>
      </g>
     </g>
     <g id="text_20">
      <!-- 6000 -->
      <g transform="translate(528.586688 334.998438) scale(0.1 -0.1)">
       <use xlink:href="#DejaVuSans-36"/>
       <use xlink:href="#DejaVuSans-30" transform="translate(63.623047 0)"/>
       <use xlink:href="#DejaVuSans-30" transform="translate(127.246094 0)"/>
       <use xlink:href="#DejaVuSans-30" transform="translate(190.869141 0)"/>
      </g>
     </g>
    </g>
    <g id="xtick_11">
     <g id="line2d_21">
      <g>
       <use xlink:href="#m5330700c6a" x="583.248918" y="320.4" style="stroke: #000000; stroke-width: 0.8"/>
      </g>
     </g>
     <g id="text_21">
      <!-- 8000 -->
      <g transform="translate(570.523918 334.998438) scale(0.1 -0.1)">
       <use xlink:href="#DejaVuSans-38"/>
       <use xlink:href="#DejaVuSans-30" transform="translate(63.623047 0)"/>
       <use xlink:href="#DejaVuSans-30" transform="translate(127.246094 0)"/>
       <use xlink:href="#DejaVuSans-30" transform="translate(190.869141 0)"/>
      </g>
     </g>
    </g>
    <g id="xtick_12">
     <g id="line2d_22">
      <g>
       <use xlink:href="#m5330700c6a" x="625.186147" y="320.4" style="stroke: #000000; stroke-width: 0.8"/>
      </g>
     </g>
     <g id="text_22">
      <!-- 10000 -->
      <g transform="translate(609.279897 334.998438) scale(0.1 -0.1)">
       <use xlink:href="#DejaVuSans-31"/>
       <use xlink:href="#DejaVuSans-30" transform="translate(63.623047 0)"/>
       <use xlink:href="#DejaVuSans-30" transform="translate(127.246094 0)"/>
       <use xlink:href="#DejaVuSans-30" transform="translate(190.869141 0)"/>
       <use xlink:href="#DejaVuSans-30" transform="translate(254.492188 0)"/>
      </g>
     </g>
    </g>
    <g id="text_23">
     <!-- time -->
     <g transform="translate(507.626506 350.19625) scale(0.12 -0.12)">
      <use xlink:href="#DejaVuSans-74"/>
      <use xlink:href="#DejaVuSans-69" transform="translate(39.208984 0)"/>
      <use xlink:href="#DejaVuSans-6d" transform="translate(66.992188 0)"/>
      <use xlink:href="#DejaVuSans-65" transform="translate(164.404297 0)"/>
     </g>
    </g>
   </g>
   <g id="matplotlib.axis_4">
    <g id="ytick_6">
     <g id="line2d_23">
      <g>
       <use xlink:href="#m9f67e3399c" x="394.363636" y="297.670383" style="stroke: #000000; stroke-width: 0.8"/>
      </g>
     </g>
     <g id="text_24">
      <!-- $\mathdefault{10^{1}}$ -->
      <g transform="translate(369.763636 301.469602) scale(0.1 -0.1)">
       <use xlink:href="#DejaVuSans-31" transform="translate(0 0.684375)"/>
       <use xlink:href="#DejaVuSans-30" transform="translate(63.623047 0.684375)"/>
       <use xlink:href="#DejaVuSans-31" transform="translate(128.203125 38.965625) scale(0.7)"/>
      </g>
     </g>
    </g>
    <g id="ytick_7">
     <g id="line2d_24">
      <defs>
       <path id="m608cea5dfd" d="M 0 0 
L -2 0 
" style="stroke: #000000; stroke-width: 0.6"/>
      </defs>
      <g>
       <use xlink:href="#m608cea5dfd" x="394.363636" y="313.975189" style="stroke: #000000; stroke-width: 0.6"/>
      </g>
     </g>
    </g>
    <g id="ytick_8">
     <g id="line2d_25">
      <g>
       <use xlink:href="#m608cea5dfd" x="394.363636" y="190.404107" style="stroke: #000000; stroke-width: 0.6"/>
      </g>
     </g>
     <g id="text_25">
      <!-- $\mathdefault{2\times10^{1}}$ -->
      <g transform="translate(352.763636 194.203325) scale(0.1 -0.1)">
       <defs>
        <path id="DejaVuSans-d7" d="M 4488 3438 
L 3059 2003 
L 4488 575 
L 4116 197 
L 2681 1631 
L 1247 197 
L 878 575 
L 2303 2003 
L 878 3438 
L 1247 3816 
L 2681 2381 
L 4116 3816 
L 4488 3438 
z
" transform="scale(0.015625)"/>
       </defs>
       <use xlink:href="#DejaVuSans-32" transform="translate(0 0.684375)"/>
       <use xlink:href="#DejaVuSans-d7" transform="translate(83.105469 0.684375)"/>
       <use xlink:href="#DejaVuSans-31" transform="translate(186.376953 0.684375)"/>
       <use xlink:href="#DejaVuSans-30" transform="translate(250 0.684375)"/>
       <use xlink:href="#DejaVuSans-31" transform="translate(314.580078 38.965625) scale(0.7)"/>
      </g>
     </g>
    </g>
    <g id="ytick_9">
     <g id="line2d_26">
      <g>
       <use xlink:href="#m608cea5dfd" x="394.363636" y="127.657357" style="stroke: #000000; stroke-width: 0.6"/>
      </g>
     </g>
     <g id="text_26">
      <!-- $\mathdefault{3\times10^{1}}$ -->
      <g transform="translate(352.763636 131.456576) scale(0.1 -0.1)">
       <use xlink:href="#DejaVuSans-33" transform="translate(0 0.684375)"/>
       <use xlink:href="#DejaVuSans-d7" transform="translate(83.105469 0.684375)"/>
       <use xlink:href="#DejaVuSans-31" transform="translate(186.376953 0.684375)"/>
       <use xlink:href="#DejaVuSans-30" transform="translate(250 0.684375)"/>
       <use xlink:href="#DejaVuSans-31" transform="translate(314.580078 38.965625) scale(0.7)"/>
      </g>
     </g>
    </g>
    <g id="ytick_10">
     <g id="line2d_27">
      <g>
       <use xlink:href="#m608cea5dfd" x="394.363636" y="83.13783" style="stroke: #000000; stroke-width: 0.6"/>
      </g>
     </g>
     <g id="text_27">
      <!-- $\mathdefault{4\times10^{1}}$ -->
      <g transform="translate(352.763636 86.937049) scale(0.1 -0.1)">
       <use xlink:href="#DejaVuSans-34" transform="translate(0 0.684375)"/>
       <use xlink:href="#DejaVuSans-d7" transform="translate(83.105469 0.684375)"/>
       <use xlink:href="#DejaVuSans-31" transform="translate(186.376953 0.684375)"/>
       <use xlink:href="#DejaVuSans-30" transform="translate(250 0.684375)"/>
       <use xlink:href="#DejaVuSans-31" transform="translate(314.580078 38.965625) scale(0.7)"/>
      </g>
     </g>
    </g>
    <g id="ytick_11">
     <g id="line2d_28">
      <g>
       <use xlink:href="#m608cea5dfd" x="394.363636" y="48.605802" style="stroke: #000000; stroke-width: 0.6"/>
      </g>
     </g>
    </g>
    <g id="text_28">
     <!-- aPTT -->
     <g transform="translate(346.268011 196.319062) rotate(-90) scale(0.12 -0.12)">
      <use xlink:href="#DejaVuSans-61"/>
      <use xlink:href="#DejaVuSans-50" transform="translate(61.279297 0)"/>
      <use xlink:href="#DejaVuSans-54" transform="translate(121.582031 0)"/>
      <use xlink:href="#DejaVuSans-54" transform="translate(180.916016 0)"/>
     </g>
    </g>
   </g>
   <g id="LineCollection_3">
    <path d="M 415.5 139.833676 
L 415.5 128.536782 
" clip-path="url(#pd71a1a91c7)" style="fill: none; stroke: #000000; stroke-width: 1.5"/>
    <path d="M 419.274351 129.94387 
L 419.274351 109.475995 
" clip-path="url(#pd71a1a91c7)" style="fill: none; stroke: #000000; stroke-width: 1.5"/>
    <path d="M 423.048701 132.637123 
L 423.048701 97.945364 
" clip-path="url(#pd71a1a91c7)" style="fill: none; stroke: #000000; stroke-width: 1.5"/>
    <path d="M 426.823052 132.690403 
L 426.823052 114.321141 
" clip-path="url(#pd71a1a91c7)" style="fill: none; stroke: #000000; stroke-width: 1.5"/>
    <path d="M 430.597403 132.637123 
L 430.597403 121.935444 
" clip-path="url(#pd71a1a91c7)" style="fill: none; stroke: #000000; stroke-width: 1.5"/>
    <path d="M 434.371753 136.903821 
L 434.371753 86.185315 
" clip-path="url(#pd71a1a91c7)" style="fill: none; stroke: #000000; stroke-width: 1.5"/>
    <path d="M 438.146104 134.028407 
L 438.146104 94.659804 
" clip-path="url(#pd71a1a91c7)" style="fill: none; stroke: #000000; stroke-width: 1.5"/>
    <path d="M 441.920455 131.258236 
L 441.920455 120.648308 
" clip-path="url(#pd71a1a91c7)" style="fill: none; stroke: #000000; stroke-width: 1.5"/>
    <path d="M 445.694805 132.637123 
L 445.694805 124.542286 
" clip-path="url(#pd71a1a91c7)" style="fill: none; stroke: #000000; stroke-width: 1.5"/>
    <path d="M 596.668831 139.77788 
L 596.668831 103.625391 
" clip-path="url(#pd71a1a91c7)" style="fill: none; stroke: #000000; stroke-width: 1.5"/>
    <path d="M 600.443182 128.536782 
L 600.443182 94.659804 
" clip-path="url(#pd71a1a91c7)" style="fill: none; stroke: #000000; stroke-width: 1.5"/>
    <path d="M 604.217532 124.491738 
L 604.217532 102.481353 
" clip-path="url(#pd71a1a91c7)" style="fill: none; stroke: #000000; stroke-width: 1.5"/>
    <path d="M 607.991883 132.690403 
L 607.991883 102.481353 
" clip-path="url(#pd71a1a91c7)" style="fill: none; stroke: #000000; stroke-width: 1.5"/>
    <path d="M 611.766234 128.588669 
L 611.766234 113.095559 
" clip-path="url(#pd71a1a91c7)" style="fill: none; stroke: #000000; stroke-width: 1.5"/>
    <path d="M 615.540584 113.095559 
L 615.540584 61.509317 
" clip-path="url(#pd71a1a91c7)" style="fill: none; stroke: #000000; stroke-width: 1.5"/>
    <path d="M 619.314935 139.722103 
L 619.314935 48.080536 
" clip-path="url(#pd71a1a91c7)" style="fill: none; stroke: #000000; stroke-width: 1.5"/>
    <path d="M 623.089286 120.648308 
L 623.089286 115.604219 
" clip-path="url(#pd71a1a91c7)" style="fill: none; stroke: #000000; stroke-width: 1.5"/>
    <path d="M 626.863636 145.69126 
L 626.863636 86.185315 
" clip-path="url(#pd71a1a91c7)" style="fill: none; stroke: #000000; stroke-width: 1.5"/>
   </g>
   <g id="line2d_29">
    <path d="M 415.5 134.082169 
L 415.510014 133.980717 
L 416.135466 121.863997 
L 416.515381 118.545884 
L 417.002405 116.200302 
L 417.474376 115.049601 
L 417.870837 114.575656 
L 418.267298 114.382569 
L 418.86199 114.419573 
L 419.654912 114.808014 
L 420.861718 115.719409 
L 427.511319 121.166255 
L 430.597403 123.275201 
L 430.599272 123.55523 
L 430.699255 121.789216 
L 431.114188 116.508404 
L 431.554739 113.52571 
L 431.956972 112.034343 
L 432.320443 111.277972 
L 432.807507 110.80332 
L 433.29457 110.70943 
L 433.781634 110.844934 
L 434.593408 111.354784 
L 436.061134 112.655259 
L 441.533472 117.794442 
L 444.30512 120.083679 
L 445.694805 121.135435 
L 445.696671 121.350352 
L 445.805453 119.587951 
L 446.202674 114.932931 
L 446.603036 112.33137 
L 447.077316 110.678099 
L 447.500316 109.947293 
L 447.992531 109.61128 
L 448.484747 109.609905 
L 449.16316 109.921429 
L 450.191843 110.736634 
L 452.506379 113.004414 
L 456.308226 116.668651 
L 459.096617 119.086933 
L 460.792208 120.430767 
L 460.794117 120.774468 
L 460.894729 119.173044 
L 461.275377 114.689056 
L 461.671768 112.063533 
L 462.074367 110.560549 
L 462.39447 109.872181 
L 462.87166 109.3639 
L 463.34885 109.246157 
L 463.946609 109.421328 
L 464.768172 109.977505 
L 465.956526 111.062133 
L 472.765212 117.636902 
L 475.892332 120.428307 
L 475.908936 120.234309 
L 476.329345 114.822409 
L 476.769486 111.850133 
L 477.115376 110.530668 
L 477.565548 109.585585 
L 478.015721 109.175747 
L 478.315836 109.092388 
L 478.783246 109.160501 
L 479.484363 109.542713 
L 480.65289 110.537198 
L 484.280525 114.171414 
L 487.707338 117.38959 
L 490.989764 120.18757 
L 490.996494 120.142112 
L 491.744708 112.349846 
L 492.134809 110.645904 
L 492.575066 109.606129 
L 493.015323 109.127072 
L 493.45558 108.990991 
L 494.015219 109.119014 
L 494.831893 109.639829 
L 496.004012 110.695395 
L 503.568167 117.990606 
L 506.087164 120.204115 
L 506.10238 120.034562 
L 506.518221 114.707199 
L 506.951311 111.77198 
L 507.283382 110.482006 
L 507.738169 109.499897 
L 508.192956 109.074261 
L 508.647743 108.985397 
L 509.338135 109.224618 
L 510.139782 109.802875 
L 511.617231 111.197956 
L 516.847799 116.358299 
L 519.673757 118.839608 
L 521.184566 120.205444 
L 521.204552 119.956354 
L 521.622132 114.648264 
L 522.07525 111.644346 
L 522.423302 110.35714 
L 522.884313 109.431873 
L 523.345324 109.047926 
L 523.652664 108.982364 
L 524.118717 109.072276 
L 524.817797 109.472088 
L 525.982929 110.477333 
L 534.76403 118.832919 
L 536.281968 120.217353 
L 536.301946 119.968213 
L 536.726687 114.591853 
L 537.156689 111.726407 
L 537.644673 110.042229 
L 537.994692 109.419389 
L 538.45917 109.045105 
L 538.923647 108.99702 
L 539.358306 109.136346 
L 540.249807 109.734694 
L 541.763865 111.151634 
L 547.446314 116.729973 
L 550.349655 119.237922 
L 551.376623 120.057994 
L 551.378539 120.670407 
L 551.487531 118.935619 
L 551.892817 114.297515 
L 552.313309 111.681296 
L 552.739083 110.241561 
L 553.170139 109.496038 
L 553.57445 109.194579 
L 553.952014 109.13656 
L 554.518361 109.305626 
L 555.38035 109.892656 
L 556.858557 111.271821 
L 562.285157 116.596692 
L 565.554388 119.4163 
L 566.474026 120.145239 
L 566.475953 120.538458 
L 566.579219 118.90846 
L 566.930426 114.736956 
L 567.406766 111.646317 
L 567.883106 110.09354 
L 568.272513 109.457712 
L 568.661919 109.170374 
L 568.988373 109.109057 
L 569.529725 109.242528 
L 570.203491 109.656495 
L 571.326435 110.636334 
L 579.989301 118.859028 
L 581.571429 120.13116 
L 581.573368 120.377129 
L 581.677393 118.750544 
L 582.03765 114.540854 
L 582.491035 111.622573 
L 582.94442 110.106076 
L 583.402295 109.360569 
L 583.817076 109.092116 
L 584.304837 109.080314 
L 585.170658 109.512077 
L 586.319428 110.489962 
L 589.538108 113.720372 
L 592.921222 116.944416 
L 596.237602 119.761544 
L 596.671929 120.196817 
L 596.68841 120.001404 
L 597.133656 114.430151 
L 597.535982 111.773236 
L 597.910893 110.360025 
L 598.376137 109.431373 
L 598.729315 109.105975 
L 599.082493 108.99239 
L 599.61226 109.081751 
L 600.318615 109.489234 
L 601.290225 110.314472 
L 603.942761 112.97228 
L 607.673224 116.585014 
L 610.61729 119.14119 
L 611.768989 120.154075 
L 611.785849 119.958007 
L 612.187313 114.789973 
L 612.645077 111.687978 
L 613.027134 110.281419 
L 613.501038 109.372233 
L 613.807536 109.09416 
L 614.183581 108.969534 
L 614.747649 109.075152 
L 615.499739 109.530441 
L 616.627874 110.52231 
L 624.411318 118.028181 
L 627.220517 120.326183 
L 630.029716 122.368464 
L 632.838915 124.162266 
L 635.648114 125.721668 
L 638.457314 127.065199 
L 641.968812 128.473087 
L 645.480311 129.618941 
L 648.289511 130.374674 
L 648.289511 130.374674 
" clip-path="url(#pd71a1a91c7)" style="fill: none; stroke: #0000ff; stroke-width: 1.5; stroke-linecap: square"/>
   </g>
   <g id="line2d_30">
    <path d="M 415.5 134.082169 
L 419.274351 119.371789 
L 423.048701 114.321141 
L 426.823052 123.233376 
L 430.597403 127.193795 
L 434.371753 109.475995 
L 438.146104 113.095559 
L 441.920455 125.862362 
L 445.694805 128.536782 
L 596.668831 120.648308 
L 600.443182 110.673134 
L 604.217532 113.095559 
L 607.991883 116.849912 
L 611.766234 120.648308 
L 615.540584 85.162804 
L 619.314935 87.214627 
L 623.089286 118.105713 
L 626.863636 113.095559 
" clip-path="url(#pd71a1a91c7)" style="fill: none; stroke: #000000; stroke-width: 1.5; stroke-linecap: square"/>
    <g clip-path="url(#pd71a1a91c7)">
     <use xlink:href="#mcdf38826cd" x="415.5" y="134.082169" style="stroke: #000000; stroke-linejoin: miter"/>
     <use xlink:href="#mcdf38826cd" x="419.274351" y="119.371789" style="stroke: #000000; stroke-linejoin: miter"/>
     <use xlink:href="#mcdf38826cd" x="423.048701" y="114.321141" style="stroke: #000000; stroke-linejoin: miter"/>
     <use xlink:href="#mcdf38826cd" x="426.823052" y="123.233376" style="stroke: #000000; stroke-linejoin: miter"/>
     <use xlink:href="#mcdf38826cd" x="430.597403" y="127.193795" style="stroke: #000000; stroke-linejoin: miter"/>
     <use xlink:href="#mcdf38826cd" x="434.371753" y="109.475995" style="stroke: #000000; stroke-linejoin: miter"/>
     <use xlink:href="#mcdf38826cd" x="438.146104" y="113.095559" style="stroke: #000000; stroke-linejoin: miter"/>
     <use xlink:href="#mcdf38826cd" x="441.920455" y="125.862362" style="stroke: #000000; stroke-linejoin: miter"/>
     <use xlink:href="#mcdf38826cd" x="445.694805" y="128.536782" style="stroke: #000000; stroke-linejoin: miter"/>
     <use xlink:href="#mcdf38826cd" x="596.668831" y="120.648308" style="stroke: #000000; stroke-linejoin: miter"/>
     <use xlink:href="#mcdf38826cd" x="600.443182" y="110.673134" style="stroke: #000000; stroke-linejoin: miter"/>
     <use xlink:href="#mcdf38826cd" x="604.217532" y="113.095559" style="stroke: #000000; stroke-linejoin: miter"/>
     <use xlink:href="#mcdf38826cd" x="607.991883" y="116.849912" style="stroke: #000000; stroke-linejoin: miter"/>
     <use xlink:href="#mcdf38826cd" x="611.766234" y="120.648308" style="stroke: #000000; stroke-linejoin: miter"/>
     <use xlink:href="#mcdf38826cd" x="615.540584" y="85.162804" style="stroke: #000000; stroke-linejoin: miter"/>
     <use xlink:href="#mcdf38826cd" x="619.314935" y="87.214627" style="stroke: #000000; stroke-linejoin: miter"/>
     <use xlink:href="#mcdf38826cd" x="623.089286" y="118.105713" style="stroke: #000000; stroke-linejoin: miter"/>
     <use xlink:href="#mcdf38826cd" x="626.863636" y="113.095559" style="stroke: #000000; stroke-linejoin: miter"/>
    </g>
   </g>
   <g id="patch_9">
    <path d="M 394.363636 320.4 
L 394.363636 43.2 
" style="fill: none; stroke: #000000; stroke-width: 0.8; stroke-linejoin: miter; stroke-linecap: square"/>
   </g>
   <g id="patch_10">
    <path d="M 648 320.4 
L 648 43.2 
" style="fill: none; stroke: #000000; stroke-width: 0.8; stroke-linejoin: miter; stroke-linecap: square"/>
   </g>
   <g id="patch_11">
    <path d="M 394.363636 320.4 
L 648 320.4 
" style="fill: none; stroke: #000000; stroke-width: 0.8; stroke-linejoin: miter; stroke-linecap: square"/>
   </g>
   <g id="patch_12">
    <path d="M 394.363636 43.2 
L 648 43.2 
" style="fill: none; stroke: #000000; stroke-width: 0.8; stroke-linejoin: miter; stroke-linecap: square"/>
   </g>
   <g id="text_29">
    <!-- Frost2013a fm_API10x2_aPTT -->
    <g transform="translate(418.139631 37.2) scale(0.14 -0.14)">
     <use xlink:href="#DejaVuSans-46"/>
     <use xlink:href="#DejaVuSans-72" transform="translate(50.269531 0)"/>
     <use xlink:href="#DejaVuSans-6f" transform="translate(89.132812 0)"/>
     <use xlink:href="#DejaVuSans-73" transform="translate(150.314453 0)"/>
     <use xlink:href="#DejaVuSans-74" transform="translate(202.414062 0)"/>
     <use xlink:href="#DejaVuSans-32" transform="translate(241.623047 0)"/>
     <use xlink:href="#DejaVuSans-30" transform="translate(305.246094 0)"/>
     <use xlink:href="#DejaVuSans-31" transform="translate(368.869141 0)"/>
     <use xlink:href="#DejaVuSans-33" transform="translate(432.492188 0)"/>
     <use xlink:href="#DejaVuSans-61" transform="translate(496.115234 0)"/>
     <use xlink:href="#DejaVuSans-20" transform="translate(557.394531 0)"/>
     <use xlink:href="#DejaVuSans-66" transform="translate(589.181641 0)"/>
     <use xlink:href="#DejaVuSans-6d" transform="translate(624.386719 0)"/>
     <use xlink:href="#DejaVuSans-5f" transform="translate(721.798828 0)"/>
     <use xlink:href="#DejaVuSans-41" transform="translate(771.798828 0)"/>
     <use xlink:href="#DejaVuSans-50" transform="translate(840.207031 0)"/>
     <use xlink:href="#DejaVuSans-49" transform="translate(900.509766 0)"/>
     <use xlink:href="#DejaVuSans-31" transform="translate(930.001953 0)"/>
     <use xlink:href="#DejaVuSans-30" transform="translate(993.625 0)"/>
     <use xlink:href="#DejaVuSans-78" transform="translate(1057.248047 0)"/>
     <use xlink:href="#DejaVuSans-32" transform="translate(1116.427734 0)"/>
     <use xlink:href="#DejaVuSans-5f" transform="translate(1180.050781 0)"/>
     <use xlink:href="#DejaVuSans-61" transform="translate(1230.050781 0)"/>
     <use xlink:href="#DejaVuSans-50" transform="translate(1291.330078 0)"/>
     <use xlink:href="#DejaVuSans-54" transform="translate(1351.632812 0)"/>
     <use xlink:href="#DejaVuSans-54" transform="translate(1410.966797 0)"/>
    </g>
   </g>
   <g id="legend_2">
    <g id="patch_13">
     <path d="M 504.95 80.834375 
L 641 80.834375 
Q 643 80.834375 643 78.834375 
L 643 50.2 
Q 643 48.2 641 48.2 
L 504.95 48.2 
Q 502.95 48.2 502.95 50.2 
L 502.95 78.834375 
Q 502.95 80.834375 504.95 80.834375 
z
" style="fill: #ffffff; opacity: 0.8; stroke: #cccccc; stroke-linejoin: miter"/>
    </g>
    <g id="line2d_31">
     <path d="M 506.95 56.298437 
L 516.95 56.298437 
L 526.95 56.298437 
" style="fill: none; stroke: #0000ff; stroke-width: 1.5; stroke-linecap: square"/>
    </g>
    <g id="text_30">
     <!-- observable -->
     <g transform="translate(534.95 59.798437) scale(0.1 -0.1)">
      <use xlink:href="#DejaVuSans-6f"/>
      <use xlink:href="#DejaVuSans-62" transform="translate(61.181641 0)"/>
      <use xlink:href="#DejaVuSans-73" transform="translate(124.658203 0)"/>
      <use xlink:href="#DejaVuSans-65" transform="translate(176.757812 0)"/>
      <use xlink:href="#DejaVuSans-72" transform="translate(238.28125 0)"/>
      <use xlink:href="#DejaVuSans-76" transform="translate(279.394531 0)"/>
      <use xlink:href="#DejaVuSans-61" transform="translate(338.574219 0)"/>
      <use xlink:href="#DejaVuSans-62" transform="translate(399.853516 0)"/>
      <use xlink:href="#DejaVuSans-6c" transform="translate(463.330078 0)"/>
      <use xlink:href="#DejaVuSans-65" transform="translate(491.113281 0)"/>
     </g>
    </g>
    <g id="LineCollection_4">
     <path d="M 516.95 75.976562 
L 516.95 65.976562 
" style="fill: none; stroke: #000000; stroke-width: 1.5"/>
    </g>
    <g id="line2d_32">
     <path d="M 506.95 70.976562 
L 526.95 70.976562 
" style="fill: none; stroke: #000000; stroke-width: 1.5; stroke-linecap: square"/>
    </g>
    <g id="line2d_33">
     <g>
      <use xlink:href="#mcdf38826cd" x="516.95" y="70.976562" style="stroke: #000000; stroke-linejoin: miter"/>
     </g>
    </g>
    <g id="text_31">
     <!-- reference_data ± SD -->
     <g transform="translate(534.95 74.476562) scale(0.1 -0.1)">
      <use xlink:href="#DejaVuSans-72"/>
      <use xlink:href="#DejaVuSans-65" transform="translate(38.863281 0)"/>
      <use xlink:href="#DejaVuSans-66" transform="translate(100.386719 0)"/>
      <use xlink:href="#DejaVuSans-65" transform="translate(135.591797 0)"/>
      <use xlink:href="#DejaVuSans-72" transform="translate(197.115234 0)"/>
      <use xlink:href="#DejaVuSans-65" transform="translate(235.978516 0)"/>
      <use xlink:href="#DejaVuSans-6e" transform="translate(297.501953 0)"/>
      <use xlink:href="#DejaVuSans-63" transform="translate(360.880859 0)"/>
      <use xlink:href="#DejaVuSans-65" transform="translate(415.861328 0)"/>
      <use xlink:href="#DejaVuSans-5f" transform="translate(477.384766 0)"/>
      <use xlink:href="#DejaVuSans-64" transform="translate(527.384766 0)"/>
      <use xlink:href="#DejaVuSans-61" transform="translate(590.861328 0)"/>
      <use xlink:href="#DejaVuSans-74" transform="translate(652.140625 0)"/>
      <use xlink:href="#DejaVuSans-61" transform="translate(691.349609 0)"/>
      <use xlink:href="#DejaVuSans-20" transform="translate(752.628906 0)"/>
      <use xlink:href="#DejaVuSans-b1" transform="translate(784.416016 0)"/>
      <use xlink:href="#DejaVuSans-20" transform="translate(868.205078 0)"/>
      <use xlink:href="#DejaVuSans-53" transform="translate(899.992188 0)"/>
      <use xlink:href="#DejaVuSans-44" transform="translate(963.46875 0)"/>
     </g>
    </g>
   </g>
  </g>
 </g>
 <defs>
  <clipPath id="p66a9437d4a">
   <rect x="90" y="43.2" width="253.636364" height="277.2"/>
  </clipPath>
  <clipPath id="pd71a1a91c7">
   <rect x="394.363636" y="43.2" width="253.636364" height="277.2"/>
  </clipPath>
 </defs>
</svg>
