<?xml version="1.0" encoding="utf-8" standalone="no"?>
<!DOCTYPE svg PUBLIC "-//W3C//DTD SVG 1.1//EN"
  "http://www.w3.org/Graphics/SVG/1.1/DTD/svg11.dtd">
<svg xmlns:xlink="http://www.w3.org/1999/xlink" width="720pt" height="360pt" viewBox="0 0 720 360" xmlns="http://www.w3.org/2000/svg" version="1.1">
 <metadata>
  <rdf:RDF xmlns:dc="http://purl.org/dc/elements/1.1/" xmlns:cc="http://creativecommons.org/ns#" xmlns:rdf="http://www.w3.org/1999/02/22-rdf-syntax-ns#">
   <cc:Work>
    <dc:type rdf:resource="http://purl.org/dc/dcmitype/StillImage"/>
    <dc:date>2026-04-17T10:54:55.767464</dc:date>
    <dc:format>image/svg+xml</dc:format>
    <dc:creator>
     <cc:Agent>
      <dc:title>Matplotlib v3.10.8, https://matplotlib.org/</dc:title>
     </cc:Agent>
    </dc:creator>
   </cc:Work>
  </rdf:RDF>
 </metadata>
 <defs>
  <style type="text/css">*{stroke-linejoin: round; stroke-linecap: butt}</style>
 </defs>
 <g id="figure_1">
  <g id="patch_1">
   <path d="M 0 360 
L 720 360 
L 720 0 
L 0 0 
z
" style="fill: #ffffff"/>
  </g>
  <g id="axes_1">
   <g id="patch_2">
    <path d="M 90 320.4 
L 343.636364 320.4 
L 343.636364 43.2 
L 90 43.2 
z
" style="fill: #ffffff"/>
   </g>
   <g id="matplotlib.axis_1">
    <g id="xtick_1">
     <g id="line2d_1">
      <defs>
       <path id="md2fc75c524" d="M 0 0 
L 0 3.5 
" style="stroke: #000000; stroke-width: 0.8"/>
      </defs>
      <g>
       <use xlink:href="#md2fc75c524" x="111.136364" y="320.4" style="stroke: #000000; stroke-width: 0.8"/>
      </g>
     </g>
     <g id="text_1">
      <!-- 0 -->
      <g transform="translate(107.955114 334.998438) scale(0.1 -0.1)">
       <defs>
        <path id="DejaVuSans-30" d="M 2034 4250 
Q 1547 4250 1301 3770 
Q 1056 3291 1056 2328 
Q 1056 1369 1301 889 
Q 1547 409 2034 409 
Q 2525 409 2770 889 
Q 3016 1369 3016 2328 
Q 3016 3291 2770 3770 
Q 2525 4250 2034 4250 
z
M 2034 4750 
Q 2819 4750 3233 4129 
Q 3647 3509 3647 2328 
Q 3647 1150 3233 529 
Q 2819 -91 2034 -91 
Q 1250 -91 836 529 
Q 422 1150 422 2328 
Q 422 3509 836 4129 
Q 1250 4750 2034 4750 
z
" transform="scale(0.015625)"/>
       </defs>
       <use xlink:href="#DejaVuSans-30"/>
      </g>
     </g>
    </g>
    <g id="xtick_2">
     <g id="line2d_2">
      <g>
       <use xlink:href="#md2fc75c524" x="153.073593" y="320.4" style="stroke: #000000; stroke-width: 0.8"/>
      </g>
     </g>
     <g id="text_2">
      <!-- 2000 -->
      <g transform="translate(140.348593 334.998438) scale(0.1 -0.1)">
       <defs>
        <path id="DejaVuSans-32" d="M 1228 531 
L 3431 531 
L 3431 0 
L 469 0 
L 469 531 
Q 828 903 1448 1529 
Q 2069 2156 2228 2338 
Q 2531 2678 2651 2914 
Q 2772 3150 2772 3378 
Q 2772 3750 2511 3984 
Q 2250 4219 1831 4219 
Q 1534 4219 1204 4116 
Q 875 4013 500 3803 
L 500 4441 
Q 881 4594 1212 4672 
Q 1544 4750 1819 4750 
Q 2544 4750 2975 4387 
Q 3406 4025 3406 3419 
Q 3406 3131 3298 2873 
Q 3191 2616 2906 2266 
Q 2828 2175 2409 1742 
Q 1991 1309 1228 531 
z
" transform="scale(0.015625)"/>
       </defs>
       <use xlink:href="#DejaVuSans-32"/>
       <use xlink:href="#DejaVuSans-30" transform="translate(63.623047 0)"/>
       <use xlink:href="#DejaVuSans-30" transform="translate(127.246094 0)"/>
       <use xlink:href="#DejaVuSans-30" transform="translate(190.869141 0)"/>
      </g>
     </g>
    </g>
    <g id="xtick_3">
     <g id="line2d_3">
      <g>
       <use xlink:href="#md2fc75c524" x="195.010823" y="320.4" style="stroke: #000000; stroke-width: 0.8"/>
      </g>
     </g>
     <g id="text_3">
      <!-- 4000 -->
      <g transform="translate(182.285823 334.998438) scale(0.1 -0.1)">
       <defs>
        <path id="DejaVuSans-34" d="M 2419 4116 
L 825 1625 
L 2419 1625 
L 2419 4116 
z
M 2253 4666 
L 3047 4666 
L 3047 1625 
L 3713 1625 
L 3713 1100 
L 3047 1100 
L 3047 0 
L 2419 0 
L 2419 1100 
L 313 1100 
L 313 1709 
L 2253 4666 
z
" transform="scale(0.015625)"/>
       </defs>
       <use xlink:href="#DejaVuSans-34"/>
       <use xlink:href="#DejaVuSans-30" transform="translate(63.623047 0)"/>
       <use xlink:href="#DejaVuSans-30" transform="translate(127.246094 0)"/>
       <use xlink:href="#DejaVuSans-30" transform="translate(190.869141 0)"/>
      </g>
     </g>
    </g>
    <g id="xtick_4">
     <g id="line2d_4">
      <g>
       <use xlink:href="#md2fc75c524" x="236.948052" y="320.4" style="stroke: #000000; stroke-width: 0.8"/>
      </g>
     </g>
     <g id="text_4">
      <!-- 6000 -->
      <g transform="translate(224.223052 334.998438) scale(0.1 -0.1)">
       <defs>
        <path id="DejaVuSans-36" d="M 2113 2584 
Q 1688 2584 1439 2293 
Q 1191 2003 1191 1497 
Q 1191 994 1439 701 
Q 1688 409 2113 409 
Q 2538 409 2786 701 
Q 3034 994 3034 1497 
Q 3034 2003 2786 2293 
Q 2538 2584 2113 2584 
z
M 3366 4563 
L 3366 3988 
Q 3128 4100 2886 4159 
Q 2644 4219 2406 4219 
Q 1781 4219 1451 3797 
Q 1122 3375 1075 2522 
Q 1259 2794 1537 2939 
Q 1816 3084 2150 3084 
Q 2853 3084 3261 2657 
Q 3669 2231 3669 1497 
Q 3669 778 3244 343 
Q 2819 -91 2113 -91 
Q 1303 -91 875 529 
Q 447 1150 447 2328 
Q 447 3434 972 4092 
Q 1497 4750 2381 4750 
Q 2619 4750 2861 4703 
Q 3103 4656 3366 4563 
z
" transform="scale(0.015625)"/>
       </defs>
       <use xlink:href="#DejaVuSans-36"/>
       <use xlink:href="#DejaVuSans-30" transform="translate(63.623047 0)"/>
       <use xlink:href="#DejaVuSans-30" transform="translate(127.246094 0)"/>
       <use xlink:href="#DejaVuSans-30" transform="translate(190.869141 0)"/>
      </g>
     </g>
    </g>
    <g id="xtick_5">
     <g id="line2d_5">
      <g>
       <use xlink:href="#md2fc75c524" x="278.885281" y="320.4" style="stroke: #000000; stroke-width: 0.8"/>
      </g>
     </g>
     <g id="text_5">
      <!-- 8000 -->
      <g transform="translate(266.160281 334.998438) scale(0.1 -0.1)">
       <defs>
        <path id="DejaVuSans-38" d="M 2034 2216 
Q 1584 2216 1326 1975 
Q 1069 1734 1069 1313 
Q 1069 891 1326 650 
Q 1584 409 2034 409 
Q 2484 409 2743 651 
Q 3003 894 3003 1313 
Q 3003 1734 2745 1975 
Q 2488 2216 2034 2216 
z
M 1403 2484 
Q 997 2584 770 2862 
Q 544 3141 544 3541 
Q 544 4100 942 4425 
Q 1341 4750 2034 4750 
Q 2731 4750 3128 4425 
Q 3525 4100 3525 3541 
Q 3525 3141 3298 2862 
Q 3072 2584 2669 2484 
Q 3125 2378 3379 2068 
Q 3634 1759 3634 1313 
Q 3634 634 3220 271 
Q 2806 -91 2034 -91 
Q 1263 -91 848 271 
Q 434 634 434 1313 
Q 434 1759 690 2068 
Q 947 2378 1403 2484 
z
M 1172 3481 
Q 1172 3119 1398 2916 
Q 1625 2713 2034 2713 
Q 2441 2713 2670 2916 
Q 2900 3119 2900 3481 
Q 2900 3844 2670 4047 
Q 2441 4250 2034 4250 
Q 1625 4250 1398 4047 
Q 1172 3844 1172 3481 
z
" transform="scale(0.015625)"/>
       </defs>
       <use xlink:href="#DejaVuSans-38"/>
       <use xlink:href="#DejaVuSans-30" transform="translate(63.623047 0)"/>
       <use xlink:href="#DejaVuSans-30" transform="translate(127.246094 0)"/>
       <use xlink:href="#DejaVuSans-30" transform="translate(190.869141 0)"/>
      </g>
     </g>
    </g>
    <g id="xtick_6">
     <g id="line2d_6">
      <g>
       <use xlink:href="#md2fc75c524" x="320.822511" y="320.4" style="stroke: #000000; stroke-width: 0.8"/>
      </g>
     </g>
     <g id="text_6">
      <!-- 10000 -->
      <g transform="translate(304.916261 334.998438) scale(0.1 -0.1)">
       <defs>
        <path id="DejaVuSans-31" d="M 794 531 
L 1825 531 
L 1825 4091 
L 703 3866 
L 703 4441 
L 1819 4666 
L 2450 4666 
L 2450 531 
L 3481 531 
L 3481 0 
L 794 0 
L 794 531 
z
" transform="scale(0.015625)"/>
       </defs>
       <use xlink:href="#DejaVuSans-31"/>
       <use xlink:href="#DejaVuSans-30" transform="translate(63.623047 0)"/>
       <use xlink:href="#DejaVuSans-30" transform="translate(127.246094 0)"/>
       <use xlink:href="#DejaVuSans-30" transform="translate(190.869141 0)"/>
       <use xlink:href="#DejaVuSans-30" transform="translate(254.492188 0)"/>
      </g>
     </g>
    </g>
    <g id="text_7">
     <!-- time -->
     <g transform="translate(203.262869 350.19625) scale(0.12 -0.12)">
      <defs>
       <path id="DejaVuSans-74" d="M 1172 4494 
L 1172 3500 
L 2356 3500 
L 2356 3053 
L 1172 3053 
L 1172 1153 
Q 1172 725 1289 603 
Q 1406 481 1766 481 
L 2356 481 
L 2356 0 
L 1766 0 
Q 1100 0 847 248 
Q 594 497 594 1153 
L 594 3053 
L 172 3053 
L 172 3500 
L 594 3500 
L 594 4494 
L 1172 4494 
z
" transform="scale(0.015625)"/>
       <path id="DejaVuSans-69" d="M 603 3500 
L 1178 3500 
L 1178 0 
L 603 0 
L 603 3500 
z
M 603 4863 
L 1178 4863 
L 1178 4134 
L 603 4134 
L 603 4863 
z
" transform="scale(0.015625)"/>
       <path id="DejaVuSans-6d" d="M 3328 2828 
Q 3544 3216 3844 3400 
Q 4144 3584 4550 3584 
Q 5097 3584 5394 3201 
Q 5691 2819 5691 2113 
L 5691 0 
L 5113 0 
L 5113 2094 
Q 5113 2597 4934 2840 
Q 4756 3084 4391 3084 
Q 3944 3084 3684 2787 
Q 3425 2491 3425 1978 
L 3425 0 
L 2847 0 
L 2847 2094 
Q 2847 2600 2669 2842 
Q 2491 3084 2119 3084 
Q 1678 3084 1418 2786 
Q 1159 2488 1159 1978 
L 1159 0 
L 581 0 
L 581 3500 
L 1159 3500 
L 1159 2956 
Q 1356 3278 1631 3431 
Q 1906 3584 2284 3584 
Q 2666 3584 2933 3390 
Q 3200 3197 3328 2828 
z
" transform="scale(0.015625)"/>
       <path id="DejaVuSans-65" d="M 3597 1894 
L 3597 1613 
L 953 1613 
Q 991 1019 1311 708 
Q 1631 397 2203 397 
Q 2534 397 2845 478 
Q 3156 559 3463 722 
L 3463 178 
Q 3153 47 2828 -22 
Q 2503 -91 2169 -91 
Q 1331 -91 842 396 
Q 353 884 353 1716 
Q 353 2575 817 3079 
Q 1281 3584 2069 3584 
Q 2775 3584 3186 3129 
Q 3597 2675 3597 1894 
z
M 3022 2063 
Q 3016 2534 2758 2815 
Q 2500 3097 2075 3097 
Q 1594 3097 1305 2825 
Q 1016 2553 972 2059 
L 3022 2063 
z
" transform="scale(0.015625)"/>
      </defs>
      <use xlink:href="#DejaVuSans-74"/>
      <use xlink:href="#DejaVuSans-69" transform="translate(39.208984 0)"/>
      <use xlink:href="#DejaVuSans-6d" transform="translate(66.992188 0)"/>
      <use xlink:href="#DejaVuSans-65" transform="translate(164.404297 0)"/>
     </g>
    </g>
   </g>
   <g id="matplotlib.axis_2">
    <g id="ytick_1">
     <g id="line2d_7">
      <defs>
       <path id="m9544e6c518" d="M 0 0 
L -3.5 0 
" style="stroke: #000000; stroke-width: 0.8"/>
      </defs>
      <g>
       <use xlink:href="#m9544e6c518" x="90" y="312.264771" style="stroke: #000000; stroke-width: 0.8"/>
      </g>
     </g>
     <g id="text_8">
      <!-- 20 -->
      <g transform="translate(70.275 316.06399) scale(0.1 -0.1)">
       <use xlink:href="#DejaVuSans-32"/>
       <use xlink:href="#DejaVuSans-30" transform="translate(63.623047 0)"/>
      </g>
     </g>
    </g>
    <g id="ytick_2">
     <g id="line2d_8">
      <g>
       <use xlink:href="#m9544e6c518" x="90" y="260.348826" style="stroke: #000000; stroke-width: 0.8"/>
      </g>
     </g>
     <g id="text_9">
      <!-- 25 -->
      <g transform="translate(70.275 264.148044) scale(0.1 -0.1)">
       <defs>
        <path id="DejaVuSans-35" d="M 691 4666 
L 3169 4666 
L 3169 4134 
L 1269 4134 
L 1269 2991 
Q 1406 3038 1543 3061 
Q 1681 3084 1819 3084 
Q 2600 3084 3056 2656 
Q 3513 2228 3513 1497 
Q 3513 744 3044 326 
Q 2575 -91 1722 -91 
Q 1428 -91 1123 -41 
Q 819 9 494 109 
L 494 744 
Q 775 591 1075 516 
Q 1375 441 1709 441 
Q 2250 441 2565 725 
Q 2881 1009 2881 1497 
Q 2881 1984 2565 2268 
Q 2250 2553 1709 2553 
Q 1456 2553 1204 2497 
Q 953 2441 691 2322 
L 691 4666 
z
" transform="scale(0.015625)"/>
       </defs>
       <use xlink:href="#DejaVuSans-32"/>
       <use xlink:href="#DejaVuSans-35" transform="translate(63.623047 0)"/>
      </g>
     </g>
    </g>
    <g id="ytick_3">
     <g id="line2d_9">
      <g>
       <use xlink:href="#m9544e6c518" x="90" y="208.43288" style="stroke: #000000; stroke-width: 0.8"/>
      </g>
     </g>
     <g id="text_10">
      <!-- 30 -->
      <g transform="translate(70.275 212.232099) scale(0.1 -0.1)">
       <defs>
        <path id="DejaVuSans-33" d="M 2597 2516 
Q 3050 2419 3304 2112 
Q 3559 1806 3559 1356 
Q 3559 666 3084 287 
Q 2609 -91 1734 -91 
Q 1441 -91 1130 -33 
Q 819 25 488 141 
L 488 750 
Q 750 597 1062 519 
Q 1375 441 1716 441 
Q 2309 441 2620 675 
Q 2931 909 2931 1356 
Q 2931 1769 2642 2001 
Q 2353 2234 1838 2234 
L 1294 2234 
L 1294 2753 
L 1863 2753 
Q 2328 2753 2575 2939 
Q 2822 3125 2822 3475 
Q 2822 3834 2567 4026 
Q 2313 4219 1838 4219 
Q 1578 4219 1281 4162 
Q 984 4106 628 3988 
L 628 4550 
Q 988 4650 1302 4700 
Q 1616 4750 1894 4750 
Q 2613 4750 3031 4423 
Q 3450 4097 3450 3541 
Q 3450 3153 3228 2886 
Q 3006 2619 2597 2516 
z
" transform="scale(0.015625)"/>
       </defs>
       <use xlink:href="#DejaVuSans-33"/>
       <use xlink:href="#DejaVuSans-30" transform="translate(63.623047 0)"/>
      </g>
     </g>
    </g>
    <g id="ytick_4">
     <g id="line2d_10">
      <g>
       <use xlink:href="#m9544e6c518" x="90" y="156.516934" style="stroke: #000000; stroke-width: 0.8"/>
      </g>
     </g>
     <g id="text_11">
      <!-- 35 -->
      <g transform="translate(70.275 160.316153) scale(0.1 -0.1)">
       <use xlink:href="#DejaVuSans-33"/>
       <use xlink:href="#DejaVuSans-35" transform="translate(63.623047 0)"/>
      </g>
     </g>
    </g>
    <g id="ytick_5">
     <g id="line2d_11">
      <g>
       <use xlink:href="#m9544e6c518" x="90" y="104.600989" style="stroke: #000000; stroke-width: 0.8"/>
      </g>
     </g>
     <g id="text_12">
      <!-- 40 -->
      <g transform="translate(70.275 108.400208) scale(0.1 -0.1)">
       <use xlink:href="#DejaVuSans-34"/>
       <use xlink:href="#DejaVuSans-30" transform="translate(63.623047 0)"/>
      </g>
     </g>
    </g>
    <g id="ytick_6">
     <g id="line2d_12">
      <g>
       <use xlink:href="#m9544e6c518" x="90" y="52.685043" style="stroke: #000000; stroke-width: 0.8"/>
      </g>
     </g>
     <g id="text_13">
      <!-- 45 -->
      <g transform="translate(70.275 56.484262) scale(0.1 -0.1)">
       <use xlink:href="#DejaVuSans-34"/>
       <use xlink:href="#DejaVuSans-35" transform="translate(63.623047 0)"/>
      </g>
     </g>
    </g>
    <g id="text_14">
     <!-- aPTT -->
     <g transform="translate(63.779375 196.319062) rotate(-90) scale(0.12 -0.12)">
      <defs>
       <path id="DejaVuSans-61" d="M 2194 1759 
Q 1497 1759 1228 1600 
Q 959 1441 959 1056 
Q 959 750 1161 570 
Q 1363 391 1709 391 
Q 2188 391 2477 730 
Q 2766 1069 2766 1631 
L 2766 1759 
L 2194 1759 
z
M 3341 1997 
L 3341 0 
L 2766 0 
L 2766 531 
Q 2569 213 2275 61 
Q 1981 -91 1556 -91 
Q 1019 -91 701 211 
Q 384 513 384 1019 
Q 384 1609 779 1909 
Q 1175 2209 1959 2209 
L 2766 2209 
L 2766 2266 
Q 2766 2663 2505 2880 
Q 2244 3097 1772 3097 
Q 1472 3097 1187 3025 
Q 903 2953 641 2809 
L 641 3341 
Q 956 3463 1253 3523 
Q 1550 3584 1831 3584 
Q 2591 3584 2966 3190 
Q 3341 2797 3341 1997 
z
" transform="scale(0.015625)"/>
       <path id="DejaVuSans-50" d="M 1259 4147 
L 1259 2394 
L 2053 2394 
Q 2494 2394 2734 2622 
Q 2975 2850 2975 3272 
Q 2975 3691 2734 3919 
Q 2494 4147 2053 4147 
L 1259 4147 
z
M 628 4666 
L 2053 4666 
Q 2838 4666 3239 4311 
Q 3641 3956 3641 3272 
Q 3641 2581 3239 2228 
Q 2838 1875 2053 1875 
L 1259 1875 
L 1259 0 
L 628 0 
L 628 4666 
z
" transform="scale(0.015625)"/>
       <path id="DejaVuSans-54" d="M -19 4666 
L 3928 4666 
L 3928 4134 
L 2272 4134 
L 2272 0 
L 1638 0 
L 1638 4134 
L -19 4134 
L -19 4666 
z
" transform="scale(0.015625)"/>
      </defs>
      <use xlink:href="#DejaVuSans-61"/>
      <use xlink:href="#DejaVuSans-50" transform="translate(61.279297 0)"/>
      <use xlink:href="#DejaVuSans-54" transform="translate(121.582031 0)"/>
      <use xlink:href="#DejaVuSans-54" transform="translate(180.916016 0)"/>
     </g>
    </g>
   </g>
   <g id="LineCollection_1">
    <path d="M 111.136364 231.795056 
L 111.136364 183.201731 
" clip-path="url(#p4a50ddaad9)" style="fill: none; stroke: #000000; stroke-width: 1.5"/>
    <path d="M 114.910714 251.003956 
L 114.910714 55.8 
" clip-path="url(#p4a50ddaad9)" style="fill: none; stroke: #000000; stroke-width: 1.5"/>
    <path d="M 118.685065 253.495921 
L 118.685065 156.101607 
" clip-path="url(#p4a50ddaad9)" style="fill: none; stroke: #000000; stroke-width: 1.5"/>
    <path d="M 122.459416 242.697404 
L 122.459416 166.900124 
" clip-path="url(#p4a50ddaad9)" style="fill: none; stroke: #000000; stroke-width: 1.5"/>
    <path d="M 126.233766 253.495921 
L 126.233766 172.299382 
" clip-path="url(#p4a50ddaad9)" style="fill: none; stroke: #000000; stroke-width: 1.5"/>
    <path d="M 130.008117 166.900124 
L 130.008117 156.101607 
" clip-path="url(#p4a50ddaad9)" style="fill: none; stroke: #000000; stroke-width: 1.5"/>
    <path d="M 133.782468 229.199258 
L 133.782468 164.200494 
" clip-path="url(#p4a50ddaad9)" style="fill: none; stroke: #000000; stroke-width: 1.5"/>
    <path d="M 137.556818 245.397033 
L 137.556818 158.801236 
" clip-path="url(#p4a50ddaad9)" style="fill: none; stroke: #000000; stroke-width: 1.5"/>
    <path d="M 141.331169 213.001483 
L 141.331169 174.999011 
" clip-path="url(#p4a50ddaad9)" style="fill: none; stroke: #000000; stroke-width: 1.5"/>
    <path d="M 292.305195 256.19555 
L 292.305195 164.200494 
" clip-path="url(#p4a50ddaad9)" style="fill: none; stroke: #000000; stroke-width: 1.5"/>
    <path d="M 296.079545 218.400742 
L 296.079545 180.398269 
" clip-path="url(#p4a50ddaad9)" style="fill: none; stroke: #000000; stroke-width: 1.5"/>
    <path d="M 299.853896 237.194314 
L 299.853896 183.201731 
" clip-path="url(#p4a50ddaad9)" style="fill: none; stroke: #000000; stroke-width: 1.5"/>
    <path d="M 303.628247 218.29691 
L 303.628247 196.699876 
" clip-path="url(#p4a50ddaad9)" style="fill: none; stroke: #000000; stroke-width: 1.5"/>
    <path d="M 307.402597 242.697404 
L 307.402597 166.900124 
" clip-path="url(#p4a50ddaad9)" style="fill: none; stroke: #000000; stroke-width: 1.5"/>
    <path d="M 311.176948 194.000247 
L 311.176948 183.201731 
" clip-path="url(#p4a50ddaad9)" style="fill: none; stroke: #000000; stroke-width: 1.5"/>
    <path d="M 314.951299 231.898888 
L 314.951299 172.299382 
" clip-path="url(#p4a50ddaad9)" style="fill: none; stroke: #000000; stroke-width: 1.5"/>
    <path d="M 318.725649 302.400742 
L 318.725649 107.196786 
" clip-path="url(#p4a50ddaad9)" style="fill: none; stroke: #000000; stroke-width: 1.5"/>
    <path d="M 322.5 307.8 
L 322.5 112.596044 
" clip-path="url(#p4a50ddaad9)" style="fill: none; stroke: #000000; stroke-width: 1.5"/>
   </g>
   <g id="line2d_13">
    <path d="M 111.136364 207.498393 
L 111.149914 207.404899 
L 111.734736 200.765497 
L 112.105419 198.376532 
L 112.52284 196.687765 
L 112.940261 195.693667 
L 113.442647 195.082192 
L 113.890859 194.87791 
L 114.563178 194.92439 
L 115.459602 195.325981 
L 117.287838 196.52323 
L 120.11866 198.374887 
L 122.918637 199.936688 
L 125.509505 201.150365 
L 126.233766 201.453664 
L 126.235618 201.684383 
L 126.33855 200.492667 
L 126.763161 196.617165 
L 127.210541 194.190402 
L 127.633694 192.866879 
L 128.067362 192.131909 
L 128.46397 191.819155 
L 128.927138 191.735717 
L 129.523422 191.90436 
L 130.318468 192.38853 
L 132.012717 193.757185 
L 135.041896 196.186119 
L 137.454096 197.853147 
L 139.866296 199.285823 
L 141.334755 200.068726 
L 141.348062 199.96206 
L 141.885049 195.029589 
L 142.316291 192.838497 
L 142.782251 191.512691 
L 143.271131 190.841973 
L 143.760011 190.624195 
L 144.24889 190.683041 
L 145.040896 191.104711 
L 146.360906 192.17999 
L 150.466336 195.684269 
L 153.06492 197.543797 
L 155.485593 199.023805 
L 156.428571 199.537656 
L 156.430466 199.866202 
L 156.539241 198.644154 
L 156.992637 194.728396 
L 157.451789 192.449542 
L 157.927036 191.169555 
L 158.406763 190.559621 
L 158.725219 190.399265 
L 159.287947 190.418866 
L 159.930078 190.727003 
L 161.000298 191.553448 
L 166.575125 196.27841 
L 169.155771 198.03799 
L 171.525974 199.419484 
L 171.527873 199.822112 
L 171.636873 198.595699 
L 172.085976 194.703649 
L 172.51731 192.514877 
L 172.948644 191.264914 
L 173.379978 190.613281 
L 173.829043 190.342427 
L 174.340891 190.352346 
L 174.852738 190.569106 
L 175.909801 191.34256 
L 182.440992 196.797632 
L 185.028942 198.483938 
L 186.623377 199.39149 
L 186.625293 199.668523 
L 186.73419 198.451178 
L 187.17266 194.654326 
L 187.634395 192.337879 
L 188.063111 191.137307 
L 188.525766 190.482984 
L 188.98842 190.250052 
L 189.388163 190.265662 
L 190.124739 190.604395 
L 191.352367 191.577031 
L 196.088141 195.679313 
L 198.208986 197.219451 
L 200.610978 198.734184 
L 201.720779 199.355585 
L 201.722703 199.603283 
L 201.825718 198.454308 
L 202.245869 194.761242 
L 202.694618 192.429811 
L 203.082381 191.260141 
L 203.55386 190.507016 
L 204.025338 190.22281 
L 204.339657 190.203088 
L 204.867232 190.366444 
L 205.658595 190.879882 
L 207.24132 192.260985 
L 210.548308 195.150575 
L 212.941682 196.946335 
L 215.267371 198.453655 
L 216.818182 199.340255 
L 216.820112 199.545211 
L 216.923555 198.394017 
L 217.365798 194.564641 
L 217.831574 192.240268 
L 218.22185 191.130474 
L 218.699913 190.425712 
L 219.177975 190.179337 
L 219.496684 190.180039 
L 220.023283 190.366489 
L 220.813181 190.896995 
L 222.656278 192.527825 
L 225.707063 195.179647 
L 228.12244 196.98676 
L 230.470598 198.50199 
L 231.915584 199.326909 
L 231.917509 199.597848 
L 232.02061 198.447106 
L 232.479824 194.493996 
L 232.958723 192.163154 
L 233.34943 191.09345 
L 233.829119 190.419866 
L 234.308807 190.194361 
L 234.628599 190.205036 
L 235.156052 190.402688 
L 235.94723 190.942155 
L 237.793312 192.578258 
L 240.853617 195.230746 
L 243.282063 197.039905 
L 245.645328 198.556835 
L 247.012987 199.335523 
L 247.014905 199.653066 
L 247.124034 198.431945 
L 247.592637 194.437911 
L 248.027339 192.30349 
L 248.44125 191.137766 
L 248.816228 190.557517 
L 249.320292 190.23857 
L 249.824357 190.253626 
L 250.544725 190.601198 
L 251.649419 191.473892 
L 256.528618 195.702235 
L 259.106504 197.545157 
L 261.647838 199.092379 
L 262.11039 199.346048 
L 262.112327 199.479215 
L 262.216276 198.326258 
L 262.644712 194.603475 
L 263.093105 192.314411 
L 263.504627 191.115358 
L 263.918155 190.467455 
L 264.294837 190.199912 
L 264.671519 190.14012 
L 265.236542 190.301728 
L 265.989907 190.783806 
L 267.4663 192.064092 
L 271.008444 195.17003 
L 273.444347 196.992714 
L 275.880249 198.559433 
L 277.207792 199.314075 
L 277.209731 199.465641 
L 277.313763 198.311378 
L 277.755468 194.500445 
L 278.243399 192.104722 
L 278.650009 191.000224 
L 279.050655 190.415757 
L 279.451301 190.163306 
L 279.971157 190.154546 
L 280.729434 190.513734 
L 281.993229 191.532046 
L 286.439537 195.425035 
L 288.974653 197.279717 
L 291.440241 198.822657 
L 292.305195 199.305893 
L 292.307107 199.705739 
L 292.415891 198.484489 
L 292.850936 194.693599 
L 293.336972 192.267463 
L 293.742003 191.143072 
L 294.144516 190.539244 
L 294.547028 190.275037 
L 295.064719 190.256648 
L 295.812768 190.599302 
L 296.810167 191.371666 
L 302.597906 196.297297 
L 305.185599 198.058314 
L 307.402597 199.350244 
L 307.404514 199.668703 
L 307.513579 198.448045 
L 307.961233 194.587442 
L 308.399296 192.383032 
L 308.837359 191.137686 
L 309.20416 190.572258 
L 309.622943 190.277533 
L 310.041727 190.232796 
L 310.582673 190.40863 
L 311.394093 190.945396 
L 313.287407 192.615657 
L 316.322194 195.24173 
L 318.935192 197.176029 
L 321.193614 198.612318 
L 323.968458 200.116167 
L 326.743302 201.372985 
L 330.211857 202.654391 
L 333.680412 203.672639 
L 337.842678 204.619978 
L 342.004944 205.335173 
L 344.086077 205.623706 
L 344.086077 205.623706 
" clip-path="url(#p4a50ddaad9)" style="fill: none; stroke: #0000ff; stroke-width: 1.5; stroke-linecap: square"/>
   </g>
   <g id="line2d_14">
    <path d="M 111.136364 207.498393 
L 114.910714 153.401978 
L 118.685065 204.798764 
L 122.459416 204.798764 
L 126.233766 212.897651 
L 130.008117 161.500865 
L 133.782468 196.699876 
L 137.556818 202.099135 
L 141.331169 194.000247 
L 292.305195 210.198022 
L 296.079545 199.399506 
L 299.853896 210.198022 
L 303.628247 207.498393 
L 307.402597 204.798764 
L 311.176948 188.600989 
L 314.951299 202.099135 
L 318.725649 204.798764 
L 322.5 210.198022 
" clip-path="url(#p4a50ddaad9)" style="fill: none; stroke: #000000; stroke-width: 1.5; stroke-linecap: square"/>
    <defs>
     <path id="m259efe94cb" d="M -5 5 
L 5 5 
L 5 -5 
L -5 -5 
z
" style="stroke: #000000; stroke-linejoin: miter"/>
    </defs>
    <g clip-path="url(#p4a50ddaad9)">
     <use xlink:href="#m259efe94cb" x="111.136364" y="207.498393" style="stroke: #000000; stroke-linejoin: miter"/>
     <use xlink:href="#m259efe94cb" x="114.910714" y="153.401978" style="stroke: #000000; stroke-linejoin: miter"/>
     <use xlink:href="#m259efe94cb" x="118.685065" y="204.798764" style="stroke: #000000; stroke-linejoin: miter"/>
     <use xlink:href="#m259efe94cb" x="122.459416" y="204.798764" style="stroke: #000000; stroke-linejoin: miter"/>
     <use xlink:href="#m259efe94cb" x="126.233766" y="212.897651" style="stroke: #000000; stroke-linejoin: miter"/>
     <use xlink:href="#m259efe94cb" x="130.008117" y="161.500865" style="stroke: #000000; stroke-linejoin: miter"/>
     <use xlink:href="#m259efe94cb" x="133.782468" y="196.699876" style="stroke: #000000; stroke-linejoin: miter"/>
     <use xlink:href="#m259efe94cb" x="137.556818" y="202.099135" style="stroke: #000000; stroke-linejoin: miter"/>
     <use xlink:href="#m259efe94cb" x="141.331169" y="194.000247" style="stroke: #000000; stroke-linejoin: miter"/>
     <use xlink:href="#m259efe94cb" x="292.305195" y="210.198022" style="stroke: #000000; stroke-linejoin: miter"/>
     <use xlink:href="#m259efe94cb" x="296.079545" y="199.399506" style="stroke: #000000; stroke-linejoin: miter"/>
     <use xlink:href="#m259efe94cb" x="299.853896" y="210.198022" style="stroke: #000000; stroke-linejoin: miter"/>
     <use xlink:href="#m259efe94cb" x="303.628247" y="207.498393" style="stroke: #000000; stroke-linejoin: miter"/>
     <use xlink:href="#m259efe94cb" x="307.402597" y="204.798764" style="stroke: #000000; stroke-linejoin: miter"/>
     <use xlink:href="#m259efe94cb" x="311.176948" y="188.600989" style="stroke: #000000; stroke-linejoin: miter"/>
     <use xlink:href="#m259efe94cb" x="314.951299" y="202.099135" style="stroke: #000000; stroke-linejoin: miter"/>
     <use xlink:href="#m259efe94cb" x="318.725649" y="204.798764" style="stroke: #000000; stroke-linejoin: miter"/>
     <use xlink:href="#m259efe94cb" x="322.5" y="210.198022" style="stroke: #000000; stroke-linejoin: miter"/>
    </g>
   </g>
   <g id="patch_3">
    <path d="M 90 320.4 
L 90 43.2 
" style="fill: none; stroke: #000000; stroke-width: 0.8; stroke-linejoin: miter; stroke-linecap: square"/>
   </g>
   <g id="patch_4">
    <path d="M 343.636364 320.4 
L 343.636364 43.2 
" style="fill: none; stroke: #000000; stroke-width: 0.8; stroke-linejoin: miter; stroke-linecap: square"/>
   </g>
   <g id="patch_5">
    <path d="M 90 320.4 
L 343.636364 320.4 
" style="fill: none; stroke: #000000; stroke-width: 0.8; stroke-linejoin: miter; stroke-linecap: square"/>
   </g>
   <g id="patch_6">
    <path d="M 90 43.2 
L 343.636364 43.2 
" style="fill: none; stroke: #000000; stroke-width: 0.8; stroke-linejoin: miter; stroke-linecap: square"/>
   </g>
   <g id="text_15">
    <!-- Frost2013a fm_API2x2_aPTT -->
    <g transform="translate(118.229744 37.2) scale(0.14 -0.14)">
     <defs>
      <path id="DejaVuSans-46" d="M 628 4666 
L 3309 4666 
L 3309 4134 
L 1259 4134 
L 1259 2759 
L 3109 2759 
L 3109 2228 
L 1259 2228 
L 1259 0 
L 628 0 
L 628 4666 
z
" transform="scale(0.015625)"/>
      <path id="DejaVuSans-72" d="M 2631 2963 
Q 2534 3019 2420 3045 
Q 2306 3072 2169 3072 
Q 1681 3072 1420 2755 
Q 1159 2438 1159 1844 
L 1159 0 
L 581 0 
L 581 3500 
L 1159 3500 
L 1159 2956 
Q 1341 3275 1631 3429 
Q 1922 3584 2338 3584 
Q 2397 3584 2469 3576 
Q 2541 3569 2628 3553 
L 2631 2963 
z
" transform="scale(0.015625)"/>
      <path id="DejaVuSans-6f" d="M 1959 3097 
Q 1497 3097 1228 2736 
Q 959 2375 959 1747 
Q 959 1119 1226 758 
Q 1494 397 1959 397 
Q 2419 397 2687 759 
Q 2956 1122 2956 1747 
Q 2956 2369 2687 2733 
Q 2419 3097 1959 3097 
z
M 1959 3584 
Q 2709 3584 3137 3096 
Q 3566 2609 3566 1747 
Q 3566 888 3137 398 
Q 2709 -91 1959 -91 
Q 1206 -91 779 398 
Q 353 888 353 1747 
Q 353 2609 779 3096 
Q 1206 3584 1959 3584 
z
" transform="scale(0.015625)"/>
      <path id="DejaVuSans-73" d="M 2834 3397 
L 2834 2853 
Q 2591 2978 2328 3040 
Q 2066 3103 1784 3103 
Q 1356 3103 1142 2972 
Q 928 2841 928 2578 
Q 928 2378 1081 2264 
Q 1234 2150 1697 2047 
L 1894 2003 
Q 2506 1872 2764 1633 
Q 3022 1394 3022 966 
Q 3022 478 2636 193 
Q 2250 -91 1575 -91 
Q 1294 -91 989 -36 
Q 684 19 347 128 
L 347 722 
Q 666 556 975 473 
Q 1284 391 1588 391 
Q 1994 391 2212 530 
Q 2431 669 2431 922 
Q 2431 1156 2273 1281 
Q 2116 1406 1581 1522 
L 1381 1569 
Q 847 1681 609 1914 
Q 372 2147 372 2553 
Q 372 3047 722 3315 
Q 1072 3584 1716 3584 
Q 2034 3584 2315 3537 
Q 2597 3491 2834 3397 
z
" transform="scale(0.015625)"/>
      <path id="DejaVuSans-20" transform="scale(0.015625)"/>
      <path id="DejaVuSans-66" d="M 2375 4863 
L 2375 4384 
L 1825 4384 
Q 1516 4384 1395 4259 
Q 1275 4134 1275 3809 
L 1275 3500 
L 2222 3500 
L 2222 3053 
L 1275 3053 
L 1275 0 
L 697 0 
L 697 3053 
L 147 3053 
L 147 3500 
L 697 3500 
L 697 3744 
Q 697 4328 969 4595 
Q 1241 4863 1831 4863 
L 2375 4863 
z
" transform="scale(0.015625)"/>
      <path id="DejaVuSans-5f" d="M 3263 -1063 
L 3263 -1509 
L -63 -1509 
L -63 -1063 
L 3263 -1063 
z
" transform="scale(0.015625)"/>
      <path id="DejaVuSans-41" d="M 2188 4044 
L 1331 1722 
L 3047 1722 
L 2188 4044 
z
M 1831 4666 
L 2547 4666 
L 4325 0 
L 3669 0 
L 3244 1197 
L 1141 1197 
L 716 0 
L 50 0 
L 1831 4666 
z
" transform="scale(0.015625)"/>
      <path id="DejaVuSans-49" d="M 628 4666 
L 1259 4666 
L 1259 0 
L 628 0 
L 628 4666 
z
" transform="scale(0.015625)"/>
      <path id="DejaVuSans-78" d="M 3513 3500 
L 2247 1797 
L 3578 0 
L 2900 0 
L 1881 1375 
L 863 0 
L 184 0 
L 1544 1831 
L 300 3500 
L 978 3500 
L 1906 2253 
L 2834 3500 
L 3513 3500 
z
" transform="scale(0.015625)"/>
     </defs>
     <use xlink:href="#DejaVuSans-46"/>
     <use xlink:href="#DejaVuSans-72" transform="translate(50.269531 0)"/>
     <use xlink:href="#DejaVuSans-6f" transform="translate(89.132812 0)"/>
     <use xlink:href="#DejaVuSans-73" transform="translate(150.314453 0)"/>
     <use xlink:href="#DejaVuSans-74" transform="translate(202.414062 0)"/>
     <use xlink:href="#DejaVuSans-32" transform="translate(241.623047 0)"/>
     <use xlink:href="#DejaVuSans-30" transform="translate(305.246094 0)"/>
     <use xlink:href="#DejaVuSans-31" transform="translate(368.869141 0)"/>
     <use xlink:href="#DejaVuSans-33" transform="translate(432.492188 0)"/>
     <use xlink:href="#DejaVuSans-61" transform="translate(496.115234 0)"/>
     <use xlink:href="#DejaVuSans-20" transform="translate(557.394531 0)"/>
     <use xlink:href="#DejaVuSans-66" transform="translate(589.181641 0)"/>
     <use xlink:href="#DejaVuSans-6d" transform="translate(624.386719 0)"/>
     <use xlink:href="#DejaVuSans-5f" transform="translate(721.798828 0)"/>
     <use xlink:href="#DejaVuSans-41" transform="translate(771.798828 0)"/>
     <use xlink:href="#DejaVuSans-50" transform="translate(840.207031 0)"/>
     <use xlink:href="#DejaVuSans-49" transform="translate(900.509766 0)"/>
     <use xlink:href="#DejaVuSans-32" transform="translate(930.001953 0)"/>
     <use xlink:href="#DejaVuSans-78" transform="translate(993.625 0)"/>
     <use xlink:href="#DejaVuSans-32" transform="translate(1052.804688 0)"/>
     <use xlink:href="#DejaVuSans-5f" transform="translate(1116.427734 0)"/>
     <use xlink:href="#DejaVuSans-61" transform="translate(1166.427734 0)"/>
     <use xlink:href="#DejaVuSans-50" transform="translate(1227.707031 0)"/>
     <use xlink:href="#DejaVuSans-54" transform="translate(1288.009766 0)"/>
     <use xlink:href="#DejaVuSans-54" transform="translate(1347.34375 0)"/>
    </g>
   </g>
   <g id="legend_1">
    <g id="patch_7">
     <path d="M 200.586364 80.834375 
L 336.636364 80.834375 
Q 338.636364 80.834375 338.636364 78.834375 
L 338.636364 50.2 
Q 338.636364 48.2 336.636364 48.2 
L 200.586364 48.2 
Q 198.586364 48.2 198.586364 50.2 
L 198.586364 78.834375 
Q 198.586364 80.834375 200.586364 80.834375 
z
" style="fill: #ffffff; opacity: 0.8; stroke: #cccccc; stroke-linejoin: miter"/>
    </g>
    <g id="line2d_15">
     <path d="M 202.586364 56.298437 
L 212.586364 56.298437 
L 222.586364 56.298437 
" style="fill: none; stroke: #0000ff; stroke-width: 1.5; stroke-linecap: square"/>
    </g>
    <g id="text_16">
     <!-- observable -->
     <g transform="translate(230.586364 59.798437) scale(0.1 -0.1)">
      <defs>
       <path id="DejaVuSans-62" d="M 3116 1747 
Q 3116 2381 2855 2742 
Q 2594 3103 2138 3103 
Q 1681 3103 1420 2742 
Q 1159 2381 1159 1747 
Q 1159 1113 1420 752 
Q 1681 391 2138 391 
Q 2594 391 2855 752 
Q 3116 1113 3116 1747 
z
M 1159 2969 
Q 1341 3281 1617 3432 
Q 1894 3584 2278 3584 
Q 2916 3584 3314 3078 
Q 3713 2572 3713 1747 
Q 3713 922 3314 415 
Q 2916 -91 2278 -91 
Q 1894 -91 1617 61 
Q 1341 213 1159 525 
L 1159 0 
L 581 0 
L 581 4863 
L 1159 4863 
L 1159 2969 
z
" transform="scale(0.015625)"/>
       <path id="DejaVuSans-76" d="M 191 3500 
L 800 3500 
L 1894 563 
L 2988 3500 
L 3597 3500 
L 2284 0 
L 1503 0 
L 191 3500 
z
" transform="scale(0.015625)"/>
       <path id="DejaVuSans-6c" d="M 603 4863 
L 1178 4863 
L 1178 0 
L 603 0 
L 603 4863 
z
" transform="scale(0.015625)"/>
      </defs>
      <use xlink:href="#DejaVuSans-6f"/>
      <use xlink:href="#DejaVuSans-62" transform="translate(61.181641 0)"/>
      <use xlink:href="#DejaVuSans-73" transform="translate(124.658203 0)"/>
      <use xlink:href="#DejaVuSans-65" transform="translate(176.757812 0)"/>
      <use xlink:href="#DejaVuSans-72" transform="translate(238.28125 0)"/>
      <use xlink:href="#DejaVuSans-76" transform="translate(279.394531 0)"/>
      <use xlink:href="#DejaVuSans-61" transform="translate(338.574219 0)"/>
      <use xlink:href="#DejaVuSans-62" transform="translate(399.853516 0)"/>
      <use xlink:href="#DejaVuSans-6c" transform="translate(463.330078 0)"/>
      <use xlink:href="#DejaVuSans-65" transform="translate(491.113281 0)"/>
     </g>
    </g>
    <g id="LineCollection_2">
     <path d="M 212.586364 75.976562 
L 212.586364 65.976562 
" style="fill: none; stroke: #000000; stroke-width: 1.5"/>
    </g>
    <g id="line2d_16">
     <path d="M 202.586364 70.976562 
L 222.586364 70.976562 
" style="fill: none; stroke: #000000; stroke-width: 1.5; stroke-linecap: square"/>
    </g>
    <g id="line2d_17">
     <g>
      <use xlink:href="#m259efe94cb" x="212.586364" y="70.976562" style="stroke: #000000; stroke-linejoin: miter"/>
     </g>
    </g>
    <g id="text_17">
     <!-- reference_data ± SD -->
     <g transform="translate(230.586364 74.476562) scale(0.1 -0.1)">
      <defs>
       <path id="DejaVuSans-6e" d="M 3513 2113 
L 3513 0 
L 2938 0 
L 2938 2094 
Q 2938 2591 2744 2837 
Q 2550 3084 2163 3084 
Q 1697 3084 1428 2787 
Q 1159 2491 1159 1978 
L 1159 0 
L 581 0 
L 581 3500 
L 1159 3500 
L 1159 2956 
Q 1366 3272 1645 3428 
Q 1925 3584 2291 3584 
Q 2894 3584 3203 3211 
Q 3513 2838 3513 2113 
z
" transform="scale(0.015625)"/>
       <path id="DejaVuSans-63" d="M 3122 3366 
L 3122 2828 
Q 2878 2963 2633 3030 
Q 2388 3097 2138 3097 
Q 1578 3097 1268 2742 
Q 959 2388 959 1747 
Q 959 1106 1268 751 
Q 1578 397 2138 397 
Q 2388 397 2633 464 
Q 2878 531 3122 666 
L 3122 134 
Q 2881 22 2623 -34 
Q 2366 -91 2075 -91 
Q 1284 -91 818 406 
Q 353 903 353 1747 
Q 353 2603 823 3093 
Q 1294 3584 2113 3584 
Q 2378 3584 2631 3529 
Q 2884 3475 3122 3366 
z
" transform="scale(0.015625)"/>
       <path id="DejaVuSans-64" d="M 2906 2969 
L 2906 4863 
L 3481 4863 
L 3481 0 
L 2906 0 
L 2906 525 
Q 2725 213 2448 61 
Q 2172 -91 1784 -91 
Q 1150 -91 751 415 
Q 353 922 353 1747 
Q 353 2572 751 3078 
Q 1150 3584 1784 3584 
Q 2172 3584 2448 3432 
Q 2725 3281 2906 2969 
z
M 947 1747 
Q 947 1113 1208 752 
Q 1469 391 1925 391 
Q 2381 391 2643 752 
Q 2906 1113 2906 1747 
Q 2906 2381 2643 2742 
Q 2381 3103 1925 3103 
Q 1469 3103 1208 2742 
Q 947 2381 947 1747 
z
" transform="scale(0.015625)"/>
       <path id="DejaVuSans-b1" d="M 2944 4013 
L 2944 2803 
L 4684 2803 
L 4684 2272 
L 2944 2272 
L 2944 1063 
L 2419 1063 
L 2419 2272 
L 678 2272 
L 678 2803 
L 2419 2803 
L 2419 4013 
L 2944 4013 
z
M 678 531 
L 4684 531 
L 4684 0 
L 678 0 
L 678 531 
z
" transform="scale(0.015625)"/>
       <path id="DejaVuSans-53" d="M 3425 4513 
L 3425 3897 
Q 3066 4069 2747 4153 
Q 2428 4238 2131 4238 
Q 1616 4238 1336 4038 
Q 1056 3838 1056 3469 
Q 1056 3159 1242 3001 
Q 1428 2844 1947 2747 
L 2328 2669 
Q 3034 2534 3370 2195 
Q 3706 1856 3706 1288 
Q 3706 609 3251 259 
Q 2797 -91 1919 -91 
Q 1588 -91 1214 -16 
Q 841 59 441 206 
L 441 856 
Q 825 641 1194 531 
Q 1563 422 1919 422 
Q 2459 422 2753 634 
Q 3047 847 3047 1241 
Q 3047 1584 2836 1778 
Q 2625 1972 2144 2069 
L 1759 2144 
Q 1053 2284 737 2584 
Q 422 2884 422 3419 
Q 422 4038 858 4394 
Q 1294 4750 2059 4750 
Q 2388 4750 2728 4690 
Q 3069 4631 3425 4513 
z
" transform="scale(0.015625)"/>
       <path id="DejaVuSans-44" d="M 1259 4147 
L 1259 519 
L 2022 519 
Q 2988 519 3436 956 
Q 3884 1394 3884 2338 
Q 3884 3275 3436 3711 
Q 2988 4147 2022 4147 
L 1259 4147 
z
M 628 4666 
L 1925 4666 
Q 3281 4666 3915 4102 
Q 4550 3538 4550 2338 
Q 4550 1131 3912 565 
Q 3275 0 1925 0 
L 628 0 
L 628 4666 
z
" transform="scale(0.015625)"/>
      </defs>
      <use xlink:href="#DejaVuSans-72"/>
      <use xlink:href="#DejaVuSans-65" transform="translate(38.863281 0)"/>
      <use xlink:href="#DejaVuSans-66" transform="translate(100.386719 0)"/>
      <use xlink:href="#DejaVuSans-65" transform="translate(135.591797 0)"/>
      <use xlink:href="#DejaVuSans-72" transform="translate(197.115234 0)"/>
      <use xlink:href="#DejaVuSans-65" transform="translate(235.978516 0)"/>
      <use xlink:href="#DejaVuSans-6e" transform="translate(297.501953 0)"/>
      <use xlink:href="#DejaVuSans-63" transform="translate(360.880859 0)"/>
      <use xlink:href="#DejaVuSans-65" transform="translate(415.861328 0)"/>
      <use xlink:href="#DejaVuSans-5f" transform="translate(477.384766 0)"/>
      <use xlink:href="#DejaVuSans-64" transform="translate(527.384766 0)"/>
      <use xlink:href="#DejaVuSans-61" transform="translate(590.861328 0)"/>
      <use xlink:href="#DejaVuSans-74" transform="translate(652.140625 0)"/>
      <use xlink:href="#DejaVuSans-61" transform="translate(691.349609 0)"/>
      <use xlink:href="#DejaVuSans-20" transform="translate(752.628906 0)"/>
      <use xlink:href="#DejaVuSans-b1" transform="translate(784.416016 0)"/>
      <use xlink:href="#DejaVuSans-20" transform="translate(868.205078 0)"/>
      <use xlink:href="#DejaVuSans-53" transform="translate(899.992188 0)"/>
      <use xlink:href="#DejaVuSans-44" transform="translate(963.46875 0)"/>
     </g>
    </g>
   </g>
  </g>
  <g id="axes_2">
   <g id="patch_8">
    <path d="M 394.363636 320.4 
L 648 320.4 
L 648 43.2 
L 394.363636 43.2 
z
" style="fill: #ffffff"/>
   </g>
   <g id="matplotlib.axis_3">
    <g id="xtick_7">
     <g id="line2d_18">
      <g>
       <use xlink:href="#md2fc75c524" x="415.5" y="320.4" style="stroke: #000000; stroke-width: 0.8"/>
      </g>
     </g>
     <g id="text_18">
      <!-- 0 -->
      <g transform="translate(412.31875 334.998438) scale(0.1 -0.1)">
       <use xlink:href="#DejaVuSans-30"/>
      </g>
     </g>
    </g>
    <g id="xtick_8">
     <g id="line2d_19">
      <g>
       <use xlink:href="#md2fc75c524" x="457.437229" y="320.4" style="stroke: #000000; stroke-width: 0.8"/>
      </g>
     </g>
     <g id="text_19">
      <!-- 2000 -->
      <g transform="translate(444.712229 334.998438) scale(0.1 -0.1)">
       <use xlink:href="#DejaVuSans-32"/>
       <use xlink:href="#DejaVuSans-30" transform="translate(63.623047 0)"/>
       <use xlink:href="#DejaVuSans-30" transform="translate(127.246094 0)"/>
       <use xlink:href="#DejaVuSans-30" transform="translate(190.869141 0)"/>
      </g>
     </g>
    </g>
    <g id="xtick_9">
     <g id="line2d_20">
      <g>
       <use xlink:href="#md2fc75c524" x="499.374459" y="320.4" style="stroke: #000000; stroke-width: 0.8"/>
      </g>
     </g>
     <g id="text_20">
      <!-- 4000 -->
      <g transform="translate(486.649459 334.998438) scale(0.1 -0.1)">
       <use xlink:href="#DejaVuSans-34"/>
       <use xlink:href="#DejaVuSans-30" transform="translate(63.623047 0)"/>
       <use xlink:href="#DejaVuSans-30" transform="translate(127.246094 0)"/>
       <use xlink:href="#DejaVuSans-30" transform="translate(190.869141 0)"/>
      </g>
     </g>
    </g>
    <g id="xtick_10">
     <g id="line2d_21">
      <g>
       <use xlink:href="#md2fc75c524" x="541.311688" y="320.4" style="stroke: #000000; stroke-width: 0.8"/>
      </g>
     </g>
     <g id="text_21">
      <!-- 6000 -->
      <g transform="translate(528.586688 334.998438) scale(0.1 -0.1)">
       <use xlink:href="#DejaVuSans-36"/>
       <use xlink:href="#DejaVuSans-30" transform="translate(63.623047 0)"/>
       <use xlink:href="#DejaVuSans-30" transform="translate(127.246094 0)"/>
       <use xlink:href="#DejaVuSans-30" transform="translate(190.869141 0)"/>
      </g>
     </g>
    </g>
    <g id="xtick_11">
     <g id="line2d_22">
      <g>
       <use xlink:href="#md2fc75c524" x="583.248918" y="320.4" style="stroke: #000000; stroke-width: 0.8"/>
      </g>
     </g>
     <g id="text_22">
      <!-- 8000 -->
      <g transform="translate(570.523918 334.998438) scale(0.1 -0.1)">
       <use xlink:href="#DejaVuSans-38"/>
       <use xlink:href="#DejaVuSans-30" transform="translate(63.623047 0)"/>
       <use xlink:href="#DejaVuSans-30" transform="translate(127.246094 0)"/>
       <use xlink:href="#DejaVuSans-30" transform="translate(190.869141 0)"/>
      </g>
     </g>
    </g>
    <g id="xtick_12">
     <g id="line2d_23">
      <g>
       <use xlink:href="#md2fc75c524" x="625.186147" y="320.4" style="stroke: #000000; stroke-width: 0.8"/>
      </g>
     </g>
     <g id="text_23">
      <!-- 10000 -->
      <g transform="translate(609.279897 334.998438) scale(0.1 -0.1)">
       <use xlink:href="#DejaVuSans-31"/>
       <use xlink:href="#DejaVuSans-30" transform="translate(63.623047 0)"/>
       <use xlink:href="#DejaVuSans-30" transform="translate(127.246094 0)"/>
       <use xlink:href="#DejaVuSans-30" transform="translate(190.869141 0)"/>
       <use xlink:href="#DejaVuSans-30" transform="translate(254.492188 0)"/>
      </g>
     </g>
    </g>
    <g id="text_24">
     <!-- time -->
     <g transform="translate(507.626506 350.19625) scale(0.12 -0.12)">
      <use xlink:href="#DejaVuSans-74"/>
      <use xlink:href="#DejaVuSans-69" transform="translate(39.208984 0)"/>
      <use xlink:href="#DejaVuSans-6d" transform="translate(66.992188 0)"/>
      <use xlink:href="#DejaVuSans-65" transform="translate(164.404297 0)"/>
     </g>
    </g>
   </g>
   <g id="matplotlib.axis_4">
    <g id="ytick_7">
     <g id="line2d_24">
      <g>
       <use xlink:href="#m9544e6c518" x="394.363636" y="300.350978" style="stroke: #000000; stroke-width: 0.8"/>
      </g>
     </g>
     <g id="text_25">
      <!-- $\mathdefault{10^{1}}$ -->
      <g transform="translate(369.763636 304.150197) scale(0.1 -0.1)">
       <use xlink:href="#DejaVuSans-31" transform="translate(0 0.684375)"/>
       <use xlink:href="#DejaVuSans-30" transform="translate(63.623047 0.684375)"/>
       <use xlink:href="#DejaVuSans-31" transform="translate(128.203125 38.965625) scale(0.7)"/>
      </g>
     </g>
    </g>
    <g id="ytick_8">
     <g id="line2d_25">
      <defs>
       <path id="macd4d5f219" d="M 0 0 
L -2 0 
" style="stroke: #000000; stroke-width: 0.6"/>
      </defs>
      <g>
       <use xlink:href="#macd4d5f219" x="394.363636" y="317.983852" style="stroke: #000000; stroke-width: 0.6"/>
      </g>
     </g>
    </g>
    <g id="ytick_9">
     <g id="line2d_26">
      <g>
       <use xlink:href="#macd4d5f219" x="394.363636" y="184.347595" style="stroke: #000000; stroke-width: 0.6"/>
      </g>
     </g>
     <g id="text_26">
      <!-- $\mathdefault{2\times10^{1}}$ -->
      <g transform="translate(352.763636 188.146813) scale(0.1 -0.1)">
       <defs>
        <path id="DejaVuSans-d7" d="M 4488 3438 
L 3059 2003 
L 4488 575 
L 4116 197 
L 2681 1631 
L 1247 197 
L 878 575 
L 2303 2003 
L 878 3438 
L 1247 3816 
L 2681 2381 
L 4116 3816 
L 4488 3438 
z
" transform="scale(0.015625)"/>
       </defs>
       <use xlink:href="#DejaVuSans-32" transform="translate(0 0.684375)"/>
       <use xlink:href="#DejaVuSans-d7" transform="translate(83.105469 0.684375)"/>
       <use xlink:href="#DejaVuSans-31" transform="translate(186.376953 0.684375)"/>
       <use xlink:href="#DejaVuSans-30" transform="translate(250 0.684375)"/>
       <use xlink:href="#DejaVuSans-31" transform="translate(314.580078 38.965625) scale(0.7)"/>
      </g>
     </g>
    </g>
    <g id="ytick_10">
     <g id="line2d_27">
      <g>
       <use xlink:href="#macd4d5f219" x="394.363636" y="116.489965" style="stroke: #000000; stroke-width: 0.6"/>
      </g>
     </g>
     <g id="text_27">
      <!-- $\mathdefault{3\times10^{1}}$ -->
      <g transform="translate(352.763636 120.289184) scale(0.1 -0.1)">
       <use xlink:href="#DejaVuSans-33" transform="translate(0 0.684375)"/>
       <use xlink:href="#DejaVuSans-d7" transform="translate(83.105469 0.684375)"/>
       <use xlink:href="#DejaVuSans-31" transform="translate(186.376953 0.684375)"/>
       <use xlink:href="#DejaVuSans-30" transform="translate(250 0.684375)"/>
       <use xlink:href="#DejaVuSans-31" transform="translate(314.580078 38.965625) scale(0.7)"/>
      </g>
     </g>
    </g>
    <g id="ytick_11">
     <g id="line2d_28">
      <g>
       <use xlink:href="#macd4d5f219" x="394.363636" y="68.344211" style="stroke: #000000; stroke-width: 0.6"/>
      </g>
     </g>
     <g id="text_28">
      <!-- $\mathdefault{4\times10^{1}}$ -->
      <g transform="translate(352.763636 72.143429) scale(0.1 -0.1)">
       <use xlink:href="#DejaVuSans-34" transform="translate(0 0.684375)"/>
       <use xlink:href="#DejaVuSans-d7" transform="translate(83.105469 0.684375)"/>
       <use xlink:href="#DejaVuSans-31" transform="translate(186.376953 0.684375)"/>
       <use xlink:href="#DejaVuSans-30" transform="translate(250 0.684375)"/>
       <use xlink:href="#DejaVuSans-31" transform="translate(314.580078 38.965625) scale(0.7)"/>
      </g>
     </g>
    </g>
    <g id="text_29">
     <!-- aPTT -->
     <g transform="translate(346.268011 196.319062) rotate(-90) scale(0.12 -0.12)">
      <use xlink:href="#DejaVuSans-61"/>
      <use xlink:href="#DejaVuSans-50" transform="translate(61.279297 0)"/>
      <use xlink:href="#DejaVuSans-54" transform="translate(121.582031 0)"/>
      <use xlink:href="#DejaVuSans-54" transform="translate(180.916016 0)"/>
     </g>
    </g>
   </g>
   <g id="LineCollection_3">
    <path d="M 415.5 129.537414 
L 415.5 103.455068 
" clip-path="url(#p223e32b07d)" style="fill: none; stroke: #000000; stroke-width: 1.5"/>
    <path d="M 419.274351 141.083889 
L 419.274351 49.751788 
" clip-path="url(#p223e32b07d)" style="fill: none; stroke: #000000; stroke-width: 1.5"/>
    <path d="M 423.048701 142.641922 
L 423.048701 90.500535 
" clip-path="url(#p223e32b07d)" style="fill: none; stroke: #000000; stroke-width: 1.5"/>
    <path d="M 426.823052 135.992774 
L 426.823052 95.542973 
" clip-path="url(#p223e32b07d)" style="fill: none; stroke: #000000; stroke-width: 1.5"/>
    <path d="M 430.597403 142.641922 
L 430.597403 98.122334 
" clip-path="url(#p223e32b07d)" style="fill: none; stroke: #000000; stroke-width: 1.5"/>
    <path d="M 434.371753 95.542973 
L 434.371753 90.500535 
" clip-path="url(#p223e32b07d)" style="fill: none; stroke: #000000; stroke-width: 1.5"/>
    <path d="M 438.146104 128.03644 
L 438.146104 94.268049 
" clip-path="url(#p223e32b07d)" style="fill: none; stroke: #000000; stroke-width: 1.5"/>
    <path d="M 441.920455 137.630459 
L 441.920455 91.746973 
" clip-path="url(#p223e32b07d)" style="fill: none; stroke: #000000; stroke-width: 1.5"/>
    <path d="M 445.694805 118.96272 
L 445.694805 99.427077 
" clip-path="url(#p223e32b07d)" style="fill: none; stroke: #000000; stroke-width: 1.5"/>
    <path d="M 596.668831 144.346322 
L 596.668831 94.268049 
" clip-path="url(#p223e32b07d)" style="fill: none; stroke: #000000; stroke-width: 1.5"/>
    <path d="M 600.443182 121.932965 
L 600.443182 102.067481 
" clip-path="url(#p223e32b07d)" style="fill: none; stroke: #000000; stroke-width: 1.5"/>
    <path d="M 604.217532 132.703238 
L 604.217532 103.455068 
" clip-path="url(#p223e32b07d)" style="fill: none; stroke: #000000; stroke-width: 1.5"/>
    <path d="M 607.991883 121.875345 
L 607.991883 110.301988 
" clip-path="url(#p223e32b07d)" style="fill: none; stroke: #000000; stroke-width: 1.5"/>
    <path d="M 611.766234 135.992774 
L 611.766234 95.542973 
" clip-path="url(#p223e32b07d)" style="fill: none; stroke: #000000; stroke-width: 1.5"/>
    <path d="M 615.540584 108.910011 
L 615.540584 103.455068 
" clip-path="url(#p223e32b07d)" style="fill: none; stroke: #000000; stroke-width: 1.5"/>
    <path d="M 619.314935 129.597734 
L 619.314935 98.122334 
" clip-path="url(#p223e32b07d)" style="fill: none; stroke: #000000; stroke-width: 1.5"/>
    <path d="M 623.089286 176.58114 
L 623.089286 69.393477 
" clip-path="url(#p223e32b07d)" style="fill: none; stroke: #000000; stroke-width: 1.5"/>
    <path d="M 626.863636 180.787543 
L 626.863636 71.597255 
" clip-path="url(#p223e32b07d)" style="fill: none; stroke: #000000; stroke-width: 1.5"/>
   </g>
   <g id="line2d_29">
    <path d="M 415.5 115.988644 
L 415.520877 115.882519 
L 415.986649 112.91712 
L 416.469055 111.172366 
L 417.025616 110.09168 
L 417.582177 109.575275 
L 418.254496 109.36128 
L 419.15092 109.423708 
L 420.495557 109.805944 
L 426.634557 111.810273 
L 430.605024 112.892524 
L 430.623282 112.785544 
L 431.092372 110.386891 
L 431.574177 109.00768 
L 432.081961 108.23469 
L 432.563201 107.884263 
L 433.092013 107.75447 
L 433.887059 107.837261 
L 435.079628 108.237431 
L 442.300172 111.058429 
L 445.702012 112.04777 
L 445.706495 112.028601 
L 446.400351 108.973169 
L 446.866311 107.990766 
L 447.308847 107.490465 
L 447.797727 107.238946 
L 448.449567 107.193639 
L 449.404532 107.429778 
L 451.252546 108.218542 
L 455.228655 109.934372 
L 458.638892 111.138904 
L 460.792208 111.777788 
L 460.794102 111.949493 
L 460.902878 111.311713 
L 461.356273 109.284318 
L 461.815425 108.115643 
L 462.290672 107.462784 
L 462.770399 107.152579 
L 463.088855 107.07112 
L 463.865627 107.120373 
L 464.935846 107.475898 
L 468.565996 109.114519 
L 471.97102 110.465962 
L 475.067796 111.478525 
L 475.88961 111.716071 
L 475.891509 111.92644 
L 476.000509 111.286474 
L 476.449612 109.271584 
L 476.880946 108.149036 
L 477.31228 107.511334 
L 477.851448 107.130913 
L 478.363296 107.028592 
L 479.045758 107.112125 
L 480.273437 107.550877 
L 487.667279 110.659942 
L 490.993367 111.840455 
L 491.018514 111.698058 
L 491.440558 109.590012 
L 491.906533 108.242077 
L 492.426748 107.446368 
L 492.889402 107.113643 
L 493.506274 106.988705 
L 494.24285 107.101557 
L 495.470477 107.56111 
L 501.972125 110.355718 
L 505.575112 111.537913 
L 506.084416 111.682709 
L 506.086339 111.812071 
L 506.189355 111.212851 
L 506.609505 109.301223 
L 507.058254 108.10556 
L 507.446018 107.508904 
L 507.917496 107.125852 
L 508.546134 106.969625 
L 509.230868 107.054452 
L 510.549806 107.536015 
L 517.305319 110.429645 
L 520.915535 111.599243 
L 521.189409 111.772242 
L 521.220879 111.586125 
L 521.671745 109.401786 
L 522.097642 108.203457 
L 522.585487 107.44289 
L 523.063549 107.084552 
L 523.700966 106.952962 
L 524.386919 107.054475 
L 525.703417 107.547276 
L 532.083514 110.304036 
L 535.482765 111.435786 
L 536.279221 111.667739 
L 536.281145 111.809232 
L 536.384247 111.209101 
L 536.843461 109.163733 
L 537.32236 107.96935 
L 537.713067 107.424046 
L 538.192755 107.081583 
L 538.83234 106.963283 
L 539.519688 107.072858 
L 540.838318 107.571779 
L 546.836217 110.181172 
L 550.008964 111.266234 
L 551.376623 111.672235 
L 551.378541 111.838083 
L 551.48767 111.201209 
L 551.956274 109.134893 
L 552.390976 108.04102 
L 552.908365 107.346054 
L 553.347886 107.072899 
L 553.85195 106.977293 
L 554.632188 107.089735 
L 556.013056 107.617781 
L 561.751549 110.120601 
L 565.307579 111.334843 
L 566.481656 111.73768 
L 566.508499 111.581544 
L 566.933616 109.487486 
L 567.382009 108.198879 
L 567.868264 107.435196 
L 568.281791 107.105755 
L 568.846814 106.943928 
L 569.600179 107.021591 
L 570.541884 107.34167 
L 574.084028 108.958901 
L 577.320802 110.275959 
L 580.243886 111.267587 
L 581.579066 111.730566 
L 581.605936 111.57419 
L 582.037783 109.454587 
L 582.525714 108.09485 
L 583.013645 107.376606 
L 583.54784 107.021269 
L 584.082034 106.931024 
L 584.840311 107.051359 
L 586.104106 107.533562 
L 592.338149 110.241155 
L 595.803877 111.404721 
L 596.668831 111.656769 
L 596.670743 111.865609 
L 596.779528 111.228563 
L 597.214572 109.266411 
L 597.700609 108.022618 
L 598.10564 107.449303 
L 598.642323 107.081648 
L 599.179006 106.985128 
L 599.927055 107.097739 
L 601.173804 107.565702 
L 607.722765 110.377227 
L 611.375706 111.569712 
L 611.766234 111.679921 
L 611.76815 111.846254 
L 611.877215 111.20959 
L 612.324869 109.211795 
L 612.762932 108.081657 
L 613.200995 107.446561 
L 613.707391 107.091445 
L 614.265769 106.983136 
L 614.94631 107.075876 
L 616.298677 107.577107 
L 622.427829 110.232353 
L 625.55725 111.29513 
L 629.025805 112.256052 
L 633.188071 113.162008 
L 638.044048 113.951772 
L 643.593736 114.592501 
L 648.449713 114.987443 
L 648.449713 114.987443 
" clip-path="url(#p223e32b07d)" style="fill: none; stroke: #0000ff; stroke-width: 1.5; stroke-linecap: square"/>
   </g>
   <g id="line2d_30">
    <path d="M 415.5 115.988644 
L 419.274351 89.263312 
L 423.048701 114.548762 
L 426.823052 114.548762 
L 430.597403 118.906113 
L 434.371753 93.002764 
L 438.146104 110.301988 
L 441.920455 113.121164 
L 445.694805 108.910011 
L 596.668831 117.441021 
L 600.443182 111.705639 
L 604.217532 117.441021 
L 607.991883 115.988644 
L 611.766234 114.548762 
L 615.540584 106.160315 
L 619.314935 113.121164 
L 623.089286 114.548762 
L 626.863636 117.441021 
" clip-path="url(#p223e32b07d)" style="fill: none; stroke: #000000; stroke-width: 1.5; stroke-linecap: square"/>
    <g clip-path="url(#p223e32b07d)">
     <use xlink:href="#m259efe94cb" x="415.5" y="115.988644" style="stroke: #000000; stroke-linejoin: miter"/>
     <use xlink:href="#m259efe94cb" x="419.274351" y="89.263312" style="stroke: #000000; stroke-linejoin: miter"/>
     <use xlink:href="#m259efe94cb" x="423.048701" y="114.548762" style="stroke: #000000; stroke-linejoin: miter"/>
     <use xlink:href="#m259efe94cb" x="426.823052" y="114.548762" style="stroke: #000000; stroke-linejoin: miter"/>
     <use xlink:href="#m259efe94cb" x="430.597403" y="118.906113" style="stroke: #000000; stroke-linejoin: miter"/>
     <use xlink:href="#m259efe94cb" x="434.371753" y="93.002764" style="stroke: #000000; stroke-linejoin: miter"/>
     <use xlink:href="#m259efe94cb" x="438.146104" y="110.301988" style="stroke: #000000; stroke-linejoin: miter"/>
     <use xlink:href="#m259efe94cb" x="441.920455" y="113.121164" style="stroke: #000000; stroke-linejoin: miter"/>
     <use xlink:href="#m259efe94cb" x="445.694805" y="108.910011" style="stroke: #000000; stroke-linejoin: miter"/>
     <use xlink:href="#m259efe94cb" x="596.668831" y="117.441021" style="stroke: #000000; stroke-linejoin: miter"/>
     <use xlink:href="#m259efe94cb" x="600.443182" y="111.705639" style="stroke: #000000; stroke-linejoin: miter"/>
     <use xlink:href="#m259efe94cb" x="604.217532" y="117.441021" style="stroke: #000000; stroke-linejoin: miter"/>
     <use xlink:href="#m259efe94cb" x="607.991883" y="115.988644" style="stroke: #000000; stroke-linejoin: miter"/>
     <use xlink:href="#m259efe94cb" x="611.766234" y="114.548762" style="stroke: #000000; stroke-linejoin: miter"/>
     <use xlink:href="#m259efe94cb" x="615.540584" y="106.160315" style="stroke: #000000; stroke-linejoin: miter"/>
     <use xlink:href="#m259efe94cb" x="619.314935" y="113.121164" style="stroke: #000000; stroke-linejoin: miter"/>
     <use xlink:href="#m259efe94cb" x="623.089286" y="114.548762" style="stroke: #000000; stroke-linejoin: miter"/>
     <use xlink:href="#m259efe94cb" x="626.863636" y="117.441021" style="stroke: #000000; stroke-linejoin: miter"/>
    </g>
   </g>
   <g id="patch_9">
    <path d="M 394.363636 320.4 
L 394.363636 43.2 
" style="fill: none; stroke: #000000; stroke-width: 0.8; stroke-linejoin: miter; stroke-linecap: square"/>
   </g>
   <g id="patch_10">
    <path d="M 648 320.4 
L 648 43.2 
" style="fill: none; stroke: #000000; stroke-width: 0.8; stroke-linejoin: miter; stroke-linecap: square"/>
   </g>
   <g id="patch_11">
    <path d="M 394.363636 320.4 
L 648 320.4 
" style="fill: none; stroke: #000000; stroke-width: 0.8; stroke-linejoin: miter; stroke-linecap: square"/>
   </g>
   <g id="patch_12">
    <path d="M 394.363636 43.2 
L 648 43.2 
" style="fill: none; stroke: #000000; stroke-width: 0.8; stroke-linejoin: miter; stroke-linecap: square"/>
   </g>
   <g id="text_30">
    <!-- Frost2013a fm_API2x2_aPTT -->
    <g transform="translate(422.593381 37.2) scale(0.14 -0.14)">
     <use xlink:href="#DejaVuSans-46"/>
     <use xlink:href="#DejaVuSans-72" transform="translate(50.269531 0)"/>
     <use xlink:href="#DejaVuSans-6f" transform="translate(89.132812 0)"/>
     <use xlink:href="#DejaVuSans-73" transform="translate(150.314453 0)"/>
     <use xlink:href="#DejaVuSans-74" transform="translate(202.414062 0)"/>
     <use xlink:href="#DejaVuSans-32" transform="translate(241.623047 0)"/>
     <use xlink:href="#DejaVuSans-30" transform="translate(305.246094 0)"/>
     <use xlink:href="#DejaVuSans-31" transform="translate(368.869141 0)"/>
     <use xlink:href="#DejaVuSans-33" transform="translate(432.492188 0)"/>
     <use xlink:href="#DejaVuSans-61" transform="translate(496.115234 0)"/>
     <use xlink:href="#DejaVuSans-20" transform="translate(557.394531 0)"/>
     <use xlink:href="#DejaVuSans-66" transform="translate(589.181641 0)"/>
     <use xlink:href="#DejaVuSans-6d" transform="translate(624.386719 0)"/>
     <use xlink:href="#DejaVuSans-5f" transform="translate(721.798828 0)"/>
     <use xlink:href="#DejaVuSans-41" transform="translate(771.798828 0)"/>
     <use xlink:href="#DejaVuSans-50" transform="translate(840.207031 0)"/>
     <use xlink:href="#DejaVuSans-49" transform="translate(900.509766 0)"/>
     <use xlink:href="#DejaVuSans-32" transform="translate(930.001953 0)"/>
     <use xlink:href="#DejaVuSans-78" transform="translate(993.625 0)"/>
     <use xlink:href="#DejaVuSans-32" transform="translate(1052.804688 0)"/>
     <use xlink:href="#DejaVuSans-5f" transform="translate(1116.427734 0)"/>
     <use xlink:href="#DejaVuSans-61" transform="translate(1166.427734 0)"/>
     <use xlink:href="#DejaVuSans-50" transform="translate(1227.707031 0)"/>
     <use xlink:href="#DejaVuSans-54" transform="translate(1288.009766 0)"/>
     <use xlink:href="#DejaVuSans-54" transform="translate(1347.34375 0)"/>
    </g>
   </g>
   <g id="legend_2">
    <g id="patch_13">
     <path d="M 504.95 80.834375 
L 641 80.834375 
Q 643 80.834375 643 78.834375 
L 643 50.2 
Q 643 48.2 641 48.2 
L 504.95 48.2 
Q 502.95 48.2 502.95 50.2 
L 502.95 78.834375 
Q 502.95 80.834375 504.95 80.834375 
z
" style="fill: #ffffff; opacity: 0.8; stroke: #cccccc; stroke-linejoin: miter"/>
    </g>
    <g id="line2d_31">
     <path d="M 506.95 56.298437 
L 516.95 56.298437 
L 526.95 56.298437 
" style="fill: none; stroke: #0000ff; stroke-width: 1.5; stroke-linecap: square"/>
    </g>
    <g id="text_31">
     <!-- observable -->
     <g transform="translate(534.95 59.798437) scale(0.1 -0.1)">
      <use xlink:href="#DejaVuSans-6f"/>
      <use xlink:href="#DejaVuSans-62" transform="translate(61.181641 0)"/>
      <use xlink:href="#DejaVuSans-73" transform="translate(124.658203 0)"/>
      <use xlink:href="#DejaVuSans-65" transform="translate(176.757812 0)"/>
      <use xlink:href="#DejaVuSans-72" transform="translate(238.28125 0)"/>
      <use xlink:href="#DejaVuSans-76" transform="translate(279.394531 0)"/>
      <use xlink:href="#DejaVuSans-61" transform="translate(338.574219 0)"/>
      <use xlink:href="#DejaVuSans-62" transform="translate(399.853516 0)"/>
      <use xlink:href="#DejaVuSans-6c" transform="translate(463.330078 0)"/>
      <use xlink:href="#DejaVuSans-65" transform="translate(491.113281 0)"/>
     </g>
    </g>
    <g id="LineCollection_4">
     <path d="M 516.95 75.976562 
L 516.95 65.976562 
" style="fill: none; stroke: #000000; stroke-width: 1.5"/>
    </g>
    <g id="line2d_32">
     <path d="M 506.95 70.976562 
L 526.95 70.976562 
" style="fill: none; stroke: #000000; stroke-width: 1.5; stroke-linecap: square"/>
    </g>
    <g id="line2d_33">
     <g>
      <use xlink:href="#m259efe94cb" x="516.95" y="70.976562" style="stroke: #000000; stroke-linejoin: miter"/>
     </g>
    </g>
    <g id="text_32">
     <!-- reference_data ± SD -->
     <g transform="translate(534.95 74.476562) scale(0.1 -0.1)">
      <use xlink:href="#DejaVuSans-72"/>
      <use xlink:href="#DejaVuSans-65" transform="translate(38.863281 0)"/>
      <use xlink:href="#DejaVuSans-66" transform="translate(100.386719 0)"/>
      <use xlink:href="#DejaVuSans-65" transform="translate(135.591797 0)"/>
      <use xlink:href="#DejaVuSans-72" transform="translate(197.115234 0)"/>
      <use xlink:href="#DejaVuSans-65" transform="translate(235.978516 0)"/>
      <use xlink:href="#DejaVuSans-6e" transform="translate(297.501953 0)"/>
      <use xlink:href="#DejaVuSans-63" transform="translate(360.880859 0)"/>
      <use xlink:href="#DejaVuSans-65" transform="translate(415.861328 0)"/>
      <use xlink:href="#DejaVuSans-5f" transform="translate(477.384766 0)"/>
      <use xlink:href="#DejaVuSans-64" transform="translate(527.384766 0)"/>
      <use xlink:href="#DejaVuSans-61" transform="translate(590.861328 0)"/>
      <use xlink:href="#DejaVuSans-74" transform="translate(652.140625 0)"/>
      <use xlink:href="#DejaVuSans-61" transform="translate(691.349609 0)"/>
      <use xlink:href="#DejaVuSans-20" transform="translate(752.628906 0)"/>
      <use xlink:href="#DejaVuSans-b1" transform="translate(784.416016 0)"/>
      <use xlink:href="#DejaVuSans-20" transform="translate(868.205078 0)"/>
      <use xlink:href="#DejaVuSans-53" transform="translate(899.992188 0)"/>
      <use xlink:href="#DejaVuSans-44" transform="translate(963.46875 0)"/>
     </g>
    </g>
   </g>
  </g>
 </g>
 <defs>
  <clipPath id="p4a50ddaad9">
   <rect x="90" y="43.2" width="253.636364" height="277.2"/>
  </clipPath>
  <clipPath id="p223e32b07d">
   <rect x="394.363636" y="43.2" width="253.636364" height="277.2"/>
  </clipPath>
 </defs>
</svg>
