<?xml version="1.0" encoding="utf-8" standalone="no"?>
<!DOCTYPE svg PUBLIC "-//W3C//DTD SVG 1.1//EN"
  "http://www.w3.org/Graphics/SVG/1.1/DTD/svg11.dtd">
<svg xmlns:xlink="http://www.w3.org/1999/xlink" width="440.4992pt" height="414.385812pt" viewBox="0 0 440.4992 414.385812" xmlns="http://www.w3.org/2000/svg" version="1.1">
 <metadata>
  <rdf:RDF xmlns:dc="http://purl.org/dc/elements/1.1/" xmlns:cc="http://creativecommons.org/ns#" xmlns:rdf="http://www.w3.org/1999/02/22-rdf-syntax-ns#">
   <cc:Work>
    <dc:type rdf:resource="http://purl.org/dc/dcmitype/StillImage"/>
    <dc:date>2026-03-23T09:58:25.740980</dc:date>
    <dc:format>image/svg+xml</dc:format>
    <dc:creator>
     <cc:Agent>
      <dc:title>Matplotlib v3.10.8, https://matplotlib.org/</dc:title>
     </cc:Agent>
    </dc:creator>
   </cc:Work>
  </rdf:RDF>
 </metadata>
 <defs>
  <style type="text/css">*{stroke-linejoin: round; stroke-linecap: butt}</style>
 </defs>
 <g id="figure_1">
  <g id="patch_1">
   <path d="M 0 414.385812 
L 440.4992 414.385812 
L 440.4992 -0 
L 0 -0 
z
" style="fill: #ffffff"/>
  </g>
  <g id="axes_1">
   <g id="patch_2">
    <path d="M 59.495 364.248 
L 433.2992 364.248 
L 433.2992 48.24 
L 59.495 48.24 
z
" style="fill: #ffffff"/>
   </g>
   <g id="matplotlib.axis_1">
    <g id="xtick_1">
     <g id="line2d_1">
      <defs>
       <path id="mcc336b1822" d="M 0 0 
L 0 3.5 
" style="stroke: #000000; stroke-width: 0.8"/>
      </defs>
      <g>
       <use xlink:href="#mcc336b1822" x="76.4861" y="364.248" style="stroke: #000000; stroke-width: 0.8"/>
      </g>
     </g>
     <g id="text_1">
      <!-- 0 -->
      <g transform="translate(71.714225 382.645656) scale(0.15 -0.15)">
       <defs>
        <path id="DejaVuSans-30" d="M 2034 4250 
Q 1547 4250 1301 3770 
Q 1056 3291 1056 2328 
Q 1056 1369 1301 889 
Q 1547 409 2034 409 
Q 2525 409 2770 889 
Q 3016 1369 3016 2328 
Q 3016 3291 2770 3770 
Q 2525 4250 2034 4250 
z
M 2034 4750 
Q 2819 4750 3233 4129 
Q 3647 3509 3647 2328 
Q 3647 1150 3233 529 
Q 2819 -91 2034 -91 
Q 1250 -91 836 529 
Q 422 1150 422 2328 
Q 422 3509 836 4129 
Q 1250 4750 2034 4750 
z
" transform="scale(0.015625)"/>
       </defs>
       <use xlink:href="#DejaVuSans-30"/>
      </g>
     </g>
    </g>
    <g id="xtick_2">
     <g id="line2d_2">
      <g>
       <use xlink:href="#mcc336b1822" x="144.4505" y="364.248" style="stroke: #000000; stroke-width: 0.8"/>
      </g>
     </g>
     <g id="text_2">
      <!-- 20 -->
      <g transform="translate(134.90675 382.645656) scale(0.15 -0.15)">
       <defs>
        <path id="DejaVuSans-32" d="M 1228 531 
L 3431 531 
L 3431 0 
L 469 0 
L 469 531 
Q 828 903 1448 1529 
Q 2069 2156 2228 2338 
Q 2531 2678 2651 2914 
Q 2772 3150 2772 3378 
Q 2772 3750 2511 3984 
Q 2250 4219 1831 4219 
Q 1534 4219 1204 4116 
Q 875 4013 500 3803 
L 500 4441 
Q 881 4594 1212 4672 
Q 1544 4750 1819 4750 
Q 2544 4750 2975 4387 
Q 3406 4025 3406 3419 
Q 3406 3131 3298 2873 
Q 3191 2616 2906 2266 
Q 2828 2175 2409 1742 
Q 1991 1309 1228 531 
z
" transform="scale(0.015625)"/>
       </defs>
       <use xlink:href="#DejaVuSans-32"/>
       <use xlink:href="#DejaVuSans-30" transform="translate(63.623047 0)"/>
      </g>
     </g>
    </g>
    <g id="xtick_3">
     <g id="line2d_3">
      <g>
       <use xlink:href="#mcc336b1822" x="212.4149" y="364.248" style="stroke: #000000; stroke-width: 0.8"/>
      </g>
     </g>
     <g id="text_3">
      <!-- 40 -->
      <g transform="translate(202.87115 382.645656) scale(0.15 -0.15)">
       <defs>
        <path id="DejaVuSans-34" d="M 2419 4116 
L 825 1625 
L 2419 1625 
L 2419 4116 
z
M 2253 4666 
L 3047 4666 
L 3047 1625 
L 3713 1625 
L 3713 1100 
L 3047 1100 
L 3047 0 
L 2419 0 
L 2419 1100 
L 313 1100 
L 313 1709 
L 2253 4666 
z
" transform="scale(0.015625)"/>
       </defs>
       <use xlink:href="#DejaVuSans-34"/>
       <use xlink:href="#DejaVuSans-30" transform="translate(63.623047 0)"/>
      </g>
     </g>
    </g>
    <g id="xtick_4">
     <g id="line2d_4">
      <g>
       <use xlink:href="#mcc336b1822" x="280.3793" y="364.248" style="stroke: #000000; stroke-width: 0.8"/>
      </g>
     </g>
     <g id="text_4">
      <!-- 60 -->
      <g transform="translate(270.83555 382.645656) scale(0.15 -0.15)">
       <defs>
        <path id="DejaVuSans-36" d="M 2113 2584 
Q 1688 2584 1439 2293 
Q 1191 2003 1191 1497 
Q 1191 994 1439 701 
Q 1688 409 2113 409 
Q 2538 409 2786 701 
Q 3034 994 3034 1497 
Q 3034 2003 2786 2293 
Q 2538 2584 2113 2584 
z
M 3366 4563 
L 3366 3988 
Q 3128 4100 2886 4159 
Q 2644 4219 2406 4219 
Q 1781 4219 1451 3797 
Q 1122 3375 1075 2522 
Q 1259 2794 1537 2939 
Q 1816 3084 2150 3084 
Q 2853 3084 3261 2657 
Q 3669 2231 3669 1497 
Q 3669 778 3244 343 
Q 2819 -91 2113 -91 
Q 1303 -91 875 529 
Q 447 1150 447 2328 
Q 447 3434 972 4092 
Q 1497 4750 2381 4750 
Q 2619 4750 2861 4703 
Q 3103 4656 3366 4563 
z
" transform="scale(0.015625)"/>
       </defs>
       <use xlink:href="#DejaVuSans-36"/>
       <use xlink:href="#DejaVuSans-30" transform="translate(63.623047 0)"/>
      </g>
     </g>
    </g>
    <g id="xtick_5">
     <g id="line2d_5">
      <g>
       <use xlink:href="#mcc336b1822" x="348.3437" y="364.248" style="stroke: #000000; stroke-width: 0.8"/>
      </g>
     </g>
     <g id="text_5">
      <!-- 80 -->
      <g transform="translate(338.79995 382.645656) scale(0.15 -0.15)">
       <defs>
        <path id="DejaVuSans-38" d="M 2034 2216 
Q 1584 2216 1326 1975 
Q 1069 1734 1069 1313 
Q 1069 891 1326 650 
Q 1584 409 2034 409 
Q 2484 409 2743 651 
Q 3003 894 3003 1313 
Q 3003 1734 2745 1975 
Q 2488 2216 2034 2216 
z
M 1403 2484 
Q 997 2584 770 2862 
Q 544 3141 544 3541 
Q 544 4100 942 4425 
Q 1341 4750 2034 4750 
Q 2731 4750 3128 4425 
Q 3525 4100 3525 3541 
Q 3525 3141 3298 2862 
Q 3072 2584 2669 2484 
Q 3125 2378 3379 2068 
Q 3634 1759 3634 1313 
Q 3634 634 3220 271 
Q 2806 -91 2034 -91 
Q 1263 -91 848 271 
Q 434 634 434 1313 
Q 434 1759 690 2068 
Q 947 2378 1403 2484 
z
M 1172 3481 
Q 1172 3119 1398 2916 
Q 1625 2713 2034 2713 
Q 2441 2713 2670 2916 
Q 2900 3119 2900 3481 
Q 2900 3844 2670 4047 
Q 2441 4250 2034 4250 
Q 1625 4250 1398 4047 
Q 1172 3844 1172 3481 
z
" transform="scale(0.015625)"/>
       </defs>
       <use xlink:href="#DejaVuSans-38"/>
       <use xlink:href="#DejaVuSans-30" transform="translate(63.623047 0)"/>
      </g>
     </g>
    </g>
    <g id="xtick_6">
     <g id="line2d_6">
      <g>
       <use xlink:href="#mcc336b1822" x="416.3081" y="364.248" style="stroke: #000000; stroke-width: 0.8"/>
      </g>
     </g>
     <g id="text_6">
      <!-- 100 -->
      <g transform="translate(401.992475 382.645656) scale(0.15 -0.15)">
       <defs>
        <path id="DejaVuSans-31" d="M 794 531 
L 1825 531 
L 1825 4091 
L 703 3866 
L 703 4441 
L 1819 4666 
L 2450 4666 
L 2450 531 
L 3481 531 
L 3481 0 
L 794 0 
L 794 531 
z
" transform="scale(0.015625)"/>
       </defs>
       <use xlink:href="#DejaVuSans-31"/>
       <use xlink:href="#DejaVuSans-30" transform="translate(63.623047 0)"/>
       <use xlink:href="#DejaVuSans-30" transform="translate(127.246094 0)"/>
      </g>
     </g>
    </g>
    <g id="text_7">
     <!-- time [hr] -->
     <g transform="translate(201.322569 403.442375) scale(0.18 -0.18)">
      <defs>
       <path id="DejaVuSans-Bold-74" d="M 1759 4494 
L 1759 3500 
L 2913 3500 
L 2913 2700 
L 1759 2700 
L 1759 1216 
Q 1759 972 1856 886 
Q 1953 800 2241 800 
L 2816 800 
L 2816 0 
L 1856 0 
Q 1194 0 917 276 
Q 641 553 641 1216 
L 641 2700 
L 84 2700 
L 84 3500 
L 641 3500 
L 641 4494 
L 1759 4494 
z
" transform="scale(0.015625)"/>
       <path id="DejaVuSans-Bold-69" d="M 538 3500 
L 1656 3500 
L 1656 0 
L 538 0 
L 538 3500 
z
M 538 4863 
L 1656 4863 
L 1656 3950 
L 538 3950 
L 538 4863 
z
" transform="scale(0.015625)"/>
       <path id="DejaVuSans-Bold-6d" d="M 3781 2919 
Q 3994 3244 4286 3414 
Q 4578 3584 4928 3584 
Q 5531 3584 5847 3212 
Q 6163 2841 6163 2131 
L 6163 0 
L 5038 0 
L 5038 1825 
Q 5041 1866 5042 1909 
Q 5044 1953 5044 2034 
Q 5044 2406 4934 2573 
Q 4825 2741 4581 2741 
Q 4263 2741 4089 2478 
Q 3916 2216 3909 1719 
L 3909 0 
L 2784 0 
L 2784 1825 
Q 2784 2406 2684 2573 
Q 2584 2741 2328 2741 
Q 2006 2741 1831 2477 
Q 1656 2213 1656 1722 
L 1656 0 
L 531 0 
L 531 3500 
L 1656 3500 
L 1656 2988 
Q 1863 3284 2130 3434 
Q 2397 3584 2719 3584 
Q 3081 3584 3359 3409 
Q 3638 3234 3781 2919 
z
" transform="scale(0.015625)"/>
       <path id="DejaVuSans-Bold-65" d="M 4031 1759 
L 4031 1441 
L 1416 1441 
Q 1456 1047 1700 850 
Q 1944 653 2381 653 
Q 2734 653 3104 758 
Q 3475 863 3866 1075 
L 3866 213 
Q 3469 63 3072 -14 
Q 2675 -91 2278 -91 
Q 1328 -91 801 392 
Q 275 875 275 1747 
Q 275 2603 792 3093 
Q 1309 3584 2216 3584 
Q 3041 3584 3536 3087 
Q 4031 2591 4031 1759 
z
M 2881 2131 
Q 2881 2450 2695 2645 
Q 2509 2841 2209 2841 
Q 1884 2841 1681 2658 
Q 1478 2475 1428 2131 
L 2881 2131 
z
" transform="scale(0.015625)"/>
       <path id="DejaVuSans-Bold-20" transform="scale(0.015625)"/>
       <path id="DejaVuSans-Bold-5b" d="M 550 4863 
L 2491 4863 
L 2491 4159 
L 1613 4159 
L 1613 -141 
L 2491 -141 
L 2491 -844 
L 550 -844 
L 550 4863 
z
" transform="scale(0.015625)"/>
       <path id="DejaVuSans-Bold-68" d="M 4056 2131 
L 4056 0 
L 2931 0 
L 2931 347 
L 2931 1625 
Q 2931 2084 2911 2256 
Q 2891 2428 2841 2509 
Q 2775 2619 2662 2680 
Q 2550 2741 2406 2741 
Q 2056 2741 1856 2470 
Q 1656 2200 1656 1722 
L 1656 0 
L 538 0 
L 538 4863 
L 1656 4863 
L 1656 2988 
Q 1909 3294 2193 3439 
Q 2478 3584 2822 3584 
Q 3428 3584 3742 3212 
Q 4056 2841 4056 2131 
z
" transform="scale(0.015625)"/>
       <path id="DejaVuSans-Bold-72" d="M 3138 2547 
Q 2991 2616 2845 2648 
Q 2700 2681 2553 2681 
Q 2122 2681 1889 2404 
Q 1656 2128 1656 1613 
L 1656 0 
L 538 0 
L 538 3500 
L 1656 3500 
L 1656 2925 
Q 1872 3269 2151 3426 
Q 2431 3584 2822 3584 
Q 2878 3584 2943 3579 
Q 3009 3575 3134 3559 
L 3138 2547 
z
" transform="scale(0.015625)"/>
       <path id="DejaVuSans-Bold-5d" d="M 2375 -844 
L 434 -844 
L 434 -141 
L 1313 -141 
L 1313 4159 
L 434 4159 
L 434 4863 
L 2375 4863 
L 2375 -844 
z
" transform="scale(0.015625)"/>
      </defs>
      <use xlink:href="#DejaVuSans-Bold-74"/>
      <use xlink:href="#DejaVuSans-Bold-69" transform="translate(47.802734 0)"/>
      <use xlink:href="#DejaVuSans-Bold-6d" transform="translate(82.080078 0)"/>
      <use xlink:href="#DejaVuSans-Bold-65" transform="translate(186.279297 0)"/>
      <use xlink:href="#DejaVuSans-Bold-20" transform="translate(254.101562 0)"/>
      <use xlink:href="#DejaVuSans-Bold-5b" transform="translate(288.916016 0)"/>
      <use xlink:href="#DejaVuSans-Bold-68" transform="translate(334.619141 0)"/>
      <use xlink:href="#DejaVuSans-Bold-72" transform="translate(405.810547 0)"/>
      <use xlink:href="#DejaVuSans-Bold-5d" transform="translate(455.126953 0)"/>
     </g>
    </g>
   </g>
   <g id="matplotlib.axis_2">
    <g id="ytick_1">
     <g id="line2d_7">
      <defs>
       <path id="m6c1166aaa2" d="M 0 0 
L -3.5 0 
" style="stroke: #000000; stroke-width: 0.8"/>
      </defs>
      <g>
       <use xlink:href="#m6c1166aaa2" x="59.495" y="349.884" style="stroke: #000000; stroke-width: 0.8"/>
      </g>
     </g>
     <g id="text_8">
      <!-- 0.0 -->
      <g transform="translate(28.640313 355.582828) scale(0.15 -0.15)">
       <defs>
        <path id="DejaVuSans-2e" d="M 684 794 
L 1344 794 
L 1344 0 
L 684 0 
L 684 794 
z
" transform="scale(0.015625)"/>
       </defs>
       <use xlink:href="#DejaVuSans-30"/>
       <use xlink:href="#DejaVuSans-2e" transform="translate(63.623047 0)"/>
       <use xlink:href="#DejaVuSans-30" transform="translate(95.410156 0)"/>
      </g>
     </g>
    </g>
    <g id="ytick_2">
     <g id="line2d_8">
      <g>
       <use xlink:href="#m6c1166aaa2" x="59.495" y="310.134516" style="stroke: #000000; stroke-width: 0.8"/>
      </g>
     </g>
     <g id="text_9">
      <!-- 0.2 -->
      <g transform="translate(28.640313 315.833344) scale(0.15 -0.15)">
       <use xlink:href="#DejaVuSans-30"/>
       <use xlink:href="#DejaVuSans-2e" transform="translate(63.623047 0)"/>
       <use xlink:href="#DejaVuSans-32" transform="translate(95.410156 0)"/>
      </g>
     </g>
    </g>
    <g id="ytick_3">
     <g id="line2d_9">
      <g>
       <use xlink:href="#m6c1166aaa2" x="59.495" y="270.385033" style="stroke: #000000; stroke-width: 0.8"/>
      </g>
     </g>
     <g id="text_10">
      <!-- 0.4 -->
      <g transform="translate(28.640313 276.083861) scale(0.15 -0.15)">
       <use xlink:href="#DejaVuSans-30"/>
       <use xlink:href="#DejaVuSans-2e" transform="translate(63.623047 0)"/>
       <use xlink:href="#DejaVuSans-34" transform="translate(95.410156 0)"/>
      </g>
     </g>
    </g>
    <g id="ytick_4">
     <g id="line2d_10">
      <g>
       <use xlink:href="#m6c1166aaa2" x="59.495" y="230.635549" style="stroke: #000000; stroke-width: 0.8"/>
      </g>
     </g>
     <g id="text_11">
      <!-- 0.6 -->
      <g transform="translate(28.640313 236.334377) scale(0.15 -0.15)">
       <use xlink:href="#DejaVuSans-30"/>
       <use xlink:href="#DejaVuSans-2e" transform="translate(63.623047 0)"/>
       <use xlink:href="#DejaVuSans-36" transform="translate(95.410156 0)"/>
      </g>
     </g>
    </g>
    <g id="ytick_5">
     <g id="line2d_11">
      <g>
       <use xlink:href="#m6c1166aaa2" x="59.495" y="190.886065" style="stroke: #000000; stroke-width: 0.8"/>
      </g>
     </g>
     <g id="text_12">
      <!-- 0.8 -->
      <g transform="translate(28.640313 196.584893) scale(0.15 -0.15)">
       <use xlink:href="#DejaVuSans-30"/>
       <use xlink:href="#DejaVuSans-2e" transform="translate(63.623047 0)"/>
       <use xlink:href="#DejaVuSans-38" transform="translate(95.410156 0)"/>
      </g>
     </g>
    </g>
    <g id="ytick_6">
     <g id="line2d_12">
      <g>
       <use xlink:href="#m6c1166aaa2" x="59.495" y="151.136581" style="stroke: #000000; stroke-width: 0.8"/>
      </g>
     </g>
     <g id="text_13">
      <!-- 1.0 -->
      <g transform="translate(28.640313 156.83541) scale(0.15 -0.15)">
       <use xlink:href="#DejaVuSans-31"/>
       <use xlink:href="#DejaVuSans-2e" transform="translate(63.623047 0)"/>
       <use xlink:href="#DejaVuSans-30" transform="translate(95.410156 0)"/>
      </g>
     </g>
    </g>
    <g id="ytick_7">
     <g id="line2d_13">
      <g>
       <use xlink:href="#m6c1166aaa2" x="59.495" y="111.387098" style="stroke: #000000; stroke-width: 0.8"/>
      </g>
     </g>
     <g id="text_14">
      <!-- 1.2 -->
      <g transform="translate(28.640313 117.085926) scale(0.15 -0.15)">
       <use xlink:href="#DejaVuSans-31"/>
       <use xlink:href="#DejaVuSans-2e" transform="translate(63.623047 0)"/>
       <use xlink:href="#DejaVuSans-32" transform="translate(95.410156 0)"/>
      </g>
     </g>
    </g>
    <g id="ytick_8">
     <g id="line2d_14">
      <g>
       <use xlink:href="#m6c1166aaa2" x="59.495" y="71.637614" style="stroke: #000000; stroke-width: 0.8"/>
      </g>
     </g>
     <g id="text_15">
      <!-- 1.4 -->
      <g transform="translate(28.640313 77.336442) scale(0.15 -0.15)">
       <use xlink:href="#DejaVuSans-31"/>
       <use xlink:href="#DejaVuSans-2e" transform="translate(63.623047 0)"/>
       <use xlink:href="#DejaVuSans-34" transform="translate(95.410156 0)"/>
      </g>
     </g>
    </g>
    <g id="text_16">
     <!-- apixaban plasma [µM] -->
     <g transform="translate(20.877188 319.1265) rotate(-90) scale(0.18 -0.18)">
      <defs>
       <path id="DejaVuSans-Bold-61" d="M 2106 1575 
Q 1756 1575 1579 1456 
Q 1403 1338 1403 1106 
Q 1403 894 1545 773 
Q 1688 653 1941 653 
Q 2256 653 2472 879 
Q 2688 1106 2688 1447 
L 2688 1575 
L 2106 1575 
z
M 3816 1997 
L 3816 0 
L 2688 0 
L 2688 519 
Q 2463 200 2181 54 
Q 1900 -91 1497 -91 
Q 953 -91 614 226 
Q 275 544 275 1050 
Q 275 1666 698 1953 
Q 1122 2241 2028 2241 
L 2688 2241 
L 2688 2328 
Q 2688 2594 2478 2717 
Q 2269 2841 1825 2841 
Q 1466 2841 1156 2769 
Q 847 2697 581 2553 
L 581 3406 
Q 941 3494 1303 3539 
Q 1666 3584 2028 3584 
Q 2975 3584 3395 3211 
Q 3816 2838 3816 1997 
z
" transform="scale(0.015625)"/>
       <path id="DejaVuSans-Bold-70" d="M 1656 506 
L 1656 -1331 
L 538 -1331 
L 538 3500 
L 1656 3500 
L 1656 2988 
Q 1888 3294 2169 3439 
Q 2450 3584 2816 3584 
Q 3463 3584 3878 3070 
Q 4294 2556 4294 1747 
Q 4294 938 3878 423 
Q 3463 -91 2816 -91 
Q 2450 -91 2169 54 
Q 1888 200 1656 506 
z
M 2400 2772 
Q 2041 2772 1848 2508 
Q 1656 2244 1656 1747 
Q 1656 1250 1848 986 
Q 2041 722 2400 722 
Q 2759 722 2948 984 
Q 3138 1247 3138 1747 
Q 3138 2247 2948 2509 
Q 2759 2772 2400 2772 
z
" transform="scale(0.015625)"/>
       <path id="DejaVuSans-Bold-78" d="M 1422 1791 
L 159 3500 
L 1344 3500 
L 2059 2463 
L 2784 3500 
L 3969 3500 
L 2706 1797 
L 4031 0 
L 2847 0 
L 2059 1106 
L 1281 0 
L 97 0 
L 1422 1791 
z
" transform="scale(0.015625)"/>
       <path id="DejaVuSans-Bold-62" d="M 2400 722 
Q 2759 722 2948 984 
Q 3138 1247 3138 1747 
Q 3138 2247 2948 2509 
Q 2759 2772 2400 2772 
Q 2041 2772 1848 2508 
Q 1656 2244 1656 1747 
Q 1656 1250 1848 986 
Q 2041 722 2400 722 
z
M 1656 2988 
Q 1888 3294 2169 3439 
Q 2450 3584 2816 3584 
Q 3463 3584 3878 3070 
Q 4294 2556 4294 1747 
Q 4294 938 3878 423 
Q 3463 -91 2816 -91 
Q 2450 -91 2169 54 
Q 1888 200 1656 506 
L 1656 0 
L 538 0 
L 538 4863 
L 1656 4863 
L 1656 2988 
z
" transform="scale(0.015625)"/>
       <path id="DejaVuSans-Bold-6e" d="M 4056 2131 
L 4056 0 
L 2931 0 
L 2931 347 
L 2931 1631 
Q 2931 2084 2911 2256 
Q 2891 2428 2841 2509 
Q 2775 2619 2662 2680 
Q 2550 2741 2406 2741 
Q 2056 2741 1856 2470 
Q 1656 2200 1656 1722 
L 1656 0 
L 538 0 
L 538 3500 
L 1656 3500 
L 1656 2988 
Q 1909 3294 2193 3439 
Q 2478 3584 2822 3584 
Q 3428 3584 3742 3212 
Q 4056 2841 4056 2131 
z
" transform="scale(0.015625)"/>
       <path id="DejaVuSans-Bold-6c" d="M 538 4863 
L 1656 4863 
L 1656 0 
L 538 0 
L 538 4863 
z
" transform="scale(0.015625)"/>
       <path id="DejaVuSans-Bold-73" d="M 3272 3391 
L 3272 2541 
Q 2913 2691 2578 2766 
Q 2244 2841 1947 2841 
Q 1628 2841 1473 2761 
Q 1319 2681 1319 2516 
Q 1319 2381 1436 2309 
Q 1553 2238 1856 2203 
L 2053 2175 
Q 2913 2066 3209 1816 
Q 3506 1566 3506 1031 
Q 3506 472 3093 190 
Q 2681 -91 1863 -91 
Q 1516 -91 1145 -36 
Q 775 19 384 128 
L 384 978 
Q 719 816 1070 734 
Q 1422 653 1784 653 
Q 2113 653 2278 743 
Q 2444 834 2444 1013 
Q 2444 1163 2330 1236 
Q 2216 1309 1875 1350 
L 1678 1375 
Q 931 1469 631 1722 
Q 331 1975 331 2491 
Q 331 3047 712 3315 
Q 1094 3584 1881 3584 
Q 2191 3584 2531 3537 
Q 2872 3491 3272 3391 
z
" transform="scale(0.015625)"/>
       <path id="DejaVuSans-Bold-b5" d="M 544 -1338 
L 544 3500 
L 1672 3500 
L 1672 1466 
Q 1672 1103 1828 926 
Q 1984 750 2303 750 
Q 2625 750 2781 926 
Q 2938 1103 2938 1466 
L 2938 3500 
L 4063 3500 
L 4063 1159 
Q 4063 938 4114 850 
Q 4166 763 4288 763 
Q 4344 763 4395 778 
Q 4447 794 4506 831 
L 4506 50 
Q 4341 -22 4195 -56 
Q 4050 -91 3909 -91 
Q 3631 -91 3454 26 
Q 3278 144 3169 403 
Q 3022 156 2811 32 
Q 2600 -91 2322 -91 
Q 2091 -91 1928 -17 
Q 1766 56 1672 206 
L 1672 -1338 
L 544 -1338 
z
" transform="scale(0.015625)"/>
       <path id="DejaVuSans-Bold-4d" d="M 588 4666 
L 2119 4666 
L 3181 2169 
L 4250 4666 
L 5778 4666 
L 5778 0 
L 4641 0 
L 4641 3413 
L 3566 897 
L 2803 897 
L 1728 3413 
L 1728 0 
L 588 0 
L 588 4666 
z
" transform="scale(0.015625)"/>
      </defs>
      <use xlink:href="#DejaVuSans-Bold-61"/>
      <use xlink:href="#DejaVuSans-Bold-70" transform="translate(67.480469 0)"/>
      <use xlink:href="#DejaVuSans-Bold-69" transform="translate(139.0625 0)"/>
      <use xlink:href="#DejaVuSans-Bold-78" transform="translate(173.339844 0)"/>
      <use xlink:href="#DejaVuSans-Bold-61" transform="translate(237.841797 0)"/>
      <use xlink:href="#DejaVuSans-Bold-62" transform="translate(305.322266 0)"/>
      <use xlink:href="#DejaVuSans-Bold-61" transform="translate(376.904297 0)"/>
      <use xlink:href="#DejaVuSans-Bold-6e" transform="translate(444.384766 0)"/>
      <use xlink:href="#DejaVuSans-Bold-20" transform="translate(515.576172 0)"/>
      <use xlink:href="#DejaVuSans-Bold-70" transform="translate(550.390625 0)"/>
      <use xlink:href="#DejaVuSans-Bold-6c" transform="translate(621.972656 0)"/>
      <use xlink:href="#DejaVuSans-Bold-61" transform="translate(656.25 0)"/>
      <use xlink:href="#DejaVuSans-Bold-73" transform="translate(723.730469 0)"/>
      <use xlink:href="#DejaVuSans-Bold-6d" transform="translate(783.251953 0)"/>
      <use xlink:href="#DejaVuSans-Bold-61" transform="translate(887.451172 0)"/>
      <use xlink:href="#DejaVuSans-Bold-20" transform="translate(954.931641 0)"/>
      <use xlink:href="#DejaVuSans-Bold-5b" transform="translate(989.746094 0)"/>
      <use xlink:href="#DejaVuSans-Bold-b5" transform="translate(1035.449219 0)"/>
      <use xlink:href="#DejaVuSans-Bold-4d" transform="translate(1109.033203 0)"/>
      <use xlink:href="#DejaVuSans-Bold-5d" transform="translate(1208.544922 0)"/>
     </g>
    </g>
   </g>
   <g id="line2d_15">
    <path d="M 76.4861 349.884 
L 77.165744 349.710065 
L 80.224142 348.453241 
L 82.263074 347.927352 
L 84.641828 347.56345 
L 87.360404 347.375517 
L 91.098446 347.363937 
L 96.535598 347.602826 
L 122.701892 349.030773 
L 135.95495 349.403227 
L 153.625694 349.662751 
L 181.151276 349.818294 
L 240.620126 349.87924 
L 416.3081 349.883998 
L 416.3081 349.883998 
" clip-path="url(#p03568d1efb)" style="fill: none; stroke: #fff5eb; stroke-width: 2; stroke-linecap: square"/>
   </g>
   <g id="line2d_16">
    <path d="M 78.18521 346.721606 
L 79.88432 346.253086 
L 81.58343 346.495434 
L 83.28254 347.013114 
L 84.98165 346.932682 
L 86.68076 346.448294 
L 90.07898 346.80779 
L 96.87542 348.208995 
L 103.67186 348.613379 
L 110.4683 349.078592 
L 117.26474 349.313815 
" clip-path="url(#p03568d1efb)" style="fill: none; stroke-dasharray: 3.7,1.6; stroke-dashoffset: 0; stroke: #fff5eb"/>
    <defs>
     <path id="md3638f9471" d="M -3 3 
L 3 3 
L 3 -3 
L -3 -3 
z
" style="stroke: #000000; stroke-linejoin: miter"/>
    </defs>
    <g clip-path="url(#p03568d1efb)">
     <use xlink:href="#md3638f9471" x="78.18521" y="346.721606" style="fill: #fff5eb; stroke: #000000; stroke-linejoin: miter"/>
     <use xlink:href="#md3638f9471" x="79.88432" y="346.253086" style="fill: #fff5eb; stroke: #000000; stroke-linejoin: miter"/>
     <use xlink:href="#md3638f9471" x="81.58343" y="346.495434" style="fill: #fff5eb; stroke: #000000; stroke-linejoin: miter"/>
     <use xlink:href="#md3638f9471" x="83.28254" y="347.013114" style="fill: #fff5eb; stroke: #000000; stroke-linejoin: miter"/>
     <use xlink:href="#md3638f9471" x="84.98165" y="346.932682" style="fill: #fff5eb; stroke: #000000; stroke-linejoin: miter"/>
     <use xlink:href="#md3638f9471" x="86.68076" y="346.448294" style="fill: #fff5eb; stroke: #000000; stroke-linejoin: miter"/>
     <use xlink:href="#md3638f9471" x="90.07898" y="346.80779" style="fill: #fff5eb; stroke: #000000; stroke-linejoin: miter"/>
     <use xlink:href="#md3638f9471" x="96.87542" y="348.208995" style="fill: #fff5eb; stroke: #000000; stroke-linejoin: miter"/>
     <use xlink:href="#md3638f9471" x="103.67186" y="348.613379" style="fill: #fff5eb; stroke: #000000; stroke-linejoin: miter"/>
     <use xlink:href="#md3638f9471" x="110.4683" y="349.078592" style="fill: #fff5eb; stroke: #000000; stroke-linejoin: miter"/>
     <use xlink:href="#md3638f9471" x="117.26474" y="349.313815" style="fill: #fff5eb; stroke: #000000; stroke-linejoin: miter"/>
    </g>
   </g>
   <g id="line2d_17">
    <path d="M 76.4861 349.884 
L 76.825922 349.778176 
L 77.845388 348.860226 
L 79.544498 347.342712 
L 80.903786 346.422456 
L 82.263074 345.733011 
L 83.962184 345.132612 
L 85.661294 344.759598 
L 87.700226 344.536905 
L 90.07898 344.498629 
L 93.137378 344.676224 
L 97.555064 345.171448 
L 116.585096 347.540995 
L 124.740824 348.224868 
L 133.916018 348.76896 
L 145.130144 349.201768 
L 159.402668 349.520091 
L 179.791988 349.735973 
L 214.793654 349.852421 
L 317.419898 349.88366 
L 416.3081 349.883996 
L 416.3081 349.883996 
" clip-path="url(#p03568d1efb)" style="fill: none; stroke: #fee6ce; stroke-width: 2; stroke-linecap: square"/>
   </g>
   <g id="line2d_18">
    <path d="M 78.18521 343.660768 
L 79.88432 340.971163 
L 81.58343 339.92958 
L 83.28254 340.721458 
L 84.98165 341.566056 
L 86.68076 340.847173 
L 90.07898 342.436406 
L 96.87542 344.683849 
L 103.67186 346.046786 
L 110.4683 347.241494 
L 117.26474 348.363397 
L 137.65406 349.100542 
L 158.04338 349.111291 
" clip-path="url(#p03568d1efb)" style="fill: none; stroke-dasharray: 3.7,1.6; stroke-dashoffset: 0; stroke: #fee6ce"/>
    <defs>
     <path id="m6b70aac2ca" d="M -3 3 
L 3 3 
L 3 -3 
L -3 -3 
z
" style="stroke: #000000; stroke-linejoin: miter"/>
    </defs>
    <g clip-path="url(#p03568d1efb)">
     <use xlink:href="#m6b70aac2ca" x="78.18521" y="343.660768" style="fill: #fee6ce; stroke: #000000; stroke-linejoin: miter"/>
     <use xlink:href="#m6b70aac2ca" x="79.88432" y="340.971163" style="fill: #fee6ce; stroke: #000000; stroke-linejoin: miter"/>
     <use xlink:href="#m6b70aac2ca" x="81.58343" y="339.92958" style="fill: #fee6ce; stroke: #000000; stroke-linejoin: miter"/>
     <use xlink:href="#m6b70aac2ca" x="83.28254" y="340.721458" style="fill: #fee6ce; stroke: #000000; stroke-linejoin: miter"/>
     <use xlink:href="#m6b70aac2ca" x="84.98165" y="341.566056" style="fill: #fee6ce; stroke: #000000; stroke-linejoin: miter"/>
     <use xlink:href="#m6b70aac2ca" x="86.68076" y="340.847173" style="fill: #fee6ce; stroke: #000000; stroke-linejoin: miter"/>
     <use xlink:href="#m6b70aac2ca" x="90.07898" y="342.436406" style="fill: #fee6ce; stroke: #000000; stroke-linejoin: miter"/>
     <use xlink:href="#m6b70aac2ca" x="96.87542" y="344.683849" style="fill: #fee6ce; stroke: #000000; stroke-linejoin: miter"/>
     <use xlink:href="#m6b70aac2ca" x="103.67186" y="346.046786" style="fill: #fee6ce; stroke: #000000; stroke-linejoin: miter"/>
     <use xlink:href="#m6b70aac2ca" x="110.4683" y="347.241494" style="fill: #fee6ce; stroke: #000000; stroke-linejoin: miter"/>
     <use xlink:href="#m6b70aac2ca" x="117.26474" y="348.363397" style="fill: #fee6ce; stroke: #000000; stroke-linejoin: miter"/>
     <use xlink:href="#m6b70aac2ca" x="137.65406" y="349.100542" style="fill: #fee6ce; stroke: #000000; stroke-linejoin: miter"/>
     <use xlink:href="#m6b70aac2ca" x="158.04338" y="349.111291" style="fill: #fee6ce; stroke: #000000; stroke-linejoin: miter"/>
    </g>
   </g>
   <g id="line2d_19">
    <path d="M 76.4861 349.884 
L 76.825922 349.633963 
L 77.505566 348.256161 
L 79.204676 344.524723 
L 80.563964 342.208459 
L 81.58343 340.850111 
L 82.602896 339.768365 
L 83.962184 338.688585 
L 85.321472 337.950414 
L 86.68076 337.487418 
L 88.040048 337.24479 
L 89.739158 337.183421 
L 91.77809 337.373264 
L 94.156844 337.842669 
L 97.555064 338.78185 
L 114.546164 343.878298 
L 119.983316 345.095878 
L 125.420468 346.086782 
L 131.537264 346.969567 
L 138.333704 347.717693 
L 146.14961 348.346713 
L 155.324804 348.857542 
L 166.878752 349.267278 
L 182.170742 349.569922 
L 204.259172 349.765525 
L 244.358168 349.86382 
L 392.52056 349.883971 
L 416.3081 349.88399 
L 416.3081 349.88399 
" clip-path="url(#p03568d1efb)" style="fill: none; stroke: #fdd0a2; stroke-width: 2; stroke-linecap: square"/>
   </g>
   <g id="line2d_20">
    <path d="M 78.18521 336.393875 
L 79.88432 330.294832 
L 81.58343 328.305762 
L 83.28254 330.294832 
L 84.98165 330.294832 
L 86.68076 333.05664 
L 90.07898 333.28752 
L 96.87542 338.918815 
L 103.67186 341.214062 
L 110.4683 343.574194 
L 117.26474 345.163196 
L 137.65406 347.31351 
L 158.04338 348.363397 
L 198.82202 349.289686 
L 239.60066 349.255919 
" clip-path="url(#p03568d1efb)" style="fill: none; stroke-dasharray: 3.7,1.6; stroke-dashoffset: 0; stroke: #fdd0a2"/>
    <defs>
     <path id="m3383b5c712" d="M -3 3 
L 3 3 
L 3 -3 
L -3 -3 
z
" style="stroke: #000000; stroke-linejoin: miter"/>
    </defs>
    <g clip-path="url(#p03568d1efb)">
     <use xlink:href="#m3383b5c712" x="78.18521" y="336.393875" style="fill: #fdd0a2; stroke: #000000; stroke-linejoin: miter"/>
     <use xlink:href="#m3383b5c712" x="79.88432" y="330.294832" style="fill: #fdd0a2; stroke: #000000; stroke-linejoin: miter"/>
     <use xlink:href="#m3383b5c712" x="81.58343" y="328.305762" style="fill: #fdd0a2; stroke: #000000; stroke-linejoin: miter"/>
     <use xlink:href="#m3383b5c712" x="83.28254" y="330.294832" style="fill: #fdd0a2; stroke: #000000; stroke-linejoin: miter"/>
     <use xlink:href="#m3383b5c712" x="84.98165" y="330.294832" style="fill: #fdd0a2; stroke: #000000; stroke-linejoin: miter"/>
     <use xlink:href="#m3383b5c712" x="86.68076" y="333.05664" style="fill: #fdd0a2; stroke: #000000; stroke-linejoin: miter"/>
     <use xlink:href="#m3383b5c712" x="90.07898" y="333.28752" style="fill: #fdd0a2; stroke: #000000; stroke-linejoin: miter"/>
     <use xlink:href="#m3383b5c712" x="96.87542" y="338.918815" style="fill: #fdd0a2; stroke: #000000; stroke-linejoin: miter"/>
     <use xlink:href="#m3383b5c712" x="103.67186" y="341.214062" style="fill: #fdd0a2; stroke: #000000; stroke-linejoin: miter"/>
     <use xlink:href="#m3383b5c712" x="110.4683" y="343.574194" style="fill: #fdd0a2; stroke: #000000; stroke-linejoin: miter"/>
     <use xlink:href="#m3383b5c712" x="117.26474" y="345.163196" style="fill: #fdd0a2; stroke: #000000; stroke-linejoin: miter"/>
     <use xlink:href="#m3383b5c712" x="137.65406" y="347.31351" style="fill: #fdd0a2; stroke: #000000; stroke-linejoin: miter"/>
     <use xlink:href="#m3383b5c712" x="158.04338" y="348.363397" style="fill: #fdd0a2; stroke: #000000; stroke-linejoin: miter"/>
     <use xlink:href="#m3383b5c712" x="198.82202" y="349.289686" style="fill: #fdd0a2; stroke: #000000; stroke-linejoin: miter"/>
     <use xlink:href="#m3383b5c712" x="239.60066" y="349.255919" style="fill: #fdd0a2; stroke: #000000; stroke-linejoin: miter"/>
    </g>
   </g>
   <g id="line2d_21">
    <path d="M 76.4861 349.884 
L 76.825922 349.354882 
L 77.505566 346.444283 
L 79.204676 338.53281 
L 80.224142 334.718928 
L 81.243608 331.614867 
L 82.263074 329.129055 
L 83.28254 327.174035 
L 84.302006 325.672677 
L 85.321472 324.557933 
L 86.340938 323.771706 
L 87.360404 323.263716 
L 88.37987 322.990489 
L 89.399336 322.914466 
L 90.758624 323.064491 
L 92.117912 323.443236 
L 93.817022 324.158497 
L 95.855954 325.265152 
L 98.914352 327.219365 
L 110.128478 334.660278 
L 113.86652 336.780981 
L 117.604562 338.656163 
L 121.342604 340.29271 
L 125.420468 341.827026 
L 129.498332 343.127875 
L 133.916018 344.308798 
L 138.673526 345.355579 
L 144.110678 346.316561 
L 150.227474 347.158005 
L 157.023914 347.863297 
L 165.179642 348.473673 
L 175.03448 348.97096 
L 187.268072 349.351877 
L 203.579528 349.624979 
L 228.386534 349.797346 
L 277.660724 349.874155 
L 416.3081 349.883978 
L 416.3081 349.883978 
" clip-path="url(#p03568d1efb)" style="fill: none; stroke: #fdae6b; stroke-width: 2; stroke-linecap: square"/>
   </g>
   <g id="line2d_22">
    <path d="M 78.18521 343.486416 
L 79.88432 336.761518 
L 81.58343 326.762501 
L 83.28254 313.407263 
L 84.98165 304.38352 
L 86.68076 312.38532 
L 90.07898 306.829755 
L 96.87542 324.764211 
L 103.67186 330.294832 
L 110.4683 336.206208 
L 117.26474 340.066159 
L 158.04338 345.598357 
L 198.82202 348.185694 
L 239.60066 348.425132 
L 321.15794 349.089643 
L 402.71522 348.79252 
" clip-path="url(#p03568d1efb)" style="fill: none; stroke-dasharray: 3.7,1.6; stroke-dashoffset: 0; stroke: #fdae6b"/>
    <defs>
     <path id="m44ea2308a3" d="M -3 3 
L 3 3 
L 3 -3 
L -3 -3 
z
" style="stroke: #000000; stroke-linejoin: miter"/>
    </defs>
    <g clip-path="url(#p03568d1efb)">
     <use xlink:href="#m44ea2308a3" x="78.18521" y="343.486416" style="fill: #fdae6b; stroke: #000000; stroke-linejoin: miter"/>
     <use xlink:href="#m44ea2308a3" x="79.88432" y="336.761518" style="fill: #fdae6b; stroke: #000000; stroke-linejoin: miter"/>
     <use xlink:href="#m44ea2308a3" x="81.58343" y="326.762501" style="fill: #fdae6b; stroke: #000000; stroke-linejoin: miter"/>
     <use xlink:href="#m44ea2308a3" x="83.28254" y="313.407263" style="fill: #fdae6b; stroke: #000000; stroke-linejoin: miter"/>
     <use xlink:href="#m44ea2308a3" x="84.98165" y="304.38352" style="fill: #fdae6b; stroke: #000000; stroke-linejoin: miter"/>
     <use xlink:href="#m44ea2308a3" x="86.68076" y="312.38532" style="fill: #fdae6b; stroke: #000000; stroke-linejoin: miter"/>
     <use xlink:href="#m44ea2308a3" x="90.07898" y="306.829755" style="fill: #fdae6b; stroke: #000000; stroke-linejoin: miter"/>
     <use xlink:href="#m44ea2308a3" x="96.87542" y="324.764211" style="fill: #fdae6b; stroke: #000000; stroke-linejoin: miter"/>
     <use xlink:href="#m44ea2308a3" x="103.67186" y="330.294832" style="fill: #fdae6b; stroke: #000000; stroke-linejoin: miter"/>
     <use xlink:href="#m44ea2308a3" x="110.4683" y="336.206208" style="fill: #fdae6b; stroke: #000000; stroke-linejoin: miter"/>
     <use xlink:href="#m44ea2308a3" x="117.26474" y="340.066159" style="fill: #fdae6b; stroke: #000000; stroke-linejoin: miter"/>
     <use xlink:href="#m44ea2308a3" x="158.04338" y="345.598357" style="fill: #fdae6b; stroke: #000000; stroke-linejoin: miter"/>
     <use xlink:href="#m44ea2308a3" x="198.82202" y="348.185694" style="fill: #fdae6b; stroke: #000000; stroke-linejoin: miter"/>
     <use xlink:href="#m44ea2308a3" x="239.60066" y="348.425132" style="fill: #fdae6b; stroke: #000000; stroke-linejoin: miter"/>
     <use xlink:href="#m44ea2308a3" x="321.15794" y="349.089643" style="fill: #fdae6b; stroke: #000000; stroke-linejoin: miter"/>
     <use xlink:href="#m44ea2308a3" x="402.71522" y="348.79252" style="fill: #fdae6b; stroke: #000000; stroke-linejoin: miter"/>
    </g>
   </g>
   <g id="line2d_23">
    <path d="M 76.4861 349.884 
L 76.825922 348.701952 
L 77.505566 342.218818 
L 79.204676 324.466858 
L 80.224142 315.873796 
L 81.243608 308.877244 
L 82.263074 303.274208 
L 83.28254 298.867898 
L 84.302006 295.484317 
L 85.321472 292.972164 
L 86.340938 291.200354 
L 87.020582 290.37378 
L 87.700226 289.795792 
L 88.37987 289.439424 
L 89.059514 289.280221 
L 89.739158 289.296022 
L 90.758624 289.604457 
L 91.77809 290.201981 
L 92.797556 291.03702 
L 94.156844 292.444197 
L 95.855954 294.554695 
L 98.234708 297.930274 
L 102.652394 304.720636 
L 107.409902 311.883379 
L 110.808122 316.587473 
L 113.86652 320.446836 
L 116.924918 323.935522 
L 119.983316 327.060918 
L 123.041714 329.842799 
L 126.100112 332.307258 
L 129.15851 334.482935 
L 132.216908 336.398717 
L 135.615128 338.256304 
L 139.013348 339.862789 
L 142.75139 341.378188 
L 146.829254 342.773659 
L 151.24694 344.02991 
L 156.004448 345.136775 
L 161.101778 346.092172 
L 166.878752 346.945063 
L 173.33537 347.673593 
L 180.811454 348.29476 
L 189.986648 348.823964 
L 201.200774 349.237818 
L 216.152942 349.550017 
L 237.561728 349.754187 
L 275.621792 349.859806 
L 403.055042 349.883913 
L 416.3081 349.883951 
L 416.3081 349.883951 
" clip-path="url(#p03568d1efb)" style="fill: none; stroke: #fd8d3c; stroke-width: 2; stroke-linecap: square"/>
   </g>
   <g id="line2d_24">
    <path d="M 78.18521 337.805417 
L 79.88432 321.828631 
L 81.58343 306.23081 
L 83.28254 299.066186 
L 84.98165 292.337889 
L 86.68076 278.10193 
L 90.07898 284.718763 
L 96.87542 310.254738 
L 103.67186 322.213565 
L 110.4683 330.563606 
L 117.26474 336.393875 
L 137.65406 343.995347 
L 158.04338 346.302904 
L 198.82202 347.765561 
L 239.60066 348.630813 
L 321.15794 349.02099 
L 402.71522 348.984469 
" clip-path="url(#p03568d1efb)" style="fill: none; stroke-dasharray: 3.7,1.6; stroke-dashoffset: 0; stroke: #fd8d3c"/>
    <defs>
     <path id="m7e88856825" d="M -3 3 
L 3 3 
L 3 -3 
L -3 -3 
z
" style="stroke: #000000; stroke-linejoin: miter"/>
    </defs>
    <g clip-path="url(#p03568d1efb)">
     <use xlink:href="#m7e88856825" x="78.18521" y="337.805417" style="fill: #fd8d3c; stroke: #000000; stroke-linejoin: miter"/>
     <use xlink:href="#m7e88856825" x="79.88432" y="321.828631" style="fill: #fd8d3c; stroke: #000000; stroke-linejoin: miter"/>
     <use xlink:href="#m7e88856825" x="81.58343" y="306.23081" style="fill: #fd8d3c; stroke: #000000; stroke-linejoin: miter"/>
     <use xlink:href="#m7e88856825" x="83.28254" y="299.066186" style="fill: #fd8d3c; stroke: #000000; stroke-linejoin: miter"/>
     <use xlink:href="#m7e88856825" x="84.98165" y="292.337889" style="fill: #fd8d3c; stroke: #000000; stroke-linejoin: miter"/>
     <use xlink:href="#m7e88856825" x="86.68076" y="278.10193" style="fill: #fd8d3c; stroke: #000000; stroke-linejoin: miter"/>
     <use xlink:href="#m7e88856825" x="90.07898" y="284.718763" style="fill: #fd8d3c; stroke: #000000; stroke-linejoin: miter"/>
     <use xlink:href="#m7e88856825" x="96.87542" y="310.254738" style="fill: #fd8d3c; stroke: #000000; stroke-linejoin: miter"/>
     <use xlink:href="#m7e88856825" x="103.67186" y="322.213565" style="fill: #fd8d3c; stroke: #000000; stroke-linejoin: miter"/>
     <use xlink:href="#m7e88856825" x="110.4683" y="330.563606" style="fill: #fd8d3c; stroke: #000000; stroke-linejoin: miter"/>
     <use xlink:href="#m7e88856825" x="117.26474" y="336.393875" style="fill: #fd8d3c; stroke: #000000; stroke-linejoin: miter"/>
     <use xlink:href="#m7e88856825" x="137.65406" y="343.995347" style="fill: #fd8d3c; stroke: #000000; stroke-linejoin: miter"/>
     <use xlink:href="#m7e88856825" x="158.04338" y="346.302904" style="fill: #fd8d3c; stroke: #000000; stroke-linejoin: miter"/>
     <use xlink:href="#m7e88856825" x="198.82202" y="347.765561" style="fill: #fd8d3c; stroke: #000000; stroke-linejoin: miter"/>
     <use xlink:href="#m7e88856825" x="239.60066" y="348.630813" style="fill: #fd8d3c; stroke: #000000; stroke-linejoin: miter"/>
     <use xlink:href="#m7e88856825" x="321.15794" y="349.02099" style="fill: #fd8d3c; stroke: #000000; stroke-linejoin: miter"/>
     <use xlink:href="#m7e88856825" x="402.71522" y="348.984469" style="fill: #fd8d3c; stroke: #000000; stroke-linejoin: miter"/>
    </g>
   </g>
   <g id="line2d_25">
    <path d="M 76.4861 349.884 
L 76.825922 346.928881 
L 77.505566 330.721046 
L 79.204676 286.341144 
L 80.224142 264.858491 
L 81.243608 247.36711 
L 82.263074 233.359521 
L 83.28254 222.343745 
L 84.302006 213.884792 
L 85.321472 207.60441 
L 86.001116 204.464089 
L 86.68076 202.059509 
L 87.360404 200.31265 
L 88.040048 199.152725 
L 88.719692 198.515532 
L 89.399336 198.342869 
L 90.07898 198.581994 
L 90.758624 199.185142 
L 91.438268 200.109071 
L 92.457734 202.011893 
L 93.4772 204.432777 
L 94.836488 208.295665 
L 96.535598 213.872969 
L 98.914352 222.549594 
L 109.109012 260.89222 
L 112.16741 271.044571 
L 114.885986 279.301236 
L 117.604562 286.82624 
L 120.323138 293.640351 
L 122.701892 299.048716 
L 125.080646 303.972239 
L 127.4594 308.444369 
L 129.838154 312.499304 
L 132.216908 316.170791 
L 134.935484 319.938911 
L 137.65406 323.294478 
L 140.372636 326.27999 
L 143.091212 328.934411 
L 145.809788 331.293184 
L 148.868186 333.633188 
L 151.926584 335.680295 
L 154.984982 337.470612 
L 158.383202 339.19728 
L 161.781422 340.684325 
L 165.519464 342.082621 
L 169.597328 343.367079 
L 174.015014 344.52125 
L 178.772522 345.536808 
L 184.209674 346.464246 
L 190.32647 347.273363 
L 197.462732 347.978755 
L 205.61846 348.554743 
L 215.473298 349.023614 
L 228.046712 349.390075 
L 245.377634 349.65416 
L 272.223572 349.813727 
L 328.973846 349.87826 
L 416.3081 349.883878 
L 416.3081 349.883878 
" clip-path="url(#p03568d1efb)" style="fill: none; stroke: #e6550d; stroke-width: 2; stroke-linecap: square"/>
   </g>
   <g id="line2d_26">
    <path d="M 78.18521 312.38532 
L 79.88432 263.979487 
L 81.58343 238.193565 
L 83.28254 228.54065 
L 84.98165 218.053475 
L 86.68076 204.667495 
L 90.07898 214.360072 
L 96.87542 255.256802 
L 103.67186 274.023451 
L 117.26474 315.841928 
L 137.65406 328.893829 
L 158.04338 332.34455 
L 198.82202 341.680183 
L 239.60066 343.830369 
L 321.15794 347.794627 
L 402.71522 348.984469 
" clip-path="url(#p03568d1efb)" style="fill: none; stroke-dasharray: 3.7,1.6; stroke-dashoffset: 0; stroke: #e6550d"/>
    <defs>
     <path id="m46bac10395" d="M -3 3 
L 3 3 
L 3 -3 
L -3 -3 
z
" style="stroke: #000000; stroke-linejoin: miter"/>
    </defs>
    <g clip-path="url(#p03568d1efb)">
     <use xlink:href="#m46bac10395" x="78.18521" y="312.38532" style="fill: #e6550d; stroke: #000000; stroke-linejoin: miter"/>
     <use xlink:href="#m46bac10395" x="79.88432" y="263.979487" style="fill: #e6550d; stroke: #000000; stroke-linejoin: miter"/>
     <use xlink:href="#m46bac10395" x="81.58343" y="238.193565" style="fill: #e6550d; stroke: #000000; stroke-linejoin: miter"/>
     <use xlink:href="#m46bac10395" x="83.28254" y="228.54065" style="fill: #e6550d; stroke: #000000; stroke-linejoin: miter"/>
     <use xlink:href="#m46bac10395" x="84.98165" y="218.053475" style="fill: #e6550d; stroke: #000000; stroke-linejoin: miter"/>
     <use xlink:href="#m46bac10395" x="86.68076" y="204.667495" style="fill: #e6550d; stroke: #000000; stroke-linejoin: miter"/>
     <use xlink:href="#m46bac10395" x="90.07898" y="214.360072" style="fill: #e6550d; stroke: #000000; stroke-linejoin: miter"/>
     <use xlink:href="#m46bac10395" x="96.87542" y="255.256802" style="fill: #e6550d; stroke: #000000; stroke-linejoin: miter"/>
     <use xlink:href="#m46bac10395" x="103.67186" y="274.023451" style="fill: #e6550d; stroke: #000000; stroke-linejoin: miter"/>
     <use xlink:href="#m46bac10395" x="117.26474" y="315.841928" style="fill: #e6550d; stroke: #000000; stroke-linejoin: miter"/>
     <use xlink:href="#m46bac10395" x="137.65406" y="328.893829" style="fill: #e6550d; stroke: #000000; stroke-linejoin: miter"/>
     <use xlink:href="#m46bac10395" x="158.04338" y="332.34455" style="fill: #e6550d; stroke: #000000; stroke-linejoin: miter"/>
     <use xlink:href="#m46bac10395" x="198.82202" y="341.680183" style="fill: #e6550d; stroke: #000000; stroke-linejoin: miter"/>
     <use xlink:href="#m46bac10395" x="239.60066" y="343.830369" style="fill: #e6550d; stroke: #000000; stroke-linejoin: miter"/>
     <use xlink:href="#m46bac10395" x="321.15794" y="347.794627" style="fill: #e6550d; stroke: #000000; stroke-linejoin: miter"/>
     <use xlink:href="#m46bac10395" x="402.71522" y="348.984469" style="fill: #e6550d; stroke: #000000; stroke-linejoin: miter"/>
    </g>
   </g>
   <g id="line2d_27">
    <path d="M 76.4861 349.884 
L 76.825922 344.266106 
L 77.505566 313.414596 
L 79.204676 229.223261 
L 80.224142 188.542777 
L 81.243608 155.425799 
L 82.263074 128.904735 
L 83.28254 108.047491 
L 84.302006 92.030801 
L 85.321472 80.138874 
L 86.001116 74.192631 
L 86.68076 69.639584 
L 87.360404 66.332067 
L 88.040048 64.136091 
L 88.719692 62.930129 
L 89.059514 62.663557 
L 89.399336 62.604 
L 89.739158 62.739294 
L 90.07898 63.057859 
L 90.758624 64.201271 
L 91.438268 65.952366 
L 92.457734 69.558346 
L 93.4772 74.145898 
L 94.836488 81.466006 
L 96.535598 92.035128 
L 98.914352 108.478284 
L 109.109012 181.152941 
L 111.827588 198.344397 
L 114.546164 214.170881 
L 117.26474 228.609215 
L 119.643494 240.129739 
L 122.022248 250.657541 
L 124.401002 260.248919 
L 126.779756 268.966253 
L 129.15851 276.874191 
L 131.537264 284.037097 
L 133.916018 290.517391 
L 136.294772 296.374519 
L 138.673526 301.664355 
L 141.05228 306.438916 
L 143.431034 310.746276 
L 145.809788 314.630616 
L 148.188542 318.132368 
L 150.907118 321.71305 
L 153.625694 324.891827 
L 156.34427 327.713229 
L 159.062846 330.21703 
L 161.781422 332.438701 
L 164.83982 334.640053 
L 167.898218 336.563987 
L 171.296438 338.418548 
L 174.694658 340.015082 
L 178.4327 341.51586 
L 182.510564 342.89412 
L 186.92825 344.13235 
L 191.685758 345.221725 
L 196.783088 346.161055 
L 202.560062 346.999006 
L 209.356502 347.746732 
L 217.172408 348.370339 
L 226.347602 348.874421 
L 237.90155 349.277752 
L 253.19354 349.575325 
L 275.621792 349.769303 
L 316.740254 349.865323 
L 416.3081 349.88377 
L 416.3081 349.88377 
" clip-path="url(#p03568d1efb)" style="fill: none; stroke: #a63603; stroke-width: 2; stroke-linecap: square"/>
   </g>
   <g id="line2d_28">
    <path d="M 78.18521 281.961137 
L 79.88432 225.141058 
L 81.58343 163.668434 
L 83.28254 111.094085 
L 84.98165 120.788805 
L 86.68076 133.105613 
L 90.07898 100.98911 
L 96.87542 155.78827 
L 103.67186 214.360072 
L 110.4683 252.605698 
L 117.26474 284.718763 
L 137.65406 301.798296 
L 158.04338 318.979909 
L 198.82202 334.179794 
L 239.60066 338.454796 
L 321.15794 343.30718 
L 402.71522 345.828765 
" clip-path="url(#p03568d1efb)" style="fill: none; stroke-dasharray: 3.7,1.6; stroke-dashoffset: 0; stroke: #a63603"/>
    <defs>
     <path id="m706bdd6aac" d="M -3 3 
L 3 3 
L 3 -3 
L -3 -3 
z
" style="stroke: #000000; stroke-linejoin: miter"/>
    </defs>
    <g clip-path="url(#p03568d1efb)">
     <use xlink:href="#m706bdd6aac" x="78.18521" y="281.961137" style="fill: #a63603; stroke: #000000; stroke-linejoin: miter"/>
     <use xlink:href="#m706bdd6aac" x="79.88432" y="225.141058" style="fill: #a63603; stroke: #000000; stroke-linejoin: miter"/>
     <use xlink:href="#m706bdd6aac" x="81.58343" y="163.668434" style="fill: #a63603; stroke: #000000; stroke-linejoin: miter"/>
     <use xlink:href="#m706bdd6aac" x="83.28254" y="111.094085" style="fill: #a63603; stroke: #000000; stroke-linejoin: miter"/>
     <use xlink:href="#m706bdd6aac" x="84.98165" y="120.788805" style="fill: #a63603; stroke: #000000; stroke-linejoin: miter"/>
     <use xlink:href="#m706bdd6aac" x="86.68076" y="133.105613" style="fill: #a63603; stroke: #000000; stroke-linejoin: miter"/>
     <use xlink:href="#m706bdd6aac" x="90.07898" y="100.98911" style="fill: #a63603; stroke: #000000; stroke-linejoin: miter"/>
     <use xlink:href="#m706bdd6aac" x="96.87542" y="155.78827" style="fill: #a63603; stroke: #000000; stroke-linejoin: miter"/>
     <use xlink:href="#m706bdd6aac" x="103.67186" y="214.360072" style="fill: #a63603; stroke: #000000; stroke-linejoin: miter"/>
     <use xlink:href="#m706bdd6aac" x="110.4683" y="252.605698" style="fill: #a63603; stroke: #000000; stroke-linejoin: miter"/>
     <use xlink:href="#m706bdd6aac" x="117.26474" y="284.718763" style="fill: #a63603; stroke: #000000; stroke-linejoin: miter"/>
     <use xlink:href="#m706bdd6aac" x="137.65406" y="301.798296" style="fill: #a63603; stroke: #000000; stroke-linejoin: miter"/>
     <use xlink:href="#m706bdd6aac" x="158.04338" y="318.979909" style="fill: #a63603; stroke: #000000; stroke-linejoin: miter"/>
     <use xlink:href="#m706bdd6aac" x="198.82202" y="334.179794" style="fill: #a63603; stroke: #000000; stroke-linejoin: miter"/>
     <use xlink:href="#m706bdd6aac" x="239.60066" y="338.454796" style="fill: #a63603; stroke: #000000; stroke-linejoin: miter"/>
     <use xlink:href="#m706bdd6aac" x="321.15794" y="343.30718" style="fill: #a63603; stroke: #000000; stroke-linejoin: miter"/>
     <use xlink:href="#m706bdd6aac" x="402.71522" y="345.828765" style="fill: #a63603; stroke: #000000; stroke-linejoin: miter"/>
    </g>
   </g>
   <g id="patch_3">
    <path d="M 59.495 364.248 
L 59.495 48.24 
" style="fill: none; stroke: #000000; stroke-width: 0.8; stroke-linejoin: miter; stroke-linecap: square"/>
   </g>
   <g id="patch_4">
    <path d="M 433.2992 364.248 
L 433.2992 48.24 
" style="fill: none; stroke: #000000; stroke-width: 0.8; stroke-linejoin: miter; stroke-linecap: square"/>
   </g>
   <g id="patch_5">
    <path d="M 59.495 364.248 
L 433.2992 364.248 
" style="fill: none; stroke: #000000; stroke-width: 0.8; stroke-linejoin: miter; stroke-linecap: square"/>
   </g>
   <g id="patch_6">
    <path d="M 59.495 48.24 
L 433.2992 48.24 
" style="fill: none; stroke: #000000; stroke-width: 0.8; stroke-linejoin: miter; stroke-linecap: square"/>
   </g>
   <g id="legend_1">
    <g id="patch_7">
     <path d="M 295.62045 251.059062 
L 426.6492 251.059062 
Q 428.5492 251.059062 428.5492 249.159062 
L 428.5492 54.89 
Q 428.5492 52.99 426.6492 52.99 
L 295.62045 52.99 
Q 293.72045 52.99 293.72045 54.89 
L 293.72045 249.159062 
Q 293.72045 251.059062 295.62045 251.059062 
z
" style="fill: #ffffff; opacity: 0.8; stroke: #cccccc; stroke-linejoin: miter"/>
    </g>
    <g id="line2d_29">
     <path d="M 297.52045 60.683516 
L 316.52045 60.683516 
" style="fill: none; stroke: #fff5eb; stroke-width: 2; stroke-linecap: square"/>
    </g>
    <g id="line2d_30"/>
    <g id="text_17">
     <!-- sim: 0.5mg PO -->
     <g transform="translate(324.12045 64.008516) scale(0.095 -0.095)">
      <defs>
       <path id="DejaVuSans-73" d="M 2834 3397 
L 2834 2853 
Q 2591 2978 2328 3040 
Q 2066 3103 1784 3103 
Q 1356 3103 1142 2972 
Q 928 2841 928 2578 
Q 928 2378 1081 2264 
Q 1234 2150 1697 2047 
L 1894 2003 
Q 2506 1872 2764 1633 
Q 3022 1394 3022 966 
Q 3022 478 2636 193 
Q 2250 -91 1575 -91 
Q 1294 -91 989 -36 
Q 684 19 347 128 
L 347 722 
Q 666 556 975 473 
Q 1284 391 1588 391 
Q 1994 391 2212 530 
Q 2431 669 2431 922 
Q 2431 1156 2273 1281 
Q 2116 1406 1581 1522 
L 1381 1569 
Q 847 1681 609 1914 
Q 372 2147 372 2553 
Q 372 3047 722 3315 
Q 1072 3584 1716 3584 
Q 2034 3584 2315 3537 
Q 2597 3491 2834 3397 
z
" transform="scale(0.015625)"/>
       <path id="DejaVuSans-69" d="M 603 3500 
L 1178 3500 
L 1178 0 
L 603 0 
L 603 3500 
z
M 603 4863 
L 1178 4863 
L 1178 4134 
L 603 4134 
L 603 4863 
z
" transform="scale(0.015625)"/>
       <path id="DejaVuSans-6d" d="M 3328 2828 
Q 3544 3216 3844 3400 
Q 4144 3584 4550 3584 
Q 5097 3584 5394 3201 
Q 5691 2819 5691 2113 
L 5691 0 
L 5113 0 
L 5113 2094 
Q 5113 2597 4934 2840 
Q 4756 3084 4391 3084 
Q 3944 3084 3684 2787 
Q 3425 2491 3425 1978 
L 3425 0 
L 2847 0 
L 2847 2094 
Q 2847 2600 2669 2842 
Q 2491 3084 2119 3084 
Q 1678 3084 1418 2786 
Q 1159 2488 1159 1978 
L 1159 0 
L 581 0 
L 581 3500 
L 1159 3500 
L 1159 2956 
Q 1356 3278 1631 3431 
Q 1906 3584 2284 3584 
Q 2666 3584 2933 3390 
Q 3200 3197 3328 2828 
z
" transform="scale(0.015625)"/>
       <path id="DejaVuSans-3a" d="M 750 794 
L 1409 794 
L 1409 0 
L 750 0 
L 750 794 
z
M 750 3309 
L 1409 3309 
L 1409 2516 
L 750 2516 
L 750 3309 
z
" transform="scale(0.015625)"/>
       <path id="DejaVuSans-20" transform="scale(0.015625)"/>
       <path id="DejaVuSans-35" d="M 691 4666 
L 3169 4666 
L 3169 4134 
L 1269 4134 
L 1269 2991 
Q 1406 3038 1543 3061 
Q 1681 3084 1819 3084 
Q 2600 3084 3056 2656 
Q 3513 2228 3513 1497 
Q 3513 744 3044 326 
Q 2575 -91 1722 -91 
Q 1428 -91 1123 -41 
Q 819 9 494 109 
L 494 744 
Q 775 591 1075 516 
Q 1375 441 1709 441 
Q 2250 441 2565 725 
Q 2881 1009 2881 1497 
Q 2881 1984 2565 2268 
Q 2250 2553 1709 2553 
Q 1456 2553 1204 2497 
Q 953 2441 691 2322 
L 691 4666 
z
" transform="scale(0.015625)"/>
       <path id="DejaVuSans-67" d="M 2906 1791 
Q 2906 2416 2648 2759 
Q 2391 3103 1925 3103 
Q 1463 3103 1205 2759 
Q 947 2416 947 1791 
Q 947 1169 1205 825 
Q 1463 481 1925 481 
Q 2391 481 2648 825 
Q 2906 1169 2906 1791 
z
M 3481 434 
Q 3481 -459 3084 -895 
Q 2688 -1331 1869 -1331 
Q 1566 -1331 1297 -1286 
Q 1028 -1241 775 -1147 
L 775 -588 
Q 1028 -725 1275 -790 
Q 1522 -856 1778 -856 
Q 2344 -856 2625 -561 
Q 2906 -266 2906 331 
L 2906 616 
Q 2728 306 2450 153 
Q 2172 0 1784 0 
Q 1141 0 747 490 
Q 353 981 353 1791 
Q 353 2603 747 3093 
Q 1141 3584 1784 3584 
Q 2172 3584 2450 3431 
Q 2728 3278 2906 2969 
L 2906 3500 
L 3481 3500 
L 3481 434 
z
" transform="scale(0.015625)"/>
       <path id="DejaVuSans-50" d="M 1259 4147 
L 1259 2394 
L 2053 2394 
Q 2494 2394 2734 2622 
Q 2975 2850 2975 3272 
Q 2975 3691 2734 3919 
Q 2494 4147 2053 4147 
L 1259 4147 
z
M 628 4666 
L 2053 4666 
Q 2838 4666 3239 4311 
Q 3641 3956 3641 3272 
Q 3641 2581 3239 2228 
Q 2838 1875 2053 1875 
L 1259 1875 
L 1259 0 
L 628 0 
L 628 4666 
z
" transform="scale(0.015625)"/>
       <path id="DejaVuSans-4f" d="M 2522 4238 
Q 1834 4238 1429 3725 
Q 1025 3213 1025 2328 
Q 1025 1447 1429 934 
Q 1834 422 2522 422 
Q 3209 422 3611 934 
Q 4013 1447 4013 2328 
Q 4013 3213 3611 3725 
Q 3209 4238 2522 4238 
z
M 2522 4750 
Q 3503 4750 4090 4092 
Q 4678 3434 4678 2328 
Q 4678 1225 4090 567 
Q 3503 -91 2522 -91 
Q 1538 -91 948 565 
Q 359 1222 359 2328 
Q 359 3434 948 4092 
Q 1538 4750 2522 4750 
z
" transform="scale(0.015625)"/>
      </defs>
      <use xlink:href="#DejaVuSans-73"/>
      <use xlink:href="#DejaVuSans-69" transform="translate(52.099609 0)"/>
      <use xlink:href="#DejaVuSans-6d" transform="translate(79.882812 0)"/>
      <use xlink:href="#DejaVuSans-3a" transform="translate(177.294922 0)"/>
      <use xlink:href="#DejaVuSans-20" transform="translate(210.986328 0)"/>
      <use xlink:href="#DejaVuSans-30" transform="translate(242.773438 0)"/>
      <use xlink:href="#DejaVuSans-2e" transform="translate(306.396484 0)"/>
      <use xlink:href="#DejaVuSans-35" transform="translate(338.183594 0)"/>
      <use xlink:href="#DejaVuSans-6d" transform="translate(401.806641 0)"/>
      <use xlink:href="#DejaVuSans-67" transform="translate(499.21875 0)"/>
      <use xlink:href="#DejaVuSans-20" transform="translate(562.695312 0)"/>
      <use xlink:href="#DejaVuSans-50" transform="translate(594.482422 0)"/>
      <use xlink:href="#DejaVuSans-4f" transform="translate(654.785156 0)"/>
     </g>
    </g>
    <g id="line2d_31">
     <path d="M 297.52045 74.627734 
L 316.52045 74.627734 
" style="fill: none; stroke-dasharray: 3.7,1.6; stroke-dashoffset: 0; stroke: #fff5eb"/>
    </g>
    <g id="line2d_32">
     <g>
      <use xlink:href="#md3638f9471" x="307.02045" y="74.627734" style="fill: #fff5eb; stroke: #000000; stroke-linejoin: miter"/>
     </g>
    </g>
    <g id="text_18">
     <!-- exp: 0.5mg PO (n=6) -->
     <g transform="translate(324.12045 77.952734) scale(0.095 -0.095)">
      <defs>
       <path id="DejaVuSans-65" d="M 3597 1894 
L 3597 1613 
L 953 1613 
Q 991 1019 1311 708 
Q 1631 397 2203 397 
Q 2534 397 2845 478 
Q 3156 559 3463 722 
L 3463 178 
Q 3153 47 2828 -22 
Q 2503 -91 2169 -91 
Q 1331 -91 842 396 
Q 353 884 353 1716 
Q 353 2575 817 3079 
Q 1281 3584 2069 3584 
Q 2775 3584 3186 3129 
Q 3597 2675 3597 1894 
z
M 3022 2063 
Q 3016 2534 2758 2815 
Q 2500 3097 2075 3097 
Q 1594 3097 1305 2825 
Q 1016 2553 972 2059 
L 3022 2063 
z
" transform="scale(0.015625)"/>
       <path id="DejaVuSans-78" d="M 3513 3500 
L 2247 1797 
L 3578 0 
L 2900 0 
L 1881 1375 
L 863 0 
L 184 0 
L 1544 1831 
L 300 3500 
L 978 3500 
L 1906 2253 
L 2834 3500 
L 3513 3500 
z
" transform="scale(0.015625)"/>
       <path id="DejaVuSans-70" d="M 1159 525 
L 1159 -1331 
L 581 -1331 
L 581 3500 
L 1159 3500 
L 1159 2969 
Q 1341 3281 1617 3432 
Q 1894 3584 2278 3584 
Q 2916 3584 3314 3078 
Q 3713 2572 3713 1747 
Q 3713 922 3314 415 
Q 2916 -91 2278 -91 
Q 1894 -91 1617 61 
Q 1341 213 1159 525 
z
M 3116 1747 
Q 3116 2381 2855 2742 
Q 2594 3103 2138 3103 
Q 1681 3103 1420 2742 
Q 1159 2381 1159 1747 
Q 1159 1113 1420 752 
Q 1681 391 2138 391 
Q 2594 391 2855 752 
Q 3116 1113 3116 1747 
z
" transform="scale(0.015625)"/>
       <path id="DejaVuSans-28" d="M 1984 4856 
Q 1566 4138 1362 3434 
Q 1159 2731 1159 2009 
Q 1159 1288 1364 580 
Q 1569 -128 1984 -844 
L 1484 -844 
Q 1016 -109 783 600 
Q 550 1309 550 2009 
Q 550 2706 781 3412 
Q 1013 4119 1484 4856 
L 1984 4856 
z
" transform="scale(0.015625)"/>
       <path id="DejaVuSans-6e" d="M 3513 2113 
L 3513 0 
L 2938 0 
L 2938 2094 
Q 2938 2591 2744 2837 
Q 2550 3084 2163 3084 
Q 1697 3084 1428 2787 
Q 1159 2491 1159 1978 
L 1159 0 
L 581 0 
L 581 3500 
L 1159 3500 
L 1159 2956 
Q 1366 3272 1645 3428 
Q 1925 3584 2291 3584 
Q 2894 3584 3203 3211 
Q 3513 2838 3513 2113 
z
" transform="scale(0.015625)"/>
       <path id="DejaVuSans-3d" d="M 678 2906 
L 4684 2906 
L 4684 2381 
L 678 2381 
L 678 2906 
z
M 678 1631 
L 4684 1631 
L 4684 1100 
L 678 1100 
L 678 1631 
z
" transform="scale(0.015625)"/>
       <path id="DejaVuSans-29" d="M 513 4856 
L 1013 4856 
Q 1481 4119 1714 3412 
Q 1947 2706 1947 2009 
Q 1947 1309 1714 600 
Q 1481 -109 1013 -844 
L 513 -844 
Q 928 -128 1133 580 
Q 1338 1288 1338 2009 
Q 1338 2731 1133 3434 
Q 928 4138 513 4856 
z
" transform="scale(0.015625)"/>
      </defs>
      <use xlink:href="#DejaVuSans-65"/>
      <use xlink:href="#DejaVuSans-78" transform="translate(59.773438 0)"/>
      <use xlink:href="#DejaVuSans-70" transform="translate(118.953125 0)"/>
      <use xlink:href="#DejaVuSans-3a" transform="translate(182.429688 0)"/>
      <use xlink:href="#DejaVuSans-20" transform="translate(216.121094 0)"/>
      <use xlink:href="#DejaVuSans-30" transform="translate(247.908203 0)"/>
      <use xlink:href="#DejaVuSans-2e" transform="translate(311.53125 0)"/>
      <use xlink:href="#DejaVuSans-35" transform="translate(343.318359 0)"/>
      <use xlink:href="#DejaVuSans-6d" transform="translate(406.941406 0)"/>
      <use xlink:href="#DejaVuSans-67" transform="translate(504.353516 0)"/>
      <use xlink:href="#DejaVuSans-20" transform="translate(567.830078 0)"/>
      <use xlink:href="#DejaVuSans-50" transform="translate(599.617188 0)"/>
      <use xlink:href="#DejaVuSans-4f" transform="translate(659.919922 0)"/>
      <use xlink:href="#DejaVuSans-20" transform="translate(738.630859 0)"/>
      <use xlink:href="#DejaVuSans-28" transform="translate(770.417969 0)"/>
      <use xlink:href="#DejaVuSans-6e" transform="translate(809.431641 0)"/>
      <use xlink:href="#DejaVuSans-3d" transform="translate(872.810547 0)"/>
      <use xlink:href="#DejaVuSans-36" transform="translate(956.599609 0)"/>
      <use xlink:href="#DejaVuSans-29" transform="translate(1020.222656 0)"/>
     </g>
    </g>
    <g id="line2d_33">
     <path d="M 297.52045 88.571953 
L 316.52045 88.571953 
" style="fill: none; stroke: #fee6ce; stroke-width: 2; stroke-linecap: square"/>
    </g>
    <g id="line2d_34"/>
    <g id="text_19">
     <!-- sim: 1mg PO -->
     <g transform="translate(324.12045 91.896953) scale(0.095 -0.095)">
      <use xlink:href="#DejaVuSans-73"/>
      <use xlink:href="#DejaVuSans-69" transform="translate(52.099609 0)"/>
      <use xlink:href="#DejaVuSans-6d" transform="translate(79.882812 0)"/>
      <use xlink:href="#DejaVuSans-3a" transform="translate(177.294922 0)"/>
      <use xlink:href="#DejaVuSans-20" transform="translate(210.986328 0)"/>
      <use xlink:href="#DejaVuSans-31" transform="translate(242.773438 0)"/>
      <use xlink:href="#DejaVuSans-6d" transform="translate(306.396484 0)"/>
      <use xlink:href="#DejaVuSans-67" transform="translate(403.808594 0)"/>
      <use xlink:href="#DejaVuSans-20" transform="translate(467.285156 0)"/>
      <use xlink:href="#DejaVuSans-50" transform="translate(499.072266 0)"/>
      <use xlink:href="#DejaVuSans-4f" transform="translate(559.375 0)"/>
     </g>
    </g>
    <g id="line2d_35">
     <path d="M 297.52045 102.516172 
L 316.52045 102.516172 
" style="fill: none; stroke-dasharray: 3.7,1.6; stroke-dashoffset: 0; stroke: #fee6ce"/>
    </g>
    <g id="line2d_36">
     <g>
      <use xlink:href="#m6b70aac2ca" x="307.02045" y="102.516172" style="fill: #fee6ce; stroke: #000000; stroke-linejoin: miter"/>
     </g>
    </g>
    <g id="text_20">
     <!-- exp: 1mg PO (n=6) -->
     <g transform="translate(324.12045 105.841172) scale(0.095 -0.095)">
      <use xlink:href="#DejaVuSans-65"/>
      <use xlink:href="#DejaVuSans-78" transform="translate(59.773438 0)"/>
      <use xlink:href="#DejaVuSans-70" transform="translate(118.953125 0)"/>
      <use xlink:href="#DejaVuSans-3a" transform="translate(182.429688 0)"/>
      <use xlink:href="#DejaVuSans-20" transform="translate(216.121094 0)"/>
      <use xlink:href="#DejaVuSans-31" transform="translate(247.908203 0)"/>
      <use xlink:href="#DejaVuSans-6d" transform="translate(311.53125 0)"/>
      <use xlink:href="#DejaVuSans-67" transform="translate(408.943359 0)"/>
      <use xlink:href="#DejaVuSans-20" transform="translate(472.419922 0)"/>
      <use xlink:href="#DejaVuSans-50" transform="translate(504.207031 0)"/>
      <use xlink:href="#DejaVuSans-4f" transform="translate(564.509766 0)"/>
      <use xlink:href="#DejaVuSans-20" transform="translate(643.220703 0)"/>
      <use xlink:href="#DejaVuSans-28" transform="translate(675.007812 0)"/>
      <use xlink:href="#DejaVuSans-6e" transform="translate(714.021484 0)"/>
      <use xlink:href="#DejaVuSans-3d" transform="translate(777.400391 0)"/>
      <use xlink:href="#DejaVuSans-36" transform="translate(861.189453 0)"/>
      <use xlink:href="#DejaVuSans-29" transform="translate(924.8125 0)"/>
     </g>
    </g>
    <g id="line2d_37">
     <path d="M 297.52045 116.460391 
L 316.52045 116.460391 
" style="fill: none; stroke: #fdd0a2; stroke-width: 2; stroke-linecap: square"/>
    </g>
    <g id="line2d_38"/>
    <g id="text_21">
     <!-- sim: 2.5mg PO -->
     <g transform="translate(324.12045 119.785391) scale(0.095 -0.095)">
      <use xlink:href="#DejaVuSans-73"/>
      <use xlink:href="#DejaVuSans-69" transform="translate(52.099609 0)"/>
      <use xlink:href="#DejaVuSans-6d" transform="translate(79.882812 0)"/>
      <use xlink:href="#DejaVuSans-3a" transform="translate(177.294922 0)"/>
      <use xlink:href="#DejaVuSans-20" transform="translate(210.986328 0)"/>
      <use xlink:href="#DejaVuSans-32" transform="translate(242.773438 0)"/>
      <use xlink:href="#DejaVuSans-2e" transform="translate(306.396484 0)"/>
      <use xlink:href="#DejaVuSans-35" transform="translate(338.183594 0)"/>
      <use xlink:href="#DejaVuSans-6d" transform="translate(401.806641 0)"/>
      <use xlink:href="#DejaVuSans-67" transform="translate(499.21875 0)"/>
      <use xlink:href="#DejaVuSans-20" transform="translate(562.695312 0)"/>
      <use xlink:href="#DejaVuSans-50" transform="translate(594.482422 0)"/>
      <use xlink:href="#DejaVuSans-4f" transform="translate(654.785156 0)"/>
     </g>
    </g>
    <g id="line2d_39">
     <path d="M 297.52045 130.404609 
L 316.52045 130.404609 
" style="fill: none; stroke-dasharray: 3.7,1.6; stroke-dashoffset: 0; stroke: #fdd0a2"/>
    </g>
    <g id="line2d_40">
     <g>
      <use xlink:href="#m3383b5c712" x="307.02045" y="130.404609" style="fill: #fdd0a2; stroke: #000000; stroke-linejoin: miter"/>
     </g>
    </g>
    <g id="text_22">
     <!-- exp: 2.5mg PO (n=6) -->
     <g transform="translate(324.12045 133.729609) scale(0.095 -0.095)">
      <use xlink:href="#DejaVuSans-65"/>
      <use xlink:href="#DejaVuSans-78" transform="translate(59.773438 0)"/>
      <use xlink:href="#DejaVuSans-70" transform="translate(118.953125 0)"/>
      <use xlink:href="#DejaVuSans-3a" transform="translate(182.429688 0)"/>
      <use xlink:href="#DejaVuSans-20" transform="translate(216.121094 0)"/>
      <use xlink:href="#DejaVuSans-32" transform="translate(247.908203 0)"/>
      <use xlink:href="#DejaVuSans-2e" transform="translate(311.53125 0)"/>
      <use xlink:href="#DejaVuSans-35" transform="translate(343.318359 0)"/>
      <use xlink:href="#DejaVuSans-6d" transform="translate(406.941406 0)"/>
      <use xlink:href="#DejaVuSans-67" transform="translate(504.353516 0)"/>
      <use xlink:href="#DejaVuSans-20" transform="translate(567.830078 0)"/>
      <use xlink:href="#DejaVuSans-50" transform="translate(599.617188 0)"/>
      <use xlink:href="#DejaVuSans-4f" transform="translate(659.919922 0)"/>
      <use xlink:href="#DejaVuSans-20" transform="translate(738.630859 0)"/>
      <use xlink:href="#DejaVuSans-28" transform="translate(770.417969 0)"/>
      <use xlink:href="#DejaVuSans-6e" transform="translate(809.431641 0)"/>
      <use xlink:href="#DejaVuSans-3d" transform="translate(872.810547 0)"/>
      <use xlink:href="#DejaVuSans-36" transform="translate(956.599609 0)"/>
      <use xlink:href="#DejaVuSans-29" transform="translate(1020.222656 0)"/>
     </g>
    </g>
    <g id="line2d_41">
     <path d="M 297.52045 144.348828 
L 316.52045 144.348828 
" style="fill: none; stroke: #fdae6b; stroke-width: 2; stroke-linecap: square"/>
    </g>
    <g id="line2d_42"/>
    <g id="text_23">
     <!-- sim: 5mg PO -->
     <g transform="translate(324.12045 147.673828) scale(0.095 -0.095)">
      <use xlink:href="#DejaVuSans-73"/>
      <use xlink:href="#DejaVuSans-69" transform="translate(52.099609 0)"/>
      <use xlink:href="#DejaVuSans-6d" transform="translate(79.882812 0)"/>
      <use xlink:href="#DejaVuSans-3a" transform="translate(177.294922 0)"/>
      <use xlink:href="#DejaVuSans-20" transform="translate(210.986328 0)"/>
      <use xlink:href="#DejaVuSans-35" transform="translate(242.773438 0)"/>
      <use xlink:href="#DejaVuSans-6d" transform="translate(306.396484 0)"/>
      <use xlink:href="#DejaVuSans-67" transform="translate(403.808594 0)"/>
      <use xlink:href="#DejaVuSans-20" transform="translate(467.285156 0)"/>
      <use xlink:href="#DejaVuSans-50" transform="translate(499.072266 0)"/>
      <use xlink:href="#DejaVuSans-4f" transform="translate(559.375 0)"/>
     </g>
    </g>
    <g id="line2d_43">
     <path d="M 297.52045 158.293047 
L 316.52045 158.293047 
" style="fill: none; stroke-dasharray: 3.7,1.6; stroke-dashoffset: 0; stroke: #fdae6b"/>
    </g>
    <g id="line2d_44">
     <g>
      <use xlink:href="#m44ea2308a3" x="307.02045" y="158.293047" style="fill: #fdae6b; stroke: #000000; stroke-linejoin: miter"/>
     </g>
    </g>
    <g id="text_24">
     <!-- exp: 5mg PO (n=6) -->
     <g transform="translate(324.12045 161.618047) scale(0.095 -0.095)">
      <use xlink:href="#DejaVuSans-65"/>
      <use xlink:href="#DejaVuSans-78" transform="translate(59.773438 0)"/>
      <use xlink:href="#DejaVuSans-70" transform="translate(118.953125 0)"/>
      <use xlink:href="#DejaVuSans-3a" transform="translate(182.429688 0)"/>
      <use xlink:href="#DejaVuSans-20" transform="translate(216.121094 0)"/>
      <use xlink:href="#DejaVuSans-35" transform="translate(247.908203 0)"/>
      <use xlink:href="#DejaVuSans-6d" transform="translate(311.53125 0)"/>
      <use xlink:href="#DejaVuSans-67" transform="translate(408.943359 0)"/>
      <use xlink:href="#DejaVuSans-20" transform="translate(472.419922 0)"/>
      <use xlink:href="#DejaVuSans-50" transform="translate(504.207031 0)"/>
      <use xlink:href="#DejaVuSans-4f" transform="translate(564.509766 0)"/>
      <use xlink:href="#DejaVuSans-20" transform="translate(643.220703 0)"/>
      <use xlink:href="#DejaVuSans-28" transform="translate(675.007812 0)"/>
      <use xlink:href="#DejaVuSans-6e" transform="translate(714.021484 0)"/>
      <use xlink:href="#DejaVuSans-3d" transform="translate(777.400391 0)"/>
      <use xlink:href="#DejaVuSans-36" transform="translate(861.189453 0)"/>
      <use xlink:href="#DejaVuSans-29" transform="translate(924.8125 0)"/>
     </g>
    </g>
    <g id="line2d_45">
     <path d="M 297.52045 172.237266 
L 316.52045 172.237266 
" style="fill: none; stroke: #fd8d3c; stroke-width: 2; stroke-linecap: square"/>
    </g>
    <g id="line2d_46"/>
    <g id="text_25">
     <!-- sim: 10mg PO -->
     <g transform="translate(324.12045 175.562266) scale(0.095 -0.095)">
      <use xlink:href="#DejaVuSans-73"/>
      <use xlink:href="#DejaVuSans-69" transform="translate(52.099609 0)"/>
      <use xlink:href="#DejaVuSans-6d" transform="translate(79.882812 0)"/>
      <use xlink:href="#DejaVuSans-3a" transform="translate(177.294922 0)"/>
      <use xlink:href="#DejaVuSans-20" transform="translate(210.986328 0)"/>
      <use xlink:href="#DejaVuSans-31" transform="translate(242.773438 0)"/>
      <use xlink:href="#DejaVuSans-30" transform="translate(306.396484 0)"/>
      <use xlink:href="#DejaVuSans-6d" transform="translate(370.019531 0)"/>
      <use xlink:href="#DejaVuSans-67" transform="translate(467.431641 0)"/>
      <use xlink:href="#DejaVuSans-20" transform="translate(530.908203 0)"/>
      <use xlink:href="#DejaVuSans-50" transform="translate(562.695312 0)"/>
      <use xlink:href="#DejaVuSans-4f" transform="translate(622.998047 0)"/>
     </g>
    </g>
    <g id="line2d_47">
     <path d="M 297.52045 186.181484 
L 316.52045 186.181484 
" style="fill: none; stroke-dasharray: 3.7,1.6; stroke-dashoffset: 0; stroke: #fd8d3c"/>
    </g>
    <g id="line2d_48">
     <g>
      <use xlink:href="#m7e88856825" x="307.02045" y="186.181484" style="fill: #fd8d3c; stroke: #000000; stroke-linejoin: miter"/>
     </g>
    </g>
    <g id="text_26">
     <!-- exp: 10mg PO (n=6) -->
     <g transform="translate(324.12045 189.506484) scale(0.095 -0.095)">
      <use xlink:href="#DejaVuSans-65"/>
      <use xlink:href="#DejaVuSans-78" transform="translate(59.773438 0)"/>
      <use xlink:href="#DejaVuSans-70" transform="translate(118.953125 0)"/>
      <use xlink:href="#DejaVuSans-3a" transform="translate(182.429688 0)"/>
      <use xlink:href="#DejaVuSans-20" transform="translate(216.121094 0)"/>
      <use xlink:href="#DejaVuSans-31" transform="translate(247.908203 0)"/>
      <use xlink:href="#DejaVuSans-30" transform="translate(311.53125 0)"/>
      <use xlink:href="#DejaVuSans-6d" transform="translate(375.154297 0)"/>
      <use xlink:href="#DejaVuSans-67" transform="translate(472.566406 0)"/>
      <use xlink:href="#DejaVuSans-20" transform="translate(536.042969 0)"/>
      <use xlink:href="#DejaVuSans-50" transform="translate(567.830078 0)"/>
      <use xlink:href="#DejaVuSans-4f" transform="translate(628.132812 0)"/>
      <use xlink:href="#DejaVuSans-20" transform="translate(706.84375 0)"/>
      <use xlink:href="#DejaVuSans-28" transform="translate(738.630859 0)"/>
      <use xlink:href="#DejaVuSans-6e" transform="translate(777.644531 0)"/>
      <use xlink:href="#DejaVuSans-3d" transform="translate(841.023438 0)"/>
      <use xlink:href="#DejaVuSans-36" transform="translate(924.8125 0)"/>
      <use xlink:href="#DejaVuSans-29" transform="translate(988.435547 0)"/>
     </g>
    </g>
    <g id="line2d_49">
     <path d="M 297.52045 200.125703 
L 316.52045 200.125703 
" style="fill: none; stroke: #e6550d; stroke-width: 2; stroke-linecap: square"/>
    </g>
    <g id="line2d_50"/>
    <g id="text_27">
     <!-- sim: 25mg PO -->
     <g transform="translate(324.12045 203.450703) scale(0.095 -0.095)">
      <use xlink:href="#DejaVuSans-73"/>
      <use xlink:href="#DejaVuSans-69" transform="translate(52.099609 0)"/>
      <use xlink:href="#DejaVuSans-6d" transform="translate(79.882812 0)"/>
      <use xlink:href="#DejaVuSans-3a" transform="translate(177.294922 0)"/>
      <use xlink:href="#DejaVuSans-20" transform="translate(210.986328 0)"/>
      <use xlink:href="#DejaVuSans-32" transform="translate(242.773438 0)"/>
      <use xlink:href="#DejaVuSans-35" transform="translate(306.396484 0)"/>
      <use xlink:href="#DejaVuSans-6d" transform="translate(370.019531 0)"/>
      <use xlink:href="#DejaVuSans-67" transform="translate(467.431641 0)"/>
      <use xlink:href="#DejaVuSans-20" transform="translate(530.908203 0)"/>
      <use xlink:href="#DejaVuSans-50" transform="translate(562.695312 0)"/>
      <use xlink:href="#DejaVuSans-4f" transform="translate(622.998047 0)"/>
     </g>
    </g>
    <g id="line2d_51">
     <path d="M 297.52045 214.069922 
L 316.52045 214.069922 
" style="fill: none; stroke-dasharray: 3.7,1.6; stroke-dashoffset: 0; stroke: #e6550d"/>
    </g>
    <g id="line2d_52">
     <g>
      <use xlink:href="#m46bac10395" x="307.02045" y="214.069922" style="fill: #e6550d; stroke: #000000; stroke-linejoin: miter"/>
     </g>
    </g>
    <g id="text_28">
     <!-- exp: 25mg PO (n=6) -->
     <g transform="translate(324.12045 217.394922) scale(0.095 -0.095)">
      <use xlink:href="#DejaVuSans-65"/>
      <use xlink:href="#DejaVuSans-78" transform="translate(59.773438 0)"/>
      <use xlink:href="#DejaVuSans-70" transform="translate(118.953125 0)"/>
      <use xlink:href="#DejaVuSans-3a" transform="translate(182.429688 0)"/>
      <use xlink:href="#DejaVuSans-20" transform="translate(216.121094 0)"/>
      <use xlink:href="#DejaVuSans-32" transform="translate(247.908203 0)"/>
      <use xlink:href="#DejaVuSans-35" transform="translate(311.53125 0)"/>
      <use xlink:href="#DejaVuSans-6d" transform="translate(375.154297 0)"/>
      <use xlink:href="#DejaVuSans-67" transform="translate(472.566406 0)"/>
      <use xlink:href="#DejaVuSans-20" transform="translate(536.042969 0)"/>
      <use xlink:href="#DejaVuSans-50" transform="translate(567.830078 0)"/>
      <use xlink:href="#DejaVuSans-4f" transform="translate(628.132812 0)"/>
      <use xlink:href="#DejaVuSans-20" transform="translate(706.84375 0)"/>
      <use xlink:href="#DejaVuSans-28" transform="translate(738.630859 0)"/>
      <use xlink:href="#DejaVuSans-6e" transform="translate(777.644531 0)"/>
      <use xlink:href="#DejaVuSans-3d" transform="translate(841.023438 0)"/>
      <use xlink:href="#DejaVuSans-36" transform="translate(924.8125 0)"/>
      <use xlink:href="#DejaVuSans-29" transform="translate(988.435547 0)"/>
     </g>
    </g>
    <g id="line2d_53">
     <path d="M 297.52045 228.014141 
L 316.52045 228.014141 
" style="fill: none; stroke: #a63603; stroke-width: 2; stroke-linecap: square"/>
    </g>
    <g id="line2d_54"/>
    <g id="text_29">
     <!-- sim: 50mg PO -->
     <g transform="translate(324.12045 231.339141) scale(0.095 -0.095)">
      <use xlink:href="#DejaVuSans-73"/>
      <use xlink:href="#DejaVuSans-69" transform="translate(52.099609 0)"/>
      <use xlink:href="#DejaVuSans-6d" transform="translate(79.882812 0)"/>
      <use xlink:href="#DejaVuSans-3a" transform="translate(177.294922 0)"/>
      <use xlink:href="#DejaVuSans-20" transform="translate(210.986328 0)"/>
      <use xlink:href="#DejaVuSans-35" transform="translate(242.773438 0)"/>
      <use xlink:href="#DejaVuSans-30" transform="translate(306.396484 0)"/>
      <use xlink:href="#DejaVuSans-6d" transform="translate(370.019531 0)"/>
      <use xlink:href="#DejaVuSans-67" transform="translate(467.431641 0)"/>
      <use xlink:href="#DejaVuSans-20" transform="translate(530.908203 0)"/>
      <use xlink:href="#DejaVuSans-50" transform="translate(562.695312 0)"/>
      <use xlink:href="#DejaVuSans-4f" transform="translate(622.998047 0)"/>
     </g>
    </g>
    <g id="line2d_55">
     <path d="M 297.52045 241.958359 
L 316.52045 241.958359 
" style="fill: none; stroke-dasharray: 3.7,1.6; stroke-dashoffset: 0; stroke: #a63603"/>
    </g>
    <g id="line2d_56">
     <g>
      <use xlink:href="#m706bdd6aac" x="307.02045" y="241.958359" style="fill: #a63603; stroke: #000000; stroke-linejoin: miter"/>
     </g>
    </g>
    <g id="text_30">
     <!-- exp: 50mg PO (n=7) -->
     <g transform="translate(324.12045 245.283359) scale(0.095 -0.095)">
      <defs>
       <path id="DejaVuSans-37" d="M 525 4666 
L 3525 4666 
L 3525 4397 
L 1831 0 
L 1172 0 
L 2766 4134 
L 525 4134 
L 525 4666 
z
" transform="scale(0.015625)"/>
      </defs>
      <use xlink:href="#DejaVuSans-65"/>
      <use xlink:href="#DejaVuSans-78" transform="translate(59.773438 0)"/>
      <use xlink:href="#DejaVuSans-70" transform="translate(118.953125 0)"/>
      <use xlink:href="#DejaVuSans-3a" transform="translate(182.429688 0)"/>
      <use xlink:href="#DejaVuSans-20" transform="translate(216.121094 0)"/>
      <use xlink:href="#DejaVuSans-35" transform="translate(247.908203 0)"/>
      <use xlink:href="#DejaVuSans-30" transform="translate(311.53125 0)"/>
      <use xlink:href="#DejaVuSans-6d" transform="translate(375.154297 0)"/>
      <use xlink:href="#DejaVuSans-67" transform="translate(472.566406 0)"/>
      <use xlink:href="#DejaVuSans-20" transform="translate(536.042969 0)"/>
      <use xlink:href="#DejaVuSans-50" transform="translate(567.830078 0)"/>
      <use xlink:href="#DejaVuSans-4f" transform="translate(628.132812 0)"/>
      <use xlink:href="#DejaVuSans-20" transform="translate(706.84375 0)"/>
      <use xlink:href="#DejaVuSans-28" transform="translate(738.630859 0)"/>
      <use xlink:href="#DejaVuSans-6e" transform="translate(777.644531 0)"/>
      <use xlink:href="#DejaVuSans-3d" transform="translate(841.023438 0)"/>
      <use xlink:href="#DejaVuSans-37" transform="translate(924.8125 0)"/>
      <use xlink:href="#DejaVuSans-29" transform="translate(988.435547 0)"/>
     </g>
    </g>
   </g>
  </g>
  <g id="text_31">
   <!-- Frost2013 -->
   <g transform="translate(169.670734 26.196094) scale(0.25 -0.25)">
    <defs>
     <path id="DejaVuSans-Bold-46" d="M 588 4666 
L 3834 4666 
L 3834 3756 
L 1791 3756 
L 1791 2888 
L 3713 2888 
L 3713 1978 
L 1791 1978 
L 1791 0 
L 588 0 
L 588 4666 
z
" transform="scale(0.015625)"/>
     <path id="DejaVuSans-Bold-6f" d="M 2203 2784 
Q 1831 2784 1636 2517 
Q 1441 2250 1441 1747 
Q 1441 1244 1636 976 
Q 1831 709 2203 709 
Q 2569 709 2762 976 
Q 2956 1244 2956 1747 
Q 2956 2250 2762 2517 
Q 2569 2784 2203 2784 
z
M 2203 3584 
Q 3106 3584 3614 3096 
Q 4122 2609 4122 1747 
Q 4122 884 3614 396 
Q 3106 -91 2203 -91 
Q 1297 -91 786 396 
Q 275 884 275 1747 
Q 275 2609 786 3096 
Q 1297 3584 2203 3584 
z
" transform="scale(0.015625)"/>
     <path id="DejaVuSans-Bold-32" d="M 1844 884 
L 3897 884 
L 3897 0 
L 506 0 
L 506 884 
L 2209 2388 
Q 2438 2594 2547 2791 
Q 2656 2988 2656 3200 
Q 2656 3528 2436 3728 
Q 2216 3928 1850 3928 
Q 1569 3928 1234 3808 
Q 900 3688 519 3450 
L 519 4475 
Q 925 4609 1322 4679 
Q 1719 4750 2100 4750 
Q 2938 4750 3402 4381 
Q 3866 4013 3866 3353 
Q 3866 2972 3669 2642 
Q 3472 2313 2841 1759 
L 1844 884 
z
" transform="scale(0.015625)"/>
     <path id="DejaVuSans-Bold-30" d="M 2944 2338 
Q 2944 3213 2780 3570 
Q 2616 3928 2228 3928 
Q 1841 3928 1675 3570 
Q 1509 3213 1509 2338 
Q 1509 1453 1675 1090 
Q 1841 728 2228 728 
Q 2613 728 2778 1090 
Q 2944 1453 2944 2338 
z
M 4147 2328 
Q 4147 1169 3647 539 
Q 3147 -91 2228 -91 
Q 1306 -91 806 539 
Q 306 1169 306 2328 
Q 306 3491 806 4120 
Q 1306 4750 2228 4750 
Q 3147 4750 3647 4120 
Q 4147 3491 4147 2328 
z
" transform="scale(0.015625)"/>
     <path id="DejaVuSans-Bold-31" d="M 750 831 
L 1813 831 
L 1813 3847 
L 722 3622 
L 722 4441 
L 1806 4666 
L 2950 4666 
L 2950 831 
L 4013 831 
L 4013 0 
L 750 0 
L 750 831 
z
" transform="scale(0.015625)"/>
     <path id="DejaVuSans-Bold-33" d="M 2981 2516 
Q 3453 2394 3698 2092 
Q 3944 1791 3944 1325 
Q 3944 631 3412 270 
Q 2881 -91 1863 -91 
Q 1503 -91 1142 -33 
Q 781 25 428 141 
L 428 1069 
Q 766 900 1098 814 
Q 1431 728 1753 728 
Q 2231 728 2486 893 
Q 2741 1059 2741 1369 
Q 2741 1688 2480 1852 
Q 2219 2016 1709 2016 
L 1228 2016 
L 1228 2791 
L 1734 2791 
Q 2188 2791 2409 2933 
Q 2631 3075 2631 3366 
Q 2631 3634 2415 3781 
Q 2200 3928 1806 3928 
Q 1516 3928 1219 3862 
Q 922 3797 628 3669 
L 628 4550 
Q 984 4650 1334 4700 
Q 1684 4750 2022 4750 
Q 2931 4750 3382 4451 
Q 3834 4153 3834 3553 
Q 3834 3144 3618 2883 
Q 3403 2622 2981 2516 
z
" transform="scale(0.015625)"/>
    </defs>
    <use xlink:href="#DejaVuSans-Bold-46"/>
    <use xlink:href="#DejaVuSans-Bold-72" transform="translate(61.935547 0)"/>
    <use xlink:href="#DejaVuSans-Bold-6f" transform="translate(111.251953 0)"/>
    <use xlink:href="#DejaVuSans-Bold-73" transform="translate(179.953125 0)"/>
    <use xlink:href="#DejaVuSans-Bold-74" transform="translate(239.474609 0)"/>
    <use xlink:href="#DejaVuSans-Bold-32" transform="translate(287.277344 0)"/>
    <use xlink:href="#DejaVuSans-Bold-30" transform="translate(356.857422 0)"/>
    <use xlink:href="#DejaVuSans-Bold-31" transform="translate(426.4375 0)"/>
    <use xlink:href="#DejaVuSans-Bold-33" transform="translate(496.017578 0)"/>
   </g>
  </g>
 </g>
 <defs>
  <clipPath id="p03568d1efb">
   <rect x="59.495" y="48.24" width="373.8042" height="316.008"/>
  </clipPath>
 </defs>
</svg>
