<?xml version="1.0" encoding="utf-8" standalone="no"?>
<!DOCTYPE svg PUBLIC "-//W3C//DTD SVG 1.1//EN"
  "http://www.w3.org/Graphics/SVG/1.1/DTD/svg11.dtd">
<svg xmlns:xlink="http://www.w3.org/1999/xlink" width="926.015pt" height="414.385812pt" viewBox="0 0 926.015 414.385812" xmlns="http://www.w3.org/2000/svg" version="1.1">
 <metadata>
  <rdf:RDF xmlns:dc="http://purl.org/dc/elements/1.1/" xmlns:cc="http://creativecommons.org/ns#" xmlns:rdf="http://www.w3.org/1999/02/22-rdf-syntax-ns#">
   <cc:Work>
    <dc:type rdf:resource="http://purl.org/dc/dcmitype/StillImage"/>
    <dc:date>2026-03-19T15:19:04.426548</dc:date>
    <dc:format>image/svg+xml</dc:format>
    <dc:creator>
     <cc:Agent>
      <dc:title>Matplotlib v3.10.8, https://matplotlib.org/</dc:title>
     </cc:Agent>
    </dc:creator>
   </cc:Work>
  </rdf:RDF>
 </metadata>
 <defs>
  <style type="text/css">*{stroke-linejoin: round; stroke-linecap: butt}</style>
 </defs>
 <g id="figure_1">
  <g id="patch_1">
   <path d="M 0 414.385812 
L 926.015 414.385812 
L 926.015 -0 
L 0 -0 
z
" style="fill: #ffffff"/>
  </g>
  <g id="axes_1">
   <g id="patch_2">
    <path d="M 59.495 364.248 
L 433.112391 364.248 
L 433.112391 48.24 
L 59.495 48.24 
z
" style="fill: #ffffff"/>
   </g>
   <g id="matplotlib.axis_1">
    <g id="xtick_1">
     <g id="line2d_1">
      <defs>
       <path id="m2dc30fb31c" d="M 0 0 
L 0 3.5 
" style="stroke: #000000; stroke-width: 0.8"/>
      </defs>
      <g>
       <use xlink:href="#m2dc30fb31c" x="76.477609" y="364.248" style="stroke: #000000; stroke-width: 0.8"/>
      </g>
     </g>
     <g id="text_1">
      <!-- 0 -->
      <g transform="translate(71.705734 382.645656) scale(0.15 -0.15)">
       <defs>
        <path id="DejaVuSans-30" d="M 2034 4250 
Q 1547 4250 1301 3770 
Q 1056 3291 1056 2328 
Q 1056 1369 1301 889 
Q 1547 409 2034 409 
Q 2525 409 2770 889 
Q 3016 1369 3016 2328 
Q 3016 3291 2770 3770 
Q 2525 4250 2034 4250 
z
M 2034 4750 
Q 2819 4750 3233 4129 
Q 3647 3509 3647 2328 
Q 3647 1150 3233 529 
Q 2819 -91 2034 -91 
Q 1250 -91 836 529 
Q 422 1150 422 2328 
Q 422 3509 836 4129 
Q 1250 4750 2034 4750 
z
" transform="scale(0.015625)"/>
       </defs>
       <use xlink:href="#DejaVuSans-30"/>
      </g>
     </g>
    </g>
    <g id="xtick_2">
     <g id="line2d_2">
      <g>
       <use xlink:href="#m2dc30fb31c" x="167.051522" y="364.248" style="stroke: #000000; stroke-width: 0.8"/>
      </g>
     </g>
     <g id="text_2">
      <!-- 20 -->
      <g transform="translate(157.507772 382.645656) scale(0.15 -0.15)">
       <defs>
        <path id="DejaVuSans-32" d="M 1228 531 
L 3431 531 
L 3431 0 
L 469 0 
L 469 531 
Q 828 903 1448 1529 
Q 2069 2156 2228 2338 
Q 2531 2678 2651 2914 
Q 2772 3150 2772 3378 
Q 2772 3750 2511 3984 
Q 2250 4219 1831 4219 
Q 1534 4219 1204 4116 
Q 875 4013 500 3803 
L 500 4441 
Q 881 4594 1212 4672 
Q 1544 4750 1819 4750 
Q 2544 4750 2975 4387 
Q 3406 4025 3406 3419 
Q 3406 3131 3298 2873 
Q 3191 2616 2906 2266 
Q 2828 2175 2409 1742 
Q 1991 1309 1228 531 
z
" transform="scale(0.015625)"/>
       </defs>
       <use xlink:href="#DejaVuSans-32"/>
       <use xlink:href="#DejaVuSans-30" transform="translate(63.623047 0)"/>
      </g>
     </g>
    </g>
    <g id="xtick_3">
     <g id="line2d_3">
      <g>
       <use xlink:href="#m2dc30fb31c" x="257.625435" y="364.248" style="stroke: #000000; stroke-width: 0.8"/>
      </g>
     </g>
     <g id="text_3">
      <!-- 40 -->
      <g transform="translate(248.081685 382.645656) scale(0.15 -0.15)">
       <defs>
        <path id="DejaVuSans-34" d="M 2419 4116 
L 825 1625 
L 2419 1625 
L 2419 4116 
z
M 2253 4666 
L 3047 4666 
L 3047 1625 
L 3713 1625 
L 3713 1100 
L 3047 1100 
L 3047 0 
L 2419 0 
L 2419 1100 
L 313 1100 
L 313 1709 
L 2253 4666 
z
" transform="scale(0.015625)"/>
       </defs>
       <use xlink:href="#DejaVuSans-34"/>
       <use xlink:href="#DejaVuSans-30" transform="translate(63.623047 0)"/>
      </g>
     </g>
    </g>
    <g id="xtick_4">
     <g id="line2d_4">
      <g>
       <use xlink:href="#m2dc30fb31c" x="348.199348" y="364.248" style="stroke: #000000; stroke-width: 0.8"/>
      </g>
     </g>
     <g id="text_4">
      <!-- 60 -->
      <g transform="translate(338.655598 382.645656) scale(0.15 -0.15)">
       <defs>
        <path id="DejaVuSans-36" d="M 2113 2584 
Q 1688 2584 1439 2293 
Q 1191 2003 1191 1497 
Q 1191 994 1439 701 
Q 1688 409 2113 409 
Q 2538 409 2786 701 
Q 3034 994 3034 1497 
Q 3034 2003 2786 2293 
Q 2538 2584 2113 2584 
z
M 3366 4563 
L 3366 3988 
Q 3128 4100 2886 4159 
Q 2644 4219 2406 4219 
Q 1781 4219 1451 3797 
Q 1122 3375 1075 2522 
Q 1259 2794 1537 2939 
Q 1816 3084 2150 3084 
Q 2853 3084 3261 2657 
Q 3669 2231 3669 1497 
Q 3669 778 3244 343 
Q 2819 -91 2113 -91 
Q 1303 -91 875 529 
Q 447 1150 447 2328 
Q 447 3434 972 4092 
Q 1497 4750 2381 4750 
Q 2619 4750 2861 4703 
Q 3103 4656 3366 4563 
z
" transform="scale(0.015625)"/>
       </defs>
       <use xlink:href="#DejaVuSans-36"/>
       <use xlink:href="#DejaVuSans-30" transform="translate(63.623047 0)"/>
      </g>
     </g>
    </g>
    <g id="text_5">
     <!-- time [hr] -->
     <g transform="translate(201.229164 403.442375) scale(0.18 -0.18)">
      <defs>
       <path id="DejaVuSans-Bold-74" d="M 1759 4494 
L 1759 3500 
L 2913 3500 
L 2913 2700 
L 1759 2700 
L 1759 1216 
Q 1759 972 1856 886 
Q 1953 800 2241 800 
L 2816 800 
L 2816 0 
L 1856 0 
Q 1194 0 917 276 
Q 641 553 641 1216 
L 641 2700 
L 84 2700 
L 84 3500 
L 641 3500 
L 641 4494 
L 1759 4494 
z
" transform="scale(0.015625)"/>
       <path id="DejaVuSans-Bold-69" d="M 538 3500 
L 1656 3500 
L 1656 0 
L 538 0 
L 538 3500 
z
M 538 4863 
L 1656 4863 
L 1656 3950 
L 538 3950 
L 538 4863 
z
" transform="scale(0.015625)"/>
       <path id="DejaVuSans-Bold-6d" d="M 3781 2919 
Q 3994 3244 4286 3414 
Q 4578 3584 4928 3584 
Q 5531 3584 5847 3212 
Q 6163 2841 6163 2131 
L 6163 0 
L 5038 0 
L 5038 1825 
Q 5041 1866 5042 1909 
Q 5044 1953 5044 2034 
Q 5044 2406 4934 2573 
Q 4825 2741 4581 2741 
Q 4263 2741 4089 2478 
Q 3916 2216 3909 1719 
L 3909 0 
L 2784 0 
L 2784 1825 
Q 2784 2406 2684 2573 
Q 2584 2741 2328 2741 
Q 2006 2741 1831 2477 
Q 1656 2213 1656 1722 
L 1656 0 
L 531 0 
L 531 3500 
L 1656 3500 
L 1656 2988 
Q 1863 3284 2130 3434 
Q 2397 3584 2719 3584 
Q 3081 3584 3359 3409 
Q 3638 3234 3781 2919 
z
" transform="scale(0.015625)"/>
       <path id="DejaVuSans-Bold-65" d="M 4031 1759 
L 4031 1441 
L 1416 1441 
Q 1456 1047 1700 850 
Q 1944 653 2381 653 
Q 2734 653 3104 758 
Q 3475 863 3866 1075 
L 3866 213 
Q 3469 63 3072 -14 
Q 2675 -91 2278 -91 
Q 1328 -91 801 392 
Q 275 875 275 1747 
Q 275 2603 792 3093 
Q 1309 3584 2216 3584 
Q 3041 3584 3536 3087 
Q 4031 2591 4031 1759 
z
M 2881 2131 
Q 2881 2450 2695 2645 
Q 2509 2841 2209 2841 
Q 1884 2841 1681 2658 
Q 1478 2475 1428 2131 
L 2881 2131 
z
" transform="scale(0.015625)"/>
       <path id="DejaVuSans-Bold-20" transform="scale(0.015625)"/>
       <path id="DejaVuSans-Bold-5b" d="M 550 4863 
L 2491 4863 
L 2491 4159 
L 1613 4159 
L 1613 -141 
L 2491 -141 
L 2491 -844 
L 550 -844 
L 550 4863 
z
" transform="scale(0.015625)"/>
       <path id="DejaVuSans-Bold-68" d="M 4056 2131 
L 4056 0 
L 2931 0 
L 2931 347 
L 2931 1625 
Q 2931 2084 2911 2256 
Q 2891 2428 2841 2509 
Q 2775 2619 2662 2680 
Q 2550 2741 2406 2741 
Q 2056 2741 1856 2470 
Q 1656 2200 1656 1722 
L 1656 0 
L 538 0 
L 538 4863 
L 1656 4863 
L 1656 2988 
Q 1909 3294 2193 3439 
Q 2478 3584 2822 3584 
Q 3428 3584 3742 3212 
Q 4056 2841 4056 2131 
z
" transform="scale(0.015625)"/>
       <path id="DejaVuSans-Bold-72" d="M 3138 2547 
Q 2991 2616 2845 2648 
Q 2700 2681 2553 2681 
Q 2122 2681 1889 2404 
Q 1656 2128 1656 1613 
L 1656 0 
L 538 0 
L 538 3500 
L 1656 3500 
L 1656 2925 
Q 1872 3269 2151 3426 
Q 2431 3584 2822 3584 
Q 2878 3584 2943 3579 
Q 3009 3575 3134 3559 
L 3138 2547 
z
" transform="scale(0.015625)"/>
       <path id="DejaVuSans-Bold-5d" d="M 2375 -844 
L 434 -844 
L 434 -141 
L 1313 -141 
L 1313 4159 
L 434 4159 
L 434 4863 
L 2375 4863 
L 2375 -844 
z
" transform="scale(0.015625)"/>
      </defs>
      <use xlink:href="#DejaVuSans-Bold-74"/>
      <use xlink:href="#DejaVuSans-Bold-69" transform="translate(47.802734 0)"/>
      <use xlink:href="#DejaVuSans-Bold-6d" transform="translate(82.080078 0)"/>
      <use xlink:href="#DejaVuSans-Bold-65" transform="translate(186.279297 0)"/>
      <use xlink:href="#DejaVuSans-Bold-20" transform="translate(254.101562 0)"/>
      <use xlink:href="#DejaVuSans-Bold-5b" transform="translate(288.916016 0)"/>
      <use xlink:href="#DejaVuSans-Bold-68" transform="translate(334.619141 0)"/>
      <use xlink:href="#DejaVuSans-Bold-72" transform="translate(405.810547 0)"/>
      <use xlink:href="#DejaVuSans-Bold-5d" transform="translate(455.126953 0)"/>
     </g>
    </g>
   </g>
   <g id="matplotlib.axis_2">
    <g id="ytick_1">
     <g id="line2d_5">
      <defs>
       <path id="m64797b76da" d="M 0 0 
L -3.5 0 
" style="stroke: #000000; stroke-width: 0.8"/>
      </defs>
      <g>
       <use xlink:href="#m64797b76da" x="59.495" y="345.841053" style="stroke: #000000; stroke-width: 0.8"/>
      </g>
     </g>
     <g id="text_6">
      <!-- 0.0 -->
      <g transform="translate(28.640313 351.539881) scale(0.15 -0.15)">
       <defs>
        <path id="DejaVuSans-2e" d="M 684 794 
L 1344 794 
L 1344 0 
L 684 0 
L 684 794 
z
" transform="scale(0.015625)"/>
       </defs>
       <use xlink:href="#DejaVuSans-30"/>
       <use xlink:href="#DejaVuSans-2e" transform="translate(63.623047 0)"/>
       <use xlink:href="#DejaVuSans-30" transform="translate(95.410156 0)"/>
      </g>
     </g>
    </g>
    <g id="ytick_2">
     <g id="line2d_6">
      <g>
       <use xlink:href="#m64797b76da" x="59.495" y="306.941774" style="stroke: #000000; stroke-width: 0.8"/>
      </g>
     </g>
     <g id="text_7">
      <!-- 0.1 -->
      <g transform="translate(28.640313 312.640602) scale(0.15 -0.15)">
       <defs>
        <path id="DejaVuSans-31" d="M 794 531 
L 1825 531 
L 1825 4091 
L 703 3866 
L 703 4441 
L 1819 4666 
L 2450 4666 
L 2450 531 
L 3481 531 
L 3481 0 
L 794 0 
L 794 531 
z
" transform="scale(0.015625)"/>
       </defs>
       <use xlink:href="#DejaVuSans-30"/>
       <use xlink:href="#DejaVuSans-2e" transform="translate(63.623047 0)"/>
       <use xlink:href="#DejaVuSans-31" transform="translate(95.410156 0)"/>
      </g>
     </g>
    </g>
    <g id="ytick_3">
     <g id="line2d_7">
      <g>
       <use xlink:href="#m64797b76da" x="59.495" y="268.042496" style="stroke: #000000; stroke-width: 0.8"/>
      </g>
     </g>
     <g id="text_8">
      <!-- 0.2 -->
      <g transform="translate(28.640313 273.741324) scale(0.15 -0.15)">
       <use xlink:href="#DejaVuSans-30"/>
       <use xlink:href="#DejaVuSans-2e" transform="translate(63.623047 0)"/>
       <use xlink:href="#DejaVuSans-32" transform="translate(95.410156 0)"/>
      </g>
     </g>
    </g>
    <g id="ytick_4">
     <g id="line2d_8">
      <g>
       <use xlink:href="#m64797b76da" x="59.495" y="229.143217" style="stroke: #000000; stroke-width: 0.8"/>
      </g>
     </g>
     <g id="text_9">
      <!-- 0.3 -->
      <g transform="translate(28.640313 234.842045) scale(0.15 -0.15)">
       <defs>
        <path id="DejaVuSans-33" d="M 2597 2516 
Q 3050 2419 3304 2112 
Q 3559 1806 3559 1356 
Q 3559 666 3084 287 
Q 2609 -91 1734 -91 
Q 1441 -91 1130 -33 
Q 819 25 488 141 
L 488 750 
Q 750 597 1062 519 
Q 1375 441 1716 441 
Q 2309 441 2620 675 
Q 2931 909 2931 1356 
Q 2931 1769 2642 2001 
Q 2353 2234 1838 2234 
L 1294 2234 
L 1294 2753 
L 1863 2753 
Q 2328 2753 2575 2939 
Q 2822 3125 2822 3475 
Q 2822 3834 2567 4026 
Q 2313 4219 1838 4219 
Q 1578 4219 1281 4162 
Q 984 4106 628 3988 
L 628 4550 
Q 988 4650 1302 4700 
Q 1616 4750 1894 4750 
Q 2613 4750 3031 4423 
Q 3450 4097 3450 3541 
Q 3450 3153 3228 2886 
Q 3006 2619 2597 2516 
z
" transform="scale(0.015625)"/>
       </defs>
       <use xlink:href="#DejaVuSans-30"/>
       <use xlink:href="#DejaVuSans-2e" transform="translate(63.623047 0)"/>
       <use xlink:href="#DejaVuSans-33" transform="translate(95.410156 0)"/>
      </g>
     </g>
    </g>
    <g id="ytick_5">
     <g id="line2d_9">
      <g>
       <use xlink:href="#m64797b76da" x="59.495" y="190.243938" style="stroke: #000000; stroke-width: 0.8"/>
      </g>
     </g>
     <g id="text_10">
      <!-- 0.4 -->
      <g transform="translate(28.640313 195.942766) scale(0.15 -0.15)">
       <use xlink:href="#DejaVuSans-30"/>
       <use xlink:href="#DejaVuSans-2e" transform="translate(63.623047 0)"/>
       <use xlink:href="#DejaVuSans-34" transform="translate(95.410156 0)"/>
      </g>
     </g>
    </g>
    <g id="ytick_6">
     <g id="line2d_10">
      <g>
       <use xlink:href="#m64797b76da" x="59.495" y="151.34466" style="stroke: #000000; stroke-width: 0.8"/>
      </g>
     </g>
     <g id="text_11">
      <!-- 0.5 -->
      <g transform="translate(28.640313 157.043488) scale(0.15 -0.15)">
       <defs>
        <path id="DejaVuSans-35" d="M 691 4666 
L 3169 4666 
L 3169 4134 
L 1269 4134 
L 1269 2991 
Q 1406 3038 1543 3061 
Q 1681 3084 1819 3084 
Q 2600 3084 3056 2656 
Q 3513 2228 3513 1497 
Q 3513 744 3044 326 
Q 2575 -91 1722 -91 
Q 1428 -91 1123 -41 
Q 819 9 494 109 
L 494 744 
Q 775 591 1075 516 
Q 1375 441 1709 441 
Q 2250 441 2565 725 
Q 2881 1009 2881 1497 
Q 2881 1984 2565 2268 
Q 2250 2553 1709 2553 
Q 1456 2553 1204 2497 
Q 953 2441 691 2322 
L 691 4666 
z
" transform="scale(0.015625)"/>
       </defs>
       <use xlink:href="#DejaVuSans-30"/>
       <use xlink:href="#DejaVuSans-2e" transform="translate(63.623047 0)"/>
       <use xlink:href="#DejaVuSans-35" transform="translate(95.410156 0)"/>
      </g>
     </g>
    </g>
    <g id="ytick_7">
     <g id="line2d_11">
      <g>
       <use xlink:href="#m64797b76da" x="59.495" y="112.445381" style="stroke: #000000; stroke-width: 0.8"/>
      </g>
     </g>
     <g id="text_12">
      <!-- 0.6 -->
      <g transform="translate(28.640313 118.144209) scale(0.15 -0.15)">
       <use xlink:href="#DejaVuSans-30"/>
       <use xlink:href="#DejaVuSans-2e" transform="translate(63.623047 0)"/>
       <use xlink:href="#DejaVuSans-36" transform="translate(95.410156 0)"/>
      </g>
     </g>
    </g>
    <g id="ytick_8">
     <g id="line2d_12">
      <g>
       <use xlink:href="#m64797b76da" x="59.495" y="73.546102" style="stroke: #000000; stroke-width: 0.8"/>
      </g>
     </g>
     <g id="text_13">
      <!-- 0.7 -->
      <g transform="translate(28.640313 79.24493) scale(0.15 -0.15)">
       <defs>
        <path id="DejaVuSans-37" d="M 525 4666 
L 3525 4666 
L 3525 4397 
L 1831 0 
L 1172 0 
L 2766 4134 
L 525 4134 
L 525 4666 
z
" transform="scale(0.015625)"/>
       </defs>
       <use xlink:href="#DejaVuSans-30"/>
       <use xlink:href="#DejaVuSans-2e" transform="translate(63.623047 0)"/>
       <use xlink:href="#DejaVuSans-37" transform="translate(95.410156 0)"/>
      </g>
     </g>
    </g>
    <g id="text_14">
     <!-- apixaban plasma [µM] -->
     <g transform="translate(20.877188 319.1265) rotate(-90) scale(0.18 -0.18)">
      <defs>
       <path id="DejaVuSans-Bold-61" d="M 2106 1575 
Q 1756 1575 1579 1456 
Q 1403 1338 1403 1106 
Q 1403 894 1545 773 
Q 1688 653 1941 653 
Q 2256 653 2472 879 
Q 2688 1106 2688 1447 
L 2688 1575 
L 2106 1575 
z
M 3816 1997 
L 3816 0 
L 2688 0 
L 2688 519 
Q 2463 200 2181 54 
Q 1900 -91 1497 -91 
Q 953 -91 614 226 
Q 275 544 275 1050 
Q 275 1666 698 1953 
Q 1122 2241 2028 2241 
L 2688 2241 
L 2688 2328 
Q 2688 2594 2478 2717 
Q 2269 2841 1825 2841 
Q 1466 2841 1156 2769 
Q 847 2697 581 2553 
L 581 3406 
Q 941 3494 1303 3539 
Q 1666 3584 2028 3584 
Q 2975 3584 3395 3211 
Q 3816 2838 3816 1997 
z
" transform="scale(0.015625)"/>
       <path id="DejaVuSans-Bold-70" d="M 1656 506 
L 1656 -1331 
L 538 -1331 
L 538 3500 
L 1656 3500 
L 1656 2988 
Q 1888 3294 2169 3439 
Q 2450 3584 2816 3584 
Q 3463 3584 3878 3070 
Q 4294 2556 4294 1747 
Q 4294 938 3878 423 
Q 3463 -91 2816 -91 
Q 2450 -91 2169 54 
Q 1888 200 1656 506 
z
M 2400 2772 
Q 2041 2772 1848 2508 
Q 1656 2244 1656 1747 
Q 1656 1250 1848 986 
Q 2041 722 2400 722 
Q 2759 722 2948 984 
Q 3138 1247 3138 1747 
Q 3138 2247 2948 2509 
Q 2759 2772 2400 2772 
z
" transform="scale(0.015625)"/>
       <path id="DejaVuSans-Bold-78" d="M 1422 1791 
L 159 3500 
L 1344 3500 
L 2059 2463 
L 2784 3500 
L 3969 3500 
L 2706 1797 
L 4031 0 
L 2847 0 
L 2059 1106 
L 1281 0 
L 97 0 
L 1422 1791 
z
" transform="scale(0.015625)"/>
       <path id="DejaVuSans-Bold-62" d="M 2400 722 
Q 2759 722 2948 984 
Q 3138 1247 3138 1747 
Q 3138 2247 2948 2509 
Q 2759 2772 2400 2772 
Q 2041 2772 1848 2508 
Q 1656 2244 1656 1747 
Q 1656 1250 1848 986 
Q 2041 722 2400 722 
z
M 1656 2988 
Q 1888 3294 2169 3439 
Q 2450 3584 2816 3584 
Q 3463 3584 3878 3070 
Q 4294 2556 4294 1747 
Q 4294 938 3878 423 
Q 3463 -91 2816 -91 
Q 2450 -91 2169 54 
Q 1888 200 1656 506 
L 1656 0 
L 538 0 
L 538 4863 
L 1656 4863 
L 1656 2988 
z
" transform="scale(0.015625)"/>
       <path id="DejaVuSans-Bold-6e" d="M 4056 2131 
L 4056 0 
L 2931 0 
L 2931 347 
L 2931 1631 
Q 2931 2084 2911 2256 
Q 2891 2428 2841 2509 
Q 2775 2619 2662 2680 
Q 2550 2741 2406 2741 
Q 2056 2741 1856 2470 
Q 1656 2200 1656 1722 
L 1656 0 
L 538 0 
L 538 3500 
L 1656 3500 
L 1656 2988 
Q 1909 3294 2193 3439 
Q 2478 3584 2822 3584 
Q 3428 3584 3742 3212 
Q 4056 2841 4056 2131 
z
" transform="scale(0.015625)"/>
       <path id="DejaVuSans-Bold-6c" d="M 538 4863 
L 1656 4863 
L 1656 0 
L 538 0 
L 538 4863 
z
" transform="scale(0.015625)"/>
       <path id="DejaVuSans-Bold-73" d="M 3272 3391 
L 3272 2541 
Q 2913 2691 2578 2766 
Q 2244 2841 1947 2841 
Q 1628 2841 1473 2761 
Q 1319 2681 1319 2516 
Q 1319 2381 1436 2309 
Q 1553 2238 1856 2203 
L 2053 2175 
Q 2913 2066 3209 1816 
Q 3506 1566 3506 1031 
Q 3506 472 3093 190 
Q 2681 -91 1863 -91 
Q 1516 -91 1145 -36 
Q 775 19 384 128 
L 384 978 
Q 719 816 1070 734 
Q 1422 653 1784 653 
Q 2113 653 2278 743 
Q 2444 834 2444 1013 
Q 2444 1163 2330 1236 
Q 2216 1309 1875 1350 
L 1678 1375 
Q 931 1469 631 1722 
Q 331 1975 331 2491 
Q 331 3047 712 3315 
Q 1094 3584 1881 3584 
Q 2191 3584 2531 3537 
Q 2872 3491 3272 3391 
z
" transform="scale(0.015625)"/>
       <path id="DejaVuSans-Bold-b5" d="M 544 -1338 
L 544 3500 
L 1672 3500 
L 1672 1466 
Q 1672 1103 1828 926 
Q 1984 750 2303 750 
Q 2625 750 2781 926 
Q 2938 1103 2938 1466 
L 2938 3500 
L 4063 3500 
L 4063 1159 
Q 4063 938 4114 850 
Q 4166 763 4288 763 
Q 4344 763 4395 778 
Q 4447 794 4506 831 
L 4506 50 
Q 4341 -22 4195 -56 
Q 4050 -91 3909 -91 
Q 3631 -91 3454 26 
Q 3278 144 3169 403 
Q 3022 156 2811 32 
Q 2600 -91 2322 -91 
Q 2091 -91 1928 -17 
Q 1766 56 1672 206 
L 1672 -1338 
L 544 -1338 
z
" transform="scale(0.015625)"/>
       <path id="DejaVuSans-Bold-4d" d="M 588 4666 
L 2119 4666 
L 3181 2169 
L 4250 4666 
L 5778 4666 
L 5778 0 
L 4641 0 
L 4641 3413 
L 3566 897 
L 2803 897 
L 1728 3413 
L 1728 0 
L 588 0 
L 588 4666 
z
" transform="scale(0.015625)"/>
      </defs>
      <use xlink:href="#DejaVuSans-Bold-61"/>
      <use xlink:href="#DejaVuSans-Bold-70" transform="translate(67.480469 0)"/>
      <use xlink:href="#DejaVuSans-Bold-69" transform="translate(139.0625 0)"/>
      <use xlink:href="#DejaVuSans-Bold-78" transform="translate(173.339844 0)"/>
      <use xlink:href="#DejaVuSans-Bold-61" transform="translate(237.841797 0)"/>
      <use xlink:href="#DejaVuSans-Bold-62" transform="translate(305.322266 0)"/>
      <use xlink:href="#DejaVuSans-Bold-61" transform="translate(376.904297 0)"/>
      <use xlink:href="#DejaVuSans-Bold-6e" transform="translate(444.384766 0)"/>
      <use xlink:href="#DejaVuSans-Bold-20" transform="translate(515.576172 0)"/>
      <use xlink:href="#DejaVuSans-Bold-70" transform="translate(550.390625 0)"/>
      <use xlink:href="#DejaVuSans-Bold-6c" transform="translate(621.972656 0)"/>
      <use xlink:href="#DejaVuSans-Bold-61" transform="translate(656.25 0)"/>
      <use xlink:href="#DejaVuSans-Bold-73" transform="translate(723.730469 0)"/>
      <use xlink:href="#DejaVuSans-Bold-6d" transform="translate(783.251953 0)"/>
      <use xlink:href="#DejaVuSans-Bold-61" transform="translate(887.451172 0)"/>
      <use xlink:href="#DejaVuSans-Bold-20" transform="translate(954.931641 0)"/>
      <use xlink:href="#DejaVuSans-Bold-5b" transform="translate(989.746094 0)"/>
      <use xlink:href="#DejaVuSans-Bold-b5" transform="translate(1035.449219 0)"/>
      <use xlink:href="#DejaVuSans-Bold-4d" transform="translate(1109.033203 0)"/>
      <use xlink:href="#DejaVuSans-Bold-5d" transform="translate(1208.544922 0)"/>
     </g>
    </g>
   </g>
   <g id="LineCollection_1">
    <path clip-path="url(#p97bd43246d)" style="fill: none; stroke: #0000ff"/>
    <path d="M 78.741957 335.798589 
L 78.741957 226.110319 
" clip-path="url(#p97bd43246d)" style="fill: none; stroke: #0000ff"/>
    <path d="M 81.006304 293.536998 
L 81.006304 150.640602 
" clip-path="url(#p97bd43246d)" style="fill: none; stroke: #0000ff"/>
    <path d="M 85.535 222.095805 
L 85.535 70.143472 
" clip-path="url(#p97bd43246d)" style="fill: none; stroke: #0000ff"/>
    <path d="M 90.063696 199.460083 
L 90.063696 62.604 
" clip-path="url(#p97bd43246d)" style="fill: none; stroke: #0000ff"/>
    <path d="M 94.592391 198.965171 
L 94.592391 74.183122 
" clip-path="url(#p97bd43246d)" style="fill: none; stroke: #0000ff"/>
    <path d="M 103.649783 240.236114 
L 103.649783 172.814379 
" clip-path="url(#p97bd43246d)" style="fill: none; stroke: #0000ff"/>
    <path d="M 117.23587 288.057529 
L 117.23587 235.730398 
" clip-path="url(#p97bd43246d)" style="fill: none; stroke: #0000ff"/>
    <path d="M 130.821957 314.244584 
L 130.821957 280.028503 
" clip-path="url(#p97bd43246d)" style="fill: none; stroke: #0000ff"/>
    <path d="M 157.99413 332.902057 
L 157.99413 311.768789 
" clip-path="url(#p97bd43246d)" style="fill: none; stroke: #0000ff"/>
    <path d="M 185.166304 336.466987 
L 185.166304 321.370736 
" clip-path="url(#p97bd43246d)" style="fill: none; stroke: #0000ff"/>
    <path d="M 239.510652 347.11439 
L 239.510652 336.046663 
" clip-path="url(#p97bd43246d)" style="fill: none; stroke: #0000ff"/>
    <path d="M 293.855 344.684336 
L 293.855 337.640188 
" clip-path="url(#p97bd43246d)" style="fill: none; stroke: #0000ff"/>
    <path d="M 348.199348 347.284992 
L 348.199348 339.232889 
" clip-path="url(#p97bd43246d)" style="fill: none; stroke: #0000ff"/>
    <path d="M 402.543696 348.374128 
L 402.543696 339.31819 
" clip-path="url(#p97bd43246d)" style="fill: none; stroke: #0000ff"/>
   </g>
   <g id="LineCollection_2">
    <path d="M 76.477609 345.354383 
L 76.477609 345.354383 
" clip-path="url(#p97bd43246d)" style="fill: none; stroke: #000000"/>
    <path d="M 78.741957 333.786387 
L 78.741957 282.46309 
" clip-path="url(#p97bd43246d)" style="fill: none; stroke: #000000"/>
    <path d="M 81.006304 270.89427 
L 81.006304 231.648303 
" clip-path="url(#p97bd43246d)" style="fill: none; stroke: #000000"/>
    <path d="M 85.535 244.737709 
L 85.535 163.226855 
" clip-path="url(#p97bd43246d)" style="fill: none; stroke: #000000"/>
    <path d="M 90.063696 230.152853 
L 90.063696 129.522169 
" clip-path="url(#p97bd43246d)" style="fill: none; stroke: #000000"/>
    <path d="M 94.592391 233.177955 
L 94.592391 135.56784 
" clip-path="url(#p97bd43246d)" style="fill: none; stroke: #000000"/>
    <path d="M 103.649783 264.892692 
L 103.649783 194.450389 
" clip-path="url(#p97bd43246d)" style="fill: none; stroke: #000000"/>
    <path d="M 117.23587 292.587146 
L 117.23587 253.339531 
" clip-path="url(#p97bd43246d)" style="fill: none; stroke: #000000"/>
    <path d="M 130.821957 312.229498 
L 130.821957 288.078958 
" clip-path="url(#p97bd43246d)" style="fill: none; stroke: #000000"/>
    <path d="M 157.99413 336.925636 
L 157.99413 311.768789 
" clip-path="url(#p97bd43246d)" style="fill: none; stroke: #000000"/>
    <path d="M 185.166304 340.488918 
L 185.166304 320.365254 
" clip-path="url(#p97bd43246d)" style="fill: none; stroke: #000000"/>
    <path d="M 239.510652 346.61206 
L 239.510652 335.542685 
" clip-path="url(#p97bd43246d)" style="fill: none; stroke: #000000"/>
    <path d="M 293.855 348.205174 
L 293.855 337.137447 
" clip-path="url(#p97bd43246d)" style="fill: none; stroke: #000000"/>
    <path d="M 348.199348 348.792804 
L 348.199348 338.73056 
" clip-path="url(#p97bd43246d)" style="fill: none; stroke: #000000"/>
    <path d="M 402.543696 348.878929 
L 402.543696 338.814213 
" clip-path="url(#p97bd43246d)" style="fill: none; stroke: #000000"/>
   </g>
   <g id="LineCollection_3">
    <path d="M 76.477609 349.884 
L 76.477609 340.82559 
" clip-path="url(#p97bd43246d)" style="fill: none; stroke: #ff0000"/>
    <path d="M 78.741957 343.845335 
L 78.741957 287.494624 
" clip-path="url(#p97bd43246d)" style="fill: none; stroke: #ff0000"/>
    <path d="M 81.006304 321.21126 
L 81.006304 231.648303 
" clip-path="url(#p97bd43246d)" style="fill: none; stroke: #ff0000"/>
    <path d="M 85.535 298.074032 
L 85.535 203.478717 
" clip-path="url(#p97bd43246d)" style="fill: none; stroke: #ff0000"/>
    <path d="M 90.063696 276.94571 
L 90.063696 198.4546 
" clip-path="url(#p97bd43246d)" style="fill: none; stroke: #ff0000"/>
    <path d="M 94.592391 274.438596 
L 94.592391 196.951321 
" clip-path="url(#p97bd43246d)" style="fill: none; stroke: #ff0000"/>
    <path d="M 103.649783 281.496343 
L 103.649783 222.123415 
" clip-path="url(#p97bd43246d)" style="fill: none; stroke: #ff0000"/>
    <path d="M 117.23587 302.649803 
L 117.23587 261.390398 
" clip-path="url(#p97bd43246d)" style="fill: none; stroke: #ff0000"/>
    <path d="M 130.821957 321.285847 
L 130.821957 291.09829 
" clip-path="url(#p97bd43246d)" style="fill: none; stroke: #ff0000"/>
    <path d="M 157.99413 336.42207 
L 157.99413 313.279486 
" clip-path="url(#p97bd43246d)" style="fill: none; stroke: #ff0000"/>
    <path d="M 185.166304 339.990298 
L 185.166304 321.873478 
" clip-path="url(#p97bd43246d)" style="fill: none; stroke: #ff0000"/>
    <path d="M 239.510652 347.115626 
L 239.510652 337.052558 
" clip-path="url(#p97bd43246d)" style="fill: none; stroke: #ff0000"/>
    <path d="M 293.855 348.205586 
L 293.855 338.142517 
" clip-path="url(#p97bd43246d)" style="fill: none; stroke: #ff0000"/>
    <path d="M 348.199348 348.792804 
L 348.199348 338.729736 
" clip-path="url(#p97bd43246d)" style="fill: none; stroke: #ff0000"/>
    <path d="M 402.543696 348.877281 
L 402.543696 339.820519 
" clip-path="url(#p97bd43246d)" style="fill: none; stroke: #ff0000"/>
   </g>
   <g id="line2d_13">
    <path d="M 76.477609 345.841053 
L 76.817261 343.862848 
L 77.496565 331.235592 
L 80.893087 253.303567 
L 82.251696 229.867267 
L 83.610304 210.970056 
L 84.629261 199.401245 
L 85.648217 189.793263 
L 86.667174 181.926606 
L 87.68613 175.60377 
L 88.705087 170.647426 
L 89.724043 166.898495 
L 90.743 164.214356 
L 91.422304 162.952801 
L 92.101609 162.072889 
L 92.780913 161.542552 
L 93.460217 161.332009 
L 94.139522 161.413607 
L 94.818826 161.761678 
L 95.49813 162.352404 
L 96.517087 163.64558 
L 97.536043 165.367474 
L 98.894652 168.226437 
L 100.253261 171.614784 
L 101.951522 176.432025 
L 104.329087 183.954625 
L 107.725609 195.614121 
L 117.23587 228.782796 
L 120.972043 240.794846 
L 124.368565 250.945777 
L 127.425435 259.414556 
L 130.482304 267.246428 
L 133.539174 274.455053 
L 136.596043 281.0655 
L 139.652913 287.109753 
L 142.709783 292.623555 
L 145.766652 297.644217 
L 148.823522 302.209136 
L 151.880391 306.354799 
L 154.937261 310.116154 
L 157.99413 313.526233 
L 161.051 316.615948 
L 164.10787 319.414011 
L 167.504391 322.213089 
L 170.900913 324.718082 
L 174.297435 326.959188 
L 178.033609 329.152122 
L 181.769783 331.091349 
L 185.845609 332.951554 
L 190.261087 334.703564 
L 194.676565 336.217817 
L 199.431696 337.61941 
L 204.526478 338.89559 
L 210.300565 340.104307 
L 216.414304 341.155753 
L 223.207348 342.099664 
L 231.019348 342.952586 
L 239.850304 343.685089 
L 250.03987 344.302649 
L 262.267348 344.814969 
L 277.551696 345.222578 
L 297.591174 345.52259 
L 326.801261 345.720027 
L 379.787 345.820127 
L 416.129783 345.834774 
L 416.129783 345.834774 
" clip-path="url(#p97bd43246d)" style="fill: none; stroke: #0000ff; stroke-width: 2; stroke-linecap: square"/>
   </g>
   <g id="line2d_14">
    <path d="M 76.477609 345.841053 
L 78.741957 280.954454 
L 81.006304 222.0888 
L 85.535 146.119639 
L 90.063696 131.032041 
L 94.592391 136.574146 
L 103.649783 206.525247 
L 117.23587 261.893964 
L 130.821957 297.136544 
L 157.99413 322.335423 
L 185.166304 328.918862 
L 239.510652 341.580526 
L 293.855 341.162262 
L 348.199348 343.258941 
L 402.543696 343.846159 
" clip-path="url(#p97bd43246d)" style="fill: none; stroke-dasharray: 3.7,1.6; stroke-dashoffset: 0; stroke: #0000ff"/>
    <defs>
     <path id="mbda2331afa" d="M -3 3 
L 3 3 
L 3 -3 
L -3 -3 
z
" style="stroke: #000000; stroke-linejoin: miter"/>
    </defs>
    <g clip-path="url(#p97bd43246d)">
     <use xlink:href="#mbda2331afa" x="76.477609" y="345.841053" style="fill: #0000ff; stroke: #000000; stroke-linejoin: miter"/>
     <use xlink:href="#mbda2331afa" x="78.741957" y="280.954454" style="fill: #0000ff; stroke: #000000; stroke-linejoin: miter"/>
     <use xlink:href="#mbda2331afa" x="81.006304" y="222.0888" style="fill: #0000ff; stroke: #000000; stroke-linejoin: miter"/>
     <use xlink:href="#mbda2331afa" x="85.535" y="146.119639" style="fill: #0000ff; stroke: #000000; stroke-linejoin: miter"/>
     <use xlink:href="#mbda2331afa" x="90.063696" y="131.032041" style="fill: #0000ff; stroke: #000000; stroke-linejoin: miter"/>
     <use xlink:href="#mbda2331afa" x="94.592391" y="136.574146" style="fill: #0000ff; stroke: #000000; stroke-linejoin: miter"/>
     <use xlink:href="#mbda2331afa" x="103.649783" y="206.525247" style="fill: #0000ff; stroke: #000000; stroke-linejoin: miter"/>
     <use xlink:href="#mbda2331afa" x="117.23587" y="261.893964" style="fill: #0000ff; stroke: #000000; stroke-linejoin: miter"/>
     <use xlink:href="#mbda2331afa" x="130.821957" y="297.136544" style="fill: #0000ff; stroke: #000000; stroke-linejoin: miter"/>
     <use xlink:href="#mbda2331afa" x="157.99413" y="322.335423" style="fill: #0000ff; stroke: #000000; stroke-linejoin: miter"/>
     <use xlink:href="#mbda2331afa" x="185.166304" y="328.918862" style="fill: #0000ff; stroke: #000000; stroke-linejoin: miter"/>
     <use xlink:href="#mbda2331afa" x="239.510652" y="341.580526" style="fill: #0000ff; stroke: #000000; stroke-linejoin: miter"/>
     <use xlink:href="#mbda2331afa" x="293.855" y="341.162262" style="fill: #0000ff; stroke: #000000; stroke-linejoin: miter"/>
     <use xlink:href="#mbda2331afa" x="348.199348" y="343.258941" style="fill: #0000ff; stroke: #000000; stroke-linejoin: miter"/>
     <use xlink:href="#mbda2331afa" x="402.543696" y="343.846159" style="fill: #0000ff; stroke: #000000; stroke-linejoin: miter"/>
    </g>
   </g>
   <g id="line2d_15">
    <path d="M 76.477609 345.841053 
L 76.817261 344.576061 
L 77.496565 336.389112 
L 80.213783 295.897854 
L 81.572391 279.804832 
L 82.931 266.722129 
L 84.289609 256.259553 
L 85.308565 249.906981 
L 86.327522 244.677894 
L 87.346478 240.445792 
L 88.365435 237.097017 
L 89.384391 234.529546 
L 90.403348 232.651852 
L 91.422304 231.381867 
L 92.101609 230.836178 
L 92.780913 230.507866 
L 93.460217 230.378472 
L 94.139522 230.430852 
L 94.818826 230.64909 
L 95.837783 231.255401 
L 96.856739 232.156443 
L 98.215348 233.746764 
L 99.573957 235.705001 
L 101.272217 238.560913 
L 103.31013 242.43264 
L 106.027348 248.085193 
L 111.461783 260.058423 
L 116.556565 271.093535 
L 120.292739 278.699803 
L 123.689261 285.146548 
L 127.085783 291.109987 
L 130.142652 296.057277 
L 133.199522 300.614027 
L 136.256391 304.79502 
L 139.313261 308.619685 
L 142.37013 312.11003 
L 145.427 315.289219 
L 148.823522 318.48508 
L 152.220043 321.356858 
L 155.616565 323.934398 
L 159.013087 326.245714 
L 162.749261 328.511634 
L 166.485435 330.518509 
L 170.561261 332.446002 
L 174.637087 334.132617 
L 179.052565 335.722161 
L 183.807696 337.194369 
L 188.902478 338.535503 
L 194.336913 339.737996 
L 200.450652 340.856179 
L 207.243696 341.860212 
L 214.716043 342.732832 
L 223.207348 343.494755 
L 233.057261 344.147866 
L 244.605435 344.686023 
L 258.870826 345.120954 
L 277.551696 345.453194 
L 303.704913 345.677948 
L 347.520043 345.802841 
L 416.129783 345.837115 
L 416.129783 345.837115 
" clip-path="url(#p97bd43246d)" style="fill: none; stroke: #000000; stroke-width: 2; stroke-linecap: square"/>
   </g>
   <g id="line2d_16">
    <path d="M 76.477609 345.354383 
L 78.741957 308.124738 
L 81.006304 251.271286 
L 85.535 203.982282 
L 90.063696 179.837511 
L 94.592391 184.372897 
L 103.649783 229.67154 
L 117.23587 272.963339 
L 130.821957 300.154228 
L 157.99413 324.347212 
L 185.166304 330.427086 
L 239.510652 341.077373 
L 293.855 342.67131 
L 348.199348 343.761682 
L 402.543696 343.846571 
" clip-path="url(#p97bd43246d)" style="fill: none; stroke-dasharray: 3.7,1.6; stroke-dashoffset: 0; stroke: #000000"/>
    <defs>
     <path id="mac19baee15" d="M -3 3 
L 3 3 
L 3 -3 
L -3 -3 
z
" style="stroke: #000000; stroke-linejoin: miter"/>
    </defs>
    <g clip-path="url(#p97bd43246d)">
     <use xlink:href="#mac19baee15" x="76.477609" y="345.354383" style="stroke: #000000; stroke-linejoin: miter"/>
     <use xlink:href="#mac19baee15" x="78.741957" y="308.124738" style="stroke: #000000; stroke-linejoin: miter"/>
     <use xlink:href="#mac19baee15" x="81.006304" y="251.271286" style="stroke: #000000; stroke-linejoin: miter"/>
     <use xlink:href="#mac19baee15" x="85.535" y="203.982282" style="stroke: #000000; stroke-linejoin: miter"/>
     <use xlink:href="#mac19baee15" x="90.063696" y="179.837511" style="stroke: #000000; stroke-linejoin: miter"/>
     <use xlink:href="#mac19baee15" x="94.592391" y="184.372897" style="stroke: #000000; stroke-linejoin: miter"/>
     <use xlink:href="#mac19baee15" x="103.649783" y="229.67154" style="stroke: #000000; stroke-linejoin: miter"/>
     <use xlink:href="#mac19baee15" x="117.23587" y="272.963339" style="stroke: #000000; stroke-linejoin: miter"/>
     <use xlink:href="#mac19baee15" x="130.821957" y="300.154228" style="stroke: #000000; stroke-linejoin: miter"/>
     <use xlink:href="#mac19baee15" x="157.99413" y="324.347212" style="stroke: #000000; stroke-linejoin: miter"/>
     <use xlink:href="#mac19baee15" x="185.166304" y="330.427086" style="stroke: #000000; stroke-linejoin: miter"/>
     <use xlink:href="#mac19baee15" x="239.510652" y="341.077373" style="stroke: #000000; stroke-linejoin: miter"/>
     <use xlink:href="#mac19baee15" x="293.855" y="342.67131" style="stroke: #000000; stroke-linejoin: miter"/>
     <use xlink:href="#mac19baee15" x="348.199348" y="343.761682" style="stroke: #000000; stroke-linejoin: miter"/>
     <use xlink:href="#mac19baee15" x="402.543696" y="343.846571" style="stroke: #000000; stroke-linejoin: miter"/>
    </g>
   </g>
   <g id="line2d_17">
    <path d="M 76.477609 345.841053 
L 76.817261 345.135249 
L 77.156913 343.128781 
L 78.17587 334.427582 
L 79.534478 322.933691 
L 80.893087 313.351567 
L 82.251696 305.559202 
L 83.610304 299.290574 
L 84.968913 294.321471 
L 85.98787 291.332679 
L 87.006826 288.898256 
L 88.025783 286.95566 
L 89.044739 285.448742 
L 90.063696 284.327082 
L 91.082652 283.545422 
L 92.101609 283.06315 
L 93.120565 282.843845 
L 94.139522 282.854858 
L 95.158478 283.066943 
L 96.517087 283.617648 
L 97.875696 284.425016 
L 99.573957 285.724242 
L 101.61187 287.608323 
L 103.989435 290.119928 
L 107.385957 294.048696 
L 118.594478 307.256856 
L 122.670304 311.596299 
L 126.406478 315.249961 
L 130.142652 318.581954 
L 133.878826 321.597423 
L 137.615 324.310979 
L 141.351174 326.742465 
L 145.087348 328.914181 
L 149.163174 331.014066 
L 153.239 332.861389 
L 157.654478 334.609693 
L 162.409609 336.234379 
L 167.164739 337.626845 
L 172.259522 338.897494 
L 178.033609 340.103023 
L 184.147348 341.153042 
L 190.940391 342.096538 
L 198.752391 342.949648 
L 207.583348 343.68264 
L 217.772913 344.30079 
L 230.000391 344.813686 
L 245.284739 345.221792 
L 265.324217 345.522182 
L 294.534304 345.719871 
L 347.180391 345.819863 
L 416.129783 345.838894 
L 416.129783 345.838894 
" clip-path="url(#p97bd43246d)" style="fill: none; stroke: #ff0000; stroke-width: 2; stroke-linecap: square"/>
   </g>
   <g id="line2d_18">
    <path d="M 76.477609 345.354795 
L 78.741957 315.669979 
L 81.006304 276.429782 
L 85.535 250.776375 
L 90.063696 237.700155 
L 94.592391 235.694959 
L 103.649783 251.809879 
L 117.23587 282.0201 
L 130.821957 306.192069 
L 157.99413 324.850778 
L 185.166304 330.931888 
L 239.510652 342.084092 
L 293.855 343.174051 
L 348.199348 343.76127 
L 402.543696 344.3489 
" clip-path="url(#p97bd43246d)" style="fill: none; stroke-dasharray: 3.7,1.6; stroke-dashoffset: 0; stroke: #ff0000"/>
    <defs>
     <path id="mc603f65fe8" d="M -3 3 
L 3 3 
L 3 -3 
L -3 -3 
z
" style="stroke: #000000; stroke-linejoin: miter"/>
    </defs>
    <g clip-path="url(#p97bd43246d)">
     <use xlink:href="#mc603f65fe8" x="76.477609" y="345.354795" style="fill: #ff0000; stroke: #000000; stroke-linejoin: miter"/>
     <use xlink:href="#mc603f65fe8" x="78.741957" y="315.669979" style="fill: #ff0000; stroke: #000000; stroke-linejoin: miter"/>
     <use xlink:href="#mc603f65fe8" x="81.006304" y="276.429782" style="fill: #ff0000; stroke: #000000; stroke-linejoin: miter"/>
     <use xlink:href="#mc603f65fe8" x="85.535" y="250.776375" style="fill: #ff0000; stroke: #000000; stroke-linejoin: miter"/>
     <use xlink:href="#mc603f65fe8" x="90.063696" y="237.700155" style="fill: #ff0000; stroke: #000000; stroke-linejoin: miter"/>
     <use xlink:href="#mc603f65fe8" x="94.592391" y="235.694959" style="fill: #ff0000; stroke: #000000; stroke-linejoin: miter"/>
     <use xlink:href="#mc603f65fe8" x="103.649783" y="251.809879" style="fill: #ff0000; stroke: #000000; stroke-linejoin: miter"/>
     <use xlink:href="#mc603f65fe8" x="117.23587" y="282.0201" style="fill: #ff0000; stroke: #000000; stroke-linejoin: miter"/>
     <use xlink:href="#mc603f65fe8" x="130.821957" y="306.192069" style="fill: #ff0000; stroke: #000000; stroke-linejoin: miter"/>
     <use xlink:href="#mc603f65fe8" x="157.99413" y="324.850778" style="fill: #ff0000; stroke: #000000; stroke-linejoin: miter"/>
     <use xlink:href="#mc603f65fe8" x="185.166304" y="330.931888" style="fill: #ff0000; stroke: #000000; stroke-linejoin: miter"/>
     <use xlink:href="#mc603f65fe8" x="239.510652" y="342.084092" style="fill: #ff0000; stroke: #000000; stroke-linejoin: miter"/>
     <use xlink:href="#mc603f65fe8" x="293.855" y="343.174051" style="fill: #ff0000; stroke: #000000; stroke-linejoin: miter"/>
     <use xlink:href="#mc603f65fe8" x="348.199348" y="343.76127" style="fill: #ff0000; stroke: #000000; stroke-linejoin: miter"/>
     <use xlink:href="#mc603f65fe8" x="402.543696" y="344.3489" style="fill: #ff0000; stroke: #000000; stroke-linejoin: miter"/>
    </g>
   </g>
   <g id="patch_3">
    <path d="M 59.495 364.248 
L 59.495 48.24 
" style="fill: none; stroke: #000000; stroke-width: 0.8; stroke-linejoin: miter; stroke-linecap: square"/>
   </g>
   <g id="patch_4">
    <path d="M 433.112391 364.248 
L 433.112391 48.24 
" style="fill: none; stroke: #000000; stroke-width: 0.8; stroke-linejoin: miter; stroke-linecap: square"/>
   </g>
   <g id="patch_5">
    <path d="M 59.495 364.248 
L 433.112391 364.248 
" style="fill: none; stroke: #000000; stroke-width: 0.8; stroke-linejoin: miter; stroke-linecap: square"/>
   </g>
   <g id="patch_6">
    <path d="M 59.495 48.24 
L 433.112391 48.24 
" style="fill: none; stroke: #000000; stroke-width: 0.8; stroke-linejoin: miter; stroke-linecap: square"/>
   </g>
   <g id="legend_1">
    <g id="patch_7">
     <path d="M 145.219266 173.129375 
L 424.012391 173.129375 
Q 426.612391 173.129375 426.612391 170.529375 
L 426.612391 57.34 
Q 426.612391 54.74 424.012391 54.74 
L 145.219266 54.74 
Q 142.619266 54.74 142.619266 57.34 
L 142.619266 170.529375 
Q 142.619266 173.129375 145.219266 173.129375 
z
" style="fill: #ffffff; opacity: 0.8; stroke: #cccccc; stroke-linejoin: miter"/>
    </g>
    <g id="line2d_19">
     <path d="M 147.819266 65.267969 
L 173.819266 65.267969 
" style="fill: none; stroke: #0000ff; stroke-width: 2; stroke-linecap: square"/>
    </g>
    <g id="line2d_20"/>
    <g id="text_15">
     <!-- sim low: 10mg PO -->
     <g transform="translate(184.219266 69.817969) scale(0.13 -0.13)">
      <defs>
       <path id="DejaVuSans-73" d="M 2834 3397 
L 2834 2853 
Q 2591 2978 2328 3040 
Q 2066 3103 1784 3103 
Q 1356 3103 1142 2972 
Q 928 2841 928 2578 
Q 928 2378 1081 2264 
Q 1234 2150 1697 2047 
L 1894 2003 
Q 2506 1872 2764 1633 
Q 3022 1394 3022 966 
Q 3022 478 2636 193 
Q 2250 -91 1575 -91 
Q 1294 -91 989 -36 
Q 684 19 347 128 
L 347 722 
Q 666 556 975 473 
Q 1284 391 1588 391 
Q 1994 391 2212 530 
Q 2431 669 2431 922 
Q 2431 1156 2273 1281 
Q 2116 1406 1581 1522 
L 1381 1569 
Q 847 1681 609 1914 
Q 372 2147 372 2553 
Q 372 3047 722 3315 
Q 1072 3584 1716 3584 
Q 2034 3584 2315 3537 
Q 2597 3491 2834 3397 
z
" transform="scale(0.015625)"/>
       <path id="DejaVuSans-69" d="M 603 3500 
L 1178 3500 
L 1178 0 
L 603 0 
L 603 3500 
z
M 603 4863 
L 1178 4863 
L 1178 4134 
L 603 4134 
L 603 4863 
z
" transform="scale(0.015625)"/>
       <path id="DejaVuSans-6d" d="M 3328 2828 
Q 3544 3216 3844 3400 
Q 4144 3584 4550 3584 
Q 5097 3584 5394 3201 
Q 5691 2819 5691 2113 
L 5691 0 
L 5113 0 
L 5113 2094 
Q 5113 2597 4934 2840 
Q 4756 3084 4391 3084 
Q 3944 3084 3684 2787 
Q 3425 2491 3425 1978 
L 3425 0 
L 2847 0 
L 2847 2094 
Q 2847 2600 2669 2842 
Q 2491 3084 2119 3084 
Q 1678 3084 1418 2786 
Q 1159 2488 1159 1978 
L 1159 0 
L 581 0 
L 581 3500 
L 1159 3500 
L 1159 2956 
Q 1356 3278 1631 3431 
Q 1906 3584 2284 3584 
Q 2666 3584 2933 3390 
Q 3200 3197 3328 2828 
z
" transform="scale(0.015625)"/>
       <path id="DejaVuSans-20" transform="scale(0.015625)"/>
       <path id="DejaVuSans-6c" d="M 603 4863 
L 1178 4863 
L 1178 0 
L 603 0 
L 603 4863 
z
" transform="scale(0.015625)"/>
       <path id="DejaVuSans-6f" d="M 1959 3097 
Q 1497 3097 1228 2736 
Q 959 2375 959 1747 
Q 959 1119 1226 758 
Q 1494 397 1959 397 
Q 2419 397 2687 759 
Q 2956 1122 2956 1747 
Q 2956 2369 2687 2733 
Q 2419 3097 1959 3097 
z
M 1959 3584 
Q 2709 3584 3137 3096 
Q 3566 2609 3566 1747 
Q 3566 888 3137 398 
Q 2709 -91 1959 -91 
Q 1206 -91 779 398 
Q 353 888 353 1747 
Q 353 2609 779 3096 
Q 1206 3584 1959 3584 
z
" transform="scale(0.015625)"/>
       <path id="DejaVuSans-77" d="M 269 3500 
L 844 3500 
L 1563 769 
L 2278 3500 
L 2956 3500 
L 3675 769 
L 4391 3500 
L 4966 3500 
L 4050 0 
L 3372 0 
L 2619 2869 
L 1863 0 
L 1184 0 
L 269 3500 
z
" transform="scale(0.015625)"/>
       <path id="DejaVuSans-3a" d="M 750 794 
L 1409 794 
L 1409 0 
L 750 0 
L 750 794 
z
M 750 3309 
L 1409 3309 
L 1409 2516 
L 750 2516 
L 750 3309 
z
" transform="scale(0.015625)"/>
       <path id="DejaVuSans-67" d="M 2906 1791 
Q 2906 2416 2648 2759 
Q 2391 3103 1925 3103 
Q 1463 3103 1205 2759 
Q 947 2416 947 1791 
Q 947 1169 1205 825 
Q 1463 481 1925 481 
Q 2391 481 2648 825 
Q 2906 1169 2906 1791 
z
M 3481 434 
Q 3481 -459 3084 -895 
Q 2688 -1331 1869 -1331 
Q 1566 -1331 1297 -1286 
Q 1028 -1241 775 -1147 
L 775 -588 
Q 1028 -725 1275 -790 
Q 1522 -856 1778 -856 
Q 2344 -856 2625 -561 
Q 2906 -266 2906 331 
L 2906 616 
Q 2728 306 2450 153 
Q 2172 0 1784 0 
Q 1141 0 747 490 
Q 353 981 353 1791 
Q 353 2603 747 3093 
Q 1141 3584 1784 3584 
Q 2172 3584 2450 3431 
Q 2728 3278 2906 2969 
L 2906 3500 
L 3481 3500 
L 3481 434 
z
" transform="scale(0.015625)"/>
       <path id="DejaVuSans-50" d="M 1259 4147 
L 1259 2394 
L 2053 2394 
Q 2494 2394 2734 2622 
Q 2975 2850 2975 3272 
Q 2975 3691 2734 3919 
Q 2494 4147 2053 4147 
L 1259 4147 
z
M 628 4666 
L 2053 4666 
Q 2838 4666 3239 4311 
Q 3641 3956 3641 3272 
Q 3641 2581 3239 2228 
Q 2838 1875 2053 1875 
L 1259 1875 
L 1259 0 
L 628 0 
L 628 4666 
z
" transform="scale(0.015625)"/>
       <path id="DejaVuSans-4f" d="M 2522 4238 
Q 1834 4238 1429 3725 
Q 1025 3213 1025 2328 
Q 1025 1447 1429 934 
Q 1834 422 2522 422 
Q 3209 422 3611 934 
Q 4013 1447 4013 2328 
Q 4013 3213 3611 3725 
Q 3209 4238 2522 4238 
z
M 2522 4750 
Q 3503 4750 4090 4092 
Q 4678 3434 4678 2328 
Q 4678 1225 4090 567 
Q 3503 -91 2522 -91 
Q 1538 -91 948 565 
Q 359 1222 359 2328 
Q 359 3434 948 4092 
Q 1538 4750 2522 4750 
z
" transform="scale(0.015625)"/>
      </defs>
      <use xlink:href="#DejaVuSans-73"/>
      <use xlink:href="#DejaVuSans-69" transform="translate(52.099609 0)"/>
      <use xlink:href="#DejaVuSans-6d" transform="translate(79.882812 0)"/>
      <use xlink:href="#DejaVuSans-20" transform="translate(177.294922 0)"/>
      <use xlink:href="#DejaVuSans-6c" transform="translate(209.082031 0)"/>
      <use xlink:href="#DejaVuSans-6f" transform="translate(236.865234 0)"/>
      <use xlink:href="#DejaVuSans-77" transform="translate(298.046875 0)"/>
      <use xlink:href="#DejaVuSans-3a" transform="translate(374.333984 0)"/>
      <use xlink:href="#DejaVuSans-20" transform="translate(408.025391 0)"/>
      <use xlink:href="#DejaVuSans-31" transform="translate(439.8125 0)"/>
      <use xlink:href="#DejaVuSans-30" transform="translate(503.435547 0)"/>
      <use xlink:href="#DejaVuSans-6d" transform="translate(567.058594 0)"/>
      <use xlink:href="#DejaVuSans-67" transform="translate(664.470703 0)"/>
      <use xlink:href="#DejaVuSans-20" transform="translate(727.947266 0)"/>
      <use xlink:href="#DejaVuSans-50" transform="translate(759.734375 0)"/>
      <use xlink:href="#DejaVuSans-4f" transform="translate(820.037109 0)"/>
     </g>
    </g>
    <g id="LineCollection_4">
     <path d="M 160.819266 90.849531 
L 160.819266 77.849531 
" style="fill: none; stroke: #0000ff"/>
    </g>
    <g id="line2d_21">
     <path d="M 147.819266 84.349531 
L 173.819266 84.349531 
" style="fill: none; stroke-dasharray: 3.7,1.6; stroke-dashoffset: 0; stroke: #0000ff"/>
    </g>
    <g id="line2d_22">
     <g>
      <use xlink:href="#mbda2331afa" x="160.819266" y="84.349531" style="fill: #0000ff; stroke: #000000; stroke-linejoin: miter"/>
     </g>
    </g>
    <g id="text_16">
     <!-- exp low: 10mg PO±SD (n=18) -->
     <g transform="translate(184.219266 88.899531) scale(0.13 -0.13)">
      <defs>
       <path id="DejaVuSans-65" d="M 3597 1894 
L 3597 1613 
L 953 1613 
Q 991 1019 1311 708 
Q 1631 397 2203 397 
Q 2534 397 2845 478 
Q 3156 559 3463 722 
L 3463 178 
Q 3153 47 2828 -22 
Q 2503 -91 2169 -91 
Q 1331 -91 842 396 
Q 353 884 353 1716 
Q 353 2575 817 3079 
Q 1281 3584 2069 3584 
Q 2775 3584 3186 3129 
Q 3597 2675 3597 1894 
z
M 3022 2063 
Q 3016 2534 2758 2815 
Q 2500 3097 2075 3097 
Q 1594 3097 1305 2825 
Q 1016 2553 972 2059 
L 3022 2063 
z
" transform="scale(0.015625)"/>
       <path id="DejaVuSans-78" d="M 3513 3500 
L 2247 1797 
L 3578 0 
L 2900 0 
L 1881 1375 
L 863 0 
L 184 0 
L 1544 1831 
L 300 3500 
L 978 3500 
L 1906 2253 
L 2834 3500 
L 3513 3500 
z
" transform="scale(0.015625)"/>
       <path id="DejaVuSans-70" d="M 1159 525 
L 1159 -1331 
L 581 -1331 
L 581 3500 
L 1159 3500 
L 1159 2969 
Q 1341 3281 1617 3432 
Q 1894 3584 2278 3584 
Q 2916 3584 3314 3078 
Q 3713 2572 3713 1747 
Q 3713 922 3314 415 
Q 2916 -91 2278 -91 
Q 1894 -91 1617 61 
Q 1341 213 1159 525 
z
M 3116 1747 
Q 3116 2381 2855 2742 
Q 2594 3103 2138 3103 
Q 1681 3103 1420 2742 
Q 1159 2381 1159 1747 
Q 1159 1113 1420 752 
Q 1681 391 2138 391 
Q 2594 391 2855 752 
Q 3116 1113 3116 1747 
z
" transform="scale(0.015625)"/>
       <path id="DejaVuSans-b1" d="M 2944 4013 
L 2944 2803 
L 4684 2803 
L 4684 2272 
L 2944 2272 
L 2944 1063 
L 2419 1063 
L 2419 2272 
L 678 2272 
L 678 2803 
L 2419 2803 
L 2419 4013 
L 2944 4013 
z
M 678 531 
L 4684 531 
L 4684 0 
L 678 0 
L 678 531 
z
" transform="scale(0.015625)"/>
       <path id="DejaVuSans-53" d="M 3425 4513 
L 3425 3897 
Q 3066 4069 2747 4153 
Q 2428 4238 2131 4238 
Q 1616 4238 1336 4038 
Q 1056 3838 1056 3469 
Q 1056 3159 1242 3001 
Q 1428 2844 1947 2747 
L 2328 2669 
Q 3034 2534 3370 2195 
Q 3706 1856 3706 1288 
Q 3706 609 3251 259 
Q 2797 -91 1919 -91 
Q 1588 -91 1214 -16 
Q 841 59 441 206 
L 441 856 
Q 825 641 1194 531 
Q 1563 422 1919 422 
Q 2459 422 2753 634 
Q 3047 847 3047 1241 
Q 3047 1584 2836 1778 
Q 2625 1972 2144 2069 
L 1759 2144 
Q 1053 2284 737 2584 
Q 422 2884 422 3419 
Q 422 4038 858 4394 
Q 1294 4750 2059 4750 
Q 2388 4750 2728 4690 
Q 3069 4631 3425 4513 
z
" transform="scale(0.015625)"/>
       <path id="DejaVuSans-44" d="M 1259 4147 
L 1259 519 
L 2022 519 
Q 2988 519 3436 956 
Q 3884 1394 3884 2338 
Q 3884 3275 3436 3711 
Q 2988 4147 2022 4147 
L 1259 4147 
z
M 628 4666 
L 1925 4666 
Q 3281 4666 3915 4102 
Q 4550 3538 4550 2338 
Q 4550 1131 3912 565 
Q 3275 0 1925 0 
L 628 0 
L 628 4666 
z
" transform="scale(0.015625)"/>
       <path id="DejaVuSans-28" d="M 1984 4856 
Q 1566 4138 1362 3434 
Q 1159 2731 1159 2009 
Q 1159 1288 1364 580 
Q 1569 -128 1984 -844 
L 1484 -844 
Q 1016 -109 783 600 
Q 550 1309 550 2009 
Q 550 2706 781 3412 
Q 1013 4119 1484 4856 
L 1984 4856 
z
" transform="scale(0.015625)"/>
       <path id="DejaVuSans-6e" d="M 3513 2113 
L 3513 0 
L 2938 0 
L 2938 2094 
Q 2938 2591 2744 2837 
Q 2550 3084 2163 3084 
Q 1697 3084 1428 2787 
Q 1159 2491 1159 1978 
L 1159 0 
L 581 0 
L 581 3500 
L 1159 3500 
L 1159 2956 
Q 1366 3272 1645 3428 
Q 1925 3584 2291 3584 
Q 2894 3584 3203 3211 
Q 3513 2838 3513 2113 
z
" transform="scale(0.015625)"/>
       <path id="DejaVuSans-3d" d="M 678 2906 
L 4684 2906 
L 4684 2381 
L 678 2381 
L 678 2906 
z
M 678 1631 
L 4684 1631 
L 4684 1100 
L 678 1100 
L 678 1631 
z
" transform="scale(0.015625)"/>
       <path id="DejaVuSans-38" d="M 2034 2216 
Q 1584 2216 1326 1975 
Q 1069 1734 1069 1313 
Q 1069 891 1326 650 
Q 1584 409 2034 409 
Q 2484 409 2743 651 
Q 3003 894 3003 1313 
Q 3003 1734 2745 1975 
Q 2488 2216 2034 2216 
z
M 1403 2484 
Q 997 2584 770 2862 
Q 544 3141 544 3541 
Q 544 4100 942 4425 
Q 1341 4750 2034 4750 
Q 2731 4750 3128 4425 
Q 3525 4100 3525 3541 
Q 3525 3141 3298 2862 
Q 3072 2584 2669 2484 
Q 3125 2378 3379 2068 
Q 3634 1759 3634 1313 
Q 3634 634 3220 271 
Q 2806 -91 2034 -91 
Q 1263 -91 848 271 
Q 434 634 434 1313 
Q 434 1759 690 2068 
Q 947 2378 1403 2484 
z
M 1172 3481 
Q 1172 3119 1398 2916 
Q 1625 2713 2034 2713 
Q 2441 2713 2670 2916 
Q 2900 3119 2900 3481 
Q 2900 3844 2670 4047 
Q 2441 4250 2034 4250 
Q 1625 4250 1398 4047 
Q 1172 3844 1172 3481 
z
" transform="scale(0.015625)"/>
       <path id="DejaVuSans-29" d="M 513 4856 
L 1013 4856 
Q 1481 4119 1714 3412 
Q 1947 2706 1947 2009 
Q 1947 1309 1714 600 
Q 1481 -109 1013 -844 
L 513 -844 
Q 928 -128 1133 580 
Q 1338 1288 1338 2009 
Q 1338 2731 1133 3434 
Q 928 4138 513 4856 
z
" transform="scale(0.015625)"/>
      </defs>
      <use xlink:href="#DejaVuSans-65"/>
      <use xlink:href="#DejaVuSans-78" transform="translate(59.773438 0)"/>
      <use xlink:href="#DejaVuSans-70" transform="translate(118.953125 0)"/>
      <use xlink:href="#DejaVuSans-20" transform="translate(182.429688 0)"/>
      <use xlink:href="#DejaVuSans-6c" transform="translate(214.216797 0)"/>
      <use xlink:href="#DejaVuSans-6f" transform="translate(242 0)"/>
      <use xlink:href="#DejaVuSans-77" transform="translate(303.181641 0)"/>
      <use xlink:href="#DejaVuSans-3a" transform="translate(379.46875 0)"/>
      <use xlink:href="#DejaVuSans-20" transform="translate(413.160156 0)"/>
      <use xlink:href="#DejaVuSans-31" transform="translate(444.947266 0)"/>
      <use xlink:href="#DejaVuSans-30" transform="translate(508.570312 0)"/>
      <use xlink:href="#DejaVuSans-6d" transform="translate(572.193359 0)"/>
      <use xlink:href="#DejaVuSans-67" transform="translate(669.605469 0)"/>
      <use xlink:href="#DejaVuSans-20" transform="translate(733.082031 0)"/>
      <use xlink:href="#DejaVuSans-50" transform="translate(764.869141 0)"/>
      <use xlink:href="#DejaVuSans-4f" transform="translate(825.171875 0)"/>
      <use xlink:href="#DejaVuSans-b1" transform="translate(903.882812 0)"/>
      <use xlink:href="#DejaVuSans-53" transform="translate(987.671875 0)"/>
      <use xlink:href="#DejaVuSans-44" transform="translate(1051.148438 0)"/>
      <use xlink:href="#DejaVuSans-20" transform="translate(1128.150391 0)"/>
      <use xlink:href="#DejaVuSans-28" transform="translate(1159.9375 0)"/>
      <use xlink:href="#DejaVuSans-6e" transform="translate(1198.951172 0)"/>
      <use xlink:href="#DejaVuSans-3d" transform="translate(1262.330078 0)"/>
      <use xlink:href="#DejaVuSans-31" transform="translate(1346.119141 0)"/>
      <use xlink:href="#DejaVuSans-38" transform="translate(1409.742188 0)"/>
      <use xlink:href="#DejaVuSans-29" transform="translate(1473.365234 0)"/>
     </g>
    </g>
    <g id="line2d_23">
     <path d="M 147.819266 103.431094 
L 173.819266 103.431094 
" style="fill: none; stroke: #000000; stroke-width: 2; stroke-linecap: square"/>
    </g>
    <g id="line2d_24"/>
    <g id="text_17">
     <!-- sim reference: 10mg PO -->
     <g transform="translate(184.219266 107.981094) scale(0.13 -0.13)">
      <defs>
       <path id="DejaVuSans-72" d="M 2631 2963 
Q 2534 3019 2420 3045 
Q 2306 3072 2169 3072 
Q 1681 3072 1420 2755 
Q 1159 2438 1159 1844 
L 1159 0 
L 581 0 
L 581 3500 
L 1159 3500 
L 1159 2956 
Q 1341 3275 1631 3429 
Q 1922 3584 2338 3584 
Q 2397 3584 2469 3576 
Q 2541 3569 2628 3553 
L 2631 2963 
z
" transform="scale(0.015625)"/>
       <path id="DejaVuSans-66" d="M 2375 4863 
L 2375 4384 
L 1825 4384 
Q 1516 4384 1395 4259 
Q 1275 4134 1275 3809 
L 1275 3500 
L 2222 3500 
L 2222 3053 
L 1275 3053 
L 1275 0 
L 697 0 
L 697 3053 
L 147 3053 
L 147 3500 
L 697 3500 
L 697 3744 
Q 697 4328 969 4595 
Q 1241 4863 1831 4863 
L 2375 4863 
z
" transform="scale(0.015625)"/>
       <path id="DejaVuSans-63" d="M 3122 3366 
L 3122 2828 
Q 2878 2963 2633 3030 
Q 2388 3097 2138 3097 
Q 1578 3097 1268 2742 
Q 959 2388 959 1747 
Q 959 1106 1268 751 
Q 1578 397 2138 397 
Q 2388 397 2633 464 
Q 2878 531 3122 666 
L 3122 134 
Q 2881 22 2623 -34 
Q 2366 -91 2075 -91 
Q 1284 -91 818 406 
Q 353 903 353 1747 
Q 353 2603 823 3093 
Q 1294 3584 2113 3584 
Q 2378 3584 2631 3529 
Q 2884 3475 3122 3366 
z
" transform="scale(0.015625)"/>
      </defs>
      <use xlink:href="#DejaVuSans-73"/>
      <use xlink:href="#DejaVuSans-69" transform="translate(52.099609 0)"/>
      <use xlink:href="#DejaVuSans-6d" transform="translate(79.882812 0)"/>
      <use xlink:href="#DejaVuSans-20" transform="translate(177.294922 0)"/>
      <use xlink:href="#DejaVuSans-72" transform="translate(209.082031 0)"/>
      <use xlink:href="#DejaVuSans-65" transform="translate(247.945312 0)"/>
      <use xlink:href="#DejaVuSans-66" transform="translate(309.46875 0)"/>
      <use xlink:href="#DejaVuSans-65" transform="translate(344.673828 0)"/>
      <use xlink:href="#DejaVuSans-72" transform="translate(406.197266 0)"/>
      <use xlink:href="#DejaVuSans-65" transform="translate(445.060547 0)"/>
      <use xlink:href="#DejaVuSans-6e" transform="translate(506.583984 0)"/>
      <use xlink:href="#DejaVuSans-63" transform="translate(569.962891 0)"/>
      <use xlink:href="#DejaVuSans-65" transform="translate(624.943359 0)"/>
      <use xlink:href="#DejaVuSans-3a" transform="translate(686.466797 0)"/>
      <use xlink:href="#DejaVuSans-20" transform="translate(720.158203 0)"/>
      <use xlink:href="#DejaVuSans-31" transform="translate(751.945312 0)"/>
      <use xlink:href="#DejaVuSans-30" transform="translate(815.568359 0)"/>
      <use xlink:href="#DejaVuSans-6d" transform="translate(879.191406 0)"/>
      <use xlink:href="#DejaVuSans-67" transform="translate(976.603516 0)"/>
      <use xlink:href="#DejaVuSans-20" transform="translate(1040.080078 0)"/>
      <use xlink:href="#DejaVuSans-50" transform="translate(1071.867188 0)"/>
      <use xlink:href="#DejaVuSans-4f" transform="translate(1132.169922 0)"/>
     </g>
    </g>
    <g id="LineCollection_5">
     <path d="M 160.819266 129.012656 
L 160.819266 116.012656 
" style="fill: none; stroke: #000000"/>
    </g>
    <g id="line2d_25">
     <path d="M 147.819266 122.512656 
L 173.819266 122.512656 
" style="fill: none; stroke-dasharray: 3.7,1.6; stroke-dashoffset: 0; stroke: #000000"/>
    </g>
    <g id="line2d_26">
     <g>
      <use xlink:href="#mac19baee15" x="160.819266" y="122.512656" style="stroke: #000000; stroke-linejoin: miter"/>
     </g>
    </g>
    <g id="text_18">
     <!-- exp reference: 10mg PO±SD (n=18) -->
     <g transform="translate(184.219266 127.062656) scale(0.13 -0.13)">
      <use xlink:href="#DejaVuSans-65"/>
      <use xlink:href="#DejaVuSans-78" transform="translate(59.773438 0)"/>
      <use xlink:href="#DejaVuSans-70" transform="translate(118.953125 0)"/>
      <use xlink:href="#DejaVuSans-20" transform="translate(182.429688 0)"/>
      <use xlink:href="#DejaVuSans-72" transform="translate(214.216797 0)"/>
      <use xlink:href="#DejaVuSans-65" transform="translate(253.080078 0)"/>
      <use xlink:href="#DejaVuSans-66" transform="translate(314.603516 0)"/>
      <use xlink:href="#DejaVuSans-65" transform="translate(349.808594 0)"/>
      <use xlink:href="#DejaVuSans-72" transform="translate(411.332031 0)"/>
      <use xlink:href="#DejaVuSans-65" transform="translate(450.195312 0)"/>
      <use xlink:href="#DejaVuSans-6e" transform="translate(511.71875 0)"/>
      <use xlink:href="#DejaVuSans-63" transform="translate(575.097656 0)"/>
      <use xlink:href="#DejaVuSans-65" transform="translate(630.078125 0)"/>
      <use xlink:href="#DejaVuSans-3a" transform="translate(691.601562 0)"/>
      <use xlink:href="#DejaVuSans-20" transform="translate(725.292969 0)"/>
      <use xlink:href="#DejaVuSans-31" transform="translate(757.080078 0)"/>
      <use xlink:href="#DejaVuSans-30" transform="translate(820.703125 0)"/>
      <use xlink:href="#DejaVuSans-6d" transform="translate(884.326172 0)"/>
      <use xlink:href="#DejaVuSans-67" transform="translate(981.738281 0)"/>
      <use xlink:href="#DejaVuSans-20" transform="translate(1045.214844 0)"/>
      <use xlink:href="#DejaVuSans-50" transform="translate(1077.001953 0)"/>
      <use xlink:href="#DejaVuSans-4f" transform="translate(1137.304688 0)"/>
      <use xlink:href="#DejaVuSans-b1" transform="translate(1216.015625 0)"/>
      <use xlink:href="#DejaVuSans-53" transform="translate(1299.804688 0)"/>
      <use xlink:href="#DejaVuSans-44" transform="translate(1363.28125 0)"/>
      <use xlink:href="#DejaVuSans-20" transform="translate(1440.283203 0)"/>
      <use xlink:href="#DejaVuSans-28" transform="translate(1472.070312 0)"/>
      <use xlink:href="#DejaVuSans-6e" transform="translate(1511.083984 0)"/>
      <use xlink:href="#DejaVuSans-3d" transform="translate(1574.462891 0)"/>
      <use xlink:href="#DejaVuSans-31" transform="translate(1658.251953 0)"/>
      <use xlink:href="#DejaVuSans-38" transform="translate(1721.875 0)"/>
      <use xlink:href="#DejaVuSans-29" transform="translate(1785.498047 0)"/>
     </g>
    </g>
    <g id="line2d_27">
     <path d="M 147.819266 141.594219 
L 173.819266 141.594219 
" style="fill: none; stroke: #ff0000; stroke-width: 2; stroke-linecap: square"/>
    </g>
    <g id="line2d_28"/>
    <g id="text_19">
     <!-- sim high: 10mg PO -->
     <g transform="translate(184.219266 146.144219) scale(0.13 -0.13)">
      <defs>
       <path id="DejaVuSans-68" d="M 3513 2113 
L 3513 0 
L 2938 0 
L 2938 2094 
Q 2938 2591 2744 2837 
Q 2550 3084 2163 3084 
Q 1697 3084 1428 2787 
Q 1159 2491 1159 1978 
L 1159 0 
L 581 0 
L 581 4863 
L 1159 4863 
L 1159 2956 
Q 1366 3272 1645 3428 
Q 1925 3584 2291 3584 
Q 2894 3584 3203 3211 
Q 3513 2838 3513 2113 
z
" transform="scale(0.015625)"/>
      </defs>
      <use xlink:href="#DejaVuSans-73"/>
      <use xlink:href="#DejaVuSans-69" transform="translate(52.099609 0)"/>
      <use xlink:href="#DejaVuSans-6d" transform="translate(79.882812 0)"/>
      <use xlink:href="#DejaVuSans-20" transform="translate(177.294922 0)"/>
      <use xlink:href="#DejaVuSans-68" transform="translate(209.082031 0)"/>
      <use xlink:href="#DejaVuSans-69" transform="translate(272.460938 0)"/>
      <use xlink:href="#DejaVuSans-67" transform="translate(300.244141 0)"/>
      <use xlink:href="#DejaVuSans-68" transform="translate(363.720703 0)"/>
      <use xlink:href="#DejaVuSans-3a" transform="translate(427.099609 0)"/>
      <use xlink:href="#DejaVuSans-20" transform="translate(460.791016 0)"/>
      <use xlink:href="#DejaVuSans-31" transform="translate(492.578125 0)"/>
      <use xlink:href="#DejaVuSans-30" transform="translate(556.201172 0)"/>
      <use xlink:href="#DejaVuSans-6d" transform="translate(619.824219 0)"/>
      <use xlink:href="#DejaVuSans-67" transform="translate(717.236328 0)"/>
      <use xlink:href="#DejaVuSans-20" transform="translate(780.712891 0)"/>
      <use xlink:href="#DejaVuSans-50" transform="translate(812.5 0)"/>
      <use xlink:href="#DejaVuSans-4f" transform="translate(872.802734 0)"/>
     </g>
    </g>
    <g id="LineCollection_6">
     <path d="M 160.819266 167.175781 
L 160.819266 154.175781 
" style="fill: none; stroke: #ff0000"/>
    </g>
    <g id="line2d_29">
     <path d="M 147.819266 160.675781 
L 173.819266 160.675781 
" style="fill: none; stroke-dasharray: 3.7,1.6; stroke-dashoffset: 0; stroke: #ff0000"/>
    </g>
    <g id="line2d_30">
     <g>
      <use xlink:href="#mc603f65fe8" x="160.819266" y="160.675781" style="fill: #ff0000; stroke: #000000; stroke-linejoin: miter"/>
     </g>
    </g>
    <g id="text_20">
     <!-- exp high: 10mg PO±SD (n=18) -->
     <g transform="translate(184.219266 165.225781) scale(0.13 -0.13)">
      <use xlink:href="#DejaVuSans-65"/>
      <use xlink:href="#DejaVuSans-78" transform="translate(59.773438 0)"/>
      <use xlink:href="#DejaVuSans-70" transform="translate(118.953125 0)"/>
      <use xlink:href="#DejaVuSans-20" transform="translate(182.429688 0)"/>
      <use xlink:href="#DejaVuSans-68" transform="translate(214.216797 0)"/>
      <use xlink:href="#DejaVuSans-69" transform="translate(277.595703 0)"/>
      <use xlink:href="#DejaVuSans-67" transform="translate(305.378906 0)"/>
      <use xlink:href="#DejaVuSans-68" transform="translate(368.855469 0)"/>
      <use xlink:href="#DejaVuSans-3a" transform="translate(432.234375 0)"/>
      <use xlink:href="#DejaVuSans-20" transform="translate(465.925781 0)"/>
      <use xlink:href="#DejaVuSans-31" transform="translate(497.712891 0)"/>
      <use xlink:href="#DejaVuSans-30" transform="translate(561.335938 0)"/>
      <use xlink:href="#DejaVuSans-6d" transform="translate(624.958984 0)"/>
      <use xlink:href="#DejaVuSans-67" transform="translate(722.371094 0)"/>
      <use xlink:href="#DejaVuSans-20" transform="translate(785.847656 0)"/>
      <use xlink:href="#DejaVuSans-50" transform="translate(817.634766 0)"/>
      <use xlink:href="#DejaVuSans-4f" transform="translate(877.9375 0)"/>
      <use xlink:href="#DejaVuSans-b1" transform="translate(956.648438 0)"/>
      <use xlink:href="#DejaVuSans-53" transform="translate(1040.4375 0)"/>
      <use xlink:href="#DejaVuSans-44" transform="translate(1103.914062 0)"/>
      <use xlink:href="#DejaVuSans-20" transform="translate(1180.916016 0)"/>
      <use xlink:href="#DejaVuSans-28" transform="translate(1212.703125 0)"/>
      <use xlink:href="#DejaVuSans-6e" transform="translate(1251.716797 0)"/>
      <use xlink:href="#DejaVuSans-3d" transform="translate(1315.095703 0)"/>
      <use xlink:href="#DejaVuSans-31" transform="translate(1398.884766 0)"/>
      <use xlink:href="#DejaVuSans-38" transform="translate(1462.507812 0)"/>
      <use xlink:href="#DejaVuSans-29" transform="translate(1526.130859 0)"/>
     </g>
    </g>
   </g>
  </g>
  <g id="axes_2">
   <g id="patch_8">
    <path d="M 545.197609 364.248 
L 918.815 364.248 
L 918.815 48.24 
L 545.197609 48.24 
z
" style="fill: #ffffff"/>
   </g>
   <g id="matplotlib.axis_3">
    <g id="xtick_5">
     <g id="line2d_31">
      <g>
       <use xlink:href="#m2dc30fb31c" x="562.180217" y="364.248" style="stroke: #000000; stroke-width: 0.8"/>
      </g>
     </g>
     <g id="text_21">
      <!-- 0 -->
      <g transform="translate(557.408342 382.645656) scale(0.15 -0.15)">
       <use xlink:href="#DejaVuSans-30"/>
      </g>
     </g>
    </g>
    <g id="xtick_6">
     <g id="line2d_32">
      <g>
       <use xlink:href="#m2dc30fb31c" x="652.75413" y="364.248" style="stroke: #000000; stroke-width: 0.8"/>
      </g>
     </g>
     <g id="text_22">
      <!-- 20 -->
      <g transform="translate(643.21038 382.645656) scale(0.15 -0.15)">
       <use xlink:href="#DejaVuSans-32"/>
       <use xlink:href="#DejaVuSans-30" transform="translate(63.623047 0)"/>
      </g>
     </g>
    </g>
    <g id="xtick_7">
     <g id="line2d_33">
      <g>
       <use xlink:href="#m2dc30fb31c" x="743.328043" y="364.248" style="stroke: #000000; stroke-width: 0.8"/>
      </g>
     </g>
     <g id="text_23">
      <!-- 40 -->
      <g transform="translate(733.784293 382.645656) scale(0.15 -0.15)">
       <use xlink:href="#DejaVuSans-34"/>
       <use xlink:href="#DejaVuSans-30" transform="translate(63.623047 0)"/>
      </g>
     </g>
    </g>
    <g id="xtick_8">
     <g id="line2d_34">
      <g>
       <use xlink:href="#m2dc30fb31c" x="833.901957" y="364.248" style="stroke: #000000; stroke-width: 0.8"/>
      </g>
     </g>
     <g id="text_24">
      <!-- 60 -->
      <g transform="translate(824.358207 382.645656) scale(0.15 -0.15)">
       <use xlink:href="#DejaVuSans-36"/>
       <use xlink:href="#DejaVuSans-30" transform="translate(63.623047 0)"/>
      </g>
     </g>
    </g>
    <g id="text_25">
     <!-- time [hr] -->
     <g transform="translate(686.931773 403.442375) scale(0.18 -0.18)">
      <use xlink:href="#DejaVuSans-Bold-74"/>
      <use xlink:href="#DejaVuSans-Bold-69" transform="translate(47.802734 0)"/>
      <use xlink:href="#DejaVuSans-Bold-6d" transform="translate(82.080078 0)"/>
      <use xlink:href="#DejaVuSans-Bold-65" transform="translate(186.279297 0)"/>
      <use xlink:href="#DejaVuSans-Bold-20" transform="translate(254.101562 0)"/>
      <use xlink:href="#DejaVuSans-Bold-5b" transform="translate(288.916016 0)"/>
      <use xlink:href="#DejaVuSans-Bold-68" transform="translate(334.619141 0)"/>
      <use xlink:href="#DejaVuSans-Bold-72" transform="translate(405.810547 0)"/>
      <use xlink:href="#DejaVuSans-Bold-5d" transform="translate(455.126953 0)"/>
     </g>
    </g>
   </g>
   <g id="matplotlib.axis_4">
    <g id="ytick_9">
     <g id="line2d_35">
      <g>
       <use xlink:href="#m64797b76da" x="545.197609" y="349.884" style="stroke: #000000; stroke-width: 0.8"/>
      </g>
     </g>
     <g id="text_26">
      <!-- 0 -->
      <g transform="translate(528.653859 355.582828) scale(0.15 -0.15)">
       <use xlink:href="#DejaVuSans-30"/>
      </g>
     </g>
    </g>
    <g id="ytick_10">
     <g id="line2d_36">
      <g>
       <use xlink:href="#m64797b76da" x="545.197609" y="302.576769" style="stroke: #000000; stroke-width: 0.8"/>
      </g>
     </g>
     <g id="text_27">
      <!-- 1 -->
      <g transform="translate(528.653859 308.275597) scale(0.15 -0.15)">
       <use xlink:href="#DejaVuSans-31"/>
      </g>
     </g>
    </g>
    <g id="ytick_11">
     <g id="line2d_37">
      <g>
       <use xlink:href="#m64797b76da" x="545.197609" y="255.269537" style="stroke: #000000; stroke-width: 0.8"/>
      </g>
     </g>
     <g id="text_28">
      <!-- 2 -->
      <g transform="translate(528.653859 260.968366) scale(0.15 -0.15)">
       <use xlink:href="#DejaVuSans-32"/>
      </g>
     </g>
    </g>
    <g id="ytick_12">
     <g id="line2d_38">
      <g>
       <use xlink:href="#m64797b76da" x="545.197609" y="207.962306" style="stroke: #000000; stroke-width: 0.8"/>
      </g>
     </g>
     <g id="text_29">
      <!-- 3 -->
      <g transform="translate(528.653859 213.661134) scale(0.15 -0.15)">
       <use xlink:href="#DejaVuSans-33"/>
      </g>
     </g>
    </g>
    <g id="ytick_13">
     <g id="line2d_39">
      <g>
       <use xlink:href="#m64797b76da" x="545.197609" y="160.655075" style="stroke: #000000; stroke-width: 0.8"/>
      </g>
     </g>
     <g id="text_30">
      <!-- 4 -->
      <g transform="translate(528.653859 166.353903) scale(0.15 -0.15)">
       <use xlink:href="#DejaVuSans-34"/>
      </g>
     </g>
    </g>
    <g id="ytick_14">
     <g id="line2d_40">
      <g>
       <use xlink:href="#m64797b76da" x="545.197609" y="113.347844" style="stroke: #000000; stroke-width: 0.8"/>
      </g>
     </g>
     <g id="text_31">
      <!-- 5 -->
      <g transform="translate(528.653859 119.046672) scale(0.15 -0.15)">
       <use xlink:href="#DejaVuSans-35"/>
      </g>
     </g>
    </g>
    <g id="ytick_15">
     <g id="line2d_41">
      <g>
       <use xlink:href="#m64797b76da" x="545.197609" y="66.040612" style="stroke: #000000; stroke-width: 0.8"/>
      </g>
     </g>
     <g id="text_32">
      <!-- 6 -->
      <g transform="translate(528.653859 71.73944) scale(0.15 -0.15)">
       <use xlink:href="#DejaVuSans-36"/>
      </g>
     </g>
    </g>
    <g id="text_33">
     <!-- apixaban urine [µmole] -->
     <g transform="translate(520.890734 324.954) rotate(-90) scale(0.18 -0.18)">
      <defs>
       <path id="DejaVuSans-Bold-75" d="M 500 1363 
L 500 3500 
L 1625 3500 
L 1625 3150 
Q 1625 2866 1622 2436 
Q 1619 2006 1619 1863 
Q 1619 1441 1641 1255 
Q 1663 1069 1716 984 
Q 1784 875 1895 815 
Q 2006 756 2150 756 
Q 2500 756 2700 1025 
Q 2900 1294 2900 1772 
L 2900 3500 
L 4019 3500 
L 4019 0 
L 2900 0 
L 2900 506 
Q 2647 200 2364 54 
Q 2081 -91 1741 -91 
Q 1134 -91 817 281 
Q 500 653 500 1363 
z
" transform="scale(0.015625)"/>
       <path id="DejaVuSans-Bold-6f" d="M 2203 2784 
Q 1831 2784 1636 2517 
Q 1441 2250 1441 1747 
Q 1441 1244 1636 976 
Q 1831 709 2203 709 
Q 2569 709 2762 976 
Q 2956 1244 2956 1747 
Q 2956 2250 2762 2517 
Q 2569 2784 2203 2784 
z
M 2203 3584 
Q 3106 3584 3614 3096 
Q 4122 2609 4122 1747 
Q 4122 884 3614 396 
Q 3106 -91 2203 -91 
Q 1297 -91 786 396 
Q 275 884 275 1747 
Q 275 2609 786 3096 
Q 1297 3584 2203 3584 
z
" transform="scale(0.015625)"/>
      </defs>
      <use xlink:href="#DejaVuSans-Bold-61"/>
      <use xlink:href="#DejaVuSans-Bold-70" transform="translate(67.480469 0)"/>
      <use xlink:href="#DejaVuSans-Bold-69" transform="translate(139.0625 0)"/>
      <use xlink:href="#DejaVuSans-Bold-78" transform="translate(173.339844 0)"/>
      <use xlink:href="#DejaVuSans-Bold-61" transform="translate(237.841797 0)"/>
      <use xlink:href="#DejaVuSans-Bold-62" transform="translate(305.322266 0)"/>
      <use xlink:href="#DejaVuSans-Bold-61" transform="translate(376.904297 0)"/>
      <use xlink:href="#DejaVuSans-Bold-6e" transform="translate(444.384766 0)"/>
      <use xlink:href="#DejaVuSans-Bold-20" transform="translate(515.576172 0)"/>
      <use xlink:href="#DejaVuSans-Bold-75" transform="translate(550.390625 0)"/>
      <use xlink:href="#DejaVuSans-Bold-72" transform="translate(621.582031 0)"/>
      <use xlink:href="#DejaVuSans-Bold-69" transform="translate(670.898438 0)"/>
      <use xlink:href="#DejaVuSans-Bold-6e" transform="translate(705.175781 0)"/>
      <use xlink:href="#DejaVuSans-Bold-65" transform="translate(776.367188 0)"/>
      <use xlink:href="#DejaVuSans-Bold-20" transform="translate(844.189453 0)"/>
      <use xlink:href="#DejaVuSans-Bold-5b" transform="translate(879.003906 0)"/>
      <use xlink:href="#DejaVuSans-Bold-b5" transform="translate(924.707031 0)"/>
      <use xlink:href="#DejaVuSans-Bold-6d" transform="translate(998.291016 0)"/>
      <use xlink:href="#DejaVuSans-Bold-6f" transform="translate(1102.490234 0)"/>
      <use xlink:href="#DejaVuSans-Bold-6c" transform="translate(1171.191406 0)"/>
      <use xlink:href="#DejaVuSans-Bold-65" transform="translate(1205.46875 0)"/>
      <use xlink:href="#DejaVuSans-Bold-5d" transform="translate(1273.291016 0)"/>
     </g>
    </g>
   </g>
   <g id="LineCollection_7">
    <path clip-path="url(#p32ce8af152)" style="fill: none; stroke: #0000ff"/>
    <path d="M 888.246304 214.908817 
L 888.246304 62.604 
" clip-path="url(#p32ce8af152)" style="fill: none; stroke: #0000ff"/>
   </g>
   <g id="LineCollection_8">
    <path clip-path="url(#p32ce8af152)" style="fill: none; stroke: #000000"/>
    <path d="M 888.246304 272.692337 
L 888.246304 112.00765 
" clip-path="url(#p32ce8af152)" style="fill: none; stroke: #000000"/>
   </g>
   <g id="LineCollection_9">
    <path d="M 562.180217 349.884 
L 562.180217 349.884 
" clip-path="url(#p32ce8af152)" style="fill: none; stroke: #ff0000"/>
    <path d="M 888.246304 267.843152 
L 888.246304 88.646694 
" clip-path="url(#p32ce8af152)" style="fill: none; stroke: #ff0000"/>
   </g>
   <g id="line2d_42">
    <path d="M 562.180217 349.884 
L 563.199174 349.809032 
L 563.878478 349.59076 
L 564.897435 348.955442 
L 565.916391 347.966936 
L 566.935348 346.664351 
L 568.293957 344.511398 
L 569.992217 341.278418 
L 572.03013 336.802509 
L 574.747348 330.164143 
L 579.162826 318.604615 
L 585.616217 301.768941 
L 589.352391 292.634662 
L 592.748913 284.88682 
L 596.145435 277.716413 
L 599.202304 271.766036 
L 602.259174 266.284349 
L 605.316043 261.254059 
L 608.372913 256.652109 
L 611.429783 252.452212 
L 614.486652 248.626621 
L 617.543522 245.14733 
L 620.600391 241.986888 
L 623.657261 239.118911 
L 627.053783 236.244935 
L 630.450304 233.669187 
L 633.846826 231.362143 
L 637.583 229.102566 
L 641.319174 227.102872 
L 645.395 225.183482 
L 649.470826 223.504803 
L 653.886304 221.92336 
L 658.641435 220.45912 
L 663.736217 219.125574 
L 669.170652 217.93011 
L 675.284391 216.818621 
L 682.077435 215.820704 
L 689.549783 214.953466 
L 698.041087 214.196279 
L 707.891 213.547249 
L 719.778826 212.999626 
L 734.38387 212.564345 
L 753.064739 212.241539 
L 779.557609 212.021394 
L 824.391696 211.900187 
L 901.832391 211.867424 
L 901.832391 211.867424 
" clip-path="url(#p32ce8af152)" style="fill: none; stroke: #0000ff; stroke-width: 2; stroke-linecap: square"/>
   </g>
   <g id="line2d_43">
    <g clip-path="url(#p32ce8af152)">
     <use xlink:href="#mbda2331afa" x="562.180217" y="349.884" style="fill: #0000ff; stroke: #000000; stroke-linejoin: miter"/>
     <use xlink:href="#mbda2331afa" x="888.246304" y="138.756408" style="fill: #0000ff; stroke: #000000; stroke-linejoin: miter"/>
    </g>
   </g>
   <g id="line2d_44">
    <path d="M 562.180217 349.884 
L 563.199174 349.806745 
L 563.878478 349.581974 
L 564.897435 348.933541 
L 565.916391 347.93269 
L 566.935348 346.62028 
L 568.293957 344.458286 
L 569.992217 341.219426 
L 572.03013 336.742287 
L 574.747348 330.108581 
L 579.162826 318.563796 
L 585.616217 301.751494 
L 589.352391 292.628249 
L 592.748913 284.888309 
L 596.145435 277.723862 
L 599.202304 271.77738 
L 602.259174 266.298415 
L 605.316043 261.269886 
L 608.372913 256.668929 
L 611.429783 252.469429 
L 614.486652 248.643783 
L 617.543522 245.164108 
L 620.600391 242.003048 
L 623.657261 239.134296 
L 627.053783 236.259347 
L 630.450304 233.682566 
L 633.846826 231.374477 
L 637.583 229.113769 
L 641.319174 227.112992 
L 645.395 225.192496 
L 649.470826 223.512799 
L 653.886304 221.930357 
L 658.641435 220.465161 
L 663.736217 219.13072 
L 669.170652 217.934437 
L 675.284391 216.822174 
L 682.077435 215.823553 
L 689.549783 214.955696 
L 698.041087 214.197966 
L 707.891 213.548468 
L 719.778826 213.000449 
L 734.38387 212.564853 
L 753.064739 212.241812 
L 779.557609 212.021508 
L 824.391696 211.900213 
L 901.832391 211.867426 
L 901.832391 211.867426 
" clip-path="url(#p32ce8af152)" style="fill: none; stroke: #000000; stroke-width: 2; stroke-linecap: square"/>
   </g>
   <g id="line2d_45">
    <g clip-path="url(#p32ce8af152)">
     <use xlink:href="#mac19baee15" x="562.180217" y="349.884" style="stroke: #000000; stroke-linejoin: miter"/>
     <use xlink:href="#mac19baee15" x="888.246304" y="192.349993" style="stroke: #000000; stroke-linejoin: miter"/>
    </g>
   </g>
   <g id="line2d_46">
    <path d="M 562.180217 349.884 
L 563.199174 349.804027 
L 563.878478 349.569483 
L 564.557783 349.162522 
L 565.576739 348.247947 
L 566.595696 347.009763 
L 567.954304 344.933336 
L 569.312913 342.4563 
L 571.011174 338.918017 
L 573.388739 333.368731 
L 576.785261 324.731111 
L 586.974826 298.333568 
L 590.711 289.455428 
L 594.107522 281.958783 
L 597.164391 275.706684 
L 600.221261 269.925614 
L 603.27813 264.604715 
L 606.335 259.725089 
L 609.39187 255.262966 
L 612.448739 251.191936 
L 615.505609 247.484498 
L 618.562478 244.113125 
L 621.619348 241.05097 
L 625.01587 237.980008 
L 628.412391 235.22586 
L 631.808913 232.757681 
L 635.205435 230.54708 
L 638.941609 228.382016 
L 642.677783 226.465986 
L 646.753609 224.626904 
L 651.169087 222.893903 
L 655.584565 221.395477 
L 660.339696 220.008104 
L 665.434478 218.744562 
L 671.208565 217.547586 
L 677.322304 216.506201 
L 684.115348 215.571224 
L 691.927348 214.72631 
L 700.758304 214.000647 
L 710.94787 213.388832 
L 723.175348 212.881268 
L 738.459696 212.477438 
L 758.838826 212.176677 
L 788.728217 211.98062 
L 843.072565 211.883856 
L 901.832391 211.86743 
L 901.832391 211.86743 
" clip-path="url(#p32ce8af152)" style="fill: none; stroke: #ff0000; stroke-width: 2; stroke-linecap: square"/>
   </g>
   <g id="line2d_47">
    <g clip-path="url(#p32ce8af152)">
     <use xlink:href="#mc603f65fe8" x="562.180217" y="349.884" style="fill: #ff0000; stroke: #000000; stroke-linejoin: miter"/>
     <use xlink:href="#mc603f65fe8" x="888.246304" y="178.244923" style="fill: #ff0000; stroke: #000000; stroke-linejoin: miter"/>
    </g>
   </g>
   <g id="patch_9">
    <path d="M 545.197609 364.248 
L 545.197609 48.24 
" style="fill: none; stroke: #000000; stroke-width: 0.8; stroke-linejoin: miter; stroke-linecap: square"/>
   </g>
   <g id="patch_10">
    <path d="M 918.815 364.248 
L 918.815 48.24 
" style="fill: none; stroke: #000000; stroke-width: 0.8; stroke-linejoin: miter; stroke-linecap: square"/>
   </g>
   <g id="patch_11">
    <path d="M 545.197609 364.248 
L 918.815 364.248 
" style="fill: none; stroke: #000000; stroke-width: 0.8; stroke-linejoin: miter; stroke-linecap: square"/>
   </g>
   <g id="patch_12">
    <path d="M 545.197609 48.24 
L 918.815 48.24 
" style="fill: none; stroke: #000000; stroke-width: 0.8; stroke-linejoin: miter; stroke-linecap: square"/>
   </g>
   <g id="legend_2">
    <g id="patch_13">
     <path d="M 554.297609 173.129375 
L 833.090734 173.129375 
Q 835.690734 173.129375 835.690734 170.529375 
L 835.690734 57.34 
Q 835.690734 54.74 833.090734 54.74 
L 554.297609 54.74 
Q 551.697609 54.74 551.697609 57.34 
L 551.697609 170.529375 
Q 551.697609 173.129375 554.297609 173.129375 
z
" style="fill: #ffffff; opacity: 0.8; stroke: #cccccc; stroke-linejoin: miter"/>
    </g>
    <g id="line2d_48">
     <path d="M 556.897609 65.267969 
L 582.897609 65.267969 
" style="fill: none; stroke: #0000ff; stroke-width: 2; stroke-linecap: square"/>
    </g>
    <g id="line2d_49"/>
    <g id="text_34">
     <!-- sim low: 10mg PO -->
     <g transform="translate(593.297609 69.817969) scale(0.13 -0.13)">
      <use xlink:href="#DejaVuSans-73"/>
      <use xlink:href="#DejaVuSans-69" transform="translate(52.099609 0)"/>
      <use xlink:href="#DejaVuSans-6d" transform="translate(79.882812 0)"/>
      <use xlink:href="#DejaVuSans-20" transform="translate(177.294922 0)"/>
      <use xlink:href="#DejaVuSans-6c" transform="translate(209.082031 0)"/>
      <use xlink:href="#DejaVuSans-6f" transform="translate(236.865234 0)"/>
      <use xlink:href="#DejaVuSans-77" transform="translate(298.046875 0)"/>
      <use xlink:href="#DejaVuSans-3a" transform="translate(374.333984 0)"/>
      <use xlink:href="#DejaVuSans-20" transform="translate(408.025391 0)"/>
      <use xlink:href="#DejaVuSans-31" transform="translate(439.8125 0)"/>
      <use xlink:href="#DejaVuSans-30" transform="translate(503.435547 0)"/>
      <use xlink:href="#DejaVuSans-6d" transform="translate(567.058594 0)"/>
      <use xlink:href="#DejaVuSans-67" transform="translate(664.470703 0)"/>
      <use xlink:href="#DejaVuSans-20" transform="translate(727.947266 0)"/>
      <use xlink:href="#DejaVuSans-50" transform="translate(759.734375 0)"/>
      <use xlink:href="#DejaVuSans-4f" transform="translate(820.037109 0)"/>
     </g>
    </g>
    <g id="LineCollection_10">
     <path d="M 569.897609 90.849531 
L 569.897609 77.849531 
" style="fill: none; stroke: #0000ff"/>
    </g>
    <g id="line2d_50"/>
    <g id="line2d_51">
     <g>
      <use xlink:href="#mbda2331afa" x="569.897609" y="84.349531" style="fill: #0000ff; stroke: #000000; stroke-linejoin: miter"/>
     </g>
    </g>
    <g id="text_35">
     <!-- exp low: 10mg PO±SD (n=18) -->
     <g transform="translate(593.297609 88.899531) scale(0.13 -0.13)">
      <use xlink:href="#DejaVuSans-65"/>
      <use xlink:href="#DejaVuSans-78" transform="translate(59.773438 0)"/>
      <use xlink:href="#DejaVuSans-70" transform="translate(118.953125 0)"/>
      <use xlink:href="#DejaVuSans-20" transform="translate(182.429688 0)"/>
      <use xlink:href="#DejaVuSans-6c" transform="translate(214.216797 0)"/>
      <use xlink:href="#DejaVuSans-6f" transform="translate(242 0)"/>
      <use xlink:href="#DejaVuSans-77" transform="translate(303.181641 0)"/>
      <use xlink:href="#DejaVuSans-3a" transform="translate(379.46875 0)"/>
      <use xlink:href="#DejaVuSans-20" transform="translate(413.160156 0)"/>
      <use xlink:href="#DejaVuSans-31" transform="translate(444.947266 0)"/>
      <use xlink:href="#DejaVuSans-30" transform="translate(508.570312 0)"/>
      <use xlink:href="#DejaVuSans-6d" transform="translate(572.193359 0)"/>
      <use xlink:href="#DejaVuSans-67" transform="translate(669.605469 0)"/>
      <use xlink:href="#DejaVuSans-20" transform="translate(733.082031 0)"/>
      <use xlink:href="#DejaVuSans-50" transform="translate(764.869141 0)"/>
      <use xlink:href="#DejaVuSans-4f" transform="translate(825.171875 0)"/>
      <use xlink:href="#DejaVuSans-b1" transform="translate(903.882812 0)"/>
      <use xlink:href="#DejaVuSans-53" transform="translate(987.671875 0)"/>
      <use xlink:href="#DejaVuSans-44" transform="translate(1051.148438 0)"/>
      <use xlink:href="#DejaVuSans-20" transform="translate(1128.150391 0)"/>
      <use xlink:href="#DejaVuSans-28" transform="translate(1159.9375 0)"/>
      <use xlink:href="#DejaVuSans-6e" transform="translate(1198.951172 0)"/>
      <use xlink:href="#DejaVuSans-3d" transform="translate(1262.330078 0)"/>
      <use xlink:href="#DejaVuSans-31" transform="translate(1346.119141 0)"/>
      <use xlink:href="#DejaVuSans-38" transform="translate(1409.742188 0)"/>
      <use xlink:href="#DejaVuSans-29" transform="translate(1473.365234 0)"/>
     </g>
    </g>
    <g id="line2d_52">
     <path d="M 556.897609 103.431094 
L 582.897609 103.431094 
" style="fill: none; stroke: #000000; stroke-width: 2; stroke-linecap: square"/>
    </g>
    <g id="line2d_53"/>
    <g id="text_36">
     <!-- sim reference: 10mg PO -->
     <g transform="translate(593.297609 107.981094) scale(0.13 -0.13)">
      <use xlink:href="#DejaVuSans-73"/>
      <use xlink:href="#DejaVuSans-69" transform="translate(52.099609 0)"/>
      <use xlink:href="#DejaVuSans-6d" transform="translate(79.882812 0)"/>
      <use xlink:href="#DejaVuSans-20" transform="translate(177.294922 0)"/>
      <use xlink:href="#DejaVuSans-72" transform="translate(209.082031 0)"/>
      <use xlink:href="#DejaVuSans-65" transform="translate(247.945312 0)"/>
      <use xlink:href="#DejaVuSans-66" transform="translate(309.46875 0)"/>
      <use xlink:href="#DejaVuSans-65" transform="translate(344.673828 0)"/>
      <use xlink:href="#DejaVuSans-72" transform="translate(406.197266 0)"/>
      <use xlink:href="#DejaVuSans-65" transform="translate(445.060547 0)"/>
      <use xlink:href="#DejaVuSans-6e" transform="translate(506.583984 0)"/>
      <use xlink:href="#DejaVuSans-63" transform="translate(569.962891 0)"/>
      <use xlink:href="#DejaVuSans-65" transform="translate(624.943359 0)"/>
      <use xlink:href="#DejaVuSans-3a" transform="translate(686.466797 0)"/>
      <use xlink:href="#DejaVuSans-20" transform="translate(720.158203 0)"/>
      <use xlink:href="#DejaVuSans-31" transform="translate(751.945312 0)"/>
      <use xlink:href="#DejaVuSans-30" transform="translate(815.568359 0)"/>
      <use xlink:href="#DejaVuSans-6d" transform="translate(879.191406 0)"/>
      <use xlink:href="#DejaVuSans-67" transform="translate(976.603516 0)"/>
      <use xlink:href="#DejaVuSans-20" transform="translate(1040.080078 0)"/>
      <use xlink:href="#DejaVuSans-50" transform="translate(1071.867188 0)"/>
      <use xlink:href="#DejaVuSans-4f" transform="translate(1132.169922 0)"/>
     </g>
    </g>
    <g id="LineCollection_11">
     <path d="M 569.897609 129.012656 
L 569.897609 116.012656 
" style="fill: none; stroke: #000000"/>
    </g>
    <g id="line2d_54"/>
    <g id="line2d_55">
     <g>
      <use xlink:href="#mac19baee15" x="569.897609" y="122.512656" style="stroke: #000000; stroke-linejoin: miter"/>
     </g>
    </g>
    <g id="text_37">
     <!-- exp reference: 10mg PO±SD (n=16) -->
     <g transform="translate(593.297609 127.062656) scale(0.13 -0.13)">
      <use xlink:href="#DejaVuSans-65"/>
      <use xlink:href="#DejaVuSans-78" transform="translate(59.773438 0)"/>
      <use xlink:href="#DejaVuSans-70" transform="translate(118.953125 0)"/>
      <use xlink:href="#DejaVuSans-20" transform="translate(182.429688 0)"/>
      <use xlink:href="#DejaVuSans-72" transform="translate(214.216797 0)"/>
      <use xlink:href="#DejaVuSans-65" transform="translate(253.080078 0)"/>
      <use xlink:href="#DejaVuSans-66" transform="translate(314.603516 0)"/>
      <use xlink:href="#DejaVuSans-65" transform="translate(349.808594 0)"/>
      <use xlink:href="#DejaVuSans-72" transform="translate(411.332031 0)"/>
      <use xlink:href="#DejaVuSans-65" transform="translate(450.195312 0)"/>
      <use xlink:href="#DejaVuSans-6e" transform="translate(511.71875 0)"/>
      <use xlink:href="#DejaVuSans-63" transform="translate(575.097656 0)"/>
      <use xlink:href="#DejaVuSans-65" transform="translate(630.078125 0)"/>
      <use xlink:href="#DejaVuSans-3a" transform="translate(691.601562 0)"/>
      <use xlink:href="#DejaVuSans-20" transform="translate(725.292969 0)"/>
      <use xlink:href="#DejaVuSans-31" transform="translate(757.080078 0)"/>
      <use xlink:href="#DejaVuSans-30" transform="translate(820.703125 0)"/>
      <use xlink:href="#DejaVuSans-6d" transform="translate(884.326172 0)"/>
      <use xlink:href="#DejaVuSans-67" transform="translate(981.738281 0)"/>
      <use xlink:href="#DejaVuSans-20" transform="translate(1045.214844 0)"/>
      <use xlink:href="#DejaVuSans-50" transform="translate(1077.001953 0)"/>
      <use xlink:href="#DejaVuSans-4f" transform="translate(1137.304688 0)"/>
      <use xlink:href="#DejaVuSans-b1" transform="translate(1216.015625 0)"/>
      <use xlink:href="#DejaVuSans-53" transform="translate(1299.804688 0)"/>
      <use xlink:href="#DejaVuSans-44" transform="translate(1363.28125 0)"/>
      <use xlink:href="#DejaVuSans-20" transform="translate(1440.283203 0)"/>
      <use xlink:href="#DejaVuSans-28" transform="translate(1472.070312 0)"/>
      <use xlink:href="#DejaVuSans-6e" transform="translate(1511.083984 0)"/>
      <use xlink:href="#DejaVuSans-3d" transform="translate(1574.462891 0)"/>
      <use xlink:href="#DejaVuSans-31" transform="translate(1658.251953 0)"/>
      <use xlink:href="#DejaVuSans-36" transform="translate(1721.875 0)"/>
      <use xlink:href="#DejaVuSans-29" transform="translate(1785.498047 0)"/>
     </g>
    </g>
    <g id="line2d_56">
     <path d="M 556.897609 141.594219 
L 582.897609 141.594219 
" style="fill: none; stroke: #ff0000; stroke-width: 2; stroke-linecap: square"/>
    </g>
    <g id="line2d_57"/>
    <g id="text_38">
     <!-- sim high: 10mg PO -->
     <g transform="translate(593.297609 146.144219) scale(0.13 -0.13)">
      <use xlink:href="#DejaVuSans-73"/>
      <use xlink:href="#DejaVuSans-69" transform="translate(52.099609 0)"/>
      <use xlink:href="#DejaVuSans-6d" transform="translate(79.882812 0)"/>
      <use xlink:href="#DejaVuSans-20" transform="translate(177.294922 0)"/>
      <use xlink:href="#DejaVuSans-68" transform="translate(209.082031 0)"/>
      <use xlink:href="#DejaVuSans-69" transform="translate(272.460938 0)"/>
      <use xlink:href="#DejaVuSans-67" transform="translate(300.244141 0)"/>
      <use xlink:href="#DejaVuSans-68" transform="translate(363.720703 0)"/>
      <use xlink:href="#DejaVuSans-3a" transform="translate(427.099609 0)"/>
      <use xlink:href="#DejaVuSans-20" transform="translate(460.791016 0)"/>
      <use xlink:href="#DejaVuSans-31" transform="translate(492.578125 0)"/>
      <use xlink:href="#DejaVuSans-30" transform="translate(556.201172 0)"/>
      <use xlink:href="#DejaVuSans-6d" transform="translate(619.824219 0)"/>
      <use xlink:href="#DejaVuSans-67" transform="translate(717.236328 0)"/>
      <use xlink:href="#DejaVuSans-20" transform="translate(780.712891 0)"/>
      <use xlink:href="#DejaVuSans-50" transform="translate(812.5 0)"/>
      <use xlink:href="#DejaVuSans-4f" transform="translate(872.802734 0)"/>
     </g>
    </g>
    <g id="LineCollection_12">
     <path d="M 569.897609 167.175781 
L 569.897609 154.175781 
" style="fill: none; stroke: #ff0000"/>
    </g>
    <g id="line2d_58"/>
    <g id="line2d_59">
     <g>
      <use xlink:href="#mc603f65fe8" x="569.897609" y="160.675781" style="fill: #ff0000; stroke: #000000; stroke-linejoin: miter"/>
     </g>
    </g>
    <g id="text_39">
     <!-- exp high: 10mg PO±SD (n=19) -->
     <g transform="translate(593.297609 165.225781) scale(0.13 -0.13)">
      <defs>
       <path id="DejaVuSans-39" d="M 703 97 
L 703 672 
Q 941 559 1184 500 
Q 1428 441 1663 441 
Q 2288 441 2617 861 
Q 2947 1281 2994 2138 
Q 2813 1869 2534 1725 
Q 2256 1581 1919 1581 
Q 1219 1581 811 2004 
Q 403 2428 403 3163 
Q 403 3881 828 4315 
Q 1253 4750 1959 4750 
Q 2769 4750 3195 4129 
Q 3622 3509 3622 2328 
Q 3622 1225 3098 567 
Q 2575 -91 1691 -91 
Q 1453 -91 1209 -44 
Q 966 3 703 97 
z
M 1959 2075 
Q 2384 2075 2632 2365 
Q 2881 2656 2881 3163 
Q 2881 3666 2632 3958 
Q 2384 4250 1959 4250 
Q 1534 4250 1286 3958 
Q 1038 3666 1038 3163 
Q 1038 2656 1286 2365 
Q 1534 2075 1959 2075 
z
" transform="scale(0.015625)"/>
      </defs>
      <use xlink:href="#DejaVuSans-65"/>
      <use xlink:href="#DejaVuSans-78" transform="translate(59.773438 0)"/>
      <use xlink:href="#DejaVuSans-70" transform="translate(118.953125 0)"/>
      <use xlink:href="#DejaVuSans-20" transform="translate(182.429688 0)"/>
      <use xlink:href="#DejaVuSans-68" transform="translate(214.216797 0)"/>
      <use xlink:href="#DejaVuSans-69" transform="translate(277.595703 0)"/>
      <use xlink:href="#DejaVuSans-67" transform="translate(305.378906 0)"/>
      <use xlink:href="#DejaVuSans-68" transform="translate(368.855469 0)"/>
      <use xlink:href="#DejaVuSans-3a" transform="translate(432.234375 0)"/>
      <use xlink:href="#DejaVuSans-20" transform="translate(465.925781 0)"/>
      <use xlink:href="#DejaVuSans-31" transform="translate(497.712891 0)"/>
      <use xlink:href="#DejaVuSans-30" transform="translate(561.335938 0)"/>
      <use xlink:href="#DejaVuSans-6d" transform="translate(624.958984 0)"/>
      <use xlink:href="#DejaVuSans-67" transform="translate(722.371094 0)"/>
      <use xlink:href="#DejaVuSans-20" transform="translate(785.847656 0)"/>
      <use xlink:href="#DejaVuSans-50" transform="translate(817.634766 0)"/>
      <use xlink:href="#DejaVuSans-4f" transform="translate(877.9375 0)"/>
      <use xlink:href="#DejaVuSans-b1" transform="translate(956.648438 0)"/>
      <use xlink:href="#DejaVuSans-53" transform="translate(1040.4375 0)"/>
      <use xlink:href="#DejaVuSans-44" transform="translate(1103.914062 0)"/>
      <use xlink:href="#DejaVuSans-20" transform="translate(1180.916016 0)"/>
      <use xlink:href="#DejaVuSans-28" transform="translate(1212.703125 0)"/>
      <use xlink:href="#DejaVuSans-6e" transform="translate(1251.716797 0)"/>
      <use xlink:href="#DejaVuSans-3d" transform="translate(1315.095703 0)"/>
      <use xlink:href="#DejaVuSans-31" transform="translate(1398.884766 0)"/>
      <use xlink:href="#DejaVuSans-39" transform="translate(1462.507812 0)"/>
      <use xlink:href="#DejaVuSans-29" transform="translate(1526.130859 0)"/>
     </g>
    </g>
   </g>
  </g>
  <g id="text_40">
   <!-- Upreti2013 -->
   <g transform="translate(396.505938 26.196094) scale(0.25 -0.25)">
    <defs>
     <path id="DejaVuSans-Bold-55" d="M 588 4666 
L 1791 4666 
L 1791 1869 
Q 1791 1291 1980 1042 
Q 2169 794 2597 794 
Q 3028 794 3217 1042 
Q 3406 1291 3406 1869 
L 3406 4666 
L 4609 4666 
L 4609 1869 
Q 4609 878 4112 393 
Q 3616 -91 2597 -91 
Q 1581 -91 1084 393 
Q 588 878 588 1869 
L 588 4666 
z
" transform="scale(0.015625)"/>
     <path id="DejaVuSans-Bold-32" d="M 1844 884 
L 3897 884 
L 3897 0 
L 506 0 
L 506 884 
L 2209 2388 
Q 2438 2594 2547 2791 
Q 2656 2988 2656 3200 
Q 2656 3528 2436 3728 
Q 2216 3928 1850 3928 
Q 1569 3928 1234 3808 
Q 900 3688 519 3450 
L 519 4475 
Q 925 4609 1322 4679 
Q 1719 4750 2100 4750 
Q 2938 4750 3402 4381 
Q 3866 4013 3866 3353 
Q 3866 2972 3669 2642 
Q 3472 2313 2841 1759 
L 1844 884 
z
" transform="scale(0.015625)"/>
     <path id="DejaVuSans-Bold-30" d="M 2944 2338 
Q 2944 3213 2780 3570 
Q 2616 3928 2228 3928 
Q 1841 3928 1675 3570 
Q 1509 3213 1509 2338 
Q 1509 1453 1675 1090 
Q 1841 728 2228 728 
Q 2613 728 2778 1090 
Q 2944 1453 2944 2338 
z
M 4147 2328 
Q 4147 1169 3647 539 
Q 3147 -91 2228 -91 
Q 1306 -91 806 539 
Q 306 1169 306 2328 
Q 306 3491 806 4120 
Q 1306 4750 2228 4750 
Q 3147 4750 3647 4120 
Q 4147 3491 4147 2328 
z
" transform="scale(0.015625)"/>
     <path id="DejaVuSans-Bold-31" d="M 750 831 
L 1813 831 
L 1813 3847 
L 722 3622 
L 722 4441 
L 1806 4666 
L 2950 4666 
L 2950 831 
L 4013 831 
L 4013 0 
L 750 0 
L 750 831 
z
" transform="scale(0.015625)"/>
     <path id="DejaVuSans-Bold-33" d="M 2981 2516 
Q 3453 2394 3698 2092 
Q 3944 1791 3944 1325 
Q 3944 631 3412 270 
Q 2881 -91 1863 -91 
Q 1503 -91 1142 -33 
Q 781 25 428 141 
L 428 1069 
Q 766 900 1098 814 
Q 1431 728 1753 728 
Q 2231 728 2486 893 
Q 2741 1059 2741 1369 
Q 2741 1688 2480 1852 
Q 2219 2016 1709 2016 
L 1228 2016 
L 1228 2791 
L 1734 2791 
Q 2188 2791 2409 2933 
Q 2631 3075 2631 3366 
Q 2631 3634 2415 3781 
Q 2200 3928 1806 3928 
Q 1516 3928 1219 3862 
Q 922 3797 628 3669 
L 628 4550 
Q 984 4650 1334 4700 
Q 1684 4750 2022 4750 
Q 2931 4750 3382 4451 
Q 3834 4153 3834 3553 
Q 3834 3144 3618 2883 
Q 3403 2622 2981 2516 
z
" transform="scale(0.015625)"/>
    </defs>
    <use xlink:href="#DejaVuSans-Bold-55"/>
    <use xlink:href="#DejaVuSans-Bold-70" transform="translate(81.201172 0)"/>
    <use xlink:href="#DejaVuSans-Bold-72" transform="translate(152.783203 0)"/>
    <use xlink:href="#DejaVuSans-Bold-65" transform="translate(202.099609 0)"/>
    <use xlink:href="#DejaVuSans-Bold-74" transform="translate(269.921875 0)"/>
    <use xlink:href="#DejaVuSans-Bold-69" transform="translate(317.724609 0)"/>
    <use xlink:href="#DejaVuSans-Bold-32" transform="translate(352.001953 0)"/>
    <use xlink:href="#DejaVuSans-Bold-30" transform="translate(421.582031 0)"/>
    <use xlink:href="#DejaVuSans-Bold-31" transform="translate(491.162109 0)"/>
    <use xlink:href="#DejaVuSans-Bold-33" transform="translate(560.742188 0)"/>
   </g>
  </g>
 </g>
 <defs>
  <clipPath id="p97bd43246d">
   <rect x="59.495" y="48.24" width="373.617391" height="316.008"/>
  </clipPath>
  <clipPath id="p32ce8af152">
   <rect x="545.197609" y="48.24" width="373.617391" height="316.008"/>
  </clipPath>
 </defs>
</svg>
