<?xml version="1.0" encoding="utf-8" standalone="no"?>
<!DOCTYPE svg PUBLIC "-//W3C//DTD SVG 1.1//EN"
  "http://www.w3.org/Graphics/SVG/1.1/DTD/svg11.dtd">
<svg xmlns:xlink="http://www.w3.org/1999/xlink" width="1304.399904pt" height="368.399519pt" viewBox="0 0 1304.399904 368.399519" xmlns="http://www.w3.org/2000/svg" version="1.1">
 <metadata>
  <rdf:RDF xmlns:dc="http://purl.org/dc/elements/1.1/" xmlns:cc="http://creativecommons.org/ns#" xmlns:rdf="http://www.w3.org/1999/02/22-rdf-syntax-ns#">
   <cc:Work>
    <dc:type rdf:resource="http://purl.org/dc/dcmitype/StillImage"/>
    <dc:date>2026-04-23T10:32:22.311534</dc:date>
    <dc:format>image/svg+xml</dc:format>
    <dc:creator>
     <cc:Agent>
      <dc:title>Matplotlib v3.10.8, https://matplotlib.org/</dc:title>
     </cc:Agent>
    </dc:creator>
   </cc:Work>
  </rdf:RDF>
 </metadata>
 <defs>
  <style type="text/css">*{stroke-linejoin: round; stroke-linecap: butt}</style>
 </defs>
 <g id="figure_1">
  <g id="patch_1">
   <path d="M 0 368.399519 
L 1304.399904 368.399519 
L 1304.399904 0 
L 0 0 
z
" style="fill: #ffffff"/>
  </g>
  <g id="axes_1">
   <g id="patch_2">
    <path d="M 57.98125 316.508894 
L 428.047893 316.508894 
L 428.047893 10.694577 
L 57.98125 10.694577 
z
" style="fill: #ffffff"/>
   </g>
   <g id="matplotlib.axis_1">
    <g id="xtick_1">
     <g id="line2d_1">
      <defs>
       <path id="m04a55311e0" d="M 0 0 
L 0 8 
" style="stroke: #000000; stroke-width: 3"/>
      </defs>
      <g>
       <use xlink:href="#m04a55311e0" x="270.811725" y="316.508894" style="stroke: #000000; stroke-width: 3"/>
      </g>
     </g>
     <g id="text_1">
      <!-- $\mathdefault{10^{2}}$ -->
      <g transform="translate(262.011725 335.607332) scale(0.1 -0.1)">
       <defs>
        <path id="DejaVuSans-31" d="M 794 531 
L 1825 531 
L 1825 4091 
L 703 3866 
L 703 4441 
L 1819 4666 
L 2450 4666 
L 2450 531 
L 3481 531 
L 3481 0 
L 794 0 
L 794 531 
z
" transform="scale(0.015625)"/>
        <path id="DejaVuSans-30" d="M 2034 4250 
Q 1547 4250 1301 3770 
Q 1056 3291 1056 2328 
Q 1056 1369 1301 889 
Q 1547 409 2034 409 
Q 2525 409 2770 889 
Q 3016 1369 3016 2328 
Q 3016 3291 2770 3770 
Q 2525 4250 2034 4250 
z
M 2034 4750 
Q 2819 4750 3233 4129 
Q 3647 3509 3647 2328 
Q 3647 1150 3233 529 
Q 2819 -91 2034 -91 
Q 1250 -91 836 529 
Q 422 1150 422 2328 
Q 422 3509 836 4129 
Q 1250 4750 2034 4750 
z
" transform="scale(0.015625)"/>
        <path id="DejaVuSans-32" d="M 1228 531 
L 3431 531 
L 3431 0 
L 469 0 
L 469 531 
Q 828 903 1448 1529 
Q 2069 2156 2228 2338 
Q 2531 2678 2651 2914 
Q 2772 3150 2772 3378 
Q 2772 3750 2511 3984 
Q 2250 4219 1831 4219 
Q 1534 4219 1204 4116 
Q 875 4013 500 3803 
L 500 4441 
Q 881 4594 1212 4672 
Q 1544 4750 1819 4750 
Q 2544 4750 2975 4387 
Q 3406 4025 3406 3419 
Q 3406 3131 3298 2873 
Q 3191 2616 2906 2266 
Q 2828 2175 2409 1742 
Q 1991 1309 1228 531 
z
" transform="scale(0.015625)"/>
       </defs>
       <use xlink:href="#DejaVuSans-31" transform="translate(0 0.765625)"/>
       <use xlink:href="#DejaVuSans-30" transform="translate(63.623047 0.765625)"/>
       <use xlink:href="#DejaVuSans-32" transform="translate(128.203125 39.046875) scale(0.7)"/>
      </g>
     </g>
    </g>
    <g id="xtick_2">
     <g id="line2d_2">
      <defs>
       <path id="m928a6e5b3e" d="M 0 0 
L 0 2 
" style="stroke: #000000; stroke-width: 0.6"/>
      </defs>
      <g>
       <use xlink:href="#m928a6e5b3e" x="85.193249" y="316.508894" style="stroke: #000000; stroke-width: 0.6"/>
      </g>
     </g>
     <g id="text_2">
      <!-- $\mathdefault{4\times10^{1}}$ -->
      <g transform="translate(67.093249 329.507332) scale(0.1 -0.1)">
       <defs>
        <path id="DejaVuSans-34" d="M 2419 4116 
L 825 1625 
L 2419 1625 
L 2419 4116 
z
M 2253 4666 
L 3047 4666 
L 3047 1625 
L 3713 1625 
L 3713 1100 
L 3047 1100 
L 3047 0 
L 2419 0 
L 2419 1100 
L 313 1100 
L 313 1709 
L 2253 4666 
z
" transform="scale(0.015625)"/>
        <path id="DejaVuSans-d7" d="M 4488 3438 
L 3059 2003 
L 4488 575 
L 4116 197 
L 2681 1631 
L 1247 197 
L 878 575 
L 2303 2003 
L 878 3438 
L 1247 3816 
L 2681 2381 
L 4116 3816 
L 4488 3438 
z
" transform="scale(0.015625)"/>
       </defs>
       <use xlink:href="#DejaVuSans-34" transform="translate(0 0.684375)"/>
       <use xlink:href="#DejaVuSans-d7" transform="translate(83.105469 0.684375)"/>
       <use xlink:href="#DejaVuSans-31" transform="translate(186.376953 0.684375)"/>
       <use xlink:href="#DejaVuSans-30" transform="translate(250 0.684375)"/>
       <use xlink:href="#DejaVuSans-31" transform="translate(314.580078 38.965625) scale(0.7)"/>
      </g>
     </g>
    </g>
    <g id="xtick_3">
     <g id="line2d_3">
      <g>
       <use xlink:href="#m928a6e5b3e" x="130.396769" y="316.508894" style="stroke: #000000; stroke-width: 0.6"/>
      </g>
     </g>
    </g>
    <g id="xtick_4">
     <g id="line2d_4">
      <g>
       <use xlink:href="#m928a6e5b3e" x="167.330734" y="316.508894" style="stroke: #000000; stroke-width: 0.6"/>
      </g>
     </g>
     <g id="text_3">
      <!-- $\mathdefault{6\times10^{1}}$ -->
      <g transform="translate(149.230734 329.507332) scale(0.1 -0.1)">
       <defs>
        <path id="DejaVuSans-36" d="M 2113 2584 
Q 1688 2584 1439 2293 
Q 1191 2003 1191 1497 
Q 1191 994 1439 701 
Q 1688 409 2113 409 
Q 2538 409 2786 701 
Q 3034 994 3034 1497 
Q 3034 2003 2786 2293 
Q 2538 2584 2113 2584 
z
M 3366 4563 
L 3366 3988 
Q 3128 4100 2886 4159 
Q 2644 4219 2406 4219 
Q 1781 4219 1451 3797 
Q 1122 3375 1075 2522 
Q 1259 2794 1537 2939 
Q 1816 3084 2150 3084 
Q 2853 3084 3261 2657 
Q 3669 2231 3669 1497 
Q 3669 778 3244 343 
Q 2819 -91 2113 -91 
Q 1303 -91 875 529 
Q 447 1150 447 2328 
Q 447 3434 972 4092 
Q 1497 4750 2381 4750 
Q 2619 4750 2861 4703 
Q 3103 4656 3366 4563 
z
" transform="scale(0.015625)"/>
       </defs>
       <use xlink:href="#DejaVuSans-36" transform="translate(0 0.684375)"/>
       <use xlink:href="#DejaVuSans-d7" transform="translate(83.105469 0.684375)"/>
       <use xlink:href="#DejaVuSans-31" transform="translate(186.376953 0.684375)"/>
       <use xlink:href="#DejaVuSans-30" transform="translate(250 0.684375)"/>
       <use xlink:href="#DejaVuSans-31" transform="translate(314.580078 38.965625) scale(0.7)"/>
      </g>
     </g>
    </g>
    <g id="xtick_5">
     <g id="line2d_5">
      <g>
       <use xlink:href="#m928a6e5b3e" x="198.557956" y="316.508894" style="stroke: #000000; stroke-width: 0.6"/>
      </g>
     </g>
    </g>
    <g id="xtick_6">
     <g id="line2d_6">
      <g>
       <use xlink:href="#m928a6e5b3e" x="225.608206" y="316.508894" style="stroke: #000000; stroke-width: 0.6"/>
      </g>
     </g>
    </g>
    <g id="xtick_7">
     <g id="line2d_7">
      <g>
       <use xlink:href="#m928a6e5b3e" x="249.468218" y="316.508894" style="stroke: #000000; stroke-width: 0.6"/>
      </g>
     </g>
    </g>
    <g id="xtick_8">
     <g id="line2d_8">
      <g>
       <use xlink:href="#m928a6e5b3e" x="411.226682" y="316.508894" style="stroke: #000000; stroke-width: 0.6"/>
      </g>
     </g>
     <g id="text_4">
      <!-- $\mathdefault{2\times10^{2}}$ -->
      <g transform="translate(393.126682 329.507332) scale(0.1 -0.1)">
       <use xlink:href="#DejaVuSans-32" transform="translate(0 0.765625)"/>
       <use xlink:href="#DejaVuSans-d7" transform="translate(83.105469 0.765625)"/>
       <use xlink:href="#DejaVuSans-31" transform="translate(186.376953 0.765625)"/>
       <use xlink:href="#DejaVuSans-30" transform="translate(250 0.765625)"/>
       <use xlink:href="#DejaVuSans-32" transform="translate(314.580078 39.046875) scale(0.7)"/>
      </g>
     </g>
    </g>
    <g id="text_5">
     <!-- bodyweight [kg] -->
     <g transform="translate(150.373947 356.883894) scale(0.2 -0.2)">
      <defs>
       <path id="DejaVuSans-Bold-62" d="M 2400 722 
Q 2759 722 2948 984 
Q 3138 1247 3138 1747 
Q 3138 2247 2948 2509 
Q 2759 2772 2400 2772 
Q 2041 2772 1848 2508 
Q 1656 2244 1656 1747 
Q 1656 1250 1848 986 
Q 2041 722 2400 722 
z
M 1656 2988 
Q 1888 3294 2169 3439 
Q 2450 3584 2816 3584 
Q 3463 3584 3878 3070 
Q 4294 2556 4294 1747 
Q 4294 938 3878 423 
Q 3463 -91 2816 -91 
Q 2450 -91 2169 54 
Q 1888 200 1656 506 
L 1656 0 
L 538 0 
L 538 4863 
L 1656 4863 
L 1656 2988 
z
" transform="scale(0.015625)"/>
       <path id="DejaVuSans-Bold-6f" d="M 2203 2784 
Q 1831 2784 1636 2517 
Q 1441 2250 1441 1747 
Q 1441 1244 1636 976 
Q 1831 709 2203 709 
Q 2569 709 2762 976 
Q 2956 1244 2956 1747 
Q 2956 2250 2762 2517 
Q 2569 2784 2203 2784 
z
M 2203 3584 
Q 3106 3584 3614 3096 
Q 4122 2609 4122 1747 
Q 4122 884 3614 396 
Q 3106 -91 2203 -91 
Q 1297 -91 786 396 
Q 275 884 275 1747 
Q 275 2609 786 3096 
Q 1297 3584 2203 3584 
z
" transform="scale(0.015625)"/>
       <path id="DejaVuSans-Bold-64" d="M 2919 2988 
L 2919 4863 
L 4044 4863 
L 4044 0 
L 2919 0 
L 2919 506 
Q 2688 197 2409 53 
Q 2131 -91 1766 -91 
Q 1119 -91 703 423 
Q 288 938 288 1747 
Q 288 2556 703 3070 
Q 1119 3584 1766 3584 
Q 2128 3584 2408 3439 
Q 2688 3294 2919 2988 
z
M 2181 722 
Q 2541 722 2730 984 
Q 2919 1247 2919 1747 
Q 2919 2247 2730 2509 
Q 2541 2772 2181 2772 
Q 1825 2772 1636 2509 
Q 1447 2247 1447 1747 
Q 1447 1247 1636 984 
Q 1825 722 2181 722 
z
" transform="scale(0.015625)"/>
       <path id="DejaVuSans-Bold-79" d="M 78 3500 
L 1197 3500 
L 2138 1125 
L 2938 3500 
L 4056 3500 
L 2584 -331 
Q 2363 -916 2067 -1148 
Q 1772 -1381 1288 -1381 
L 641 -1381 
L 641 -647 
L 991 -647 
Q 1275 -647 1404 -556 
Q 1534 -466 1606 -231 
L 1638 -134 
L 78 3500 
z
" transform="scale(0.015625)"/>
       <path id="DejaVuSans-Bold-77" d="M 225 3500 
L 1313 3500 
L 1900 1088 
L 2491 3500 
L 3425 3500 
L 4013 1113 
L 4603 3500 
L 5691 3500 
L 4769 0 
L 3547 0 
L 2956 2406 
L 2369 0 
L 1147 0 
L 225 3500 
z
" transform="scale(0.015625)"/>
       <path id="DejaVuSans-Bold-65" d="M 4031 1759 
L 4031 1441 
L 1416 1441 
Q 1456 1047 1700 850 
Q 1944 653 2381 653 
Q 2734 653 3104 758 
Q 3475 863 3866 1075 
L 3866 213 
Q 3469 63 3072 -14 
Q 2675 -91 2278 -91 
Q 1328 -91 801 392 
Q 275 875 275 1747 
Q 275 2603 792 3093 
Q 1309 3584 2216 3584 
Q 3041 3584 3536 3087 
Q 4031 2591 4031 1759 
z
M 2881 2131 
Q 2881 2450 2695 2645 
Q 2509 2841 2209 2841 
Q 1884 2841 1681 2658 
Q 1478 2475 1428 2131 
L 2881 2131 
z
" transform="scale(0.015625)"/>
       <path id="DejaVuSans-Bold-69" d="M 538 3500 
L 1656 3500 
L 1656 0 
L 538 0 
L 538 3500 
z
M 538 4863 
L 1656 4863 
L 1656 3950 
L 538 3950 
L 538 4863 
z
" transform="scale(0.015625)"/>
       <path id="DejaVuSans-Bold-67" d="M 2919 594 
Q 2688 288 2409 144 
Q 2131 0 1766 0 
Q 1125 0 706 504 
Q 288 1009 288 1791 
Q 288 2575 706 3076 
Q 1125 3578 1766 3578 
Q 2131 3578 2409 3434 
Q 2688 3291 2919 2981 
L 2919 3500 
L 4044 3500 
L 4044 353 
Q 4044 -491 3511 -936 
Q 2978 -1381 1966 -1381 
Q 1638 -1381 1331 -1331 
Q 1025 -1281 716 -1178 
L 716 -306 
Q 1009 -475 1290 -558 
Q 1572 -641 1856 -641 
Q 2406 -641 2662 -400 
Q 2919 -159 2919 353 
L 2919 594 
z
M 2181 2772 
Q 1834 2772 1640 2515 
Q 1447 2259 1447 1791 
Q 1447 1309 1634 1061 
Q 1822 813 2181 813 
Q 2531 813 2725 1069 
Q 2919 1325 2919 1791 
Q 2919 2259 2725 2515 
Q 2531 2772 2181 2772 
z
" transform="scale(0.015625)"/>
       <path id="DejaVuSans-Bold-68" d="M 4056 2131 
L 4056 0 
L 2931 0 
L 2931 347 
L 2931 1625 
Q 2931 2084 2911 2256 
Q 2891 2428 2841 2509 
Q 2775 2619 2662 2680 
Q 2550 2741 2406 2741 
Q 2056 2741 1856 2470 
Q 1656 2200 1656 1722 
L 1656 0 
L 538 0 
L 538 4863 
L 1656 4863 
L 1656 2988 
Q 1909 3294 2193 3439 
Q 2478 3584 2822 3584 
Q 3428 3584 3742 3212 
Q 4056 2841 4056 2131 
z
" transform="scale(0.015625)"/>
       <path id="DejaVuSans-Bold-74" d="M 1759 4494 
L 1759 3500 
L 2913 3500 
L 2913 2700 
L 1759 2700 
L 1759 1216 
Q 1759 972 1856 886 
Q 1953 800 2241 800 
L 2816 800 
L 2816 0 
L 1856 0 
Q 1194 0 917 276 
Q 641 553 641 1216 
L 641 2700 
L 84 2700 
L 84 3500 
L 641 3500 
L 641 4494 
L 1759 4494 
z
" transform="scale(0.015625)"/>
       <path id="DejaVuSans-Bold-20" transform="scale(0.015625)"/>
       <path id="DejaVuSans-Bold-5b" d="M 550 4863 
L 2491 4863 
L 2491 4159 
L 1613 4159 
L 1613 -141 
L 2491 -141 
L 2491 -844 
L 550 -844 
L 550 4863 
z
" transform="scale(0.015625)"/>
       <path id="DejaVuSans-Bold-6b" d="M 538 4863 
L 1656 4863 
L 1656 2216 
L 2944 3500 
L 4244 3500 
L 2534 1894 
L 4378 0 
L 3022 0 
L 1656 1459 
L 1656 0 
L 538 0 
L 538 4863 
z
" transform="scale(0.015625)"/>
       <path id="DejaVuSans-Bold-5d" d="M 2375 -844 
L 434 -844 
L 434 -141 
L 1313 -141 
L 1313 4159 
L 434 4159 
L 434 4863 
L 2375 4863 
L 2375 -844 
z
" transform="scale(0.015625)"/>
      </defs>
      <use xlink:href="#DejaVuSans-Bold-62"/>
      <use xlink:href="#DejaVuSans-Bold-6f" transform="translate(71.582031 0)"/>
      <use xlink:href="#DejaVuSans-Bold-64" transform="translate(140.283203 0)"/>
      <use xlink:href="#DejaVuSans-Bold-79" transform="translate(211.865234 0)"/>
      <use xlink:href="#DejaVuSans-Bold-77" transform="translate(277.050781 0)"/>
      <use xlink:href="#DejaVuSans-Bold-65" transform="translate(369.433594 0)"/>
      <use xlink:href="#DejaVuSans-Bold-69" transform="translate(437.255859 0)"/>
      <use xlink:href="#DejaVuSans-Bold-67" transform="translate(471.533203 0)"/>
      <use xlink:href="#DejaVuSans-Bold-68" transform="translate(543.115234 0)"/>
      <use xlink:href="#DejaVuSans-Bold-74" transform="translate(614.306641 0)"/>
      <use xlink:href="#DejaVuSans-Bold-20" transform="translate(662.109375 0)"/>
      <use xlink:href="#DejaVuSans-Bold-5b" transform="translate(696.923828 0)"/>
      <use xlink:href="#DejaVuSans-Bold-6b" transform="translate(742.626953 0)"/>
      <use xlink:href="#DejaVuSans-Bold-67" transform="translate(809.130859 0)"/>
      <use xlink:href="#DejaVuSans-Bold-5d" transform="translate(880.712891 0)"/>
     </g>
    </g>
   </g>
   <g id="matplotlib.axis_2">
    <g id="ytick_1">
     <g id="line2d_9">
      <defs>
       <path id="m43d7fa7004" d="M 0 0 
L -8 0 
" style="stroke: #000000; stroke-width: 3"/>
      </defs>
      <g>
       <use xlink:href="#m43d7fa7004" x="57.98125" y="312.215365" style="stroke: #000000; stroke-width: 3"/>
      </g>
     </g>
     <g id="text_6">
      <!-- 0.0 -->
      <g transform="translate(30.578125 316.014584) scale(0.1 -0.1)">
       <defs>
        <path id="DejaVuSans-2e" d="M 684 794 
L 1344 794 
L 1344 0 
L 684 0 
L 684 794 
z
" transform="scale(0.015625)"/>
       </defs>
       <use xlink:href="#DejaVuSans-30"/>
       <use xlink:href="#DejaVuSans-2e" transform="translate(63.623047 0)"/>
       <use xlink:href="#DejaVuSans-30" transform="translate(95.410156 0)"/>
      </g>
     </g>
    </g>
    <g id="ytick_2">
     <g id="line2d_10">
      <g>
       <use xlink:href="#m43d7fa7004" x="57.98125" y="277.118825" style="stroke: #000000; stroke-width: 3"/>
      </g>
     </g>
     <g id="text_7">
      <!-- 0.5 -->
      <g transform="translate(30.578125 280.918044) scale(0.1 -0.1)">
       <defs>
        <path id="DejaVuSans-35" d="M 691 4666 
L 3169 4666 
L 3169 4134 
L 1269 4134 
L 1269 2991 
Q 1406 3038 1543 3061 
Q 1681 3084 1819 3084 
Q 2600 3084 3056 2656 
Q 3513 2228 3513 1497 
Q 3513 744 3044 326 
Q 2575 -91 1722 -91 
Q 1428 -91 1123 -41 
Q 819 9 494 109 
L 494 744 
Q 775 591 1075 516 
Q 1375 441 1709 441 
Q 2250 441 2565 725 
Q 2881 1009 2881 1497 
Q 2881 1984 2565 2268 
Q 2250 2553 1709 2553 
Q 1456 2553 1204 2497 
Q 953 2441 691 2322 
L 691 4666 
z
" transform="scale(0.015625)"/>
       </defs>
       <use xlink:href="#DejaVuSans-30"/>
       <use xlink:href="#DejaVuSans-2e" transform="translate(63.623047 0)"/>
       <use xlink:href="#DejaVuSans-35" transform="translate(95.410156 0)"/>
      </g>
     </g>
    </g>
    <g id="ytick_3">
     <g id="line2d_11">
      <g>
       <use xlink:href="#m43d7fa7004" x="57.98125" y="242.022285" style="stroke: #000000; stroke-width: 3"/>
      </g>
     </g>
     <g id="text_8">
      <!-- 1.0 -->
      <g transform="translate(30.578125 245.821504) scale(0.1 -0.1)">
       <use xlink:href="#DejaVuSans-31"/>
       <use xlink:href="#DejaVuSans-2e" transform="translate(63.623047 0)"/>
       <use xlink:href="#DejaVuSans-30" transform="translate(95.410156 0)"/>
      </g>
     </g>
    </g>
    <g id="ytick_4">
     <g id="line2d_12">
      <g>
       <use xlink:href="#m43d7fa7004" x="57.98125" y="206.925745" style="stroke: #000000; stroke-width: 3"/>
      </g>
     </g>
     <g id="text_9">
      <!-- 1.5 -->
      <g transform="translate(30.578125 210.724964) scale(0.1 -0.1)">
       <use xlink:href="#DejaVuSans-31"/>
       <use xlink:href="#DejaVuSans-2e" transform="translate(63.623047 0)"/>
       <use xlink:href="#DejaVuSans-35" transform="translate(95.410156 0)"/>
      </g>
     </g>
    </g>
    <g id="ytick_5">
     <g id="line2d_13">
      <g>
       <use xlink:href="#m43d7fa7004" x="57.98125" y="171.829205" style="stroke: #000000; stroke-width: 3"/>
      </g>
     </g>
     <g id="text_10">
      <!-- 2.0 -->
      <g transform="translate(30.578125 175.628423) scale(0.1 -0.1)">
       <use xlink:href="#DejaVuSans-32"/>
       <use xlink:href="#DejaVuSans-2e" transform="translate(63.623047 0)"/>
       <use xlink:href="#DejaVuSans-30" transform="translate(95.410156 0)"/>
      </g>
     </g>
    </g>
    <g id="ytick_6">
     <g id="line2d_14">
      <g>
       <use xlink:href="#m43d7fa7004" x="57.98125" y="136.732664" style="stroke: #000000; stroke-width: 3"/>
      </g>
     </g>
     <g id="text_11">
      <!-- 2.5 -->
      <g transform="translate(30.578125 140.531883) scale(0.1 -0.1)">
       <use xlink:href="#DejaVuSans-32"/>
       <use xlink:href="#DejaVuSans-2e" transform="translate(63.623047 0)"/>
       <use xlink:href="#DejaVuSans-35" transform="translate(95.410156 0)"/>
      </g>
     </g>
    </g>
    <g id="ytick_7">
     <g id="line2d_15">
      <g>
       <use xlink:href="#m43d7fa7004" x="57.98125" y="101.636124" style="stroke: #000000; stroke-width: 3"/>
      </g>
     </g>
     <g id="text_12">
      <!-- 3.0 -->
      <g transform="translate(30.578125 105.435343) scale(0.1 -0.1)">
       <defs>
        <path id="DejaVuSans-33" d="M 2597 2516 
Q 3050 2419 3304 2112 
Q 3559 1806 3559 1356 
Q 3559 666 3084 287 
Q 2609 -91 1734 -91 
Q 1441 -91 1130 -33 
Q 819 25 488 141 
L 488 750 
Q 750 597 1062 519 
Q 1375 441 1716 441 
Q 2309 441 2620 675 
Q 2931 909 2931 1356 
Q 2931 1769 2642 2001 
Q 2353 2234 1838 2234 
L 1294 2234 
L 1294 2753 
L 1863 2753 
Q 2328 2753 2575 2939 
Q 2822 3125 2822 3475 
Q 2822 3834 2567 4026 
Q 2313 4219 1838 4219 
Q 1578 4219 1281 4162 
Q 984 4106 628 3988 
L 628 4550 
Q 988 4650 1302 4700 
Q 1616 4750 1894 4750 
Q 2613 4750 3031 4423 
Q 3450 4097 3450 3541 
Q 3450 3153 3228 2886 
Q 3006 2619 2597 2516 
z
" transform="scale(0.015625)"/>
       </defs>
       <use xlink:href="#DejaVuSans-33"/>
       <use xlink:href="#DejaVuSans-2e" transform="translate(63.623047 0)"/>
       <use xlink:href="#DejaVuSans-30" transform="translate(95.410156 0)"/>
      </g>
     </g>
    </g>
    <g id="ytick_8">
     <g id="line2d_16">
      <g>
       <use xlink:href="#m43d7fa7004" x="57.98125" y="66.539584" style="stroke: #000000; stroke-width: 3"/>
      </g>
     </g>
     <g id="text_13">
      <!-- 3.5 -->
      <g transform="translate(30.578125 70.338803) scale(0.1 -0.1)">
       <use xlink:href="#DejaVuSans-33"/>
       <use xlink:href="#DejaVuSans-2e" transform="translate(63.623047 0)"/>
       <use xlink:href="#DejaVuSans-35" transform="translate(95.410156 0)"/>
      </g>
     </g>
    </g>
    <g id="ytick_9">
     <g id="line2d_17">
      <g>
       <use xlink:href="#m43d7fa7004" x="57.98125" y="31.443044" style="stroke: #000000; stroke-width: 3"/>
      </g>
     </g>
     <g id="text_14">
      <!-- 4.0 -->
      <g transform="translate(30.578125 35.242262) scale(0.1 -0.1)">
       <use xlink:href="#DejaVuSans-34"/>
       <use xlink:href="#DejaVuSans-2e" transform="translate(63.623047 0)"/>
       <use xlink:href="#DejaVuSans-30" transform="translate(95.410156 0)"/>
      </g>
     </g>
    </g>
    <g id="text_15">
     <!-- AUC [µmole/l*hr] -->
     <g transform="translate(22.396875 258.32986) rotate(-90) scale(0.2 -0.2)">
      <defs>
       <path id="DejaVuSans-Bold-41" d="M 3419 850 
L 1538 850 
L 1241 0 
L 31 0 
L 1759 4666 
L 3194 4666 
L 4922 0 
L 3713 0 
L 3419 850 
z
M 1838 1716 
L 3116 1716 
L 2478 3572 
L 1838 1716 
z
" transform="scale(0.015625)"/>
       <path id="DejaVuSans-Bold-55" d="M 588 4666 
L 1791 4666 
L 1791 1869 
Q 1791 1291 1980 1042 
Q 2169 794 2597 794 
Q 3028 794 3217 1042 
Q 3406 1291 3406 1869 
L 3406 4666 
L 4609 4666 
L 4609 1869 
Q 4609 878 4112 393 
Q 3616 -91 2597 -91 
Q 1581 -91 1084 393 
Q 588 878 588 1869 
L 588 4666 
z
" transform="scale(0.015625)"/>
       <path id="DejaVuSans-Bold-43" d="M 4288 256 
Q 3956 84 3597 -3 
Q 3238 -91 2847 -91 
Q 1681 -91 1000 561 
Q 319 1213 319 2328 
Q 319 3447 1000 4098 
Q 1681 4750 2847 4750 
Q 3238 4750 3597 4662 
Q 3956 4575 4288 4403 
L 4288 3438 
Q 3953 3666 3628 3772 
Q 3303 3878 2944 3878 
Q 2300 3878 1931 3465 
Q 1563 3053 1563 2328 
Q 1563 1606 1931 1193 
Q 2300 781 2944 781 
Q 3303 781 3628 887 
Q 3953 994 4288 1222 
L 4288 256 
z
" transform="scale(0.015625)"/>
       <path id="DejaVuSans-Bold-b5" d="M 544 -1338 
L 544 3500 
L 1672 3500 
L 1672 1466 
Q 1672 1103 1828 926 
Q 1984 750 2303 750 
Q 2625 750 2781 926 
Q 2938 1103 2938 1466 
L 2938 3500 
L 4063 3500 
L 4063 1159 
Q 4063 938 4114 850 
Q 4166 763 4288 763 
Q 4344 763 4395 778 
Q 4447 794 4506 831 
L 4506 50 
Q 4341 -22 4195 -56 
Q 4050 -91 3909 -91 
Q 3631 -91 3454 26 
Q 3278 144 3169 403 
Q 3022 156 2811 32 
Q 2600 -91 2322 -91 
Q 2091 -91 1928 -17 
Q 1766 56 1672 206 
L 1672 -1338 
L 544 -1338 
z
" transform="scale(0.015625)"/>
       <path id="DejaVuSans-Bold-6d" d="M 3781 2919 
Q 3994 3244 4286 3414 
Q 4578 3584 4928 3584 
Q 5531 3584 5847 3212 
Q 6163 2841 6163 2131 
L 6163 0 
L 5038 0 
L 5038 1825 
Q 5041 1866 5042 1909 
Q 5044 1953 5044 2034 
Q 5044 2406 4934 2573 
Q 4825 2741 4581 2741 
Q 4263 2741 4089 2478 
Q 3916 2216 3909 1719 
L 3909 0 
L 2784 0 
L 2784 1825 
Q 2784 2406 2684 2573 
Q 2584 2741 2328 2741 
Q 2006 2741 1831 2477 
Q 1656 2213 1656 1722 
L 1656 0 
L 531 0 
L 531 3500 
L 1656 3500 
L 1656 2988 
Q 1863 3284 2130 3434 
Q 2397 3584 2719 3584 
Q 3081 3584 3359 3409 
Q 3638 3234 3781 2919 
z
" transform="scale(0.015625)"/>
       <path id="DejaVuSans-Bold-6c" d="M 538 4863 
L 1656 4863 
L 1656 0 
L 538 0 
L 538 4863 
z
" transform="scale(0.015625)"/>
       <path id="DejaVuSans-Bold-2f" d="M 1644 4666 
L 2338 4666 
L 691 -594 
L 0 -594 
L 1644 4666 
z
" transform="scale(0.015625)"/>
       <path id="DejaVuSans-Bold-2a" d="M 3219 3803 
L 2188 3263 
L 3219 2719 
L 2981 2278 
L 1941 2853 
L 1941 1778 
L 1409 1778 
L 1409 2853 
L 366 2278 
L 128 2719 
L 1172 3263 
L 128 3803 
L 366 4244 
L 1409 3675 
L 1409 4750 
L 1941 4750 
L 1941 3675 
L 2981 4244 
L 3219 3803 
z
" transform="scale(0.015625)"/>
       <path id="DejaVuSans-Bold-72" d="M 3138 2547 
Q 2991 2616 2845 2648 
Q 2700 2681 2553 2681 
Q 2122 2681 1889 2404 
Q 1656 2128 1656 1613 
L 1656 0 
L 538 0 
L 538 3500 
L 1656 3500 
L 1656 2925 
Q 1872 3269 2151 3426 
Q 2431 3584 2822 3584 
Q 2878 3584 2943 3579 
Q 3009 3575 3134 3559 
L 3138 2547 
z
" transform="scale(0.015625)"/>
      </defs>
      <use xlink:href="#DejaVuSans-Bold-41"/>
      <use xlink:href="#DejaVuSans-Bold-55" transform="translate(74.267578 0)"/>
      <use xlink:href="#DejaVuSans-Bold-43" transform="translate(155.46875 0)"/>
      <use xlink:href="#DejaVuSans-Bold-20" transform="translate(228.857422 0)"/>
      <use xlink:href="#DejaVuSans-Bold-5b" transform="translate(263.671875 0)"/>
      <use xlink:href="#DejaVuSans-Bold-b5" transform="translate(309.375 0)"/>
      <use xlink:href="#DejaVuSans-Bold-6d" transform="translate(382.958984 0)"/>
      <use xlink:href="#DejaVuSans-Bold-6f" transform="translate(487.158203 0)"/>
      <use xlink:href="#DejaVuSans-Bold-6c" transform="translate(555.859375 0)"/>
      <use xlink:href="#DejaVuSans-Bold-65" transform="translate(590.136719 0)"/>
      <use xlink:href="#DejaVuSans-Bold-2f" transform="translate(657.958984 0)"/>
      <use xlink:href="#DejaVuSans-Bold-6c" transform="translate(694.482422 0)"/>
      <use xlink:href="#DejaVuSans-Bold-2a" transform="translate(728.759766 0)"/>
      <use xlink:href="#DejaVuSans-Bold-68" transform="translate(781.054688 0)"/>
      <use xlink:href="#DejaVuSans-Bold-72" transform="translate(852.246094 0)"/>
      <use xlink:href="#DejaVuSans-Bold-5d" transform="translate(901.5625 0)"/>
     </g>
    </g>
   </g>
   <g id="line2d_18">
    <path d="M 212.534253 316.508894 
L 212.534253 10.694577 
" clip-path="url(#p278a927db0)" style="fill: none; stroke-dasharray: 5.55,2.4; stroke-dashoffset: 0; stroke: #808080; stroke-width: 1.5"/>
   </g>
   <g id="line2d_19">
    <path d="M 74.802461 260.363946 
L 153.354436 277.052508 
L 209.815072 285.649321 
L 212.534253 286.006643 
L 253.920616 290.900607 
L 290.119277 294.443863 
L 320.819643 296.995745 
L 347.47385 298.919889 
L 371.025292 300.421243 
L 392.121605 301.62402 
L 411.226682 302.608243 
" clip-path="url(#p278a927db0)" style="fill: none; stroke: #1f77b4; stroke-width: 2; stroke-linecap: square"/>
    <defs>
     <path id="m47df0f345e" d="M 0 4.5 
C 1.193414 4.5 2.338109 4.025852 3.181981 3.181981 
C 4.025852 2.338109 4.5 1.193414 4.5 0 
C 4.5 -1.193414 4.025852 -2.338109 3.181981 -3.181981 
C 2.338109 -4.025852 1.193414 -4.5 0 -4.5 
C -1.193414 -4.5 -2.338109 -4.025852 -3.181981 -3.181981 
C -4.025852 -2.338109 -4.5 -1.193414 -4.5 0 
C -4.5 1.193414 -4.025852 2.338109 -3.181981 3.181981 
C -2.338109 4.025852 -1.193414 4.5 0 4.5 
z
" style="stroke: #1f77b4; stroke-width: 2"/>
    </defs>
    <g clip-path="url(#p278a927db0)">
     <use xlink:href="#m47df0f345e" x="74.802461" y="260.363946" style="fill: #ffffff; stroke: #1f77b4; stroke-width: 2"/>
     <use xlink:href="#m47df0f345e" x="153.354436" y="277.052508" style="fill: #ffffff; stroke: #1f77b4; stroke-width: 2"/>
     <use xlink:href="#m47df0f345e" x="209.815072" y="285.649321" style="fill: #ffffff; stroke: #1f77b4; stroke-width: 2"/>
     <use xlink:href="#m47df0f345e" x="212.534253" y="286.006643" style="fill: #ffffff; stroke: #1f77b4; stroke-width: 2"/>
     <use xlink:href="#m47df0f345e" x="253.920616" y="290.900607" style="fill: #ffffff; stroke: #1f77b4; stroke-width: 2"/>
     <use xlink:href="#m47df0f345e" x="290.119277" y="294.443863" style="fill: #ffffff; stroke: #1f77b4; stroke-width: 2"/>
     <use xlink:href="#m47df0f345e" x="320.819643" y="296.995745" style="fill: #ffffff; stroke: #1f77b4; stroke-width: 2"/>
     <use xlink:href="#m47df0f345e" x="347.47385" y="298.919889" style="fill: #ffffff; stroke: #1f77b4; stroke-width: 2"/>
     <use xlink:href="#m47df0f345e" x="371.025292" y="300.421243" style="fill: #ffffff; stroke: #1f77b4; stroke-width: 2"/>
     <use xlink:href="#m47df0f345e" x="392.121605" y="301.62402" style="fill: #ffffff; stroke: #1f77b4; stroke-width: 2"/>
     <use xlink:href="#m47df0f345e" x="411.226682" y="302.608243" style="fill: #ffffff; stroke: #1f77b4; stroke-width: 2"/>
    </g>
   </g>
   <g id="line2d_20">
    <path d="M 212.534253 316.508894 
L 212.534253 10.694577 
" clip-path="url(#p278a927db0)" style="fill: none; stroke-dasharray: 5.55,2.4; stroke-dashoffset: 0; stroke: #808080; stroke-width: 1.5"/>
   </g>
   <g id="line2d_21">
    <path d="M 74.802461 193.339128 
L 153.354436 231.58236 
L 209.815072 251.283837 
L 212.534253 252.102947 
L 253.920616 263.321453 
L 290.119277 271.445192 
L 320.819643 277.297132 
L 347.47385 281.710753 
L 371.025292 285.154919 
L 392.121605 287.914634 
L 411.226682 290.173051 
" clip-path="url(#p278a927db0)" style="fill: none; stroke: #d62728; stroke-width: 2; stroke-linecap: square"/>
    <defs>
     <path id="m563c15e6ad" d="M 0 4.5 
C 1.193414 4.5 2.338109 4.025852 3.181981 3.181981 
C 4.025852 2.338109 4.5 1.193414 4.5 0 
C 4.5 -1.193414 4.025852 -2.338109 3.181981 -3.181981 
C 2.338109 -4.025852 1.193414 -4.5 0 -4.5 
C -1.193414 -4.5 -2.338109 -4.025852 -3.181981 -3.181981 
C -4.025852 -2.338109 -4.5 -1.193414 -4.5 0 
C -4.5 1.193414 -4.025852 2.338109 -3.181981 3.181981 
C -2.338109 4.025852 -1.193414 4.5 0 4.5 
z
" style="stroke: #d62728; stroke-width: 2"/>
    </defs>
    <g clip-path="url(#p278a927db0)">
     <use xlink:href="#m563c15e6ad" x="74.802461" y="193.339128" style="fill: #ffffff; stroke: #d62728; stroke-width: 2"/>
     <use xlink:href="#m563c15e6ad" x="153.354436" y="231.58236" style="fill: #ffffff; stroke: #d62728; stroke-width: 2"/>
     <use xlink:href="#m563c15e6ad" x="209.815072" y="251.283837" style="fill: #ffffff; stroke: #d62728; stroke-width: 2"/>
     <use xlink:href="#m563c15e6ad" x="212.534253" y="252.102947" style="fill: #ffffff; stroke: #d62728; stroke-width: 2"/>
     <use xlink:href="#m563c15e6ad" x="253.920616" y="263.321453" style="fill: #ffffff; stroke: #d62728; stroke-width: 2"/>
     <use xlink:href="#m563c15e6ad" x="290.119277" y="271.445192" style="fill: #ffffff; stroke: #d62728; stroke-width: 2"/>
     <use xlink:href="#m563c15e6ad" x="320.819643" y="277.297132" style="fill: #ffffff; stroke: #d62728; stroke-width: 2"/>
     <use xlink:href="#m563c15e6ad" x="347.47385" y="281.710753" style="fill: #ffffff; stroke: #d62728; stroke-width: 2"/>
     <use xlink:href="#m563c15e6ad" x="371.025292" y="285.154919" style="fill: #ffffff; stroke: #d62728; stroke-width: 2"/>
     <use xlink:href="#m563c15e6ad" x="392.121605" y="287.914634" style="fill: #ffffff; stroke: #d62728; stroke-width: 2"/>
     <use xlink:href="#m563c15e6ad" x="411.226682" y="290.173051" style="fill: #ffffff; stroke: #d62728; stroke-width: 2"/>
    </g>
   </g>
   <g id="line2d_22">
    <path d="M 212.534253 316.508894 
L 212.534253 10.694577 
" clip-path="url(#p278a927db0)" style="fill: none; stroke-dasharray: 5.55,2.4; stroke-dashoffset: 0; stroke: #808080; stroke-width: 1.5"/>
   </g>
   <g id="line2d_23">
    <path d="M 74.802461 24.595227 
L 153.354436 117.117674 
L 209.815072 164.712884 
L 212.534253 166.689434 
L 253.920616 193.743698 
L 290.119277 213.315541 
L 320.819643 227.410202 
L 347.47385 238.045046 
L 371.025292 246.352046 
L 392.121605 253.01742 
L 411.226682 258.480514 
" clip-path="url(#p278a927db0)" style="fill: none; stroke: #000000; stroke-width: 2; stroke-linecap: square"/>
    <defs>
     <path id="m294f257a81" d="M 0 4.5 
C 1.193414 4.5 2.338109 4.025852 3.181981 3.181981 
C 4.025852 2.338109 4.5 1.193414 4.5 0 
C 4.5 -1.193414 4.025852 -2.338109 3.181981 -3.181981 
C 2.338109 -4.025852 1.193414 -4.5 0 -4.5 
C -1.193414 -4.5 -2.338109 -4.025852 -3.181981 -3.181981 
C -4.025852 -2.338109 -4.5 -1.193414 -4.5 0 
C -4.5 1.193414 -4.025852 2.338109 -3.181981 3.181981 
C -2.338109 4.025852 -1.193414 4.5 0 4.5 
z
" style="stroke: #000000; stroke-width: 2"/>
    </defs>
    <g clip-path="url(#p278a927db0)">
     <use xlink:href="#m294f257a81" x="74.802461" y="24.595227" style="fill: #ffffff; stroke: #000000; stroke-width: 2"/>
     <use xlink:href="#m294f257a81" x="153.354436" y="117.117674" style="fill: #ffffff; stroke: #000000; stroke-width: 2"/>
     <use xlink:href="#m294f257a81" x="209.815072" y="164.712884" style="fill: #ffffff; stroke: #000000; stroke-width: 2"/>
     <use xlink:href="#m294f257a81" x="212.534253" y="166.689434" style="fill: #ffffff; stroke: #000000; stroke-width: 2"/>
     <use xlink:href="#m294f257a81" x="253.920616" y="193.743698" style="fill: #ffffff; stroke: #000000; stroke-width: 2"/>
     <use xlink:href="#m294f257a81" x="290.119277" y="213.315541" style="fill: #ffffff; stroke: #000000; stroke-width: 2"/>
     <use xlink:href="#m294f257a81" x="320.819643" y="227.410202" style="fill: #ffffff; stroke: #000000; stroke-width: 2"/>
     <use xlink:href="#m294f257a81" x="347.47385" y="238.045046" style="fill: #ffffff; stroke: #000000; stroke-width: 2"/>
     <use xlink:href="#m294f257a81" x="371.025292" y="246.352046" style="fill: #ffffff; stroke: #000000; stroke-width: 2"/>
     <use xlink:href="#m294f257a81" x="392.121605" y="253.01742" style="fill: #ffffff; stroke: #000000; stroke-width: 2"/>
     <use xlink:href="#m294f257a81" x="411.226682" y="258.480514" style="fill: #ffffff; stroke: #000000; stroke-width: 2"/>
    </g>
   </g>
   <g id="patch_3">
    <path d="M 57.98125 316.508894 
L 57.98125 10.694577 
" style="fill: none; stroke: #000000; stroke-width: 0.8; stroke-linejoin: miter; stroke-linecap: square"/>
   </g>
   <g id="patch_4">
    <path d="M 428.047893 316.508894 
L 428.047893 10.694577 
" style="fill: none; stroke: #000000; stroke-width: 0.8; stroke-linejoin: miter; stroke-linecap: square"/>
   </g>
   <g id="patch_5">
    <path d="M 57.98125 316.508894 
L 428.047893 316.508894 
" style="fill: none; stroke: #000000; stroke-width: 0.8; stroke-linejoin: miter; stroke-linecap: square"/>
   </g>
   <g id="patch_6">
    <path d="M 57.98125 10.694577 
L 428.047893 10.694577 
" style="fill: none; stroke: #000000; stroke-width: 0.8; stroke-linejoin: miter; stroke-linecap: square"/>
   </g>
   <g id="legend_1">
    <g id="patch_7">
     <path d="M 378.455081 57.525514 
L 421.747893 57.525514 
Q 423.547893 57.525514 423.547893 55.725514 
L 423.547893 16.994577 
Q 423.547893 15.194577 421.747893 15.194577 
L 378.455081 15.194577 
Q 376.655081 15.194577 376.655081 16.994577 
L 376.655081 55.725514 
Q 376.655081 57.525514 378.455081 57.525514 
z
" style="fill: #ffffff; opacity: 0.8; stroke: #cccccc; stroke-linejoin: miter"/>
    </g>
    <g id="line2d_24">
     <path d="M 380.255081 22.48317 
L 389.255081 22.48317 
L 398.255081 22.48317 
" style="fill: none; stroke: #1f77b4; stroke-width: 2; stroke-linecap: square"/>
     <g>
      <use xlink:href="#m47df0f345e" x="389.255081" y="22.48317" style="fill: #ffffff; stroke: #1f77b4; stroke-width: 2"/>
     </g>
    </g>
    <g id="text_16">
     <!-- m1 -->
     <g transform="translate(405.455081 25.63317) scale(0.09 -0.09)">
      <defs>
       <path id="DejaVuSans-6d" d="M 3328 2828 
Q 3544 3216 3844 3400 
Q 4144 3584 4550 3584 
Q 5097 3584 5394 3201 
Q 5691 2819 5691 2113 
L 5691 0 
L 5113 0 
L 5113 2094 
Q 5113 2597 4934 2840 
Q 4756 3084 4391 3084 
Q 3944 3084 3684 2787 
Q 3425 2491 3425 1978 
L 3425 0 
L 2847 0 
L 2847 2094 
Q 2847 2600 2669 2842 
Q 2491 3084 2119 3084 
Q 1678 3084 1418 2786 
Q 1159 2488 1159 1978 
L 1159 0 
L 581 0 
L 581 3500 
L 1159 3500 
L 1159 2956 
Q 1356 3278 1631 3431 
Q 1906 3584 2284 3584 
Q 2666 3584 2933 3390 
Q 3200 3197 3328 2828 
z
" transform="scale(0.015625)"/>
      </defs>
      <use xlink:href="#DejaVuSans-6d"/>
      <use xlink:href="#DejaVuSans-31" transform="translate(97.412109 0)"/>
     </g>
    </g>
    <g id="line2d_25">
     <path d="M 380.255081 35.693483 
L 389.255081 35.693483 
L 398.255081 35.693483 
" style="fill: none; stroke: #d62728; stroke-width: 2; stroke-linecap: square"/>
     <g>
      <use xlink:href="#m563c15e6ad" x="389.255081" y="35.693483" style="fill: #ffffff; stroke: #d62728; stroke-width: 2"/>
     </g>
    </g>
    <g id="text_17">
     <!-- m7 -->
     <g transform="translate(405.455081 38.843483) scale(0.09 -0.09)">
      <defs>
       <path id="DejaVuSans-37" d="M 525 4666 
L 3525 4666 
L 3525 4397 
L 1831 0 
L 1172 0 
L 2766 4134 
L 525 4134 
L 525 4666 
z
" transform="scale(0.015625)"/>
      </defs>
      <use xlink:href="#DejaVuSans-6d"/>
      <use xlink:href="#DejaVuSans-37" transform="translate(97.412109 0)"/>
     </g>
    </g>
    <g id="line2d_26">
     <path d="M 380.255081 48.903795 
L 389.255081 48.903795 
L 398.255081 48.903795 
" style="fill: none; stroke: #000000; stroke-width: 2; stroke-linecap: square"/>
     <g>
      <use xlink:href="#m294f257a81" x="389.255081" y="48.903795" style="fill: #ffffff; stroke: #000000; stroke-width: 2"/>
     </g>
    </g>
    <g id="text_18">
     <!-- api -->
     <g transform="translate(405.455081 52.053795) scale(0.09 -0.09)">
      <defs>
       <path id="DejaVuSans-61" d="M 2194 1759 
Q 1497 1759 1228 1600 
Q 959 1441 959 1056 
Q 959 750 1161 570 
Q 1363 391 1709 391 
Q 2188 391 2477 730 
Q 2766 1069 2766 1631 
L 2766 1759 
L 2194 1759 
z
M 3341 1997 
L 3341 0 
L 2766 0 
L 2766 531 
Q 2569 213 2275 61 
Q 1981 -91 1556 -91 
Q 1019 -91 701 211 
Q 384 513 384 1019 
Q 384 1609 779 1909 
Q 1175 2209 1959 2209 
L 2766 2209 
L 2766 2266 
Q 2766 2663 2505 2880 
Q 2244 3097 1772 3097 
Q 1472 3097 1187 3025 
Q 903 2953 641 2809 
L 641 3341 
Q 956 3463 1253 3523 
Q 1550 3584 1831 3584 
Q 2591 3584 2966 3190 
Q 3341 2797 3341 1997 
z
" transform="scale(0.015625)"/>
       <path id="DejaVuSans-70" d="M 1159 525 
L 1159 -1331 
L 581 -1331 
L 581 3500 
L 1159 3500 
L 1159 2969 
Q 1341 3281 1617 3432 
Q 1894 3584 2278 3584 
Q 2916 3584 3314 3078 
Q 3713 2572 3713 1747 
Q 3713 922 3314 415 
Q 2916 -91 2278 -91 
Q 1894 -91 1617 61 
Q 1341 213 1159 525 
z
M 3116 1747 
Q 3116 2381 2855 2742 
Q 2594 3103 2138 3103 
Q 1681 3103 1420 2742 
Q 1159 2381 1159 1747 
Q 1159 1113 1420 752 
Q 1681 391 2138 391 
Q 2594 391 2855 752 
Q 3116 1113 3116 1747 
z
" transform="scale(0.015625)"/>
       <path id="DejaVuSans-69" d="M 603 3500 
L 1178 3500 
L 1178 0 
L 603 0 
L 603 3500 
z
M 603 4863 
L 1178 4863 
L 1178 4134 
L 603 4134 
L 603 4863 
z
" transform="scale(0.015625)"/>
      </defs>
      <use xlink:href="#DejaVuSans-61"/>
      <use xlink:href="#DejaVuSans-70" transform="translate(61.279297 0)"/>
      <use xlink:href="#DejaVuSans-69" transform="translate(124.755859 0)"/>
     </g>
    </g>
   </g>
  </g>
  <g id="axes_2">
   <g id="patch_8">
    <path d="M 495.110048 316.508894 
L 865.176691 316.508894 
L 865.176691 10.694577 
L 495.110048 10.694577 
z
" style="fill: #ffffff"/>
   </g>
   <g id="matplotlib.axis_3">
    <g id="xtick_9">
     <g id="line2d_27">
      <g>
       <use xlink:href="#m04a55311e0" x="707.940524" y="316.508894" style="stroke: #000000; stroke-width: 3"/>
      </g>
     </g>
     <g id="text_19">
      <!-- $\mathdefault{10^{2}}$ -->
      <g transform="translate(699.140524 335.607332) scale(0.1 -0.1)">
       <use xlink:href="#DejaVuSans-31" transform="translate(0 0.765625)"/>
       <use xlink:href="#DejaVuSans-30" transform="translate(63.623047 0.765625)"/>
       <use xlink:href="#DejaVuSans-32" transform="translate(128.203125 39.046875) scale(0.7)"/>
      </g>
     </g>
    </g>
    <g id="xtick_10">
     <g id="line2d_28">
      <g>
       <use xlink:href="#m928a6e5b3e" x="522.322048" y="316.508894" style="stroke: #000000; stroke-width: 0.6"/>
      </g>
     </g>
     <g id="text_20">
      <!-- $\mathdefault{4\times10^{1}}$ -->
      <g transform="translate(504.222048 329.507332) scale(0.1 -0.1)">
       <use xlink:href="#DejaVuSans-34" transform="translate(0 0.684375)"/>
       <use xlink:href="#DejaVuSans-d7" transform="translate(83.105469 0.684375)"/>
       <use xlink:href="#DejaVuSans-31" transform="translate(186.376953 0.684375)"/>
       <use xlink:href="#DejaVuSans-30" transform="translate(250 0.684375)"/>
       <use xlink:href="#DejaVuSans-31" transform="translate(314.580078 38.965625) scale(0.7)"/>
      </g>
     </g>
    </g>
    <g id="xtick_11">
     <g id="line2d_29">
      <g>
       <use xlink:href="#m928a6e5b3e" x="567.525567" y="316.508894" style="stroke: #000000; stroke-width: 0.6"/>
      </g>
     </g>
    </g>
    <g id="xtick_12">
     <g id="line2d_30">
      <g>
       <use xlink:href="#m928a6e5b3e" x="604.459532" y="316.508894" style="stroke: #000000; stroke-width: 0.6"/>
      </g>
     </g>
     <g id="text_21">
      <!-- $\mathdefault{6\times10^{1}}$ -->
      <g transform="translate(586.359532 329.507332) scale(0.1 -0.1)">
       <use xlink:href="#DejaVuSans-36" transform="translate(0 0.684375)"/>
       <use xlink:href="#DejaVuSans-d7" transform="translate(83.105469 0.684375)"/>
       <use xlink:href="#DejaVuSans-31" transform="translate(186.376953 0.684375)"/>
       <use xlink:href="#DejaVuSans-30" transform="translate(250 0.684375)"/>
       <use xlink:href="#DejaVuSans-31" transform="translate(314.580078 38.965625) scale(0.7)"/>
      </g>
     </g>
    </g>
    <g id="xtick_13">
     <g id="line2d_31">
      <g>
       <use xlink:href="#m928a6e5b3e" x="635.686754" y="316.508894" style="stroke: #000000; stroke-width: 0.6"/>
      </g>
     </g>
    </g>
    <g id="xtick_14">
     <g id="line2d_32">
      <g>
       <use xlink:href="#m928a6e5b3e" x="662.737004" y="316.508894" style="stroke: #000000; stroke-width: 0.6"/>
      </g>
     </g>
    </g>
    <g id="xtick_15">
     <g id="line2d_33">
      <g>
       <use xlink:href="#m928a6e5b3e" x="686.597016" y="316.508894" style="stroke: #000000; stroke-width: 0.6"/>
      </g>
     </g>
    </g>
    <g id="xtick_16">
     <g id="line2d_34">
      <g>
       <use xlink:href="#m928a6e5b3e" x="848.35548" y="316.508894" style="stroke: #000000; stroke-width: 0.6"/>
      </g>
     </g>
     <g id="text_22">
      <!-- $\mathdefault{2\times10^{2}}$ -->
      <g transform="translate(830.25548 329.507332) scale(0.1 -0.1)">
       <use xlink:href="#DejaVuSans-32" transform="translate(0 0.765625)"/>
       <use xlink:href="#DejaVuSans-d7" transform="translate(83.105469 0.765625)"/>
       <use xlink:href="#DejaVuSans-31" transform="translate(186.376953 0.765625)"/>
       <use xlink:href="#DejaVuSans-30" transform="translate(250 0.765625)"/>
       <use xlink:href="#DejaVuSans-32" transform="translate(314.580078 39.046875) scale(0.7)"/>
      </g>
     </g>
    </g>
    <g id="text_23">
     <!-- bodyweight [kg] -->
     <g transform="translate(587.502745 356.883894) scale(0.2 -0.2)">
      <use xlink:href="#DejaVuSans-Bold-62"/>
      <use xlink:href="#DejaVuSans-Bold-6f" transform="translate(71.582031 0)"/>
      <use xlink:href="#DejaVuSans-Bold-64" transform="translate(140.283203 0)"/>
      <use xlink:href="#DejaVuSans-Bold-79" transform="translate(211.865234 0)"/>
      <use xlink:href="#DejaVuSans-Bold-77" transform="translate(277.050781 0)"/>
      <use xlink:href="#DejaVuSans-Bold-65" transform="translate(369.433594 0)"/>
      <use xlink:href="#DejaVuSans-Bold-69" transform="translate(437.255859 0)"/>
      <use xlink:href="#DejaVuSans-Bold-67" transform="translate(471.533203 0)"/>
      <use xlink:href="#DejaVuSans-Bold-68" transform="translate(543.115234 0)"/>
      <use xlink:href="#DejaVuSans-Bold-74" transform="translate(614.306641 0)"/>
      <use xlink:href="#DejaVuSans-Bold-20" transform="translate(662.109375 0)"/>
      <use xlink:href="#DejaVuSans-Bold-5b" transform="translate(696.923828 0)"/>
      <use xlink:href="#DejaVuSans-Bold-6b" transform="translate(742.626953 0)"/>
      <use xlink:href="#DejaVuSans-Bold-67" transform="translate(809.130859 0)"/>
      <use xlink:href="#DejaVuSans-Bold-5d" transform="translate(880.712891 0)"/>
     </g>
    </g>
   </g>
   <g id="matplotlib.axis_4">
    <g id="ytick_10">
     <g id="line2d_35">
      <g>
       <use xlink:href="#m43d7fa7004" x="495.110048" y="311.232946" style="stroke: #000000; stroke-width: 3"/>
      </g>
     </g>
     <g id="text_24">
      <!-- 0.00 -->
      <g transform="translate(461.344423 315.032165) scale(0.1 -0.1)">
       <use xlink:href="#DejaVuSans-30"/>
       <use xlink:href="#DejaVuSans-2e" transform="translate(63.623047 0)"/>
       <use xlink:href="#DejaVuSans-30" transform="translate(95.410156 0)"/>
       <use xlink:href="#DejaVuSans-30" transform="translate(159.033203 0)"/>
      </g>
     </g>
    </g>
    <g id="ytick_11">
     <g id="line2d_36">
      <g>
       <use xlink:href="#m43d7fa7004" x="495.110048" y="253.301276" style="stroke: #000000; stroke-width: 3"/>
      </g>
     </g>
     <g id="text_25">
      <!-- 0.05 -->
      <g transform="translate(461.344423 257.100495) scale(0.1 -0.1)">
       <use xlink:href="#DejaVuSans-30"/>
       <use xlink:href="#DejaVuSans-2e" transform="translate(63.623047 0)"/>
       <use xlink:href="#DejaVuSans-30" transform="translate(95.410156 0)"/>
       <use xlink:href="#DejaVuSans-35" transform="translate(159.033203 0)"/>
      </g>
     </g>
    </g>
    <g id="ytick_12">
     <g id="line2d_37">
      <g>
       <use xlink:href="#m43d7fa7004" x="495.110048" y="195.369606" style="stroke: #000000; stroke-width: 3"/>
      </g>
     </g>
     <g id="text_26">
      <!-- 0.10 -->
      <g transform="translate(461.344423 199.168825) scale(0.1 -0.1)">
       <use xlink:href="#DejaVuSans-30"/>
       <use xlink:href="#DejaVuSans-2e" transform="translate(63.623047 0)"/>
       <use xlink:href="#DejaVuSans-31" transform="translate(95.410156 0)"/>
       <use xlink:href="#DejaVuSans-30" transform="translate(159.033203 0)"/>
      </g>
     </g>
    </g>
    <g id="ytick_13">
     <g id="line2d_38">
      <g>
       <use xlink:href="#m43d7fa7004" x="495.110048" y="137.437936" style="stroke: #000000; stroke-width: 3"/>
      </g>
     </g>
     <g id="text_27">
      <!-- 0.15 -->
      <g transform="translate(461.344423 141.237155) scale(0.1 -0.1)">
       <use xlink:href="#DejaVuSans-30"/>
       <use xlink:href="#DejaVuSans-2e" transform="translate(63.623047 0)"/>
       <use xlink:href="#DejaVuSans-31" transform="translate(95.410156 0)"/>
       <use xlink:href="#DejaVuSans-35" transform="translate(159.033203 0)"/>
      </g>
     </g>
    </g>
    <g id="ytick_14">
     <g id="line2d_39">
      <g>
       <use xlink:href="#m43d7fa7004" x="495.110048" y="79.506266" style="stroke: #000000; stroke-width: 3"/>
      </g>
     </g>
     <g id="text_28">
      <!-- 0.20 -->
      <g transform="translate(461.344423 83.305485) scale(0.1 -0.1)">
       <use xlink:href="#DejaVuSans-30"/>
       <use xlink:href="#DejaVuSans-2e" transform="translate(63.623047 0)"/>
       <use xlink:href="#DejaVuSans-32" transform="translate(95.410156 0)"/>
       <use xlink:href="#DejaVuSans-30" transform="translate(159.033203 0)"/>
      </g>
     </g>
    </g>
    <g id="ytick_15">
     <g id="line2d_40">
      <g>
       <use xlink:href="#m43d7fa7004" x="495.110048" y="21.574596" style="stroke: #000000; stroke-width: 3"/>
      </g>
     </g>
     <g id="text_29">
      <!-- 0.25 -->
      <g transform="translate(461.344423 25.373815) scale(0.1 -0.1)">
       <use xlink:href="#DejaVuSans-30"/>
       <use xlink:href="#DejaVuSans-2e" transform="translate(63.623047 0)"/>
       <use xlink:href="#DejaVuSans-32" transform="translate(95.410156 0)"/>
       <use xlink:href="#DejaVuSans-35" transform="translate(159.033203 0)"/>
      </g>
     </g>
    </g>
    <g id="text_30">
     <!-- Cmax [µmole/l] -->
     <g transform="translate(453.163173 249.122048) rotate(-90) scale(0.2 -0.2)">
      <defs>
       <path id="DejaVuSans-Bold-61" d="M 2106 1575 
Q 1756 1575 1579 1456 
Q 1403 1338 1403 1106 
Q 1403 894 1545 773 
Q 1688 653 1941 653 
Q 2256 653 2472 879 
Q 2688 1106 2688 1447 
L 2688 1575 
L 2106 1575 
z
M 3816 1997 
L 3816 0 
L 2688 0 
L 2688 519 
Q 2463 200 2181 54 
Q 1900 -91 1497 -91 
Q 953 -91 614 226 
Q 275 544 275 1050 
Q 275 1666 698 1953 
Q 1122 2241 2028 2241 
L 2688 2241 
L 2688 2328 
Q 2688 2594 2478 2717 
Q 2269 2841 1825 2841 
Q 1466 2841 1156 2769 
Q 847 2697 581 2553 
L 581 3406 
Q 941 3494 1303 3539 
Q 1666 3584 2028 3584 
Q 2975 3584 3395 3211 
Q 3816 2838 3816 1997 
z
" transform="scale(0.015625)"/>
       <path id="DejaVuSans-Bold-78" d="M 1422 1791 
L 159 3500 
L 1344 3500 
L 2059 2463 
L 2784 3500 
L 3969 3500 
L 2706 1797 
L 4031 0 
L 2847 0 
L 2059 1106 
L 1281 0 
L 97 0 
L 1422 1791 
z
" transform="scale(0.015625)"/>
      </defs>
      <use xlink:href="#DejaVuSans-Bold-43"/>
      <use xlink:href="#DejaVuSans-Bold-6d" transform="translate(73.388672 0)"/>
      <use xlink:href="#DejaVuSans-Bold-61" transform="translate(177.587891 0)"/>
      <use xlink:href="#DejaVuSans-Bold-78" transform="translate(245.068359 0)"/>
      <use xlink:href="#DejaVuSans-Bold-20" transform="translate(309.570312 0)"/>
      <use xlink:href="#DejaVuSans-Bold-5b" transform="translate(344.384766 0)"/>
      <use xlink:href="#DejaVuSans-Bold-b5" transform="translate(390.087891 0)"/>
      <use xlink:href="#DejaVuSans-Bold-6d" transform="translate(463.671875 0)"/>
      <use xlink:href="#DejaVuSans-Bold-6f" transform="translate(567.871094 0)"/>
      <use xlink:href="#DejaVuSans-Bold-6c" transform="translate(636.572266 0)"/>
      <use xlink:href="#DejaVuSans-Bold-65" transform="translate(670.849609 0)"/>
      <use xlink:href="#DejaVuSans-Bold-2f" transform="translate(738.671875 0)"/>
      <use xlink:href="#DejaVuSans-Bold-6c" transform="translate(775.195312 0)"/>
      <use xlink:href="#DejaVuSans-Bold-5d" transform="translate(809.472656 0)"/>
     </g>
    </g>
   </g>
   <g id="line2d_41">
    <path d="M 649.663051 316.508894 
L 649.663051 10.694577 
" clip-path="url(#p5c643dd9d7)" style="fill: none; stroke-dasharray: 5.55,2.4; stroke-dashoffset: 0; stroke: #808080; stroke-width: 1.5"/>
   </g>
   <g id="line2d_42">
    <path d="M 511.931259 273.030609 
L 590.483235 284.988259 
L 646.94387 290.921056 
L 649.663051 291.164343 
L 691.049414 294.4798 
L 727.248075 296.877905 
L 757.948441 298.621286 
L 784.602649 299.956262 
L 808.154091 301.017281 
L 829.250404 301.884321 
L 848.35548 302.608243 
" clip-path="url(#p5c643dd9d7)" style="fill: none; stroke: #1f77b4; stroke-width: 2; stroke-linecap: square"/>
    <g clip-path="url(#p5c643dd9d7)">
     <use xlink:href="#m47df0f345e" x="511.931259" y="273.030609" style="fill: #ffffff; stroke: #1f77b4; stroke-width: 2"/>
     <use xlink:href="#m47df0f345e" x="590.483235" y="284.988259" style="fill: #ffffff; stroke: #1f77b4; stroke-width: 2"/>
     <use xlink:href="#m47df0f345e" x="646.94387" y="290.921056" style="fill: #ffffff; stroke: #1f77b4; stroke-width: 2"/>
     <use xlink:href="#m47df0f345e" x="649.663051" y="291.164343" style="fill: #ffffff; stroke: #1f77b4; stroke-width: 2"/>
     <use xlink:href="#m47df0f345e" x="691.049414" y="294.4798" style="fill: #ffffff; stroke: #1f77b4; stroke-width: 2"/>
     <use xlink:href="#m47df0f345e" x="727.248075" y="296.877905" style="fill: #ffffff; stroke: #1f77b4; stroke-width: 2"/>
     <use xlink:href="#m47df0f345e" x="757.948441" y="298.621286" style="fill: #ffffff; stroke: #1f77b4; stroke-width: 2"/>
     <use xlink:href="#m47df0f345e" x="784.602649" y="299.956262" style="fill: #ffffff; stroke: #1f77b4; stroke-width: 2"/>
     <use xlink:href="#m47df0f345e" x="808.154091" y="301.017281" style="fill: #ffffff; stroke: #1f77b4; stroke-width: 2"/>
     <use xlink:href="#m47df0f345e" x="829.250404" y="301.884321" style="fill: #ffffff; stroke: #1f77b4; stroke-width: 2"/>
     <use xlink:href="#m47df0f345e" x="848.35548" y="302.608243" style="fill: #ffffff; stroke: #1f77b4; stroke-width: 2"/>
    </g>
   </g>
   <g id="line2d_43">
    <path d="M 649.663051 316.508894 
L 649.663051 10.694577 
" clip-path="url(#p5c643dd9d7)" style="fill: none; stroke-dasharray: 5.55,2.4; stroke-dashoffset: 0; stroke: #808080; stroke-width: 1.5"/>
   </g>
   <g id="line2d_44">
    <path d="M 511.931259 228.000514 
L 590.483235 254.243484 
L 646.94387 267.224382 
L 649.663051 267.755231 
L 691.049414 274.974249 
L 727.248075 280.177371 
L 757.948441 283.951698 
L 784.602649 286.838538 
L 808.154091 289.131707 
L 829.250404 291.005278 
L 848.35548 292.569571 
" clip-path="url(#p5c643dd9d7)" style="fill: none; stroke: #d62728; stroke-width: 2; stroke-linecap: square"/>
    <g clip-path="url(#p5c643dd9d7)">
     <use xlink:href="#m563c15e6ad" x="511.931259" y="228.000514" style="fill: #ffffff; stroke: #d62728; stroke-width: 2"/>
     <use xlink:href="#m563c15e6ad" x="590.483235" y="254.243484" style="fill: #ffffff; stroke: #d62728; stroke-width: 2"/>
     <use xlink:href="#m563c15e6ad" x="646.94387" y="267.224382" style="fill: #ffffff; stroke: #d62728; stroke-width: 2"/>
     <use xlink:href="#m563c15e6ad" x="649.663051" y="267.755231" style="fill: #ffffff; stroke: #d62728; stroke-width: 2"/>
     <use xlink:href="#m563c15e6ad" x="691.049414" y="274.974249" style="fill: #ffffff; stroke: #d62728; stroke-width: 2"/>
     <use xlink:href="#m563c15e6ad" x="727.248075" y="280.177371" style="fill: #ffffff; stroke: #d62728; stroke-width: 2"/>
     <use xlink:href="#m563c15e6ad" x="757.948441" y="283.951698" style="fill: #ffffff; stroke: #d62728; stroke-width: 2"/>
     <use xlink:href="#m563c15e6ad" x="784.602649" y="286.838538" style="fill: #ffffff; stroke: #d62728; stroke-width: 2"/>
     <use xlink:href="#m563c15e6ad" x="808.154091" y="289.131707" style="fill: #ffffff; stroke: #d62728; stroke-width: 2"/>
     <use xlink:href="#m563c15e6ad" x="829.250404" y="291.005278" style="fill: #ffffff; stroke: #d62728; stroke-width: 2"/>
     <use xlink:href="#m563c15e6ad" x="848.35548" y="292.569571" style="fill: #ffffff; stroke: #d62728; stroke-width: 2"/>
    </g>
   </g>
   <g id="line2d_45">
    <path d="M 649.663051 316.508894 
L 649.663051 10.694577 
" clip-path="url(#p5c643dd9d7)" style="fill: none; stroke-dasharray: 5.55,2.4; stroke-dashoffset: 0; stroke: #808080; stroke-width: 1.5"/>
   </g>
   <g id="line2d_46">
    <path d="M 511.931259 24.595227 
L 590.483235 96.301335 
L 646.94387 135.683253 
L 649.663051 137.404608 
L 691.049414 161.899658 
L 727.248075 180.921733 
L 757.948441 195.463843 
L 784.602649 206.990241 
L 808.154091 216.372653 
L 829.250404 224.171108 
L 848.35548 230.762794 
" clip-path="url(#p5c643dd9d7)" style="fill: none; stroke: #000000; stroke-width: 2; stroke-linecap: square"/>
    <g clip-path="url(#p5c643dd9d7)">
     <use xlink:href="#m294f257a81" x="511.931259" y="24.595227" style="fill: #ffffff; stroke: #000000; stroke-width: 2"/>
     <use xlink:href="#m294f257a81" x="590.483235" y="96.301335" style="fill: #ffffff; stroke: #000000; stroke-width: 2"/>
     <use xlink:href="#m294f257a81" x="646.94387" y="135.683253" style="fill: #ffffff; stroke: #000000; stroke-width: 2"/>
     <use xlink:href="#m294f257a81" x="649.663051" y="137.404608" style="fill: #ffffff; stroke: #000000; stroke-width: 2"/>
     <use xlink:href="#m294f257a81" x="691.049414" y="161.899658" style="fill: #ffffff; stroke: #000000; stroke-width: 2"/>
     <use xlink:href="#m294f257a81" x="727.248075" y="180.921733" style="fill: #ffffff; stroke: #000000; stroke-width: 2"/>
     <use xlink:href="#m294f257a81" x="757.948441" y="195.463843" style="fill: #ffffff; stroke: #000000; stroke-width: 2"/>
     <use xlink:href="#m294f257a81" x="784.602649" y="206.990241" style="fill: #ffffff; stroke: #000000; stroke-width: 2"/>
     <use xlink:href="#m294f257a81" x="808.154091" y="216.372653" style="fill: #ffffff; stroke: #000000; stroke-width: 2"/>
     <use xlink:href="#m294f257a81" x="829.250404" y="224.171108" style="fill: #ffffff; stroke: #000000; stroke-width: 2"/>
     <use xlink:href="#m294f257a81" x="848.35548" y="230.762794" style="fill: #ffffff; stroke: #000000; stroke-width: 2"/>
    </g>
   </g>
   <g id="patch_9">
    <path d="M 495.110048 316.508894 
L 495.110048 10.694577 
" style="fill: none; stroke: #000000; stroke-width: 0.8; stroke-linejoin: miter; stroke-linecap: square"/>
   </g>
   <g id="patch_10">
    <path d="M 865.176691 316.508894 
L 865.176691 10.694577 
" style="fill: none; stroke: #000000; stroke-width: 0.8; stroke-linejoin: miter; stroke-linecap: square"/>
   </g>
   <g id="patch_11">
    <path d="M 495.110048 316.508894 
L 865.176691 316.508894 
" style="fill: none; stroke: #000000; stroke-width: 0.8; stroke-linejoin: miter; stroke-linecap: square"/>
   </g>
   <g id="patch_12">
    <path d="M 495.110048 10.694577 
L 865.176691 10.694577 
" style="fill: none; stroke: #000000; stroke-width: 0.8; stroke-linejoin: miter; stroke-linecap: square"/>
   </g>
   <g id="legend_2">
    <g id="patch_13">
     <path d="M 815.583879 57.525514 
L 858.876691 57.525514 
Q 860.676691 57.525514 860.676691 55.725514 
L 860.676691 16.994577 
Q 860.676691 15.194577 858.876691 15.194577 
L 815.583879 15.194577 
Q 813.783879 15.194577 813.783879 16.994577 
L 813.783879 55.725514 
Q 813.783879 57.525514 815.583879 57.525514 
z
" style="fill: #ffffff; opacity: 0.8; stroke: #cccccc; stroke-linejoin: miter"/>
    </g>
    <g id="line2d_47">
     <path d="M 817.383879 22.48317 
L 826.383879 22.48317 
L 835.383879 22.48317 
" style="fill: none; stroke: #1f77b4; stroke-width: 2; stroke-linecap: square"/>
     <g>
      <use xlink:href="#m47df0f345e" x="826.383879" y="22.48317" style="fill: #ffffff; stroke: #1f77b4; stroke-width: 2"/>
     </g>
    </g>
    <g id="text_31">
     <!-- m1 -->
     <g transform="translate(842.583879 25.63317) scale(0.09 -0.09)">
      <use xlink:href="#DejaVuSans-6d"/>
      <use xlink:href="#DejaVuSans-31" transform="translate(97.412109 0)"/>
     </g>
    </g>
    <g id="line2d_48">
     <path d="M 817.383879 35.693483 
L 826.383879 35.693483 
L 835.383879 35.693483 
" style="fill: none; stroke: #d62728; stroke-width: 2; stroke-linecap: square"/>
     <g>
      <use xlink:href="#m563c15e6ad" x="826.383879" y="35.693483" style="fill: #ffffff; stroke: #d62728; stroke-width: 2"/>
     </g>
    </g>
    <g id="text_32">
     <!-- m7 -->
     <g transform="translate(842.583879 38.843483) scale(0.09 -0.09)">
      <use xlink:href="#DejaVuSans-6d"/>
      <use xlink:href="#DejaVuSans-37" transform="translate(97.412109 0)"/>
     </g>
    </g>
    <g id="line2d_49">
     <path d="M 817.383879 48.903795 
L 826.383879 48.903795 
L 835.383879 48.903795 
" style="fill: none; stroke: #000000; stroke-width: 2; stroke-linecap: square"/>
     <g>
      <use xlink:href="#m294f257a81" x="826.383879" y="48.903795" style="fill: #ffffff; stroke: #000000; stroke-width: 2"/>
     </g>
    </g>
    <g id="text_33">
     <!-- api -->
     <g transform="translate(842.583879 52.053795) scale(0.09 -0.09)">
      <use xlink:href="#DejaVuSans-61"/>
      <use xlink:href="#DejaVuSans-70" transform="translate(61.279297 0)"/>
      <use xlink:href="#DejaVuSans-69" transform="translate(124.755859 0)"/>
     </g>
    </g>
   </g>
  </g>
  <g id="axes_3">
   <g id="patch_14">
    <path d="M 925.854472 316.508894 
L 1295.921115 316.508894 
L 1295.921115 10.694577 
L 925.854472 10.694577 
z
" style="fill: #ffffff"/>
   </g>
   <g id="matplotlib.axis_5">
    <g id="xtick_17">
     <g id="line2d_50">
      <g>
       <use xlink:href="#m04a55311e0" x="1138.684947" y="316.508894" style="stroke: #000000; stroke-width: 3"/>
      </g>
     </g>
     <g id="text_34">
      <!-- $\mathdefault{10^{2}}$ -->
      <g transform="translate(1129.884947 335.607332) scale(0.1 -0.1)">
       <use xlink:href="#DejaVuSans-31" transform="translate(0 0.765625)"/>
       <use xlink:href="#DejaVuSans-30" transform="translate(63.623047 0.765625)"/>
       <use xlink:href="#DejaVuSans-32" transform="translate(128.203125 39.046875) scale(0.7)"/>
      </g>
     </g>
    </g>
    <g id="xtick_18">
     <g id="line2d_51">
      <g>
       <use xlink:href="#m928a6e5b3e" x="953.066471" y="316.508894" style="stroke: #000000; stroke-width: 0.6"/>
      </g>
     </g>
     <g id="text_35">
      <!-- $\mathdefault{4\times10^{1}}$ -->
      <g transform="translate(934.966471 329.507332) scale(0.1 -0.1)">
       <use xlink:href="#DejaVuSans-34" transform="translate(0 0.684375)"/>
       <use xlink:href="#DejaVuSans-d7" transform="translate(83.105469 0.684375)"/>
       <use xlink:href="#DejaVuSans-31" transform="translate(186.376953 0.684375)"/>
       <use xlink:href="#DejaVuSans-30" transform="translate(250 0.684375)"/>
       <use xlink:href="#DejaVuSans-31" transform="translate(314.580078 38.965625) scale(0.7)"/>
      </g>
     </g>
    </g>
    <g id="xtick_19">
     <g id="line2d_52">
      <g>
       <use xlink:href="#m928a6e5b3e" x="998.269991" y="316.508894" style="stroke: #000000; stroke-width: 0.6"/>
      </g>
     </g>
    </g>
    <g id="xtick_20">
     <g id="line2d_53">
      <g>
       <use xlink:href="#m928a6e5b3e" x="1035.203955" y="316.508894" style="stroke: #000000; stroke-width: 0.6"/>
      </g>
     </g>
     <g id="text_36">
      <!-- $\mathdefault{6\times10^{1}}$ -->
      <g transform="translate(1017.103955 329.507332) scale(0.1 -0.1)">
       <use xlink:href="#DejaVuSans-36" transform="translate(0 0.684375)"/>
       <use xlink:href="#DejaVuSans-d7" transform="translate(83.105469 0.684375)"/>
       <use xlink:href="#DejaVuSans-31" transform="translate(186.376953 0.684375)"/>
       <use xlink:href="#DejaVuSans-30" transform="translate(250 0.684375)"/>
       <use xlink:href="#DejaVuSans-31" transform="translate(314.580078 38.965625) scale(0.7)"/>
      </g>
     </g>
    </g>
    <g id="xtick_21">
     <g id="line2d_54">
      <g>
       <use xlink:href="#m928a6e5b3e" x="1066.431177" y="316.508894" style="stroke: #000000; stroke-width: 0.6"/>
      </g>
     </g>
    </g>
    <g id="xtick_22">
     <g id="line2d_55">
      <g>
       <use xlink:href="#m928a6e5b3e" x="1093.481428" y="316.508894" style="stroke: #000000; stroke-width: 0.6"/>
      </g>
     </g>
    </g>
    <g id="xtick_23">
     <g id="line2d_56">
      <g>
       <use xlink:href="#m928a6e5b3e" x="1117.341439" y="316.508894" style="stroke: #000000; stroke-width: 0.6"/>
      </g>
     </g>
    </g>
    <g id="xtick_24">
     <g id="line2d_57">
      <g>
       <use xlink:href="#m928a6e5b3e" x="1279.099904" y="316.508894" style="stroke: #000000; stroke-width: 0.6"/>
      </g>
     </g>
     <g id="text_37">
      <!-- $\mathdefault{2\times10^{2}}$ -->
      <g transform="translate(1260.999904 329.507332) scale(0.1 -0.1)">
       <use xlink:href="#DejaVuSans-32" transform="translate(0 0.765625)"/>
       <use xlink:href="#DejaVuSans-d7" transform="translate(83.105469 0.765625)"/>
       <use xlink:href="#DejaVuSans-31" transform="translate(186.376953 0.765625)"/>
       <use xlink:href="#DejaVuSans-30" transform="translate(250 0.765625)"/>
       <use xlink:href="#DejaVuSans-32" transform="translate(314.580078 39.046875) scale(0.7)"/>
      </g>
     </g>
    </g>
    <g id="text_38">
     <!-- bodyweight [kg] -->
     <g transform="translate(1018.247168 356.883894) scale(0.2 -0.2)">
      <use xlink:href="#DejaVuSans-Bold-62"/>
      <use xlink:href="#DejaVuSans-Bold-6f" transform="translate(71.582031 0)"/>
      <use xlink:href="#DejaVuSans-Bold-64" transform="translate(140.283203 0)"/>
      <use xlink:href="#DejaVuSans-Bold-79" transform="translate(211.865234 0)"/>
      <use xlink:href="#DejaVuSans-Bold-77" transform="translate(277.050781 0)"/>
      <use xlink:href="#DejaVuSans-Bold-65" transform="translate(369.433594 0)"/>
      <use xlink:href="#DejaVuSans-Bold-69" transform="translate(437.255859 0)"/>
      <use xlink:href="#DejaVuSans-Bold-67" transform="translate(471.533203 0)"/>
      <use xlink:href="#DejaVuSans-Bold-68" transform="translate(543.115234 0)"/>
      <use xlink:href="#DejaVuSans-Bold-74" transform="translate(614.306641 0)"/>
      <use xlink:href="#DejaVuSans-Bold-20" transform="translate(662.109375 0)"/>
      <use xlink:href="#DejaVuSans-Bold-5b" transform="translate(696.923828 0)"/>
      <use xlink:href="#DejaVuSans-Bold-6b" transform="translate(742.626953 0)"/>
      <use xlink:href="#DejaVuSans-Bold-67" transform="translate(809.130859 0)"/>
      <use xlink:href="#DejaVuSans-Bold-5d" transform="translate(880.712891 0)"/>
     </g>
    </g>
   </g>
   <g id="matplotlib.axis_6">
    <g id="ytick_16">
     <g id="line2d_58">
      <g>
       <use xlink:href="#m43d7fa7004" x="925.854472" y="270.15644" style="stroke: #000000; stroke-width: 3"/>
      </g>
     </g>
     <g id="text_39">
      <!-- 7.5 -->
      <g transform="translate(898.451347 273.955658) scale(0.1 -0.1)">
       <use xlink:href="#DejaVuSans-37"/>
       <use xlink:href="#DejaVuSans-2e" transform="translate(63.623047 0)"/>
       <use xlink:href="#DejaVuSans-35" transform="translate(95.410156 0)"/>
      </g>
     </g>
    </g>
    <g id="ytick_17">
     <g id="line2d_59">
      <g>
       <use xlink:href="#m43d7fa7004" x="925.854472" y="205.367134" style="stroke: #000000; stroke-width: 3"/>
      </g>
     </g>
     <g id="text_40">
      <!-- 8.0 -->
      <g transform="translate(898.451347 209.166353) scale(0.1 -0.1)">
       <defs>
        <path id="DejaVuSans-38" d="M 2034 2216 
Q 1584 2216 1326 1975 
Q 1069 1734 1069 1313 
Q 1069 891 1326 650 
Q 1584 409 2034 409 
Q 2484 409 2743 651 
Q 3003 894 3003 1313 
Q 3003 1734 2745 1975 
Q 2488 2216 2034 2216 
z
M 1403 2484 
Q 997 2584 770 2862 
Q 544 3141 544 3541 
Q 544 4100 942 4425 
Q 1341 4750 2034 4750 
Q 2731 4750 3128 4425 
Q 3525 4100 3525 3541 
Q 3525 3141 3298 2862 
Q 3072 2584 2669 2484 
Q 3125 2378 3379 2068 
Q 3634 1759 3634 1313 
Q 3634 634 3220 271 
Q 2806 -91 2034 -91 
Q 1263 -91 848 271 
Q 434 634 434 1313 
Q 434 1759 690 2068 
Q 947 2378 1403 2484 
z
M 1172 3481 
Q 1172 3119 1398 2916 
Q 1625 2713 2034 2713 
Q 2441 2713 2670 2916 
Q 2900 3119 2900 3481 
Q 2900 3844 2670 4047 
Q 2441 4250 2034 4250 
Q 1625 4250 1398 4047 
Q 1172 3844 1172 3481 
z
" transform="scale(0.015625)"/>
       </defs>
       <use xlink:href="#DejaVuSans-38"/>
       <use xlink:href="#DejaVuSans-2e" transform="translate(63.623047 0)"/>
       <use xlink:href="#DejaVuSans-30" transform="translate(95.410156 0)"/>
      </g>
     </g>
    </g>
    <g id="ytick_18">
     <g id="line2d_60">
      <g>
       <use xlink:href="#m43d7fa7004" x="925.854472" y="140.577829" style="stroke: #000000; stroke-width: 3"/>
      </g>
     </g>
     <g id="text_41">
      <!-- 8.5 -->
      <g transform="translate(898.451347 144.377048) scale(0.1 -0.1)">
       <use xlink:href="#DejaVuSans-38"/>
       <use xlink:href="#DejaVuSans-2e" transform="translate(63.623047 0)"/>
       <use xlink:href="#DejaVuSans-35" transform="translate(95.410156 0)"/>
      </g>
     </g>
    </g>
    <g id="ytick_19">
     <g id="line2d_61">
      <g>
       <use xlink:href="#m43d7fa7004" x="925.854472" y="75.788524" style="stroke: #000000; stroke-width: 3"/>
      </g>
     </g>
     <g id="text_42">
      <!-- 9.0 -->
      <g transform="translate(898.451347 79.587743) scale(0.1 -0.1)">
       <defs>
        <path id="DejaVuSans-39" d="M 703 97 
L 703 672 
Q 941 559 1184 500 
Q 1428 441 1663 441 
Q 2288 441 2617 861 
Q 2947 1281 2994 2138 
Q 2813 1869 2534 1725 
Q 2256 1581 1919 1581 
Q 1219 1581 811 2004 
Q 403 2428 403 3163 
Q 403 3881 828 4315 
Q 1253 4750 1959 4750 
Q 2769 4750 3195 4129 
Q 3622 3509 3622 2328 
Q 3622 1225 3098 567 
Q 2575 -91 1691 -91 
Q 1453 -91 1209 -44 
Q 966 3 703 97 
z
M 1959 2075 
Q 2384 2075 2632 2365 
Q 2881 2656 2881 3163 
Q 2881 3666 2632 3958 
Q 2384 4250 1959 4250 
Q 1534 4250 1286 3958 
Q 1038 3666 1038 3163 
Q 1038 2656 1286 2365 
Q 1534 2075 1959 2075 
z
" transform="scale(0.015625)"/>
       </defs>
       <use xlink:href="#DejaVuSans-39"/>
       <use xlink:href="#DejaVuSans-2e" transform="translate(63.623047 0)"/>
       <use xlink:href="#DejaVuSans-30" transform="translate(95.410156 0)"/>
      </g>
     </g>
    </g>
    <g id="ytick_20">
     <g id="line2d_62">
      <g>
       <use xlink:href="#m43d7fa7004" x="925.854472" y="10.999219" style="stroke: #000000; stroke-width: 3"/>
      </g>
     </g>
     <g id="text_43">
      <!-- 9.5 -->
      <g transform="translate(898.451347 14.798438) scale(0.1 -0.1)">
       <use xlink:href="#DejaVuSans-39"/>
       <use xlink:href="#DejaVuSans-2e" transform="translate(63.623047 0)"/>
       <use xlink:href="#DejaVuSans-35" transform="translate(95.410156 0)"/>
      </g>
     </g>
    </g>
    <g id="text_44">
     <!-- Half-life [hr] -->
     <g transform="translate(890.291972 233.132985) rotate(-90) scale(0.2 -0.2)">
      <defs>
       <path id="DejaVuSans-Bold-48" d="M 588 4666 
L 1791 4666 
L 1791 2888 
L 3566 2888 
L 3566 4666 
L 4769 4666 
L 4769 0 
L 3566 0 
L 3566 1978 
L 1791 1978 
L 1791 0 
L 588 0 
L 588 4666 
z
" transform="scale(0.015625)"/>
       <path id="DejaVuSans-Bold-66" d="M 2841 4863 
L 2841 4128 
L 2222 4128 
Q 1984 4128 1890 4042 
Q 1797 3956 1797 3744 
L 1797 3500 
L 2753 3500 
L 2753 2700 
L 1797 2700 
L 1797 0 
L 678 0 
L 678 2700 
L 122 2700 
L 122 3500 
L 678 3500 
L 678 3744 
Q 678 4316 997 4589 
Q 1316 4863 1984 4863 
L 2841 4863 
z
" transform="scale(0.015625)"/>
       <path id="DejaVuSans-Bold-2d" d="M 347 2297 
L 2309 2297 
L 2309 1388 
L 347 1388 
L 347 2297 
z
" transform="scale(0.015625)"/>
      </defs>
      <use xlink:href="#DejaVuSans-Bold-48"/>
      <use xlink:href="#DejaVuSans-Bold-61" transform="translate(83.691406 0)"/>
      <use xlink:href="#DejaVuSans-Bold-6c" transform="translate(151.171875 0)"/>
      <use xlink:href="#DejaVuSans-Bold-66" transform="translate(185.449219 0)"/>
      <use xlink:href="#DejaVuSans-Bold-2d" transform="translate(227.205078 0)"/>
      <use xlink:href="#DejaVuSans-Bold-6c" transform="translate(268.708984 0)"/>
      <use xlink:href="#DejaVuSans-Bold-69" transform="translate(302.986328 0)"/>
      <use xlink:href="#DejaVuSans-Bold-66" transform="translate(337.263672 0)"/>
      <use xlink:href="#DejaVuSans-Bold-65" transform="translate(380.769531 0)"/>
      <use xlink:href="#DejaVuSans-Bold-20" transform="translate(448.591797 0)"/>
      <use xlink:href="#DejaVuSans-Bold-5b" transform="translate(483.40625 0)"/>
      <use xlink:href="#DejaVuSans-Bold-68" transform="translate(529.109375 0)"/>
      <use xlink:href="#DejaVuSans-Bold-72" transform="translate(600.300781 0)"/>
      <use xlink:href="#DejaVuSans-Bold-5d" transform="translate(649.617188 0)"/>
     </g>
    </g>
   </g>
   <g id="line2d_63">
    <path d="M 1080.407475 316.508894 
L 1080.407475 10.694577 
" clip-path="url(#p12580f0aed)" style="fill: none; stroke-dasharray: 5.55,2.4; stroke-dashoffset: 0; stroke: #808080; stroke-width: 1.5"/>
   </g>
   <g id="line2d_64">
    <path d="M 942.675683 184.226076 
L 1021.227658 133.796739 
L 1077.688293 103.803155 
L 1080.407475 102.663455 
L 1121.793838 90.632239 
L 1157.992498 89.348514 
L 1188.692865 96.26486 
L 1215.347072 108.161693 
L 1238.898514 123.410974 
L 1259.994827 140.399321 
L 1279.099904 158.3834 
" clip-path="url(#p12580f0aed)" style="fill: none; stroke: #1f77b4; stroke-width: 2; stroke-linecap: square"/>
    <g clip-path="url(#p12580f0aed)">
     <use xlink:href="#m47df0f345e" x="942.675683" y="184.226076" style="fill: #ffffff; stroke: #1f77b4; stroke-width: 2"/>
     <use xlink:href="#m47df0f345e" x="1021.227658" y="133.796739" style="fill: #ffffff; stroke: #1f77b4; stroke-width: 2"/>
     <use xlink:href="#m47df0f345e" x="1077.688293" y="103.803155" style="fill: #ffffff; stroke: #1f77b4; stroke-width: 2"/>
     <use xlink:href="#m47df0f345e" x="1080.407475" y="102.663455" style="fill: #ffffff; stroke: #1f77b4; stroke-width: 2"/>
     <use xlink:href="#m47df0f345e" x="1121.793838" y="90.632239" style="fill: #ffffff; stroke: #1f77b4; stroke-width: 2"/>
     <use xlink:href="#m47df0f345e" x="1157.992498" y="89.348514" style="fill: #ffffff; stroke: #1f77b4; stroke-width: 2"/>
     <use xlink:href="#m47df0f345e" x="1188.692865" y="96.26486" style="fill: #ffffff; stroke: #1f77b4; stroke-width: 2"/>
     <use xlink:href="#m47df0f345e" x="1215.347072" y="108.161693" style="fill: #ffffff; stroke: #1f77b4; stroke-width: 2"/>
     <use xlink:href="#m47df0f345e" x="1238.898514" y="123.410974" style="fill: #ffffff; stroke: #1f77b4; stroke-width: 2"/>
     <use xlink:href="#m47df0f345e" x="1259.994827" y="140.399321" style="fill: #ffffff; stroke: #1f77b4; stroke-width: 2"/>
     <use xlink:href="#m47df0f345e" x="1279.099904" y="158.3834" style="fill: #ffffff; stroke: #1f77b4; stroke-width: 2"/>
    </g>
   </g>
   <g id="line2d_65">
    <path d="M 1080.407475 316.508894 
L 1080.407475 10.694577 
" clip-path="url(#p12580f0aed)" style="fill: none; stroke-dasharray: 5.55,2.4; stroke-dashoffset: 0; stroke: #808080; stroke-width: 1.5"/>
   </g>
   <g id="line2d_66">
    <path d="M 942.675683 124.718443 
L 1021.227658 72.284193 
L 1077.688293 40.168111 
L 1080.407475 39.015175 
L 1121.793838 26.233375 
L 1157.992498 24.595227 
L 1188.692865 31.495881 
L 1215.347072 43.964817 
L 1238.898514 59.618557 
L 1259.994827 77.160456 
L 1279.099904 95.509838 
" clip-path="url(#p12580f0aed)" style="fill: none; stroke: #d62728; stroke-width: 2; stroke-linecap: square"/>
    <g clip-path="url(#p12580f0aed)">
     <use xlink:href="#m563c15e6ad" x="942.675683" y="124.718443" style="fill: #ffffff; stroke: #d62728; stroke-width: 2"/>
     <use xlink:href="#m563c15e6ad" x="1021.227658" y="72.284193" style="fill: #ffffff; stroke: #d62728; stroke-width: 2"/>
     <use xlink:href="#m563c15e6ad" x="1077.688293" y="40.168111" style="fill: #ffffff; stroke: #d62728; stroke-width: 2"/>
     <use xlink:href="#m563c15e6ad" x="1080.407475" y="39.015175" style="fill: #ffffff; stroke: #d62728; stroke-width: 2"/>
     <use xlink:href="#m563c15e6ad" x="1121.793838" y="26.233375" style="fill: #ffffff; stroke: #d62728; stroke-width: 2"/>
     <use xlink:href="#m563c15e6ad" x="1157.992498" y="24.595227" style="fill: #ffffff; stroke: #d62728; stroke-width: 2"/>
     <use xlink:href="#m563c15e6ad" x="1188.692865" y="31.495881" style="fill: #ffffff; stroke: #d62728; stroke-width: 2"/>
     <use xlink:href="#m563c15e6ad" x="1215.347072" y="43.964817" style="fill: #ffffff; stroke: #d62728; stroke-width: 2"/>
     <use xlink:href="#m563c15e6ad" x="1238.898514" y="59.618557" style="fill: #ffffff; stroke: #d62728; stroke-width: 2"/>
     <use xlink:href="#m563c15e6ad" x="1259.994827" y="77.160456" style="fill: #ffffff; stroke: #d62728; stroke-width: 2"/>
     <use xlink:href="#m563c15e6ad" x="1279.099904" y="95.509838" style="fill: #ffffff; stroke: #d62728; stroke-width: 2"/>
    </g>
   </g>
   <g id="line2d_67">
    <path d="M 1080.407475 316.508894 
L 1080.407475 10.694577 
" clip-path="url(#p12580f0aed)" style="fill: none; stroke-dasharray: 5.55,2.4; stroke-dashoffset: 0; stroke: #808080; stroke-width: 1.5"/>
   </g>
   <g id="line2d_68">
    <path d="M 942.675683 302.608243 
L 1021.227658 249.212238 
L 1077.688293 213.201849 
L 1080.407475 211.550353 
L 1121.793838 188.392891 
L 1157.992498 172.664712 
L 1188.692865 164.501467 
L 1215.347072 162.275594 
L 1238.898514 164.326924 
L 1259.994827 170.054179 
L 1279.099904 178.291357 
" clip-path="url(#p12580f0aed)" style="fill: none; stroke: #000000; stroke-width: 2; stroke-linecap: square"/>
    <g clip-path="url(#p12580f0aed)">
     <use xlink:href="#m294f257a81" x="942.675683" y="302.608243" style="fill: #ffffff; stroke: #000000; stroke-width: 2"/>
     <use xlink:href="#m294f257a81" x="1021.227658" y="249.212238" style="fill: #ffffff; stroke: #000000; stroke-width: 2"/>
     <use xlink:href="#m294f257a81" x="1077.688293" y="213.201849" style="fill: #ffffff; stroke: #000000; stroke-width: 2"/>
     <use xlink:href="#m294f257a81" x="1080.407475" y="211.550353" style="fill: #ffffff; stroke: #000000; stroke-width: 2"/>
     <use xlink:href="#m294f257a81" x="1121.793838" y="188.392891" style="fill: #ffffff; stroke: #000000; stroke-width: 2"/>
     <use xlink:href="#m294f257a81" x="1157.992498" y="172.664712" style="fill: #ffffff; stroke: #000000; stroke-width: 2"/>
     <use xlink:href="#m294f257a81" x="1188.692865" y="164.501467" style="fill: #ffffff; stroke: #000000; stroke-width: 2"/>
     <use xlink:href="#m294f257a81" x="1215.347072" y="162.275594" style="fill: #ffffff; stroke: #000000; stroke-width: 2"/>
     <use xlink:href="#m294f257a81" x="1238.898514" y="164.326924" style="fill: #ffffff; stroke: #000000; stroke-width: 2"/>
     <use xlink:href="#m294f257a81" x="1259.994827" y="170.054179" style="fill: #ffffff; stroke: #000000; stroke-width: 2"/>
     <use xlink:href="#m294f257a81" x="1279.099904" y="178.291357" style="fill: #ffffff; stroke: #000000; stroke-width: 2"/>
    </g>
   </g>
   <g id="patch_15">
    <path d="M 925.854472 316.508894 
L 925.854472 10.694577 
" style="fill: none; stroke: #000000; stroke-width: 0.8; stroke-linejoin: miter; stroke-linecap: square"/>
   </g>
   <g id="patch_16">
    <path d="M 1295.921115 316.508894 
L 1295.921115 10.694577 
" style="fill: none; stroke: #000000; stroke-width: 0.8; stroke-linejoin: miter; stroke-linecap: square"/>
   </g>
   <g id="patch_17">
    <path d="M 925.854472 316.508894 
L 1295.921115 316.508894 
" style="fill: none; stroke: #000000; stroke-width: 0.8; stroke-linejoin: miter; stroke-linecap: square"/>
   </g>
   <g id="patch_18">
    <path d="M 925.854472 10.694577 
L 1295.921115 10.694577 
" style="fill: none; stroke: #000000; stroke-width: 0.8; stroke-linejoin: miter; stroke-linecap: square"/>
   </g>
   <g id="legend_3">
    <g id="patch_19">
     <path d="M 1246.328302 57.525514 
L 1289.621115 57.525514 
Q 1291.421115 57.525514 1291.421115 55.725514 
L 1291.421115 16.994577 
Q 1291.421115 15.194577 1289.621115 15.194577 
L 1246.328302 15.194577 
Q 1244.528302 15.194577 1244.528302 16.994577 
L 1244.528302 55.725514 
Q 1244.528302 57.525514 1246.328302 57.525514 
z
" style="fill: #ffffff; opacity: 0.8; stroke: #cccccc; stroke-linejoin: miter"/>
    </g>
    <g id="line2d_69">
     <path d="M 1248.128302 22.48317 
L 1257.128302 22.48317 
L 1266.128302 22.48317 
" style="fill: none; stroke: #1f77b4; stroke-width: 2; stroke-linecap: square"/>
     <g>
      <use xlink:href="#m47df0f345e" x="1257.128302" y="22.48317" style="fill: #ffffff; stroke: #1f77b4; stroke-width: 2"/>
     </g>
    </g>
    <g id="text_45">
     <!-- m1 -->
     <g transform="translate(1273.328302 25.63317) scale(0.09 -0.09)">
      <use xlink:href="#DejaVuSans-6d"/>
      <use xlink:href="#DejaVuSans-31" transform="translate(97.412109 0)"/>
     </g>
    </g>
    <g id="line2d_70">
     <path d="M 1248.128302 35.693483 
L 1257.128302 35.693483 
L 1266.128302 35.693483 
" style="fill: none; stroke: #d62728; stroke-width: 2; stroke-linecap: square"/>
     <g>
      <use xlink:href="#m563c15e6ad" x="1257.128302" y="35.693483" style="fill: #ffffff; stroke: #d62728; stroke-width: 2"/>
     </g>
    </g>
    <g id="text_46">
     <!-- m7 -->
     <g transform="translate(1273.328302 38.843483) scale(0.09 -0.09)">
      <use xlink:href="#DejaVuSans-6d"/>
      <use xlink:href="#DejaVuSans-37" transform="translate(97.412109 0)"/>
     </g>
    </g>
    <g id="line2d_71">
     <path d="M 1248.128302 48.903795 
L 1257.128302 48.903795 
L 1266.128302 48.903795 
" style="fill: none; stroke: #000000; stroke-width: 2; stroke-linecap: square"/>
     <g>
      <use xlink:href="#m294f257a81" x="1257.128302" y="48.903795" style="fill: #ffffff; stroke: #000000; stroke-width: 2"/>
     </g>
    </g>
    <g id="text_47">
     <!-- api -->
     <g transform="translate(1273.328302 52.053795) scale(0.09 -0.09)">
      <use xlink:href="#DejaVuSans-61"/>
      <use xlink:href="#DejaVuSans-70" transform="translate(61.279297 0)"/>
      <use xlink:href="#DejaVuSans-69" transform="translate(124.755859 0)"/>
     </g>
    </g>
   </g>
  </g>
 </g>
 <defs>
  <clipPath id="p278a927db0">
   <rect x="57.98125" y="10.694577" width="370.066643" height="305.814318"/>
  </clipPath>
  <clipPath id="p5c643dd9d7">
   <rect x="495.110048" y="10.694577" width="370.066643" height="305.814318"/>
  </clipPath>
  <clipPath id="p12580f0aed">
   <rect x="925.854472" y="10.694577" width="370.066643" height="305.814318"/>
  </clipPath>
 </defs>
</svg>
