<?xml version="1.0" encoding="utf-8" standalone="no"?>
<!DOCTYPE svg PUBLIC "-//W3C//DTD SVG 1.1//EN"
  "http://www.w3.org/Graphics/SVG/1.1/DTD/svg11.dtd">
<svg xmlns:xlink="http://www.w3.org/1999/xlink" width="440.479512pt" height="414.385812pt" viewBox="0 0 440.479512 414.385812" xmlns="http://www.w3.org/2000/svg" version="1.1">
 <metadata>
  <rdf:RDF xmlns:dc="http://purl.org/dc/elements/1.1/" xmlns:cc="http://creativecommons.org/ns#" xmlns:rdf="http://www.w3.org/1999/02/22-rdf-syntax-ns#">
   <cc:Work>
    <dc:type rdf:resource="http://purl.org/dc/dcmitype/StillImage"/>
    <dc:date>2026-04-22T17:47:43.346564</dc:date>
    <dc:format>image/svg+xml</dc:format>
    <dc:creator>
     <cc:Agent>
      <dc:title>Matplotlib v3.10.8, https://matplotlib.org/</dc:title>
     </cc:Agent>
    </dc:creator>
   </cc:Work>
  </rdf:RDF>
 </metadata>
 <defs>
  <style type="text/css">*{stroke-linejoin: round; stroke-linecap: butt}</style>
 </defs>
 <g id="figure_1">
  <g id="patch_1">
   <path d="M 0 414.385812 
L 440.479512 414.385812 
L 440.479512 -0 
L 0 -0 
z
" style="fill: #ffffff"/>
  </g>
  <g id="axes_1">
   <g id="patch_2">
    <path d="M 59.475313 364.248 
L 433.279513 364.248 
L 433.279513 48.24 
L 59.475313 48.24 
z
" style="fill: #ffffff"/>
   </g>
   <g id="matplotlib.axis_1">
    <g id="xtick_1">
     <g id="line2d_1">
      <defs>
       <path id="m88dffe65e9" d="M 0 0 
L 0 3.5 
" style="stroke: #000000; stroke-width: 0.8"/>
      </defs>
      <g>
       <use xlink:href="#m88dffe65e9" x="76.466413" y="364.248" style="stroke: #000000; stroke-width: 0.8"/>
      </g>
     </g>
     <g id="text_1">
      <!-- 0 -->
      <g transform="translate(71.694538 382.645656) scale(0.15 -0.15)">
       <defs>
        <path id="DejaVuSans-30" d="M 2034 4250 
Q 1547 4250 1301 3770 
Q 1056 3291 1056 2328 
Q 1056 1369 1301 889 
Q 1547 409 2034 409 
Q 2525 409 2770 889 
Q 3016 1369 3016 2328 
Q 3016 3291 2770 3770 
Q 2525 4250 2034 4250 
z
M 2034 4750 
Q 2819 4750 3233 4129 
Q 3647 3509 3647 2328 
Q 3647 1150 3233 529 
Q 2819 -91 2034 -91 
Q 1250 -91 836 529 
Q 422 1150 422 2328 
Q 422 3509 836 4129 
Q 1250 4750 2034 4750 
z
" transform="scale(0.015625)"/>
       </defs>
       <use xlink:href="#DejaVuSans-30"/>
      </g>
     </g>
    </g>
    <g id="xtick_2">
     <g id="line2d_2">
      <g>
       <use xlink:href="#m88dffe65e9" x="144.430813" y="364.248" style="stroke: #000000; stroke-width: 0.8"/>
      </g>
     </g>
     <g id="text_2">
      <!-- 10 -->
      <g transform="translate(134.887063 382.645656) scale(0.15 -0.15)">
       <defs>
        <path id="DejaVuSans-31" d="M 794 531 
L 1825 531 
L 1825 4091 
L 703 3866 
L 703 4441 
L 1819 4666 
L 2450 4666 
L 2450 531 
L 3481 531 
L 3481 0 
L 794 0 
L 794 531 
z
" transform="scale(0.015625)"/>
       </defs>
       <use xlink:href="#DejaVuSans-31"/>
       <use xlink:href="#DejaVuSans-30" transform="translate(63.623047 0)"/>
      </g>
     </g>
    </g>
    <g id="xtick_3">
     <g id="line2d_3">
      <g>
       <use xlink:href="#m88dffe65e9" x="212.395213" y="364.248" style="stroke: #000000; stroke-width: 0.8"/>
      </g>
     </g>
     <g id="text_3">
      <!-- 20 -->
      <g transform="translate(202.851463 382.645656) scale(0.15 -0.15)">
       <defs>
        <path id="DejaVuSans-32" d="M 1228 531 
L 3431 531 
L 3431 0 
L 469 0 
L 469 531 
Q 828 903 1448 1529 
Q 2069 2156 2228 2338 
Q 2531 2678 2651 2914 
Q 2772 3150 2772 3378 
Q 2772 3750 2511 3984 
Q 2250 4219 1831 4219 
Q 1534 4219 1204 4116 
Q 875 4013 500 3803 
L 500 4441 
Q 881 4594 1212 4672 
Q 1544 4750 1819 4750 
Q 2544 4750 2975 4387 
Q 3406 4025 3406 3419 
Q 3406 3131 3298 2873 
Q 3191 2616 2906 2266 
Q 2828 2175 2409 1742 
Q 1991 1309 1228 531 
z
" transform="scale(0.015625)"/>
       </defs>
       <use xlink:href="#DejaVuSans-32"/>
       <use xlink:href="#DejaVuSans-30" transform="translate(63.623047 0)"/>
      </g>
     </g>
    </g>
    <g id="xtick_4">
     <g id="line2d_4">
      <g>
       <use xlink:href="#m88dffe65e9" x="280.359612" y="364.248" style="stroke: #000000; stroke-width: 0.8"/>
      </g>
     </g>
     <g id="text_4">
      <!-- 30 -->
      <g transform="translate(270.815862 382.645656) scale(0.15 -0.15)">
       <defs>
        <path id="DejaVuSans-33" d="M 2597 2516 
Q 3050 2419 3304 2112 
Q 3559 1806 3559 1356 
Q 3559 666 3084 287 
Q 2609 -91 1734 -91 
Q 1441 -91 1130 -33 
Q 819 25 488 141 
L 488 750 
Q 750 597 1062 519 
Q 1375 441 1716 441 
Q 2309 441 2620 675 
Q 2931 909 2931 1356 
Q 2931 1769 2642 2001 
Q 2353 2234 1838 2234 
L 1294 2234 
L 1294 2753 
L 1863 2753 
Q 2328 2753 2575 2939 
Q 2822 3125 2822 3475 
Q 2822 3834 2567 4026 
Q 2313 4219 1838 4219 
Q 1578 4219 1281 4162 
Q 984 4106 628 3988 
L 628 4550 
Q 988 4650 1302 4700 
Q 1616 4750 1894 4750 
Q 2613 4750 3031 4423 
Q 3450 4097 3450 3541 
Q 3450 3153 3228 2886 
Q 3006 2619 2597 2516 
z
" transform="scale(0.015625)"/>
       </defs>
       <use xlink:href="#DejaVuSans-33"/>
       <use xlink:href="#DejaVuSans-30" transform="translate(63.623047 0)"/>
      </g>
     </g>
    </g>
    <g id="xtick_5">
     <g id="line2d_5">
      <g>
       <use xlink:href="#m88dffe65e9" x="348.324012" y="364.248" style="stroke: #000000; stroke-width: 0.8"/>
      </g>
     </g>
     <g id="text_5">
      <!-- 40 -->
      <g transform="translate(338.780262 382.645656) scale(0.15 -0.15)">
       <defs>
        <path id="DejaVuSans-34" d="M 2419 4116 
L 825 1625 
L 2419 1625 
L 2419 4116 
z
M 2253 4666 
L 3047 4666 
L 3047 1625 
L 3713 1625 
L 3713 1100 
L 3047 1100 
L 3047 0 
L 2419 0 
L 2419 1100 
L 313 1100 
L 313 1709 
L 2253 4666 
z
" transform="scale(0.015625)"/>
       </defs>
       <use xlink:href="#DejaVuSans-34"/>
       <use xlink:href="#DejaVuSans-30" transform="translate(63.623047 0)"/>
      </g>
     </g>
    </g>
    <g id="xtick_6">
     <g id="line2d_6">
      <g>
       <use xlink:href="#m88dffe65e9" x="416.288412" y="364.248" style="stroke: #000000; stroke-width: 0.8"/>
      </g>
     </g>
     <g id="text_6">
      <!-- 50 -->
      <g transform="translate(406.744663 382.645656) scale(0.15 -0.15)">
       <defs>
        <path id="DejaVuSans-35" d="M 691 4666 
L 3169 4666 
L 3169 4134 
L 1269 4134 
L 1269 2991 
Q 1406 3038 1543 3061 
Q 1681 3084 1819 3084 
Q 2600 3084 3056 2656 
Q 3513 2228 3513 1497 
Q 3513 744 3044 326 
Q 2575 -91 1722 -91 
Q 1428 -91 1123 -41 
Q 819 9 494 109 
L 494 744 
Q 775 591 1075 516 
Q 1375 441 1709 441 
Q 2250 441 2565 725 
Q 2881 1009 2881 1497 
Q 2881 1984 2565 2268 
Q 2250 2553 1709 2553 
Q 1456 2553 1204 2497 
Q 953 2441 691 2322 
L 691 4666 
z
" transform="scale(0.015625)"/>
       </defs>
       <use xlink:href="#DejaVuSans-35"/>
       <use xlink:href="#DejaVuSans-30" transform="translate(63.623047 0)"/>
      </g>
     </g>
    </g>
    <g id="text_7">
     <!-- time [hr] -->
     <g transform="translate(201.302881 403.442375) scale(0.18 -0.18)">
      <defs>
       <path id="DejaVuSans-Bold-74" d="M 1759 4494 
L 1759 3500 
L 2913 3500 
L 2913 2700 
L 1759 2700 
L 1759 1216 
Q 1759 972 1856 886 
Q 1953 800 2241 800 
L 2816 800 
L 2816 0 
L 1856 0 
Q 1194 0 917 276 
Q 641 553 641 1216 
L 641 2700 
L 84 2700 
L 84 3500 
L 641 3500 
L 641 4494 
L 1759 4494 
z
" transform="scale(0.015625)"/>
       <path id="DejaVuSans-Bold-69" d="M 538 3500 
L 1656 3500 
L 1656 0 
L 538 0 
L 538 3500 
z
M 538 4863 
L 1656 4863 
L 1656 3950 
L 538 3950 
L 538 4863 
z
" transform="scale(0.015625)"/>
       <path id="DejaVuSans-Bold-6d" d="M 3781 2919 
Q 3994 3244 4286 3414 
Q 4578 3584 4928 3584 
Q 5531 3584 5847 3212 
Q 6163 2841 6163 2131 
L 6163 0 
L 5038 0 
L 5038 1825 
Q 5041 1866 5042 1909 
Q 5044 1953 5044 2034 
Q 5044 2406 4934 2573 
Q 4825 2741 4581 2741 
Q 4263 2741 4089 2478 
Q 3916 2216 3909 1719 
L 3909 0 
L 2784 0 
L 2784 1825 
Q 2784 2406 2684 2573 
Q 2584 2741 2328 2741 
Q 2006 2741 1831 2477 
Q 1656 2213 1656 1722 
L 1656 0 
L 531 0 
L 531 3500 
L 1656 3500 
L 1656 2988 
Q 1863 3284 2130 3434 
Q 2397 3584 2719 3584 
Q 3081 3584 3359 3409 
Q 3638 3234 3781 2919 
z
" transform="scale(0.015625)"/>
       <path id="DejaVuSans-Bold-65" d="M 4031 1759 
L 4031 1441 
L 1416 1441 
Q 1456 1047 1700 850 
Q 1944 653 2381 653 
Q 2734 653 3104 758 
Q 3475 863 3866 1075 
L 3866 213 
Q 3469 63 3072 -14 
Q 2675 -91 2278 -91 
Q 1328 -91 801 392 
Q 275 875 275 1747 
Q 275 2603 792 3093 
Q 1309 3584 2216 3584 
Q 3041 3584 3536 3087 
Q 4031 2591 4031 1759 
z
M 2881 2131 
Q 2881 2450 2695 2645 
Q 2509 2841 2209 2841 
Q 1884 2841 1681 2658 
Q 1478 2475 1428 2131 
L 2881 2131 
z
" transform="scale(0.015625)"/>
       <path id="DejaVuSans-Bold-20" transform="scale(0.015625)"/>
       <path id="DejaVuSans-Bold-5b" d="M 550 4863 
L 2491 4863 
L 2491 4159 
L 1613 4159 
L 1613 -141 
L 2491 -141 
L 2491 -844 
L 550 -844 
L 550 4863 
z
" transform="scale(0.015625)"/>
       <path id="DejaVuSans-Bold-68" d="M 4056 2131 
L 4056 0 
L 2931 0 
L 2931 347 
L 2931 1625 
Q 2931 2084 2911 2256 
Q 2891 2428 2841 2509 
Q 2775 2619 2662 2680 
Q 2550 2741 2406 2741 
Q 2056 2741 1856 2470 
Q 1656 2200 1656 1722 
L 1656 0 
L 538 0 
L 538 4863 
L 1656 4863 
L 1656 2988 
Q 1909 3294 2193 3439 
Q 2478 3584 2822 3584 
Q 3428 3584 3742 3212 
Q 4056 2841 4056 2131 
z
" transform="scale(0.015625)"/>
       <path id="DejaVuSans-Bold-72" d="M 3138 2547 
Q 2991 2616 2845 2648 
Q 2700 2681 2553 2681 
Q 2122 2681 1889 2404 
Q 1656 2128 1656 1613 
L 1656 0 
L 538 0 
L 538 3500 
L 1656 3500 
L 1656 2925 
Q 1872 3269 2151 3426 
Q 2431 3584 2822 3584 
Q 2878 3584 2943 3579 
Q 3009 3575 3134 3559 
L 3138 2547 
z
" transform="scale(0.015625)"/>
       <path id="DejaVuSans-Bold-5d" d="M 2375 -844 
L 434 -844 
L 434 -141 
L 1313 -141 
L 1313 4159 
L 434 4159 
L 434 4863 
L 2375 4863 
L 2375 -844 
z
" transform="scale(0.015625)"/>
      </defs>
      <use xlink:href="#DejaVuSans-Bold-74"/>
      <use xlink:href="#DejaVuSans-Bold-69" transform="translate(47.802734 0)"/>
      <use xlink:href="#DejaVuSans-Bold-6d" transform="translate(82.080078 0)"/>
      <use xlink:href="#DejaVuSans-Bold-65" transform="translate(186.279297 0)"/>
      <use xlink:href="#DejaVuSans-Bold-20" transform="translate(254.101562 0)"/>
      <use xlink:href="#DejaVuSans-Bold-5b" transform="translate(288.916016 0)"/>
      <use xlink:href="#DejaVuSans-Bold-68" transform="translate(334.619141 0)"/>
      <use xlink:href="#DejaVuSans-Bold-72" transform="translate(405.810547 0)"/>
      <use xlink:href="#DejaVuSans-Bold-5d" transform="translate(455.126953 0)"/>
     </g>
    </g>
   </g>
   <g id="matplotlib.axis_2">
    <g id="ytick_1">
     <g id="line2d_7">
      <defs>
       <path id="m9ac81a4840" d="M 0 0 
L -3.5 0 
" style="stroke: #000000; stroke-width: 0.8"/>
      </defs>
      <g>
       <use xlink:href="#m9ac81a4840" x="59.475313" y="340.326311" style="stroke: #000000; stroke-width: 0.8"/>
      </g>
     </g>
     <g id="text_8">
      <!-- 0.0 -->
      <g transform="translate(28.620625 346.025139) scale(0.15 -0.15)">
       <defs>
        <path id="DejaVuSans-2e" d="M 684 794 
L 1344 794 
L 1344 0 
L 684 0 
L 684 794 
z
" transform="scale(0.015625)"/>
       </defs>
       <use xlink:href="#DejaVuSans-30"/>
       <use xlink:href="#DejaVuSans-2e" transform="translate(63.623047 0)"/>
       <use xlink:href="#DejaVuSans-30" transform="translate(95.410156 0)"/>
      </g>
     </g>
    </g>
    <g id="ytick_2">
     <g id="line2d_8">
      <g>
       <use xlink:href="#m9ac81a4840" x="59.475313" y="271.36026" style="stroke: #000000; stroke-width: 0.8"/>
      </g>
     </g>
     <g id="text_9">
      <!-- 0.5 -->
      <g transform="translate(28.620625 277.059088) scale(0.15 -0.15)">
       <use xlink:href="#DejaVuSans-30"/>
       <use xlink:href="#DejaVuSans-2e" transform="translate(63.623047 0)"/>
       <use xlink:href="#DejaVuSans-35" transform="translate(95.410156 0)"/>
      </g>
     </g>
    </g>
    <g id="ytick_3">
     <g id="line2d_9">
      <g>
       <use xlink:href="#m9ac81a4840" x="59.475313" y="202.394208" style="stroke: #000000; stroke-width: 0.8"/>
      </g>
     </g>
     <g id="text_10">
      <!-- 1.0 -->
      <g transform="translate(28.620625 208.093037) scale(0.15 -0.15)">
       <use xlink:href="#DejaVuSans-31"/>
       <use xlink:href="#DejaVuSans-2e" transform="translate(63.623047 0)"/>
       <use xlink:href="#DejaVuSans-30" transform="translate(95.410156 0)"/>
      </g>
     </g>
    </g>
    <g id="ytick_4">
     <g id="line2d_10">
      <g>
       <use xlink:href="#m9ac81a4840" x="59.475313" y="133.428157" style="stroke: #000000; stroke-width: 0.8"/>
      </g>
     </g>
     <g id="text_11">
      <!-- 1.5 -->
      <g transform="translate(28.620625 139.126985) scale(0.15 -0.15)">
       <use xlink:href="#DejaVuSans-31"/>
       <use xlink:href="#DejaVuSans-2e" transform="translate(63.623047 0)"/>
       <use xlink:href="#DejaVuSans-35" transform="translate(95.410156 0)"/>
      </g>
     </g>
    </g>
    <g id="ytick_5">
     <g id="line2d_11">
      <g>
       <use xlink:href="#m9ac81a4840" x="59.475313" y="64.462106" style="stroke: #000000; stroke-width: 0.8"/>
      </g>
     </g>
     <g id="text_12">
      <!-- 2.0 -->
      <g transform="translate(28.620625 70.160934) scale(0.15 -0.15)">
       <use xlink:href="#DejaVuSans-32"/>
       <use xlink:href="#DejaVuSans-2e" transform="translate(63.623047 0)"/>
       <use xlink:href="#DejaVuSans-30" transform="translate(95.410156 0)"/>
      </g>
     </g>
    </g>
    <g id="text_13">
     <!-- apixaban plasma [nM] -->
     <g transform="translate(20.877188 318.911344) rotate(-90) scale(0.18 -0.18)">
      <defs>
       <path id="DejaVuSans-Bold-61" d="M 2106 1575 
Q 1756 1575 1579 1456 
Q 1403 1338 1403 1106 
Q 1403 894 1545 773 
Q 1688 653 1941 653 
Q 2256 653 2472 879 
Q 2688 1106 2688 1447 
L 2688 1575 
L 2106 1575 
z
M 3816 1997 
L 3816 0 
L 2688 0 
L 2688 519 
Q 2463 200 2181 54 
Q 1900 -91 1497 -91 
Q 953 -91 614 226 
Q 275 544 275 1050 
Q 275 1666 698 1953 
Q 1122 2241 2028 2241 
L 2688 2241 
L 2688 2328 
Q 2688 2594 2478 2717 
Q 2269 2841 1825 2841 
Q 1466 2841 1156 2769 
Q 847 2697 581 2553 
L 581 3406 
Q 941 3494 1303 3539 
Q 1666 3584 2028 3584 
Q 2975 3584 3395 3211 
Q 3816 2838 3816 1997 
z
" transform="scale(0.015625)"/>
       <path id="DejaVuSans-Bold-70" d="M 1656 506 
L 1656 -1331 
L 538 -1331 
L 538 3500 
L 1656 3500 
L 1656 2988 
Q 1888 3294 2169 3439 
Q 2450 3584 2816 3584 
Q 3463 3584 3878 3070 
Q 4294 2556 4294 1747 
Q 4294 938 3878 423 
Q 3463 -91 2816 -91 
Q 2450 -91 2169 54 
Q 1888 200 1656 506 
z
M 2400 2772 
Q 2041 2772 1848 2508 
Q 1656 2244 1656 1747 
Q 1656 1250 1848 986 
Q 2041 722 2400 722 
Q 2759 722 2948 984 
Q 3138 1247 3138 1747 
Q 3138 2247 2948 2509 
Q 2759 2772 2400 2772 
z
" transform="scale(0.015625)"/>
       <path id="DejaVuSans-Bold-78" d="M 1422 1791 
L 159 3500 
L 1344 3500 
L 2059 2463 
L 2784 3500 
L 3969 3500 
L 2706 1797 
L 4031 0 
L 2847 0 
L 2059 1106 
L 1281 0 
L 97 0 
L 1422 1791 
z
" transform="scale(0.015625)"/>
       <path id="DejaVuSans-Bold-62" d="M 2400 722 
Q 2759 722 2948 984 
Q 3138 1247 3138 1747 
Q 3138 2247 2948 2509 
Q 2759 2772 2400 2772 
Q 2041 2772 1848 2508 
Q 1656 2244 1656 1747 
Q 1656 1250 1848 986 
Q 2041 722 2400 722 
z
M 1656 2988 
Q 1888 3294 2169 3439 
Q 2450 3584 2816 3584 
Q 3463 3584 3878 3070 
Q 4294 2556 4294 1747 
Q 4294 938 3878 423 
Q 3463 -91 2816 -91 
Q 2450 -91 2169 54 
Q 1888 200 1656 506 
L 1656 0 
L 538 0 
L 538 4863 
L 1656 4863 
L 1656 2988 
z
" transform="scale(0.015625)"/>
       <path id="DejaVuSans-Bold-6e" d="M 4056 2131 
L 4056 0 
L 2931 0 
L 2931 347 
L 2931 1631 
Q 2931 2084 2911 2256 
Q 2891 2428 2841 2509 
Q 2775 2619 2662 2680 
Q 2550 2741 2406 2741 
Q 2056 2741 1856 2470 
Q 1656 2200 1656 1722 
L 1656 0 
L 538 0 
L 538 3500 
L 1656 3500 
L 1656 2988 
Q 1909 3294 2193 3439 
Q 2478 3584 2822 3584 
Q 3428 3584 3742 3212 
Q 4056 2841 4056 2131 
z
" transform="scale(0.015625)"/>
       <path id="DejaVuSans-Bold-6c" d="M 538 4863 
L 1656 4863 
L 1656 0 
L 538 0 
L 538 4863 
z
" transform="scale(0.015625)"/>
       <path id="DejaVuSans-Bold-73" d="M 3272 3391 
L 3272 2541 
Q 2913 2691 2578 2766 
Q 2244 2841 1947 2841 
Q 1628 2841 1473 2761 
Q 1319 2681 1319 2516 
Q 1319 2381 1436 2309 
Q 1553 2238 1856 2203 
L 2053 2175 
Q 2913 2066 3209 1816 
Q 3506 1566 3506 1031 
Q 3506 472 3093 190 
Q 2681 -91 1863 -91 
Q 1516 -91 1145 -36 
Q 775 19 384 128 
L 384 978 
Q 719 816 1070 734 
Q 1422 653 1784 653 
Q 2113 653 2278 743 
Q 2444 834 2444 1013 
Q 2444 1163 2330 1236 
Q 2216 1309 1875 1350 
L 1678 1375 
Q 931 1469 631 1722 
Q 331 1975 331 2491 
Q 331 3047 712 3315 
Q 1094 3584 1881 3584 
Q 2191 3584 2531 3537 
Q 2872 3491 3272 3391 
z
" transform="scale(0.015625)"/>
       <path id="DejaVuSans-Bold-4d" d="M 588 4666 
L 2119 4666 
L 3181 2169 
L 4250 4666 
L 5778 4666 
L 5778 0 
L 4641 0 
L 4641 3413 
L 3566 897 
L 2803 897 
L 1728 3413 
L 1728 0 
L 588 0 
L 588 4666 
z
" transform="scale(0.015625)"/>
      </defs>
      <use xlink:href="#DejaVuSans-Bold-61"/>
      <use xlink:href="#DejaVuSans-Bold-70" transform="translate(67.480469 0)"/>
      <use xlink:href="#DejaVuSans-Bold-69" transform="translate(139.0625 0)"/>
      <use xlink:href="#DejaVuSans-Bold-78" transform="translate(173.339844 0)"/>
      <use xlink:href="#DejaVuSans-Bold-61" transform="translate(237.841797 0)"/>
      <use xlink:href="#DejaVuSans-Bold-62" transform="translate(305.322266 0)"/>
      <use xlink:href="#DejaVuSans-Bold-61" transform="translate(376.904297 0)"/>
      <use xlink:href="#DejaVuSans-Bold-6e" transform="translate(444.384766 0)"/>
      <use xlink:href="#DejaVuSans-Bold-20" transform="translate(515.576172 0)"/>
      <use xlink:href="#DejaVuSans-Bold-70" transform="translate(550.390625 0)"/>
      <use xlink:href="#DejaVuSans-Bold-6c" transform="translate(621.972656 0)"/>
      <use xlink:href="#DejaVuSans-Bold-61" transform="translate(656.25 0)"/>
      <use xlink:href="#DejaVuSans-Bold-73" transform="translate(723.730469 0)"/>
      <use xlink:href="#DejaVuSans-Bold-6d" transform="translate(783.251953 0)"/>
      <use xlink:href="#DejaVuSans-Bold-61" transform="translate(887.451172 0)"/>
      <use xlink:href="#DejaVuSans-Bold-20" transform="translate(954.931641 0)"/>
      <use xlink:href="#DejaVuSans-Bold-5b" transform="translate(989.746094 0)"/>
      <use xlink:href="#DejaVuSans-Bold-6e" transform="translate(1035.449219 0)"/>
      <use xlink:href="#DejaVuSans-Bold-4d" transform="translate(1106.640625 0)"/>
      <use xlink:href="#DejaVuSans-Bold-5d" transform="translate(1206.152344 0)"/>
     </g>
    </g>
   </g>
   <g id="LineCollection_1">
    <path clip-path="url(#p799d2815ad)" style="fill: none; stroke: #000000"/>
    <path d="M 78.165523 309.332862 
L 78.165523 224.838568 
" clip-path="url(#p799d2815ad)" style="fill: none; stroke: #000000"/>
    <path d="M 79.864632 238.205525 
L 79.864632 144.819938 
" clip-path="url(#p799d2815ad)" style="fill: none; stroke: #000000"/>
    <path d="M 81.563743 204.801641 
L 81.563743 84.892267 
" clip-path="url(#p799d2815ad)" style="fill: none; stroke: #000000"/>
    <path d="M 83.262853 187.094101 
L 83.262853 62.604 
" clip-path="url(#p799d2815ad)" style="fill: none; stroke: #000000"/>
    <path d="M 86.661073 178.253839 
L 86.661073 84.892267 
" clip-path="url(#p799d2815ad)" style="fill: none; stroke: #000000"/>
    <path d="M 90.059292 185.007859 
L 90.059292 78.276329 
" clip-path="url(#p799d2815ad)" style="fill: none; stroke: #000000"/>
    <path d="M 93.457513 169.497627 
L 93.457513 85.003333 
" clip-path="url(#p799d2815ad)" style="fill: none; stroke: #000000"/>
    <path d="M 96.855733 191.785894 
L 96.855733 116.188896 
" clip-path="url(#p799d2815ad)" style="fill: none; stroke: #000000"/>
    <path d="M 100.253952 194.06425 
L 100.253952 131.807192 
" clip-path="url(#p799d2815ad)" style="fill: none; stroke: #000000"/>
    <path d="M 103.652173 209.68855 
L 103.652173 147.425489 
" clip-path="url(#p799d2815ad)" style="fill: none; stroke: #000000"/>
    <path d="M 110.448612 223.136555 
L 110.448612 156.430849 
" clip-path="url(#p799d2815ad)" style="fill: none; stroke: #000000"/>
    <path d="M 117.245052 245.481856 
L 117.245052 196.564739 
" clip-path="url(#p799d2815ad)" style="fill: none; stroke: #000000"/>
    <path d="M 130.837932 279.068848 
L 130.837932 230.151731 
" clip-path="url(#p799d2815ad)" style="fill: none; stroke: #000000"/>
    <path d="M 144.430813 288.185275 
L 144.430813 261.49939 
" clip-path="url(#p799d2815ad)" style="fill: none; stroke: #000000"/>
    <path d="M 158.023692 301.744345 
L 158.023692 279.507109 
" clip-path="url(#p799d2815ad)" style="fill: none; stroke: #000000"/>
    <path d="M 239.580972 329.772029 
L 239.580972 325.323381 
" clip-path="url(#p799d2815ad)" style="fill: none; stroke: #000000"/>
   </g>
   <g id="LineCollection_2">
    <path clip-path="url(#p799d2815ad)" style="fill: none; stroke: #e377c2"/>
    <path d="M 78.165523 322.660796 
L 78.165523 264.8764 
" clip-path="url(#p799d2815ad)" style="fill: none; stroke: #e377c2"/>
    <path d="M 79.864632 282.679998 
L 79.864632 113.685406 
" clip-path="url(#p799d2815ad)" style="fill: none; stroke: #e377c2"/>
    <path d="M 81.563743 233.774887 
L 81.563743 109.254768 
" clip-path="url(#p799d2815ad)" style="fill: none; stroke: #e377c2"/>
    <path d="M 83.262853 222.698294 
L 83.262853 111.518116 
" clip-path="url(#p799d2815ad)" style="fill: none; stroke: #e377c2"/>
    <path d="M 86.661073 202.742416 
L 86.661073 113.799473 
" clip-path="url(#p799d2815ad)" style="fill: none; stroke: #e377c2"/>
    <path d="M 90.059292 207.242094 
L 90.059292 118.299152 
" clip-path="url(#p799d2815ad)" style="fill: none; stroke: #e377c2"/>
    <path d="M 93.457513 202.85048 
L 93.457513 131.696126 
" clip-path="url(#p799d2815ad)" style="fill: none; stroke: #e377c2"/>
    <path d="M 96.855733 216.247454 
L 96.855733 136.201808 
" clip-path="url(#p799d2815ad)" style="fill: none; stroke: #e377c2"/>
    <path d="M 100.253952 227.420105 
L 100.253952 165.157043 
" clip-path="url(#p799d2815ad)" style="fill: none; stroke: #e377c2"/>
    <path d="M 103.652173 236.368431 
L 103.652173 187.481332 
" clip-path="url(#p799d2815ad)" style="fill: none; stroke: #e377c2"/>
    <path d="M 110.448612 252.043762 
L 110.448612 216.466585 
" clip-path="url(#p799d2815ad)" style="fill: none; stroke: #e377c2"/>
    <path d="M 117.245052 274.389063 
L 117.245052 243.284548 
" clip-path="url(#p799d2815ad)" style="fill: none; stroke: #e377c2"/>
    <path d="M 130.837932 296.857437 
L 130.837932 279.068848 
" clip-path="url(#p799d2815ad)" style="fill: none; stroke: #e377c2"/>
    <path d="M 144.430813 312.640831 
L 144.430813 303.749539 
" clip-path="url(#p799d2815ad)" style="fill: none; stroke: #e377c2"/>
    <path d="M 158.023692 319.532934 
L 158.023692 315.114304 
" clip-path="url(#p799d2815ad)" style="fill: none; stroke: #e377c2"/>
    <path clip-path="url(#p799d2815ad)" style="fill: none; stroke: #e377c2"/>
   </g>
   <g id="LineCollection_3">
    <path d="M 76.466413 349.884 
L 76.466413 311.64724 
" clip-path="url(#p799d2815ad)" style="fill: none; stroke: #000000"/>
    <path d="M 78.165523 271.49534 
L 78.165523 221.785751 
" clip-path="url(#p799d2815ad)" style="fill: none; stroke: #000000"/>
    <path d="M 79.864632 175.897437 
L 79.864632 118.539295 
" clip-path="url(#p799d2815ad)" style="fill: none; stroke: #000000"/>
    <path d="M 81.563743 175.897437 
L 81.563743 91.76936 
" clip-path="url(#p799d2815ad)" style="fill: none; stroke: #000000"/>
    <path d="M 83.262853 177.809575 
L 83.262853 108.978604 
" clip-path="url(#p799d2815ad)" style="fill: none; stroke: #000000"/>
    <path d="M 86.661073 183.545989 
L 86.661073 122.363571 
" clip-path="url(#p799d2815ad)" style="fill: none; stroke: #000000"/>
    <path d="M 90.059292 210.30992 
L 90.059292 118.539295 
" clip-path="url(#p799d2815ad)" style="fill: none; stroke: #000000"/>
    <path d="M 93.457513 221.785751 
L 93.457513 141.481951 
" clip-path="url(#p799d2815ad)" style="fill: none; stroke: #000000"/>
    <path d="M 96.855733 244.728407 
L 96.855733 179.721713 
" clip-path="url(#p799d2815ad)" style="fill: none; stroke: #000000"/>
    <path d="M 100.253952 256.201236 
L 100.253952 225.607026 
" clip-path="url(#p799d2815ad)" style="fill: none; stroke: #000000"/>
    <path d="M 103.652173 273.404476 
L 103.652173 246.640546 
" clip-path="url(#p799d2815ad)" style="fill: none; stroke: #000000"/>
    <path d="M 110.448612 282.968169 
L 110.448612 263.846787 
" clip-path="url(#p799d2815ad)" style="fill: none; stroke: #000000"/>
    <path d="M 117.245052 296.353136 
L 117.245052 277.231755 
" clip-path="url(#p799d2815ad)" style="fill: none; stroke: #000000"/>
    <path d="M 130.837932 311.64724 
L 130.837932 303.998687 
" clip-path="url(#p799d2815ad)" style="fill: none; stroke: #000000"/>
    <path d="M 144.430813 323.120069 
L 144.430813 311.64724 
" clip-path="url(#p799d2815ad)" style="fill: none; stroke: #000000"/>
    <path clip-path="url(#p799d2815ad)" style="fill: none; stroke: #000000"/>
    <path clip-path="url(#p799d2815ad)" style="fill: none; stroke: #000000"/>
   </g>
   <g id="LineCollection_4">
    <path clip-path="url(#p799d2815ad)" style="fill: none; stroke: #ff7f0e"/>
    <path d="M 78.165523 275.319616 
L 78.165523 202.664369 
" clip-path="url(#p799d2815ad)" style="fill: none; stroke: #ff7f0e"/>
    <path d="M 79.864632 195.015817 
L 79.864632 107.069468 
" clip-path="url(#p799d2815ad)" style="fill: none; stroke: #ff7f0e"/>
    <path d="M 81.563743 183.545989 
L 81.563743 95.593637 
" clip-path="url(#p799d2815ad)" style="fill: none; stroke: #ff7f0e"/>
    <path d="M 83.262853 189.282404 
L 83.262853 105.154328 
" clip-path="url(#p799d2815ad)" style="fill: none; stroke: #ff7f0e"/>
    <path d="M 86.661073 212.22506 
L 86.661073 135.745537 
" clip-path="url(#p799d2815ad)" style="fill: none; stroke: #ff7f0e"/>
    <path d="M 90.059292 217.961475 
L 90.059292 164.421606 
" clip-path="url(#p799d2815ad)" style="fill: none; stroke: #ff7f0e"/>
    <path d="M 93.457513 231.34344 
L 93.457513 173.985298 
" clip-path="url(#p799d2815ad)" style="fill: none; stroke: #ff7f0e"/>
    <path d="M 96.855733 248.552684 
L 96.855733 214.134197 
" clip-path="url(#p799d2815ad)" style="fill: none; stroke: #ff7f0e"/>
    <path d="M 100.253952 256.201236 
L 100.253952 225.607026 
" clip-path="url(#p799d2815ad)" style="fill: none; stroke: #ff7f0e"/>
    <path d="M 103.652173 267.671064 
L 103.652173 244.731409 
" clip-path="url(#p799d2815ad)" style="fill: none; stroke: #ff7f0e"/>
    <path d="M 110.448612 288.704584 
L 110.448612 265.758926 
" clip-path="url(#p799d2815ad)" style="fill: none; stroke: #ff7f0e"/>
    <path d="M 117.245052 300.174411 
L 117.245052 277.234756 
" clip-path="url(#p799d2815ad)" style="fill: none; stroke: #ff7f0e"/>
    <path d="M 130.837932 313.559378 
L 130.837932 302.086549 
" clip-path="url(#p799d2815ad)" style="fill: none; stroke: #ff7f0e"/>
    <path clip-path="url(#p799d2815ad)" style="fill: none; stroke: #ff7f0e"/>
    <path clip-path="url(#p799d2815ad)" style="fill: none; stroke: #ff7f0e"/>
    <path clip-path="url(#p799d2815ad)" style="fill: none; stroke: #ff7f0e"/>
   </g>
   <g id="LineCollection_5">
    <path clip-path="url(#p799d2815ad)" style="fill: none; stroke: #000000"/>
    <path d="M 78.165523 299.727145 
L 78.165523 262.823178 
" clip-path="url(#p799d2815ad)" style="fill: none; stroke: #000000"/>
    <path d="M 79.864632 222.224012 
L 79.864632 165.634328 
" clip-path="url(#p799d2815ad)" style="fill: none; stroke: #000000"/>
    <path d="M 81.563743 174.243452 
L 81.563743 139.794947 
" clip-path="url(#p799d2815ad)" style="fill: none; stroke: #000000"/>
    <path d="M 83.262853 159.480665 
L 83.262853 125.03216 
" clip-path="url(#p799d2815ad)" style="fill: none; stroke: #000000"/>
    <path d="M 86.661073 148.410075 
L 86.661073 94.275852 
" clip-path="url(#p799d2815ad)" style="fill: none; stroke: #000000"/>
    <path d="M 90.059292 161.94213 
L 90.059292 97.96805 
" clip-path="url(#p799d2815ad)" style="fill: none; stroke: #000000"/>
    <path d="M 93.457513 154.560736 
L 93.457513 95.509587 
" clip-path="url(#p799d2815ad)" style="fill: none; stroke: #000000"/>
    <path d="M 96.855733 174.243452 
L 96.855733 90.589658 
" clip-path="url(#p799d2815ad)" style="fill: none; stroke: #000000"/>
    <path d="M 100.253952 185.317043 
L 100.253952 113.958568 
" clip-path="url(#p799d2815ad)" style="fill: none; stroke: #000000"/>
    <path d="M 103.652173 200.079831 
L 103.652173 133.644286 
" clip-path="url(#p799d2815ad)" style="fill: none; stroke: #000000"/>
    <path d="M 110.448612 218.531814 
L 110.448612 179.166382 
" clip-path="url(#p799d2815ad)" style="fill: none; stroke: #000000"/>
    <path d="M 117.245052 245.598926 
L 117.245052 208.688955 
" clip-path="url(#p799d2815ad)" style="fill: none; stroke: #000000"/>
    <path d="M 130.837932 270.20157 
L 130.837932 243.13746 
" clip-path="url(#p799d2815ad)" style="fill: none; stroke: #000000"/>
    <path d="M 144.430813 293.576484 
L 144.430813 273.89677 
" clip-path="url(#p799d2815ad)" style="fill: none; stroke: #000000"/>
    <path d="M 158.023692 307.108538 
L 158.023692 292.345751 
" clip-path="url(#p799d2815ad)" style="fill: none; stroke: #000000"/>
    <path clip-path="url(#p799d2815ad)" style="fill: none; stroke: #000000"/>
   </g>
   <g id="LineCollection_6">
    <path clip-path="url(#p799d2815ad)" style="fill: none; stroke: #d62728"/>
    <path d="M 78.165523 291.121022 
L 78.165523 246.826656 
" clip-path="url(#p799d2815ad)" style="fill: none; stroke: #d62728"/>
    <path d="M 79.864632 212.381153 
L 79.864632 165.631326 
" clip-path="url(#p799d2815ad)" style="fill: none; stroke: #d62728"/>
    <path d="M 81.563743 173.012719 
L 81.563743 81.97453 
" clip-path="url(#p799d2815ad)" style="fill: none; stroke: #d62728"/>
    <path d="M 83.262853 168.095793 
L 83.262853 96.737317 
" clip-path="url(#p799d2815ad)" style="fill: none; stroke: #d62728"/>
    <path d="M 86.661073 153.333005 
L 86.661073 81.97453 
" clip-path="url(#p799d2815ad)" style="fill: none; stroke: #d62728"/>
    <path d="M 90.059292 170.554256 
L 90.059292 94.278854 
" clip-path="url(#p799d2815ad)" style="fill: none; stroke: #d62728"/>
    <path d="M 93.457513 165.631326 
L 93.457513 89.355924 
" clip-path="url(#p799d2815ad)" style="fill: none; stroke: #d62728"/>
    <path d="M 96.855733 175.474185 
L 96.855733 99.198783 
" clip-path="url(#p799d2815ad)" style="fill: none; stroke: #d62728"/>
    <path d="M 100.253952 192.695435 
L 100.253952 123.804429 
" clip-path="url(#p799d2815ad)" style="fill: none; stroke: #d62728"/>
    <path d="M 103.652173 202.538294 
L 103.652173 145.94861 
" clip-path="url(#p799d2815ad)" style="fill: none; stroke: #d62728"/>
    <path d="M 110.448612 228.377675 
L 110.448612 186.544774 
" clip-path="url(#p799d2815ad)" style="fill: none; stroke: #d62728"/>
    <path d="M 117.245052 246.829658 
L 117.245052 214.842618 
" clip-path="url(#p799d2815ad)" style="fill: none; stroke: #d62728"/>
    <path d="M 130.837932 281.278163 
L 130.837932 256.669515 
" clip-path="url(#p799d2815ad)" style="fill: none; stroke: #d62728"/>
    <path d="M 144.430813 294.807216 
L 144.430813 280.044429 
" clip-path="url(#p799d2815ad)" style="fill: none; stroke: #d62728"/>
    <path clip-path="url(#p799d2815ad)" style="fill: none; stroke: #d62728"/>
    <path clip-path="url(#p799d2815ad)" style="fill: none; stroke: #d62728"/>
   </g>
   <g id="line2d_12">
    <path d="M 76.466413 340.326311 
L 77.825701 314.53974 
L 79.184989 293.893912 
L 80.544277 278.006428 
L 81.903565 265.88114 
L 83.262853 256.730549 
L 84.622141 249.9302 
L 85.981429 244.984945 
L 87.340716 241.502202 
L 88.020361 240.209326 
L 88.700005 239.170756 
L 89.379649 238.357544 
L 90.059292 237.743922 
L 90.738937 237.306951 
L 91.418581 237.026212 
L 92.098225 236.883531 
L 93.457513 236.949434 
L 94.8168 237.395486 
L 96.176089 238.135264 
L 97.535376 239.100386 
L 99.574309 240.855466 
L 102.292884 243.568292 
L 106.370749 248.030838 
L 116.565409 259.341887 
L 122.002561 264.976215 
L 126.760068 269.601621 
L 131.517576 273.942098 
L 136.275084 278.008908 
L 141.712237 282.341249 
L 147.149388 286.360348 
L 152.586541 290.089779 
L 158.023692 293.551645 
L 163.460845 296.766369 
L 169.57764 300.110834 
L 175.694436 303.190619 
L 181.811233 306.02787 
L 188.607672 308.920328 
L 195.404112 311.563139 
L 202.200553 313.978819 
L 209.676637 316.39793 
L 217.15272 318.591105 
L 225.308448 320.751549 
L 234.143821 322.847124 
L 242.979193 324.7157 
L 252.494208 326.502948 
L 262.688868 328.189417 
L 273.563173 329.760458 
L 285.11712 331.20607 
L 298.030356 332.587766 
L 311.623237 333.815699 
L 326.575404 334.941846 
L 342.886861 335.948831 
L 361.237248 336.857959 
L 382.306212 337.67109 
L 406.093752 338.362228 
L 416.288412 338.600254 
L 416.288412 338.600254 
" clip-path="url(#p799d2815ad)" style="fill: none; stroke: #000000; stroke-width: 2; stroke-linecap: square"/>
   </g>
   <g id="line2d_13">
    <path d="M 76.466413 338.213053 
L 78.165523 267.085715 
L 79.864632 191.512731 
L 81.563743 144.846954 
L 83.262853 124.849051 
L 86.661073 131.573053 
L 90.059292 131.642094 
L 93.457513 127.25048 
L 96.855733 153.987395 
L 100.253952 162.935721 
L 103.652173 178.55702 
L 110.448612 189.783702 
L 117.245052 221.023297 
L 130.837932 254.610289 
L 144.430813 274.842332 
L 158.023692 290.625727 
L 239.580972 327.547705 
" clip-path="url(#p799d2815ad)" style="fill: none; stroke-dasharray: 3.7,1.6; stroke-dashoffset: 0; stroke: #000000"/>
    <defs>
     <path id="m68fd3b3100" d="M -3 3 
L 3 3 
L 3 -3 
L -3 -3 
z
" style="stroke: #000000; stroke-linejoin: miter"/>
    </defs>
    <g clip-path="url(#p799d2815ad)">
     <use xlink:href="#m68fd3b3100" x="76.466413" y="338.213053" style="stroke: #000000; stroke-linejoin: miter"/>
     <use xlink:href="#m68fd3b3100" x="78.165523" y="267.085715" style="stroke: #000000; stroke-linejoin: miter"/>
     <use xlink:href="#m68fd3b3100" x="79.864632" y="191.512731" style="stroke: #000000; stroke-linejoin: miter"/>
     <use xlink:href="#m68fd3b3100" x="81.563743" y="144.846954" style="stroke: #000000; stroke-linejoin: miter"/>
     <use xlink:href="#m68fd3b3100" x="83.262853" y="124.849051" style="stroke: #000000; stroke-linejoin: miter"/>
     <use xlink:href="#m68fd3b3100" x="86.661073" y="131.573053" style="stroke: #000000; stroke-linejoin: miter"/>
     <use xlink:href="#m68fd3b3100" x="90.059292" y="131.642094" style="stroke: #000000; stroke-linejoin: miter"/>
     <use xlink:href="#m68fd3b3100" x="93.457513" y="127.25048" style="stroke: #000000; stroke-linejoin: miter"/>
     <use xlink:href="#m68fd3b3100" x="96.855733" y="153.987395" style="stroke: #000000; stroke-linejoin: miter"/>
     <use xlink:href="#m68fd3b3100" x="100.253952" y="162.935721" style="stroke: #000000; stroke-linejoin: miter"/>
     <use xlink:href="#m68fd3b3100" x="103.652173" y="178.55702" style="stroke: #000000; stroke-linejoin: miter"/>
     <use xlink:href="#m68fd3b3100" x="110.448612" y="189.783702" style="stroke: #000000; stroke-linejoin: miter"/>
     <use xlink:href="#m68fd3b3100" x="117.245052" y="221.023297" style="stroke: #000000; stroke-linejoin: miter"/>
     <use xlink:href="#m68fd3b3100" x="130.837932" y="254.610289" style="stroke: #000000; stroke-linejoin: miter"/>
     <use xlink:href="#m68fd3b3100" x="144.430813" y="274.842332" style="stroke: #000000; stroke-linejoin: miter"/>
     <use xlink:href="#m68fd3b3100" x="158.023692" y="290.625727" style="stroke: #000000; stroke-linejoin: miter"/>
     <use xlink:href="#m68fd3b3100" x="239.580972" y="327.547705" style="stroke: #000000; stroke-linejoin: miter"/>
    </g>
   </g>
   <g id="line2d_14">
    <path d="M 76.466413 340.326311 
L 78.165523 293.768598 
L 79.864632 198.182702 
L 81.563743 171.514828 
L 83.262853 167.108205 
L 86.661073 158.270945 
L 90.059292 162.770623 
L 93.457513 167.273303 
L 96.855733 176.224631 
L 100.253952 196.288574 
L 103.652173 211.924881 
L 110.448612 234.255173 
L 117.245052 258.836805 
L 130.837932 287.963142 
L 144.430813 308.195185 
L 158.023692 317.323619 
L 239.580972 338.666323 
" clip-path="url(#p799d2815ad)" style="fill: none; stroke-dasharray: 3.7,1.6; stroke-dashoffset: 0; stroke: #e377c2"/>
    <defs>
     <path id="maa6fcdc742" d="M -3 3 
L 3 3 
L 3 -3 
L -3 -3 
z
" style="stroke: #000000; stroke-linejoin: miter"/>
    </defs>
    <g clip-path="url(#p799d2815ad)">
     <use xlink:href="#maa6fcdc742" x="76.466413" y="340.326311" style="fill: #e377c2; stroke: #000000; stroke-linejoin: miter"/>
     <use xlink:href="#maa6fcdc742" x="78.165523" y="293.768598" style="fill: #e377c2; stroke: #000000; stroke-linejoin: miter"/>
     <use xlink:href="#maa6fcdc742" x="79.864632" y="198.182702" style="fill: #e377c2; stroke: #000000; stroke-linejoin: miter"/>
     <use xlink:href="#maa6fcdc742" x="81.563743" y="171.514828" style="fill: #e377c2; stroke: #000000; stroke-linejoin: miter"/>
     <use xlink:href="#maa6fcdc742" x="83.262853" y="167.108205" style="fill: #e377c2; stroke: #000000; stroke-linejoin: miter"/>
     <use xlink:href="#maa6fcdc742" x="86.661073" y="158.270945" style="fill: #e377c2; stroke: #000000; stroke-linejoin: miter"/>
     <use xlink:href="#maa6fcdc742" x="90.059292" y="162.770623" style="fill: #e377c2; stroke: #000000; stroke-linejoin: miter"/>
     <use xlink:href="#maa6fcdc742" x="93.457513" y="167.273303" style="fill: #e377c2; stroke: #000000; stroke-linejoin: miter"/>
     <use xlink:href="#maa6fcdc742" x="96.855733" y="176.224631" style="fill: #e377c2; stroke: #000000; stroke-linejoin: miter"/>
     <use xlink:href="#maa6fcdc742" x="100.253952" y="196.288574" style="fill: #e377c2; stroke: #000000; stroke-linejoin: miter"/>
     <use xlink:href="#maa6fcdc742" x="103.652173" y="211.924881" style="fill: #e377c2; stroke: #000000; stroke-linejoin: miter"/>
     <use xlink:href="#maa6fcdc742" x="110.448612" y="234.255173" style="fill: #e377c2; stroke: #000000; stroke-linejoin: miter"/>
     <use xlink:href="#maa6fcdc742" x="117.245052" y="258.836805" style="fill: #e377c2; stroke: #000000; stroke-linejoin: miter"/>
     <use xlink:href="#maa6fcdc742" x="130.837932" y="287.963142" style="fill: #e377c2; stroke: #000000; stroke-linejoin: miter"/>
     <use xlink:href="#maa6fcdc742" x="144.430813" y="308.195185" style="fill: #e377c2; stroke: #000000; stroke-linejoin: miter"/>
     <use xlink:href="#maa6fcdc742" x="158.023692" y="317.323619" style="fill: #e377c2; stroke: #000000; stroke-linejoin: miter"/>
     <use xlink:href="#maa6fcdc742" x="239.580972" y="338.666323" style="fill: #e377c2; stroke: #000000; stroke-linejoin: miter"/>
    </g>
   </g>
   <g id="line2d_15">
    <path d="M 76.466413 330.76562 
L 78.165523 246.640546 
L 79.864632 147.218366 
L 81.563743 133.833398 
L 83.262853 143.394089 
L 86.661073 152.95478 
L 90.059292 164.424608 
L 93.457513 181.633851 
L 96.855733 212.22506 
L 100.253952 240.904131 
L 103.652173 260.022511 
L 110.448612 273.407478 
L 117.245052 286.792446 
L 130.837932 307.822964 
L 144.430813 317.383655 
L 158.023692 326.941344 
L 239.580972 336.502035 
" clip-path="url(#p799d2815ad)" style="fill: none; stroke-dasharray: 3.7,1.6; stroke-dashoffset: 0; stroke: #000000"/>
    <defs>
     <path id="ma48c58a6d3" d="M 0 -3 
L -3 3 
L 3 3 
z
" style="stroke: #000000; stroke-linejoin: miter"/>
    </defs>
    <g clip-path="url(#p799d2815ad)">
     <use xlink:href="#ma48c58a6d3" x="76.466413" y="330.76562" style="stroke: #000000; stroke-linejoin: miter"/>
     <use xlink:href="#ma48c58a6d3" x="78.165523" y="246.640546" style="stroke: #000000; stroke-linejoin: miter"/>
     <use xlink:href="#ma48c58a6d3" x="79.864632" y="147.218366" style="stroke: #000000; stroke-linejoin: miter"/>
     <use xlink:href="#ma48c58a6d3" x="81.563743" y="133.833398" style="stroke: #000000; stroke-linejoin: miter"/>
     <use xlink:href="#ma48c58a6d3" x="83.262853" y="143.394089" style="stroke: #000000; stroke-linejoin: miter"/>
     <use xlink:href="#ma48c58a6d3" x="86.661073" y="152.95478" style="stroke: #000000; stroke-linejoin: miter"/>
     <use xlink:href="#ma48c58a6d3" x="90.059292" y="164.424608" style="stroke: #000000; stroke-linejoin: miter"/>
     <use xlink:href="#ma48c58a6d3" x="93.457513" y="181.633851" style="stroke: #000000; stroke-linejoin: miter"/>
     <use xlink:href="#ma48c58a6d3" x="96.855733" y="212.22506" style="stroke: #000000; stroke-linejoin: miter"/>
     <use xlink:href="#ma48c58a6d3" x="100.253952" y="240.904131" style="stroke: #000000; stroke-linejoin: miter"/>
     <use xlink:href="#ma48c58a6d3" x="103.652173" y="260.022511" style="stroke: #000000; stroke-linejoin: miter"/>
     <use xlink:href="#ma48c58a6d3" x="110.448612" y="273.407478" style="stroke: #000000; stroke-linejoin: miter"/>
     <use xlink:href="#ma48c58a6d3" x="117.245052" y="286.792446" style="stroke: #000000; stroke-linejoin: miter"/>
     <use xlink:href="#ma48c58a6d3" x="130.837932" y="307.822964" style="stroke: #000000; stroke-linejoin: miter"/>
     <use xlink:href="#ma48c58a6d3" x="144.430813" y="317.383655" style="stroke: #000000; stroke-linejoin: miter"/>
     <use xlink:href="#ma48c58a6d3" x="158.023692" y="326.941344" style="stroke: #000000; stroke-linejoin: miter"/>
     <use xlink:href="#ma48c58a6d3" x="239.580972" y="336.502035" style="stroke: #000000; stroke-linejoin: miter"/>
    </g>
   </g>
   <g id="line2d_16">
    <path d="M 76.466413 336.502035 
L 78.165523 238.991993 
L 79.864632 151.042642 
L 81.563743 139.569813 
L 83.262853 147.218366 
L 86.661073 173.985298 
L 90.059292 191.19154 
L 93.457513 202.664369 
L 96.855733 231.34344 
L 100.253952 240.904131 
L 103.652173 256.201236 
L 110.448612 277.231755 
L 117.245052 288.704584 
L 130.837932 307.822964 
L 144.430813 319.295793 
L 158.023692 325.029205 
L 239.580972 334.589896 
" clip-path="url(#p799d2815ad)" style="fill: none; stroke-dasharray: 3.7,1.6; stroke-dashoffset: 0; stroke: #ff7f0e"/>
    <defs>
     <path id="m08eac014dd" d="M -3 3 
L 3 3 
L 3 -3 
L -3 -3 
z
" style="stroke: #000000; stroke-linejoin: miter"/>
    </defs>
    <g clip-path="url(#p799d2815ad)">
     <use xlink:href="#m08eac014dd" x="76.466413" y="336.502035" style="fill: #ff7f0e; stroke: #000000; stroke-linejoin: miter"/>
     <use xlink:href="#m08eac014dd" x="78.165523" y="238.991993" style="fill: #ff7f0e; stroke: #000000; stroke-linejoin: miter"/>
     <use xlink:href="#m08eac014dd" x="79.864632" y="151.042642" style="fill: #ff7f0e; stroke: #000000; stroke-linejoin: miter"/>
     <use xlink:href="#m08eac014dd" x="81.563743" y="139.569813" style="fill: #ff7f0e; stroke: #000000; stroke-linejoin: miter"/>
     <use xlink:href="#m08eac014dd" x="83.262853" y="147.218366" style="fill: #ff7f0e; stroke: #000000; stroke-linejoin: miter"/>
     <use xlink:href="#m08eac014dd" x="86.661073" y="173.985298" style="fill: #ff7f0e; stroke: #000000; stroke-linejoin: miter"/>
     <use xlink:href="#m08eac014dd" x="90.059292" y="191.19154" style="fill: #ff7f0e; stroke: #000000; stroke-linejoin: miter"/>
     <use xlink:href="#m08eac014dd" x="93.457513" y="202.664369" style="fill: #ff7f0e; stroke: #000000; stroke-linejoin: miter"/>
     <use xlink:href="#m08eac014dd" x="96.855733" y="231.34344" style="fill: #ff7f0e; stroke: #000000; stroke-linejoin: miter"/>
     <use xlink:href="#m08eac014dd" x="100.253952" y="240.904131" style="fill: #ff7f0e; stroke: #000000; stroke-linejoin: miter"/>
     <use xlink:href="#m08eac014dd" x="103.652173" y="256.201236" style="fill: #ff7f0e; stroke: #000000; stroke-linejoin: miter"/>
     <use xlink:href="#m08eac014dd" x="110.448612" y="277.231755" style="fill: #ff7f0e; stroke: #000000; stroke-linejoin: miter"/>
     <use xlink:href="#m08eac014dd" x="117.245052" y="288.704584" style="fill: #ff7f0e; stroke: #000000; stroke-linejoin: miter"/>
     <use xlink:href="#m08eac014dd" x="130.837932" y="307.822964" style="fill: #ff7f0e; stroke: #000000; stroke-linejoin: miter"/>
     <use xlink:href="#m08eac014dd" x="144.430813" y="319.295793" style="fill: #ff7f0e; stroke: #000000; stroke-linejoin: miter"/>
     <use xlink:href="#m08eac014dd" x="158.023692" y="325.029205" style="fill: #ff7f0e; stroke: #000000; stroke-linejoin: miter"/>
     <use xlink:href="#m08eac014dd" x="239.580972" y="334.589896" style="fill: #ff7f0e; stroke: #000000; stroke-linejoin: miter"/>
    </g>
   </g>
   <g id="line2d_17">
    <path d="M 76.466413 340.326311 
L 78.165523 281.275161 
L 79.864632 193.92917 
L 81.563743 157.0192 
L 83.262853 142.256412 
L 86.661073 121.342964 
L 90.059292 129.95509 
L 93.457513 125.035161 
L 96.855733 132.416555 
L 100.253952 149.637806 
L 103.652173 166.862058 
L 110.448612 198.849098 
L 117.245052 227.14394 
L 130.837932 256.669515 
L 144.430813 283.736627 
L 158.023692 299.727145 
L 239.580972 326.794256 
" clip-path="url(#p799d2815ad)" style="fill: none; stroke-dasharray: 3.7,1.6; stroke-dashoffset: 0; stroke: #000000"/>
    <defs>
     <path id="m6f04ee1042" d="M 0 -3 
L -0.673542 -0.927051 
L -2.85317 -0.927051 
L -1.089814 0.354102 
L -1.763356 2.427051 
L -0 1.145898 
L 1.763356 2.427051 
L 1.089814 0.354102 
L 2.85317 -0.927051 
L 0.673542 -0.927051 
z
" style="stroke: #000000; stroke-linejoin: bevel"/>
    </defs>
    <g clip-path="url(#p799d2815ad)">
     <use xlink:href="#m6f04ee1042" x="76.466413" y="340.326311" style="stroke: #000000; stroke-linejoin: bevel"/>
     <use xlink:href="#m6f04ee1042" x="78.165523" y="281.275161" style="stroke: #000000; stroke-linejoin: bevel"/>
     <use xlink:href="#m6f04ee1042" x="79.864632" y="193.92917" style="stroke: #000000; stroke-linejoin: bevel"/>
     <use xlink:href="#m6f04ee1042" x="81.563743" y="157.0192" style="stroke: #000000; stroke-linejoin: bevel"/>
     <use xlink:href="#m6f04ee1042" x="83.262853" y="142.256412" style="stroke: #000000; stroke-linejoin: bevel"/>
     <use xlink:href="#m6f04ee1042" x="86.661073" y="121.342964" style="stroke: #000000; stroke-linejoin: bevel"/>
     <use xlink:href="#m6f04ee1042" x="90.059292" y="129.95509" style="stroke: #000000; stroke-linejoin: bevel"/>
     <use xlink:href="#m6f04ee1042" x="93.457513" y="125.035161" style="stroke: #000000; stroke-linejoin: bevel"/>
     <use xlink:href="#m6f04ee1042" x="96.855733" y="132.416555" style="stroke: #000000; stroke-linejoin: bevel"/>
     <use xlink:href="#m6f04ee1042" x="100.253952" y="149.637806" style="stroke: #000000; stroke-linejoin: bevel"/>
     <use xlink:href="#m6f04ee1042" x="103.652173" y="166.862058" style="stroke: #000000; stroke-linejoin: bevel"/>
     <use xlink:href="#m6f04ee1042" x="110.448612" y="198.849098" style="stroke: #000000; stroke-linejoin: bevel"/>
     <use xlink:href="#m6f04ee1042" x="117.245052" y="227.14394" style="stroke: #000000; stroke-linejoin: bevel"/>
     <use xlink:href="#m6f04ee1042" x="130.837932" y="256.669515" style="stroke: #000000; stroke-linejoin: bevel"/>
     <use xlink:href="#m6f04ee1042" x="144.430813" y="283.736627" style="stroke: #000000; stroke-linejoin: bevel"/>
     <use xlink:href="#m6f04ee1042" x="158.023692" y="299.727145" style="stroke: #000000; stroke-linejoin: bevel"/>
     <use xlink:href="#m6f04ee1042" x="239.580972" y="326.794256" style="stroke: #000000; stroke-linejoin: bevel"/>
    </g>
   </g>
   <g id="line2d_18">
    <path d="M 76.466413 340.326311 
L 78.165523 268.973839 
L 79.864632 189.006239 
L 81.563743 127.493625 
L 83.262853 132.416555 
L 86.661073 117.653768 
L 90.059292 132.416555 
L 93.457513 127.493625 
L 96.855733 137.336484 
L 100.253952 158.249932 
L 103.652173 174.243452 
L 110.448612 207.461225 
L 117.245052 230.836138 
L 130.837932 268.973839 
L 144.430813 287.425823 
L 158.023692 304.650075 
L 239.580972 329.252719 
" clip-path="url(#p799d2815ad)" style="fill: none; stroke-dasharray: 3.7,1.6; stroke-dashoffset: 0; stroke: #d62728"/>
    <defs>
     <path id="mce63ae760e" d="M -3 3 
L 3 3 
L 3 -3 
L -3 -3 
z
" style="stroke: #000000; stroke-linejoin: miter"/>
    </defs>
    <g clip-path="url(#p799d2815ad)">
     <use xlink:href="#mce63ae760e" x="76.466413" y="340.326311" style="fill: #d62728; stroke: #000000; stroke-linejoin: miter"/>
     <use xlink:href="#mce63ae760e" x="78.165523" y="268.973839" style="fill: #d62728; stroke: #000000; stroke-linejoin: miter"/>
     <use xlink:href="#mce63ae760e" x="79.864632" y="189.006239" style="fill: #d62728; stroke: #000000; stroke-linejoin: miter"/>
     <use xlink:href="#mce63ae760e" x="81.563743" y="127.493625" style="fill: #d62728; stroke: #000000; stroke-linejoin: miter"/>
     <use xlink:href="#mce63ae760e" x="83.262853" y="132.416555" style="fill: #d62728; stroke: #000000; stroke-linejoin: miter"/>
     <use xlink:href="#mce63ae760e" x="86.661073" y="117.653768" style="fill: #d62728; stroke: #000000; stroke-linejoin: miter"/>
     <use xlink:href="#mce63ae760e" x="90.059292" y="132.416555" style="fill: #d62728; stroke: #000000; stroke-linejoin: miter"/>
     <use xlink:href="#mce63ae760e" x="93.457513" y="127.493625" style="fill: #d62728; stroke: #000000; stroke-linejoin: miter"/>
     <use xlink:href="#mce63ae760e" x="96.855733" y="137.336484" style="fill: #d62728; stroke: #000000; stroke-linejoin: miter"/>
     <use xlink:href="#mce63ae760e" x="100.253952" y="158.249932" style="fill: #d62728; stroke: #000000; stroke-linejoin: miter"/>
     <use xlink:href="#mce63ae760e" x="103.652173" y="174.243452" style="fill: #d62728; stroke: #000000; stroke-linejoin: miter"/>
     <use xlink:href="#mce63ae760e" x="110.448612" y="207.461225" style="fill: #d62728; stroke: #000000; stroke-linejoin: miter"/>
     <use xlink:href="#mce63ae760e" x="117.245052" y="230.836138" style="fill: #d62728; stroke: #000000; stroke-linejoin: miter"/>
     <use xlink:href="#mce63ae760e" x="130.837932" y="268.973839" style="fill: #d62728; stroke: #000000; stroke-linejoin: miter"/>
     <use xlink:href="#mce63ae760e" x="144.430813" y="287.425823" style="fill: #d62728; stroke: #000000; stroke-linejoin: miter"/>
     <use xlink:href="#mce63ae760e" x="158.023692" y="304.650075" style="fill: #d62728; stroke: #000000; stroke-linejoin: miter"/>
     <use xlink:href="#mce63ae760e" x="239.580972" y="329.252719" style="fill: #d62728; stroke: #000000; stroke-linejoin: miter"/>
    </g>
   </g>
   <g id="patch_3">
    <path d="M 59.475313 364.248 
L 59.475313 48.24 
" style="fill: none; stroke: #000000; stroke-width: 0.8; stroke-linejoin: miter; stroke-linecap: square"/>
   </g>
   <g id="patch_4">
    <path d="M 433.279513 364.248 
L 433.279513 48.24 
" style="fill: none; stroke: #000000; stroke-width: 0.8; stroke-linejoin: miter; stroke-linecap: square"/>
   </g>
   <g id="patch_5">
    <path d="M 59.475313 364.248 
L 433.279512 364.248 
" style="fill: none; stroke: #000000; stroke-width: 0.8; stroke-linejoin: miter; stroke-linecap: square"/>
   </g>
   <g id="patch_6">
    <path d="M 59.475313 48.24 
L 433.279512 48.24 
" style="fill: none; stroke: #000000; stroke-width: 0.8; stroke-linejoin: miter; stroke-linecap: square"/>
   </g>
   <g id="legend_1">
    <g id="patch_7">
     <path d="M 193.76545 158.986875 
L 426.279513 158.986875 
Q 428.279513 158.986875 428.279513 156.986875 
L 428.279513 55.24 
Q 428.279513 53.24 426.279513 53.24 
L 193.76545 53.24 
Q 191.76545 53.24 191.76545 55.24 
L 191.76545 156.986875 
Q 191.76545 158.986875 193.76545 158.986875 
z
" style="fill: #ffffff; opacity: 0.8; stroke: #cccccc; stroke-linejoin: miter"/>
    </g>
    <g id="line2d_19">
     <path d="M 195.76545 61.338437 
L 215.76545 61.338437 
" style="fill: none; stroke: #000000; stroke-width: 2; stroke-linecap: square"/>
    </g>
    <g id="line2d_20"/>
    <g id="text_14">
     <!-- sim: api 25ug PO -->
     <g transform="translate(223.76545 64.838437) scale(0.1 -0.1)">
      <defs>
       <path id="DejaVuSans-73" d="M 2834 3397 
L 2834 2853 
Q 2591 2978 2328 3040 
Q 2066 3103 1784 3103 
Q 1356 3103 1142 2972 
Q 928 2841 928 2578 
Q 928 2378 1081 2264 
Q 1234 2150 1697 2047 
L 1894 2003 
Q 2506 1872 2764 1633 
Q 3022 1394 3022 966 
Q 3022 478 2636 193 
Q 2250 -91 1575 -91 
Q 1294 -91 989 -36 
Q 684 19 347 128 
L 347 722 
Q 666 556 975 473 
Q 1284 391 1588 391 
Q 1994 391 2212 530 
Q 2431 669 2431 922 
Q 2431 1156 2273 1281 
Q 2116 1406 1581 1522 
L 1381 1569 
Q 847 1681 609 1914 
Q 372 2147 372 2553 
Q 372 3047 722 3315 
Q 1072 3584 1716 3584 
Q 2034 3584 2315 3537 
Q 2597 3491 2834 3397 
z
" transform="scale(0.015625)"/>
       <path id="DejaVuSans-69" d="M 603 3500 
L 1178 3500 
L 1178 0 
L 603 0 
L 603 3500 
z
M 603 4863 
L 1178 4863 
L 1178 4134 
L 603 4134 
L 603 4863 
z
" transform="scale(0.015625)"/>
       <path id="DejaVuSans-6d" d="M 3328 2828 
Q 3544 3216 3844 3400 
Q 4144 3584 4550 3584 
Q 5097 3584 5394 3201 
Q 5691 2819 5691 2113 
L 5691 0 
L 5113 0 
L 5113 2094 
Q 5113 2597 4934 2840 
Q 4756 3084 4391 3084 
Q 3944 3084 3684 2787 
Q 3425 2491 3425 1978 
L 3425 0 
L 2847 0 
L 2847 2094 
Q 2847 2600 2669 2842 
Q 2491 3084 2119 3084 
Q 1678 3084 1418 2786 
Q 1159 2488 1159 1978 
L 1159 0 
L 581 0 
L 581 3500 
L 1159 3500 
L 1159 2956 
Q 1356 3278 1631 3431 
Q 1906 3584 2284 3584 
Q 2666 3584 2933 3390 
Q 3200 3197 3328 2828 
z
" transform="scale(0.015625)"/>
       <path id="DejaVuSans-3a" d="M 750 794 
L 1409 794 
L 1409 0 
L 750 0 
L 750 794 
z
M 750 3309 
L 1409 3309 
L 1409 2516 
L 750 2516 
L 750 3309 
z
" transform="scale(0.015625)"/>
       <path id="DejaVuSans-20" transform="scale(0.015625)"/>
       <path id="DejaVuSans-61" d="M 2194 1759 
Q 1497 1759 1228 1600 
Q 959 1441 959 1056 
Q 959 750 1161 570 
Q 1363 391 1709 391 
Q 2188 391 2477 730 
Q 2766 1069 2766 1631 
L 2766 1759 
L 2194 1759 
z
M 3341 1997 
L 3341 0 
L 2766 0 
L 2766 531 
Q 2569 213 2275 61 
Q 1981 -91 1556 -91 
Q 1019 -91 701 211 
Q 384 513 384 1019 
Q 384 1609 779 1909 
Q 1175 2209 1959 2209 
L 2766 2209 
L 2766 2266 
Q 2766 2663 2505 2880 
Q 2244 3097 1772 3097 
Q 1472 3097 1187 3025 
Q 903 2953 641 2809 
L 641 3341 
Q 956 3463 1253 3523 
Q 1550 3584 1831 3584 
Q 2591 3584 2966 3190 
Q 3341 2797 3341 1997 
z
" transform="scale(0.015625)"/>
       <path id="DejaVuSans-70" d="M 1159 525 
L 1159 -1331 
L 581 -1331 
L 581 3500 
L 1159 3500 
L 1159 2969 
Q 1341 3281 1617 3432 
Q 1894 3584 2278 3584 
Q 2916 3584 3314 3078 
Q 3713 2572 3713 1747 
Q 3713 922 3314 415 
Q 2916 -91 2278 -91 
Q 1894 -91 1617 61 
Q 1341 213 1159 525 
z
M 3116 1747 
Q 3116 2381 2855 2742 
Q 2594 3103 2138 3103 
Q 1681 3103 1420 2742 
Q 1159 2381 1159 1747 
Q 1159 1113 1420 752 
Q 1681 391 2138 391 
Q 2594 391 2855 752 
Q 3116 1113 3116 1747 
z
" transform="scale(0.015625)"/>
       <path id="DejaVuSans-75" d="M 544 1381 
L 544 3500 
L 1119 3500 
L 1119 1403 
Q 1119 906 1312 657 
Q 1506 409 1894 409 
Q 2359 409 2629 706 
Q 2900 1003 2900 1516 
L 2900 3500 
L 3475 3500 
L 3475 0 
L 2900 0 
L 2900 538 
Q 2691 219 2414 64 
Q 2138 -91 1772 -91 
Q 1169 -91 856 284 
Q 544 659 544 1381 
z
M 1991 3584 
L 1991 3584 
z
" transform="scale(0.015625)"/>
       <path id="DejaVuSans-67" d="M 2906 1791 
Q 2906 2416 2648 2759 
Q 2391 3103 1925 3103 
Q 1463 3103 1205 2759 
Q 947 2416 947 1791 
Q 947 1169 1205 825 
Q 1463 481 1925 481 
Q 2391 481 2648 825 
Q 2906 1169 2906 1791 
z
M 3481 434 
Q 3481 -459 3084 -895 
Q 2688 -1331 1869 -1331 
Q 1566 -1331 1297 -1286 
Q 1028 -1241 775 -1147 
L 775 -588 
Q 1028 -725 1275 -790 
Q 1522 -856 1778 -856 
Q 2344 -856 2625 -561 
Q 2906 -266 2906 331 
L 2906 616 
Q 2728 306 2450 153 
Q 2172 0 1784 0 
Q 1141 0 747 490 
Q 353 981 353 1791 
Q 353 2603 747 3093 
Q 1141 3584 1784 3584 
Q 2172 3584 2450 3431 
Q 2728 3278 2906 2969 
L 2906 3500 
L 3481 3500 
L 3481 434 
z
" transform="scale(0.015625)"/>
       <path id="DejaVuSans-50" d="M 1259 4147 
L 1259 2394 
L 2053 2394 
Q 2494 2394 2734 2622 
Q 2975 2850 2975 3272 
Q 2975 3691 2734 3919 
Q 2494 4147 2053 4147 
L 1259 4147 
z
M 628 4666 
L 2053 4666 
Q 2838 4666 3239 4311 
Q 3641 3956 3641 3272 
Q 3641 2581 3239 2228 
Q 2838 1875 2053 1875 
L 1259 1875 
L 1259 0 
L 628 0 
L 628 4666 
z
" transform="scale(0.015625)"/>
       <path id="DejaVuSans-4f" d="M 2522 4238 
Q 1834 4238 1429 3725 
Q 1025 3213 1025 2328 
Q 1025 1447 1429 934 
Q 1834 422 2522 422 
Q 3209 422 3611 934 
Q 4013 1447 4013 2328 
Q 4013 3213 3611 3725 
Q 3209 4238 2522 4238 
z
M 2522 4750 
Q 3503 4750 4090 4092 
Q 4678 3434 4678 2328 
Q 4678 1225 4090 567 
Q 3503 -91 2522 -91 
Q 1538 -91 948 565 
Q 359 1222 359 2328 
Q 359 3434 948 4092 
Q 1538 4750 2522 4750 
z
" transform="scale(0.015625)"/>
      </defs>
      <use xlink:href="#DejaVuSans-73"/>
      <use xlink:href="#DejaVuSans-69" transform="translate(52.099609 0)"/>
      <use xlink:href="#DejaVuSans-6d" transform="translate(79.882812 0)"/>
      <use xlink:href="#DejaVuSans-3a" transform="translate(177.294922 0)"/>
      <use xlink:href="#DejaVuSans-20" transform="translate(210.986328 0)"/>
      <use xlink:href="#DejaVuSans-61" transform="translate(242.773438 0)"/>
      <use xlink:href="#DejaVuSans-70" transform="translate(304.052734 0)"/>
      <use xlink:href="#DejaVuSans-69" transform="translate(367.529297 0)"/>
      <use xlink:href="#DejaVuSans-20" transform="translate(395.3125 0)"/>
      <use xlink:href="#DejaVuSans-32" transform="translate(427.099609 0)"/>
      <use xlink:href="#DejaVuSans-35" transform="translate(490.722656 0)"/>
      <use xlink:href="#DejaVuSans-75" transform="translate(554.345703 0)"/>
      <use xlink:href="#DejaVuSans-67" transform="translate(617.724609 0)"/>
      <use xlink:href="#DejaVuSans-20" transform="translate(681.201172 0)"/>
      <use xlink:href="#DejaVuSans-50" transform="translate(712.988281 0)"/>
      <use xlink:href="#DejaVuSans-4f" transform="translate(773.291016 0)"/>
     </g>
    </g>
    <g id="LineCollection_7">
     <path d="M 205.76545 81.016562 
L 205.76545 71.016562 
" style="fill: none; stroke: #000000"/>
    </g>
    <g id="line2d_21">
     <path d="M 195.76545 76.016562 
L 215.76545 76.016562 
" style="fill: none; stroke-dasharray: 3.7,1.6; stroke-dashoffset: 0; stroke: #000000"/>
    </g>
    <g id="line2d_22">
     <g>
      <use xlink:href="#m68fd3b3100" x="205.76545" y="76.016562" style="stroke: #000000; stroke-linejoin: miter"/>
     </g>
    </g>
    <g id="text_15">
     <!-- exp: DOACs±SD (n=12) -->
     <g transform="translate(223.76545 79.516562) scale(0.1 -0.1)">
      <defs>
       <path id="DejaVuSans-65" d="M 3597 1894 
L 3597 1613 
L 953 1613 
Q 991 1019 1311 708 
Q 1631 397 2203 397 
Q 2534 397 2845 478 
Q 3156 559 3463 722 
L 3463 178 
Q 3153 47 2828 -22 
Q 2503 -91 2169 -91 
Q 1331 -91 842 396 
Q 353 884 353 1716 
Q 353 2575 817 3079 
Q 1281 3584 2069 3584 
Q 2775 3584 3186 3129 
Q 3597 2675 3597 1894 
z
M 3022 2063 
Q 3016 2534 2758 2815 
Q 2500 3097 2075 3097 
Q 1594 3097 1305 2825 
Q 1016 2553 972 2059 
L 3022 2063 
z
" transform="scale(0.015625)"/>
       <path id="DejaVuSans-78" d="M 3513 3500 
L 2247 1797 
L 3578 0 
L 2900 0 
L 1881 1375 
L 863 0 
L 184 0 
L 1544 1831 
L 300 3500 
L 978 3500 
L 1906 2253 
L 2834 3500 
L 3513 3500 
z
" transform="scale(0.015625)"/>
       <path id="DejaVuSans-44" d="M 1259 4147 
L 1259 519 
L 2022 519 
Q 2988 519 3436 956 
Q 3884 1394 3884 2338 
Q 3884 3275 3436 3711 
Q 2988 4147 2022 4147 
L 1259 4147 
z
M 628 4666 
L 1925 4666 
Q 3281 4666 3915 4102 
Q 4550 3538 4550 2338 
Q 4550 1131 3912 565 
Q 3275 0 1925 0 
L 628 0 
L 628 4666 
z
" transform="scale(0.015625)"/>
       <path id="DejaVuSans-41" d="M 2188 4044 
L 1331 1722 
L 3047 1722 
L 2188 4044 
z
M 1831 4666 
L 2547 4666 
L 4325 0 
L 3669 0 
L 3244 1197 
L 1141 1197 
L 716 0 
L 50 0 
L 1831 4666 
z
" transform="scale(0.015625)"/>
       <path id="DejaVuSans-43" d="M 4122 4306 
L 4122 3641 
Q 3803 3938 3442 4084 
Q 3081 4231 2675 4231 
Q 1875 4231 1450 3742 
Q 1025 3253 1025 2328 
Q 1025 1406 1450 917 
Q 1875 428 2675 428 
Q 3081 428 3442 575 
Q 3803 722 4122 1019 
L 4122 359 
Q 3791 134 3420 21 
Q 3050 -91 2638 -91 
Q 1578 -91 968 557 
Q 359 1206 359 2328 
Q 359 3453 968 4101 
Q 1578 4750 2638 4750 
Q 3056 4750 3426 4639 
Q 3797 4528 4122 4306 
z
" transform="scale(0.015625)"/>
       <path id="DejaVuSans-b1" d="M 2944 4013 
L 2944 2803 
L 4684 2803 
L 4684 2272 
L 2944 2272 
L 2944 1063 
L 2419 1063 
L 2419 2272 
L 678 2272 
L 678 2803 
L 2419 2803 
L 2419 4013 
L 2944 4013 
z
M 678 531 
L 4684 531 
L 4684 0 
L 678 0 
L 678 531 
z
" transform="scale(0.015625)"/>
       <path id="DejaVuSans-53" d="M 3425 4513 
L 3425 3897 
Q 3066 4069 2747 4153 
Q 2428 4238 2131 4238 
Q 1616 4238 1336 4038 
Q 1056 3838 1056 3469 
Q 1056 3159 1242 3001 
Q 1428 2844 1947 2747 
L 2328 2669 
Q 3034 2534 3370 2195 
Q 3706 1856 3706 1288 
Q 3706 609 3251 259 
Q 2797 -91 1919 -91 
Q 1588 -91 1214 -16 
Q 841 59 441 206 
L 441 856 
Q 825 641 1194 531 
Q 1563 422 1919 422 
Q 2459 422 2753 634 
Q 3047 847 3047 1241 
Q 3047 1584 2836 1778 
Q 2625 1972 2144 2069 
L 1759 2144 
Q 1053 2284 737 2584 
Q 422 2884 422 3419 
Q 422 4038 858 4394 
Q 1294 4750 2059 4750 
Q 2388 4750 2728 4690 
Q 3069 4631 3425 4513 
z
" transform="scale(0.015625)"/>
       <path id="DejaVuSans-28" d="M 1984 4856 
Q 1566 4138 1362 3434 
Q 1159 2731 1159 2009 
Q 1159 1288 1364 580 
Q 1569 -128 1984 -844 
L 1484 -844 
Q 1016 -109 783 600 
Q 550 1309 550 2009 
Q 550 2706 781 3412 
Q 1013 4119 1484 4856 
L 1984 4856 
z
" transform="scale(0.015625)"/>
       <path id="DejaVuSans-6e" d="M 3513 2113 
L 3513 0 
L 2938 0 
L 2938 2094 
Q 2938 2591 2744 2837 
Q 2550 3084 2163 3084 
Q 1697 3084 1428 2787 
Q 1159 2491 1159 1978 
L 1159 0 
L 581 0 
L 581 3500 
L 1159 3500 
L 1159 2956 
Q 1366 3272 1645 3428 
Q 1925 3584 2291 3584 
Q 2894 3584 3203 3211 
Q 3513 2838 3513 2113 
z
" transform="scale(0.015625)"/>
       <path id="DejaVuSans-3d" d="M 678 2906 
L 4684 2906 
L 4684 2381 
L 678 2381 
L 678 2906 
z
M 678 1631 
L 4684 1631 
L 4684 1100 
L 678 1100 
L 678 1631 
z
" transform="scale(0.015625)"/>
       <path id="DejaVuSans-29" d="M 513 4856 
L 1013 4856 
Q 1481 4119 1714 3412 
Q 1947 2706 1947 2009 
Q 1947 1309 1714 600 
Q 1481 -109 1013 -844 
L 513 -844 
Q 928 -128 1133 580 
Q 1338 1288 1338 2009 
Q 1338 2731 1133 3434 
Q 928 4138 513 4856 
z
" transform="scale(0.015625)"/>
      </defs>
      <use xlink:href="#DejaVuSans-65"/>
      <use xlink:href="#DejaVuSans-78" transform="translate(59.773438 0)"/>
      <use xlink:href="#DejaVuSans-70" transform="translate(118.953125 0)"/>
      <use xlink:href="#DejaVuSans-3a" transform="translate(182.429688 0)"/>
      <use xlink:href="#DejaVuSans-20" transform="translate(216.121094 0)"/>
      <use xlink:href="#DejaVuSans-44" transform="translate(247.908203 0)"/>
      <use xlink:href="#DejaVuSans-4f" transform="translate(324.910156 0)"/>
      <use xlink:href="#DejaVuSans-41" transform="translate(401.871094 0)"/>
      <use xlink:href="#DejaVuSans-43" transform="translate(468.529297 0)"/>
      <use xlink:href="#DejaVuSans-73" transform="translate(538.353516 0)"/>
      <use xlink:href="#DejaVuSans-b1" transform="translate(590.453125 0)"/>
      <use xlink:href="#DejaVuSans-53" transform="translate(674.242188 0)"/>
      <use xlink:href="#DejaVuSans-44" transform="translate(737.71875 0)"/>
      <use xlink:href="#DejaVuSans-20" transform="translate(814.720703 0)"/>
      <use xlink:href="#DejaVuSans-28" transform="translate(846.507812 0)"/>
      <use xlink:href="#DejaVuSans-6e" transform="translate(885.521484 0)"/>
      <use xlink:href="#DejaVuSans-3d" transform="translate(948.900391 0)"/>
      <use xlink:href="#DejaVuSans-31" transform="translate(1032.689453 0)"/>
      <use xlink:href="#DejaVuSans-32" transform="translate(1096.3125 0)"/>
      <use xlink:href="#DejaVuSans-29" transform="translate(1159.935547 0)"/>
     </g>
    </g>
    <g id="LineCollection_8">
     <path d="M 205.76545 95.694687 
L 205.76545 85.694687 
" style="fill: none; stroke: #e377c2"/>
    </g>
    <g id="line2d_23">
     <path d="M 195.76545 90.694687 
L 215.76545 90.694687 
" style="fill: none; stroke-dasharray: 3.7,1.6; stroke-dashoffset: 0; stroke: #e377c2"/>
    </g>
    <g id="line2d_24">
     <g>
      <use xlink:href="#maa6fcdc742" x="205.76545" y="90.694687" style="fill: #e377c2; stroke: #000000; stroke-linejoin: miter"/>
     </g>
    </g>
    <g id="text_16">
     <!-- exp: DOACs, car 300mg PO±SD (n=12) -->
     <g transform="translate(223.76545 94.194687) scale(0.1 -0.1)">
      <defs>
       <path id="DejaVuSans-2c" d="M 750 794 
L 1409 794 
L 1409 256 
L 897 -744 
L 494 -744 
L 750 256 
L 750 794 
z
" transform="scale(0.015625)"/>
       <path id="DejaVuSans-63" d="M 3122 3366 
L 3122 2828 
Q 2878 2963 2633 3030 
Q 2388 3097 2138 3097 
Q 1578 3097 1268 2742 
Q 959 2388 959 1747 
Q 959 1106 1268 751 
Q 1578 397 2138 397 
Q 2388 397 2633 464 
Q 2878 531 3122 666 
L 3122 134 
Q 2881 22 2623 -34 
Q 2366 -91 2075 -91 
Q 1284 -91 818 406 
Q 353 903 353 1747 
Q 353 2603 823 3093 
Q 1294 3584 2113 3584 
Q 2378 3584 2631 3529 
Q 2884 3475 3122 3366 
z
" transform="scale(0.015625)"/>
       <path id="DejaVuSans-72" d="M 2631 2963 
Q 2534 3019 2420 3045 
Q 2306 3072 2169 3072 
Q 1681 3072 1420 2755 
Q 1159 2438 1159 1844 
L 1159 0 
L 581 0 
L 581 3500 
L 1159 3500 
L 1159 2956 
Q 1341 3275 1631 3429 
Q 1922 3584 2338 3584 
Q 2397 3584 2469 3576 
Q 2541 3569 2628 3553 
L 2631 2963 
z
" transform="scale(0.015625)"/>
      </defs>
      <use xlink:href="#DejaVuSans-65"/>
      <use xlink:href="#DejaVuSans-78" transform="translate(59.773438 0)"/>
      <use xlink:href="#DejaVuSans-70" transform="translate(118.953125 0)"/>
      <use xlink:href="#DejaVuSans-3a" transform="translate(182.429688 0)"/>
      <use xlink:href="#DejaVuSans-20" transform="translate(216.121094 0)"/>
      <use xlink:href="#DejaVuSans-44" transform="translate(247.908203 0)"/>
      <use xlink:href="#DejaVuSans-4f" transform="translate(324.910156 0)"/>
      <use xlink:href="#DejaVuSans-41" transform="translate(401.871094 0)"/>
      <use xlink:href="#DejaVuSans-43" transform="translate(468.529297 0)"/>
      <use xlink:href="#DejaVuSans-73" transform="translate(538.353516 0)"/>
      <use xlink:href="#DejaVuSans-2c" transform="translate(590.453125 0)"/>
      <use xlink:href="#DejaVuSans-20" transform="translate(622.240234 0)"/>
      <use xlink:href="#DejaVuSans-63" transform="translate(654.027344 0)"/>
      <use xlink:href="#DejaVuSans-61" transform="translate(709.007812 0)"/>
      <use xlink:href="#DejaVuSans-72" transform="translate(770.287109 0)"/>
      <use xlink:href="#DejaVuSans-20" transform="translate(811.400391 0)"/>
      <use xlink:href="#DejaVuSans-33" transform="translate(843.1875 0)"/>
      <use xlink:href="#DejaVuSans-30" transform="translate(906.810547 0)"/>
      <use xlink:href="#DejaVuSans-30" transform="translate(970.433594 0)"/>
      <use xlink:href="#DejaVuSans-6d" transform="translate(1034.056641 0)"/>
      <use xlink:href="#DejaVuSans-67" transform="translate(1131.46875 0)"/>
      <use xlink:href="#DejaVuSans-20" transform="translate(1194.945312 0)"/>
      <use xlink:href="#DejaVuSans-50" transform="translate(1226.732422 0)"/>
      <use xlink:href="#DejaVuSans-4f" transform="translate(1287.035156 0)"/>
      <use xlink:href="#DejaVuSans-b1" transform="translate(1365.746094 0)"/>
      <use xlink:href="#DejaVuSans-53" transform="translate(1449.535156 0)"/>
      <use xlink:href="#DejaVuSans-44" transform="translate(1513.011719 0)"/>
      <use xlink:href="#DejaVuSans-20" transform="translate(1590.013672 0)"/>
      <use xlink:href="#DejaVuSans-28" transform="translate(1621.800781 0)"/>
      <use xlink:href="#DejaVuSans-6e" transform="translate(1660.814453 0)"/>
      <use xlink:href="#DejaVuSans-3d" transform="translate(1724.193359 0)"/>
      <use xlink:href="#DejaVuSans-31" transform="translate(1807.982422 0)"/>
      <use xlink:href="#DejaVuSans-32" transform="translate(1871.605469 0)"/>
      <use xlink:href="#DejaVuSans-29" transform="translate(1935.228516 0)"/>
     </g>
    </g>
    <g id="LineCollection_9">
     <path d="M 205.76545 110.372812 
L 205.76545 100.372812 
" style="fill: none; stroke: #000000"/>
    </g>
    <g id="line2d_25">
     <path d="M 195.76545 105.372812 
L 215.76545 105.372812 
" style="fill: none; stroke-dasharray: 3.7,1.6; stroke-dashoffset: 0; stroke: #000000"/>
    </g>
    <g id="line2d_26">
     <g>
      <use xlink:href="#ma48c58a6d3" x="205.76545" y="105.372812" style="stroke: #000000; stroke-linejoin: miter"/>
     </g>
    </g>
    <g id="text_17">
     <!-- exp: DOACs±SD (n=11) -->
     <g transform="translate(223.76545 108.872812) scale(0.1 -0.1)">
      <use xlink:href="#DejaVuSans-65"/>
      <use xlink:href="#DejaVuSans-78" transform="translate(59.773438 0)"/>
      <use xlink:href="#DejaVuSans-70" transform="translate(118.953125 0)"/>
      <use xlink:href="#DejaVuSans-3a" transform="translate(182.429688 0)"/>
      <use xlink:href="#DejaVuSans-20" transform="translate(216.121094 0)"/>
      <use xlink:href="#DejaVuSans-44" transform="translate(247.908203 0)"/>
      <use xlink:href="#DejaVuSans-4f" transform="translate(324.910156 0)"/>
      <use xlink:href="#DejaVuSans-41" transform="translate(401.871094 0)"/>
      <use xlink:href="#DejaVuSans-43" transform="translate(468.529297 0)"/>
      <use xlink:href="#DejaVuSans-73" transform="translate(538.353516 0)"/>
      <use xlink:href="#DejaVuSans-b1" transform="translate(590.453125 0)"/>
      <use xlink:href="#DejaVuSans-53" transform="translate(674.242188 0)"/>
      <use xlink:href="#DejaVuSans-44" transform="translate(737.71875 0)"/>
      <use xlink:href="#DejaVuSans-20" transform="translate(814.720703 0)"/>
      <use xlink:href="#DejaVuSans-28" transform="translate(846.507812 0)"/>
      <use xlink:href="#DejaVuSans-6e" transform="translate(885.521484 0)"/>
      <use xlink:href="#DejaVuSans-3d" transform="translate(948.900391 0)"/>
      <use xlink:href="#DejaVuSans-31" transform="translate(1032.689453 0)"/>
      <use xlink:href="#DejaVuSans-31" transform="translate(1096.3125 0)"/>
      <use xlink:href="#DejaVuSans-29" transform="translate(1159.935547 0)"/>
     </g>
    </g>
    <g id="LineCollection_10">
     <path d="M 205.76545 125.050937 
L 205.76545 115.050937 
" style="fill: none; stroke: #ff7f0e"/>
    </g>
    <g id="line2d_27">
     <path d="M 195.76545 120.050937 
L 215.76545 120.050937 
" style="fill: none; stroke-dasharray: 3.7,1.6; stroke-dashoffset: 0; stroke: #ff7f0e"/>
    </g>
    <g id="line2d_28">
     <g>
      <use xlink:href="#m08eac014dd" x="205.76545" y="120.050937" style="fill: #ff7f0e; stroke: #000000; stroke-linejoin: miter"/>
     </g>
    </g>
    <g id="text_18">
     <!-- exp: DOACs, gab 300mg PO±SD (n=11) -->
     <g transform="translate(223.76545 123.550937) scale(0.1 -0.1)">
      <defs>
       <path id="DejaVuSans-62" d="M 3116 1747 
Q 3116 2381 2855 2742 
Q 2594 3103 2138 3103 
Q 1681 3103 1420 2742 
Q 1159 2381 1159 1747 
Q 1159 1113 1420 752 
Q 1681 391 2138 391 
Q 2594 391 2855 752 
Q 3116 1113 3116 1747 
z
M 1159 2969 
Q 1341 3281 1617 3432 
Q 1894 3584 2278 3584 
Q 2916 3584 3314 3078 
Q 3713 2572 3713 1747 
Q 3713 922 3314 415 
Q 2916 -91 2278 -91 
Q 1894 -91 1617 61 
Q 1341 213 1159 525 
L 1159 0 
L 581 0 
L 581 4863 
L 1159 4863 
L 1159 2969 
z
" transform="scale(0.015625)"/>
      </defs>
      <use xlink:href="#DejaVuSans-65"/>
      <use xlink:href="#DejaVuSans-78" transform="translate(59.773438 0)"/>
      <use xlink:href="#DejaVuSans-70" transform="translate(118.953125 0)"/>
      <use xlink:href="#DejaVuSans-3a" transform="translate(182.429688 0)"/>
      <use xlink:href="#DejaVuSans-20" transform="translate(216.121094 0)"/>
      <use xlink:href="#DejaVuSans-44" transform="translate(247.908203 0)"/>
      <use xlink:href="#DejaVuSans-4f" transform="translate(324.910156 0)"/>
      <use xlink:href="#DejaVuSans-41" transform="translate(401.871094 0)"/>
      <use xlink:href="#DejaVuSans-43" transform="translate(468.529297 0)"/>
      <use xlink:href="#DejaVuSans-73" transform="translate(538.353516 0)"/>
      <use xlink:href="#DejaVuSans-2c" transform="translate(590.453125 0)"/>
      <use xlink:href="#DejaVuSans-20" transform="translate(622.240234 0)"/>
      <use xlink:href="#DejaVuSans-67" transform="translate(654.027344 0)"/>
      <use xlink:href="#DejaVuSans-61" transform="translate(717.503906 0)"/>
      <use xlink:href="#DejaVuSans-62" transform="translate(778.783203 0)"/>
      <use xlink:href="#DejaVuSans-20" transform="translate(842.259766 0)"/>
      <use xlink:href="#DejaVuSans-33" transform="translate(874.046875 0)"/>
      <use xlink:href="#DejaVuSans-30" transform="translate(937.669922 0)"/>
      <use xlink:href="#DejaVuSans-30" transform="translate(1001.292969 0)"/>
      <use xlink:href="#DejaVuSans-6d" transform="translate(1064.916016 0)"/>
      <use xlink:href="#DejaVuSans-67" transform="translate(1162.328125 0)"/>
      <use xlink:href="#DejaVuSans-20" transform="translate(1225.804688 0)"/>
      <use xlink:href="#DejaVuSans-50" transform="translate(1257.591797 0)"/>
      <use xlink:href="#DejaVuSans-4f" transform="translate(1317.894531 0)"/>
      <use xlink:href="#DejaVuSans-b1" transform="translate(1396.605469 0)"/>
      <use xlink:href="#DejaVuSans-53" transform="translate(1480.394531 0)"/>
      <use xlink:href="#DejaVuSans-44" transform="translate(1543.871094 0)"/>
      <use xlink:href="#DejaVuSans-20" transform="translate(1620.873047 0)"/>
      <use xlink:href="#DejaVuSans-28" transform="translate(1652.660156 0)"/>
      <use xlink:href="#DejaVuSans-6e" transform="translate(1691.673828 0)"/>
      <use xlink:href="#DejaVuSans-3d" transform="translate(1755.052734 0)"/>
      <use xlink:href="#DejaVuSans-31" transform="translate(1838.841797 0)"/>
      <use xlink:href="#DejaVuSans-31" transform="translate(1902.464844 0)"/>
      <use xlink:href="#DejaVuSans-29" transform="translate(1966.087891 0)"/>
     </g>
    </g>
    <g id="LineCollection_11">
     <path d="M 205.76545 139.729062 
L 205.76545 129.729062 
" style="fill: none; stroke: #000000"/>
    </g>
    <g id="line2d_29">
     <path d="M 195.76545 134.729062 
L 215.76545 134.729062 
" style="fill: none; stroke-dasharray: 3.7,1.6; stroke-dashoffset: 0; stroke: #000000"/>
    </g>
    <g id="line2d_30">
     <g>
      <use xlink:href="#m6f04ee1042" x="205.76545" y="134.729062" style="stroke: #000000; stroke-linejoin: bevel"/>
     </g>
    </g>
    <g id="text_19">
     <!-- exp: DOACs±SD (n=12) -->
     <g transform="translate(223.76545 138.229062) scale(0.1 -0.1)">
      <use xlink:href="#DejaVuSans-65"/>
      <use xlink:href="#DejaVuSans-78" transform="translate(59.773438 0)"/>
      <use xlink:href="#DejaVuSans-70" transform="translate(118.953125 0)"/>
      <use xlink:href="#DejaVuSans-3a" transform="translate(182.429688 0)"/>
      <use xlink:href="#DejaVuSans-20" transform="translate(216.121094 0)"/>
      <use xlink:href="#DejaVuSans-44" transform="translate(247.908203 0)"/>
      <use xlink:href="#DejaVuSans-4f" transform="translate(324.910156 0)"/>
      <use xlink:href="#DejaVuSans-41" transform="translate(401.871094 0)"/>
      <use xlink:href="#DejaVuSans-43" transform="translate(468.529297 0)"/>
      <use xlink:href="#DejaVuSans-73" transform="translate(538.353516 0)"/>
      <use xlink:href="#DejaVuSans-b1" transform="translate(590.453125 0)"/>
      <use xlink:href="#DejaVuSans-53" transform="translate(674.242188 0)"/>
      <use xlink:href="#DejaVuSans-44" transform="translate(737.71875 0)"/>
      <use xlink:href="#DejaVuSans-20" transform="translate(814.720703 0)"/>
      <use xlink:href="#DejaVuSans-28" transform="translate(846.507812 0)"/>
      <use xlink:href="#DejaVuSans-6e" transform="translate(885.521484 0)"/>
      <use xlink:href="#DejaVuSans-3d" transform="translate(948.900391 0)"/>
      <use xlink:href="#DejaVuSans-31" transform="translate(1032.689453 0)"/>
      <use xlink:href="#DejaVuSans-32" transform="translate(1096.3125 0)"/>
      <use xlink:href="#DejaVuSans-29" transform="translate(1159.935547 0)"/>
     </g>
    </g>
    <g id="LineCollection_12">
     <path d="M 205.76545 154.407187 
L 205.76545 144.407187 
" style="fill: none; stroke: #d62728"/>
    </g>
    <g id="line2d_31">
     <path d="M 195.76545 149.407187 
L 215.76545 149.407187 
" style="fill: none; stroke-dasharray: 3.7,1.6; stroke-dashoffset: 0; stroke: #d62728"/>
    </g>
    <g id="line2d_32">
     <g>
      <use xlink:href="#mce63ae760e" x="205.76545" y="149.407187" style="fill: #d62728; stroke: #000000; stroke-linejoin: miter"/>
     </g>
    </g>
    <g id="text_20">
     <!-- exp: DOACs, pre 300mg PO±SD (n=12) -->
     <g transform="translate(223.76545 152.907187) scale(0.1 -0.1)">
      <use xlink:href="#DejaVuSans-65"/>
      <use xlink:href="#DejaVuSans-78" transform="translate(59.773438 0)"/>
      <use xlink:href="#DejaVuSans-70" transform="translate(118.953125 0)"/>
      <use xlink:href="#DejaVuSans-3a" transform="translate(182.429688 0)"/>
      <use xlink:href="#DejaVuSans-20" transform="translate(216.121094 0)"/>
      <use xlink:href="#DejaVuSans-44" transform="translate(247.908203 0)"/>
      <use xlink:href="#DejaVuSans-4f" transform="translate(324.910156 0)"/>
      <use xlink:href="#DejaVuSans-41" transform="translate(401.871094 0)"/>
      <use xlink:href="#DejaVuSans-43" transform="translate(468.529297 0)"/>
      <use xlink:href="#DejaVuSans-73" transform="translate(538.353516 0)"/>
      <use xlink:href="#DejaVuSans-2c" transform="translate(590.453125 0)"/>
      <use xlink:href="#DejaVuSans-20" transform="translate(622.240234 0)"/>
      <use xlink:href="#DejaVuSans-70" transform="translate(654.027344 0)"/>
      <use xlink:href="#DejaVuSans-72" transform="translate(717.503906 0)"/>
      <use xlink:href="#DejaVuSans-65" transform="translate(756.367188 0)"/>
      <use xlink:href="#DejaVuSans-20" transform="translate(817.890625 0)"/>
      <use xlink:href="#DejaVuSans-33" transform="translate(849.677734 0)"/>
      <use xlink:href="#DejaVuSans-30" transform="translate(913.300781 0)"/>
      <use xlink:href="#DejaVuSans-30" transform="translate(976.923828 0)"/>
      <use xlink:href="#DejaVuSans-6d" transform="translate(1040.546875 0)"/>
      <use xlink:href="#DejaVuSans-67" transform="translate(1137.958984 0)"/>
      <use xlink:href="#DejaVuSans-20" transform="translate(1201.435547 0)"/>
      <use xlink:href="#DejaVuSans-50" transform="translate(1233.222656 0)"/>
      <use xlink:href="#DejaVuSans-4f" transform="translate(1293.525391 0)"/>
      <use xlink:href="#DejaVuSans-b1" transform="translate(1372.236328 0)"/>
      <use xlink:href="#DejaVuSans-53" transform="translate(1456.025391 0)"/>
      <use xlink:href="#DejaVuSans-44" transform="translate(1519.501953 0)"/>
      <use xlink:href="#DejaVuSans-20" transform="translate(1596.503906 0)"/>
      <use xlink:href="#DejaVuSans-28" transform="translate(1628.291016 0)"/>
      <use xlink:href="#DejaVuSans-6e" transform="translate(1667.304688 0)"/>
      <use xlink:href="#DejaVuSans-3d" transform="translate(1730.683594 0)"/>
      <use xlink:href="#DejaVuSans-31" transform="translate(1814.472656 0)"/>
      <use xlink:href="#DejaVuSans-32" transform="translate(1878.095703 0)"/>
      <use xlink:href="#DejaVuSans-29" transform="translate(1941.71875 0)"/>
     </g>
    </g>
   </g>
  </g>
  <g id="text_21">
   <!-- Lenard2025 -->
   <g transform="translate(156.670578 26.196094) scale(0.25 -0.25)">
    <defs>
     <path id="DejaVuSans-Bold-4c" d="M 588 4666 
L 1791 4666 
L 1791 909 
L 3903 909 
L 3903 0 
L 588 0 
L 588 4666 
z
" transform="scale(0.015625)"/>
     <path id="DejaVuSans-Bold-64" d="M 2919 2988 
L 2919 4863 
L 4044 4863 
L 4044 0 
L 2919 0 
L 2919 506 
Q 2688 197 2409 53 
Q 2131 -91 1766 -91 
Q 1119 -91 703 423 
Q 288 938 288 1747 
Q 288 2556 703 3070 
Q 1119 3584 1766 3584 
Q 2128 3584 2408 3439 
Q 2688 3294 2919 2988 
z
M 2181 722 
Q 2541 722 2730 984 
Q 2919 1247 2919 1747 
Q 2919 2247 2730 2509 
Q 2541 2772 2181 2772 
Q 1825 2772 1636 2509 
Q 1447 2247 1447 1747 
Q 1447 1247 1636 984 
Q 1825 722 2181 722 
z
" transform="scale(0.015625)"/>
     <path id="DejaVuSans-Bold-32" d="M 1844 884 
L 3897 884 
L 3897 0 
L 506 0 
L 506 884 
L 2209 2388 
Q 2438 2594 2547 2791 
Q 2656 2988 2656 3200 
Q 2656 3528 2436 3728 
Q 2216 3928 1850 3928 
Q 1569 3928 1234 3808 
Q 900 3688 519 3450 
L 519 4475 
Q 925 4609 1322 4679 
Q 1719 4750 2100 4750 
Q 2938 4750 3402 4381 
Q 3866 4013 3866 3353 
Q 3866 2972 3669 2642 
Q 3472 2313 2841 1759 
L 1844 884 
z
" transform="scale(0.015625)"/>
     <path id="DejaVuSans-Bold-30" d="M 2944 2338 
Q 2944 3213 2780 3570 
Q 2616 3928 2228 3928 
Q 1841 3928 1675 3570 
Q 1509 3213 1509 2338 
Q 1509 1453 1675 1090 
Q 1841 728 2228 728 
Q 2613 728 2778 1090 
Q 2944 1453 2944 2338 
z
M 4147 2328 
Q 4147 1169 3647 539 
Q 3147 -91 2228 -91 
Q 1306 -91 806 539 
Q 306 1169 306 2328 
Q 306 3491 806 4120 
Q 1306 4750 2228 4750 
Q 3147 4750 3647 4120 
Q 4147 3491 4147 2328 
z
" transform="scale(0.015625)"/>
     <path id="DejaVuSans-Bold-35" d="M 678 4666 
L 3669 4666 
L 3669 3781 
L 1638 3781 
L 1638 3059 
Q 1775 3097 1914 3117 
Q 2053 3138 2203 3138 
Q 3056 3138 3531 2711 
Q 4006 2284 4006 1522 
Q 4006 766 3489 337 
Q 2972 -91 2053 -91 
Q 1656 -91 1267 -14 
Q 878 63 494 219 
L 494 1166 
Q 875 947 1217 837 
Q 1559 728 1863 728 
Q 2300 728 2551 942 
Q 2803 1156 2803 1522 
Q 2803 1891 2551 2103 
Q 2300 2316 1863 2316 
Q 1603 2316 1309 2248 
Q 1016 2181 678 2041 
L 678 4666 
z
" transform="scale(0.015625)"/>
    </defs>
    <use xlink:href="#DejaVuSans-Bold-4c"/>
    <use xlink:href="#DejaVuSans-Bold-65" transform="translate(63.720703 0)"/>
    <use xlink:href="#DejaVuSans-Bold-6e" transform="translate(131.542969 0)"/>
    <use xlink:href="#DejaVuSans-Bold-61" transform="translate(202.734375 0)"/>
    <use xlink:href="#DejaVuSans-Bold-72" transform="translate(270.214844 0)"/>
    <use xlink:href="#DejaVuSans-Bold-64" transform="translate(319.53125 0)"/>
    <use xlink:href="#DejaVuSans-Bold-32" transform="translate(391.113281 0)"/>
    <use xlink:href="#DejaVuSans-Bold-30" transform="translate(460.693359 0)"/>
    <use xlink:href="#DejaVuSans-Bold-32" transform="translate(530.273438 0)"/>
    <use xlink:href="#DejaVuSans-Bold-35" transform="translate(599.853516 0)"/>
   </g>
  </g>
 </g>
 <defs>
  <clipPath id="p799d2815ad">
   <rect x="59.475313" y="48.24" width="373.8042" height="316.008"/>
  </clipPath>
 </defs>
</svg>
