<?xml version="1.0" encoding="utf-8" standalone="no"?>
<!DOCTYPE svg PUBLIC "-//W3C//DTD SVG 1.1//EN"
  "http://www.w3.org/Graphics/SVG/1.1/DTD/svg11.dtd">
<svg xmlns:xlink="http://www.w3.org/1999/xlink" width="720pt" height="360pt" viewBox="0 0 720 360" xmlns="http://www.w3.org/2000/svg" version="1.1">
 <metadata>
  <rdf:RDF xmlns:dc="http://purl.org/dc/elements/1.1/" xmlns:cc="http://creativecommons.org/ns#" xmlns:rdf="http://www.w3.org/1999/02/22-rdf-syntax-ns#">
   <cc:Work>
    <dc:type rdf:resource="http://purl.org/dc/dcmitype/StillImage"/>
    <dc:date>2026-04-20T10:55:35.818025</dc:date>
    <dc:format>image/svg+xml</dc:format>
    <dc:creator>
     <cc:Agent>
      <dc:title>Matplotlib v3.10.7, https://matplotlib.org/</dc:title>
     </cc:Agent>
    </dc:creator>
   </cc:Work>
  </rdf:RDF>
 </metadata>
 <defs>
  <style type="text/css">*{stroke-linejoin: round; stroke-linecap: butt}</style>
 </defs>
 <g id="figure_1">
  <g id="patch_1">
   <path d="M 0 360 
L 720 360 
L 720 0 
L 0 0 
z
" style="fill: #ffffff"/>
  </g>
  <g id="axes_1">
   <g id="patch_2">
    <path d="M 90 320.4 
L 343.636364 320.4 
L 343.636364 43.2 
L 90 43.2 
z
" style="fill: #ffffff"/>
   </g>
   <g id="matplotlib.axis_1">
    <g id="xtick_1">
     <g id="line2d_1">
      <defs>
       <path id="m01767d64e3" d="M 0 0 
L 0 3.5 
" style="stroke: #000000; stroke-width: 0.8"/>
      </defs>
      <g>
       <use xlink:href="#m01767d64e3" x="111.136364" y="320.4" style="stroke: #000000; stroke-width: 0.8"/>
      </g>
     </g>
     <g id="text_1">
      <!-- 0 -->
      <g transform="translate(107.955114 334.998438) scale(0.1 -0.1)">
       <defs>
        <path id="DejaVuSans-30" d="M 2034 4250 
Q 1547 4250 1301 3770 
Q 1056 3291 1056 2328 
Q 1056 1369 1301 889 
Q 1547 409 2034 409 
Q 2525 409 2770 889 
Q 3016 1369 3016 2328 
Q 3016 3291 2770 3770 
Q 2525 4250 2034 4250 
z
M 2034 4750 
Q 2819 4750 3233 4129 
Q 3647 3509 3647 2328 
Q 3647 1150 3233 529 
Q 2819 -91 2034 -91 
Q 1250 -91 836 529 
Q 422 1150 422 2328 
Q 422 3509 836 4129 
Q 1250 4750 2034 4750 
z
" transform="scale(0.015625)"/>
       </defs>
       <use xlink:href="#DejaVuSans-30"/>
      </g>
     </g>
    </g>
    <g id="xtick_2">
     <g id="line2d_2">
      <g>
       <use xlink:href="#m01767d64e3" x="169.848485" y="320.4" style="stroke: #000000; stroke-width: 0.8"/>
      </g>
     </g>
     <g id="text_2">
      <!-- 1000 -->
      <g transform="translate(157.123485 334.998438) scale(0.1 -0.1)">
       <defs>
        <path id="DejaVuSans-31" d="M 794 531 
L 1825 531 
L 1825 4091 
L 703 3866 
L 703 4441 
L 1819 4666 
L 2450 4666 
L 2450 531 
L 3481 531 
L 3481 0 
L 794 0 
L 794 531 
z
" transform="scale(0.015625)"/>
       </defs>
       <use xlink:href="#DejaVuSans-31"/>
       <use xlink:href="#DejaVuSans-30" transform="translate(63.623047 0)"/>
       <use xlink:href="#DejaVuSans-30" transform="translate(127.246094 0)"/>
       <use xlink:href="#DejaVuSans-30" transform="translate(190.869141 0)"/>
      </g>
     </g>
    </g>
    <g id="xtick_3">
     <g id="line2d_3">
      <g>
       <use xlink:href="#m01767d64e3" x="228.560606" y="320.4" style="stroke: #000000; stroke-width: 0.8"/>
      </g>
     </g>
     <g id="text_3">
      <!-- 2000 -->
      <g transform="translate(215.835606 334.998438) scale(0.1 -0.1)">
       <defs>
        <path id="DejaVuSans-32" d="M 1228 531 
L 3431 531 
L 3431 0 
L 469 0 
L 469 531 
Q 828 903 1448 1529 
Q 2069 2156 2228 2338 
Q 2531 2678 2651 2914 
Q 2772 3150 2772 3378 
Q 2772 3750 2511 3984 
Q 2250 4219 1831 4219 
Q 1534 4219 1204 4116 
Q 875 4013 500 3803 
L 500 4441 
Q 881 4594 1212 4672 
Q 1544 4750 1819 4750 
Q 2544 4750 2975 4387 
Q 3406 4025 3406 3419 
Q 3406 3131 3298 2873 
Q 3191 2616 2906 2266 
Q 2828 2175 2409 1742 
Q 1991 1309 1228 531 
z
" transform="scale(0.015625)"/>
       </defs>
       <use xlink:href="#DejaVuSans-32"/>
       <use xlink:href="#DejaVuSans-30" transform="translate(63.623047 0)"/>
       <use xlink:href="#DejaVuSans-30" transform="translate(127.246094 0)"/>
       <use xlink:href="#DejaVuSans-30" transform="translate(190.869141 0)"/>
      </g>
     </g>
    </g>
    <g id="xtick_4">
     <g id="line2d_4">
      <g>
       <use xlink:href="#m01767d64e3" x="287.272727" y="320.4" style="stroke: #000000; stroke-width: 0.8"/>
      </g>
     </g>
     <g id="text_4">
      <!-- 3000 -->
      <g transform="translate(274.547727 334.998438) scale(0.1 -0.1)">
       <defs>
        <path id="DejaVuSans-33" d="M 2597 2516 
Q 3050 2419 3304 2112 
Q 3559 1806 3559 1356 
Q 3559 666 3084 287 
Q 2609 -91 1734 -91 
Q 1441 -91 1130 -33 
Q 819 25 488 141 
L 488 750 
Q 750 597 1062 519 
Q 1375 441 1716 441 
Q 2309 441 2620 675 
Q 2931 909 2931 1356 
Q 2931 1769 2642 2001 
Q 2353 2234 1838 2234 
L 1294 2234 
L 1294 2753 
L 1863 2753 
Q 2328 2753 2575 2939 
Q 2822 3125 2822 3475 
Q 2822 3834 2567 4026 
Q 2313 4219 1838 4219 
Q 1578 4219 1281 4162 
Q 984 4106 628 3988 
L 628 4550 
Q 988 4650 1302 4700 
Q 1616 4750 1894 4750 
Q 2613 4750 3031 4423 
Q 3450 4097 3450 3541 
Q 3450 3153 3228 2886 
Q 3006 2619 2597 2516 
z
" transform="scale(0.015625)"/>
       </defs>
       <use xlink:href="#DejaVuSans-33"/>
       <use xlink:href="#DejaVuSans-30" transform="translate(63.623047 0)"/>
       <use xlink:href="#DejaVuSans-30" transform="translate(127.246094 0)"/>
       <use xlink:href="#DejaVuSans-30" transform="translate(190.869141 0)"/>
      </g>
     </g>
    </g>
    <g id="text_5">
     <!-- time -->
     <g transform="translate(203.262869 350.19625) scale(0.12 -0.12)">
      <defs>
       <path id="DejaVuSans-74" d="M 1172 4494 
L 1172 3500 
L 2356 3500 
L 2356 3053 
L 1172 3053 
L 1172 1153 
Q 1172 725 1289 603 
Q 1406 481 1766 481 
L 2356 481 
L 2356 0 
L 1766 0 
Q 1100 0 847 248 
Q 594 497 594 1153 
L 594 3053 
L 172 3053 
L 172 3500 
L 594 3500 
L 594 4494 
L 1172 4494 
z
" transform="scale(0.015625)"/>
       <path id="DejaVuSans-69" d="M 603 3500 
L 1178 3500 
L 1178 0 
L 603 0 
L 603 3500 
z
M 603 4863 
L 1178 4863 
L 1178 4134 
L 603 4134 
L 603 4863 
z
" transform="scale(0.015625)"/>
       <path id="DejaVuSans-6d" d="M 3328 2828 
Q 3544 3216 3844 3400 
Q 4144 3584 4550 3584 
Q 5097 3584 5394 3201 
Q 5691 2819 5691 2113 
L 5691 0 
L 5113 0 
L 5113 2094 
Q 5113 2597 4934 2840 
Q 4756 3084 4391 3084 
Q 3944 3084 3684 2787 
Q 3425 2491 3425 1978 
L 3425 0 
L 2847 0 
L 2847 2094 
Q 2847 2600 2669 2842 
Q 2491 3084 2119 3084 
Q 1678 3084 1418 2786 
Q 1159 2488 1159 1978 
L 1159 0 
L 581 0 
L 581 3500 
L 1159 3500 
L 1159 2956 
Q 1356 3278 1631 3431 
Q 1906 3584 2284 3584 
Q 2666 3584 2933 3390 
Q 3200 3197 3328 2828 
z
" transform="scale(0.015625)"/>
       <path id="DejaVuSans-65" d="M 3597 1894 
L 3597 1613 
L 953 1613 
Q 991 1019 1311 708 
Q 1631 397 2203 397 
Q 2534 397 2845 478 
Q 3156 559 3463 722 
L 3463 178 
Q 3153 47 2828 -22 
Q 2503 -91 2169 -91 
Q 1331 -91 842 396 
Q 353 884 353 1716 
Q 353 2575 817 3079 
Q 1281 3584 2069 3584 
Q 2775 3584 3186 3129 
Q 3597 2675 3597 1894 
z
M 3022 2063 
Q 3016 2534 2758 2815 
Q 2500 3097 2075 3097 
Q 1594 3097 1305 2825 
Q 1016 2553 972 2059 
L 3022 2063 
z
" transform="scale(0.015625)"/>
      </defs>
      <use xlink:href="#DejaVuSans-74"/>
      <use xlink:href="#DejaVuSans-69" transform="translate(39.208984 0)"/>
      <use xlink:href="#DejaVuSans-6d" transform="translate(66.992188 0)"/>
      <use xlink:href="#DejaVuSans-65" transform="translate(164.404297 0)"/>
     </g>
    </g>
   </g>
   <g id="matplotlib.axis_2">
    <g id="ytick_1">
     <g id="line2d_5">
      <defs>
       <path id="m223fd19444" d="M 0 0 
L -3.5 0 
" style="stroke: #000000; stroke-width: 0.8"/>
      </defs>
      <g>
       <use xlink:href="#m223fd19444" x="90" y="304.661412" style="stroke: #000000; stroke-width: 0.8"/>
      </g>
     </g>
     <g id="text_6">
      <!-- 0.00000 -->
      <g transform="translate(41.646875 308.460631) scale(0.1 -0.1)">
       <defs>
        <path id="DejaVuSans-2e" d="M 684 794 
L 1344 794 
L 1344 0 
L 684 0 
L 684 794 
z
" transform="scale(0.015625)"/>
       </defs>
       <use xlink:href="#DejaVuSans-30"/>
       <use xlink:href="#DejaVuSans-2e" transform="translate(63.623047 0)"/>
       <use xlink:href="#DejaVuSans-30" transform="translate(95.410156 0)"/>
       <use xlink:href="#DejaVuSans-30" transform="translate(159.033203 0)"/>
       <use xlink:href="#DejaVuSans-30" transform="translate(222.65625 0)"/>
       <use xlink:href="#DejaVuSans-30" transform="translate(286.279297 0)"/>
       <use xlink:href="#DejaVuSans-30" transform="translate(349.902344 0)"/>
      </g>
     </g>
    </g>
    <g id="ytick_2">
     <g id="line2d_6">
      <g>
       <use xlink:href="#m223fd19444" x="90" y="268.528303" style="stroke: #000000; stroke-width: 0.8"/>
      </g>
     </g>
     <g id="text_7">
      <!-- 0.00005 -->
      <g transform="translate(41.646875 272.327522) scale(0.1 -0.1)">
       <defs>
        <path id="DejaVuSans-35" d="M 691 4666 
L 3169 4666 
L 3169 4134 
L 1269 4134 
L 1269 2991 
Q 1406 3038 1543 3061 
Q 1681 3084 1819 3084 
Q 2600 3084 3056 2656 
Q 3513 2228 3513 1497 
Q 3513 744 3044 326 
Q 2575 -91 1722 -91 
Q 1428 -91 1123 -41 
Q 819 9 494 109 
L 494 744 
Q 775 591 1075 516 
Q 1375 441 1709 441 
Q 2250 441 2565 725 
Q 2881 1009 2881 1497 
Q 2881 1984 2565 2268 
Q 2250 2553 1709 2553 
Q 1456 2553 1204 2497 
Q 953 2441 691 2322 
L 691 4666 
z
" transform="scale(0.015625)"/>
       </defs>
       <use xlink:href="#DejaVuSans-30"/>
       <use xlink:href="#DejaVuSans-2e" transform="translate(63.623047 0)"/>
       <use xlink:href="#DejaVuSans-30" transform="translate(95.410156 0)"/>
       <use xlink:href="#DejaVuSans-30" transform="translate(159.033203 0)"/>
       <use xlink:href="#DejaVuSans-30" transform="translate(222.65625 0)"/>
       <use xlink:href="#DejaVuSans-30" transform="translate(286.279297 0)"/>
       <use xlink:href="#DejaVuSans-35" transform="translate(349.902344 0)"/>
      </g>
     </g>
    </g>
    <g id="ytick_3">
     <g id="line2d_7">
      <g>
       <use xlink:href="#m223fd19444" x="90" y="232.395194" style="stroke: #000000; stroke-width: 0.8"/>
      </g>
     </g>
     <g id="text_8">
      <!-- 0.00010 -->
      <g transform="translate(41.646875 236.194413) scale(0.1 -0.1)">
       <use xlink:href="#DejaVuSans-30"/>
       <use xlink:href="#DejaVuSans-2e" transform="translate(63.623047 0)"/>
       <use xlink:href="#DejaVuSans-30" transform="translate(95.410156 0)"/>
       <use xlink:href="#DejaVuSans-30" transform="translate(159.033203 0)"/>
       <use xlink:href="#DejaVuSans-30" transform="translate(222.65625 0)"/>
       <use xlink:href="#DejaVuSans-31" transform="translate(286.279297 0)"/>
       <use xlink:href="#DejaVuSans-30" transform="translate(349.902344 0)"/>
      </g>
     </g>
    </g>
    <g id="ytick_4">
     <g id="line2d_8">
      <g>
       <use xlink:href="#m223fd19444" x="90" y="196.262085" style="stroke: #000000; stroke-width: 0.8"/>
      </g>
     </g>
     <g id="text_9">
      <!-- 0.00015 -->
      <g transform="translate(41.646875 200.061304) scale(0.1 -0.1)">
       <use xlink:href="#DejaVuSans-30"/>
       <use xlink:href="#DejaVuSans-2e" transform="translate(63.623047 0)"/>
       <use xlink:href="#DejaVuSans-30" transform="translate(95.410156 0)"/>
       <use xlink:href="#DejaVuSans-30" transform="translate(159.033203 0)"/>
       <use xlink:href="#DejaVuSans-30" transform="translate(222.65625 0)"/>
       <use xlink:href="#DejaVuSans-31" transform="translate(286.279297 0)"/>
       <use xlink:href="#DejaVuSans-35" transform="translate(349.902344 0)"/>
      </g>
     </g>
    </g>
    <g id="ytick_5">
     <g id="line2d_9">
      <g>
       <use xlink:href="#m223fd19444" x="90" y="160.128976" style="stroke: #000000; stroke-width: 0.8"/>
      </g>
     </g>
     <g id="text_10">
      <!-- 0.00020 -->
      <g transform="translate(41.646875 163.928195) scale(0.1 -0.1)">
       <use xlink:href="#DejaVuSans-30"/>
       <use xlink:href="#DejaVuSans-2e" transform="translate(63.623047 0)"/>
       <use xlink:href="#DejaVuSans-30" transform="translate(95.410156 0)"/>
       <use xlink:href="#DejaVuSans-30" transform="translate(159.033203 0)"/>
       <use xlink:href="#DejaVuSans-30" transform="translate(222.65625 0)"/>
       <use xlink:href="#DejaVuSans-32" transform="translate(286.279297 0)"/>
       <use xlink:href="#DejaVuSans-30" transform="translate(349.902344 0)"/>
      </g>
     </g>
    </g>
    <g id="ytick_6">
     <g id="line2d_10">
      <g>
       <use xlink:href="#m223fd19444" x="90" y="123.995867" style="stroke: #000000; stroke-width: 0.8"/>
      </g>
     </g>
     <g id="text_11">
      <!-- 0.00025 -->
      <g transform="translate(41.646875 127.795086) scale(0.1 -0.1)">
       <use xlink:href="#DejaVuSans-30"/>
       <use xlink:href="#DejaVuSans-2e" transform="translate(63.623047 0)"/>
       <use xlink:href="#DejaVuSans-30" transform="translate(95.410156 0)"/>
       <use xlink:href="#DejaVuSans-30" transform="translate(159.033203 0)"/>
       <use xlink:href="#DejaVuSans-30" transform="translate(222.65625 0)"/>
       <use xlink:href="#DejaVuSans-32" transform="translate(286.279297 0)"/>
       <use xlink:href="#DejaVuSans-35" transform="translate(349.902344 0)"/>
      </g>
     </g>
    </g>
    <g id="ytick_7">
     <g id="line2d_11">
      <g>
       <use xlink:href="#m223fd19444" x="90" y="87.862758" style="stroke: #000000; stroke-width: 0.8"/>
      </g>
     </g>
     <g id="text_12">
      <!-- 0.00030 -->
      <g transform="translate(41.646875 91.661976) scale(0.1 -0.1)">
       <use xlink:href="#DejaVuSans-30"/>
       <use xlink:href="#DejaVuSans-2e" transform="translate(63.623047 0)"/>
       <use xlink:href="#DejaVuSans-30" transform="translate(95.410156 0)"/>
       <use xlink:href="#DejaVuSans-30" transform="translate(159.033203 0)"/>
       <use xlink:href="#DejaVuSans-30" transform="translate(222.65625 0)"/>
       <use xlink:href="#DejaVuSans-33" transform="translate(286.279297 0)"/>
       <use xlink:href="#DejaVuSans-30" transform="translate(349.902344 0)"/>
      </g>
     </g>
    </g>
    <g id="ytick_8">
     <g id="line2d_12">
      <g>
       <use xlink:href="#m223fd19444" x="90" y="51.729649" style="stroke: #000000; stroke-width: 0.8"/>
      </g>
     </g>
     <g id="text_13">
      <!-- 0.00035 -->
      <g transform="translate(41.646875 55.528867) scale(0.1 -0.1)">
       <use xlink:href="#DejaVuSans-30"/>
       <use xlink:href="#DejaVuSans-2e" transform="translate(63.623047 0)"/>
       <use xlink:href="#DejaVuSans-30" transform="translate(95.410156 0)"/>
       <use xlink:href="#DejaVuSans-30" transform="translate(159.033203 0)"/>
       <use xlink:href="#DejaVuSans-30" transform="translate(222.65625 0)"/>
       <use xlink:href="#DejaVuSans-33" transform="translate(286.279297 0)"/>
       <use xlink:href="#DejaVuSans-35" transform="translate(349.902344 0)"/>
      </g>
     </g>
    </g>
    <g id="text_14">
     <!-- [Cve_api] -->
     <g transform="translate(34.8175 210.0675) rotate(-90) scale(0.12 -0.12)">
      <defs>
       <path id="DejaVuSans-5b" d="M 550 4863 
L 1875 4863 
L 1875 4416 
L 1125 4416 
L 1125 -397 
L 1875 -397 
L 1875 -844 
L 550 -844 
L 550 4863 
z
" transform="scale(0.015625)"/>
       <path id="DejaVuSans-43" d="M 4122 4306 
L 4122 3641 
Q 3803 3938 3442 4084 
Q 3081 4231 2675 4231 
Q 1875 4231 1450 3742 
Q 1025 3253 1025 2328 
Q 1025 1406 1450 917 
Q 1875 428 2675 428 
Q 3081 428 3442 575 
Q 3803 722 4122 1019 
L 4122 359 
Q 3791 134 3420 21 
Q 3050 -91 2638 -91 
Q 1578 -91 968 557 
Q 359 1206 359 2328 
Q 359 3453 968 4101 
Q 1578 4750 2638 4750 
Q 3056 4750 3426 4639 
Q 3797 4528 4122 4306 
z
" transform="scale(0.015625)"/>
       <path id="DejaVuSans-76" d="M 191 3500 
L 800 3500 
L 1894 563 
L 2988 3500 
L 3597 3500 
L 2284 0 
L 1503 0 
L 191 3500 
z
" transform="scale(0.015625)"/>
       <path id="DejaVuSans-5f" d="M 3263 -1063 
L 3263 -1509 
L -63 -1509 
L -63 -1063 
L 3263 -1063 
z
" transform="scale(0.015625)"/>
       <path id="DejaVuSans-61" d="M 2194 1759 
Q 1497 1759 1228 1600 
Q 959 1441 959 1056 
Q 959 750 1161 570 
Q 1363 391 1709 391 
Q 2188 391 2477 730 
Q 2766 1069 2766 1631 
L 2766 1759 
L 2194 1759 
z
M 3341 1997 
L 3341 0 
L 2766 0 
L 2766 531 
Q 2569 213 2275 61 
Q 1981 -91 1556 -91 
Q 1019 -91 701 211 
Q 384 513 384 1019 
Q 384 1609 779 1909 
Q 1175 2209 1959 2209 
L 2766 2209 
L 2766 2266 
Q 2766 2663 2505 2880 
Q 2244 3097 1772 3097 
Q 1472 3097 1187 3025 
Q 903 2953 641 2809 
L 641 3341 
Q 956 3463 1253 3523 
Q 1550 3584 1831 3584 
Q 2591 3584 2966 3190 
Q 3341 2797 3341 1997 
z
" transform="scale(0.015625)"/>
       <path id="DejaVuSans-70" d="M 1159 525 
L 1159 -1331 
L 581 -1331 
L 581 3500 
L 1159 3500 
L 1159 2969 
Q 1341 3281 1617 3432 
Q 1894 3584 2278 3584 
Q 2916 3584 3314 3078 
Q 3713 2572 3713 1747 
Q 3713 922 3314 415 
Q 2916 -91 2278 -91 
Q 1894 -91 1617 61 
Q 1341 213 1159 525 
z
M 3116 1747 
Q 3116 2381 2855 2742 
Q 2594 3103 2138 3103 
Q 1681 3103 1420 2742 
Q 1159 2381 1159 1747 
Q 1159 1113 1420 752 
Q 1681 391 2138 391 
Q 2594 391 2855 752 
Q 3116 1113 3116 1747 
z
" transform="scale(0.015625)"/>
       <path id="DejaVuSans-5d" d="M 1947 4863 
L 1947 -844 
L 622 -844 
L 622 -397 
L 1369 -397 
L 1369 4416 
L 622 4416 
L 622 4863 
L 1947 4863 
z
" transform="scale(0.015625)"/>
      </defs>
      <use xlink:href="#DejaVuSans-5b"/>
      <use xlink:href="#DejaVuSans-43" transform="translate(39.013672 0)"/>
      <use xlink:href="#DejaVuSans-76" transform="translate(108.837891 0)"/>
      <use xlink:href="#DejaVuSans-65" transform="translate(168.017578 0)"/>
      <use xlink:href="#DejaVuSans-5f" transform="translate(229.541016 0)"/>
      <use xlink:href="#DejaVuSans-61" transform="translate(279.541016 0)"/>
      <use xlink:href="#DejaVuSans-70" transform="translate(340.820312 0)"/>
      <use xlink:href="#DejaVuSans-69" transform="translate(404.296875 0)"/>
      <use xlink:href="#DejaVuSans-5d" transform="translate(432.080078 0)"/>
     </g>
    </g>
   </g>
   <g id="LineCollection_1">
    <path d="M 111.136364 274.571909 
L 111.136364 204.086897 
" clip-path="url(#p5444e38dd5)" style="fill: none; stroke: #000000; stroke-width: 1.5"/>
    <path d="M 112.897727 273.844932 
L 112.897727 210.697913 
" clip-path="url(#p5444e38dd5)" style="fill: none; stroke: #000000; stroke-width: 1.5"/>
    <path d="M 114.659091 278.993873 
L 114.659091 145.355344 
" clip-path="url(#p5444e38dd5)" style="fill: none; stroke: #000000; stroke-width: 1.5"/>
    <path d="M 118.181818 195.303075 
L 118.181818 79.282549 
" clip-path="url(#p5444e38dd5)" style="fill: none; stroke: #000000; stroke-width: 1.5"/>
    <path d="M 121.704545 143.920885 
L 121.704545 55.8 
" clip-path="url(#p5444e38dd5)" style="fill: none; stroke: #000000; stroke-width: 1.5"/>
    <path d="M 125.227273 160.822473 
L 125.227273 68.299117 
" clip-path="url(#p5444e38dd5)" style="fill: none; stroke: #000000; stroke-width: 1.5"/>
    <path d="M 128.75 188.004072 
L 128.75 105.763977 
" clip-path="url(#p5444e38dd5)" style="fill: none; stroke: #000000; stroke-width: 1.5"/>
    <path d="M 132.272727 211.519111 
L 132.272727 135.15006 
" clip-path="url(#p5444e38dd5)" style="fill: none; stroke: #000000; stroke-width: 1.5"/>
    <path d="M 139.318182 236.515721 
L 139.318182 170.426681 
" clip-path="url(#p5444e38dd5)" style="fill: none; stroke: #000000; stroke-width: 1.5"/>
    <path d="M 153.409091 264.47953 
L 153.409091 217.480316 
" clip-path="url(#p5444e38dd5)" style="fill: none; stroke: #000000; stroke-width: 1.5"/>
    <path d="M 155.170455 292.38648 
L 155.170455 195.460654 
" clip-path="url(#p5444e38dd5)" style="fill: none; stroke: #000000; stroke-width: 1.5"/>
    <path d="M 156.931818 299.005619 
L 156.931818 160.956496 
" clip-path="url(#p5444e38dd5)" style="fill: none; stroke: #000000; stroke-width: 1.5"/>
    <path d="M 160.454545 275.523882 
L 160.454545 108.101672 
" clip-path="url(#p5444e38dd5)" style="fill: none; stroke: #000000; stroke-width: 1.5"/>
    <path d="M 163.977273 197.699253 
L 163.977273 112.526886 
" clip-path="url(#p5444e38dd5)" style="fill: none; stroke: #000000; stroke-width: 1.5"/>
    <path d="M 167.5 177.157912 
L 167.5 109.605173 
" clip-path="url(#p5444e38dd5)" style="fill: none; stroke: #000000; stroke-width: 1.5"/>
    <path d="M 171.022727 183.778675 
L 171.022727 117.696133 
" clip-path="url(#p5444e38dd5)" style="fill: none; stroke: #000000; stroke-width: 1.5"/>
    <path d="M 174.545455 207.296964 
L 174.545455 125.051995 
" clip-path="url(#p5444e38dd5)" style="fill: none; stroke: #000000; stroke-width: 1.5"/>
    <path d="M 181.590909 230.085027 
L 181.590909 155.194296 
" clip-path="url(#p5444e38dd5)" style="fill: none; stroke: #000000; stroke-width: 1.5"/>
    <path d="M 195.681818 252.174544 
L 195.681818 190.499346 
" clip-path="url(#p5444e38dd5)" style="fill: none; stroke: #000000; stroke-width: 1.5"/>
    <path d="M 216.818182 288.983907 
L 216.818182 255.205101 
" clip-path="url(#p5444e38dd5)" style="fill: none; stroke: #000000; stroke-width: 1.5"/>
    <path d="M 237.954545 293.481412 
L 237.954545 275.858535 
" clip-path="url(#p5444e38dd5)" style="fill: none; stroke: #000000; stroke-width: 1.5"/>
    <path d="M 259.090909 303.118111 
L 259.090909 288.430755 
" clip-path="url(#p5444e38dd5)" style="fill: none; stroke: #000000; stroke-width: 1.5"/>
    <path d="M 280.227273 302.472361 
L 280.227273 292.198847 
" clip-path="url(#p5444e38dd5)" style="fill: none; stroke: #000000; stroke-width: 1.5"/>
    <path d="M 322.5 307.8 
L 322.5 297.518364 
" clip-path="url(#p5444e38dd5)" style="fill: none; stroke: #000000; stroke-width: 1.5"/>
   </g>
   <g id="line2d_13">
    <path d="M 89.520572 182.734734 
L 92.174046 190.923006 
L 95.621402 200.735852 
L 99.068758 209.652269 
L 102.516114 217.746169 
L 106.180183 225.536039 
L 109.844253 232.575887 
L 111.136364 234.877995 
L 111.141921 235.847355 
L 111.242968 232.57989 
L 111.99274 206.91813 
L 112.627294 190.22932 
L 113.324598 176.05381 
L 114.021903 165.386017 
L 114.719207 157.518671 
L 115.399727 151.997483 
L 116.295897 147.266401 
L 116.743982 145.766826 
L 117.192067 144.73936 
L 117.640152 144.117838 
L 118.088237 143.844966 
L 118.536322 143.871184 
L 118.984407 144.153533 
L 119.879861 145.341564 
L 121.088304 147.918424 
L 122.296747 151.233038 
L 124.109411 156.980961 
L 133.655584 188.66141 
L 136.636235 197.375866 
L 139.616886 205.405113 
L 142.649259 212.913601 
L 145.681632 219.809647 
L 148.714005 226.14672 
L 151.03072 230.642809 
L 153.409091 234.967909 
L 153.414539 238.831536 
L 153.514346 235.576422 
L 154.294506 208.674576 
L 155.050214 189.19155 
L 155.925034 172.765914 
L 156.606235 163.527064 
L 157.287436 156.728558 
L 157.968636 151.885102 
L 158.515198 149.145491 
L 159.06176 147.244932 
L 159.608322 146.044267 
L 160.154883 145.426306 
L 160.701445 145.292029 
L 161.248007 145.558091 
L 161.794569 146.154695 
L 162.34113 147.023389 
L 163.434254 149.388316 
L 164.527377 152.346508 
L 165.911409 156.61396 
L 169.261291 167.900611 
L 173.448642 181.852394 
L 176.798523 192.173048 
L 180.215694 201.803573 
L 182.795395 208.491826 
L 185.375096 214.712113 
L 187.954797 220.497872 
L 190.534497 225.881763 
L 194.676076 233.761427 
L 198.817655 240.798846 
L 202.959234 247.093869 
L 207.100813 252.733026 
L 211.242392 257.791322 
L 215.38397 262.334019 
L 219.525549 266.418057 
L 223.667128 270.093288 
L 227.808707 273.40349 
L 231.950286 276.38722 
L 236.091865 279.078528 
L 240.233444 281.507563 
L 244.375023 283.701082 
L 248.516601 285.68288 
L 252.65818 287.474167 
L 256.799759 289.093874 
L 263.012127 291.238273 
L 269.224496 293.0842 
L 275.436864 294.674072 
L 281.649232 296.04403 
L 287.861601 297.224942 
L 296.144758 298.550506 
L 304.427916 299.638909 
L 314.781863 300.73026 
L 325.13581 301.58399 
L 337.560547 302.367105 
L 343.772915 302.680327 
L 343.772915 302.680327 
" clip-path="url(#p5444e38dd5)" style="fill: none; stroke: #0000ff; stroke-width: 1.5; stroke-linecap: square"/>
   </g>
   <g id="line2d_14">
    <path d="M 111.136364 239.329403 
L 112.897727 242.271422 
L 114.659091 212.174608 
L 118.181818 137.292812 
L 121.704545 99.860443 
L 125.227273 114.560795 
L 128.75 146.884024 
L 132.272727 173.334586 
L 139.318182 203.471201 
L 153.409091 240.979923 
L 155.170455 243.923567 
L 156.931818 229.981057 
L 160.454545 191.812777 
L 163.977273 155.11307 
L 167.5 143.381542 
L 171.022727 150.737404 
L 174.545455 166.174479 
L 181.590909 192.639662 
L 195.681818 221.336945 
L 216.818182 272.094504 
L 237.954545 284.669973 
L 259.090909 295.774433 
L 280.227273 297.335604 
L 322.5 302.659182 
" clip-path="url(#p5444e38dd5)" style="fill: none; stroke: #000000; stroke-width: 1.5; stroke-linecap: square"/>
    <defs>
     <path id="mb10d83d060" d="M -5 5 
L 5 5 
L 5 -5 
L -5 -5 
z
" style="stroke: #000000; stroke-linejoin: miter"/>
    </defs>
    <g clip-path="url(#p5444e38dd5)">
     <use xlink:href="#mb10d83d060" x="111.136364" y="239.329403" style="stroke: #000000; stroke-linejoin: miter"/>
     <use xlink:href="#mb10d83d060" x="112.897727" y="242.271422" style="stroke: #000000; stroke-linejoin: miter"/>
     <use xlink:href="#mb10d83d060" x="114.659091" y="212.174608" style="stroke: #000000; stroke-linejoin: miter"/>
     <use xlink:href="#mb10d83d060" x="118.181818" y="137.292812" style="stroke: #000000; stroke-linejoin: miter"/>
     <use xlink:href="#mb10d83d060" x="121.704545" y="99.860443" style="stroke: #000000; stroke-linejoin: miter"/>
     <use xlink:href="#mb10d83d060" x="125.227273" y="114.560795" style="stroke: #000000; stroke-linejoin: miter"/>
     <use xlink:href="#mb10d83d060" x="128.75" y="146.884024" style="stroke: #000000; stroke-linejoin: miter"/>
     <use xlink:href="#mb10d83d060" x="132.272727" y="173.334586" style="stroke: #000000; stroke-linejoin: miter"/>
     <use xlink:href="#mb10d83d060" x="139.318182" y="203.471201" style="stroke: #000000; stroke-linejoin: miter"/>
     <use xlink:href="#mb10d83d060" x="153.409091" y="240.979923" style="stroke: #000000; stroke-linejoin: miter"/>
     <use xlink:href="#mb10d83d060" x="155.170455" y="243.923567" style="stroke: #000000; stroke-linejoin: miter"/>
     <use xlink:href="#mb10d83d060" x="156.931818" y="229.981057" style="stroke: #000000; stroke-linejoin: miter"/>
     <use xlink:href="#mb10d83d060" x="160.454545" y="191.812777" style="stroke: #000000; stroke-linejoin: miter"/>
     <use xlink:href="#mb10d83d060" x="163.977273" y="155.11307" style="stroke: #000000; stroke-linejoin: miter"/>
     <use xlink:href="#mb10d83d060" x="167.5" y="143.381542" style="stroke: #000000; stroke-linejoin: miter"/>
     <use xlink:href="#mb10d83d060" x="171.022727" y="150.737404" style="stroke: #000000; stroke-linejoin: miter"/>
     <use xlink:href="#mb10d83d060" x="174.545455" y="166.174479" style="stroke: #000000; stroke-linejoin: miter"/>
     <use xlink:href="#mb10d83d060" x="181.590909" y="192.639662" style="stroke: #000000; stroke-linejoin: miter"/>
     <use xlink:href="#mb10d83d060" x="195.681818" y="221.336945" style="stroke: #000000; stroke-linejoin: miter"/>
     <use xlink:href="#mb10d83d060" x="216.818182" y="272.094504" style="stroke: #000000; stroke-linejoin: miter"/>
     <use xlink:href="#mb10d83d060" x="237.954545" y="284.669973" style="stroke: #000000; stroke-linejoin: miter"/>
     <use xlink:href="#mb10d83d060" x="259.090909" y="295.774433" style="stroke: #000000; stroke-linejoin: miter"/>
     <use xlink:href="#mb10d83d060" x="280.227273" y="297.335604" style="stroke: #000000; stroke-linejoin: miter"/>
     <use xlink:href="#mb10d83d060" x="322.5" y="302.659182" style="stroke: #000000; stroke-linejoin: miter"/>
    </g>
   </g>
   <g id="patch_3">
    <path d="M 90 320.4 
L 90 43.2 
" style="fill: none; stroke: #000000; stroke-width: 0.8; stroke-linejoin: miter; stroke-linecap: square"/>
   </g>
   <g id="patch_4">
    <path d="M 343.636364 320.4 
L 343.636364 43.2 
" style="fill: none; stroke: #000000; stroke-width: 0.8; stroke-linejoin: miter; stroke-linecap: square"/>
   </g>
   <g id="patch_5">
    <path d="M 90 320.4 
L 343.636364 320.4 
" style="fill: none; stroke: #000000; stroke-width: 0.8; stroke-linejoin: miter; stroke-linecap: square"/>
   </g>
   <g id="patch_6">
    <path d="M 90 43.2 
L 343.636364 43.2 
" style="fill: none; stroke: #000000; stroke-width: 0.8; stroke-linejoin: miter; stroke-linecap: square"/>
   </g>
   <g id="text_15">
    <!-- Kreutz2017 fm_PO_api_apixaban -->
    <g transform="translate(101.833338 37.2) scale(0.14 -0.14)">
     <defs>
      <path id="DejaVuSans-4b" d="M 628 4666 
L 1259 4666 
L 1259 2694 
L 3353 4666 
L 4166 4666 
L 1850 2491 
L 4331 0 
L 3500 0 
L 1259 2247 
L 1259 0 
L 628 0 
L 628 4666 
z
" transform="scale(0.015625)"/>
      <path id="DejaVuSans-72" d="M 2631 2963 
Q 2534 3019 2420 3045 
Q 2306 3072 2169 3072 
Q 1681 3072 1420 2755 
Q 1159 2438 1159 1844 
L 1159 0 
L 581 0 
L 581 3500 
L 1159 3500 
L 1159 2956 
Q 1341 3275 1631 3429 
Q 1922 3584 2338 3584 
Q 2397 3584 2469 3576 
Q 2541 3569 2628 3553 
L 2631 2963 
z
" transform="scale(0.015625)"/>
      <path id="DejaVuSans-75" d="M 544 1381 
L 544 3500 
L 1119 3500 
L 1119 1403 
Q 1119 906 1312 657 
Q 1506 409 1894 409 
Q 2359 409 2629 706 
Q 2900 1003 2900 1516 
L 2900 3500 
L 3475 3500 
L 3475 0 
L 2900 0 
L 2900 538 
Q 2691 219 2414 64 
Q 2138 -91 1772 -91 
Q 1169 -91 856 284 
Q 544 659 544 1381 
z
M 1991 3584 
L 1991 3584 
z
" transform="scale(0.015625)"/>
      <path id="DejaVuSans-7a" d="M 353 3500 
L 3084 3500 
L 3084 2975 
L 922 459 
L 3084 459 
L 3084 0 
L 275 0 
L 275 525 
L 2438 3041 
L 353 3041 
L 353 3500 
z
" transform="scale(0.015625)"/>
      <path id="DejaVuSans-37" d="M 525 4666 
L 3525 4666 
L 3525 4397 
L 1831 0 
L 1172 0 
L 2766 4134 
L 525 4134 
L 525 4666 
z
" transform="scale(0.015625)"/>
      <path id="DejaVuSans-20" transform="scale(0.015625)"/>
      <path id="DejaVuSans-66" d="M 2375 4863 
L 2375 4384 
L 1825 4384 
Q 1516 4384 1395 4259 
Q 1275 4134 1275 3809 
L 1275 3500 
L 2222 3500 
L 2222 3053 
L 1275 3053 
L 1275 0 
L 697 0 
L 697 3053 
L 147 3053 
L 147 3500 
L 697 3500 
L 697 3744 
Q 697 4328 969 4595 
Q 1241 4863 1831 4863 
L 2375 4863 
z
" transform="scale(0.015625)"/>
      <path id="DejaVuSans-50" d="M 1259 4147 
L 1259 2394 
L 2053 2394 
Q 2494 2394 2734 2622 
Q 2975 2850 2975 3272 
Q 2975 3691 2734 3919 
Q 2494 4147 2053 4147 
L 1259 4147 
z
M 628 4666 
L 2053 4666 
Q 2838 4666 3239 4311 
Q 3641 3956 3641 3272 
Q 3641 2581 3239 2228 
Q 2838 1875 2053 1875 
L 1259 1875 
L 1259 0 
L 628 0 
L 628 4666 
z
" transform="scale(0.015625)"/>
      <path id="DejaVuSans-4f" d="M 2522 4238 
Q 1834 4238 1429 3725 
Q 1025 3213 1025 2328 
Q 1025 1447 1429 934 
Q 1834 422 2522 422 
Q 3209 422 3611 934 
Q 4013 1447 4013 2328 
Q 4013 3213 3611 3725 
Q 3209 4238 2522 4238 
z
M 2522 4750 
Q 3503 4750 4090 4092 
Q 4678 3434 4678 2328 
Q 4678 1225 4090 567 
Q 3503 -91 2522 -91 
Q 1538 -91 948 565 
Q 359 1222 359 2328 
Q 359 3434 948 4092 
Q 1538 4750 2522 4750 
z
" transform="scale(0.015625)"/>
      <path id="DejaVuSans-78" d="M 3513 3500 
L 2247 1797 
L 3578 0 
L 2900 0 
L 1881 1375 
L 863 0 
L 184 0 
L 1544 1831 
L 300 3500 
L 978 3500 
L 1906 2253 
L 2834 3500 
L 3513 3500 
z
" transform="scale(0.015625)"/>
      <path id="DejaVuSans-62" d="M 3116 1747 
Q 3116 2381 2855 2742 
Q 2594 3103 2138 3103 
Q 1681 3103 1420 2742 
Q 1159 2381 1159 1747 
Q 1159 1113 1420 752 
Q 1681 391 2138 391 
Q 2594 391 2855 752 
Q 3116 1113 3116 1747 
z
M 1159 2969 
Q 1341 3281 1617 3432 
Q 1894 3584 2278 3584 
Q 2916 3584 3314 3078 
Q 3713 2572 3713 1747 
Q 3713 922 3314 415 
Q 2916 -91 2278 -91 
Q 1894 -91 1617 61 
Q 1341 213 1159 525 
L 1159 0 
L 581 0 
L 581 4863 
L 1159 4863 
L 1159 2969 
z
" transform="scale(0.015625)"/>
      <path id="DejaVuSans-6e" d="M 3513 2113 
L 3513 0 
L 2938 0 
L 2938 2094 
Q 2938 2591 2744 2837 
Q 2550 3084 2163 3084 
Q 1697 3084 1428 2787 
Q 1159 2491 1159 1978 
L 1159 0 
L 581 0 
L 581 3500 
L 1159 3500 
L 1159 2956 
Q 1366 3272 1645 3428 
Q 1925 3584 2291 3584 
Q 2894 3584 3203 3211 
Q 3513 2838 3513 2113 
z
" transform="scale(0.015625)"/>
     </defs>
     <use xlink:href="#DejaVuSans-4b"/>
     <use xlink:href="#DejaVuSans-72" transform="translate(65.576172 0)"/>
     <use xlink:href="#DejaVuSans-65" transform="translate(104.439453 0)"/>
     <use xlink:href="#DejaVuSans-75" transform="translate(165.962891 0)"/>
     <use xlink:href="#DejaVuSans-74" transform="translate(229.341797 0)"/>
     <use xlink:href="#DejaVuSans-7a" transform="translate(268.550781 0)"/>
     <use xlink:href="#DejaVuSans-32" transform="translate(321.041016 0)"/>
     <use xlink:href="#DejaVuSans-30" transform="translate(384.664062 0)"/>
     <use xlink:href="#DejaVuSans-31" transform="translate(448.287109 0)"/>
     <use xlink:href="#DejaVuSans-37" transform="translate(511.910156 0)"/>
     <use xlink:href="#DejaVuSans-20" transform="translate(575.533203 0)"/>
     <use xlink:href="#DejaVuSans-66" transform="translate(607.320312 0)"/>
     <use xlink:href="#DejaVuSans-6d" transform="translate(642.525391 0)"/>
     <use xlink:href="#DejaVuSans-5f" transform="translate(739.9375 0)"/>
     <use xlink:href="#DejaVuSans-50" transform="translate(789.9375 0)"/>
     <use xlink:href="#DejaVuSans-4f" transform="translate(850.240234 0)"/>
     <use xlink:href="#DejaVuSans-5f" transform="translate(928.951172 0)"/>
     <use xlink:href="#DejaVuSans-61" transform="translate(978.951172 0)"/>
     <use xlink:href="#DejaVuSans-70" transform="translate(1040.230469 0)"/>
     <use xlink:href="#DejaVuSans-69" transform="translate(1103.707031 0)"/>
     <use xlink:href="#DejaVuSans-5f" transform="translate(1131.490234 0)"/>
     <use xlink:href="#DejaVuSans-61" transform="translate(1181.490234 0)"/>
     <use xlink:href="#DejaVuSans-70" transform="translate(1242.769531 0)"/>
     <use xlink:href="#DejaVuSans-69" transform="translate(1306.246094 0)"/>
     <use xlink:href="#DejaVuSans-78" transform="translate(1334.029297 0)"/>
     <use xlink:href="#DejaVuSans-61" transform="translate(1393.208984 0)"/>
     <use xlink:href="#DejaVuSans-62" transform="translate(1454.488281 0)"/>
     <use xlink:href="#DejaVuSans-61" transform="translate(1517.964844 0)"/>
     <use xlink:href="#DejaVuSans-6e" transform="translate(1579.244141 0)"/>
    </g>
   </g>
   <g id="legend_1">
    <g id="patch_7">
     <path d="M 200.586364 80.834375 
L 336.636364 80.834375 
Q 338.636364 80.834375 338.636364 78.834375 
L 338.636364 50.2 
Q 338.636364 48.2 336.636364 48.2 
L 200.586364 48.2 
Q 198.586364 48.2 198.586364 50.2 
L 198.586364 78.834375 
Q 198.586364 80.834375 200.586364 80.834375 
z
" style="fill: #ffffff; opacity: 0.8; stroke: #cccccc; stroke-linejoin: miter"/>
    </g>
    <g id="line2d_15">
     <path d="M 202.586364 56.298437 
L 212.586364 56.298437 
L 222.586364 56.298437 
" style="fill: none; stroke: #0000ff; stroke-width: 1.5; stroke-linecap: square"/>
    </g>
    <g id="text_16">
     <!-- observable -->
     <g transform="translate(230.586364 59.798437) scale(0.1 -0.1)">
      <defs>
       <path id="DejaVuSans-6f" d="M 1959 3097 
Q 1497 3097 1228 2736 
Q 959 2375 959 1747 
Q 959 1119 1226 758 
Q 1494 397 1959 397 
Q 2419 397 2687 759 
Q 2956 1122 2956 1747 
Q 2956 2369 2687 2733 
Q 2419 3097 1959 3097 
z
M 1959 3584 
Q 2709 3584 3137 3096 
Q 3566 2609 3566 1747 
Q 3566 888 3137 398 
Q 2709 -91 1959 -91 
Q 1206 -91 779 398 
Q 353 888 353 1747 
Q 353 2609 779 3096 
Q 1206 3584 1959 3584 
z
" transform="scale(0.015625)"/>
       <path id="DejaVuSans-73" d="M 2834 3397 
L 2834 2853 
Q 2591 2978 2328 3040 
Q 2066 3103 1784 3103 
Q 1356 3103 1142 2972 
Q 928 2841 928 2578 
Q 928 2378 1081 2264 
Q 1234 2150 1697 2047 
L 1894 2003 
Q 2506 1872 2764 1633 
Q 3022 1394 3022 966 
Q 3022 478 2636 193 
Q 2250 -91 1575 -91 
Q 1294 -91 989 -36 
Q 684 19 347 128 
L 347 722 
Q 666 556 975 473 
Q 1284 391 1588 391 
Q 1994 391 2212 530 
Q 2431 669 2431 922 
Q 2431 1156 2273 1281 
Q 2116 1406 1581 1522 
L 1381 1569 
Q 847 1681 609 1914 
Q 372 2147 372 2553 
Q 372 3047 722 3315 
Q 1072 3584 1716 3584 
Q 2034 3584 2315 3537 
Q 2597 3491 2834 3397 
z
" transform="scale(0.015625)"/>
       <path id="DejaVuSans-6c" d="M 603 4863 
L 1178 4863 
L 1178 0 
L 603 0 
L 603 4863 
z
" transform="scale(0.015625)"/>
      </defs>
      <use xlink:href="#DejaVuSans-6f"/>
      <use xlink:href="#DejaVuSans-62" transform="translate(61.181641 0)"/>
      <use xlink:href="#DejaVuSans-73" transform="translate(124.658203 0)"/>
      <use xlink:href="#DejaVuSans-65" transform="translate(176.757812 0)"/>
      <use xlink:href="#DejaVuSans-72" transform="translate(238.28125 0)"/>
      <use xlink:href="#DejaVuSans-76" transform="translate(279.394531 0)"/>
      <use xlink:href="#DejaVuSans-61" transform="translate(338.574219 0)"/>
      <use xlink:href="#DejaVuSans-62" transform="translate(399.853516 0)"/>
      <use xlink:href="#DejaVuSans-6c" transform="translate(463.330078 0)"/>
      <use xlink:href="#DejaVuSans-65" transform="translate(491.113281 0)"/>
     </g>
    </g>
    <g id="LineCollection_2">
     <path d="M 212.586364 75.976562 
L 212.586364 65.976562 
" style="fill: none; stroke: #000000; stroke-width: 1.5"/>
    </g>
    <g id="line2d_16">
     <path d="M 202.586364 70.976562 
L 222.586364 70.976562 
" style="fill: none; stroke: #000000; stroke-width: 1.5; stroke-linecap: square"/>
    </g>
    <g id="line2d_17">
     <g>
      <use xlink:href="#mb10d83d060" x="212.586364" y="70.976562" style="stroke: #000000; stroke-linejoin: miter"/>
     </g>
    </g>
    <g id="text_17">
     <!-- reference_data ± SD -->
     <g transform="translate(230.586364 74.476562) scale(0.1 -0.1)">
      <defs>
       <path id="DejaVuSans-63" d="M 3122 3366 
L 3122 2828 
Q 2878 2963 2633 3030 
Q 2388 3097 2138 3097 
Q 1578 3097 1268 2742 
Q 959 2388 959 1747 
Q 959 1106 1268 751 
Q 1578 397 2138 397 
Q 2388 397 2633 464 
Q 2878 531 3122 666 
L 3122 134 
Q 2881 22 2623 -34 
Q 2366 -91 2075 -91 
Q 1284 -91 818 406 
Q 353 903 353 1747 
Q 353 2603 823 3093 
Q 1294 3584 2113 3584 
Q 2378 3584 2631 3529 
Q 2884 3475 3122 3366 
z
" transform="scale(0.015625)"/>
       <path id="DejaVuSans-64" d="M 2906 2969 
L 2906 4863 
L 3481 4863 
L 3481 0 
L 2906 0 
L 2906 525 
Q 2725 213 2448 61 
Q 2172 -91 1784 -91 
Q 1150 -91 751 415 
Q 353 922 353 1747 
Q 353 2572 751 3078 
Q 1150 3584 1784 3584 
Q 2172 3584 2448 3432 
Q 2725 3281 2906 2969 
z
M 947 1747 
Q 947 1113 1208 752 
Q 1469 391 1925 391 
Q 2381 391 2643 752 
Q 2906 1113 2906 1747 
Q 2906 2381 2643 2742 
Q 2381 3103 1925 3103 
Q 1469 3103 1208 2742 
Q 947 2381 947 1747 
z
" transform="scale(0.015625)"/>
       <path id="DejaVuSans-b1" d="M 2944 4013 
L 2944 2803 
L 4684 2803 
L 4684 2272 
L 2944 2272 
L 2944 1063 
L 2419 1063 
L 2419 2272 
L 678 2272 
L 678 2803 
L 2419 2803 
L 2419 4013 
L 2944 4013 
z
M 678 531 
L 4684 531 
L 4684 0 
L 678 0 
L 678 531 
z
" transform="scale(0.015625)"/>
       <path id="DejaVuSans-53" d="M 3425 4513 
L 3425 3897 
Q 3066 4069 2747 4153 
Q 2428 4238 2131 4238 
Q 1616 4238 1336 4038 
Q 1056 3838 1056 3469 
Q 1056 3159 1242 3001 
Q 1428 2844 1947 2747 
L 2328 2669 
Q 3034 2534 3370 2195 
Q 3706 1856 3706 1288 
Q 3706 609 3251 259 
Q 2797 -91 1919 -91 
Q 1588 -91 1214 -16 
Q 841 59 441 206 
L 441 856 
Q 825 641 1194 531 
Q 1563 422 1919 422 
Q 2459 422 2753 634 
Q 3047 847 3047 1241 
Q 3047 1584 2836 1778 
Q 2625 1972 2144 2069 
L 1759 2144 
Q 1053 2284 737 2584 
Q 422 2884 422 3419 
Q 422 4038 858 4394 
Q 1294 4750 2059 4750 
Q 2388 4750 2728 4690 
Q 3069 4631 3425 4513 
z
" transform="scale(0.015625)"/>
       <path id="DejaVuSans-44" d="M 1259 4147 
L 1259 519 
L 2022 519 
Q 2988 519 3436 956 
Q 3884 1394 3884 2338 
Q 3884 3275 3436 3711 
Q 2988 4147 2022 4147 
L 1259 4147 
z
M 628 4666 
L 1925 4666 
Q 3281 4666 3915 4102 
Q 4550 3538 4550 2338 
Q 4550 1131 3912 565 
Q 3275 0 1925 0 
L 628 0 
L 628 4666 
z
" transform="scale(0.015625)"/>
      </defs>
      <use xlink:href="#DejaVuSans-72"/>
      <use xlink:href="#DejaVuSans-65" transform="translate(38.863281 0)"/>
      <use xlink:href="#DejaVuSans-66" transform="translate(100.386719 0)"/>
      <use xlink:href="#DejaVuSans-65" transform="translate(135.591797 0)"/>
      <use xlink:href="#DejaVuSans-72" transform="translate(197.115234 0)"/>
      <use xlink:href="#DejaVuSans-65" transform="translate(235.978516 0)"/>
      <use xlink:href="#DejaVuSans-6e" transform="translate(297.501953 0)"/>
      <use xlink:href="#DejaVuSans-63" transform="translate(360.880859 0)"/>
      <use xlink:href="#DejaVuSans-65" transform="translate(415.861328 0)"/>
      <use xlink:href="#DejaVuSans-5f" transform="translate(477.384766 0)"/>
      <use xlink:href="#DejaVuSans-64" transform="translate(527.384766 0)"/>
      <use xlink:href="#DejaVuSans-61" transform="translate(590.861328 0)"/>
      <use xlink:href="#DejaVuSans-74" transform="translate(652.140625 0)"/>
      <use xlink:href="#DejaVuSans-61" transform="translate(691.349609 0)"/>
      <use xlink:href="#DejaVuSans-20" transform="translate(752.628906 0)"/>
      <use xlink:href="#DejaVuSans-b1" transform="translate(784.416016 0)"/>
      <use xlink:href="#DejaVuSans-20" transform="translate(868.205078 0)"/>
      <use xlink:href="#DejaVuSans-53" transform="translate(899.992188 0)"/>
      <use xlink:href="#DejaVuSans-44" transform="translate(963.46875 0)"/>
     </g>
    </g>
   </g>
  </g>
  <g id="axes_2">
   <g id="patch_8">
    <path d="M 394.363636 320.4 
L 648 320.4 
L 648 43.2 
L 394.363636 43.2 
z
" style="fill: #ffffff"/>
   </g>
   <g id="matplotlib.axis_3">
    <g id="xtick_5">
     <g id="line2d_18">
      <g>
       <use xlink:href="#m01767d64e3" x="415.5" y="320.4" style="stroke: #000000; stroke-width: 0.8"/>
      </g>
     </g>
     <g id="text_18">
      <!-- 0 -->
      <g transform="translate(412.31875 334.998438) scale(0.1 -0.1)">
       <use xlink:href="#DejaVuSans-30"/>
      </g>
     </g>
    </g>
    <g id="xtick_6">
     <g id="line2d_19">
      <g>
       <use xlink:href="#m01767d64e3" x="474.212121" y="320.4" style="stroke: #000000; stroke-width: 0.8"/>
      </g>
     </g>
     <g id="text_19">
      <!-- 1000 -->
      <g transform="translate(461.487121 334.998438) scale(0.1 -0.1)">
       <use xlink:href="#DejaVuSans-31"/>
       <use xlink:href="#DejaVuSans-30" transform="translate(63.623047 0)"/>
       <use xlink:href="#DejaVuSans-30" transform="translate(127.246094 0)"/>
       <use xlink:href="#DejaVuSans-30" transform="translate(190.869141 0)"/>
      </g>
     </g>
    </g>
    <g id="xtick_7">
     <g id="line2d_20">
      <g>
       <use xlink:href="#m01767d64e3" x="532.924242" y="320.4" style="stroke: #000000; stroke-width: 0.8"/>
      </g>
     </g>
     <g id="text_20">
      <!-- 2000 -->
      <g transform="translate(520.199242 334.998438) scale(0.1 -0.1)">
       <use xlink:href="#DejaVuSans-32"/>
       <use xlink:href="#DejaVuSans-30" transform="translate(63.623047 0)"/>
       <use xlink:href="#DejaVuSans-30" transform="translate(127.246094 0)"/>
       <use xlink:href="#DejaVuSans-30" transform="translate(190.869141 0)"/>
      </g>
     </g>
    </g>
    <g id="xtick_8">
     <g id="line2d_21">
      <g>
       <use xlink:href="#m01767d64e3" x="591.636364" y="320.4" style="stroke: #000000; stroke-width: 0.8"/>
      </g>
     </g>
     <g id="text_21">
      <!-- 3000 -->
      <g transform="translate(578.911364 334.998438) scale(0.1 -0.1)">
       <use xlink:href="#DejaVuSans-33"/>
       <use xlink:href="#DejaVuSans-30" transform="translate(63.623047 0)"/>
       <use xlink:href="#DejaVuSans-30" transform="translate(127.246094 0)"/>
       <use xlink:href="#DejaVuSans-30" transform="translate(190.869141 0)"/>
      </g>
     </g>
    </g>
    <g id="text_22">
     <!-- time -->
     <g transform="translate(507.626506 350.19625) scale(0.12 -0.12)">
      <use xlink:href="#DejaVuSans-74"/>
      <use xlink:href="#DejaVuSans-69" transform="translate(39.208984 0)"/>
      <use xlink:href="#DejaVuSans-6d" transform="translate(66.992188 0)"/>
      <use xlink:href="#DejaVuSans-65" transform="translate(164.404297 0)"/>
     </g>
    </g>
   </g>
   <g id="matplotlib.axis_4">
    <g id="ytick_9">
     <g id="line2d_22">
      <g>
       <use xlink:href="#m223fd19444" x="394.363636" y="314.987506" style="stroke: #000000; stroke-width: 0.8"/>
      </g>
     </g>
     <g id="text_23">
      <!-- $\mathdefault{10^{-6}}$ -->
      <g transform="translate(363.863636 318.786725) scale(0.1 -0.1)">
       <defs>
        <path id="DejaVuSans-2212" d="M 678 2272 
L 4684 2272 
L 4684 1741 
L 678 1741 
L 678 2272 
z
" transform="scale(0.015625)"/>
        <path id="DejaVuSans-36" d="M 2113 2584 
Q 1688 2584 1439 2293 
Q 1191 2003 1191 1497 
Q 1191 994 1439 701 
Q 1688 409 2113 409 
Q 2538 409 2786 701 
Q 3034 994 3034 1497 
Q 3034 2003 2786 2293 
Q 2538 2584 2113 2584 
z
M 3366 4563 
L 3366 3988 
Q 3128 4100 2886 4159 
Q 2644 4219 2406 4219 
Q 1781 4219 1451 3797 
Q 1122 3375 1075 2522 
Q 1259 2794 1537 2939 
Q 1816 3084 2150 3084 
Q 2853 3084 3261 2657 
Q 3669 2231 3669 1497 
Q 3669 778 3244 343 
Q 2819 -91 2113 -91 
Q 1303 -91 875 529 
Q 447 1150 447 2328 
Q 447 3434 972 4092 
Q 1497 4750 2381 4750 
Q 2619 4750 2861 4703 
Q 3103 4656 3366 4563 
z
" transform="scale(0.015625)"/>
       </defs>
       <use xlink:href="#DejaVuSans-31" transform="translate(0 0.765625)"/>
       <use xlink:href="#DejaVuSans-30" transform="translate(63.623047 0.765625)"/>
       <use xlink:href="#DejaVuSans-2212" transform="translate(128.203125 39.046875) scale(0.7)"/>
       <use xlink:href="#DejaVuSans-36" transform="translate(186.855469 39.046875) scale(0.7)"/>
      </g>
     </g>
    </g>
    <g id="ytick_10">
     <g id="line2d_23">
      <g>
       <use xlink:href="#m223fd19444" x="394.363636" y="247.584097" style="stroke: #000000; stroke-width: 0.8"/>
      </g>
     </g>
     <g id="text_24">
      <!-- $\mathdefault{10^{-5}}$ -->
      <g transform="translate(363.863636 251.383316) scale(0.1 -0.1)">
       <use xlink:href="#DejaVuSans-31" transform="translate(0 0.684375)"/>
       <use xlink:href="#DejaVuSans-30" transform="translate(63.623047 0.684375)"/>
       <use xlink:href="#DejaVuSans-2212" transform="translate(128.203125 38.965625) scale(0.7)"/>
       <use xlink:href="#DejaVuSans-35" transform="translate(186.855469 38.965625) scale(0.7)"/>
      </g>
     </g>
    </g>
    <g id="ytick_11">
     <g id="line2d_24">
      <g>
       <use xlink:href="#m223fd19444" x="394.363636" y="180.180688" style="stroke: #000000; stroke-width: 0.8"/>
      </g>
     </g>
     <g id="text_25">
      <!-- $\mathdefault{10^{-4}}$ -->
      <g transform="translate(363.863636 183.979907) scale(0.1 -0.1)">
       <defs>
        <path id="DejaVuSans-34" d="M 2419 4116 
L 825 1625 
L 2419 1625 
L 2419 4116 
z
M 2253 4666 
L 3047 4666 
L 3047 1625 
L 3713 1625 
L 3713 1100 
L 3047 1100 
L 3047 0 
L 2419 0 
L 2419 1100 
L 313 1100 
L 313 1709 
L 2253 4666 
z
" transform="scale(0.015625)"/>
       </defs>
       <use xlink:href="#DejaVuSans-31" transform="translate(0 0.684375)"/>
       <use xlink:href="#DejaVuSans-30" transform="translate(63.623047 0.684375)"/>
       <use xlink:href="#DejaVuSans-2212" transform="translate(128.203125 38.965625) scale(0.7)"/>
       <use xlink:href="#DejaVuSans-34" transform="translate(186.855469 38.965625) scale(0.7)"/>
      </g>
     </g>
    </g>
    <g id="ytick_12">
     <g id="line2d_25">
      <g>
       <use xlink:href="#m223fd19444" x="394.363636" y="112.777279" style="stroke: #000000; stroke-width: 0.8"/>
      </g>
     </g>
     <g id="text_26">
      <!-- $\mathdefault{10^{-3}}$ -->
      <g transform="translate(363.863636 116.576498) scale(0.1 -0.1)">
       <use xlink:href="#DejaVuSans-31" transform="translate(0 0.765625)"/>
       <use xlink:href="#DejaVuSans-30" transform="translate(63.623047 0.765625)"/>
       <use xlink:href="#DejaVuSans-2212" transform="translate(128.203125 39.046875) scale(0.7)"/>
       <use xlink:href="#DejaVuSans-33" transform="translate(186.855469 39.046875) scale(0.7)"/>
      </g>
     </g>
    </g>
    <g id="ytick_13">
     <g id="line2d_26">
      <g>
       <use xlink:href="#m223fd19444" x="394.363636" y="45.373871" style="stroke: #000000; stroke-width: 0.8"/>
      </g>
     </g>
     <g id="text_27">
      <!-- $\mathdefault{10^{-2}}$ -->
      <g transform="translate(363.863636 49.173089) scale(0.1 -0.1)">
       <use xlink:href="#DejaVuSans-31" transform="translate(0 0.765625)"/>
       <use xlink:href="#DejaVuSans-30" transform="translate(63.623047 0.765625)"/>
       <use xlink:href="#DejaVuSans-2212" transform="translate(128.203125 39.046875) scale(0.7)"/>
       <use xlink:href="#DejaVuSans-32" transform="translate(186.855469 39.046875) scale(0.7)"/>
      </g>
     </g>
    </g>
    <g id="ytick_14">
     <g id="line2d_27">
      <defs>
       <path id="m9513a4ed5f" d="M 0 0 
L -2 0 
" style="stroke: #000000; stroke-width: 0.6"/>
      </defs>
      <g>
       <use xlink:href="#m9513a4ed5f" x="394.363636" y="318.071717" style="stroke: #000000; stroke-width: 0.6"/>
      </g>
     </g>
    </g>
    <g id="ytick_15">
     <g id="line2d_28">
      <g>
       <use xlink:href="#m9513a4ed5f" x="394.363636" y="294.697058" style="stroke: #000000; stroke-width: 0.6"/>
      </g>
     </g>
    </g>
    <g id="ytick_16">
     <g id="line2d_29">
      <g>
       <use xlink:href="#m9513a4ed5f" x="394.363636" y="282.827907" style="stroke: #000000; stroke-width: 0.6"/>
      </g>
     </g>
    </g>
    <g id="ytick_17">
     <g id="line2d_30">
      <g>
       <use xlink:href="#m9513a4ed5f" x="394.363636" y="274.40661" style="stroke: #000000; stroke-width: 0.6"/>
      </g>
     </g>
    </g>
    <g id="ytick_18">
     <g id="line2d_31">
      <g>
       <use xlink:href="#m9513a4ed5f" x="394.363636" y="267.874545" style="stroke: #000000; stroke-width: 0.6"/>
      </g>
     </g>
    </g>
    <g id="ytick_19">
     <g id="line2d_32">
      <g>
       <use xlink:href="#m9513a4ed5f" x="394.363636" y="262.537459" style="stroke: #000000; stroke-width: 0.6"/>
      </g>
     </g>
    </g>
    <g id="ytick_20">
     <g id="line2d_33">
      <g>
       <use xlink:href="#m9513a4ed5f" x="394.363636" y="258.025017" style="stroke: #000000; stroke-width: 0.6"/>
      </g>
     </g>
    </g>
    <g id="ytick_21">
     <g id="line2d_34">
      <g>
       <use xlink:href="#m9513a4ed5f" x="394.363636" y="254.116163" style="stroke: #000000; stroke-width: 0.6"/>
      </g>
     </g>
    </g>
    <g id="ytick_22">
     <g id="line2d_35">
      <g>
       <use xlink:href="#m9513a4ed5f" x="394.363636" y="250.668308" style="stroke: #000000; stroke-width: 0.6"/>
      </g>
     </g>
    </g>
    <g id="ytick_23">
     <g id="line2d_36">
      <g>
       <use xlink:href="#m9513a4ed5f" x="394.363636" y="227.293649" style="stroke: #000000; stroke-width: 0.6"/>
      </g>
     </g>
    </g>
    <g id="ytick_24">
     <g id="line2d_37">
      <g>
       <use xlink:href="#m9513a4ed5f" x="394.363636" y="215.424498" style="stroke: #000000; stroke-width: 0.6"/>
      </g>
     </g>
    </g>
    <g id="ytick_25">
     <g id="line2d_38">
      <g>
       <use xlink:href="#m9513a4ed5f" x="394.363636" y="207.003202" style="stroke: #000000; stroke-width: 0.6"/>
      </g>
     </g>
    </g>
    <g id="ytick_26">
     <g id="line2d_39">
      <g>
       <use xlink:href="#m9513a4ed5f" x="394.363636" y="200.471136" style="stroke: #000000; stroke-width: 0.6"/>
      </g>
     </g>
    </g>
    <g id="ytick_27">
     <g id="line2d_40">
      <g>
       <use xlink:href="#m9513a4ed5f" x="394.363636" y="195.13405" style="stroke: #000000; stroke-width: 0.6"/>
      </g>
     </g>
    </g>
    <g id="ytick_28">
     <g id="line2d_41">
      <g>
       <use xlink:href="#m9513a4ed5f" x="394.363636" y="190.621609" style="stroke: #000000; stroke-width: 0.6"/>
      </g>
     </g>
    </g>
    <g id="ytick_29">
     <g id="line2d_42">
      <g>
       <use xlink:href="#m9513a4ed5f" x="394.363636" y="186.712754" style="stroke: #000000; stroke-width: 0.6"/>
      </g>
     </g>
    </g>
    <g id="ytick_30">
     <g id="line2d_43">
      <g>
       <use xlink:href="#m9513a4ed5f" x="394.363636" y="183.264899" style="stroke: #000000; stroke-width: 0.6"/>
      </g>
     </g>
    </g>
    <g id="ytick_31">
     <g id="line2d_44">
      <g>
       <use xlink:href="#m9513a4ed5f" x="394.363636" y="159.89024" style="stroke: #000000; stroke-width: 0.6"/>
      </g>
     </g>
    </g>
    <g id="ytick_32">
     <g id="line2d_45">
      <g>
       <use xlink:href="#m9513a4ed5f" x="394.363636" y="148.021089" style="stroke: #000000; stroke-width: 0.6"/>
      </g>
     </g>
    </g>
    <g id="ytick_33">
     <g id="line2d_46">
      <g>
       <use xlink:href="#m9513a4ed5f" x="394.363636" y="139.599793" style="stroke: #000000; stroke-width: 0.6"/>
      </g>
     </g>
    </g>
    <g id="ytick_34">
     <g id="line2d_47">
      <g>
       <use xlink:href="#m9513a4ed5f" x="394.363636" y="133.067727" style="stroke: #000000; stroke-width: 0.6"/>
      </g>
     </g>
    </g>
    <g id="ytick_35">
     <g id="line2d_48">
      <g>
       <use xlink:href="#m9513a4ed5f" x="394.363636" y="127.730641" style="stroke: #000000; stroke-width: 0.6"/>
      </g>
     </g>
    </g>
    <g id="ytick_36">
     <g id="line2d_49">
      <g>
       <use xlink:href="#m9513a4ed5f" x="394.363636" y="123.2182" style="stroke: #000000; stroke-width: 0.6"/>
      </g>
     </g>
    </g>
    <g id="ytick_37">
     <g id="line2d_50">
      <g>
       <use xlink:href="#m9513a4ed5f" x="394.363636" y="119.309345" style="stroke: #000000; stroke-width: 0.6"/>
      </g>
     </g>
    </g>
    <g id="ytick_38">
     <g id="line2d_51">
      <g>
       <use xlink:href="#m9513a4ed5f" x="394.363636" y="115.86149" style="stroke: #000000; stroke-width: 0.6"/>
      </g>
     </g>
    </g>
    <g id="ytick_39">
     <g id="line2d_52">
      <g>
       <use xlink:href="#m9513a4ed5f" x="394.363636" y="92.486832" style="stroke: #000000; stroke-width: 0.6"/>
      </g>
     </g>
    </g>
    <g id="ytick_40">
     <g id="line2d_53">
      <g>
       <use xlink:href="#m9513a4ed5f" x="394.363636" y="80.61768" style="stroke: #000000; stroke-width: 0.6"/>
      </g>
     </g>
    </g>
    <g id="ytick_41">
     <g id="line2d_54">
      <g>
       <use xlink:href="#m9513a4ed5f" x="394.363636" y="72.196384" style="stroke: #000000; stroke-width: 0.6"/>
      </g>
     </g>
    </g>
    <g id="ytick_42">
     <g id="line2d_55">
      <g>
       <use xlink:href="#m9513a4ed5f" x="394.363636" y="65.664318" style="stroke: #000000; stroke-width: 0.6"/>
      </g>
     </g>
    </g>
    <g id="ytick_43">
     <g id="line2d_56">
      <g>
       <use xlink:href="#m9513a4ed5f" x="394.363636" y="60.327233" style="stroke: #000000; stroke-width: 0.6"/>
      </g>
     </g>
    </g>
    <g id="ytick_44">
     <g id="line2d_57">
      <g>
       <use xlink:href="#m9513a4ed5f" x="394.363636" y="55.814791" style="stroke: #000000; stroke-width: 0.6"/>
      </g>
     </g>
    </g>
    <g id="ytick_45">
     <g id="line2d_58">
      <g>
       <use xlink:href="#m9513a4ed5f" x="394.363636" y="51.905936" style="stroke: #000000; stroke-width: 0.6"/>
      </g>
     </g>
    </g>
    <g id="ytick_46">
     <g id="line2d_59">
      <g>
       <use xlink:href="#m9513a4ed5f" x="394.363636" y="48.458081" style="stroke: #000000; stroke-width: 0.6"/>
      </g>
     </g>
    </g>
    <g id="text_28">
     <!-- [Cve_api] -->
     <g transform="translate(357.034261 210.0675) rotate(-90) scale(0.12 -0.12)">
      <use xlink:href="#DejaVuSans-5b"/>
      <use xlink:href="#DejaVuSans-43" transform="translate(39.013672 0)"/>
      <use xlink:href="#DejaVuSans-76" transform="translate(108.837891 0)"/>
      <use xlink:href="#DejaVuSans-65" transform="translate(168.017578 0)"/>
      <use xlink:href="#DejaVuSans-5f" transform="translate(229.541016 0)"/>
      <use xlink:href="#DejaVuSans-61" transform="translate(279.541016 0)"/>
      <use xlink:href="#DejaVuSans-70" transform="translate(340.820312 0)"/>
      <use xlink:href="#DejaVuSans-69" transform="translate(404.296875 0)"/>
      <use xlink:href="#DejaVuSans-5d" transform="translate(432.080078 0)"/>
     </g>
    </g>
   </g>
   <g id="LineCollection_3">
    <path d="M 415.5 205.829054 
L 415.5 170.504752 
" clip-path="url(#pf738843c49)" style="fill: none; stroke: #000000; stroke-width: 1.5"/>
    <path d="M 417.261364 205.130215 
L 417.261364 172.495092 
" clip-path="url(#pf738843c49)" style="fill: none; stroke: #000000; stroke-width: 1.5"/>
    <path d="M 419.022727 210.481965 
L 419.022727 157.041301 
" clip-path="url(#pf738843c49)" style="fill: none; stroke: #000000; stroke-width: 1.5"/>
    <path d="M 422.545455 168.053698 
L 422.545455 146.884897 
" clip-path="url(#pf738843c49)" style="fill: none; stroke: #000000; stroke-width: 1.5"/>
    <path d="M 426.068182 156.778895 
L 426.068182 143.983559 
" clip-path="url(#pf738843c49)" style="fill: none; stroke: #000000; stroke-width: 1.5"/>
    <path d="M 429.590909 160.031036 
L 429.590909 145.492005 
" clip-path="url(#pf738843c49)" style="fill: none; stroke: #000000; stroke-width: 1.5"/>
    <path d="M 433.113636 166.162347 
L 433.113636 150.543824 
" clip-path="url(#pf738843c49)" style="fill: none; stroke: #000000; stroke-width: 1.5"/>
    <path d="M 436.636364 172.752049 
L 436.636364 155.223669 
" clip-path="url(#pf738843c49)" style="fill: none; stroke: #000000; stroke-width: 1.5"/>
    <path d="M 443.681818 181.899268 
L 443.681818 162.053919 
" clip-path="url(#pf738843c49)" style="fill: none; stroke: #000000; stroke-width: 1.5"/>
    <path d="M 457.772727 197.362158 
L 457.772727 174.688187 
" clip-path="url(#pf738843c49)" style="fill: none; stroke: #000000; stroke-width: 1.5"/>
    <path d="M 459.534091 232.075667 
L 459.534091 168.095909 
" clip-path="url(#pf738843c49)" style="fill: none; stroke: #000000; stroke-width: 1.5"/>
    <path d="M 461.295455 254.758636 
L 461.295455 160.058324 
" clip-path="url(#pf738843c49)" style="fill: none; stroke: #000000; stroke-width: 1.5"/>
    <path d="M 464.818182 206.77016 
L 464.818182 150.889914 
" clip-path="url(#pf738843c49)" style="fill: none; stroke: #000000; stroke-width: 1.5"/>
    <path d="M 468.340909 168.702236 
L 468.340909 151.556477 
" clip-path="url(#pf738843c49)" style="fill: none; stroke: #000000; stroke-width: 1.5"/>
    <path d="M 471.863636 163.559899 
L 471.863636 151.114686 
" clip-path="url(#pf738843c49)" style="fill: none; stroke: #000000; stroke-width: 1.5"/>
    <path d="M 475.386364 165.120815 
L 475.386364 152.354833 
" clip-path="url(#pf738843c49)" style="fill: none; stroke: #000000; stroke-width: 1.5"/>
    <path d="M 478.909091 171.454301 
L 478.909091 153.5298 
" clip-path="url(#pf738843c49)" style="fill: none; stroke: #000000; stroke-width: 1.5"/>
    <path d="M 485.954545 179.259553 
L 485.954545 158.907476 
" clip-path="url(#pf738843c49)" style="fill: none; stroke: #000000; stroke-width: 1.5"/>
    <path d="M 500.045455 189.541988 
L 500.045455 166.795282 
" clip-path="url(#pf738843c49)" style="fill: none; stroke: #000000; stroke-width: 1.5"/>
    <path d="M 521.181818 224.913525 
L 521.181818 191.282947 
" clip-path="url(#pf738843c49)" style="fill: none; stroke: #000000; stroke-width: 1.5"/>
    <path d="M 542.318182 234.810714 
L 542.318182 207.108313 
" clip-path="url(#pf738843c49)" style="fill: none; stroke: #000000; stroke-width: 1.5"/>
    <path d="M 563.454545 292.777043 
L 563.454545 223.898487 
" clip-path="url(#pf738843c49)" style="fill: none; stroke: #000000; stroke-width: 1.5"/>
    <path d="M 584.590909 282.544858 
L 584.590909 231.631591 
" clip-path="url(#pf738843c49)" style="fill: none; stroke: #000000; stroke-width: 1.5"/>
    <path d="M 626.863636 361 
L 626.863636 247.9246 
" clip-path="url(#pf738843c49)" style="fill: none; stroke: #000000; stroke-width: 1.5"/>
   </g>
   <g id="line2d_60">
    <path d="M 393.884208 164.8691 
L 410.54382 177.526312 
L 415.5 181.204081 
L 415.505557 181.613561 
L 415.606604 180.255599 
L 416.155317 173.251475 
L 416.758495 168.2087 
L 417.4558 164.301987 
L 418.153104 161.658055 
L 418.850409 159.837334 
L 419.315278 158.951132 
L 420.211448 157.777937 
L 421.107618 157.11701 
L 422.003788 156.814785 
L 422.899958 156.769845 
L 423.348043 156.821294 
L 424.847718 157.255167 
L 426.660383 158.141772 
L 429.077269 159.664504 
L 433.05147 162.539957 
L 457.772727 181.241822 
L 457.778175 182.911355 
L 457.877982 181.498535 
L 458.373609 174.718822 
L 458.923097 169.676205 
L 459.607469 165.429442 
L 460.28867 162.568539 
L 460.969871 160.586693 
L 461.651072 159.209512 
L 462.332273 158.266446 
L 462.878835 157.74617 
L 463.425396 157.390594 
L 464.51852 157.054343 
L 465.611643 157.07858 
L 466.704767 157.349425 
L 468.344452 158.060883 
L 470.275046 159.186844 
L 473.624927 161.508171 
L 480.324689 166.584442 
L 494.898134 177.654495 
L 509.39366 188.348564 
L 525.959975 200.289904 
L 548.738659 216.412528 
L 581.87129 239.5531 
L 641.924183 281.17012 
L 648.136552 285.466975 
L 648.136552 285.466975 
" clip-path="url(#pf738843c49)" style="fill: none; stroke: #0000ff; stroke-width: 1.5; stroke-linecap: square"/>
   </g>
   <g id="line2d_61">
    <path d="M 415.5 183.133585 
L 417.261364 184.482402 
L 419.022727 172.958788 
L 422.545455 155.59606 
L 426.068182 149.68761 
L 429.590909 151.868008 
L 433.113636 157.323557 
L 436.636364 162.695023 
L 443.681818 170.326096 
L 457.772727 183.882626 
L 459.534091 185.268025 
L 461.295455 179.218771 
L 464.818182 167.134018 
L 468.340909 158.891573 
L 471.863636 156.680838 
L 475.386364 158.047361 
L 478.909091 161.141014 
L 485.954545 167.349302 
L 500.045455 176.012649 
L 521.181818 203.512971 
L 542.318182 217.797943 
L 563.454545 241.530001 
L 584.590909 247.185055 
L 626.863636 285.15619 
" clip-path="url(#pf738843c49)" style="fill: none; stroke: #000000; stroke-width: 1.5; stroke-linecap: square"/>
    <g clip-path="url(#pf738843c49)">
     <use xlink:href="#mb10d83d060" x="415.5" y="183.133585" style="stroke: #000000; stroke-linejoin: miter"/>
     <use xlink:href="#mb10d83d060" x="417.261364" y="184.482402" style="stroke: #000000; stroke-linejoin: miter"/>
     <use xlink:href="#mb10d83d060" x="419.022727" y="172.958788" style="stroke: #000000; stroke-linejoin: miter"/>
     <use xlink:href="#mb10d83d060" x="422.545455" y="155.59606" style="stroke: #000000; stroke-linejoin: miter"/>
     <use xlink:href="#mb10d83d060" x="426.068182" y="149.68761" style="stroke: #000000; stroke-linejoin: miter"/>
     <use xlink:href="#mb10d83d060" x="429.590909" y="151.868008" style="stroke: #000000; stroke-linejoin: miter"/>
     <use xlink:href="#mb10d83d060" x="433.113636" y="157.323557" style="stroke: #000000; stroke-linejoin: miter"/>
     <use xlink:href="#mb10d83d060" x="436.636364" y="162.695023" style="stroke: #000000; stroke-linejoin: miter"/>
     <use xlink:href="#mb10d83d060" x="443.681818" y="170.326096" style="stroke: #000000; stroke-linejoin: miter"/>
     <use xlink:href="#mb10d83d060" x="457.772727" y="183.882626" style="stroke: #000000; stroke-linejoin: miter"/>
     <use xlink:href="#mb10d83d060" x="459.534091" y="185.268025" style="stroke: #000000; stroke-linejoin: miter"/>
     <use xlink:href="#mb10d83d060" x="461.295455" y="179.218771" style="stroke: #000000; stroke-linejoin: miter"/>
     <use xlink:href="#mb10d83d060" x="464.818182" y="167.134018" style="stroke: #000000; stroke-linejoin: miter"/>
     <use xlink:href="#mb10d83d060" x="468.340909" y="158.891573" style="stroke: #000000; stroke-linejoin: miter"/>
     <use xlink:href="#mb10d83d060" x="471.863636" y="156.680838" style="stroke: #000000; stroke-linejoin: miter"/>
     <use xlink:href="#mb10d83d060" x="475.386364" y="158.047361" style="stroke: #000000; stroke-linejoin: miter"/>
     <use xlink:href="#mb10d83d060" x="478.909091" y="161.141014" style="stroke: #000000; stroke-linejoin: miter"/>
     <use xlink:href="#mb10d83d060" x="485.954545" y="167.349302" style="stroke: #000000; stroke-linejoin: miter"/>
     <use xlink:href="#mb10d83d060" x="500.045455" y="176.012649" style="stroke: #000000; stroke-linejoin: miter"/>
     <use xlink:href="#mb10d83d060" x="521.181818" y="203.512971" style="stroke: #000000; stroke-linejoin: miter"/>
     <use xlink:href="#mb10d83d060" x="542.318182" y="217.797943" style="stroke: #000000; stroke-linejoin: miter"/>
     <use xlink:href="#mb10d83d060" x="563.454545" y="241.530001" style="stroke: #000000; stroke-linejoin: miter"/>
     <use xlink:href="#mb10d83d060" x="584.590909" y="247.185055" style="stroke: #000000; stroke-linejoin: miter"/>
     <use xlink:href="#mb10d83d060" x="626.863636" y="285.15619" style="stroke: #000000; stroke-linejoin: miter"/>
    </g>
   </g>
   <g id="patch_9">
    <path d="M 394.363636 320.4 
L 394.363636 43.2 
" style="fill: none; stroke: #000000; stroke-width: 0.8; stroke-linejoin: miter; stroke-linecap: square"/>
   </g>
   <g id="patch_10">
    <path d="M 648 320.4 
L 648 43.2 
" style="fill: none; stroke: #000000; stroke-width: 0.8; stroke-linejoin: miter; stroke-linecap: square"/>
   </g>
   <g id="patch_11">
    <path d="M 394.363636 320.4 
L 648 320.4 
" style="fill: none; stroke: #000000; stroke-width: 0.8; stroke-linejoin: miter; stroke-linecap: square"/>
   </g>
   <g id="patch_12">
    <path d="M 394.363636 43.2 
L 648 43.2 
" style="fill: none; stroke: #000000; stroke-width: 0.8; stroke-linejoin: miter; stroke-linecap: square"/>
   </g>
   <g id="text_29">
    <!-- Kreutz2017 fm_PO_api_apixaban -->
    <g transform="translate(406.196974 37.2) scale(0.14 -0.14)">
     <use xlink:href="#DejaVuSans-4b"/>
     <use xlink:href="#DejaVuSans-72" transform="translate(65.576172 0)"/>
     <use xlink:href="#DejaVuSans-65" transform="translate(104.439453 0)"/>
     <use xlink:href="#DejaVuSans-75" transform="translate(165.962891 0)"/>
     <use xlink:href="#DejaVuSans-74" transform="translate(229.341797 0)"/>
     <use xlink:href="#DejaVuSans-7a" transform="translate(268.550781 0)"/>
     <use xlink:href="#DejaVuSans-32" transform="translate(321.041016 0)"/>
     <use xlink:href="#DejaVuSans-30" transform="translate(384.664062 0)"/>
     <use xlink:href="#DejaVuSans-31" transform="translate(448.287109 0)"/>
     <use xlink:href="#DejaVuSans-37" transform="translate(511.910156 0)"/>
     <use xlink:href="#DejaVuSans-20" transform="translate(575.533203 0)"/>
     <use xlink:href="#DejaVuSans-66" transform="translate(607.320312 0)"/>
     <use xlink:href="#DejaVuSans-6d" transform="translate(642.525391 0)"/>
     <use xlink:href="#DejaVuSans-5f" transform="translate(739.9375 0)"/>
     <use xlink:href="#DejaVuSans-50" transform="translate(789.9375 0)"/>
     <use xlink:href="#DejaVuSans-4f" transform="translate(850.240234 0)"/>
     <use xlink:href="#DejaVuSans-5f" transform="translate(928.951172 0)"/>
     <use xlink:href="#DejaVuSans-61" transform="translate(978.951172 0)"/>
     <use xlink:href="#DejaVuSans-70" transform="translate(1040.230469 0)"/>
     <use xlink:href="#DejaVuSans-69" transform="translate(1103.707031 0)"/>
     <use xlink:href="#DejaVuSans-5f" transform="translate(1131.490234 0)"/>
     <use xlink:href="#DejaVuSans-61" transform="translate(1181.490234 0)"/>
     <use xlink:href="#DejaVuSans-70" transform="translate(1242.769531 0)"/>
     <use xlink:href="#DejaVuSans-69" transform="translate(1306.246094 0)"/>
     <use xlink:href="#DejaVuSans-78" transform="translate(1334.029297 0)"/>
     <use xlink:href="#DejaVuSans-61" transform="translate(1393.208984 0)"/>
     <use xlink:href="#DejaVuSans-62" transform="translate(1454.488281 0)"/>
     <use xlink:href="#DejaVuSans-61" transform="translate(1517.964844 0)"/>
     <use xlink:href="#DejaVuSans-6e" transform="translate(1579.244141 0)"/>
    </g>
   </g>
   <g id="legend_2">
    <g id="patch_13">
     <path d="M 504.95 80.834375 
L 641 80.834375 
Q 643 80.834375 643 78.834375 
L 643 50.2 
Q 643 48.2 641 48.2 
L 504.95 48.2 
Q 502.95 48.2 502.95 50.2 
L 502.95 78.834375 
Q 502.95 80.834375 504.95 80.834375 
z
" style="fill: #ffffff; opacity: 0.8; stroke: #cccccc; stroke-linejoin: miter"/>
    </g>
    <g id="line2d_62">
     <path d="M 506.95 56.298437 
L 516.95 56.298437 
L 526.95 56.298437 
" style="fill: none; stroke: #0000ff; stroke-width: 1.5; stroke-linecap: square"/>
    </g>
    <g id="text_30">
     <!-- observable -->
     <g transform="translate(534.95 59.798437) scale(0.1 -0.1)">
      <use xlink:href="#DejaVuSans-6f"/>
      <use xlink:href="#DejaVuSans-62" transform="translate(61.181641 0)"/>
      <use xlink:href="#DejaVuSans-73" transform="translate(124.658203 0)"/>
      <use xlink:href="#DejaVuSans-65" transform="translate(176.757812 0)"/>
      <use xlink:href="#DejaVuSans-72" transform="translate(238.28125 0)"/>
      <use xlink:href="#DejaVuSans-76" transform="translate(279.394531 0)"/>
      <use xlink:href="#DejaVuSans-61" transform="translate(338.574219 0)"/>
      <use xlink:href="#DejaVuSans-62" transform="translate(399.853516 0)"/>
      <use xlink:href="#DejaVuSans-6c" transform="translate(463.330078 0)"/>
      <use xlink:href="#DejaVuSans-65" transform="translate(491.113281 0)"/>
     </g>
    </g>
    <g id="LineCollection_4">
     <path d="M 516.95 75.976562 
L 516.95 65.976562 
" style="fill: none; stroke: #000000; stroke-width: 1.5"/>
    </g>
    <g id="line2d_63">
     <path d="M 506.95 70.976562 
L 526.95 70.976562 
" style="fill: none; stroke: #000000; stroke-width: 1.5; stroke-linecap: square"/>
    </g>
    <g id="line2d_64">
     <g>
      <use xlink:href="#mb10d83d060" x="516.95" y="70.976562" style="stroke: #000000; stroke-linejoin: miter"/>
     </g>
    </g>
    <g id="text_31">
     <!-- reference_data ± SD -->
     <g transform="translate(534.95 74.476562) scale(0.1 -0.1)">
      <use xlink:href="#DejaVuSans-72"/>
      <use xlink:href="#DejaVuSans-65" transform="translate(38.863281 0)"/>
      <use xlink:href="#DejaVuSans-66" transform="translate(100.386719 0)"/>
      <use xlink:href="#DejaVuSans-65" transform="translate(135.591797 0)"/>
      <use xlink:href="#DejaVuSans-72" transform="translate(197.115234 0)"/>
      <use xlink:href="#DejaVuSans-65" transform="translate(235.978516 0)"/>
      <use xlink:href="#DejaVuSans-6e" transform="translate(297.501953 0)"/>
      <use xlink:href="#DejaVuSans-63" transform="translate(360.880859 0)"/>
      <use xlink:href="#DejaVuSans-65" transform="translate(415.861328 0)"/>
      <use xlink:href="#DejaVuSans-5f" transform="translate(477.384766 0)"/>
      <use xlink:href="#DejaVuSans-64" transform="translate(527.384766 0)"/>
      <use xlink:href="#DejaVuSans-61" transform="translate(590.861328 0)"/>
      <use xlink:href="#DejaVuSans-74" transform="translate(652.140625 0)"/>
      <use xlink:href="#DejaVuSans-61" transform="translate(691.349609 0)"/>
      <use xlink:href="#DejaVuSans-20" transform="translate(752.628906 0)"/>
      <use xlink:href="#DejaVuSans-b1" transform="translate(784.416016 0)"/>
      <use xlink:href="#DejaVuSans-20" transform="translate(868.205078 0)"/>
      <use xlink:href="#DejaVuSans-53" transform="translate(899.992188 0)"/>
      <use xlink:href="#DejaVuSans-44" transform="translate(963.46875 0)"/>
     </g>
    </g>
   </g>
  </g>
 </g>
 <defs>
  <clipPath id="p5444e38dd5">
   <rect x="90" y="43.2" width="253.636364" height="277.2"/>
  </clipPath>
  <clipPath id="pf738843c49">
   <rect x="394.363636" y="43.2" width="253.636364" height="277.2"/>
  </clipPath>
 </defs>
</svg>
