<?xml version="1.0" encoding="utf-8" standalone="no"?>
<!DOCTYPE svg PUBLIC "-//W3C//DTD SVG 1.1//EN"
  "http://www.w3.org/Graphics/SVG/1.1/DTD/svg11.dtd">
<svg xmlns:xlink="http://www.w3.org/1999/xlink" width="360pt" height="360pt" viewBox="0 0 360 360" xmlns="http://www.w3.org/2000/svg" version="1.1">
 <metadata>
  <rdf:RDF xmlns:dc="http://purl.org/dc/elements/1.1/" xmlns:cc="http://creativecommons.org/ns#" xmlns:rdf="http://www.w3.org/1999/02/22-rdf-syntax-ns#">
   <cc:Work>
    <dc:type rdf:resource="http://purl.org/dc/dcmitype/StillImage"/>
    <dc:date>2026-04-20T10:55:34.749912</dc:date>
    <dc:format>image/svg+xml</dc:format>
    <dc:creator>
     <cc:Agent>
      <dc:title>Matplotlib v3.10.7, https://matplotlib.org/</dc:title>
     </cc:Agent>
    </dc:creator>
   </cc:Work>
  </rdf:RDF>
 </metadata>
 <defs>
  <style type="text/css">*{stroke-linejoin: round; stroke-linecap: butt}</style>
 </defs>
 <g id="figure_1">
  <g id="patch_1">
   <path d="M 0 360 
L 360 360 
L 360 0 
L 0 0 
z
" style="fill: #ffffff"/>
  </g>
  <g id="axes_1">
   <g id="patch_2">
    <path d="M 64.77274 324.201635 
L 356.99976 324.201635 
L 356.99976 3.00024 
L 64.77274 3.00024 
z
" style="fill: #ffffff"/>
   </g>
   <g id="FillBetweenPolyCollection_1">
    <path d="M -23667.122903 274.97662 
L -23667.122903 274.979094 
L 343.716714 274.979094 
L 343.716714 274.974145 
L -23667.122903 274.974145 
L -23667.122903 274.97662 
L -23667.122903 274.97662 
L 343.716714 274.97662 
L 343.716714 274.97662 
L -23667.122903 274.97662 
z
" clip-path="url(#p922728f7f2)" style="fill: #d3d3d3; stroke: #d3d3d3"/>
   </g>
   <g id="matplotlib.axis_1">
    <g id="xtick_1">
     <g id="line2d_1">
      <path d="M 104.399232 324.201635 
L 104.399232 3.00024 
" clip-path="url(#p922728f7f2)" style="fill: none; stroke: #b0b0b0; stroke-width: 0.8; stroke-linecap: square"/>
     </g>
     <g id="line2d_2">
      <defs>
       <path id="m8496842d66" d="M 0 0 
L 0 3.5 
" style="stroke: #000000; stroke-width: 0.8"/>
      </defs>
      <g>
       <use xlink:href="#m8496842d66" x="104.399232" y="324.201635" style="stroke: #000000; stroke-width: 0.8"/>
      </g>
     </g>
     <g id="text_1">
      <!-- $\mathdefault{10^{-5}}$ -->
      <g transform="translate(92.649232 338.800072) scale(0.1 -0.1)">
       <defs>
        <path id="DejaVuSans-31" d="M 794 531 
L 1825 531 
L 1825 4091 
L 703 3866 
L 703 4441 
L 1819 4666 
L 2450 4666 
L 2450 531 
L 3481 531 
L 3481 0 
L 794 0 
L 794 531 
z
" transform="scale(0.015625)"/>
        <path id="DejaVuSans-30" d="M 2034 4250 
Q 1547 4250 1301 3770 
Q 1056 3291 1056 2328 
Q 1056 1369 1301 889 
Q 1547 409 2034 409 
Q 2525 409 2770 889 
Q 3016 1369 3016 2328 
Q 3016 3291 2770 3770 
Q 2525 4250 2034 4250 
z
M 2034 4750 
Q 2819 4750 3233 4129 
Q 3647 3509 3647 2328 
Q 3647 1150 3233 529 
Q 2819 -91 2034 -91 
Q 1250 -91 836 529 
Q 422 1150 422 2328 
Q 422 3509 836 4129 
Q 1250 4750 2034 4750 
z
" transform="scale(0.015625)"/>
        <path id="DejaVuSans-2212" d="M 678 2272 
L 4684 2272 
L 4684 1741 
L 678 1741 
L 678 2272 
z
" transform="scale(0.015625)"/>
        <path id="DejaVuSans-35" d="M 691 4666 
L 3169 4666 
L 3169 4134 
L 1269 4134 
L 1269 2991 
Q 1406 3038 1543 3061 
Q 1681 3084 1819 3084 
Q 2600 3084 3056 2656 
Q 3513 2228 3513 1497 
Q 3513 744 3044 326 
Q 2575 -91 1722 -91 
Q 1428 -91 1123 -41 
Q 819 9 494 109 
L 494 744 
Q 775 591 1075 516 
Q 1375 441 1709 441 
Q 2250 441 2565 725 
Q 2881 1009 2881 1497 
Q 2881 1984 2565 2268 
Q 2250 2553 1709 2553 
Q 1456 2553 1204 2497 
Q 953 2441 691 2322 
L 691 4666 
z
" transform="scale(0.015625)"/>
       </defs>
       <use xlink:href="#DejaVuSans-31" transform="translate(0 0.684375)"/>
       <use xlink:href="#DejaVuSans-30" transform="translate(63.623047 0.684375)"/>
       <use xlink:href="#DejaVuSans-2212" transform="translate(128.203125 38.965625) scale(0.7)"/>
       <use xlink:href="#DejaVuSans-35" transform="translate(186.855469 38.965625) scale(0.7)"/>
      </g>
     </g>
    </g>
    <g id="xtick_2">
     <g id="line2d_3">
      <path d="M 152.181186 324.201635 
L 152.181186 3.00024 
" clip-path="url(#p922728f7f2)" style="fill: none; stroke: #b0b0b0; stroke-width: 0.8; stroke-linecap: square"/>
     </g>
     <g id="line2d_4">
      <g>
       <use xlink:href="#m8496842d66" x="152.181186" y="324.201635" style="stroke: #000000; stroke-width: 0.8"/>
      </g>
     </g>
     <g id="text_2">
      <!-- $\mathdefault{10^{-3}}$ -->
      <g transform="translate(140.431186 338.800072) scale(0.1 -0.1)">
       <defs>
        <path id="DejaVuSans-33" d="M 2597 2516 
Q 3050 2419 3304 2112 
Q 3559 1806 3559 1356 
Q 3559 666 3084 287 
Q 2609 -91 1734 -91 
Q 1441 -91 1130 -33 
Q 819 25 488 141 
L 488 750 
Q 750 597 1062 519 
Q 1375 441 1716 441 
Q 2309 441 2620 675 
Q 2931 909 2931 1356 
Q 2931 1769 2642 2001 
Q 2353 2234 1838 2234 
L 1294 2234 
L 1294 2753 
L 1863 2753 
Q 2328 2753 2575 2939 
Q 2822 3125 2822 3475 
Q 2822 3834 2567 4026 
Q 2313 4219 1838 4219 
Q 1578 4219 1281 4162 
Q 984 4106 628 3988 
L 628 4550 
Q 988 4650 1302 4700 
Q 1616 4750 1894 4750 
Q 2613 4750 3031 4423 
Q 3450 4097 3450 3541 
Q 3450 3153 3228 2886 
Q 3006 2619 2597 2516 
z
" transform="scale(0.015625)"/>
       </defs>
       <use xlink:href="#DejaVuSans-31" transform="translate(0 0.765625)"/>
       <use xlink:href="#DejaVuSans-30" transform="translate(63.623047 0.765625)"/>
       <use xlink:href="#DejaVuSans-2212" transform="translate(128.203125 39.046875) scale(0.7)"/>
       <use xlink:href="#DejaVuSans-33" transform="translate(186.855469 39.046875) scale(0.7)"/>
      </g>
     </g>
    </g>
    <g id="xtick_3">
     <g id="line2d_5">
      <path d="M 199.96314 324.201635 
L 199.96314 3.00024 
" clip-path="url(#p922728f7f2)" style="fill: none; stroke: #b0b0b0; stroke-width: 0.8; stroke-linecap: square"/>
     </g>
     <g id="line2d_6">
      <g>
       <use xlink:href="#m8496842d66" x="199.96314" y="324.201635" style="stroke: #000000; stroke-width: 0.8"/>
      </g>
     </g>
     <g id="text_3">
      <!-- $\mathdefault{10^{-1}}$ -->
      <g transform="translate(188.21314 338.800072) scale(0.1 -0.1)">
       <use xlink:href="#DejaVuSans-31" transform="translate(0 0.684375)"/>
       <use xlink:href="#DejaVuSans-30" transform="translate(63.623047 0.684375)"/>
       <use xlink:href="#DejaVuSans-2212" transform="translate(128.203125 38.965625) scale(0.7)"/>
       <use xlink:href="#DejaVuSans-31" transform="translate(186.855469 38.965625) scale(0.7)"/>
      </g>
     </g>
    </g>
    <g id="xtick_4">
     <g id="line2d_7">
      <path d="M 247.745094 324.201635 
L 247.745094 3.00024 
" clip-path="url(#p922728f7f2)" style="fill: none; stroke: #b0b0b0; stroke-width: 0.8; stroke-linecap: square"/>
     </g>
     <g id="line2d_8">
      <g>
       <use xlink:href="#m8496842d66" x="247.745094" y="324.201635" style="stroke: #000000; stroke-width: 0.8"/>
      </g>
     </g>
     <g id="text_4">
      <!-- $\mathdefault{10^{1}}$ -->
      <g transform="translate(238.945094 338.800072) scale(0.1 -0.1)">
       <use xlink:href="#DejaVuSans-31" transform="translate(0 0.684375)"/>
       <use xlink:href="#DejaVuSans-30" transform="translate(63.623047 0.684375)"/>
       <use xlink:href="#DejaVuSans-31" transform="translate(128.203125 38.965625) scale(0.7)"/>
      </g>
     </g>
    </g>
    <g id="xtick_5">
     <g id="line2d_9">
      <path d="M 295.527048 324.201635 
L 295.527048 3.00024 
" clip-path="url(#p922728f7f2)" style="fill: none; stroke: #b0b0b0; stroke-width: 0.8; stroke-linecap: square"/>
     </g>
     <g id="line2d_10">
      <g>
       <use xlink:href="#m8496842d66" x="295.527048" y="324.201635" style="stroke: #000000; stroke-width: 0.8"/>
      </g>
     </g>
     <g id="text_5">
      <!-- $\mathdefault{10^{3}}$ -->
      <g transform="translate(286.727048 338.800072) scale(0.1 -0.1)">
       <use xlink:href="#DejaVuSans-31" transform="translate(0 0.765625)"/>
       <use xlink:href="#DejaVuSans-30" transform="translate(63.623047 0.765625)"/>
       <use xlink:href="#DejaVuSans-33" transform="translate(128.203125 39.046875) scale(0.7)"/>
      </g>
     </g>
    </g>
    <g id="xtick_6">
     <g id="line2d_11">
      <path d="M 343.309002 324.201635 
L 343.309002 3.00024 
" clip-path="url(#p922728f7f2)" style="fill: none; stroke: #b0b0b0; stroke-width: 0.8; stroke-linecap: square"/>
     </g>
     <g id="line2d_12">
      <g>
       <use xlink:href="#m8496842d66" x="343.309002" y="324.201635" style="stroke: #000000; stroke-width: 0.8"/>
      </g>
     </g>
     <g id="text_6">
      <!-- $\mathdefault{10^{5}}$ -->
      <g transform="translate(334.509002 338.800072) scale(0.1 -0.1)">
       <use xlink:href="#DejaVuSans-31" transform="translate(0 0.684375)"/>
       <use xlink:href="#DejaVuSans-30" transform="translate(63.623047 0.684375)"/>
       <use xlink:href="#DejaVuSans-35" transform="translate(128.203125 38.965625) scale(0.7)"/>
      </g>
     </g>
    </g>
    <g id="text_7">
     <!-- Experiment $y_{i,k}$ -->
     <g transform="translate(160.48625 353.99976) scale(0.12 -0.12)">
      <defs>
       <path id="DejaVuSans-Bold-45" d="M 588 4666 
L 3834 4666 
L 3834 3756 
L 1791 3756 
L 1791 2888 
L 3713 2888 
L 3713 1978 
L 1791 1978 
L 1791 909 
L 3903 909 
L 3903 0 
L 588 0 
L 588 4666 
z
" transform="scale(0.015625)"/>
       <path id="DejaVuSans-Bold-78" d="M 1422 1791 
L 159 3500 
L 1344 3500 
L 2059 2463 
L 2784 3500 
L 3969 3500 
L 2706 1797 
L 4031 0 
L 2847 0 
L 2059 1106 
L 1281 0 
L 97 0 
L 1422 1791 
z
" transform="scale(0.015625)"/>
       <path id="DejaVuSans-Bold-70" d="M 1656 506 
L 1656 -1331 
L 538 -1331 
L 538 3500 
L 1656 3500 
L 1656 2988 
Q 1888 3294 2169 3439 
Q 2450 3584 2816 3584 
Q 3463 3584 3878 3070 
Q 4294 2556 4294 1747 
Q 4294 938 3878 423 
Q 3463 -91 2816 -91 
Q 2450 -91 2169 54 
Q 1888 200 1656 506 
z
M 2400 2772 
Q 2041 2772 1848 2508 
Q 1656 2244 1656 1747 
Q 1656 1250 1848 986 
Q 2041 722 2400 722 
Q 2759 722 2948 984 
Q 3138 1247 3138 1747 
Q 3138 2247 2948 2509 
Q 2759 2772 2400 2772 
z
" transform="scale(0.015625)"/>
       <path id="DejaVuSans-Bold-65" d="M 4031 1759 
L 4031 1441 
L 1416 1441 
Q 1456 1047 1700 850 
Q 1944 653 2381 653 
Q 2734 653 3104 758 
Q 3475 863 3866 1075 
L 3866 213 
Q 3469 63 3072 -14 
Q 2675 -91 2278 -91 
Q 1328 -91 801 392 
Q 275 875 275 1747 
Q 275 2603 792 3093 
Q 1309 3584 2216 3584 
Q 3041 3584 3536 3087 
Q 4031 2591 4031 1759 
z
M 2881 2131 
Q 2881 2450 2695 2645 
Q 2509 2841 2209 2841 
Q 1884 2841 1681 2658 
Q 1478 2475 1428 2131 
L 2881 2131 
z
" transform="scale(0.015625)"/>
       <path id="DejaVuSans-Bold-72" d="M 3138 2547 
Q 2991 2616 2845 2648 
Q 2700 2681 2553 2681 
Q 2122 2681 1889 2404 
Q 1656 2128 1656 1613 
L 1656 0 
L 538 0 
L 538 3500 
L 1656 3500 
L 1656 2925 
Q 1872 3269 2151 3426 
Q 2431 3584 2822 3584 
Q 2878 3584 2943 3579 
Q 3009 3575 3134 3559 
L 3138 2547 
z
" transform="scale(0.015625)"/>
       <path id="DejaVuSans-Bold-69" d="M 538 3500 
L 1656 3500 
L 1656 0 
L 538 0 
L 538 3500 
z
M 538 4863 
L 1656 4863 
L 1656 3950 
L 538 3950 
L 538 4863 
z
" transform="scale(0.015625)"/>
       <path id="DejaVuSans-Bold-6d" d="M 3781 2919 
Q 3994 3244 4286 3414 
Q 4578 3584 4928 3584 
Q 5531 3584 5847 3212 
Q 6163 2841 6163 2131 
L 6163 0 
L 5038 0 
L 5038 1825 
Q 5041 1866 5042 1909 
Q 5044 1953 5044 2034 
Q 5044 2406 4934 2573 
Q 4825 2741 4581 2741 
Q 4263 2741 4089 2478 
Q 3916 2216 3909 1719 
L 3909 0 
L 2784 0 
L 2784 1825 
Q 2784 2406 2684 2573 
Q 2584 2741 2328 2741 
Q 2006 2741 1831 2477 
Q 1656 2213 1656 1722 
L 1656 0 
L 531 0 
L 531 3500 
L 1656 3500 
L 1656 2988 
Q 1863 3284 2130 3434 
Q 2397 3584 2719 3584 
Q 3081 3584 3359 3409 
Q 3638 3234 3781 2919 
z
" transform="scale(0.015625)"/>
       <path id="DejaVuSans-Bold-6e" d="M 4056 2131 
L 4056 0 
L 2931 0 
L 2931 347 
L 2931 1631 
Q 2931 2084 2911 2256 
Q 2891 2428 2841 2509 
Q 2775 2619 2662 2680 
Q 2550 2741 2406 2741 
Q 2056 2741 1856 2470 
Q 1656 2200 1656 1722 
L 1656 0 
L 538 0 
L 538 3500 
L 1656 3500 
L 1656 2988 
Q 1909 3294 2193 3439 
Q 2478 3584 2822 3584 
Q 3428 3584 3742 3212 
Q 4056 2841 4056 2131 
z
" transform="scale(0.015625)"/>
       <path id="DejaVuSans-Bold-74" d="M 1759 4494 
L 1759 3500 
L 2913 3500 
L 2913 2700 
L 1759 2700 
L 1759 1216 
Q 1759 972 1856 886 
Q 1953 800 2241 800 
L 2816 800 
L 2816 0 
L 1856 0 
Q 1194 0 917 276 
Q 641 553 641 1216 
L 641 2700 
L 84 2700 
L 84 3500 
L 641 3500 
L 641 4494 
L 1759 4494 
z
" transform="scale(0.015625)"/>
       <path id="DejaVuSans-Bold-20" transform="scale(0.015625)"/>
       <path id="DejaVuSans-Oblique-79" d="M 1588 -325 
Q 1188 -997 936 -1164 
Q 684 -1331 294 -1331 
L -159 -1331 
L -63 -850 
L 269 -850 
Q 509 -850 678 -719 
Q 847 -588 1056 -206 
L 1234 128 
L 459 3500 
L 1069 3500 
L 1650 819 
L 3256 3500 
L 3859 3500 
L 1588 -325 
z
" transform="scale(0.015625)"/>
       <path id="DejaVuSans-Oblique-69" d="M 1172 4863 
L 1747 4863 
L 1606 4134 
L 1031 4134 
L 1172 4863 
z
M 909 3500 
L 1484 3500 
L 800 0 
L 225 0 
L 909 3500 
z
" transform="scale(0.015625)"/>
       <path id="DejaVuSans-2c" d="M 750 794 
L 1409 794 
L 1409 256 
L 897 -744 
L 494 -744 
L 750 256 
L 750 794 
z
" transform="scale(0.015625)"/>
       <path id="DejaVuSans-Oblique-6b" d="M 1172 4863 
L 1747 4863 
L 1197 2028 
L 3169 3500 
L 3916 3500 
L 1716 1825 
L 3322 0 
L 2625 0 
L 1131 1709 
L 800 0 
L 225 0 
L 1172 4863 
z
" transform="scale(0.015625)"/>
      </defs>
      <use xlink:href="#DejaVuSans-Bold-45" transform="translate(0 0.015625)"/>
      <use xlink:href="#DejaVuSans-Bold-78" transform="translate(68.310547 0.015625)"/>
      <use xlink:href="#DejaVuSans-Bold-70" transform="translate(132.8125 0.015625)"/>
      <use xlink:href="#DejaVuSans-Bold-65" transform="translate(204.394531 0.015625)"/>
      <use xlink:href="#DejaVuSans-Bold-72" transform="translate(272.216797 0.015625)"/>
      <use xlink:href="#DejaVuSans-Bold-69" transform="translate(321.533203 0.015625)"/>
      <use xlink:href="#DejaVuSans-Bold-6d" transform="translate(355.810547 0.015625)"/>
      <use xlink:href="#DejaVuSans-Bold-65" transform="translate(460.009766 0.015625)"/>
      <use xlink:href="#DejaVuSans-Bold-6e" transform="translate(527.832031 0.015625)"/>
      <use xlink:href="#DejaVuSans-Bold-74" transform="translate(599.023438 0.015625)"/>
      <use xlink:href="#DejaVuSans-Bold-20" transform="translate(646.826172 0.015625)"/>
      <use xlink:href="#DejaVuSans-Oblique-79" transform="translate(681.640625 0.015625)"/>
      <use xlink:href="#DejaVuSans-Oblique-69" transform="translate(740.820312 -16.390625) scale(0.7)"/>
      <use xlink:href="#DejaVuSans-2c" transform="translate(760.268555 -16.390625) scale(0.7)"/>
      <use xlink:href="#DejaVuSans-Oblique-6b" transform="translate(796.157227 -16.390625) scale(0.7)"/>
     </g>
    </g>
   </g>
   <g id="matplotlib.axis_2">
    <g id="ytick_1">
     <g id="line2d_13">
      <path d="M 64.77274 274.97662 
L 356.99976 274.97662 
" clip-path="url(#p922728f7f2)" style="fill: none; stroke: #b0b0b0; stroke-width: 0.8; stroke-linecap: square"/>
     </g>
     <g id="line2d_14">
      <defs>
       <path id="mcbec5b1849" d="M 0 0 
L -3.5 0 
" style="stroke: #000000; stroke-width: 0.8"/>
      </defs>
      <g>
       <use xlink:href="#mcbec5b1849" x="64.77274" y="274.97662" style="stroke: #000000; stroke-width: 0.8"/>
      </g>
     </g>
     <g id="text_8">
      <!-- 0 -->
      <g transform="translate(51.41024 278.775838) scale(0.1 -0.1)">
       <use xlink:href="#DejaVuSans-30"/>
      </g>
     </g>
    </g>
    <g id="ytick_2">
     <g id="line2d_15">
      <path d="M 64.77274 225.484841 
L 356.99976 225.484841 
" clip-path="url(#p922728f7f2)" style="fill: none; stroke: #b0b0b0; stroke-width: 0.8; stroke-linecap: square"/>
     </g>
     <g id="line2d_16">
      <g>
       <use xlink:href="#mcbec5b1849" x="64.77274" y="225.484841" style="stroke: #000000; stroke-width: 0.8"/>
      </g>
     </g>
     <g id="text_9">
      <!-- 10000 -->
      <g transform="translate(25.96024 229.28406) scale(0.1 -0.1)">
       <use xlink:href="#DejaVuSans-31"/>
       <use xlink:href="#DejaVuSans-30" transform="translate(63.623047 0)"/>
       <use xlink:href="#DejaVuSans-30" transform="translate(127.246094 0)"/>
       <use xlink:href="#DejaVuSans-30" transform="translate(190.869141 0)"/>
       <use xlink:href="#DejaVuSans-30" transform="translate(254.492188 0)"/>
      </g>
     </g>
    </g>
    <g id="ytick_3">
     <g id="line2d_17">
      <path d="M 64.77274 175.993062 
L 356.99976 175.993062 
" clip-path="url(#p922728f7f2)" style="fill: none; stroke: #b0b0b0; stroke-width: 0.8; stroke-linecap: square"/>
     </g>
     <g id="line2d_18">
      <g>
       <use xlink:href="#mcbec5b1849" x="64.77274" y="175.993062" style="stroke: #000000; stroke-width: 0.8"/>
      </g>
     </g>
     <g id="text_10">
      <!-- 20000 -->
      <g transform="translate(25.96024 179.792281) scale(0.1 -0.1)">
       <defs>
        <path id="DejaVuSans-32" d="M 1228 531 
L 3431 531 
L 3431 0 
L 469 0 
L 469 531 
Q 828 903 1448 1529 
Q 2069 2156 2228 2338 
Q 2531 2678 2651 2914 
Q 2772 3150 2772 3378 
Q 2772 3750 2511 3984 
Q 2250 4219 1831 4219 
Q 1534 4219 1204 4116 
Q 875 4013 500 3803 
L 500 4441 
Q 881 4594 1212 4672 
Q 1544 4750 1819 4750 
Q 2544 4750 2975 4387 
Q 3406 4025 3406 3419 
Q 3406 3131 3298 2873 
Q 3191 2616 2906 2266 
Q 2828 2175 2409 1742 
Q 1991 1309 1228 531 
z
" transform="scale(0.015625)"/>
       </defs>
       <use xlink:href="#DejaVuSans-32"/>
       <use xlink:href="#DejaVuSans-30" transform="translate(63.623047 0)"/>
       <use xlink:href="#DejaVuSans-30" transform="translate(127.246094 0)"/>
       <use xlink:href="#DejaVuSans-30" transform="translate(190.869141 0)"/>
       <use xlink:href="#DejaVuSans-30" transform="translate(254.492188 0)"/>
      </g>
     </g>
    </g>
    <g id="ytick_4">
     <g id="line2d_19">
      <path d="M 64.77274 126.501284 
L 356.99976 126.501284 
" clip-path="url(#p922728f7f2)" style="fill: none; stroke: #b0b0b0; stroke-width: 0.8; stroke-linecap: square"/>
     </g>
     <g id="line2d_20">
      <g>
       <use xlink:href="#mcbec5b1849" x="64.77274" y="126.501284" style="stroke: #000000; stroke-width: 0.8"/>
      </g>
     </g>
     <g id="text_11">
      <!-- 30000 -->
      <g transform="translate(25.96024 130.300503) scale(0.1 -0.1)">
       <use xlink:href="#DejaVuSans-33"/>
       <use xlink:href="#DejaVuSans-30" transform="translate(63.623047 0)"/>
       <use xlink:href="#DejaVuSans-30" transform="translate(127.246094 0)"/>
       <use xlink:href="#DejaVuSans-30" transform="translate(190.869141 0)"/>
       <use xlink:href="#DejaVuSans-30" transform="translate(254.492188 0)"/>
      </g>
     </g>
    </g>
    <g id="ytick_5">
     <g id="line2d_21">
      <path d="M 64.77274 77.009505 
L 356.99976 77.009505 
" clip-path="url(#p922728f7f2)" style="fill: none; stroke: #b0b0b0; stroke-width: 0.8; stroke-linecap: square"/>
     </g>
     <g id="line2d_22">
      <g>
       <use xlink:href="#mcbec5b1849" x="64.77274" y="77.009505" style="stroke: #000000; stroke-width: 0.8"/>
      </g>
     </g>
     <g id="text_12">
      <!-- 40000 -->
      <g transform="translate(25.96024 80.808724) scale(0.1 -0.1)">
       <defs>
        <path id="DejaVuSans-34" d="M 2419 4116 
L 825 1625 
L 2419 1625 
L 2419 4116 
z
M 2253 4666 
L 3047 4666 
L 3047 1625 
L 3713 1625 
L 3713 1100 
L 3047 1100 
L 3047 0 
L 2419 0 
L 2419 1100 
L 313 1100 
L 313 1709 
L 2253 4666 
z
" transform="scale(0.015625)"/>
       </defs>
       <use xlink:href="#DejaVuSans-34"/>
       <use xlink:href="#DejaVuSans-30" transform="translate(63.623047 0)"/>
       <use xlink:href="#DejaVuSans-30" transform="translate(127.246094 0)"/>
       <use xlink:href="#DejaVuSans-30" transform="translate(190.869141 0)"/>
       <use xlink:href="#DejaVuSans-30" transform="translate(254.492188 0)"/>
      </g>
     </g>
    </g>
    <g id="ytick_6">
     <g id="line2d_23">
      <path d="M 64.77274 27.517727 
L 356.99976 27.517727 
" clip-path="url(#p922728f7f2)" style="fill: none; stroke: #b0b0b0; stroke-width: 0.8; stroke-linecap: square"/>
     </g>
     <g id="line2d_24">
      <g>
       <use xlink:href="#mcbec5b1849" x="64.77274" y="27.517727" style="stroke: #000000; stroke-width: 0.8"/>
      </g>
     </g>
     <g id="text_13">
      <!-- 50000 -->
      <g transform="translate(25.96024 31.316945) scale(0.1 -0.1)">
       <use xlink:href="#DejaVuSans-35"/>
       <use xlink:href="#DejaVuSans-30" transform="translate(63.623047 0)"/>
       <use xlink:href="#DejaVuSans-30" transform="translate(127.246094 0)"/>
       <use xlink:href="#DejaVuSans-30" transform="translate(190.869141 0)"/>
       <use xlink:href="#DejaVuSans-30" transform="translate(254.492188 0)"/>
      </g>
     </g>
    </g>
    <g id="text_14">
     <!-- Relative residual $\frac{f(x_{i,k})-y_{i,k}}{y_{i,k}}$ -->
     <g transform="translate(16.80024 246.760937) rotate(-90) scale(0.12 -0.12)">
      <defs>
       <path id="DejaVuSans-Bold-52" d="M 2297 2597 
Q 2675 2597 2839 2737 
Q 3003 2878 3003 3200 
Q 3003 3519 2839 3656 
Q 2675 3794 2297 3794 
L 1791 3794 
L 1791 2597 
L 2297 2597 
z
M 1791 1766 
L 1791 0 
L 588 0 
L 588 4666 
L 2425 4666 
Q 3347 4666 3776 4356 
Q 4206 4047 4206 3378 
Q 4206 2916 3982 2619 
Q 3759 2322 3309 2181 
Q 3556 2125 3751 1926 
Q 3947 1728 4147 1325 
L 4800 0 
L 3519 0 
L 2950 1159 
Q 2778 1509 2601 1637 
Q 2425 1766 2131 1766 
L 1791 1766 
z
" transform="scale(0.015625)"/>
       <path id="DejaVuSans-Bold-6c" d="M 538 4863 
L 1656 4863 
L 1656 0 
L 538 0 
L 538 4863 
z
" transform="scale(0.015625)"/>
       <path id="DejaVuSans-Bold-61" d="M 2106 1575 
Q 1756 1575 1579 1456 
Q 1403 1338 1403 1106 
Q 1403 894 1545 773 
Q 1688 653 1941 653 
Q 2256 653 2472 879 
Q 2688 1106 2688 1447 
L 2688 1575 
L 2106 1575 
z
M 3816 1997 
L 3816 0 
L 2688 0 
L 2688 519 
Q 2463 200 2181 54 
Q 1900 -91 1497 -91 
Q 953 -91 614 226 
Q 275 544 275 1050 
Q 275 1666 698 1953 
Q 1122 2241 2028 2241 
L 2688 2241 
L 2688 2328 
Q 2688 2594 2478 2717 
Q 2269 2841 1825 2841 
Q 1466 2841 1156 2769 
Q 847 2697 581 2553 
L 581 3406 
Q 941 3494 1303 3539 
Q 1666 3584 2028 3584 
Q 2975 3584 3395 3211 
Q 3816 2838 3816 1997 
z
" transform="scale(0.015625)"/>
       <path id="DejaVuSans-Bold-76" d="M 97 3500 
L 1216 3500 
L 2088 1081 
L 2956 3500 
L 4078 3500 
L 2700 0 
L 1472 0 
L 97 3500 
z
" transform="scale(0.015625)"/>
       <path id="DejaVuSans-Bold-73" d="M 3272 3391 
L 3272 2541 
Q 2913 2691 2578 2766 
Q 2244 2841 1947 2841 
Q 1628 2841 1473 2761 
Q 1319 2681 1319 2516 
Q 1319 2381 1436 2309 
Q 1553 2238 1856 2203 
L 2053 2175 
Q 2913 2066 3209 1816 
Q 3506 1566 3506 1031 
Q 3506 472 3093 190 
Q 2681 -91 1863 -91 
Q 1516 -91 1145 -36 
Q 775 19 384 128 
L 384 978 
Q 719 816 1070 734 
Q 1422 653 1784 653 
Q 2113 653 2278 743 
Q 2444 834 2444 1013 
Q 2444 1163 2330 1236 
Q 2216 1309 1875 1350 
L 1678 1375 
Q 931 1469 631 1722 
Q 331 1975 331 2491 
Q 331 3047 712 3315 
Q 1094 3584 1881 3584 
Q 2191 3584 2531 3537 
Q 2872 3491 3272 3391 
z
" transform="scale(0.015625)"/>
       <path id="DejaVuSans-Bold-64" d="M 2919 2988 
L 2919 4863 
L 4044 4863 
L 4044 0 
L 2919 0 
L 2919 506 
Q 2688 197 2409 53 
Q 2131 -91 1766 -91 
Q 1119 -91 703 423 
Q 288 938 288 1747 
Q 288 2556 703 3070 
Q 1119 3584 1766 3584 
Q 2128 3584 2408 3439 
Q 2688 3294 2919 2988 
z
M 2181 722 
Q 2541 722 2730 984 
Q 2919 1247 2919 1747 
Q 2919 2247 2730 2509 
Q 2541 2772 2181 2772 
Q 1825 2772 1636 2509 
Q 1447 2247 1447 1747 
Q 1447 1247 1636 984 
Q 1825 722 2181 722 
z
" transform="scale(0.015625)"/>
       <path id="DejaVuSans-Bold-75" d="M 500 1363 
L 500 3500 
L 1625 3500 
L 1625 3150 
Q 1625 2866 1622 2436 
Q 1619 2006 1619 1863 
Q 1619 1441 1641 1255 
Q 1663 1069 1716 984 
Q 1784 875 1895 815 
Q 2006 756 2150 756 
Q 2500 756 2700 1025 
Q 2900 1294 2900 1772 
L 2900 3500 
L 4019 3500 
L 4019 0 
L 2900 0 
L 2900 506 
Q 2647 200 2364 54 
Q 2081 -91 1741 -91 
Q 1134 -91 817 281 
Q 500 653 500 1363 
z
" transform="scale(0.015625)"/>
       <path id="DejaVuSans-Oblique-66" d="M 3059 4863 
L 2969 4384 
L 2419 4384 
Q 2106 4384 1964 4261 
Q 1822 4138 1753 3809 
L 1691 3500 
L 2638 3500 
L 2553 3053 
L 1606 3053 
L 1013 0 
L 434 0 
L 1031 3053 
L 481 3053 
L 563 3500 
L 1113 3500 
L 1159 3744 
Q 1278 4363 1576 4613 
Q 1875 4863 2516 4863 
L 3059 4863 
z
" transform="scale(0.015625)"/>
       <path id="DejaVuSans-28" d="M 1984 4856 
Q 1566 4138 1362 3434 
Q 1159 2731 1159 2009 
Q 1159 1288 1364 580 
Q 1569 -128 1984 -844 
L 1484 -844 
Q 1016 -109 783 600 
Q 550 1309 550 2009 
Q 550 2706 781 3412 
Q 1013 4119 1484 4856 
L 1984 4856 
z
" transform="scale(0.015625)"/>
       <path id="DejaVuSans-Oblique-78" d="M 3841 3500 
L 2234 1784 
L 3219 0 
L 2559 0 
L 1819 1388 
L 531 0 
L -166 0 
L 1556 1844 
L 641 3500 
L 1300 3500 
L 1972 2234 
L 3144 3500 
L 3841 3500 
z
" transform="scale(0.015625)"/>
       <path id="DejaVuSans-29" d="M 513 4856 
L 1013 4856 
Q 1481 4119 1714 3412 
Q 1947 2706 1947 2009 
Q 1947 1309 1714 600 
Q 1481 -109 1013 -844 
L 513 -844 
Q 928 -128 1133 580 
Q 1338 1288 1338 2009 
Q 1338 2731 1133 3434 
Q 928 4138 513 4856 
z
" transform="scale(0.015625)"/>
      </defs>
      <use xlink:href="#DejaVuSans-Bold-52" transform="translate(0 0.833438)"/>
      <use xlink:href="#DejaVuSans-Bold-65" transform="translate(77.001953 0.833438)"/>
      <use xlink:href="#DejaVuSans-Bold-6c" transform="translate(144.824219 0.833438)"/>
      <use xlink:href="#DejaVuSans-Bold-61" transform="translate(179.101562 0.833438)"/>
      <use xlink:href="#DejaVuSans-Bold-74" transform="translate(246.582031 0.833438)"/>
      <use xlink:href="#DejaVuSans-Bold-69" transform="translate(294.384766 0.833438)"/>
      <use xlink:href="#DejaVuSans-Bold-76" transform="translate(328.662109 0.833438)"/>
      <use xlink:href="#DejaVuSans-Bold-65" transform="translate(393.847656 0.833438)"/>
      <use xlink:href="#DejaVuSans-Bold-20" transform="translate(461.669922 0.833438)"/>
      <use xlink:href="#DejaVuSans-Bold-72" transform="translate(496.484375 0.833438)"/>
      <use xlink:href="#DejaVuSans-Bold-65" transform="translate(545.800781 0.833438)"/>
      <use xlink:href="#DejaVuSans-Bold-73" transform="translate(613.623047 0.833438)"/>
      <use xlink:href="#DejaVuSans-Bold-69" transform="translate(673.144531 0.833438)"/>
      <use xlink:href="#DejaVuSans-Bold-64" transform="translate(707.421875 0.833438)"/>
      <use xlink:href="#DejaVuSans-Bold-75" transform="translate(779.003906 0.833438)"/>
      <use xlink:href="#DejaVuSans-Bold-61" transform="translate(850.195312 0.833438)"/>
      <use xlink:href="#DejaVuSans-Bold-6c" transform="translate(917.675781 0.833438)"/>
      <use xlink:href="#DejaVuSans-Bold-20" transform="translate(951.953125 0.833438)"/>
      <use xlink:href="#DejaVuSans-Oblique-66" transform="translate(986.767578 61.810938) scale(0.7)"/>
      <use xlink:href="#DejaVuSans-28" transform="translate(1011.411133 61.810938) scale(0.7)"/>
      <use xlink:href="#DejaVuSans-Oblique-78" transform="translate(1038.720703 61.810938) scale(0.7)"/>
      <use xlink:href="#DejaVuSans-Oblique-69" transform="translate(1080.146484 50.326562) scale(0.49)"/>
      <use xlink:href="#DejaVuSans-2c" transform="translate(1093.760254 50.326562) scale(0.49)"/>
      <use xlink:href="#DejaVuSans-Oblique-6b" transform="translate(1118.882324 50.326562) scale(0.49)"/>
      <use xlink:href="#DejaVuSans-29" transform="translate(1149.172363 61.810938) scale(0.7)"/>
      <use xlink:href="#DejaVuSans-2212" transform="translate(1190.119629 61.810938) scale(0.7)"/>
      <use xlink:href="#DejaVuSans-Oblique-79" transform="translate(1262.409668 61.810938) scale(0.7)"/>
      <use xlink:href="#DejaVuSans-Oblique-69" transform="translate(1303.835449 50.326562) scale(0.49)"/>
      <use xlink:href="#DejaVuSans-2c" transform="translate(1317.449219 50.326562) scale(0.49)"/>
      <use xlink:href="#DejaVuSans-Oblique-6b" transform="translate(1342.571289 50.326562) scale(0.49)"/>
      <use xlink:href="#DejaVuSans-Oblique-79" transform="translate(1124.767578 -24.900937) scale(0.7)"/>
      <use xlink:href="#DejaVuSans-Oblique-69" transform="translate(1166.193359 -36.385312) scale(0.49)"/>
      <use xlink:href="#DejaVuSans-2c" transform="translate(1179.807129 -36.385312) scale(0.49)"/>
      <use xlink:href="#DejaVuSans-Oblique-6b" transform="translate(1204.929199 -36.385312) scale(0.49)"/>
      <path d="M 986.767578 19.630313 
L 986.767578 25.880313 
L 1372.861328 25.880313 
L 1372.861328 19.630313 
L 986.767578 19.630313 
z
"/>
     </g>
    </g>
   </g>
   <g id="line2d_25">
    <defs>
     <path id="m007e339f7c" d="M 0 5 
C 1.326016 5 2.597899 4.473168 3.535534 3.535534 
C 4.473168 2.597899 5 1.326016 5 0 
C 5 -1.326016 4.473168 -2.597899 3.535534 -3.535534 
C 2.597899 -4.473168 1.326016 -5 0 -5 
C -1.326016 -5 -2.597899 -4.473168 -3.535534 -3.535534 
C -4.473168 -2.597899 -5 -1.326016 -5 0 
C -5 1.326016 -4.473168 2.597899 -3.535534 3.535534 
C -2.597899 4.473168 -1.326016 5 0 5 
z
" style="stroke: #000000; stroke-opacity: 0.7"/>
    </defs>
    <g clip-path="url(#p922728f7f2)">
     <use xlink:href="#m007e339f7c" x="120.079934" y="200.690769" style="fill: #1f77b4; fill-opacity: 0.7; stroke: #000000; stroke-opacity: 0.7"/>
     <use xlink:href="#m007e339f7c" x="130.903753" y="249.181309" style="fill: #1f77b4; fill-opacity: 0.7; stroke: #000000; stroke-opacity: 0.7"/>
     <use xlink:href="#m007e339f7c" x="134.673386" y="259.886944" style="fill: #1f77b4; fill-opacity: 0.7; stroke: #000000; stroke-opacity: 0.7"/>
     <use xlink:href="#m007e339f7c" x="136.780188" y="266.210807" style="fill: #1f77b4; fill-opacity: 0.7; stroke: #000000; stroke-opacity: 0.7"/>
     <use xlink:href="#m007e339f7c" x="138.290973" y="271.263043" style="fill: #1f77b4; fill-opacity: 0.7; stroke: #000000; stroke-opacity: 0.7"/>
     <use xlink:href="#m007e339f7c" x="139.393713" y="275.226811" style="fill: #1f77b4; fill-opacity: 0.7; stroke: #000000; stroke-opacity: 0.7"/>
     <use xlink:href="#m007e339f7c" x="140.854853" y="280.899972" style="fill: #1f77b4; fill-opacity: 0.7; stroke: #000000; stroke-opacity: 0.7"/>
     <use xlink:href="#m007e339f7c" x="138.52781" y="279.662875" style="fill: #1f77b4; fill-opacity: 0.7; stroke: #000000; stroke-opacity: 0.7"/>
     <use xlink:href="#m007e339f7c" x="134.456299" y="276.454259" style="fill: #1f77b4; fill-opacity: 0.7; stroke: #000000; stroke-opacity: 0.7"/>
     <use xlink:href="#m007e339f7c" x="130.378433" y="272.703178" style="fill: #1f77b4; fill-opacity: 0.7; stroke: #000000; stroke-opacity: 0.7"/>
     <use xlink:href="#m007e339f7c" x="120.522537" y="275.948479" style="fill: #1f77b4; fill-opacity: 0.7; stroke: #000000; stroke-opacity: 0.7"/>
     <use xlink:href="#m007e339f7c" x="101.558195" y="281.956176" style="fill: #1f77b4; fill-opacity: 0.7; stroke: #000000; stroke-opacity: 0.7"/>
     <use xlink:href="#m007e339f7c" x="89.834955" y="279.254692" style="fill: #1f77b4; fill-opacity: 0.7; stroke: #000000; stroke-opacity: 0.7"/>
    </g>
   </g>
   <g id="line2d_26">
    <defs>
     <path id="m93c1e7fecb" d="M 0 5 
C 1.326016 5 2.597899 4.473168 3.535534 3.535534 
C 4.473168 2.597899 5 1.326016 5 0 
C 5 -1.326016 4.473168 -2.597899 3.535534 -3.535534 
C 2.597899 -4.473168 1.326016 -5 0 -5 
C -1.326016 -5 -2.597899 -4.473168 -3.535534 -3.535534 
C -4.473168 -2.597899 -5 -1.326016 -5 0 
C -5 1.326016 -4.473168 2.597899 -3.535534 3.535534 
C -2.597899 4.473168 -1.326016 5 0 5 
z
" style="stroke: #000000; stroke-opacity: 0.7"/>
    </defs>
    <g clip-path="url(#p922728f7f2)">
     <use xlink:href="#m93c1e7fecb" x="127.243561" y="273.02907" style="fill: #ff7f0e; fill-opacity: 0.7; stroke: #000000; stroke-opacity: 0.7"/>
     <use xlink:href="#m93c1e7fecb" x="126.765477" y="241.091567" style="fill: #ff7f0e; fill-opacity: 0.7; stroke: #000000; stroke-opacity: 0.7"/>
     <use xlink:href="#m93c1e7fecb" x="130.849994" y="253.667686" style="fill: #ff7f0e; fill-opacity: 0.7; stroke: #000000; stroke-opacity: 0.7"/>
     <use xlink:href="#m93c1e7fecb" x="137.004171" y="276.405287" style="fill: #ff7f0e; fill-opacity: 0.7; stroke: #000000; stroke-opacity: 0.7"/>
     <use xlink:href="#m93c1e7fecb" x="139.098407" y="283.821493" style="fill: #ff7f0e; fill-opacity: 0.7; stroke: #000000; stroke-opacity: 0.7"/>
     <use xlink:href="#m93c1e7fecb" x="138.325571" y="283.839149" style="fill: #ff7f0e; fill-opacity: 0.7; stroke: #000000; stroke-opacity: 0.7"/>
     <use xlink:href="#m93c1e7fecb" x="136.391864" y="280.976619" style="fill: #ff7f0e; fill-opacity: 0.7; stroke: #000000; stroke-opacity: 0.7"/>
     <use xlink:href="#m93c1e7fecb" x="134.487961" y="278.041252" style="fill: #ff7f0e; fill-opacity: 0.7; stroke: #000000; stroke-opacity: 0.7"/>
     <use xlink:href="#m93c1e7fecb" x="131.783145" y="275.391554" style="fill: #ff7f0e; fill-opacity: 0.7; stroke: #000000; stroke-opacity: 0.7"/>
     <use xlink:href="#m93c1e7fecb" x="126.978066" y="273.742506" style="fill: #ff7f0e; fill-opacity: 0.7; stroke: #000000; stroke-opacity: 0.7"/>
     <use xlink:href="#m93c1e7fecb" x="126.487014" y="240.57329" style="fill: #ff7f0e; fill-opacity: 0.7; stroke: #000000; stroke-opacity: 0.7"/>
     <use xlink:href="#m93c1e7fecb" x="128.631158" y="240.816113" style="fill: #ff7f0e; fill-opacity: 0.7; stroke: #000000; stroke-opacity: 0.7"/>
     <use xlink:href="#m93c1e7fecb" x="132.91457" y="259.964498" style="fill: #ff7f0e; fill-opacity: 0.7; stroke: #000000; stroke-opacity: 0.7"/>
     <use xlink:href="#m93c1e7fecb" x="135.836085" y="273.924815" style="fill: #ff7f0e; fill-opacity: 0.7; stroke: #000000; stroke-opacity: 0.7"/>
     <use xlink:href="#m93c1e7fecb" x="136.619674" y="279.161621" style="fill: #ff7f0e; fill-opacity: 0.7; stroke: #000000; stroke-opacity: 0.7"/>
     <use xlink:href="#m93c1e7fecb" x="136.135314" y="280.457992" style="fill: #ff7f0e; fill-opacity: 0.7; stroke: #000000; stroke-opacity: 0.7"/>
     <use xlink:href="#m93c1e7fecb" x="135.038776" y="280.017679" style="fill: #ff7f0e; fill-opacity: 0.7; stroke: #000000; stroke-opacity: 0.7"/>
     <use xlink:href="#m93c1e7fecb" x="132.838263" y="279.138474" style="fill: #ff7f0e; fill-opacity: 0.7; stroke: #000000; stroke-opacity: 0.7"/>
     <use xlink:href="#m93c1e7fecb" x="129.76756" y="281.182517" style="fill: #ff7f0e; fill-opacity: 0.7; stroke: #000000; stroke-opacity: 0.7"/>
     <use xlink:href="#m93c1e7fecb" x="120.020137" y="265.673732" style="fill: #ff7f0e; fill-opacity: 0.7; stroke: #000000; stroke-opacity: 0.7"/>
     <use xlink:href="#m93c1e7fecb" x="114.956863" y="266.821596" style="fill: #ff7f0e; fill-opacity: 0.7; stroke: #000000; stroke-opacity: 0.7"/>
     <use xlink:href="#m93c1e7fecb" x="106.545091" y="250.958801" style="fill: #ff7f0e; fill-opacity: 0.7; stroke: #000000; stroke-opacity: 0.7"/>
     <use xlink:href="#m93c1e7fecb" x="104.540671" y="267.063826" style="fill: #ff7f0e; fill-opacity: 0.7; stroke: #000000; stroke-opacity: 0.7"/>
     <use xlink:href="#m93c1e7fecb" x="91.081893" y="251.777884" style="fill: #ff7f0e; fill-opacity: 0.7; stroke: #000000; stroke-opacity: 0.7"/>
    </g>
   </g>
   <g id="line2d_27">
    <defs>
     <path id="m4ae594e107" d="M 0 5 
C 1.326016 5 2.597899 4.473168 3.535534 3.535534 
C 4.473168 2.597899 5 1.326016 5 0 
C 5 -1.326016 4.473168 -2.597899 3.535534 -3.535534 
C 2.597899 -4.473168 1.326016 -5 0 -5 
C -1.326016 -5 -2.597899 -4.473168 -3.535534 -3.535534 
C -4.473168 -2.597899 -5 -1.326016 -5 0 
C -5 1.326016 -4.473168 2.597899 -3.535534 3.535534 
C -2.597899 4.473168 -1.326016 5 0 5 
z
" style="stroke: #000000; stroke-opacity: 0.7"/>
    </defs>
    <g clip-path="url(#p922728f7f2)">
     <use xlink:href="#m4ae594e107" x="109.984563" y="17.600303" style="fill: #2ca02c; fill-opacity: 0.7; stroke: #000000; stroke-opacity: 0.7"/>
     <use xlink:href="#m4ae594e107" x="126.09058" y="236.39892" style="fill: #2ca02c; fill-opacity: 0.7; stroke: #000000; stroke-opacity: 0.7"/>
     <use xlink:href="#m4ae594e107" x="132.052764" y="272.265369" style="fill: #2ca02c; fill-opacity: 0.7; stroke: #000000; stroke-opacity: 0.7"/>
     <use xlink:href="#m4ae594e107" x="134.326729" y="282.612595" style="fill: #2ca02c; fill-opacity: 0.7; stroke: #000000; stroke-opacity: 0.7"/>
     <use xlink:href="#m4ae594e107" x="135.375674" y="288.446922" style="fill: #2ca02c; fill-opacity: 0.7; stroke: #000000; stroke-opacity: 0.7"/>
     <use xlink:href="#m4ae594e107" x="134.103587" y="285.200892" style="fill: #2ca02c; fill-opacity: 0.7; stroke: #000000; stroke-opacity: 0.7"/>
     <use xlink:href="#m4ae594e107" x="130.657459" y="275.023804" style="fill: #2ca02c; fill-opacity: 0.7; stroke: #000000; stroke-opacity: 0.7"/>
     <use xlink:href="#m4ae594e107" x="126.09058" y="262.051306" style="fill: #2ca02c; fill-opacity: 0.7; stroke: #000000; stroke-opacity: 0.7"/>
     <use xlink:href="#m4ae594e107" x="120.790396" y="240.038307" style="fill: #2ca02c; fill-opacity: 0.7; stroke: #000000; stroke-opacity: 0.7"/>
     <use xlink:href="#m4ae594e107" x="110.933278" y="249.945351" style="fill: #2ca02c; fill-opacity: 0.7; stroke: #000000; stroke-opacity: 0.7"/>
     <use xlink:href="#m4ae594e107" x="96.028815" y="294.766627" style="fill: #2ca02c; fill-opacity: 0.7; stroke: #000000; stroke-opacity: 0.7"/>
     <use xlink:href="#m4ae594e107" x="84.192918" y="291.352613" style="fill: #2ca02c; fill-opacity: 0.7; stroke: #000000; stroke-opacity: 0.7"/>
     <use xlink:href="#m4ae594e107" x="78.055786" y="309.601572" style="fill: #2ca02c; fill-opacity: 0.7; stroke: #000000; stroke-opacity: 0.7"/>
    </g>
   </g>
   <g id="line2d_28">
    <path d="M -1 274.97662 
L 343.716714 274.97662 
" clip-path="url(#p922728f7f2)" style="fill: none; stroke-dasharray: 5.55,2.4; stroke-dashoffset: 0; stroke: #000000; stroke-width: 1.5"/>
   </g>
   <g id="patch_3">
    <path d="M 64.77274 324.201635 
L 64.77274 3.00024 
" style="fill: none; stroke: #000000; stroke-width: 0.8; stroke-linejoin: miter; stroke-linecap: square"/>
   </g>
   <g id="patch_4">
    <path d="M 356.99976 324.201635 
L 356.99976 3.00024 
" style="fill: none; stroke: #000000; stroke-width: 0.8; stroke-linejoin: miter; stroke-linecap: square"/>
   </g>
   <g id="patch_5">
    <path d="M 64.77274 324.201635 
L 356.99976 324.201635 
" style="fill: none; stroke: #000000; stroke-width: 0.8; stroke-linejoin: miter; stroke-linecap: square"/>
   </g>
   <g id="patch_6">
    <path d="M 64.77274 3.00024 
L 356.99976 3.00024 
" style="fill: none; stroke: #000000; stroke-width: 0.8; stroke-linejoin: miter; stroke-linecap: square"/>
   </g>
   <g id="text_15">
    <!-- Frost2013 -->
    <g style="opacity: 0.7" transform="translate(120.079934 200.690769) scale(0.0694 -0.0694)">
     <defs>
      <path id="DejaVuSans-46" d="M 628 4666 
L 3309 4666 
L 3309 4134 
L 1259 4134 
L 1259 2759 
L 3109 2759 
L 3109 2228 
L 1259 2228 
L 1259 0 
L 628 0 
L 628 4666 
z
" transform="scale(0.015625)"/>
      <path id="DejaVuSans-72" d="M 2631 2963 
Q 2534 3019 2420 3045 
Q 2306 3072 2169 3072 
Q 1681 3072 1420 2755 
Q 1159 2438 1159 1844 
L 1159 0 
L 581 0 
L 581 3500 
L 1159 3500 
L 1159 2956 
Q 1341 3275 1631 3429 
Q 1922 3584 2338 3584 
Q 2397 3584 2469 3576 
Q 2541 3569 2628 3553 
L 2631 2963 
z
" transform="scale(0.015625)"/>
      <path id="DejaVuSans-6f" d="M 1959 3097 
Q 1497 3097 1228 2736 
Q 959 2375 959 1747 
Q 959 1119 1226 758 
Q 1494 397 1959 397 
Q 2419 397 2687 759 
Q 2956 1122 2956 1747 
Q 2956 2369 2687 2733 
Q 2419 3097 1959 3097 
z
M 1959 3584 
Q 2709 3584 3137 3096 
Q 3566 2609 3566 1747 
Q 3566 888 3137 398 
Q 2709 -91 1959 -91 
Q 1206 -91 779 398 
Q 353 888 353 1747 
Q 353 2609 779 3096 
Q 1206 3584 1959 3584 
z
" transform="scale(0.015625)"/>
      <path id="DejaVuSans-73" d="M 2834 3397 
L 2834 2853 
Q 2591 2978 2328 3040 
Q 2066 3103 1784 3103 
Q 1356 3103 1142 2972 
Q 928 2841 928 2578 
Q 928 2378 1081 2264 
Q 1234 2150 1697 2047 
L 1894 2003 
Q 2506 1872 2764 1633 
Q 3022 1394 3022 966 
Q 3022 478 2636 193 
Q 2250 -91 1575 -91 
Q 1294 -91 989 -36 
Q 684 19 347 128 
L 347 722 
Q 666 556 975 473 
Q 1284 391 1588 391 
Q 1994 391 2212 530 
Q 2431 669 2431 922 
Q 2431 1156 2273 1281 
Q 2116 1406 1581 1522 
L 1381 1569 
Q 847 1681 609 1914 
Q 372 2147 372 2553 
Q 372 3047 722 3315 
Q 1072 3584 1716 3584 
Q 2034 3584 2315 3537 
Q 2597 3491 2834 3397 
z
" transform="scale(0.015625)"/>
      <path id="DejaVuSans-74" d="M 1172 4494 
L 1172 3500 
L 2356 3500 
L 2356 3053 
L 1172 3053 
L 1172 1153 
Q 1172 725 1289 603 
Q 1406 481 1766 481 
L 2356 481 
L 2356 0 
L 1766 0 
Q 1100 0 847 248 
Q 594 497 594 1153 
L 594 3053 
L 172 3053 
L 172 3500 
L 594 3500 
L 594 4494 
L 1172 4494 
z
" transform="scale(0.015625)"/>
     </defs>
     <use xlink:href="#DejaVuSans-46"/>
     <use xlink:href="#DejaVuSans-72" transform="translate(50.269531 0)"/>
     <use xlink:href="#DejaVuSans-6f" transform="translate(89.132812 0)"/>
     <use xlink:href="#DejaVuSans-73" transform="translate(150.314453 0)"/>
     <use xlink:href="#DejaVuSans-74" transform="translate(202.414062 0)"/>
     <use xlink:href="#DejaVuSans-32" transform="translate(241.623047 0)"/>
     <use xlink:href="#DejaVuSans-30" transform="translate(305.246094 0)"/>
     <use xlink:href="#DejaVuSans-31" transform="translate(368.869141 0)"/>
     <use xlink:href="#DejaVuSans-33" transform="translate(432.492188 0)"/>
    </g>
   </g>
   <g id="text_16">
    <!-- Frost2013 -->
    <g style="opacity: 0.7" transform="translate(130.903753 249.181309) scale(0.0694 -0.0694)">
     <use xlink:href="#DejaVuSans-46"/>
     <use xlink:href="#DejaVuSans-72" transform="translate(50.269531 0)"/>
     <use xlink:href="#DejaVuSans-6f" transform="translate(89.132812 0)"/>
     <use xlink:href="#DejaVuSans-73" transform="translate(150.314453 0)"/>
     <use xlink:href="#DejaVuSans-74" transform="translate(202.414062 0)"/>
     <use xlink:href="#DejaVuSans-32" transform="translate(241.623047 0)"/>
     <use xlink:href="#DejaVuSans-30" transform="translate(305.246094 0)"/>
     <use xlink:href="#DejaVuSans-31" transform="translate(368.869141 0)"/>
     <use xlink:href="#DejaVuSans-33" transform="translate(432.492188 0)"/>
    </g>
   </g>
   <g id="text_17">
    <!-- Frost2013 -->
    <g style="opacity: 0.7" transform="translate(134.673386 259.886944) scale(0.0694 -0.0694)">
     <use xlink:href="#DejaVuSans-46"/>
     <use xlink:href="#DejaVuSans-72" transform="translate(50.269531 0)"/>
     <use xlink:href="#DejaVuSans-6f" transform="translate(89.132812 0)"/>
     <use xlink:href="#DejaVuSans-73" transform="translate(150.314453 0)"/>
     <use xlink:href="#DejaVuSans-74" transform="translate(202.414062 0)"/>
     <use xlink:href="#DejaVuSans-32" transform="translate(241.623047 0)"/>
     <use xlink:href="#DejaVuSans-30" transform="translate(305.246094 0)"/>
     <use xlink:href="#DejaVuSans-31" transform="translate(368.869141 0)"/>
     <use xlink:href="#DejaVuSans-33" transform="translate(432.492188 0)"/>
    </g>
   </g>
   <g id="text_18">
    <!-- Frost2013 -->
    <g style="opacity: 0.7" transform="translate(136.780188 266.210807) scale(0.0694 -0.0694)">
     <use xlink:href="#DejaVuSans-46"/>
     <use xlink:href="#DejaVuSans-72" transform="translate(50.269531 0)"/>
     <use xlink:href="#DejaVuSans-6f" transform="translate(89.132812 0)"/>
     <use xlink:href="#DejaVuSans-73" transform="translate(150.314453 0)"/>
     <use xlink:href="#DejaVuSans-74" transform="translate(202.414062 0)"/>
     <use xlink:href="#DejaVuSans-32" transform="translate(241.623047 0)"/>
     <use xlink:href="#DejaVuSans-30" transform="translate(305.246094 0)"/>
     <use xlink:href="#DejaVuSans-31" transform="translate(368.869141 0)"/>
     <use xlink:href="#DejaVuSans-33" transform="translate(432.492188 0)"/>
    </g>
   </g>
   <g id="text_19">
    <!-- Frost2013 -->
    <g style="opacity: 0.7" transform="translate(138.290973 271.263043) scale(0.0694 -0.0694)">
     <use xlink:href="#DejaVuSans-46"/>
     <use xlink:href="#DejaVuSans-72" transform="translate(50.269531 0)"/>
     <use xlink:href="#DejaVuSans-6f" transform="translate(89.132812 0)"/>
     <use xlink:href="#DejaVuSans-73" transform="translate(150.314453 0)"/>
     <use xlink:href="#DejaVuSans-74" transform="translate(202.414062 0)"/>
     <use xlink:href="#DejaVuSans-32" transform="translate(241.623047 0)"/>
     <use xlink:href="#DejaVuSans-30" transform="translate(305.246094 0)"/>
     <use xlink:href="#DejaVuSans-31" transform="translate(368.869141 0)"/>
     <use xlink:href="#DejaVuSans-33" transform="translate(432.492188 0)"/>
    </g>
   </g>
   <g id="text_20">
    <!-- Frost2013 -->
    <g style="opacity: 0.7" transform="translate(139.393713 275.226811) scale(0.0694 -0.0694)">
     <use xlink:href="#DejaVuSans-46"/>
     <use xlink:href="#DejaVuSans-72" transform="translate(50.269531 0)"/>
     <use xlink:href="#DejaVuSans-6f" transform="translate(89.132812 0)"/>
     <use xlink:href="#DejaVuSans-73" transform="translate(150.314453 0)"/>
     <use xlink:href="#DejaVuSans-74" transform="translate(202.414062 0)"/>
     <use xlink:href="#DejaVuSans-32" transform="translate(241.623047 0)"/>
     <use xlink:href="#DejaVuSans-30" transform="translate(305.246094 0)"/>
     <use xlink:href="#DejaVuSans-31" transform="translate(368.869141 0)"/>
     <use xlink:href="#DejaVuSans-33" transform="translate(432.492188 0)"/>
    </g>
   </g>
   <g id="text_21">
    <!-- Frost2013 -->
    <g style="opacity: 0.7" transform="translate(140.854853 280.899972) scale(0.0694 -0.0694)">
     <use xlink:href="#DejaVuSans-46"/>
     <use xlink:href="#DejaVuSans-72" transform="translate(50.269531 0)"/>
     <use xlink:href="#DejaVuSans-6f" transform="translate(89.132812 0)"/>
     <use xlink:href="#DejaVuSans-73" transform="translate(150.314453 0)"/>
     <use xlink:href="#DejaVuSans-74" transform="translate(202.414062 0)"/>
     <use xlink:href="#DejaVuSans-32" transform="translate(241.623047 0)"/>
     <use xlink:href="#DejaVuSans-30" transform="translate(305.246094 0)"/>
     <use xlink:href="#DejaVuSans-31" transform="translate(368.869141 0)"/>
     <use xlink:href="#DejaVuSans-33" transform="translate(432.492188 0)"/>
    </g>
   </g>
   <g id="text_22">
    <!-- Frost2013 -->
    <g style="opacity: 0.7" transform="translate(138.52781 279.662875) scale(0.0694 -0.0694)">
     <use xlink:href="#DejaVuSans-46"/>
     <use xlink:href="#DejaVuSans-72" transform="translate(50.269531 0)"/>
     <use xlink:href="#DejaVuSans-6f" transform="translate(89.132812 0)"/>
     <use xlink:href="#DejaVuSans-73" transform="translate(150.314453 0)"/>
     <use xlink:href="#DejaVuSans-74" transform="translate(202.414062 0)"/>
     <use xlink:href="#DejaVuSans-32" transform="translate(241.623047 0)"/>
     <use xlink:href="#DejaVuSans-30" transform="translate(305.246094 0)"/>
     <use xlink:href="#DejaVuSans-31" transform="translate(368.869141 0)"/>
     <use xlink:href="#DejaVuSans-33" transform="translate(432.492188 0)"/>
    </g>
   </g>
   <g id="text_23">
    <!-- Frost2013 -->
    <g style="opacity: 0.7" transform="translate(134.456299 276.454259) scale(0.0694 -0.0694)">
     <use xlink:href="#DejaVuSans-46"/>
     <use xlink:href="#DejaVuSans-72" transform="translate(50.269531 0)"/>
     <use xlink:href="#DejaVuSans-6f" transform="translate(89.132812 0)"/>
     <use xlink:href="#DejaVuSans-73" transform="translate(150.314453 0)"/>
     <use xlink:href="#DejaVuSans-74" transform="translate(202.414062 0)"/>
     <use xlink:href="#DejaVuSans-32" transform="translate(241.623047 0)"/>
     <use xlink:href="#DejaVuSans-30" transform="translate(305.246094 0)"/>
     <use xlink:href="#DejaVuSans-31" transform="translate(368.869141 0)"/>
     <use xlink:href="#DejaVuSans-33" transform="translate(432.492188 0)"/>
    </g>
   </g>
   <g id="text_24">
    <!-- Frost2013 -->
    <g style="opacity: 0.7" transform="translate(130.378433 272.703178) scale(0.0694 -0.0694)">
     <use xlink:href="#DejaVuSans-46"/>
     <use xlink:href="#DejaVuSans-72" transform="translate(50.269531 0)"/>
     <use xlink:href="#DejaVuSans-6f" transform="translate(89.132812 0)"/>
     <use xlink:href="#DejaVuSans-73" transform="translate(150.314453 0)"/>
     <use xlink:href="#DejaVuSans-74" transform="translate(202.414062 0)"/>
     <use xlink:href="#DejaVuSans-32" transform="translate(241.623047 0)"/>
     <use xlink:href="#DejaVuSans-30" transform="translate(305.246094 0)"/>
     <use xlink:href="#DejaVuSans-31" transform="translate(368.869141 0)"/>
     <use xlink:href="#DejaVuSans-33" transform="translate(432.492188 0)"/>
    </g>
   </g>
   <g id="text_25">
    <!-- Frost2013 -->
    <g style="opacity: 0.7" transform="translate(120.522537 275.948479) scale(0.0694 -0.0694)">
     <use xlink:href="#DejaVuSans-46"/>
     <use xlink:href="#DejaVuSans-72" transform="translate(50.269531 0)"/>
     <use xlink:href="#DejaVuSans-6f" transform="translate(89.132812 0)"/>
     <use xlink:href="#DejaVuSans-73" transform="translate(150.314453 0)"/>
     <use xlink:href="#DejaVuSans-74" transform="translate(202.414062 0)"/>
     <use xlink:href="#DejaVuSans-32" transform="translate(241.623047 0)"/>
     <use xlink:href="#DejaVuSans-30" transform="translate(305.246094 0)"/>
     <use xlink:href="#DejaVuSans-31" transform="translate(368.869141 0)"/>
     <use xlink:href="#DejaVuSans-33" transform="translate(432.492188 0)"/>
    </g>
   </g>
   <g id="text_26">
    <!-- Frost2013 -->
    <g style="opacity: 0.7" transform="translate(101.558195 281.956176) scale(0.0694 -0.0694)">
     <use xlink:href="#DejaVuSans-46"/>
     <use xlink:href="#DejaVuSans-72" transform="translate(50.269531 0)"/>
     <use xlink:href="#DejaVuSans-6f" transform="translate(89.132812 0)"/>
     <use xlink:href="#DejaVuSans-73" transform="translate(150.314453 0)"/>
     <use xlink:href="#DejaVuSans-74" transform="translate(202.414062 0)"/>
     <use xlink:href="#DejaVuSans-32" transform="translate(241.623047 0)"/>
     <use xlink:href="#DejaVuSans-30" transform="translate(305.246094 0)"/>
     <use xlink:href="#DejaVuSans-31" transform="translate(368.869141 0)"/>
     <use xlink:href="#DejaVuSans-33" transform="translate(432.492188 0)"/>
    </g>
   </g>
   <g id="text_27">
    <!-- Frost2013 -->
    <g style="opacity: 0.7" transform="translate(89.834955 279.254692) scale(0.0694 -0.0694)">
     <use xlink:href="#DejaVuSans-46"/>
     <use xlink:href="#DejaVuSans-72" transform="translate(50.269531 0)"/>
     <use xlink:href="#DejaVuSans-6f" transform="translate(89.132812 0)"/>
     <use xlink:href="#DejaVuSans-73" transform="translate(150.314453 0)"/>
     <use xlink:href="#DejaVuSans-74" transform="translate(202.414062 0)"/>
     <use xlink:href="#DejaVuSans-32" transform="translate(241.623047 0)"/>
     <use xlink:href="#DejaVuSans-30" transform="translate(305.246094 0)"/>
     <use xlink:href="#DejaVuSans-31" transform="translate(368.869141 0)"/>
     <use xlink:href="#DejaVuSans-33" transform="translate(432.492188 0)"/>
    </g>
   </g>
   <g id="text_28">
    <!-- Kreutz2017 -->
    <g style="opacity: 0.7" transform="translate(127.243561 273.02907) scale(0.0694 -0.0694)">
     <defs>
      <path id="DejaVuSans-4b" d="M 628 4666 
L 1259 4666 
L 1259 2694 
L 3353 4666 
L 4166 4666 
L 1850 2491 
L 4331 0 
L 3500 0 
L 1259 2247 
L 1259 0 
L 628 0 
L 628 4666 
z
" transform="scale(0.015625)"/>
      <path id="DejaVuSans-65" d="M 3597 1894 
L 3597 1613 
L 953 1613 
Q 991 1019 1311 708 
Q 1631 397 2203 397 
Q 2534 397 2845 478 
Q 3156 559 3463 722 
L 3463 178 
Q 3153 47 2828 -22 
Q 2503 -91 2169 -91 
Q 1331 -91 842 396 
Q 353 884 353 1716 
Q 353 2575 817 3079 
Q 1281 3584 2069 3584 
Q 2775 3584 3186 3129 
Q 3597 2675 3597 1894 
z
M 3022 2063 
Q 3016 2534 2758 2815 
Q 2500 3097 2075 3097 
Q 1594 3097 1305 2825 
Q 1016 2553 972 2059 
L 3022 2063 
z
" transform="scale(0.015625)"/>
      <path id="DejaVuSans-75" d="M 544 1381 
L 544 3500 
L 1119 3500 
L 1119 1403 
Q 1119 906 1312 657 
Q 1506 409 1894 409 
Q 2359 409 2629 706 
Q 2900 1003 2900 1516 
L 2900 3500 
L 3475 3500 
L 3475 0 
L 2900 0 
L 2900 538 
Q 2691 219 2414 64 
Q 2138 -91 1772 -91 
Q 1169 -91 856 284 
Q 544 659 544 1381 
z
M 1991 3584 
L 1991 3584 
z
" transform="scale(0.015625)"/>
      <path id="DejaVuSans-7a" d="M 353 3500 
L 3084 3500 
L 3084 2975 
L 922 459 
L 3084 459 
L 3084 0 
L 275 0 
L 275 525 
L 2438 3041 
L 353 3041 
L 353 3500 
z
" transform="scale(0.015625)"/>
      <path id="DejaVuSans-37" d="M 525 4666 
L 3525 4666 
L 3525 4397 
L 1831 0 
L 1172 0 
L 2766 4134 
L 525 4134 
L 525 4666 
z
" transform="scale(0.015625)"/>
     </defs>
     <use xlink:href="#DejaVuSans-4b"/>
     <use xlink:href="#DejaVuSans-72" transform="translate(65.576172 0)"/>
     <use xlink:href="#DejaVuSans-65" transform="translate(104.439453 0)"/>
     <use xlink:href="#DejaVuSans-75" transform="translate(165.962891 0)"/>
     <use xlink:href="#DejaVuSans-74" transform="translate(229.341797 0)"/>
     <use xlink:href="#DejaVuSans-7a" transform="translate(268.550781 0)"/>
     <use xlink:href="#DejaVuSans-32" transform="translate(321.041016 0)"/>
     <use xlink:href="#DejaVuSans-30" transform="translate(384.664062 0)"/>
     <use xlink:href="#DejaVuSans-31" transform="translate(448.287109 0)"/>
     <use xlink:href="#DejaVuSans-37" transform="translate(511.910156 0)"/>
    </g>
   </g>
   <g id="text_29">
    <!-- Kreutz2017 -->
    <g style="opacity: 0.7" transform="translate(126.765477 241.091567) scale(0.0694 -0.0694)">
     <use xlink:href="#DejaVuSans-4b"/>
     <use xlink:href="#DejaVuSans-72" transform="translate(65.576172 0)"/>
     <use xlink:href="#DejaVuSans-65" transform="translate(104.439453 0)"/>
     <use xlink:href="#DejaVuSans-75" transform="translate(165.962891 0)"/>
     <use xlink:href="#DejaVuSans-74" transform="translate(229.341797 0)"/>
     <use xlink:href="#DejaVuSans-7a" transform="translate(268.550781 0)"/>
     <use xlink:href="#DejaVuSans-32" transform="translate(321.041016 0)"/>
     <use xlink:href="#DejaVuSans-30" transform="translate(384.664062 0)"/>
     <use xlink:href="#DejaVuSans-31" transform="translate(448.287109 0)"/>
     <use xlink:href="#DejaVuSans-37" transform="translate(511.910156 0)"/>
    </g>
   </g>
   <g id="text_30">
    <!-- Kreutz2017 -->
    <g style="opacity: 0.7" transform="translate(130.849994 253.667686) scale(0.0694 -0.0694)">
     <use xlink:href="#DejaVuSans-4b"/>
     <use xlink:href="#DejaVuSans-72" transform="translate(65.576172 0)"/>
     <use xlink:href="#DejaVuSans-65" transform="translate(104.439453 0)"/>
     <use xlink:href="#DejaVuSans-75" transform="translate(165.962891 0)"/>
     <use xlink:href="#DejaVuSans-74" transform="translate(229.341797 0)"/>
     <use xlink:href="#DejaVuSans-7a" transform="translate(268.550781 0)"/>
     <use xlink:href="#DejaVuSans-32" transform="translate(321.041016 0)"/>
     <use xlink:href="#DejaVuSans-30" transform="translate(384.664062 0)"/>
     <use xlink:href="#DejaVuSans-31" transform="translate(448.287109 0)"/>
     <use xlink:href="#DejaVuSans-37" transform="translate(511.910156 0)"/>
    </g>
   </g>
   <g id="text_31">
    <!-- Kreutz2017 -->
    <g style="opacity: 0.7" transform="translate(137.004171 276.405287) scale(0.0694 -0.0694)">
     <use xlink:href="#DejaVuSans-4b"/>
     <use xlink:href="#DejaVuSans-72" transform="translate(65.576172 0)"/>
     <use xlink:href="#DejaVuSans-65" transform="translate(104.439453 0)"/>
     <use xlink:href="#DejaVuSans-75" transform="translate(165.962891 0)"/>
     <use xlink:href="#DejaVuSans-74" transform="translate(229.341797 0)"/>
     <use xlink:href="#DejaVuSans-7a" transform="translate(268.550781 0)"/>
     <use xlink:href="#DejaVuSans-32" transform="translate(321.041016 0)"/>
     <use xlink:href="#DejaVuSans-30" transform="translate(384.664062 0)"/>
     <use xlink:href="#DejaVuSans-31" transform="translate(448.287109 0)"/>
     <use xlink:href="#DejaVuSans-37" transform="translate(511.910156 0)"/>
    </g>
   </g>
   <g id="text_32">
    <!-- Kreutz2017 -->
    <g style="opacity: 0.7" transform="translate(139.098407 283.821493) scale(0.0694 -0.0694)">
     <use xlink:href="#DejaVuSans-4b"/>
     <use xlink:href="#DejaVuSans-72" transform="translate(65.576172 0)"/>
     <use xlink:href="#DejaVuSans-65" transform="translate(104.439453 0)"/>
     <use xlink:href="#DejaVuSans-75" transform="translate(165.962891 0)"/>
     <use xlink:href="#DejaVuSans-74" transform="translate(229.341797 0)"/>
     <use xlink:href="#DejaVuSans-7a" transform="translate(268.550781 0)"/>
     <use xlink:href="#DejaVuSans-32" transform="translate(321.041016 0)"/>
     <use xlink:href="#DejaVuSans-30" transform="translate(384.664062 0)"/>
     <use xlink:href="#DejaVuSans-31" transform="translate(448.287109 0)"/>
     <use xlink:href="#DejaVuSans-37" transform="translate(511.910156 0)"/>
    </g>
   </g>
   <g id="text_33">
    <!-- Kreutz2017 -->
    <g style="opacity: 0.7" transform="translate(138.325571 283.839149) scale(0.0694 -0.0694)">
     <use xlink:href="#DejaVuSans-4b"/>
     <use xlink:href="#DejaVuSans-72" transform="translate(65.576172 0)"/>
     <use xlink:href="#DejaVuSans-65" transform="translate(104.439453 0)"/>
     <use xlink:href="#DejaVuSans-75" transform="translate(165.962891 0)"/>
     <use xlink:href="#DejaVuSans-74" transform="translate(229.341797 0)"/>
     <use xlink:href="#DejaVuSans-7a" transform="translate(268.550781 0)"/>
     <use xlink:href="#DejaVuSans-32" transform="translate(321.041016 0)"/>
     <use xlink:href="#DejaVuSans-30" transform="translate(384.664062 0)"/>
     <use xlink:href="#DejaVuSans-31" transform="translate(448.287109 0)"/>
     <use xlink:href="#DejaVuSans-37" transform="translate(511.910156 0)"/>
    </g>
   </g>
   <g id="text_34">
    <!-- Kreutz2017 -->
    <g style="opacity: 0.7" transform="translate(136.391864 280.976619) scale(0.0694 -0.0694)">
     <use xlink:href="#DejaVuSans-4b"/>
     <use xlink:href="#DejaVuSans-72" transform="translate(65.576172 0)"/>
     <use xlink:href="#DejaVuSans-65" transform="translate(104.439453 0)"/>
     <use xlink:href="#DejaVuSans-75" transform="translate(165.962891 0)"/>
     <use xlink:href="#DejaVuSans-74" transform="translate(229.341797 0)"/>
     <use xlink:href="#DejaVuSans-7a" transform="translate(268.550781 0)"/>
     <use xlink:href="#DejaVuSans-32" transform="translate(321.041016 0)"/>
     <use xlink:href="#DejaVuSans-30" transform="translate(384.664062 0)"/>
     <use xlink:href="#DejaVuSans-31" transform="translate(448.287109 0)"/>
     <use xlink:href="#DejaVuSans-37" transform="translate(511.910156 0)"/>
    </g>
   </g>
   <g id="text_35">
    <!-- Kreutz2017 -->
    <g style="opacity: 0.7" transform="translate(134.487961 278.041252) scale(0.0694 -0.0694)">
     <use xlink:href="#DejaVuSans-4b"/>
     <use xlink:href="#DejaVuSans-72" transform="translate(65.576172 0)"/>
     <use xlink:href="#DejaVuSans-65" transform="translate(104.439453 0)"/>
     <use xlink:href="#DejaVuSans-75" transform="translate(165.962891 0)"/>
     <use xlink:href="#DejaVuSans-74" transform="translate(229.341797 0)"/>
     <use xlink:href="#DejaVuSans-7a" transform="translate(268.550781 0)"/>
     <use xlink:href="#DejaVuSans-32" transform="translate(321.041016 0)"/>
     <use xlink:href="#DejaVuSans-30" transform="translate(384.664062 0)"/>
     <use xlink:href="#DejaVuSans-31" transform="translate(448.287109 0)"/>
     <use xlink:href="#DejaVuSans-37" transform="translate(511.910156 0)"/>
    </g>
   </g>
   <g id="text_36">
    <!-- Kreutz2017 -->
    <g style="opacity: 0.7" transform="translate(131.783145 275.391554) scale(0.0694 -0.0694)">
     <use xlink:href="#DejaVuSans-4b"/>
     <use xlink:href="#DejaVuSans-72" transform="translate(65.576172 0)"/>
     <use xlink:href="#DejaVuSans-65" transform="translate(104.439453 0)"/>
     <use xlink:href="#DejaVuSans-75" transform="translate(165.962891 0)"/>
     <use xlink:href="#DejaVuSans-74" transform="translate(229.341797 0)"/>
     <use xlink:href="#DejaVuSans-7a" transform="translate(268.550781 0)"/>
     <use xlink:href="#DejaVuSans-32" transform="translate(321.041016 0)"/>
     <use xlink:href="#DejaVuSans-30" transform="translate(384.664062 0)"/>
     <use xlink:href="#DejaVuSans-31" transform="translate(448.287109 0)"/>
     <use xlink:href="#DejaVuSans-37" transform="translate(511.910156 0)"/>
    </g>
   </g>
   <g id="text_37">
    <!-- Kreutz2017 -->
    <g style="opacity: 0.7" transform="translate(126.978066 273.742506) scale(0.0694 -0.0694)">
     <use xlink:href="#DejaVuSans-4b"/>
     <use xlink:href="#DejaVuSans-72" transform="translate(65.576172 0)"/>
     <use xlink:href="#DejaVuSans-65" transform="translate(104.439453 0)"/>
     <use xlink:href="#DejaVuSans-75" transform="translate(165.962891 0)"/>
     <use xlink:href="#DejaVuSans-74" transform="translate(229.341797 0)"/>
     <use xlink:href="#DejaVuSans-7a" transform="translate(268.550781 0)"/>
     <use xlink:href="#DejaVuSans-32" transform="translate(321.041016 0)"/>
     <use xlink:href="#DejaVuSans-30" transform="translate(384.664062 0)"/>
     <use xlink:href="#DejaVuSans-31" transform="translate(448.287109 0)"/>
     <use xlink:href="#DejaVuSans-37" transform="translate(511.910156 0)"/>
    </g>
   </g>
   <g id="text_38">
    <!-- Kreutz2017 -->
    <g style="opacity: 0.7" transform="translate(126.487014 240.57329) scale(0.0694 -0.0694)">
     <use xlink:href="#DejaVuSans-4b"/>
     <use xlink:href="#DejaVuSans-72" transform="translate(65.576172 0)"/>
     <use xlink:href="#DejaVuSans-65" transform="translate(104.439453 0)"/>
     <use xlink:href="#DejaVuSans-75" transform="translate(165.962891 0)"/>
     <use xlink:href="#DejaVuSans-74" transform="translate(229.341797 0)"/>
     <use xlink:href="#DejaVuSans-7a" transform="translate(268.550781 0)"/>
     <use xlink:href="#DejaVuSans-32" transform="translate(321.041016 0)"/>
     <use xlink:href="#DejaVuSans-30" transform="translate(384.664062 0)"/>
     <use xlink:href="#DejaVuSans-31" transform="translate(448.287109 0)"/>
     <use xlink:href="#DejaVuSans-37" transform="translate(511.910156 0)"/>
    </g>
   </g>
   <g id="text_39">
    <!-- Kreutz2017 -->
    <g style="opacity: 0.7" transform="translate(128.631158 240.816113) scale(0.0694 -0.0694)">
     <use xlink:href="#DejaVuSans-4b"/>
     <use xlink:href="#DejaVuSans-72" transform="translate(65.576172 0)"/>
     <use xlink:href="#DejaVuSans-65" transform="translate(104.439453 0)"/>
     <use xlink:href="#DejaVuSans-75" transform="translate(165.962891 0)"/>
     <use xlink:href="#DejaVuSans-74" transform="translate(229.341797 0)"/>
     <use xlink:href="#DejaVuSans-7a" transform="translate(268.550781 0)"/>
     <use xlink:href="#DejaVuSans-32" transform="translate(321.041016 0)"/>
     <use xlink:href="#DejaVuSans-30" transform="translate(384.664062 0)"/>
     <use xlink:href="#DejaVuSans-31" transform="translate(448.287109 0)"/>
     <use xlink:href="#DejaVuSans-37" transform="translate(511.910156 0)"/>
    </g>
   </g>
   <g id="text_40">
    <!-- Kreutz2017 -->
    <g style="opacity: 0.7" transform="translate(132.91457 259.964498) scale(0.0694 -0.0694)">
     <use xlink:href="#DejaVuSans-4b"/>
     <use xlink:href="#DejaVuSans-72" transform="translate(65.576172 0)"/>
     <use xlink:href="#DejaVuSans-65" transform="translate(104.439453 0)"/>
     <use xlink:href="#DejaVuSans-75" transform="translate(165.962891 0)"/>
     <use xlink:href="#DejaVuSans-74" transform="translate(229.341797 0)"/>
     <use xlink:href="#DejaVuSans-7a" transform="translate(268.550781 0)"/>
     <use xlink:href="#DejaVuSans-32" transform="translate(321.041016 0)"/>
     <use xlink:href="#DejaVuSans-30" transform="translate(384.664062 0)"/>
     <use xlink:href="#DejaVuSans-31" transform="translate(448.287109 0)"/>
     <use xlink:href="#DejaVuSans-37" transform="translate(511.910156 0)"/>
    </g>
   </g>
   <g id="text_41">
    <!-- Kreutz2017 -->
    <g style="opacity: 0.7" transform="translate(135.836085 273.924815) scale(0.0694 -0.0694)">
     <use xlink:href="#DejaVuSans-4b"/>
     <use xlink:href="#DejaVuSans-72" transform="translate(65.576172 0)"/>
     <use xlink:href="#DejaVuSans-65" transform="translate(104.439453 0)"/>
     <use xlink:href="#DejaVuSans-75" transform="translate(165.962891 0)"/>
     <use xlink:href="#DejaVuSans-74" transform="translate(229.341797 0)"/>
     <use xlink:href="#DejaVuSans-7a" transform="translate(268.550781 0)"/>
     <use xlink:href="#DejaVuSans-32" transform="translate(321.041016 0)"/>
     <use xlink:href="#DejaVuSans-30" transform="translate(384.664062 0)"/>
     <use xlink:href="#DejaVuSans-31" transform="translate(448.287109 0)"/>
     <use xlink:href="#DejaVuSans-37" transform="translate(511.910156 0)"/>
    </g>
   </g>
   <g id="text_42">
    <!-- Kreutz2017 -->
    <g style="opacity: 0.7" transform="translate(136.619674 279.161621) scale(0.0694 -0.0694)">
     <use xlink:href="#DejaVuSans-4b"/>
     <use xlink:href="#DejaVuSans-72" transform="translate(65.576172 0)"/>
     <use xlink:href="#DejaVuSans-65" transform="translate(104.439453 0)"/>
     <use xlink:href="#DejaVuSans-75" transform="translate(165.962891 0)"/>
     <use xlink:href="#DejaVuSans-74" transform="translate(229.341797 0)"/>
     <use xlink:href="#DejaVuSans-7a" transform="translate(268.550781 0)"/>
     <use xlink:href="#DejaVuSans-32" transform="translate(321.041016 0)"/>
     <use xlink:href="#DejaVuSans-30" transform="translate(384.664062 0)"/>
     <use xlink:href="#DejaVuSans-31" transform="translate(448.287109 0)"/>
     <use xlink:href="#DejaVuSans-37" transform="translate(511.910156 0)"/>
    </g>
   </g>
   <g id="text_43">
    <!-- Kreutz2017 -->
    <g style="opacity: 0.7" transform="translate(136.135314 280.457992) scale(0.0694 -0.0694)">
     <use xlink:href="#DejaVuSans-4b"/>
     <use xlink:href="#DejaVuSans-72" transform="translate(65.576172 0)"/>
     <use xlink:href="#DejaVuSans-65" transform="translate(104.439453 0)"/>
     <use xlink:href="#DejaVuSans-75" transform="translate(165.962891 0)"/>
     <use xlink:href="#DejaVuSans-74" transform="translate(229.341797 0)"/>
     <use xlink:href="#DejaVuSans-7a" transform="translate(268.550781 0)"/>
     <use xlink:href="#DejaVuSans-32" transform="translate(321.041016 0)"/>
     <use xlink:href="#DejaVuSans-30" transform="translate(384.664062 0)"/>
     <use xlink:href="#DejaVuSans-31" transform="translate(448.287109 0)"/>
     <use xlink:href="#DejaVuSans-37" transform="translate(511.910156 0)"/>
    </g>
   </g>
   <g id="text_44">
    <!-- Kreutz2017 -->
    <g style="opacity: 0.7" transform="translate(135.038776 280.017679) scale(0.0694 -0.0694)">
     <use xlink:href="#DejaVuSans-4b"/>
     <use xlink:href="#DejaVuSans-72" transform="translate(65.576172 0)"/>
     <use xlink:href="#DejaVuSans-65" transform="translate(104.439453 0)"/>
     <use xlink:href="#DejaVuSans-75" transform="translate(165.962891 0)"/>
     <use xlink:href="#DejaVuSans-74" transform="translate(229.341797 0)"/>
     <use xlink:href="#DejaVuSans-7a" transform="translate(268.550781 0)"/>
     <use xlink:href="#DejaVuSans-32" transform="translate(321.041016 0)"/>
     <use xlink:href="#DejaVuSans-30" transform="translate(384.664062 0)"/>
     <use xlink:href="#DejaVuSans-31" transform="translate(448.287109 0)"/>
     <use xlink:href="#DejaVuSans-37" transform="translate(511.910156 0)"/>
    </g>
   </g>
   <g id="text_45">
    <!-- Kreutz2017 -->
    <g style="opacity: 0.7" transform="translate(132.838263 279.138474) scale(0.0694 -0.0694)">
     <use xlink:href="#DejaVuSans-4b"/>
     <use xlink:href="#DejaVuSans-72" transform="translate(65.576172 0)"/>
     <use xlink:href="#DejaVuSans-65" transform="translate(104.439453 0)"/>
     <use xlink:href="#DejaVuSans-75" transform="translate(165.962891 0)"/>
     <use xlink:href="#DejaVuSans-74" transform="translate(229.341797 0)"/>
     <use xlink:href="#DejaVuSans-7a" transform="translate(268.550781 0)"/>
     <use xlink:href="#DejaVuSans-32" transform="translate(321.041016 0)"/>
     <use xlink:href="#DejaVuSans-30" transform="translate(384.664062 0)"/>
     <use xlink:href="#DejaVuSans-31" transform="translate(448.287109 0)"/>
     <use xlink:href="#DejaVuSans-37" transform="translate(511.910156 0)"/>
    </g>
   </g>
   <g id="text_46">
    <!-- Kreutz2017 -->
    <g style="opacity: 0.7" transform="translate(129.76756 281.182517) scale(0.0694 -0.0694)">
     <use xlink:href="#DejaVuSans-4b"/>
     <use xlink:href="#DejaVuSans-72" transform="translate(65.576172 0)"/>
     <use xlink:href="#DejaVuSans-65" transform="translate(104.439453 0)"/>
     <use xlink:href="#DejaVuSans-75" transform="translate(165.962891 0)"/>
     <use xlink:href="#DejaVuSans-74" transform="translate(229.341797 0)"/>
     <use xlink:href="#DejaVuSans-7a" transform="translate(268.550781 0)"/>
     <use xlink:href="#DejaVuSans-32" transform="translate(321.041016 0)"/>
     <use xlink:href="#DejaVuSans-30" transform="translate(384.664062 0)"/>
     <use xlink:href="#DejaVuSans-31" transform="translate(448.287109 0)"/>
     <use xlink:href="#DejaVuSans-37" transform="translate(511.910156 0)"/>
    </g>
   </g>
   <g id="text_47">
    <!-- Kreutz2017 -->
    <g style="opacity: 0.7" transform="translate(120.020137 265.673732) scale(0.0694 -0.0694)">
     <use xlink:href="#DejaVuSans-4b"/>
     <use xlink:href="#DejaVuSans-72" transform="translate(65.576172 0)"/>
     <use xlink:href="#DejaVuSans-65" transform="translate(104.439453 0)"/>
     <use xlink:href="#DejaVuSans-75" transform="translate(165.962891 0)"/>
     <use xlink:href="#DejaVuSans-74" transform="translate(229.341797 0)"/>
     <use xlink:href="#DejaVuSans-7a" transform="translate(268.550781 0)"/>
     <use xlink:href="#DejaVuSans-32" transform="translate(321.041016 0)"/>
     <use xlink:href="#DejaVuSans-30" transform="translate(384.664062 0)"/>
     <use xlink:href="#DejaVuSans-31" transform="translate(448.287109 0)"/>
     <use xlink:href="#DejaVuSans-37" transform="translate(511.910156 0)"/>
    </g>
   </g>
   <g id="text_48">
    <!-- Kreutz2017 -->
    <g style="opacity: 0.7" transform="translate(114.956863 266.821596) scale(0.0694 -0.0694)">
     <use xlink:href="#DejaVuSans-4b"/>
     <use xlink:href="#DejaVuSans-72" transform="translate(65.576172 0)"/>
     <use xlink:href="#DejaVuSans-65" transform="translate(104.439453 0)"/>
     <use xlink:href="#DejaVuSans-75" transform="translate(165.962891 0)"/>
     <use xlink:href="#DejaVuSans-74" transform="translate(229.341797 0)"/>
     <use xlink:href="#DejaVuSans-7a" transform="translate(268.550781 0)"/>
     <use xlink:href="#DejaVuSans-32" transform="translate(321.041016 0)"/>
     <use xlink:href="#DejaVuSans-30" transform="translate(384.664062 0)"/>
     <use xlink:href="#DejaVuSans-31" transform="translate(448.287109 0)"/>
     <use xlink:href="#DejaVuSans-37" transform="translate(511.910156 0)"/>
    </g>
   </g>
   <g id="text_49">
    <!-- Kreutz2017 -->
    <g style="opacity: 0.7" transform="translate(106.545091 250.958801) scale(0.0694 -0.0694)">
     <use xlink:href="#DejaVuSans-4b"/>
     <use xlink:href="#DejaVuSans-72" transform="translate(65.576172 0)"/>
     <use xlink:href="#DejaVuSans-65" transform="translate(104.439453 0)"/>
     <use xlink:href="#DejaVuSans-75" transform="translate(165.962891 0)"/>
     <use xlink:href="#DejaVuSans-74" transform="translate(229.341797 0)"/>
     <use xlink:href="#DejaVuSans-7a" transform="translate(268.550781 0)"/>
     <use xlink:href="#DejaVuSans-32" transform="translate(321.041016 0)"/>
     <use xlink:href="#DejaVuSans-30" transform="translate(384.664062 0)"/>
     <use xlink:href="#DejaVuSans-31" transform="translate(448.287109 0)"/>
     <use xlink:href="#DejaVuSans-37" transform="translate(511.910156 0)"/>
    </g>
   </g>
   <g id="text_50">
    <!-- Kreutz2017 -->
    <g style="opacity: 0.7" transform="translate(104.540671 267.063826) scale(0.0694 -0.0694)">
     <use xlink:href="#DejaVuSans-4b"/>
     <use xlink:href="#DejaVuSans-72" transform="translate(65.576172 0)"/>
     <use xlink:href="#DejaVuSans-65" transform="translate(104.439453 0)"/>
     <use xlink:href="#DejaVuSans-75" transform="translate(165.962891 0)"/>
     <use xlink:href="#DejaVuSans-74" transform="translate(229.341797 0)"/>
     <use xlink:href="#DejaVuSans-7a" transform="translate(268.550781 0)"/>
     <use xlink:href="#DejaVuSans-32" transform="translate(321.041016 0)"/>
     <use xlink:href="#DejaVuSans-30" transform="translate(384.664062 0)"/>
     <use xlink:href="#DejaVuSans-31" transform="translate(448.287109 0)"/>
     <use xlink:href="#DejaVuSans-37" transform="translate(511.910156 0)"/>
    </g>
   </g>
   <g id="text_51">
    <!-- Kreutz2017 -->
    <g style="opacity: 0.7" transform="translate(91.081893 251.777884) scale(0.0694 -0.0694)">
     <use xlink:href="#DejaVuSans-4b"/>
     <use xlink:href="#DejaVuSans-72" transform="translate(65.576172 0)"/>
     <use xlink:href="#DejaVuSans-65" transform="translate(104.439453 0)"/>
     <use xlink:href="#DejaVuSans-75" transform="translate(165.962891 0)"/>
     <use xlink:href="#DejaVuSans-74" transform="translate(229.341797 0)"/>
     <use xlink:href="#DejaVuSans-7a" transform="translate(268.550781 0)"/>
     <use xlink:href="#DejaVuSans-32" transform="translate(321.041016 0)"/>
     <use xlink:href="#DejaVuSans-30" transform="translate(384.664062 0)"/>
     <use xlink:href="#DejaVuSans-31" transform="translate(448.287109 0)"/>
     <use xlink:href="#DejaVuSans-37" transform="translate(511.910156 0)"/>
    </g>
   </g>
   <g id="text_52">
    <!-- Song2016 -->
    <g style="opacity: 0.7" transform="translate(109.984563 17.600303) scale(0.0694 -0.0694)">
     <defs>
      <path id="DejaVuSans-53" d="M 3425 4513 
L 3425 3897 
Q 3066 4069 2747 4153 
Q 2428 4238 2131 4238 
Q 1616 4238 1336 4038 
Q 1056 3838 1056 3469 
Q 1056 3159 1242 3001 
Q 1428 2844 1947 2747 
L 2328 2669 
Q 3034 2534 3370 2195 
Q 3706 1856 3706 1288 
Q 3706 609 3251 259 
Q 2797 -91 1919 -91 
Q 1588 -91 1214 -16 
Q 841 59 441 206 
L 441 856 
Q 825 641 1194 531 
Q 1563 422 1919 422 
Q 2459 422 2753 634 
Q 3047 847 3047 1241 
Q 3047 1584 2836 1778 
Q 2625 1972 2144 2069 
L 1759 2144 
Q 1053 2284 737 2584 
Q 422 2884 422 3419 
Q 422 4038 858 4394 
Q 1294 4750 2059 4750 
Q 2388 4750 2728 4690 
Q 3069 4631 3425 4513 
z
" transform="scale(0.015625)"/>
      <path id="DejaVuSans-6e" d="M 3513 2113 
L 3513 0 
L 2938 0 
L 2938 2094 
Q 2938 2591 2744 2837 
Q 2550 3084 2163 3084 
Q 1697 3084 1428 2787 
Q 1159 2491 1159 1978 
L 1159 0 
L 581 0 
L 581 3500 
L 1159 3500 
L 1159 2956 
Q 1366 3272 1645 3428 
Q 1925 3584 2291 3584 
Q 2894 3584 3203 3211 
Q 3513 2838 3513 2113 
z
" transform="scale(0.015625)"/>
      <path id="DejaVuSans-67" d="M 2906 1791 
Q 2906 2416 2648 2759 
Q 2391 3103 1925 3103 
Q 1463 3103 1205 2759 
Q 947 2416 947 1791 
Q 947 1169 1205 825 
Q 1463 481 1925 481 
Q 2391 481 2648 825 
Q 2906 1169 2906 1791 
z
M 3481 434 
Q 3481 -459 3084 -895 
Q 2688 -1331 1869 -1331 
Q 1566 -1331 1297 -1286 
Q 1028 -1241 775 -1147 
L 775 -588 
Q 1028 -725 1275 -790 
Q 1522 -856 1778 -856 
Q 2344 -856 2625 -561 
Q 2906 -266 2906 331 
L 2906 616 
Q 2728 306 2450 153 
Q 2172 0 1784 0 
Q 1141 0 747 490 
Q 353 981 353 1791 
Q 353 2603 747 3093 
Q 1141 3584 1784 3584 
Q 2172 3584 2450 3431 
Q 2728 3278 2906 2969 
L 2906 3500 
L 3481 3500 
L 3481 434 
z
" transform="scale(0.015625)"/>
      <path id="DejaVuSans-36" d="M 2113 2584 
Q 1688 2584 1439 2293 
Q 1191 2003 1191 1497 
Q 1191 994 1439 701 
Q 1688 409 2113 409 
Q 2538 409 2786 701 
Q 3034 994 3034 1497 
Q 3034 2003 2786 2293 
Q 2538 2584 2113 2584 
z
M 3366 4563 
L 3366 3988 
Q 3128 4100 2886 4159 
Q 2644 4219 2406 4219 
Q 1781 4219 1451 3797 
Q 1122 3375 1075 2522 
Q 1259 2794 1537 2939 
Q 1816 3084 2150 3084 
Q 2853 3084 3261 2657 
Q 3669 2231 3669 1497 
Q 3669 778 3244 343 
Q 2819 -91 2113 -91 
Q 1303 -91 875 529 
Q 447 1150 447 2328 
Q 447 3434 972 4092 
Q 1497 4750 2381 4750 
Q 2619 4750 2861 4703 
Q 3103 4656 3366 4563 
z
" transform="scale(0.015625)"/>
     </defs>
     <use xlink:href="#DejaVuSans-53"/>
     <use xlink:href="#DejaVuSans-6f" transform="translate(63.476562 0)"/>
     <use xlink:href="#DejaVuSans-6e" transform="translate(124.658203 0)"/>
     <use xlink:href="#DejaVuSans-67" transform="translate(188.037109 0)"/>
     <use xlink:href="#DejaVuSans-32" transform="translate(251.513672 0)"/>
     <use xlink:href="#DejaVuSans-30" transform="translate(315.136719 0)"/>
     <use xlink:href="#DejaVuSans-31" transform="translate(378.759766 0)"/>
     <use xlink:href="#DejaVuSans-36" transform="translate(442.382812 0)"/>
    </g>
   </g>
   <g id="text_53">
    <!-- Song2016 -->
    <g style="opacity: 0.7" transform="translate(126.09058 236.39892) scale(0.0694 -0.0694)">
     <use xlink:href="#DejaVuSans-53"/>
     <use xlink:href="#DejaVuSans-6f" transform="translate(63.476562 0)"/>
     <use xlink:href="#DejaVuSans-6e" transform="translate(124.658203 0)"/>
     <use xlink:href="#DejaVuSans-67" transform="translate(188.037109 0)"/>
     <use xlink:href="#DejaVuSans-32" transform="translate(251.513672 0)"/>
     <use xlink:href="#DejaVuSans-30" transform="translate(315.136719 0)"/>
     <use xlink:href="#DejaVuSans-31" transform="translate(378.759766 0)"/>
     <use xlink:href="#DejaVuSans-36" transform="translate(442.382812 0)"/>
    </g>
   </g>
   <g id="text_54">
    <!-- Song2016 -->
    <g style="opacity: 0.7" transform="translate(132.052764 272.265369) scale(0.0694 -0.0694)">
     <use xlink:href="#DejaVuSans-53"/>
     <use xlink:href="#DejaVuSans-6f" transform="translate(63.476562 0)"/>
     <use xlink:href="#DejaVuSans-6e" transform="translate(124.658203 0)"/>
     <use xlink:href="#DejaVuSans-67" transform="translate(188.037109 0)"/>
     <use xlink:href="#DejaVuSans-32" transform="translate(251.513672 0)"/>
     <use xlink:href="#DejaVuSans-30" transform="translate(315.136719 0)"/>
     <use xlink:href="#DejaVuSans-31" transform="translate(378.759766 0)"/>
     <use xlink:href="#DejaVuSans-36" transform="translate(442.382812 0)"/>
    </g>
   </g>
   <g id="text_55">
    <!-- Song2016 -->
    <g style="opacity: 0.7" transform="translate(134.326729 282.612595) scale(0.0694 -0.0694)">
     <use xlink:href="#DejaVuSans-53"/>
     <use xlink:href="#DejaVuSans-6f" transform="translate(63.476562 0)"/>
     <use xlink:href="#DejaVuSans-6e" transform="translate(124.658203 0)"/>
     <use xlink:href="#DejaVuSans-67" transform="translate(188.037109 0)"/>
     <use xlink:href="#DejaVuSans-32" transform="translate(251.513672 0)"/>
     <use xlink:href="#DejaVuSans-30" transform="translate(315.136719 0)"/>
     <use xlink:href="#DejaVuSans-31" transform="translate(378.759766 0)"/>
     <use xlink:href="#DejaVuSans-36" transform="translate(442.382812 0)"/>
    </g>
   </g>
   <g id="text_56">
    <!-- Song2016 -->
    <g style="opacity: 0.7" transform="translate(135.375674 288.446922) scale(0.0694 -0.0694)">
     <use xlink:href="#DejaVuSans-53"/>
     <use xlink:href="#DejaVuSans-6f" transform="translate(63.476562 0)"/>
     <use xlink:href="#DejaVuSans-6e" transform="translate(124.658203 0)"/>
     <use xlink:href="#DejaVuSans-67" transform="translate(188.037109 0)"/>
     <use xlink:href="#DejaVuSans-32" transform="translate(251.513672 0)"/>
     <use xlink:href="#DejaVuSans-30" transform="translate(315.136719 0)"/>
     <use xlink:href="#DejaVuSans-31" transform="translate(378.759766 0)"/>
     <use xlink:href="#DejaVuSans-36" transform="translate(442.382812 0)"/>
    </g>
   </g>
   <g id="text_57">
    <!-- Song2016 -->
    <g style="opacity: 0.7" transform="translate(134.103587 285.200892) scale(0.0694 -0.0694)">
     <use xlink:href="#DejaVuSans-53"/>
     <use xlink:href="#DejaVuSans-6f" transform="translate(63.476562 0)"/>
     <use xlink:href="#DejaVuSans-6e" transform="translate(124.658203 0)"/>
     <use xlink:href="#DejaVuSans-67" transform="translate(188.037109 0)"/>
     <use xlink:href="#DejaVuSans-32" transform="translate(251.513672 0)"/>
     <use xlink:href="#DejaVuSans-30" transform="translate(315.136719 0)"/>
     <use xlink:href="#DejaVuSans-31" transform="translate(378.759766 0)"/>
     <use xlink:href="#DejaVuSans-36" transform="translate(442.382812 0)"/>
    </g>
   </g>
   <g id="text_58">
    <!-- Song2016 -->
    <g style="opacity: 0.7" transform="translate(130.657459 275.023804) scale(0.0694 -0.0694)">
     <use xlink:href="#DejaVuSans-53"/>
     <use xlink:href="#DejaVuSans-6f" transform="translate(63.476562 0)"/>
     <use xlink:href="#DejaVuSans-6e" transform="translate(124.658203 0)"/>
     <use xlink:href="#DejaVuSans-67" transform="translate(188.037109 0)"/>
     <use xlink:href="#DejaVuSans-32" transform="translate(251.513672 0)"/>
     <use xlink:href="#DejaVuSans-30" transform="translate(315.136719 0)"/>
     <use xlink:href="#DejaVuSans-31" transform="translate(378.759766 0)"/>
     <use xlink:href="#DejaVuSans-36" transform="translate(442.382812 0)"/>
    </g>
   </g>
   <g id="text_59">
    <!-- Song2016 -->
    <g style="opacity: 0.7" transform="translate(126.09058 262.051306) scale(0.0694 -0.0694)">
     <use xlink:href="#DejaVuSans-53"/>
     <use xlink:href="#DejaVuSans-6f" transform="translate(63.476562 0)"/>
     <use xlink:href="#DejaVuSans-6e" transform="translate(124.658203 0)"/>
     <use xlink:href="#DejaVuSans-67" transform="translate(188.037109 0)"/>
     <use xlink:href="#DejaVuSans-32" transform="translate(251.513672 0)"/>
     <use xlink:href="#DejaVuSans-30" transform="translate(315.136719 0)"/>
     <use xlink:href="#DejaVuSans-31" transform="translate(378.759766 0)"/>
     <use xlink:href="#DejaVuSans-36" transform="translate(442.382812 0)"/>
    </g>
   </g>
   <g id="text_60">
    <!-- Song2016 -->
    <g style="opacity: 0.7" transform="translate(120.790396 240.038307) scale(0.0694 -0.0694)">
     <use xlink:href="#DejaVuSans-53"/>
     <use xlink:href="#DejaVuSans-6f" transform="translate(63.476562 0)"/>
     <use xlink:href="#DejaVuSans-6e" transform="translate(124.658203 0)"/>
     <use xlink:href="#DejaVuSans-67" transform="translate(188.037109 0)"/>
     <use xlink:href="#DejaVuSans-32" transform="translate(251.513672 0)"/>
     <use xlink:href="#DejaVuSans-30" transform="translate(315.136719 0)"/>
     <use xlink:href="#DejaVuSans-31" transform="translate(378.759766 0)"/>
     <use xlink:href="#DejaVuSans-36" transform="translate(442.382812 0)"/>
    </g>
   </g>
   <g id="text_61">
    <!-- Song2016 -->
    <g style="opacity: 0.7" transform="translate(110.933278 249.945351) scale(0.0694 -0.0694)">
     <use xlink:href="#DejaVuSans-53"/>
     <use xlink:href="#DejaVuSans-6f" transform="translate(63.476562 0)"/>
     <use xlink:href="#DejaVuSans-6e" transform="translate(124.658203 0)"/>
     <use xlink:href="#DejaVuSans-67" transform="translate(188.037109 0)"/>
     <use xlink:href="#DejaVuSans-32" transform="translate(251.513672 0)"/>
     <use xlink:href="#DejaVuSans-30" transform="translate(315.136719 0)"/>
     <use xlink:href="#DejaVuSans-31" transform="translate(378.759766 0)"/>
     <use xlink:href="#DejaVuSans-36" transform="translate(442.382812 0)"/>
    </g>
   </g>
   <g id="text_62">
    <!-- Song2016 -->
    <g style="opacity: 0.7" transform="translate(96.028815 294.766627) scale(0.0694 -0.0694)">
     <use xlink:href="#DejaVuSans-53"/>
     <use xlink:href="#DejaVuSans-6f" transform="translate(63.476562 0)"/>
     <use xlink:href="#DejaVuSans-6e" transform="translate(124.658203 0)"/>
     <use xlink:href="#DejaVuSans-67" transform="translate(188.037109 0)"/>
     <use xlink:href="#DejaVuSans-32" transform="translate(251.513672 0)"/>
     <use xlink:href="#DejaVuSans-30" transform="translate(315.136719 0)"/>
     <use xlink:href="#DejaVuSans-31" transform="translate(378.759766 0)"/>
     <use xlink:href="#DejaVuSans-36" transform="translate(442.382812 0)"/>
    </g>
   </g>
   <g id="text_63">
    <!-- Song2016 -->
    <g style="opacity: 0.7" transform="translate(84.192918 291.352613) scale(0.0694 -0.0694)">
     <use xlink:href="#DejaVuSans-53"/>
     <use xlink:href="#DejaVuSans-6f" transform="translate(63.476562 0)"/>
     <use xlink:href="#DejaVuSans-6e" transform="translate(124.658203 0)"/>
     <use xlink:href="#DejaVuSans-67" transform="translate(188.037109 0)"/>
     <use xlink:href="#DejaVuSans-32" transform="translate(251.513672 0)"/>
     <use xlink:href="#DejaVuSans-30" transform="translate(315.136719 0)"/>
     <use xlink:href="#DejaVuSans-31" transform="translate(378.759766 0)"/>
     <use xlink:href="#DejaVuSans-36" transform="translate(442.382812 0)"/>
    </g>
   </g>
   <g id="text_64">
    <!-- Song2016 -->
    <g style="opacity: 0.7" transform="translate(78.055786 309.601572) scale(0.0694 -0.0694)">
     <use xlink:href="#DejaVuSans-53"/>
     <use xlink:href="#DejaVuSans-6f" transform="translate(63.476562 0)"/>
     <use xlink:href="#DejaVuSans-6e" transform="translate(124.658203 0)"/>
     <use xlink:href="#DejaVuSans-67" transform="translate(188.037109 0)"/>
     <use xlink:href="#DejaVuSans-32" transform="translate(251.513672 0)"/>
     <use xlink:href="#DejaVuSans-30" transform="translate(315.136719 0)"/>
     <use xlink:href="#DejaVuSans-31" transform="translate(378.759766 0)"/>
     <use xlink:href="#DejaVuSans-36" transform="translate(442.382812 0)"/>
    </g>
   </g>
  </g>
 </g>
 <defs>
  <clipPath id="p922728f7f2">
   <rect x="64.77274" y="3.00024" width="292.22702" height="321.201395"/>
  </clipPath>
 </defs>
</svg>
