<?xml version="1.0" encoding="utf-8" standalone="no"?>
<!DOCTYPE svg PUBLIC "-//W3C//DTD SVG 1.1//EN"
  "http://www.w3.org/Graphics/SVG/1.1/DTD/svg11.dtd">
<svg xmlns:xlink="http://www.w3.org/1999/xlink" width="720pt" height="360pt" viewBox="0 0 720 360" xmlns="http://www.w3.org/2000/svg" version="1.1">
 <metadata>
  <rdf:RDF xmlns:dc="http://purl.org/dc/elements/1.1/" xmlns:cc="http://creativecommons.org/ns#" xmlns:rdf="http://www.w3.org/1999/02/22-rdf-syntax-ns#">
   <cc:Work>
    <dc:type rdf:resource="http://purl.org/dc/dcmitype/StillImage"/>
    <dc:date>2026-04-14T13:49:15.914619</dc:date>
    <dc:format>image/svg+xml</dc:format>
    <dc:creator>
     <cc:Agent>
      <dc:title>Matplotlib v3.10.7, https://matplotlib.org/</dc:title>
     </cc:Agent>
    </dc:creator>
   </cc:Work>
  </rdf:RDF>
 </metadata>
 <defs>
  <style type="text/css">*{stroke-linejoin: round; stroke-linecap: butt}</style>
 </defs>
 <g id="figure_1">
  <g id="patch_1">
   <path d="M 0 360 
L 720 360 
L 720 0 
L 0 0 
z
" style="fill: #ffffff"/>
  </g>
  <g id="axes_1">
   <g id="patch_2">
    <path d="M 90 320.4 
L 343.636364 320.4 
L 343.636364 43.2 
L 90 43.2 
z
" style="fill: #ffffff"/>
   </g>
   <g id="matplotlib.axis_1">
    <g id="xtick_1">
     <g id="line2d_1">
      <defs>
       <path id="maecfe19819" d="M 0 0 
L 0 3.5 
" style="stroke: #000000; stroke-width: 0.8"/>
      </defs>
      <g>
       <use xlink:href="#maecfe19819" x="111.136364" y="320.4" style="stroke: #000000; stroke-width: 0.8"/>
      </g>
     </g>
     <g id="text_1">
      <!-- 0 -->
      <g transform="translate(107.955114 334.998438) scale(0.1 -0.1)">
       <defs>
        <path id="DejaVuSans-30" d="M 2034 4250 
Q 1547 4250 1301 3770 
Q 1056 3291 1056 2328 
Q 1056 1369 1301 889 
Q 1547 409 2034 409 
Q 2525 409 2770 889 
Q 3016 1369 3016 2328 
Q 3016 3291 2770 3770 
Q 2525 4250 2034 4250 
z
M 2034 4750 
Q 2819 4750 3233 4129 
Q 3647 3509 3647 2328 
Q 3647 1150 3233 529 
Q 2819 -91 2034 -91 
Q 1250 -91 836 529 
Q 422 1150 422 2328 
Q 422 3509 836 4129 
Q 1250 4750 2034 4750 
z
" transform="scale(0.015625)"/>
       </defs>
       <use xlink:href="#DejaVuSans-30"/>
      </g>
     </g>
    </g>
    <g id="xtick_2">
     <g id="line2d_2">
      <g>
       <use xlink:href="#maecfe19819" x="153.073593" y="320.4" style="stroke: #000000; stroke-width: 0.8"/>
      </g>
     </g>
     <g id="text_2">
      <!-- 2000 -->
      <g transform="translate(140.348593 334.998438) scale(0.1 -0.1)">
       <defs>
        <path id="DejaVuSans-32" d="M 1228 531 
L 3431 531 
L 3431 0 
L 469 0 
L 469 531 
Q 828 903 1448 1529 
Q 2069 2156 2228 2338 
Q 2531 2678 2651 2914 
Q 2772 3150 2772 3378 
Q 2772 3750 2511 3984 
Q 2250 4219 1831 4219 
Q 1534 4219 1204 4116 
Q 875 4013 500 3803 
L 500 4441 
Q 881 4594 1212 4672 
Q 1544 4750 1819 4750 
Q 2544 4750 2975 4387 
Q 3406 4025 3406 3419 
Q 3406 3131 3298 2873 
Q 3191 2616 2906 2266 
Q 2828 2175 2409 1742 
Q 1991 1309 1228 531 
z
" transform="scale(0.015625)"/>
       </defs>
       <use xlink:href="#DejaVuSans-32"/>
       <use xlink:href="#DejaVuSans-30" transform="translate(63.623047 0)"/>
       <use xlink:href="#DejaVuSans-30" transform="translate(127.246094 0)"/>
       <use xlink:href="#DejaVuSans-30" transform="translate(190.869141 0)"/>
      </g>
     </g>
    </g>
    <g id="xtick_3">
     <g id="line2d_3">
      <g>
       <use xlink:href="#maecfe19819" x="195.010823" y="320.4" style="stroke: #000000; stroke-width: 0.8"/>
      </g>
     </g>
     <g id="text_3">
      <!-- 4000 -->
      <g transform="translate(182.285823 334.998438) scale(0.1 -0.1)">
       <defs>
        <path id="DejaVuSans-34" d="M 2419 4116 
L 825 1625 
L 2419 1625 
L 2419 4116 
z
M 2253 4666 
L 3047 4666 
L 3047 1625 
L 3713 1625 
L 3713 1100 
L 3047 1100 
L 3047 0 
L 2419 0 
L 2419 1100 
L 313 1100 
L 313 1709 
L 2253 4666 
z
" transform="scale(0.015625)"/>
       </defs>
       <use xlink:href="#DejaVuSans-34"/>
       <use xlink:href="#DejaVuSans-30" transform="translate(63.623047 0)"/>
       <use xlink:href="#DejaVuSans-30" transform="translate(127.246094 0)"/>
       <use xlink:href="#DejaVuSans-30" transform="translate(190.869141 0)"/>
      </g>
     </g>
    </g>
    <g id="xtick_4">
     <g id="line2d_4">
      <g>
       <use xlink:href="#maecfe19819" x="236.948052" y="320.4" style="stroke: #000000; stroke-width: 0.8"/>
      </g>
     </g>
     <g id="text_4">
      <!-- 6000 -->
      <g transform="translate(224.223052 334.998438) scale(0.1 -0.1)">
       <defs>
        <path id="DejaVuSans-36" d="M 2113 2584 
Q 1688 2584 1439 2293 
Q 1191 2003 1191 1497 
Q 1191 994 1439 701 
Q 1688 409 2113 409 
Q 2538 409 2786 701 
Q 3034 994 3034 1497 
Q 3034 2003 2786 2293 
Q 2538 2584 2113 2584 
z
M 3366 4563 
L 3366 3988 
Q 3128 4100 2886 4159 
Q 2644 4219 2406 4219 
Q 1781 4219 1451 3797 
Q 1122 3375 1075 2522 
Q 1259 2794 1537 2939 
Q 1816 3084 2150 3084 
Q 2853 3084 3261 2657 
Q 3669 2231 3669 1497 
Q 3669 778 3244 343 
Q 2819 -91 2113 -91 
Q 1303 -91 875 529 
Q 447 1150 447 2328 
Q 447 3434 972 4092 
Q 1497 4750 2381 4750 
Q 2619 4750 2861 4703 
Q 3103 4656 3366 4563 
z
" transform="scale(0.015625)"/>
       </defs>
       <use xlink:href="#DejaVuSans-36"/>
       <use xlink:href="#DejaVuSans-30" transform="translate(63.623047 0)"/>
       <use xlink:href="#DejaVuSans-30" transform="translate(127.246094 0)"/>
       <use xlink:href="#DejaVuSans-30" transform="translate(190.869141 0)"/>
      </g>
     </g>
    </g>
    <g id="xtick_5">
     <g id="line2d_5">
      <g>
       <use xlink:href="#maecfe19819" x="278.885281" y="320.4" style="stroke: #000000; stroke-width: 0.8"/>
      </g>
     </g>
     <g id="text_5">
      <!-- 8000 -->
      <g transform="translate(266.160281 334.998438) scale(0.1 -0.1)">
       <defs>
        <path id="DejaVuSans-38" d="M 2034 2216 
Q 1584 2216 1326 1975 
Q 1069 1734 1069 1313 
Q 1069 891 1326 650 
Q 1584 409 2034 409 
Q 2484 409 2743 651 
Q 3003 894 3003 1313 
Q 3003 1734 2745 1975 
Q 2488 2216 2034 2216 
z
M 1403 2484 
Q 997 2584 770 2862 
Q 544 3141 544 3541 
Q 544 4100 942 4425 
Q 1341 4750 2034 4750 
Q 2731 4750 3128 4425 
Q 3525 4100 3525 3541 
Q 3525 3141 3298 2862 
Q 3072 2584 2669 2484 
Q 3125 2378 3379 2068 
Q 3634 1759 3634 1313 
Q 3634 634 3220 271 
Q 2806 -91 2034 -91 
Q 1263 -91 848 271 
Q 434 634 434 1313 
Q 434 1759 690 2068 
Q 947 2378 1403 2484 
z
M 1172 3481 
Q 1172 3119 1398 2916 
Q 1625 2713 2034 2713 
Q 2441 2713 2670 2916 
Q 2900 3119 2900 3481 
Q 2900 3844 2670 4047 
Q 2441 4250 2034 4250 
Q 1625 4250 1398 4047 
Q 1172 3844 1172 3481 
z
" transform="scale(0.015625)"/>
       </defs>
       <use xlink:href="#DejaVuSans-38"/>
       <use xlink:href="#DejaVuSans-30" transform="translate(63.623047 0)"/>
       <use xlink:href="#DejaVuSans-30" transform="translate(127.246094 0)"/>
       <use xlink:href="#DejaVuSans-30" transform="translate(190.869141 0)"/>
      </g>
     </g>
    </g>
    <g id="xtick_6">
     <g id="line2d_6">
      <g>
       <use xlink:href="#maecfe19819" x="320.822511" y="320.4" style="stroke: #000000; stroke-width: 0.8"/>
      </g>
     </g>
     <g id="text_6">
      <!-- 10000 -->
      <g transform="translate(304.916261 334.998438) scale(0.1 -0.1)">
       <defs>
        <path id="DejaVuSans-31" d="M 794 531 
L 1825 531 
L 1825 4091 
L 703 3866 
L 703 4441 
L 1819 4666 
L 2450 4666 
L 2450 531 
L 3481 531 
L 3481 0 
L 794 0 
L 794 531 
z
" transform="scale(0.015625)"/>
       </defs>
       <use xlink:href="#DejaVuSans-31"/>
       <use xlink:href="#DejaVuSans-30" transform="translate(63.623047 0)"/>
       <use xlink:href="#DejaVuSans-30" transform="translate(127.246094 0)"/>
       <use xlink:href="#DejaVuSans-30" transform="translate(190.869141 0)"/>
       <use xlink:href="#DejaVuSans-30" transform="translate(254.492188 0)"/>
      </g>
     </g>
    </g>
    <g id="text_7">
     <!-- time -->
     <g transform="translate(203.262869 350.19625) scale(0.12 -0.12)">
      <defs>
       <path id="DejaVuSans-74" d="M 1172 4494 
L 1172 3500 
L 2356 3500 
L 2356 3053 
L 1172 3053 
L 1172 1153 
Q 1172 725 1289 603 
Q 1406 481 1766 481 
L 2356 481 
L 2356 0 
L 1766 0 
Q 1100 0 847 248 
Q 594 497 594 1153 
L 594 3053 
L 172 3053 
L 172 3500 
L 594 3500 
L 594 4494 
L 1172 4494 
z
" transform="scale(0.015625)"/>
       <path id="DejaVuSans-69" d="M 603 3500 
L 1178 3500 
L 1178 0 
L 603 0 
L 603 3500 
z
M 603 4863 
L 1178 4863 
L 1178 4134 
L 603 4134 
L 603 4863 
z
" transform="scale(0.015625)"/>
       <path id="DejaVuSans-6d" d="M 3328 2828 
Q 3544 3216 3844 3400 
Q 4144 3584 4550 3584 
Q 5097 3584 5394 3201 
Q 5691 2819 5691 2113 
L 5691 0 
L 5113 0 
L 5113 2094 
Q 5113 2597 4934 2840 
Q 4756 3084 4391 3084 
Q 3944 3084 3684 2787 
Q 3425 2491 3425 1978 
L 3425 0 
L 2847 0 
L 2847 2094 
Q 2847 2600 2669 2842 
Q 2491 3084 2119 3084 
Q 1678 3084 1418 2786 
Q 1159 2488 1159 1978 
L 1159 0 
L 581 0 
L 581 3500 
L 1159 3500 
L 1159 2956 
Q 1356 3278 1631 3431 
Q 1906 3584 2284 3584 
Q 2666 3584 2933 3390 
Q 3200 3197 3328 2828 
z
" transform="scale(0.015625)"/>
       <path id="DejaVuSans-65" d="M 3597 1894 
L 3597 1613 
L 953 1613 
Q 991 1019 1311 708 
Q 1631 397 2203 397 
Q 2534 397 2845 478 
Q 3156 559 3463 722 
L 3463 178 
Q 3153 47 2828 -22 
Q 2503 -91 2169 -91 
Q 1331 -91 842 396 
Q 353 884 353 1716 
Q 353 2575 817 3079 
Q 1281 3584 2069 3584 
Q 2775 3584 3186 3129 
Q 3597 2675 3597 1894 
z
M 3022 2063 
Q 3016 2534 2758 2815 
Q 2500 3097 2075 3097 
Q 1594 3097 1305 2825 
Q 1016 2553 972 2059 
L 3022 2063 
z
" transform="scale(0.015625)"/>
      </defs>
      <use xlink:href="#DejaVuSans-74"/>
      <use xlink:href="#DejaVuSans-69" transform="translate(39.208984 0)"/>
      <use xlink:href="#DejaVuSans-6d" transform="translate(66.992188 0)"/>
      <use xlink:href="#DejaVuSans-65" transform="translate(164.404297 0)"/>
     </g>
    </g>
   </g>
   <g id="matplotlib.axis_2">
    <g id="ytick_1">
     <g id="line2d_7">
      <defs>
       <path id="meff3423c4a" d="M 0 0 
L -3.5 0 
" style="stroke: #000000; stroke-width: 0.8"/>
      </defs>
      <g>
       <use xlink:href="#meff3423c4a" x="90" y="307.8" style="stroke: #000000; stroke-width: 0.8"/>
      </g>
     </g>
     <g id="text_8">
      <!-- 0.0000 -->
      <g transform="translate(48.009375 311.599219) scale(0.1 -0.1)">
       <defs>
        <path id="DejaVuSans-2e" d="M 684 794 
L 1344 794 
L 1344 0 
L 684 0 
L 684 794 
z
" transform="scale(0.015625)"/>
       </defs>
       <use xlink:href="#DejaVuSans-30"/>
       <use xlink:href="#DejaVuSans-2e" transform="translate(63.623047 0)"/>
       <use xlink:href="#DejaVuSans-30" transform="translate(95.410156 0)"/>
       <use xlink:href="#DejaVuSans-30" transform="translate(159.033203 0)"/>
       <use xlink:href="#DejaVuSans-30" transform="translate(222.65625 0)"/>
       <use xlink:href="#DejaVuSans-30" transform="translate(286.279297 0)"/>
      </g>
     </g>
    </g>
    <g id="ytick_2">
     <g id="line2d_8">
      <g>
       <use xlink:href="#meff3423c4a" x="90" y="272.085362" style="stroke: #000000; stroke-width: 0.8"/>
      </g>
     </g>
     <g id="text_9">
      <!-- 0.0001 -->
      <g transform="translate(48.009375 275.884581) scale(0.1 -0.1)">
       <use xlink:href="#DejaVuSans-30"/>
       <use xlink:href="#DejaVuSans-2e" transform="translate(63.623047 0)"/>
       <use xlink:href="#DejaVuSans-30" transform="translate(95.410156 0)"/>
       <use xlink:href="#DejaVuSans-30" transform="translate(159.033203 0)"/>
       <use xlink:href="#DejaVuSans-30" transform="translate(222.65625 0)"/>
       <use xlink:href="#DejaVuSans-31" transform="translate(286.279297 0)"/>
      </g>
     </g>
    </g>
    <g id="ytick_3">
     <g id="line2d_9">
      <g>
       <use xlink:href="#meff3423c4a" x="90" y="236.370724" style="stroke: #000000; stroke-width: 0.8"/>
      </g>
     </g>
     <g id="text_10">
      <!-- 0.0002 -->
      <g transform="translate(48.009375 240.169942) scale(0.1 -0.1)">
       <use xlink:href="#DejaVuSans-30"/>
       <use xlink:href="#DejaVuSans-2e" transform="translate(63.623047 0)"/>
       <use xlink:href="#DejaVuSans-30" transform="translate(95.410156 0)"/>
       <use xlink:href="#DejaVuSans-30" transform="translate(159.033203 0)"/>
       <use xlink:href="#DejaVuSans-30" transform="translate(222.65625 0)"/>
       <use xlink:href="#DejaVuSans-32" transform="translate(286.279297 0)"/>
      </g>
     </g>
    </g>
    <g id="ytick_4">
     <g id="line2d_10">
      <g>
       <use xlink:href="#meff3423c4a" x="90" y="200.656085" style="stroke: #000000; stroke-width: 0.8"/>
      </g>
     </g>
     <g id="text_11">
      <!-- 0.0003 -->
      <g transform="translate(48.009375 204.455304) scale(0.1 -0.1)">
       <defs>
        <path id="DejaVuSans-33" d="M 2597 2516 
Q 3050 2419 3304 2112 
Q 3559 1806 3559 1356 
Q 3559 666 3084 287 
Q 2609 -91 1734 -91 
Q 1441 -91 1130 -33 
Q 819 25 488 141 
L 488 750 
Q 750 597 1062 519 
Q 1375 441 1716 441 
Q 2309 441 2620 675 
Q 2931 909 2931 1356 
Q 2931 1769 2642 2001 
Q 2353 2234 1838 2234 
L 1294 2234 
L 1294 2753 
L 1863 2753 
Q 2328 2753 2575 2939 
Q 2822 3125 2822 3475 
Q 2822 3834 2567 4026 
Q 2313 4219 1838 4219 
Q 1578 4219 1281 4162 
Q 984 4106 628 3988 
L 628 4550 
Q 988 4650 1302 4700 
Q 1616 4750 1894 4750 
Q 2613 4750 3031 4423 
Q 3450 4097 3450 3541 
Q 3450 3153 3228 2886 
Q 3006 2619 2597 2516 
z
" transform="scale(0.015625)"/>
       </defs>
       <use xlink:href="#DejaVuSans-30"/>
       <use xlink:href="#DejaVuSans-2e" transform="translate(63.623047 0)"/>
       <use xlink:href="#DejaVuSans-30" transform="translate(95.410156 0)"/>
       <use xlink:href="#DejaVuSans-30" transform="translate(159.033203 0)"/>
       <use xlink:href="#DejaVuSans-30" transform="translate(222.65625 0)"/>
       <use xlink:href="#DejaVuSans-33" transform="translate(286.279297 0)"/>
      </g>
     </g>
    </g>
    <g id="ytick_5">
     <g id="line2d_11">
      <g>
       <use xlink:href="#meff3423c4a" x="90" y="164.941447" style="stroke: #000000; stroke-width: 0.8"/>
      </g>
     </g>
     <g id="text_12">
      <!-- 0.0004 -->
      <g transform="translate(48.009375 168.740666) scale(0.1 -0.1)">
       <use xlink:href="#DejaVuSans-30"/>
       <use xlink:href="#DejaVuSans-2e" transform="translate(63.623047 0)"/>
       <use xlink:href="#DejaVuSans-30" transform="translate(95.410156 0)"/>
       <use xlink:href="#DejaVuSans-30" transform="translate(159.033203 0)"/>
       <use xlink:href="#DejaVuSans-30" transform="translate(222.65625 0)"/>
       <use xlink:href="#DejaVuSans-34" transform="translate(286.279297 0)"/>
      </g>
     </g>
    </g>
    <g id="ytick_6">
     <g id="line2d_12">
      <g>
       <use xlink:href="#meff3423c4a" x="90" y="129.226809" style="stroke: #000000; stroke-width: 0.8"/>
      </g>
     </g>
     <g id="text_13">
      <!-- 0.0005 -->
      <g transform="translate(48.009375 133.026028) scale(0.1 -0.1)">
       <defs>
        <path id="DejaVuSans-35" d="M 691 4666 
L 3169 4666 
L 3169 4134 
L 1269 4134 
L 1269 2991 
Q 1406 3038 1543 3061 
Q 1681 3084 1819 3084 
Q 2600 3084 3056 2656 
Q 3513 2228 3513 1497 
Q 3513 744 3044 326 
Q 2575 -91 1722 -91 
Q 1428 -91 1123 -41 
Q 819 9 494 109 
L 494 744 
Q 775 591 1075 516 
Q 1375 441 1709 441 
Q 2250 441 2565 725 
Q 2881 1009 2881 1497 
Q 2881 1984 2565 2268 
Q 2250 2553 1709 2553 
Q 1456 2553 1204 2497 
Q 953 2441 691 2322 
L 691 4666 
z
" transform="scale(0.015625)"/>
       </defs>
       <use xlink:href="#DejaVuSans-30"/>
       <use xlink:href="#DejaVuSans-2e" transform="translate(63.623047 0)"/>
       <use xlink:href="#DejaVuSans-30" transform="translate(95.410156 0)"/>
       <use xlink:href="#DejaVuSans-30" transform="translate(159.033203 0)"/>
       <use xlink:href="#DejaVuSans-30" transform="translate(222.65625 0)"/>
       <use xlink:href="#DejaVuSans-35" transform="translate(286.279297 0)"/>
      </g>
     </g>
    </g>
    <g id="ytick_7">
     <g id="line2d_13">
      <g>
       <use xlink:href="#meff3423c4a" x="90" y="93.512171" style="stroke: #000000; stroke-width: 0.8"/>
      </g>
     </g>
     <g id="text_14">
      <!-- 0.0006 -->
      <g transform="translate(48.009375 97.311389) scale(0.1 -0.1)">
       <use xlink:href="#DejaVuSans-30"/>
       <use xlink:href="#DejaVuSans-2e" transform="translate(63.623047 0)"/>
       <use xlink:href="#DejaVuSans-30" transform="translate(95.410156 0)"/>
       <use xlink:href="#DejaVuSans-30" transform="translate(159.033203 0)"/>
       <use xlink:href="#DejaVuSans-30" transform="translate(222.65625 0)"/>
       <use xlink:href="#DejaVuSans-36" transform="translate(286.279297 0)"/>
      </g>
     </g>
    </g>
    <g id="ytick_8">
     <g id="line2d_14">
      <g>
       <use xlink:href="#meff3423c4a" x="90" y="57.797533" style="stroke: #000000; stroke-width: 0.8"/>
      </g>
     </g>
     <g id="text_15">
      <!-- 0.0007 -->
      <g transform="translate(48.009375 61.596751) scale(0.1 -0.1)">
       <defs>
        <path id="DejaVuSans-37" d="M 525 4666 
L 3525 4666 
L 3525 4397 
L 1831 0 
L 1172 0 
L 2766 4134 
L 525 4134 
L 525 4666 
z
" transform="scale(0.015625)"/>
       </defs>
       <use xlink:href="#DejaVuSans-30"/>
       <use xlink:href="#DejaVuSans-2e" transform="translate(63.623047 0)"/>
       <use xlink:href="#DejaVuSans-30" transform="translate(95.410156 0)"/>
       <use xlink:href="#DejaVuSans-30" transform="translate(159.033203 0)"/>
       <use xlink:href="#DejaVuSans-30" transform="translate(222.65625 0)"/>
       <use xlink:href="#DejaVuSans-37" transform="translate(286.279297 0)"/>
      </g>
     </g>
    </g>
    <g id="text_16">
     <!-- [Cve_api] -->
     <g transform="translate(41.18 210.0675) rotate(-90) scale(0.12 -0.12)">
      <defs>
       <path id="DejaVuSans-5b" d="M 550 4863 
L 1875 4863 
L 1875 4416 
L 1125 4416 
L 1125 -397 
L 1875 -397 
L 1875 -844 
L 550 -844 
L 550 4863 
z
" transform="scale(0.015625)"/>
       <path id="DejaVuSans-43" d="M 4122 4306 
L 4122 3641 
Q 3803 3938 3442 4084 
Q 3081 4231 2675 4231 
Q 1875 4231 1450 3742 
Q 1025 3253 1025 2328 
Q 1025 1406 1450 917 
Q 1875 428 2675 428 
Q 3081 428 3442 575 
Q 3803 722 4122 1019 
L 4122 359 
Q 3791 134 3420 21 
Q 3050 -91 2638 -91 
Q 1578 -91 968 557 
Q 359 1206 359 2328 
Q 359 3453 968 4101 
Q 1578 4750 2638 4750 
Q 3056 4750 3426 4639 
Q 3797 4528 4122 4306 
z
" transform="scale(0.015625)"/>
       <path id="DejaVuSans-76" d="M 191 3500 
L 800 3500 
L 1894 563 
L 2988 3500 
L 3597 3500 
L 2284 0 
L 1503 0 
L 191 3500 
z
" transform="scale(0.015625)"/>
       <path id="DejaVuSans-5f" d="M 3263 -1063 
L 3263 -1509 
L -63 -1509 
L -63 -1063 
L 3263 -1063 
z
" transform="scale(0.015625)"/>
       <path id="DejaVuSans-61" d="M 2194 1759 
Q 1497 1759 1228 1600 
Q 959 1441 959 1056 
Q 959 750 1161 570 
Q 1363 391 1709 391 
Q 2188 391 2477 730 
Q 2766 1069 2766 1631 
L 2766 1759 
L 2194 1759 
z
M 3341 1997 
L 3341 0 
L 2766 0 
L 2766 531 
Q 2569 213 2275 61 
Q 1981 -91 1556 -91 
Q 1019 -91 701 211 
Q 384 513 384 1019 
Q 384 1609 779 1909 
Q 1175 2209 1959 2209 
L 2766 2209 
L 2766 2266 
Q 2766 2663 2505 2880 
Q 2244 3097 1772 3097 
Q 1472 3097 1187 3025 
Q 903 2953 641 2809 
L 641 3341 
Q 956 3463 1253 3523 
Q 1550 3584 1831 3584 
Q 2591 3584 2966 3190 
Q 3341 2797 3341 1997 
z
" transform="scale(0.015625)"/>
       <path id="DejaVuSans-70" d="M 1159 525 
L 1159 -1331 
L 581 -1331 
L 581 3500 
L 1159 3500 
L 1159 2969 
Q 1341 3281 1617 3432 
Q 1894 3584 2278 3584 
Q 2916 3584 3314 3078 
Q 3713 2572 3713 1747 
Q 3713 922 3314 415 
Q 2916 -91 2278 -91 
Q 1894 -91 1617 61 
Q 1341 213 1159 525 
z
M 3116 1747 
Q 3116 2381 2855 2742 
Q 2594 3103 2138 3103 
Q 1681 3103 1420 2742 
Q 1159 2381 1159 1747 
Q 1159 1113 1420 752 
Q 1681 391 2138 391 
Q 2594 391 2855 752 
Q 3116 1113 3116 1747 
z
" transform="scale(0.015625)"/>
       <path id="DejaVuSans-5d" d="M 1947 4863 
L 1947 -844 
L 622 -844 
L 622 -397 
L 1369 -397 
L 1369 4416 
L 622 4416 
L 622 4863 
L 1947 4863 
z
" transform="scale(0.015625)"/>
      </defs>
      <use xlink:href="#DejaVuSans-5b"/>
      <use xlink:href="#DejaVuSans-43" transform="translate(39.013672 0)"/>
      <use xlink:href="#DejaVuSans-76" transform="translate(108.837891 0)"/>
      <use xlink:href="#DejaVuSans-65" transform="translate(168.017578 0)"/>
      <use xlink:href="#DejaVuSans-5f" transform="translate(229.541016 0)"/>
      <use xlink:href="#DejaVuSans-61" transform="translate(279.541016 0)"/>
      <use xlink:href="#DejaVuSans-70" transform="translate(340.820312 0)"/>
      <use xlink:href="#DejaVuSans-69" transform="translate(404.296875 0)"/>
      <use xlink:href="#DejaVuSans-5d" transform="translate(432.080078 0)"/>
     </g>
    </g>
   </g>
   <g id="line2d_15">
    <defs>
     <path id="m7370c20aa6" d="M -5 5 
L 5 5 
L 5 -5 
L -5 -5 
z
" style="stroke: #000000; stroke-linejoin: miter"/>
    </defs>
    <g clip-path="url(#pee2c3f07c6)">
     <use xlink:href="#m7370c20aa6" x="111.136364" y="307.8" style="stroke: #000000; stroke-linejoin: miter"/>
     <use xlink:href="#m7370c20aa6" x="112.394481" y="223.522781" style="stroke: #000000; stroke-linejoin: miter"/>
     <use xlink:href="#m7370c20aa6" x="113.652597" y="147.670952" style="stroke: #000000; stroke-linejoin: miter"/>
     <use xlink:href="#m7370c20aa6" x="114.910714" y="139.237789" style="stroke: #000000; stroke-linejoin: miter"/>
     <use xlink:href="#m7370c20aa6" x="116.168831" y="126.599704" style="stroke: #000000; stroke-linejoin: miter"/>
     <use xlink:href="#m7370c20aa6" x="118.685065" y="177.16759" style="stroke: #000000; stroke-linejoin: miter"/>
     <use xlink:href="#m7370c20aa6" x="122.459416" y="227.735476" style="stroke: #000000; stroke-linejoin: miter"/>
     <use xlink:href="#m7370c20aa6" x="126.233766" y="248.806724" style="stroke: #000000; stroke-linejoin: miter"/>
     <use xlink:href="#m7370c20aa6" x="127.491883" y="189.805675" style="stroke: #000000; stroke-linejoin: miter"/>
     <use xlink:href="#m7370c20aa6" x="128.75" y="156.096342" style="stroke: #000000; stroke-linejoin: miter"/>
     <use xlink:href="#m7370c20aa6" x="130.008117" y="151.883647" style="stroke: #000000; stroke-linejoin: miter"/>
     <use xlink:href="#m7370c20aa6" x="131.266234" y="168.734427" style="stroke: #000000; stroke-linejoin: miter"/>
     <use xlink:href="#m7370c20aa6" x="133.782468" y="198.238838" style="stroke: #000000; stroke-linejoin: miter"/>
     <use xlink:href="#m7370c20aa6" x="137.556818" y="227.735476" style="stroke: #000000; stroke-linejoin: miter"/>
     <use xlink:href="#m7370c20aa6" x="141.331169" y="244.586256" style="stroke: #000000; stroke-linejoin: miter"/>
     <use xlink:href="#m7370c20aa6" x="292.305195" y="212.213793" style="stroke: #000000; stroke-linejoin: miter"/>
     <use xlink:href="#m7370c20aa6" x="293.563312" y="160.075862" style="stroke: #000000; stroke-linejoin: miter"/>
     <use xlink:href="#m7370c20aa6" x="294.821429" y="68.834483" style="stroke: #000000; stroke-linejoin: miter"/>
     <use xlink:href="#m7370c20aa6" x="296.079545" y="55.8" style="stroke: #000000; stroke-linejoin: miter"/>
     <use xlink:href="#m7370c20aa6" x="297.337662" y="60.144828" style="stroke: #000000; stroke-linejoin: miter"/>
     <use xlink:href="#m7370c20aa6" x="299.853896" y="107.937931" style="stroke: #000000; stroke-linejoin: miter"/>
     <use xlink:href="#m7370c20aa6" x="303.628247" y="186.144828" style="stroke: #000000; stroke-linejoin: miter"/>
     <use xlink:href="#m7370c20aa6" x="307.402597" y="216.558621" style="stroke: #000000; stroke-linejoin: miter"/>
     <use xlink:href="#m7370c20aa6" x="308.660714" y="147.041379" style="stroke: #000000; stroke-linejoin: miter"/>
     <use xlink:href="#m7370c20aa6" x="309.918831" y="112.282759" style="stroke: #000000; stroke-linejoin: miter"/>
     <use xlink:href="#m7370c20aa6" x="311.176948" y="125.317241" style="stroke: #000000; stroke-linejoin: miter"/>
     <use xlink:href="#m7370c20aa6" x="312.435065" y="142.696552" style="stroke: #000000; stroke-linejoin: miter"/>
     <use xlink:href="#m7370c20aa6" x="314.951299" y="186.144828" style="stroke: #000000; stroke-linejoin: miter"/>
     <use xlink:href="#m7370c20aa6" x="318.725649" y="220.903448" style="stroke: #000000; stroke-linejoin: miter"/>
     <use xlink:href="#m7370c20aa6" x="322.5" y="229.593103" style="stroke: #000000; stroke-linejoin: miter"/>
    </g>
   </g>
   <g id="line2d_16">
    <path d="M 111.136364 307.8 
L 111.14191 307.696433 
L 111.220767 296.932939 
L 111.693333 246.904143 
L 112.158591 218.087503 
L 112.653486 200.907212 
L 112.912939 195.494823 
L 113.404833 189.617119 
L 113.756887 187.807995 
L 113.932914 187.421406 
L 114.108941 187.303065 
L 114.284968 187.406806 
L 114.637022 188.133217 
L 115.084379 189.763058 
L 115.898371 193.865909 
L 117.797685 205.220976 
L 120.470616 220.82816 
L 122.252571 230.272367 
L 124.365255 240.390304 
L 126.233766 248.375958 
L 126.235652 249.376961 
L 126.335937 237.805101 
L 126.809545 195.358418 
L 127.242441 172.931105 
L 127.632112 161.188322 
L 128.06507 154.174709 
L 128.354653 151.868681 
L 128.717341 150.809755 
L 128.898685 150.844555 
L 129.080029 151.16752 
L 129.442717 152.479604 
L 129.986749 155.572833 
L 130.893469 162.256788 
L 135.936264 201.683478 
L 137.832653 214.338036 
L 140.040636 227.417989 
L 141.331169 234.271739 
L 141.333038 235.217803 
L 141.441412 222.834913 
L 141.893606 182.738846 
L 142.36631 158.901416 
L 142.759082 147.911703 
L 143.121279 142.359941 
L 143.452901 139.895809 
L 143.784522 139.166766 
L 143.950333 139.283079 
L 144.281954 140.227162 
L 144.779386 142.887893 
L 145.608439 149.129173 
L 148.378383 173.453331 
L 150.46264 190.553833 
L 152.30207 204.155373 
L 154.435939 218.21464 
L 156.430491 230.560598 
L 156.443601 229.674644 
L 156.988737 178.461047 
L 157.426435 156.02722 
L 157.88021 143.31744 
L 158.281112 137.745269 
L 158.591259 135.8315 
L 158.746332 135.446619 
L 158.901406 135.365665 
L 159.05648 135.541466 
L 159.211553 135.934044 
L 159.68996 138.175405 
L 160.407571 143.329961 
L 161.842792 156.007109 
L 164.551159 180.01559 
L 166.670803 196.822003 
L 168.642745 210.742179 
L 170.561084 222.785482 
L 171.525974 228.30829 
L 171.527908 229.165688 
L 171.631099 217.423875 
L 172.069527 178.231926 
L 172.516915 154.983835 
L 172.979407 142.016614 
L 173.398729 136.338093 
L 173.678278 134.666611 
L 173.957826 134.181633 
L 174.17679 134.426985 
L 174.614719 136.093907 
L 175.271612 140.426827 
L 176.366433 149.798514 
L 180.006438 182.239553 
L 182.097544 198.61978 
L 184.18865 213.13957 
L 186.279756 225.920084 
L 186.623377 227.85305 
L 186.625314 228.869246 
L 186.728767 217.09364 
L 187.201112 175.648087 
L 187.663361 152.856728 
L 188.097956 141.308162 
L 188.426203 136.685227 
L 188.754451 134.449682 
L 188.918575 133.996992 
L 189.082698 133.893278 
L 189.246822 134.081599 
L 189.575069 135.149976 
L 190.06744 137.965218 
L 190.970427 145.137194 
L 196.587251 193.885901 
L 198.881313 210.32697 
L 200.849348 222.727863 
L 201.720779 227.734266 
L 201.722711 229.324399 
L 201.825915 217.55429 
L 202.257754 178.721787 
L 202.714514 154.859444 
L 203.180081 141.850951 
L 203.605893 136.16252 
L 203.938592 134.378893 
L 204.104942 134.111161 
L 204.271291 134.16959 
L 204.60399 135.057326 
L 205.103038 137.736373 
L 205.934786 144.155532 
L 208.447685 166.992596 
L 210.774885 186.856764 
L 212.627013 201.009452 
L 214.782431 215.659586 
L 216.820123 228.498473 
L 216.83149 227.801488 
L 217.431022 173.111241 
L 217.837174 153.352841 
L 218.234308 142.207616 
L 218.597486 136.697871 
L 218.926708 134.324582 
L 219.091319 133.82286 
L 219.25593 133.680264 
L 219.42054 133.83806 
L 219.749762 134.864895 
L 220.243594 137.651295 
L 221.066648 144.107567 
L 227.088991 196.105094 
L 229.215626 211.162858 
L 231.342262 224.396806 
L 231.915584 227.658627 
L 231.917526 228.438303 
L 232.021358 216.630846 
L 232.475853 176.424195 
L 232.946574 152.83859 
L 233.361034 141.543372 
L 233.730452 136.259986 
L 234.054828 134.122944 
L 234.217016 133.69723 
L 234.379204 133.609693 
L 234.541392 133.805712 
L 234.865768 134.871249 
L 235.352332 137.655004 
L 236.244783 144.739317 
L 241.811196 193.203706 
L 244.094404 209.662873 
L 246.017084 221.872124 
L 247.012987 227.631027 
L 247.014929 228.437747 
L 247.118774 216.627652 
L 247.575061 176.299005 
L 247.958562 156.110489 
L 248.446133 141.777095 
L 248.811811 136.40957 
L 249.055597 134.554062 
L 249.255905 133.79918 
L 249.456214 133.594856 
L 249.656522 133.83339 
L 250.057139 135.306302 
L 250.658064 139.132057 
L 251.659606 147.550281 
L 255.816068 184.527282 
L 257.822484 200.051412 
L 259.836677 213.915294 
L 262.11039 227.637239 
L 262.112294 231.763532 
L 262.22135 219.21214 
L 262.696768 177.356797 
L 263.17091 154.085021 
L 263.531429 144.136874 
L 263.959517 137.881643 
L 264.244909 135.99674 
L 264.530301 135.385878 
L 264.672997 135.448848 
L 264.958389 136.143266 
L 265.243781 137.422678 
L 265.886247 141.678418 
L 266.957022 150.779699 
L 270.728452 184.066403 
L 272.789496 200.002328 
L 274.85054 214.149563 
L 276.396323 223.654884 
L 277.207792 228.286488 
L 277.209688 232.569315 
L 277.318493 220.03439 
L 277.76705 179.901091 
L 278.231374 156.127818 
L 278.643608 144.507341 
L 278.970744 139.418145 
L 279.297879 136.828849 
L 279.625014 136.002364 
L 279.788582 136.079138 
L 280.115717 136.960901 
L 280.575185 139.365254 
L 281.353942 145.190157 
L 282.939115 159.327152 
L 285.608728 182.670418 
L 287.819846 199.842206 
L 289.67701 212.674878 
L 291.803017 225.693308 
L 292.305195 228.502815 
L 292.307122 229.80318 
L 292.410158 218.059218 
L 292.836365 179.624837 
L 293.291222 155.664205 
L 293.781294 142.037326 
L 294.148849 137.023753 
L 294.393885 135.344117 
L 294.589394 134.716056 
L 294.784904 134.590459 
L 294.980413 134.871074 
L 295.371432 136.351769 
L 295.95796 140.079468 
L 296.935507 148.227875 
L 301.035616 184.536631 
L 303.005495 199.772554 
L 305.015495 213.626836 
L 307.291791 227.391245 
L 307.402597 227.999544 
L 307.404505 231.564682 
L 307.513667 219.022408 
L 307.939383 180.586441 
L 308.344275 158.577468 
L 308.800619 144.585817 
L 309.139645 139.041317 
L 309.452622 136.389222 
L 309.765599 135.415828 
L 309.922087 135.402405 
L 310.078575 135.639576 
L 310.475881 137.114917 
L 310.957514 140.058761 
L 311.920782 147.859676 
L 316.604384 188.772121 
L 318.357756 202.004887 
L 320.111127 213.950637 
L 321.864499 224.684395 
L 323.617871 234.293702 
L 325.371243 242.870219 
L 326.845975 249.351329 
L 328.626524 256.364458 
L 330.407073 262.572932 
L 332.187623 268.05998 
L 333.968172 272.902568 
L 335.748721 277.171198 
L 337.529271 280.929974 
L 339.30982 284.236817 
L 341.090369 287.143809 
L 342.870918 289.697584 
L 343.761193 290.855205 
L 343.761193 290.855205 
" clip-path="url(#pee2c3f07c6)" style="fill: none; stroke: #0000ff; stroke-width: 1.5; stroke-linecap: square"/>
   </g>
   <g id="patch_3">
    <path d="M 90 320.4 
L 90 43.2 
" style="fill: none; stroke: #000000; stroke-width: 0.8; stroke-linejoin: miter; stroke-linecap: square"/>
   </g>
   <g id="patch_4">
    <path d="M 343.636364 320.4 
L 343.636364 43.2 
" style="fill: none; stroke: #000000; stroke-width: 0.8; stroke-linejoin: miter; stroke-linecap: square"/>
   </g>
   <g id="patch_5">
    <path d="M 90 320.4 
L 343.636364 320.4 
" style="fill: none; stroke: #000000; stroke-width: 0.8; stroke-linejoin: miter; stroke-linecap: square"/>
   </g>
   <g id="patch_6">
    <path d="M 90 43.2 
L 343.636364 43.2 
" style="fill: none; stroke: #000000; stroke-width: 0.8; stroke-linejoin: miter; stroke-linecap: square"/>
   </g>
   <g id="text_17">
    <!-- Frost2013a fm_apixaban_API10x2 -->
    <g transform="translate(98.433963 37.2) scale(0.14 -0.14)">
     <defs>
      <path id="DejaVuSans-46" d="M 628 4666 
L 3309 4666 
L 3309 4134 
L 1259 4134 
L 1259 2759 
L 3109 2759 
L 3109 2228 
L 1259 2228 
L 1259 0 
L 628 0 
L 628 4666 
z
" transform="scale(0.015625)"/>
      <path id="DejaVuSans-72" d="M 2631 2963 
Q 2534 3019 2420 3045 
Q 2306 3072 2169 3072 
Q 1681 3072 1420 2755 
Q 1159 2438 1159 1844 
L 1159 0 
L 581 0 
L 581 3500 
L 1159 3500 
L 1159 2956 
Q 1341 3275 1631 3429 
Q 1922 3584 2338 3584 
Q 2397 3584 2469 3576 
Q 2541 3569 2628 3553 
L 2631 2963 
z
" transform="scale(0.015625)"/>
      <path id="DejaVuSans-6f" d="M 1959 3097 
Q 1497 3097 1228 2736 
Q 959 2375 959 1747 
Q 959 1119 1226 758 
Q 1494 397 1959 397 
Q 2419 397 2687 759 
Q 2956 1122 2956 1747 
Q 2956 2369 2687 2733 
Q 2419 3097 1959 3097 
z
M 1959 3584 
Q 2709 3584 3137 3096 
Q 3566 2609 3566 1747 
Q 3566 888 3137 398 
Q 2709 -91 1959 -91 
Q 1206 -91 779 398 
Q 353 888 353 1747 
Q 353 2609 779 3096 
Q 1206 3584 1959 3584 
z
" transform="scale(0.015625)"/>
      <path id="DejaVuSans-73" d="M 2834 3397 
L 2834 2853 
Q 2591 2978 2328 3040 
Q 2066 3103 1784 3103 
Q 1356 3103 1142 2972 
Q 928 2841 928 2578 
Q 928 2378 1081 2264 
Q 1234 2150 1697 2047 
L 1894 2003 
Q 2506 1872 2764 1633 
Q 3022 1394 3022 966 
Q 3022 478 2636 193 
Q 2250 -91 1575 -91 
Q 1294 -91 989 -36 
Q 684 19 347 128 
L 347 722 
Q 666 556 975 473 
Q 1284 391 1588 391 
Q 1994 391 2212 530 
Q 2431 669 2431 922 
Q 2431 1156 2273 1281 
Q 2116 1406 1581 1522 
L 1381 1569 
Q 847 1681 609 1914 
Q 372 2147 372 2553 
Q 372 3047 722 3315 
Q 1072 3584 1716 3584 
Q 2034 3584 2315 3537 
Q 2597 3491 2834 3397 
z
" transform="scale(0.015625)"/>
      <path id="DejaVuSans-20" transform="scale(0.015625)"/>
      <path id="DejaVuSans-66" d="M 2375 4863 
L 2375 4384 
L 1825 4384 
Q 1516 4384 1395 4259 
Q 1275 4134 1275 3809 
L 1275 3500 
L 2222 3500 
L 2222 3053 
L 1275 3053 
L 1275 0 
L 697 0 
L 697 3053 
L 147 3053 
L 147 3500 
L 697 3500 
L 697 3744 
Q 697 4328 969 4595 
Q 1241 4863 1831 4863 
L 2375 4863 
z
" transform="scale(0.015625)"/>
      <path id="DejaVuSans-78" d="M 3513 3500 
L 2247 1797 
L 3578 0 
L 2900 0 
L 1881 1375 
L 863 0 
L 184 0 
L 1544 1831 
L 300 3500 
L 978 3500 
L 1906 2253 
L 2834 3500 
L 3513 3500 
z
" transform="scale(0.015625)"/>
      <path id="DejaVuSans-62" d="M 3116 1747 
Q 3116 2381 2855 2742 
Q 2594 3103 2138 3103 
Q 1681 3103 1420 2742 
Q 1159 2381 1159 1747 
Q 1159 1113 1420 752 
Q 1681 391 2138 391 
Q 2594 391 2855 752 
Q 3116 1113 3116 1747 
z
M 1159 2969 
Q 1341 3281 1617 3432 
Q 1894 3584 2278 3584 
Q 2916 3584 3314 3078 
Q 3713 2572 3713 1747 
Q 3713 922 3314 415 
Q 2916 -91 2278 -91 
Q 1894 -91 1617 61 
Q 1341 213 1159 525 
L 1159 0 
L 581 0 
L 581 4863 
L 1159 4863 
L 1159 2969 
z
" transform="scale(0.015625)"/>
      <path id="DejaVuSans-6e" d="M 3513 2113 
L 3513 0 
L 2938 0 
L 2938 2094 
Q 2938 2591 2744 2837 
Q 2550 3084 2163 3084 
Q 1697 3084 1428 2787 
Q 1159 2491 1159 1978 
L 1159 0 
L 581 0 
L 581 3500 
L 1159 3500 
L 1159 2956 
Q 1366 3272 1645 3428 
Q 1925 3584 2291 3584 
Q 2894 3584 3203 3211 
Q 3513 2838 3513 2113 
z
" transform="scale(0.015625)"/>
      <path id="DejaVuSans-41" d="M 2188 4044 
L 1331 1722 
L 3047 1722 
L 2188 4044 
z
M 1831 4666 
L 2547 4666 
L 4325 0 
L 3669 0 
L 3244 1197 
L 1141 1197 
L 716 0 
L 50 0 
L 1831 4666 
z
" transform="scale(0.015625)"/>
      <path id="DejaVuSans-50" d="M 1259 4147 
L 1259 2394 
L 2053 2394 
Q 2494 2394 2734 2622 
Q 2975 2850 2975 3272 
Q 2975 3691 2734 3919 
Q 2494 4147 2053 4147 
L 1259 4147 
z
M 628 4666 
L 2053 4666 
Q 2838 4666 3239 4311 
Q 3641 3956 3641 3272 
Q 3641 2581 3239 2228 
Q 2838 1875 2053 1875 
L 1259 1875 
L 1259 0 
L 628 0 
L 628 4666 
z
" transform="scale(0.015625)"/>
      <path id="DejaVuSans-49" d="M 628 4666 
L 1259 4666 
L 1259 0 
L 628 0 
L 628 4666 
z
" transform="scale(0.015625)"/>
     </defs>
     <use xlink:href="#DejaVuSans-46"/>
     <use xlink:href="#DejaVuSans-72" transform="translate(50.269531 0)"/>
     <use xlink:href="#DejaVuSans-6f" transform="translate(89.132812 0)"/>
     <use xlink:href="#DejaVuSans-73" transform="translate(150.314453 0)"/>
     <use xlink:href="#DejaVuSans-74" transform="translate(202.414062 0)"/>
     <use xlink:href="#DejaVuSans-32" transform="translate(241.623047 0)"/>
     <use xlink:href="#DejaVuSans-30" transform="translate(305.246094 0)"/>
     <use xlink:href="#DejaVuSans-31" transform="translate(368.869141 0)"/>
     <use xlink:href="#DejaVuSans-33" transform="translate(432.492188 0)"/>
     <use xlink:href="#DejaVuSans-61" transform="translate(496.115234 0)"/>
     <use xlink:href="#DejaVuSans-20" transform="translate(557.394531 0)"/>
     <use xlink:href="#DejaVuSans-66" transform="translate(589.181641 0)"/>
     <use xlink:href="#DejaVuSans-6d" transform="translate(624.386719 0)"/>
     <use xlink:href="#DejaVuSans-5f" transform="translate(721.798828 0)"/>
     <use xlink:href="#DejaVuSans-61" transform="translate(771.798828 0)"/>
     <use xlink:href="#DejaVuSans-70" transform="translate(833.078125 0)"/>
     <use xlink:href="#DejaVuSans-69" transform="translate(896.554688 0)"/>
     <use xlink:href="#DejaVuSans-78" transform="translate(924.337891 0)"/>
     <use xlink:href="#DejaVuSans-61" transform="translate(983.517578 0)"/>
     <use xlink:href="#DejaVuSans-62" transform="translate(1044.796875 0)"/>
     <use xlink:href="#DejaVuSans-61" transform="translate(1108.273438 0)"/>
     <use xlink:href="#DejaVuSans-6e" transform="translate(1169.552734 0)"/>
     <use xlink:href="#DejaVuSans-5f" transform="translate(1232.931641 0)"/>
     <use xlink:href="#DejaVuSans-41" transform="translate(1282.931641 0)"/>
     <use xlink:href="#DejaVuSans-50" transform="translate(1351.339844 0)"/>
     <use xlink:href="#DejaVuSans-49" transform="translate(1411.642578 0)"/>
     <use xlink:href="#DejaVuSans-31" transform="translate(1441.134766 0)"/>
     <use xlink:href="#DejaVuSans-30" transform="translate(1504.757812 0)"/>
     <use xlink:href="#DejaVuSans-78" transform="translate(1568.380859 0)"/>
     <use xlink:href="#DejaVuSans-32" transform="translate(1627.560547 0)"/>
    </g>
   </g>
   <g id="legend_1">
    <g id="patch_7">
     <path d="M 97 80.834375 
L 204.265625 80.834375 
Q 206.265625 80.834375 206.265625 78.834375 
L 206.265625 50.2 
Q 206.265625 48.2 204.265625 48.2 
L 97 48.2 
Q 95 48.2 95 50.2 
L 95 78.834375 
Q 95 80.834375 97 80.834375 
z
" style="fill: #ffffff; opacity: 0.8; stroke: #cccccc; stroke-linejoin: miter"/>
    </g>
    <g id="line2d_17">
     <g>
      <use xlink:href="#m7370c20aa6" x="109" y="56.298437" style="stroke: #000000; stroke-linejoin: miter"/>
     </g>
    </g>
    <g id="text_18">
     <!-- reference_data -->
     <g transform="translate(127 59.798437) scale(0.1 -0.1)">
      <defs>
       <path id="DejaVuSans-63" d="M 3122 3366 
L 3122 2828 
Q 2878 2963 2633 3030 
Q 2388 3097 2138 3097 
Q 1578 3097 1268 2742 
Q 959 2388 959 1747 
Q 959 1106 1268 751 
Q 1578 397 2138 397 
Q 2388 397 2633 464 
Q 2878 531 3122 666 
L 3122 134 
Q 2881 22 2623 -34 
Q 2366 -91 2075 -91 
Q 1284 -91 818 406 
Q 353 903 353 1747 
Q 353 2603 823 3093 
Q 1294 3584 2113 3584 
Q 2378 3584 2631 3529 
Q 2884 3475 3122 3366 
z
" transform="scale(0.015625)"/>
       <path id="DejaVuSans-64" d="M 2906 2969 
L 2906 4863 
L 3481 4863 
L 3481 0 
L 2906 0 
L 2906 525 
Q 2725 213 2448 61 
Q 2172 -91 1784 -91 
Q 1150 -91 751 415 
Q 353 922 353 1747 
Q 353 2572 751 3078 
Q 1150 3584 1784 3584 
Q 2172 3584 2448 3432 
Q 2725 3281 2906 2969 
z
M 947 1747 
Q 947 1113 1208 752 
Q 1469 391 1925 391 
Q 2381 391 2643 752 
Q 2906 1113 2906 1747 
Q 2906 2381 2643 2742 
Q 2381 3103 1925 3103 
Q 1469 3103 1208 2742 
Q 947 2381 947 1747 
z
" transform="scale(0.015625)"/>
      </defs>
      <use xlink:href="#DejaVuSans-72"/>
      <use xlink:href="#DejaVuSans-65" transform="translate(38.863281 0)"/>
      <use xlink:href="#DejaVuSans-66" transform="translate(100.386719 0)"/>
      <use xlink:href="#DejaVuSans-65" transform="translate(135.591797 0)"/>
      <use xlink:href="#DejaVuSans-72" transform="translate(197.115234 0)"/>
      <use xlink:href="#DejaVuSans-65" transform="translate(235.978516 0)"/>
      <use xlink:href="#DejaVuSans-6e" transform="translate(297.501953 0)"/>
      <use xlink:href="#DejaVuSans-63" transform="translate(360.880859 0)"/>
      <use xlink:href="#DejaVuSans-65" transform="translate(415.861328 0)"/>
      <use xlink:href="#DejaVuSans-5f" transform="translate(477.384766 0)"/>
      <use xlink:href="#DejaVuSans-64" transform="translate(527.384766 0)"/>
      <use xlink:href="#DejaVuSans-61" transform="translate(590.861328 0)"/>
      <use xlink:href="#DejaVuSans-74" transform="translate(652.140625 0)"/>
      <use xlink:href="#DejaVuSans-61" transform="translate(691.349609 0)"/>
     </g>
    </g>
    <g id="line2d_18">
     <path d="M 99 71.254687 
L 109 71.254687 
L 119 71.254687 
" style="fill: none; stroke: #0000ff; stroke-width: 1.5; stroke-linecap: square"/>
    </g>
    <g id="text_19">
     <!-- observable -->
     <g transform="translate(127 74.754687) scale(0.1 -0.1)">
      <defs>
       <path id="DejaVuSans-6c" d="M 603 4863 
L 1178 4863 
L 1178 0 
L 603 0 
L 603 4863 
z
" transform="scale(0.015625)"/>
      </defs>
      <use xlink:href="#DejaVuSans-6f"/>
      <use xlink:href="#DejaVuSans-62" transform="translate(61.181641 0)"/>
      <use xlink:href="#DejaVuSans-73" transform="translate(124.658203 0)"/>
      <use xlink:href="#DejaVuSans-65" transform="translate(176.757812 0)"/>
      <use xlink:href="#DejaVuSans-72" transform="translate(238.28125 0)"/>
      <use xlink:href="#DejaVuSans-76" transform="translate(279.394531 0)"/>
      <use xlink:href="#DejaVuSans-61" transform="translate(338.574219 0)"/>
      <use xlink:href="#DejaVuSans-62" transform="translate(399.853516 0)"/>
      <use xlink:href="#DejaVuSans-6c" transform="translate(463.330078 0)"/>
      <use xlink:href="#DejaVuSans-65" transform="translate(491.113281 0)"/>
     </g>
    </g>
   </g>
  </g>
  <g id="axes_2">
   <g id="patch_8">
    <path d="M 394.363636 320.4 
L 648 320.4 
L 648 43.2 
L 394.363636 43.2 
z
" style="fill: #ffffff"/>
   </g>
   <g id="matplotlib.axis_3">
    <g id="xtick_7">
     <g id="line2d_19">
      <g>
       <use xlink:href="#maecfe19819" x="415.5" y="320.4" style="stroke: #000000; stroke-width: 0.8"/>
      </g>
     </g>
     <g id="text_20">
      <!-- 0 -->
      <g transform="translate(412.31875 334.998438) scale(0.1 -0.1)">
       <use xlink:href="#DejaVuSans-30"/>
      </g>
     </g>
    </g>
    <g id="xtick_8">
     <g id="line2d_20">
      <g>
       <use xlink:href="#maecfe19819" x="457.437229" y="320.4" style="stroke: #000000; stroke-width: 0.8"/>
      </g>
     </g>
     <g id="text_21">
      <!-- 2000 -->
      <g transform="translate(444.712229 334.998438) scale(0.1 -0.1)">
       <use xlink:href="#DejaVuSans-32"/>
       <use xlink:href="#DejaVuSans-30" transform="translate(63.623047 0)"/>
       <use xlink:href="#DejaVuSans-30" transform="translate(127.246094 0)"/>
       <use xlink:href="#DejaVuSans-30" transform="translate(190.869141 0)"/>
      </g>
     </g>
    </g>
    <g id="xtick_9">
     <g id="line2d_21">
      <g>
       <use xlink:href="#maecfe19819" x="499.374459" y="320.4" style="stroke: #000000; stroke-width: 0.8"/>
      </g>
     </g>
     <g id="text_22">
      <!-- 4000 -->
      <g transform="translate(486.649459 334.998438) scale(0.1 -0.1)">
       <use xlink:href="#DejaVuSans-34"/>
       <use xlink:href="#DejaVuSans-30" transform="translate(63.623047 0)"/>
       <use xlink:href="#DejaVuSans-30" transform="translate(127.246094 0)"/>
       <use xlink:href="#DejaVuSans-30" transform="translate(190.869141 0)"/>
      </g>
     </g>
    </g>
    <g id="xtick_10">
     <g id="line2d_22">
      <g>
       <use xlink:href="#maecfe19819" x="541.311688" y="320.4" style="stroke: #000000; stroke-width: 0.8"/>
      </g>
     </g>
     <g id="text_23">
      <!-- 6000 -->
      <g transform="translate(528.586688 334.998438) scale(0.1 -0.1)">
       <use xlink:href="#DejaVuSans-36"/>
       <use xlink:href="#DejaVuSans-30" transform="translate(63.623047 0)"/>
       <use xlink:href="#DejaVuSans-30" transform="translate(127.246094 0)"/>
       <use xlink:href="#DejaVuSans-30" transform="translate(190.869141 0)"/>
      </g>
     </g>
    </g>
    <g id="xtick_11">
     <g id="line2d_23">
      <g>
       <use xlink:href="#maecfe19819" x="583.248918" y="320.4" style="stroke: #000000; stroke-width: 0.8"/>
      </g>
     </g>
     <g id="text_24">
      <!-- 8000 -->
      <g transform="translate(570.523918 334.998438) scale(0.1 -0.1)">
       <use xlink:href="#DejaVuSans-38"/>
       <use xlink:href="#DejaVuSans-30" transform="translate(63.623047 0)"/>
       <use xlink:href="#DejaVuSans-30" transform="translate(127.246094 0)"/>
       <use xlink:href="#DejaVuSans-30" transform="translate(190.869141 0)"/>
      </g>
     </g>
    </g>
    <g id="xtick_12">
     <g id="line2d_24">
      <g>
       <use xlink:href="#maecfe19819" x="625.186147" y="320.4" style="stroke: #000000; stroke-width: 0.8"/>
      </g>
     </g>
     <g id="text_25">
      <!-- 10000 -->
      <g transform="translate(609.279897 334.998438) scale(0.1 -0.1)">
       <use xlink:href="#DejaVuSans-31"/>
       <use xlink:href="#DejaVuSans-30" transform="translate(63.623047 0)"/>
       <use xlink:href="#DejaVuSans-30" transform="translate(127.246094 0)"/>
       <use xlink:href="#DejaVuSans-30" transform="translate(190.869141 0)"/>
       <use xlink:href="#DejaVuSans-30" transform="translate(254.492188 0)"/>
      </g>
     </g>
    </g>
    <g id="text_26">
     <!-- time -->
     <g transform="translate(507.626506 350.19625) scale(0.12 -0.12)">
      <use xlink:href="#DejaVuSans-74"/>
      <use xlink:href="#DejaVuSans-69" transform="translate(39.208984 0)"/>
      <use xlink:href="#DejaVuSans-6d" transform="translate(66.992188 0)"/>
      <use xlink:href="#DejaVuSans-65" transform="translate(164.404297 0)"/>
     </g>
    </g>
   </g>
   <g id="matplotlib.axis_4">
    <g id="ytick_9">
     <g id="line2d_25">
      <g>
       <use xlink:href="#meff3423c4a" x="394.363636" y="288.897708" style="stroke: #000000; stroke-width: 0.8"/>
      </g>
     </g>
     <g id="text_27">
      <!-- $\mathdefault{10^{-32}}$ -->
      <g transform="translate(359.463636 292.696927) scale(0.1 -0.1)">
       <defs>
        <path id="DejaVuSans-2212" d="M 678 2272 
L 4684 2272 
L 4684 1741 
L 678 1741 
L 678 2272 
z
" transform="scale(0.015625)"/>
       </defs>
       <use xlink:href="#DejaVuSans-31" transform="translate(0 0.765625)"/>
       <use xlink:href="#DejaVuSans-30" transform="translate(63.623047 0.765625)"/>
       <use xlink:href="#DejaVuSans-2212" transform="translate(128.203125 39.046875) scale(0.7)"/>
       <use xlink:href="#DejaVuSans-33" transform="translate(186.855469 39.046875) scale(0.7)"/>
       <use xlink:href="#DejaVuSans-32" transform="translate(231.391602 39.046875) scale(0.7)"/>
      </g>
     </g>
    </g>
    <g id="ytick_10">
     <g id="line2d_26">
      <g>
       <use xlink:href="#meff3423c4a" x="394.363636" y="256.577515" style="stroke: #000000; stroke-width: 0.8"/>
      </g>
     </g>
     <g id="text_28">
      <!-- $\mathdefault{10^{-28}}$ -->
      <g transform="translate(359.463636 260.376734) scale(0.1 -0.1)">
       <use xlink:href="#DejaVuSans-31" transform="translate(0 0.765625)"/>
       <use xlink:href="#DejaVuSans-30" transform="translate(63.623047 0.765625)"/>
       <use xlink:href="#DejaVuSans-2212" transform="translate(128.203125 39.046875) scale(0.7)"/>
       <use xlink:href="#DejaVuSans-32" transform="translate(186.855469 39.046875) scale(0.7)"/>
       <use xlink:href="#DejaVuSans-38" transform="translate(231.391602 39.046875) scale(0.7)"/>
      </g>
     </g>
    </g>
    <g id="ytick_11">
     <g id="line2d_27">
      <g>
       <use xlink:href="#meff3423c4a" x="394.363636" y="224.257323" style="stroke: #000000; stroke-width: 0.8"/>
      </g>
     </g>
     <g id="text_29">
      <!-- $\mathdefault{10^{-24}}$ -->
      <g transform="translate(359.463636 228.056542) scale(0.1 -0.1)">
       <use xlink:href="#DejaVuSans-31" transform="translate(0 0.765625)"/>
       <use xlink:href="#DejaVuSans-30" transform="translate(63.623047 0.765625)"/>
       <use xlink:href="#DejaVuSans-2212" transform="translate(128.203125 39.046875) scale(0.7)"/>
       <use xlink:href="#DejaVuSans-32" transform="translate(186.855469 39.046875) scale(0.7)"/>
       <use xlink:href="#DejaVuSans-34" transform="translate(231.391602 39.046875) scale(0.7)"/>
      </g>
     </g>
    </g>
    <g id="ytick_12">
     <g id="line2d_28">
      <g>
       <use xlink:href="#meff3423c4a" x="394.363636" y="191.93713" style="stroke: #000000; stroke-width: 0.8"/>
      </g>
     </g>
     <g id="text_30">
      <!-- $\mathdefault{10^{-20}}$ -->
      <g transform="translate(359.463636 195.736349) scale(0.1 -0.1)">
       <use xlink:href="#DejaVuSans-31" transform="translate(0 0.765625)"/>
       <use xlink:href="#DejaVuSans-30" transform="translate(63.623047 0.765625)"/>
       <use xlink:href="#DejaVuSans-2212" transform="translate(128.203125 39.046875) scale(0.7)"/>
       <use xlink:href="#DejaVuSans-32" transform="translate(186.855469 39.046875) scale(0.7)"/>
       <use xlink:href="#DejaVuSans-30" transform="translate(231.391602 39.046875) scale(0.7)"/>
      </g>
     </g>
    </g>
    <g id="ytick_13">
     <g id="line2d_29">
      <g>
       <use xlink:href="#meff3423c4a" x="394.363636" y="159.616937" style="stroke: #000000; stroke-width: 0.8"/>
      </g>
     </g>
     <g id="text_31">
      <!-- $\mathdefault{10^{-16}}$ -->
      <g transform="translate(359.463636 163.416156) scale(0.1 -0.1)">
       <use xlink:href="#DejaVuSans-31" transform="translate(0 0.765625)"/>
       <use xlink:href="#DejaVuSans-30" transform="translate(63.623047 0.765625)"/>
       <use xlink:href="#DejaVuSans-2212" transform="translate(128.203125 39.046875) scale(0.7)"/>
       <use xlink:href="#DejaVuSans-31" transform="translate(186.855469 39.046875) scale(0.7)"/>
       <use xlink:href="#DejaVuSans-36" transform="translate(231.391602 39.046875) scale(0.7)"/>
      </g>
     </g>
    </g>
    <g id="ytick_14">
     <g id="line2d_30">
      <g>
       <use xlink:href="#meff3423c4a" x="394.363636" y="127.296745" style="stroke: #000000; stroke-width: 0.8"/>
      </g>
     </g>
     <g id="text_32">
      <!-- $\mathdefault{10^{-12}}$ -->
      <g transform="translate(359.463636 131.095964) scale(0.1 -0.1)">
       <use xlink:href="#DejaVuSans-31" transform="translate(0 0.765625)"/>
       <use xlink:href="#DejaVuSans-30" transform="translate(63.623047 0.765625)"/>
       <use xlink:href="#DejaVuSans-2212" transform="translate(128.203125 39.046875) scale(0.7)"/>
       <use xlink:href="#DejaVuSans-31" transform="translate(186.855469 39.046875) scale(0.7)"/>
       <use xlink:href="#DejaVuSans-32" transform="translate(231.391602 39.046875) scale(0.7)"/>
      </g>
     </g>
    </g>
    <g id="ytick_15">
     <g id="line2d_31">
      <g>
       <use xlink:href="#meff3423c4a" x="394.363636" y="94.976552" style="stroke: #000000; stroke-width: 0.8"/>
      </g>
     </g>
     <g id="text_33">
      <!-- $\mathdefault{10^{-8}}$ -->
      <g transform="translate(363.863636 98.775771) scale(0.1 -0.1)">
       <use xlink:href="#DejaVuSans-31" transform="translate(0 0.765625)"/>
       <use xlink:href="#DejaVuSans-30" transform="translate(63.623047 0.765625)"/>
       <use xlink:href="#DejaVuSans-2212" transform="translate(128.203125 39.046875) scale(0.7)"/>
       <use xlink:href="#DejaVuSans-38" transform="translate(186.855469 39.046875) scale(0.7)"/>
      </g>
     </g>
    </g>
    <g id="ytick_16">
     <g id="line2d_32">
      <g>
       <use xlink:href="#meff3423c4a" x="394.363636" y="62.656359" style="stroke: #000000; stroke-width: 0.8"/>
      </g>
     </g>
     <g id="text_34">
      <!-- $\mathdefault{10^{-4}}$ -->
      <g transform="translate(363.863636 66.455578) scale(0.1 -0.1)">
       <use xlink:href="#DejaVuSans-31" transform="translate(0 0.684375)"/>
       <use xlink:href="#DejaVuSans-30" transform="translate(63.623047 0.684375)"/>
       <use xlink:href="#DejaVuSans-2212" transform="translate(128.203125 38.965625) scale(0.7)"/>
       <use xlink:href="#DejaVuSans-34" transform="translate(186.855469 38.965625) scale(0.7)"/>
      </g>
     </g>
    </g>
    <g id="text_35">
     <!-- [Cve_api] -->
     <g transform="translate(352.634261 210.0675) rotate(-90) scale(0.12 -0.12)">
      <use xlink:href="#DejaVuSans-5b"/>
      <use xlink:href="#DejaVuSans-43" transform="translate(39.013672 0)"/>
      <use xlink:href="#DejaVuSans-76" transform="translate(108.837891 0)"/>
      <use xlink:href="#DejaVuSans-65" transform="translate(168.017578 0)"/>
      <use xlink:href="#DejaVuSans-5f" transform="translate(229.541016 0)"/>
      <use xlink:href="#DejaVuSans-61" transform="translate(279.541016 0)"/>
      <use xlink:href="#DejaVuSans-70" transform="translate(340.820312 0)"/>
      <use xlink:href="#DejaVuSans-69" transform="translate(404.296875 0)"/>
      <use xlink:href="#DejaVuSans-5d" transform="translate(432.080078 0)"/>
     </g>
    </g>
   </g>
   <g id="line2d_33">
    <g clip-path="url(#p65edad1660)">
     <use xlink:href="#m7370c20aa6" x="415.5" y="8110.384332" style="stroke: #000000; stroke-linejoin: miter"/>
     <use xlink:href="#m7370c20aa6" x="416.758117" y="59.643601" style="stroke: #000000; stroke-linejoin: miter"/>
     <use xlink:href="#m7370c20aa6" x="418.016234" y="57.391207" style="stroke: #000000; stroke-linejoin: miter"/>
     <use xlink:href="#m7370c20aa6" x="419.274351" y="57.211102" style="stroke: #000000; stroke-linejoin: miter"/>
     <use xlink:href="#m7370c20aa6" x="420.532468" y="56.957399" style="stroke: #000000; stroke-linejoin: miter"/>
     <use xlink:href="#m7370c20aa6" x="423.048701" y="58.105639" style="stroke: #000000; stroke-linejoin: miter"/>
     <use xlink:href="#m7370c20aa6" x="426.823052" y="59.823544" style="stroke: #000000; stroke-linejoin: miter"/>
     <use xlink:href="#m7370c20aa6" x="430.597403" y="60.895262" style="stroke: #000000; stroke-linejoin: miter"/>
     <use xlink:href="#m7370c20aa6" x="431.855519" y="58.462694" style="stroke: #000000; stroke-linejoin: miter"/>
     <use xlink:href="#m7370c20aa6" x="433.113636" y="57.580879" style="stroke: #000000; stroke-linejoin: miter"/>
     <use xlink:href="#m7370c20aa6" x="434.371753" y="57.484762" style="stroke: #000000; stroke-linejoin: miter"/>
     <use xlink:href="#m7370c20aa6" x="435.62987" y="57.886114" style="stroke: #000000; stroke-linejoin: miter"/>
     <use xlink:href="#m7370c20aa6" x="438.146104" y="58.722908" style="stroke: #000000; stroke-linejoin: miter"/>
     <use xlink:href="#m7370c20aa6" x="441.920455" y="59.823544" style="stroke: #000000; stroke-linejoin: miter"/>
     <use xlink:href="#m7370c20aa6" x="445.694805" y="60.652788" style="stroke: #000000; stroke-linejoin: miter"/>
     <use xlink:href="#m7370c20aa6" x="596.668831" y="59.201743" style="stroke: #000000; stroke-linejoin: miter"/>
     <use xlink:href="#m7370c20aa6" x="597.926948" y="57.67416" style="stroke: #000000; stroke-linejoin: miter"/>
     <use xlink:href="#m7370c20aa6" x="599.185065" y="55.986369" style="stroke: #000000; stroke-linejoin: miter"/>
     <use xlink:href="#m7370c20aa6" x="600.443182" y="55.8" style="stroke: #000000; stroke-linejoin: miter"/>
     <use xlink:href="#m7370c20aa6" x="601.701299" y="55.86103" style="stroke: #000000; stroke-linejoin: miter"/>
     <use xlink:href="#m7370c20aa6" x="604.217532" y="56.61342" style="stroke: #000000; stroke-linejoin: miter"/>
     <use xlink:href="#m7370c20aa6" x="607.991883" y="58.355477" style="stroke: #000000; stroke-linejoin: miter"/>
     <use xlink:href="#m7370c20aa6" x="611.766234" y="59.364988" style="stroke: #000000; stroke-linejoin: miter"/>
     <use xlink:href="#m7370c20aa6" x="613.024351" y="57.377438" style="stroke: #000000; stroke-linejoin: miter"/>
     <use xlink:href="#m7370c20aa6" x="614.282468" y="56.690546" style="stroke: #000000; stroke-linejoin: miter"/>
     <use xlink:href="#m7370c20aa6" x="615.540584" y="56.932651" style="stroke: #000000; stroke-linejoin: miter"/>
     <use xlink:href="#m7370c20aa6" x="616.798701" y="57.283856" style="stroke: #000000; stroke-linejoin: miter"/>
     <use xlink:href="#m7370c20aa6" x="619.314935" y="58.355477" style="stroke: #000000; stroke-linejoin: miter"/>
     <use xlink:href="#m7370c20aa6" x="623.089286" y="59.536198" style="stroke: #000000; stroke-linejoin: miter"/>
     <use xlink:href="#m7370c20aa6" x="626.863636" y="59.905921" style="stroke: #000000; stroke-linejoin: miter"/>
    </g>
   </g>
   <g id="line2d_34">
    <path d="M 415.5 361 
L 415.607654 65.941045 
L 415.834802 62.20182 
L 416.118016 60.52167 
L 416.522227 59.424286 
L 417.017123 58.809431 
L 417.522522 58.527344 
L 418.29655 58.392494 
L 419.448016 58.461427 
L 421.889991 58.897925 
L 428.024663 60.26235 
L 430.605228 60.916716 
L 430.62836 60.761502 
L 430.953399 59.199869 
L 431.346265 58.320319 
L 431.77927 57.840707 
L 432.320467 57.56643 
L 433.080978 57.460675 
L 434.350385 57.56879 
L 437.082118 58.105635 
L 445.140267 59.988097 
L 445.704569 60.150599 
L 445.727489 60.023619 
L 446.066963 58.684818 
L 446.444498 57.95809 
L 446.926333 57.50153 
L 447.484916 57.276709 
L 448.313969 57.212045 
L 449.640454 57.364697 
L 452.74202 58.007256 
L 460.792208 59.913956 
L 460.794128 59.949603 
L 460.894899 59.463722 
L 461.259418 58.323274 
L 461.699316 57.665186 
L 462.243846 57.297077 
L 462.954895 57.140897 
L 464.053597 57.189055 
L 466.206429 57.578815 
L 472.513396 59.029771 
L 475.9009 59.864843 
L 475.923782 59.746155 
L 476.252209 58.527962 
L 476.638513 57.815578 
L 477.12259 57.37899 
L 477.622592 57.180135 
L 478.321462 57.107391 
L 479.635248 57.235943 
L 482.499027 57.818094 
L 490.987013 59.828701 
L 490.98895 59.873591 
L 491.092404 59.385625 
L 491.449384 58.286298 
L 491.853159 57.66939 
L 492.374673 57.291374 
L 492.953963 57.130454 
L 493.938706 57.127018 
L 495.580554 57.383497 
L 500.212557 58.412771 
L 506.095703 59.871843 
L 506.128162 59.701612 
L 506.470248 58.471791 
L 506.863821 57.777023 
L 507.357491 57.355038 
L 507.96953 57.147658 
L 508.801277 57.113834 
L 510.298422 57.315003 
L 513.892975 58.087827 
L 521.193172 59.835138 
L 521.225858 59.665911 
L 521.579204 58.423307 
L 521.97878 57.741075 
L 522.399378 57.37594 
L 522.961123 57.158621 
L 523.784177 57.100454 
L 525.265674 57.284061 
L 528.637053 58.000114 
L 536.291557 59.828209 
L 536.323286 59.663214 
L 536.652402 58.480237 
L 537.023043 57.805632 
L 537.517441 57.361944 
L 538.094089 57.149652 
L 538.905028 57.099801 
L 540.36472 57.282869 
L 543.842208 58.023276 
L 551.388961 59.828177 
L 551.420696 59.663139 
L 551.755856 58.46512 
L 552.166278 57.747899 
L 552.687876 57.321474 
L 553.29734 57.130843 
L 554.220467 57.112362 
L 555.822934 57.349584 
L 560.179704 58.309126 
L 566.474026 59.819241 
L 566.475931 60.004684 
L 566.584986 59.468555 
L 566.942852 58.340098 
L 567.354287 57.703382 
L 567.895065 57.314603 
L 568.608545 57.144271 
L 569.607418 57.173517 
L 571.534814 57.503621 
L 577.153132 58.77985 
L 581.571429 59.847778 
L 581.573325 60.04207 
L 581.682129 59.501277 
L 582.022194 58.401804 
L 582.430117 57.74438 
L 582.924798 57.361269 
L 583.497948 57.182594 
L 584.479354 57.164019 
L 586.301646 57.448131 
L 591.2549 58.555526 
L 596.680094 59.893291 
L 596.710096 59.735221 
L 597.058481 58.477307 
L 597.41359 57.833831 
L 597.899895 57.390394 
L 598.512485 57.165311 
L 599.344049 57.121354 
L 600.908125 57.328861 
L 604.604672 58.12581 
L 611.766234 59.835137 
L 611.768141 59.995519 
L 611.877303 59.461047 
L 612.245177 58.315083 
L 612.65007 57.697809 
L 613.164255 57.324242 
L 613.816258 57.152296 
L 614.839517 57.167184 
L 616.766052 57.491294 
L 622.136935 58.706968 
L 633.880435 61.601706 
L 648.124829 65.272759 
L 648.124829 65.272759 
" clip-path="url(#p65edad1660)" style="fill: none; stroke: #0000ff; stroke-width: 1.5; stroke-linecap: square"/>
   </g>
   <g id="patch_9">
    <path d="M 394.363636 320.4 
L 394.363636 43.2 
" style="fill: none; stroke: #000000; stroke-width: 0.8; stroke-linejoin: miter; stroke-linecap: square"/>
   </g>
   <g id="patch_10">
    <path d="M 648 320.4 
L 648 43.2 
" style="fill: none; stroke: #000000; stroke-width: 0.8; stroke-linejoin: miter; stroke-linecap: square"/>
   </g>
   <g id="patch_11">
    <path d="M 394.363636 320.4 
L 648 320.4 
" style="fill: none; stroke: #000000; stroke-width: 0.8; stroke-linejoin: miter; stroke-linecap: square"/>
   </g>
   <g id="patch_12">
    <path d="M 394.363636 43.2 
L 648 43.2 
" style="fill: none; stroke: #000000; stroke-width: 0.8; stroke-linejoin: miter; stroke-linecap: square"/>
   </g>
   <g id="text_36">
    <!-- Frost2013a fm_apixaban_API10x2 -->
    <g transform="translate(402.797599 37.2) scale(0.14 -0.14)">
     <use xlink:href="#DejaVuSans-46"/>
     <use xlink:href="#DejaVuSans-72" transform="translate(50.269531 0)"/>
     <use xlink:href="#DejaVuSans-6f" transform="translate(89.132812 0)"/>
     <use xlink:href="#DejaVuSans-73" transform="translate(150.314453 0)"/>
     <use xlink:href="#DejaVuSans-74" transform="translate(202.414062 0)"/>
     <use xlink:href="#DejaVuSans-32" transform="translate(241.623047 0)"/>
     <use xlink:href="#DejaVuSans-30" transform="translate(305.246094 0)"/>
     <use xlink:href="#DejaVuSans-31" transform="translate(368.869141 0)"/>
     <use xlink:href="#DejaVuSans-33" transform="translate(432.492188 0)"/>
     <use xlink:href="#DejaVuSans-61" transform="translate(496.115234 0)"/>
     <use xlink:href="#DejaVuSans-20" transform="translate(557.394531 0)"/>
     <use xlink:href="#DejaVuSans-66" transform="translate(589.181641 0)"/>
     <use xlink:href="#DejaVuSans-6d" transform="translate(624.386719 0)"/>
     <use xlink:href="#DejaVuSans-5f" transform="translate(721.798828 0)"/>
     <use xlink:href="#DejaVuSans-61" transform="translate(771.798828 0)"/>
     <use xlink:href="#DejaVuSans-70" transform="translate(833.078125 0)"/>
     <use xlink:href="#DejaVuSans-69" transform="translate(896.554688 0)"/>
     <use xlink:href="#DejaVuSans-78" transform="translate(924.337891 0)"/>
     <use xlink:href="#DejaVuSans-61" transform="translate(983.517578 0)"/>
     <use xlink:href="#DejaVuSans-62" transform="translate(1044.796875 0)"/>
     <use xlink:href="#DejaVuSans-61" transform="translate(1108.273438 0)"/>
     <use xlink:href="#DejaVuSans-6e" transform="translate(1169.552734 0)"/>
     <use xlink:href="#DejaVuSans-5f" transform="translate(1232.931641 0)"/>
     <use xlink:href="#DejaVuSans-41" transform="translate(1282.931641 0)"/>
     <use xlink:href="#DejaVuSans-50" transform="translate(1351.339844 0)"/>
     <use xlink:href="#DejaVuSans-49" transform="translate(1411.642578 0)"/>
     <use xlink:href="#DejaVuSans-31" transform="translate(1441.134766 0)"/>
     <use xlink:href="#DejaVuSans-30" transform="translate(1504.757812 0)"/>
     <use xlink:href="#DejaVuSans-78" transform="translate(1568.380859 0)"/>
     <use xlink:href="#DejaVuSans-32" transform="translate(1627.560547 0)"/>
    </g>
   </g>
   <g id="legend_2">
    <g id="patch_13">
     <path d="M 533.734375 315.4 
L 641 315.4 
Q 643 315.4 643 313.4 
L 643 284.765625 
Q 643 282.765625 641 282.765625 
L 533.734375 282.765625 
Q 531.734375 282.765625 531.734375 284.765625 
L 531.734375 313.4 
Q 531.734375 315.4 533.734375 315.4 
z
" style="fill: #ffffff; opacity: 0.8; stroke: #cccccc; stroke-linejoin: miter"/>
    </g>
    <g id="line2d_35">
     <g>
      <use xlink:href="#m7370c20aa6" x="545.734375" y="290.864062" style="stroke: #000000; stroke-linejoin: miter"/>
     </g>
    </g>
    <g id="text_37">
     <!-- reference_data -->
     <g transform="translate(563.734375 294.364062) scale(0.1 -0.1)">
      <use xlink:href="#DejaVuSans-72"/>
      <use xlink:href="#DejaVuSans-65" transform="translate(38.863281 0)"/>
      <use xlink:href="#DejaVuSans-66" transform="translate(100.386719 0)"/>
      <use xlink:href="#DejaVuSans-65" transform="translate(135.591797 0)"/>
      <use xlink:href="#DejaVuSans-72" transform="translate(197.115234 0)"/>
      <use xlink:href="#DejaVuSans-65" transform="translate(235.978516 0)"/>
      <use xlink:href="#DejaVuSans-6e" transform="translate(297.501953 0)"/>
      <use xlink:href="#DejaVuSans-63" transform="translate(360.880859 0)"/>
      <use xlink:href="#DejaVuSans-65" transform="translate(415.861328 0)"/>
      <use xlink:href="#DejaVuSans-5f" transform="translate(477.384766 0)"/>
      <use xlink:href="#DejaVuSans-64" transform="translate(527.384766 0)"/>
      <use xlink:href="#DejaVuSans-61" transform="translate(590.861328 0)"/>
      <use xlink:href="#DejaVuSans-74" transform="translate(652.140625 0)"/>
      <use xlink:href="#DejaVuSans-61" transform="translate(691.349609 0)"/>
     </g>
    </g>
    <g id="line2d_36">
     <path d="M 535.734375 305.820312 
L 545.734375 305.820312 
L 555.734375 305.820312 
" style="fill: none; stroke: #0000ff; stroke-width: 1.5; stroke-linecap: square"/>
    </g>
    <g id="text_38">
     <!-- observable -->
     <g transform="translate(563.734375 309.320312) scale(0.1 -0.1)">
      <use xlink:href="#DejaVuSans-6f"/>
      <use xlink:href="#DejaVuSans-62" transform="translate(61.181641 0)"/>
      <use xlink:href="#DejaVuSans-73" transform="translate(124.658203 0)"/>
      <use xlink:href="#DejaVuSans-65" transform="translate(176.757812 0)"/>
      <use xlink:href="#DejaVuSans-72" transform="translate(238.28125 0)"/>
      <use xlink:href="#DejaVuSans-76" transform="translate(279.394531 0)"/>
      <use xlink:href="#DejaVuSans-61" transform="translate(338.574219 0)"/>
      <use xlink:href="#DejaVuSans-62" transform="translate(399.853516 0)"/>
      <use xlink:href="#DejaVuSans-6c" transform="translate(463.330078 0)"/>
      <use xlink:href="#DejaVuSans-65" transform="translate(491.113281 0)"/>
     </g>
    </g>
   </g>
  </g>
 </g>
 <defs>
  <clipPath id="pee2c3f07c6">
   <rect x="90" y="43.2" width="253.636364" height="277.2"/>
  </clipPath>
  <clipPath id="p65edad1660">
   <rect x="394.363636" y="43.2" width="253.636364" height="277.2"/>
  </clipPath>
 </defs>
</svg>
