<?xml version="1.0" encoding="utf-8" standalone="no"?>
<!DOCTYPE svg PUBLIC "-//W3C//DTD SVG 1.1//EN"
  "http://www.w3.org/Graphics/SVG/1.1/DTD/svg11.dtd">
<svg xmlns:xlink="http://www.w3.org/1999/xlink" width="720pt" height="360pt" viewBox="0 0 720 360" xmlns="http://www.w3.org/2000/svg" version="1.1">
 <metadata>
  <rdf:RDF xmlns:dc="http://purl.org/dc/elements/1.1/" xmlns:cc="http://creativecommons.org/ns#" xmlns:rdf="http://www.w3.org/1999/02/22-rdf-syntax-ns#">
   <cc:Work>
    <dc:type rdf:resource="http://purl.org/dc/dcmitype/StillImage"/>
    <dc:date>2026-04-14T13:49:15.735039</dc:date>
    <dc:format>image/svg+xml</dc:format>
    <dc:creator>
     <cc:Agent>
      <dc:title>Matplotlib v3.10.7, https://matplotlib.org/</dc:title>
     </cc:Agent>
    </dc:creator>
   </cc:Work>
  </rdf:RDF>
 </metadata>
 <defs>
  <style type="text/css">*{stroke-linejoin: round; stroke-linecap: butt}</style>
 </defs>
 <g id="figure_1">
  <g id="patch_1">
   <path d="M 0 360 
L 720 360 
L 720 0 
L 0 0 
z
" style="fill: #ffffff"/>
  </g>
  <g id="axes_1">
   <g id="patch_2">
    <path d="M 90 320.4 
L 343.636364 320.4 
L 343.636364 43.2 
L 90 43.2 
z
" style="fill: #ffffff"/>
   </g>
   <g id="matplotlib.axis_1">
    <g id="xtick_1">
     <g id="line2d_1">
      <defs>
       <path id="mc53f91dfe4" d="M 0 0 
L 0 3.5 
" style="stroke: #000000; stroke-width: 0.8"/>
      </defs>
      <g>
       <use xlink:href="#mc53f91dfe4" x="111.136364" y="320.4" style="stroke: #000000; stroke-width: 0.8"/>
      </g>
     </g>
     <g id="text_1">
      <!-- 0 -->
      <g transform="translate(107.955114 334.998438) scale(0.1 -0.1)">
       <defs>
        <path id="DejaVuSans-30" d="M 2034 4250 
Q 1547 4250 1301 3770 
Q 1056 3291 1056 2328 
Q 1056 1369 1301 889 
Q 1547 409 2034 409 
Q 2525 409 2770 889 
Q 3016 1369 3016 2328 
Q 3016 3291 2770 3770 
Q 2525 4250 2034 4250 
z
M 2034 4750 
Q 2819 4750 3233 4129 
Q 3647 3509 3647 2328 
Q 3647 1150 3233 529 
Q 2819 -91 2034 -91 
Q 1250 -91 836 529 
Q 422 1150 422 2328 
Q 422 3509 836 4129 
Q 1250 4750 2034 4750 
z
" transform="scale(0.015625)"/>
       </defs>
       <use xlink:href="#DejaVuSans-30"/>
      </g>
     </g>
    </g>
    <g id="xtick_2">
     <g id="line2d_2">
      <g>
       <use xlink:href="#mc53f91dfe4" x="153.073593" y="320.4" style="stroke: #000000; stroke-width: 0.8"/>
      </g>
     </g>
     <g id="text_2">
      <!-- 2000 -->
      <g transform="translate(140.348593 334.998438) scale(0.1 -0.1)">
       <defs>
        <path id="DejaVuSans-32" d="M 1228 531 
L 3431 531 
L 3431 0 
L 469 0 
L 469 531 
Q 828 903 1448 1529 
Q 2069 2156 2228 2338 
Q 2531 2678 2651 2914 
Q 2772 3150 2772 3378 
Q 2772 3750 2511 3984 
Q 2250 4219 1831 4219 
Q 1534 4219 1204 4116 
Q 875 4013 500 3803 
L 500 4441 
Q 881 4594 1212 4672 
Q 1544 4750 1819 4750 
Q 2544 4750 2975 4387 
Q 3406 4025 3406 3419 
Q 3406 3131 3298 2873 
Q 3191 2616 2906 2266 
Q 2828 2175 2409 1742 
Q 1991 1309 1228 531 
z
" transform="scale(0.015625)"/>
       </defs>
       <use xlink:href="#DejaVuSans-32"/>
       <use xlink:href="#DejaVuSans-30" transform="translate(63.623047 0)"/>
       <use xlink:href="#DejaVuSans-30" transform="translate(127.246094 0)"/>
       <use xlink:href="#DejaVuSans-30" transform="translate(190.869141 0)"/>
      </g>
     </g>
    </g>
    <g id="xtick_3">
     <g id="line2d_3">
      <g>
       <use xlink:href="#mc53f91dfe4" x="195.010823" y="320.4" style="stroke: #000000; stroke-width: 0.8"/>
      </g>
     </g>
     <g id="text_3">
      <!-- 4000 -->
      <g transform="translate(182.285823 334.998438) scale(0.1 -0.1)">
       <defs>
        <path id="DejaVuSans-34" d="M 2419 4116 
L 825 1625 
L 2419 1625 
L 2419 4116 
z
M 2253 4666 
L 3047 4666 
L 3047 1625 
L 3713 1625 
L 3713 1100 
L 3047 1100 
L 3047 0 
L 2419 0 
L 2419 1100 
L 313 1100 
L 313 1709 
L 2253 4666 
z
" transform="scale(0.015625)"/>
       </defs>
       <use xlink:href="#DejaVuSans-34"/>
       <use xlink:href="#DejaVuSans-30" transform="translate(63.623047 0)"/>
       <use xlink:href="#DejaVuSans-30" transform="translate(127.246094 0)"/>
       <use xlink:href="#DejaVuSans-30" transform="translate(190.869141 0)"/>
      </g>
     </g>
    </g>
    <g id="xtick_4">
     <g id="line2d_4">
      <g>
       <use xlink:href="#mc53f91dfe4" x="236.948052" y="320.4" style="stroke: #000000; stroke-width: 0.8"/>
      </g>
     </g>
     <g id="text_4">
      <!-- 6000 -->
      <g transform="translate(224.223052 334.998438) scale(0.1 -0.1)">
       <defs>
        <path id="DejaVuSans-36" d="M 2113 2584 
Q 1688 2584 1439 2293 
Q 1191 2003 1191 1497 
Q 1191 994 1439 701 
Q 1688 409 2113 409 
Q 2538 409 2786 701 
Q 3034 994 3034 1497 
Q 3034 2003 2786 2293 
Q 2538 2584 2113 2584 
z
M 3366 4563 
L 3366 3988 
Q 3128 4100 2886 4159 
Q 2644 4219 2406 4219 
Q 1781 4219 1451 3797 
Q 1122 3375 1075 2522 
Q 1259 2794 1537 2939 
Q 1816 3084 2150 3084 
Q 2853 3084 3261 2657 
Q 3669 2231 3669 1497 
Q 3669 778 3244 343 
Q 2819 -91 2113 -91 
Q 1303 -91 875 529 
Q 447 1150 447 2328 
Q 447 3434 972 4092 
Q 1497 4750 2381 4750 
Q 2619 4750 2861 4703 
Q 3103 4656 3366 4563 
z
" transform="scale(0.015625)"/>
       </defs>
       <use xlink:href="#DejaVuSans-36"/>
       <use xlink:href="#DejaVuSans-30" transform="translate(63.623047 0)"/>
       <use xlink:href="#DejaVuSans-30" transform="translate(127.246094 0)"/>
       <use xlink:href="#DejaVuSans-30" transform="translate(190.869141 0)"/>
      </g>
     </g>
    </g>
    <g id="xtick_5">
     <g id="line2d_5">
      <g>
       <use xlink:href="#mc53f91dfe4" x="278.885281" y="320.4" style="stroke: #000000; stroke-width: 0.8"/>
      </g>
     </g>
     <g id="text_5">
      <!-- 8000 -->
      <g transform="translate(266.160281 334.998438) scale(0.1 -0.1)">
       <defs>
        <path id="DejaVuSans-38" d="M 2034 2216 
Q 1584 2216 1326 1975 
Q 1069 1734 1069 1313 
Q 1069 891 1326 650 
Q 1584 409 2034 409 
Q 2484 409 2743 651 
Q 3003 894 3003 1313 
Q 3003 1734 2745 1975 
Q 2488 2216 2034 2216 
z
M 1403 2484 
Q 997 2584 770 2862 
Q 544 3141 544 3541 
Q 544 4100 942 4425 
Q 1341 4750 2034 4750 
Q 2731 4750 3128 4425 
Q 3525 4100 3525 3541 
Q 3525 3141 3298 2862 
Q 3072 2584 2669 2484 
Q 3125 2378 3379 2068 
Q 3634 1759 3634 1313 
Q 3634 634 3220 271 
Q 2806 -91 2034 -91 
Q 1263 -91 848 271 
Q 434 634 434 1313 
Q 434 1759 690 2068 
Q 947 2378 1403 2484 
z
M 1172 3481 
Q 1172 3119 1398 2916 
Q 1625 2713 2034 2713 
Q 2441 2713 2670 2916 
Q 2900 3119 2900 3481 
Q 2900 3844 2670 4047 
Q 2441 4250 2034 4250 
Q 1625 4250 1398 4047 
Q 1172 3844 1172 3481 
z
" transform="scale(0.015625)"/>
       </defs>
       <use xlink:href="#DejaVuSans-38"/>
       <use xlink:href="#DejaVuSans-30" transform="translate(63.623047 0)"/>
       <use xlink:href="#DejaVuSans-30" transform="translate(127.246094 0)"/>
       <use xlink:href="#DejaVuSans-30" transform="translate(190.869141 0)"/>
      </g>
     </g>
    </g>
    <g id="xtick_6">
     <g id="line2d_6">
      <g>
       <use xlink:href="#mc53f91dfe4" x="320.822511" y="320.4" style="stroke: #000000; stroke-width: 0.8"/>
      </g>
     </g>
     <g id="text_6">
      <!-- 10000 -->
      <g transform="translate(304.916261 334.998438) scale(0.1 -0.1)">
       <defs>
        <path id="DejaVuSans-31" d="M 794 531 
L 1825 531 
L 1825 4091 
L 703 3866 
L 703 4441 
L 1819 4666 
L 2450 4666 
L 2450 531 
L 3481 531 
L 3481 0 
L 794 0 
L 794 531 
z
" transform="scale(0.015625)"/>
       </defs>
       <use xlink:href="#DejaVuSans-31"/>
       <use xlink:href="#DejaVuSans-30" transform="translate(63.623047 0)"/>
       <use xlink:href="#DejaVuSans-30" transform="translate(127.246094 0)"/>
       <use xlink:href="#DejaVuSans-30" transform="translate(190.869141 0)"/>
       <use xlink:href="#DejaVuSans-30" transform="translate(254.492188 0)"/>
      </g>
     </g>
    </g>
    <g id="text_7">
     <!-- time -->
     <g transform="translate(203.262869 350.19625) scale(0.12 -0.12)">
      <defs>
       <path id="DejaVuSans-74" d="M 1172 4494 
L 1172 3500 
L 2356 3500 
L 2356 3053 
L 1172 3053 
L 1172 1153 
Q 1172 725 1289 603 
Q 1406 481 1766 481 
L 2356 481 
L 2356 0 
L 1766 0 
Q 1100 0 847 248 
Q 594 497 594 1153 
L 594 3053 
L 172 3053 
L 172 3500 
L 594 3500 
L 594 4494 
L 1172 4494 
z
" transform="scale(0.015625)"/>
       <path id="DejaVuSans-69" d="M 603 3500 
L 1178 3500 
L 1178 0 
L 603 0 
L 603 3500 
z
M 603 4863 
L 1178 4863 
L 1178 4134 
L 603 4134 
L 603 4863 
z
" transform="scale(0.015625)"/>
       <path id="DejaVuSans-6d" d="M 3328 2828 
Q 3544 3216 3844 3400 
Q 4144 3584 4550 3584 
Q 5097 3584 5394 3201 
Q 5691 2819 5691 2113 
L 5691 0 
L 5113 0 
L 5113 2094 
Q 5113 2597 4934 2840 
Q 4756 3084 4391 3084 
Q 3944 3084 3684 2787 
Q 3425 2491 3425 1978 
L 3425 0 
L 2847 0 
L 2847 2094 
Q 2847 2600 2669 2842 
Q 2491 3084 2119 3084 
Q 1678 3084 1418 2786 
Q 1159 2488 1159 1978 
L 1159 0 
L 581 0 
L 581 3500 
L 1159 3500 
L 1159 2956 
Q 1356 3278 1631 3431 
Q 1906 3584 2284 3584 
Q 2666 3584 2933 3390 
Q 3200 3197 3328 2828 
z
" transform="scale(0.015625)"/>
       <path id="DejaVuSans-65" d="M 3597 1894 
L 3597 1613 
L 953 1613 
Q 991 1019 1311 708 
Q 1631 397 2203 397 
Q 2534 397 2845 478 
Q 3156 559 3463 722 
L 3463 178 
Q 3153 47 2828 -22 
Q 2503 -91 2169 -91 
Q 1331 -91 842 396 
Q 353 884 353 1716 
Q 353 2575 817 3079 
Q 1281 3584 2069 3584 
Q 2775 3584 3186 3129 
Q 3597 2675 3597 1894 
z
M 3022 2063 
Q 3016 2534 2758 2815 
Q 2500 3097 2075 3097 
Q 1594 3097 1305 2825 
Q 1016 2553 972 2059 
L 3022 2063 
z
" transform="scale(0.015625)"/>
      </defs>
      <use xlink:href="#DejaVuSans-74"/>
      <use xlink:href="#DejaVuSans-69" transform="translate(39.208984 0)"/>
      <use xlink:href="#DejaVuSans-6d" transform="translate(66.992188 0)"/>
      <use xlink:href="#DejaVuSans-65" transform="translate(164.404297 0)"/>
     </g>
    </g>
   </g>
   <g id="matplotlib.axis_2">
    <g id="ytick_1">
     <g id="line2d_7">
      <defs>
       <path id="mbd73d121a5" d="M 0 0 
L -3.5 0 
" style="stroke: #000000; stroke-width: 0.8"/>
      </defs>
      <g>
       <use xlink:href="#mbd73d121a5" x="90" y="307.8" style="stroke: #000000; stroke-width: 0.8"/>
      </g>
     </g>
     <g id="text_8">
      <!-- 0.0000 -->
      <g transform="translate(48.009375 311.599219) scale(0.1 -0.1)">
       <defs>
        <path id="DejaVuSans-2e" d="M 684 794 
L 1344 794 
L 1344 0 
L 684 0 
L 684 794 
z
" transform="scale(0.015625)"/>
       </defs>
       <use xlink:href="#DejaVuSans-30"/>
       <use xlink:href="#DejaVuSans-2e" transform="translate(63.623047 0)"/>
       <use xlink:href="#DejaVuSans-30" transform="translate(95.410156 0)"/>
       <use xlink:href="#DejaVuSans-30" transform="translate(159.033203 0)"/>
       <use xlink:href="#DejaVuSans-30" transform="translate(222.65625 0)"/>
       <use xlink:href="#DejaVuSans-30" transform="translate(286.279297 0)"/>
      </g>
     </g>
    </g>
    <g id="ytick_2">
     <g id="line2d_8">
      <g>
       <use xlink:href="#mbd73d121a5" x="90" y="251.342662" style="stroke: #000000; stroke-width: 0.8"/>
      </g>
     </g>
     <g id="text_9">
      <!-- 0.0001 -->
      <g transform="translate(48.009375 255.141881) scale(0.1 -0.1)">
       <use xlink:href="#DejaVuSans-30"/>
       <use xlink:href="#DejaVuSans-2e" transform="translate(63.623047 0)"/>
       <use xlink:href="#DejaVuSans-30" transform="translate(95.410156 0)"/>
       <use xlink:href="#DejaVuSans-30" transform="translate(159.033203 0)"/>
       <use xlink:href="#DejaVuSans-30" transform="translate(222.65625 0)"/>
       <use xlink:href="#DejaVuSans-31" transform="translate(286.279297 0)"/>
      </g>
     </g>
    </g>
    <g id="ytick_3">
     <g id="line2d_9">
      <g>
       <use xlink:href="#mbd73d121a5" x="90" y="194.885324" style="stroke: #000000; stroke-width: 0.8"/>
      </g>
     </g>
     <g id="text_10">
      <!-- 0.0002 -->
      <g transform="translate(48.009375 198.684543) scale(0.1 -0.1)">
       <use xlink:href="#DejaVuSans-30"/>
       <use xlink:href="#DejaVuSans-2e" transform="translate(63.623047 0)"/>
       <use xlink:href="#DejaVuSans-30" transform="translate(95.410156 0)"/>
       <use xlink:href="#DejaVuSans-30" transform="translate(159.033203 0)"/>
       <use xlink:href="#DejaVuSans-30" transform="translate(222.65625 0)"/>
       <use xlink:href="#DejaVuSans-32" transform="translate(286.279297 0)"/>
      </g>
     </g>
    </g>
    <g id="ytick_4">
     <g id="line2d_10">
      <g>
       <use xlink:href="#mbd73d121a5" x="90" y="138.427986" style="stroke: #000000; stroke-width: 0.8"/>
      </g>
     </g>
     <g id="text_11">
      <!-- 0.0003 -->
      <g transform="translate(48.009375 142.227205) scale(0.1 -0.1)">
       <defs>
        <path id="DejaVuSans-33" d="M 2597 2516 
Q 3050 2419 3304 2112 
Q 3559 1806 3559 1356 
Q 3559 666 3084 287 
Q 2609 -91 1734 -91 
Q 1441 -91 1130 -33 
Q 819 25 488 141 
L 488 750 
Q 750 597 1062 519 
Q 1375 441 1716 441 
Q 2309 441 2620 675 
Q 2931 909 2931 1356 
Q 2931 1769 2642 2001 
Q 2353 2234 1838 2234 
L 1294 2234 
L 1294 2753 
L 1863 2753 
Q 2328 2753 2575 2939 
Q 2822 3125 2822 3475 
Q 2822 3834 2567 4026 
Q 2313 4219 1838 4219 
Q 1578 4219 1281 4162 
Q 984 4106 628 3988 
L 628 4550 
Q 988 4650 1302 4700 
Q 1616 4750 1894 4750 
Q 2613 4750 3031 4423 
Q 3450 4097 3450 3541 
Q 3450 3153 3228 2886 
Q 3006 2619 2597 2516 
z
" transform="scale(0.015625)"/>
       </defs>
       <use xlink:href="#DejaVuSans-30"/>
       <use xlink:href="#DejaVuSans-2e" transform="translate(63.623047 0)"/>
       <use xlink:href="#DejaVuSans-30" transform="translate(95.410156 0)"/>
       <use xlink:href="#DejaVuSans-30" transform="translate(159.033203 0)"/>
       <use xlink:href="#DejaVuSans-30" transform="translate(222.65625 0)"/>
       <use xlink:href="#DejaVuSans-33" transform="translate(286.279297 0)"/>
      </g>
     </g>
    </g>
    <g id="ytick_5">
     <g id="line2d_11">
      <g>
       <use xlink:href="#mbd73d121a5" x="90" y="81.970648" style="stroke: #000000; stroke-width: 0.8"/>
      </g>
     </g>
     <g id="text_12">
      <!-- 0.0004 -->
      <g transform="translate(48.009375 85.769867) scale(0.1 -0.1)">
       <use xlink:href="#DejaVuSans-30"/>
       <use xlink:href="#DejaVuSans-2e" transform="translate(63.623047 0)"/>
       <use xlink:href="#DejaVuSans-30" transform="translate(95.410156 0)"/>
       <use xlink:href="#DejaVuSans-30" transform="translate(159.033203 0)"/>
       <use xlink:href="#DejaVuSans-30" transform="translate(222.65625 0)"/>
       <use xlink:href="#DejaVuSans-34" transform="translate(286.279297 0)"/>
      </g>
     </g>
    </g>
    <g id="text_13">
     <!-- [Cve_api] -->
     <g transform="translate(41.18 210.0675) rotate(-90) scale(0.12 -0.12)">
      <defs>
       <path id="DejaVuSans-5b" d="M 550 4863 
L 1875 4863 
L 1875 4416 
L 1125 4416 
L 1125 -397 
L 1875 -397 
L 1875 -844 
L 550 -844 
L 550 4863 
z
" transform="scale(0.015625)"/>
       <path id="DejaVuSans-43" d="M 4122 4306 
L 4122 3641 
Q 3803 3938 3442 4084 
Q 3081 4231 2675 4231 
Q 1875 4231 1450 3742 
Q 1025 3253 1025 2328 
Q 1025 1406 1450 917 
Q 1875 428 2675 428 
Q 3081 428 3442 575 
Q 3803 722 4122 1019 
L 4122 359 
Q 3791 134 3420 21 
Q 3050 -91 2638 -91 
Q 1578 -91 968 557 
Q 359 1206 359 2328 
Q 359 3453 968 4101 
Q 1578 4750 2638 4750 
Q 3056 4750 3426 4639 
Q 3797 4528 4122 4306 
z
" transform="scale(0.015625)"/>
       <path id="DejaVuSans-76" d="M 191 3500 
L 800 3500 
L 1894 563 
L 2988 3500 
L 3597 3500 
L 2284 0 
L 1503 0 
L 191 3500 
z
" transform="scale(0.015625)"/>
       <path id="DejaVuSans-5f" d="M 3263 -1063 
L 3263 -1509 
L -63 -1509 
L -63 -1063 
L 3263 -1063 
z
" transform="scale(0.015625)"/>
       <path id="DejaVuSans-61" d="M 2194 1759 
Q 1497 1759 1228 1600 
Q 959 1441 959 1056 
Q 959 750 1161 570 
Q 1363 391 1709 391 
Q 2188 391 2477 730 
Q 2766 1069 2766 1631 
L 2766 1759 
L 2194 1759 
z
M 3341 1997 
L 3341 0 
L 2766 0 
L 2766 531 
Q 2569 213 2275 61 
Q 1981 -91 1556 -91 
Q 1019 -91 701 211 
Q 384 513 384 1019 
Q 384 1609 779 1909 
Q 1175 2209 1959 2209 
L 2766 2209 
L 2766 2266 
Q 2766 2663 2505 2880 
Q 2244 3097 1772 3097 
Q 1472 3097 1187 3025 
Q 903 2953 641 2809 
L 641 3341 
Q 956 3463 1253 3523 
Q 1550 3584 1831 3584 
Q 2591 3584 2966 3190 
Q 3341 2797 3341 1997 
z
" transform="scale(0.015625)"/>
       <path id="DejaVuSans-70" d="M 1159 525 
L 1159 -1331 
L 581 -1331 
L 581 3500 
L 1159 3500 
L 1159 2969 
Q 1341 3281 1617 3432 
Q 1894 3584 2278 3584 
Q 2916 3584 3314 3078 
Q 3713 2572 3713 1747 
Q 3713 922 3314 415 
Q 2916 -91 2278 -91 
Q 1894 -91 1617 61 
Q 1341 213 1159 525 
z
M 3116 1747 
Q 3116 2381 2855 2742 
Q 2594 3103 2138 3103 
Q 1681 3103 1420 2742 
Q 1159 2381 1159 1747 
Q 1159 1113 1420 752 
Q 1681 391 2138 391 
Q 2594 391 2855 752 
Q 3116 1113 3116 1747 
z
" transform="scale(0.015625)"/>
       <path id="DejaVuSans-5d" d="M 1947 4863 
L 1947 -844 
L 622 -844 
L 622 -397 
L 1369 -397 
L 1369 4416 
L 622 4416 
L 622 4863 
L 1947 4863 
z
" transform="scale(0.015625)"/>
      </defs>
      <use xlink:href="#DejaVuSans-5b"/>
      <use xlink:href="#DejaVuSans-43" transform="translate(39.013672 0)"/>
      <use xlink:href="#DejaVuSans-76" transform="translate(108.837891 0)"/>
      <use xlink:href="#DejaVuSans-65" transform="translate(168.017578 0)"/>
      <use xlink:href="#DejaVuSans-5f" transform="translate(229.541016 0)"/>
      <use xlink:href="#DejaVuSans-61" transform="translate(279.541016 0)"/>
      <use xlink:href="#DejaVuSans-70" transform="translate(340.820312 0)"/>
      <use xlink:href="#DejaVuSans-69" transform="translate(404.296875 0)"/>
      <use xlink:href="#DejaVuSans-5d" transform="translate(432.080078 0)"/>
     </g>
    </g>
   </g>
   <g id="line2d_12">
    <defs>
     <path id="m0e974afccf" d="M -5 5 
L 5 5 
L 5 -5 
L -5 -5 
z
" style="stroke: #000000; stroke-linejoin: miter"/>
    </defs>
    <g clip-path="url(#p48bc939de1)">
     <use xlink:href="#m0e974afccf" x="111.136364" y="307.8" style="stroke: #000000; stroke-linejoin: miter"/>
     <use xlink:href="#m0e974afccf" x="112.394481" y="216.448464" style="stroke: #000000; stroke-linejoin: miter"/>
     <use xlink:href="#m0e974afccf" x="113.652597" y="138.759727" style="stroke: #000000; stroke-linejoin: miter"/>
     <use xlink:href="#m0e974afccf" x="114.910714" y="106.433447" style="stroke: #000000; stroke-linejoin: miter"/>
     <use xlink:href="#m0e974afccf" x="116.168831" y="87.880546" style="stroke: #000000; stroke-linejoin: miter"/>
     <use xlink:href="#m0e974afccf" x="118.685065" y="146.279181" style="stroke: #000000; stroke-linejoin: miter"/>
     <use xlink:href="#m0e974afccf" x="122.459416" y="204.272355" style="stroke: #000000; stroke-linejoin: miter"/>
     <use xlink:href="#m0e974afccf" x="126.233766" y="239.5843" style="stroke: #000000; stroke-linejoin: miter"/>
     <use xlink:href="#m0e974afccf" x="141.331169" y="275.817747" style="stroke: #000000; stroke-linejoin: miter"/>
     <use xlink:href="#m0e974afccf" x="292.305195" y="253.099659" style="stroke: #000000; stroke-linejoin: miter"/>
     <use xlink:href="#m0e974afccf" x="293.563312" y="166.159044" style="stroke: #000000; stroke-linejoin: miter"/>
     <use xlink:href="#m0e974afccf" x="294.821429" y="124.802048" style="stroke: #000000; stroke-linejoin: miter"/>
     <use xlink:href="#m0e974afccf" x="296.079545" y="69.855973" style="stroke: #000000; stroke-linejoin: miter"/>
     <use xlink:href="#m0e974afccf" x="297.337662" y="55.8" style="stroke: #000000; stroke-linejoin: miter"/>
     <use xlink:href="#m0e974afccf" x="299.853896" y="95.989761" style="stroke: #000000; stroke-linejoin: miter"/>
     <use xlink:href="#m0e974afccf" x="303.628247" y="167.633447" style="stroke: #000000; stroke-linejoin: miter"/>
     <use xlink:href="#m0e974afccf" x="307.402597" y="202.871672" style="stroke: #000000; stroke-linejoin: miter"/>
     <use xlink:href="#m0e974afccf" x="322.5" y="248.27099" style="stroke: #000000; stroke-linejoin: miter"/>
    </g>
   </g>
   <g id="line2d_13">
    <path d="M 111.136364 307.8 
L 111.140793 307.72681 
L 111.190818 298.434575 
L 111.669924 224.230419 
L 112.142456 180.692804 
L 112.577357 157.046424 
L 113.076694 142.13602 
L 113.613903 135.110562 
L 113.989437 133.641865 
L 114.177204 133.630729 
L 114.364972 133.990748 
L 114.740506 135.569092 
L 115.221182 138.746185 
L 116.099907 146.334118 
L 120.290703 185.396269 
L 122.228313 200.77346 
L 123.870645 212.348289 
L 125.512977 222.708196 
L 127.155309 231.971099 
L 128.797641 240.24725 
L 130.439974 247.636502 
L 132.082306 254.230407 
L 133.724638 260.111558 
L 135.36697 265.354832 
L 137.009302 270.027662 
L 138.651634 274.190764 
L 140.293967 277.898702 
L 141.331169 280.019189 
L 141.3324 281.202257 
L 141.441935 261.370532 
L 141.903044 195.083543 
L 142.382052 154.199849 
L 142.786014 133.93178 
L 143.200274 121.936622 
L 143.466869 117.489779 
L 143.905279 114.013028 
L 144.090482 113.603235 
L 144.275686 113.667558 
L 144.460889 114.123075 
L 144.831297 115.942053 
L 145.386907 120.20737 
L 146.312925 129.383198 
L 150.147725 169.522023 
L 151.904666 185.394444 
L 153.745614 200.155834 
L 155.848182 214.908712 
L 157.950751 227.68268 
L 160.05332 238.730747 
L 162.155888 248.277557 
L 164.258457 256.520922 
L 166.361026 263.634348 
L 168.463594 269.7695 
L 170.566163 275.058575 
L 171.525974 277.214825 
L 171.527306 278.174117 
L 171.636872 258.346678 
L 172.106043 191.297229 
L 172.547432 153.325121 
L 172.972443 131.559545 
L 173.36334 119.998882 
L 173.822182 113.211868 
L 174.128077 111.444156 
L 174.281024 111.161663 
L 174.433972 111.203351 
L 174.739866 112.075313 
L 175.198709 114.820262 
L 175.891542 120.909626 
L 177.529482 138.532744 
L 180.020294 164.794555 
L 181.996234 183.107892 
L 183.614405 196.423172 
L 185.232577 208.358299 
L 186.850748 219.04458 
L 188.46892 228.605524 
L 190.371448 238.560045 
L 192.018943 246.17836 
L 193.666438 252.969187 
L 195.313932 259.020009 
L 196.961427 264.409599 
L 198.608922 269.208766 
L 200.256417 273.481065 
L 201.720779 276.873112 
L 201.722122 277.285647 
L 201.828838 257.992174 
L 202.273359 193.528721 
L 202.709145 154.767784 
L 203.166289 130.853313 
L 203.629071 117.831954 
L 203.937591 113.292291 
L 204.246112 111.049993 
L 204.400373 110.59045 
L 204.554633 110.487166 
L 204.708894 110.687577 
L 205.017415 111.825011 
L 205.480196 114.86674 
L 206.256831 122.039252 
L 208.363341 145.04803 
L 210.490555 167.061681 
L 212.527778 185.629983 
L 214.38502 200.498716 
L 216.242261 213.605301 
L 218.099502 225.145012 
L 219.956744 235.296311 
L 221.813985 244.219868 
L 223.671227 252.059442 
L 225.528468 258.943153 
L 227.390551 264.999617 
L 229.252635 270.311447 
L 231.114718 274.968673 
L 231.915584 276.782254 
L 231.916928 277.079247 
L 232.024139 257.698242 
L 232.488361 191.087958 
L 232.933956 152.570157 
L 233.400928 129.187945 
L 233.863175 116.933275 
L 234.17134 112.73523 
L 234.479505 110.740515 
L 234.633588 110.377611 
L 234.78767 110.35629 
L 234.941753 110.626098 
L 235.249918 111.871604 
L 235.712165 115.01875 
L 236.491176 122.309476 
L 241.8385 177.783057 
L 243.458112 191.660131 
L 245.077725 204.103775 
L 246.697338 215.247458 
L 248.31695 225.218811 
L 249.936563 234.135356 
L 251.588676 242.255235 
L 253.24079 249.492312 
L 254.892903 255.939822 
L 256.545016 261.68178 
L 258.197129 266.79374 
L 259.849243 271.343539 
L 262.111733 277.247675 
L 262.118983 276.808066 
L 263.152511 151.164714 
L 263.627353 128.191376 
L 264.088821 116.517374 
L 264.396465 112.572874 
L 264.70411 110.758242 
L 264.857933 110.464308 
L 265.011755 110.500628 
L 265.3194 111.375719 
L 265.780867 114.148105 
L 266.478701 120.314103 
L 268.133272 138.194671 
L 270.285013 161.137433 
L 272.09914 178.44429 
L 273.738352 192.411229 
L 275.377564 204.917848 
L 277.016777 216.10232 
L 278.655989 226.0962 
L 280.295201 235.02036 
L 281.954597 243.077429 
L 283.613993 250.254558 
L 285.27339 256.645142 
L 286.932786 262.333285 
L 288.592182 267.394567 
L 290.251578 271.896812 
L 292.305195 276.771409 
L 292.306534 277.735295 
L 292.412026 258.656109 
L 292.902426 189.018557 
L 293.367204 150.313966 
L 293.851666 127.568887 
L 294.311305 116.425404 
L 294.617731 112.700508 
L 294.924157 111.033524 
L 295.07737 110.793162 
L 295.230583 110.872344 
L 295.53701 111.807549 
L 295.996649 114.624479 
L 296.76515 121.531436 
L 298.613452 141.613675 
L 300.939665 165.935804 
L 302.938948 184.315641 
L 304.746447 198.959614 
L 306.553947 211.914201 
L 308.361446 223.360759 
L 310.168945 233.466155 
L 311.976445 242.381283 
L 313.783944 250.241687 
L 315.90094 258.269153 
L 317.724933 264.290528 
L 319.548926 269.586037 
L 321.372918 274.241689 
L 323.196911 278.333665 
L 325.020904 281.929355 
L 326.844896 285.088301 
L 328.668889 287.86306 
L 330.492882 290.299983 
L 332.316875 292.439922 
L 334.140867 294.318854 
L 335.96486 295.968454 
L 338.700849 298.072885 
L 341.436838 299.803548 
L 344.172827 301.226644 
L 344.172827 301.226644 
" clip-path="url(#p48bc939de1)" style="fill: none; stroke: #0000ff; stroke-width: 1.5; stroke-linecap: square"/>
   </g>
   <g id="patch_3">
    <path d="M 90 320.4 
L 90 43.2 
" style="fill: none; stroke: #000000; stroke-width: 0.8; stroke-linejoin: miter; stroke-linecap: square"/>
   </g>
   <g id="patch_4">
    <path d="M 343.636364 320.4 
L 343.636364 43.2 
" style="fill: none; stroke: #000000; stroke-width: 0.8; stroke-linejoin: miter; stroke-linecap: square"/>
   </g>
   <g id="patch_5">
    <path d="M 90 320.4 
L 343.636364 320.4 
" style="fill: none; stroke: #000000; stroke-width: 0.8; stroke-linejoin: miter; stroke-linecap: square"/>
   </g>
   <g id="patch_6">
    <path d="M 90 43.2 
L 343.636364 43.2 
" style="fill: none; stroke: #000000; stroke-width: 0.8; stroke-linejoin: miter; stroke-linecap: square"/>
   </g>
   <g id="text_14">
    <!-- Frost2013a fm_apixaban_API10 -->
    <g transform="translate(107.030838 37.2) scale(0.14 -0.14)">
     <defs>
      <path id="DejaVuSans-46" d="M 628 4666 
L 3309 4666 
L 3309 4134 
L 1259 4134 
L 1259 2759 
L 3109 2759 
L 3109 2228 
L 1259 2228 
L 1259 0 
L 628 0 
L 628 4666 
z
" transform="scale(0.015625)"/>
      <path id="DejaVuSans-72" d="M 2631 2963 
Q 2534 3019 2420 3045 
Q 2306 3072 2169 3072 
Q 1681 3072 1420 2755 
Q 1159 2438 1159 1844 
L 1159 0 
L 581 0 
L 581 3500 
L 1159 3500 
L 1159 2956 
Q 1341 3275 1631 3429 
Q 1922 3584 2338 3584 
Q 2397 3584 2469 3576 
Q 2541 3569 2628 3553 
L 2631 2963 
z
" transform="scale(0.015625)"/>
      <path id="DejaVuSans-6f" d="M 1959 3097 
Q 1497 3097 1228 2736 
Q 959 2375 959 1747 
Q 959 1119 1226 758 
Q 1494 397 1959 397 
Q 2419 397 2687 759 
Q 2956 1122 2956 1747 
Q 2956 2369 2687 2733 
Q 2419 3097 1959 3097 
z
M 1959 3584 
Q 2709 3584 3137 3096 
Q 3566 2609 3566 1747 
Q 3566 888 3137 398 
Q 2709 -91 1959 -91 
Q 1206 -91 779 398 
Q 353 888 353 1747 
Q 353 2609 779 3096 
Q 1206 3584 1959 3584 
z
" transform="scale(0.015625)"/>
      <path id="DejaVuSans-73" d="M 2834 3397 
L 2834 2853 
Q 2591 2978 2328 3040 
Q 2066 3103 1784 3103 
Q 1356 3103 1142 2972 
Q 928 2841 928 2578 
Q 928 2378 1081 2264 
Q 1234 2150 1697 2047 
L 1894 2003 
Q 2506 1872 2764 1633 
Q 3022 1394 3022 966 
Q 3022 478 2636 193 
Q 2250 -91 1575 -91 
Q 1294 -91 989 -36 
Q 684 19 347 128 
L 347 722 
Q 666 556 975 473 
Q 1284 391 1588 391 
Q 1994 391 2212 530 
Q 2431 669 2431 922 
Q 2431 1156 2273 1281 
Q 2116 1406 1581 1522 
L 1381 1569 
Q 847 1681 609 1914 
Q 372 2147 372 2553 
Q 372 3047 722 3315 
Q 1072 3584 1716 3584 
Q 2034 3584 2315 3537 
Q 2597 3491 2834 3397 
z
" transform="scale(0.015625)"/>
      <path id="DejaVuSans-20" transform="scale(0.015625)"/>
      <path id="DejaVuSans-66" d="M 2375 4863 
L 2375 4384 
L 1825 4384 
Q 1516 4384 1395 4259 
Q 1275 4134 1275 3809 
L 1275 3500 
L 2222 3500 
L 2222 3053 
L 1275 3053 
L 1275 0 
L 697 0 
L 697 3053 
L 147 3053 
L 147 3500 
L 697 3500 
L 697 3744 
Q 697 4328 969 4595 
Q 1241 4863 1831 4863 
L 2375 4863 
z
" transform="scale(0.015625)"/>
      <path id="DejaVuSans-78" d="M 3513 3500 
L 2247 1797 
L 3578 0 
L 2900 0 
L 1881 1375 
L 863 0 
L 184 0 
L 1544 1831 
L 300 3500 
L 978 3500 
L 1906 2253 
L 2834 3500 
L 3513 3500 
z
" transform="scale(0.015625)"/>
      <path id="DejaVuSans-62" d="M 3116 1747 
Q 3116 2381 2855 2742 
Q 2594 3103 2138 3103 
Q 1681 3103 1420 2742 
Q 1159 2381 1159 1747 
Q 1159 1113 1420 752 
Q 1681 391 2138 391 
Q 2594 391 2855 752 
Q 3116 1113 3116 1747 
z
M 1159 2969 
Q 1341 3281 1617 3432 
Q 1894 3584 2278 3584 
Q 2916 3584 3314 3078 
Q 3713 2572 3713 1747 
Q 3713 922 3314 415 
Q 2916 -91 2278 -91 
Q 1894 -91 1617 61 
Q 1341 213 1159 525 
L 1159 0 
L 581 0 
L 581 4863 
L 1159 4863 
L 1159 2969 
z
" transform="scale(0.015625)"/>
      <path id="DejaVuSans-6e" d="M 3513 2113 
L 3513 0 
L 2938 0 
L 2938 2094 
Q 2938 2591 2744 2837 
Q 2550 3084 2163 3084 
Q 1697 3084 1428 2787 
Q 1159 2491 1159 1978 
L 1159 0 
L 581 0 
L 581 3500 
L 1159 3500 
L 1159 2956 
Q 1366 3272 1645 3428 
Q 1925 3584 2291 3584 
Q 2894 3584 3203 3211 
Q 3513 2838 3513 2113 
z
" transform="scale(0.015625)"/>
      <path id="DejaVuSans-41" d="M 2188 4044 
L 1331 1722 
L 3047 1722 
L 2188 4044 
z
M 1831 4666 
L 2547 4666 
L 4325 0 
L 3669 0 
L 3244 1197 
L 1141 1197 
L 716 0 
L 50 0 
L 1831 4666 
z
" transform="scale(0.015625)"/>
      <path id="DejaVuSans-50" d="M 1259 4147 
L 1259 2394 
L 2053 2394 
Q 2494 2394 2734 2622 
Q 2975 2850 2975 3272 
Q 2975 3691 2734 3919 
Q 2494 4147 2053 4147 
L 1259 4147 
z
M 628 4666 
L 2053 4666 
Q 2838 4666 3239 4311 
Q 3641 3956 3641 3272 
Q 3641 2581 3239 2228 
Q 2838 1875 2053 1875 
L 1259 1875 
L 1259 0 
L 628 0 
L 628 4666 
z
" transform="scale(0.015625)"/>
      <path id="DejaVuSans-49" d="M 628 4666 
L 1259 4666 
L 1259 0 
L 628 0 
L 628 4666 
z
" transform="scale(0.015625)"/>
     </defs>
     <use xlink:href="#DejaVuSans-46"/>
     <use xlink:href="#DejaVuSans-72" transform="translate(50.269531 0)"/>
     <use xlink:href="#DejaVuSans-6f" transform="translate(89.132812 0)"/>
     <use xlink:href="#DejaVuSans-73" transform="translate(150.314453 0)"/>
     <use xlink:href="#DejaVuSans-74" transform="translate(202.414062 0)"/>
     <use xlink:href="#DejaVuSans-32" transform="translate(241.623047 0)"/>
     <use xlink:href="#DejaVuSans-30" transform="translate(305.246094 0)"/>
     <use xlink:href="#DejaVuSans-31" transform="translate(368.869141 0)"/>
     <use xlink:href="#DejaVuSans-33" transform="translate(432.492188 0)"/>
     <use xlink:href="#DejaVuSans-61" transform="translate(496.115234 0)"/>
     <use xlink:href="#DejaVuSans-20" transform="translate(557.394531 0)"/>
     <use xlink:href="#DejaVuSans-66" transform="translate(589.181641 0)"/>
     <use xlink:href="#DejaVuSans-6d" transform="translate(624.386719 0)"/>
     <use xlink:href="#DejaVuSans-5f" transform="translate(721.798828 0)"/>
     <use xlink:href="#DejaVuSans-61" transform="translate(771.798828 0)"/>
     <use xlink:href="#DejaVuSans-70" transform="translate(833.078125 0)"/>
     <use xlink:href="#DejaVuSans-69" transform="translate(896.554688 0)"/>
     <use xlink:href="#DejaVuSans-78" transform="translate(924.337891 0)"/>
     <use xlink:href="#DejaVuSans-61" transform="translate(983.517578 0)"/>
     <use xlink:href="#DejaVuSans-62" transform="translate(1044.796875 0)"/>
     <use xlink:href="#DejaVuSans-61" transform="translate(1108.273438 0)"/>
     <use xlink:href="#DejaVuSans-6e" transform="translate(1169.552734 0)"/>
     <use xlink:href="#DejaVuSans-5f" transform="translate(1232.931641 0)"/>
     <use xlink:href="#DejaVuSans-41" transform="translate(1282.931641 0)"/>
     <use xlink:href="#DejaVuSans-50" transform="translate(1351.339844 0)"/>
     <use xlink:href="#DejaVuSans-49" transform="translate(1411.642578 0)"/>
     <use xlink:href="#DejaVuSans-31" transform="translate(1441.134766 0)"/>
     <use xlink:href="#DejaVuSans-30" transform="translate(1504.757812 0)"/>
    </g>
   </g>
   <g id="legend_1">
    <g id="patch_7">
     <path d="M 97 80.834375 
L 204.265625 80.834375 
Q 206.265625 80.834375 206.265625 78.834375 
L 206.265625 50.2 
Q 206.265625 48.2 204.265625 48.2 
L 97 48.2 
Q 95 48.2 95 50.2 
L 95 78.834375 
Q 95 80.834375 97 80.834375 
z
" style="fill: #ffffff; opacity: 0.8; stroke: #cccccc; stroke-linejoin: miter"/>
    </g>
    <g id="line2d_14">
     <g>
      <use xlink:href="#m0e974afccf" x="109" y="56.298437" style="stroke: #000000; stroke-linejoin: miter"/>
     </g>
    </g>
    <g id="text_15">
     <!-- reference_data -->
     <g transform="translate(127 59.798437) scale(0.1 -0.1)">
      <defs>
       <path id="DejaVuSans-63" d="M 3122 3366 
L 3122 2828 
Q 2878 2963 2633 3030 
Q 2388 3097 2138 3097 
Q 1578 3097 1268 2742 
Q 959 2388 959 1747 
Q 959 1106 1268 751 
Q 1578 397 2138 397 
Q 2388 397 2633 464 
Q 2878 531 3122 666 
L 3122 134 
Q 2881 22 2623 -34 
Q 2366 -91 2075 -91 
Q 1284 -91 818 406 
Q 353 903 353 1747 
Q 353 2603 823 3093 
Q 1294 3584 2113 3584 
Q 2378 3584 2631 3529 
Q 2884 3475 3122 3366 
z
" transform="scale(0.015625)"/>
       <path id="DejaVuSans-64" d="M 2906 2969 
L 2906 4863 
L 3481 4863 
L 3481 0 
L 2906 0 
L 2906 525 
Q 2725 213 2448 61 
Q 2172 -91 1784 -91 
Q 1150 -91 751 415 
Q 353 922 353 1747 
Q 353 2572 751 3078 
Q 1150 3584 1784 3584 
Q 2172 3584 2448 3432 
Q 2725 3281 2906 2969 
z
M 947 1747 
Q 947 1113 1208 752 
Q 1469 391 1925 391 
Q 2381 391 2643 752 
Q 2906 1113 2906 1747 
Q 2906 2381 2643 2742 
Q 2381 3103 1925 3103 
Q 1469 3103 1208 2742 
Q 947 2381 947 1747 
z
" transform="scale(0.015625)"/>
      </defs>
      <use xlink:href="#DejaVuSans-72"/>
      <use xlink:href="#DejaVuSans-65" transform="translate(38.863281 0)"/>
      <use xlink:href="#DejaVuSans-66" transform="translate(100.386719 0)"/>
      <use xlink:href="#DejaVuSans-65" transform="translate(135.591797 0)"/>
      <use xlink:href="#DejaVuSans-72" transform="translate(197.115234 0)"/>
      <use xlink:href="#DejaVuSans-65" transform="translate(235.978516 0)"/>
      <use xlink:href="#DejaVuSans-6e" transform="translate(297.501953 0)"/>
      <use xlink:href="#DejaVuSans-63" transform="translate(360.880859 0)"/>
      <use xlink:href="#DejaVuSans-65" transform="translate(415.861328 0)"/>
      <use xlink:href="#DejaVuSans-5f" transform="translate(477.384766 0)"/>
      <use xlink:href="#DejaVuSans-64" transform="translate(527.384766 0)"/>
      <use xlink:href="#DejaVuSans-61" transform="translate(590.861328 0)"/>
      <use xlink:href="#DejaVuSans-74" transform="translate(652.140625 0)"/>
      <use xlink:href="#DejaVuSans-61" transform="translate(691.349609 0)"/>
     </g>
    </g>
    <g id="line2d_15">
     <path d="M 99 71.254687 
L 109 71.254687 
L 119 71.254687 
" style="fill: none; stroke: #0000ff; stroke-width: 1.5; stroke-linecap: square"/>
    </g>
    <g id="text_16">
     <!-- observable -->
     <g transform="translate(127 74.754687) scale(0.1 -0.1)">
      <defs>
       <path id="DejaVuSans-6c" d="M 603 4863 
L 1178 4863 
L 1178 0 
L 603 0 
L 603 4863 
z
" transform="scale(0.015625)"/>
      </defs>
      <use xlink:href="#DejaVuSans-6f"/>
      <use xlink:href="#DejaVuSans-62" transform="translate(61.181641 0)"/>
      <use xlink:href="#DejaVuSans-73" transform="translate(124.658203 0)"/>
      <use xlink:href="#DejaVuSans-65" transform="translate(176.757812 0)"/>
      <use xlink:href="#DejaVuSans-72" transform="translate(238.28125 0)"/>
      <use xlink:href="#DejaVuSans-76" transform="translate(279.394531 0)"/>
      <use xlink:href="#DejaVuSans-61" transform="translate(338.574219 0)"/>
      <use xlink:href="#DejaVuSans-62" transform="translate(399.853516 0)"/>
      <use xlink:href="#DejaVuSans-6c" transform="translate(463.330078 0)"/>
      <use xlink:href="#DejaVuSans-65" transform="translate(491.113281 0)"/>
     </g>
    </g>
   </g>
  </g>
  <g id="axes_2">
   <g id="patch_8">
    <path d="M 394.363636 320.4 
L 648 320.4 
L 648 43.2 
L 394.363636 43.2 
z
" style="fill: #ffffff"/>
   </g>
   <g id="matplotlib.axis_3">
    <g id="xtick_7">
     <g id="line2d_16">
      <g>
       <use xlink:href="#mc53f91dfe4" x="415.5" y="320.4" style="stroke: #000000; stroke-width: 0.8"/>
      </g>
     </g>
     <g id="text_17">
      <!-- 0 -->
      <g transform="translate(412.31875 334.998438) scale(0.1 -0.1)">
       <use xlink:href="#DejaVuSans-30"/>
      </g>
     </g>
    </g>
    <g id="xtick_8">
     <g id="line2d_17">
      <g>
       <use xlink:href="#mc53f91dfe4" x="457.437229" y="320.4" style="stroke: #000000; stroke-width: 0.8"/>
      </g>
     </g>
     <g id="text_18">
      <!-- 2000 -->
      <g transform="translate(444.712229 334.998438) scale(0.1 -0.1)">
       <use xlink:href="#DejaVuSans-32"/>
       <use xlink:href="#DejaVuSans-30" transform="translate(63.623047 0)"/>
       <use xlink:href="#DejaVuSans-30" transform="translate(127.246094 0)"/>
       <use xlink:href="#DejaVuSans-30" transform="translate(190.869141 0)"/>
      </g>
     </g>
    </g>
    <g id="xtick_9">
     <g id="line2d_18">
      <g>
       <use xlink:href="#mc53f91dfe4" x="499.374459" y="320.4" style="stroke: #000000; stroke-width: 0.8"/>
      </g>
     </g>
     <g id="text_19">
      <!-- 4000 -->
      <g transform="translate(486.649459 334.998438) scale(0.1 -0.1)">
       <use xlink:href="#DejaVuSans-34"/>
       <use xlink:href="#DejaVuSans-30" transform="translate(63.623047 0)"/>
       <use xlink:href="#DejaVuSans-30" transform="translate(127.246094 0)"/>
       <use xlink:href="#DejaVuSans-30" transform="translate(190.869141 0)"/>
      </g>
     </g>
    </g>
    <g id="xtick_10">
     <g id="line2d_19">
      <g>
       <use xlink:href="#mc53f91dfe4" x="541.311688" y="320.4" style="stroke: #000000; stroke-width: 0.8"/>
      </g>
     </g>
     <g id="text_20">
      <!-- 6000 -->
      <g transform="translate(528.586688 334.998438) scale(0.1 -0.1)">
       <use xlink:href="#DejaVuSans-36"/>
       <use xlink:href="#DejaVuSans-30" transform="translate(63.623047 0)"/>
       <use xlink:href="#DejaVuSans-30" transform="translate(127.246094 0)"/>
       <use xlink:href="#DejaVuSans-30" transform="translate(190.869141 0)"/>
      </g>
     </g>
    </g>
    <g id="xtick_11">
     <g id="line2d_20">
      <g>
       <use xlink:href="#mc53f91dfe4" x="583.248918" y="320.4" style="stroke: #000000; stroke-width: 0.8"/>
      </g>
     </g>
     <g id="text_21">
      <!-- 8000 -->
      <g transform="translate(570.523918 334.998438) scale(0.1 -0.1)">
       <use xlink:href="#DejaVuSans-38"/>
       <use xlink:href="#DejaVuSans-30" transform="translate(63.623047 0)"/>
       <use xlink:href="#DejaVuSans-30" transform="translate(127.246094 0)"/>
       <use xlink:href="#DejaVuSans-30" transform="translate(190.869141 0)"/>
      </g>
     </g>
    </g>
    <g id="xtick_12">
     <g id="line2d_21">
      <g>
       <use xlink:href="#mc53f91dfe4" x="625.186147" y="320.4" style="stroke: #000000; stroke-width: 0.8"/>
      </g>
     </g>
     <g id="text_22">
      <!-- 10000 -->
      <g transform="translate(609.279897 334.998438) scale(0.1 -0.1)">
       <use xlink:href="#DejaVuSans-31"/>
       <use xlink:href="#DejaVuSans-30" transform="translate(63.623047 0)"/>
       <use xlink:href="#DejaVuSans-30" transform="translate(127.246094 0)"/>
       <use xlink:href="#DejaVuSans-30" transform="translate(190.869141 0)"/>
       <use xlink:href="#DejaVuSans-30" transform="translate(254.492188 0)"/>
      </g>
     </g>
    </g>
    <g id="text_23">
     <!-- time -->
     <g transform="translate(507.626506 350.19625) scale(0.12 -0.12)">
      <use xlink:href="#DejaVuSans-74"/>
      <use xlink:href="#DejaVuSans-69" transform="translate(39.208984 0)"/>
      <use xlink:href="#DejaVuSans-6d" transform="translate(66.992188 0)"/>
      <use xlink:href="#DejaVuSans-65" transform="translate(164.404297 0)"/>
     </g>
    </g>
   </g>
   <g id="matplotlib.axis_4">
    <g id="ytick_6">
     <g id="line2d_22">
      <g>
       <use xlink:href="#mbd73d121a5" x="394.363636" y="291.538167" style="stroke: #000000; stroke-width: 0.8"/>
      </g>
     </g>
     <g id="text_24">
      <!-- $\mathdefault{10^{-32}}$ -->
      <g transform="translate(359.463636 295.337386) scale(0.1 -0.1)">
       <defs>
        <path id="DejaVuSans-2212" d="M 678 2272 
L 4684 2272 
L 4684 1741 
L 678 1741 
L 678 2272 
z
" transform="scale(0.015625)"/>
       </defs>
       <use xlink:href="#DejaVuSans-31" transform="translate(0 0.765625)"/>
       <use xlink:href="#DejaVuSans-30" transform="translate(63.623047 0.765625)"/>
       <use xlink:href="#DejaVuSans-2212" transform="translate(128.203125 39.046875) scale(0.7)"/>
       <use xlink:href="#DejaVuSans-33" transform="translate(186.855469 39.046875) scale(0.7)"/>
       <use xlink:href="#DejaVuSans-32" transform="translate(231.391602 39.046875) scale(0.7)"/>
      </g>
     </g>
    </g>
    <g id="ytick_7">
     <g id="line2d_23">
      <g>
       <use xlink:href="#mbd73d121a5" x="394.363636" y="258.624967" style="stroke: #000000; stroke-width: 0.8"/>
      </g>
     </g>
     <g id="text_25">
      <!-- $\mathdefault{10^{-28}}$ -->
      <g transform="translate(359.463636 262.424185) scale(0.1 -0.1)">
       <use xlink:href="#DejaVuSans-31" transform="translate(0 0.765625)"/>
       <use xlink:href="#DejaVuSans-30" transform="translate(63.623047 0.765625)"/>
       <use xlink:href="#DejaVuSans-2212" transform="translate(128.203125 39.046875) scale(0.7)"/>
       <use xlink:href="#DejaVuSans-32" transform="translate(186.855469 39.046875) scale(0.7)"/>
       <use xlink:href="#DejaVuSans-38" transform="translate(231.391602 39.046875) scale(0.7)"/>
      </g>
     </g>
    </g>
    <g id="ytick_8">
     <g id="line2d_24">
      <g>
       <use xlink:href="#mbd73d121a5" x="394.363636" y="225.711766" style="stroke: #000000; stroke-width: 0.8"/>
      </g>
     </g>
     <g id="text_26">
      <!-- $\mathdefault{10^{-24}}$ -->
      <g transform="translate(359.463636 229.510985) scale(0.1 -0.1)">
       <use xlink:href="#DejaVuSans-31" transform="translate(0 0.765625)"/>
       <use xlink:href="#DejaVuSans-30" transform="translate(63.623047 0.765625)"/>
       <use xlink:href="#DejaVuSans-2212" transform="translate(128.203125 39.046875) scale(0.7)"/>
       <use xlink:href="#DejaVuSans-32" transform="translate(186.855469 39.046875) scale(0.7)"/>
       <use xlink:href="#DejaVuSans-34" transform="translate(231.391602 39.046875) scale(0.7)"/>
      </g>
     </g>
    </g>
    <g id="ytick_9">
     <g id="line2d_25">
      <g>
       <use xlink:href="#mbd73d121a5" x="394.363636" y="192.798565" style="stroke: #000000; stroke-width: 0.8"/>
      </g>
     </g>
     <g id="text_27">
      <!-- $\mathdefault{10^{-20}}$ -->
      <g transform="translate(359.463636 196.597784) scale(0.1 -0.1)">
       <use xlink:href="#DejaVuSans-31" transform="translate(0 0.765625)"/>
       <use xlink:href="#DejaVuSans-30" transform="translate(63.623047 0.765625)"/>
       <use xlink:href="#DejaVuSans-2212" transform="translate(128.203125 39.046875) scale(0.7)"/>
       <use xlink:href="#DejaVuSans-32" transform="translate(186.855469 39.046875) scale(0.7)"/>
       <use xlink:href="#DejaVuSans-30" transform="translate(231.391602 39.046875) scale(0.7)"/>
      </g>
     </g>
    </g>
    <g id="ytick_10">
     <g id="line2d_26">
      <g>
       <use xlink:href="#mbd73d121a5" x="394.363636" y="159.885365" style="stroke: #000000; stroke-width: 0.8"/>
      </g>
     </g>
     <g id="text_28">
      <!-- $\mathdefault{10^{-16}}$ -->
      <g transform="translate(359.463636 163.684584) scale(0.1 -0.1)">
       <use xlink:href="#DejaVuSans-31" transform="translate(0 0.765625)"/>
       <use xlink:href="#DejaVuSans-30" transform="translate(63.623047 0.765625)"/>
       <use xlink:href="#DejaVuSans-2212" transform="translate(128.203125 39.046875) scale(0.7)"/>
       <use xlink:href="#DejaVuSans-31" transform="translate(186.855469 39.046875) scale(0.7)"/>
       <use xlink:href="#DejaVuSans-36" transform="translate(231.391602 39.046875) scale(0.7)"/>
      </g>
     </g>
    </g>
    <g id="ytick_11">
     <g id="line2d_27">
      <g>
       <use xlink:href="#mbd73d121a5" x="394.363636" y="126.972164" style="stroke: #000000; stroke-width: 0.8"/>
      </g>
     </g>
     <g id="text_29">
      <!-- $\mathdefault{10^{-12}}$ -->
      <g transform="translate(359.463636 130.771383) scale(0.1 -0.1)">
       <use xlink:href="#DejaVuSans-31" transform="translate(0 0.765625)"/>
       <use xlink:href="#DejaVuSans-30" transform="translate(63.623047 0.765625)"/>
       <use xlink:href="#DejaVuSans-2212" transform="translate(128.203125 39.046875) scale(0.7)"/>
       <use xlink:href="#DejaVuSans-31" transform="translate(186.855469 39.046875) scale(0.7)"/>
       <use xlink:href="#DejaVuSans-32" transform="translate(231.391602 39.046875) scale(0.7)"/>
      </g>
     </g>
    </g>
    <g id="ytick_12">
     <g id="line2d_28">
      <g>
       <use xlink:href="#mbd73d121a5" x="394.363636" y="94.058964" style="stroke: #000000; stroke-width: 0.8"/>
      </g>
     </g>
     <g id="text_30">
      <!-- $\mathdefault{10^{-8}}$ -->
      <g transform="translate(363.863636 97.858183) scale(0.1 -0.1)">
       <use xlink:href="#DejaVuSans-31" transform="translate(0 0.765625)"/>
       <use xlink:href="#DejaVuSans-30" transform="translate(63.623047 0.765625)"/>
       <use xlink:href="#DejaVuSans-2212" transform="translate(128.203125 39.046875) scale(0.7)"/>
       <use xlink:href="#DejaVuSans-38" transform="translate(186.855469 39.046875) scale(0.7)"/>
      </g>
     </g>
    </g>
    <g id="ytick_13">
     <g id="line2d_29">
      <g>
       <use xlink:href="#mbd73d121a5" x="394.363636" y="61.145763" style="stroke: #000000; stroke-width: 0.8"/>
      </g>
     </g>
     <g id="text_31">
      <!-- $\mathdefault{10^{-4}}$ -->
      <g transform="translate(363.863636 64.944982) scale(0.1 -0.1)">
       <use xlink:href="#DejaVuSans-31" transform="translate(0 0.684375)"/>
       <use xlink:href="#DejaVuSans-30" transform="translate(63.623047 0.684375)"/>
       <use xlink:href="#DejaVuSans-2212" transform="translate(128.203125 38.965625) scale(0.7)"/>
       <use xlink:href="#DejaVuSans-34" transform="translate(186.855469 38.965625) scale(0.7)"/>
      </g>
     </g>
    </g>
    <g id="text_32">
     <!-- [Cve_api] -->
     <g transform="translate(352.634261 210.0675) rotate(-90) scale(0.12 -0.12)">
      <use xlink:href="#DejaVuSans-5b"/>
      <use xlink:href="#DejaVuSans-43" transform="translate(39.013672 0)"/>
      <use xlink:href="#DejaVuSans-76" transform="translate(108.837891 0)"/>
      <use xlink:href="#DejaVuSans-65" transform="translate(168.017578 0)"/>
      <use xlink:href="#DejaVuSans-5f" transform="translate(229.541016 0)"/>
      <use xlink:href="#DejaVuSans-61" transform="translate(279.541016 0)"/>
      <use xlink:href="#DejaVuSans-70" transform="translate(340.820312 0)"/>
      <use xlink:href="#DejaVuSans-69" transform="translate(404.296875 0)"/>
      <use xlink:href="#DejaVuSans-5d" transform="translate(432.080078 0)"/>
     </g>
    </g>
   </g>
   <g id="line2d_30">
    <g clip-path="url(#p459a2ccccd)">
     <use xlink:href="#m0e974afccf" x="415.5" y="8256.532703" style="stroke: #000000; stroke-linejoin: miter"/>
     <use xlink:href="#m0e974afccf" x="416.758117" y="59.426086" style="stroke: #000000; stroke-linejoin: miter"/>
     <use xlink:href="#m0e974afccf" x="418.016234" y="57.226872" style="stroke: #000000; stroke-linejoin: miter"/>
     <use xlink:href="#m0e974afccf" x="419.274351" y="56.601545" style="stroke: #000000; stroke-linejoin: miter"/>
     <use xlink:href="#m0e974afccf" x="420.532468" y="56.286596" style="stroke: #000000; stroke-linejoin: miter"/>
     <use xlink:href="#m0e974afccf" x="423.048701" y="57.389477" style="stroke: #000000; stroke-linejoin: miter"/>
     <use xlink:href="#m0e974afccf" x="426.823052" y="58.978956" style="stroke: #000000; stroke-linejoin: miter"/>
     <use xlink:href="#m0e974afccf" x="430.597403" y="60.469694" style="stroke: #000000; stroke-linejoin: miter"/>
     <use xlink:href="#m0e974afccf" x="445.694805" y="63.176601" style="stroke: #000000; stroke-linejoin: miter"/>
     <use xlink:href="#m0e974afccf" x="596.668831" y="61.258741" style="stroke: #000000; stroke-linejoin: miter"/>
     <use xlink:href="#m0e974afccf" x="597.926948" y="57.858817" style="stroke: #000000; stroke-linejoin: miter"/>
     <use xlink:href="#m0e974afccf" x="599.185065" y="56.943358" style="stroke: #000000; stroke-linejoin: miter"/>
     <use xlink:href="#m0e974afccf" x="600.443182" y="56.005096" style="stroke: #000000; stroke-linejoin: miter"/>
     <use xlink:href="#m0e974afccf" x="601.701299" y="55.8" style="stroke: #000000; stroke-linejoin: miter"/>
     <use xlink:href="#m0e974afccf" x="604.217532" y="56.420855" style="stroke: #000000; stroke-linejoin: miter"/>
     <use xlink:href="#m0e974afccf" x="607.991883" y="57.89621" style="stroke: #000000; stroke-linejoin: miter"/>
     <use xlink:href="#m0e974afccf" x="611.766234" y="58.930932" style="stroke: #000000; stroke-linejoin: miter"/>
     <use xlink:href="#m0e974afccf" x="626.863636" y="60.956444" style="stroke: #000000; stroke-linejoin: miter"/>
    </g>
   </g>
   <g id="line2d_31">
    <path d="M 415.5 361 
L 415.603108 65.076372 
L 415.819141 61.237755 
L 416.101065 59.429257 
L 416.506092 58.245701 
L 416.940994 57.636005 
L 417.440331 57.29897 
L 418.165306 57.129771 
L 419.29191 57.183302 
L 421.342268 57.583009 
L 428.234281 59.26919 
L 445.694805 63.679878 
L 445.696037 63.835394 
L 445.805571 61.844566 
L 446.050117 59.655325 
L 446.396619 58.274266 
L 446.811299 57.476778 
L 447.253216 57.051044 
L 447.830506 56.803346 
L 448.639322 56.732286 
L 449.935747 56.887066 
L 452.652149 57.489818 
L 466.519525 60.956839 
L 475.88961 63.336214 
L 475.890943 63.450091 
L 476.000509 61.619096 
L 476.27962 59.347655 
L 476.622416 58.114598 
L 476.99607 57.427883 
L 477.421081 57.015691 
L 478.032871 56.753857 
L 478.797608 56.687212 
L 480.021187 56.825645 
L 482.595092 57.388351 
L 495.558832 60.624616 
L 506.088021 63.34082 
L 506.099362 63.180915 
L 506.363538 59.974629 
L 506.694389 58.435436 
L 507.072781 57.582395 
L 507.529925 57.063522 
L 508.146967 56.761138 
L 508.91827 56.674217 
L 510.152354 56.8034 
L 512.726977 57.362343 
L 524.939461 60.408176 
L 536.282834 63.316728 
L 536.292892 63.182669 
L 536.562274 59.938605 
L 536.910698 58.363962 
L 537.297593 57.531443 
L 537.764564 57.030047 
L 538.380894 56.747909 
L 539.151307 56.671848 
L 540.383967 56.807083 
L 542.973621 57.372201 
L 555.952313 60.612424 
L 566.477633 63.336373 
L 566.488982 63.176469 
L 566.759794 59.927271 
L 567.061315 58.506909 
L 567.421179 57.649503 
L 567.896021 57.081282 
L 568.452457 56.785133 
L 569.221569 56.673803 
L 570.452148 56.787678 
L 572.969643 57.326565 
L 584.112433 60.100394 
L 596.668831 63.284779 
L 596.67017 63.397548 
L 596.775663 61.641525 
L 597.063405 59.308086 
L 597.450005 57.98815 
L 597.827733 57.352203 
L 598.368515 56.907427 
L 598.981367 56.714529 
L 599.900646 56.698211 
L 601.359825 56.925877 
L 605.303301 57.853189 
L 626.648551 63.236996 
L 648.536464 68.830446 
L 648.536464 68.830446 
" clip-path="url(#p459a2ccccd)" style="fill: none; stroke: #0000ff; stroke-width: 1.5; stroke-linecap: square"/>
   </g>
   <g id="patch_9">
    <path d="M 394.363636 320.4 
L 394.363636 43.2 
" style="fill: none; stroke: #000000; stroke-width: 0.8; stroke-linejoin: miter; stroke-linecap: square"/>
   </g>
   <g id="patch_10">
    <path d="M 648 320.4 
L 648 43.2 
" style="fill: none; stroke: #000000; stroke-width: 0.8; stroke-linejoin: miter; stroke-linecap: square"/>
   </g>
   <g id="patch_11">
    <path d="M 394.363636 320.4 
L 648 320.4 
" style="fill: none; stroke: #000000; stroke-width: 0.8; stroke-linejoin: miter; stroke-linecap: square"/>
   </g>
   <g id="patch_12">
    <path d="M 394.363636 43.2 
L 648 43.2 
" style="fill: none; stroke: #000000; stroke-width: 0.8; stroke-linejoin: miter; stroke-linecap: square"/>
   </g>
   <g id="text_33">
    <!-- Frost2013a fm_apixaban_API10 -->
    <g transform="translate(411.394474 37.2) scale(0.14 -0.14)">
     <use xlink:href="#DejaVuSans-46"/>
     <use xlink:href="#DejaVuSans-72" transform="translate(50.269531 0)"/>
     <use xlink:href="#DejaVuSans-6f" transform="translate(89.132812 0)"/>
     <use xlink:href="#DejaVuSans-73" transform="translate(150.314453 0)"/>
     <use xlink:href="#DejaVuSans-74" transform="translate(202.414062 0)"/>
     <use xlink:href="#DejaVuSans-32" transform="translate(241.623047 0)"/>
     <use xlink:href="#DejaVuSans-30" transform="translate(305.246094 0)"/>
     <use xlink:href="#DejaVuSans-31" transform="translate(368.869141 0)"/>
     <use xlink:href="#DejaVuSans-33" transform="translate(432.492188 0)"/>
     <use xlink:href="#DejaVuSans-61" transform="translate(496.115234 0)"/>
     <use xlink:href="#DejaVuSans-20" transform="translate(557.394531 0)"/>
     <use xlink:href="#DejaVuSans-66" transform="translate(589.181641 0)"/>
     <use xlink:href="#DejaVuSans-6d" transform="translate(624.386719 0)"/>
     <use xlink:href="#DejaVuSans-5f" transform="translate(721.798828 0)"/>
     <use xlink:href="#DejaVuSans-61" transform="translate(771.798828 0)"/>
     <use xlink:href="#DejaVuSans-70" transform="translate(833.078125 0)"/>
     <use xlink:href="#DejaVuSans-69" transform="translate(896.554688 0)"/>
     <use xlink:href="#DejaVuSans-78" transform="translate(924.337891 0)"/>
     <use xlink:href="#DejaVuSans-61" transform="translate(983.517578 0)"/>
     <use xlink:href="#DejaVuSans-62" transform="translate(1044.796875 0)"/>
     <use xlink:href="#DejaVuSans-61" transform="translate(1108.273438 0)"/>
     <use xlink:href="#DejaVuSans-6e" transform="translate(1169.552734 0)"/>
     <use xlink:href="#DejaVuSans-5f" transform="translate(1232.931641 0)"/>
     <use xlink:href="#DejaVuSans-41" transform="translate(1282.931641 0)"/>
     <use xlink:href="#DejaVuSans-50" transform="translate(1351.339844 0)"/>
     <use xlink:href="#DejaVuSans-49" transform="translate(1411.642578 0)"/>
     <use xlink:href="#DejaVuSans-31" transform="translate(1441.134766 0)"/>
     <use xlink:href="#DejaVuSans-30" transform="translate(1504.757812 0)"/>
    </g>
   </g>
   <g id="legend_2">
    <g id="patch_13">
     <path d="M 533.734375 315.4 
L 641 315.4 
Q 643 315.4 643 313.4 
L 643 284.765625 
Q 643 282.765625 641 282.765625 
L 533.734375 282.765625 
Q 531.734375 282.765625 531.734375 284.765625 
L 531.734375 313.4 
Q 531.734375 315.4 533.734375 315.4 
z
" style="fill: #ffffff; opacity: 0.8; stroke: #cccccc; stroke-linejoin: miter"/>
    </g>
    <g id="line2d_32">
     <g>
      <use xlink:href="#m0e974afccf" x="545.734375" y="290.864062" style="stroke: #000000; stroke-linejoin: miter"/>
     </g>
    </g>
    <g id="text_34">
     <!-- reference_data -->
     <g transform="translate(563.734375 294.364062) scale(0.1 -0.1)">
      <use xlink:href="#DejaVuSans-72"/>
      <use xlink:href="#DejaVuSans-65" transform="translate(38.863281 0)"/>
      <use xlink:href="#DejaVuSans-66" transform="translate(100.386719 0)"/>
      <use xlink:href="#DejaVuSans-65" transform="translate(135.591797 0)"/>
      <use xlink:href="#DejaVuSans-72" transform="translate(197.115234 0)"/>
      <use xlink:href="#DejaVuSans-65" transform="translate(235.978516 0)"/>
      <use xlink:href="#DejaVuSans-6e" transform="translate(297.501953 0)"/>
      <use xlink:href="#DejaVuSans-63" transform="translate(360.880859 0)"/>
      <use xlink:href="#DejaVuSans-65" transform="translate(415.861328 0)"/>
      <use xlink:href="#DejaVuSans-5f" transform="translate(477.384766 0)"/>
      <use xlink:href="#DejaVuSans-64" transform="translate(527.384766 0)"/>
      <use xlink:href="#DejaVuSans-61" transform="translate(590.861328 0)"/>
      <use xlink:href="#DejaVuSans-74" transform="translate(652.140625 0)"/>
      <use xlink:href="#DejaVuSans-61" transform="translate(691.349609 0)"/>
     </g>
    </g>
    <g id="line2d_33">
     <path d="M 535.734375 305.820312 
L 545.734375 305.820312 
L 555.734375 305.820312 
" style="fill: none; stroke: #0000ff; stroke-width: 1.5; stroke-linecap: square"/>
    </g>
    <g id="text_35">
     <!-- observable -->
     <g transform="translate(563.734375 309.320312) scale(0.1 -0.1)">
      <use xlink:href="#DejaVuSans-6f"/>
      <use xlink:href="#DejaVuSans-62" transform="translate(61.181641 0)"/>
      <use xlink:href="#DejaVuSans-73" transform="translate(124.658203 0)"/>
      <use xlink:href="#DejaVuSans-65" transform="translate(176.757812 0)"/>
      <use xlink:href="#DejaVuSans-72" transform="translate(238.28125 0)"/>
      <use xlink:href="#DejaVuSans-76" transform="translate(279.394531 0)"/>
      <use xlink:href="#DejaVuSans-61" transform="translate(338.574219 0)"/>
      <use xlink:href="#DejaVuSans-62" transform="translate(399.853516 0)"/>
      <use xlink:href="#DejaVuSans-6c" transform="translate(463.330078 0)"/>
      <use xlink:href="#DejaVuSans-65" transform="translate(491.113281 0)"/>
     </g>
    </g>
   </g>
  </g>
 </g>
 <defs>
  <clipPath id="p48bc939de1">
   <rect x="90" y="43.2" width="253.636364" height="277.2"/>
  </clipPath>
  <clipPath id="p459a2ccccd">
   <rect x="394.363636" y="43.2" width="253.636364" height="277.2"/>
  </clipPath>
 </defs>
</svg>
