<?xml version="1.0" encoding="utf-8" standalone="no"?>
<!DOCTYPE svg PUBLIC "-//W3C//DTD SVG 1.1//EN"
  "http://www.w3.org/Graphics/SVG/1.1/DTD/svg11.dtd">
<svg xmlns:xlink="http://www.w3.org/1999/xlink" width="954.64625pt" height="414.385812pt" viewBox="0 0 954.64625 414.385812" xmlns="http://www.w3.org/2000/svg" version="1.1">
 <metadata>
  <rdf:RDF xmlns:dc="http://purl.org/dc/elements/1.1/" xmlns:cc="http://creativecommons.org/ns#" xmlns:rdf="http://www.w3.org/1999/02/22-rdf-syntax-ns#">
   <cc:Work>
    <dc:type rdf:resource="http://purl.org/dc/dcmitype/StillImage"/>
    <dc:date>2026-03-23T09:59:06.558312</dc:date>
    <dc:format>image/svg+xml</dc:format>
    <dc:creator>
     <cc:Agent>
      <dc:title>Matplotlib v3.10.8, https://matplotlib.org/</dc:title>
     </cc:Agent>
    </dc:creator>
   </cc:Work>
  </rdf:RDF>
 </metadata>
 <defs>
  <style type="text/css">*{stroke-linejoin: round; stroke-linecap: butt}</style>
 </defs>
 <g id="figure_1">
  <g id="patch_1">
   <path d="M 0 414.385812 
L 954.64625 414.385812 
L 954.64625 -0 
L 0 -0 
z
" style="fill: #ffffff"/>
  </g>
  <g id="axes_1">
   <g id="patch_2">
    <path d="M 88.12625 364.248 
L 461.743641 364.248 
L 461.743641 48.24 
L 88.12625 48.24 
z
" style="fill: #ffffff"/>
   </g>
   <g id="matplotlib.axis_1">
    <g id="xtick_1">
     <g id="line2d_1">
      <defs>
       <path id="mf0ec0d896c" d="M 0 0 
L 0 3.5 
" style="stroke: #000000; stroke-width: 0.8"/>
      </defs>
      <g>
       <use xlink:href="#mf0ec0d896c" x="105.108859" y="364.248" style="stroke: #000000; stroke-width: 0.8"/>
      </g>
     </g>
     <g id="text_1">
      <!-- 0 -->
      <g transform="translate(100.336984 382.645656) scale(0.15 -0.15)">
       <defs>
        <path id="DejaVuSans-30" d="M 2034 4250 
Q 1547 4250 1301 3770 
Q 1056 3291 1056 2328 
Q 1056 1369 1301 889 
Q 1547 409 2034 409 
Q 2525 409 2770 889 
Q 3016 1369 3016 2328 
Q 3016 3291 2770 3770 
Q 2525 4250 2034 4250 
z
M 2034 4750 
Q 2819 4750 3233 4129 
Q 3647 3509 3647 2328 
Q 3647 1150 3233 529 
Q 2819 -91 2034 -91 
Q 1250 -91 836 529 
Q 422 1150 422 2328 
Q 422 3509 836 4129 
Q 1250 4750 2034 4750 
z
" transform="scale(0.015625)"/>
       </defs>
       <use xlink:href="#DejaVuSans-30"/>
      </g>
     </g>
    </g>
    <g id="xtick_2">
     <g id="line2d_2">
      <g>
       <use xlink:href="#mf0ec0d896c" x="161.717554" y="364.248" style="stroke: #000000; stroke-width: 0.8"/>
      </g>
     </g>
     <g id="text_2">
      <!-- 5 -->
      <g transform="translate(156.945679 382.645656) scale(0.15 -0.15)">
       <defs>
        <path id="DejaVuSans-35" d="M 691 4666 
L 3169 4666 
L 3169 4134 
L 1269 4134 
L 1269 2991 
Q 1406 3038 1543 3061 
Q 1681 3084 1819 3084 
Q 2600 3084 3056 2656 
Q 3513 2228 3513 1497 
Q 3513 744 3044 326 
Q 2575 -91 1722 -91 
Q 1428 -91 1123 -41 
Q 819 9 494 109 
L 494 744 
Q 775 591 1075 516 
Q 1375 441 1709 441 
Q 2250 441 2565 725 
Q 2881 1009 2881 1497 
Q 2881 1984 2565 2268 
Q 2250 2553 1709 2553 
Q 1456 2553 1204 2497 
Q 953 2441 691 2322 
L 691 4666 
z
" transform="scale(0.015625)"/>
       </defs>
       <use xlink:href="#DejaVuSans-35"/>
      </g>
     </g>
    </g>
    <g id="xtick_3">
     <g id="line2d_3">
      <g>
       <use xlink:href="#mf0ec0d896c" x="218.32625" y="364.248" style="stroke: #000000; stroke-width: 0.8"/>
      </g>
     </g>
     <g id="text_3">
      <!-- 10 -->
      <g transform="translate(208.7825 382.645656) scale(0.15 -0.15)">
       <defs>
        <path id="DejaVuSans-31" d="M 794 531 
L 1825 531 
L 1825 4091 
L 703 3866 
L 703 4441 
L 1819 4666 
L 2450 4666 
L 2450 531 
L 3481 531 
L 3481 0 
L 794 0 
L 794 531 
z
" transform="scale(0.015625)"/>
       </defs>
       <use xlink:href="#DejaVuSans-31"/>
       <use xlink:href="#DejaVuSans-30" transform="translate(63.623047 0)"/>
      </g>
     </g>
    </g>
    <g id="xtick_4">
     <g id="line2d_4">
      <g>
       <use xlink:href="#mf0ec0d896c" x="274.934946" y="364.248" style="stroke: #000000; stroke-width: 0.8"/>
      </g>
     </g>
     <g id="text_4">
      <!-- 15 -->
      <g transform="translate(265.391196 382.645656) scale(0.15 -0.15)">
       <use xlink:href="#DejaVuSans-31"/>
       <use xlink:href="#DejaVuSans-35" transform="translate(63.623047 0)"/>
      </g>
     </g>
    </g>
    <g id="xtick_5">
     <g id="line2d_5">
      <g>
       <use xlink:href="#mf0ec0d896c" x="331.543641" y="364.248" style="stroke: #000000; stroke-width: 0.8"/>
      </g>
     </g>
     <g id="text_5">
      <!-- 20 -->
      <g transform="translate(321.999891 382.645656) scale(0.15 -0.15)">
       <defs>
        <path id="DejaVuSans-32" d="M 1228 531 
L 3431 531 
L 3431 0 
L 469 0 
L 469 531 
Q 828 903 1448 1529 
Q 2069 2156 2228 2338 
Q 2531 2678 2651 2914 
Q 2772 3150 2772 3378 
Q 2772 3750 2511 3984 
Q 2250 4219 1831 4219 
Q 1534 4219 1204 4116 
Q 875 4013 500 3803 
L 500 4441 
Q 881 4594 1212 4672 
Q 1544 4750 1819 4750 
Q 2544 4750 2975 4387 
Q 3406 4025 3406 3419 
Q 3406 3131 3298 2873 
Q 3191 2616 2906 2266 
Q 2828 2175 2409 1742 
Q 1991 1309 1228 531 
z
" transform="scale(0.015625)"/>
       </defs>
       <use xlink:href="#DejaVuSans-32"/>
       <use xlink:href="#DejaVuSans-30" transform="translate(63.623047 0)"/>
      </g>
     </g>
    </g>
    <g id="xtick_6">
     <g id="line2d_6">
      <g>
       <use xlink:href="#mf0ec0d896c" x="388.152337" y="364.248" style="stroke: #000000; stroke-width: 0.8"/>
      </g>
     </g>
     <g id="text_6">
      <!-- 25 -->
      <g transform="translate(378.608587 382.645656) scale(0.15 -0.15)">
       <use xlink:href="#DejaVuSans-32"/>
       <use xlink:href="#DejaVuSans-35" transform="translate(63.623047 0)"/>
      </g>
     </g>
    </g>
    <g id="xtick_7">
     <g id="line2d_7">
      <g>
       <use xlink:href="#mf0ec0d896c" x="444.761033" y="364.248" style="stroke: #000000; stroke-width: 0.8"/>
      </g>
     </g>
     <g id="text_7">
      <!-- 30 -->
      <g transform="translate(435.217283 382.645656) scale(0.15 -0.15)">
       <defs>
        <path id="DejaVuSans-33" d="M 2597 2516 
Q 3050 2419 3304 2112 
Q 3559 1806 3559 1356 
Q 3559 666 3084 287 
Q 2609 -91 1734 -91 
Q 1441 -91 1130 -33 
Q 819 25 488 141 
L 488 750 
Q 750 597 1062 519 
Q 1375 441 1716 441 
Q 2309 441 2620 675 
Q 2931 909 2931 1356 
Q 2931 1769 2642 2001 
Q 2353 2234 1838 2234 
L 1294 2234 
L 1294 2753 
L 1863 2753 
Q 2328 2753 2575 2939 
Q 2822 3125 2822 3475 
Q 2822 3834 2567 4026 
Q 2313 4219 1838 4219 
Q 1578 4219 1281 4162 
Q 984 4106 628 3988 
L 628 4550 
Q 988 4650 1302 4700 
Q 1616 4750 1894 4750 
Q 2613 4750 3031 4423 
Q 3450 4097 3450 3541 
Q 3450 3153 3228 2886 
Q 3006 2619 2597 2516 
z
" transform="scale(0.015625)"/>
       </defs>
       <use xlink:href="#DejaVuSans-33"/>
       <use xlink:href="#DejaVuSans-30" transform="translate(63.623047 0)"/>
      </g>
     </g>
    </g>
    <g id="text_8">
     <!-- time [hr] -->
     <g transform="translate(229.860414 403.442375) scale(0.18 -0.18)">
      <defs>
       <path id="DejaVuSans-Bold-74" d="M 1759 4494 
L 1759 3500 
L 2913 3500 
L 2913 2700 
L 1759 2700 
L 1759 1216 
Q 1759 972 1856 886 
Q 1953 800 2241 800 
L 2816 800 
L 2816 0 
L 1856 0 
Q 1194 0 917 276 
Q 641 553 641 1216 
L 641 2700 
L 84 2700 
L 84 3500 
L 641 3500 
L 641 4494 
L 1759 4494 
z
" transform="scale(0.015625)"/>
       <path id="DejaVuSans-Bold-69" d="M 538 3500 
L 1656 3500 
L 1656 0 
L 538 0 
L 538 3500 
z
M 538 4863 
L 1656 4863 
L 1656 3950 
L 538 3950 
L 538 4863 
z
" transform="scale(0.015625)"/>
       <path id="DejaVuSans-Bold-6d" d="M 3781 2919 
Q 3994 3244 4286 3414 
Q 4578 3584 4928 3584 
Q 5531 3584 5847 3212 
Q 6163 2841 6163 2131 
L 6163 0 
L 5038 0 
L 5038 1825 
Q 5041 1866 5042 1909 
Q 5044 1953 5044 2034 
Q 5044 2406 4934 2573 
Q 4825 2741 4581 2741 
Q 4263 2741 4089 2478 
Q 3916 2216 3909 1719 
L 3909 0 
L 2784 0 
L 2784 1825 
Q 2784 2406 2684 2573 
Q 2584 2741 2328 2741 
Q 2006 2741 1831 2477 
Q 1656 2213 1656 1722 
L 1656 0 
L 531 0 
L 531 3500 
L 1656 3500 
L 1656 2988 
Q 1863 3284 2130 3434 
Q 2397 3584 2719 3584 
Q 3081 3584 3359 3409 
Q 3638 3234 3781 2919 
z
" transform="scale(0.015625)"/>
       <path id="DejaVuSans-Bold-65" d="M 4031 1759 
L 4031 1441 
L 1416 1441 
Q 1456 1047 1700 850 
Q 1944 653 2381 653 
Q 2734 653 3104 758 
Q 3475 863 3866 1075 
L 3866 213 
Q 3469 63 3072 -14 
Q 2675 -91 2278 -91 
Q 1328 -91 801 392 
Q 275 875 275 1747 
Q 275 2603 792 3093 
Q 1309 3584 2216 3584 
Q 3041 3584 3536 3087 
Q 4031 2591 4031 1759 
z
M 2881 2131 
Q 2881 2450 2695 2645 
Q 2509 2841 2209 2841 
Q 1884 2841 1681 2658 
Q 1478 2475 1428 2131 
L 2881 2131 
z
" transform="scale(0.015625)"/>
       <path id="DejaVuSans-Bold-20" transform="scale(0.015625)"/>
       <path id="DejaVuSans-Bold-5b" d="M 550 4863 
L 2491 4863 
L 2491 4159 
L 1613 4159 
L 1613 -141 
L 2491 -141 
L 2491 -844 
L 550 -844 
L 550 4863 
z
" transform="scale(0.015625)"/>
       <path id="DejaVuSans-Bold-68" d="M 4056 2131 
L 4056 0 
L 2931 0 
L 2931 347 
L 2931 1625 
Q 2931 2084 2911 2256 
Q 2891 2428 2841 2509 
Q 2775 2619 2662 2680 
Q 2550 2741 2406 2741 
Q 2056 2741 1856 2470 
Q 1656 2200 1656 1722 
L 1656 0 
L 538 0 
L 538 4863 
L 1656 4863 
L 1656 2988 
Q 1909 3294 2193 3439 
Q 2478 3584 2822 3584 
Q 3428 3584 3742 3212 
Q 4056 2841 4056 2131 
z
" transform="scale(0.015625)"/>
       <path id="DejaVuSans-Bold-72" d="M 3138 2547 
Q 2991 2616 2845 2648 
Q 2700 2681 2553 2681 
Q 2122 2681 1889 2404 
Q 1656 2128 1656 1613 
L 1656 0 
L 538 0 
L 538 3500 
L 1656 3500 
L 1656 2925 
Q 1872 3269 2151 3426 
Q 2431 3584 2822 3584 
Q 2878 3584 2943 3579 
Q 3009 3575 3134 3559 
L 3138 2547 
z
" transform="scale(0.015625)"/>
       <path id="DejaVuSans-Bold-5d" d="M 2375 -844 
L 434 -844 
L 434 -141 
L 1313 -141 
L 1313 4159 
L 434 4159 
L 434 4863 
L 2375 4863 
L 2375 -844 
z
" transform="scale(0.015625)"/>
      </defs>
      <use xlink:href="#DejaVuSans-Bold-74"/>
      <use xlink:href="#DejaVuSans-Bold-69" transform="translate(47.802734 0)"/>
      <use xlink:href="#DejaVuSans-Bold-6d" transform="translate(82.080078 0)"/>
      <use xlink:href="#DejaVuSans-Bold-65" transform="translate(186.279297 0)"/>
      <use xlink:href="#DejaVuSans-Bold-20" transform="translate(254.101562 0)"/>
      <use xlink:href="#DejaVuSans-Bold-5b" transform="translate(288.916016 0)"/>
      <use xlink:href="#DejaVuSans-Bold-68" transform="translate(334.619141 0)"/>
      <use xlink:href="#DejaVuSans-Bold-72" transform="translate(405.810547 0)"/>
      <use xlink:href="#DejaVuSans-Bold-5d" transform="translate(455.126953 0)"/>
     </g>
    </g>
   </g>
   <g id="matplotlib.axis_2">
    <g id="ytick_1">
     <g id="line2d_8">
      <defs>
       <path id="m09322d865f" d="M 0 0 
L -3.5 0 
" style="stroke: #000000; stroke-width: 0.8"/>
      </defs>
      <g>
       <use xlink:href="#m09322d865f" x="88.12625" y="349.884" style="stroke: #000000; stroke-width: 0.8"/>
      </g>
     </g>
     <g id="text_9">
      <!-- 0.0000 -->
      <g transform="translate(28.640313 355.582828) scale(0.15 -0.15)">
       <defs>
        <path id="DejaVuSans-2e" d="M 684 794 
L 1344 794 
L 1344 0 
L 684 0 
L 684 794 
z
" transform="scale(0.015625)"/>
       </defs>
       <use xlink:href="#DejaVuSans-30"/>
       <use xlink:href="#DejaVuSans-2e" transform="translate(63.623047 0)"/>
       <use xlink:href="#DejaVuSans-30" transform="translate(95.410156 0)"/>
       <use xlink:href="#DejaVuSans-30" transform="translate(159.033203 0)"/>
       <use xlink:href="#DejaVuSans-30" transform="translate(222.65625 0)"/>
       <use xlink:href="#DejaVuSans-30" transform="translate(286.279297 0)"/>
      </g>
     </g>
    </g>
    <g id="ytick_2">
     <g id="line2d_9">
      <g>
       <use xlink:href="#m09322d865f" x="88.12625" y="292.037871" style="stroke: #000000; stroke-width: 0.8"/>
      </g>
     </g>
     <g id="text_10">
      <!-- 0.0005 -->
      <g transform="translate(28.640313 297.736699) scale(0.15 -0.15)">
       <use xlink:href="#DejaVuSans-30"/>
       <use xlink:href="#DejaVuSans-2e" transform="translate(63.623047 0)"/>
       <use xlink:href="#DejaVuSans-30" transform="translate(95.410156 0)"/>
       <use xlink:href="#DejaVuSans-30" transform="translate(159.033203 0)"/>
       <use xlink:href="#DejaVuSans-30" transform="translate(222.65625 0)"/>
       <use xlink:href="#DejaVuSans-35" transform="translate(286.279297 0)"/>
      </g>
     </g>
    </g>
    <g id="ytick_3">
     <g id="line2d_10">
      <g>
       <use xlink:href="#m09322d865f" x="88.12625" y="234.191742" style="stroke: #000000; stroke-width: 0.8"/>
      </g>
     </g>
     <g id="text_11">
      <!-- 0.0010 -->
      <g transform="translate(28.640313 239.89057) scale(0.15 -0.15)">
       <use xlink:href="#DejaVuSans-30"/>
       <use xlink:href="#DejaVuSans-2e" transform="translate(63.623047 0)"/>
       <use xlink:href="#DejaVuSans-30" transform="translate(95.410156 0)"/>
       <use xlink:href="#DejaVuSans-30" transform="translate(159.033203 0)"/>
       <use xlink:href="#DejaVuSans-31" transform="translate(222.65625 0)"/>
       <use xlink:href="#DejaVuSans-30" transform="translate(286.279297 0)"/>
      </g>
     </g>
    </g>
    <g id="ytick_4">
     <g id="line2d_11">
      <g>
       <use xlink:href="#m09322d865f" x="88.12625" y="176.345613" style="stroke: #000000; stroke-width: 0.8"/>
      </g>
     </g>
     <g id="text_12">
      <!-- 0.0015 -->
      <g transform="translate(28.640313 182.044441) scale(0.15 -0.15)">
       <use xlink:href="#DejaVuSans-30"/>
       <use xlink:href="#DejaVuSans-2e" transform="translate(63.623047 0)"/>
       <use xlink:href="#DejaVuSans-30" transform="translate(95.410156 0)"/>
       <use xlink:href="#DejaVuSans-30" transform="translate(159.033203 0)"/>
       <use xlink:href="#DejaVuSans-31" transform="translate(222.65625 0)"/>
       <use xlink:href="#DejaVuSans-35" transform="translate(286.279297 0)"/>
      </g>
     </g>
    </g>
    <g id="ytick_5">
     <g id="line2d_12">
      <g>
       <use xlink:href="#m09322d865f" x="88.12625" y="118.499483" style="stroke: #000000; stroke-width: 0.8"/>
      </g>
     </g>
     <g id="text_13">
      <!-- 0.0020 -->
      <g transform="translate(28.640313 124.198312) scale(0.15 -0.15)">
       <use xlink:href="#DejaVuSans-30"/>
       <use xlink:href="#DejaVuSans-2e" transform="translate(63.623047 0)"/>
       <use xlink:href="#DejaVuSans-30" transform="translate(95.410156 0)"/>
       <use xlink:href="#DejaVuSans-30" transform="translate(159.033203 0)"/>
       <use xlink:href="#DejaVuSans-32" transform="translate(222.65625 0)"/>
       <use xlink:href="#DejaVuSans-30" transform="translate(286.279297 0)"/>
      </g>
     </g>
    </g>
    <g id="ytick_6">
     <g id="line2d_13">
      <g>
       <use xlink:href="#m09322d865f" x="88.12625" y="60.653354" style="stroke: #000000; stroke-width: 0.8"/>
      </g>
     </g>
     <g id="text_14">
      <!-- 0.0025 -->
      <g transform="translate(28.640313 66.352182) scale(0.15 -0.15)">
       <use xlink:href="#DejaVuSans-30"/>
       <use xlink:href="#DejaVuSans-2e" transform="translate(63.623047 0)"/>
       <use xlink:href="#DejaVuSans-30" transform="translate(95.410156 0)"/>
       <use xlink:href="#DejaVuSans-30" transform="translate(159.033203 0)"/>
       <use xlink:href="#DejaVuSans-32" transform="translate(222.65625 0)"/>
       <use xlink:href="#DejaVuSans-35" transform="translate(286.279297 0)"/>
      </g>
     </g>
    </g>
    <g id="text_15">
     <!-- apixaban plasma [µM] -->
     <g transform="translate(20.877188 319.1265) rotate(-90) scale(0.18 -0.18)">
      <defs>
       <path id="DejaVuSans-Bold-61" d="M 2106 1575 
Q 1756 1575 1579 1456 
Q 1403 1338 1403 1106 
Q 1403 894 1545 773 
Q 1688 653 1941 653 
Q 2256 653 2472 879 
Q 2688 1106 2688 1447 
L 2688 1575 
L 2106 1575 
z
M 3816 1997 
L 3816 0 
L 2688 0 
L 2688 519 
Q 2463 200 2181 54 
Q 1900 -91 1497 -91 
Q 953 -91 614 226 
Q 275 544 275 1050 
Q 275 1666 698 1953 
Q 1122 2241 2028 2241 
L 2688 2241 
L 2688 2328 
Q 2688 2594 2478 2717 
Q 2269 2841 1825 2841 
Q 1466 2841 1156 2769 
Q 847 2697 581 2553 
L 581 3406 
Q 941 3494 1303 3539 
Q 1666 3584 2028 3584 
Q 2975 3584 3395 3211 
Q 3816 2838 3816 1997 
z
" transform="scale(0.015625)"/>
       <path id="DejaVuSans-Bold-70" d="M 1656 506 
L 1656 -1331 
L 538 -1331 
L 538 3500 
L 1656 3500 
L 1656 2988 
Q 1888 3294 2169 3439 
Q 2450 3584 2816 3584 
Q 3463 3584 3878 3070 
Q 4294 2556 4294 1747 
Q 4294 938 3878 423 
Q 3463 -91 2816 -91 
Q 2450 -91 2169 54 
Q 1888 200 1656 506 
z
M 2400 2772 
Q 2041 2772 1848 2508 
Q 1656 2244 1656 1747 
Q 1656 1250 1848 986 
Q 2041 722 2400 722 
Q 2759 722 2948 984 
Q 3138 1247 3138 1747 
Q 3138 2247 2948 2509 
Q 2759 2772 2400 2772 
z
" transform="scale(0.015625)"/>
       <path id="DejaVuSans-Bold-78" d="M 1422 1791 
L 159 3500 
L 1344 3500 
L 2059 2463 
L 2784 3500 
L 3969 3500 
L 2706 1797 
L 4031 0 
L 2847 0 
L 2059 1106 
L 1281 0 
L 97 0 
L 1422 1791 
z
" transform="scale(0.015625)"/>
       <path id="DejaVuSans-Bold-62" d="M 2400 722 
Q 2759 722 2948 984 
Q 3138 1247 3138 1747 
Q 3138 2247 2948 2509 
Q 2759 2772 2400 2772 
Q 2041 2772 1848 2508 
Q 1656 2244 1656 1747 
Q 1656 1250 1848 986 
Q 2041 722 2400 722 
z
M 1656 2988 
Q 1888 3294 2169 3439 
Q 2450 3584 2816 3584 
Q 3463 3584 3878 3070 
Q 4294 2556 4294 1747 
Q 4294 938 3878 423 
Q 3463 -91 2816 -91 
Q 2450 -91 2169 54 
Q 1888 200 1656 506 
L 1656 0 
L 538 0 
L 538 4863 
L 1656 4863 
L 1656 2988 
z
" transform="scale(0.015625)"/>
       <path id="DejaVuSans-Bold-6e" d="M 4056 2131 
L 4056 0 
L 2931 0 
L 2931 347 
L 2931 1631 
Q 2931 2084 2911 2256 
Q 2891 2428 2841 2509 
Q 2775 2619 2662 2680 
Q 2550 2741 2406 2741 
Q 2056 2741 1856 2470 
Q 1656 2200 1656 1722 
L 1656 0 
L 538 0 
L 538 3500 
L 1656 3500 
L 1656 2988 
Q 1909 3294 2193 3439 
Q 2478 3584 2822 3584 
Q 3428 3584 3742 3212 
Q 4056 2841 4056 2131 
z
" transform="scale(0.015625)"/>
       <path id="DejaVuSans-Bold-6c" d="M 538 4863 
L 1656 4863 
L 1656 0 
L 538 0 
L 538 4863 
z
" transform="scale(0.015625)"/>
       <path id="DejaVuSans-Bold-73" d="M 3272 3391 
L 3272 2541 
Q 2913 2691 2578 2766 
Q 2244 2841 1947 2841 
Q 1628 2841 1473 2761 
Q 1319 2681 1319 2516 
Q 1319 2381 1436 2309 
Q 1553 2238 1856 2203 
L 2053 2175 
Q 2913 2066 3209 1816 
Q 3506 1566 3506 1031 
Q 3506 472 3093 190 
Q 2681 -91 1863 -91 
Q 1516 -91 1145 -36 
Q 775 19 384 128 
L 384 978 
Q 719 816 1070 734 
Q 1422 653 1784 653 
Q 2113 653 2278 743 
Q 2444 834 2444 1013 
Q 2444 1163 2330 1236 
Q 2216 1309 1875 1350 
L 1678 1375 
Q 931 1469 631 1722 
Q 331 1975 331 2491 
Q 331 3047 712 3315 
Q 1094 3584 1881 3584 
Q 2191 3584 2531 3537 
Q 2872 3491 3272 3391 
z
" transform="scale(0.015625)"/>
       <path id="DejaVuSans-Bold-b5" d="M 544 -1338 
L 544 3500 
L 1672 3500 
L 1672 1466 
Q 1672 1103 1828 926 
Q 1984 750 2303 750 
Q 2625 750 2781 926 
Q 2938 1103 2938 1466 
L 2938 3500 
L 4063 3500 
L 4063 1159 
Q 4063 938 4114 850 
Q 4166 763 4288 763 
Q 4344 763 4395 778 
Q 4447 794 4506 831 
L 4506 50 
Q 4341 -22 4195 -56 
Q 4050 -91 3909 -91 
Q 3631 -91 3454 26 
Q 3278 144 3169 403 
Q 3022 156 2811 32 
Q 2600 -91 2322 -91 
Q 2091 -91 1928 -17 
Q 1766 56 1672 206 
L 1672 -1338 
L 544 -1338 
z
" transform="scale(0.015625)"/>
       <path id="DejaVuSans-Bold-4d" d="M 588 4666 
L 2119 4666 
L 3181 2169 
L 4250 4666 
L 5778 4666 
L 5778 0 
L 4641 0 
L 4641 3413 
L 3566 897 
L 2803 897 
L 1728 3413 
L 1728 0 
L 588 0 
L 588 4666 
z
" transform="scale(0.015625)"/>
      </defs>
      <use xlink:href="#DejaVuSans-Bold-61"/>
      <use xlink:href="#DejaVuSans-Bold-70" transform="translate(67.480469 0)"/>
      <use xlink:href="#DejaVuSans-Bold-69" transform="translate(139.0625 0)"/>
      <use xlink:href="#DejaVuSans-Bold-78" transform="translate(173.339844 0)"/>
      <use xlink:href="#DejaVuSans-Bold-61" transform="translate(237.841797 0)"/>
      <use xlink:href="#DejaVuSans-Bold-62" transform="translate(305.322266 0)"/>
      <use xlink:href="#DejaVuSans-Bold-61" transform="translate(376.904297 0)"/>
      <use xlink:href="#DejaVuSans-Bold-6e" transform="translate(444.384766 0)"/>
      <use xlink:href="#DejaVuSans-Bold-20" transform="translate(515.576172 0)"/>
      <use xlink:href="#DejaVuSans-Bold-70" transform="translate(550.390625 0)"/>
      <use xlink:href="#DejaVuSans-Bold-6c" transform="translate(621.972656 0)"/>
      <use xlink:href="#DejaVuSans-Bold-61" transform="translate(656.25 0)"/>
      <use xlink:href="#DejaVuSans-Bold-73" transform="translate(723.730469 0)"/>
      <use xlink:href="#DejaVuSans-Bold-6d" transform="translate(783.251953 0)"/>
      <use xlink:href="#DejaVuSans-Bold-61" transform="translate(887.451172 0)"/>
      <use xlink:href="#DejaVuSans-Bold-20" transform="translate(954.931641 0)"/>
      <use xlink:href="#DejaVuSans-Bold-5b" transform="translate(989.746094 0)"/>
      <use xlink:href="#DejaVuSans-Bold-b5" transform="translate(1035.449219 0)"/>
      <use xlink:href="#DejaVuSans-Bold-4d" transform="translate(1109.033203 0)"/>
      <use xlink:href="#DejaVuSans-Bold-5d" transform="translate(1208.544922 0)"/>
     </g>
    </g>
   </g>
   <g id="LineCollection_1">
    <path d="M 110.769728 298.285136 
L 110.769728 62.604 
" clip-path="url(#p87c34aaa48)" style="fill: none; stroke: #1f77b4"/>
    <path d="M 116.430598 197.627377 
L 116.430598 85.683742 
" clip-path="url(#p87c34aaa48)" style="fill: none; stroke: #1f77b4"/>
    <path d="M 122.091467 218.4864 
L 122.091467 77.076265 
" clip-path="url(#p87c34aaa48)" style="fill: none; stroke: #1f77b4"/>
    <path d="M 127.752337 203.756783 
L 127.752337 91.805882 
" clip-path="url(#p87c34aaa48)" style="fill: none; stroke: #1f77b4"/>
    <path d="M 133.413207 212.5931 
L 133.413207 82.969565 
" clip-path="url(#p87c34aaa48)" style="fill: none; stroke: #1f77b4"/>
    <path d="M 139.074076 215.094934 
L 139.074076 109.0446 
" clip-path="url(#p87c34aaa48)" style="fill: none; stroke: #1f77b4"/>
    <path d="M 150.395815 213.519071 
L 150.395815 131.03467 
" clip-path="url(#p87c34aaa48)" style="fill: none; stroke: #1f77b4"/>
    <path d="M 173.039293 264.790696 
L 173.039293 194.085628 
" clip-path="url(#p87c34aaa48)" style="fill: none; stroke: #1f77b4"/>
    <path d="M 195.682772 289.754813 
L 195.682772 242.615679 
" clip-path="url(#p87c34aaa48)" style="fill: none; stroke: #1f77b4"/>
    <path d="M 365.508859 341.252759 
L 365.508859 317.686826 
" clip-path="url(#p87c34aaa48)" style="fill: none; stroke: #1f77b4"/>
    <path d="M 376.830598 343.298317 
L 376.830598 319.725117 
" clip-path="url(#p87c34aaa48)" style="fill: none; stroke: #1f77b4"/>
   </g>
   <g id="LineCollection_2">
    <path d="M 110.769728 266.83262 
L 110.769728 196.127553 
" clip-path="url(#p87c34aaa48)" style="fill: none; stroke: #000000"/>
    <path d="M 116.430598 233.032186 
L 116.430598 156.433819 
" clip-path="url(#p87c34aaa48)" style="fill: none; stroke: #000000"/>
    <path d="M 122.091467 231.893872 
L 122.091467 149.409471 
" clip-path="url(#p87c34aaa48)" style="fill: none; stroke: #000000"/>
    <path d="M 127.752337 230.989146 
L 127.752337 154.398046 
" clip-path="url(#p87c34aaa48)" style="fill: none; stroke: #000000"/>
    <path d="M 133.413207 226.000572 
L 133.413207 155.302771 
" clip-path="url(#p87c34aaa48)" style="fill: none; stroke: #000000"/>
    <path d="M 139.074076 226.000572 
L 139.074076 155.302771 
" clip-path="url(#p87c34aaa48)" style="fill: none; stroke: #000000"/>
    <path d="M 150.395815 233.264659 
L 150.395815 168.452892 
" clip-path="url(#p87c34aaa48)" style="fill: none; stroke: #000000"/>
    <path d="M 173.039293 281.586 
L 173.039293 234.454133 
" clip-path="url(#p87c34aaa48)" style="fill: none; stroke: #000000"/>
    <path d="M 195.682772 297.245222 
L 195.682772 267.785988 
" clip-path="url(#p87c34aaa48)" style="fill: none; stroke: #000000"/>
    <path clip-path="url(#p87c34aaa48)" style="fill: none; stroke: #000000"/>
    <path clip-path="url(#p87c34aaa48)" style="fill: none; stroke: #000000"/>
   </g>
   <g id="line2d_14">
    <path d="M 105.108859 349.884 
L 105.788163 349.29791 
L 106.467467 347.51048 
L 107.826076 342.106668 
L 113.260511 317.508364 
L 115.298424 309.533847 
L 117.336337 302.428998 
L 119.37425 296.146367 
L 121.412163 290.623312 
L 123.450076 285.795911 
L 125.487989 281.603313 
L 127.525902 277.988927 
L 129.563815 274.900569 
L 131.601728 272.290273 
L 133.639641 270.114008 
L 135.677554 268.331382 
L 137.715467 266.905359 
L 139.75338 265.801986 
L 141.791293 264.99015 
L 143.829207 264.441347 
L 145.86712 264.129474 
L 147.905033 264.030633 
L 149.942946 264.122954 
L 152.660163 264.509082 
L 155.37738 265.156936 
L 158.094598 266.028604 
L 161.49112 267.382132 
L 164.887641 268.975936 
L 168.963467 271.137109 
L 173.718598 273.912357 
L 179.832337 277.743357 
L 190.701207 284.870133 
L 202.928685 292.810831 
L 211.080337 297.846964 
L 218.552685 302.210485 
L 226.025033 306.303891 
L 232.818076 309.780994 
L 239.61112 313.024591 
L 246.404163 316.038982 
L 253.876511 319.099371 
L 261.348859 321.905135 
L 268.821207 324.471447 
L 276.293554 326.814356 
L 284.445207 329.134537 
L 292.596859 331.228853 
L 301.427815 333.265809 
L 310.938076 335.216244 
L 320.448337 336.941176 
L 330.637902 338.5674 
L 341.506772 340.07937 
L 353.054946 341.466506 
L 365.961728 342.786951 
L 379.547815 343.954448 
L 394.492511 345.018595 
L 411.47512 345.998319 
L 430.495641 346.863566 
L 444.761033 347.383604 
L 444.761033 347.383604 
" clip-path="url(#p87c34aaa48)" style="fill: none; stroke: #1f77b4; stroke-width: 2; stroke-linecap: square"/>
   </g>
   <g id="line2d_15">
    <path d="M 110.769728 180.444568 
L 116.430598 141.65556 
L 122.091467 147.781333 
L 127.752337 147.781333 
L 133.413207 147.781333 
L 139.074076 162.069767 
L 150.395815 172.276871 
L 173.039293 229.438162 
L 195.682772 266.185246 
L 365.508859 329.469793 
L 376.830598 331.511717 
" clip-path="url(#p87c34aaa48)" style="fill: none; stroke-dasharray: 3.7,1.6; stroke-dashoffset: 0; stroke: #1f77b4"/>
    <defs>
     <path id="m3b95d5fc28" d="M -3 3 
L 3 3 
L 3 -3 
L -3 -3 
z
" style="stroke: #000000; stroke-linejoin: miter"/>
    </defs>
    <g clip-path="url(#p87c34aaa48)">
     <use xlink:href="#m3b95d5fc28" x="110.769728" y="180.444568" style="fill: #1f77b4; stroke: #000000; stroke-linejoin: miter"/>
     <use xlink:href="#m3b95d5fc28" x="116.430598" y="141.65556" style="fill: #1f77b4; stroke: #000000; stroke-linejoin: miter"/>
     <use xlink:href="#m3b95d5fc28" x="122.091467" y="147.781333" style="fill: #1f77b4; stroke: #000000; stroke-linejoin: miter"/>
     <use xlink:href="#m3b95d5fc28" x="127.752337" y="147.781333" style="fill: #1f77b4; stroke: #000000; stroke-linejoin: miter"/>
     <use xlink:href="#m3b95d5fc28" x="133.413207" y="147.781333" style="fill: #1f77b4; stroke: #000000; stroke-linejoin: miter"/>
     <use xlink:href="#m3b95d5fc28" x="139.074076" y="162.069767" style="fill: #1f77b4; stroke: #000000; stroke-linejoin: miter"/>
     <use xlink:href="#m3b95d5fc28" x="150.395815" y="172.276871" style="fill: #1f77b4; stroke: #000000; stroke-linejoin: miter"/>
     <use xlink:href="#m3b95d5fc28" x="173.039293" y="229.438162" style="fill: #1f77b4; stroke: #000000; stroke-linejoin: miter"/>
     <use xlink:href="#m3b95d5fc28" x="195.682772" y="266.185246" style="fill: #1f77b4; stroke: #000000; stroke-linejoin: miter"/>
     <use xlink:href="#m3b95d5fc28" x="365.508859" y="329.469793" style="fill: #1f77b4; stroke: #000000; stroke-linejoin: miter"/>
     <use xlink:href="#m3b95d5fc28" x="376.830598" y="331.511717" style="fill: #1f77b4; stroke: #000000; stroke-linejoin: miter"/>
    </g>
   </g>
   <g id="line2d_16">
    <path d="M 105.108859 349.884 
L 105.788163 349.29791 
L 106.467467 347.51048 
L 107.826076 342.106668 
L 113.260511 317.508364 
L 115.298424 309.533847 
L 117.336337 302.428998 
L 119.37425 296.146367 
L 121.412163 290.623312 
L 123.450076 285.795911 
L 125.487989 281.603313 
L 127.525902 277.988927 
L 129.563815 274.900569 
L 131.601728 272.290273 
L 133.639641 270.114008 
L 135.677554 268.331382 
L 137.715467 266.905359 
L 139.75338 265.801986 
L 141.791293 264.99015 
L 143.829207 264.441347 
L 145.86712 264.129474 
L 147.905033 264.030633 
L 149.942946 264.122954 
L 152.660163 264.509082 
L 155.37738 265.156936 
L 158.094598 266.028604 
L 161.49112 267.382132 
L 164.887641 268.975936 
L 168.963467 271.137109 
L 173.718598 273.912357 
L 179.832337 277.743357 
L 190.701207 284.870133 
L 202.928685 292.810831 
L 211.080337 297.846964 
L 218.552685 302.210485 
L 226.025033 306.303891 
L 232.818076 309.780994 
L 239.61112 313.024591 
L 246.404163 316.038982 
L 253.876511 319.099371 
L 261.348859 321.905135 
L 268.821207 324.471447 
L 276.293554 326.814356 
L 284.445207 329.134537 
L 292.596859 331.228853 
L 301.427815 333.265809 
L 310.938076 335.216244 
L 320.448337 336.941176 
L 330.637902 338.5674 
L 341.506772 340.07937 
L 353.054946 341.466506 
L 365.961728 342.786951 
L 379.547815 343.954448 
L 394.492511 345.018595 
L 411.47512 345.998319 
L 430.495641 346.863566 
L 444.761033 347.383604 
L 444.761033 347.383604 
" clip-path="url(#p87c34aaa48)" style="fill: none; stroke: #000000; stroke-width: 2; stroke-linecap: square"/>
   </g>
   <g id="line2d_17">
    <path d="M 110.769728 231.480086 
L 116.430598 194.733002 
L 122.091467 190.651672 
L 127.752337 192.693596 
L 133.413207 190.651672 
L 139.074076 190.651672 
L 150.395815 200.858775 
L 173.039293 258.020067 
L 195.682772 282.515605 
L 365.508859 333.553641 
L 376.830598 337.634972 
" clip-path="url(#p87c34aaa48)" style="fill: none; stroke-dasharray: 3.7,1.6; stroke-dashoffset: 0; stroke: #000000"/>
    <defs>
     <path id="m30ce2a72b3" d="M -3 3 
L 3 3 
L 3 -3 
L -3 -3 
z
" style="stroke: #000000; stroke-linejoin: miter"/>
    </defs>
    <g clip-path="url(#p87c34aaa48)">
     <use xlink:href="#m30ce2a72b3" x="110.769728" y="231.480086" style="stroke: #000000; stroke-linejoin: miter"/>
     <use xlink:href="#m30ce2a72b3" x="116.430598" y="194.733002" style="stroke: #000000; stroke-linejoin: miter"/>
     <use xlink:href="#m30ce2a72b3" x="122.091467" y="190.651672" style="stroke: #000000; stroke-linejoin: miter"/>
     <use xlink:href="#m30ce2a72b3" x="127.752337" y="192.693596" style="stroke: #000000; stroke-linejoin: miter"/>
     <use xlink:href="#m30ce2a72b3" x="133.413207" y="190.651672" style="stroke: #000000; stroke-linejoin: miter"/>
     <use xlink:href="#m30ce2a72b3" x="139.074076" y="190.651672" style="stroke: #000000; stroke-linejoin: miter"/>
     <use xlink:href="#m30ce2a72b3" x="150.395815" y="200.858775" style="stroke: #000000; stroke-linejoin: miter"/>
     <use xlink:href="#m30ce2a72b3" x="173.039293" y="258.020067" style="stroke: #000000; stroke-linejoin: miter"/>
     <use xlink:href="#m30ce2a72b3" x="195.682772" y="282.515605" style="stroke: #000000; stroke-linejoin: miter"/>
     <use xlink:href="#m30ce2a72b3" x="365.508859" y="333.553641" style="stroke: #000000; stroke-linejoin: miter"/>
     <use xlink:href="#m30ce2a72b3" x="376.830598" y="337.634972" style="stroke: #000000; stroke-linejoin: miter"/>
    </g>
   </g>
   <g id="patch_3">
    <path d="M 88.12625 364.248 
L 88.12625 48.24 
" style="fill: none; stroke: #000000; stroke-width: 0.8; stroke-linejoin: miter; stroke-linecap: square"/>
   </g>
   <g id="patch_4">
    <path d="M 461.743641 364.248 
L 461.743641 48.24 
" style="fill: none; stroke: #000000; stroke-width: 0.8; stroke-linejoin: miter; stroke-linecap: square"/>
   </g>
   <g id="patch_5">
    <path d="M 88.12625 364.248 
L 461.743641 364.248 
" style="fill: none; stroke: #000000; stroke-width: 0.8; stroke-linejoin: miter; stroke-linecap: square"/>
   </g>
   <g id="patch_6">
    <path d="M 88.12625 48.24 
L 461.743641 48.24 
" style="fill: none; stroke: #000000; stroke-width: 0.8; stroke-linejoin: miter; stroke-linecap: square"/>
   </g>
   <g id="legend_1">
    <g id="patch_7">
     <path d="M 307.132626 111.616875 
L 455.093641 111.616875 
Q 456.993641 111.616875 456.993641 109.716875 
L 456.993641 54.89 
Q 456.993641 52.99 455.093641 52.99 
L 307.132626 52.99 
Q 305.232626 52.99 305.232626 54.89 
L 305.232626 109.716875 
Q 305.232626 111.616875 307.132626 111.616875 
z
" style="fill: #ffffff; opacity: 0.8; stroke: #cccccc; stroke-linejoin: miter"/>
    </g>
    <g id="line2d_18">
     <path d="M 309.032626 60.683516 
L 328.032626 60.683516 
" style="fill: none; stroke: #1f77b4; stroke-width: 2; stroke-linecap: square"/>
    </g>
    <g id="line2d_19"/>
    <g id="text_16">
     <!-- EDO50, RITx5 -->
     <g transform="translate(335.632626 64.008516) scale(0.095 -0.095)">
      <defs>
       <path id="DejaVuSans-45" d="M 628 4666 
L 3578 4666 
L 3578 4134 
L 1259 4134 
L 1259 2753 
L 3481 2753 
L 3481 2222 
L 1259 2222 
L 1259 531 
L 3634 531 
L 3634 0 
L 628 0 
L 628 4666 
z
" transform="scale(0.015625)"/>
       <path id="DejaVuSans-44" d="M 1259 4147 
L 1259 519 
L 2022 519 
Q 2988 519 3436 956 
Q 3884 1394 3884 2338 
Q 3884 3275 3436 3711 
Q 2988 4147 2022 4147 
L 1259 4147 
z
M 628 4666 
L 1925 4666 
Q 3281 4666 3915 4102 
Q 4550 3538 4550 2338 
Q 4550 1131 3912 565 
Q 3275 0 1925 0 
L 628 0 
L 628 4666 
z
" transform="scale(0.015625)"/>
       <path id="DejaVuSans-4f" d="M 2522 4238 
Q 1834 4238 1429 3725 
Q 1025 3213 1025 2328 
Q 1025 1447 1429 934 
Q 1834 422 2522 422 
Q 3209 422 3611 934 
Q 4013 1447 4013 2328 
Q 4013 3213 3611 3725 
Q 3209 4238 2522 4238 
z
M 2522 4750 
Q 3503 4750 4090 4092 
Q 4678 3434 4678 2328 
Q 4678 1225 4090 567 
Q 3503 -91 2522 -91 
Q 1538 -91 948 565 
Q 359 1222 359 2328 
Q 359 3434 948 4092 
Q 1538 4750 2522 4750 
z
" transform="scale(0.015625)"/>
       <path id="DejaVuSans-2c" d="M 750 794 
L 1409 794 
L 1409 256 
L 897 -744 
L 494 -744 
L 750 256 
L 750 794 
z
" transform="scale(0.015625)"/>
       <path id="DejaVuSans-20" transform="scale(0.015625)"/>
       <path id="DejaVuSans-52" d="M 2841 2188 
Q 3044 2119 3236 1894 
Q 3428 1669 3622 1275 
L 4263 0 
L 3584 0 
L 2988 1197 
Q 2756 1666 2539 1819 
Q 2322 1972 1947 1972 
L 1259 1972 
L 1259 0 
L 628 0 
L 628 4666 
L 2053 4666 
Q 2853 4666 3247 4331 
Q 3641 3997 3641 3322 
Q 3641 2881 3436 2590 
Q 3231 2300 2841 2188 
z
M 1259 4147 
L 1259 2491 
L 2053 2491 
Q 2509 2491 2742 2702 
Q 2975 2913 2975 3322 
Q 2975 3731 2742 3939 
Q 2509 4147 2053 4147 
L 1259 4147 
z
" transform="scale(0.015625)"/>
       <path id="DejaVuSans-49" d="M 628 4666 
L 1259 4666 
L 1259 0 
L 628 0 
L 628 4666 
z
" transform="scale(0.015625)"/>
       <path id="DejaVuSans-54" d="M -19 4666 
L 3928 4666 
L 3928 4134 
L 2272 4134 
L 2272 0 
L 1638 0 
L 1638 4134 
L -19 4134 
L -19 4666 
z
" transform="scale(0.015625)"/>
       <path id="DejaVuSans-78" d="M 3513 3500 
L 2247 1797 
L 3578 0 
L 2900 0 
L 1881 1375 
L 863 0 
L 184 0 
L 1544 1831 
L 300 3500 
L 978 3500 
L 1906 2253 
L 2834 3500 
L 3513 3500 
z
" transform="scale(0.015625)"/>
      </defs>
      <use xlink:href="#DejaVuSans-45"/>
      <use xlink:href="#DejaVuSans-44" transform="translate(63.183594 0)"/>
      <use xlink:href="#DejaVuSans-4f" transform="translate(140.185547 0)"/>
      <use xlink:href="#DejaVuSans-35" transform="translate(218.896484 0)"/>
      <use xlink:href="#DejaVuSans-30" transform="translate(282.519531 0)"/>
      <use xlink:href="#DejaVuSans-2c" transform="translate(346.142578 0)"/>
      <use xlink:href="#DejaVuSans-20" transform="translate(377.929688 0)"/>
      <use xlink:href="#DejaVuSans-52" transform="translate(409.716797 0)"/>
      <use xlink:href="#DejaVuSans-49" transform="translate(479.199219 0)"/>
      <use xlink:href="#DejaVuSans-54" transform="translate(508.691406 0)"/>
      <use xlink:href="#DejaVuSans-78" transform="translate(569.775391 0)"/>
      <use xlink:href="#DejaVuSans-35" transform="translate(628.955078 0)"/>
     </g>
    </g>
    <g id="LineCollection_3">
     <path d="M 318.532626 79.377734 
L 318.532626 69.877734 
" style="fill: none; stroke: #1f77b4"/>
    </g>
    <g id="line2d_20">
     <path d="M 309.032626 74.627734 
L 328.032626 74.627734 
" style="fill: none; stroke-dasharray: 3.7,1.6; stroke-dashoffset: 0; stroke: #1f77b4"/>
    </g>
    <g id="line2d_21">
     <g>
      <use xlink:href="#m3b95d5fc28" x="318.532626" y="74.627734" style="fill: #1f77b4; stroke: #000000; stroke-linejoin: miter"/>
     </g>
    </g>
    <g id="text_17">
     <!-- EDO50, RITx5±SD (n=8) -->
     <g transform="translate(335.632626 77.952734) scale(0.095 -0.095)">
      <defs>
       <path id="DejaVuSans-b1" d="M 2944 4013 
L 2944 2803 
L 4684 2803 
L 4684 2272 
L 2944 2272 
L 2944 1063 
L 2419 1063 
L 2419 2272 
L 678 2272 
L 678 2803 
L 2419 2803 
L 2419 4013 
L 2944 4013 
z
M 678 531 
L 4684 531 
L 4684 0 
L 678 0 
L 678 531 
z
" transform="scale(0.015625)"/>
       <path id="DejaVuSans-53" d="M 3425 4513 
L 3425 3897 
Q 3066 4069 2747 4153 
Q 2428 4238 2131 4238 
Q 1616 4238 1336 4038 
Q 1056 3838 1056 3469 
Q 1056 3159 1242 3001 
Q 1428 2844 1947 2747 
L 2328 2669 
Q 3034 2534 3370 2195 
Q 3706 1856 3706 1288 
Q 3706 609 3251 259 
Q 2797 -91 1919 -91 
Q 1588 -91 1214 -16 
Q 841 59 441 206 
L 441 856 
Q 825 641 1194 531 
Q 1563 422 1919 422 
Q 2459 422 2753 634 
Q 3047 847 3047 1241 
Q 3047 1584 2836 1778 
Q 2625 1972 2144 2069 
L 1759 2144 
Q 1053 2284 737 2584 
Q 422 2884 422 3419 
Q 422 4038 858 4394 
Q 1294 4750 2059 4750 
Q 2388 4750 2728 4690 
Q 3069 4631 3425 4513 
z
" transform="scale(0.015625)"/>
       <path id="DejaVuSans-28" d="M 1984 4856 
Q 1566 4138 1362 3434 
Q 1159 2731 1159 2009 
Q 1159 1288 1364 580 
Q 1569 -128 1984 -844 
L 1484 -844 
Q 1016 -109 783 600 
Q 550 1309 550 2009 
Q 550 2706 781 3412 
Q 1013 4119 1484 4856 
L 1984 4856 
z
" transform="scale(0.015625)"/>
       <path id="DejaVuSans-6e" d="M 3513 2113 
L 3513 0 
L 2938 0 
L 2938 2094 
Q 2938 2591 2744 2837 
Q 2550 3084 2163 3084 
Q 1697 3084 1428 2787 
Q 1159 2491 1159 1978 
L 1159 0 
L 581 0 
L 581 3500 
L 1159 3500 
L 1159 2956 
Q 1366 3272 1645 3428 
Q 1925 3584 2291 3584 
Q 2894 3584 3203 3211 
Q 3513 2838 3513 2113 
z
" transform="scale(0.015625)"/>
       <path id="DejaVuSans-3d" d="M 678 2906 
L 4684 2906 
L 4684 2381 
L 678 2381 
L 678 2906 
z
M 678 1631 
L 4684 1631 
L 4684 1100 
L 678 1100 
L 678 1631 
z
" transform="scale(0.015625)"/>
       <path id="DejaVuSans-38" d="M 2034 2216 
Q 1584 2216 1326 1975 
Q 1069 1734 1069 1313 
Q 1069 891 1326 650 
Q 1584 409 2034 409 
Q 2484 409 2743 651 
Q 3003 894 3003 1313 
Q 3003 1734 2745 1975 
Q 2488 2216 2034 2216 
z
M 1403 2484 
Q 997 2584 770 2862 
Q 544 3141 544 3541 
Q 544 4100 942 4425 
Q 1341 4750 2034 4750 
Q 2731 4750 3128 4425 
Q 3525 4100 3525 3541 
Q 3525 3141 3298 2862 
Q 3072 2584 2669 2484 
Q 3125 2378 3379 2068 
Q 3634 1759 3634 1313 
Q 3634 634 3220 271 
Q 2806 -91 2034 -91 
Q 1263 -91 848 271 
Q 434 634 434 1313 
Q 434 1759 690 2068 
Q 947 2378 1403 2484 
z
M 1172 3481 
Q 1172 3119 1398 2916 
Q 1625 2713 2034 2713 
Q 2441 2713 2670 2916 
Q 2900 3119 2900 3481 
Q 2900 3844 2670 4047 
Q 2441 4250 2034 4250 
Q 1625 4250 1398 4047 
Q 1172 3844 1172 3481 
z
" transform="scale(0.015625)"/>
       <path id="DejaVuSans-29" d="M 513 4856 
L 1013 4856 
Q 1481 4119 1714 3412 
Q 1947 2706 1947 2009 
Q 1947 1309 1714 600 
Q 1481 -109 1013 -844 
L 513 -844 
Q 928 -128 1133 580 
Q 1338 1288 1338 2009 
Q 1338 2731 1133 3434 
Q 928 4138 513 4856 
z
" transform="scale(0.015625)"/>
      </defs>
      <use xlink:href="#DejaVuSans-45"/>
      <use xlink:href="#DejaVuSans-44" transform="translate(63.183594 0)"/>
      <use xlink:href="#DejaVuSans-4f" transform="translate(140.185547 0)"/>
      <use xlink:href="#DejaVuSans-35" transform="translate(218.896484 0)"/>
      <use xlink:href="#DejaVuSans-30" transform="translate(282.519531 0)"/>
      <use xlink:href="#DejaVuSans-2c" transform="translate(346.142578 0)"/>
      <use xlink:href="#DejaVuSans-20" transform="translate(377.929688 0)"/>
      <use xlink:href="#DejaVuSans-52" transform="translate(409.716797 0)"/>
      <use xlink:href="#DejaVuSans-49" transform="translate(479.199219 0)"/>
      <use xlink:href="#DejaVuSans-54" transform="translate(508.691406 0)"/>
      <use xlink:href="#DejaVuSans-78" transform="translate(569.775391 0)"/>
      <use xlink:href="#DejaVuSans-35" transform="translate(628.955078 0)"/>
      <use xlink:href="#DejaVuSans-b1" transform="translate(692.578125 0)"/>
      <use xlink:href="#DejaVuSans-53" transform="translate(776.367188 0)"/>
      <use xlink:href="#DejaVuSans-44" transform="translate(839.84375 0)"/>
      <use xlink:href="#DejaVuSans-20" transform="translate(916.845703 0)"/>
      <use xlink:href="#DejaVuSans-28" transform="translate(948.632812 0)"/>
      <use xlink:href="#DejaVuSans-6e" transform="translate(987.646484 0)"/>
      <use xlink:href="#DejaVuSans-3d" transform="translate(1051.025391 0)"/>
      <use xlink:href="#DejaVuSans-38" transform="translate(1134.814453 0)"/>
      <use xlink:href="#DejaVuSans-29" transform="translate(1198.4375 0)"/>
     </g>
    </g>
    <g id="line2d_22">
     <path d="M 309.032626 88.571953 
L 328.032626 88.571953 
" style="fill: none; stroke: #000000; stroke-width: 2; stroke-linecap: square"/>
    </g>
    <g id="line2d_23"/>
    <g id="text_18">
     <!-- EDO50 -->
     <g transform="translate(335.632626 91.896953) scale(0.095 -0.095)">
      <use xlink:href="#DejaVuSans-45"/>
      <use xlink:href="#DejaVuSans-44" transform="translate(63.183594 0)"/>
      <use xlink:href="#DejaVuSans-4f" transform="translate(140.185547 0)"/>
      <use xlink:href="#DejaVuSans-35" transform="translate(218.896484 0)"/>
      <use xlink:href="#DejaVuSans-30" transform="translate(282.519531 0)"/>
     </g>
    </g>
    <g id="LineCollection_4">
     <path d="M 318.532626 107.266172 
L 318.532626 97.766172 
" style="fill: none; stroke: #000000"/>
    </g>
    <g id="line2d_24">
     <path d="M 309.032626 102.516172 
L 328.032626 102.516172 
" style="fill: none; stroke-dasharray: 3.7,1.6; stroke-dashoffset: 0; stroke: #000000"/>
    </g>
    <g id="line2d_25">
     <g>
      <use xlink:href="#m30ce2a72b3" x="318.532626" y="102.516172" style="stroke: #000000; stroke-linejoin: miter"/>
     </g>
    </g>
    <g id="text_19">
     <!-- EDO50±SD (n=8) -->
     <g transform="translate(335.632626 105.841172) scale(0.095 -0.095)">
      <use xlink:href="#DejaVuSans-45"/>
      <use xlink:href="#DejaVuSans-44" transform="translate(63.183594 0)"/>
      <use xlink:href="#DejaVuSans-4f" transform="translate(140.185547 0)"/>
      <use xlink:href="#DejaVuSans-35" transform="translate(218.896484 0)"/>
      <use xlink:href="#DejaVuSans-30" transform="translate(282.519531 0)"/>
      <use xlink:href="#DejaVuSans-b1" transform="translate(346.142578 0)"/>
      <use xlink:href="#DejaVuSans-53" transform="translate(429.931641 0)"/>
      <use xlink:href="#DejaVuSans-44" transform="translate(493.408203 0)"/>
      <use xlink:href="#DejaVuSans-20" transform="translate(570.410156 0)"/>
      <use xlink:href="#DejaVuSans-28" transform="translate(602.197266 0)"/>
      <use xlink:href="#DejaVuSans-6e" transform="translate(641.210938 0)"/>
      <use xlink:href="#DejaVuSans-3d" transform="translate(704.589844 0)"/>
      <use xlink:href="#DejaVuSans-38" transform="translate(788.378906 0)"/>
      <use xlink:href="#DejaVuSans-29" transform="translate(852.001953 0)"/>
     </g>
    </g>
   </g>
  </g>
  <g id="axes_2">
   <g id="patch_8">
    <path d="M 573.828859 364.248 
L 947.44625 364.248 
L 947.44625 48.24 
L 573.828859 48.24 
z
" style="fill: #ffffff"/>
   </g>
   <g id="matplotlib.axis_3">
    <g id="xtick_8">
     <g id="line2d_26">
      <g>
       <use xlink:href="#mf0ec0d896c" x="590.811467" y="364.248" style="stroke: #000000; stroke-width: 0.8"/>
      </g>
     </g>
     <g id="text_20">
      <!-- 0 -->
      <g transform="translate(586.039592 382.645656) scale(0.15 -0.15)">
       <use xlink:href="#DejaVuSans-30"/>
      </g>
     </g>
    </g>
    <g id="xtick_9">
     <g id="line2d_27">
      <g>
       <use xlink:href="#mf0ec0d896c" x="647.420163" y="364.248" style="stroke: #000000; stroke-width: 0.8"/>
      </g>
     </g>
     <g id="text_21">
      <!-- 5 -->
      <g transform="translate(642.648288 382.645656) scale(0.15 -0.15)">
       <use xlink:href="#DejaVuSans-35"/>
      </g>
     </g>
    </g>
    <g id="xtick_10">
     <g id="line2d_28">
      <g>
       <use xlink:href="#mf0ec0d896c" x="704.028859" y="364.248" style="stroke: #000000; stroke-width: 0.8"/>
      </g>
     </g>
     <g id="text_22">
      <!-- 10 -->
      <g transform="translate(694.485109 382.645656) scale(0.15 -0.15)">
       <use xlink:href="#DejaVuSans-31"/>
       <use xlink:href="#DejaVuSans-30" transform="translate(63.623047 0)"/>
      </g>
     </g>
    </g>
    <g id="xtick_11">
     <g id="line2d_29">
      <g>
       <use xlink:href="#mf0ec0d896c" x="760.637554" y="364.248" style="stroke: #000000; stroke-width: 0.8"/>
      </g>
     </g>
     <g id="text_23">
      <!-- 15 -->
      <g transform="translate(751.093804 382.645656) scale(0.15 -0.15)">
       <use xlink:href="#DejaVuSans-31"/>
       <use xlink:href="#DejaVuSans-35" transform="translate(63.623047 0)"/>
      </g>
     </g>
    </g>
    <g id="xtick_12">
     <g id="line2d_30">
      <g>
       <use xlink:href="#mf0ec0d896c" x="817.24625" y="364.248" style="stroke: #000000; stroke-width: 0.8"/>
      </g>
     </g>
     <g id="text_24">
      <!-- 20 -->
      <g transform="translate(807.7025 382.645656) scale(0.15 -0.15)">
       <use xlink:href="#DejaVuSans-32"/>
       <use xlink:href="#DejaVuSans-30" transform="translate(63.623047 0)"/>
      </g>
     </g>
    </g>
    <g id="xtick_13">
     <g id="line2d_31">
      <g>
       <use xlink:href="#mf0ec0d896c" x="873.854946" y="364.248" style="stroke: #000000; stroke-width: 0.8"/>
      </g>
     </g>
     <g id="text_25">
      <!-- 25 -->
      <g transform="translate(864.311196 382.645656) scale(0.15 -0.15)">
       <use xlink:href="#DejaVuSans-32"/>
       <use xlink:href="#DejaVuSans-35" transform="translate(63.623047 0)"/>
      </g>
     </g>
    </g>
    <g id="xtick_14">
     <g id="line2d_32">
      <g>
       <use xlink:href="#mf0ec0d896c" x="930.463641" y="364.248" style="stroke: #000000; stroke-width: 0.8"/>
      </g>
     </g>
     <g id="text_26">
      <!-- 30 -->
      <g transform="translate(920.919891 382.645656) scale(0.15 -0.15)">
       <use xlink:href="#DejaVuSans-33"/>
       <use xlink:href="#DejaVuSans-30" transform="translate(63.623047 0)"/>
      </g>
     </g>
    </g>
    <g id="text_27">
     <!-- time [hr] -->
     <g transform="translate(715.563023 403.442375) scale(0.18 -0.18)">
      <use xlink:href="#DejaVuSans-Bold-74"/>
      <use xlink:href="#DejaVuSans-Bold-69" transform="translate(47.802734 0)"/>
      <use xlink:href="#DejaVuSans-Bold-6d" transform="translate(82.080078 0)"/>
      <use xlink:href="#DejaVuSans-Bold-65" transform="translate(186.279297 0)"/>
      <use xlink:href="#DejaVuSans-Bold-20" transform="translate(254.101562 0)"/>
      <use xlink:href="#DejaVuSans-Bold-5b" transform="translate(288.916016 0)"/>
      <use xlink:href="#DejaVuSans-Bold-68" transform="translate(334.619141 0)"/>
      <use xlink:href="#DejaVuSans-Bold-72" transform="translate(405.810547 0)"/>
      <use xlink:href="#DejaVuSans-Bold-5d" transform="translate(455.126953 0)"/>
     </g>
    </g>
   </g>
   <g id="matplotlib.axis_4">
    <g id="ytick_7">
     <g id="line2d_33">
      <g>
       <use xlink:href="#m09322d865f" x="573.828859" y="349.884" style="stroke: #000000; stroke-width: 0.8"/>
      </g>
     </g>
     <g id="text_28">
      <!-- 0.000 -->
      <g transform="translate(523.886671 355.582828) scale(0.15 -0.15)">
       <use xlink:href="#DejaVuSans-30"/>
       <use xlink:href="#DejaVuSans-2e" transform="translate(63.623047 0)"/>
       <use xlink:href="#DejaVuSans-30" transform="translate(95.410156 0)"/>
       <use xlink:href="#DejaVuSans-30" transform="translate(159.033203 0)"/>
       <use xlink:href="#DejaVuSans-30" transform="translate(222.65625 0)"/>
      </g>
     </g>
    </g>
    <g id="ytick_8">
     <g id="line2d_34">
      <g>
       <use xlink:href="#m09322d865f" x="573.828859" y="310.696169" style="stroke: #000000; stroke-width: 0.8"/>
      </g>
     </g>
     <g id="text_29">
      <!-- 0.002 -->
      <g transform="translate(523.886671 316.394997) scale(0.15 -0.15)">
       <use xlink:href="#DejaVuSans-30"/>
       <use xlink:href="#DejaVuSans-2e" transform="translate(63.623047 0)"/>
       <use xlink:href="#DejaVuSans-30" transform="translate(95.410156 0)"/>
       <use xlink:href="#DejaVuSans-30" transform="translate(159.033203 0)"/>
       <use xlink:href="#DejaVuSans-32" transform="translate(222.65625 0)"/>
      </g>
     </g>
    </g>
    <g id="ytick_9">
     <g id="line2d_35">
      <g>
       <use xlink:href="#m09322d865f" x="573.828859" y="271.508337" style="stroke: #000000; stroke-width: 0.8"/>
      </g>
     </g>
     <g id="text_30">
      <!-- 0.004 -->
      <g transform="translate(523.886671 277.207165) scale(0.15 -0.15)">
       <defs>
        <path id="DejaVuSans-34" d="M 2419 4116 
L 825 1625 
L 2419 1625 
L 2419 4116 
z
M 2253 4666 
L 3047 4666 
L 3047 1625 
L 3713 1625 
L 3713 1100 
L 3047 1100 
L 3047 0 
L 2419 0 
L 2419 1100 
L 313 1100 
L 313 1709 
L 2253 4666 
z
" transform="scale(0.015625)"/>
       </defs>
       <use xlink:href="#DejaVuSans-30"/>
       <use xlink:href="#DejaVuSans-2e" transform="translate(63.623047 0)"/>
       <use xlink:href="#DejaVuSans-30" transform="translate(95.410156 0)"/>
       <use xlink:href="#DejaVuSans-30" transform="translate(159.033203 0)"/>
       <use xlink:href="#DejaVuSans-34" transform="translate(222.65625 0)"/>
      </g>
     </g>
    </g>
    <g id="ytick_10">
     <g id="line2d_36">
      <g>
       <use xlink:href="#m09322d865f" x="573.828859" y="232.320506" style="stroke: #000000; stroke-width: 0.8"/>
      </g>
     </g>
     <g id="text_31">
      <!-- 0.006 -->
      <g transform="translate(523.886671 238.019334) scale(0.15 -0.15)">
       <defs>
        <path id="DejaVuSans-36" d="M 2113 2584 
Q 1688 2584 1439 2293 
Q 1191 2003 1191 1497 
Q 1191 994 1439 701 
Q 1688 409 2113 409 
Q 2538 409 2786 701 
Q 3034 994 3034 1497 
Q 3034 2003 2786 2293 
Q 2538 2584 2113 2584 
z
M 3366 4563 
L 3366 3988 
Q 3128 4100 2886 4159 
Q 2644 4219 2406 4219 
Q 1781 4219 1451 3797 
Q 1122 3375 1075 2522 
Q 1259 2794 1537 2939 
Q 1816 3084 2150 3084 
Q 2853 3084 3261 2657 
Q 3669 2231 3669 1497 
Q 3669 778 3244 343 
Q 2819 -91 2113 -91 
Q 1303 -91 875 529 
Q 447 1150 447 2328 
Q 447 3434 972 4092 
Q 1497 4750 2381 4750 
Q 2619 4750 2861 4703 
Q 3103 4656 3366 4563 
z
" transform="scale(0.015625)"/>
       </defs>
       <use xlink:href="#DejaVuSans-30"/>
       <use xlink:href="#DejaVuSans-2e" transform="translate(63.623047 0)"/>
       <use xlink:href="#DejaVuSans-30" transform="translate(95.410156 0)"/>
       <use xlink:href="#DejaVuSans-30" transform="translate(159.033203 0)"/>
       <use xlink:href="#DejaVuSans-36" transform="translate(222.65625 0)"/>
      </g>
     </g>
    </g>
    <g id="ytick_11">
     <g id="line2d_37">
      <g>
       <use xlink:href="#m09322d865f" x="573.828859" y="193.132674" style="stroke: #000000; stroke-width: 0.8"/>
      </g>
     </g>
     <g id="text_32">
      <!-- 0.008 -->
      <g transform="translate(523.886671 198.831502) scale(0.15 -0.15)">
       <use xlink:href="#DejaVuSans-30"/>
       <use xlink:href="#DejaVuSans-2e" transform="translate(63.623047 0)"/>
       <use xlink:href="#DejaVuSans-30" transform="translate(95.410156 0)"/>
       <use xlink:href="#DejaVuSans-30" transform="translate(159.033203 0)"/>
       <use xlink:href="#DejaVuSans-38" transform="translate(222.65625 0)"/>
      </g>
     </g>
    </g>
    <g id="ytick_12">
     <g id="line2d_38">
      <g>
       <use xlink:href="#m09322d865f" x="573.828859" y="153.944843" style="stroke: #000000; stroke-width: 0.8"/>
      </g>
     </g>
     <g id="text_33">
      <!-- 0.010 -->
      <g transform="translate(523.886671 159.643671) scale(0.15 -0.15)">
       <use xlink:href="#DejaVuSans-30"/>
       <use xlink:href="#DejaVuSans-2e" transform="translate(63.623047 0)"/>
       <use xlink:href="#DejaVuSans-30" transform="translate(95.410156 0)"/>
       <use xlink:href="#DejaVuSans-31" transform="translate(159.033203 0)"/>
       <use xlink:href="#DejaVuSans-30" transform="translate(222.65625 0)"/>
      </g>
     </g>
    </g>
    <g id="ytick_13">
     <g id="line2d_39">
      <g>
       <use xlink:href="#m09322d865f" x="573.828859" y="114.757011" style="stroke: #000000; stroke-width: 0.8"/>
      </g>
     </g>
     <g id="text_34">
      <!-- 0.012 -->
      <g transform="translate(523.886671 120.455839) scale(0.15 -0.15)">
       <use xlink:href="#DejaVuSans-30"/>
       <use xlink:href="#DejaVuSans-2e" transform="translate(63.623047 0)"/>
       <use xlink:href="#DejaVuSans-30" transform="translate(95.410156 0)"/>
       <use xlink:href="#DejaVuSans-31" transform="translate(159.033203 0)"/>
       <use xlink:href="#DejaVuSans-32" transform="translate(222.65625 0)"/>
      </g>
     </g>
    </g>
    <g id="ytick_14">
     <g id="line2d_40">
      <g>
       <use xlink:href="#m09322d865f" x="573.828859" y="75.56918" style="stroke: #000000; stroke-width: 0.8"/>
      </g>
     </g>
     <g id="text_35">
      <!-- 0.014 -->
      <g transform="translate(523.886671 81.268008) scale(0.15 -0.15)">
       <use xlink:href="#DejaVuSans-30"/>
       <use xlink:href="#DejaVuSans-2e" transform="translate(63.623047 0)"/>
       <use xlink:href="#DejaVuSans-30" transform="translate(95.410156 0)"/>
       <use xlink:href="#DejaVuSans-31" transform="translate(159.033203 0)"/>
       <use xlink:href="#DejaVuSans-34" transform="translate(222.65625 0)"/>
      </g>
     </g>
    </g>
    <g id="text_36">
     <!-- apixaban urine [µmole] -->
     <g transform="translate(516.123546 324.954) rotate(-90) scale(0.18 -0.18)">
      <defs>
       <path id="DejaVuSans-Bold-75" d="M 500 1363 
L 500 3500 
L 1625 3500 
L 1625 3150 
Q 1625 2866 1622 2436 
Q 1619 2006 1619 1863 
Q 1619 1441 1641 1255 
Q 1663 1069 1716 984 
Q 1784 875 1895 815 
Q 2006 756 2150 756 
Q 2500 756 2700 1025 
Q 2900 1294 2900 1772 
L 2900 3500 
L 4019 3500 
L 4019 0 
L 2900 0 
L 2900 506 
Q 2647 200 2364 54 
Q 2081 -91 1741 -91 
Q 1134 -91 817 281 
Q 500 653 500 1363 
z
" transform="scale(0.015625)"/>
       <path id="DejaVuSans-Bold-6f" d="M 2203 2784 
Q 1831 2784 1636 2517 
Q 1441 2250 1441 1747 
Q 1441 1244 1636 976 
Q 1831 709 2203 709 
Q 2569 709 2762 976 
Q 2956 1244 2956 1747 
Q 2956 2250 2762 2517 
Q 2569 2784 2203 2784 
z
M 2203 3584 
Q 3106 3584 3614 3096 
Q 4122 2609 4122 1747 
Q 4122 884 3614 396 
Q 3106 -91 2203 -91 
Q 1297 -91 786 396 
Q 275 884 275 1747 
Q 275 2609 786 3096 
Q 1297 3584 2203 3584 
z
" transform="scale(0.015625)"/>
      </defs>
      <use xlink:href="#DejaVuSans-Bold-61"/>
      <use xlink:href="#DejaVuSans-Bold-70" transform="translate(67.480469 0)"/>
      <use xlink:href="#DejaVuSans-Bold-69" transform="translate(139.0625 0)"/>
      <use xlink:href="#DejaVuSans-Bold-78" transform="translate(173.339844 0)"/>
      <use xlink:href="#DejaVuSans-Bold-61" transform="translate(237.841797 0)"/>
      <use xlink:href="#DejaVuSans-Bold-62" transform="translate(305.322266 0)"/>
      <use xlink:href="#DejaVuSans-Bold-61" transform="translate(376.904297 0)"/>
      <use xlink:href="#DejaVuSans-Bold-6e" transform="translate(444.384766 0)"/>
      <use xlink:href="#DejaVuSans-Bold-20" transform="translate(515.576172 0)"/>
      <use xlink:href="#DejaVuSans-Bold-75" transform="translate(550.390625 0)"/>
      <use xlink:href="#DejaVuSans-Bold-72" transform="translate(621.582031 0)"/>
      <use xlink:href="#DejaVuSans-Bold-69" transform="translate(670.898438 0)"/>
      <use xlink:href="#DejaVuSans-Bold-6e" transform="translate(705.175781 0)"/>
      <use xlink:href="#DejaVuSans-Bold-65" transform="translate(776.367188 0)"/>
      <use xlink:href="#DejaVuSans-Bold-20" transform="translate(844.189453 0)"/>
      <use xlink:href="#DejaVuSans-Bold-5b" transform="translate(879.003906 0)"/>
      <use xlink:href="#DejaVuSans-Bold-b5" transform="translate(924.707031 0)"/>
      <use xlink:href="#DejaVuSans-Bold-6d" transform="translate(998.291016 0)"/>
      <use xlink:href="#DejaVuSans-Bold-6f" transform="translate(1102.490234 0)"/>
      <use xlink:href="#DejaVuSans-Bold-6c" transform="translate(1171.191406 0)"/>
      <use xlink:href="#DejaVuSans-Bold-65" transform="translate(1205.46875 0)"/>
      <use xlink:href="#DejaVuSans-Bold-5d" transform="translate(1273.291016 0)"/>
     </g>
    </g>
   </g>
   <g id="LineCollection_5">
    <path clip-path="url(#pfa70b305a4)" style="fill: none; stroke: #1f77b4"/>
    <path d="M 862.533207 285.366698 
L 862.533207 62.604 
" clip-path="url(#pfa70b305a4)" style="fill: none; stroke: #1f77b4"/>
   </g>
   <g id="LineCollection_6">
    <path clip-path="url(#pfa70b305a4)" style="fill: none; stroke: #000000"/>
    <path d="M 862.533207 246.815333 
L 862.533207 75.570107 
" clip-path="url(#pfa70b305a4)" style="fill: none; stroke: #000000"/>
   </g>
   <g id="line2d_41">
    <path d="M 590.811467 349.884 
L 593.528685 349.788314 
L 595.566598 349.467804 
L 597.604511 348.899837 
L 599.642424 348.098 
L 601.680337 347.083988 
L 604.397554 345.441057 
L 607.114772 343.511949 
L 610.511293 340.767259 
L 613.907815 337.72454 
L 617.983641 333.77329 
L 623.418076 328.151572 
L 631.569728 319.317626 
L 646.514424 303.079894 
L 653.986772 295.330759 
L 660.779815 288.621874 
L 666.893554 282.892812 
L 673.007293 277.47284 
L 679.121033 272.367844 
L 685.234772 267.576695 
L 691.348511 263.093232 
L 697.46225 258.907774 
L 703.575989 255.008269 
L 709.689728 251.381165 
L 715.803467 248.012059 
L 721.917207 244.88618 
L 728.71025 241.680276 
L 735.503293 238.736498 
L 742.296337 236.0356 
L 749.08938 233.559197 
L 756.561728 231.0737 
L 764.034076 228.817084 
L 772.185728 226.592701 
L 780.33738 224.592632 
L 789.168337 222.653545 
L 798.678598 220.801829 
L 808.868163 219.058676 
L 819.737033 217.439945 
L 831.285207 215.956278 
L 843.512685 214.613438 
L 857.098772 213.355106 
L 872.043467 212.208652 
L 888.346772 211.191293 
L 906.687989 210.280864 
L 927.06712 209.49761 
L 930.463641 209.386414 
L 930.463641 209.386414 
" clip-path="url(#pfa70b305a4)" style="fill: none; stroke: #1f77b4; stroke-width: 2; stroke-linecap: square"/>
   </g>
   <g id="line2d_42">
    <path d="M 590.811467 349.884 
L 862.533207 173.985349 
" clip-path="url(#pfa70b305a4)" style="fill: none; stroke-dasharray: 3.7,1.6; stroke-dashoffset: 0; stroke: #1f77b4"/>
    <g clip-path="url(#pfa70b305a4)">
     <use xlink:href="#m3b95d5fc28" x="590.811467" y="349.884" style="fill: #1f77b4; stroke: #000000; stroke-linejoin: miter"/>
     <use xlink:href="#m3b95d5fc28" x="862.533207" y="173.985349" style="fill: #1f77b4; stroke: #000000; stroke-linejoin: miter"/>
    </g>
   </g>
   <g id="line2d_43">
    <path d="M 590.811467 349.884 
L 593.528685 349.788314 
L 595.566598 349.467804 
L 597.604511 348.899837 
L 599.642424 348.098 
L 601.680337 347.083988 
L 604.397554 345.441057 
L 607.114772 343.511949 
L 610.511293 340.767259 
L 613.907815 337.72454 
L 617.983641 333.77329 
L 623.418076 328.151572 
L 631.569728 319.317626 
L 646.514424 303.079894 
L 653.986772 295.330759 
L 660.779815 288.621874 
L 666.893554 282.892812 
L 673.007293 277.47284 
L 679.121033 272.367844 
L 685.234772 267.576695 
L 691.348511 263.093232 
L 697.46225 258.907774 
L 703.575989 255.008269 
L 709.689728 251.381165 
L 715.803467 248.012059 
L 721.917207 244.88618 
L 728.71025 241.680276 
L 735.503293 238.736498 
L 742.296337 236.0356 
L 749.08938 233.559197 
L 756.561728 231.0737 
L 764.034076 228.817084 
L 772.185728 226.592701 
L 780.33738 224.592632 
L 789.168337 222.653545 
L 798.678598 220.801829 
L 808.868163 219.058676 
L 819.737033 217.439945 
L 831.285207 215.956278 
L 843.512685 214.613438 
L 857.098772 213.355106 
L 872.043467 212.208652 
L 888.346772 211.191293 
L 906.687989 210.280864 
L 927.06712 209.49761 
L 930.463641 209.386414 
L 930.463641 209.386414 
" clip-path="url(#pfa70b305a4)" style="fill: none; stroke: #000000; stroke-width: 2; stroke-linecap: square"/>
   </g>
   <g id="line2d_44">
    <path d="M 590.811467 349.884 
L 862.533207 161.19272 
" clip-path="url(#pfa70b305a4)" style="fill: none; stroke-dasharray: 3.7,1.6; stroke-dashoffset: 0; stroke: #000000"/>
    <g clip-path="url(#pfa70b305a4)">
     <use xlink:href="#m30ce2a72b3" x="590.811467" y="349.884" style="stroke: #000000; stroke-linejoin: miter"/>
     <use xlink:href="#m30ce2a72b3" x="862.533207" y="161.19272" style="stroke: #000000; stroke-linejoin: miter"/>
    </g>
   </g>
   <g id="patch_9">
    <path d="M 573.828859 364.248 
L 573.828859 48.24 
" style="fill: none; stroke: #000000; stroke-width: 0.8; stroke-linejoin: miter; stroke-linecap: square"/>
   </g>
   <g id="patch_10">
    <path d="M 947.44625 364.248 
L 947.44625 48.24 
" style="fill: none; stroke: #000000; stroke-width: 0.8; stroke-linejoin: miter; stroke-linecap: square"/>
   </g>
   <g id="patch_11">
    <path d="M 573.828859 364.248 
L 947.44625 364.248 
" style="fill: none; stroke: #000000; stroke-width: 0.8; stroke-linejoin: miter; stroke-linecap: square"/>
   </g>
   <g id="patch_12">
    <path d="M 573.828859 48.24 
L 947.44625 48.24 
" style="fill: none; stroke: #000000; stroke-width: 0.8; stroke-linejoin: miter; stroke-linecap: square"/>
   </g>
   <g id="legend_2">
    <g id="patch_13">
     <path d="M 792.835234 111.616875 
L 940.79625 111.616875 
Q 942.69625 111.616875 942.69625 109.716875 
L 942.69625 54.89 
Q 942.69625 52.99 940.79625 52.99 
L 792.835234 52.99 
Q 790.935234 52.99 790.935234 54.89 
L 790.935234 109.716875 
Q 790.935234 111.616875 792.835234 111.616875 
z
" style="fill: #ffffff; opacity: 0.8; stroke: #cccccc; stroke-linejoin: miter"/>
    </g>
    <g id="line2d_45">
     <path d="M 794.735234 60.683516 
L 813.735234 60.683516 
" style="fill: none; stroke: #1f77b4; stroke-width: 2; stroke-linecap: square"/>
    </g>
    <g id="line2d_46"/>
    <g id="text_37">
     <!-- EDO50, RITx5 -->
     <g transform="translate(821.335234 64.008516) scale(0.095 -0.095)">
      <use xlink:href="#DejaVuSans-45"/>
      <use xlink:href="#DejaVuSans-44" transform="translate(63.183594 0)"/>
      <use xlink:href="#DejaVuSans-4f" transform="translate(140.185547 0)"/>
      <use xlink:href="#DejaVuSans-35" transform="translate(218.896484 0)"/>
      <use xlink:href="#DejaVuSans-30" transform="translate(282.519531 0)"/>
      <use xlink:href="#DejaVuSans-2c" transform="translate(346.142578 0)"/>
      <use xlink:href="#DejaVuSans-20" transform="translate(377.929688 0)"/>
      <use xlink:href="#DejaVuSans-52" transform="translate(409.716797 0)"/>
      <use xlink:href="#DejaVuSans-49" transform="translate(479.199219 0)"/>
      <use xlink:href="#DejaVuSans-54" transform="translate(508.691406 0)"/>
      <use xlink:href="#DejaVuSans-78" transform="translate(569.775391 0)"/>
      <use xlink:href="#DejaVuSans-35" transform="translate(628.955078 0)"/>
     </g>
    </g>
    <g id="LineCollection_7">
     <path d="M 804.235234 79.377734 
L 804.235234 69.877734 
" style="fill: none; stroke: #1f77b4"/>
    </g>
    <g id="line2d_47">
     <path d="M 794.735234 74.627734 
L 813.735234 74.627734 
" style="fill: none; stroke-dasharray: 3.7,1.6; stroke-dashoffset: 0; stroke: #1f77b4"/>
    </g>
    <g id="line2d_48">
     <g>
      <use xlink:href="#m3b95d5fc28" x="804.235234" y="74.627734" style="fill: #1f77b4; stroke: #000000; stroke-linejoin: miter"/>
     </g>
    </g>
    <g id="text_38">
     <!-- EDO50, RITx5±SD (n=7) -->
     <g transform="translate(821.335234 77.952734) scale(0.095 -0.095)">
      <defs>
       <path id="DejaVuSans-37" d="M 525 4666 
L 3525 4666 
L 3525 4397 
L 1831 0 
L 1172 0 
L 2766 4134 
L 525 4134 
L 525 4666 
z
" transform="scale(0.015625)"/>
      </defs>
      <use xlink:href="#DejaVuSans-45"/>
      <use xlink:href="#DejaVuSans-44" transform="translate(63.183594 0)"/>
      <use xlink:href="#DejaVuSans-4f" transform="translate(140.185547 0)"/>
      <use xlink:href="#DejaVuSans-35" transform="translate(218.896484 0)"/>
      <use xlink:href="#DejaVuSans-30" transform="translate(282.519531 0)"/>
      <use xlink:href="#DejaVuSans-2c" transform="translate(346.142578 0)"/>
      <use xlink:href="#DejaVuSans-20" transform="translate(377.929688 0)"/>
      <use xlink:href="#DejaVuSans-52" transform="translate(409.716797 0)"/>
      <use xlink:href="#DejaVuSans-49" transform="translate(479.199219 0)"/>
      <use xlink:href="#DejaVuSans-54" transform="translate(508.691406 0)"/>
      <use xlink:href="#DejaVuSans-78" transform="translate(569.775391 0)"/>
      <use xlink:href="#DejaVuSans-35" transform="translate(628.955078 0)"/>
      <use xlink:href="#DejaVuSans-b1" transform="translate(692.578125 0)"/>
      <use xlink:href="#DejaVuSans-53" transform="translate(776.367188 0)"/>
      <use xlink:href="#DejaVuSans-44" transform="translate(839.84375 0)"/>
      <use xlink:href="#DejaVuSans-20" transform="translate(916.845703 0)"/>
      <use xlink:href="#DejaVuSans-28" transform="translate(948.632812 0)"/>
      <use xlink:href="#DejaVuSans-6e" transform="translate(987.646484 0)"/>
      <use xlink:href="#DejaVuSans-3d" transform="translate(1051.025391 0)"/>
      <use xlink:href="#DejaVuSans-37" transform="translate(1134.814453 0)"/>
      <use xlink:href="#DejaVuSans-29" transform="translate(1198.4375 0)"/>
     </g>
    </g>
    <g id="line2d_49">
     <path d="M 794.735234 88.571953 
L 813.735234 88.571953 
" style="fill: none; stroke: #000000; stroke-width: 2; stroke-linecap: square"/>
    </g>
    <g id="line2d_50"/>
    <g id="text_39">
     <!-- EDO50 -->
     <g transform="translate(821.335234 91.896953) scale(0.095 -0.095)">
      <use xlink:href="#DejaVuSans-45"/>
      <use xlink:href="#DejaVuSans-44" transform="translate(63.183594 0)"/>
      <use xlink:href="#DejaVuSans-4f" transform="translate(140.185547 0)"/>
      <use xlink:href="#DejaVuSans-35" transform="translate(218.896484 0)"/>
      <use xlink:href="#DejaVuSans-30" transform="translate(282.519531 0)"/>
     </g>
    </g>
    <g id="LineCollection_8">
     <path d="M 804.235234 107.266172 
L 804.235234 97.766172 
" style="fill: none; stroke: #000000"/>
    </g>
    <g id="line2d_51">
     <path d="M 794.735234 102.516172 
L 813.735234 102.516172 
" style="fill: none; stroke-dasharray: 3.7,1.6; stroke-dashoffset: 0; stroke: #000000"/>
    </g>
    <g id="line2d_52">
     <g>
      <use xlink:href="#m30ce2a72b3" x="804.235234" y="102.516172" style="stroke: #000000; stroke-linejoin: miter"/>
     </g>
    </g>
    <g id="text_40">
     <!-- EDO50±SD (n=7) -->
     <g transform="translate(821.335234 105.841172) scale(0.095 -0.095)">
      <use xlink:href="#DejaVuSans-45"/>
      <use xlink:href="#DejaVuSans-44" transform="translate(63.183594 0)"/>
      <use xlink:href="#DejaVuSans-4f" transform="translate(140.185547 0)"/>
      <use xlink:href="#DejaVuSans-35" transform="translate(218.896484 0)"/>
      <use xlink:href="#DejaVuSans-30" transform="translate(282.519531 0)"/>
      <use xlink:href="#DejaVuSans-b1" transform="translate(346.142578 0)"/>
      <use xlink:href="#DejaVuSans-53" transform="translate(429.931641 0)"/>
      <use xlink:href="#DejaVuSans-44" transform="translate(493.408203 0)"/>
      <use xlink:href="#DejaVuSans-20" transform="translate(570.410156 0)"/>
      <use xlink:href="#DejaVuSans-28" transform="translate(602.197266 0)"/>
      <use xlink:href="#DejaVuSans-6e" transform="translate(641.210938 0)"/>
      <use xlink:href="#DejaVuSans-3d" transform="translate(704.589844 0)"/>
      <use xlink:href="#DejaVuSans-37" transform="translate(788.378906 0)"/>
      <use xlink:href="#DejaVuSans-29" transform="translate(852.001953 0)"/>
     </g>
    </g>
   </g>
  </g>
  <g id="text_41">
   <!-- Rohr2024 -->
   <g transform="translate(435.861797 26.196094) scale(0.25 -0.25)">
    <defs>
     <path id="DejaVuSans-Bold-52" d="M 2297 2597 
Q 2675 2597 2839 2737 
Q 3003 2878 3003 3200 
Q 3003 3519 2839 3656 
Q 2675 3794 2297 3794 
L 1791 3794 
L 1791 2597 
L 2297 2597 
z
M 1791 1766 
L 1791 0 
L 588 0 
L 588 4666 
L 2425 4666 
Q 3347 4666 3776 4356 
Q 4206 4047 4206 3378 
Q 4206 2916 3982 2619 
Q 3759 2322 3309 2181 
Q 3556 2125 3751 1926 
Q 3947 1728 4147 1325 
L 4800 0 
L 3519 0 
L 2950 1159 
Q 2778 1509 2601 1637 
Q 2425 1766 2131 1766 
L 1791 1766 
z
" transform="scale(0.015625)"/>
     <path id="DejaVuSans-Bold-32" d="M 1844 884 
L 3897 884 
L 3897 0 
L 506 0 
L 506 884 
L 2209 2388 
Q 2438 2594 2547 2791 
Q 2656 2988 2656 3200 
Q 2656 3528 2436 3728 
Q 2216 3928 1850 3928 
Q 1569 3928 1234 3808 
Q 900 3688 519 3450 
L 519 4475 
Q 925 4609 1322 4679 
Q 1719 4750 2100 4750 
Q 2938 4750 3402 4381 
Q 3866 4013 3866 3353 
Q 3866 2972 3669 2642 
Q 3472 2313 2841 1759 
L 1844 884 
z
" transform="scale(0.015625)"/>
     <path id="DejaVuSans-Bold-30" d="M 2944 2338 
Q 2944 3213 2780 3570 
Q 2616 3928 2228 3928 
Q 1841 3928 1675 3570 
Q 1509 3213 1509 2338 
Q 1509 1453 1675 1090 
Q 1841 728 2228 728 
Q 2613 728 2778 1090 
Q 2944 1453 2944 2338 
z
M 4147 2328 
Q 4147 1169 3647 539 
Q 3147 -91 2228 -91 
Q 1306 -91 806 539 
Q 306 1169 306 2328 
Q 306 3491 806 4120 
Q 1306 4750 2228 4750 
Q 3147 4750 3647 4120 
Q 4147 3491 4147 2328 
z
" transform="scale(0.015625)"/>
     <path id="DejaVuSans-Bold-34" d="M 2356 3675 
L 1038 1722 
L 2356 1722 
L 2356 3675 
z
M 2156 4666 
L 3494 4666 
L 3494 1722 
L 4159 1722 
L 4159 850 
L 3494 850 
L 3494 0 
L 2356 0 
L 2356 850 
L 288 850 
L 288 1881 
L 2156 4666 
z
" transform="scale(0.015625)"/>
    </defs>
    <use xlink:href="#DejaVuSans-Bold-52"/>
    <use xlink:href="#DejaVuSans-Bold-6f" transform="translate(77.001953 0)"/>
    <use xlink:href="#DejaVuSans-Bold-68" transform="translate(145.703125 0)"/>
    <use xlink:href="#DejaVuSans-Bold-72" transform="translate(216.894531 0)"/>
    <use xlink:href="#DejaVuSans-Bold-32" transform="translate(266.210938 0)"/>
    <use xlink:href="#DejaVuSans-Bold-30" transform="translate(335.791016 0)"/>
    <use xlink:href="#DejaVuSans-Bold-32" transform="translate(405.371094 0)"/>
    <use xlink:href="#DejaVuSans-Bold-34" transform="translate(474.951172 0)"/>
   </g>
  </g>
 </g>
 <defs>
  <clipPath id="p87c34aaa48">
   <rect x="88.12625" y="48.24" width="373.617391" height="316.008"/>
  </clipPath>
  <clipPath id="pfa70b305a4">
   <rect x="573.828859" y="48.24" width="373.617391" height="316.008"/>
  </clipPath>
 </defs>
</svg>
