<?xml version="1.0" encoding="utf-8" standalone="no"?>
<!DOCTYPE svg PUBLIC "-//W3C//DTD SVG 1.1//EN"
  "http://www.w3.org/Graphics/SVG/1.1/DTD/svg11.dtd">
<svg xmlns:xlink="http://www.w3.org/1999/xlink" width="360pt" height="360pt" viewBox="0 0 360 360" xmlns="http://www.w3.org/2000/svg" version="1.1">
 <metadata>
  <rdf:RDF xmlns:dc="http://purl.org/dc/elements/1.1/" xmlns:cc="http://creativecommons.org/ns#" xmlns:rdf="http://www.w3.org/1999/02/22-rdf-syntax-ns#">
   <cc:Work>
    <dc:type rdf:resource="http://purl.org/dc/dcmitype/StillImage"/>
    <dc:date>2026-03-05T11:23:05.779690</dc:date>
    <dc:format>image/svg+xml</dc:format>
    <dc:creator>
     <cc:Agent>
      <dc:title>Matplotlib v3.10.8, https://matplotlib.org/</dc:title>
     </cc:Agent>
    </dc:creator>
   </cc:Work>
  </rdf:RDF>
 </metadata>
 <defs>
  <style type="text/css">*{stroke-linejoin: round; stroke-linecap: butt}</style>
 </defs>
 <g id="figure_1">
  <g id="patch_1">
   <path d="M 0 360 
L 360 360 
L 360 0 
L 0 0 
z
" style="fill: #ffffff"/>
  </g>
  <g id="axes_1">
   <g id="patch_2">
    <path d="M 45 320.4 
L 324 320.4 
L 324 43.2 
L 45 43.2 
z
" style="fill: #ffffff"/>
   </g>
   <g id="matplotlib.axis_1">
    <g id="xtick_1">
     <g id="line2d_1">
      <defs>
       <path id="m9f56a44f09" d="M 0 0 
L 0 3.5 
" style="stroke: #000000; stroke-width: 0.8"/>
      </defs>
      <g>
       <use xlink:href="#m9f56a44f09" x="57.681818" y="320.4" style="stroke: #000000; stroke-width: 0.8"/>
      </g>
     </g>
     <g id="text_1">
      <!-- 0 -->
      <g transform="translate(54.500568 334.998438) scale(0.1 -0.1)">
       <defs>
        <path id="DejaVuSans-30" d="M 2034 4250 
Q 1547 4250 1301 3770 
Q 1056 3291 1056 2328 
Q 1056 1369 1301 889 
Q 1547 409 2034 409 
Q 2525 409 2770 889 
Q 3016 1369 3016 2328 
Q 3016 3291 2770 3770 
Q 2525 4250 2034 4250 
z
M 2034 4750 
Q 2819 4750 3233 4129 
Q 3647 3509 3647 2328 
Q 3647 1150 3233 529 
Q 2819 -91 2034 -91 
Q 1250 -91 836 529 
Q 422 1150 422 2328 
Q 422 3509 836 4129 
Q 1250 4750 2034 4750 
z
" transform="scale(0.015625)"/>
       </defs>
       <use xlink:href="#DejaVuSans-30"/>
      </g>
     </g>
    </g>
    <g id="xtick_2">
     <g id="line2d_2">
      <g>
       <use xlink:href="#m9f56a44f09" x="91.5" y="320.4" style="stroke: #000000; stroke-width: 0.8"/>
      </g>
     </g>
     <g id="text_2">
      <!-- 20 -->
      <g transform="translate(85.1375 334.998438) scale(0.1 -0.1)">
       <defs>
        <path id="DejaVuSans-32" d="M 1228 531 
L 3431 531 
L 3431 0 
L 469 0 
L 469 531 
Q 828 903 1448 1529 
Q 2069 2156 2228 2338 
Q 2531 2678 2651 2914 
Q 2772 3150 2772 3378 
Q 2772 3750 2511 3984 
Q 2250 4219 1831 4219 
Q 1534 4219 1204 4116 
Q 875 4013 500 3803 
L 500 4441 
Q 881 4594 1212 4672 
Q 1544 4750 1819 4750 
Q 2544 4750 2975 4387 
Q 3406 4025 3406 3419 
Q 3406 3131 3298 2873 
Q 3191 2616 2906 2266 
Q 2828 2175 2409 1742 
Q 1991 1309 1228 531 
z
" transform="scale(0.015625)"/>
       </defs>
       <use xlink:href="#DejaVuSans-32"/>
       <use xlink:href="#DejaVuSans-30" transform="translate(63.623047 0)"/>
      </g>
     </g>
    </g>
    <g id="xtick_3">
     <g id="line2d_3">
      <g>
       <use xlink:href="#m9f56a44f09" x="125.318182" y="320.4" style="stroke: #000000; stroke-width: 0.8"/>
      </g>
     </g>
     <g id="text_3">
      <!-- 40 -->
      <g transform="translate(118.955682 334.998438) scale(0.1 -0.1)">
       <defs>
        <path id="DejaVuSans-34" d="M 2419 4116 
L 825 1625 
L 2419 1625 
L 2419 4116 
z
M 2253 4666 
L 3047 4666 
L 3047 1625 
L 3713 1625 
L 3713 1100 
L 3047 1100 
L 3047 0 
L 2419 0 
L 2419 1100 
L 313 1100 
L 313 1709 
L 2253 4666 
z
" transform="scale(0.015625)"/>
       </defs>
       <use xlink:href="#DejaVuSans-34"/>
       <use xlink:href="#DejaVuSans-30" transform="translate(63.623047 0)"/>
      </g>
     </g>
    </g>
    <g id="xtick_4">
     <g id="line2d_4">
      <g>
       <use xlink:href="#m9f56a44f09" x="159.136364" y="320.4" style="stroke: #000000; stroke-width: 0.8"/>
      </g>
     </g>
     <g id="text_4">
      <!-- 60 -->
      <g transform="translate(152.773864 334.998438) scale(0.1 -0.1)">
       <defs>
        <path id="DejaVuSans-36" d="M 2113 2584 
Q 1688 2584 1439 2293 
Q 1191 2003 1191 1497 
Q 1191 994 1439 701 
Q 1688 409 2113 409 
Q 2538 409 2786 701 
Q 3034 994 3034 1497 
Q 3034 2003 2786 2293 
Q 2538 2584 2113 2584 
z
M 3366 4563 
L 3366 3988 
Q 3128 4100 2886 4159 
Q 2644 4219 2406 4219 
Q 1781 4219 1451 3797 
Q 1122 3375 1075 2522 
Q 1259 2794 1537 2939 
Q 1816 3084 2150 3084 
Q 2853 3084 3261 2657 
Q 3669 2231 3669 1497 
Q 3669 778 3244 343 
Q 2819 -91 2113 -91 
Q 1303 -91 875 529 
Q 447 1150 447 2328 
Q 447 3434 972 4092 
Q 1497 4750 2381 4750 
Q 2619 4750 2861 4703 
Q 3103 4656 3366 4563 
z
" transform="scale(0.015625)"/>
       </defs>
       <use xlink:href="#DejaVuSans-36"/>
       <use xlink:href="#DejaVuSans-30" transform="translate(63.623047 0)"/>
      </g>
     </g>
    </g>
    <g id="xtick_5">
     <g id="line2d_5">
      <g>
       <use xlink:href="#m9f56a44f09" x="192.954545" y="320.4" style="stroke: #000000; stroke-width: 0.8"/>
      </g>
     </g>
     <g id="text_5">
      <!-- 80 -->
      <g transform="translate(186.592045 334.998438) scale(0.1 -0.1)">
       <defs>
        <path id="DejaVuSans-38" d="M 2034 2216 
Q 1584 2216 1326 1975 
Q 1069 1734 1069 1313 
Q 1069 891 1326 650 
Q 1584 409 2034 409 
Q 2484 409 2743 651 
Q 3003 894 3003 1313 
Q 3003 1734 2745 1975 
Q 2488 2216 2034 2216 
z
M 1403 2484 
Q 997 2584 770 2862 
Q 544 3141 544 3541 
Q 544 4100 942 4425 
Q 1341 4750 2034 4750 
Q 2731 4750 3128 4425 
Q 3525 4100 3525 3541 
Q 3525 3141 3298 2862 
Q 3072 2584 2669 2484 
Q 3125 2378 3379 2068 
Q 3634 1759 3634 1313 
Q 3634 634 3220 271 
Q 2806 -91 2034 -91 
Q 1263 -91 848 271 
Q 434 634 434 1313 
Q 434 1759 690 2068 
Q 947 2378 1403 2484 
z
M 1172 3481 
Q 1172 3119 1398 2916 
Q 1625 2713 2034 2713 
Q 2441 2713 2670 2916 
Q 2900 3119 2900 3481 
Q 2900 3844 2670 4047 
Q 2441 4250 2034 4250 
Q 1625 4250 1398 4047 
Q 1172 3844 1172 3481 
z
" transform="scale(0.015625)"/>
       </defs>
       <use xlink:href="#DejaVuSans-38"/>
       <use xlink:href="#DejaVuSans-30" transform="translate(63.623047 0)"/>
      </g>
     </g>
    </g>
    <g id="xtick_6">
     <g id="line2d_6">
      <g>
       <use xlink:href="#m9f56a44f09" x="226.772727" y="320.4" style="stroke: #000000; stroke-width: 0.8"/>
      </g>
     </g>
     <g id="text_6">
      <!-- 100 -->
      <g transform="translate(217.228977 334.998438) scale(0.1 -0.1)">
       <defs>
        <path id="DejaVuSans-31" d="M 794 531 
L 1825 531 
L 1825 4091 
L 703 3866 
L 703 4441 
L 1819 4666 
L 2450 4666 
L 2450 531 
L 3481 531 
L 3481 0 
L 794 0 
L 794 531 
z
" transform="scale(0.015625)"/>
       </defs>
       <use xlink:href="#DejaVuSans-31"/>
       <use xlink:href="#DejaVuSans-30" transform="translate(63.623047 0)"/>
       <use xlink:href="#DejaVuSans-30" transform="translate(127.246094 0)"/>
      </g>
     </g>
    </g>
    <g id="xtick_7">
     <g id="line2d_7">
      <g>
       <use xlink:href="#m9f56a44f09" x="260.590909" y="320.4" style="stroke: #000000; stroke-width: 0.8"/>
      </g>
     </g>
     <g id="text_7">
      <!-- 120 -->
      <g transform="translate(251.047159 334.998438) scale(0.1 -0.1)">
       <use xlink:href="#DejaVuSans-31"/>
       <use xlink:href="#DejaVuSans-32" transform="translate(63.623047 0)"/>
       <use xlink:href="#DejaVuSans-30" transform="translate(127.246094 0)"/>
      </g>
     </g>
    </g>
    <g id="xtick_8">
     <g id="line2d_8">
      <g>
       <use xlink:href="#m9f56a44f09" x="294.409091" y="320.4" style="stroke: #000000; stroke-width: 0.8"/>
      </g>
     </g>
     <g id="text_8">
      <!-- 140 -->
      <g transform="translate(284.865341 334.998438) scale(0.1 -0.1)">
       <use xlink:href="#DejaVuSans-31"/>
       <use xlink:href="#DejaVuSans-34" transform="translate(63.623047 0)"/>
       <use xlink:href="#DejaVuSans-30" transform="translate(127.246094 0)"/>
      </g>
     </g>
    </g>
    <g id="text_9">
     <!-- Optimization step -->
     <g transform="translate(131.233125 350.19625) scale(0.12 -0.12)">
      <defs>
       <path id="DejaVuSans-4f" d="M 2522 4238 
Q 1834 4238 1429 3725 
Q 1025 3213 1025 2328 
Q 1025 1447 1429 934 
Q 1834 422 2522 422 
Q 3209 422 3611 934 
Q 4013 1447 4013 2328 
Q 4013 3213 3611 3725 
Q 3209 4238 2522 4238 
z
M 2522 4750 
Q 3503 4750 4090 4092 
Q 4678 3434 4678 2328 
Q 4678 1225 4090 567 
Q 3503 -91 2522 -91 
Q 1538 -91 948 565 
Q 359 1222 359 2328 
Q 359 3434 948 4092 
Q 1538 4750 2522 4750 
z
" transform="scale(0.015625)"/>
       <path id="DejaVuSans-70" d="M 1159 525 
L 1159 -1331 
L 581 -1331 
L 581 3500 
L 1159 3500 
L 1159 2969 
Q 1341 3281 1617 3432 
Q 1894 3584 2278 3584 
Q 2916 3584 3314 3078 
Q 3713 2572 3713 1747 
Q 3713 922 3314 415 
Q 2916 -91 2278 -91 
Q 1894 -91 1617 61 
Q 1341 213 1159 525 
z
M 3116 1747 
Q 3116 2381 2855 2742 
Q 2594 3103 2138 3103 
Q 1681 3103 1420 2742 
Q 1159 2381 1159 1747 
Q 1159 1113 1420 752 
Q 1681 391 2138 391 
Q 2594 391 2855 752 
Q 3116 1113 3116 1747 
z
" transform="scale(0.015625)"/>
       <path id="DejaVuSans-74" d="M 1172 4494 
L 1172 3500 
L 2356 3500 
L 2356 3053 
L 1172 3053 
L 1172 1153 
Q 1172 725 1289 603 
Q 1406 481 1766 481 
L 2356 481 
L 2356 0 
L 1766 0 
Q 1100 0 847 248 
Q 594 497 594 1153 
L 594 3053 
L 172 3053 
L 172 3500 
L 594 3500 
L 594 4494 
L 1172 4494 
z
" transform="scale(0.015625)"/>
       <path id="DejaVuSans-69" d="M 603 3500 
L 1178 3500 
L 1178 0 
L 603 0 
L 603 3500 
z
M 603 4863 
L 1178 4863 
L 1178 4134 
L 603 4134 
L 603 4863 
z
" transform="scale(0.015625)"/>
       <path id="DejaVuSans-6d" d="M 3328 2828 
Q 3544 3216 3844 3400 
Q 4144 3584 4550 3584 
Q 5097 3584 5394 3201 
Q 5691 2819 5691 2113 
L 5691 0 
L 5113 0 
L 5113 2094 
Q 5113 2597 4934 2840 
Q 4756 3084 4391 3084 
Q 3944 3084 3684 2787 
Q 3425 2491 3425 1978 
L 3425 0 
L 2847 0 
L 2847 2094 
Q 2847 2600 2669 2842 
Q 2491 3084 2119 3084 
Q 1678 3084 1418 2786 
Q 1159 2488 1159 1978 
L 1159 0 
L 581 0 
L 581 3500 
L 1159 3500 
L 1159 2956 
Q 1356 3278 1631 3431 
Q 1906 3584 2284 3584 
Q 2666 3584 2933 3390 
Q 3200 3197 3328 2828 
z
" transform="scale(0.015625)"/>
       <path id="DejaVuSans-7a" d="M 353 3500 
L 3084 3500 
L 3084 2975 
L 922 459 
L 3084 459 
L 3084 0 
L 275 0 
L 275 525 
L 2438 3041 
L 353 3041 
L 353 3500 
z
" transform="scale(0.015625)"/>
       <path id="DejaVuSans-61" d="M 2194 1759 
Q 1497 1759 1228 1600 
Q 959 1441 959 1056 
Q 959 750 1161 570 
Q 1363 391 1709 391 
Q 2188 391 2477 730 
Q 2766 1069 2766 1631 
L 2766 1759 
L 2194 1759 
z
M 3341 1997 
L 3341 0 
L 2766 0 
L 2766 531 
Q 2569 213 2275 61 
Q 1981 -91 1556 -91 
Q 1019 -91 701 211 
Q 384 513 384 1019 
Q 384 1609 779 1909 
Q 1175 2209 1959 2209 
L 2766 2209 
L 2766 2266 
Q 2766 2663 2505 2880 
Q 2244 3097 1772 3097 
Q 1472 3097 1187 3025 
Q 903 2953 641 2809 
L 641 3341 
Q 956 3463 1253 3523 
Q 1550 3584 1831 3584 
Q 2591 3584 2966 3190 
Q 3341 2797 3341 1997 
z
" transform="scale(0.015625)"/>
       <path id="DejaVuSans-6f" d="M 1959 3097 
Q 1497 3097 1228 2736 
Q 959 2375 959 1747 
Q 959 1119 1226 758 
Q 1494 397 1959 397 
Q 2419 397 2687 759 
Q 2956 1122 2956 1747 
Q 2956 2369 2687 2733 
Q 2419 3097 1959 3097 
z
M 1959 3584 
Q 2709 3584 3137 3096 
Q 3566 2609 3566 1747 
Q 3566 888 3137 398 
Q 2709 -91 1959 -91 
Q 1206 -91 779 398 
Q 353 888 353 1747 
Q 353 2609 779 3096 
Q 1206 3584 1959 3584 
z
" transform="scale(0.015625)"/>
       <path id="DejaVuSans-6e" d="M 3513 2113 
L 3513 0 
L 2938 0 
L 2938 2094 
Q 2938 2591 2744 2837 
Q 2550 3084 2163 3084 
Q 1697 3084 1428 2787 
Q 1159 2491 1159 1978 
L 1159 0 
L 581 0 
L 581 3500 
L 1159 3500 
L 1159 2956 
Q 1366 3272 1645 3428 
Q 1925 3584 2291 3584 
Q 2894 3584 3203 3211 
Q 3513 2838 3513 2113 
z
" transform="scale(0.015625)"/>
       <path id="DejaVuSans-20" transform="scale(0.015625)"/>
       <path id="DejaVuSans-73" d="M 2834 3397 
L 2834 2853 
Q 2591 2978 2328 3040 
Q 2066 3103 1784 3103 
Q 1356 3103 1142 2972 
Q 928 2841 928 2578 
Q 928 2378 1081 2264 
Q 1234 2150 1697 2047 
L 1894 2003 
Q 2506 1872 2764 1633 
Q 3022 1394 3022 966 
Q 3022 478 2636 193 
Q 2250 -91 1575 -91 
Q 1294 -91 989 -36 
Q 684 19 347 128 
L 347 722 
Q 666 556 975 473 
Q 1284 391 1588 391 
Q 1994 391 2212 530 
Q 2431 669 2431 922 
Q 2431 1156 2273 1281 
Q 2116 1406 1581 1522 
L 1381 1569 
Q 847 1681 609 1914 
Q 372 2147 372 2553 
Q 372 3047 722 3315 
Q 1072 3584 1716 3584 
Q 2034 3584 2315 3537 
Q 2597 3491 2834 3397 
z
" transform="scale(0.015625)"/>
       <path id="DejaVuSans-65" d="M 3597 1894 
L 3597 1613 
L 953 1613 
Q 991 1019 1311 708 
Q 1631 397 2203 397 
Q 2534 397 2845 478 
Q 3156 559 3463 722 
L 3463 178 
Q 3153 47 2828 -22 
Q 2503 -91 2169 -91 
Q 1331 -91 842 396 
Q 353 884 353 1716 
Q 353 2575 817 3079 
Q 1281 3584 2069 3584 
Q 2775 3584 3186 3129 
Q 3597 2675 3597 1894 
z
M 3022 2063 
Q 3016 2534 2758 2815 
Q 2500 3097 2075 3097 
Q 1594 3097 1305 2825 
Q 1016 2553 972 2059 
L 3022 2063 
z
" transform="scale(0.015625)"/>
      </defs>
      <use xlink:href="#DejaVuSans-4f"/>
      <use xlink:href="#DejaVuSans-70" transform="translate(78.710938 0)"/>
      <use xlink:href="#DejaVuSans-74" transform="translate(142.1875 0)"/>
      <use xlink:href="#DejaVuSans-69" transform="translate(181.396484 0)"/>
      <use xlink:href="#DejaVuSans-6d" transform="translate(209.179688 0)"/>
      <use xlink:href="#DejaVuSans-69" transform="translate(306.591797 0)"/>
      <use xlink:href="#DejaVuSans-7a" transform="translate(334.375 0)"/>
      <use xlink:href="#DejaVuSans-61" transform="translate(386.865234 0)"/>
      <use xlink:href="#DejaVuSans-74" transform="translate(448.144531 0)"/>
      <use xlink:href="#DejaVuSans-69" transform="translate(487.353516 0)"/>
      <use xlink:href="#DejaVuSans-6f" transform="translate(515.136719 0)"/>
      <use xlink:href="#DejaVuSans-6e" transform="translate(576.318359 0)"/>
      <use xlink:href="#DejaVuSans-20" transform="translate(639.697266 0)"/>
      <use xlink:href="#DejaVuSans-73" transform="translate(671.484375 0)"/>
      <use xlink:href="#DejaVuSans-74" transform="translate(723.583984 0)"/>
      <use xlink:href="#DejaVuSans-65" transform="translate(762.792969 0)"/>
      <use xlink:href="#DejaVuSans-70" transform="translate(824.316406 0)"/>
     </g>
    </g>
   </g>
   <g id="matplotlib.axis_2">
    <g id="ytick_1">
     <g id="line2d_9">
      <defs>
       <path id="m1ff2eb895b" d="M 0 0 
L -3.5 0 
" style="stroke: #000000; stroke-width: 0.8"/>
      </defs>
      <g>
       <use xlink:href="#m1ff2eb895b" x="45" y="193.438182" style="stroke: #000000; stroke-width: 0.8"/>
      </g>
     </g>
     <g id="text_10">
      <!-- $\mathdefault{10^{2}}$ -->
      <g transform="translate(20.4 197.2374) scale(0.1 -0.1)">
       <use xlink:href="#DejaVuSans-31" transform="translate(0 0.765625)"/>
       <use xlink:href="#DejaVuSans-30" transform="translate(63.623047 0.765625)"/>
       <use xlink:href="#DejaVuSans-32" transform="translate(128.203125 39.046875) scale(0.7)"/>
      </g>
     </g>
    </g>
    <g id="ytick_2">
     <g id="line2d_10">
      <defs>
       <path id="ma4f69fbd54" d="M 0 0 
L -2 0 
" style="stroke: #000000; stroke-width: 0.6"/>
      </defs>
      <g>
       <use xlink:href="#ma4f69fbd54" x="45" y="307.81261" style="stroke: #000000; stroke-width: 0.6"/>
      </g>
     </g>
    </g>
    <g id="ytick_3">
     <g id="line2d_11">
      <g>
       <use xlink:href="#ma4f69fbd54" x="45" y="278.998302" style="stroke: #000000; stroke-width: 0.6"/>
      </g>
     </g>
    </g>
    <g id="ytick_4">
     <g id="line2d_12">
      <g>
       <use xlink:href="#ma4f69fbd54" x="45" y="258.554225" style="stroke: #000000; stroke-width: 0.6"/>
      </g>
     </g>
    </g>
    <g id="ytick_5">
     <g id="line2d_13">
      <g>
       <use xlink:href="#ma4f69fbd54" x="45" y="242.696567" style="stroke: #000000; stroke-width: 0.6"/>
      </g>
     </g>
    </g>
    <g id="ytick_6">
     <g id="line2d_14">
      <g>
       <use xlink:href="#ma4f69fbd54" x="45" y="229.739917" style="stroke: #000000; stroke-width: 0.6"/>
      </g>
     </g>
    </g>
    <g id="ytick_7">
     <g id="line2d_15">
      <g>
       <use xlink:href="#ma4f69fbd54" x="45" y="218.785225" style="stroke: #000000; stroke-width: 0.6"/>
      </g>
     </g>
    </g>
    <g id="ytick_8">
     <g id="line2d_16">
      <g>
       <use xlink:href="#ma4f69fbd54" x="45" y="209.29584" style="stroke: #000000; stroke-width: 0.6"/>
      </g>
     </g>
    </g>
    <g id="ytick_9">
     <g id="line2d_17">
      <g>
       <use xlink:href="#ma4f69fbd54" x="45" y="200.925609" style="stroke: #000000; stroke-width: 0.6"/>
      </g>
     </g>
    </g>
    <g id="ytick_10">
     <g id="line2d_18">
      <g>
       <use xlink:href="#ma4f69fbd54" x="45" y="144.179796" style="stroke: #000000; stroke-width: 0.6"/>
      </g>
     </g>
    </g>
    <g id="ytick_11">
     <g id="line2d_19">
      <g>
       <use xlink:href="#ma4f69fbd54" x="45" y="115.365488" style="stroke: #000000; stroke-width: 0.6"/>
      </g>
     </g>
    </g>
    <g id="ytick_12">
     <g id="line2d_20">
      <g>
       <use xlink:href="#ma4f69fbd54" x="45" y="94.921411" style="stroke: #000000; stroke-width: 0.6"/>
      </g>
     </g>
    </g>
    <g id="ytick_13">
     <g id="line2d_21">
      <g>
       <use xlink:href="#ma4f69fbd54" x="45" y="79.063753" style="stroke: #000000; stroke-width: 0.6"/>
      </g>
     </g>
    </g>
    <g id="ytick_14">
     <g id="line2d_22">
      <g>
       <use xlink:href="#ma4f69fbd54" x="45" y="66.107103" style="stroke: #000000; stroke-width: 0.6"/>
      </g>
     </g>
    </g>
    <g id="ytick_15">
     <g id="line2d_23">
      <g>
       <use xlink:href="#ma4f69fbd54" x="45" y="55.152411" style="stroke: #000000; stroke-width: 0.6"/>
      </g>
     </g>
    </g>
    <g id="ytick_16">
     <g id="line2d_24">
      <g>
       <use xlink:href="#ma4f69fbd54" x="45" y="45.663026" style="stroke: #000000; stroke-width: 0.6"/>
      </g>
     </g>
    </g>
    <g id="text_11">
     <!-- Cost -->
     <g transform="translate(13.904375 195.13875) rotate(-90) scale(0.12 -0.12)">
      <defs>
       <path id="DejaVuSans-43" d="M 4122 4306 
L 4122 3641 
Q 3803 3938 3442 4084 
Q 3081 4231 2675 4231 
Q 1875 4231 1450 3742 
Q 1025 3253 1025 2328 
Q 1025 1406 1450 917 
Q 1875 428 2675 428 
Q 3081 428 3442 575 
Q 3803 722 4122 1019 
L 4122 359 
Q 3791 134 3420 21 
Q 3050 -91 2638 -91 
Q 1578 -91 968 557 
Q 359 1206 359 2328 
Q 359 3453 968 4101 
Q 1578 4750 2638 4750 
Q 3056 4750 3426 4639 
Q 3797 4528 4122 4306 
z
" transform="scale(0.015625)"/>
      </defs>
      <use xlink:href="#DejaVuSans-43"/>
      <use xlink:href="#DejaVuSans-6f" transform="translate(69.824219 0)"/>
      <use xlink:href="#DejaVuSans-73" transform="translate(131.005859 0)"/>
      <use xlink:href="#DejaVuSans-74" transform="translate(183.105469 0)"/>
     </g>
    </g>
   </g>
   <g id="line2d_25">
    <path d="M 57.681818 154.840528 
L 59.372727 154.848373 
L 61.063636 154.839732 
L 62.754545 154.838265 
L 64.445455 154.842519 
L 66.136364 154.838573 
L 67.827273 154.842728 
L 69.518182 154.843781 
L 71.209091 156.253952 
L 72.9 156.257997 
L 74.590909 156.248656 
L 76.281818 156.250239 
L 77.972727 156.265315 
L 79.663636 156.214619 
L 81.354545 156.255869 
L 83.045455 156.266619 
L 84.736364 162.859184 
L 86.427273 162.862572 
L 88.118182 162.865121 
L 89.809091 162.858043 
L 91.5 162.880436 
L 93.190909 162.937043 
L 94.881818 162.864865 
L 96.572727 162.773718 
L 98.263636 130.7238 
L 99.954545 168.673749 
L 101.645455 168.689659 
L 103.336364 168.720412 
L 105.027273 168.663925 
L 106.718182 168.712279 
L 108.409091 168.787144 
L 110.1 168.683701 
L 111.790909 168.212003 
L 113.481818 203.205483 
L 115.172727 203.054859 
L 116.863636 200.7328 
L 118.554545 202.750096 
L 120.245455 199.564334 
L 121.936364 192.890948 
L 123.627273 203.191766 
L 125.318182 195.660954 
L 127.009091 302.881296 
L 128.7 303.408631 
L 130.390909 303.079393 
L 132.081818 302.517521 
L 133.772727 301.794828 
L 135.463636 299.326541 
L 137.154545 302.971873 
L 138.845455 301.120961 
L 140.536364 306.899743 
L 142.227273 307.142966 
L 143.918182 307.093609 
L 145.609091 306.77158 
L 147.3 307.308449 
L 148.990909 306.77567 
L 150.681818 306.924009 
L 152.372727 307.174045 
L 154.063636 307.578928 
L 155.754545 307.62446 
L 157.445455 307.613475 
L 159.136364 307.462081 
L 160.827273 307.495214 
L 162.518182 306.549555 
L 164.209091 307.602597 
L 165.9 307.114331 
L 167.590909 307.397615 
L 169.281818 307.627838 
L 170.972727 307.651672 
L 172.663636 307.619109 
L 174.354545 307.539608 
L 176.045455 307.535604 
L 177.736364 307.022234 
L 179.427273 307.601277 
L 181.118182 307.080724 
L 182.809091 307.656368 
L 184.5 307.652036 
L 186.190909 307.754402 
L 187.881818 307.508817 
L 189.572727 307.506048 
L 191.263636 306.995344 
L 192.954545 307.701055 
L 194.645455 306.815191 
L 196.336364 307.75779 
L 198.027273 307.722454 
L 199.718182 307.690165 
L 201.409091 307.598071 
L 203.1 307.381742 
L 204.790909 306.844908 
L 206.481818 307.719442 
L 208.172727 306.690473 
L 209.863636 307.688964 
L 211.554545 307.663355 
L 213.245455 307.663165 
L 214.936364 307.689989 
L 216.627273 307.796927 
L 218.318182 307.710796 
L 220.009091 307.785054 
L 221.7 307.62228 
L 223.390909 307.38791 
L 225.081818 306.838916 
L 226.772727 307.722113 
L 228.463636 306.712418 
L 230.154545 307.690603 
L 231.845455 307.710038 
L 233.536364 307.751643 
L 235.227273 307.678874 
L 236.918182 307.613947 
L 238.609091 307.674875 
L 240.3 307.633647 
L 241.990909 307.751327 
L 243.681818 307.697153 
" clip-path="url(#p02a9fabd97)" style="fill: none; stroke: #1f77b4; stroke-opacity: 0.8; stroke-width: 1.5; stroke-linecap: square"/>
   </g>
   <g id="line2d_26">
    <path d="M 57.681818 155.683155 
L 59.372727 155.687442 
L 61.063636 155.687782 
L 62.754545 155.65334 
L 64.445455 155.60434 
L 66.136364 155.691305 
L 67.827273 155.690046 
L 69.518182 155.698409 
L 71.209091 82.659364 
L 72.9 166.343645 
L 74.590909 166.35431 
L 76.281818 166.364127 
L 77.972727 165.902439 
L 79.663636 166.722857 
L 81.354545 166.537047 
L 83.045455 166.355244 
L 84.736364 166.415583 
L 86.427273 284.813341 
L 88.118182 284.608821 
L 89.809091 284.071762 
L 91.5 283.578408 
L 93.190909 272.984109 
L 94.881818 273.364538 
L 96.572727 284.875602 
L 98.263636 280.521227 
L 99.954545 305.982684 
L 101.645455 306.050291 
L 103.336364 306.05713 
L 105.027273 305.164558 
L 106.718182 304.605924 
L 108.409091 304.79524 
L 110.1 306.002653 
L 111.790909 305.897151 
L 113.481818 307.115391 
L 115.172727 307.179813 
L 116.863636 307.198304 
L 118.554545 306.772441 
L 120.245455 306.192331 
L 121.936364 306.234407 
L 123.627273 307.136291 
L 125.318182 307.040961 
L 127.009091 306.328337 
L 128.7 307.324108 
L 130.390909 307.363637 
L 132.081818 307.343871 
L 133.772727 307.05155 
L 135.463636 305.959219 
L 137.154545 306.225965 
L 138.845455 307.328648 
L 140.536364 307.023919 
L 142.227273 307.483267 
L 143.918182 307.513408 
L 145.609091 307.479668 
L 147.3 307.319578 
L 148.990909 305.921458 
L 150.681818 306.461748 
L 152.372727 307.452326 
L 154.063636 307.202062 
L 155.754545 306.287898 
L 157.445455 307.436313 
L 159.136364 307.455004 
L 160.827273 307.529715 
L 162.518182 307.488692 
L 164.209091 307.474642 
L 165.9 307.234883 
L 167.590909 305.780511 
L 169.281818 306.353762 
L 170.972727 307.531047 
L 172.663636 307.019239 
L 174.354545 307.374521 
L 176.045455 307.576909 
L 177.736364 307.465405 
L 179.427273 307.454531 
L 181.118182 307.29565 
L 182.809091 305.890231 
L 184.5 306.501091 
L 186.190909 307.496077 
L 187.881818 307.0307 
L 189.572727 307.503988 
L 191.263636 307.461895 
L 192.954545 307.444273 
L 194.645455 307.41541 
L 196.336364 307.579447 
L 198.027273 307.465665 
L 199.718182 307.454798 
L 201.409091 307.295685 
L 203.1 305.845727 
L 204.790909 306.500767 
L 206.481818 307.473817 
L 208.172727 307.062955 
L 209.863636 307.542059 
L 211.554545 307.575439 
L 213.245455 307.573401 
L 214.936364 307.579457 
L 216.627273 307.465465 
L 218.318182 307.454583 
L 220.009091 307.163975 
L 221.7 305.849528 
L 223.390909 306.501613 
L 225.081818 307.476994 
L 226.772727 307.069563 
L 228.463636 307.573624 
L 230.154545 307.579018 
L 231.845455 307.579157 
L 233.536364 307.579034 
" clip-path="url(#p02a9fabd97)" style="fill: none; stroke: #ff7f0e; stroke-opacity: 0.8; stroke-width: 1.5; stroke-linecap: square"/>
   </g>
   <g id="line2d_27">
    <path d="M 57.681818 155.217752 
L 59.372727 155.208102 
L 61.063636 155.210584 
L 62.754545 155.198936 
L 64.445455 155.21102 
L 66.136364 155.158325 
L 67.827273 155.209075 
L 69.518182 155.205063 
L 71.209091 161.183552 
L 72.9 161.176407 
L 74.590909 161.180863 
L 76.281818 161.147283 
L 77.972727 161.173215 
L 79.663636 161.18353 
L 81.354545 161.17569 
L 83.045455 161.208377 
L 84.736364 161.352089 
L 86.427273 161.346024 
L 88.118182 161.356034 
L 89.809091 161.349151 
L 91.5 161.324218 
L 93.190909 161.360357 
L 94.881818 161.351954 
L 96.572727 161.35629 
L 98.263636 167.199591 
L 99.954545 167.240364 
L 101.645455 167.236923 
L 103.336364 167.226577 
L 105.027273 167.58125 
L 106.718182 167.246243 
L 108.409091 167.222608 
L 110.1 167.213847 
L 111.790909 233.869776 
L 113.481818 233.408084 
L 115.172727 232.040064 
L 116.863636 230.803977 
L 118.554545 211.138524 
L 120.245455 228.699619 
L 121.936364 233.862537 
L 123.627273 234.507912 
L 125.318182 292.05225 
L 127.009091 292.537457 
L 128.7 292.928053 
L 130.390909 288.049114 
L 132.081818 286.508376 
L 133.772727 291.318769 
L 135.463636 292.081706 
L 137.154545 291.949875 
L 138.845455 244.770256 
L 140.536364 301.274595 
L 142.227273 301.65002 
L 143.918182 301.769815 
L 145.609091 299.103449 
L 147.3 298.78859 
L 148.990909 301.578696 
L 150.681818 301.314153 
L 152.372727 301.217135 
L 154.063636 305.327443 
L 155.754545 305.436064 
L 157.445455 305.599093 
L 159.136364 304.369649 
L 160.827273 303.901729 
L 162.518182 305.879255 
L 164.209091 305.388102 
L 165.9 305.639989 
L 167.590909 307.011892 
L 169.281818 307.009953 
L 170.972727 306.988377 
L 172.663636 306.537725 
L 174.354545 301.908554 
L 176.045455 306.806372 
L 177.736364 306.979457 
L 179.427273 306.977836 
L 181.118182 306.322406 
L 182.809091 307.220391 
L 184.5 307.324076 
L 186.190909 307.191365 
L 187.881818 306.967049 
L 189.572727 302.559625 
L 191.263636 307.088593 
L 192.954545 307.232171 
L 194.645455 307.250202 
L 196.336364 307.438736 
L 198.027273 307.454282 
L 199.718182 307.417633 
L 201.409091 307.200292 
L 203.1 301.932398 
L 204.790909 307.202811 
L 206.481818 307.40192 
L 208.172727 307.400801 
L 209.863636 307.187709 
L 211.554545 307.484426 
L 213.245455 307.486457 
L 214.936364 307.426072 
L 216.627273 307.265985 
L 218.318182 302.006198 
L 220.009091 307.251252 
L 221.7 307.530937 
L 223.390909 307.481564 
L 225.081818 307.502188 
L 226.772727 307.453777 
L 228.463636 307.454423 
L 230.154545 307.31542 
L 231.845455 302.586441 
L 233.536364 307.389623 
L 235.227273 307.484504 
L 236.918182 307.458124 
L 238.609091 307.48704 
L 240.3 307.449152 
L 241.990909 307.440733 
L 243.681818 307.429583 
L 245.372727 307.459677 
L 247.063636 307.427593 
L 248.754545 307.469739 
L 250.445455 307.47437 
L 252.136364 307.474597 
L 253.827273 307.47418 
L 255.518182 307.474136 
" clip-path="url(#p02a9fabd97)" style="fill: none; stroke: #2ca02c; stroke-opacity: 0.8; stroke-width: 1.5; stroke-linecap: square"/>
   </g>
   <g id="line2d_28">
    <path d="M 57.681818 184.292469 
L 59.372727 184.456256 
L 61.063636 184.506372 
L 62.754545 178.549102 
L 64.445455 184.667267 
L 66.136364 184.158483 
L 67.827273 184.29101 
L 69.518182 185.073547 
L 71.209091 265.483129 
L 74.590909 265.549466 
L 76.281818 254.605311 
L 77.972727 265.158153 
L 79.663636 265.535882 
L 81.354545 265.52892 
L 83.045455 264.113555 
L 84.736364 288.308044 
L 88.118182 288.550711 
L 89.809091 282.582729 
L 91.5 289.529244 
L 93.190909 289.142539 
L 94.881818 288.342559 
L 96.572727 291.481134 
L 98.263636 303.634139 
L 101.645455 303.592283 
L 103.336364 301.35528 
L 105.027273 303.705479 
L 106.718182 303.722333 
L 108.409091 303.574438 
L 110.1 302.933741 
L 111.790909 261.31682 
L 113.481818 306.453131 
L 116.863636 306.460035 
L 118.554545 305.428734 
L 120.245455 306.353155 
L 123.627273 306.451643 
L 125.318182 305.472777 
L 127.009091 305.794603 
L 128.7 307.125943 
L 130.390909 307.154855 
L 132.081818 307.050614 
L 133.772727 306.576753 
L 135.463636 306.969702 
L 138.845455 307.120681 
L 140.536364 305.920996 
L 142.227273 305.255875 
L 143.918182 307.290215 
L 147.3 307.283745 
L 148.990909 306.838478 
L 150.681818 307.19064 
L 154.063636 307.289672 
L 155.754545 306.07481 
L 157.445455 307.440731 
L 159.136364 307.520217 
L 160.827273 307.468703 
L 162.518182 307.1619 
L 165.9 307.483451 
L 167.590909 307.458816 
L 169.281818 306.160706 
L 170.972727 307.461218 
L 174.354545 307.592033 
L 176.045455 307.329027 
L 179.427273 307.551706 
L 181.118182 307.568191 
L 182.809091 306.14134 
L 184.5 307.613636 
L 187.881818 307.544358 
L 189.572727 307.364047 
L 191.263636 307.297273 
L 192.954545 307.527412 
L 194.645455 307.605039 
L 196.336364 306.067915 
L 198.027273 307.600366 
L 201.409091 307.570463 
L 208.172727 307.63646 
L 211.554545 307.363806 
L 216.627273 307.513953 
L 218.318182 306.16167 
L 220.009091 307.555874 
L 225.081818 307.614748 
L 226.772727 307.636126 
L 230.154545 307.363912 
L 235.227273 307.513671 
L 236.918182 306.158244 
L 238.609091 307.610396 
L 241.990909 307.636017 
L 245.372727 307.363949 
L 250.445455 307.513747 
L 252.136364 306.158291 
L 253.827273 307.58246 
L 257.209091 307.635803 
L 260.590909 307.363928 
L 265.663636 307.513643 
L 267.354545 306.158099 
L 269.045455 307.582996 
L 272.427273 307.635905 
L 275.809091 307.363906 
L 280.881818 307.513688 
L 282.572727 306.158329 
L 284.263636 307.615421 
L 287.645455 307.615268 
L 287.645455 307.615268 
" clip-path="url(#p02a9fabd97)" style="fill: none; stroke: #d62728; stroke-opacity: 0.8; stroke-width: 1.5; stroke-linecap: square"/>
   </g>
   <g id="line2d_29">
    <path d="M 57.681818 155.24068 
L 59.372727 155.248515 
L 61.063636 155.245955 
L 62.754545 155.380873 
L 64.445455 155.246384 
L 66.136364 155.227668 
L 67.827273 155.244912 
L 69.518182 155.240169 
L 71.209091 55.8 
L 72.9 160.285759 
L 74.590909 160.286372 
L 76.281818 160.287674 
L 77.972727 159.480375 
L 79.663636 160.289806 
L 81.354545 160.46966 
L 83.045455 160.285846 
L 84.736364 160.206945 
L 86.427273 264.967351 
L 88.118182 264.916756 
L 89.809091 263.456762 
L 91.5 262.011727 
L 93.190909 262.129066 
L 94.881818 254.980313 
L 96.572727 264.972428 
L 98.263636 255.357652 
L 99.954545 302.760077 
L 101.645455 303.038339 
L 103.336364 303.027348 
L 105.027273 300.552188 
L 106.718182 302.834703 
L 108.409091 302.103617 
L 110.1 302.753861 
L 111.790909 302.387631 
L 113.481818 306.26726 
L 115.172727 306.356193 
L 116.863636 306.327584 
L 118.554545 305.387753 
L 120.245455 306.451219 
L 121.936364 306.052379 
L 123.627273 306.273713 
L 125.318182 306.151874 
L 127.009091 307.379789 
L 128.7 307.36431 
L 130.390909 307.397552 
L 132.081818 306.88562 
L 133.772727 307.356488 
L 135.463636 306.656823 
L 137.154545 307.345296 
L 138.845455 306.497595 
L 140.536364 305.63305 
L 142.227273 307.556596 
L 143.918182 307.552013 
L 145.609091 307.487597 
L 147.3 307.248862 
L 148.990909 307.404494 
L 150.681818 306.785759 
L 152.372727 307.556601 
L 154.063636 306.515708 
L 155.754545 307.397897 
L 157.445455 307.526961 
L 159.136364 307.375883 
L 160.827273 307.525602 
L 162.518182 307.560491 
L 164.209091 307.579795 
L 165.9 307.512901 
L 167.590909 307.235795 
L 169.281818 307.442682 
L 170.972727 306.845231 
L 172.663636 307.56047 
L 174.354545 306.52144 
L 176.045455 307.495201 
L 177.736364 307.561228 
L 179.427273 307.579284 
L 181.118182 307.510962 
L 182.809091 307.207442 
L 184.5 307.449486 
L 186.190909 306.894494 
L 187.881818 307.561211 
L 189.572727 306.523445 
L 191.263636 307.528682 
L 192.954545 307.561564 
L 194.645455 307.514125 
L 196.336364 307.528199 
L 198.027273 307.235884 
L 199.718182 307.447955 
L 201.409091 306.847283 
L 203.1 307.561524 
L 204.790909 306.456925 
L 206.481818 307.559535 
L 208.172727 307.558873 
L 209.863636 307.560008 
L 211.554545 307.559565 
L 213.245455 307.559569 
L 214.936364 307.561905 
L 216.627273 307.61471 
L 218.318182 307.511896 
L 220.009091 307.235617 
L 221.7 307.543965 
L 223.390909 306.806015 
L 225.081818 307.561875 
L 226.772727 306.545245 
L 228.463636 307.560073 
L 230.154545 307.559259 
L 231.845455 307.559567 
" clip-path="url(#p02a9fabd97)" style="fill: none; stroke: #9467bd; stroke-opacity: 0.8; stroke-width: 1.5; stroke-linecap: square"/>
   </g>
   <g id="line2d_30">
    <path d="M 57.681818 155.586381 
L 59.372727 155.585986 
L 61.063636 155.592373 
L 62.754545 155.583216 
L 64.445455 155.514164 
L 66.136364 155.589836 
L 67.827273 155.58574 
L 69.518182 155.601166 
L 71.209091 112.130854 
L 72.9 160.057755 
L 74.590909 160.0532 
L 76.281818 160.050455 
L 77.972727 159.985639 
L 79.663636 159.974589 
L 81.354545 160.050317 
L 83.045455 160.044993 
L 84.736364 160.051519 
L 86.427273 262.60177 
L 88.118182 263.260883 
L 89.809091 262.872997 
L 91.5 261.05532 
L 93.190909 275.71024 
L 94.881818 263.281562 
L 96.572727 262.587083 
L 98.263636 263.16003 
L 99.954545 305.339085 
L 101.645455 305.202332 
L 103.336364 305.328232 
L 105.027273 304.032104 
L 106.718182 297.490302 
L 108.409091 305.165696 
L 110.1 305.336768 
L 111.790909 305.245128 
L 113.481818 306.122338 
L 115.172727 306.134385 
L 116.863636 305.830851 
L 118.554545 305.467201 
L 120.245455 302.627261 
L 121.936364 306.318793 
L 123.627273 306.059314 
L 125.318182 306.251272 
L 127.009091 307.281866 
L 128.7 307.246062 
L 130.390909 307.239313 
L 132.081818 306.947032 
L 133.772727 301.22056 
L 135.463636 307.179953 
L 137.154545 307.277972 
L 138.845455 307.196445 
L 140.536364 182.953254 
L 142.227273 304.266426 
L 143.918182 307.257595 
L 145.609091 307.28952 
L 147.3 307.306974 
L 148.990909 307.297278 
L 150.681818 307.00133 
L 152.372727 301.299587 
L 154.063636 307.229078 
L 155.754545 307.293497 
L 157.445455 307.221007 
L 159.136364 307.26772 
L 160.827273 307.240809 
L 162.518182 307.328887 
L 164.209091 307.310693 
L 165.9 307.298699 
L 167.590909 306.997362 
L 169.281818 301.294062 
L 170.972727 307.241265 
L 172.663636 307.376504 
L 174.354545 307.325869 
L 176.045455 307.27048 
L 177.736364 307.300518 
L 179.427273 307.326629 
L 181.118182 307.266704 
L 182.809091 307.26899 
L 184.5 307.326453 
L 186.190909 307.326393 
L 187.881818 307.32887 
L 189.572727 307.26666 
" clip-path="url(#p02a9fabd97)" style="fill: none; stroke: #8c564b; stroke-opacity: 0.8; stroke-width: 1.5; stroke-linecap: square"/>
   </g>
   <g id="line2d_31">
    <path d="M 57.681818 154.860524 
L 69.518182 154.856986 
L 71.209091 157.603327 
L 74.590909 157.605166 
L 76.281818 156.969343 
L 77.972727 157.677344 
L 83.045455 157.560255 
L 84.736364 131.196931 
L 86.427273 170.448987 
L 89.809091 170.552187 
L 91.5 168.429091 
L 93.190909 170.964385 
L 96.572727 170.451449 
L 98.263636 170.61379 
L 99.954545 284.868211 
L 101.645455 285.641858 
L 103.336364 285.470472 
L 105.027273 280.838066 
L 106.718182 281.284154 
L 108.409091 282.488843 
L 110.1 284.936983 
L 111.790909 282.348024 
L 113.481818 301.309699 
L 115.172727 301.737059 
L 116.863636 302.012852 
L 118.554545 299.275537 
L 120.245455 302.720316 
L 121.936364 302.47501 
L 123.627273 301.307843 
L 125.318182 302.510989 
L 127.009091 306.243098 
L 128.7 306.401426 
L 130.390909 306.296478 
L 132.081818 305.430565 
L 133.772727 305.635456 
L 135.463636 306.191806 
L 137.154545 306.337279 
L 138.845455 306.112769 
L 140.536364 307.292416 
L 143.918182 307.345969 
L 145.609091 306.917785 
L 147.3 305.949355 
L 148.990909 306.752398 
L 150.681818 307.333428 
L 152.372727 306.660149 
L 154.063636 160.261993 
L 155.754545 295.858036 
L 157.445455 307.408649 
L 160.827273 307.362226 
L 162.518182 307.132124 
L 164.209091 306.100317 
L 165.9 307.046422 
L 167.590909 307.385429 
L 169.281818 307.058458 
L 170.972727 307.520619 
L 172.663636 307.615194 
L 176.045455 307.29626 
L 177.736364 305.898836 
L 179.427273 306.971359 
L 181.118182 307.532521 
L 182.809091 306.993727 
L 184.5 307.586729 
L 186.190909 307.548331 
L 187.881818 307.648959 
L 189.572727 307.360523 
L 191.263636 306.240921 
L 192.954545 307.037598 
L 194.645455 307.539255 
L 196.336364 307.027785 
L 198.027273 307.625803 
L 199.718182 307.559471 
L 201.409091 307.64321 
L 203.1 307.461412 
L 204.790909 306.202693 
L 206.481818 307.028456 
L 208.172727 307.58336 
L 209.863636 306.986206 
L 211.554545 307.628405 
L 213.245455 307.675046 
L 216.627273 307.378885 
L 218.318182 306.161675 
L 220.009091 307.011506 
L 221.7 307.582169 
L 223.390909 306.963349 
L 225.081818 307.618787 
L 230.154545 307.654781 
L 231.845455 307.399209 
L 233.536364 306.177791 
L 235.227273 307.00377 
L 236.918182 307.575459 
L 238.609091 306.956084 
L 240.3 307.593356 
L 243.681818 307.606356 
L 252.136364 307.661978 
L 253.827273 307.395198 
L 255.518182 306.176554 
L 257.209091 307.004091 
L 258.9 307.582649 
L 260.590909 306.95365 
L 262.281818 307.573672 
L 267.354545 307.630007 
L 272.427273 307.662061 
L 274.118182 307.395412 
L 275.809091 306.176145 
L 277.5 307.004444 
L 279.190909 307.583021 
L 280.881818 306.961948 
L 280.881818 306.961948 
" clip-path="url(#p02a9fabd97)" style="fill: none; stroke: #e377c2; stroke-opacity: 0.8; stroke-width: 1.5; stroke-linecap: square"/>
   </g>
   <g id="line2d_32">
    <path d="M 57.681818 158.545452 
L 61.063636 158.547521 
L 62.754545 158.383096 
L 64.445455 158.567841 
L 67.827273 158.543276 
L 69.518182 158.471275 
L 71.209091 101.638632 
L 72.9 170.773898 
L 76.281818 170.790133 
L 77.972727 170.304922 
L 79.663636 171.018751 
L 81.354545 171.237105 
L 83.045455 170.78034 
L 84.736364 170.464789 
L 86.427273 233.348158 
L 88.118182 233.144556 
L 89.809091 232.036478 
L 91.5 233.07768 
L 93.190909 219.897368 
L 94.881818 219.66233 
L 96.572727 233.380816 
L 98.263636 226.077137 
L 99.954545 302.734023 
L 103.336364 302.934503 
L 105.027273 301.352597 
L 106.718182 299.562135 
L 108.409091 299.466397 
L 110.1 302.7097 
L 111.790909 301.455558 
L 113.481818 306.02502 
L 115.172727 306.200809 
L 116.863636 306.143517 
L 118.554545 305.394573 
L 120.245455 306.56017 
L 121.936364 306.548338 
L 123.627273 306.082934 
L 125.318182 306.63262 
L 127.009091 307.310458 
L 130.390909 307.34995 
L 132.081818 307.016955 
L 133.772727 306.185221 
L 135.463636 306.218562 
L 137.154545 307.350125 
L 138.845455 306.8841 
L 140.536364 301.294982 
L 142.227273 307.190577 
L 143.918182 307.40527 
L 147.3 307.499905 
L 148.990909 307.108401 
L 150.681818 306.000431 
L 152.372727 306.150662 
L 154.063636 307.403328 
L 155.754545 306.909686 
L 157.445455 307.466894 
L 160.827273 307.484311 
L 162.518182 307.095077 
L 164.209091 306.2897 
L 165.9 306.191696 
L 167.590909 307.437468 
L 169.281818 307.131488 
L 170.972727 307.492304 
L 174.354545 307.497248 
L 176.045455 307.357027 
L 177.736364 306.101189 
L 179.427273 306.08395 
L 181.118182 307.496417 
L 182.809091 307.045678 
L 184.5 307.497296 
L 187.881818 307.537646 
L 189.572727 307.362816 
L 191.263636 306.072791 
L 192.954545 306.131775 
L 194.645455 307.497813 
L 196.336364 307.054046 
L 198.027273 307.502412 
L 199.718182 307.579383 
L 203.1 307.394117 
L 204.790909 306.071165 
L 206.481818 306.081663 
L 208.172727 307.504437 
L 209.863636 307.022355 
L 211.554545 307.498415 
L 214.936364 307.503785 
L 218.318182 307.480219 
L 220.009091 307.35307 
L 221.7 306.124722 
L 223.390909 306.05399 
L 225.081818 307.502851 
L 226.772727 307.078737 
L 228.463636 307.54896 
L 230.154545 307.458649 
L 231.845455 307.551191 
L 233.536364 307.299397 
L 235.227273 306.004944 
L 236.918182 306.092739 
L 238.609091 307.542916 
L 240.3 306.981037 
L 241.990909 307.57808 
L 243.681818 307.502591 
L 245.372727 307.576084 
L 247.063636 307.37054 
L 248.754545 306.192322 
L 250.445455 306.132994 
L 252.136364 307.576498 
L 253.827273 307.085282 
L 255.518182 307.538977 
L 262.281818 307.503893 
L 263.972727 307.582845 
L 265.663636 307.349799 
L 267.354545 306.19712 
L 269.045455 306.16839 
L 270.736364 307.405517 
L 272.427273 307.086954 
L 274.118182 307.577689 
L 285.954545 307.577308 
L 285.954545 307.577308 
" clip-path="url(#p02a9fabd97)" style="fill: none; stroke: #7f7f7f; stroke-opacity: 0.8; stroke-width: 1.5; stroke-linecap: square"/>
   </g>
   <g id="line2d_33">
    <path d="M 57.681818 223.957605 
L 59.372727 224.030093 
L 61.063636 224.279295 
L 62.754545 219.015304 
L 64.445455 224.552659 
L 66.136364 224.654582 
L 67.827273 223.951604 
L 69.518182 226.082239 
L 71.209091 291.817555 
L 72.9 291.733666 
L 74.590909 291.551737 
L 76.281818 287.357622 
L 77.972727 290.600728 
L 79.663636 290.5084 
L 81.354545 291.832603 
L 83.045455 285.626053 
L 84.736364 302.438749 
L 86.427273 302.621904 
L 88.118182 302.971431 
L 89.809091 300.513481 
L 91.5 302.691566 
L 93.190909 302.692903 
L 94.881818 302.42078 
L 96.572727 302.495847 
L 98.263636 306.58539 
L 99.954545 306.651427 
L 101.645455 306.660244 
L 103.336364 305.754823 
L 105.027273 306.595318 
L 106.718182 306.636772 
L 108.409091 306.586051 
L 110.1 305.65867 
L 111.790909 307.401553 
L 113.481818 307.428466 
L 115.172727 307.44685 
L 116.863636 307.024959 
L 118.554545 307.560544 
L 120.245455 307.478796 
L 121.936364 307.422846 
L 123.627273 306.525365 
L 125.318182 307.598769 
L 127.009091 307.620055 
L 128.7 307.685987 
L 130.390909 307.484857 
L 132.081818 307.742224 
L 133.772727 307.630767 
L 135.463636 307.647577 
L 137.154545 306.344391 
L 138.845455 307.726328 
L 140.536364 307.8 
L 142.227273 307.670768 
L 143.918182 307.59954 
L 145.609091 307.636209 
L 147.3 307.746352 
L 148.990909 307.671446 
L 150.681818 306.223604 
L 152.372727 307.717117 
L 154.063636 307.698152 
L 155.754545 307.769828 
L 157.445455 307.746969 
L 159.136364 307.721555 
L 160.827273 307.536083 
L 162.518182 307.62056 
L 164.209091 307.667752 
L 165.9 307.78594 
L 167.590909 306.273468 
L 169.281818 307.640284 
L 170.972727 307.643246 
L 172.663636 307.68806 
L 174.354545 307.562858 
L 176.045455 307.723828 
L 177.736364 307.736755 
L 179.427273 307.729 
L 181.118182 307.769654 
L 182.809091 307.772503 
L 184.5 307.748854 
L 186.190909 307.724154 
L 187.881818 307.535843 
L 189.572727 307.622574 
L 191.263636 307.66876 
L 192.954545 307.788365 
L 194.645455 306.276994 
L 196.336364 307.772176 
L 198.027273 307.770072 
L 199.718182 307.76932 
L 201.409091 307.771386 
L 203.1 307.76965 
" clip-path="url(#p02a9fabd97)" style="fill: none; stroke: #bcbd22; stroke-opacity: 0.8; stroke-width: 1.5; stroke-linecap: square"/>
   </g>
   <g id="line2d_34">
    <path d="M 57.681818 154.900372 
L 69.518182 154.903481 
L 71.209091 155.104164 
L 83.045455 155.102853 
L 84.736364 157.048626 
L 91.5 157.038066 
L 93.190909 156.926283 
L 96.572727 157.053253 
L 98.263636 163.358165 
L 110.1 163.355636 
L 111.790909 187.153954 
L 113.481818 187.139798 
L 115.172727 187.431824 
L 116.863636 180.62185 
L 118.554545 187.602086 
L 120.245455 187.092472 
L 123.627273 187.14311 
L 125.318182 226.040519 
L 127.009091 226.02875 
L 128.7 226.580391 
L 130.390909 217.718748 
L 132.081818 232.588718 
L 133.772727 225.729253 
L 135.463636 226.039545 
L 137.154545 225.973624 
L 138.845455 287.010274 
L 140.536364 287.012254 
L 142.227273 287.860102 
L 143.918182 280.467769 
L 145.609091 284.466978 
L 147.3 286.884926 
L 148.990909 287.046471 
L 150.681818 286.99752 
L 152.372727 300.51953 
L 154.063636 300.519496 
L 155.754545 299.665419 
L 157.445455 298.112403 
L 159.136364 297.377505 
L 160.827273 300.295797 
L 162.518182 300.491192 
L 164.209091 300.398277 
L 165.9 305.895182 
L 169.281818 305.825946 
L 170.972727 304.980714 
L 172.663636 299.789403 
L 174.354545 305.864858 
L 177.736364 305.902142 
L 179.427273 180.402399 
L 181.118182 305.947861 
L 182.809091 306.016167 
L 184.5 305.595522 
L 186.190909 305.447548 
L 187.881818 299.4312 
L 189.572727 305.903625 
L 192.954545 305.96484 
L 194.645455 306.416985 
L 196.336364 306.40897 
L 199.718182 306.014188 
L 201.409091 299.81362 
L 203.1 306.386864 
L 208.172727 306.480424 
L 209.863636 306.52904 
L 211.554545 306.238552 
L 213.245455 306.186029 
L 214.936364 299.944404 
L 216.627273 306.463319 
L 223.390909 306.595074 
L 225.081818 306.374363 
L 226.772727 306.289289 
L 228.463636 299.781363 
L 230.154545 306.538501 
L 231.845455 306.563256 
L 233.536364 306.439458 
L 235.227273 306.715517 
L 236.918182 306.682651 
L 240.3 306.308906 
L 241.990909 300.00805 
L 243.681818 306.619943 
L 247.063636 306.688636 
L 248.754545 306.608604 
L 250.445455 306.688012 
L 252.136364 306.617859 
L 255.518182 306.718021 
L 257.209091 306.714732 
L 258.9 306.464457 
L 260.590909 306.329034 
L 262.281818 300.001378 
L 263.972727 306.570141 
L 265.663636 306.697208 
L 267.354545 306.599708 
L 270.736364 306.715829 
L 275.809091 306.71491 
L 279.190909 306.291735 
L 280.881818 300.00306 
L 282.572727 306.584524 
L 284.263636 306.697346 
L 287.645455 306.715468 
L 291.027273 306.714946 
L 292.718182 306.464741 
L 294.409091 306.338498 
L 296.1 300.003331 
L 297.790909 306.587672 
L 299.481818 306.69741 
L 301.172727 306.609143 
L 304.554545 306.717533 
L 311.318182 306.718016 
L 311.318182 306.718016 
" clip-path="url(#p02a9fabd97)" style="fill: none; stroke: #17becf; stroke-opacity: 0.8; stroke-width: 1.5; stroke-linecap: square"/>
   </g>
   <g id="line2d_35">
    <defs>
     <path id="mbe425ccf76" d="M 0 3 
C 0.795609 3 1.55874 2.683901 2.12132 2.12132 
C 2.683901 1.55874 3 0.795609 3 0 
C 3 -0.795609 2.683901 -1.55874 2.12132 -2.12132 
C 1.55874 -2.683901 0.795609 -3 0 -3 
C -0.795609 -3 -1.55874 -2.683901 -2.12132 -2.12132 
C -2.683901 -1.55874 -3 -0.795609 -3 0 
C -3 0.795609 -2.683901 1.55874 -2.12132 2.12132 
C -1.55874 2.683901 -0.795609 3 0 3 
z
" style="stroke: #000000; stroke-opacity: 0.8"/>
    </defs>
    <g clip-path="url(#p02a9fabd97)">
     <use xlink:href="#mbe425ccf76" x="243.681818" y="307.697153" style="fill-opacity: 0.8; stroke: #000000; stroke-opacity: 0.8"/>
    </g>
   </g>
   <g id="line2d_36">
    <g clip-path="url(#p02a9fabd97)">
     <use xlink:href="#mbe425ccf76" x="233.536364" y="307.579034" style="fill-opacity: 0.8; stroke: #000000; stroke-opacity: 0.8"/>
    </g>
   </g>
   <g id="line2d_37">
    <g clip-path="url(#p02a9fabd97)">
     <use xlink:href="#mbe425ccf76" x="255.518182" y="307.474136" style="fill-opacity: 0.8; stroke: #000000; stroke-opacity: 0.8"/>
    </g>
   </g>
   <g id="line2d_38">
    <g clip-path="url(#p02a9fabd97)">
     <use xlink:href="#mbe425ccf76" x="287.645455" y="307.615268" style="fill-opacity: 0.8; stroke: #000000; stroke-opacity: 0.8"/>
    </g>
   </g>
   <g id="line2d_39">
    <g clip-path="url(#p02a9fabd97)">
     <use xlink:href="#mbe425ccf76" x="231.845455" y="307.559567" style="fill-opacity: 0.8; stroke: #000000; stroke-opacity: 0.8"/>
    </g>
   </g>
   <g id="line2d_40">
    <g clip-path="url(#p02a9fabd97)">
     <use xlink:href="#mbe425ccf76" x="189.572727" y="307.26666" style="fill-opacity: 0.8; stroke: #000000; stroke-opacity: 0.8"/>
    </g>
   </g>
   <g id="line2d_41">
    <g clip-path="url(#p02a9fabd97)">
     <use xlink:href="#mbe425ccf76" x="280.881818" y="306.961948" style="fill-opacity: 0.8; stroke: #000000; stroke-opacity: 0.8"/>
    </g>
   </g>
   <g id="line2d_42">
    <g clip-path="url(#p02a9fabd97)">
     <use xlink:href="#mbe425ccf76" x="285.954545" y="307.577308" style="fill-opacity: 0.8; stroke: #000000; stroke-opacity: 0.8"/>
    </g>
   </g>
   <g id="line2d_43">
    <g clip-path="url(#p02a9fabd97)">
     <use xlink:href="#mbe425ccf76" x="203.1" y="307.76965" style="fill-opacity: 0.8; stroke: #000000; stroke-opacity: 0.8"/>
    </g>
   </g>
   <g id="line2d_44">
    <g clip-path="url(#p02a9fabd97)">
     <use xlink:href="#mbe425ccf76" x="311.318182" y="306.718016" style="fill-opacity: 0.8; stroke: #000000; stroke-opacity: 0.8"/>
    </g>
   </g>
   <g id="patch_3">
    <path d="M 45 320.4 
L 45 43.2 
" style="fill: none; stroke: #000000; stroke-width: 0.8; stroke-linejoin: miter; stroke-linecap: square"/>
   </g>
   <g id="patch_4">
    <path d="M 324 320.4 
L 324 43.2 
" style="fill: none; stroke: #000000; stroke-width: 0.8; stroke-linejoin: miter; stroke-linecap: square"/>
   </g>
   <g id="patch_5">
    <path d="M 45 320.4 
L 324 320.4 
" style="fill: none; stroke: #000000; stroke-width: 0.8; stroke-linejoin: miter; stroke-linecap: square"/>
   </g>
   <g id="patch_6">
    <path d="M 45 43.2 
L 324 43.2 
" style="fill: none; stroke: #000000; stroke-width: 0.8; stroke-linejoin: miter; stroke-linecap: square"/>
   </g>
  </g>
 </g>
 <defs>
  <clipPath id="p02a9fabd97">
   <rect x="45" y="43.2" width="279" height="277.2"/>
  </clipPath>
 </defs>
</svg>
