<?xml version="1.0" encoding="utf-8" standalone="no"?>
<!DOCTYPE svg PUBLIC "-//W3C//DTD SVG 1.1//EN"
  "http://www.w3.org/Graphics/SVG/1.1/DTD/svg11.dtd">
<svg xmlns:xlink="http://www.w3.org/1999/xlink" width="720pt" height="360pt" viewBox="0 0 720 360" xmlns="http://www.w3.org/2000/svg" version="1.1">
 <metadata>
  <rdf:RDF xmlns:dc="http://purl.org/dc/elements/1.1/" xmlns:cc="http://creativecommons.org/ns#" xmlns:rdf="http://www.w3.org/1999/02/22-rdf-syntax-ns#">
   <cc:Work>
    <dc:type rdf:resource="http://purl.org/dc/dcmitype/StillImage"/>
    <dc:date>2026-04-17T17:37:56.857838</dc:date>
    <dc:format>image/svg+xml</dc:format>
    <dc:creator>
     <cc:Agent>
      <dc:title>Matplotlib v3.10.8, https://matplotlib.org/</dc:title>
     </cc:Agent>
    </dc:creator>
   </cc:Work>
  </rdf:RDF>
 </metadata>
 <defs>
  <style type="text/css">*{stroke-linejoin: round; stroke-linecap: butt}</style>
 </defs>
 <g id="figure_1">
  <g id="patch_1">
   <path d="M 0 360 
L 720 360 
L 720 0 
L 0 0 
z
" style="fill: #ffffff"/>
  </g>
  <g id="axes_1">
   <g id="patch_2">
    <path d="M 90 320.4 
L 343.636364 320.4 
L 343.636364 43.2 
L 90 43.2 
z
" style="fill: #ffffff"/>
   </g>
   <g id="matplotlib.axis_1">
    <g id="xtick_1">
     <g id="line2d_1">
      <defs>
       <path id="ma56e6e4687" d="M 0 0 
L 0 3.5 
" style="stroke: #000000; stroke-width: 0.8"/>
      </defs>
      <g>
       <use xlink:href="#ma56e6e4687" x="111.136364" y="320.4" style="stroke: #000000; stroke-width: 0.8"/>
      </g>
     </g>
     <g id="text_1">
      <!-- 0 -->
      <g transform="translate(107.955114 334.998438) scale(0.1 -0.1)">
       <defs>
        <path id="DejaVuSans-30" d="M 2034 4250 
Q 1547 4250 1301 3770 
Q 1056 3291 1056 2328 
Q 1056 1369 1301 889 
Q 1547 409 2034 409 
Q 2525 409 2770 889 
Q 3016 1369 3016 2328 
Q 3016 3291 2770 3770 
Q 2525 4250 2034 4250 
z
M 2034 4750 
Q 2819 4750 3233 4129 
Q 3647 3509 3647 2328 
Q 3647 1150 3233 529 
Q 2819 -91 2034 -91 
Q 1250 -91 836 529 
Q 422 1150 422 2328 
Q 422 3509 836 4129 
Q 1250 4750 2034 4750 
z
" transform="scale(0.015625)"/>
       </defs>
       <use xlink:href="#DejaVuSans-30"/>
      </g>
     </g>
    </g>
    <g id="xtick_2">
     <g id="line2d_2">
      <g>
       <use xlink:href="#ma56e6e4687" x="153.073593" y="320.4" style="stroke: #000000; stroke-width: 0.8"/>
      </g>
     </g>
     <g id="text_2">
      <!-- 2000 -->
      <g transform="translate(140.348593 334.998438) scale(0.1 -0.1)">
       <defs>
        <path id="DejaVuSans-32" d="M 1228 531 
L 3431 531 
L 3431 0 
L 469 0 
L 469 531 
Q 828 903 1448 1529 
Q 2069 2156 2228 2338 
Q 2531 2678 2651 2914 
Q 2772 3150 2772 3378 
Q 2772 3750 2511 3984 
Q 2250 4219 1831 4219 
Q 1534 4219 1204 4116 
Q 875 4013 500 3803 
L 500 4441 
Q 881 4594 1212 4672 
Q 1544 4750 1819 4750 
Q 2544 4750 2975 4387 
Q 3406 4025 3406 3419 
Q 3406 3131 3298 2873 
Q 3191 2616 2906 2266 
Q 2828 2175 2409 1742 
Q 1991 1309 1228 531 
z
" transform="scale(0.015625)"/>
       </defs>
       <use xlink:href="#DejaVuSans-32"/>
       <use xlink:href="#DejaVuSans-30" transform="translate(63.623047 0)"/>
       <use xlink:href="#DejaVuSans-30" transform="translate(127.246094 0)"/>
       <use xlink:href="#DejaVuSans-30" transform="translate(190.869141 0)"/>
      </g>
     </g>
    </g>
    <g id="xtick_3">
     <g id="line2d_3">
      <g>
       <use xlink:href="#ma56e6e4687" x="195.010823" y="320.4" style="stroke: #000000; stroke-width: 0.8"/>
      </g>
     </g>
     <g id="text_3">
      <!-- 4000 -->
      <g transform="translate(182.285823 334.998438) scale(0.1 -0.1)">
       <defs>
        <path id="DejaVuSans-34" d="M 2419 4116 
L 825 1625 
L 2419 1625 
L 2419 4116 
z
M 2253 4666 
L 3047 4666 
L 3047 1625 
L 3713 1625 
L 3713 1100 
L 3047 1100 
L 3047 0 
L 2419 0 
L 2419 1100 
L 313 1100 
L 313 1709 
L 2253 4666 
z
" transform="scale(0.015625)"/>
       </defs>
       <use xlink:href="#DejaVuSans-34"/>
       <use xlink:href="#DejaVuSans-30" transform="translate(63.623047 0)"/>
       <use xlink:href="#DejaVuSans-30" transform="translate(127.246094 0)"/>
       <use xlink:href="#DejaVuSans-30" transform="translate(190.869141 0)"/>
      </g>
     </g>
    </g>
    <g id="xtick_4">
     <g id="line2d_4">
      <g>
       <use xlink:href="#ma56e6e4687" x="236.948052" y="320.4" style="stroke: #000000; stroke-width: 0.8"/>
      </g>
     </g>
     <g id="text_4">
      <!-- 6000 -->
      <g transform="translate(224.223052 334.998438) scale(0.1 -0.1)">
       <defs>
        <path id="DejaVuSans-36" d="M 2113 2584 
Q 1688 2584 1439 2293 
Q 1191 2003 1191 1497 
Q 1191 994 1439 701 
Q 1688 409 2113 409 
Q 2538 409 2786 701 
Q 3034 994 3034 1497 
Q 3034 2003 2786 2293 
Q 2538 2584 2113 2584 
z
M 3366 4563 
L 3366 3988 
Q 3128 4100 2886 4159 
Q 2644 4219 2406 4219 
Q 1781 4219 1451 3797 
Q 1122 3375 1075 2522 
Q 1259 2794 1537 2939 
Q 1816 3084 2150 3084 
Q 2853 3084 3261 2657 
Q 3669 2231 3669 1497 
Q 3669 778 3244 343 
Q 2819 -91 2113 -91 
Q 1303 -91 875 529 
Q 447 1150 447 2328 
Q 447 3434 972 4092 
Q 1497 4750 2381 4750 
Q 2619 4750 2861 4703 
Q 3103 4656 3366 4563 
z
" transform="scale(0.015625)"/>
       </defs>
       <use xlink:href="#DejaVuSans-36"/>
       <use xlink:href="#DejaVuSans-30" transform="translate(63.623047 0)"/>
       <use xlink:href="#DejaVuSans-30" transform="translate(127.246094 0)"/>
       <use xlink:href="#DejaVuSans-30" transform="translate(190.869141 0)"/>
      </g>
     </g>
    </g>
    <g id="xtick_5">
     <g id="line2d_5">
      <g>
       <use xlink:href="#ma56e6e4687" x="278.885281" y="320.4" style="stroke: #000000; stroke-width: 0.8"/>
      </g>
     </g>
     <g id="text_5">
      <!-- 8000 -->
      <g transform="translate(266.160281 334.998438) scale(0.1 -0.1)">
       <defs>
        <path id="DejaVuSans-38" d="M 2034 2216 
Q 1584 2216 1326 1975 
Q 1069 1734 1069 1313 
Q 1069 891 1326 650 
Q 1584 409 2034 409 
Q 2484 409 2743 651 
Q 3003 894 3003 1313 
Q 3003 1734 2745 1975 
Q 2488 2216 2034 2216 
z
M 1403 2484 
Q 997 2584 770 2862 
Q 544 3141 544 3541 
Q 544 4100 942 4425 
Q 1341 4750 2034 4750 
Q 2731 4750 3128 4425 
Q 3525 4100 3525 3541 
Q 3525 3141 3298 2862 
Q 3072 2584 2669 2484 
Q 3125 2378 3379 2068 
Q 3634 1759 3634 1313 
Q 3634 634 3220 271 
Q 2806 -91 2034 -91 
Q 1263 -91 848 271 
Q 434 634 434 1313 
Q 434 1759 690 2068 
Q 947 2378 1403 2484 
z
M 1172 3481 
Q 1172 3119 1398 2916 
Q 1625 2713 2034 2713 
Q 2441 2713 2670 2916 
Q 2900 3119 2900 3481 
Q 2900 3844 2670 4047 
Q 2441 4250 2034 4250 
Q 1625 4250 1398 4047 
Q 1172 3844 1172 3481 
z
" transform="scale(0.015625)"/>
       </defs>
       <use xlink:href="#DejaVuSans-38"/>
       <use xlink:href="#DejaVuSans-30" transform="translate(63.623047 0)"/>
       <use xlink:href="#DejaVuSans-30" transform="translate(127.246094 0)"/>
       <use xlink:href="#DejaVuSans-30" transform="translate(190.869141 0)"/>
      </g>
     </g>
    </g>
    <g id="xtick_6">
     <g id="line2d_6">
      <g>
       <use xlink:href="#ma56e6e4687" x="320.822511" y="320.4" style="stroke: #000000; stroke-width: 0.8"/>
      </g>
     </g>
     <g id="text_6">
      <!-- 10000 -->
      <g transform="translate(304.916261 334.998438) scale(0.1 -0.1)">
       <defs>
        <path id="DejaVuSans-31" d="M 794 531 
L 1825 531 
L 1825 4091 
L 703 3866 
L 703 4441 
L 1819 4666 
L 2450 4666 
L 2450 531 
L 3481 531 
L 3481 0 
L 794 0 
L 794 531 
z
" transform="scale(0.015625)"/>
       </defs>
       <use xlink:href="#DejaVuSans-31"/>
       <use xlink:href="#DejaVuSans-30" transform="translate(63.623047 0)"/>
       <use xlink:href="#DejaVuSans-30" transform="translate(127.246094 0)"/>
       <use xlink:href="#DejaVuSans-30" transform="translate(190.869141 0)"/>
       <use xlink:href="#DejaVuSans-30" transform="translate(254.492188 0)"/>
      </g>
     </g>
    </g>
    <g id="text_7">
     <!-- time -->
     <g transform="translate(203.262869 350.19625) scale(0.12 -0.12)">
      <defs>
       <path id="DejaVuSans-74" d="M 1172 4494 
L 1172 3500 
L 2356 3500 
L 2356 3053 
L 1172 3053 
L 1172 1153 
Q 1172 725 1289 603 
Q 1406 481 1766 481 
L 2356 481 
L 2356 0 
L 1766 0 
Q 1100 0 847 248 
Q 594 497 594 1153 
L 594 3053 
L 172 3053 
L 172 3500 
L 594 3500 
L 594 4494 
L 1172 4494 
z
" transform="scale(0.015625)"/>
       <path id="DejaVuSans-69" d="M 603 3500 
L 1178 3500 
L 1178 0 
L 603 0 
L 603 3500 
z
M 603 4863 
L 1178 4863 
L 1178 4134 
L 603 4134 
L 603 4863 
z
" transform="scale(0.015625)"/>
       <path id="DejaVuSans-6d" d="M 3328 2828 
Q 3544 3216 3844 3400 
Q 4144 3584 4550 3584 
Q 5097 3584 5394 3201 
Q 5691 2819 5691 2113 
L 5691 0 
L 5113 0 
L 5113 2094 
Q 5113 2597 4934 2840 
Q 4756 3084 4391 3084 
Q 3944 3084 3684 2787 
Q 3425 2491 3425 1978 
L 3425 0 
L 2847 0 
L 2847 2094 
Q 2847 2600 2669 2842 
Q 2491 3084 2119 3084 
Q 1678 3084 1418 2786 
Q 1159 2488 1159 1978 
L 1159 0 
L 581 0 
L 581 3500 
L 1159 3500 
L 1159 2956 
Q 1356 3278 1631 3431 
Q 1906 3584 2284 3584 
Q 2666 3584 2933 3390 
Q 3200 3197 3328 2828 
z
" transform="scale(0.015625)"/>
       <path id="DejaVuSans-65" d="M 3597 1894 
L 3597 1613 
L 953 1613 
Q 991 1019 1311 708 
Q 1631 397 2203 397 
Q 2534 397 2845 478 
Q 3156 559 3463 722 
L 3463 178 
Q 3153 47 2828 -22 
Q 2503 -91 2169 -91 
Q 1331 -91 842 396 
Q 353 884 353 1716 
Q 353 2575 817 3079 
Q 1281 3584 2069 3584 
Q 2775 3584 3186 3129 
Q 3597 2675 3597 1894 
z
M 3022 2063 
Q 3016 2534 2758 2815 
Q 2500 3097 2075 3097 
Q 1594 3097 1305 2825 
Q 1016 2553 972 2059 
L 3022 2063 
z
" transform="scale(0.015625)"/>
      </defs>
      <use xlink:href="#DejaVuSans-74"/>
      <use xlink:href="#DejaVuSans-69" transform="translate(39.208984 0)"/>
      <use xlink:href="#DejaVuSans-6d" transform="translate(66.992188 0)"/>
      <use xlink:href="#DejaVuSans-65" transform="translate(164.404297 0)"/>
     </g>
    </g>
   </g>
   <g id="matplotlib.axis_2">
    <g id="ytick_1">
     <g id="line2d_7">
      <defs>
       <path id="md7d34246e0" d="M 0 0 
L -3.5 0 
" style="stroke: #000000; stroke-width: 0.8"/>
      </defs>
      <g>
       <use xlink:href="#md7d34246e0" x="90" y="305.138585" style="stroke: #000000; stroke-width: 0.8"/>
      </g>
     </g>
     <g id="text_8">
      <!-- 25 -->
      <g transform="translate(70.275 308.937804) scale(0.1 -0.1)">
       <defs>
        <path id="DejaVuSans-35" d="M 691 4666 
L 3169 4666 
L 3169 4134 
L 1269 4134 
L 1269 2991 
Q 1406 3038 1543 3061 
Q 1681 3084 1819 3084 
Q 2600 3084 3056 2656 
Q 3513 2228 3513 1497 
Q 3513 744 3044 326 
Q 2575 -91 1722 -91 
Q 1428 -91 1123 -41 
Q 819 9 494 109 
L 494 744 
Q 775 591 1075 516 
Q 1375 441 1709 441 
Q 2250 441 2565 725 
Q 2881 1009 2881 1497 
Q 2881 1984 2565 2268 
Q 2250 2553 1709 2553 
Q 1456 2553 1204 2497 
Q 953 2441 691 2322 
L 691 4666 
z
" transform="scale(0.015625)"/>
       </defs>
       <use xlink:href="#DejaVuSans-32"/>
       <use xlink:href="#DejaVuSans-35" transform="translate(63.623047 0)"/>
      </g>
     </g>
    </g>
    <g id="ytick_2">
     <g id="line2d_8">
      <g>
       <use xlink:href="#md7d34246e0" x="90" y="269.173523" style="stroke: #000000; stroke-width: 0.8"/>
      </g>
     </g>
     <g id="text_9">
      <!-- 50 -->
      <g transform="translate(70.275 272.972742) scale(0.1 -0.1)">
       <use xlink:href="#DejaVuSans-35"/>
       <use xlink:href="#DejaVuSans-30" transform="translate(63.623047 0)"/>
      </g>
     </g>
    </g>
    <g id="ytick_3">
     <g id="line2d_9">
      <g>
       <use xlink:href="#md7d34246e0" x="90" y="233.20846" style="stroke: #000000; stroke-width: 0.8"/>
      </g>
     </g>
     <g id="text_10">
      <!-- 75 -->
      <g transform="translate(70.275 237.007679) scale(0.1 -0.1)">
       <defs>
        <path id="DejaVuSans-37" d="M 525 4666 
L 3525 4666 
L 3525 4397 
L 1831 0 
L 1172 0 
L 2766 4134 
L 525 4134 
L 525 4666 
z
" transform="scale(0.015625)"/>
       </defs>
       <use xlink:href="#DejaVuSans-37"/>
       <use xlink:href="#DejaVuSans-35" transform="translate(63.623047 0)"/>
      </g>
     </g>
    </g>
    <g id="ytick_4">
     <g id="line2d_10">
      <g>
       <use xlink:href="#md7d34246e0" x="90" y="197.243398" style="stroke: #000000; stroke-width: 0.8"/>
      </g>
     </g>
     <g id="text_11">
      <!-- 100 -->
      <g transform="translate(63.9125 201.042617) scale(0.1 -0.1)">
       <use xlink:href="#DejaVuSans-31"/>
       <use xlink:href="#DejaVuSans-30" transform="translate(63.623047 0)"/>
       <use xlink:href="#DejaVuSans-30" transform="translate(127.246094 0)"/>
      </g>
     </g>
    </g>
    <g id="ytick_5">
     <g id="line2d_11">
      <g>
       <use xlink:href="#md7d34246e0" x="90" y="161.278335" style="stroke: #000000; stroke-width: 0.8"/>
      </g>
     </g>
     <g id="text_12">
      <!-- 125 -->
      <g transform="translate(63.9125 165.077554) scale(0.1 -0.1)">
       <use xlink:href="#DejaVuSans-31"/>
       <use xlink:href="#DejaVuSans-32" transform="translate(63.623047 0)"/>
       <use xlink:href="#DejaVuSans-35" transform="translate(127.246094 0)"/>
      </g>
     </g>
    </g>
    <g id="ytick_6">
     <g id="line2d_12">
      <g>
       <use xlink:href="#md7d34246e0" x="90" y="125.313273" style="stroke: #000000; stroke-width: 0.8"/>
      </g>
     </g>
     <g id="text_13">
      <!-- 150 -->
      <g transform="translate(63.9125 129.112492) scale(0.1 -0.1)">
       <use xlink:href="#DejaVuSans-31"/>
       <use xlink:href="#DejaVuSans-35" transform="translate(63.623047 0)"/>
       <use xlink:href="#DejaVuSans-30" transform="translate(127.246094 0)"/>
      </g>
     </g>
    </g>
    <g id="ytick_7">
     <g id="line2d_13">
      <g>
       <use xlink:href="#md7d34246e0" x="90" y="89.34821" style="stroke: #000000; stroke-width: 0.8"/>
      </g>
     </g>
     <g id="text_14">
      <!-- 175 -->
      <g transform="translate(63.9125 93.147429) scale(0.1 -0.1)">
       <use xlink:href="#DejaVuSans-31"/>
       <use xlink:href="#DejaVuSans-37" transform="translate(63.623047 0)"/>
       <use xlink:href="#DejaVuSans-35" transform="translate(127.246094 0)"/>
      </g>
     </g>
    </g>
    <g id="ytick_8">
     <g id="line2d_14">
      <g>
       <use xlink:href="#md7d34246e0" x="90" y="53.383148" style="stroke: #000000; stroke-width: 0.8"/>
      </g>
     </g>
     <g id="text_15">
      <!-- 200 -->
      <g transform="translate(63.9125 57.182367) scale(0.1 -0.1)">
       <use xlink:href="#DejaVuSans-32"/>
       <use xlink:href="#DejaVuSans-30" transform="translate(63.623047 0)"/>
       <use xlink:href="#DejaVuSans-30" transform="translate(127.246094 0)"/>
      </g>
     </g>
    </g>
    <g id="text_16">
     <!-- mPT -->
     <g transform="translate(57.416875 194.926875) rotate(-90) scale(0.12 -0.12)">
      <defs>
       <path id="DejaVuSans-50" d="M 1259 4147 
L 1259 2394 
L 2053 2394 
Q 2494 2394 2734 2622 
Q 2975 2850 2975 3272 
Q 2975 3691 2734 3919 
Q 2494 4147 2053 4147 
L 1259 4147 
z
M 628 4666 
L 2053 4666 
Q 2838 4666 3239 4311 
Q 3641 3956 3641 3272 
Q 3641 2581 3239 2228 
Q 2838 1875 2053 1875 
L 1259 1875 
L 1259 0 
L 628 0 
L 628 4666 
z
" transform="scale(0.015625)"/>
       <path id="DejaVuSans-54" d="M -19 4666 
L 3928 4666 
L 3928 4134 
L 2272 4134 
L 2272 0 
L 1638 0 
L 1638 4134 
L -19 4134 
L -19 4666 
z
" transform="scale(0.015625)"/>
      </defs>
      <use xlink:href="#DejaVuSans-6d"/>
      <use xlink:href="#DejaVuSans-50" transform="translate(97.412109 0)"/>
      <use xlink:href="#DejaVuSans-54" transform="translate(157.714844 0)"/>
     </g>
    </g>
   </g>
   <g id="LineCollection_1">
    <path d="M 111.136364 307.8 
L 111.136364 220.563144 
" clip-path="url(#p73cbf221c3)" style="fill: none; stroke: #000000; stroke-width: 1.5"/>
    <path d="M 114.910714 208.450111 
L 114.910714 140.605617 
" clip-path="url(#p73cbf221c3)" style="fill: none; stroke: #000000; stroke-width: 1.5"/>
    <path d="M 118.685065 225.396849 
L 118.685065 162.414831 
" clip-path="url(#p73cbf221c3)" style="fill: none; stroke: #000000; stroke-width: 1.5"/>
    <path d="M 126.233766 249.651687 
L 126.233766 220.563144 
" clip-path="url(#p73cbf221c3)" style="fill: none; stroke: #000000; stroke-width: 1.5"/>
    <path d="M 133.782468 225.411235 
L 133.782468 167.262922 
" clip-path="url(#p73cbf221c3)" style="fill: none; stroke: #000000; stroke-width: 1.5"/>
    <path d="M 141.331169 232.690563 
L 141.331169 203.602021 
" clip-path="url(#p73cbf221c3)" style="fill: none; stroke: #000000; stroke-width: 1.5"/>
    <path d="M 292.305195 201.170783 
L 292.305195 172.111012 
" clip-path="url(#p73cbf221c3)" style="fill: none; stroke: #000000; stroke-width: 1.5"/>
    <path d="M 296.079545 143.036856 
L 296.079545 55.8 
" clip-path="url(#p73cbf221c3)" style="fill: none; stroke: #000000; stroke-width: 1.5"/>
    <path d="M 299.853896 174.527864 
L 299.853896 116.379551 
" clip-path="url(#p73cbf221c3)" style="fill: none; stroke: #000000; stroke-width: 1.5"/>
    <path d="M 307.402597 225.396849 
L 307.402597 172.111012 
" clip-path="url(#p73cbf221c3)" style="fill: none; stroke: #000000; stroke-width: 1.5"/>
    <path d="M 314.951299 181.807193 
L 314.951299 118.796403 
" clip-path="url(#p73cbf221c3)" style="fill: none; stroke: #000000; stroke-width: 1.5"/>
    <path d="M 322.5 218.146292 
L 322.5 174.527864 
" clip-path="url(#p73cbf221c3)" style="fill: none; stroke: #000000; stroke-width: 1.5"/>
   </g>
   <g id="line2d_15">
    <path d="M 111.136364 264.181572 
L 111.140568 264.084465 
L 111.187931 251.540152 
L 111.462195 207.73609 
L 111.761952 187.829145 
L 112.125972 176.099139 
L 112.585496 168.882518 
L 112.988913 165.707999 
L 113.336222 164.230817 
L 113.683531 163.474448 
L 114.03084 163.202945 
L 114.37815 163.269697 
L 114.725459 163.578788 
L 115.246423 164.359628 
L 116.03462 166.001328 
L 117.348283 169.371833 
L 119.761887 176.287793 
L 126.233766 195.046312 
L 126.235632 195.874666 
L 126.344128 187.979342 
L 126.670253 172.995955 
L 127.03405 164.753922 
L 127.455991 159.842481 
L 127.847014 157.463453 
L 128.310125 156.092952 
L 128.618866 155.715597 
L 128.927606 155.625451 
L 129.081976 155.663245 
L 129.652062 156.152056 
L 130.265597 157.09936 
L 131.285644 159.217894 
L 132.813359 163.000004 
L 135.801681 171.115251 
L 141.331169 186.59117 
L 141.333033 187.182384 
L 141.442159 180.745126 
L 141.775269 168.085565 
L 142.156787 160.884599 
L 142.562179 156.913145 
L 142.967571 154.831201 
L 143.309838 153.917321 
L 143.652104 153.496759 
L 143.994371 153.416026 
L 144.336638 153.576987 
L 144.870794 154.163131 
L 145.672029 155.527183 
L 146.740341 157.843436 
L 148.609889 162.505273 
L 152.304724 172.468613 
L 156.428571 183.875603 
L 156.430486 184.824548 
L 156.531203 179.190782 
L 156.864241 166.94349 
L 157.24458 159.96957 
L 157.659301 156.039979 
L 158.047358 154.105395 
L 158.465032 153.078414 
L 158.882707 152.721648 
L 159.276295 152.782267 
L 159.785023 153.236943 
L 160.548114 154.416928 
L 161.565569 156.509873 
L 163.346115 160.822 
L 166.540091 169.284116 
L 171.525974 182.98914 
L 171.527921 184.757418 
L 171.635128 178.764543 
L 171.94617 167.234779 
L 172.318311 160.167637 
L 172.720405 156.172486 
L 173.157128 153.942665 
L 173.506507 153.049813 
L 173.856679 152.652394 
L 174.25092 152.607566 
L 174.673723 152.884014 
L 175.307928 153.710385 
L 176.153535 155.276451 
L 177.421944 158.142436 
L 179.707886 163.957429 
L 184.105708 175.878364 
L 186.623377 182.817338 
L 186.625345 183.791887 
L 186.72605 178.307021 
L 187.06956 166.092576 
L 187.480974 159.008325 
L 187.827578 155.84394 
L 188.291683 153.604279 
L 188.723927 152.677394 
L 189.055401 152.427921 
L 189.480807 152.494497 
L 189.906213 152.860878 
L 190.544322 153.777614 
L 191.395134 155.417067 
L 192.671352 158.344709 
L 195.006456 164.311391 
L 199.518285 176.550212 
L 201.720779 182.616271 
L 201.722728 184.690838 
L 201.831503 178.616725 
L 202.185536 166.052837 
L 202.577718 159.279989 
L 202.945588 155.903966 
L 203.347994 153.899643 
L 203.669919 153.050461 
L 204.07428 152.583384 
L 204.343855 152.530059 
L 204.68788 152.675647 
L 205.106357 153.089058 
L 205.734071 154.038949 
L 206.780262 156.141313 
L 208.272886 159.691253 
L 211.223407 167.409591 
L 216.818182 182.73994 
L 216.82015 183.829404 
L 216.92101 178.32735 
L 217.238089 166.761096 
L 217.598659 159.990392 
L 218.020292 155.858796 
L 218.443191 153.746085 
L 218.86609 152.745832 
L 219.23449 152.429176 
L 219.51831 152.42433 
L 219.80213 152.572646 
L 220.252832 153.040425 
L 220.928884 154.105107 
L 222.055638 156.43266 
L 223.878147 160.863769 
L 227.009047 169.147657 
L 231.915584 182.608882 
L 231.917574 182.884167 
L 232.024393 177.248969 
L 232.369198 165.460412 
L 232.735556 159.149163 
L 233.1161 155.61708 
L 233.471185 153.785288 
L 233.800812 152.840488 
L 234.13044 152.373051 
L 234.460067 152.236627 
L 234.878285 152.396186 
L 235.385092 152.930367 
L 236.145304 154.171424 
L 237.412323 156.871613 
L 239.439553 161.891613 
L 243.373342 172.415534 
L 247.015181 182.425699 
L 247.025624 182.119702 
L 247.457553 165.435044 
L 247.797489 159.425155 
L 248.204431 155.539717 
L 248.509638 153.897778 
L 248.846606 152.840535 
L 249.183575 152.309668 
L 249.520544 152.139133 
L 249.857513 152.223878 
L 250.401306 152.731396 
L 251.216995 154.030301 
L 252.30458 156.30574 
L 254.207854 160.945155 
L 257.505902 169.678622 
L 262.11039 182.298439 
L 262.112373 183.149837 
L 262.21239 177.796478 
L 262.554066 165.798094 
L 262.977862 158.632802 
L 263.372891 155.245915 
L 263.80542 153.329994 
L 264.088727 152.677435 
L 264.439078 152.29896 
L 264.789429 152.254754 
L 265.139779 152.447298 
L 265.610196 152.968006 
L 266.495922 154.464768 
L 267.676889 157.026776 
L 269.743581 162.165633 
L 273.617971 172.541879 
L 277.207792 182.406132 
L 277.209767 183.513776 
L 277.310481 178.06444 
L 277.654828 165.902427 
L 278.08845 158.607935 
L 278.490829 155.22152 
L 278.94402 153.296175 
L 279.352277 152.525567 
L 279.7156 152.314713 
L 280.078923 152.406081 
L 280.623908 152.925933 
L 281.472813 154.300214 
L 282.55608 156.591333 
L 284.376871 161.043358 
L 287.691507 169.833107 
L 292.305195 182.491538 
L 292.307178 183.135806 
L 292.407266 177.787498 
L 292.764026 165.447936 
L 293.085832 159.726266 
L 293.449969 156.063013 
L 293.814106 154.009745 
L 294.131239 153.002942 
L 294.522746 152.398671 
L 294.914254 152.264639 
L 295.305762 152.447389 
L 295.893024 153.115028 
L 296.480286 154.089043 
L 297.683795 156.618098 
L 299.489057 161.0368 
L 302.838997 169.92062 
L 307.402597 182.439303 
L 307.404572 183.514196 
L 307.505319 178.064162 
L 307.843938 166.043949 
L 308.233657 159.200289 
L 308.648104 155.458211 
L 309.062552 153.529481 
L 309.441184 152.665948 
L 309.784003 152.352361 
L 310.126822 152.343528 
L 310.46964 152.552949 
L 310.92862 153.07642 
L 311.791332 154.543161 
L 312.941616 157.036504 
L 314.954611 162.033918 
L 318.77475 172.258519 
L 329.191673 200.478555 
L 332.790432 209.477292 
L 335.669438 216.171666 
L 338.548445 222.348473 
L 341.427452 227.970851 
L 344.306458 233.025342 
L 344.306458 233.025342 
" clip-path="url(#p73cbf221c3)" style="fill: none; stroke: #0000ff; stroke-width: 1.5; stroke-linecap: square"/>
   </g>
   <g id="line2d_16">
    <path d="M 111.136364 264.181572 
L 114.910714 174.527864 
L 118.685065 193.90584 
L 126.233766 235.107416 
L 133.782468 196.337078 
L 141.331169 218.146292 
L 292.305195 186.640897 
L 296.079545 99.418428 
L 299.853896 145.453708 
L 307.402597 198.75393 
L 314.951299 150.301798 
L 322.5 196.337078 
" clip-path="url(#p73cbf221c3)" style="fill: none; stroke: #000000; stroke-width: 1.5; stroke-linecap: square"/>
    <defs>
     <path id="m67af61834d" d="M -5 5 
L 5 5 
L 5 -5 
L -5 -5 
z
" style="stroke: #000000; stroke-linejoin: miter"/>
    </defs>
    <g clip-path="url(#p73cbf221c3)">
     <use xlink:href="#m67af61834d" x="111.136364" y="264.181572" style="stroke: #000000; stroke-linejoin: miter"/>
     <use xlink:href="#m67af61834d" x="114.910714" y="174.527864" style="stroke: #000000; stroke-linejoin: miter"/>
     <use xlink:href="#m67af61834d" x="118.685065" y="193.90584" style="stroke: #000000; stroke-linejoin: miter"/>
     <use xlink:href="#m67af61834d" x="126.233766" y="235.107416" style="stroke: #000000; stroke-linejoin: miter"/>
     <use xlink:href="#m67af61834d" x="133.782468" y="196.337078" style="stroke: #000000; stroke-linejoin: miter"/>
     <use xlink:href="#m67af61834d" x="141.331169" y="218.146292" style="stroke: #000000; stroke-linejoin: miter"/>
     <use xlink:href="#m67af61834d" x="292.305195" y="186.640897" style="stroke: #000000; stroke-linejoin: miter"/>
     <use xlink:href="#m67af61834d" x="296.079545" y="99.418428" style="stroke: #000000; stroke-linejoin: miter"/>
     <use xlink:href="#m67af61834d" x="299.853896" y="145.453708" style="stroke: #000000; stroke-linejoin: miter"/>
     <use xlink:href="#m67af61834d" x="307.402597" y="198.75393" style="stroke: #000000; stroke-linejoin: miter"/>
     <use xlink:href="#m67af61834d" x="314.951299" y="150.301798" style="stroke: #000000; stroke-linejoin: miter"/>
     <use xlink:href="#m67af61834d" x="322.5" y="196.337078" style="stroke: #000000; stroke-linejoin: miter"/>
    </g>
   </g>
   <g id="patch_3">
    <path d="M 90 320.4 
L 90 43.2 
" style="fill: none; stroke: #000000; stroke-width: 0.8; stroke-linejoin: miter; stroke-linecap: square"/>
   </g>
   <g id="patch_4">
    <path d="M 343.636364 320.4 
L 343.636364 43.2 
" style="fill: none; stroke: #000000; stroke-width: 0.8; stroke-linejoin: miter; stroke-linecap: square"/>
   </g>
   <g id="patch_5">
    <path d="M 90 320.4 
L 343.636364 320.4 
" style="fill: none; stroke: #000000; stroke-width: 0.8; stroke-linejoin: miter; stroke-linecap: square"/>
   </g>
   <g id="patch_6">
    <path d="M 90 43.2 
L 343.636364 43.2 
" style="fill: none; stroke: #000000; stroke-width: 0.8; stroke-linejoin: miter; stroke-linecap: square"/>
   </g>
   <g id="text_17">
    <!-- Frost2013a fm_API25x2_mPT -->
    <g transform="translate(115.400213 37.2) scale(0.14 -0.14)">
     <defs>
      <path id="DejaVuSans-46" d="M 628 4666 
L 3309 4666 
L 3309 4134 
L 1259 4134 
L 1259 2759 
L 3109 2759 
L 3109 2228 
L 1259 2228 
L 1259 0 
L 628 0 
L 628 4666 
z
" transform="scale(0.015625)"/>
      <path id="DejaVuSans-72" d="M 2631 2963 
Q 2534 3019 2420 3045 
Q 2306 3072 2169 3072 
Q 1681 3072 1420 2755 
Q 1159 2438 1159 1844 
L 1159 0 
L 581 0 
L 581 3500 
L 1159 3500 
L 1159 2956 
Q 1341 3275 1631 3429 
Q 1922 3584 2338 3584 
Q 2397 3584 2469 3576 
Q 2541 3569 2628 3553 
L 2631 2963 
z
" transform="scale(0.015625)"/>
      <path id="DejaVuSans-6f" d="M 1959 3097 
Q 1497 3097 1228 2736 
Q 959 2375 959 1747 
Q 959 1119 1226 758 
Q 1494 397 1959 397 
Q 2419 397 2687 759 
Q 2956 1122 2956 1747 
Q 2956 2369 2687 2733 
Q 2419 3097 1959 3097 
z
M 1959 3584 
Q 2709 3584 3137 3096 
Q 3566 2609 3566 1747 
Q 3566 888 3137 398 
Q 2709 -91 1959 -91 
Q 1206 -91 779 398 
Q 353 888 353 1747 
Q 353 2609 779 3096 
Q 1206 3584 1959 3584 
z
" transform="scale(0.015625)"/>
      <path id="DejaVuSans-73" d="M 2834 3397 
L 2834 2853 
Q 2591 2978 2328 3040 
Q 2066 3103 1784 3103 
Q 1356 3103 1142 2972 
Q 928 2841 928 2578 
Q 928 2378 1081 2264 
Q 1234 2150 1697 2047 
L 1894 2003 
Q 2506 1872 2764 1633 
Q 3022 1394 3022 966 
Q 3022 478 2636 193 
Q 2250 -91 1575 -91 
Q 1294 -91 989 -36 
Q 684 19 347 128 
L 347 722 
Q 666 556 975 473 
Q 1284 391 1588 391 
Q 1994 391 2212 530 
Q 2431 669 2431 922 
Q 2431 1156 2273 1281 
Q 2116 1406 1581 1522 
L 1381 1569 
Q 847 1681 609 1914 
Q 372 2147 372 2553 
Q 372 3047 722 3315 
Q 1072 3584 1716 3584 
Q 2034 3584 2315 3537 
Q 2597 3491 2834 3397 
z
" transform="scale(0.015625)"/>
      <path id="DejaVuSans-33" d="M 2597 2516 
Q 3050 2419 3304 2112 
Q 3559 1806 3559 1356 
Q 3559 666 3084 287 
Q 2609 -91 1734 -91 
Q 1441 -91 1130 -33 
Q 819 25 488 141 
L 488 750 
Q 750 597 1062 519 
Q 1375 441 1716 441 
Q 2309 441 2620 675 
Q 2931 909 2931 1356 
Q 2931 1769 2642 2001 
Q 2353 2234 1838 2234 
L 1294 2234 
L 1294 2753 
L 1863 2753 
Q 2328 2753 2575 2939 
Q 2822 3125 2822 3475 
Q 2822 3834 2567 4026 
Q 2313 4219 1838 4219 
Q 1578 4219 1281 4162 
Q 984 4106 628 3988 
L 628 4550 
Q 988 4650 1302 4700 
Q 1616 4750 1894 4750 
Q 2613 4750 3031 4423 
Q 3450 4097 3450 3541 
Q 3450 3153 3228 2886 
Q 3006 2619 2597 2516 
z
" transform="scale(0.015625)"/>
      <path id="DejaVuSans-61" d="M 2194 1759 
Q 1497 1759 1228 1600 
Q 959 1441 959 1056 
Q 959 750 1161 570 
Q 1363 391 1709 391 
Q 2188 391 2477 730 
Q 2766 1069 2766 1631 
L 2766 1759 
L 2194 1759 
z
M 3341 1997 
L 3341 0 
L 2766 0 
L 2766 531 
Q 2569 213 2275 61 
Q 1981 -91 1556 -91 
Q 1019 -91 701 211 
Q 384 513 384 1019 
Q 384 1609 779 1909 
Q 1175 2209 1959 2209 
L 2766 2209 
L 2766 2266 
Q 2766 2663 2505 2880 
Q 2244 3097 1772 3097 
Q 1472 3097 1187 3025 
Q 903 2953 641 2809 
L 641 3341 
Q 956 3463 1253 3523 
Q 1550 3584 1831 3584 
Q 2591 3584 2966 3190 
Q 3341 2797 3341 1997 
z
" transform="scale(0.015625)"/>
      <path id="DejaVuSans-20" transform="scale(0.015625)"/>
      <path id="DejaVuSans-66" d="M 2375 4863 
L 2375 4384 
L 1825 4384 
Q 1516 4384 1395 4259 
Q 1275 4134 1275 3809 
L 1275 3500 
L 2222 3500 
L 2222 3053 
L 1275 3053 
L 1275 0 
L 697 0 
L 697 3053 
L 147 3053 
L 147 3500 
L 697 3500 
L 697 3744 
Q 697 4328 969 4595 
Q 1241 4863 1831 4863 
L 2375 4863 
z
" transform="scale(0.015625)"/>
      <path id="DejaVuSans-5f" d="M 3263 -1063 
L 3263 -1509 
L -63 -1509 
L -63 -1063 
L 3263 -1063 
z
" transform="scale(0.015625)"/>
      <path id="DejaVuSans-41" d="M 2188 4044 
L 1331 1722 
L 3047 1722 
L 2188 4044 
z
M 1831 4666 
L 2547 4666 
L 4325 0 
L 3669 0 
L 3244 1197 
L 1141 1197 
L 716 0 
L 50 0 
L 1831 4666 
z
" transform="scale(0.015625)"/>
      <path id="DejaVuSans-49" d="M 628 4666 
L 1259 4666 
L 1259 0 
L 628 0 
L 628 4666 
z
" transform="scale(0.015625)"/>
      <path id="DejaVuSans-78" d="M 3513 3500 
L 2247 1797 
L 3578 0 
L 2900 0 
L 1881 1375 
L 863 0 
L 184 0 
L 1544 1831 
L 300 3500 
L 978 3500 
L 1906 2253 
L 2834 3500 
L 3513 3500 
z
" transform="scale(0.015625)"/>
     </defs>
     <use xlink:href="#DejaVuSans-46"/>
     <use xlink:href="#DejaVuSans-72" transform="translate(50.269531 0)"/>
     <use xlink:href="#DejaVuSans-6f" transform="translate(89.132812 0)"/>
     <use xlink:href="#DejaVuSans-73" transform="translate(150.314453 0)"/>
     <use xlink:href="#DejaVuSans-74" transform="translate(202.414062 0)"/>
     <use xlink:href="#DejaVuSans-32" transform="translate(241.623047 0)"/>
     <use xlink:href="#DejaVuSans-30" transform="translate(305.246094 0)"/>
     <use xlink:href="#DejaVuSans-31" transform="translate(368.869141 0)"/>
     <use xlink:href="#DejaVuSans-33" transform="translate(432.492188 0)"/>
     <use xlink:href="#DejaVuSans-61" transform="translate(496.115234 0)"/>
     <use xlink:href="#DejaVuSans-20" transform="translate(557.394531 0)"/>
     <use xlink:href="#DejaVuSans-66" transform="translate(589.181641 0)"/>
     <use xlink:href="#DejaVuSans-6d" transform="translate(624.386719 0)"/>
     <use xlink:href="#DejaVuSans-5f" transform="translate(721.798828 0)"/>
     <use xlink:href="#DejaVuSans-41" transform="translate(771.798828 0)"/>
     <use xlink:href="#DejaVuSans-50" transform="translate(840.207031 0)"/>
     <use xlink:href="#DejaVuSans-49" transform="translate(900.509766 0)"/>
     <use xlink:href="#DejaVuSans-32" transform="translate(930.001953 0)"/>
     <use xlink:href="#DejaVuSans-35" transform="translate(993.625 0)"/>
     <use xlink:href="#DejaVuSans-78" transform="translate(1057.248047 0)"/>
     <use xlink:href="#DejaVuSans-32" transform="translate(1116.427734 0)"/>
     <use xlink:href="#DejaVuSans-5f" transform="translate(1180.050781 0)"/>
     <use xlink:href="#DejaVuSans-6d" transform="translate(1230.050781 0)"/>
     <use xlink:href="#DejaVuSans-50" transform="translate(1327.462891 0)"/>
     <use xlink:href="#DejaVuSans-54" transform="translate(1387.765625 0)"/>
    </g>
   </g>
   <g id="legend_1">
    <g id="patch_7">
     <path d="M 200.586364 80.834375 
L 336.636364 80.834375 
Q 338.636364 80.834375 338.636364 78.834375 
L 338.636364 50.2 
Q 338.636364 48.2 336.636364 48.2 
L 200.586364 48.2 
Q 198.586364 48.2 198.586364 50.2 
L 198.586364 78.834375 
Q 198.586364 80.834375 200.586364 80.834375 
z
" style="fill: #ffffff; opacity: 0.8; stroke: #cccccc; stroke-linejoin: miter"/>
    </g>
    <g id="line2d_17">
     <path d="M 202.586364 56.298437 
L 212.586364 56.298437 
L 222.586364 56.298437 
" style="fill: none; stroke: #0000ff; stroke-width: 1.5; stroke-linecap: square"/>
    </g>
    <g id="text_18">
     <!-- observable -->
     <g transform="translate(230.586364 59.798437) scale(0.1 -0.1)">
      <defs>
       <path id="DejaVuSans-62" d="M 3116 1747 
Q 3116 2381 2855 2742 
Q 2594 3103 2138 3103 
Q 1681 3103 1420 2742 
Q 1159 2381 1159 1747 
Q 1159 1113 1420 752 
Q 1681 391 2138 391 
Q 2594 391 2855 752 
Q 3116 1113 3116 1747 
z
M 1159 2969 
Q 1341 3281 1617 3432 
Q 1894 3584 2278 3584 
Q 2916 3584 3314 3078 
Q 3713 2572 3713 1747 
Q 3713 922 3314 415 
Q 2916 -91 2278 -91 
Q 1894 -91 1617 61 
Q 1341 213 1159 525 
L 1159 0 
L 581 0 
L 581 4863 
L 1159 4863 
L 1159 2969 
z
" transform="scale(0.015625)"/>
       <path id="DejaVuSans-76" d="M 191 3500 
L 800 3500 
L 1894 563 
L 2988 3500 
L 3597 3500 
L 2284 0 
L 1503 0 
L 191 3500 
z
" transform="scale(0.015625)"/>
       <path id="DejaVuSans-6c" d="M 603 4863 
L 1178 4863 
L 1178 0 
L 603 0 
L 603 4863 
z
" transform="scale(0.015625)"/>
      </defs>
      <use xlink:href="#DejaVuSans-6f"/>
      <use xlink:href="#DejaVuSans-62" transform="translate(61.181641 0)"/>
      <use xlink:href="#DejaVuSans-73" transform="translate(124.658203 0)"/>
      <use xlink:href="#DejaVuSans-65" transform="translate(176.757812 0)"/>
      <use xlink:href="#DejaVuSans-72" transform="translate(238.28125 0)"/>
      <use xlink:href="#DejaVuSans-76" transform="translate(279.394531 0)"/>
      <use xlink:href="#DejaVuSans-61" transform="translate(338.574219 0)"/>
      <use xlink:href="#DejaVuSans-62" transform="translate(399.853516 0)"/>
      <use xlink:href="#DejaVuSans-6c" transform="translate(463.330078 0)"/>
      <use xlink:href="#DejaVuSans-65" transform="translate(491.113281 0)"/>
     </g>
    </g>
    <g id="LineCollection_2">
     <path d="M 212.586364 75.976562 
L 212.586364 65.976562 
" style="fill: none; stroke: #000000; stroke-width: 1.5"/>
    </g>
    <g id="line2d_18">
     <path d="M 202.586364 70.976562 
L 222.586364 70.976562 
" style="fill: none; stroke: #000000; stroke-width: 1.5; stroke-linecap: square"/>
    </g>
    <g id="line2d_19">
     <g>
      <use xlink:href="#m67af61834d" x="212.586364" y="70.976562" style="stroke: #000000; stroke-linejoin: miter"/>
     </g>
    </g>
    <g id="text_19">
     <!-- reference_data ± SD -->
     <g transform="translate(230.586364 74.476562) scale(0.1 -0.1)">
      <defs>
       <path id="DejaVuSans-6e" d="M 3513 2113 
L 3513 0 
L 2938 0 
L 2938 2094 
Q 2938 2591 2744 2837 
Q 2550 3084 2163 3084 
Q 1697 3084 1428 2787 
Q 1159 2491 1159 1978 
L 1159 0 
L 581 0 
L 581 3500 
L 1159 3500 
L 1159 2956 
Q 1366 3272 1645 3428 
Q 1925 3584 2291 3584 
Q 2894 3584 3203 3211 
Q 3513 2838 3513 2113 
z
" transform="scale(0.015625)"/>
       <path id="DejaVuSans-63" d="M 3122 3366 
L 3122 2828 
Q 2878 2963 2633 3030 
Q 2388 3097 2138 3097 
Q 1578 3097 1268 2742 
Q 959 2388 959 1747 
Q 959 1106 1268 751 
Q 1578 397 2138 397 
Q 2388 397 2633 464 
Q 2878 531 3122 666 
L 3122 134 
Q 2881 22 2623 -34 
Q 2366 -91 2075 -91 
Q 1284 -91 818 406 
Q 353 903 353 1747 
Q 353 2603 823 3093 
Q 1294 3584 2113 3584 
Q 2378 3584 2631 3529 
Q 2884 3475 3122 3366 
z
" transform="scale(0.015625)"/>
       <path id="DejaVuSans-64" d="M 2906 2969 
L 2906 4863 
L 3481 4863 
L 3481 0 
L 2906 0 
L 2906 525 
Q 2725 213 2448 61 
Q 2172 -91 1784 -91 
Q 1150 -91 751 415 
Q 353 922 353 1747 
Q 353 2572 751 3078 
Q 1150 3584 1784 3584 
Q 2172 3584 2448 3432 
Q 2725 3281 2906 2969 
z
M 947 1747 
Q 947 1113 1208 752 
Q 1469 391 1925 391 
Q 2381 391 2643 752 
Q 2906 1113 2906 1747 
Q 2906 2381 2643 2742 
Q 2381 3103 1925 3103 
Q 1469 3103 1208 2742 
Q 947 2381 947 1747 
z
" transform="scale(0.015625)"/>
       <path id="DejaVuSans-b1" d="M 2944 4013 
L 2944 2803 
L 4684 2803 
L 4684 2272 
L 2944 2272 
L 2944 1063 
L 2419 1063 
L 2419 2272 
L 678 2272 
L 678 2803 
L 2419 2803 
L 2419 4013 
L 2944 4013 
z
M 678 531 
L 4684 531 
L 4684 0 
L 678 0 
L 678 531 
z
" transform="scale(0.015625)"/>
       <path id="DejaVuSans-53" d="M 3425 4513 
L 3425 3897 
Q 3066 4069 2747 4153 
Q 2428 4238 2131 4238 
Q 1616 4238 1336 4038 
Q 1056 3838 1056 3469 
Q 1056 3159 1242 3001 
Q 1428 2844 1947 2747 
L 2328 2669 
Q 3034 2534 3370 2195 
Q 3706 1856 3706 1288 
Q 3706 609 3251 259 
Q 2797 -91 1919 -91 
Q 1588 -91 1214 -16 
Q 841 59 441 206 
L 441 856 
Q 825 641 1194 531 
Q 1563 422 1919 422 
Q 2459 422 2753 634 
Q 3047 847 3047 1241 
Q 3047 1584 2836 1778 
Q 2625 1972 2144 2069 
L 1759 2144 
Q 1053 2284 737 2584 
Q 422 2884 422 3419 
Q 422 4038 858 4394 
Q 1294 4750 2059 4750 
Q 2388 4750 2728 4690 
Q 3069 4631 3425 4513 
z
" transform="scale(0.015625)"/>
       <path id="DejaVuSans-44" d="M 1259 4147 
L 1259 519 
L 2022 519 
Q 2988 519 3436 956 
Q 3884 1394 3884 2338 
Q 3884 3275 3436 3711 
Q 2988 4147 2022 4147 
L 1259 4147 
z
M 628 4666 
L 1925 4666 
Q 3281 4666 3915 4102 
Q 4550 3538 4550 2338 
Q 4550 1131 3912 565 
Q 3275 0 1925 0 
L 628 0 
L 628 4666 
z
" transform="scale(0.015625)"/>
      </defs>
      <use xlink:href="#DejaVuSans-72"/>
      <use xlink:href="#DejaVuSans-65" transform="translate(38.863281 0)"/>
      <use xlink:href="#DejaVuSans-66" transform="translate(100.386719 0)"/>
      <use xlink:href="#DejaVuSans-65" transform="translate(135.591797 0)"/>
      <use xlink:href="#DejaVuSans-72" transform="translate(197.115234 0)"/>
      <use xlink:href="#DejaVuSans-65" transform="translate(235.978516 0)"/>
      <use xlink:href="#DejaVuSans-6e" transform="translate(297.501953 0)"/>
      <use xlink:href="#DejaVuSans-63" transform="translate(360.880859 0)"/>
      <use xlink:href="#DejaVuSans-65" transform="translate(415.861328 0)"/>
      <use xlink:href="#DejaVuSans-5f" transform="translate(477.384766 0)"/>
      <use xlink:href="#DejaVuSans-64" transform="translate(527.384766 0)"/>
      <use xlink:href="#DejaVuSans-61" transform="translate(590.861328 0)"/>
      <use xlink:href="#DejaVuSans-74" transform="translate(652.140625 0)"/>
      <use xlink:href="#DejaVuSans-61" transform="translate(691.349609 0)"/>
      <use xlink:href="#DejaVuSans-20" transform="translate(752.628906 0)"/>
      <use xlink:href="#DejaVuSans-b1" transform="translate(784.416016 0)"/>
      <use xlink:href="#DejaVuSans-20" transform="translate(868.205078 0)"/>
      <use xlink:href="#DejaVuSans-53" transform="translate(899.992188 0)"/>
      <use xlink:href="#DejaVuSans-44" transform="translate(963.46875 0)"/>
     </g>
    </g>
   </g>
  </g>
  <g id="axes_2">
   <g id="patch_8">
    <path d="M 394.363636 320.4 
L 648 320.4 
L 648 43.2 
L 394.363636 43.2 
z
" style="fill: #ffffff"/>
   </g>
   <g id="matplotlib.axis_3">
    <g id="xtick_7">
     <g id="line2d_20">
      <g>
       <use xlink:href="#ma56e6e4687" x="415.5" y="320.4" style="stroke: #000000; stroke-width: 0.8"/>
      </g>
     </g>
     <g id="text_20">
      <!-- 0 -->
      <g transform="translate(412.31875 334.998438) scale(0.1 -0.1)">
       <use xlink:href="#DejaVuSans-30"/>
      </g>
     </g>
    </g>
    <g id="xtick_8">
     <g id="line2d_21">
      <g>
       <use xlink:href="#ma56e6e4687" x="457.437229" y="320.4" style="stroke: #000000; stroke-width: 0.8"/>
      </g>
     </g>
     <g id="text_21">
      <!-- 2000 -->
      <g transform="translate(444.712229 334.998438) scale(0.1 -0.1)">
       <use xlink:href="#DejaVuSans-32"/>
       <use xlink:href="#DejaVuSans-30" transform="translate(63.623047 0)"/>
       <use xlink:href="#DejaVuSans-30" transform="translate(127.246094 0)"/>
       <use xlink:href="#DejaVuSans-30" transform="translate(190.869141 0)"/>
      </g>
     </g>
    </g>
    <g id="xtick_9">
     <g id="line2d_22">
      <g>
       <use xlink:href="#ma56e6e4687" x="499.374459" y="320.4" style="stroke: #000000; stroke-width: 0.8"/>
      </g>
     </g>
     <g id="text_22">
      <!-- 4000 -->
      <g transform="translate(486.649459 334.998438) scale(0.1 -0.1)">
       <use xlink:href="#DejaVuSans-34"/>
       <use xlink:href="#DejaVuSans-30" transform="translate(63.623047 0)"/>
       <use xlink:href="#DejaVuSans-30" transform="translate(127.246094 0)"/>
       <use xlink:href="#DejaVuSans-30" transform="translate(190.869141 0)"/>
      </g>
     </g>
    </g>
    <g id="xtick_10">
     <g id="line2d_23">
      <g>
       <use xlink:href="#ma56e6e4687" x="541.311688" y="320.4" style="stroke: #000000; stroke-width: 0.8"/>
      </g>
     </g>
     <g id="text_23">
      <!-- 6000 -->
      <g transform="translate(528.586688 334.998438) scale(0.1 -0.1)">
       <use xlink:href="#DejaVuSans-36"/>
       <use xlink:href="#DejaVuSans-30" transform="translate(63.623047 0)"/>
       <use xlink:href="#DejaVuSans-30" transform="translate(127.246094 0)"/>
       <use xlink:href="#DejaVuSans-30" transform="translate(190.869141 0)"/>
      </g>
     </g>
    </g>
    <g id="xtick_11">
     <g id="line2d_24">
      <g>
       <use xlink:href="#ma56e6e4687" x="583.248918" y="320.4" style="stroke: #000000; stroke-width: 0.8"/>
      </g>
     </g>
     <g id="text_24">
      <!-- 8000 -->
      <g transform="translate(570.523918 334.998438) scale(0.1 -0.1)">
       <use xlink:href="#DejaVuSans-38"/>
       <use xlink:href="#DejaVuSans-30" transform="translate(63.623047 0)"/>
       <use xlink:href="#DejaVuSans-30" transform="translate(127.246094 0)"/>
       <use xlink:href="#DejaVuSans-30" transform="translate(190.869141 0)"/>
      </g>
     </g>
    </g>
    <g id="xtick_12">
     <g id="line2d_25">
      <g>
       <use xlink:href="#ma56e6e4687" x="625.186147" y="320.4" style="stroke: #000000; stroke-width: 0.8"/>
      </g>
     </g>
     <g id="text_25">
      <!-- 10000 -->
      <g transform="translate(609.279897 334.998438) scale(0.1 -0.1)">
       <use xlink:href="#DejaVuSans-31"/>
       <use xlink:href="#DejaVuSans-30" transform="translate(63.623047 0)"/>
       <use xlink:href="#DejaVuSans-30" transform="translate(127.246094 0)"/>
       <use xlink:href="#DejaVuSans-30" transform="translate(190.869141 0)"/>
       <use xlink:href="#DejaVuSans-30" transform="translate(254.492188 0)"/>
      </g>
     </g>
    </g>
    <g id="text_26">
     <!-- time -->
     <g transform="translate(507.626506 350.19625) scale(0.12 -0.12)">
      <use xlink:href="#DejaVuSans-74"/>
      <use xlink:href="#DejaVuSans-69" transform="translate(39.208984 0)"/>
      <use xlink:href="#DejaVuSans-6d" transform="translate(66.992188 0)"/>
      <use xlink:href="#DejaVuSans-65" transform="translate(164.404297 0)"/>
     </g>
    </g>
   </g>
   <g id="matplotlib.axis_4">
    <g id="ytick_9">
     <g id="line2d_26">
      <g>
       <use xlink:href="#md7d34246e0" x="394.363636" y="126.938007" style="stroke: #000000; stroke-width: 0.8"/>
      </g>
     </g>
     <g id="text_27">
      <!-- $\mathdefault{10^{2}}$ -->
      <g transform="translate(369.763636 130.737226) scale(0.1 -0.1)">
       <use xlink:href="#DejaVuSans-31" transform="translate(0 0.765625)"/>
       <use xlink:href="#DejaVuSans-30" transform="translate(63.623047 0.765625)"/>
       <use xlink:href="#DejaVuSans-32" transform="translate(128.203125 39.046875) scale(0.7)"/>
      </g>
     </g>
    </g>
    <g id="ytick_10">
     <g id="line2d_27">
      <defs>
       <path id="m4ea57efc13" d="M 0 0 
L -2 0 
" style="stroke: #000000; stroke-width: 0.6"/>
      </defs>
      <g>
       <use xlink:href="#m4ea57efc13" x="394.363636" y="297.080784" style="stroke: #000000; stroke-width: 0.6"/>
      </g>
     </g>
    </g>
    <g id="ytick_11">
     <g id="line2d_28">
      <g>
       <use xlink:href="#m4ea57efc13" x="394.363636" y="254.216776" style="stroke: #000000; stroke-width: 0.6"/>
      </g>
     </g>
    </g>
    <g id="ytick_12">
     <g id="line2d_29">
      <g>
       <use xlink:href="#m4ea57efc13" x="394.363636" y="223.804279" style="stroke: #000000; stroke-width: 0.6"/>
      </g>
     </g>
    </g>
    <g id="ytick_13">
     <g id="line2d_30">
      <g>
       <use xlink:href="#m4ea57efc13" x="394.363636" y="200.214513" style="stroke: #000000; stroke-width: 0.6"/>
      </g>
     </g>
    </g>
    <g id="ytick_14">
     <g id="line2d_31">
      <g>
       <use xlink:href="#m4ea57efc13" x="394.363636" y="180.940271" style="stroke: #000000; stroke-width: 0.6"/>
      </g>
     </g>
    </g>
    <g id="ytick_15">
     <g id="line2d_32">
      <g>
       <use xlink:href="#m4ea57efc13" x="394.363636" y="164.644131" style="stroke: #000000; stroke-width: 0.6"/>
      </g>
     </g>
    </g>
    <g id="ytick_16">
     <g id="line2d_33">
      <g>
       <use xlink:href="#m4ea57efc13" x="394.363636" y="150.527773" style="stroke: #000000; stroke-width: 0.6"/>
      </g>
     </g>
    </g>
    <g id="ytick_17">
     <g id="line2d_34">
      <g>
       <use xlink:href="#m4ea57efc13" x="394.363636" y="138.076263" style="stroke: #000000; stroke-width: 0.6"/>
      </g>
     </g>
    </g>
    <g id="ytick_18">
     <g id="line2d_35">
      <g>
       <use xlink:href="#m4ea57efc13" x="394.363636" y="53.661502" style="stroke: #000000; stroke-width: 0.6"/>
      </g>
     </g>
    </g>
    <g id="text_28">
     <!-- mPT -->
     <g transform="translate(363.268011 194.926875) rotate(-90) scale(0.12 -0.12)">
      <use xlink:href="#DejaVuSans-6d"/>
      <use xlink:href="#DejaVuSans-50" transform="translate(97.412109 0)"/>
      <use xlink:href="#DejaVuSans-54" transform="translate(157.714844 0)"/>
     </g>
    </g>
   </g>
   <g id="LineCollection_3">
    <path d="M 415.5 281.618548 
L 415.5 145.634509 
" clip-path="url(#p686f5d0753)" style="fill: none; stroke: #000000; stroke-width: 1.5"/>
    <path d="M 419.274351 135.511716 
L 419.274351 91.84442 
" clip-path="url(#p686f5d0753)" style="fill: none; stroke: #000000; stroke-width: 1.5"/>
    <path d="M 423.048701 149.961073 
L 423.048701 104.018485 
" clip-path="url(#p686f5d0753)" style="fill: none; stroke: #000000; stroke-width: 1.5"/>
    <path d="M 430.597403 174.830213 
L 430.597403 145.634509 
" clip-path="url(#p686f5d0753)" style="fill: none; stroke: #000000; stroke-width: 1.5"/>
    <path d="M 438.146104 149.974218 
L 438.146104 106.926334 
" clip-path="url(#p686f5d0753)" style="fill: none; stroke: #000000; stroke-width: 1.5"/>
    <path d="M 445.694805 156.844284 
L 445.694805 131.717052 
" clip-path="url(#p686f5d0753)" style="fill: none; stroke: #000000; stroke-width: 1.5"/>
    <path d="M 596.668831 129.864171 
L 596.668831 109.916435 
" clip-path="url(#p686f5d0753)" style="fill: none; stroke: #000000; stroke-width: 1.5"/>
    <path d="M 600.443182 93.134163 
L 600.443182 54.553264 
" clip-path="url(#p686f5d0753)" style="fill: none; stroke: #000000; stroke-width: 1.5"/>
    <path d="M 604.217532 111.439245 
L 604.217532 79.785543 
" clip-path="url(#p686f5d0753)" style="fill: none; stroke: #000000; stroke-width: 1.5"/>
    <path d="M 611.766234 149.961073 
L 611.766234 109.916435 
" clip-path="url(#p686f5d0753)" style="fill: none; stroke: #000000; stroke-width: 1.5"/>
    <path d="M 619.314935 116.16298 
L 619.314935 80.928646 
" clip-path="url(#p686f5d0753)" style="fill: none; stroke: #000000; stroke-width: 1.5"/>
    <path d="M 626.863636 143.535867 
L 626.863636 111.439245 
" clip-path="url(#p686f5d0753)" style="fill: none; stroke: #000000; stroke-width: 1.5"/>
   </g>
   <g id="line2d_36">
    <path d="M 415.5 193.121231 
L 415.503825 193.023311 
L 415.546014 178.81264 
L 415.773284 139.375053 
L 416.052784 122.742272 
L 416.416804 113.566827 
L 416.834251 108.739318 
L 417.178895 106.665427 
L 417.526204 105.474677 
L 417.873513 104.829261 
L 418.220822 104.536788 
L 418.568131 104.484582 
L 419.089095 104.709356 
L 419.610059 105.17537 
L 420.398257 106.161907 
L 421.71192 108.216643 
L 423.719172 111.801931 
L 427.181933 118.480439 
L 430.597403 125.335685 
L 430.599268 125.93695 
L 430.707765 120.340536 
L 431.03389 110.471478 
L 431.397687 105.411472 
L 431.819628 102.507484 
L 432.210651 101.129007 
L 432.673761 100.342984 
L 433.136872 100.084519 
L 433.445613 100.097733 
L 434.015699 100.376762 
L 434.833746 101.139017 
L 436.11095 102.779496 
L 437.924076 105.5447 
L 440.912398 110.598658 
L 444.739441 117.579976 
L 445.694805 119.386473 
L 445.69667 119.79175 
L 445.805795 115.460488 
L 446.138906 107.427785 
L 446.520424 103.117025 
L 446.925815 100.812687 
L 447.331207 99.624463 
L 447.673474 99.107075 
L 448.015741 98.869824 
L 448.529141 98.855289 
L 448.967352 99.056436 
L 449.768587 99.734281 
L 450.8369 100.994118 
L 452.439369 103.259368 
L 455.014874 107.343461 
L 457.908475 112.308428 
L 460.792208 117.544651 
L 460.794122 118.184628 
L 460.894839 114.440728 
L 461.227877 106.73226 
L 461.608216 102.581631 
L 462.022937 100.312719 
L 462.410994 99.213345 
L 462.828669 98.634351 
L 463.246343 98.433952 
L 463.639932 98.467976 
L 464.148659 98.72352 
L 464.91175 99.389611 
L 466.183569 100.913649 
L 467.964116 103.462801 
L 470.520121 107.524989 
L 473.830001 113.21853 
L 475.88961 116.950293 
L 475.891557 118.139227 
L 475.998765 114.162795 
L 476.309807 106.909221 
L 476.681947 102.697293 
L 477.084041 100.38844 
L 477.520765 99.121389 
L 477.957488 98.540541 
L 478.351729 98.364325 
L 478.825958 98.42812 
L 479.460163 98.810875 
L 480.305769 99.634914 
L 481.574179 101.229286 
L 483.418396 103.92014 
L 485.893037 107.885177 
L 489.499867 114.132725 
L 490.987013 116.835488 
L 490.988982 117.488378 
L 491.089686 113.865274 
L 491.433197 106.217011 
L 491.767751 102.589039 
L 492.191215 100.200794 
L 492.655319 98.930428 
L 493.087563 98.409121 
L 493.63174 98.262619 
L 494.057146 98.392075 
L 494.695255 98.834294 
L 495.546067 99.706283 
L 496.822285 101.341343 
L 498.70292 104.105158 
L 501.234018 108.176572 
L 504.411502 113.671551 
L 506.084416 116.701286 
L 506.086364 118.094218 
L 506.195139 114.066579 
L 506.498362 106.970832 
L 506.889616 102.561771 
L 507.309224 100.235052 
L 507.71163 99.097091 
L 508.033555 98.618636 
L 508.437917 98.35639 
L 508.842279 98.344449 
L 509.469993 98.640336 
L 510.306946 99.390288 
L 511.562375 100.914846 
L 513.292194 103.3927 
L 516.104703 107.869512 
L 519.728321 114.143541 
L 521.181818 116.783808 
L 521.183786 117.513593 
L 521.284647 113.878476 
L 521.601725 106.621604 
L 521.962295 102.593784 
L 522.383928 100.209271 
L 522.806827 99.010412 
L 523.229727 98.447525 
L 523.598127 98.269951 
L 524.023857 98.299431 
L 524.616468 98.612994 
L 525.517871 99.452122 
L 526.869976 101.136285 
L 528.937539 104.162746 
L 531.928797 109.01135 
L 535.265482 114.850526 
L 536.281403 116.880095 
L 536.296611 116.500412 
L 536.64017 107.279947 
L 537.004056 102.848695 
L 537.3846 100.467859 
L 537.834821 99.032534 
L 538.329263 98.342056 
L 538.823704 98.162119 
L 539.241921 98.251468 
L 540.002132 98.757265 
L 541.015748 99.824623 
L 542.536171 101.837814 
L 544.589947 104.927662 
L 547.736979 110.107105 
L 551.378818 116.574245 
L 551.393912 116.20507 
L 551.723207 107.366234 
L 552.099671 102.75552 
L 552.466332 100.455451 
L 552.873274 99.096038 
L 553.210243 98.50069 
L 553.547212 98.203011 
L 554.052665 98.116197 
L 554.493046 98.270538 
L 555.308735 98.89684 
L 556.39632 100.117852 
L 558.027698 102.348525 
L 560.214632 105.700234 
L 563.524445 111.22559 
L 566.474026 116.489494 
L 566.476009 117.05779 
L 566.576026 113.534261 
L 566.917702 106.039278 
L 567.270866 102.306623 
L 567.628395 100.274949 
L 568.060924 98.977203 
L 568.452364 98.409144 
L 568.802714 98.197015 
L 569.32824 98.212193 
L 569.973833 98.572293 
L 570.859558 99.416705 
L 572.040525 100.877925 
L 574.107217 103.871157 
L 576.634896 107.914108 
L 579.777223 113.322244 
L 581.571429 116.56121 
L 581.573404 117.301649 
L 581.674118 113.707866 
L 581.982959 106.639706 
L 582.379816 102.297457 
L 582.741168 100.271958 
L 583.194359 98.955386 
L 583.534251 98.469108 
L 583.897575 98.239764 
L 584.260898 98.213817 
L 584.805883 98.428428 
L 585.608152 99.087102 
L 586.521341 100.119555 
L 588.220281 102.43944 
L 590.397825 105.785137 
L 593.712462 111.331416 
L 596.668831 116.618118 
L 596.670815 117.0484 
L 596.770903 113.528448 
L 597.083829 106.474593 
L 597.449469 102.439727 
L 597.813605 100.325878 
L 598.177742 99.159285 
L 598.494875 98.591926 
L 598.886383 98.25286 
L 599.277891 98.1778 
L 599.865153 98.380341 
L 600.648168 99.006115 
L 601.746554 100.255424 
L 603.551817 102.757946 
L 605.818468 106.276576 
L 609.048186 111.714912 
L 611.766234 116.583308 
L 611.768209 117.30193 
L 611.868956 113.707686 
L 612.207575 106.187641 
L 612.597293 102.133605 
L 613.01174 99.980912 
L 613.426188 98.888264 
L 613.804821 98.4027 
L 614.147639 98.22692 
L 614.661867 98.267672 
L 615.292256 98.63323 
L 616.154969 99.461117 
L 617.592823 101.274002 
L 619.605818 104.235365 
L 622.248434 108.501969 
L 625.638041 114.397 
L 629.956551 122.408568 
L 645.071336 151.083025 
L 648.670095 157.171238 
L 648.670095 157.171238 
" clip-path="url(#p686f5d0753)" style="fill: none; stroke: #0000ff; stroke-width: 1.5; stroke-linecap: square"/>
   </g>
   <g id="line2d_37">
    <path d="M 415.5 193.121231 
L 419.274351 111.439245 
L 423.048701 124.513422 
L 430.597403 159.227668 
L 438.146104 126.274088 
L 445.694805 143.535867 
L 596.668831 119.420501 
L 600.443182 72.093384 
L 604.217532 94.432062 
L 611.766234 128.05389 
L 619.314935 97.084636 
L 626.863636 126.274088 
" clip-path="url(#p686f5d0753)" style="fill: none; stroke: #000000; stroke-width: 1.5; stroke-linecap: square"/>
    <g clip-path="url(#p686f5d0753)">
     <use xlink:href="#m67af61834d" x="415.5" y="193.121231" style="stroke: #000000; stroke-linejoin: miter"/>
     <use xlink:href="#m67af61834d" x="419.274351" y="111.439245" style="stroke: #000000; stroke-linejoin: miter"/>
     <use xlink:href="#m67af61834d" x="423.048701" y="124.513422" style="stroke: #000000; stroke-linejoin: miter"/>
     <use xlink:href="#m67af61834d" x="430.597403" y="159.227668" style="stroke: #000000; stroke-linejoin: miter"/>
     <use xlink:href="#m67af61834d" x="438.146104" y="126.274088" style="stroke: #000000; stroke-linejoin: miter"/>
     <use xlink:href="#m67af61834d" x="445.694805" y="143.535867" style="stroke: #000000; stroke-linejoin: miter"/>
     <use xlink:href="#m67af61834d" x="596.668831" y="119.420501" style="stroke: #000000; stroke-linejoin: miter"/>
     <use xlink:href="#m67af61834d" x="600.443182" y="72.093384" style="stroke: #000000; stroke-linejoin: miter"/>
     <use xlink:href="#m67af61834d" x="604.217532" y="94.432062" style="stroke: #000000; stroke-linejoin: miter"/>
     <use xlink:href="#m67af61834d" x="611.766234" y="128.05389" style="stroke: #000000; stroke-linejoin: miter"/>
     <use xlink:href="#m67af61834d" x="619.314935" y="97.084636" style="stroke: #000000; stroke-linejoin: miter"/>
     <use xlink:href="#m67af61834d" x="626.863636" y="126.274088" style="stroke: #000000; stroke-linejoin: miter"/>
    </g>
   </g>
   <g id="patch_9">
    <path d="M 394.363636 320.4 
L 394.363636 43.2 
" style="fill: none; stroke: #000000; stroke-width: 0.8; stroke-linejoin: miter; stroke-linecap: square"/>
   </g>
   <g id="patch_10">
    <path d="M 648 320.4 
L 648 43.2 
" style="fill: none; stroke: #000000; stroke-width: 0.8; stroke-linejoin: miter; stroke-linecap: square"/>
   </g>
   <g id="patch_11">
    <path d="M 394.363636 320.4 
L 648 320.4 
" style="fill: none; stroke: #000000; stroke-width: 0.8; stroke-linejoin: miter; stroke-linecap: square"/>
   </g>
   <g id="patch_12">
    <path d="M 394.363636 43.2 
L 648 43.2 
" style="fill: none; stroke: #000000; stroke-width: 0.8; stroke-linejoin: miter; stroke-linecap: square"/>
   </g>
   <g id="text_29">
    <!-- Frost2013a fm_API25x2_mPT -->
    <g transform="translate(419.763849 37.2) scale(0.14 -0.14)">
     <use xlink:href="#DejaVuSans-46"/>
     <use xlink:href="#DejaVuSans-72" transform="translate(50.269531 0)"/>
     <use xlink:href="#DejaVuSans-6f" transform="translate(89.132812 0)"/>
     <use xlink:href="#DejaVuSans-73" transform="translate(150.314453 0)"/>
     <use xlink:href="#DejaVuSans-74" transform="translate(202.414062 0)"/>
     <use xlink:href="#DejaVuSans-32" transform="translate(241.623047 0)"/>
     <use xlink:href="#DejaVuSans-30" transform="translate(305.246094 0)"/>
     <use xlink:href="#DejaVuSans-31" transform="translate(368.869141 0)"/>
     <use xlink:href="#DejaVuSans-33" transform="translate(432.492188 0)"/>
     <use xlink:href="#DejaVuSans-61" transform="translate(496.115234 0)"/>
     <use xlink:href="#DejaVuSans-20" transform="translate(557.394531 0)"/>
     <use xlink:href="#DejaVuSans-66" transform="translate(589.181641 0)"/>
     <use xlink:href="#DejaVuSans-6d" transform="translate(624.386719 0)"/>
     <use xlink:href="#DejaVuSans-5f" transform="translate(721.798828 0)"/>
     <use xlink:href="#DejaVuSans-41" transform="translate(771.798828 0)"/>
     <use xlink:href="#DejaVuSans-50" transform="translate(840.207031 0)"/>
     <use xlink:href="#DejaVuSans-49" transform="translate(900.509766 0)"/>
     <use xlink:href="#DejaVuSans-32" transform="translate(930.001953 0)"/>
     <use xlink:href="#DejaVuSans-35" transform="translate(993.625 0)"/>
     <use xlink:href="#DejaVuSans-78" transform="translate(1057.248047 0)"/>
     <use xlink:href="#DejaVuSans-32" transform="translate(1116.427734 0)"/>
     <use xlink:href="#DejaVuSans-5f" transform="translate(1180.050781 0)"/>
     <use xlink:href="#DejaVuSans-6d" transform="translate(1230.050781 0)"/>
     <use xlink:href="#DejaVuSans-50" transform="translate(1327.462891 0)"/>
     <use xlink:href="#DejaVuSans-54" transform="translate(1387.765625 0)"/>
    </g>
   </g>
   <g id="legend_2">
    <g id="patch_13">
     <path d="M 401.363636 80.834375 
L 537.413636 80.834375 
Q 539.413636 80.834375 539.413636 78.834375 
L 539.413636 50.2 
Q 539.413636 48.2 537.413636 48.2 
L 401.363636 48.2 
Q 399.363636 48.2 399.363636 50.2 
L 399.363636 78.834375 
Q 399.363636 80.834375 401.363636 80.834375 
z
" style="fill: #ffffff; opacity: 0.8; stroke: #cccccc; stroke-linejoin: miter"/>
    </g>
    <g id="line2d_38">
     <path d="M 403.363636 56.298437 
L 413.363636 56.298437 
L 423.363636 56.298437 
" style="fill: none; stroke: #0000ff; stroke-width: 1.5; stroke-linecap: square"/>
    </g>
    <g id="text_30">
     <!-- observable -->
     <g transform="translate(431.363636 59.798437) scale(0.1 -0.1)">
      <use xlink:href="#DejaVuSans-6f"/>
      <use xlink:href="#DejaVuSans-62" transform="translate(61.181641 0)"/>
      <use xlink:href="#DejaVuSans-73" transform="translate(124.658203 0)"/>
      <use xlink:href="#DejaVuSans-65" transform="translate(176.757812 0)"/>
      <use xlink:href="#DejaVuSans-72" transform="translate(238.28125 0)"/>
      <use xlink:href="#DejaVuSans-76" transform="translate(279.394531 0)"/>
      <use xlink:href="#DejaVuSans-61" transform="translate(338.574219 0)"/>
      <use xlink:href="#DejaVuSans-62" transform="translate(399.853516 0)"/>
      <use xlink:href="#DejaVuSans-6c" transform="translate(463.330078 0)"/>
      <use xlink:href="#DejaVuSans-65" transform="translate(491.113281 0)"/>
     </g>
    </g>
    <g id="LineCollection_4">
     <path d="M 413.363636 75.976562 
L 413.363636 65.976562 
" style="fill: none; stroke: #000000; stroke-width: 1.5"/>
    </g>
    <g id="line2d_39">
     <path d="M 403.363636 70.976562 
L 423.363636 70.976562 
" style="fill: none; stroke: #000000; stroke-width: 1.5; stroke-linecap: square"/>
    </g>
    <g id="line2d_40">
     <g>
      <use xlink:href="#m67af61834d" x="413.363636" y="70.976562" style="stroke: #000000; stroke-linejoin: miter"/>
     </g>
    </g>
    <g id="text_31">
     <!-- reference_data ± SD -->
     <g transform="translate(431.363636 74.476562) scale(0.1 -0.1)">
      <use xlink:href="#DejaVuSans-72"/>
      <use xlink:href="#DejaVuSans-65" transform="translate(38.863281 0)"/>
      <use xlink:href="#DejaVuSans-66" transform="translate(100.386719 0)"/>
      <use xlink:href="#DejaVuSans-65" transform="translate(135.591797 0)"/>
      <use xlink:href="#DejaVuSans-72" transform="translate(197.115234 0)"/>
      <use xlink:href="#DejaVuSans-65" transform="translate(235.978516 0)"/>
      <use xlink:href="#DejaVuSans-6e" transform="translate(297.501953 0)"/>
      <use xlink:href="#DejaVuSans-63" transform="translate(360.880859 0)"/>
      <use xlink:href="#DejaVuSans-65" transform="translate(415.861328 0)"/>
      <use xlink:href="#DejaVuSans-5f" transform="translate(477.384766 0)"/>
      <use xlink:href="#DejaVuSans-64" transform="translate(527.384766 0)"/>
      <use xlink:href="#DejaVuSans-61" transform="translate(590.861328 0)"/>
      <use xlink:href="#DejaVuSans-74" transform="translate(652.140625 0)"/>
      <use xlink:href="#DejaVuSans-61" transform="translate(691.349609 0)"/>
      <use xlink:href="#DejaVuSans-20" transform="translate(752.628906 0)"/>
      <use xlink:href="#DejaVuSans-b1" transform="translate(784.416016 0)"/>
      <use xlink:href="#DejaVuSans-20" transform="translate(868.205078 0)"/>
      <use xlink:href="#DejaVuSans-53" transform="translate(899.992188 0)"/>
      <use xlink:href="#DejaVuSans-44" transform="translate(963.46875 0)"/>
     </g>
    </g>
   </g>
  </g>
 </g>
 <defs>
  <clipPath id="p73cbf221c3">
   <rect x="90" y="43.2" width="253.636364" height="277.2"/>
  </clipPath>
  <clipPath id="p686f5d0753">
   <rect x="394.363636" y="43.2" width="253.636364" height="277.2"/>
  </clipPath>
 </defs>
</svg>
