<?xml version="1.0" encoding="utf-8" standalone="no"?>
<!DOCTYPE svg PUBLIC "-//W3C//DTD SVG 1.1//EN"
  "http://www.w3.org/Graphics/SVG/1.1/DTD/svg11.dtd">
<svg xmlns:xlink="http://www.w3.org/1999/xlink" width="720pt" height="360pt" viewBox="0 0 720 360" xmlns="http://www.w3.org/2000/svg" version="1.1">
 <metadata>
  <rdf:RDF xmlns:dc="http://purl.org/dc/elements/1.1/" xmlns:cc="http://creativecommons.org/ns#" xmlns:rdf="http://www.w3.org/1999/02/22-rdf-syntax-ns#">
   <cc:Work>
    <dc:type rdf:resource="http://purl.org/dc/dcmitype/StillImage"/>
    <dc:date>2026-04-17T17:37:56.742611</dc:date>
    <dc:format>image/svg+xml</dc:format>
    <dc:creator>
     <cc:Agent>
      <dc:title>Matplotlib v3.10.8, https://matplotlib.org/</dc:title>
     </cc:Agent>
    </dc:creator>
   </cc:Work>
  </rdf:RDF>
 </metadata>
 <defs>
  <style type="text/css">*{stroke-linejoin: round; stroke-linecap: butt}</style>
 </defs>
 <g id="figure_1">
  <g id="patch_1">
   <path d="M 0 360 
L 720 360 
L 720 0 
L 0 0 
z
" style="fill: #ffffff"/>
  </g>
  <g id="axes_1">
   <g id="patch_2">
    <path d="M 90 320.4 
L 343.636364 320.4 
L 343.636364 43.2 
L 90 43.2 
z
" style="fill: #ffffff"/>
   </g>
   <g id="matplotlib.axis_1">
    <g id="xtick_1">
     <g id="line2d_1">
      <defs>
       <path id="me566432331" d="M 0 0 
L 0 3.5 
" style="stroke: #000000; stroke-width: 0.8"/>
      </defs>
      <g>
       <use xlink:href="#me566432331" x="111.136364" y="320.4" style="stroke: #000000; stroke-width: 0.8"/>
      </g>
     </g>
     <g id="text_1">
      <!-- 0 -->
      <g transform="translate(107.955114 334.998438) scale(0.1 -0.1)">
       <defs>
        <path id="DejaVuSans-30" d="M 2034 4250 
Q 1547 4250 1301 3770 
Q 1056 3291 1056 2328 
Q 1056 1369 1301 889 
Q 1547 409 2034 409 
Q 2525 409 2770 889 
Q 3016 1369 3016 2328 
Q 3016 3291 2770 3770 
Q 2525 4250 2034 4250 
z
M 2034 4750 
Q 2819 4750 3233 4129 
Q 3647 3509 3647 2328 
Q 3647 1150 3233 529 
Q 2819 -91 2034 -91 
Q 1250 -91 836 529 
Q 422 1150 422 2328 
Q 422 3509 836 4129 
Q 1250 4750 2034 4750 
z
" transform="scale(0.015625)"/>
       </defs>
       <use xlink:href="#DejaVuSans-30"/>
      </g>
     </g>
    </g>
    <g id="xtick_2">
     <g id="line2d_2">
      <g>
       <use xlink:href="#me566432331" x="153.073593" y="320.4" style="stroke: #000000; stroke-width: 0.8"/>
      </g>
     </g>
     <g id="text_2">
      <!-- 2000 -->
      <g transform="translate(140.348593 334.998438) scale(0.1 -0.1)">
       <defs>
        <path id="DejaVuSans-32" d="M 1228 531 
L 3431 531 
L 3431 0 
L 469 0 
L 469 531 
Q 828 903 1448 1529 
Q 2069 2156 2228 2338 
Q 2531 2678 2651 2914 
Q 2772 3150 2772 3378 
Q 2772 3750 2511 3984 
Q 2250 4219 1831 4219 
Q 1534 4219 1204 4116 
Q 875 4013 500 3803 
L 500 4441 
Q 881 4594 1212 4672 
Q 1544 4750 1819 4750 
Q 2544 4750 2975 4387 
Q 3406 4025 3406 3419 
Q 3406 3131 3298 2873 
Q 3191 2616 2906 2266 
Q 2828 2175 2409 1742 
Q 1991 1309 1228 531 
z
" transform="scale(0.015625)"/>
       </defs>
       <use xlink:href="#DejaVuSans-32"/>
       <use xlink:href="#DejaVuSans-30" transform="translate(63.623047 0)"/>
       <use xlink:href="#DejaVuSans-30" transform="translate(127.246094 0)"/>
       <use xlink:href="#DejaVuSans-30" transform="translate(190.869141 0)"/>
      </g>
     </g>
    </g>
    <g id="xtick_3">
     <g id="line2d_3">
      <g>
       <use xlink:href="#me566432331" x="195.010823" y="320.4" style="stroke: #000000; stroke-width: 0.8"/>
      </g>
     </g>
     <g id="text_3">
      <!-- 4000 -->
      <g transform="translate(182.285823 334.998438) scale(0.1 -0.1)">
       <defs>
        <path id="DejaVuSans-34" d="M 2419 4116 
L 825 1625 
L 2419 1625 
L 2419 4116 
z
M 2253 4666 
L 3047 4666 
L 3047 1625 
L 3713 1625 
L 3713 1100 
L 3047 1100 
L 3047 0 
L 2419 0 
L 2419 1100 
L 313 1100 
L 313 1709 
L 2253 4666 
z
" transform="scale(0.015625)"/>
       </defs>
       <use xlink:href="#DejaVuSans-34"/>
       <use xlink:href="#DejaVuSans-30" transform="translate(63.623047 0)"/>
       <use xlink:href="#DejaVuSans-30" transform="translate(127.246094 0)"/>
       <use xlink:href="#DejaVuSans-30" transform="translate(190.869141 0)"/>
      </g>
     </g>
    </g>
    <g id="xtick_4">
     <g id="line2d_4">
      <g>
       <use xlink:href="#me566432331" x="236.948052" y="320.4" style="stroke: #000000; stroke-width: 0.8"/>
      </g>
     </g>
     <g id="text_4">
      <!-- 6000 -->
      <g transform="translate(224.223052 334.998438) scale(0.1 -0.1)">
       <defs>
        <path id="DejaVuSans-36" d="M 2113 2584 
Q 1688 2584 1439 2293 
Q 1191 2003 1191 1497 
Q 1191 994 1439 701 
Q 1688 409 2113 409 
Q 2538 409 2786 701 
Q 3034 994 3034 1497 
Q 3034 2003 2786 2293 
Q 2538 2584 2113 2584 
z
M 3366 4563 
L 3366 3988 
Q 3128 4100 2886 4159 
Q 2644 4219 2406 4219 
Q 1781 4219 1451 3797 
Q 1122 3375 1075 2522 
Q 1259 2794 1537 2939 
Q 1816 3084 2150 3084 
Q 2853 3084 3261 2657 
Q 3669 2231 3669 1497 
Q 3669 778 3244 343 
Q 2819 -91 2113 -91 
Q 1303 -91 875 529 
Q 447 1150 447 2328 
Q 447 3434 972 4092 
Q 1497 4750 2381 4750 
Q 2619 4750 2861 4703 
Q 3103 4656 3366 4563 
z
" transform="scale(0.015625)"/>
       </defs>
       <use xlink:href="#DejaVuSans-36"/>
       <use xlink:href="#DejaVuSans-30" transform="translate(63.623047 0)"/>
       <use xlink:href="#DejaVuSans-30" transform="translate(127.246094 0)"/>
       <use xlink:href="#DejaVuSans-30" transform="translate(190.869141 0)"/>
      </g>
     </g>
    </g>
    <g id="xtick_5">
     <g id="line2d_5">
      <g>
       <use xlink:href="#me566432331" x="278.885281" y="320.4" style="stroke: #000000; stroke-width: 0.8"/>
      </g>
     </g>
     <g id="text_5">
      <!-- 8000 -->
      <g transform="translate(266.160281 334.998438) scale(0.1 -0.1)">
       <defs>
        <path id="DejaVuSans-38" d="M 2034 2216 
Q 1584 2216 1326 1975 
Q 1069 1734 1069 1313 
Q 1069 891 1326 650 
Q 1584 409 2034 409 
Q 2484 409 2743 651 
Q 3003 894 3003 1313 
Q 3003 1734 2745 1975 
Q 2488 2216 2034 2216 
z
M 1403 2484 
Q 997 2584 770 2862 
Q 544 3141 544 3541 
Q 544 4100 942 4425 
Q 1341 4750 2034 4750 
Q 2731 4750 3128 4425 
Q 3525 4100 3525 3541 
Q 3525 3141 3298 2862 
Q 3072 2584 2669 2484 
Q 3125 2378 3379 2068 
Q 3634 1759 3634 1313 
Q 3634 634 3220 271 
Q 2806 -91 2034 -91 
Q 1263 -91 848 271 
Q 434 634 434 1313 
Q 434 1759 690 2068 
Q 947 2378 1403 2484 
z
M 1172 3481 
Q 1172 3119 1398 2916 
Q 1625 2713 2034 2713 
Q 2441 2713 2670 2916 
Q 2900 3119 2900 3481 
Q 2900 3844 2670 4047 
Q 2441 4250 2034 4250 
Q 1625 4250 1398 4047 
Q 1172 3844 1172 3481 
z
" transform="scale(0.015625)"/>
       </defs>
       <use xlink:href="#DejaVuSans-38"/>
       <use xlink:href="#DejaVuSans-30" transform="translate(63.623047 0)"/>
       <use xlink:href="#DejaVuSans-30" transform="translate(127.246094 0)"/>
       <use xlink:href="#DejaVuSans-30" transform="translate(190.869141 0)"/>
      </g>
     </g>
    </g>
    <g id="xtick_6">
     <g id="line2d_6">
      <g>
       <use xlink:href="#me566432331" x="320.822511" y="320.4" style="stroke: #000000; stroke-width: 0.8"/>
      </g>
     </g>
     <g id="text_6">
      <!-- 10000 -->
      <g transform="translate(304.916261 334.998438) scale(0.1 -0.1)">
       <defs>
        <path id="DejaVuSans-31" d="M 794 531 
L 1825 531 
L 1825 4091 
L 703 3866 
L 703 4441 
L 1819 4666 
L 2450 4666 
L 2450 531 
L 3481 531 
L 3481 0 
L 794 0 
L 794 531 
z
" transform="scale(0.015625)"/>
       </defs>
       <use xlink:href="#DejaVuSans-31"/>
       <use xlink:href="#DejaVuSans-30" transform="translate(63.623047 0)"/>
       <use xlink:href="#DejaVuSans-30" transform="translate(127.246094 0)"/>
       <use xlink:href="#DejaVuSans-30" transform="translate(190.869141 0)"/>
       <use xlink:href="#DejaVuSans-30" transform="translate(254.492188 0)"/>
      </g>
     </g>
    </g>
    <g id="text_7">
     <!-- time -->
     <g transform="translate(203.262869 350.19625) scale(0.12 -0.12)">
      <defs>
       <path id="DejaVuSans-74" d="M 1172 4494 
L 1172 3500 
L 2356 3500 
L 2356 3053 
L 1172 3053 
L 1172 1153 
Q 1172 725 1289 603 
Q 1406 481 1766 481 
L 2356 481 
L 2356 0 
L 1766 0 
Q 1100 0 847 248 
Q 594 497 594 1153 
L 594 3053 
L 172 3053 
L 172 3500 
L 594 3500 
L 594 4494 
L 1172 4494 
z
" transform="scale(0.015625)"/>
       <path id="DejaVuSans-69" d="M 603 3500 
L 1178 3500 
L 1178 0 
L 603 0 
L 603 3500 
z
M 603 4863 
L 1178 4863 
L 1178 4134 
L 603 4134 
L 603 4863 
z
" transform="scale(0.015625)"/>
       <path id="DejaVuSans-6d" d="M 3328 2828 
Q 3544 3216 3844 3400 
Q 4144 3584 4550 3584 
Q 5097 3584 5394 3201 
Q 5691 2819 5691 2113 
L 5691 0 
L 5113 0 
L 5113 2094 
Q 5113 2597 4934 2840 
Q 4756 3084 4391 3084 
Q 3944 3084 3684 2787 
Q 3425 2491 3425 1978 
L 3425 0 
L 2847 0 
L 2847 2094 
Q 2847 2600 2669 2842 
Q 2491 3084 2119 3084 
Q 1678 3084 1418 2786 
Q 1159 2488 1159 1978 
L 1159 0 
L 581 0 
L 581 3500 
L 1159 3500 
L 1159 2956 
Q 1356 3278 1631 3431 
Q 1906 3584 2284 3584 
Q 2666 3584 2933 3390 
Q 3200 3197 3328 2828 
z
" transform="scale(0.015625)"/>
       <path id="DejaVuSans-65" d="M 3597 1894 
L 3597 1613 
L 953 1613 
Q 991 1019 1311 708 
Q 1631 397 2203 397 
Q 2534 397 2845 478 
Q 3156 559 3463 722 
L 3463 178 
Q 3153 47 2828 -22 
Q 2503 -91 2169 -91 
Q 1331 -91 842 396 
Q 353 884 353 1716 
Q 353 2575 817 3079 
Q 1281 3584 2069 3584 
Q 2775 3584 3186 3129 
Q 3597 2675 3597 1894 
z
M 3022 2063 
Q 3016 2534 2758 2815 
Q 2500 3097 2075 3097 
Q 1594 3097 1305 2825 
Q 1016 2553 972 2059 
L 3022 2063 
z
" transform="scale(0.015625)"/>
      </defs>
      <use xlink:href="#DejaVuSans-74"/>
      <use xlink:href="#DejaVuSans-69" transform="translate(39.208984 0)"/>
      <use xlink:href="#DejaVuSans-6d" transform="translate(66.992188 0)"/>
      <use xlink:href="#DejaVuSans-65" transform="translate(164.404297 0)"/>
     </g>
    </g>
   </g>
   <g id="matplotlib.axis_2">
    <g id="ytick_1">
     <g id="line2d_7">
      <defs>
       <path id="m53b076c4a2" d="M 0 0 
L -3.5 0 
" style="stroke: #000000; stroke-width: 0.8"/>
      </defs>
      <g>
       <use xlink:href="#m53b076c4a2" x="90" y="279.229038" style="stroke: #000000; stroke-width: 0.8"/>
      </g>
     </g>
     <g id="text_8">
      <!-- 30 -->
      <g transform="translate(70.275 283.028256) scale(0.1 -0.1)">
       <defs>
        <path id="DejaVuSans-33" d="M 2597 2516 
Q 3050 2419 3304 2112 
Q 3559 1806 3559 1356 
Q 3559 666 3084 287 
Q 2609 -91 1734 -91 
Q 1441 -91 1130 -33 
Q 819 25 488 141 
L 488 750 
Q 750 597 1062 519 
Q 1375 441 1716 441 
Q 2309 441 2620 675 
Q 2931 909 2931 1356 
Q 2931 1769 2642 2001 
Q 2353 2234 1838 2234 
L 1294 2234 
L 1294 2753 
L 1863 2753 
Q 2328 2753 2575 2939 
Q 2822 3125 2822 3475 
Q 2822 3834 2567 4026 
Q 2313 4219 1838 4219 
Q 1578 4219 1281 4162 
Q 984 4106 628 3988 
L 628 4550 
Q 988 4650 1302 4700 
Q 1616 4750 1894 4750 
Q 2613 4750 3031 4423 
Q 3450 4097 3450 3541 
Q 3450 3153 3228 2886 
Q 3006 2619 2597 2516 
z
" transform="scale(0.015625)"/>
       </defs>
       <use xlink:href="#DejaVuSans-33"/>
       <use xlink:href="#DejaVuSans-30" transform="translate(63.623047 0)"/>
      </g>
     </g>
    </g>
    <g id="ytick_2">
     <g id="line2d_8">
      <g>
       <use xlink:href="#m53b076c4a2" x="90" y="227.842414" style="stroke: #000000; stroke-width: 0.8"/>
      </g>
     </g>
     <g id="text_9">
      <!-- 35 -->
      <g transform="translate(70.275 231.641633) scale(0.1 -0.1)">
       <defs>
        <path id="DejaVuSans-35" d="M 691 4666 
L 3169 4666 
L 3169 4134 
L 1269 4134 
L 1269 2991 
Q 1406 3038 1543 3061 
Q 1681 3084 1819 3084 
Q 2600 3084 3056 2656 
Q 3513 2228 3513 1497 
Q 3513 744 3044 326 
Q 2575 -91 1722 -91 
Q 1428 -91 1123 -41 
Q 819 9 494 109 
L 494 744 
Q 775 591 1075 516 
Q 1375 441 1709 441 
Q 2250 441 2565 725 
Q 2881 1009 2881 1497 
Q 2881 1984 2565 2268 
Q 2250 2553 1709 2553 
Q 1456 2553 1204 2497 
Q 953 2441 691 2322 
L 691 4666 
z
" transform="scale(0.015625)"/>
       </defs>
       <use xlink:href="#DejaVuSans-33"/>
       <use xlink:href="#DejaVuSans-35" transform="translate(63.623047 0)"/>
      </g>
     </g>
    </g>
    <g id="ytick_3">
     <g id="line2d_9">
      <g>
       <use xlink:href="#m53b076c4a2" x="90" y="176.455791" style="stroke: #000000; stroke-width: 0.8"/>
      </g>
     </g>
     <g id="text_10">
      <!-- 40 -->
      <g transform="translate(70.275 180.25501) scale(0.1 -0.1)">
       <use xlink:href="#DejaVuSans-34"/>
       <use xlink:href="#DejaVuSans-30" transform="translate(63.623047 0)"/>
      </g>
     </g>
    </g>
    <g id="ytick_4">
     <g id="line2d_10">
      <g>
       <use xlink:href="#m53b076c4a2" x="90" y="125.069168" style="stroke: #000000; stroke-width: 0.8"/>
      </g>
     </g>
     <g id="text_11">
      <!-- 45 -->
      <g transform="translate(70.275 128.868387) scale(0.1 -0.1)">
       <use xlink:href="#DejaVuSans-34"/>
       <use xlink:href="#DejaVuSans-35" transform="translate(63.623047 0)"/>
      </g>
     </g>
    </g>
    <g id="ytick_5">
     <g id="line2d_11">
      <g>
       <use xlink:href="#m53b076c4a2" x="90" y="73.682545" style="stroke: #000000; stroke-width: 0.8"/>
      </g>
     </g>
     <g id="text_12">
      <!-- 50 -->
      <g transform="translate(70.275 77.481764) scale(0.1 -0.1)">
       <use xlink:href="#DejaVuSans-35"/>
       <use xlink:href="#DejaVuSans-30" transform="translate(63.623047 0)"/>
      </g>
     </g>
    </g>
    <g id="text_13">
     <!-- aPTT -->
     <g transform="translate(63.779375 196.319062) rotate(-90) scale(0.12 -0.12)">
      <defs>
       <path id="DejaVuSans-61" d="M 2194 1759 
Q 1497 1759 1228 1600 
Q 959 1441 959 1056 
Q 959 750 1161 570 
Q 1363 391 1709 391 
Q 2188 391 2477 730 
Q 2766 1069 2766 1631 
L 2766 1759 
L 2194 1759 
z
M 3341 1997 
L 3341 0 
L 2766 0 
L 2766 531 
Q 2569 213 2275 61 
Q 1981 -91 1556 -91 
Q 1019 -91 701 211 
Q 384 513 384 1019 
Q 384 1609 779 1909 
Q 1175 2209 1959 2209 
L 2766 2209 
L 2766 2266 
Q 2766 2663 2505 2880 
Q 2244 3097 1772 3097 
Q 1472 3097 1187 3025 
Q 903 2953 641 2809 
L 641 3341 
Q 956 3463 1253 3523 
Q 1550 3584 1831 3584 
Q 2591 3584 2966 3190 
Q 3341 2797 3341 1997 
z
" transform="scale(0.015625)"/>
       <path id="DejaVuSans-50" d="M 1259 4147 
L 1259 2394 
L 2053 2394 
Q 2494 2394 2734 2622 
Q 2975 2850 2975 3272 
Q 2975 3691 2734 3919 
Q 2494 4147 2053 4147 
L 1259 4147 
z
M 628 4666 
L 2053 4666 
Q 2838 4666 3239 4311 
Q 3641 3956 3641 3272 
Q 3641 2581 3239 2228 
Q 2838 1875 2053 1875 
L 1259 1875 
L 1259 0 
L 628 0 
L 628 4666 
z
" transform="scale(0.015625)"/>
       <path id="DejaVuSans-54" d="M -19 4666 
L 3928 4666 
L 3928 4134 
L 2272 4134 
L 2272 0 
L 1638 0 
L 1638 4134 
L -19 4134 
L -19 4666 
z
" transform="scale(0.015625)"/>
      </defs>
      <use xlink:href="#DejaVuSans-61"/>
      <use xlink:href="#DejaVuSans-50" transform="translate(61.279297 0)"/>
      <use xlink:href="#DejaVuSans-54" transform="translate(121.582031 0)"/>
      <use xlink:href="#DejaVuSans-54" transform="translate(180.916016 0)"/>
     </g>
    </g>
   </g>
   <g id="LineCollection_1">
    <path d="M 111.136364 307.8 
L 111.136364 248.808157 
" clip-path="url(#p06f449a487)" style="fill: none; stroke: #000000; stroke-width: 1.5"/>
    <path d="M 114.910714 273.062643 
L 114.910714 235.447635 
" clip-path="url(#p06f449a487)" style="fill: none; stroke: #000000; stroke-width: 1.5"/>
    <path d="M 118.685065 278.304078 
L 118.685065 219.312235 
" clip-path="url(#p06f449a487)" style="fill: none; stroke: #000000; stroke-width: 1.5"/>
    <path d="M 122.459416 297.214356 
L 122.459416 216.640131 
" clip-path="url(#p06f449a487)" style="fill: none; stroke: #000000; stroke-width: 1.5"/>
    <path d="M 126.233766 302.558564 
L 126.233766 221.984339 
" clip-path="url(#p06f449a487)" style="fill: none; stroke: #000000; stroke-width: 1.5"/>
    <path d="M 130.008117 288.992496 
L 130.008117 197.9354 
" clip-path="url(#p06f449a487)" style="fill: none; stroke: #000000; stroke-width: 1.5"/>
    <path d="M 133.782468 278.201305 
L 133.782468 224.759217 
" clip-path="url(#p06f449a487)" style="fill: none; stroke: #000000; stroke-width: 1.5"/>
    <path d="M 137.556818 286.320392 
L 137.556818 211.295922 
" clip-path="url(#p06f449a487)" style="fill: none; stroke: #000000; stroke-width: 1.5"/>
    <path d="M 141.331169 291.870147 
L 141.331169 216.640131 
" clip-path="url(#p06f449a487)" style="fill: none; stroke: #000000; stroke-width: 1.5"/>
    <path d="M 292.305195 246.033279 
L 292.305195 192.591191 
" clip-path="url(#p06f449a487)" style="fill: none; stroke: #000000; stroke-width: 1.5"/>
    <path d="M 296.079545 256.927243 
L 296.079545 149.631974 
" clip-path="url(#p06f449a487)" style="fill: none; stroke: #000000; stroke-width: 1.5"/>
    <path d="M 299.853896 278.406852 
L 299.853896 176.455791 
" clip-path="url(#p06f449a487)" style="fill: none; stroke: #000000; stroke-width: 1.5"/>
    <path d="M 303.628247 267.615661 
L 303.628247 203.279608 
" clip-path="url(#p06f449a487)" style="fill: none; stroke: #000000; stroke-width: 1.5"/>
    <path d="M 307.402597 297.008809 
L 307.402597 195.263295 
" clip-path="url(#p06f449a487)" style="fill: none; stroke: #000000; stroke-width: 1.5"/>
    <path d="M 311.176948 272.959869 
L 311.176948 213.968026 
" clip-path="url(#p06f449a487)" style="fill: none; stroke: #000000; stroke-width: 1.5"/>
    <path d="M 314.951299 259.496574 
L 314.951299 55.8 
" clip-path="url(#p06f449a487)" style="fill: none; stroke: #000000; stroke-width: 1.5"/>
    <path d="M 318.725649 288.992496 
L 318.725649 203.279608 
" clip-path="url(#p06f449a487)" style="fill: none; stroke: #000000; stroke-width: 1.5"/>
    <path d="M 322.5 302.455791 
L 322.5 179.127896 
" clip-path="url(#p06f449a487)" style="fill: none; stroke: #000000; stroke-width: 1.5"/>
   </g>
   <g id="line2d_12">
    <path d="M 111.136364 278.304078 
L 111.141626 278.221698 
L 111.222363 268.525412 
L 111.573719 240.271207 
L 111.980364 223.772742 
L 112.355734 215.456708 
L 112.815258 209.827272 
L 113.162568 207.493598 
L 113.509877 206.190764 
L 113.857186 205.591305 
L 114.204495 205.483696 
L 114.551804 205.725668 
L 115.072768 206.536616 
L 115.771888 208.149053 
L 117.085551 211.931205 
L 121.793646 226.122659 
L 124.054896 232.180201 
L 126.233766 237.459951 
L 126.235632 238.14169 
L 126.344128 231.406885 
L 126.712366 215.356331 
L 127.162724 205.099984 
L 127.553747 200.312932 
L 128.001385 197.368604 
L 128.464495 196.005292 
L 128.773236 195.702298 
L 129.081976 195.733942 
L 129.367019 195.985302 
L 129.856574 196.773677 
L 130.470109 198.182006 
L 131.747314 201.865072 
L 138.626144 222.963235 
L 141.333246 230.691926 
L 141.346533 230.226543 
L 141.775269 211.275607 
L 142.156787 202.5978 
L 142.562179 197.42432 
L 142.967571 194.591436 
L 143.309838 193.320329 
L 143.652104 192.729573 
L 143.994371 192.615746 
L 144.336638 192.842552 
L 144.870794 193.663913 
L 145.672029 195.548062 
L 147.00742 199.494243 
L 153.544839 219.783393 
L 156.428571 227.647202 
L 156.430486 228.536555 
L 156.531203 223.129682 
L 156.913806 208.545351 
L 157.327524 200.130825 
L 157.742245 195.536972 
L 158.186583 192.969642 
L 158.604257 191.884441 
L 158.882707 191.631057 
L 159.021931 191.609924 
L 159.276295 191.717427 
L 159.785023 192.362765 
L 160.548114 194.017353 
L 161.819933 197.659652 
L 169.466364 221.236984 
L 171.525974 226.807921 
L 171.527921 228.474291 
L 171.635128 222.7051 
L 172.008194 208.498245 
L 172.442357 199.724873 
L 172.895094 194.946631 
L 173.331818 192.623048 
L 173.725265 191.678196 
L 173.988093 191.453973 
L 174.25092 191.4683 
L 174.673723 191.862221 
L 175.307928 193.03011 
L 176.153535 195.204557 
L 177.748507 200.097949 
L 182.559923 215.253808 
L 185.13623 222.65896 
L 186.623377 226.645726 
L 186.625345 227.573143 
L 186.72605 222.246829 
L 187.114769 207.70659 
L 187.557834 199.065725 
L 187.943604 194.985967 
L 188.407709 192.411058 
L 188.723927 191.567954 
L 189.055401 191.211443 
L 189.268104 191.194504 
L 189.69351 191.524604 
L 190.118916 192.205518 
L 190.757025 193.648525 
L 191.82054 196.663153 
L 194.672869 205.767822 
L 197.929543 215.857541 
L 200.577447 223.404168 
L 201.720779 226.45881 
L 201.722728 228.412488 
L 201.831503 222.557327 
L 202.185536 208.912042 
L 202.629456 199.758965 
L 203.026069 195.364105 
L 203.428475 192.926954 
L 203.804706 191.789481 
L 204.07428 191.433765 
L 204.343855 191.357566 
L 204.68788 191.565462 
L 205.106357 192.153346 
L 205.734071 193.490492 
L 206.780262 196.384122 
L 208.928557 203.190136 
L 212.776386 215.238795 
L 215.364685 222.675562 
L 216.818182 226.571994 
L 216.82015 227.608356 
L 216.92101 222.267247 
L 217.29042 208.239013 
L 217.720934 199.518443 
L 218.104871 195.255822 
L 218.527771 192.699694 
L 218.86609 191.665524 
L 219.23449 191.21324 
L 219.51831 191.206301 
L 219.80213 191.418425 
L 220.252832 192.084377 
L 220.928884 193.582923 
L 222.055638 196.778142 
L 224.921781 205.933262 
L 228.121275 215.84067 
L 230.901846 223.749593 
L 231.917767 226.716221 
L 231.931788 226.238091 
L 232.369198 208.210854 
L 232.735556 200.373157 
L 233.211236 194.851438 
L 233.635999 192.368666 
L 233.965626 191.397242 
L 234.295254 190.985431 
L 234.624881 190.973338 
L 235.131689 191.493604 
L 235.638496 192.447539 
L 236.398708 194.359242 
L 237.91913 198.966103 
L 243.373342 216.101587 
L 246.407793 224.665514 
L 247.015181 226.27987 
L 247.02446 226.041524 
L 247.551669 205.720801 
L 248.00096 197.768213 
L 248.407902 193.935501 
L 248.846606 191.800373 
L 249.183575 191.041987 
L 249.520544 190.79708 
L 249.857513 190.918862 
L 250.401306 191.644952 
L 251.216995 193.478403 
L 252.576476 197.449035 
L 259.81237 219.873018 
L 262.11039 226.153618 
L 262.112373 226.96804 
L 262.21239 221.732334 
L 262.554066 208.611223 
L 262.977862 199.700568 
L 263.372891 195.162636 
L 263.80542 192.494297 
L 264.088727 191.568012 
L 264.439078 191.026627 
L 264.789429 190.963193 
L 265.139779 191.239181 
L 265.610196 191.981582 
L 266.495922 194.083827 
L 267.97213 198.505607 
L 274.066875 217.555944 
L 276.877296 225.388775 
L 277.207792 226.255341 
L 277.209767 227.311616 
L 277.310481 222.002781 
L 277.654828 208.734553 
L 278.08845 199.668051 
L 278.490829 195.129132 
L 278.94402 192.446513 
L 279.352277 191.351143 
L 279.7156 191.049222 
L 280.078923 191.18017 
L 280.442246 191.617024 
L 280.934212 192.545197 
L 281.929407 195.118447 
L 283.596532 200.280753 
L 288.105837 214.509424 
L 290.624447 221.80105 
L 292.305195 226.338518 
L 292.307178 226.954764 
L 292.407266 221.723254 
L 292.807858 207.016761 
L 293.207211 199.213589 
L 293.692727 194.22396 
L 294.131239 192.031186 
L 294.522746 191.169556 
L 294.914254 190.977382 
L 295.305762 191.239312 
L 295.69727 191.815225 
L 296.284532 193.069551 
L 297.382917 196.110412 
L 299.789935 203.761982 
L 303.300385 214.747186 
L 305.607327 221.430203 
L 307.402597 226.287035 
L 307.404572 227.312012 
L 307.505319 222.002501 
L 307.883007 207.80955 
L 308.337269 198.898635 
L 308.751716 194.614403 
L 309.166163 192.346779 
L 309.441184 191.551627 
L 309.784003 191.103201 
L 310.126822 191.090539 
L 310.46964 191.390282 
L 310.92862 192.135428 
L 311.791332 194.192653 
L 313.229186 198.492927 
L 319.219726 217.242156 
L 321.994157 225.009792 
L 324.873163 232.307652 
L 327.032418 237.268275 
L 329.191673 241.798481 
L 331.350928 245.913465 
L 333.510183 249.633107 
L 335.669438 252.980561 
L 337.828693 255.981048 
L 339.987948 258.660839 
L 342.147203 261.046444 
L 344.306458 263.163966 
L 344.306458 263.163966 
" clip-path="url(#p06f449a487)" style="fill: none; stroke: #0000ff; stroke-width: 1.5; stroke-linecap: square"/>
   </g>
   <g id="line2d_13">
    <path d="M 111.136364 278.304078 
L 114.910714 254.255139 
L 118.685065 248.808157 
L 122.459416 256.927243 
L 126.233766 262.271452 
L 130.008117 243.463948 
L 133.782468 251.480261 
L 137.556818 248.808157 
L 141.331169 254.255139 
L 292.305195 219.312235 
L 296.079545 203.279608 
L 299.853896 227.431321 
L 303.628247 235.447635 
L 307.402597 246.136052 
L 311.176948 243.463948 
L 314.951299 157.648287 
L 318.725649 246.136052 
L 322.5 240.791843 
" clip-path="url(#p06f449a487)" style="fill: none; stroke: #000000; stroke-width: 1.5; stroke-linecap: square"/>
    <defs>
     <path id="m180c04071f" d="M -5 5 
L 5 5 
L 5 -5 
L -5 -5 
z
" style="stroke: #000000; stroke-linejoin: miter"/>
    </defs>
    <g clip-path="url(#p06f449a487)">
     <use xlink:href="#m180c04071f" x="111.136364" y="278.304078" style="stroke: #000000; stroke-linejoin: miter"/>
     <use xlink:href="#m180c04071f" x="114.910714" y="254.255139" style="stroke: #000000; stroke-linejoin: miter"/>
     <use xlink:href="#m180c04071f" x="118.685065" y="248.808157" style="stroke: #000000; stroke-linejoin: miter"/>
     <use xlink:href="#m180c04071f" x="122.459416" y="256.927243" style="stroke: #000000; stroke-linejoin: miter"/>
     <use xlink:href="#m180c04071f" x="126.233766" y="262.271452" style="stroke: #000000; stroke-linejoin: miter"/>
     <use xlink:href="#m180c04071f" x="130.008117" y="243.463948" style="stroke: #000000; stroke-linejoin: miter"/>
     <use xlink:href="#m180c04071f" x="133.782468" y="251.480261" style="stroke: #000000; stroke-linejoin: miter"/>
     <use xlink:href="#m180c04071f" x="137.556818" y="248.808157" style="stroke: #000000; stroke-linejoin: miter"/>
     <use xlink:href="#m180c04071f" x="141.331169" y="254.255139" style="stroke: #000000; stroke-linejoin: miter"/>
     <use xlink:href="#m180c04071f" x="292.305195" y="219.312235" style="stroke: #000000; stroke-linejoin: miter"/>
     <use xlink:href="#m180c04071f" x="296.079545" y="203.279608" style="stroke: #000000; stroke-linejoin: miter"/>
     <use xlink:href="#m180c04071f" x="299.853896" y="227.431321" style="stroke: #000000; stroke-linejoin: miter"/>
     <use xlink:href="#m180c04071f" x="303.628247" y="235.447635" style="stroke: #000000; stroke-linejoin: miter"/>
     <use xlink:href="#m180c04071f" x="307.402597" y="246.136052" style="stroke: #000000; stroke-linejoin: miter"/>
     <use xlink:href="#m180c04071f" x="311.176948" y="243.463948" style="stroke: #000000; stroke-linejoin: miter"/>
     <use xlink:href="#m180c04071f" x="314.951299" y="157.648287" style="stroke: #000000; stroke-linejoin: miter"/>
     <use xlink:href="#m180c04071f" x="318.725649" y="246.136052" style="stroke: #000000; stroke-linejoin: miter"/>
     <use xlink:href="#m180c04071f" x="322.5" y="240.791843" style="stroke: #000000; stroke-linejoin: miter"/>
    </g>
   </g>
   <g id="patch_3">
    <path d="M 90 320.4 
L 90 43.2 
" style="fill: none; stroke: #000000; stroke-width: 0.8; stroke-linejoin: miter; stroke-linecap: square"/>
   </g>
   <g id="patch_4">
    <path d="M 343.636364 320.4 
L 343.636364 43.2 
" style="fill: none; stroke: #000000; stroke-width: 0.8; stroke-linejoin: miter; stroke-linecap: square"/>
   </g>
   <g id="patch_5">
    <path d="M 90 320.4 
L 343.636364 320.4 
" style="fill: none; stroke: #000000; stroke-width: 0.8; stroke-linejoin: miter; stroke-linecap: square"/>
   </g>
   <g id="patch_6">
    <path d="M 90 43.2 
L 343.636364 43.2 
" style="fill: none; stroke: #000000; stroke-width: 0.8; stroke-linejoin: miter; stroke-linecap: square"/>
   </g>
   <g id="text_14">
    <!-- Frost2013a fm_API25x2_aPTT -->
    <g transform="translate(113.775994 37.2) scale(0.14 -0.14)">
     <defs>
      <path id="DejaVuSans-46" d="M 628 4666 
L 3309 4666 
L 3309 4134 
L 1259 4134 
L 1259 2759 
L 3109 2759 
L 3109 2228 
L 1259 2228 
L 1259 0 
L 628 0 
L 628 4666 
z
" transform="scale(0.015625)"/>
      <path id="DejaVuSans-72" d="M 2631 2963 
Q 2534 3019 2420 3045 
Q 2306 3072 2169 3072 
Q 1681 3072 1420 2755 
Q 1159 2438 1159 1844 
L 1159 0 
L 581 0 
L 581 3500 
L 1159 3500 
L 1159 2956 
Q 1341 3275 1631 3429 
Q 1922 3584 2338 3584 
Q 2397 3584 2469 3576 
Q 2541 3569 2628 3553 
L 2631 2963 
z
" transform="scale(0.015625)"/>
      <path id="DejaVuSans-6f" d="M 1959 3097 
Q 1497 3097 1228 2736 
Q 959 2375 959 1747 
Q 959 1119 1226 758 
Q 1494 397 1959 397 
Q 2419 397 2687 759 
Q 2956 1122 2956 1747 
Q 2956 2369 2687 2733 
Q 2419 3097 1959 3097 
z
M 1959 3584 
Q 2709 3584 3137 3096 
Q 3566 2609 3566 1747 
Q 3566 888 3137 398 
Q 2709 -91 1959 -91 
Q 1206 -91 779 398 
Q 353 888 353 1747 
Q 353 2609 779 3096 
Q 1206 3584 1959 3584 
z
" transform="scale(0.015625)"/>
      <path id="DejaVuSans-73" d="M 2834 3397 
L 2834 2853 
Q 2591 2978 2328 3040 
Q 2066 3103 1784 3103 
Q 1356 3103 1142 2972 
Q 928 2841 928 2578 
Q 928 2378 1081 2264 
Q 1234 2150 1697 2047 
L 1894 2003 
Q 2506 1872 2764 1633 
Q 3022 1394 3022 966 
Q 3022 478 2636 193 
Q 2250 -91 1575 -91 
Q 1294 -91 989 -36 
Q 684 19 347 128 
L 347 722 
Q 666 556 975 473 
Q 1284 391 1588 391 
Q 1994 391 2212 530 
Q 2431 669 2431 922 
Q 2431 1156 2273 1281 
Q 2116 1406 1581 1522 
L 1381 1569 
Q 847 1681 609 1914 
Q 372 2147 372 2553 
Q 372 3047 722 3315 
Q 1072 3584 1716 3584 
Q 2034 3584 2315 3537 
Q 2597 3491 2834 3397 
z
" transform="scale(0.015625)"/>
      <path id="DejaVuSans-20" transform="scale(0.015625)"/>
      <path id="DejaVuSans-66" d="M 2375 4863 
L 2375 4384 
L 1825 4384 
Q 1516 4384 1395 4259 
Q 1275 4134 1275 3809 
L 1275 3500 
L 2222 3500 
L 2222 3053 
L 1275 3053 
L 1275 0 
L 697 0 
L 697 3053 
L 147 3053 
L 147 3500 
L 697 3500 
L 697 3744 
Q 697 4328 969 4595 
Q 1241 4863 1831 4863 
L 2375 4863 
z
" transform="scale(0.015625)"/>
      <path id="DejaVuSans-5f" d="M 3263 -1063 
L 3263 -1509 
L -63 -1509 
L -63 -1063 
L 3263 -1063 
z
" transform="scale(0.015625)"/>
      <path id="DejaVuSans-41" d="M 2188 4044 
L 1331 1722 
L 3047 1722 
L 2188 4044 
z
M 1831 4666 
L 2547 4666 
L 4325 0 
L 3669 0 
L 3244 1197 
L 1141 1197 
L 716 0 
L 50 0 
L 1831 4666 
z
" transform="scale(0.015625)"/>
      <path id="DejaVuSans-49" d="M 628 4666 
L 1259 4666 
L 1259 0 
L 628 0 
L 628 4666 
z
" transform="scale(0.015625)"/>
      <path id="DejaVuSans-78" d="M 3513 3500 
L 2247 1797 
L 3578 0 
L 2900 0 
L 1881 1375 
L 863 0 
L 184 0 
L 1544 1831 
L 300 3500 
L 978 3500 
L 1906 2253 
L 2834 3500 
L 3513 3500 
z
" transform="scale(0.015625)"/>
     </defs>
     <use xlink:href="#DejaVuSans-46"/>
     <use xlink:href="#DejaVuSans-72" transform="translate(50.269531 0)"/>
     <use xlink:href="#DejaVuSans-6f" transform="translate(89.132812 0)"/>
     <use xlink:href="#DejaVuSans-73" transform="translate(150.314453 0)"/>
     <use xlink:href="#DejaVuSans-74" transform="translate(202.414062 0)"/>
     <use xlink:href="#DejaVuSans-32" transform="translate(241.623047 0)"/>
     <use xlink:href="#DejaVuSans-30" transform="translate(305.246094 0)"/>
     <use xlink:href="#DejaVuSans-31" transform="translate(368.869141 0)"/>
     <use xlink:href="#DejaVuSans-33" transform="translate(432.492188 0)"/>
     <use xlink:href="#DejaVuSans-61" transform="translate(496.115234 0)"/>
     <use xlink:href="#DejaVuSans-20" transform="translate(557.394531 0)"/>
     <use xlink:href="#DejaVuSans-66" transform="translate(589.181641 0)"/>
     <use xlink:href="#DejaVuSans-6d" transform="translate(624.386719 0)"/>
     <use xlink:href="#DejaVuSans-5f" transform="translate(721.798828 0)"/>
     <use xlink:href="#DejaVuSans-41" transform="translate(771.798828 0)"/>
     <use xlink:href="#DejaVuSans-50" transform="translate(840.207031 0)"/>
     <use xlink:href="#DejaVuSans-49" transform="translate(900.509766 0)"/>
     <use xlink:href="#DejaVuSans-32" transform="translate(930.001953 0)"/>
     <use xlink:href="#DejaVuSans-35" transform="translate(993.625 0)"/>
     <use xlink:href="#DejaVuSans-78" transform="translate(1057.248047 0)"/>
     <use xlink:href="#DejaVuSans-32" transform="translate(1116.427734 0)"/>
     <use xlink:href="#DejaVuSans-5f" transform="translate(1180.050781 0)"/>
     <use xlink:href="#DejaVuSans-61" transform="translate(1230.050781 0)"/>
     <use xlink:href="#DejaVuSans-50" transform="translate(1291.330078 0)"/>
     <use xlink:href="#DejaVuSans-54" transform="translate(1351.632812 0)"/>
     <use xlink:href="#DejaVuSans-54" transform="translate(1410.966797 0)"/>
    </g>
   </g>
   <g id="legend_1">
    <g id="patch_7">
     <path d="M 200.586364 80.834375 
L 336.636364 80.834375 
Q 338.636364 80.834375 338.636364 78.834375 
L 338.636364 50.2 
Q 338.636364 48.2 336.636364 48.2 
L 200.586364 48.2 
Q 198.586364 48.2 198.586364 50.2 
L 198.586364 78.834375 
Q 198.586364 80.834375 200.586364 80.834375 
z
" style="fill: #ffffff; opacity: 0.8; stroke: #cccccc; stroke-linejoin: miter"/>
    </g>
    <g id="line2d_14">
     <path d="M 202.586364 56.298437 
L 212.586364 56.298437 
L 222.586364 56.298437 
" style="fill: none; stroke: #0000ff; stroke-width: 1.5; stroke-linecap: square"/>
    </g>
    <g id="text_15">
     <!-- observable -->
     <g transform="translate(230.586364 59.798437) scale(0.1 -0.1)">
      <defs>
       <path id="DejaVuSans-62" d="M 3116 1747 
Q 3116 2381 2855 2742 
Q 2594 3103 2138 3103 
Q 1681 3103 1420 2742 
Q 1159 2381 1159 1747 
Q 1159 1113 1420 752 
Q 1681 391 2138 391 
Q 2594 391 2855 752 
Q 3116 1113 3116 1747 
z
M 1159 2969 
Q 1341 3281 1617 3432 
Q 1894 3584 2278 3584 
Q 2916 3584 3314 3078 
Q 3713 2572 3713 1747 
Q 3713 922 3314 415 
Q 2916 -91 2278 -91 
Q 1894 -91 1617 61 
Q 1341 213 1159 525 
L 1159 0 
L 581 0 
L 581 4863 
L 1159 4863 
L 1159 2969 
z
" transform="scale(0.015625)"/>
       <path id="DejaVuSans-76" d="M 191 3500 
L 800 3500 
L 1894 563 
L 2988 3500 
L 3597 3500 
L 2284 0 
L 1503 0 
L 191 3500 
z
" transform="scale(0.015625)"/>
       <path id="DejaVuSans-6c" d="M 603 4863 
L 1178 4863 
L 1178 0 
L 603 0 
L 603 4863 
z
" transform="scale(0.015625)"/>
      </defs>
      <use xlink:href="#DejaVuSans-6f"/>
      <use xlink:href="#DejaVuSans-62" transform="translate(61.181641 0)"/>
      <use xlink:href="#DejaVuSans-73" transform="translate(124.658203 0)"/>
      <use xlink:href="#DejaVuSans-65" transform="translate(176.757812 0)"/>
      <use xlink:href="#DejaVuSans-72" transform="translate(238.28125 0)"/>
      <use xlink:href="#DejaVuSans-76" transform="translate(279.394531 0)"/>
      <use xlink:href="#DejaVuSans-61" transform="translate(338.574219 0)"/>
      <use xlink:href="#DejaVuSans-62" transform="translate(399.853516 0)"/>
      <use xlink:href="#DejaVuSans-6c" transform="translate(463.330078 0)"/>
      <use xlink:href="#DejaVuSans-65" transform="translate(491.113281 0)"/>
     </g>
    </g>
    <g id="LineCollection_2">
     <path d="M 212.586364 75.976562 
L 212.586364 65.976562 
" style="fill: none; stroke: #000000; stroke-width: 1.5"/>
    </g>
    <g id="line2d_15">
     <path d="M 202.586364 70.976562 
L 222.586364 70.976562 
" style="fill: none; stroke: #000000; stroke-width: 1.5; stroke-linecap: square"/>
    </g>
    <g id="line2d_16">
     <g>
      <use xlink:href="#m180c04071f" x="212.586364" y="70.976562" style="stroke: #000000; stroke-linejoin: miter"/>
     </g>
    </g>
    <g id="text_16">
     <!-- reference_data ± SD -->
     <g transform="translate(230.586364 74.476562) scale(0.1 -0.1)">
      <defs>
       <path id="DejaVuSans-6e" d="M 3513 2113 
L 3513 0 
L 2938 0 
L 2938 2094 
Q 2938 2591 2744 2837 
Q 2550 3084 2163 3084 
Q 1697 3084 1428 2787 
Q 1159 2491 1159 1978 
L 1159 0 
L 581 0 
L 581 3500 
L 1159 3500 
L 1159 2956 
Q 1366 3272 1645 3428 
Q 1925 3584 2291 3584 
Q 2894 3584 3203 3211 
Q 3513 2838 3513 2113 
z
" transform="scale(0.015625)"/>
       <path id="DejaVuSans-63" d="M 3122 3366 
L 3122 2828 
Q 2878 2963 2633 3030 
Q 2388 3097 2138 3097 
Q 1578 3097 1268 2742 
Q 959 2388 959 1747 
Q 959 1106 1268 751 
Q 1578 397 2138 397 
Q 2388 397 2633 464 
Q 2878 531 3122 666 
L 3122 134 
Q 2881 22 2623 -34 
Q 2366 -91 2075 -91 
Q 1284 -91 818 406 
Q 353 903 353 1747 
Q 353 2603 823 3093 
Q 1294 3584 2113 3584 
Q 2378 3584 2631 3529 
Q 2884 3475 3122 3366 
z
" transform="scale(0.015625)"/>
       <path id="DejaVuSans-64" d="M 2906 2969 
L 2906 4863 
L 3481 4863 
L 3481 0 
L 2906 0 
L 2906 525 
Q 2725 213 2448 61 
Q 2172 -91 1784 -91 
Q 1150 -91 751 415 
Q 353 922 353 1747 
Q 353 2572 751 3078 
Q 1150 3584 1784 3584 
Q 2172 3584 2448 3432 
Q 2725 3281 2906 2969 
z
M 947 1747 
Q 947 1113 1208 752 
Q 1469 391 1925 391 
Q 2381 391 2643 752 
Q 2906 1113 2906 1747 
Q 2906 2381 2643 2742 
Q 2381 3103 1925 3103 
Q 1469 3103 1208 2742 
Q 947 2381 947 1747 
z
" transform="scale(0.015625)"/>
       <path id="DejaVuSans-b1" d="M 2944 4013 
L 2944 2803 
L 4684 2803 
L 4684 2272 
L 2944 2272 
L 2944 1063 
L 2419 1063 
L 2419 2272 
L 678 2272 
L 678 2803 
L 2419 2803 
L 2419 4013 
L 2944 4013 
z
M 678 531 
L 4684 531 
L 4684 0 
L 678 0 
L 678 531 
z
" transform="scale(0.015625)"/>
       <path id="DejaVuSans-53" d="M 3425 4513 
L 3425 3897 
Q 3066 4069 2747 4153 
Q 2428 4238 2131 4238 
Q 1616 4238 1336 4038 
Q 1056 3838 1056 3469 
Q 1056 3159 1242 3001 
Q 1428 2844 1947 2747 
L 2328 2669 
Q 3034 2534 3370 2195 
Q 3706 1856 3706 1288 
Q 3706 609 3251 259 
Q 2797 -91 1919 -91 
Q 1588 -91 1214 -16 
Q 841 59 441 206 
L 441 856 
Q 825 641 1194 531 
Q 1563 422 1919 422 
Q 2459 422 2753 634 
Q 3047 847 3047 1241 
Q 3047 1584 2836 1778 
Q 2625 1972 2144 2069 
L 1759 2144 
Q 1053 2284 737 2584 
Q 422 2884 422 3419 
Q 422 4038 858 4394 
Q 1294 4750 2059 4750 
Q 2388 4750 2728 4690 
Q 3069 4631 3425 4513 
z
" transform="scale(0.015625)"/>
       <path id="DejaVuSans-44" d="M 1259 4147 
L 1259 519 
L 2022 519 
Q 2988 519 3436 956 
Q 3884 1394 3884 2338 
Q 3884 3275 3436 3711 
Q 2988 4147 2022 4147 
L 1259 4147 
z
M 628 4666 
L 1925 4666 
Q 3281 4666 3915 4102 
Q 4550 3538 4550 2338 
Q 4550 1131 3912 565 
Q 3275 0 1925 0 
L 628 0 
L 628 4666 
z
" transform="scale(0.015625)"/>
      </defs>
      <use xlink:href="#DejaVuSans-72"/>
      <use xlink:href="#DejaVuSans-65" transform="translate(38.863281 0)"/>
      <use xlink:href="#DejaVuSans-66" transform="translate(100.386719 0)"/>
      <use xlink:href="#DejaVuSans-65" transform="translate(135.591797 0)"/>
      <use xlink:href="#DejaVuSans-72" transform="translate(197.115234 0)"/>
      <use xlink:href="#DejaVuSans-65" transform="translate(235.978516 0)"/>
      <use xlink:href="#DejaVuSans-6e" transform="translate(297.501953 0)"/>
      <use xlink:href="#DejaVuSans-63" transform="translate(360.880859 0)"/>
      <use xlink:href="#DejaVuSans-65" transform="translate(415.861328 0)"/>
      <use xlink:href="#DejaVuSans-5f" transform="translate(477.384766 0)"/>
      <use xlink:href="#DejaVuSans-64" transform="translate(527.384766 0)"/>
      <use xlink:href="#DejaVuSans-61" transform="translate(590.861328 0)"/>
      <use xlink:href="#DejaVuSans-74" transform="translate(652.140625 0)"/>
      <use xlink:href="#DejaVuSans-61" transform="translate(691.349609 0)"/>
      <use xlink:href="#DejaVuSans-20" transform="translate(752.628906 0)"/>
      <use xlink:href="#DejaVuSans-b1" transform="translate(784.416016 0)"/>
      <use xlink:href="#DejaVuSans-20" transform="translate(868.205078 0)"/>
      <use xlink:href="#DejaVuSans-53" transform="translate(899.992188 0)"/>
      <use xlink:href="#DejaVuSans-44" transform="translate(963.46875 0)"/>
     </g>
    </g>
   </g>
  </g>
  <g id="axes_2">
   <g id="patch_8">
    <path d="M 394.363636 320.4 
L 648 320.4 
L 648 43.2 
L 394.363636 43.2 
z
" style="fill: #ffffff"/>
   </g>
   <g id="matplotlib.axis_3">
    <g id="xtick_7">
     <g id="line2d_17">
      <g>
       <use xlink:href="#me566432331" x="415.5" y="320.4" style="stroke: #000000; stroke-width: 0.8"/>
      </g>
     </g>
     <g id="text_17">
      <!-- 0 -->
      <g transform="translate(412.31875 334.998438) scale(0.1 -0.1)">
       <use xlink:href="#DejaVuSans-30"/>
      </g>
     </g>
    </g>
    <g id="xtick_8">
     <g id="line2d_18">
      <g>
       <use xlink:href="#me566432331" x="457.437229" y="320.4" style="stroke: #000000; stroke-width: 0.8"/>
      </g>
     </g>
     <g id="text_18">
      <!-- 2000 -->
      <g transform="translate(444.712229 334.998438) scale(0.1 -0.1)">
       <use xlink:href="#DejaVuSans-32"/>
       <use xlink:href="#DejaVuSans-30" transform="translate(63.623047 0)"/>
       <use xlink:href="#DejaVuSans-30" transform="translate(127.246094 0)"/>
       <use xlink:href="#DejaVuSans-30" transform="translate(190.869141 0)"/>
      </g>
     </g>
    </g>
    <g id="xtick_9">
     <g id="line2d_19">
      <g>
       <use xlink:href="#me566432331" x="499.374459" y="320.4" style="stroke: #000000; stroke-width: 0.8"/>
      </g>
     </g>
     <g id="text_19">
      <!-- 4000 -->
      <g transform="translate(486.649459 334.998438) scale(0.1 -0.1)">
       <use xlink:href="#DejaVuSans-34"/>
       <use xlink:href="#DejaVuSans-30" transform="translate(63.623047 0)"/>
       <use xlink:href="#DejaVuSans-30" transform="translate(127.246094 0)"/>
       <use xlink:href="#DejaVuSans-30" transform="translate(190.869141 0)"/>
      </g>
     </g>
    </g>
    <g id="xtick_10">
     <g id="line2d_20">
      <g>
       <use xlink:href="#me566432331" x="541.311688" y="320.4" style="stroke: #000000; stroke-width: 0.8"/>
      </g>
     </g>
     <g id="text_20">
      <!-- 6000 -->
      <g transform="translate(528.586688 334.998438) scale(0.1 -0.1)">
       <use xlink:href="#DejaVuSans-36"/>
       <use xlink:href="#DejaVuSans-30" transform="translate(63.623047 0)"/>
       <use xlink:href="#DejaVuSans-30" transform="translate(127.246094 0)"/>
       <use xlink:href="#DejaVuSans-30" transform="translate(190.869141 0)"/>
      </g>
     </g>
    </g>
    <g id="xtick_11">
     <g id="line2d_21">
      <g>
       <use xlink:href="#me566432331" x="583.248918" y="320.4" style="stroke: #000000; stroke-width: 0.8"/>
      </g>
     </g>
     <g id="text_21">
      <!-- 8000 -->
      <g transform="translate(570.523918 334.998438) scale(0.1 -0.1)">
       <use xlink:href="#DejaVuSans-38"/>
       <use xlink:href="#DejaVuSans-30" transform="translate(63.623047 0)"/>
       <use xlink:href="#DejaVuSans-30" transform="translate(127.246094 0)"/>
       <use xlink:href="#DejaVuSans-30" transform="translate(190.869141 0)"/>
      </g>
     </g>
    </g>
    <g id="xtick_12">
     <g id="line2d_22">
      <g>
       <use xlink:href="#me566432331" x="625.186147" y="320.4" style="stroke: #000000; stroke-width: 0.8"/>
      </g>
     </g>
     <g id="text_22">
      <!-- 10000 -->
      <g transform="translate(609.279897 334.998438) scale(0.1 -0.1)">
       <use xlink:href="#DejaVuSans-31"/>
       <use xlink:href="#DejaVuSans-30" transform="translate(63.623047 0)"/>
       <use xlink:href="#DejaVuSans-30" transform="translate(127.246094 0)"/>
       <use xlink:href="#DejaVuSans-30" transform="translate(190.869141 0)"/>
       <use xlink:href="#DejaVuSans-30" transform="translate(254.492188 0)"/>
      </g>
     </g>
    </g>
    <g id="text_23">
     <!-- time -->
     <g transform="translate(507.626506 350.19625) scale(0.12 -0.12)">
      <use xlink:href="#DejaVuSans-74"/>
      <use xlink:href="#DejaVuSans-69" transform="translate(39.208984 0)"/>
      <use xlink:href="#DejaVuSans-6d" transform="translate(66.992188 0)"/>
      <use xlink:href="#DejaVuSans-65" transform="translate(164.404297 0)"/>
     </g>
    </g>
   </g>
   <g id="matplotlib.axis_4">
    <g id="ytick_6">
     <g id="line2d_23">
      <g>
       <use xlink:href="#m53b076c4a2" x="394.363636" y="304.441854" style="stroke: #000000; stroke-width: 0.8"/>
      </g>
     </g>
     <g id="text_24">
      <!-- $\mathdefault{10^{1}}$ -->
      <g transform="translate(369.763636 308.241072) scale(0.1 -0.1)">
       <use xlink:href="#DejaVuSans-31" transform="translate(0 0.684375)"/>
       <use xlink:href="#DejaVuSans-30" transform="translate(63.623047 0.684375)"/>
       <use xlink:href="#DejaVuSans-31" transform="translate(128.203125 38.965625) scale(0.7)"/>
      </g>
     </g>
    </g>
    <g id="ytick_7">
     <g id="line2d_24">
      <defs>
       <path id="m7c37d22f01" d="M 0 0 
L -2 0 
" style="stroke: #000000; stroke-width: 0.6"/>
      </defs>
      <g>
       <use xlink:href="#m7c37d22f01" x="394.363636" y="196.383988" style="stroke: #000000; stroke-width: 0.6"/>
      </g>
     </g>
     <g id="text_25">
      <!-- $\mathdefault{2\times10^{1}}$ -->
      <g transform="translate(352.763636 200.183206) scale(0.1 -0.1)">
       <defs>
        <path id="DejaVuSans-d7" d="M 4488 3438 
L 3059 2003 
L 4488 575 
L 4116 197 
L 2681 1631 
L 1247 197 
L 878 575 
L 2303 2003 
L 878 3438 
L 1247 3816 
L 2681 2381 
L 4116 3816 
L 4488 3438 
z
" transform="scale(0.015625)"/>
       </defs>
       <use xlink:href="#DejaVuSans-32" transform="translate(0 0.684375)"/>
       <use xlink:href="#DejaVuSans-d7" transform="translate(83.105469 0.684375)"/>
       <use xlink:href="#DejaVuSans-31" transform="translate(186.376953 0.684375)"/>
       <use xlink:href="#DejaVuSans-30" transform="translate(250 0.684375)"/>
       <use xlink:href="#DejaVuSans-31" transform="translate(314.580078 38.965625) scale(0.7)"/>
      </g>
     </g>
    </g>
    <g id="ytick_8">
     <g id="line2d_25">
      <g>
       <use xlink:href="#m7c37d22f01" x="394.363636" y="133.174188" style="stroke: #000000; stroke-width: 0.6"/>
      </g>
     </g>
     <g id="text_26">
      <!-- $\mathdefault{3\times10^{1}}$ -->
      <g transform="translate(352.763636 136.973407) scale(0.1 -0.1)">
       <use xlink:href="#DejaVuSans-33" transform="translate(0 0.684375)"/>
       <use xlink:href="#DejaVuSans-d7" transform="translate(83.105469 0.684375)"/>
       <use xlink:href="#DejaVuSans-31" transform="translate(186.376953 0.684375)"/>
       <use xlink:href="#DejaVuSans-30" transform="translate(250 0.684375)"/>
       <use xlink:href="#DejaVuSans-31" transform="translate(314.580078 38.965625) scale(0.7)"/>
      </g>
     </g>
    </g>
    <g id="ytick_9">
     <g id="line2d_26">
      <g>
       <use xlink:href="#m7c37d22f01" x="394.363636" y="88.326121" style="stroke: #000000; stroke-width: 0.6"/>
      </g>
     </g>
     <g id="text_27">
      <!-- $\mathdefault{4\times10^{1}}$ -->
      <g transform="translate(352.763636 92.12534) scale(0.1 -0.1)">
       <use xlink:href="#DejaVuSans-34" transform="translate(0 0.684375)"/>
       <use xlink:href="#DejaVuSans-d7" transform="translate(83.105469 0.684375)"/>
       <use xlink:href="#DejaVuSans-31" transform="translate(186.376953 0.684375)"/>
       <use xlink:href="#DejaVuSans-30" transform="translate(250 0.684375)"/>
       <use xlink:href="#DejaVuSans-31" transform="translate(314.580078 38.965625) scale(0.7)"/>
      </g>
     </g>
    </g>
    <g id="ytick_10">
     <g id="line2d_27">
      <g>
       <use xlink:href="#m7c37d22f01" x="394.363636" y="53.539258" style="stroke: #000000; stroke-width: 0.6"/>
      </g>
     </g>
    </g>
    <g id="text_28">
     <!-- aPTT -->
     <g transform="translate(346.268011 196.319062) rotate(-90) scale(0.12 -0.12)">
      <use xlink:href="#DejaVuSans-61"/>
      <use xlink:href="#DejaVuSans-50" transform="translate(61.279297 0)"/>
      <use xlink:href="#DejaVuSans-54" transform="translate(121.582031 0)"/>
      <use xlink:href="#DejaVuSans-54" transform="translate(180.916016 0)"/>
     </g>
    </g>
   </g>
   <g id="LineCollection_3">
    <path d="M 415.5 148.334213 
L 415.5 118.504928 
" clip-path="url(#pfcdf82c050)" style="fill: none; stroke: #000000; stroke-width: 1.5"/>
    <path d="M 419.274351 130.087066 
L 419.274351 112.474337 
" clip-path="url(#pfcdf82c050)" style="fill: none; stroke: #000000; stroke-width: 1.5"/>
    <path d="M 423.048701 132.707204 
L 423.048701 105.489164 
" clip-path="url(#pfcdf82c050)" style="fill: none; stroke: #000000; stroke-width: 1.5"/>
    <path d="M 426.823052 142.544062 
L 426.823052 104.362001 
" clip-path="url(#pfcdf82c050)" style="fill: none; stroke: #000000; stroke-width: 1.5"/>
    <path d="M 430.597403 145.440364 
L 430.597403 106.624535 
" clip-path="url(#pfcdf82c050)" style="fill: none; stroke: #000000; stroke-width: 1.5"/>
    <path d="M 434.371753 138.190703 
L 434.371753 96.692128 
" clip-path="url(#pfcdf82c050)" style="fill: none; stroke: #000000; stroke-width: 1.5"/>
    <path d="M 438.146104 132.655404 
L 438.146104 107.812393 
" clip-path="url(#pfcdf82c050)" style="fill: none; stroke: #000000; stroke-width: 1.5"/>
    <path d="M 441.920455 136.80164 
L 441.920455 102.131835 
" clip-path="url(#pfcdf82c050)" style="fill: none; stroke: #000000; stroke-width: 1.5"/>
    <path d="M 445.694805 139.700589 
L 445.694805 104.362001 
" clip-path="url(#pfcdf82c050)" style="fill: none; stroke: #000000; stroke-width: 1.5"/>
    <path d="M 596.668831 117.233082 
L 596.668831 94.568303 
" clip-path="url(#pfcdf82c050)" style="fill: none; stroke: #000000; stroke-width: 1.5"/>
    <path d="M 600.443182 122.286987 
L 600.443182 78.472103 
" clip-path="url(#pfcdf82c050)" style="fill: none; stroke: #000000; stroke-width: 1.5"/>
    <path d="M 604.217532 132.759022 
L 604.217532 88.326121 
" clip-path="url(#pfcdf82c050)" style="fill: none; stroke: #000000; stroke-width: 1.5"/>
    <path d="M 607.991883 127.410049 
L 607.991883 98.845288 
" clip-path="url(#pfcdf82c050)" style="fill: none; stroke: #000000; stroke-width: 1.5"/>
    <path d="M 611.766234 142.433733 
L 611.766234 95.626599 
" clip-path="url(#pfcdf82c050)" style="fill: none; stroke: #000000; stroke-width: 1.5"/>
    <path d="M 615.540584 130.036129 
L 615.540584 103.24293 
" clip-path="url(#pfcdf82c050)" style="fill: none; stroke: #000000; stroke-width: 1.5"/>
    <path d="M 619.314935 123.503209 
L 619.314935 48.206391 
" clip-path="url(#pfcdf82c050)" style="fill: none; stroke: #000000; stroke-width: 1.5"/>
    <path d="M 623.089286 138.190703 
L 623.089286 98.845288 
" clip-path="url(#pfcdf82c050)" style="fill: none; stroke: #000000; stroke-width: 1.5"/>
    <path d="M 626.863636 145.384156 
L 626.863636 89.342744 
" clip-path="url(#pfcdf82c050)" style="fill: none; stroke: #000000; stroke-width: 1.5"/>
   </g>
   <g id="line2d_28">
    <path d="M 415.5 132.707204 
L 415.507301 132.604683 
L 416.198392 109.420005 
L 416.604489 104.740672 
L 417.064014 101.97146 
L 417.526204 100.564308 
L 417.873513 100.030814 
L 418.220822 99.785954 
L 418.568131 99.74204 
L 419.089095 99.930665 
L 419.872792 100.563596 
L 421.186454 102.064813 
L 428.418533 111.034335 
L 430.597403 113.367855 
L 430.599268 113.67173 
L 430.707765 110.695462 
L 431.076002 103.823347 
L 431.462024 100.026641 
L 431.917383 97.646356 
L 432.365021 96.465503 
L 432.828132 95.921748 
L 433.291242 95.793219 
L 433.730656 95.913789 
L 434.424722 96.398795 
L 435.418445 97.434099 
L 437.176995 99.641429 
L 442.40656 106.339791 
L 445.697095 110.382726 
L 445.71017 110.179644 
L 446.138906 102.123418 
L 446.520424 98.568929 
L 446.925815 96.487766 
L 447.331207 95.35983 
L 447.673474 94.856368 
L 448.015741 94.622933 
L 448.529141 94.608579 
L 448.967352 94.806681 
L 449.768587 95.465715 
L 451.103978 96.983416 
L 454.601503 101.522624 
L 458.553646 106.466107 
L 460.792208 109.058356 
L 460.794122 109.444065 
L 460.894839 107.113732 
L 461.277443 100.996324 
L 461.69116 97.57306 
L 462.105881 95.735396 
L 462.550219 94.717754 
L 462.967893 94.289589 
L 463.385568 94.181465 
L 463.894295 94.326927 
L 464.657387 94.887717 
L 465.674842 95.968787 
L 467.709752 98.536818 
L 473.238183 105.594169 
L 475.88961 108.695238 
L 475.891557 109.41703 
L 475.998765 106.932206 
L 476.37183 100.976949 
L 476.805994 97.409793 
L 477.258731 95.500807 
L 477.695454 94.580878 
L 478.088902 94.208348 
L 478.483143 94.112612 
L 478.825958 94.183953 
L 479.460163 94.564679 
L 480.305769 95.369921 
L 481.785581 97.141645 
L 490.015128 107.51503 
L 490.987013 108.625161 
L 490.988982 109.026281 
L 491.089686 106.736514 
L 491.478406 100.6517 
L 491.844611 97.596954 
L 492.307241 95.516427 
L 492.771345 94.497218 
L 493.087563 94.164941 
L 493.63174 94.017986 
L 494.057146 94.147876 
L 494.695255 94.587834 
L 495.75877 95.679884 
L 497.702161 98.11115 
L 503.352341 105.337048 
L 506.084416 108.544442 
L 506.086364 109.3902 
L 506.195139 106.869077 
L 506.549173 101.147227 
L 506.993092 97.423497 
L 507.389705 95.666666 
L 507.792111 94.700889 
L 508.168342 94.252179 
L 508.572704 94.08515 
L 509.051517 94.16396 
L 509.679231 94.551807 
L 510.516184 95.35428 
L 511.980851 97.109118 
L 520.245981 107.524605 
L 521.181818 108.593315 
L 521.183786 109.041531 
L 521.284647 106.745227 
L 521.654056 100.87037 
L 522.084571 97.326836 
L 522.468508 95.623629 
L 522.891407 94.611136 
L 523.314307 94.141532 
L 523.740037 94.011716 
L 524.165767 94.106084 
L 524.841819 94.544261 
L 525.743222 95.438364 
L 527.546028 97.652241 
L 534.153254 106.065449 
L 536.28179 108.655369 
L 536.295424 108.44918 
L 536.701946 101.222352 
L 537.099192 97.670603 
L 537.574872 95.463012 
L 537.999635 94.480494 
L 538.494076 93.993739 
L 538.988517 93.931021 
L 539.495325 94.135673 
L 540.255536 94.743411 
L 541.522555 96.153502 
L 544.196568 99.598048 
L 548.343869 104.884527 
L 551.379012 108.467119 
L 551.384867 108.42068 
L 552.161126 97.814602 
L 552.568067 95.746622 
L 553.041758 94.50747 
L 553.378727 94.077337 
L 553.715696 93.888778 
L 554.22115 93.909608 
L 554.764942 94.195257 
L 555.580631 94.91889 
L 556.940112 96.497642 
L 566.474026 108.412736 
L 566.476009 108.764449 
L 566.576026 106.517105 
L 566.917702 101.023422 
L 567.341498 97.400023 
L 567.736528 95.586602 
L 568.169056 94.530062 
L 568.627539 94.030625 
L 568.97789 93.91991 
L 569.503416 94.035559 
L 569.973833 94.327868 
L 570.859558 95.158581 
L 572.335767 96.92045 
L 580.509078 107.237753 
L 581.571429 108.456622 
L 581.573404 108.913062 
L 581.674118 106.6324 
L 582.018465 101.074168 
L 582.452087 97.386954 
L 582.854466 95.573291 
L 583.307656 94.511207 
L 583.715913 94.079608 
L 584.079236 93.960854 
L 584.624221 94.085668 
L 585.297848 94.550149 
L 586.293044 95.569046 
L 588.220281 97.970959 
L 594.350273 105.78427 
L 596.668831 108.492517 
L 596.670815 108.758709 
L 596.770903 106.513236 
L 597.127662 100.852704 
L 597.449469 97.971214 
L 597.934984 95.584713 
L 598.299121 94.655904 
L 598.690629 94.137846 
L 599.082137 93.943648 
L 599.473645 93.965755 
L 600.060907 94.26232 
L 600.843922 94.951366 
L 602.348308 96.704226 
L 611.766234 108.470299 
L 611.768209 108.913233 
L 611.868956 106.632281 
L 612.246643 100.693962 
L 612.597293 97.697311 
L 613.01174 95.702282 
L 613.426188 94.641136 
L 613.804821 94.158513 
L 614.147639 93.982079 
L 614.661867 94.023065 
L 615.292256 94.388511 
L 616.154969 95.201704 
L 617.592823 96.915369 
L 626.357793 107.920105 
L 629.2368 111.090256 
L 632.115806 113.977137 
L 634.994813 116.574186 
L 637.87382 118.885048 
L 640.752826 120.921218 
L 643.631833 122.699795 
L 646.51084 124.241472 
L 648.670095 125.255814 
L 648.670095 125.255814 
" clip-path="url(#pfcdf82c050)" style="fill: none; stroke: #0000ff; stroke-width: 1.5; stroke-linecap: square"/>
   </g>
   <g id="line2d_29">
    <path d="M 415.5 132.707204 
L 419.274351 121.032101 
L 423.048701 118.504928 
L 426.823052 122.286987 
L 430.597403 124.827474 
L 434.371753 116.064627 
L 438.146104 119.739555 
L 441.920455 118.504928 
L 445.694805 121.032101 
L 596.668831 105.489164 
L 600.443182 98.845288 
L 604.217532 108.964874 
L 607.991883 112.474337 
L 611.766234 117.280003 
L 615.540584 116.064627 
L 619.314935 81.352283 
L 623.089286 117.280003 
L 626.863636 114.858653 
" clip-path="url(#pfcdf82c050)" style="fill: none; stroke: #000000; stroke-width: 1.5; stroke-linecap: square"/>
    <g clip-path="url(#pfcdf82c050)">
     <use xlink:href="#m180c04071f" x="415.5" y="132.707204" style="stroke: #000000; stroke-linejoin: miter"/>
     <use xlink:href="#m180c04071f" x="419.274351" y="121.032101" style="stroke: #000000; stroke-linejoin: miter"/>
     <use xlink:href="#m180c04071f" x="423.048701" y="118.504928" style="stroke: #000000; stroke-linejoin: miter"/>
     <use xlink:href="#m180c04071f" x="426.823052" y="122.286987" style="stroke: #000000; stroke-linejoin: miter"/>
     <use xlink:href="#m180c04071f" x="430.597403" y="124.827474" style="stroke: #000000; stroke-linejoin: miter"/>
     <use xlink:href="#m180c04071f" x="434.371753" y="116.064627" style="stroke: #000000; stroke-linejoin: miter"/>
     <use xlink:href="#m180c04071f" x="438.146104" y="119.739555" style="stroke: #000000; stroke-linejoin: miter"/>
     <use xlink:href="#m180c04071f" x="441.920455" y="118.504928" style="stroke: #000000; stroke-linejoin: miter"/>
     <use xlink:href="#m180c04071f" x="445.694805" y="121.032101" style="stroke: #000000; stroke-linejoin: miter"/>
     <use xlink:href="#m180c04071f" x="596.668831" y="105.489164" style="stroke: #000000; stroke-linejoin: miter"/>
     <use xlink:href="#m180c04071f" x="600.443182" y="98.845288" style="stroke: #000000; stroke-linejoin: miter"/>
     <use xlink:href="#m180c04071f" x="604.217532" y="108.964874" style="stroke: #000000; stroke-linejoin: miter"/>
     <use xlink:href="#m180c04071f" x="607.991883" y="112.474337" style="stroke: #000000; stroke-linejoin: miter"/>
     <use xlink:href="#m180c04071f" x="611.766234" y="117.280003" style="stroke: #000000; stroke-linejoin: miter"/>
     <use xlink:href="#m180c04071f" x="615.540584" y="116.064627" style="stroke: #000000; stroke-linejoin: miter"/>
     <use xlink:href="#m180c04071f" x="619.314935" y="81.352283" style="stroke: #000000; stroke-linejoin: miter"/>
     <use xlink:href="#m180c04071f" x="623.089286" y="117.280003" style="stroke: #000000; stroke-linejoin: miter"/>
     <use xlink:href="#m180c04071f" x="626.863636" y="114.858653" style="stroke: #000000; stroke-linejoin: miter"/>
    </g>
   </g>
   <g id="patch_9">
    <path d="M 394.363636 320.4 
L 394.363636 43.2 
" style="fill: none; stroke: #000000; stroke-width: 0.8; stroke-linejoin: miter; stroke-linecap: square"/>
   </g>
   <g id="patch_10">
    <path d="M 648 320.4 
L 648 43.2 
" style="fill: none; stroke: #000000; stroke-width: 0.8; stroke-linejoin: miter; stroke-linecap: square"/>
   </g>
   <g id="patch_11">
    <path d="M 394.363636 320.4 
L 648 320.4 
" style="fill: none; stroke: #000000; stroke-width: 0.8; stroke-linejoin: miter; stroke-linecap: square"/>
   </g>
   <g id="patch_12">
    <path d="M 394.363636 43.2 
L 648 43.2 
" style="fill: none; stroke: #000000; stroke-width: 0.8; stroke-linejoin: miter; stroke-linecap: square"/>
   </g>
   <g id="text_29">
    <!-- Frost2013a fm_API25x2_aPTT -->
    <g transform="translate(418.139631 37.2) scale(0.14 -0.14)">
     <use xlink:href="#DejaVuSans-46"/>
     <use xlink:href="#DejaVuSans-72" transform="translate(50.269531 0)"/>
     <use xlink:href="#DejaVuSans-6f" transform="translate(89.132812 0)"/>
     <use xlink:href="#DejaVuSans-73" transform="translate(150.314453 0)"/>
     <use xlink:href="#DejaVuSans-74" transform="translate(202.414062 0)"/>
     <use xlink:href="#DejaVuSans-32" transform="translate(241.623047 0)"/>
     <use xlink:href="#DejaVuSans-30" transform="translate(305.246094 0)"/>
     <use xlink:href="#DejaVuSans-31" transform="translate(368.869141 0)"/>
     <use xlink:href="#DejaVuSans-33" transform="translate(432.492188 0)"/>
     <use xlink:href="#DejaVuSans-61" transform="translate(496.115234 0)"/>
     <use xlink:href="#DejaVuSans-20" transform="translate(557.394531 0)"/>
     <use xlink:href="#DejaVuSans-66" transform="translate(589.181641 0)"/>
     <use xlink:href="#DejaVuSans-6d" transform="translate(624.386719 0)"/>
     <use xlink:href="#DejaVuSans-5f" transform="translate(721.798828 0)"/>
     <use xlink:href="#DejaVuSans-41" transform="translate(771.798828 0)"/>
     <use xlink:href="#DejaVuSans-50" transform="translate(840.207031 0)"/>
     <use xlink:href="#DejaVuSans-49" transform="translate(900.509766 0)"/>
     <use xlink:href="#DejaVuSans-32" transform="translate(930.001953 0)"/>
     <use xlink:href="#DejaVuSans-35" transform="translate(993.625 0)"/>
     <use xlink:href="#DejaVuSans-78" transform="translate(1057.248047 0)"/>
     <use xlink:href="#DejaVuSans-32" transform="translate(1116.427734 0)"/>
     <use xlink:href="#DejaVuSans-5f" transform="translate(1180.050781 0)"/>
     <use xlink:href="#DejaVuSans-61" transform="translate(1230.050781 0)"/>
     <use xlink:href="#DejaVuSans-50" transform="translate(1291.330078 0)"/>
     <use xlink:href="#DejaVuSans-54" transform="translate(1351.632812 0)"/>
     <use xlink:href="#DejaVuSans-54" transform="translate(1410.966797 0)"/>
    </g>
   </g>
   <g id="legend_2">
    <g id="patch_13">
     <path d="M 504.95 80.834375 
L 641 80.834375 
Q 643 80.834375 643 78.834375 
L 643 50.2 
Q 643 48.2 641 48.2 
L 504.95 48.2 
Q 502.95 48.2 502.95 50.2 
L 502.95 78.834375 
Q 502.95 80.834375 504.95 80.834375 
z
" style="fill: #ffffff; opacity: 0.8; stroke: #cccccc; stroke-linejoin: miter"/>
    </g>
    <g id="line2d_30">
     <path d="M 506.95 56.298437 
L 516.95 56.298437 
L 526.95 56.298437 
" style="fill: none; stroke: #0000ff; stroke-width: 1.5; stroke-linecap: square"/>
    </g>
    <g id="text_30">
     <!-- observable -->
     <g transform="translate(534.95 59.798437) scale(0.1 -0.1)">
      <use xlink:href="#DejaVuSans-6f"/>
      <use xlink:href="#DejaVuSans-62" transform="translate(61.181641 0)"/>
      <use xlink:href="#DejaVuSans-73" transform="translate(124.658203 0)"/>
      <use xlink:href="#DejaVuSans-65" transform="translate(176.757812 0)"/>
      <use xlink:href="#DejaVuSans-72" transform="translate(238.28125 0)"/>
      <use xlink:href="#DejaVuSans-76" transform="translate(279.394531 0)"/>
      <use xlink:href="#DejaVuSans-61" transform="translate(338.574219 0)"/>
      <use xlink:href="#DejaVuSans-62" transform="translate(399.853516 0)"/>
      <use xlink:href="#DejaVuSans-6c" transform="translate(463.330078 0)"/>
      <use xlink:href="#DejaVuSans-65" transform="translate(491.113281 0)"/>
     </g>
    </g>
    <g id="LineCollection_4">
     <path d="M 516.95 75.976562 
L 516.95 65.976562 
" style="fill: none; stroke: #000000; stroke-width: 1.5"/>
    </g>
    <g id="line2d_31">
     <path d="M 506.95 70.976562 
L 526.95 70.976562 
" style="fill: none; stroke: #000000; stroke-width: 1.5; stroke-linecap: square"/>
    </g>
    <g id="line2d_32">
     <g>
      <use xlink:href="#m180c04071f" x="516.95" y="70.976562" style="stroke: #000000; stroke-linejoin: miter"/>
     </g>
    </g>
    <g id="text_31">
     <!-- reference_data ± SD -->
     <g transform="translate(534.95 74.476562) scale(0.1 -0.1)">
      <use xlink:href="#DejaVuSans-72"/>
      <use xlink:href="#DejaVuSans-65" transform="translate(38.863281 0)"/>
      <use xlink:href="#DejaVuSans-66" transform="translate(100.386719 0)"/>
      <use xlink:href="#DejaVuSans-65" transform="translate(135.591797 0)"/>
      <use xlink:href="#DejaVuSans-72" transform="translate(197.115234 0)"/>
      <use xlink:href="#DejaVuSans-65" transform="translate(235.978516 0)"/>
      <use xlink:href="#DejaVuSans-6e" transform="translate(297.501953 0)"/>
      <use xlink:href="#DejaVuSans-63" transform="translate(360.880859 0)"/>
      <use xlink:href="#DejaVuSans-65" transform="translate(415.861328 0)"/>
      <use xlink:href="#DejaVuSans-5f" transform="translate(477.384766 0)"/>
      <use xlink:href="#DejaVuSans-64" transform="translate(527.384766 0)"/>
      <use xlink:href="#DejaVuSans-61" transform="translate(590.861328 0)"/>
      <use xlink:href="#DejaVuSans-74" transform="translate(652.140625 0)"/>
      <use xlink:href="#DejaVuSans-61" transform="translate(691.349609 0)"/>
      <use xlink:href="#DejaVuSans-20" transform="translate(752.628906 0)"/>
      <use xlink:href="#DejaVuSans-b1" transform="translate(784.416016 0)"/>
      <use xlink:href="#DejaVuSans-20" transform="translate(868.205078 0)"/>
      <use xlink:href="#DejaVuSans-53" transform="translate(899.992188 0)"/>
      <use xlink:href="#DejaVuSans-44" transform="translate(963.46875 0)"/>
     </g>
    </g>
   </g>
  </g>
 </g>
 <defs>
  <clipPath id="p06f449a487">
   <rect x="90" y="43.2" width="253.636364" height="277.2"/>
  </clipPath>
  <clipPath id="pfcdf82c050">
   <rect x="394.363636" y="43.2" width="253.636364" height="277.2"/>
  </clipPath>
 </defs>
</svg>
