<?xml version="1.0" encoding="utf-8" standalone="no"?>
<!DOCTYPE svg PUBLIC "-//W3C//DTD SVG 1.1//EN"
  "http://www.w3.org/Graphics/SVG/1.1/DTD/svg11.dtd">
<svg xmlns:xlink="http://www.w3.org/1999/xlink" width="720pt" height="360pt" viewBox="0 0 720 360" xmlns="http://www.w3.org/2000/svg" version="1.1">
 <metadata>
  <rdf:RDF xmlns:dc="http://purl.org/dc/elements/1.1/" xmlns:cc="http://creativecommons.org/ns#" xmlns:rdf="http://www.w3.org/1999/02/22-rdf-syntax-ns#">
   <cc:Work>
    <dc:type rdf:resource="http://purl.org/dc/dcmitype/StillImage"/>
    <dc:date>2026-04-17T17:37:56.625803</dc:date>
    <dc:format>image/svg+xml</dc:format>
    <dc:creator>
     <cc:Agent>
      <dc:title>Matplotlib v3.10.8, https://matplotlib.org/</dc:title>
     </cc:Agent>
    </dc:creator>
   </cc:Work>
  </rdf:RDF>
 </metadata>
 <defs>
  <style type="text/css">*{stroke-linejoin: round; stroke-linecap: butt}</style>
 </defs>
 <g id="figure_1">
  <g id="patch_1">
   <path d="M 0 360 
L 720 360 
L 720 0 
L 0 0 
z
" style="fill: #ffffff"/>
  </g>
  <g id="axes_1">
   <g id="patch_2">
    <path d="M 90 320.4 
L 343.636364 320.4 
L 343.636364 43.2 
L 90 43.2 
z
" style="fill: #ffffff"/>
   </g>
   <g id="matplotlib.axis_1">
    <g id="xtick_1">
     <g id="line2d_1">
      <defs>
       <path id="m70da3a5f0c" d="M 0 0 
L 0 3.5 
" style="stroke: #000000; stroke-width: 0.8"/>
      </defs>
      <g>
       <use xlink:href="#m70da3a5f0c" x="111.136364" y="320.4" style="stroke: #000000; stroke-width: 0.8"/>
      </g>
     </g>
     <g id="text_1">
      <!-- 0 -->
      <g transform="translate(107.955114 334.998438) scale(0.1 -0.1)">
       <defs>
        <path id="DejaVuSans-30" d="M 2034 4250 
Q 1547 4250 1301 3770 
Q 1056 3291 1056 2328 
Q 1056 1369 1301 889 
Q 1547 409 2034 409 
Q 2525 409 2770 889 
Q 3016 1369 3016 2328 
Q 3016 3291 2770 3770 
Q 2525 4250 2034 4250 
z
M 2034 4750 
Q 2819 4750 3233 4129 
Q 3647 3509 3647 2328 
Q 3647 1150 3233 529 
Q 2819 -91 2034 -91 
Q 1250 -91 836 529 
Q 422 1150 422 2328 
Q 422 3509 836 4129 
Q 1250 4750 2034 4750 
z
" transform="scale(0.015625)"/>
       </defs>
       <use xlink:href="#DejaVuSans-30"/>
      </g>
     </g>
    </g>
    <g id="xtick_2">
     <g id="line2d_2">
      <g>
       <use xlink:href="#m70da3a5f0c" x="153.073593" y="320.4" style="stroke: #000000; stroke-width: 0.8"/>
      </g>
     </g>
     <g id="text_2">
      <!-- 2000 -->
      <g transform="translate(140.348593 334.998438) scale(0.1 -0.1)">
       <defs>
        <path id="DejaVuSans-32" d="M 1228 531 
L 3431 531 
L 3431 0 
L 469 0 
L 469 531 
Q 828 903 1448 1529 
Q 2069 2156 2228 2338 
Q 2531 2678 2651 2914 
Q 2772 3150 2772 3378 
Q 2772 3750 2511 3984 
Q 2250 4219 1831 4219 
Q 1534 4219 1204 4116 
Q 875 4013 500 3803 
L 500 4441 
Q 881 4594 1212 4672 
Q 1544 4750 1819 4750 
Q 2544 4750 2975 4387 
Q 3406 4025 3406 3419 
Q 3406 3131 3298 2873 
Q 3191 2616 2906 2266 
Q 2828 2175 2409 1742 
Q 1991 1309 1228 531 
z
" transform="scale(0.015625)"/>
       </defs>
       <use xlink:href="#DejaVuSans-32"/>
       <use xlink:href="#DejaVuSans-30" transform="translate(63.623047 0)"/>
       <use xlink:href="#DejaVuSans-30" transform="translate(127.246094 0)"/>
       <use xlink:href="#DejaVuSans-30" transform="translate(190.869141 0)"/>
      </g>
     </g>
    </g>
    <g id="xtick_3">
     <g id="line2d_3">
      <g>
       <use xlink:href="#m70da3a5f0c" x="195.010823" y="320.4" style="stroke: #000000; stroke-width: 0.8"/>
      </g>
     </g>
     <g id="text_3">
      <!-- 4000 -->
      <g transform="translate(182.285823 334.998438) scale(0.1 -0.1)">
       <defs>
        <path id="DejaVuSans-34" d="M 2419 4116 
L 825 1625 
L 2419 1625 
L 2419 4116 
z
M 2253 4666 
L 3047 4666 
L 3047 1625 
L 3713 1625 
L 3713 1100 
L 3047 1100 
L 3047 0 
L 2419 0 
L 2419 1100 
L 313 1100 
L 313 1709 
L 2253 4666 
z
" transform="scale(0.015625)"/>
       </defs>
       <use xlink:href="#DejaVuSans-34"/>
       <use xlink:href="#DejaVuSans-30" transform="translate(63.623047 0)"/>
       <use xlink:href="#DejaVuSans-30" transform="translate(127.246094 0)"/>
       <use xlink:href="#DejaVuSans-30" transform="translate(190.869141 0)"/>
      </g>
     </g>
    </g>
    <g id="xtick_4">
     <g id="line2d_4">
      <g>
       <use xlink:href="#m70da3a5f0c" x="236.948052" y="320.4" style="stroke: #000000; stroke-width: 0.8"/>
      </g>
     </g>
     <g id="text_4">
      <!-- 6000 -->
      <g transform="translate(224.223052 334.998438) scale(0.1 -0.1)">
       <defs>
        <path id="DejaVuSans-36" d="M 2113 2584 
Q 1688 2584 1439 2293 
Q 1191 2003 1191 1497 
Q 1191 994 1439 701 
Q 1688 409 2113 409 
Q 2538 409 2786 701 
Q 3034 994 3034 1497 
Q 3034 2003 2786 2293 
Q 2538 2584 2113 2584 
z
M 3366 4563 
L 3366 3988 
Q 3128 4100 2886 4159 
Q 2644 4219 2406 4219 
Q 1781 4219 1451 3797 
Q 1122 3375 1075 2522 
Q 1259 2794 1537 2939 
Q 1816 3084 2150 3084 
Q 2853 3084 3261 2657 
Q 3669 2231 3669 1497 
Q 3669 778 3244 343 
Q 2819 -91 2113 -91 
Q 1303 -91 875 529 
Q 447 1150 447 2328 
Q 447 3434 972 4092 
Q 1497 4750 2381 4750 
Q 2619 4750 2861 4703 
Q 3103 4656 3366 4563 
z
" transform="scale(0.015625)"/>
       </defs>
       <use xlink:href="#DejaVuSans-36"/>
       <use xlink:href="#DejaVuSans-30" transform="translate(63.623047 0)"/>
       <use xlink:href="#DejaVuSans-30" transform="translate(127.246094 0)"/>
       <use xlink:href="#DejaVuSans-30" transform="translate(190.869141 0)"/>
      </g>
     </g>
    </g>
    <g id="xtick_5">
     <g id="line2d_5">
      <g>
       <use xlink:href="#m70da3a5f0c" x="278.885281" y="320.4" style="stroke: #000000; stroke-width: 0.8"/>
      </g>
     </g>
     <g id="text_5">
      <!-- 8000 -->
      <g transform="translate(266.160281 334.998438) scale(0.1 -0.1)">
       <defs>
        <path id="DejaVuSans-38" d="M 2034 2216 
Q 1584 2216 1326 1975 
Q 1069 1734 1069 1313 
Q 1069 891 1326 650 
Q 1584 409 2034 409 
Q 2484 409 2743 651 
Q 3003 894 3003 1313 
Q 3003 1734 2745 1975 
Q 2488 2216 2034 2216 
z
M 1403 2484 
Q 997 2584 770 2862 
Q 544 3141 544 3541 
Q 544 4100 942 4425 
Q 1341 4750 2034 4750 
Q 2731 4750 3128 4425 
Q 3525 4100 3525 3541 
Q 3525 3141 3298 2862 
Q 3072 2584 2669 2484 
Q 3125 2378 3379 2068 
Q 3634 1759 3634 1313 
Q 3634 634 3220 271 
Q 2806 -91 2034 -91 
Q 1263 -91 848 271 
Q 434 634 434 1313 
Q 434 1759 690 2068 
Q 947 2378 1403 2484 
z
M 1172 3481 
Q 1172 3119 1398 2916 
Q 1625 2713 2034 2713 
Q 2441 2713 2670 2916 
Q 2900 3119 2900 3481 
Q 2900 3844 2670 4047 
Q 2441 4250 2034 4250 
Q 1625 4250 1398 4047 
Q 1172 3844 1172 3481 
z
" transform="scale(0.015625)"/>
       </defs>
       <use xlink:href="#DejaVuSans-38"/>
       <use xlink:href="#DejaVuSans-30" transform="translate(63.623047 0)"/>
       <use xlink:href="#DejaVuSans-30" transform="translate(127.246094 0)"/>
       <use xlink:href="#DejaVuSans-30" transform="translate(190.869141 0)"/>
      </g>
     </g>
    </g>
    <g id="xtick_6">
     <g id="line2d_6">
      <g>
       <use xlink:href="#m70da3a5f0c" x="320.822511" y="320.4" style="stroke: #000000; stroke-width: 0.8"/>
      </g>
     </g>
     <g id="text_6">
      <!-- 10000 -->
      <g transform="translate(304.916261 334.998438) scale(0.1 -0.1)">
       <defs>
        <path id="DejaVuSans-31" d="M 794 531 
L 1825 531 
L 1825 4091 
L 703 3866 
L 703 4441 
L 1819 4666 
L 2450 4666 
L 2450 531 
L 3481 531 
L 3481 0 
L 794 0 
L 794 531 
z
" transform="scale(0.015625)"/>
       </defs>
       <use xlink:href="#DejaVuSans-31"/>
       <use xlink:href="#DejaVuSans-30" transform="translate(63.623047 0)"/>
       <use xlink:href="#DejaVuSans-30" transform="translate(127.246094 0)"/>
       <use xlink:href="#DejaVuSans-30" transform="translate(190.869141 0)"/>
       <use xlink:href="#DejaVuSans-30" transform="translate(254.492188 0)"/>
      </g>
     </g>
    </g>
    <g id="text_7">
     <!-- time -->
     <g transform="translate(203.262869 350.19625) scale(0.12 -0.12)">
      <defs>
       <path id="DejaVuSans-74" d="M 1172 4494 
L 1172 3500 
L 2356 3500 
L 2356 3053 
L 1172 3053 
L 1172 1153 
Q 1172 725 1289 603 
Q 1406 481 1766 481 
L 2356 481 
L 2356 0 
L 1766 0 
Q 1100 0 847 248 
Q 594 497 594 1153 
L 594 3053 
L 172 3053 
L 172 3500 
L 594 3500 
L 594 4494 
L 1172 4494 
z
" transform="scale(0.015625)"/>
       <path id="DejaVuSans-69" d="M 603 3500 
L 1178 3500 
L 1178 0 
L 603 0 
L 603 3500 
z
M 603 4863 
L 1178 4863 
L 1178 4134 
L 603 4134 
L 603 4863 
z
" transform="scale(0.015625)"/>
       <path id="DejaVuSans-6d" d="M 3328 2828 
Q 3544 3216 3844 3400 
Q 4144 3584 4550 3584 
Q 5097 3584 5394 3201 
Q 5691 2819 5691 2113 
L 5691 0 
L 5113 0 
L 5113 2094 
Q 5113 2597 4934 2840 
Q 4756 3084 4391 3084 
Q 3944 3084 3684 2787 
Q 3425 2491 3425 1978 
L 3425 0 
L 2847 0 
L 2847 2094 
Q 2847 2600 2669 2842 
Q 2491 3084 2119 3084 
Q 1678 3084 1418 2786 
Q 1159 2488 1159 1978 
L 1159 0 
L 581 0 
L 581 3500 
L 1159 3500 
L 1159 2956 
Q 1356 3278 1631 3431 
Q 1906 3584 2284 3584 
Q 2666 3584 2933 3390 
Q 3200 3197 3328 2828 
z
" transform="scale(0.015625)"/>
       <path id="DejaVuSans-65" d="M 3597 1894 
L 3597 1613 
L 953 1613 
Q 991 1019 1311 708 
Q 1631 397 2203 397 
Q 2534 397 2845 478 
Q 3156 559 3463 722 
L 3463 178 
Q 3153 47 2828 -22 
Q 2503 -91 2169 -91 
Q 1331 -91 842 396 
Q 353 884 353 1716 
Q 353 2575 817 3079 
Q 1281 3584 2069 3584 
Q 2775 3584 3186 3129 
Q 3597 2675 3597 1894 
z
M 3022 2063 
Q 3016 2534 2758 2815 
Q 2500 3097 2075 3097 
Q 1594 3097 1305 2825 
Q 1016 2553 972 2059 
L 3022 2063 
z
" transform="scale(0.015625)"/>
      </defs>
      <use xlink:href="#DejaVuSans-74"/>
      <use xlink:href="#DejaVuSans-69" transform="translate(39.208984 0)"/>
      <use xlink:href="#DejaVuSans-6d" transform="translate(66.992188 0)"/>
      <use xlink:href="#DejaVuSans-65" transform="translate(164.404297 0)"/>
     </g>
    </g>
   </g>
   <g id="matplotlib.axis_2">
    <g id="ytick_1">
     <g id="line2d_7">
      <defs>
       <path id="m1e51740807" d="M 0 0 
L -3.5 0 
" style="stroke: #000000; stroke-width: 0.8"/>
      </defs>
      <g>
       <use xlink:href="#m1e51740807" x="90" y="301.338462" style="stroke: #000000; stroke-width: 0.8"/>
      </g>
     </g>
     <g id="text_8">
      <!-- 1.2 -->
      <g transform="translate(67.096875 305.13768) scale(0.1 -0.1)">
       <defs>
        <path id="DejaVuSans-2e" d="M 684 794 
L 1344 794 
L 1344 0 
L 684 0 
L 684 794 
z
" transform="scale(0.015625)"/>
       </defs>
       <use xlink:href="#DejaVuSans-31"/>
       <use xlink:href="#DejaVuSans-2e" transform="translate(63.623047 0)"/>
       <use xlink:href="#DejaVuSans-32" transform="translate(95.410156 0)"/>
      </g>
     </g>
    </g>
    <g id="ytick_2">
     <g id="line2d_8">
      <g>
       <use xlink:href="#m1e51740807" x="90" y="258.261538" style="stroke: #000000; stroke-width: 0.8"/>
      </g>
     </g>
     <g id="text_9">
      <!-- 1.4 -->
      <g transform="translate(67.096875 262.060757) scale(0.1 -0.1)">
       <use xlink:href="#DejaVuSans-31"/>
       <use xlink:href="#DejaVuSans-2e" transform="translate(63.623047 0)"/>
       <use xlink:href="#DejaVuSans-34" transform="translate(95.410156 0)"/>
      </g>
     </g>
    </g>
    <g id="ytick_3">
     <g id="line2d_9">
      <g>
       <use xlink:href="#m1e51740807" x="90" y="215.184615" style="stroke: #000000; stroke-width: 0.8"/>
      </g>
     </g>
     <g id="text_10">
      <!-- 1.6 -->
      <g transform="translate(67.096875 218.983834) scale(0.1 -0.1)">
       <use xlink:href="#DejaVuSans-31"/>
       <use xlink:href="#DejaVuSans-2e" transform="translate(63.623047 0)"/>
       <use xlink:href="#DejaVuSans-36" transform="translate(95.410156 0)"/>
      </g>
     </g>
    </g>
    <g id="ytick_4">
     <g id="line2d_10">
      <g>
       <use xlink:href="#m1e51740807" x="90" y="172.107692" style="stroke: #000000; stroke-width: 0.8"/>
      </g>
     </g>
     <g id="text_11">
      <!-- 1.8 -->
      <g transform="translate(67.096875 175.906911) scale(0.1 -0.1)">
       <use xlink:href="#DejaVuSans-31"/>
       <use xlink:href="#DejaVuSans-2e" transform="translate(63.623047 0)"/>
       <use xlink:href="#DejaVuSans-38" transform="translate(95.410156 0)"/>
      </g>
     </g>
    </g>
    <g id="ytick_5">
     <g id="line2d_11">
      <g>
       <use xlink:href="#m1e51740807" x="90" y="129.030769" style="stroke: #000000; stroke-width: 0.8"/>
      </g>
     </g>
     <g id="text_12">
      <!-- 2.0 -->
      <g transform="translate(67.096875 132.829988) scale(0.1 -0.1)">
       <use xlink:href="#DejaVuSans-32"/>
       <use xlink:href="#DejaVuSans-2e" transform="translate(63.623047 0)"/>
       <use xlink:href="#DejaVuSans-30" transform="translate(95.410156 0)"/>
      </g>
     </g>
    </g>
    <g id="ytick_6">
     <g id="line2d_12">
      <g>
       <use xlink:href="#m1e51740807" x="90" y="85.953846" style="stroke: #000000; stroke-width: 0.8"/>
      </g>
     </g>
     <g id="text_13">
      <!-- 2.2 -->
      <g transform="translate(67.096875 89.753065) scale(0.1 -0.1)">
       <use xlink:href="#DejaVuSans-32"/>
       <use xlink:href="#DejaVuSans-2e" transform="translate(63.623047 0)"/>
       <use xlink:href="#DejaVuSans-32" transform="translate(95.410156 0)"/>
      </g>
     </g>
    </g>
    <g id="text_14">
     <!-- INR -->
     <g transform="translate(60.60125 192.227812) rotate(-90) scale(0.12 -0.12)">
      <defs>
       <path id="DejaVuSans-49" d="M 628 4666 
L 1259 4666 
L 1259 0 
L 628 0 
L 628 4666 
z
" transform="scale(0.015625)"/>
       <path id="DejaVuSans-4e" d="M 628 4666 
L 1478 4666 
L 3547 763 
L 3547 4666 
L 4159 4666 
L 4159 0 
L 3309 0 
L 1241 3903 
L 1241 0 
L 628 0 
L 628 4666 
z
" transform="scale(0.015625)"/>
       <path id="DejaVuSans-52" d="M 2841 2188 
Q 3044 2119 3236 1894 
Q 3428 1669 3622 1275 
L 4263 0 
L 3584 0 
L 2988 1197 
Q 2756 1666 2539 1819 
Q 2322 1972 1947 1972 
L 1259 1972 
L 1259 0 
L 628 0 
L 628 4666 
L 2053 4666 
Q 2853 4666 3247 4331 
Q 3641 3997 3641 3322 
Q 3641 2881 3436 2590 
Q 3231 2300 2841 2188 
z
M 1259 4147 
L 1259 2491 
L 2053 2491 
Q 2509 2491 2742 2702 
Q 2975 2913 2975 3322 
Q 2975 3731 2742 3939 
Q 2509 4147 2053 4147 
L 1259 4147 
z
" transform="scale(0.015625)"/>
      </defs>
      <use xlink:href="#DejaVuSans-49"/>
      <use xlink:href="#DejaVuSans-4e" transform="translate(29.492188 0)"/>
      <use xlink:href="#DejaVuSans-52" transform="translate(104.296875 0)"/>
     </g>
    </g>
   </g>
   <g id="LineCollection_1">
    <path d="M 111.136364 307.8 
L 111.136364 303.492308 
" clip-path="url(#pd82eba9cd1)" style="fill: none; stroke: #000000; stroke-width: 1.5"/>
    <path d="M 114.910714 253.953846 
L 114.910714 215.184615 
" clip-path="url(#pd82eba9cd1)" style="fill: none; stroke: #000000; stroke-width: 1.5"/>
    <path d="M 118.685065 290.569231 
L 118.685065 238.876923 
" clip-path="url(#pd82eba9cd1)" style="fill: none; stroke: #000000; stroke-width: 1.5"/>
    <path d="M 122.459416 294.876923 
L 122.459416 290.569231 
" clip-path="url(#pd82eba9cd1)" style="fill: none; stroke: #000000; stroke-width: 1.5"/>
    <path d="M 126.233766 307.8 
L 126.233766 286.261538 
" clip-path="url(#pd82eba9cd1)" style="fill: none; stroke: #000000; stroke-width: 1.5"/>
    <path d="M 130.008117 266.876923 
L 130.008117 202.261538 
" clip-path="url(#pd82eba9cd1)" style="fill: none; stroke: #000000; stroke-width: 1.5"/>
    <path d="M 133.782468 286.261538 
L 133.782468 247.492308 
" clip-path="url(#pd82eba9cd1)" style="fill: none; stroke: #000000; stroke-width: 1.5"/>
    <path d="M 137.556818 290.569231 
L 137.556818 251.8 
" clip-path="url(#pd82eba9cd1)" style="fill: none; stroke: #000000; stroke-width: 1.5"/>
    <path d="M 141.331169 288.415385 
L 141.331169 266.876923 
" clip-path="url(#pd82eba9cd1)" style="fill: none; stroke: #000000; stroke-width: 1.5"/>
    <path d="M 292.305195 277.646154 
L 292.305195 238.876923 
" clip-path="url(#pd82eba9cd1)" style="fill: none; stroke: #000000; stroke-width: 1.5"/>
    <path d="M 296.079545 236.723077 
L 296.079545 107.492308 
" clip-path="url(#pd82eba9cd1)" style="fill: none; stroke: #000000; stroke-width: 1.5"/>
    <path d="M 299.853896 247.492308 
L 299.853896 113.953846 
" clip-path="url(#pd82eba9cd1)" style="fill: none; stroke: #000000; stroke-width: 1.5"/>
    <path d="M 303.628247 277.646154 
L 303.628247 187.184615 
" clip-path="url(#pd82eba9cd1)" style="fill: none; stroke: #000000; stroke-width: 1.5"/>
    <path d="M 307.402597 284.107692 
L 307.402597 232.415385 
" clip-path="url(#pd82eba9cd1)" style="fill: none; stroke: #000000; stroke-width: 1.5"/>
    <path d="M 311.176948 247.492308 
L 311.176948 165.646154 
" clip-path="url(#pd82eba9cd1)" style="fill: none; stroke: #000000; stroke-width: 1.5"/>
    <path d="M 314.951299 253.953846 
L 314.951299 55.8 
" clip-path="url(#pd82eba9cd1)" style="fill: none; stroke: #000000; stroke-width: 1.5"/>
    <path d="M 318.725649 279.8 
L 318.725649 215.184615 
" clip-path="url(#pd82eba9cd1)" style="fill: none; stroke: #000000; stroke-width: 1.5"/>
    <path d="M 322.5 288.415385 
L 322.5 219.492308 
" clip-path="url(#pd82eba9cd1)" style="fill: none; stroke: #000000; stroke-width: 1.5"/>
   </g>
   <g id="line2d_13">
    <path d="M 111.136364 305.646154 
L 111.141627 305.551023 
L 111.217107 294.945026 
L 111.573239 259.728379 
L 111.979314 238.434295 
L 112.354135 227.355604 
L 112.812989 219.715835 
L 113.16011 216.510453 
L 113.50723 214.710602 
L 113.854351 213.878003 
L 114.201472 213.724756 
L 114.548593 214.054882 
L 115.069274 215.16807 
L 115.767998 217.379046 
L 117.080906 222.534425 
L 120.973586 238.406509 
L 122.809506 245.129532 
L 125.280579 253.264111 
L 126.233766 256.125613 
L 126.235632 256.959289 
L 126.34418 248.32513 
L 126.712405 227.16336 
L 127.163143 213.173255 
L 127.652065 205.36505 
L 128.002084 202.39154 
L 128.310987 200.91148 
L 128.619889 200.187731 
L 128.928791 200.015646 
L 129.083242 200.089685 
L 129.368214 200.446795 
L 129.857746 201.562764 
L 130.471427 203.549513 
L 131.749135 208.709829 
L 137.298407 232.282303 
L 139.795963 241.533463 
L 141.331169 246.731989 
L 141.333032 247.443595 
L 141.442195 239.566838 
L 141.839061 219.181902 
L 142.257836 207.518894 
L 142.663159 201.246453 
L 142.96715 198.479838 
L 143.309513 196.669656 
L 143.651875 195.826164 
L 143.994237 195.663185 
L 144.336599 195.986699 
L 144.870443 197.156136 
L 145.671209 199.829432 
L 147.005819 205.386733 
L 151.887631 226.582895 
L 154.185497 235.524063 
L 156.428571 243.475027 
L 156.430485 244.616319 
L 156.531202 237.529894 
L 156.91372 217.928098 
L 157.327339 206.280174 
L 157.74196 199.81237 
L 158.186178 196.163352 
L 158.603734 194.613018 
L 158.882104 194.250015 
L 159.021289 194.219492 
L 159.275638 194.372861 
L 159.784336 195.294701 
L 160.547383 197.652235 
L 161.819128 202.807132 
L 167.689589 228.190496 
L 170.056573 237.209109 
L 171.525974 242.373825 
L 171.52792 244.544293 
L 171.634998 236.986078 
L 172.007999 217.872685 
L 172.439491 205.769337 
L 172.882453 199.108934 
L 173.316153 195.749495 
L 173.718345 194.332478 
L 174.002289 193.99091 
L 174.286233 194.042751 
L 174.653228 194.542604 
L 175.103275 195.630032 
L 175.778344 197.885679 
L 177.128484 203.478034 
L 182.667809 227.477432 
L 185.393969 237.855956 
L 186.623377 242.170382 
L 186.625341 243.557859 
L 186.725931 236.547272 
L 187.114552 216.902811 
L 187.557299 204.882356 
L 187.942711 199.111005 
L 188.406344 195.432925 
L 188.722349 194.219981 
L 189.053502 193.70316 
L 189.266058 193.675345 
L 189.478614 193.832953 
L 189.903726 194.575678 
L 190.541394 196.418977 
L 191.604174 200.52773 
L 194.000141 211.16057 
L 196.862197 223.551114 
L 199.507094 234.005653 
L 201.720779 241.95264 
L 201.722727 244.455474 
L 201.831414 236.781778 
L 202.185765 218.421575 
L 202.631155 205.725875 
L 203.035192 199.464894 
L 203.440343 196.034511 
L 203.845493 194.374819 
L 204.198256 193.87976 
L 204.45354 193.912581 
L 204.708825 194.193422 
L 205.091752 194.967098 
L 205.681938 196.731356 
L 206.718235 200.754977 
L 209.173853 211.651043 
L 212.148349 224.472379 
L 214.704849 234.514741 
L 216.818182 242.073299 
L 216.82016 242.848527 
L 216.920758 235.910618 
L 217.291629 217.114191 
L 217.725931 205.062357 
L 218.190964 198.261455 
L 218.608805 195.151079 
L 218.901436 194.035452 
L 219.152424 193.571219 
L 219.403413 193.454697 
L 219.654401 193.610313 
L 220.049734 194.271984 
L 220.642734 195.921758 
L 221.598223 199.51185 
L 223.741316 208.951398 
L 227.071501 223.447622 
L 229.499855 233.088856 
L 231.917581 241.862135 
L 231.922101 241.789226 
L 232.047651 233.099422 
L 232.447447 214.403107 
L 232.884941 203.400087 
L 233.286498 197.869834 
L 233.721576 194.709659 
L 234.056265 193.552927 
L 234.390953 193.144384 
L 234.558298 193.151436 
L 234.725642 193.27166 
L 235.261661 194.240714 
L 235.79768 195.822632 
L 236.869717 199.956019 
L 239.281802 210.670854 
L 242.271667 223.615774 
L 244.548355 232.659367 
L 247.014982 241.929864 
L 247.025625 241.544517 
L 247.552753 214.147171 
L 248.002654 203.027739 
L 248.409801 197.594007 
L 248.848509 194.544777 
L 249.185431 193.457167 
L 249.522353 193.104662 
L 249.859274 193.278171 
L 250.403448 194.317944 
L 251.219709 196.936838 
L 252.580144 202.566404 
L 257.925279 225.860336 
L 260.469887 235.711719 
L 262.11039 241.547515 
L 262.112371 242.635455 
L 262.212566 235.729579 
L 262.622675 215.509048 
L 263.038133 204.484768 
L 263.469911 198.221491 
L 263.901689 194.97479 
L 264.253762 193.71685 
L 264.605835 193.292276 
L 264.781871 193.31205 
L 265.133944 193.701096 
L 265.601279 194.748428 
L 266.475174 197.690072 
L 267.931666 203.841023 
L 272.628951 224.388868 
L 275.305402 234.871173 
L 277.207792 241.668459 
L 277.209775 242.594101 
L 277.309949 235.698202 
L 277.656682 217.843572 
L 278.125536 204.681482 
L 278.516247 198.780679 
L 278.977654 195.096465 
L 279.285259 193.892554 
L 279.592864 193.366729 
L 279.746666 193.299303 
L 279.978477 193.393893 
L 280.492108 194.240779 
L 281.13391 196.111513 
L 281.989646 199.371621 
L 284.13897 208.842729 
L 287.362958 222.901998 
L 289.978119 233.294683 
L 292.305195 241.689808 
L 292.307163 243.37796 
L 292.408172 236.34161 
L 292.755984 218.26734 
L 293.213539 205.230348 
L 293.594835 199.295368 
L 294.048115 195.49816 
L 294.350301 194.220136 
L 294.652488 193.623737 
L 294.803581 193.522645 
L 295.033613 193.57021 
L 295.54561 194.338659 
L 296.185294 196.145175 
L 297.214958 200.084268 
L 299.439465 209.930414 
L 302.682855 223.989666 
L 305.34934 234.478984 
L 307.402597 241.832956 
L 307.404562 243.555227 
L 307.50558 236.504086 
L 307.883933 217.226998 
L 308.336295 204.83142 
L 308.750125 198.740255 
L 309.163956 195.481604 
L 309.438749 194.329136 
L 309.78142 193.67181 
L 309.952756 193.591261 
L 310.295427 193.805421 
L 310.638098 194.402352 
L 311.211743 195.985421 
L 312.072209 199.167661 
L 313.793142 206.654529 
L 317.419475 222.557531 
L 320.082986 233.17285 
L 322.678119 242.505276 
L 324.829334 249.495999 
L 326.980549 255.83772 
L 329.131765 261.563584 
L 331.28298 266.711579 
L 333.434195 271.322473 
L 335.58541 275.438224 
L 337.736625 279.100745 
L 339.88784 282.350977 
L 342.039055 285.228213 
L 344.190271 287.769625 
L 344.190271 287.769625 
" clip-path="url(#pd82eba9cd1)" style="fill: none; stroke: #0000ff; stroke-width: 1.5; stroke-linecap: square"/>
   </g>
   <g id="line2d_14">
    <path d="M 111.136364 305.646154 
L 114.910714 234.569231 
L 118.685065 264.723077 
L 122.459416 292.723077 
L 126.233766 297.030769 
L 130.008117 234.569231 
L 133.782468 266.876923 
L 137.556818 271.184615 
L 141.331169 277.646154 
L 292.305195 258.261538 
L 296.079545 172.107692 
L 299.853896 180.723077 
L 303.628247 232.415385 
L 307.402597 258.261538 
L 311.176948 206.569231 
L 314.951299 154.876923 
L 318.725649 247.492308 
L 322.5 253.953846 
" clip-path="url(#pd82eba9cd1)" style="fill: none; stroke: #000000; stroke-width: 1.5; stroke-linecap: square"/>
    <defs>
     <path id="m22e4f5d18c" d="M -5 5 
L 5 5 
L 5 -5 
L -5 -5 
z
" style="stroke: #000000; stroke-linejoin: miter"/>
    </defs>
    <g clip-path="url(#pd82eba9cd1)">
     <use xlink:href="#m22e4f5d18c" x="111.136364" y="305.646154" style="stroke: #000000; stroke-linejoin: miter"/>
     <use xlink:href="#m22e4f5d18c" x="114.910714" y="234.569231" style="stroke: #000000; stroke-linejoin: miter"/>
     <use xlink:href="#m22e4f5d18c" x="118.685065" y="264.723077" style="stroke: #000000; stroke-linejoin: miter"/>
     <use xlink:href="#m22e4f5d18c" x="122.459416" y="292.723077" style="stroke: #000000; stroke-linejoin: miter"/>
     <use xlink:href="#m22e4f5d18c" x="126.233766" y="297.030769" style="stroke: #000000; stroke-linejoin: miter"/>
     <use xlink:href="#m22e4f5d18c" x="130.008117" y="234.569231" style="stroke: #000000; stroke-linejoin: miter"/>
     <use xlink:href="#m22e4f5d18c" x="133.782468" y="266.876923" style="stroke: #000000; stroke-linejoin: miter"/>
     <use xlink:href="#m22e4f5d18c" x="137.556818" y="271.184615" style="stroke: #000000; stroke-linejoin: miter"/>
     <use xlink:href="#m22e4f5d18c" x="141.331169" y="277.646154" style="stroke: #000000; stroke-linejoin: miter"/>
     <use xlink:href="#m22e4f5d18c" x="292.305195" y="258.261538" style="stroke: #000000; stroke-linejoin: miter"/>
     <use xlink:href="#m22e4f5d18c" x="296.079545" y="172.107692" style="stroke: #000000; stroke-linejoin: miter"/>
     <use xlink:href="#m22e4f5d18c" x="299.853896" y="180.723077" style="stroke: #000000; stroke-linejoin: miter"/>
     <use xlink:href="#m22e4f5d18c" x="303.628247" y="232.415385" style="stroke: #000000; stroke-linejoin: miter"/>
     <use xlink:href="#m22e4f5d18c" x="307.402597" y="258.261538" style="stroke: #000000; stroke-linejoin: miter"/>
     <use xlink:href="#m22e4f5d18c" x="311.176948" y="206.569231" style="stroke: #000000; stroke-linejoin: miter"/>
     <use xlink:href="#m22e4f5d18c" x="314.951299" y="154.876923" style="stroke: #000000; stroke-linejoin: miter"/>
     <use xlink:href="#m22e4f5d18c" x="318.725649" y="247.492308" style="stroke: #000000; stroke-linejoin: miter"/>
     <use xlink:href="#m22e4f5d18c" x="322.5" y="253.953846" style="stroke: #000000; stroke-linejoin: miter"/>
    </g>
   </g>
   <g id="patch_3">
    <path d="M 90 320.4 
L 90 43.2 
" style="fill: none; stroke: #000000; stroke-width: 0.8; stroke-linejoin: miter; stroke-linecap: square"/>
   </g>
   <g id="patch_4">
    <path d="M 343.636364 320.4 
L 343.636364 43.2 
" style="fill: none; stroke: #000000; stroke-width: 0.8; stroke-linejoin: miter; stroke-linecap: square"/>
   </g>
   <g id="patch_5">
    <path d="M 90 320.4 
L 343.636364 320.4 
" style="fill: none; stroke: #000000; stroke-width: 0.8; stroke-linejoin: miter; stroke-linecap: square"/>
   </g>
   <g id="patch_6">
    <path d="M 90 43.2 
L 343.636364 43.2 
" style="fill: none; stroke: #000000; stroke-width: 0.8; stroke-linejoin: miter; stroke-linecap: square"/>
   </g>
   <g id="text_15">
    <!-- Frost2013a fm_API25x2_INR -->
    <g transform="translate(118.549119 37.2) scale(0.14 -0.14)">
     <defs>
      <path id="DejaVuSans-46" d="M 628 4666 
L 3309 4666 
L 3309 4134 
L 1259 4134 
L 1259 2759 
L 3109 2759 
L 3109 2228 
L 1259 2228 
L 1259 0 
L 628 0 
L 628 4666 
z
" transform="scale(0.015625)"/>
      <path id="DejaVuSans-72" d="M 2631 2963 
Q 2534 3019 2420 3045 
Q 2306 3072 2169 3072 
Q 1681 3072 1420 2755 
Q 1159 2438 1159 1844 
L 1159 0 
L 581 0 
L 581 3500 
L 1159 3500 
L 1159 2956 
Q 1341 3275 1631 3429 
Q 1922 3584 2338 3584 
Q 2397 3584 2469 3576 
Q 2541 3569 2628 3553 
L 2631 2963 
z
" transform="scale(0.015625)"/>
      <path id="DejaVuSans-6f" d="M 1959 3097 
Q 1497 3097 1228 2736 
Q 959 2375 959 1747 
Q 959 1119 1226 758 
Q 1494 397 1959 397 
Q 2419 397 2687 759 
Q 2956 1122 2956 1747 
Q 2956 2369 2687 2733 
Q 2419 3097 1959 3097 
z
M 1959 3584 
Q 2709 3584 3137 3096 
Q 3566 2609 3566 1747 
Q 3566 888 3137 398 
Q 2709 -91 1959 -91 
Q 1206 -91 779 398 
Q 353 888 353 1747 
Q 353 2609 779 3096 
Q 1206 3584 1959 3584 
z
" transform="scale(0.015625)"/>
      <path id="DejaVuSans-73" d="M 2834 3397 
L 2834 2853 
Q 2591 2978 2328 3040 
Q 2066 3103 1784 3103 
Q 1356 3103 1142 2972 
Q 928 2841 928 2578 
Q 928 2378 1081 2264 
Q 1234 2150 1697 2047 
L 1894 2003 
Q 2506 1872 2764 1633 
Q 3022 1394 3022 966 
Q 3022 478 2636 193 
Q 2250 -91 1575 -91 
Q 1294 -91 989 -36 
Q 684 19 347 128 
L 347 722 
Q 666 556 975 473 
Q 1284 391 1588 391 
Q 1994 391 2212 530 
Q 2431 669 2431 922 
Q 2431 1156 2273 1281 
Q 2116 1406 1581 1522 
L 1381 1569 
Q 847 1681 609 1914 
Q 372 2147 372 2553 
Q 372 3047 722 3315 
Q 1072 3584 1716 3584 
Q 2034 3584 2315 3537 
Q 2597 3491 2834 3397 
z
" transform="scale(0.015625)"/>
      <path id="DejaVuSans-33" d="M 2597 2516 
Q 3050 2419 3304 2112 
Q 3559 1806 3559 1356 
Q 3559 666 3084 287 
Q 2609 -91 1734 -91 
Q 1441 -91 1130 -33 
Q 819 25 488 141 
L 488 750 
Q 750 597 1062 519 
Q 1375 441 1716 441 
Q 2309 441 2620 675 
Q 2931 909 2931 1356 
Q 2931 1769 2642 2001 
Q 2353 2234 1838 2234 
L 1294 2234 
L 1294 2753 
L 1863 2753 
Q 2328 2753 2575 2939 
Q 2822 3125 2822 3475 
Q 2822 3834 2567 4026 
Q 2313 4219 1838 4219 
Q 1578 4219 1281 4162 
Q 984 4106 628 3988 
L 628 4550 
Q 988 4650 1302 4700 
Q 1616 4750 1894 4750 
Q 2613 4750 3031 4423 
Q 3450 4097 3450 3541 
Q 3450 3153 3228 2886 
Q 3006 2619 2597 2516 
z
" transform="scale(0.015625)"/>
      <path id="DejaVuSans-61" d="M 2194 1759 
Q 1497 1759 1228 1600 
Q 959 1441 959 1056 
Q 959 750 1161 570 
Q 1363 391 1709 391 
Q 2188 391 2477 730 
Q 2766 1069 2766 1631 
L 2766 1759 
L 2194 1759 
z
M 3341 1997 
L 3341 0 
L 2766 0 
L 2766 531 
Q 2569 213 2275 61 
Q 1981 -91 1556 -91 
Q 1019 -91 701 211 
Q 384 513 384 1019 
Q 384 1609 779 1909 
Q 1175 2209 1959 2209 
L 2766 2209 
L 2766 2266 
Q 2766 2663 2505 2880 
Q 2244 3097 1772 3097 
Q 1472 3097 1187 3025 
Q 903 2953 641 2809 
L 641 3341 
Q 956 3463 1253 3523 
Q 1550 3584 1831 3584 
Q 2591 3584 2966 3190 
Q 3341 2797 3341 1997 
z
" transform="scale(0.015625)"/>
      <path id="DejaVuSans-20" transform="scale(0.015625)"/>
      <path id="DejaVuSans-66" d="M 2375 4863 
L 2375 4384 
L 1825 4384 
Q 1516 4384 1395 4259 
Q 1275 4134 1275 3809 
L 1275 3500 
L 2222 3500 
L 2222 3053 
L 1275 3053 
L 1275 0 
L 697 0 
L 697 3053 
L 147 3053 
L 147 3500 
L 697 3500 
L 697 3744 
Q 697 4328 969 4595 
Q 1241 4863 1831 4863 
L 2375 4863 
z
" transform="scale(0.015625)"/>
      <path id="DejaVuSans-5f" d="M 3263 -1063 
L 3263 -1509 
L -63 -1509 
L -63 -1063 
L 3263 -1063 
z
" transform="scale(0.015625)"/>
      <path id="DejaVuSans-41" d="M 2188 4044 
L 1331 1722 
L 3047 1722 
L 2188 4044 
z
M 1831 4666 
L 2547 4666 
L 4325 0 
L 3669 0 
L 3244 1197 
L 1141 1197 
L 716 0 
L 50 0 
L 1831 4666 
z
" transform="scale(0.015625)"/>
      <path id="DejaVuSans-50" d="M 1259 4147 
L 1259 2394 
L 2053 2394 
Q 2494 2394 2734 2622 
Q 2975 2850 2975 3272 
Q 2975 3691 2734 3919 
Q 2494 4147 2053 4147 
L 1259 4147 
z
M 628 4666 
L 2053 4666 
Q 2838 4666 3239 4311 
Q 3641 3956 3641 3272 
Q 3641 2581 3239 2228 
Q 2838 1875 2053 1875 
L 1259 1875 
L 1259 0 
L 628 0 
L 628 4666 
z
" transform="scale(0.015625)"/>
      <path id="DejaVuSans-35" d="M 691 4666 
L 3169 4666 
L 3169 4134 
L 1269 4134 
L 1269 2991 
Q 1406 3038 1543 3061 
Q 1681 3084 1819 3084 
Q 2600 3084 3056 2656 
Q 3513 2228 3513 1497 
Q 3513 744 3044 326 
Q 2575 -91 1722 -91 
Q 1428 -91 1123 -41 
Q 819 9 494 109 
L 494 744 
Q 775 591 1075 516 
Q 1375 441 1709 441 
Q 2250 441 2565 725 
Q 2881 1009 2881 1497 
Q 2881 1984 2565 2268 
Q 2250 2553 1709 2553 
Q 1456 2553 1204 2497 
Q 953 2441 691 2322 
L 691 4666 
z
" transform="scale(0.015625)"/>
      <path id="DejaVuSans-78" d="M 3513 3500 
L 2247 1797 
L 3578 0 
L 2900 0 
L 1881 1375 
L 863 0 
L 184 0 
L 1544 1831 
L 300 3500 
L 978 3500 
L 1906 2253 
L 2834 3500 
L 3513 3500 
z
" transform="scale(0.015625)"/>
     </defs>
     <use xlink:href="#DejaVuSans-46"/>
     <use xlink:href="#DejaVuSans-72" transform="translate(50.269531 0)"/>
     <use xlink:href="#DejaVuSans-6f" transform="translate(89.132812 0)"/>
     <use xlink:href="#DejaVuSans-73" transform="translate(150.314453 0)"/>
     <use xlink:href="#DejaVuSans-74" transform="translate(202.414062 0)"/>
     <use xlink:href="#DejaVuSans-32" transform="translate(241.623047 0)"/>
     <use xlink:href="#DejaVuSans-30" transform="translate(305.246094 0)"/>
     <use xlink:href="#DejaVuSans-31" transform="translate(368.869141 0)"/>
     <use xlink:href="#DejaVuSans-33" transform="translate(432.492188 0)"/>
     <use xlink:href="#DejaVuSans-61" transform="translate(496.115234 0)"/>
     <use xlink:href="#DejaVuSans-20" transform="translate(557.394531 0)"/>
     <use xlink:href="#DejaVuSans-66" transform="translate(589.181641 0)"/>
     <use xlink:href="#DejaVuSans-6d" transform="translate(624.386719 0)"/>
     <use xlink:href="#DejaVuSans-5f" transform="translate(721.798828 0)"/>
     <use xlink:href="#DejaVuSans-41" transform="translate(771.798828 0)"/>
     <use xlink:href="#DejaVuSans-50" transform="translate(840.207031 0)"/>
     <use xlink:href="#DejaVuSans-49" transform="translate(900.509766 0)"/>
     <use xlink:href="#DejaVuSans-32" transform="translate(930.001953 0)"/>
     <use xlink:href="#DejaVuSans-35" transform="translate(993.625 0)"/>
     <use xlink:href="#DejaVuSans-78" transform="translate(1057.248047 0)"/>
     <use xlink:href="#DejaVuSans-32" transform="translate(1116.427734 0)"/>
     <use xlink:href="#DejaVuSans-5f" transform="translate(1180.050781 0)"/>
     <use xlink:href="#DejaVuSans-49" transform="translate(1230.050781 0)"/>
     <use xlink:href="#DejaVuSans-4e" transform="translate(1259.542969 0)"/>
     <use xlink:href="#DejaVuSans-52" transform="translate(1334.347656 0)"/>
    </g>
   </g>
   <g id="legend_1">
    <g id="patch_7">
     <path d="M 200.586364 80.834375 
L 336.636364 80.834375 
Q 338.636364 80.834375 338.636364 78.834375 
L 338.636364 50.2 
Q 338.636364 48.2 336.636364 48.2 
L 200.586364 48.2 
Q 198.586364 48.2 198.586364 50.2 
L 198.586364 78.834375 
Q 198.586364 80.834375 200.586364 80.834375 
z
" style="fill: #ffffff; opacity: 0.8; stroke: #cccccc; stroke-linejoin: miter"/>
    </g>
    <g id="line2d_15">
     <path d="M 202.586364 56.298437 
L 212.586364 56.298437 
L 222.586364 56.298437 
" style="fill: none; stroke: #0000ff; stroke-width: 1.5; stroke-linecap: square"/>
    </g>
    <g id="text_16">
     <!-- observable -->
     <g transform="translate(230.586364 59.798437) scale(0.1 -0.1)">
      <defs>
       <path id="DejaVuSans-62" d="M 3116 1747 
Q 3116 2381 2855 2742 
Q 2594 3103 2138 3103 
Q 1681 3103 1420 2742 
Q 1159 2381 1159 1747 
Q 1159 1113 1420 752 
Q 1681 391 2138 391 
Q 2594 391 2855 752 
Q 3116 1113 3116 1747 
z
M 1159 2969 
Q 1341 3281 1617 3432 
Q 1894 3584 2278 3584 
Q 2916 3584 3314 3078 
Q 3713 2572 3713 1747 
Q 3713 922 3314 415 
Q 2916 -91 2278 -91 
Q 1894 -91 1617 61 
Q 1341 213 1159 525 
L 1159 0 
L 581 0 
L 581 4863 
L 1159 4863 
L 1159 2969 
z
" transform="scale(0.015625)"/>
       <path id="DejaVuSans-76" d="M 191 3500 
L 800 3500 
L 1894 563 
L 2988 3500 
L 3597 3500 
L 2284 0 
L 1503 0 
L 191 3500 
z
" transform="scale(0.015625)"/>
       <path id="DejaVuSans-6c" d="M 603 4863 
L 1178 4863 
L 1178 0 
L 603 0 
L 603 4863 
z
" transform="scale(0.015625)"/>
      </defs>
      <use xlink:href="#DejaVuSans-6f"/>
      <use xlink:href="#DejaVuSans-62" transform="translate(61.181641 0)"/>
      <use xlink:href="#DejaVuSans-73" transform="translate(124.658203 0)"/>
      <use xlink:href="#DejaVuSans-65" transform="translate(176.757812 0)"/>
      <use xlink:href="#DejaVuSans-72" transform="translate(238.28125 0)"/>
      <use xlink:href="#DejaVuSans-76" transform="translate(279.394531 0)"/>
      <use xlink:href="#DejaVuSans-61" transform="translate(338.574219 0)"/>
      <use xlink:href="#DejaVuSans-62" transform="translate(399.853516 0)"/>
      <use xlink:href="#DejaVuSans-6c" transform="translate(463.330078 0)"/>
      <use xlink:href="#DejaVuSans-65" transform="translate(491.113281 0)"/>
     </g>
    </g>
    <g id="LineCollection_2">
     <path d="M 212.586364 75.976562 
L 212.586364 65.976562 
" style="fill: none; stroke: #000000; stroke-width: 1.5"/>
    </g>
    <g id="line2d_16">
     <path d="M 202.586364 70.976562 
L 222.586364 70.976562 
" style="fill: none; stroke: #000000; stroke-width: 1.5; stroke-linecap: square"/>
    </g>
    <g id="line2d_17">
     <g>
      <use xlink:href="#m22e4f5d18c" x="212.586364" y="70.976562" style="stroke: #000000; stroke-linejoin: miter"/>
     </g>
    </g>
    <g id="text_17">
     <!-- reference_data ± SD -->
     <g transform="translate(230.586364 74.476562) scale(0.1 -0.1)">
      <defs>
       <path id="DejaVuSans-6e" d="M 3513 2113 
L 3513 0 
L 2938 0 
L 2938 2094 
Q 2938 2591 2744 2837 
Q 2550 3084 2163 3084 
Q 1697 3084 1428 2787 
Q 1159 2491 1159 1978 
L 1159 0 
L 581 0 
L 581 3500 
L 1159 3500 
L 1159 2956 
Q 1366 3272 1645 3428 
Q 1925 3584 2291 3584 
Q 2894 3584 3203 3211 
Q 3513 2838 3513 2113 
z
" transform="scale(0.015625)"/>
       <path id="DejaVuSans-63" d="M 3122 3366 
L 3122 2828 
Q 2878 2963 2633 3030 
Q 2388 3097 2138 3097 
Q 1578 3097 1268 2742 
Q 959 2388 959 1747 
Q 959 1106 1268 751 
Q 1578 397 2138 397 
Q 2388 397 2633 464 
Q 2878 531 3122 666 
L 3122 134 
Q 2881 22 2623 -34 
Q 2366 -91 2075 -91 
Q 1284 -91 818 406 
Q 353 903 353 1747 
Q 353 2603 823 3093 
Q 1294 3584 2113 3584 
Q 2378 3584 2631 3529 
Q 2884 3475 3122 3366 
z
" transform="scale(0.015625)"/>
       <path id="DejaVuSans-64" d="M 2906 2969 
L 2906 4863 
L 3481 4863 
L 3481 0 
L 2906 0 
L 2906 525 
Q 2725 213 2448 61 
Q 2172 -91 1784 -91 
Q 1150 -91 751 415 
Q 353 922 353 1747 
Q 353 2572 751 3078 
Q 1150 3584 1784 3584 
Q 2172 3584 2448 3432 
Q 2725 3281 2906 2969 
z
M 947 1747 
Q 947 1113 1208 752 
Q 1469 391 1925 391 
Q 2381 391 2643 752 
Q 2906 1113 2906 1747 
Q 2906 2381 2643 2742 
Q 2381 3103 1925 3103 
Q 1469 3103 1208 2742 
Q 947 2381 947 1747 
z
" transform="scale(0.015625)"/>
       <path id="DejaVuSans-b1" d="M 2944 4013 
L 2944 2803 
L 4684 2803 
L 4684 2272 
L 2944 2272 
L 2944 1063 
L 2419 1063 
L 2419 2272 
L 678 2272 
L 678 2803 
L 2419 2803 
L 2419 4013 
L 2944 4013 
z
M 678 531 
L 4684 531 
L 4684 0 
L 678 0 
L 678 531 
z
" transform="scale(0.015625)"/>
       <path id="DejaVuSans-53" d="M 3425 4513 
L 3425 3897 
Q 3066 4069 2747 4153 
Q 2428 4238 2131 4238 
Q 1616 4238 1336 4038 
Q 1056 3838 1056 3469 
Q 1056 3159 1242 3001 
Q 1428 2844 1947 2747 
L 2328 2669 
Q 3034 2534 3370 2195 
Q 3706 1856 3706 1288 
Q 3706 609 3251 259 
Q 2797 -91 1919 -91 
Q 1588 -91 1214 -16 
Q 841 59 441 206 
L 441 856 
Q 825 641 1194 531 
Q 1563 422 1919 422 
Q 2459 422 2753 634 
Q 3047 847 3047 1241 
Q 3047 1584 2836 1778 
Q 2625 1972 2144 2069 
L 1759 2144 
Q 1053 2284 737 2584 
Q 422 2884 422 3419 
Q 422 4038 858 4394 
Q 1294 4750 2059 4750 
Q 2388 4750 2728 4690 
Q 3069 4631 3425 4513 
z
" transform="scale(0.015625)"/>
       <path id="DejaVuSans-44" d="M 1259 4147 
L 1259 519 
L 2022 519 
Q 2988 519 3436 956 
Q 3884 1394 3884 2338 
Q 3884 3275 3436 3711 
Q 2988 4147 2022 4147 
L 1259 4147 
z
M 628 4666 
L 1925 4666 
Q 3281 4666 3915 4102 
Q 4550 3538 4550 2338 
Q 4550 1131 3912 565 
Q 3275 0 1925 0 
L 628 0 
L 628 4666 
z
" transform="scale(0.015625)"/>
      </defs>
      <use xlink:href="#DejaVuSans-72"/>
      <use xlink:href="#DejaVuSans-65" transform="translate(38.863281 0)"/>
      <use xlink:href="#DejaVuSans-66" transform="translate(100.386719 0)"/>
      <use xlink:href="#DejaVuSans-65" transform="translate(135.591797 0)"/>
      <use xlink:href="#DejaVuSans-72" transform="translate(197.115234 0)"/>
      <use xlink:href="#DejaVuSans-65" transform="translate(235.978516 0)"/>
      <use xlink:href="#DejaVuSans-6e" transform="translate(297.501953 0)"/>
      <use xlink:href="#DejaVuSans-63" transform="translate(360.880859 0)"/>
      <use xlink:href="#DejaVuSans-65" transform="translate(415.861328 0)"/>
      <use xlink:href="#DejaVuSans-5f" transform="translate(477.384766 0)"/>
      <use xlink:href="#DejaVuSans-64" transform="translate(527.384766 0)"/>
      <use xlink:href="#DejaVuSans-61" transform="translate(590.861328 0)"/>
      <use xlink:href="#DejaVuSans-74" transform="translate(652.140625 0)"/>
      <use xlink:href="#DejaVuSans-61" transform="translate(691.349609 0)"/>
      <use xlink:href="#DejaVuSans-20" transform="translate(752.628906 0)"/>
      <use xlink:href="#DejaVuSans-b1" transform="translate(784.416016 0)"/>
      <use xlink:href="#DejaVuSans-20" transform="translate(868.205078 0)"/>
      <use xlink:href="#DejaVuSans-53" transform="translate(899.992188 0)"/>
      <use xlink:href="#DejaVuSans-44" transform="translate(963.46875 0)"/>
     </g>
    </g>
   </g>
  </g>
  <g id="axes_2">
   <g id="patch_8">
    <path d="M 394.363636 320.4 
L 648 320.4 
L 648 43.2 
L 394.363636 43.2 
z
" style="fill: #ffffff"/>
   </g>
   <g id="matplotlib.axis_3">
    <g id="xtick_7">
     <g id="line2d_18">
      <g>
       <use xlink:href="#m70da3a5f0c" x="415.5" y="320.4" style="stroke: #000000; stroke-width: 0.8"/>
      </g>
     </g>
     <g id="text_18">
      <!-- 0 -->
      <g transform="translate(412.31875 334.998438) scale(0.1 -0.1)">
       <use xlink:href="#DejaVuSans-30"/>
      </g>
     </g>
    </g>
    <g id="xtick_8">
     <g id="line2d_19">
      <g>
       <use xlink:href="#m70da3a5f0c" x="457.437229" y="320.4" style="stroke: #000000; stroke-width: 0.8"/>
      </g>
     </g>
     <g id="text_19">
      <!-- 2000 -->
      <g transform="translate(444.712229 334.998438) scale(0.1 -0.1)">
       <use xlink:href="#DejaVuSans-32"/>
       <use xlink:href="#DejaVuSans-30" transform="translate(63.623047 0)"/>
       <use xlink:href="#DejaVuSans-30" transform="translate(127.246094 0)"/>
       <use xlink:href="#DejaVuSans-30" transform="translate(190.869141 0)"/>
      </g>
     </g>
    </g>
    <g id="xtick_9">
     <g id="line2d_20">
      <g>
       <use xlink:href="#m70da3a5f0c" x="499.374459" y="320.4" style="stroke: #000000; stroke-width: 0.8"/>
      </g>
     </g>
     <g id="text_20">
      <!-- 4000 -->
      <g transform="translate(486.649459 334.998438) scale(0.1 -0.1)">
       <use xlink:href="#DejaVuSans-34"/>
       <use xlink:href="#DejaVuSans-30" transform="translate(63.623047 0)"/>
       <use xlink:href="#DejaVuSans-30" transform="translate(127.246094 0)"/>
       <use xlink:href="#DejaVuSans-30" transform="translate(190.869141 0)"/>
      </g>
     </g>
    </g>
    <g id="xtick_10">
     <g id="line2d_21">
      <g>
       <use xlink:href="#m70da3a5f0c" x="541.311688" y="320.4" style="stroke: #000000; stroke-width: 0.8"/>
      </g>
     </g>
     <g id="text_21">
      <!-- 6000 -->
      <g transform="translate(528.586688 334.998438) scale(0.1 -0.1)">
       <use xlink:href="#DejaVuSans-36"/>
       <use xlink:href="#DejaVuSans-30" transform="translate(63.623047 0)"/>
       <use xlink:href="#DejaVuSans-30" transform="translate(127.246094 0)"/>
       <use xlink:href="#DejaVuSans-30" transform="translate(190.869141 0)"/>
      </g>
     </g>
    </g>
    <g id="xtick_11">
     <g id="line2d_22">
      <g>
       <use xlink:href="#m70da3a5f0c" x="583.248918" y="320.4" style="stroke: #000000; stroke-width: 0.8"/>
      </g>
     </g>
     <g id="text_22">
      <!-- 8000 -->
      <g transform="translate(570.523918 334.998438) scale(0.1 -0.1)">
       <use xlink:href="#DejaVuSans-38"/>
       <use xlink:href="#DejaVuSans-30" transform="translate(63.623047 0)"/>
       <use xlink:href="#DejaVuSans-30" transform="translate(127.246094 0)"/>
       <use xlink:href="#DejaVuSans-30" transform="translate(190.869141 0)"/>
      </g>
     </g>
    </g>
    <g id="xtick_12">
     <g id="line2d_23">
      <g>
       <use xlink:href="#m70da3a5f0c" x="625.186147" y="320.4" style="stroke: #000000; stroke-width: 0.8"/>
      </g>
     </g>
     <g id="text_23">
      <!-- 10000 -->
      <g transform="translate(609.279897 334.998438) scale(0.1 -0.1)">
       <use xlink:href="#DejaVuSans-31"/>
       <use xlink:href="#DejaVuSans-30" transform="translate(63.623047 0)"/>
       <use xlink:href="#DejaVuSans-30" transform="translate(127.246094 0)"/>
       <use xlink:href="#DejaVuSans-30" transform="translate(190.869141 0)"/>
       <use xlink:href="#DejaVuSans-30" transform="translate(254.492188 0)"/>
      </g>
     </g>
    </g>
    <g id="text_24">
     <!-- time -->
     <g transform="translate(507.626506 350.19625) scale(0.12 -0.12)">
      <use xlink:href="#DejaVuSans-74"/>
      <use xlink:href="#DejaVuSans-69" transform="translate(39.208984 0)"/>
      <use xlink:href="#DejaVuSans-6d" transform="translate(66.992188 0)"/>
      <use xlink:href="#DejaVuSans-65" transform="translate(164.404297 0)"/>
     </g>
    </g>
   </g>
   <g id="matplotlib.axis_4">
    <g id="ytick_7">
     <g id="line2d_24">
      <g>
       <use xlink:href="#m1e51740807" x="394.363636" y="170.727224" style="stroke: #000000; stroke-width: 0.8"/>
      </g>
     </g>
     <g id="text_25">
      <!-- $\mathdefault{10^{0}}$ -->
      <g transform="translate(369.763636 174.526443) scale(0.1 -0.1)">
       <use xlink:href="#DejaVuSans-31" transform="translate(0 0.765625)"/>
       <use xlink:href="#DejaVuSans-30" transform="translate(63.623047 0.765625)"/>
       <use xlink:href="#DejaVuSans-30" transform="translate(128.203125 39.046875) scale(0.7)"/>
      </g>
     </g>
    </g>
    <g id="ytick_8">
     <g id="line2d_25">
      <defs>
       <path id="m5cb22bd593" d="M 0 0 
L -2 0 
" style="stroke: #000000; stroke-width: 0.6"/>
      </defs>
      <g>
       <use xlink:href="#m5cb22bd593" x="394.363636" y="302.792006" style="stroke: #000000; stroke-width: 0.6"/>
      </g>
     </g>
     <g id="text_26">
      <!-- $\mathdefault{4\times10^{-1}}$ -->
      <g transform="translate(346.863636 306.591225) scale(0.1 -0.1)">
       <defs>
        <path id="DejaVuSans-d7" d="M 4488 3438 
L 3059 2003 
L 4488 575 
L 4116 197 
L 2681 1631 
L 1247 197 
L 878 575 
L 2303 2003 
L 878 3438 
L 1247 3816 
L 2681 2381 
L 4116 3816 
L 4488 3438 
z
" transform="scale(0.015625)"/>
        <path id="DejaVuSans-2212" d="M 678 2272 
L 4684 2272 
L 4684 1741 
L 678 1741 
L 678 2272 
z
" transform="scale(0.015625)"/>
       </defs>
       <use xlink:href="#DejaVuSans-34" transform="translate(0 0.684375)"/>
       <use xlink:href="#DejaVuSans-d7" transform="translate(83.105469 0.684375)"/>
       <use xlink:href="#DejaVuSans-31" transform="translate(186.376953 0.684375)"/>
       <use xlink:href="#DejaVuSans-30" transform="translate(250 0.684375)"/>
       <use xlink:href="#DejaVuSans-2212" transform="translate(314.580078 38.965625) scale(0.7)"/>
       <use xlink:href="#DejaVuSans-31" transform="translate(373.232422 38.965625) scale(0.7)"/>
      </g>
     </g>
    </g>
    <g id="ytick_9">
     <g id="line2d_26">
      <g>
       <use xlink:href="#m5cb22bd593" x="394.363636" y="270.630375" style="stroke: #000000; stroke-width: 0.6"/>
      </g>
     </g>
    </g>
    <g id="ytick_10">
     <g id="line2d_27">
      <g>
       <use xlink:href="#m5cb22bd593" x="394.363636" y="244.352409" style="stroke: #000000; stroke-width: 0.6"/>
      </g>
     </g>
     <g id="text_27">
      <!-- $\mathdefault{6\times10^{-1}}$ -->
      <g transform="translate(346.863636 248.151628) scale(0.1 -0.1)">
       <use xlink:href="#DejaVuSans-36" transform="translate(0 0.684375)"/>
       <use xlink:href="#DejaVuSans-d7" transform="translate(83.105469 0.684375)"/>
       <use xlink:href="#DejaVuSans-31" transform="translate(186.376953 0.684375)"/>
       <use xlink:href="#DejaVuSans-30" transform="translate(250 0.684375)"/>
       <use xlink:href="#DejaVuSans-2212" transform="translate(314.580078 38.965625) scale(0.7)"/>
       <use xlink:href="#DejaVuSans-31" transform="translate(373.232422 38.965625) scale(0.7)"/>
      </g>
     </g>
    </g>
    <g id="ytick_11">
     <g id="line2d_28">
      <g>
       <use xlink:href="#m5cb22bd593" x="394.363636" y="222.134705" style="stroke: #000000; stroke-width: 0.6"/>
      </g>
     </g>
    </g>
    <g id="ytick_12">
     <g id="line2d_29">
      <g>
       <use xlink:href="#m5cb22bd593" x="394.363636" y="202.888855" style="stroke: #000000; stroke-width: 0.6"/>
      </g>
     </g>
    </g>
    <g id="ytick_13">
     <g id="line2d_30">
      <g>
       <use xlink:href="#m5cb22bd593" x="394.363636" y="185.912812" style="stroke: #000000; stroke-width: 0.6"/>
      </g>
     </g>
    </g>
    <g id="ytick_14">
     <g id="line2d_31">
      <g>
       <use xlink:href="#m5cb22bd593" x="394.363636" y="70.824073" style="stroke: #000000; stroke-width: 0.6"/>
      </g>
     </g>
     <g id="text_28">
      <!-- $\mathdefault{2\times10^{0}}$ -->
      <g transform="translate(352.763636 74.623292) scale(0.1 -0.1)">
       <use xlink:href="#DejaVuSans-32" transform="translate(0 0.765625)"/>
       <use xlink:href="#DejaVuSans-d7" transform="translate(83.105469 0.765625)"/>
       <use xlink:href="#DejaVuSans-31" transform="translate(186.376953 0.765625)"/>
       <use xlink:href="#DejaVuSans-30" transform="translate(250 0.765625)"/>
       <use xlink:href="#DejaVuSans-30" transform="translate(314.580078 39.046875) scale(0.7)"/>
      </g>
     </g>
    </g>
    <g id="text_29">
     <!-- INR -->
     <g transform="translate(340.368011 192.227812) rotate(-90) scale(0.12 -0.12)">
      <use xlink:href="#DejaVuSans-49"/>
      <use xlink:href="#DejaVuSans-4e" transform="translate(29.492188 0)"/>
      <use xlink:href="#DejaVuSans-52" transform="translate(104.296875 0)"/>
     </g>
    </g>
   </g>
   <g id="LineCollection_3">
    <path d="M 415.5 148.098308 
L 415.5 145.655372 
" clip-path="url(#p50f3abc180)" style="fill: none; stroke: #000000; stroke-width: 1.5"/>
    <path d="M 419.274351 120.187126 
L 419.274351 102.985704 
" clip-path="url(#p50f3abc180)" style="fill: none; stroke: #000000; stroke-width: 1.5"/>
    <path d="M 423.048701 138.565593 
L 423.048701 113.25171 
" clip-path="url(#p50f3abc180)" style="fill: none; stroke: #000000; stroke-width: 1.5"/>
    <path d="M 426.823052 140.890317 
L 426.823052 138.565593 
" clip-path="url(#p50f3abc180)" style="fill: none; stroke: #000000; stroke-width: 1.5"/>
    <path d="M 430.597403 148.098308 
L 430.597403 136.277771 
" clip-path="url(#p50f3abc180)" style="fill: none; stroke: #000000; stroke-width: 1.5"/>
    <path d="M 434.371753 126.409522 
L 434.371753 97.679714 
" clip-path="url(#p50f3abc180)" style="fill: none; stroke: #000000; stroke-width: 1.5"/>
    <path d="M 438.146104 136.277771 
L 438.146104 117.17385 
" clip-path="url(#p50f3abc180)" style="fill: none; stroke: #000000; stroke-width: 1.5"/>
    <path d="M 441.920455 138.565593 
L 441.920455 119.175685 
" clip-path="url(#p50f3abc180)" style="fill: none; stroke: #000000; stroke-width: 1.5"/>
    <path d="M 445.694805 137.417143 
L 445.694805 126.409522 
" clip-path="url(#p50f3abc180)" style="fill: none; stroke: #000000; stroke-width: 1.5"/>
    <path d="M 596.668831 131.808272 
L 596.668831 113.25171 
" clip-path="url(#p50f3abc180)" style="fill: none; stroke: #000000; stroke-width: 1.5"/>
    <path d="M 600.443182 112.287627 
L 600.443182 63.791958 
" clip-path="url(#p50f3abc180)" style="fill: none; stroke: #000000; stroke-width: 1.5"/>
    <path d="M 604.217532 117.17385 
L 604.217532 65.865803 
" clip-path="url(#p50f3abc180)" style="fill: none; stroke: #000000; stroke-width: 1.5"/>
    <path d="M 607.991883 131.808272 
L 607.991883 91.726606 
" clip-path="url(#p50f3abc180)" style="fill: none; stroke: #000000; stroke-width: 1.5"/>
    <path d="M 611.766234 135.147335 
L 611.766234 110.378596 
" clip-path="url(#p50f3abc180)" style="fill: none; stroke: #000000; stroke-width: 1.5"/>
    <path d="M 615.540584 117.17385 
L 615.540584 83.627297 
" clip-path="url(#p50f3abc180)" style="fill: none; stroke: #000000; stroke-width: 1.5"/>
    <path d="M 619.314935 120.187126 
L 619.314935 48.195158 
" clip-path="url(#p50f3abc180)" style="fill: none; stroke: #000000; stroke-width: 1.5"/>
    <path d="M 623.089286 132.91272 
L 623.089286 102.985704 
" clip-path="url(#p50f3abc180)" style="fill: none; stroke: #000000; stroke-width: 1.5"/>
    <path d="M 626.863636 137.417143 
L 626.863636 104.798681 
" clip-path="url(#p50f3abc180)" style="fill: none; stroke: #000000; stroke-width: 1.5"/>
   </g>
   <g id="line2d_32">
    <path d="M 415.5 146.871664 
L 415.506622 146.768668 
L 415.686623 134.011304 
L 416.052163 119.396915 
L 416.488344 110.828232 
L 416.947198 106.261863 
L 417.350186 104.126598 
L 417.697306 103.103728 
L 418.044427 102.572016 
L 418.391548 102.378779 
L 418.738669 102.424044 
L 419.25935 102.796315 
L 419.869052 103.527954 
L 420.919379 105.177918 
L 424.119071 110.913862 
L 427.173142 116.087535 
L 429.644216 119.862455 
L 430.597403 121.214221 
L 430.599268 121.610444 
L 430.707816 117.558711 
L 431.076042 108.084763 
L 431.526779 102.146931 
L 431.917917 99.40764 
L 432.365721 97.73213 
L 432.829074 96.959148 
L 433.137976 96.788098 
L 433.446878 96.806852 
L 434.016822 97.18503 
L 434.630503 97.910328 
L 435.650902 99.50068 
L 437.926299 103.616908 
L 441.662044 110.320019 
L 444.743068 115.367736 
L 445.694805 116.82339 
L 445.696669 117.151371 
L 445.805831 113.561891 
L 446.170878 105.180422 
L 446.520142 100.725247 
L 446.925464 97.771928 
L 447.330787 96.163253 
L 447.673149 95.442978 
L 448.015511 95.108577 
L 448.357873 95.044053 
L 448.700236 95.172161 
L 449.23408 95.636196 
L 450.034845 96.702611 
L 451.369455 98.945071 
L 459.193989 112.808979 
L 460.792208 115.331701 
L 460.794122 115.852658 
L 460.894839 112.648011 
L 461.277356 104.137713 
L 461.690975 99.308867 
L 462.105596 96.69578 
L 462.549815 95.242162 
L 462.96737 94.628983 
L 463.384925 94.473752 
L 463.893623 94.681822 
L 464.402321 95.169396 
L 465.165368 96.210717 
L 466.691463 98.807209 
L 473.236717 110.550036 
L 475.88961 114.830822 
L 475.891557 115.819725 
L 475.998634 112.405004 
L 476.371635 104.114353 
L 476.803127 99.10075 
L 477.24609 96.414417 
L 477.67979 95.07822 
L 478.081982 94.518304 
L 478.507897 94.377077 
L 478.791841 94.460458 
L 479.241888 94.794586 
L 479.916957 95.602628 
L 481.042073 97.382623 
L 483.539478 101.924538 
L 487.576678 109.162655 
L 490.848069 114.524112 
L 490.987013 114.738477 
L 490.988978 115.369447 
L 491.089567 112.209219 
L 491.478189 103.706109 
L 491.920936 98.740101 
L 492.306347 96.415244 
L 492.769981 94.952942 
L 493.085985 94.473945 
L 493.629694 94.259382 
L 494.054806 94.443266 
L 494.692474 95.070775 
L 495.542698 96.284564 
L 497.030591 98.857745 
L 503.341751 110.194784 
L 506.084416 114.639707 
L 506.086364 115.779124 
L 506.19505 112.313817 
L 506.549401 104.345908 
L 506.994791 99.083057 
L 507.398829 96.556726 
L 507.803979 95.191104 
L 508.209129 94.535003 
L 508.561892 94.339875 
L 508.944819 94.397341 
L 509.455388 94.768797 
L 510.045574 95.46747 
L 511.081871 97.07367 
L 513.212173 100.913298 
L 517.534585 108.710941 
L 520.602385 113.790137 
L 521.181818 114.694431 
L 521.183796 115.046526 
L 521.284394 111.925631 
L 521.655265 103.794986 
L 522.089568 98.813217 
L 522.471032 96.439068 
L 522.888874 95.023213 
L 523.265072 94.401213 
L 523.641555 94.180417 
L 524.018038 94.233784 
L 524.611037 94.68293 
L 525.401703 95.696397 
L 526.585294 97.640317 
L 530.463796 104.739976 
L 533.863492 110.675394 
L 536.281411 114.598643 
L 536.288829 114.504261 
L 536.929442 101.129442 
L 537.348967 97.455208 
L 537.750523 95.546325 
L 538.085212 94.667129 
L 538.419901 94.211199 
L 538.75459 94.050514 
L 539.089279 94.100554 
L 539.625297 94.482119 
L 540.429325 95.480516 
L 541.769372 97.681032 
L 550.834363 113.621448 
L 551.379006 114.629228 
L 551.393956 114.310929 
L 551.822097 103.976034 
L 552.162717 99.680823 
L 552.569864 96.735267 
L 553.043685 94.961971 
L 553.380606 94.344946 
L 553.717528 94.07393 
L 554.05445 94.047177 
L 554.494998 94.269835 
L 555.039172 94.814761 
L 555.855433 95.963401 
L 557.487954 98.782937 
L 563.53021 109.662836 
L 566.474026 114.456118 
L 566.476008 114.949667 
L 566.576203 111.845092 
L 566.917068 104.203435 
L 567.332526 99.153777 
L 567.725603 96.54698 
L 568.157381 95.011242 
L 568.441362 94.474773 
L 568.793435 94.158129 
L 569.145508 94.116437 
L 569.49758 94.269519 
L 569.964915 94.682436 
L 570.838811 95.848561 
L 572.295303 98.317842 
L 579.669038 111.463822 
L 581.571429 114.510901 
L 581.573411 114.930875 
L 581.673586 111.831138 
L 582.020319 104.102082 
L 582.41103 99.320903 
L 582.879884 96.283308 
L 583.341291 94.819913 
L 583.802698 94.213072 
L 584.110302 94.111424 
L 584.641811 94.307771 
L 585.283613 94.945464 
L 586.139348 96.172643 
L 587.786165 99.039201 
L 593.77752 109.817163 
L 596.668831 114.520573 
L 596.670799 115.28748 
L 596.771808 112.117549 
L 597.119621 104.280805 
L 597.577176 98.881488 
L 597.958472 96.488934 
L 598.411751 94.978749 
L 598.865031 94.327944 
L 599.167218 94.199282 
L 599.397249 94.218 
L 599.909246 94.520741 
L 600.54893 95.234957 
L 601.578595 96.804682 
L 603.397678 100.055377 
L 608.262763 108.841075 
L 610.991708 113.367746 
L 611.766234 114.585445 
L 611.768199 115.368248 
L 611.869216 112.189965 
L 612.247569 103.842439 
L 612.699931 98.719418 
L 613.113762 96.26717 
L 613.527592 94.972199 
L 613.802385 94.516986 
L 614.145057 94.25799 
L 614.487728 94.24644 
L 615.001735 94.545862 
L 615.575379 95.171655 
L 616.722668 96.911879 
L 619.017245 101.049573 
L 623.114867 108.445717 
L 626.324684 113.768744 
L 629.192971 118.101532 
L 632.061258 122.017307 
L 634.929544 125.516969 
L 637.797831 128.613677 
L 640.666118 131.329521 
L 643.534405 133.692567 
L 646.402692 135.734328 
L 648.553907 137.074593 
L 648.553907 137.074593 
" clip-path="url(#p50f3abc180)" style="fill: none; stroke: #0000ff; stroke-width: 1.5; stroke-linecap: square"/>
   </g>
   <g id="line2d_33">
    <path d="M 415.5 146.871664 
L 419.274351 111.329951 
L 423.048701 125.353621 
L 426.823052 139.723268 
L 430.597403 142.066894 
L 434.371753 111.329951 
L 438.146104 126.409522 
L 441.920455 128.544817 
L 445.694805 131.808272 
L 596.668831 122.231555 
L 600.443182 86.009661 
L 604.217532 89.248669 
L 607.991883 110.378596 
L 611.766234 122.231555 
L 615.540584 99.426763 
L 619.314935 79.742162 
L 623.089286 117.17385 
L 626.863636 120.187126 
" clip-path="url(#p50f3abc180)" style="fill: none; stroke: #000000; stroke-width: 1.5; stroke-linecap: square"/>
    <g clip-path="url(#p50f3abc180)">
     <use xlink:href="#m22e4f5d18c" x="415.5" y="146.871664" style="stroke: #000000; stroke-linejoin: miter"/>
     <use xlink:href="#m22e4f5d18c" x="419.274351" y="111.329951" style="stroke: #000000; stroke-linejoin: miter"/>
     <use xlink:href="#m22e4f5d18c" x="423.048701" y="125.353621" style="stroke: #000000; stroke-linejoin: miter"/>
     <use xlink:href="#m22e4f5d18c" x="426.823052" y="139.723268" style="stroke: #000000; stroke-linejoin: miter"/>
     <use xlink:href="#m22e4f5d18c" x="430.597403" y="142.066894" style="stroke: #000000; stroke-linejoin: miter"/>
     <use xlink:href="#m22e4f5d18c" x="434.371753" y="111.329951" style="stroke: #000000; stroke-linejoin: miter"/>
     <use xlink:href="#m22e4f5d18c" x="438.146104" y="126.409522" style="stroke: #000000; stroke-linejoin: miter"/>
     <use xlink:href="#m22e4f5d18c" x="441.920455" y="128.544817" style="stroke: #000000; stroke-linejoin: miter"/>
     <use xlink:href="#m22e4f5d18c" x="445.694805" y="131.808272" style="stroke: #000000; stroke-linejoin: miter"/>
     <use xlink:href="#m22e4f5d18c" x="596.668831" y="122.231555" style="stroke: #000000; stroke-linejoin: miter"/>
     <use xlink:href="#m22e4f5d18c" x="600.443182" y="86.009661" style="stroke: #000000; stroke-linejoin: miter"/>
     <use xlink:href="#m22e4f5d18c" x="604.217532" y="89.248669" style="stroke: #000000; stroke-linejoin: miter"/>
     <use xlink:href="#m22e4f5d18c" x="607.991883" y="110.378596" style="stroke: #000000; stroke-linejoin: miter"/>
     <use xlink:href="#m22e4f5d18c" x="611.766234" y="122.231555" style="stroke: #000000; stroke-linejoin: miter"/>
     <use xlink:href="#m22e4f5d18c" x="615.540584" y="99.426763" style="stroke: #000000; stroke-linejoin: miter"/>
     <use xlink:href="#m22e4f5d18c" x="619.314935" y="79.742162" style="stroke: #000000; stroke-linejoin: miter"/>
     <use xlink:href="#m22e4f5d18c" x="623.089286" y="117.17385" style="stroke: #000000; stroke-linejoin: miter"/>
     <use xlink:href="#m22e4f5d18c" x="626.863636" y="120.187126" style="stroke: #000000; stroke-linejoin: miter"/>
    </g>
   </g>
   <g id="patch_9">
    <path d="M 394.363636 320.4 
L 394.363636 43.2 
" style="fill: none; stroke: #000000; stroke-width: 0.8; stroke-linejoin: miter; stroke-linecap: square"/>
   </g>
   <g id="patch_10">
    <path d="M 648 320.4 
L 648 43.2 
" style="fill: none; stroke: #000000; stroke-width: 0.8; stroke-linejoin: miter; stroke-linecap: square"/>
   </g>
   <g id="patch_11">
    <path d="M 394.363636 320.4 
L 648 320.4 
" style="fill: none; stroke: #000000; stroke-width: 0.8; stroke-linejoin: miter; stroke-linecap: square"/>
   </g>
   <g id="patch_12">
    <path d="M 394.363636 43.2 
L 648 43.2 
" style="fill: none; stroke: #000000; stroke-width: 0.8; stroke-linejoin: miter; stroke-linecap: square"/>
   </g>
   <g id="text_30">
    <!-- Frost2013a fm_API25x2_INR -->
    <g transform="translate(422.912756 37.2) scale(0.14 -0.14)">
     <use xlink:href="#DejaVuSans-46"/>
     <use xlink:href="#DejaVuSans-72" transform="translate(50.269531 0)"/>
     <use xlink:href="#DejaVuSans-6f" transform="translate(89.132812 0)"/>
     <use xlink:href="#DejaVuSans-73" transform="translate(150.314453 0)"/>
     <use xlink:href="#DejaVuSans-74" transform="translate(202.414062 0)"/>
     <use xlink:href="#DejaVuSans-32" transform="translate(241.623047 0)"/>
     <use xlink:href="#DejaVuSans-30" transform="translate(305.246094 0)"/>
     <use xlink:href="#DejaVuSans-31" transform="translate(368.869141 0)"/>
     <use xlink:href="#DejaVuSans-33" transform="translate(432.492188 0)"/>
     <use xlink:href="#DejaVuSans-61" transform="translate(496.115234 0)"/>
     <use xlink:href="#DejaVuSans-20" transform="translate(557.394531 0)"/>
     <use xlink:href="#DejaVuSans-66" transform="translate(589.181641 0)"/>
     <use xlink:href="#DejaVuSans-6d" transform="translate(624.386719 0)"/>
     <use xlink:href="#DejaVuSans-5f" transform="translate(721.798828 0)"/>
     <use xlink:href="#DejaVuSans-41" transform="translate(771.798828 0)"/>
     <use xlink:href="#DejaVuSans-50" transform="translate(840.207031 0)"/>
     <use xlink:href="#DejaVuSans-49" transform="translate(900.509766 0)"/>
     <use xlink:href="#DejaVuSans-32" transform="translate(930.001953 0)"/>
     <use xlink:href="#DejaVuSans-35" transform="translate(993.625 0)"/>
     <use xlink:href="#DejaVuSans-78" transform="translate(1057.248047 0)"/>
     <use xlink:href="#DejaVuSans-32" transform="translate(1116.427734 0)"/>
     <use xlink:href="#DejaVuSans-5f" transform="translate(1180.050781 0)"/>
     <use xlink:href="#DejaVuSans-49" transform="translate(1230.050781 0)"/>
     <use xlink:href="#DejaVuSans-4e" transform="translate(1259.542969 0)"/>
     <use xlink:href="#DejaVuSans-52" transform="translate(1334.347656 0)"/>
    </g>
   </g>
   <g id="legend_2">
    <g id="patch_13">
     <path d="M 401.363636 80.834375 
L 537.413636 80.834375 
Q 539.413636 80.834375 539.413636 78.834375 
L 539.413636 50.2 
Q 539.413636 48.2 537.413636 48.2 
L 401.363636 48.2 
Q 399.363636 48.2 399.363636 50.2 
L 399.363636 78.834375 
Q 399.363636 80.834375 401.363636 80.834375 
z
" style="fill: #ffffff; opacity: 0.8; stroke: #cccccc; stroke-linejoin: miter"/>
    </g>
    <g id="line2d_34">
     <path d="M 403.363636 56.298437 
L 413.363636 56.298437 
L 423.363636 56.298437 
" style="fill: none; stroke: #0000ff; stroke-width: 1.5; stroke-linecap: square"/>
    </g>
    <g id="text_31">
     <!-- observable -->
     <g transform="translate(431.363636 59.798437) scale(0.1 -0.1)">
      <use xlink:href="#DejaVuSans-6f"/>
      <use xlink:href="#DejaVuSans-62" transform="translate(61.181641 0)"/>
      <use xlink:href="#DejaVuSans-73" transform="translate(124.658203 0)"/>
      <use xlink:href="#DejaVuSans-65" transform="translate(176.757812 0)"/>
      <use xlink:href="#DejaVuSans-72" transform="translate(238.28125 0)"/>
      <use xlink:href="#DejaVuSans-76" transform="translate(279.394531 0)"/>
      <use xlink:href="#DejaVuSans-61" transform="translate(338.574219 0)"/>
      <use xlink:href="#DejaVuSans-62" transform="translate(399.853516 0)"/>
      <use xlink:href="#DejaVuSans-6c" transform="translate(463.330078 0)"/>
      <use xlink:href="#DejaVuSans-65" transform="translate(491.113281 0)"/>
     </g>
    </g>
    <g id="LineCollection_4">
     <path d="M 413.363636 75.976562 
L 413.363636 65.976562 
" style="fill: none; stroke: #000000; stroke-width: 1.5"/>
    </g>
    <g id="line2d_35">
     <path d="M 403.363636 70.976562 
L 423.363636 70.976562 
" style="fill: none; stroke: #000000; stroke-width: 1.5; stroke-linecap: square"/>
    </g>
    <g id="line2d_36">
     <g>
      <use xlink:href="#m22e4f5d18c" x="413.363636" y="70.976562" style="stroke: #000000; stroke-linejoin: miter"/>
     </g>
    </g>
    <g id="text_32">
     <!-- reference_data ± SD -->
     <g transform="translate(431.363636 74.476562) scale(0.1 -0.1)">
      <use xlink:href="#DejaVuSans-72"/>
      <use xlink:href="#DejaVuSans-65" transform="translate(38.863281 0)"/>
      <use xlink:href="#DejaVuSans-66" transform="translate(100.386719 0)"/>
      <use xlink:href="#DejaVuSans-65" transform="translate(135.591797 0)"/>
      <use xlink:href="#DejaVuSans-72" transform="translate(197.115234 0)"/>
      <use xlink:href="#DejaVuSans-65" transform="translate(235.978516 0)"/>
      <use xlink:href="#DejaVuSans-6e" transform="translate(297.501953 0)"/>
      <use xlink:href="#DejaVuSans-63" transform="translate(360.880859 0)"/>
      <use xlink:href="#DejaVuSans-65" transform="translate(415.861328 0)"/>
      <use xlink:href="#DejaVuSans-5f" transform="translate(477.384766 0)"/>
      <use xlink:href="#DejaVuSans-64" transform="translate(527.384766 0)"/>
      <use xlink:href="#DejaVuSans-61" transform="translate(590.861328 0)"/>
      <use xlink:href="#DejaVuSans-74" transform="translate(652.140625 0)"/>
      <use xlink:href="#DejaVuSans-61" transform="translate(691.349609 0)"/>
      <use xlink:href="#DejaVuSans-20" transform="translate(752.628906 0)"/>
      <use xlink:href="#DejaVuSans-b1" transform="translate(784.416016 0)"/>
      <use xlink:href="#DejaVuSans-20" transform="translate(868.205078 0)"/>
      <use xlink:href="#DejaVuSans-53" transform="translate(899.992188 0)"/>
      <use xlink:href="#DejaVuSans-44" transform="translate(963.46875 0)"/>
     </g>
    </g>
   </g>
  </g>
 </g>
 <defs>
  <clipPath id="pd82eba9cd1">
   <rect x="90" y="43.2" width="253.636364" height="277.2"/>
  </clipPath>
  <clipPath id="p50f3abc180">
   <rect x="394.363636" y="43.2" width="253.636364" height="277.2"/>
  </clipPath>
 </defs>
</svg>
