<?xml version="1.0" encoding="utf-8" standalone="no"?>
<!DOCTYPE svg PUBLIC "-//W3C//DTD SVG 1.1//EN"
  "http://www.w3.org/Graphics/SVG/1.1/DTD/svg11.dtd">
<svg xmlns:xlink="http://www.w3.org/1999/xlink" width="426.3092pt" height="414.385812pt" viewBox="0 0 426.3092 414.385812" xmlns="http://www.w3.org/2000/svg" version="1.1">
 <metadata>
  <rdf:RDF xmlns:dc="http://purl.org/dc/elements/1.1/" xmlns:cc="http://creativecommons.org/ns#" xmlns:rdf="http://www.w3.org/1999/02/22-rdf-syntax-ns#">
   <cc:Work>
    <dc:type rdf:resource="http://purl.org/dc/dcmitype/StillImage"/>
    <dc:date>2026-03-19T14:40:59.210279</dc:date>
    <dc:format>image/svg+xml</dc:format>
    <dc:creator>
     <cc:Agent>
      <dc:title>Matplotlib v3.10.8, https://matplotlib.org/</dc:title>
     </cc:Agent>
    </dc:creator>
   </cc:Work>
  </rdf:RDF>
 </metadata>
 <defs>
  <style type="text/css">*{stroke-linejoin: round; stroke-linecap: butt}</style>
 </defs>
 <g id="figure_1">
  <g id="patch_1">
   <path d="M 0 414.385812 
L 426.3092 414.385812 
L 426.3092 -0 
L 0 -0 
z
" style="fill: #ffffff"/>
  </g>
  <g id="axes_1">
   <g id="patch_2">
    <path d="M 45.305 364.248 
L 419.1092 364.248 
L 419.1092 48.24 
L 45.305 48.24 
z
" style="fill: #ffffff"/>
   </g>
   <g id="matplotlib.axis_1">
    <g id="xtick_1">
     <g id="line2d_1">
      <defs>
       <path id="m13a3566f54" d="M 0 0 
L 0 3.5 
" style="stroke: #000000; stroke-width: 0.8"/>
      </defs>
      <g>
       <use xlink:href="#m13a3566f54" x="45.305" y="364.248" style="stroke: #000000; stroke-width: 0.8"/>
      </g>
     </g>
     <g id="text_1">
      <!-- −20 -->
      <g transform="translate(29.476484 382.645656) scale(0.15 -0.15)">
       <defs>
        <path id="DejaVuSans-2212" d="M 678 2272 
L 4684 2272 
L 4684 1741 
L 678 1741 
L 678 2272 
z
" transform="scale(0.015625)"/>
        <path id="DejaVuSans-32" d="M 1228 531 
L 3431 531 
L 3431 0 
L 469 0 
L 469 531 
Q 828 903 1448 1529 
Q 2069 2156 2228 2338 
Q 2531 2678 2651 2914 
Q 2772 3150 2772 3378 
Q 2772 3750 2511 3984 
Q 2250 4219 1831 4219 
Q 1534 4219 1204 4116 
Q 875 4013 500 3803 
L 500 4441 
Q 881 4594 1212 4672 
Q 1544 4750 1819 4750 
Q 2544 4750 2975 4387 
Q 3406 4025 3406 3419 
Q 3406 3131 3298 2873 
Q 3191 2616 2906 2266 
Q 2828 2175 2409 1742 
Q 1991 1309 1228 531 
z
" transform="scale(0.015625)"/>
        <path id="DejaVuSans-30" d="M 2034 4250 
Q 1547 4250 1301 3770 
Q 1056 3291 1056 2328 
Q 1056 1369 1301 889 
Q 1547 409 2034 409 
Q 2525 409 2770 889 
Q 3016 1369 3016 2328 
Q 3016 3291 2770 3770 
Q 2525 4250 2034 4250 
z
M 2034 4750 
Q 2819 4750 3233 4129 
Q 3647 3509 3647 2328 
Q 3647 1150 3233 529 
Q 2819 -91 2034 -91 
Q 1250 -91 836 529 
Q 422 1150 422 2328 
Q 422 3509 836 4129 
Q 1250 4750 2034 4750 
z
" transform="scale(0.015625)"/>
       </defs>
       <use xlink:href="#DejaVuSans-2212"/>
       <use xlink:href="#DejaVuSans-32" transform="translate(83.789062 0)"/>
       <use xlink:href="#DejaVuSans-30" transform="translate(147.412109 0)"/>
      </g>
     </g>
    </g>
    <g id="xtick_2">
     <g id="line2d_2">
      <g>
       <use xlink:href="#m13a3566f54" x="124.000621" y="364.248" style="stroke: #000000; stroke-width: 0.8"/>
      </g>
     </g>
     <g id="text_2">
      <!-- 0 -->
      <g transform="translate(119.228746 382.645656) scale(0.15 -0.15)">
       <use xlink:href="#DejaVuSans-30"/>
      </g>
     </g>
    </g>
    <g id="xtick_3">
     <g id="line2d_3">
      <g>
       <use xlink:href="#m13a3566f54" x="202.696242" y="364.248" style="stroke: #000000; stroke-width: 0.8"/>
      </g>
     </g>
     <g id="text_3">
      <!-- 20 -->
      <g transform="translate(193.152492 382.645656) scale(0.15 -0.15)">
       <use xlink:href="#DejaVuSans-32"/>
       <use xlink:href="#DejaVuSans-30" transform="translate(63.623047 0)"/>
      </g>
     </g>
    </g>
    <g id="xtick_4">
     <g id="line2d_4">
      <g>
       <use xlink:href="#m13a3566f54" x="281.391863" y="364.248" style="stroke: #000000; stroke-width: 0.8"/>
      </g>
     </g>
     <g id="text_4">
      <!-- 40 -->
      <g transform="translate(271.848113 382.645656) scale(0.15 -0.15)">
       <defs>
        <path id="DejaVuSans-34" d="M 2419 4116 
L 825 1625 
L 2419 1625 
L 2419 4116 
z
M 2253 4666 
L 3047 4666 
L 3047 1625 
L 3713 1625 
L 3713 1100 
L 3047 1100 
L 3047 0 
L 2419 0 
L 2419 1100 
L 313 1100 
L 313 1709 
L 2253 4666 
z
" transform="scale(0.015625)"/>
       </defs>
       <use xlink:href="#DejaVuSans-34"/>
       <use xlink:href="#DejaVuSans-30" transform="translate(63.623047 0)"/>
      </g>
     </g>
    </g>
    <g id="xtick_5">
     <g id="line2d_5">
      <g>
       <use xlink:href="#m13a3566f54" x="360.087484" y="364.248" style="stroke: #000000; stroke-width: 0.8"/>
      </g>
     </g>
     <g id="text_5">
      <!-- 60 -->
      <g transform="translate(350.543734 382.645656) scale(0.15 -0.15)">
       <defs>
        <path id="DejaVuSans-36" d="M 2113 2584 
Q 1688 2584 1439 2293 
Q 1191 2003 1191 1497 
Q 1191 994 1439 701 
Q 1688 409 2113 409 
Q 2538 409 2786 701 
Q 3034 994 3034 1497 
Q 3034 2003 2786 2293 
Q 2538 2584 2113 2584 
z
M 3366 4563 
L 3366 3988 
Q 3128 4100 2886 4159 
Q 2644 4219 2406 4219 
Q 1781 4219 1451 3797 
Q 1122 3375 1075 2522 
Q 1259 2794 1537 2939 
Q 1816 3084 2150 3084 
Q 2853 3084 3261 2657 
Q 3669 2231 3669 1497 
Q 3669 778 3244 343 
Q 2819 -91 2113 -91 
Q 1303 -91 875 529 
Q 447 1150 447 2328 
Q 447 3434 972 4092 
Q 1497 4750 2381 4750 
Q 2619 4750 2861 4703 
Q 3103 4656 3366 4563 
z
" transform="scale(0.015625)"/>
       </defs>
       <use xlink:href="#DejaVuSans-36"/>
       <use xlink:href="#DejaVuSans-30" transform="translate(63.623047 0)"/>
      </g>
     </g>
    </g>
    <g id="text_6">
     <!-- time [hr] -->
     <g transform="translate(187.132569 403.442375) scale(0.18 -0.18)">
      <defs>
       <path id="DejaVuSans-Bold-74" d="M 1759 4494 
L 1759 3500 
L 2913 3500 
L 2913 2700 
L 1759 2700 
L 1759 1216 
Q 1759 972 1856 886 
Q 1953 800 2241 800 
L 2816 800 
L 2816 0 
L 1856 0 
Q 1194 0 917 276 
Q 641 553 641 1216 
L 641 2700 
L 84 2700 
L 84 3500 
L 641 3500 
L 641 4494 
L 1759 4494 
z
" transform="scale(0.015625)"/>
       <path id="DejaVuSans-Bold-69" d="M 538 3500 
L 1656 3500 
L 1656 0 
L 538 0 
L 538 3500 
z
M 538 4863 
L 1656 4863 
L 1656 3950 
L 538 3950 
L 538 4863 
z
" transform="scale(0.015625)"/>
       <path id="DejaVuSans-Bold-6d" d="M 3781 2919 
Q 3994 3244 4286 3414 
Q 4578 3584 4928 3584 
Q 5531 3584 5847 3212 
Q 6163 2841 6163 2131 
L 6163 0 
L 5038 0 
L 5038 1825 
Q 5041 1866 5042 1909 
Q 5044 1953 5044 2034 
Q 5044 2406 4934 2573 
Q 4825 2741 4581 2741 
Q 4263 2741 4089 2478 
Q 3916 2216 3909 1719 
L 3909 0 
L 2784 0 
L 2784 1825 
Q 2784 2406 2684 2573 
Q 2584 2741 2328 2741 
Q 2006 2741 1831 2477 
Q 1656 2213 1656 1722 
L 1656 0 
L 531 0 
L 531 3500 
L 1656 3500 
L 1656 2988 
Q 1863 3284 2130 3434 
Q 2397 3584 2719 3584 
Q 3081 3584 3359 3409 
Q 3638 3234 3781 2919 
z
" transform="scale(0.015625)"/>
       <path id="DejaVuSans-Bold-65" d="M 4031 1759 
L 4031 1441 
L 1416 1441 
Q 1456 1047 1700 850 
Q 1944 653 2381 653 
Q 2734 653 3104 758 
Q 3475 863 3866 1075 
L 3866 213 
Q 3469 63 3072 -14 
Q 2675 -91 2278 -91 
Q 1328 -91 801 392 
Q 275 875 275 1747 
Q 275 2603 792 3093 
Q 1309 3584 2216 3584 
Q 3041 3584 3536 3087 
Q 4031 2591 4031 1759 
z
M 2881 2131 
Q 2881 2450 2695 2645 
Q 2509 2841 2209 2841 
Q 1884 2841 1681 2658 
Q 1478 2475 1428 2131 
L 2881 2131 
z
" transform="scale(0.015625)"/>
       <path id="DejaVuSans-Bold-20" transform="scale(0.015625)"/>
       <path id="DejaVuSans-Bold-5b" d="M 550 4863 
L 2491 4863 
L 2491 4159 
L 1613 4159 
L 1613 -141 
L 2491 -141 
L 2491 -844 
L 550 -844 
L 550 4863 
z
" transform="scale(0.015625)"/>
       <path id="DejaVuSans-Bold-68" d="M 4056 2131 
L 4056 0 
L 2931 0 
L 2931 347 
L 2931 1625 
Q 2931 2084 2911 2256 
Q 2891 2428 2841 2509 
Q 2775 2619 2662 2680 
Q 2550 2741 2406 2741 
Q 2056 2741 1856 2470 
Q 1656 2200 1656 1722 
L 1656 0 
L 538 0 
L 538 4863 
L 1656 4863 
L 1656 2988 
Q 1909 3294 2193 3439 
Q 2478 3584 2822 3584 
Q 3428 3584 3742 3212 
Q 4056 2841 4056 2131 
z
" transform="scale(0.015625)"/>
       <path id="DejaVuSans-Bold-72" d="M 3138 2547 
Q 2991 2616 2845 2648 
Q 2700 2681 2553 2681 
Q 2122 2681 1889 2404 
Q 1656 2128 1656 1613 
L 1656 0 
L 538 0 
L 538 3500 
L 1656 3500 
L 1656 2925 
Q 1872 3269 2151 3426 
Q 2431 3584 2822 3584 
Q 2878 3584 2943 3579 
Q 3009 3575 3134 3559 
L 3138 2547 
z
" transform="scale(0.015625)"/>
       <path id="DejaVuSans-Bold-5d" d="M 2375 -844 
L 434 -844 
L 434 -141 
L 1313 -141 
L 1313 4159 
L 434 4159 
L 434 4863 
L 2375 4863 
L 2375 -844 
z
" transform="scale(0.015625)"/>
      </defs>
      <use xlink:href="#DejaVuSans-Bold-74"/>
      <use xlink:href="#DejaVuSans-Bold-69" transform="translate(47.802734 0)"/>
      <use xlink:href="#DejaVuSans-Bold-6d" transform="translate(82.080078 0)"/>
      <use xlink:href="#DejaVuSans-Bold-65" transform="translate(186.279297 0)"/>
      <use xlink:href="#DejaVuSans-Bold-20" transform="translate(254.101562 0)"/>
      <use xlink:href="#DejaVuSans-Bold-5b" transform="translate(288.916016 0)"/>
      <use xlink:href="#DejaVuSans-Bold-68" transform="translate(334.619141 0)"/>
      <use xlink:href="#DejaVuSans-Bold-72" transform="translate(405.810547 0)"/>
      <use xlink:href="#DejaVuSans-Bold-5d" transform="translate(455.126953 0)"/>
     </g>
    </g>
   </g>
   <g id="matplotlib.axis_2">
    <g id="ytick_1">
     <g id="line2d_6">
      <defs>
       <path id="m45b223e447" d="M 0 0 
L -3.5 0 
" style="stroke: #000000; stroke-width: 0.8"/>
      </defs>
      <g>
       <use xlink:href="#m45b223e447" x="45.305" y="344.05169" style="stroke: #000000; stroke-width: 0.8"/>
      </g>
     </g>
     <g id="text_7">
      <!-- 0 -->
      <g transform="translate(28.76125 349.750518) scale(0.15 -0.15)">
       <use xlink:href="#DejaVuSans-30"/>
      </g>
     </g>
    </g>
    <g id="ytick_2">
     <g id="line2d_7">
      <g>
       <use xlink:href="#m45b223e447" x="45.305" y="284.357321" style="stroke: #000000; stroke-width: 0.8"/>
      </g>
     </g>
     <g id="text_8">
      <!-- 1 -->
      <g transform="translate(28.76125 290.05615) scale(0.15 -0.15)">
       <defs>
        <path id="DejaVuSans-31" d="M 794 531 
L 1825 531 
L 1825 4091 
L 703 3866 
L 703 4441 
L 1819 4666 
L 2450 4666 
L 2450 531 
L 3481 531 
L 3481 0 
L 794 0 
L 794 531 
z
" transform="scale(0.015625)"/>
       </defs>
       <use xlink:href="#DejaVuSans-31"/>
      </g>
     </g>
    </g>
    <g id="ytick_3">
     <g id="line2d_8">
      <g>
       <use xlink:href="#m45b223e447" x="45.305" y="224.662953" style="stroke: #000000; stroke-width: 0.8"/>
      </g>
     </g>
     <g id="text_9">
      <!-- 2 -->
      <g transform="translate(28.76125 230.361781) scale(0.15 -0.15)">
       <use xlink:href="#DejaVuSans-32"/>
      </g>
     </g>
    </g>
    <g id="ytick_4">
     <g id="line2d_9">
      <g>
       <use xlink:href="#m45b223e447" x="45.305" y="164.968585" style="stroke: #000000; stroke-width: 0.8"/>
      </g>
     </g>
     <g id="text_10">
      <!-- 3 -->
      <g transform="translate(28.76125 170.667413) scale(0.15 -0.15)">
       <defs>
        <path id="DejaVuSans-33" d="M 2597 2516 
Q 3050 2419 3304 2112 
Q 3559 1806 3559 1356 
Q 3559 666 3084 287 
Q 2609 -91 1734 -91 
Q 1441 -91 1130 -33 
Q 819 25 488 141 
L 488 750 
Q 750 597 1062 519 
Q 1375 441 1716 441 
Q 2309 441 2620 675 
Q 2931 909 2931 1356 
Q 2931 1769 2642 2001 
Q 2353 2234 1838 2234 
L 1294 2234 
L 1294 2753 
L 1863 2753 
Q 2328 2753 2575 2939 
Q 2822 3125 2822 3475 
Q 2822 3834 2567 4026 
Q 2313 4219 1838 4219 
Q 1578 4219 1281 4162 
Q 984 4106 628 3988 
L 628 4550 
Q 988 4650 1302 4700 
Q 1616 4750 1894 4750 
Q 2613 4750 3031 4423 
Q 3450 4097 3450 3541 
Q 3450 3153 3228 2886 
Q 3006 2619 2597 2516 
z
" transform="scale(0.015625)"/>
       </defs>
       <use xlink:href="#DejaVuSans-33"/>
      </g>
     </g>
    </g>
    <g id="ytick_5">
     <g id="line2d_10">
      <g>
       <use xlink:href="#m45b223e447" x="45.305" y="105.274217" style="stroke: #000000; stroke-width: 0.8"/>
      </g>
     </g>
     <g id="text_11">
      <!-- 4 -->
      <g transform="translate(28.76125 110.973045) scale(0.15 -0.15)">
       <use xlink:href="#DejaVuSans-34"/>
      </g>
     </g>
    </g>
    <g id="text_12">
     <!-- anti-FXa activity [IU/ml] -->
     <g transform="translate(20.877188 327.824156) rotate(-90) scale(0.18 -0.18)">
      <defs>
       <path id="DejaVuSans-Bold-61" d="M 2106 1575 
Q 1756 1575 1579 1456 
Q 1403 1338 1403 1106 
Q 1403 894 1545 773 
Q 1688 653 1941 653 
Q 2256 653 2472 879 
Q 2688 1106 2688 1447 
L 2688 1575 
L 2106 1575 
z
M 3816 1997 
L 3816 0 
L 2688 0 
L 2688 519 
Q 2463 200 2181 54 
Q 1900 -91 1497 -91 
Q 953 -91 614 226 
Q 275 544 275 1050 
Q 275 1666 698 1953 
Q 1122 2241 2028 2241 
L 2688 2241 
L 2688 2328 
Q 2688 2594 2478 2717 
Q 2269 2841 1825 2841 
Q 1466 2841 1156 2769 
Q 847 2697 581 2553 
L 581 3406 
Q 941 3494 1303 3539 
Q 1666 3584 2028 3584 
Q 2975 3584 3395 3211 
Q 3816 2838 3816 1997 
z
" transform="scale(0.015625)"/>
       <path id="DejaVuSans-Bold-6e" d="M 4056 2131 
L 4056 0 
L 2931 0 
L 2931 347 
L 2931 1631 
Q 2931 2084 2911 2256 
Q 2891 2428 2841 2509 
Q 2775 2619 2662 2680 
Q 2550 2741 2406 2741 
Q 2056 2741 1856 2470 
Q 1656 2200 1656 1722 
L 1656 0 
L 538 0 
L 538 3500 
L 1656 3500 
L 1656 2988 
Q 1909 3294 2193 3439 
Q 2478 3584 2822 3584 
Q 3428 3584 3742 3212 
Q 4056 2841 4056 2131 
z
" transform="scale(0.015625)"/>
       <path id="DejaVuSans-Bold-2d" d="M 347 2297 
L 2309 2297 
L 2309 1388 
L 347 1388 
L 347 2297 
z
" transform="scale(0.015625)"/>
       <path id="DejaVuSans-Bold-46" d="M 588 4666 
L 3834 4666 
L 3834 3756 
L 1791 3756 
L 1791 2888 
L 3713 2888 
L 3713 1978 
L 1791 1978 
L 1791 0 
L 588 0 
L 588 4666 
z
" transform="scale(0.015625)"/>
       <path id="DejaVuSans-Bold-58" d="M 3188 2381 
L 4806 0 
L 3553 0 
L 2463 1594 
L 1381 0 
L 122 0 
L 1741 2381 
L 184 4666 
L 1441 4666 
L 2463 3163 
L 3481 4666 
L 4744 4666 
L 3188 2381 
z
" transform="scale(0.015625)"/>
       <path id="DejaVuSans-Bold-63" d="M 3366 3391 
L 3366 2478 
Q 3138 2634 2908 2709 
Q 2678 2784 2431 2784 
Q 1963 2784 1702 2511 
Q 1441 2238 1441 1747 
Q 1441 1256 1702 982 
Q 1963 709 2431 709 
Q 2694 709 2930 787 
Q 3166 866 3366 1019 
L 3366 103 
Q 3103 6 2833 -42 
Q 2563 -91 2291 -91 
Q 1344 -91 809 395 
Q 275 881 275 1747 
Q 275 2613 809 3098 
Q 1344 3584 2291 3584 
Q 2566 3584 2833 3536 
Q 3100 3488 3366 3391 
z
" transform="scale(0.015625)"/>
       <path id="DejaVuSans-Bold-76" d="M 97 3500 
L 1216 3500 
L 2088 1081 
L 2956 3500 
L 4078 3500 
L 2700 0 
L 1472 0 
L 97 3500 
z
" transform="scale(0.015625)"/>
       <path id="DejaVuSans-Bold-79" d="M 78 3500 
L 1197 3500 
L 2138 1125 
L 2938 3500 
L 4056 3500 
L 2584 -331 
Q 2363 -916 2067 -1148 
Q 1772 -1381 1288 -1381 
L 641 -1381 
L 641 -647 
L 991 -647 
Q 1275 -647 1404 -556 
Q 1534 -466 1606 -231 
L 1638 -134 
L 78 3500 
z
" transform="scale(0.015625)"/>
       <path id="DejaVuSans-Bold-49" d="M 588 4666 
L 1791 4666 
L 1791 0 
L 588 0 
L 588 4666 
z
" transform="scale(0.015625)"/>
       <path id="DejaVuSans-Bold-55" d="M 588 4666 
L 1791 4666 
L 1791 1869 
Q 1791 1291 1980 1042 
Q 2169 794 2597 794 
Q 3028 794 3217 1042 
Q 3406 1291 3406 1869 
L 3406 4666 
L 4609 4666 
L 4609 1869 
Q 4609 878 4112 393 
Q 3616 -91 2597 -91 
Q 1581 -91 1084 393 
Q 588 878 588 1869 
L 588 4666 
z
" transform="scale(0.015625)"/>
       <path id="DejaVuSans-Bold-2f" d="M 1644 4666 
L 2338 4666 
L 691 -594 
L 0 -594 
L 1644 4666 
z
" transform="scale(0.015625)"/>
       <path id="DejaVuSans-Bold-6c" d="M 538 4863 
L 1656 4863 
L 1656 0 
L 538 0 
L 538 4863 
z
" transform="scale(0.015625)"/>
      </defs>
      <use xlink:href="#DejaVuSans-Bold-61"/>
      <use xlink:href="#DejaVuSans-Bold-6e" transform="translate(67.480469 0)"/>
      <use xlink:href="#DejaVuSans-Bold-74" transform="translate(138.671875 0)"/>
      <use xlink:href="#DejaVuSans-Bold-69" transform="translate(186.474609 0)"/>
      <use xlink:href="#DejaVuSans-Bold-2d" transform="translate(220.751953 0)"/>
      <use xlink:href="#DejaVuSans-Bold-46" transform="translate(262.255859 0)"/>
      <use xlink:href="#DejaVuSans-Bold-58" transform="translate(330.566406 0)"/>
      <use xlink:href="#DejaVuSans-Bold-61" transform="translate(407.666016 0)"/>
      <use xlink:href="#DejaVuSans-Bold-20" transform="translate(475.146484 0)"/>
      <use xlink:href="#DejaVuSans-Bold-61" transform="translate(509.960938 0)"/>
      <use xlink:href="#DejaVuSans-Bold-63" transform="translate(577.441406 0)"/>
      <use xlink:href="#DejaVuSans-Bold-74" transform="translate(636.71875 0)"/>
      <use xlink:href="#DejaVuSans-Bold-69" transform="translate(684.521484 0)"/>
      <use xlink:href="#DejaVuSans-Bold-76" transform="translate(718.798828 0)"/>
      <use xlink:href="#DejaVuSans-Bold-69" transform="translate(783.984375 0)"/>
      <use xlink:href="#DejaVuSans-Bold-74" transform="translate(818.261719 0)"/>
      <use xlink:href="#DejaVuSans-Bold-79" transform="translate(866.064453 0)"/>
      <use xlink:href="#DejaVuSans-Bold-20" transform="translate(931.25 0)"/>
      <use xlink:href="#DejaVuSans-Bold-5b" transform="translate(966.064453 0)"/>
      <use xlink:href="#DejaVuSans-Bold-49" transform="translate(1011.767578 0)"/>
      <use xlink:href="#DejaVuSans-Bold-55" transform="translate(1048.974609 0)"/>
      <use xlink:href="#DejaVuSans-Bold-2f" transform="translate(1130.175781 0)"/>
      <use xlink:href="#DejaVuSans-Bold-6d" transform="translate(1166.699219 0)"/>
      <use xlink:href="#DejaVuSans-Bold-6c" transform="translate(1270.898438 0)"/>
      <use xlink:href="#DejaVuSans-Bold-5d" transform="translate(1305.175781 0)"/>
     </g>
    </g>
   </g>
   <g id="LineCollection_1">
    <path clip-path="url(#p09f90a98a1)" style="fill: none; stroke: #000000"/>
    <path d="M 125.968012 339.014849 
L 125.968012 246.749869 
" clip-path="url(#p09f90a98a1)" style="fill: none; stroke: #000000"/>
    <path d="M 127.935402 275.634439 
L 127.935402 180.489121 
" clip-path="url(#p09f90a98a1)" style="fill: none; stroke: #000000"/>
    <path d="M 131.870183 203.4677 
L 131.870183 95.723118 
" clip-path="url(#p09f90a98a1)" style="fill: none; stroke: #000000"/>
    <path d="M 135.804964 182.558298 
L 135.804964 68.860652 
" clip-path="url(#p09f90a98a1)" style="fill: none; stroke: #000000"/>
    <path d="M 139.739745 199.248161 
L 139.739745 87.96285 
" clip-path="url(#p09f90a98a1)" style="fill: none; stroke: #000000"/>
    <path d="M 147.609307 234.930384 
L 147.609307 161.386923 
" clip-path="url(#p09f90a98a1)" style="fill: none; stroke: #000000"/>
    <path d="M 159.413651 286.972276 
L 159.413651 225.259897 
" clip-path="url(#p09f90a98a1)" style="fill: none; stroke: #000000"/>
    <path d="M 171.217994 306.509731 
L 171.217994 267.045955 
" clip-path="url(#p09f90a98a1)" style="fill: none; stroke: #000000"/>
    <path d="M 218.435366 332.878268 
L 218.435366 307.041181 
" clip-path="url(#p09f90a98a1)" style="fill: none; stroke: #000000"/>
    <path d="M 265.652739 332.747282 
L 265.652739 318.980055 
" clip-path="url(#p09f90a98a1)" style="fill: none; stroke: #000000"/>
    <path d="M 312.870112 349.431005 
L 312.870112 332.70976 
" clip-path="url(#p09f90a98a1)" style="fill: none; stroke: #000000"/>
    <path d="M 360.087484 349.661596 
L 360.087484 333.903647 
" clip-path="url(#p09f90a98a1)" style="fill: none; stroke: #000000"/>
    <path d="M 407.304857 349.884 
L 407.304857 335.097534 
" clip-path="url(#p09f90a98a1)" style="fill: none; stroke: #000000"/>
   </g>
   <g id="LineCollection_2">
    <path clip-path="url(#p09f90a98a1)" style="fill: none; stroke: #bcbd22"/>
    <path d="M 127.935402 282.64631 
L 127.935402 171.782612 
" clip-path="url(#p09f90a98a1)" style="fill: none; stroke: #bcbd22"/>
    <path d="M 131.870183 204.178575 
L 131.870183 88.198216 
" clip-path="url(#p09f90a98a1)" style="fill: none; stroke: #bcbd22"/>
    <path d="M 135.804964 176.873347 
L 135.804964 62.604 
" clip-path="url(#p09f90a98a1)" style="fill: none; stroke: #bcbd22"/>
    <path d="M 139.739745 195.630341 
L 139.739745 79.647254 
" clip-path="url(#p09f90a98a1)" style="fill: none; stroke: #bcbd22"/>
    <path d="M 147.609307 235.68765 
L 147.609307 155.521184 
" clip-path="url(#p09f90a98a1)" style="fill: none; stroke: #bcbd22"/>
    <path d="M 171.217994 296.161115 
L 171.217994 267.163979 
" clip-path="url(#p09f90a98a1)" style="fill: none; stroke: #bcbd22"/>
    <path d="M 218.435366 335.244212 
L 218.435366 307.955358 
" clip-path="url(#p09f90a98a1)" style="fill: none; stroke: #bcbd22"/>
    <path d="M 312.870112 339.22702 
L 312.870112 332.402078 
" clip-path="url(#p09f90a98a1)" style="fill: none; stroke: #bcbd22"/>
   </g>
   <g id="line2d_11">
    <path d="M 124.000621 344.05169 
L 124.37836 341.667405 
L 125.133838 328.318166 
L 127.022533 290.567202 
L 128.15575 271.903816 
L 129.288967 256.53671 
L 130.422184 244.084229 
L 131.555401 234.154884 
L 132.688618 226.397014 
L 133.821835 220.50238 
L 134.577313 217.473568 
L 135.33279 215.081867 
L 136.088268 213.262722 
L 136.843746 211.957327 
L 137.599224 211.112133 
L 138.354702 210.678397 
L 139.11018 210.611768 
L 139.865658 210.871908 
L 140.621136 211.422147 
L 141.376614 212.229167 
L 142.509831 213.855742 
L 143.643048 215.902063 
L 145.154004 219.14983 
L 147.042699 223.829955 
L 149.686872 231.11927 
L 154.975217 246.635281 
L 159.508085 259.596386 
L 162.907736 268.659256 
L 165.929648 276.122638 
L 168.95156 282.993733 
L 171.973472 289.271712 
L 174.617645 294.292742 
L 177.261817 298.893773 
L 179.90599 303.098774 
L 182.550163 306.933742 
L 185.194336 310.425358 
L 188.216248 314.029251 
L 191.23816 317.257347 
L 194.260072 320.145683 
L 197.281983 322.727814 
L 200.303895 325.034659 
L 203.703546 327.335903 
L 207.103197 329.360806 
L 210.502848 331.141852 
L 214.280238 332.86982 
L 218.435366 334.505531 
L 222.590495 335.902523 
L 227.123363 337.194807 
L 232.03397 338.364844 
L 237.322315 339.402793 
L 243.366139 340.359261 
L 250.165441 341.202252 
L 257.72022 341.91524 
L 266.785956 342.539498 
L 277.740386 343.055713 
L 291.33899 343.458611 
L 309.470461 343.754572 
L 335.912189 343.943257 
L 385.395996 344.035249 
L 419.392504 344.047191 
L 419.392504 344.047191 
" clip-path="url(#p09f90a98a1)" style="fill: none; stroke: #000000; stroke-width: 2; stroke-linecap: square"/>
   </g>
   <g id="line2d_12">
    <path d="M 124.000621 344.05169 
L 125.968012 292.882359 
L 127.935402 228.06178 
L 131.870183 149.595409 
L 135.804964 125.709475 
L 139.739745 143.605506 
L 147.609307 198.158654 
L 159.413651 256.116086 
L 171.217994 286.777843 
L 218.435366 319.959725 
L 265.652739 325.863668 
L 312.870112 341.070382 
L 360.087484 341.782621 
L 407.304857 342.490767 
" clip-path="url(#p09f90a98a1)" style="fill: none; stroke-dasharray: 3.7,1.6; stroke-dashoffset: 0; stroke: #000000"/>
    <defs>
     <path id="m1b120daaae" d="M -3 3 
L 3 3 
L 3 -3 
L -3 -3 
z
" style="stroke: #000000; stroke-linejoin: miter"/>
    </defs>
    <g clip-path="url(#p09f90a98a1)">
     <use xlink:href="#m1b120daaae" x="124.000621" y="344.05169" style="stroke: #000000; stroke-linejoin: miter"/>
     <use xlink:href="#m1b120daaae" x="125.968012" y="292.882359" style="stroke: #000000; stroke-linejoin: miter"/>
     <use xlink:href="#m1b120daaae" x="127.935402" y="228.06178" style="stroke: #000000; stroke-linejoin: miter"/>
     <use xlink:href="#m1b120daaae" x="131.870183" y="149.595409" style="stroke: #000000; stroke-linejoin: miter"/>
     <use xlink:href="#m1b120daaae" x="135.804964" y="125.709475" style="stroke: #000000; stroke-linejoin: miter"/>
     <use xlink:href="#m1b120daaae" x="139.739745" y="143.605506" style="stroke: #000000; stroke-linejoin: miter"/>
     <use xlink:href="#m1b120daaae" x="147.609307" y="198.158654" style="stroke: #000000; stroke-linejoin: miter"/>
     <use xlink:href="#m1b120daaae" x="159.413651" y="256.116086" style="stroke: #000000; stroke-linejoin: miter"/>
     <use xlink:href="#m1b120daaae" x="171.217994" y="286.777843" style="stroke: #000000; stroke-linejoin: miter"/>
     <use xlink:href="#m1b120daaae" x="218.435366" y="319.959725" style="stroke: #000000; stroke-linejoin: miter"/>
     <use xlink:href="#m1b120daaae" x="265.652739" y="325.863668" style="stroke: #000000; stroke-linejoin: miter"/>
     <use xlink:href="#m1b120daaae" x="312.870112" y="341.070382" style="stroke: #000000; stroke-linejoin: miter"/>
     <use xlink:href="#m1b120daaae" x="360.087484" y="341.782621" style="stroke: #000000; stroke-linejoin: miter"/>
     <use xlink:href="#m1b120daaae" x="407.304857" y="342.490767" style="stroke: #000000; stroke-linejoin: miter"/>
    </g>
   </g>
   <g id="line2d_13">
    <path d="M 45.226304 201.194169 
L 46.249347 202.979754 
L 47.508477 205.64501 
L 49.08239 209.547427 
L 51.04978 215.068585 
L 53.804127 223.524704 
L 64.34934 256.554264 
L 67.575861 265.62603 
L 70.566294 273.392516 
L 73.478032 280.343814 
L 76.311075 286.536575 
L 76.861944 287.622157 
L 76.94064 287.534428 
L 77.098031 286.776874 
L 77.412813 283.685332 
L 78.121074 273.539888 
L 79.931073 247.148186 
L 81.111508 233.456835 
L 82.213246 223.259352 
L 83.236289 215.755744 
L 84.180637 210.297651 
L 85.124984 206.074294 
L 85.990636 203.157422 
L 86.777592 201.206574 
L 87.485853 199.960366 
L 88.194113 199.147747 
L 88.823678 198.754342 
L 89.453243 198.641317 
L 90.082808 198.782838 
L 90.712373 199.155044 
L 91.49933 199.911295 
L 92.364981 201.073016 
L 93.388024 202.829326 
L 94.647154 205.465255 
L 96.142371 209.13339 
L 98.031066 214.376923 
L 100.706717 222.531286 
L 112.274974 258.604442 
L 115.422798 267.313551 
L 118.413232 274.946578 
L 121.32497 281.768028 
L 124.000621 287.515351 
L 124.000621 287.515351 
L 124.37836 286.297451 
L 125.133838 276.670959 
L 127.022533 248.788202 
L 128.15575 235.278384 
L 129.288967 224.44139 
L 130.422184 215.960876 
L 131.555401 209.512333 
L 132.310879 206.196832 
L 133.066357 203.577013 
L 133.821835 201.582439 
L 134.577313 200.148922 
L 135.33279 199.218005 
L 136.088268 198.736473 
L 136.843746 198.655906 
L 137.599224 198.932264 
L 138.354702 199.525513 
L 139.11018 200.399276 
L 140.243397 202.164457 
L 141.376614 204.388276 
L 142.88757 207.920934 
L 144.776265 213.014997 
L 147.420438 220.95306 
L 152.708784 237.857733 
L 157.241651 251.982921 
L 160.641302 261.861034 
L 163.663214 269.996335 
L 166.685126 277.486374 
L 169.707038 284.330104 
L 172.351211 289.803749 
L 174.995383 294.819624 
L 177.639556 299.403827 
L 180.283729 303.584675 
L 182.927902 307.391239 
L 185.572075 310.852349 
L 188.593987 314.420682 
L 191.615899 317.61385 
L 194.637811 320.468782 
L 197.659722 323.019544 
L 200.681634 325.297309 
L 204.081285 327.568674 
L 207.480936 329.56666 
L 210.880587 331.32361 
L 214.657977 333.027875 
L 218.813105 334.640896 
L 222.968234 336.018343 
L 227.501102 337.292433 
L 232.411709 338.445919 
L 238.077793 339.534634 
L 244.121617 340.464018 
L 250.920919 341.283115 
L 258.853437 342.005556 
L 267.919173 342.603429 
L 278.873603 343.097822 
L 292.849946 343.491807 
L 311.359156 343.775212 
L 338.934101 343.955056 
L 392.195298 344.039003 
L 419.392504 344.047191 
L 419.392504 344.047191 
" clip-path="url(#p09f90a98a1)" style="fill: none; stroke: #bcbd22; stroke-width: 2; stroke-linecap: square"/>
   </g>
   <g id="line2d_14">
    <path d="M 124.000621 344.05169 
L 127.935402 227.214461 
L 131.870183 146.188396 
L 135.804964 119.738674 
L 139.739745 137.638798 
L 147.609307 195.604417 
L 171.217994 281.662547 
L 218.435366 321.599785 
L 312.870112 335.814549 
" clip-path="url(#p09f90a98a1)" style="fill: none; stroke-dasharray: 3.7,1.6; stroke-dashoffset: 0; stroke: #bcbd22"/>
    <defs>
     <path id="ma36505077e" d="M -3 3 
L 3 3 
L 3 -3 
L -3 -3 
z
" style="stroke: #000000; stroke-linejoin: miter"/>
    </defs>
    <g clip-path="url(#p09f90a98a1)">
     <use xlink:href="#ma36505077e" x="124.000621" y="344.05169" style="fill: #bcbd22; stroke: #000000; stroke-linejoin: miter"/>
     <use xlink:href="#ma36505077e" x="127.935402" y="227.214461" style="fill: #bcbd22; stroke: #000000; stroke-linejoin: miter"/>
     <use xlink:href="#ma36505077e" x="131.870183" y="146.188396" style="fill: #bcbd22; stroke: #000000; stroke-linejoin: miter"/>
     <use xlink:href="#ma36505077e" x="135.804964" y="119.738674" style="fill: #bcbd22; stroke: #000000; stroke-linejoin: miter"/>
     <use xlink:href="#ma36505077e" x="139.739745" y="137.638798" style="fill: #bcbd22; stroke: #000000; stroke-linejoin: miter"/>
     <use xlink:href="#ma36505077e" x="147.609307" y="195.604417" style="fill: #bcbd22; stroke: #000000; stroke-linejoin: miter"/>
     <use xlink:href="#ma36505077e" x="171.217994" y="281.662547" style="fill: #bcbd22; stroke: #000000; stroke-linejoin: miter"/>
     <use xlink:href="#ma36505077e" x="218.435366" y="321.599785" style="fill: #bcbd22; stroke: #000000; stroke-linejoin: miter"/>
     <use xlink:href="#ma36505077e" x="312.870112" y="335.814549" style="fill: #bcbd22; stroke: #000000; stroke-linejoin: miter"/>
    </g>
   </g>
   <g id="patch_3">
    <path d="M 45.305 364.248 
L 45.305 48.24 
" style="fill: none; stroke: #000000; stroke-width: 0.8; stroke-linejoin: miter; stroke-linecap: square"/>
   </g>
   <g id="patch_4">
    <path d="M 419.1092 364.248 
L 419.1092 48.24 
" style="fill: none; stroke: #000000; stroke-width: 0.8; stroke-linejoin: miter; stroke-linecap: square"/>
   </g>
   <g id="patch_5">
    <path d="M 45.305 364.248 
L 419.1092 364.248 
" style="fill: none; stroke: #000000; stroke-width: 0.8; stroke-linejoin: miter; stroke-linecap: square"/>
   </g>
   <g id="patch_6">
    <path d="M 45.305 48.24 
L 419.1092 48.24 
" style="fill: none; stroke: #000000; stroke-width: 0.8; stroke-linejoin: miter; stroke-linecap: square"/>
   </g>
   <g id="legend_1">
    <g id="patch_7">
     <path d="M 144.573575 134.96625 
L 410.0092 134.96625 
Q 412.6092 134.96625 412.6092 132.36625 
L 412.6092 57.34 
Q 412.6092 54.74 410.0092 54.74 
L 144.573575 54.74 
Q 141.973575 54.74 141.973575 57.34 
L 141.973575 132.36625 
Q 141.973575 134.96625 144.573575 134.96625 
z
" style="fill: #ffffff; opacity: 0.8; stroke: #cccccc; stroke-linejoin: miter"/>
    </g>
    <g id="line2d_15">
     <path d="M 147.173575 65.267969 
L 173.173575 65.267969 
" style="fill: none; stroke: #000000; stroke-width: 2; stroke-linecap: square"/>
    </g>
    <g id="line2d_16"/>
    <g id="text_13">
     <!-- sim single 10mg PO -->
     <g transform="translate(183.573575 69.817969) scale(0.13 -0.13)">
      <defs>
       <path id="DejaVuSans-73" d="M 2834 3397 
L 2834 2853 
Q 2591 2978 2328 3040 
Q 2066 3103 1784 3103 
Q 1356 3103 1142 2972 
Q 928 2841 928 2578 
Q 928 2378 1081 2264 
Q 1234 2150 1697 2047 
L 1894 2003 
Q 2506 1872 2764 1633 
Q 3022 1394 3022 966 
Q 3022 478 2636 193 
Q 2250 -91 1575 -91 
Q 1294 -91 989 -36 
Q 684 19 347 128 
L 347 722 
Q 666 556 975 473 
Q 1284 391 1588 391 
Q 1994 391 2212 530 
Q 2431 669 2431 922 
Q 2431 1156 2273 1281 
Q 2116 1406 1581 1522 
L 1381 1569 
Q 847 1681 609 1914 
Q 372 2147 372 2553 
Q 372 3047 722 3315 
Q 1072 3584 1716 3584 
Q 2034 3584 2315 3537 
Q 2597 3491 2834 3397 
z
" transform="scale(0.015625)"/>
       <path id="DejaVuSans-69" d="M 603 3500 
L 1178 3500 
L 1178 0 
L 603 0 
L 603 3500 
z
M 603 4863 
L 1178 4863 
L 1178 4134 
L 603 4134 
L 603 4863 
z
" transform="scale(0.015625)"/>
       <path id="DejaVuSans-6d" d="M 3328 2828 
Q 3544 3216 3844 3400 
Q 4144 3584 4550 3584 
Q 5097 3584 5394 3201 
Q 5691 2819 5691 2113 
L 5691 0 
L 5113 0 
L 5113 2094 
Q 5113 2597 4934 2840 
Q 4756 3084 4391 3084 
Q 3944 3084 3684 2787 
Q 3425 2491 3425 1978 
L 3425 0 
L 2847 0 
L 2847 2094 
Q 2847 2600 2669 2842 
Q 2491 3084 2119 3084 
Q 1678 3084 1418 2786 
Q 1159 2488 1159 1978 
L 1159 0 
L 581 0 
L 581 3500 
L 1159 3500 
L 1159 2956 
Q 1356 3278 1631 3431 
Q 1906 3584 2284 3584 
Q 2666 3584 2933 3390 
Q 3200 3197 3328 2828 
z
" transform="scale(0.015625)"/>
       <path id="DejaVuSans-20" transform="scale(0.015625)"/>
       <path id="DejaVuSans-6e" d="M 3513 2113 
L 3513 0 
L 2938 0 
L 2938 2094 
Q 2938 2591 2744 2837 
Q 2550 3084 2163 3084 
Q 1697 3084 1428 2787 
Q 1159 2491 1159 1978 
L 1159 0 
L 581 0 
L 581 3500 
L 1159 3500 
L 1159 2956 
Q 1366 3272 1645 3428 
Q 1925 3584 2291 3584 
Q 2894 3584 3203 3211 
Q 3513 2838 3513 2113 
z
" transform="scale(0.015625)"/>
       <path id="DejaVuSans-67" d="M 2906 1791 
Q 2906 2416 2648 2759 
Q 2391 3103 1925 3103 
Q 1463 3103 1205 2759 
Q 947 2416 947 1791 
Q 947 1169 1205 825 
Q 1463 481 1925 481 
Q 2391 481 2648 825 
Q 2906 1169 2906 1791 
z
M 3481 434 
Q 3481 -459 3084 -895 
Q 2688 -1331 1869 -1331 
Q 1566 -1331 1297 -1286 
Q 1028 -1241 775 -1147 
L 775 -588 
Q 1028 -725 1275 -790 
Q 1522 -856 1778 -856 
Q 2344 -856 2625 -561 
Q 2906 -266 2906 331 
L 2906 616 
Q 2728 306 2450 153 
Q 2172 0 1784 0 
Q 1141 0 747 490 
Q 353 981 353 1791 
Q 353 2603 747 3093 
Q 1141 3584 1784 3584 
Q 2172 3584 2450 3431 
Q 2728 3278 2906 2969 
L 2906 3500 
L 3481 3500 
L 3481 434 
z
" transform="scale(0.015625)"/>
       <path id="DejaVuSans-6c" d="M 603 4863 
L 1178 4863 
L 1178 0 
L 603 0 
L 603 4863 
z
" transform="scale(0.015625)"/>
       <path id="DejaVuSans-65" d="M 3597 1894 
L 3597 1613 
L 953 1613 
Q 991 1019 1311 708 
Q 1631 397 2203 397 
Q 2534 397 2845 478 
Q 3156 559 3463 722 
L 3463 178 
Q 3153 47 2828 -22 
Q 2503 -91 2169 -91 
Q 1331 -91 842 396 
Q 353 884 353 1716 
Q 353 2575 817 3079 
Q 1281 3584 2069 3584 
Q 2775 3584 3186 3129 
Q 3597 2675 3597 1894 
z
M 3022 2063 
Q 3016 2534 2758 2815 
Q 2500 3097 2075 3097 
Q 1594 3097 1305 2825 
Q 1016 2553 972 2059 
L 3022 2063 
z
" transform="scale(0.015625)"/>
       <path id="DejaVuSans-50" d="M 1259 4147 
L 1259 2394 
L 2053 2394 
Q 2494 2394 2734 2622 
Q 2975 2850 2975 3272 
Q 2975 3691 2734 3919 
Q 2494 4147 2053 4147 
L 1259 4147 
z
M 628 4666 
L 2053 4666 
Q 2838 4666 3239 4311 
Q 3641 3956 3641 3272 
Q 3641 2581 3239 2228 
Q 2838 1875 2053 1875 
L 1259 1875 
L 1259 0 
L 628 0 
L 628 4666 
z
" transform="scale(0.015625)"/>
       <path id="DejaVuSans-4f" d="M 2522 4238 
Q 1834 4238 1429 3725 
Q 1025 3213 1025 2328 
Q 1025 1447 1429 934 
Q 1834 422 2522 422 
Q 3209 422 3611 934 
Q 4013 1447 4013 2328 
Q 4013 3213 3611 3725 
Q 3209 4238 2522 4238 
z
M 2522 4750 
Q 3503 4750 4090 4092 
Q 4678 3434 4678 2328 
Q 4678 1225 4090 567 
Q 3503 -91 2522 -91 
Q 1538 -91 948 565 
Q 359 1222 359 2328 
Q 359 3434 948 4092 
Q 1538 4750 2522 4750 
z
" transform="scale(0.015625)"/>
      </defs>
      <use xlink:href="#DejaVuSans-73"/>
      <use xlink:href="#DejaVuSans-69" transform="translate(52.099609 0)"/>
      <use xlink:href="#DejaVuSans-6d" transform="translate(79.882812 0)"/>
      <use xlink:href="#DejaVuSans-20" transform="translate(177.294922 0)"/>
      <use xlink:href="#DejaVuSans-73" transform="translate(209.082031 0)"/>
      <use xlink:href="#DejaVuSans-69" transform="translate(261.181641 0)"/>
      <use xlink:href="#DejaVuSans-6e" transform="translate(288.964844 0)"/>
      <use xlink:href="#DejaVuSans-67" transform="translate(352.34375 0)"/>
      <use xlink:href="#DejaVuSans-6c" transform="translate(415.820312 0)"/>
      <use xlink:href="#DejaVuSans-65" transform="translate(443.603516 0)"/>
      <use xlink:href="#DejaVuSans-20" transform="translate(505.126953 0)"/>
      <use xlink:href="#DejaVuSans-31" transform="translate(536.914062 0)"/>
      <use xlink:href="#DejaVuSans-30" transform="translate(600.537109 0)"/>
      <use xlink:href="#DejaVuSans-6d" transform="translate(664.160156 0)"/>
      <use xlink:href="#DejaVuSans-67" transform="translate(761.572266 0)"/>
      <use xlink:href="#DejaVuSans-20" transform="translate(825.048828 0)"/>
      <use xlink:href="#DejaVuSans-50" transform="translate(856.835938 0)"/>
      <use xlink:href="#DejaVuSans-4f" transform="translate(917.138672 0)"/>
     </g>
    </g>
    <g id="LineCollection_3">
     <path d="M 160.173575 90.849531 
L 160.173575 77.849531 
" style="fill: none; stroke: #000000"/>
    </g>
    <g id="line2d_17">
     <path d="M 147.173575 84.349531 
L 173.173575 84.349531 
" style="fill: none; stroke-dasharray: 3.7,1.6; stroke-dashoffset: 0; stroke: #000000"/>
    </g>
    <g id="line2d_18">
     <g>
      <use xlink:href="#m1b120daaae" x="160.173575" y="84.349531" style="stroke: #000000; stroke-linejoin: miter"/>
     </g>
    </g>
    <g id="text_14">
     <!-- exp single 10mg PO±SD (n=12) -->
     <g transform="translate(183.573575 88.899531) scale(0.13 -0.13)">
      <defs>
       <path id="DejaVuSans-78" d="M 3513 3500 
L 2247 1797 
L 3578 0 
L 2900 0 
L 1881 1375 
L 863 0 
L 184 0 
L 1544 1831 
L 300 3500 
L 978 3500 
L 1906 2253 
L 2834 3500 
L 3513 3500 
z
" transform="scale(0.015625)"/>
       <path id="DejaVuSans-70" d="M 1159 525 
L 1159 -1331 
L 581 -1331 
L 581 3500 
L 1159 3500 
L 1159 2969 
Q 1341 3281 1617 3432 
Q 1894 3584 2278 3584 
Q 2916 3584 3314 3078 
Q 3713 2572 3713 1747 
Q 3713 922 3314 415 
Q 2916 -91 2278 -91 
Q 1894 -91 1617 61 
Q 1341 213 1159 525 
z
M 3116 1747 
Q 3116 2381 2855 2742 
Q 2594 3103 2138 3103 
Q 1681 3103 1420 2742 
Q 1159 2381 1159 1747 
Q 1159 1113 1420 752 
Q 1681 391 2138 391 
Q 2594 391 2855 752 
Q 3116 1113 3116 1747 
z
" transform="scale(0.015625)"/>
       <path id="DejaVuSans-b1" d="M 2944 4013 
L 2944 2803 
L 4684 2803 
L 4684 2272 
L 2944 2272 
L 2944 1063 
L 2419 1063 
L 2419 2272 
L 678 2272 
L 678 2803 
L 2419 2803 
L 2419 4013 
L 2944 4013 
z
M 678 531 
L 4684 531 
L 4684 0 
L 678 0 
L 678 531 
z
" transform="scale(0.015625)"/>
       <path id="DejaVuSans-53" d="M 3425 4513 
L 3425 3897 
Q 3066 4069 2747 4153 
Q 2428 4238 2131 4238 
Q 1616 4238 1336 4038 
Q 1056 3838 1056 3469 
Q 1056 3159 1242 3001 
Q 1428 2844 1947 2747 
L 2328 2669 
Q 3034 2534 3370 2195 
Q 3706 1856 3706 1288 
Q 3706 609 3251 259 
Q 2797 -91 1919 -91 
Q 1588 -91 1214 -16 
Q 841 59 441 206 
L 441 856 
Q 825 641 1194 531 
Q 1563 422 1919 422 
Q 2459 422 2753 634 
Q 3047 847 3047 1241 
Q 3047 1584 2836 1778 
Q 2625 1972 2144 2069 
L 1759 2144 
Q 1053 2284 737 2584 
Q 422 2884 422 3419 
Q 422 4038 858 4394 
Q 1294 4750 2059 4750 
Q 2388 4750 2728 4690 
Q 3069 4631 3425 4513 
z
" transform="scale(0.015625)"/>
       <path id="DejaVuSans-44" d="M 1259 4147 
L 1259 519 
L 2022 519 
Q 2988 519 3436 956 
Q 3884 1394 3884 2338 
Q 3884 3275 3436 3711 
Q 2988 4147 2022 4147 
L 1259 4147 
z
M 628 4666 
L 1925 4666 
Q 3281 4666 3915 4102 
Q 4550 3538 4550 2338 
Q 4550 1131 3912 565 
Q 3275 0 1925 0 
L 628 0 
L 628 4666 
z
" transform="scale(0.015625)"/>
       <path id="DejaVuSans-28" d="M 1984 4856 
Q 1566 4138 1362 3434 
Q 1159 2731 1159 2009 
Q 1159 1288 1364 580 
Q 1569 -128 1984 -844 
L 1484 -844 
Q 1016 -109 783 600 
Q 550 1309 550 2009 
Q 550 2706 781 3412 
Q 1013 4119 1484 4856 
L 1984 4856 
z
" transform="scale(0.015625)"/>
       <path id="DejaVuSans-3d" d="M 678 2906 
L 4684 2906 
L 4684 2381 
L 678 2381 
L 678 2906 
z
M 678 1631 
L 4684 1631 
L 4684 1100 
L 678 1100 
L 678 1631 
z
" transform="scale(0.015625)"/>
       <path id="DejaVuSans-29" d="M 513 4856 
L 1013 4856 
Q 1481 4119 1714 3412 
Q 1947 2706 1947 2009 
Q 1947 1309 1714 600 
Q 1481 -109 1013 -844 
L 513 -844 
Q 928 -128 1133 580 
Q 1338 1288 1338 2009 
Q 1338 2731 1133 3434 
Q 928 4138 513 4856 
z
" transform="scale(0.015625)"/>
      </defs>
      <use xlink:href="#DejaVuSans-65"/>
      <use xlink:href="#DejaVuSans-78" transform="translate(59.773438 0)"/>
      <use xlink:href="#DejaVuSans-70" transform="translate(118.953125 0)"/>
      <use xlink:href="#DejaVuSans-20" transform="translate(182.429688 0)"/>
      <use xlink:href="#DejaVuSans-73" transform="translate(214.216797 0)"/>
      <use xlink:href="#DejaVuSans-69" transform="translate(266.316406 0)"/>
      <use xlink:href="#DejaVuSans-6e" transform="translate(294.099609 0)"/>
      <use xlink:href="#DejaVuSans-67" transform="translate(357.478516 0)"/>
      <use xlink:href="#DejaVuSans-6c" transform="translate(420.955078 0)"/>
      <use xlink:href="#DejaVuSans-65" transform="translate(448.738281 0)"/>
      <use xlink:href="#DejaVuSans-20" transform="translate(510.261719 0)"/>
      <use xlink:href="#DejaVuSans-31" transform="translate(542.048828 0)"/>
      <use xlink:href="#DejaVuSans-30" transform="translate(605.671875 0)"/>
      <use xlink:href="#DejaVuSans-6d" transform="translate(669.294922 0)"/>
      <use xlink:href="#DejaVuSans-67" transform="translate(766.707031 0)"/>
      <use xlink:href="#DejaVuSans-20" transform="translate(830.183594 0)"/>
      <use xlink:href="#DejaVuSans-50" transform="translate(861.970703 0)"/>
      <use xlink:href="#DejaVuSans-4f" transform="translate(922.273438 0)"/>
      <use xlink:href="#DejaVuSans-b1" transform="translate(1000.984375 0)"/>
      <use xlink:href="#DejaVuSans-53" transform="translate(1084.773438 0)"/>
      <use xlink:href="#DejaVuSans-44" transform="translate(1148.25 0)"/>
      <use xlink:href="#DejaVuSans-20" transform="translate(1225.251953 0)"/>
      <use xlink:href="#DejaVuSans-28" transform="translate(1257.039062 0)"/>
      <use xlink:href="#DejaVuSans-6e" transform="translate(1296.052734 0)"/>
      <use xlink:href="#DejaVuSans-3d" transform="translate(1359.431641 0)"/>
      <use xlink:href="#DejaVuSans-31" transform="translate(1443.220703 0)"/>
      <use xlink:href="#DejaVuSans-32" transform="translate(1506.84375 0)"/>
      <use xlink:href="#DejaVuSans-29" transform="translate(1570.466797 0)"/>
     </g>
    </g>
    <g id="line2d_19">
     <path d="M 147.173575 103.431094 
L 173.173575 103.431094 
" style="fill: none; stroke: #bcbd22; stroke-width: 2; stroke-linecap: square"/>
    </g>
    <g id="line2d_20"/>
    <g id="text_15">
     <!-- sim multiple 10mg PO -->
     <g transform="translate(183.573575 107.981094) scale(0.13 -0.13)">
      <defs>
       <path id="DejaVuSans-75" d="M 544 1381 
L 544 3500 
L 1119 3500 
L 1119 1403 
Q 1119 906 1312 657 
Q 1506 409 1894 409 
Q 2359 409 2629 706 
Q 2900 1003 2900 1516 
L 2900 3500 
L 3475 3500 
L 3475 0 
L 2900 0 
L 2900 538 
Q 2691 219 2414 64 
Q 2138 -91 1772 -91 
Q 1169 -91 856 284 
Q 544 659 544 1381 
z
M 1991 3584 
L 1991 3584 
z
" transform="scale(0.015625)"/>
       <path id="DejaVuSans-74" d="M 1172 4494 
L 1172 3500 
L 2356 3500 
L 2356 3053 
L 1172 3053 
L 1172 1153 
Q 1172 725 1289 603 
Q 1406 481 1766 481 
L 2356 481 
L 2356 0 
L 1766 0 
Q 1100 0 847 248 
Q 594 497 594 1153 
L 594 3053 
L 172 3053 
L 172 3500 
L 594 3500 
L 594 4494 
L 1172 4494 
z
" transform="scale(0.015625)"/>
      </defs>
      <use xlink:href="#DejaVuSans-73"/>
      <use xlink:href="#DejaVuSans-69" transform="translate(52.099609 0)"/>
      <use xlink:href="#DejaVuSans-6d" transform="translate(79.882812 0)"/>
      <use xlink:href="#DejaVuSans-20" transform="translate(177.294922 0)"/>
      <use xlink:href="#DejaVuSans-6d" transform="translate(209.082031 0)"/>
      <use xlink:href="#DejaVuSans-75" transform="translate(306.494141 0)"/>
      <use xlink:href="#DejaVuSans-6c" transform="translate(369.873047 0)"/>
      <use xlink:href="#DejaVuSans-74" transform="translate(397.65625 0)"/>
      <use xlink:href="#DejaVuSans-69" transform="translate(436.865234 0)"/>
      <use xlink:href="#DejaVuSans-70" transform="translate(464.648438 0)"/>
      <use xlink:href="#DejaVuSans-6c" transform="translate(528.125 0)"/>
      <use xlink:href="#DejaVuSans-65" transform="translate(555.908203 0)"/>
      <use xlink:href="#DejaVuSans-20" transform="translate(617.431641 0)"/>
      <use xlink:href="#DejaVuSans-31" transform="translate(649.21875 0)"/>
      <use xlink:href="#DejaVuSans-30" transform="translate(712.841797 0)"/>
      <use xlink:href="#DejaVuSans-6d" transform="translate(776.464844 0)"/>
      <use xlink:href="#DejaVuSans-67" transform="translate(873.876953 0)"/>
      <use xlink:href="#DejaVuSans-20" transform="translate(937.353516 0)"/>
      <use xlink:href="#DejaVuSans-50" transform="translate(969.140625 0)"/>
      <use xlink:href="#DejaVuSans-4f" transform="translate(1029.443359 0)"/>
     </g>
    </g>
    <g id="LineCollection_4">
     <path d="M 160.173575 129.012656 
L 160.173575 116.012656 
" style="fill: none; stroke: #bcbd22"/>
    </g>
    <g id="line2d_21">
     <path d="M 147.173575 122.512656 
L 173.173575 122.512656 
" style="fill: none; stroke-dasharray: 3.7,1.6; stroke-dashoffset: 0; stroke: #bcbd22"/>
    </g>
    <g id="line2d_22">
     <g>
      <use xlink:href="#ma36505077e" x="160.173575" y="122.512656" style="fill: #bcbd22; stroke: #000000; stroke-linejoin: miter"/>
     </g>
    </g>
    <g id="text_16">
     <!-- exp multiple 10mg PO±SD (n=12) -->
     <g transform="translate(183.573575 127.062656) scale(0.13 -0.13)">
      <use xlink:href="#DejaVuSans-65"/>
      <use xlink:href="#DejaVuSans-78" transform="translate(59.773438 0)"/>
      <use xlink:href="#DejaVuSans-70" transform="translate(118.953125 0)"/>
      <use xlink:href="#DejaVuSans-20" transform="translate(182.429688 0)"/>
      <use xlink:href="#DejaVuSans-6d" transform="translate(214.216797 0)"/>
      <use xlink:href="#DejaVuSans-75" transform="translate(311.628906 0)"/>
      <use xlink:href="#DejaVuSans-6c" transform="translate(375.007812 0)"/>
      <use xlink:href="#DejaVuSans-74" transform="translate(402.791016 0)"/>
      <use xlink:href="#DejaVuSans-69" transform="translate(442 0)"/>
      <use xlink:href="#DejaVuSans-70" transform="translate(469.783203 0)"/>
      <use xlink:href="#DejaVuSans-6c" transform="translate(533.259766 0)"/>
      <use xlink:href="#DejaVuSans-65" transform="translate(561.042969 0)"/>
      <use xlink:href="#DejaVuSans-20" transform="translate(622.566406 0)"/>
      <use xlink:href="#DejaVuSans-31" transform="translate(654.353516 0)"/>
      <use xlink:href="#DejaVuSans-30" transform="translate(717.976562 0)"/>
      <use xlink:href="#DejaVuSans-6d" transform="translate(781.599609 0)"/>
      <use xlink:href="#DejaVuSans-67" transform="translate(879.011719 0)"/>
      <use xlink:href="#DejaVuSans-20" transform="translate(942.488281 0)"/>
      <use xlink:href="#DejaVuSans-50" transform="translate(974.275391 0)"/>
      <use xlink:href="#DejaVuSans-4f" transform="translate(1034.578125 0)"/>
      <use xlink:href="#DejaVuSans-b1" transform="translate(1113.289062 0)"/>
      <use xlink:href="#DejaVuSans-53" transform="translate(1197.078125 0)"/>
      <use xlink:href="#DejaVuSans-44" transform="translate(1260.554688 0)"/>
      <use xlink:href="#DejaVuSans-20" transform="translate(1337.556641 0)"/>
      <use xlink:href="#DejaVuSans-28" transform="translate(1369.34375 0)"/>
      <use xlink:href="#DejaVuSans-6e" transform="translate(1408.357422 0)"/>
      <use xlink:href="#DejaVuSans-3d" transform="translate(1471.736328 0)"/>
      <use xlink:href="#DejaVuSans-31" transform="translate(1555.525391 0)"/>
      <use xlink:href="#DejaVuSans-32" transform="translate(1619.148438 0)"/>
      <use xlink:href="#DejaVuSans-29" transform="translate(1682.771484 0)"/>
     </g>
    </g>
   </g>
  </g>
  <g id="text_17">
   <!-- Cui2013 -->
   <g transform="translate(169.031516 26.196094) scale(0.25 -0.25)">
    <defs>
     <path id="DejaVuSans-Bold-43" d="M 4288 256 
Q 3956 84 3597 -3 
Q 3238 -91 2847 -91 
Q 1681 -91 1000 561 
Q 319 1213 319 2328 
Q 319 3447 1000 4098 
Q 1681 4750 2847 4750 
Q 3238 4750 3597 4662 
Q 3956 4575 4288 4403 
L 4288 3438 
Q 3953 3666 3628 3772 
Q 3303 3878 2944 3878 
Q 2300 3878 1931 3465 
Q 1563 3053 1563 2328 
Q 1563 1606 1931 1193 
Q 2300 781 2944 781 
Q 3303 781 3628 887 
Q 3953 994 4288 1222 
L 4288 256 
z
" transform="scale(0.015625)"/>
     <path id="DejaVuSans-Bold-75" d="M 500 1363 
L 500 3500 
L 1625 3500 
L 1625 3150 
Q 1625 2866 1622 2436 
Q 1619 2006 1619 1863 
Q 1619 1441 1641 1255 
Q 1663 1069 1716 984 
Q 1784 875 1895 815 
Q 2006 756 2150 756 
Q 2500 756 2700 1025 
Q 2900 1294 2900 1772 
L 2900 3500 
L 4019 3500 
L 4019 0 
L 2900 0 
L 2900 506 
Q 2647 200 2364 54 
Q 2081 -91 1741 -91 
Q 1134 -91 817 281 
Q 500 653 500 1363 
z
" transform="scale(0.015625)"/>
     <path id="DejaVuSans-Bold-32" d="M 1844 884 
L 3897 884 
L 3897 0 
L 506 0 
L 506 884 
L 2209 2388 
Q 2438 2594 2547 2791 
Q 2656 2988 2656 3200 
Q 2656 3528 2436 3728 
Q 2216 3928 1850 3928 
Q 1569 3928 1234 3808 
Q 900 3688 519 3450 
L 519 4475 
Q 925 4609 1322 4679 
Q 1719 4750 2100 4750 
Q 2938 4750 3402 4381 
Q 3866 4013 3866 3353 
Q 3866 2972 3669 2642 
Q 3472 2313 2841 1759 
L 1844 884 
z
" transform="scale(0.015625)"/>
     <path id="DejaVuSans-Bold-30" d="M 2944 2338 
Q 2944 3213 2780 3570 
Q 2616 3928 2228 3928 
Q 1841 3928 1675 3570 
Q 1509 3213 1509 2338 
Q 1509 1453 1675 1090 
Q 1841 728 2228 728 
Q 2613 728 2778 1090 
Q 2944 1453 2944 2338 
z
M 4147 2328 
Q 4147 1169 3647 539 
Q 3147 -91 2228 -91 
Q 1306 -91 806 539 
Q 306 1169 306 2328 
Q 306 3491 806 4120 
Q 1306 4750 2228 4750 
Q 3147 4750 3647 4120 
Q 4147 3491 4147 2328 
z
" transform="scale(0.015625)"/>
     <path id="DejaVuSans-Bold-31" d="M 750 831 
L 1813 831 
L 1813 3847 
L 722 3622 
L 722 4441 
L 1806 4666 
L 2950 4666 
L 2950 831 
L 4013 831 
L 4013 0 
L 750 0 
L 750 831 
z
" transform="scale(0.015625)"/>
     <path id="DejaVuSans-Bold-33" d="M 2981 2516 
Q 3453 2394 3698 2092 
Q 3944 1791 3944 1325 
Q 3944 631 3412 270 
Q 2881 -91 1863 -91 
Q 1503 -91 1142 -33 
Q 781 25 428 141 
L 428 1069 
Q 766 900 1098 814 
Q 1431 728 1753 728 
Q 2231 728 2486 893 
Q 2741 1059 2741 1369 
Q 2741 1688 2480 1852 
Q 2219 2016 1709 2016 
L 1228 2016 
L 1228 2791 
L 1734 2791 
Q 2188 2791 2409 2933 
Q 2631 3075 2631 3366 
Q 2631 3634 2415 3781 
Q 2200 3928 1806 3928 
Q 1516 3928 1219 3862 
Q 922 3797 628 3669 
L 628 4550 
Q 984 4650 1334 4700 
Q 1684 4750 2022 4750 
Q 2931 4750 3382 4451 
Q 3834 4153 3834 3553 
Q 3834 3144 3618 2883 
Q 3403 2622 2981 2516 
z
" transform="scale(0.015625)"/>
    </defs>
    <use xlink:href="#DejaVuSans-Bold-43"/>
    <use xlink:href="#DejaVuSans-Bold-75" transform="translate(73.388672 0)"/>
    <use xlink:href="#DejaVuSans-Bold-69" transform="translate(144.580078 0)"/>
    <use xlink:href="#DejaVuSans-Bold-32" transform="translate(178.857422 0)"/>
    <use xlink:href="#DejaVuSans-Bold-30" transform="translate(248.4375 0)"/>
    <use xlink:href="#DejaVuSans-Bold-31" transform="translate(318.017578 0)"/>
    <use xlink:href="#DejaVuSans-Bold-33" transform="translate(387.597656 0)"/>
   </g>
  </g>
 </g>
 <defs>
  <clipPath id="p09f90a98a1">
   <rect x="45.305" y="48.24" width="373.8042" height="316.008"/>
  </clipPath>
 </defs>
</svg>
