<?xml version="1.0" encoding="utf-8" standalone="no"?>
<!DOCTYPE svg PUBLIC "-//W3C//DTD SVG 1.1//EN"
  "http://www.w3.org/Graphics/SVG/1.1/DTD/svg11.dtd">
<svg xmlns:xlink="http://www.w3.org/1999/xlink" width="450.04295pt" height="414.385812pt" viewBox="0 0 450.04295 414.385812" xmlns="http://www.w3.org/2000/svg" version="1.1">
 <metadata>
  <rdf:RDF xmlns:dc="http://purl.org/dc/elements/1.1/" xmlns:cc="http://creativecommons.org/ns#" xmlns:rdf="http://www.w3.org/1999/02/22-rdf-syntax-ns#">
   <cc:Work>
    <dc:type rdf:resource="http://purl.org/dc/dcmitype/StillImage"/>
    <dc:date>2026-04-22T19:56:51.318799</dc:date>
    <dc:format>image/svg+xml</dc:format>
    <dc:creator>
     <cc:Agent>
      <dc:title>Matplotlib v3.10.8, https://matplotlib.org/</dc:title>
     </cc:Agent>
    </dc:creator>
   </cc:Work>
  </rdf:RDF>
 </metadata>
 <defs>
  <style type="text/css">*{stroke-linejoin: round; stroke-linecap: butt}</style>
 </defs>
 <g id="figure_1">
  <g id="patch_1">
   <path d="M 0 414.385812 
L 450.04295 414.385812 
L 450.04295 -0 
L 0 -0 
z
" style="fill: #ffffff"/>
  </g>
  <g id="axes_1">
   <g id="patch_2">
    <path d="M 69.03875 364.248 
L 442.84295 364.248 
L 442.84295 48.24 
L 69.03875 48.24 
z
" style="fill: #ffffff"/>
   </g>
   <g id="matplotlib.axis_1">
    <g id="xtick_1">
     <g id="line2d_1">
      <defs>
       <path id="m4ca70cf1c4" d="M 0 0 
L 0 3.5 
" style="stroke: #000000; stroke-width: 0.8"/>
      </defs>
      <g>
       <use xlink:href="#m4ca70cf1c4" x="86.02985" y="364.248" style="stroke: #000000; stroke-width: 0.8"/>
      </g>
     </g>
     <g id="text_1">
      <!-- 0 -->
      <g transform="translate(81.257975 382.645656) scale(0.15 -0.15)">
       <defs>
        <path id="DejaVuSans-30" d="M 2034 4250 
Q 1547 4250 1301 3770 
Q 1056 3291 1056 2328 
Q 1056 1369 1301 889 
Q 1547 409 2034 409 
Q 2525 409 2770 889 
Q 3016 1369 3016 2328 
Q 3016 3291 2770 3770 
Q 2525 4250 2034 4250 
z
M 2034 4750 
Q 2819 4750 3233 4129 
Q 3647 3509 3647 2328 
Q 3647 1150 3233 529 
Q 2819 -91 2034 -91 
Q 1250 -91 836 529 
Q 422 1150 422 2328 
Q 422 3509 836 4129 
Q 1250 4750 2034 4750 
z
" transform="scale(0.015625)"/>
       </defs>
       <use xlink:href="#DejaVuSans-30"/>
      </g>
     </g>
    </g>
    <g id="xtick_2">
     <g id="line2d_2">
      <g>
       <use xlink:href="#m4ca70cf1c4" x="177.873634" y="364.248" style="stroke: #000000; stroke-width: 0.8"/>
      </g>
     </g>
     <g id="text_2">
      <!-- 20 -->
      <g transform="translate(168.329884 382.645656) scale(0.15 -0.15)">
       <defs>
        <path id="DejaVuSans-32" d="M 1228 531 
L 3431 531 
L 3431 0 
L 469 0 
L 469 531 
Q 828 903 1448 1529 
Q 2069 2156 2228 2338 
Q 2531 2678 2651 2914 
Q 2772 3150 2772 3378 
Q 2772 3750 2511 3984 
Q 2250 4219 1831 4219 
Q 1534 4219 1204 4116 
Q 875 4013 500 3803 
L 500 4441 
Q 881 4594 1212 4672 
Q 1544 4750 1819 4750 
Q 2544 4750 2975 4387 
Q 3406 4025 3406 3419 
Q 3406 3131 3298 2873 
Q 3191 2616 2906 2266 
Q 2828 2175 2409 1742 
Q 1991 1309 1228 531 
z
" transform="scale(0.015625)"/>
       </defs>
       <use xlink:href="#DejaVuSans-32"/>
       <use xlink:href="#DejaVuSans-30" transform="translate(63.623047 0)"/>
      </g>
     </g>
    </g>
    <g id="xtick_3">
     <g id="line2d_3">
      <g>
       <use xlink:href="#m4ca70cf1c4" x="269.717418" y="364.248" style="stroke: #000000; stroke-width: 0.8"/>
      </g>
     </g>
     <g id="text_3">
      <!-- 40 -->
      <g transform="translate(260.173668 382.645656) scale(0.15 -0.15)">
       <defs>
        <path id="DejaVuSans-34" d="M 2419 4116 
L 825 1625 
L 2419 1625 
L 2419 4116 
z
M 2253 4666 
L 3047 4666 
L 3047 1625 
L 3713 1625 
L 3713 1100 
L 3047 1100 
L 3047 0 
L 2419 0 
L 2419 1100 
L 313 1100 
L 313 1709 
L 2253 4666 
z
" transform="scale(0.015625)"/>
       </defs>
       <use xlink:href="#DejaVuSans-34"/>
       <use xlink:href="#DejaVuSans-30" transform="translate(63.623047 0)"/>
      </g>
     </g>
    </g>
    <g id="xtick_4">
     <g id="line2d_4">
      <g>
       <use xlink:href="#m4ca70cf1c4" x="361.561201" y="364.248" style="stroke: #000000; stroke-width: 0.8"/>
      </g>
     </g>
     <g id="text_4">
      <!-- 60 -->
      <g transform="translate(352.017451 382.645656) scale(0.15 -0.15)">
       <defs>
        <path id="DejaVuSans-36" d="M 2113 2584 
Q 1688 2584 1439 2293 
Q 1191 2003 1191 1497 
Q 1191 994 1439 701 
Q 1688 409 2113 409 
Q 2538 409 2786 701 
Q 3034 994 3034 1497 
Q 3034 2003 2786 2293 
Q 2538 2584 2113 2584 
z
M 3366 4563 
L 3366 3988 
Q 3128 4100 2886 4159 
Q 2644 4219 2406 4219 
Q 1781 4219 1451 3797 
Q 1122 3375 1075 2522 
Q 1259 2794 1537 2939 
Q 1816 3084 2150 3084 
Q 2853 3084 3261 2657 
Q 3669 2231 3669 1497 
Q 3669 778 3244 343 
Q 2819 -91 2113 -91 
Q 1303 -91 875 529 
Q 447 1150 447 2328 
Q 447 3434 972 4092 
Q 1497 4750 2381 4750 
Q 2619 4750 2861 4703 
Q 3103 4656 3366 4563 
z
" transform="scale(0.015625)"/>
       </defs>
       <use xlink:href="#DejaVuSans-36"/>
       <use xlink:href="#DejaVuSans-30" transform="translate(63.623047 0)"/>
      </g>
     </g>
    </g>
    <g id="text_5">
     <!-- time [hr] -->
     <g transform="translate(210.866319 403.442375) scale(0.18 -0.18)">
      <defs>
       <path id="DejaVuSans-Bold-74" d="M 1759 4494 
L 1759 3500 
L 2913 3500 
L 2913 2700 
L 1759 2700 
L 1759 1216 
Q 1759 972 1856 886 
Q 1953 800 2241 800 
L 2816 800 
L 2816 0 
L 1856 0 
Q 1194 0 917 276 
Q 641 553 641 1216 
L 641 2700 
L 84 2700 
L 84 3500 
L 641 3500 
L 641 4494 
L 1759 4494 
z
" transform="scale(0.015625)"/>
       <path id="DejaVuSans-Bold-69" d="M 538 3500 
L 1656 3500 
L 1656 0 
L 538 0 
L 538 3500 
z
M 538 4863 
L 1656 4863 
L 1656 3950 
L 538 3950 
L 538 4863 
z
" transform="scale(0.015625)"/>
       <path id="DejaVuSans-Bold-6d" d="M 3781 2919 
Q 3994 3244 4286 3414 
Q 4578 3584 4928 3584 
Q 5531 3584 5847 3212 
Q 6163 2841 6163 2131 
L 6163 0 
L 5038 0 
L 5038 1825 
Q 5041 1866 5042 1909 
Q 5044 1953 5044 2034 
Q 5044 2406 4934 2573 
Q 4825 2741 4581 2741 
Q 4263 2741 4089 2478 
Q 3916 2216 3909 1719 
L 3909 0 
L 2784 0 
L 2784 1825 
Q 2784 2406 2684 2573 
Q 2584 2741 2328 2741 
Q 2006 2741 1831 2477 
Q 1656 2213 1656 1722 
L 1656 0 
L 531 0 
L 531 3500 
L 1656 3500 
L 1656 2988 
Q 1863 3284 2130 3434 
Q 2397 3584 2719 3584 
Q 3081 3584 3359 3409 
Q 3638 3234 3781 2919 
z
" transform="scale(0.015625)"/>
       <path id="DejaVuSans-Bold-65" d="M 4031 1759 
L 4031 1441 
L 1416 1441 
Q 1456 1047 1700 850 
Q 1944 653 2381 653 
Q 2734 653 3104 758 
Q 3475 863 3866 1075 
L 3866 213 
Q 3469 63 3072 -14 
Q 2675 -91 2278 -91 
Q 1328 -91 801 392 
Q 275 875 275 1747 
Q 275 2603 792 3093 
Q 1309 3584 2216 3584 
Q 3041 3584 3536 3087 
Q 4031 2591 4031 1759 
z
M 2881 2131 
Q 2881 2450 2695 2645 
Q 2509 2841 2209 2841 
Q 1884 2841 1681 2658 
Q 1478 2475 1428 2131 
L 2881 2131 
z
" transform="scale(0.015625)"/>
       <path id="DejaVuSans-Bold-20" transform="scale(0.015625)"/>
       <path id="DejaVuSans-Bold-5b" d="M 550 4863 
L 2491 4863 
L 2491 4159 
L 1613 4159 
L 1613 -141 
L 2491 -141 
L 2491 -844 
L 550 -844 
L 550 4863 
z
" transform="scale(0.015625)"/>
       <path id="DejaVuSans-Bold-68" d="M 4056 2131 
L 4056 0 
L 2931 0 
L 2931 347 
L 2931 1625 
Q 2931 2084 2911 2256 
Q 2891 2428 2841 2509 
Q 2775 2619 2662 2680 
Q 2550 2741 2406 2741 
Q 2056 2741 1856 2470 
Q 1656 2200 1656 1722 
L 1656 0 
L 538 0 
L 538 4863 
L 1656 4863 
L 1656 2988 
Q 1909 3294 2193 3439 
Q 2478 3584 2822 3584 
Q 3428 3584 3742 3212 
Q 4056 2841 4056 2131 
z
" transform="scale(0.015625)"/>
       <path id="DejaVuSans-Bold-72" d="M 3138 2547 
Q 2991 2616 2845 2648 
Q 2700 2681 2553 2681 
Q 2122 2681 1889 2404 
Q 1656 2128 1656 1613 
L 1656 0 
L 538 0 
L 538 3500 
L 1656 3500 
L 1656 2925 
Q 1872 3269 2151 3426 
Q 2431 3584 2822 3584 
Q 2878 3584 2943 3579 
Q 3009 3575 3134 3559 
L 3138 2547 
z
" transform="scale(0.015625)"/>
       <path id="DejaVuSans-Bold-5d" d="M 2375 -844 
L 434 -844 
L 434 -141 
L 1313 -141 
L 1313 4159 
L 434 4159 
L 434 4863 
L 2375 4863 
L 2375 -844 
z
" transform="scale(0.015625)"/>
      </defs>
      <use xlink:href="#DejaVuSans-Bold-74"/>
      <use xlink:href="#DejaVuSans-Bold-69" transform="translate(47.802734 0)"/>
      <use xlink:href="#DejaVuSans-Bold-6d" transform="translate(82.080078 0)"/>
      <use xlink:href="#DejaVuSans-Bold-65" transform="translate(186.279297 0)"/>
      <use xlink:href="#DejaVuSans-Bold-20" transform="translate(254.101562 0)"/>
      <use xlink:href="#DejaVuSans-Bold-5b" transform="translate(288.916016 0)"/>
      <use xlink:href="#DejaVuSans-Bold-68" transform="translate(334.619141 0)"/>
      <use xlink:href="#DejaVuSans-Bold-72" transform="translate(405.810547 0)"/>
      <use xlink:href="#DejaVuSans-Bold-5d" transform="translate(455.126953 0)"/>
     </g>
    </g>
   </g>
   <g id="matplotlib.axis_2">
    <g id="ytick_1">
     <g id="line2d_5">
      <defs>
       <path id="ma999421daf" d="M 0 0 
L -3.5 0 
" style="stroke: #000000; stroke-width: 0.8"/>
      </defs>
      <g>
       <use xlink:href="#ma999421daf" x="69.03875" y="339.796921" style="stroke: #000000; stroke-width: 0.8"/>
      </g>
     </g>
     <g id="text_6">
      <!-- 0.00 -->
      <g transform="translate(28.640313 345.495749) scale(0.15 -0.15)">
       <defs>
        <path id="DejaVuSans-2e" d="M 684 794 
L 1344 794 
L 1344 0 
L 684 0 
L 684 794 
z
" transform="scale(0.015625)"/>
       </defs>
       <use xlink:href="#DejaVuSans-30"/>
       <use xlink:href="#DejaVuSans-2e" transform="translate(63.623047 0)"/>
       <use xlink:href="#DejaVuSans-30" transform="translate(95.410156 0)"/>
       <use xlink:href="#DejaVuSans-30" transform="translate(159.033203 0)"/>
      </g>
     </g>
    </g>
    <g id="ytick_2">
     <g id="line2d_6">
      <g>
       <use xlink:href="#ma999421daf" x="69.03875" y="299.588187" style="stroke: #000000; stroke-width: 0.8"/>
      </g>
     </g>
     <g id="text_7">
      <!-- 0.05 -->
      <g transform="translate(28.640313 305.287015) scale(0.15 -0.15)">
       <defs>
        <path id="DejaVuSans-35" d="M 691 4666 
L 3169 4666 
L 3169 4134 
L 1269 4134 
L 1269 2991 
Q 1406 3038 1543 3061 
Q 1681 3084 1819 3084 
Q 2600 3084 3056 2656 
Q 3513 2228 3513 1497 
Q 3513 744 3044 326 
Q 2575 -91 1722 -91 
Q 1428 -91 1123 -41 
Q 819 9 494 109 
L 494 744 
Q 775 591 1075 516 
Q 1375 441 1709 441 
Q 2250 441 2565 725 
Q 2881 1009 2881 1497 
Q 2881 1984 2565 2268 
Q 2250 2553 1709 2553 
Q 1456 2553 1204 2497 
Q 953 2441 691 2322 
L 691 4666 
z
" transform="scale(0.015625)"/>
       </defs>
       <use xlink:href="#DejaVuSans-30"/>
       <use xlink:href="#DejaVuSans-2e" transform="translate(63.623047 0)"/>
       <use xlink:href="#DejaVuSans-30" transform="translate(95.410156 0)"/>
       <use xlink:href="#DejaVuSans-35" transform="translate(159.033203 0)"/>
      </g>
     </g>
    </g>
    <g id="ytick_3">
     <g id="line2d_7">
      <g>
       <use xlink:href="#ma999421daf" x="69.03875" y="259.379452" style="stroke: #000000; stroke-width: 0.8"/>
      </g>
     </g>
     <g id="text_8">
      <!-- 0.10 -->
      <g transform="translate(28.640313 265.07828) scale(0.15 -0.15)">
       <defs>
        <path id="DejaVuSans-31" d="M 794 531 
L 1825 531 
L 1825 4091 
L 703 3866 
L 703 4441 
L 1819 4666 
L 2450 4666 
L 2450 531 
L 3481 531 
L 3481 0 
L 794 0 
L 794 531 
z
" transform="scale(0.015625)"/>
       </defs>
       <use xlink:href="#DejaVuSans-30"/>
       <use xlink:href="#DejaVuSans-2e" transform="translate(63.623047 0)"/>
       <use xlink:href="#DejaVuSans-31" transform="translate(95.410156 0)"/>
       <use xlink:href="#DejaVuSans-30" transform="translate(159.033203 0)"/>
      </g>
     </g>
    </g>
    <g id="ytick_4">
     <g id="line2d_8">
      <g>
       <use xlink:href="#ma999421daf" x="69.03875" y="219.170717" style="stroke: #000000; stroke-width: 0.8"/>
      </g>
     </g>
     <g id="text_9">
      <!-- 0.15 -->
      <g transform="translate(28.640313 224.869546) scale(0.15 -0.15)">
       <use xlink:href="#DejaVuSans-30"/>
       <use xlink:href="#DejaVuSans-2e" transform="translate(63.623047 0)"/>
       <use xlink:href="#DejaVuSans-31" transform="translate(95.410156 0)"/>
       <use xlink:href="#DejaVuSans-35" transform="translate(159.033203 0)"/>
      </g>
     </g>
    </g>
    <g id="ytick_5">
     <g id="line2d_9">
      <g>
       <use xlink:href="#ma999421daf" x="69.03875" y="178.961983" style="stroke: #000000; stroke-width: 0.8"/>
      </g>
     </g>
     <g id="text_10">
      <!-- 0.20 -->
      <g transform="translate(28.640313 184.660811) scale(0.15 -0.15)">
       <use xlink:href="#DejaVuSans-30"/>
       <use xlink:href="#DejaVuSans-2e" transform="translate(63.623047 0)"/>
       <use xlink:href="#DejaVuSans-32" transform="translate(95.410156 0)"/>
       <use xlink:href="#DejaVuSans-30" transform="translate(159.033203 0)"/>
      </g>
     </g>
    </g>
    <g id="ytick_6">
     <g id="line2d_10">
      <g>
       <use xlink:href="#ma999421daf" x="69.03875" y="138.753248" style="stroke: #000000; stroke-width: 0.8"/>
      </g>
     </g>
     <g id="text_11">
      <!-- 0.25 -->
      <g transform="translate(28.640313 144.452076) scale(0.15 -0.15)">
       <use xlink:href="#DejaVuSans-30"/>
       <use xlink:href="#DejaVuSans-2e" transform="translate(63.623047 0)"/>
       <use xlink:href="#DejaVuSans-32" transform="translate(95.410156 0)"/>
       <use xlink:href="#DejaVuSans-35" transform="translate(159.033203 0)"/>
      </g>
     </g>
    </g>
    <g id="ytick_7">
     <g id="line2d_11">
      <g>
       <use xlink:href="#ma999421daf" x="69.03875" y="98.544513" style="stroke: #000000; stroke-width: 0.8"/>
      </g>
     </g>
     <g id="text_12">
      <!-- 0.30 -->
      <g transform="translate(28.640313 104.243342) scale(0.15 -0.15)">
       <defs>
        <path id="DejaVuSans-33" d="M 2597 2516 
Q 3050 2419 3304 2112 
Q 3559 1806 3559 1356 
Q 3559 666 3084 287 
Q 2609 -91 1734 -91 
Q 1441 -91 1130 -33 
Q 819 25 488 141 
L 488 750 
Q 750 597 1062 519 
Q 1375 441 1716 441 
Q 2309 441 2620 675 
Q 2931 909 2931 1356 
Q 2931 1769 2642 2001 
Q 2353 2234 1838 2234 
L 1294 2234 
L 1294 2753 
L 1863 2753 
Q 2328 2753 2575 2939 
Q 2822 3125 2822 3475 
Q 2822 3834 2567 4026 
Q 2313 4219 1838 4219 
Q 1578 4219 1281 4162 
Q 984 4106 628 3988 
L 628 4550 
Q 988 4650 1302 4700 
Q 1616 4750 1894 4750 
Q 2613 4750 3031 4423 
Q 3450 4097 3450 3541 
Q 3450 3153 3228 2886 
Q 3006 2619 2597 2516 
z
" transform="scale(0.015625)"/>
       </defs>
       <use xlink:href="#DejaVuSans-30"/>
       <use xlink:href="#DejaVuSans-2e" transform="translate(63.623047 0)"/>
       <use xlink:href="#DejaVuSans-33" transform="translate(95.410156 0)"/>
       <use xlink:href="#DejaVuSans-30" transform="translate(159.033203 0)"/>
      </g>
     </g>
    </g>
    <g id="ytick_8">
     <g id="line2d_12">
      <g>
       <use xlink:href="#ma999421daf" x="69.03875" y="58.335779" style="stroke: #000000; stroke-width: 0.8"/>
      </g>
     </g>
     <g id="text_13">
      <!-- 0.35 -->
      <g transform="translate(28.640313 64.034607) scale(0.15 -0.15)">
       <use xlink:href="#DejaVuSans-30"/>
       <use xlink:href="#DejaVuSans-2e" transform="translate(63.623047 0)"/>
       <use xlink:href="#DejaVuSans-33" transform="translate(95.410156 0)"/>
       <use xlink:href="#DejaVuSans-35" transform="translate(159.033203 0)"/>
      </g>
     </g>
    </g>
    <g id="text_14">
     <!-- apixaban plasma [µM] -->
     <g transform="translate(20.877187 319.1265) rotate(-90) scale(0.18 -0.18)">
      <defs>
       <path id="DejaVuSans-Bold-61" d="M 2106 1575 
Q 1756 1575 1579 1456 
Q 1403 1338 1403 1106 
Q 1403 894 1545 773 
Q 1688 653 1941 653 
Q 2256 653 2472 879 
Q 2688 1106 2688 1447 
L 2688 1575 
L 2106 1575 
z
M 3816 1997 
L 3816 0 
L 2688 0 
L 2688 519 
Q 2463 200 2181 54 
Q 1900 -91 1497 -91 
Q 953 -91 614 226 
Q 275 544 275 1050 
Q 275 1666 698 1953 
Q 1122 2241 2028 2241 
L 2688 2241 
L 2688 2328 
Q 2688 2594 2478 2717 
Q 2269 2841 1825 2841 
Q 1466 2841 1156 2769 
Q 847 2697 581 2553 
L 581 3406 
Q 941 3494 1303 3539 
Q 1666 3584 2028 3584 
Q 2975 3584 3395 3211 
Q 3816 2838 3816 1997 
z
" transform="scale(0.015625)"/>
       <path id="DejaVuSans-Bold-70" d="M 1656 506 
L 1656 -1331 
L 538 -1331 
L 538 3500 
L 1656 3500 
L 1656 2988 
Q 1888 3294 2169 3439 
Q 2450 3584 2816 3584 
Q 3463 3584 3878 3070 
Q 4294 2556 4294 1747 
Q 4294 938 3878 423 
Q 3463 -91 2816 -91 
Q 2450 -91 2169 54 
Q 1888 200 1656 506 
z
M 2400 2772 
Q 2041 2772 1848 2508 
Q 1656 2244 1656 1747 
Q 1656 1250 1848 986 
Q 2041 722 2400 722 
Q 2759 722 2948 984 
Q 3138 1247 3138 1747 
Q 3138 2247 2948 2509 
Q 2759 2772 2400 2772 
z
" transform="scale(0.015625)"/>
       <path id="DejaVuSans-Bold-78" d="M 1422 1791 
L 159 3500 
L 1344 3500 
L 2059 2463 
L 2784 3500 
L 3969 3500 
L 2706 1797 
L 4031 0 
L 2847 0 
L 2059 1106 
L 1281 0 
L 97 0 
L 1422 1791 
z
" transform="scale(0.015625)"/>
       <path id="DejaVuSans-Bold-62" d="M 2400 722 
Q 2759 722 2948 984 
Q 3138 1247 3138 1747 
Q 3138 2247 2948 2509 
Q 2759 2772 2400 2772 
Q 2041 2772 1848 2508 
Q 1656 2244 1656 1747 
Q 1656 1250 1848 986 
Q 2041 722 2400 722 
z
M 1656 2988 
Q 1888 3294 2169 3439 
Q 2450 3584 2816 3584 
Q 3463 3584 3878 3070 
Q 4294 2556 4294 1747 
Q 4294 938 3878 423 
Q 3463 -91 2816 -91 
Q 2450 -91 2169 54 
Q 1888 200 1656 506 
L 1656 0 
L 538 0 
L 538 4863 
L 1656 4863 
L 1656 2988 
z
" transform="scale(0.015625)"/>
       <path id="DejaVuSans-Bold-6e" d="M 4056 2131 
L 4056 0 
L 2931 0 
L 2931 347 
L 2931 1631 
Q 2931 2084 2911 2256 
Q 2891 2428 2841 2509 
Q 2775 2619 2662 2680 
Q 2550 2741 2406 2741 
Q 2056 2741 1856 2470 
Q 1656 2200 1656 1722 
L 1656 0 
L 538 0 
L 538 3500 
L 1656 3500 
L 1656 2988 
Q 1909 3294 2193 3439 
Q 2478 3584 2822 3584 
Q 3428 3584 3742 3212 
Q 4056 2841 4056 2131 
z
" transform="scale(0.015625)"/>
       <path id="DejaVuSans-Bold-6c" d="M 538 4863 
L 1656 4863 
L 1656 0 
L 538 0 
L 538 4863 
z
" transform="scale(0.015625)"/>
       <path id="DejaVuSans-Bold-73" d="M 3272 3391 
L 3272 2541 
Q 2913 2691 2578 2766 
Q 2244 2841 1947 2841 
Q 1628 2841 1473 2761 
Q 1319 2681 1319 2516 
Q 1319 2381 1436 2309 
Q 1553 2238 1856 2203 
L 2053 2175 
Q 2913 2066 3209 1816 
Q 3506 1566 3506 1031 
Q 3506 472 3093 190 
Q 2681 -91 1863 -91 
Q 1516 -91 1145 -36 
Q 775 19 384 128 
L 384 978 
Q 719 816 1070 734 
Q 1422 653 1784 653 
Q 2113 653 2278 743 
Q 2444 834 2444 1013 
Q 2444 1163 2330 1236 
Q 2216 1309 1875 1350 
L 1678 1375 
Q 931 1469 631 1722 
Q 331 1975 331 2491 
Q 331 3047 712 3315 
Q 1094 3584 1881 3584 
Q 2191 3584 2531 3537 
Q 2872 3491 3272 3391 
z
" transform="scale(0.015625)"/>
       <path id="DejaVuSans-Bold-b5" d="M 544 -1338 
L 544 3500 
L 1672 3500 
L 1672 1466 
Q 1672 1103 1828 926 
Q 1984 750 2303 750 
Q 2625 750 2781 926 
Q 2938 1103 2938 1466 
L 2938 3500 
L 4063 3500 
L 4063 1159 
Q 4063 938 4114 850 
Q 4166 763 4288 763 
Q 4344 763 4395 778 
Q 4447 794 4506 831 
L 4506 50 
Q 4341 -22 4195 -56 
Q 4050 -91 3909 -91 
Q 3631 -91 3454 26 
Q 3278 144 3169 403 
Q 3022 156 2811 32 
Q 2600 -91 2322 -91 
Q 2091 -91 1928 -17 
Q 1766 56 1672 206 
L 1672 -1338 
L 544 -1338 
z
" transform="scale(0.015625)"/>
       <path id="DejaVuSans-Bold-4d" d="M 588 4666 
L 2119 4666 
L 3181 2169 
L 4250 4666 
L 5778 4666 
L 5778 0 
L 4641 0 
L 4641 3413 
L 3566 897 
L 2803 897 
L 1728 3413 
L 1728 0 
L 588 0 
L 588 4666 
z
" transform="scale(0.015625)"/>
      </defs>
      <use xlink:href="#DejaVuSans-Bold-61"/>
      <use xlink:href="#DejaVuSans-Bold-70" transform="translate(67.480469 0)"/>
      <use xlink:href="#DejaVuSans-Bold-69" transform="translate(139.0625 0)"/>
      <use xlink:href="#DejaVuSans-Bold-78" transform="translate(173.339844 0)"/>
      <use xlink:href="#DejaVuSans-Bold-61" transform="translate(237.841797 0)"/>
      <use xlink:href="#DejaVuSans-Bold-62" transform="translate(305.322266 0)"/>
      <use xlink:href="#DejaVuSans-Bold-61" transform="translate(376.904297 0)"/>
      <use xlink:href="#DejaVuSans-Bold-6e" transform="translate(444.384766 0)"/>
      <use xlink:href="#DejaVuSans-Bold-20" transform="translate(515.576172 0)"/>
      <use xlink:href="#DejaVuSans-Bold-70" transform="translate(550.390625 0)"/>
      <use xlink:href="#DejaVuSans-Bold-6c" transform="translate(621.972656 0)"/>
      <use xlink:href="#DejaVuSans-Bold-61" transform="translate(656.25 0)"/>
      <use xlink:href="#DejaVuSans-Bold-73" transform="translate(723.730469 0)"/>
      <use xlink:href="#DejaVuSans-Bold-6d" transform="translate(783.251953 0)"/>
      <use xlink:href="#DejaVuSans-Bold-61" transform="translate(887.451172 0)"/>
      <use xlink:href="#DejaVuSans-Bold-20" transform="translate(954.931641 0)"/>
      <use xlink:href="#DejaVuSans-Bold-5b" transform="translate(989.746094 0)"/>
      <use xlink:href="#DejaVuSans-Bold-b5" transform="translate(1035.449219 0)"/>
      <use xlink:href="#DejaVuSans-Bold-4d" transform="translate(1109.033203 0)"/>
      <use xlink:href="#DejaVuSans-Bold-5d" transform="translate(1208.544922 0)"/>
     </g>
    </g>
   </g>
   <g id="LineCollection_1">
    <path clip-path="url(#p285dd6a8b5)" style="fill: none; stroke: #000000"/>
    <path d="M 88.325945 349.884 
L 88.325945 274.029169 
" clip-path="url(#p285dd6a8b5)" style="fill: none; stroke: #000000"/>
    <path d="M 90.622039 332.534225 
L 90.622039 150.966809 
" clip-path="url(#p285dd6a8b5)" style="fill: none; stroke: #000000"/>
    <path d="M 92.918134 209.875348 
L 92.918134 130.792652 
" clip-path="url(#p285dd6a8b5)" style="fill: none; stroke: #000000"/>
    <path d="M 95.214228 216.734562 
L 95.214228 62.604 
" clip-path="url(#p285dd6a8b5)" style="fill: none; stroke: #000000"/>
    <path d="M 97.510323 209.471865 
L 97.510323 104.566247 
" clip-path="url(#p285dd6a8b5)" style="fill: none; stroke: #000000"/>
    <path d="M 99.806418 215.120629 
L 99.806418 115.863775 
" clip-path="url(#p285dd6a8b5)" style="fill: none; stroke: #000000"/>
    <path d="M 104.398607 223.593775 
L 104.398607 126.75782 
" clip-path="url(#p285dd6a8b5)" style="fill: none; stroke: #000000"/>
    <path d="M 113.582985 250.223663 
L 113.582985 175.175798 
" clip-path="url(#p285dd6a8b5)" style="fill: none; stroke: #000000"/>
    <path d="M 122.767364 272.818719 
L 122.767364 216.331079 
" clip-path="url(#p285dd6a8b5)" style="fill: none; stroke: #000000"/>
    <path d="M 131.951742 286.133663 
L 131.951742 245.785348 
" clip-path="url(#p285dd6a8b5)" style="fill: none; stroke: #000000"/>
    <path d="M 141.13612 299.045124 
L 141.13612 258.696809 
" clip-path="url(#p285dd6a8b5)" style="fill: none; stroke: #000000"/>
    <path d="M 168.689255 314.377483 
L 168.689255 289.361528 
" clip-path="url(#p285dd6a8b5)" style="fill: none; stroke: #000000"/>
    <path d="M 196.242391 323.657596 
L 196.242391 307.51827 
" clip-path="url(#p285dd6a8b5)" style="fill: none; stroke: #000000"/>
    <path d="M 251.348661 332.937708 
L 251.348661 324.868045 
" clip-path="url(#p285dd6a8b5)" style="fill: none; stroke: #000000"/>
    <path d="M 306.454931 341.814337 
L 306.454931 323.254112 
" clip-path="url(#p285dd6a8b5)" style="fill: none; stroke: #000000"/>
    <path d="M 361.561201 343.42827 
L 361.561201 325.675011 
" clip-path="url(#p285dd6a8b5)" style="fill: none; stroke: #000000"/>
    <path d="M 416.667472 342.621303 
L 416.667472 328.09591 
" clip-path="url(#p285dd6a8b5)" style="fill: none; stroke: #000000"/>
   </g>
   <g id="LineCollection_2">
    <path clip-path="url(#p285dd6a8b5)" style="fill: none; stroke: #006d5e"/>
    <path d="M 88.325945 301.466022 
L 88.325945 214.313663 
" clip-path="url(#p285dd6a8b5)" style="fill: none; stroke: #006d5e"/>
    <path d="M 90.622039 310.746135 
L 90.622039 134.827483 
" clip-path="url(#p285dd6a8b5)" style="fill: none; stroke: #006d5e"/>
    <path d="M 92.918134 272.011753 
L 92.918134 80.760742 
" clip-path="url(#p285dd6a8b5)" style="fill: none; stroke: #006d5e"/>
    <path d="M 95.214228 236.908719 
L 95.214228 62.604 
" clip-path="url(#p285dd6a8b5)" style="fill: none; stroke: #006d5e"/>
    <path d="M 97.510323 221.172876 
L 97.510323 96.093101 
" clip-path="url(#p285dd6a8b5)" style="fill: none; stroke: #006d5e"/>
    <path d="M 99.806418 219.962427 
L 99.806418 111.021978 
" clip-path="url(#p285dd6a8b5)" style="fill: none; stroke: #006d5e"/>
    <path d="M 104.398607 216.331079 
L 104.398607 123.529955 
" clip-path="url(#p285dd6a8b5)" style="fill: none; stroke: #006d5e"/>
    <path d="M 113.582985 216.331079 
L 113.582985 153.387708 
" clip-path="url(#p285dd6a8b5)" style="fill: none; stroke: #006d5e"/>
    <path d="M 122.767364 241.347034 
L 122.767364 183.245461 
" clip-path="url(#p285dd6a8b5)" style="fill: none; stroke: #006d5e"/>
    <path d="M 131.951742 264.345573 
L 131.951742 211.892764 
" clip-path="url(#p285dd6a8b5)" style="fill: none; stroke: #006d5e"/>
    <path d="M 141.13612 275.643101 
L 141.13612 227.225124 
" clip-path="url(#p285dd6a8b5)" style="fill: none; stroke: #006d5e"/>
    <path d="M 168.689255 298.238157 
L 168.689255 261.924674 
" clip-path="url(#p285dd6a8b5)" style="fill: none; stroke: #006d5e"/>
    <path d="M 196.242391 311.149618 
L 196.242391 278.870966 
" clip-path="url(#p285dd6a8b5)" style="fill: none; stroke: #006d5e"/>
    <path d="M 251.348661 332.130742 
L 251.348661 307.921753 
" clip-path="url(#p285dd6a8b5)" style="fill: none; stroke: #006d5e"/>
    <path d="M 306.454931 343.024787 
L 306.454931 315.587933 
" clip-path="url(#p285dd6a8b5)" style="fill: none; stroke: #006d5e"/>
    <path d="M 361.561201 341.410854 
L 361.561201 326.078494 
" clip-path="url(#p285dd6a8b5)" style="fill: none; stroke: #006d5e"/>
    <path d="M 416.667472 341.007371 
L 416.667472 328.09591 
" clip-path="url(#p285dd6a8b5)" style="fill: none; stroke: #006d5e"/>
   </g>
   <g id="line2d_13">
    <path d="M 86.02985 339.796921 
L 87.389138 303.051369 
L 88.068782 288.759432 
L 88.748426 276.881249 
L 89.42807 267.05738 
L 90.107714 258.981726 
L 90.787358 252.393035 
L 91.467002 247.06831 
L 92.146646 242.81722 
L 92.82629 239.477335 
L 93.505934 236.91005 
L 94.185578 234.997107 
L 94.865222 233.637625 
L 95.544866 232.745562 
L 96.22451 232.247545 
L 96.904154 232.081022 
L 97.583798 232.192678 
L 98.263442 232.53709 
L 98.943086 233.075564 
L 100.302374 234.607844 
L 101.661662 236.580682 
L 103.700594 240.047763 
L 107.098814 246.426768 
L 112.535966 256.645224 
L 115.934186 262.600808 
L 119.332406 268.129152 
L 122.730626 273.228534 
L 126.128846 277.921173 
L 129.527066 282.237604 
L 132.925286 286.209882 
L 136.323506 289.868765 
L 139.721726 293.242676 
L 143.79959 296.951379 
L 147.877454 300.326583 
L 151.955318 303.403315 
L 156.033182 306.212372 
L 160.111046 308.780856 
L 164.868554 311.505084 
L 169.626062 313.967491 
L 174.38357 316.196909 
L 179.820722 318.491589 
L 185.257874 320.547123 
L 191.37467 322.608384 
L 197.491466 324.436338 
L 204.287906 326.228991 
L 211.76399 327.949909 
L 219.240074 329.444527 
L 227.395802 330.854185 
L 236.231174 332.160027 
L 245.74619 333.349477 
L 256.620494 334.480056 
L 268.854086 335.51385 
L 282.446966 336.426385 
L 297.399134 337.205833 
L 315.069878 337.897031 
L 335.459198 338.468158 
L 360.606026 338.941623 
L 392.549294 339.308003 
L 425.85185 339.523953 
L 425.85185 339.523953 
" clip-path="url(#p285dd6a8b5)" style="fill: none; stroke: #000000; stroke-width: 2; stroke-linecap: square"/>
   </g>
   <g id="line2d_14">
    <path d="M 86.02985 339.796921 
L 88.325945 311.956584 
L 90.622039 241.750517 
L 92.918134 170.334 
L 95.214228 139.669281 
L 97.510323 157.019056 
L 99.806418 165.492202 
L 104.398607 175.175798 
L 113.582985 212.69973 
L 122.767364 244.574899 
L 131.951742 265.959506 
L 141.13612 278.870966 
L 168.689255 301.869506 
L 196.242391 315.587933 
L 251.348661 328.902876 
L 306.454931 332.534225 
L 361.561201 334.55164 
L 416.667472 335.358607 
" clip-path="url(#p285dd6a8b5)" style="fill: none; stroke-dasharray: 3.7,1.6; stroke-dashoffset: 0; stroke: #000000"/>
    <defs>
     <path id="mfffe76fefd" d="M -3 3 
L 3 3 
L 3 -3 
L -3 -3 
z
" style="stroke: #000000; stroke-linejoin: miter"/>
    </defs>
    <g clip-path="url(#p285dd6a8b5)">
     <use xlink:href="#mfffe76fefd" x="86.02985" y="339.796921" style="stroke: #000000; stroke-linejoin: miter"/>
     <use xlink:href="#mfffe76fefd" x="88.325945" y="311.956584" style="stroke: #000000; stroke-linejoin: miter"/>
     <use xlink:href="#mfffe76fefd" x="90.622039" y="241.750517" style="stroke: #000000; stroke-linejoin: miter"/>
     <use xlink:href="#mfffe76fefd" x="92.918134" y="170.334" style="stroke: #000000; stroke-linejoin: miter"/>
     <use xlink:href="#mfffe76fefd" x="95.214228" y="139.669281" style="stroke: #000000; stroke-linejoin: miter"/>
     <use xlink:href="#mfffe76fefd" x="97.510323" y="157.019056" style="stroke: #000000; stroke-linejoin: miter"/>
     <use xlink:href="#mfffe76fefd" x="99.806418" y="165.492202" style="stroke: #000000; stroke-linejoin: miter"/>
     <use xlink:href="#mfffe76fefd" x="104.398607" y="175.175798" style="stroke: #000000; stroke-linejoin: miter"/>
     <use xlink:href="#mfffe76fefd" x="113.582985" y="212.69973" style="stroke: #000000; stroke-linejoin: miter"/>
     <use xlink:href="#mfffe76fefd" x="122.767364" y="244.574899" style="stroke: #000000; stroke-linejoin: miter"/>
     <use xlink:href="#mfffe76fefd" x="131.951742" y="265.959506" style="stroke: #000000; stroke-linejoin: miter"/>
     <use xlink:href="#mfffe76fefd" x="141.13612" y="278.870966" style="stroke: #000000; stroke-linejoin: miter"/>
     <use xlink:href="#mfffe76fefd" x="168.689255" y="301.869506" style="stroke: #000000; stroke-linejoin: miter"/>
     <use xlink:href="#mfffe76fefd" x="196.242391" y="315.587933" style="stroke: #000000; stroke-linejoin: miter"/>
     <use xlink:href="#mfffe76fefd" x="251.348661" y="328.902876" style="stroke: #000000; stroke-linejoin: miter"/>
     <use xlink:href="#mfffe76fefd" x="306.454931" y="332.534225" style="stroke: #000000; stroke-linejoin: miter"/>
     <use xlink:href="#mfffe76fefd" x="361.561201" y="334.55164" style="stroke: #000000; stroke-linejoin: miter"/>
     <use xlink:href="#mfffe76fefd" x="416.667472" y="335.358607" style="stroke: #000000; stroke-linejoin: miter"/>
    </g>
   </g>
   <g id="line2d_15">
    <path d="M 86.02985 339.796921 
L 87.389138 304.450541 
L 88.748426 278.266235 
L 90.107714 259.558511 
L 90.787358 252.407707 
L 91.467002 246.466811 
L 92.146646 241.573147 
L 92.82629 237.58528 
L 93.505934 234.380252 
L 94.185578 231.851188 
L 94.865222 229.905202 
L 95.544866 228.461579 
L 96.22451 227.450196 
L 96.904154 226.810144 
L 97.583798 226.488527 
L 98.263442 226.439423 
L 98.943086 226.622975 
L 99.62273 227.004602 
L 100.982018 228.2461 
L 102.341306 229.968812 
L 104.380238 233.145355 
L 107.098814 237.983618 
L 115.934186 254.233307 
L 119.332406 259.954442 
L 122.730626 265.265414 
L 126.128846 270.171038 
L 129.527066 274.693938 
L 132.925286 278.86328 
L 136.323506 282.709441 
L 139.721726 286.261603 
L 143.79959 290.173971 
L 147.877454 293.743716 
L 151.955318 297.007806 
L 156.033182 299.998639 
L 160.111046 302.744565 
L 164.868554 305.67156 
L 169.626062 308.333121 
L 174.38357 310.758724 
L 179.820722 313.274416 
L 185.257874 315.547714 
L 191.37467 317.849986 
L 197.491466 319.914415 
L 204.287906 321.963921 
L 211.084346 323.788207 
L 218.56043 325.568097 
L 226.716158 327.274392 
L 235.55153 328.88401 
L 245.066546 330.379831 
L 255.261206 331.750334 
L 266.13551 332.989084 
L 278.369102 334.153162 
L 291.961982 335.212404 
L 306.91415 336.147914 
L 323.90525 336.980505 
L 343.614926 337.710717 
L 366.043178 338.313911 
L 393.228938 338.816134 
L 425.85185 339.199679 
L 425.85185 339.199679 
" clip-path="url(#p285dd6a8b5)" style="fill: none; stroke: #006d5e; stroke-width: 2; stroke-linecap: square"/>
   </g>
   <g id="line2d_16">
    <path d="M 86.02985 339.796921 
L 88.325945 257.889843 
L 90.622039 222.786809 
L 92.918134 176.386247 
L 95.214228 149.75636 
L 97.510323 158.632989 
L 99.806418 165.492202 
L 104.398607 169.930517 
L 113.582985 184.859393 
L 122.767364 212.296247 
L 131.951742 238.119169 
L 141.13612 251.434112 
L 168.689255 280.081416 
L 196.242391 295.010292 
L 251.348661 320.026247 
L 306.454931 329.30636 
L 361.561201 333.744674 
L 416.667472 334.55164 
" clip-path="url(#p285dd6a8b5)" style="fill: none; stroke-dasharray: 3.7,1.6; stroke-dashoffset: 0; stroke: #006d5e"/>
    <defs>
     <path id="m8680214452" d="M -3 3 
L 3 3 
L 3 -3 
L -3 -3 
z
" style="stroke: #000000; stroke-linejoin: miter"/>
    </defs>
    <g clip-path="url(#p285dd6a8b5)">
     <use xlink:href="#m8680214452" x="86.02985" y="339.796921" style="fill: #006d5e; stroke: #000000; stroke-linejoin: miter"/>
     <use xlink:href="#m8680214452" x="88.325945" y="257.889843" style="fill: #006d5e; stroke: #000000; stroke-linejoin: miter"/>
     <use xlink:href="#m8680214452" x="90.622039" y="222.786809" style="fill: #006d5e; stroke: #000000; stroke-linejoin: miter"/>
     <use xlink:href="#m8680214452" x="92.918134" y="176.386247" style="fill: #006d5e; stroke: #000000; stroke-linejoin: miter"/>
     <use xlink:href="#m8680214452" x="95.214228" y="149.75636" style="fill: #006d5e; stroke: #000000; stroke-linejoin: miter"/>
     <use xlink:href="#m8680214452" x="97.510323" y="158.632989" style="fill: #006d5e; stroke: #000000; stroke-linejoin: miter"/>
     <use xlink:href="#m8680214452" x="99.806418" y="165.492202" style="fill: #006d5e; stroke: #000000; stroke-linejoin: miter"/>
     <use xlink:href="#m8680214452" x="104.398607" y="169.930517" style="fill: #006d5e; stroke: #000000; stroke-linejoin: miter"/>
     <use xlink:href="#m8680214452" x="113.582985" y="184.859393" style="fill: #006d5e; stroke: #000000; stroke-linejoin: miter"/>
     <use xlink:href="#m8680214452" x="122.767364" y="212.296247" style="fill: #006d5e; stroke: #000000; stroke-linejoin: miter"/>
     <use xlink:href="#m8680214452" x="131.951742" y="238.119169" style="fill: #006d5e; stroke: #000000; stroke-linejoin: miter"/>
     <use xlink:href="#m8680214452" x="141.13612" y="251.434112" style="fill: #006d5e; stroke: #000000; stroke-linejoin: miter"/>
     <use xlink:href="#m8680214452" x="168.689255" y="280.081416" style="fill: #006d5e; stroke: #000000; stroke-linejoin: miter"/>
     <use xlink:href="#m8680214452" x="196.242391" y="295.010292" style="fill: #006d5e; stroke: #000000; stroke-linejoin: miter"/>
     <use xlink:href="#m8680214452" x="251.348661" y="320.026247" style="fill: #006d5e; stroke: #000000; stroke-linejoin: miter"/>
     <use xlink:href="#m8680214452" x="306.454931" y="329.30636" style="fill: #006d5e; stroke: #000000; stroke-linejoin: miter"/>
     <use xlink:href="#m8680214452" x="361.561201" y="333.744674" style="fill: #006d5e; stroke: #000000; stroke-linejoin: miter"/>
     <use xlink:href="#m8680214452" x="416.667472" y="334.55164" style="fill: #006d5e; stroke: #000000; stroke-linejoin: miter"/>
    </g>
   </g>
   <g id="patch_3">
    <path d="M 69.03875 364.248 
L 69.03875 48.24 
" style="fill: none; stroke: #000000; stroke-width: 0.8; stroke-linejoin: miter; stroke-linecap: square"/>
   </g>
   <g id="patch_4">
    <path d="M 442.84295 364.248 
L 442.84295 48.24 
" style="fill: none; stroke: #000000; stroke-width: 0.8; stroke-linejoin: miter; stroke-linecap: square"/>
   </g>
   <g id="patch_5">
    <path d="M 69.03875 364.248 
L 442.84295 364.248 
" style="fill: none; stroke: #000000; stroke-width: 0.8; stroke-linejoin: miter; stroke-linecap: square"/>
   </g>
   <g id="patch_6">
    <path d="M 69.03875 48.24 
L 442.84295 48.24 
" style="fill: none; stroke: #000000; stroke-width: 0.8; stroke-linejoin: miter; stroke-linecap: square"/>
   </g>
   <g id="legend_1">
    <g id="patch_7">
     <path d="M 205.700606 134.96625 
L 433.74295 134.96625 
Q 436.34295 134.96625 436.34295 132.36625 
L 436.34295 57.34 
Q 436.34295 54.74 433.74295 54.74 
L 205.700606 54.74 
Q 203.100606 54.74 203.100606 57.34 
L 203.100606 132.36625 
Q 203.100606 134.96625 205.700606 134.96625 
z
" style="fill: #ffffff; opacity: 0.8; stroke: #cccccc; stroke-linejoin: miter"/>
    </g>
    <g id="line2d_17">
     <path d="M 208.300606 65.267969 
L 234.300606 65.267969 
" style="fill: none; stroke: #000000; stroke-width: 2; stroke-linecap: square"/>
    </g>
    <g id="line2d_18"/>
    <g id="text_15">
     <!-- sim: 5mg PO -->
     <g transform="translate(244.700606 69.817969) scale(0.13 -0.13)">
      <defs>
       <path id="DejaVuSans-73" d="M 2834 3397 
L 2834 2853 
Q 2591 2978 2328 3040 
Q 2066 3103 1784 3103 
Q 1356 3103 1142 2972 
Q 928 2841 928 2578 
Q 928 2378 1081 2264 
Q 1234 2150 1697 2047 
L 1894 2003 
Q 2506 1872 2764 1633 
Q 3022 1394 3022 966 
Q 3022 478 2636 193 
Q 2250 -91 1575 -91 
Q 1294 -91 989 -36 
Q 684 19 347 128 
L 347 722 
Q 666 556 975 473 
Q 1284 391 1588 391 
Q 1994 391 2212 530 
Q 2431 669 2431 922 
Q 2431 1156 2273 1281 
Q 2116 1406 1581 1522 
L 1381 1569 
Q 847 1681 609 1914 
Q 372 2147 372 2553 
Q 372 3047 722 3315 
Q 1072 3584 1716 3584 
Q 2034 3584 2315 3537 
Q 2597 3491 2834 3397 
z
" transform="scale(0.015625)"/>
       <path id="DejaVuSans-69" d="M 603 3500 
L 1178 3500 
L 1178 0 
L 603 0 
L 603 3500 
z
M 603 4863 
L 1178 4863 
L 1178 4134 
L 603 4134 
L 603 4863 
z
" transform="scale(0.015625)"/>
       <path id="DejaVuSans-6d" d="M 3328 2828 
Q 3544 3216 3844 3400 
Q 4144 3584 4550 3584 
Q 5097 3584 5394 3201 
Q 5691 2819 5691 2113 
L 5691 0 
L 5113 0 
L 5113 2094 
Q 5113 2597 4934 2840 
Q 4756 3084 4391 3084 
Q 3944 3084 3684 2787 
Q 3425 2491 3425 1978 
L 3425 0 
L 2847 0 
L 2847 2094 
Q 2847 2600 2669 2842 
Q 2491 3084 2119 3084 
Q 1678 3084 1418 2786 
Q 1159 2488 1159 1978 
L 1159 0 
L 581 0 
L 581 3500 
L 1159 3500 
L 1159 2956 
Q 1356 3278 1631 3431 
Q 1906 3584 2284 3584 
Q 2666 3584 2933 3390 
Q 3200 3197 3328 2828 
z
" transform="scale(0.015625)"/>
       <path id="DejaVuSans-3a" d="M 750 794 
L 1409 794 
L 1409 0 
L 750 0 
L 750 794 
z
M 750 3309 
L 1409 3309 
L 1409 2516 
L 750 2516 
L 750 3309 
z
" transform="scale(0.015625)"/>
       <path id="DejaVuSans-20" transform="scale(0.015625)"/>
       <path id="DejaVuSans-67" d="M 2906 1791 
Q 2906 2416 2648 2759 
Q 2391 3103 1925 3103 
Q 1463 3103 1205 2759 
Q 947 2416 947 1791 
Q 947 1169 1205 825 
Q 1463 481 1925 481 
Q 2391 481 2648 825 
Q 2906 1169 2906 1791 
z
M 3481 434 
Q 3481 -459 3084 -895 
Q 2688 -1331 1869 -1331 
Q 1566 -1331 1297 -1286 
Q 1028 -1241 775 -1147 
L 775 -588 
Q 1028 -725 1275 -790 
Q 1522 -856 1778 -856 
Q 2344 -856 2625 -561 
Q 2906 -266 2906 331 
L 2906 616 
Q 2728 306 2450 153 
Q 2172 0 1784 0 
Q 1141 0 747 490 
Q 353 981 353 1791 
Q 353 2603 747 3093 
Q 1141 3584 1784 3584 
Q 2172 3584 2450 3431 
Q 2728 3278 2906 2969 
L 2906 3500 
L 3481 3500 
L 3481 434 
z
" transform="scale(0.015625)"/>
       <path id="DejaVuSans-50" d="M 1259 4147 
L 1259 2394 
L 2053 2394 
Q 2494 2394 2734 2622 
Q 2975 2850 2975 3272 
Q 2975 3691 2734 3919 
Q 2494 4147 2053 4147 
L 1259 4147 
z
M 628 4666 
L 2053 4666 
Q 2838 4666 3239 4311 
Q 3641 3956 3641 3272 
Q 3641 2581 3239 2228 
Q 2838 1875 2053 1875 
L 1259 1875 
L 1259 0 
L 628 0 
L 628 4666 
z
" transform="scale(0.015625)"/>
       <path id="DejaVuSans-4f" d="M 2522 4238 
Q 1834 4238 1429 3725 
Q 1025 3213 1025 2328 
Q 1025 1447 1429 934 
Q 1834 422 2522 422 
Q 3209 422 3611 934 
Q 4013 1447 4013 2328 
Q 4013 3213 3611 3725 
Q 3209 4238 2522 4238 
z
M 2522 4750 
Q 3503 4750 4090 4092 
Q 4678 3434 4678 2328 
Q 4678 1225 4090 567 
Q 3503 -91 2522 -91 
Q 1538 -91 948 565 
Q 359 1222 359 2328 
Q 359 3434 948 4092 
Q 1538 4750 2522 4750 
z
" transform="scale(0.015625)"/>
      </defs>
      <use xlink:href="#DejaVuSans-73"/>
      <use xlink:href="#DejaVuSans-69" transform="translate(52.099609 0)"/>
      <use xlink:href="#DejaVuSans-6d" transform="translate(79.882812 0)"/>
      <use xlink:href="#DejaVuSans-3a" transform="translate(177.294922 0)"/>
      <use xlink:href="#DejaVuSans-20" transform="translate(210.986328 0)"/>
      <use xlink:href="#DejaVuSans-35" transform="translate(242.773438 0)"/>
      <use xlink:href="#DejaVuSans-6d" transform="translate(306.396484 0)"/>
      <use xlink:href="#DejaVuSans-67" transform="translate(403.808594 0)"/>
      <use xlink:href="#DejaVuSans-20" transform="translate(467.285156 0)"/>
      <use xlink:href="#DejaVuSans-50" transform="translate(499.072266 0)"/>
      <use xlink:href="#DejaVuSans-4f" transform="translate(559.375 0)"/>
     </g>
    </g>
    <g id="LineCollection_3">
     <path d="M 221.300606 90.849531 
L 221.300606 77.849531 
" style="fill: none; stroke: #000000"/>
    </g>
    <g id="line2d_19">
     <path d="M 208.300606 84.349531 
L 234.300606 84.349531 
" style="fill: none; stroke-dasharray: 3.7,1.6; stroke-dashoffset: 0; stroke: #000000"/>
    </g>
    <g id="line2d_20">
     <g>
      <use xlink:href="#mfffe76fefd" x="221.300606" y="84.349531" style="stroke: #000000; stroke-linejoin: miter"/>
     </g>
    </g>
    <g id="text_16">
     <!-- exp: 5mg PO±SD (n=8) -->
     <g transform="translate(244.700606 88.899531) scale(0.13 -0.13)">
      <defs>
       <path id="DejaVuSans-65" d="M 3597 1894 
L 3597 1613 
L 953 1613 
Q 991 1019 1311 708 
Q 1631 397 2203 397 
Q 2534 397 2845 478 
Q 3156 559 3463 722 
L 3463 178 
Q 3153 47 2828 -22 
Q 2503 -91 2169 -91 
Q 1331 -91 842 396 
Q 353 884 353 1716 
Q 353 2575 817 3079 
Q 1281 3584 2069 3584 
Q 2775 3584 3186 3129 
Q 3597 2675 3597 1894 
z
M 3022 2063 
Q 3016 2534 2758 2815 
Q 2500 3097 2075 3097 
Q 1594 3097 1305 2825 
Q 1016 2553 972 2059 
L 3022 2063 
z
" transform="scale(0.015625)"/>
       <path id="DejaVuSans-78" d="M 3513 3500 
L 2247 1797 
L 3578 0 
L 2900 0 
L 1881 1375 
L 863 0 
L 184 0 
L 1544 1831 
L 300 3500 
L 978 3500 
L 1906 2253 
L 2834 3500 
L 3513 3500 
z
" transform="scale(0.015625)"/>
       <path id="DejaVuSans-70" d="M 1159 525 
L 1159 -1331 
L 581 -1331 
L 581 3500 
L 1159 3500 
L 1159 2969 
Q 1341 3281 1617 3432 
Q 1894 3584 2278 3584 
Q 2916 3584 3314 3078 
Q 3713 2572 3713 1747 
Q 3713 922 3314 415 
Q 2916 -91 2278 -91 
Q 1894 -91 1617 61 
Q 1341 213 1159 525 
z
M 3116 1747 
Q 3116 2381 2855 2742 
Q 2594 3103 2138 3103 
Q 1681 3103 1420 2742 
Q 1159 2381 1159 1747 
Q 1159 1113 1420 752 
Q 1681 391 2138 391 
Q 2594 391 2855 752 
Q 3116 1113 3116 1747 
z
" transform="scale(0.015625)"/>
       <path id="DejaVuSans-b1" d="M 2944 4013 
L 2944 2803 
L 4684 2803 
L 4684 2272 
L 2944 2272 
L 2944 1063 
L 2419 1063 
L 2419 2272 
L 678 2272 
L 678 2803 
L 2419 2803 
L 2419 4013 
L 2944 4013 
z
M 678 531 
L 4684 531 
L 4684 0 
L 678 0 
L 678 531 
z
" transform="scale(0.015625)"/>
       <path id="DejaVuSans-53" d="M 3425 4513 
L 3425 3897 
Q 3066 4069 2747 4153 
Q 2428 4238 2131 4238 
Q 1616 4238 1336 4038 
Q 1056 3838 1056 3469 
Q 1056 3159 1242 3001 
Q 1428 2844 1947 2747 
L 2328 2669 
Q 3034 2534 3370 2195 
Q 3706 1856 3706 1288 
Q 3706 609 3251 259 
Q 2797 -91 1919 -91 
Q 1588 -91 1214 -16 
Q 841 59 441 206 
L 441 856 
Q 825 641 1194 531 
Q 1563 422 1919 422 
Q 2459 422 2753 634 
Q 3047 847 3047 1241 
Q 3047 1584 2836 1778 
Q 2625 1972 2144 2069 
L 1759 2144 
Q 1053 2284 737 2584 
Q 422 2884 422 3419 
Q 422 4038 858 4394 
Q 1294 4750 2059 4750 
Q 2388 4750 2728 4690 
Q 3069 4631 3425 4513 
z
" transform="scale(0.015625)"/>
       <path id="DejaVuSans-44" d="M 1259 4147 
L 1259 519 
L 2022 519 
Q 2988 519 3436 956 
Q 3884 1394 3884 2338 
Q 3884 3275 3436 3711 
Q 2988 4147 2022 4147 
L 1259 4147 
z
M 628 4666 
L 1925 4666 
Q 3281 4666 3915 4102 
Q 4550 3538 4550 2338 
Q 4550 1131 3912 565 
Q 3275 0 1925 0 
L 628 0 
L 628 4666 
z
" transform="scale(0.015625)"/>
       <path id="DejaVuSans-28" d="M 1984 4856 
Q 1566 4138 1362 3434 
Q 1159 2731 1159 2009 
Q 1159 1288 1364 580 
Q 1569 -128 1984 -844 
L 1484 -844 
Q 1016 -109 783 600 
Q 550 1309 550 2009 
Q 550 2706 781 3412 
Q 1013 4119 1484 4856 
L 1984 4856 
z
" transform="scale(0.015625)"/>
       <path id="DejaVuSans-6e" d="M 3513 2113 
L 3513 0 
L 2938 0 
L 2938 2094 
Q 2938 2591 2744 2837 
Q 2550 3084 2163 3084 
Q 1697 3084 1428 2787 
Q 1159 2491 1159 1978 
L 1159 0 
L 581 0 
L 581 3500 
L 1159 3500 
L 1159 2956 
Q 1366 3272 1645 3428 
Q 1925 3584 2291 3584 
Q 2894 3584 3203 3211 
Q 3513 2838 3513 2113 
z
" transform="scale(0.015625)"/>
       <path id="DejaVuSans-3d" d="M 678 2906 
L 4684 2906 
L 4684 2381 
L 678 2381 
L 678 2906 
z
M 678 1631 
L 4684 1631 
L 4684 1100 
L 678 1100 
L 678 1631 
z
" transform="scale(0.015625)"/>
       <path id="DejaVuSans-38" d="M 2034 2216 
Q 1584 2216 1326 1975 
Q 1069 1734 1069 1313 
Q 1069 891 1326 650 
Q 1584 409 2034 409 
Q 2484 409 2743 651 
Q 3003 894 3003 1313 
Q 3003 1734 2745 1975 
Q 2488 2216 2034 2216 
z
M 1403 2484 
Q 997 2584 770 2862 
Q 544 3141 544 3541 
Q 544 4100 942 4425 
Q 1341 4750 2034 4750 
Q 2731 4750 3128 4425 
Q 3525 4100 3525 3541 
Q 3525 3141 3298 2862 
Q 3072 2584 2669 2484 
Q 3125 2378 3379 2068 
Q 3634 1759 3634 1313 
Q 3634 634 3220 271 
Q 2806 -91 2034 -91 
Q 1263 -91 848 271 
Q 434 634 434 1313 
Q 434 1759 690 2068 
Q 947 2378 1403 2484 
z
M 1172 3481 
Q 1172 3119 1398 2916 
Q 1625 2713 2034 2713 
Q 2441 2713 2670 2916 
Q 2900 3119 2900 3481 
Q 2900 3844 2670 4047 
Q 2441 4250 2034 4250 
Q 1625 4250 1398 4047 
Q 1172 3844 1172 3481 
z
" transform="scale(0.015625)"/>
       <path id="DejaVuSans-29" d="M 513 4856 
L 1013 4856 
Q 1481 4119 1714 3412 
Q 1947 2706 1947 2009 
Q 1947 1309 1714 600 
Q 1481 -109 1013 -844 
L 513 -844 
Q 928 -128 1133 580 
Q 1338 1288 1338 2009 
Q 1338 2731 1133 3434 
Q 928 4138 513 4856 
z
" transform="scale(0.015625)"/>
      </defs>
      <use xlink:href="#DejaVuSans-65"/>
      <use xlink:href="#DejaVuSans-78" transform="translate(59.773438 0)"/>
      <use xlink:href="#DejaVuSans-70" transform="translate(118.953125 0)"/>
      <use xlink:href="#DejaVuSans-3a" transform="translate(182.429688 0)"/>
      <use xlink:href="#DejaVuSans-20" transform="translate(216.121094 0)"/>
      <use xlink:href="#DejaVuSans-35" transform="translate(247.908203 0)"/>
      <use xlink:href="#DejaVuSans-6d" transform="translate(311.53125 0)"/>
      <use xlink:href="#DejaVuSans-67" transform="translate(408.943359 0)"/>
      <use xlink:href="#DejaVuSans-20" transform="translate(472.419922 0)"/>
      <use xlink:href="#DejaVuSans-50" transform="translate(504.207031 0)"/>
      <use xlink:href="#DejaVuSans-4f" transform="translate(564.509766 0)"/>
      <use xlink:href="#DejaVuSans-b1" transform="translate(643.220703 0)"/>
      <use xlink:href="#DejaVuSans-53" transform="translate(727.009766 0)"/>
      <use xlink:href="#DejaVuSans-44" transform="translate(790.486328 0)"/>
      <use xlink:href="#DejaVuSans-20" transform="translate(867.488281 0)"/>
      <use xlink:href="#DejaVuSans-28" transform="translate(899.275391 0)"/>
      <use xlink:href="#DejaVuSans-6e" transform="translate(938.289062 0)"/>
      <use xlink:href="#DejaVuSans-3d" transform="translate(1001.667969 0)"/>
      <use xlink:href="#DejaVuSans-38" transform="translate(1085.457031 0)"/>
      <use xlink:href="#DejaVuSans-29" transform="translate(1149.080078 0)"/>
     </g>
    </g>
    <g id="line2d_21">
     <path d="M 208.300606 103.431094 
L 234.300606 103.431094 
" style="fill: none; stroke: #006d5e; stroke-width: 2; stroke-linecap: square"/>
    </g>
    <g id="line2d_22"/>
    <g id="text_17">
     <!-- sim EsRI: 5mg PO -->
     <g transform="translate(244.700606 107.981094) scale(0.13 -0.13)">
      <defs>
       <path id="DejaVuSans-45" d="M 628 4666 
L 3578 4666 
L 3578 4134 
L 1259 4134 
L 1259 2753 
L 3481 2753 
L 3481 2222 
L 1259 2222 
L 1259 531 
L 3634 531 
L 3634 0 
L 628 0 
L 628 4666 
z
" transform="scale(0.015625)"/>
       <path id="DejaVuSans-52" d="M 2841 2188 
Q 3044 2119 3236 1894 
Q 3428 1669 3622 1275 
L 4263 0 
L 3584 0 
L 2988 1197 
Q 2756 1666 2539 1819 
Q 2322 1972 1947 1972 
L 1259 1972 
L 1259 0 
L 628 0 
L 628 4666 
L 2053 4666 
Q 2853 4666 3247 4331 
Q 3641 3997 3641 3322 
Q 3641 2881 3436 2590 
Q 3231 2300 2841 2188 
z
M 1259 4147 
L 1259 2491 
L 2053 2491 
Q 2509 2491 2742 2702 
Q 2975 2913 2975 3322 
Q 2975 3731 2742 3939 
Q 2509 4147 2053 4147 
L 1259 4147 
z
" transform="scale(0.015625)"/>
       <path id="DejaVuSans-49" d="M 628 4666 
L 1259 4666 
L 1259 0 
L 628 0 
L 628 4666 
z
" transform="scale(0.015625)"/>
      </defs>
      <use xlink:href="#DejaVuSans-73"/>
      <use xlink:href="#DejaVuSans-69" transform="translate(52.099609 0)"/>
      <use xlink:href="#DejaVuSans-6d" transform="translate(79.882812 0)"/>
      <use xlink:href="#DejaVuSans-20" transform="translate(177.294922 0)"/>
      <use xlink:href="#DejaVuSans-45" transform="translate(209.082031 0)"/>
      <use xlink:href="#DejaVuSans-73" transform="translate(272.265625 0)"/>
      <use xlink:href="#DejaVuSans-52" transform="translate(324.365234 0)"/>
      <use xlink:href="#DejaVuSans-49" transform="translate(393.847656 0)"/>
      <use xlink:href="#DejaVuSans-3a" transform="translate(423.339844 0)"/>
      <use xlink:href="#DejaVuSans-20" transform="translate(457.03125 0)"/>
      <use xlink:href="#DejaVuSans-35" transform="translate(488.818359 0)"/>
      <use xlink:href="#DejaVuSans-6d" transform="translate(552.441406 0)"/>
      <use xlink:href="#DejaVuSans-67" transform="translate(649.853516 0)"/>
      <use xlink:href="#DejaVuSans-20" transform="translate(713.330078 0)"/>
      <use xlink:href="#DejaVuSans-50" transform="translate(745.117188 0)"/>
      <use xlink:href="#DejaVuSans-4f" transform="translate(805.419922 0)"/>
     </g>
    </g>
    <g id="LineCollection_4">
     <path d="M 221.300606 129.012656 
L 221.300606 116.012656 
" style="fill: none; stroke: #006d5e"/>
    </g>
    <g id="line2d_23">
     <path d="M 208.300606 122.512656 
L 234.300606 122.512656 
" style="fill: none; stroke-dasharray: 3.7,1.6; stroke-dashoffset: 0; stroke: #006d5e"/>
    </g>
    <g id="line2d_24">
     <g>
      <use xlink:href="#m8680214452" x="221.300606" y="122.512656" style="fill: #006d5e; stroke: #000000; stroke-linejoin: miter"/>
     </g>
    </g>
    <g id="text_18">
     <!-- exp EsRI: 5mg PO±SD (n=8) -->
     <g transform="translate(244.700606 127.062656) scale(0.13 -0.13)">
      <use xlink:href="#DejaVuSans-65"/>
      <use xlink:href="#DejaVuSans-78" transform="translate(59.773438 0)"/>
      <use xlink:href="#DejaVuSans-70" transform="translate(118.953125 0)"/>
      <use xlink:href="#DejaVuSans-20" transform="translate(182.429688 0)"/>
      <use xlink:href="#DejaVuSans-45" transform="translate(214.216797 0)"/>
      <use xlink:href="#DejaVuSans-73" transform="translate(277.400391 0)"/>
      <use xlink:href="#DejaVuSans-52" transform="translate(329.5 0)"/>
      <use xlink:href="#DejaVuSans-49" transform="translate(398.982422 0)"/>
      <use xlink:href="#DejaVuSans-3a" transform="translate(428.474609 0)"/>
      <use xlink:href="#DejaVuSans-20" transform="translate(462.166016 0)"/>
      <use xlink:href="#DejaVuSans-35" transform="translate(493.953125 0)"/>
      <use xlink:href="#DejaVuSans-6d" transform="translate(557.576172 0)"/>
      <use xlink:href="#DejaVuSans-67" transform="translate(654.988281 0)"/>
      <use xlink:href="#DejaVuSans-20" transform="translate(718.464844 0)"/>
      <use xlink:href="#DejaVuSans-50" transform="translate(750.251953 0)"/>
      <use xlink:href="#DejaVuSans-4f" transform="translate(810.554688 0)"/>
      <use xlink:href="#DejaVuSans-b1" transform="translate(889.265625 0)"/>
      <use xlink:href="#DejaVuSans-53" transform="translate(973.054688 0)"/>
      <use xlink:href="#DejaVuSans-44" transform="translate(1036.53125 0)"/>
      <use xlink:href="#DejaVuSans-20" transform="translate(1113.533203 0)"/>
      <use xlink:href="#DejaVuSans-28" transform="translate(1145.320312 0)"/>
      <use xlink:href="#DejaVuSans-6e" transform="translate(1184.333984 0)"/>
      <use xlink:href="#DejaVuSans-3d" transform="translate(1247.712891 0)"/>
      <use xlink:href="#DejaVuSans-38" transform="translate(1331.501953 0)"/>
      <use xlink:href="#DejaVuSans-29" transform="translate(1395.125 0)"/>
     </g>
    </g>
   </g>
  </g>
  <g id="text_19">
   <!-- Wang2016 -->
   <g transform="translate(175.507453 26.000781) scale(0.25 -0.25)">
    <defs>
     <path id="DejaVuSans-Bold-57" d="M 191 4666 
L 1344 4666 
L 2150 1275 
L 2950 4666 
L 4109 4666 
L 4909 1275 
L 5716 4666 
L 6859 4666 
L 5759 0 
L 4372 0 
L 3525 3547 
L 2688 0 
L 1300 0 
L 191 4666 
z
" transform="scale(0.015625)"/>
     <path id="DejaVuSans-Bold-67" d="M 2919 594 
Q 2688 288 2409 144 
Q 2131 0 1766 0 
Q 1125 0 706 504 
Q 288 1009 288 1791 
Q 288 2575 706 3076 
Q 1125 3578 1766 3578 
Q 2131 3578 2409 3434 
Q 2688 3291 2919 2981 
L 2919 3500 
L 4044 3500 
L 4044 353 
Q 4044 -491 3511 -936 
Q 2978 -1381 1966 -1381 
Q 1638 -1381 1331 -1331 
Q 1025 -1281 716 -1178 
L 716 -306 
Q 1009 -475 1290 -558 
Q 1572 -641 1856 -641 
Q 2406 -641 2662 -400 
Q 2919 -159 2919 353 
L 2919 594 
z
M 2181 2772 
Q 1834 2772 1640 2515 
Q 1447 2259 1447 1791 
Q 1447 1309 1634 1061 
Q 1822 813 2181 813 
Q 2531 813 2725 1069 
Q 2919 1325 2919 1791 
Q 2919 2259 2725 2515 
Q 2531 2772 2181 2772 
z
" transform="scale(0.015625)"/>
     <path id="DejaVuSans-Bold-32" d="M 1844 884 
L 3897 884 
L 3897 0 
L 506 0 
L 506 884 
L 2209 2388 
Q 2438 2594 2547 2791 
Q 2656 2988 2656 3200 
Q 2656 3528 2436 3728 
Q 2216 3928 1850 3928 
Q 1569 3928 1234 3808 
Q 900 3688 519 3450 
L 519 4475 
Q 925 4609 1322 4679 
Q 1719 4750 2100 4750 
Q 2938 4750 3402 4381 
Q 3866 4013 3866 3353 
Q 3866 2972 3669 2642 
Q 3472 2313 2841 1759 
L 1844 884 
z
" transform="scale(0.015625)"/>
     <path id="DejaVuSans-Bold-30" d="M 2944 2338 
Q 2944 3213 2780 3570 
Q 2616 3928 2228 3928 
Q 1841 3928 1675 3570 
Q 1509 3213 1509 2338 
Q 1509 1453 1675 1090 
Q 1841 728 2228 728 
Q 2613 728 2778 1090 
Q 2944 1453 2944 2338 
z
M 4147 2328 
Q 4147 1169 3647 539 
Q 3147 -91 2228 -91 
Q 1306 -91 806 539 
Q 306 1169 306 2328 
Q 306 3491 806 4120 
Q 1306 4750 2228 4750 
Q 3147 4750 3647 4120 
Q 4147 3491 4147 2328 
z
" transform="scale(0.015625)"/>
     <path id="DejaVuSans-Bold-31" d="M 750 831 
L 1813 831 
L 1813 3847 
L 722 3622 
L 722 4441 
L 1806 4666 
L 2950 4666 
L 2950 831 
L 4013 831 
L 4013 0 
L 750 0 
L 750 831 
z
" transform="scale(0.015625)"/>
     <path id="DejaVuSans-Bold-36" d="M 2316 2303 
Q 2000 2303 1842 2098 
Q 1684 1894 1684 1484 
Q 1684 1075 1842 870 
Q 2000 666 2316 666 
Q 2634 666 2792 870 
Q 2950 1075 2950 1484 
Q 2950 1894 2792 2098 
Q 2634 2303 2316 2303 
z
M 3803 4544 
L 3803 3681 
Q 3506 3822 3243 3889 
Q 2981 3956 2731 3956 
Q 2194 3956 1894 3657 
Q 1594 3359 1544 2772 
Q 1750 2925 1990 3001 
Q 2231 3078 2516 3078 
Q 3231 3078 3670 2659 
Q 4109 2241 4109 1563 
Q 4109 813 3618 361 
Q 3128 -91 2303 -91 
Q 1394 -91 895 523 
Q 397 1138 397 2266 
Q 397 3422 980 4083 
Q 1563 4744 2578 4744 
Q 2900 4744 3203 4694 
Q 3506 4644 3803 4544 
z
" transform="scale(0.015625)"/>
    </defs>
    <use xlink:href="#DejaVuSans-Bold-57"/>
    <use xlink:href="#DejaVuSans-Bold-61" transform="translate(106.677734 0)"/>
    <use xlink:href="#DejaVuSans-Bold-6e" transform="translate(174.158203 0)"/>
    <use xlink:href="#DejaVuSans-Bold-67" transform="translate(245.349609 0)"/>
    <use xlink:href="#DejaVuSans-Bold-32" transform="translate(316.931641 0)"/>
    <use xlink:href="#DejaVuSans-Bold-30" transform="translate(386.511719 0)"/>
    <use xlink:href="#DejaVuSans-Bold-31" transform="translate(456.091797 0)"/>
    <use xlink:href="#DejaVuSans-Bold-36" transform="translate(525.671875 0)"/>
   </g>
  </g>
 </g>
 <defs>
  <clipPath id="p285dd6a8b5">
   <rect x="69.03875" y="48.24" width="373.8042" height="316.008"/>
  </clipPath>
 </defs>
</svg>
