<?xml version="1.0" encoding="utf-8" standalone="no"?>
<!DOCTYPE svg PUBLIC "-//W3C//DTD SVG 1.1//EN"
  "http://www.w3.org/Graphics/SVG/1.1/DTD/svg11.dtd">
<svg xmlns:xlink="http://www.w3.org/1999/xlink" width="847.895pt" height="370.537812pt" viewBox="0 0 847.895 370.537812" xmlns="http://www.w3.org/2000/svg" version="1.1">
 <metadata>
  <rdf:RDF xmlns:dc="http://purl.org/dc/elements/1.1/" xmlns:cc="http://creativecommons.org/ns#" xmlns:rdf="http://www.w3.org/1999/02/22-rdf-syntax-ns#">
   <cc:Work>
    <dc:type rdf:resource="http://purl.org/dc/dcmitype/StillImage"/>
    <dc:date>2026-03-19T12:57:32.494010</dc:date>
    <dc:format>image/svg+xml</dc:format>
    <dc:creator>
     <cc:Agent>
      <dc:title>Matplotlib v3.10.8, https://matplotlib.org/</dc:title>
     </cc:Agent>
    </dc:creator>
   </cc:Work>
  </rdf:RDF>
 </metadata>
 <defs>
  <style type="text/css">*{stroke-linejoin: round; stroke-linecap: butt}</style>
 </defs>
 <g id="figure_1">
  <g id="patch_1">
   <path d="M 0 370.537812 
L 847.895 370.537812 
L 847.895 0 
L 0 0 
z
" style="fill: #ffffff"/>
  </g>
  <g id="axes_1">
   <g id="patch_2">
    <path d="M 59.495 320.4 
L 399.147174 320.4 
L 399.147174 43.2 
L 59.495 43.2 
z
" style="fill: #ffffff"/>
   </g>
   <g id="matplotlib.axis_1">
    <g id="xtick_1">
     <g id="line2d_1">
      <defs>
       <path id="m509c9d8cd7" d="M 0 0 
L 0 3.5 
" style="stroke: #000000; stroke-width: 0.8"/>
      </defs>
      <g>
       <use xlink:href="#m509c9d8cd7" x="74.933735" y="320.4" style="stroke: #000000; stroke-width: 0.8"/>
      </g>
     </g>
     <g id="text_1">
      <!-- 0 -->
      <g transform="translate(70.16186 338.797656) scale(0.15 -0.15)">
       <defs>
        <path id="DejaVuSans-30" d="M 2034 4250 
Q 1547 4250 1301 3770 
Q 1056 3291 1056 2328 
Q 1056 1369 1301 889 
Q 1547 409 2034 409 
Q 2525 409 2770 889 
Q 3016 1369 3016 2328 
Q 3016 3291 2770 3770 
Q 2525 4250 2034 4250 
z
M 2034 4750 
Q 2819 4750 3233 4129 
Q 3647 3509 3647 2328 
Q 3647 1150 3233 529 
Q 2819 -91 2034 -91 
Q 1250 -91 836 529 
Q 422 1150 422 2328 
Q 422 3509 836 4129 
Q 1250 4750 2034 4750 
z
" transform="scale(0.015625)"/>
       </defs>
       <use xlink:href="#DejaVuSans-30"/>
      </g>
     </g>
    </g>
    <g id="xtick_2">
     <g id="line2d_2">
      <g>
       <use xlink:href="#m509c9d8cd7" x="157.273656" y="320.4" style="stroke: #000000; stroke-width: 0.8"/>
      </g>
     </g>
     <g id="text_2">
      <!-- 20 -->
      <g transform="translate(147.729906 338.797656) scale(0.15 -0.15)">
       <defs>
        <path id="DejaVuSans-32" d="M 1228 531 
L 3431 531 
L 3431 0 
L 469 0 
L 469 531 
Q 828 903 1448 1529 
Q 2069 2156 2228 2338 
Q 2531 2678 2651 2914 
Q 2772 3150 2772 3378 
Q 2772 3750 2511 3984 
Q 2250 4219 1831 4219 
Q 1534 4219 1204 4116 
Q 875 4013 500 3803 
L 500 4441 
Q 881 4594 1212 4672 
Q 1544 4750 1819 4750 
Q 2544 4750 2975 4387 
Q 3406 4025 3406 3419 
Q 3406 3131 3298 2873 
Q 3191 2616 2906 2266 
Q 2828 2175 2409 1742 
Q 1991 1309 1228 531 
z
" transform="scale(0.015625)"/>
       </defs>
       <use xlink:href="#DejaVuSans-32"/>
       <use xlink:href="#DejaVuSans-30" transform="translate(63.623047 0)"/>
      </g>
     </g>
    </g>
    <g id="xtick_3">
     <g id="line2d_3">
      <g>
       <use xlink:href="#m509c9d8cd7" x="239.613577" y="320.4" style="stroke: #000000; stroke-width: 0.8"/>
      </g>
     </g>
     <g id="text_3">
      <!-- 40 -->
      <g transform="translate(230.069827 338.797656) scale(0.15 -0.15)">
       <defs>
        <path id="DejaVuSans-34" d="M 2419 4116 
L 825 1625 
L 2419 1625 
L 2419 4116 
z
M 2253 4666 
L 3047 4666 
L 3047 1625 
L 3713 1625 
L 3713 1100 
L 3047 1100 
L 3047 0 
L 2419 0 
L 2419 1100 
L 313 1100 
L 313 1709 
L 2253 4666 
z
" transform="scale(0.015625)"/>
       </defs>
       <use xlink:href="#DejaVuSans-34"/>
       <use xlink:href="#DejaVuSans-30" transform="translate(63.623047 0)"/>
      </g>
     </g>
    </g>
    <g id="xtick_4">
     <g id="line2d_4">
      <g>
       <use xlink:href="#m509c9d8cd7" x="321.953498" y="320.4" style="stroke: #000000; stroke-width: 0.8"/>
      </g>
     </g>
     <g id="text_4">
      <!-- 60 -->
      <g transform="translate(312.409748 338.797656) scale(0.15 -0.15)">
       <defs>
        <path id="DejaVuSans-36" d="M 2113 2584 
Q 1688 2584 1439 2293 
Q 1191 2003 1191 1497 
Q 1191 994 1439 701 
Q 1688 409 2113 409 
Q 2538 409 2786 701 
Q 3034 994 3034 1497 
Q 3034 2003 2786 2293 
Q 2538 2584 2113 2584 
z
M 3366 4563 
L 3366 3988 
Q 3128 4100 2886 4159 
Q 2644 4219 2406 4219 
Q 1781 4219 1451 3797 
Q 1122 3375 1075 2522 
Q 1259 2794 1537 2939 
Q 1816 3084 2150 3084 
Q 2853 3084 3261 2657 
Q 3669 2231 3669 1497 
Q 3669 778 3244 343 
Q 2819 -91 2113 -91 
Q 1303 -91 875 529 
Q 447 1150 447 2328 
Q 447 3434 972 4092 
Q 1497 4750 2381 4750 
Q 2619 4750 2861 4703 
Q 3103 4656 3366 4563 
z
" transform="scale(0.015625)"/>
       </defs>
       <use xlink:href="#DejaVuSans-36"/>
       <use xlink:href="#DejaVuSans-30" transform="translate(63.623047 0)"/>
      </g>
     </g>
    </g>
    <g id="text_5">
     <!-- time [hr] -->
     <g transform="translate(184.246556 359.594375) scale(0.18 -0.18)">
      <defs>
       <path id="DejaVuSans-Bold-74" d="M 1759 4494 
L 1759 3500 
L 2913 3500 
L 2913 2700 
L 1759 2700 
L 1759 1216 
Q 1759 972 1856 886 
Q 1953 800 2241 800 
L 2816 800 
L 2816 0 
L 1856 0 
Q 1194 0 917 276 
Q 641 553 641 1216 
L 641 2700 
L 84 2700 
L 84 3500 
L 641 3500 
L 641 4494 
L 1759 4494 
z
" transform="scale(0.015625)"/>
       <path id="DejaVuSans-Bold-69" d="M 538 3500 
L 1656 3500 
L 1656 0 
L 538 0 
L 538 3500 
z
M 538 4863 
L 1656 4863 
L 1656 3950 
L 538 3950 
L 538 4863 
z
" transform="scale(0.015625)"/>
       <path id="DejaVuSans-Bold-6d" d="M 3781 2919 
Q 3994 3244 4286 3414 
Q 4578 3584 4928 3584 
Q 5531 3584 5847 3212 
Q 6163 2841 6163 2131 
L 6163 0 
L 5038 0 
L 5038 1825 
Q 5041 1866 5042 1909 
Q 5044 1953 5044 2034 
Q 5044 2406 4934 2573 
Q 4825 2741 4581 2741 
Q 4263 2741 4089 2478 
Q 3916 2216 3909 1719 
L 3909 0 
L 2784 0 
L 2784 1825 
Q 2784 2406 2684 2573 
Q 2584 2741 2328 2741 
Q 2006 2741 1831 2477 
Q 1656 2213 1656 1722 
L 1656 0 
L 531 0 
L 531 3500 
L 1656 3500 
L 1656 2988 
Q 1863 3284 2130 3434 
Q 2397 3584 2719 3584 
Q 3081 3584 3359 3409 
Q 3638 3234 3781 2919 
z
" transform="scale(0.015625)"/>
       <path id="DejaVuSans-Bold-65" d="M 4031 1759 
L 4031 1441 
L 1416 1441 
Q 1456 1047 1700 850 
Q 1944 653 2381 653 
Q 2734 653 3104 758 
Q 3475 863 3866 1075 
L 3866 213 
Q 3469 63 3072 -14 
Q 2675 -91 2278 -91 
Q 1328 -91 801 392 
Q 275 875 275 1747 
Q 275 2603 792 3093 
Q 1309 3584 2216 3584 
Q 3041 3584 3536 3087 
Q 4031 2591 4031 1759 
z
M 2881 2131 
Q 2881 2450 2695 2645 
Q 2509 2841 2209 2841 
Q 1884 2841 1681 2658 
Q 1478 2475 1428 2131 
L 2881 2131 
z
" transform="scale(0.015625)"/>
       <path id="DejaVuSans-Bold-20" transform="scale(0.015625)"/>
       <path id="DejaVuSans-Bold-5b" d="M 550 4863 
L 2491 4863 
L 2491 4159 
L 1613 4159 
L 1613 -141 
L 2491 -141 
L 2491 -844 
L 550 -844 
L 550 4863 
z
" transform="scale(0.015625)"/>
       <path id="DejaVuSans-Bold-68" d="M 4056 2131 
L 4056 0 
L 2931 0 
L 2931 347 
L 2931 1625 
Q 2931 2084 2911 2256 
Q 2891 2428 2841 2509 
Q 2775 2619 2662 2680 
Q 2550 2741 2406 2741 
Q 2056 2741 1856 2470 
Q 1656 2200 1656 1722 
L 1656 0 
L 538 0 
L 538 4863 
L 1656 4863 
L 1656 2988 
Q 1909 3294 2193 3439 
Q 2478 3584 2822 3584 
Q 3428 3584 3742 3212 
Q 4056 2841 4056 2131 
z
" transform="scale(0.015625)"/>
       <path id="DejaVuSans-Bold-72" d="M 3138 2547 
Q 2991 2616 2845 2648 
Q 2700 2681 2553 2681 
Q 2122 2681 1889 2404 
Q 1656 2128 1656 1613 
L 1656 0 
L 538 0 
L 538 3500 
L 1656 3500 
L 1656 2925 
Q 1872 3269 2151 3426 
Q 2431 3584 2822 3584 
Q 2878 3584 2943 3579 
Q 3009 3575 3134 3559 
L 3138 2547 
z
" transform="scale(0.015625)"/>
       <path id="DejaVuSans-Bold-5d" d="M 2375 -844 
L 434 -844 
L 434 -141 
L 1313 -141 
L 1313 4159 
L 434 4159 
L 434 4863 
L 2375 4863 
L 2375 -844 
z
" transform="scale(0.015625)"/>
      </defs>
      <use xlink:href="#DejaVuSans-Bold-74"/>
      <use xlink:href="#DejaVuSans-Bold-69" transform="translate(47.802734 0)"/>
      <use xlink:href="#DejaVuSans-Bold-6d" transform="translate(82.080078 0)"/>
      <use xlink:href="#DejaVuSans-Bold-65" transform="translate(186.279297 0)"/>
      <use xlink:href="#DejaVuSans-Bold-20" transform="translate(254.101562 0)"/>
      <use xlink:href="#DejaVuSans-Bold-5b" transform="translate(288.916016 0)"/>
      <use xlink:href="#DejaVuSans-Bold-68" transform="translate(334.619141 0)"/>
      <use xlink:href="#DejaVuSans-Bold-72" transform="translate(405.810547 0)"/>
      <use xlink:href="#DejaVuSans-Bold-5d" transform="translate(455.126953 0)"/>
     </g>
    </g>
   </g>
   <g id="matplotlib.axis_2">
    <g id="ytick_1">
     <g id="line2d_5">
      <defs>
       <path id="m7995e866ea" d="M 0 0 
L -3.5 0 
" style="stroke: #000000; stroke-width: 0.8"/>
      </defs>
      <g>
       <use xlink:href="#m7995e866ea" x="59.495" y="305.456215" style="stroke: #000000; stroke-width: 0.8"/>
      </g>
     </g>
     <g id="text_6">
      <!-- 0.0 -->
      <g transform="translate(28.640313 311.155043) scale(0.15 -0.15)">
       <defs>
        <path id="DejaVuSans-2e" d="M 684 794 
L 1344 794 
L 1344 0 
L 684 0 
L 684 794 
z
" transform="scale(0.015625)"/>
       </defs>
       <use xlink:href="#DejaVuSans-30"/>
       <use xlink:href="#DejaVuSans-2e" transform="translate(63.623047 0)"/>
       <use xlink:href="#DejaVuSans-30" transform="translate(95.410156 0)"/>
      </g>
     </g>
    </g>
    <g id="ytick_2">
     <g id="line2d_6">
      <g>
       <use xlink:href="#m7995e866ea" x="59.495" y="265.803337" style="stroke: #000000; stroke-width: 0.8"/>
      </g>
     </g>
     <g id="text_7">
      <!-- 0.1 -->
      <g transform="translate(28.640313 271.502166) scale(0.15 -0.15)">
       <defs>
        <path id="DejaVuSans-31" d="M 794 531 
L 1825 531 
L 1825 4091 
L 703 3866 
L 703 4441 
L 1819 4666 
L 2450 4666 
L 2450 531 
L 3481 531 
L 3481 0 
L 794 0 
L 794 531 
z
" transform="scale(0.015625)"/>
       </defs>
       <use xlink:href="#DejaVuSans-30"/>
       <use xlink:href="#DejaVuSans-2e" transform="translate(63.623047 0)"/>
       <use xlink:href="#DejaVuSans-31" transform="translate(95.410156 0)"/>
      </g>
     </g>
    </g>
    <g id="ytick_3">
     <g id="line2d_7">
      <g>
       <use xlink:href="#m7995e866ea" x="59.495" y="226.15046" style="stroke: #000000; stroke-width: 0.8"/>
      </g>
     </g>
     <g id="text_8">
      <!-- 0.2 -->
      <g transform="translate(28.640313 231.849288) scale(0.15 -0.15)">
       <use xlink:href="#DejaVuSans-30"/>
       <use xlink:href="#DejaVuSans-2e" transform="translate(63.623047 0)"/>
       <use xlink:href="#DejaVuSans-32" transform="translate(95.410156 0)"/>
      </g>
     </g>
    </g>
    <g id="ytick_4">
     <g id="line2d_8">
      <g>
       <use xlink:href="#m7995e866ea" x="59.495" y="186.497582" style="stroke: #000000; stroke-width: 0.8"/>
      </g>
     </g>
     <g id="text_9">
      <!-- 0.3 -->
      <g transform="translate(28.640313 192.196411) scale(0.15 -0.15)">
       <defs>
        <path id="DejaVuSans-33" d="M 2597 2516 
Q 3050 2419 3304 2112 
Q 3559 1806 3559 1356 
Q 3559 666 3084 287 
Q 2609 -91 1734 -91 
Q 1441 -91 1130 -33 
Q 819 25 488 141 
L 488 750 
Q 750 597 1062 519 
Q 1375 441 1716 441 
Q 2309 441 2620 675 
Q 2931 909 2931 1356 
Q 2931 1769 2642 2001 
Q 2353 2234 1838 2234 
L 1294 2234 
L 1294 2753 
L 1863 2753 
Q 2328 2753 2575 2939 
Q 2822 3125 2822 3475 
Q 2822 3834 2567 4026 
Q 2313 4219 1838 4219 
Q 1578 4219 1281 4162 
Q 984 4106 628 3988 
L 628 4550 
Q 988 4650 1302 4700 
Q 1616 4750 1894 4750 
Q 2613 4750 3031 4423 
Q 3450 4097 3450 3541 
Q 3450 3153 3228 2886 
Q 3006 2619 2597 2516 
z
" transform="scale(0.015625)"/>
       </defs>
       <use xlink:href="#DejaVuSans-30"/>
       <use xlink:href="#DejaVuSans-2e" transform="translate(63.623047 0)"/>
       <use xlink:href="#DejaVuSans-33" transform="translate(95.410156 0)"/>
      </g>
     </g>
    </g>
    <g id="ytick_5">
     <g id="line2d_9">
      <g>
       <use xlink:href="#m7995e866ea" x="59.495" y="146.844705" style="stroke: #000000; stroke-width: 0.8"/>
      </g>
     </g>
     <g id="text_10">
      <!-- 0.4 -->
      <g transform="translate(28.640313 152.543533) scale(0.15 -0.15)">
       <use xlink:href="#DejaVuSans-30"/>
       <use xlink:href="#DejaVuSans-2e" transform="translate(63.623047 0)"/>
       <use xlink:href="#DejaVuSans-34" transform="translate(95.410156 0)"/>
      </g>
     </g>
    </g>
    <g id="ytick_6">
     <g id="line2d_10">
      <g>
       <use xlink:href="#m7995e866ea" x="59.495" y="107.191827" style="stroke: #000000; stroke-width: 0.8"/>
      </g>
     </g>
     <g id="text_11">
      <!-- 0.5 -->
      <g transform="translate(28.640313 112.890655) scale(0.15 -0.15)">
       <defs>
        <path id="DejaVuSans-35" d="M 691 4666 
L 3169 4666 
L 3169 4134 
L 1269 4134 
L 1269 2991 
Q 1406 3038 1543 3061 
Q 1681 3084 1819 3084 
Q 2600 3084 3056 2656 
Q 3513 2228 3513 1497 
Q 3513 744 3044 326 
Q 2575 -91 1722 -91 
Q 1428 -91 1123 -41 
Q 819 9 494 109 
L 494 744 
Q 775 591 1075 516 
Q 1375 441 1709 441 
Q 2250 441 2565 725 
Q 2881 1009 2881 1497 
Q 2881 1984 2565 2268 
Q 2250 2553 1709 2553 
Q 1456 2553 1204 2497 
Q 953 2441 691 2322 
L 691 4666 
z
" transform="scale(0.015625)"/>
       </defs>
       <use xlink:href="#DejaVuSans-30"/>
       <use xlink:href="#DejaVuSans-2e" transform="translate(63.623047 0)"/>
       <use xlink:href="#DejaVuSans-35" transform="translate(95.410156 0)"/>
      </g>
     </g>
    </g>
    <g id="ytick_7">
     <g id="line2d_11">
      <g>
       <use xlink:href="#m7995e866ea" x="59.495" y="67.53895" style="stroke: #000000; stroke-width: 0.8"/>
      </g>
     </g>
     <g id="text_12">
      <!-- 0.6 -->
      <g transform="translate(28.640313 73.237778) scale(0.15 -0.15)">
       <use xlink:href="#DejaVuSans-30"/>
       <use xlink:href="#DejaVuSans-2e" transform="translate(63.623047 0)"/>
       <use xlink:href="#DejaVuSans-36" transform="translate(95.410156 0)"/>
      </g>
     </g>
    </g>
    <g id="text_13">
     <!-- apixaban plasma [µM] -->
     <g transform="translate(20.877187 294.6825) rotate(-90) scale(0.18 -0.18)">
      <defs>
       <path id="DejaVuSans-Bold-61" d="M 2106 1575 
Q 1756 1575 1579 1456 
Q 1403 1338 1403 1106 
Q 1403 894 1545 773 
Q 1688 653 1941 653 
Q 2256 653 2472 879 
Q 2688 1106 2688 1447 
L 2688 1575 
L 2106 1575 
z
M 3816 1997 
L 3816 0 
L 2688 0 
L 2688 519 
Q 2463 200 2181 54 
Q 1900 -91 1497 -91 
Q 953 -91 614 226 
Q 275 544 275 1050 
Q 275 1666 698 1953 
Q 1122 2241 2028 2241 
L 2688 2241 
L 2688 2328 
Q 2688 2594 2478 2717 
Q 2269 2841 1825 2841 
Q 1466 2841 1156 2769 
Q 847 2697 581 2553 
L 581 3406 
Q 941 3494 1303 3539 
Q 1666 3584 2028 3584 
Q 2975 3584 3395 3211 
Q 3816 2838 3816 1997 
z
" transform="scale(0.015625)"/>
       <path id="DejaVuSans-Bold-70" d="M 1656 506 
L 1656 -1331 
L 538 -1331 
L 538 3500 
L 1656 3500 
L 1656 2988 
Q 1888 3294 2169 3439 
Q 2450 3584 2816 3584 
Q 3463 3584 3878 3070 
Q 4294 2556 4294 1747 
Q 4294 938 3878 423 
Q 3463 -91 2816 -91 
Q 2450 -91 2169 54 
Q 1888 200 1656 506 
z
M 2400 2772 
Q 2041 2772 1848 2508 
Q 1656 2244 1656 1747 
Q 1656 1250 1848 986 
Q 2041 722 2400 722 
Q 2759 722 2948 984 
Q 3138 1247 3138 1747 
Q 3138 2247 2948 2509 
Q 2759 2772 2400 2772 
z
" transform="scale(0.015625)"/>
       <path id="DejaVuSans-Bold-78" d="M 1422 1791 
L 159 3500 
L 1344 3500 
L 2059 2463 
L 2784 3500 
L 3969 3500 
L 2706 1797 
L 4031 0 
L 2847 0 
L 2059 1106 
L 1281 0 
L 97 0 
L 1422 1791 
z
" transform="scale(0.015625)"/>
       <path id="DejaVuSans-Bold-62" d="M 2400 722 
Q 2759 722 2948 984 
Q 3138 1247 3138 1747 
Q 3138 2247 2948 2509 
Q 2759 2772 2400 2772 
Q 2041 2772 1848 2508 
Q 1656 2244 1656 1747 
Q 1656 1250 1848 986 
Q 2041 722 2400 722 
z
M 1656 2988 
Q 1888 3294 2169 3439 
Q 2450 3584 2816 3584 
Q 3463 3584 3878 3070 
Q 4294 2556 4294 1747 
Q 4294 938 3878 423 
Q 3463 -91 2816 -91 
Q 2450 -91 2169 54 
Q 1888 200 1656 506 
L 1656 0 
L 538 0 
L 538 4863 
L 1656 4863 
L 1656 2988 
z
" transform="scale(0.015625)"/>
       <path id="DejaVuSans-Bold-6e" d="M 4056 2131 
L 4056 0 
L 2931 0 
L 2931 347 
L 2931 1631 
Q 2931 2084 2911 2256 
Q 2891 2428 2841 2509 
Q 2775 2619 2662 2680 
Q 2550 2741 2406 2741 
Q 2056 2741 1856 2470 
Q 1656 2200 1656 1722 
L 1656 0 
L 538 0 
L 538 3500 
L 1656 3500 
L 1656 2988 
Q 1909 3294 2193 3439 
Q 2478 3584 2822 3584 
Q 3428 3584 3742 3212 
Q 4056 2841 4056 2131 
z
" transform="scale(0.015625)"/>
       <path id="DejaVuSans-Bold-6c" d="M 538 4863 
L 1656 4863 
L 1656 0 
L 538 0 
L 538 4863 
z
" transform="scale(0.015625)"/>
       <path id="DejaVuSans-Bold-73" d="M 3272 3391 
L 3272 2541 
Q 2913 2691 2578 2766 
Q 2244 2841 1947 2841 
Q 1628 2841 1473 2761 
Q 1319 2681 1319 2516 
Q 1319 2381 1436 2309 
Q 1553 2238 1856 2203 
L 2053 2175 
Q 2913 2066 3209 1816 
Q 3506 1566 3506 1031 
Q 3506 472 3093 190 
Q 2681 -91 1863 -91 
Q 1516 -91 1145 -36 
Q 775 19 384 128 
L 384 978 
Q 719 816 1070 734 
Q 1422 653 1784 653 
Q 2113 653 2278 743 
Q 2444 834 2444 1013 
Q 2444 1163 2330 1236 
Q 2216 1309 1875 1350 
L 1678 1375 
Q 931 1469 631 1722 
Q 331 1975 331 2491 
Q 331 3047 712 3315 
Q 1094 3584 1881 3584 
Q 2191 3584 2531 3537 
Q 2872 3491 3272 3391 
z
" transform="scale(0.015625)"/>
       <path id="DejaVuSans-Bold-b5" d="M 544 -1338 
L 544 3500 
L 1672 3500 
L 1672 1466 
Q 1672 1103 1828 926 
Q 1984 750 2303 750 
Q 2625 750 2781 926 
Q 2938 1103 2938 1466 
L 2938 3500 
L 4063 3500 
L 4063 1159 
Q 4063 938 4114 850 
Q 4166 763 4288 763 
Q 4344 763 4395 778 
Q 4447 794 4506 831 
L 4506 50 
Q 4341 -22 4195 -56 
Q 4050 -91 3909 -91 
Q 3631 -91 3454 26 
Q 3278 144 3169 403 
Q 3022 156 2811 32 
Q 2600 -91 2322 -91 
Q 2091 -91 1928 -17 
Q 1766 56 1672 206 
L 1672 -1338 
L 544 -1338 
z
" transform="scale(0.015625)"/>
       <path id="DejaVuSans-Bold-4d" d="M 588 4666 
L 2119 4666 
L 3181 2169 
L 4250 4666 
L 5778 4666 
L 5778 0 
L 4641 0 
L 4641 3413 
L 3566 897 
L 2803 897 
L 1728 3413 
L 1728 0 
L 588 0 
L 588 4666 
z
" transform="scale(0.015625)"/>
      </defs>
      <use xlink:href="#DejaVuSans-Bold-61"/>
      <use xlink:href="#DejaVuSans-Bold-70" transform="translate(67.480469 0)"/>
      <use xlink:href="#DejaVuSans-Bold-69" transform="translate(139.0625 0)"/>
      <use xlink:href="#DejaVuSans-Bold-78" transform="translate(173.339844 0)"/>
      <use xlink:href="#DejaVuSans-Bold-61" transform="translate(237.841797 0)"/>
      <use xlink:href="#DejaVuSans-Bold-62" transform="translate(305.322266 0)"/>
      <use xlink:href="#DejaVuSans-Bold-61" transform="translate(376.904297 0)"/>
      <use xlink:href="#DejaVuSans-Bold-6e" transform="translate(444.384766 0)"/>
      <use xlink:href="#DejaVuSans-Bold-20" transform="translate(515.576172 0)"/>
      <use xlink:href="#DejaVuSans-Bold-70" transform="translate(550.390625 0)"/>
      <use xlink:href="#DejaVuSans-Bold-6c" transform="translate(621.972656 0)"/>
      <use xlink:href="#DejaVuSans-Bold-61" transform="translate(656.25 0)"/>
      <use xlink:href="#DejaVuSans-Bold-73" transform="translate(723.730469 0)"/>
      <use xlink:href="#DejaVuSans-Bold-6d" transform="translate(783.251953 0)"/>
      <use xlink:href="#DejaVuSans-Bold-61" transform="translate(887.451172 0)"/>
      <use xlink:href="#DejaVuSans-Bold-20" transform="translate(954.931641 0)"/>
      <use xlink:href="#DejaVuSans-Bold-5b" transform="translate(989.746094 0)"/>
      <use xlink:href="#DejaVuSans-Bold-b5" transform="translate(1035.449219 0)"/>
      <use xlink:href="#DejaVuSans-Bold-4d" transform="translate(1109.033203 0)"/>
      <use xlink:href="#DejaVuSans-Bold-5d" transform="translate(1208.544922 0)"/>
     </g>
    </g>
   </g>
   <g id="LineCollection_1">
    <path clip-path="url(#pe9e1d68e60)" style="fill: none; stroke: #e6550d"/>
    <path d="M 75.962984 307.8 
L 75.962984 269.79776 
" clip-path="url(#pe9e1d68e60)" style="fill: none; stroke: #e6550d"/>
    <path d="M 76.992233 263.445241 
L 76.992233 179.511086 
" clip-path="url(#pe9e1d68e60)" style="fill: none; stroke: #e6550d"/>
    <path d="M 79.050731 206.369765 
L 79.050731 109.774468 
" clip-path="url(#pe9e1d68e60)" style="fill: none; stroke: #e6550d"/>
    <path d="M 83.167727 174.575812 
L 83.167727 55.8 
" clip-path="url(#pe9e1d68e60)" style="fill: none; stroke: #e6550d"/>
    <path d="M 87.284723 157.789922 
L 87.284723 61.219709 
" clip-path="url(#pe9e1d68e60)" style="fill: none; stroke: #e6550d"/>
    <path d="M 91.401719 160.042777 
L 91.401719 69.793729 
" clip-path="url(#pe9e1d68e60)" style="fill: none; stroke: #e6550d"/>
    <path d="M 95.518715 188.425308 
L 95.518715 96.567749 
" clip-path="url(#pe9e1d68e60)" style="fill: none; stroke: #e6550d"/>
    <path d="M 99.635711 211.253303 
L 99.635711 138.403135 
" clip-path="url(#pe9e1d68e60)" style="fill: none; stroke: #e6550d"/>
    <path d="M 111.9867 242.520493 
L 111.9867 195.017693 
" clip-path="url(#pe9e1d68e60)" style="fill: none; stroke: #e6550d"/>
    <path d="M 124.337688 265.867413 
L 124.337688 231.038298 
" clip-path="url(#pe9e1d68e60)" style="fill: none; stroke: #e6550d"/>
    <path d="M 173.74164 288.035386 
L 173.74164 275.374244 
" clip-path="url(#pe9e1d68e60)" style="fill: none; stroke: #e6550d"/>
    <path d="M 223.145593 302.407445 
L 223.145593 293.950379 
" clip-path="url(#pe9e1d68e60)" style="fill: none; stroke: #e6550d"/>
    <path d="M 272.549545 302.379486 
L 272.549545 298.714697 
" clip-path="url(#pe9e1d68e60)" style="fill: none; stroke: #e6550d"/>
    <path d="M 321.953498 304.14114 
L 321.953498 301.77429 
" clip-path="url(#pe9e1d68e60)" style="fill: none; stroke: #e6550d"/>
    <path d="M 371.357451 304.398 
L 371.357451 302.493444 
" clip-path="url(#pe9e1d68e60)" style="fill: none; stroke: #e6550d"/>
   </g>
   <g id="LineCollection_2">
    <path clip-path="url(#pe9e1d68e60)" style="fill: none; stroke: #fdd0a2"/>
    <path d="M 76.992233 298.663258 
L 76.992233 239.790968 
" clip-path="url(#pe9e1d68e60)" style="fill: none; stroke: #fdd0a2"/>
    <path d="M 79.050731 273.755751 
L 79.050731 200.542775 
" clip-path="url(#pe9e1d68e60)" style="fill: none; stroke: #fdd0a2"/>
    <path d="M 81.109229 260.924611 
L 81.109229 183.182997 
" clip-path="url(#pe9e1d68e60)" style="fill: none; stroke: #fdd0a2"/>
    <path d="M 83.167727 248.470857 
L 83.167727 176.012654 
" clip-path="url(#pe9e1d68e60)" style="fill: none; stroke: #fdd0a2"/>
    <path d="M 87.284723 232.620625 
L 87.284723 176.012654 
" clip-path="url(#pe9e1d68e60)" style="fill: none; stroke: #fdd0a2"/>
    <path d="M 91.401719 233.375398 
L 91.401719 188.843794 
" clip-path="url(#pe9e1d68e60)" style="fill: none; stroke: #fdd0a2"/>
    <path d="M 99.635711 253.376881 
L 99.635711 223.185963 
" clip-path="url(#pe9e1d68e60)" style="fill: none; stroke: #fdd0a2"/>
    <path d="M 111.9867 274.510524 
L 111.9867 251.867336 
" clip-path="url(#pe9e1d68e60)" style="fill: none; stroke: #fdd0a2"/>
    <path d="M 124.337688 289.228597 
L 124.337688 274.887911 
" clip-path="url(#pe9e1d68e60)" style="fill: none; stroke: #fdd0a2"/>
    <path d="M 173.74164 300.147615 
L 173.74164 294.565515 
" clip-path="url(#pe9e1d68e60)" style="fill: none; stroke: #fdd0a2"/>
    <path d="M 272.549545 304.957954 
L 272.549545 302.561372 
" clip-path="url(#pe9e1d68e60)" style="fill: none; stroke: #fdd0a2"/>
    <path d="M 321.953498 305.652377 
L 321.953498 304.344276 
" clip-path="url(#pe9e1d68e60)" style="fill: none; stroke: #fdd0a2"/>
    <path d="M 371.357451 305.635299 
L 371.357451 305.100855 
" clip-path="url(#pe9e1d68e60)" style="fill: none; stroke: #fdd0a2"/>
   </g>
   <g id="line2d_12">
    <path d="M 74.933735 305.456215 
L 75.551285 300.716664 
L 79.256581 243.877198 
L 80.49168 230.258339 
L 81.726779 219.322356 
L 82.961877 210.693168 
L 84.196976 204.036604 
L 85.432075 199.061767 
L 86.667174 195.516532 
L 87.284723 194.210622 
L 87.902273 193.182685 
L 88.519822 192.41002 
L 89.137372 191.871531 
L 89.754921 191.547611 
L 90.37247 191.420047 
L 90.99002 191.47192 
L 91.607569 191.687523 
L 92.225119 192.052273 
L 93.460217 193.176068 
L 94.695316 194.7464 
L 95.930415 196.679992 
L 97.783063 200.108042 
L 100.253261 205.365607 
L 103.341008 212.555363 
L 111.9867 233.027776 
L 115.691996 241.096727 
L 118.779743 247.322775 
L 121.86749 253.067056 
L 124.955237 258.328332 
L 128.042984 263.120749 
L 131.130731 267.467771 
L 134.218478 271.398041 
L 137.306225 274.942601 
L 140.393972 278.133056 
L 143.481719 281.000387 
L 146.569466 283.574225 
L 149.657213 285.882431 
L 152.74496 287.950875 
L 156.450257 290.149912 
L 160.155553 292.075164 
L 163.86085 293.759884 
L 168.183696 295.460545 
L 172.506542 296.914817 
L 177.446937 298.320265 
L 182.387332 299.494859 
L 187.945277 300.587091 
L 194.120771 301.567817 
L 200.913814 302.420175 
L 208.941957 303.190042 
L 218.205198 303.839145 
L 229.321087 304.377652 
L 242.907174 304.79875 
L 260.816107 305.113844 
L 286.753182 305.323142 
L 331.834289 305.430466 
L 383.708439 305.452325 
L 383.708439 305.452325 
" clip-path="url(#pe9e1d68e60)" style="fill: none; stroke: #e6550d; stroke-width: 2; stroke-linecap: square"/>
   </g>
   <g id="line2d_13">
    <path d="M 74.933735 305.456215 
L 75.962984 288.79888 
L 76.992233 221.478163 
L 79.050731 158.072116 
L 83.167727 115.187906 
L 87.284723 109.504815 
L 91.401719 114.918253 
L 95.518715 142.496529 
L 99.635711 174.828219 
L 111.9867 218.769093 
L 124.337688 248.452856 
L 173.74164 281.704815 
L 223.145593 298.178912 
L 272.549545 300.547091 
L 321.953498 302.957715 
L 371.357451 303.445722 
" clip-path="url(#pe9e1d68e60)" style="fill: none; stroke: #e6550d; stroke-linecap: square"/>
    <defs>
     <path id="m0ddef056a5" d="M -3 3 
L 3 3 
L 3 -3 
L -3 -3 
z
" style="stroke: #000000; stroke-linejoin: miter"/>
    </defs>
    <g clip-path="url(#pe9e1d68e60)">
     <use xlink:href="#m0ddef056a5" x="74.933735" y="305.456215" style="fill: #e6550d; stroke: #000000; stroke-linejoin: miter"/>
     <use xlink:href="#m0ddef056a5" x="75.962984" y="288.79888" style="fill: #e6550d; stroke: #000000; stroke-linejoin: miter"/>
     <use xlink:href="#m0ddef056a5" x="76.992233" y="221.478163" style="fill: #e6550d; stroke: #000000; stroke-linejoin: miter"/>
     <use xlink:href="#m0ddef056a5" x="79.050731" y="158.072116" style="fill: #e6550d; stroke: #000000; stroke-linejoin: miter"/>
     <use xlink:href="#m0ddef056a5" x="83.167727" y="115.187906" style="fill: #e6550d; stroke: #000000; stroke-linejoin: miter"/>
     <use xlink:href="#m0ddef056a5" x="87.284723" y="109.504815" style="fill: #e6550d; stroke: #000000; stroke-linejoin: miter"/>
     <use xlink:href="#m0ddef056a5" x="91.401719" y="114.918253" style="fill: #e6550d; stroke: #000000; stroke-linejoin: miter"/>
     <use xlink:href="#m0ddef056a5" x="95.518715" y="142.496529" style="fill: #e6550d; stroke: #000000; stroke-linejoin: miter"/>
     <use xlink:href="#m0ddef056a5" x="99.635711" y="174.828219" style="fill: #e6550d; stroke: #000000; stroke-linejoin: miter"/>
     <use xlink:href="#m0ddef056a5" x="111.9867" y="218.769093" style="fill: #e6550d; stroke: #000000; stroke-linejoin: miter"/>
     <use xlink:href="#m0ddef056a5" x="124.337688" y="248.452856" style="fill: #e6550d; stroke: #000000; stroke-linejoin: miter"/>
     <use xlink:href="#m0ddef056a5" x="173.74164" y="281.704815" style="fill: #e6550d; stroke: #000000; stroke-linejoin: miter"/>
     <use xlink:href="#m0ddef056a5" x="223.145593" y="298.178912" style="fill: #e6550d; stroke: #000000; stroke-linejoin: miter"/>
     <use xlink:href="#m0ddef056a5" x="272.549545" y="300.547091" style="fill: #e6550d; stroke: #000000; stroke-linejoin: miter"/>
     <use xlink:href="#m0ddef056a5" x="321.953498" y="302.957715" style="fill: #e6550d; stroke: #000000; stroke-linejoin: miter"/>
     <use xlink:href="#m0ddef056a5" x="371.357451" y="303.445722" style="fill: #e6550d; stroke: #000000; stroke-linejoin: miter"/>
    </g>
   </g>
   <g id="line2d_14">
    <path d="M 74.933735 305.456215 
L 75.551285 302.824408 
L 79.256581 271.078454 
L 80.49168 263.43941 
L 81.726779 257.305132 
L 82.961877 252.465111 
L 84.196976 248.731777 
L 85.432075 245.941787 
L 86.667174 243.953583 
L 87.902273 242.644662 
L 89.137372 241.909116 
L 90.37247 241.655459 
L 91.607569 241.804742 
L 92.842668 242.288909 
L 94.077767 243.049362 
L 95.312866 244.035716 
L 97.165514 245.8459 
L 99.635711 248.695994 
L 102.723458 252.665045 
L 113.221798 266.488885 
L 116.927095 270.886211 
L 120.632391 274.905204 
L 123.720138 277.955944 
L 126.807885 280.740242 
L 129.895632 283.269531 
L 133.600929 285.989525 
L 137.306225 288.393684 
L 141.011522 290.512546 
L 144.716818 292.375952 
L 148.422115 294.012063 
L 152.74496 295.66813 
L 157.067806 297.087304 
L 162.008202 298.461064 
L 166.948597 299.610576 
L 172.506542 300.680423 
L 178.682036 301.641672 
L 185.475079 302.477483 
L 193.503221 303.232635 
L 202.766462 303.869459 
L 213.882352 304.397842 
L 227.468439 304.811049 
L 245.377372 305.120247 
L 271.314447 305.325631 
L 317.013103 305.43151 
L 383.708439 305.45404 
L 383.708439 305.45404 
" clip-path="url(#pe9e1d68e60)" style="fill: none; stroke: #fdd0a2; stroke-width: 2; stroke-linecap: square"/>
   </g>
   <g id="line2d_15">
    <path d="M 74.933735 305.456215 
L 76.992233 269.227113 
L 79.050731 237.149263 
L 81.109229 222.053804 
L 83.167727 212.241756 
L 87.284723 204.31664 
L 91.401719 211.109596 
L 99.635711 238.281422 
L 111.9867 263.18893 
L 124.337688 282.058254 
L 173.74164 297.356565 
L 272.549545 303.759663 
L 321.953498 304.998326 
L 371.357451 305.368077 
" clip-path="url(#pe9e1d68e60)" style="fill: none; stroke: #fdd0a2; stroke-linecap: square"/>
    <defs>
     <path id="mc8746cb55b" d="M -3 3 
L 3 3 
L 3 -3 
L -3 -3 
z
" style="stroke: #000000; stroke-linejoin: miter"/>
    </defs>
    <g clip-path="url(#pe9e1d68e60)">
     <use xlink:href="#mc8746cb55b" x="74.933735" y="305.456215" style="fill: #fdd0a2; stroke: #000000; stroke-linejoin: miter"/>
     <use xlink:href="#mc8746cb55b" x="76.992233" y="269.227113" style="fill: #fdd0a2; stroke: #000000; stroke-linejoin: miter"/>
     <use xlink:href="#mc8746cb55b" x="79.050731" y="237.149263" style="fill: #fdd0a2; stroke: #000000; stroke-linejoin: miter"/>
     <use xlink:href="#mc8746cb55b" x="81.109229" y="222.053804" style="fill: #fdd0a2; stroke: #000000; stroke-linejoin: miter"/>
     <use xlink:href="#mc8746cb55b" x="83.167727" y="212.241756" style="fill: #fdd0a2; stroke: #000000; stroke-linejoin: miter"/>
     <use xlink:href="#mc8746cb55b" x="87.284723" y="204.31664" style="fill: #fdd0a2; stroke: #000000; stroke-linejoin: miter"/>
     <use xlink:href="#mc8746cb55b" x="91.401719" y="211.109596" style="fill: #fdd0a2; stroke: #000000; stroke-linejoin: miter"/>
     <use xlink:href="#mc8746cb55b" x="99.635711" y="238.281422" style="fill: #fdd0a2; stroke: #000000; stroke-linejoin: miter"/>
     <use xlink:href="#mc8746cb55b" x="111.9867" y="263.18893" style="fill: #fdd0a2; stroke: #000000; stroke-linejoin: miter"/>
     <use xlink:href="#mc8746cb55b" x="124.337688" y="282.058254" style="fill: #fdd0a2; stroke: #000000; stroke-linejoin: miter"/>
     <use xlink:href="#mc8746cb55b" x="173.74164" y="297.356565" style="fill: #fdd0a2; stroke: #000000; stroke-linejoin: miter"/>
     <use xlink:href="#mc8746cb55b" x="272.549545" y="303.759663" style="fill: #fdd0a2; stroke: #000000; stroke-linejoin: miter"/>
     <use xlink:href="#mc8746cb55b" x="321.953498" y="304.998326" style="fill: #fdd0a2; stroke: #000000; stroke-linejoin: miter"/>
     <use xlink:href="#mc8746cb55b" x="371.357451" y="305.368077" style="fill: #fdd0a2; stroke: #000000; stroke-linejoin: miter"/>
    </g>
   </g>
   <g id="patch_3">
    <path d="M 59.495 320.4 
L 59.495 43.2 
" style="fill: none; stroke: #000000; stroke-width: 0.8; stroke-linejoin: miter; stroke-linecap: square"/>
   </g>
   <g id="patch_4">
    <path d="M 399.147174 320.4 
L 399.147174 43.2 
" style="fill: none; stroke: #000000; stroke-width: 0.8; stroke-linejoin: miter; stroke-linecap: square"/>
   </g>
   <g id="patch_5">
    <path d="M 59.495 320.4 
L 399.147174 320.4 
" style="fill: none; stroke: #000000; stroke-width: 0.8; stroke-linejoin: miter; stroke-linecap: square"/>
   </g>
   <g id="patch_6">
    <path d="M 59.495 43.2 
L 399.147174 43.2 
" style="fill: none; stroke: #000000; stroke-width: 0.8; stroke-linejoin: miter; stroke-linecap: square"/>
   </g>
   <g id="legend_1">
    <g id="patch_7">
     <path d="M 177.448424 129.92625 
L 390.047174 129.92625 
Q 392.647174 129.92625 392.647174 127.32625 
L 392.647174 52.3 
Q 392.647174 49.7 390.047174 49.7 
L 177.448424 49.7 
Q 174.848424 49.7 174.848424 52.3 
L 174.848424 127.32625 
Q 174.848424 129.92625 177.448424 129.92625 
z
" style="fill: #ffffff; opacity: 0.8; stroke: #cccccc; stroke-linejoin: miter"/>
    </g>
    <g id="line2d_16">
     <path d="M 180.048424 60.227969 
L 206.048424 60.227969 
" style="fill: none; stroke: #e6550d; stroke-width: 2; stroke-linecap: square"/>
    </g>
    <g id="line2d_17"/>
    <g id="text_14">
     <!-- sim: 10mg PO -->
     <g transform="translate(216.448424 64.777969) scale(0.13 -0.13)">
      <defs>
       <path id="DejaVuSans-73" d="M 2834 3397 
L 2834 2853 
Q 2591 2978 2328 3040 
Q 2066 3103 1784 3103 
Q 1356 3103 1142 2972 
Q 928 2841 928 2578 
Q 928 2378 1081 2264 
Q 1234 2150 1697 2047 
L 1894 2003 
Q 2506 1872 2764 1633 
Q 3022 1394 3022 966 
Q 3022 478 2636 193 
Q 2250 -91 1575 -91 
Q 1294 -91 989 -36 
Q 684 19 347 128 
L 347 722 
Q 666 556 975 473 
Q 1284 391 1588 391 
Q 1994 391 2212 530 
Q 2431 669 2431 922 
Q 2431 1156 2273 1281 
Q 2116 1406 1581 1522 
L 1381 1569 
Q 847 1681 609 1914 
Q 372 2147 372 2553 
Q 372 3047 722 3315 
Q 1072 3584 1716 3584 
Q 2034 3584 2315 3537 
Q 2597 3491 2834 3397 
z
" transform="scale(0.015625)"/>
       <path id="DejaVuSans-69" d="M 603 3500 
L 1178 3500 
L 1178 0 
L 603 0 
L 603 3500 
z
M 603 4863 
L 1178 4863 
L 1178 4134 
L 603 4134 
L 603 4863 
z
" transform="scale(0.015625)"/>
       <path id="DejaVuSans-6d" d="M 3328 2828 
Q 3544 3216 3844 3400 
Q 4144 3584 4550 3584 
Q 5097 3584 5394 3201 
Q 5691 2819 5691 2113 
L 5691 0 
L 5113 0 
L 5113 2094 
Q 5113 2597 4934 2840 
Q 4756 3084 4391 3084 
Q 3944 3084 3684 2787 
Q 3425 2491 3425 1978 
L 3425 0 
L 2847 0 
L 2847 2094 
Q 2847 2600 2669 2842 
Q 2491 3084 2119 3084 
Q 1678 3084 1418 2786 
Q 1159 2488 1159 1978 
L 1159 0 
L 581 0 
L 581 3500 
L 1159 3500 
L 1159 2956 
Q 1356 3278 1631 3431 
Q 1906 3584 2284 3584 
Q 2666 3584 2933 3390 
Q 3200 3197 3328 2828 
z
" transform="scale(0.015625)"/>
       <path id="DejaVuSans-3a" d="M 750 794 
L 1409 794 
L 1409 0 
L 750 0 
L 750 794 
z
M 750 3309 
L 1409 3309 
L 1409 2516 
L 750 2516 
L 750 3309 
z
" transform="scale(0.015625)"/>
       <path id="DejaVuSans-20" transform="scale(0.015625)"/>
       <path id="DejaVuSans-67" d="M 2906 1791 
Q 2906 2416 2648 2759 
Q 2391 3103 1925 3103 
Q 1463 3103 1205 2759 
Q 947 2416 947 1791 
Q 947 1169 1205 825 
Q 1463 481 1925 481 
Q 2391 481 2648 825 
Q 2906 1169 2906 1791 
z
M 3481 434 
Q 3481 -459 3084 -895 
Q 2688 -1331 1869 -1331 
Q 1566 -1331 1297 -1286 
Q 1028 -1241 775 -1147 
L 775 -588 
Q 1028 -725 1275 -790 
Q 1522 -856 1778 -856 
Q 2344 -856 2625 -561 
Q 2906 -266 2906 331 
L 2906 616 
Q 2728 306 2450 153 
Q 2172 0 1784 0 
Q 1141 0 747 490 
Q 353 981 353 1791 
Q 353 2603 747 3093 
Q 1141 3584 1784 3584 
Q 2172 3584 2450 3431 
Q 2728 3278 2906 2969 
L 2906 3500 
L 3481 3500 
L 3481 434 
z
" transform="scale(0.015625)"/>
       <path id="DejaVuSans-50" d="M 1259 4147 
L 1259 2394 
L 2053 2394 
Q 2494 2394 2734 2622 
Q 2975 2850 2975 3272 
Q 2975 3691 2734 3919 
Q 2494 4147 2053 4147 
L 1259 4147 
z
M 628 4666 
L 2053 4666 
Q 2838 4666 3239 4311 
Q 3641 3956 3641 3272 
Q 3641 2581 3239 2228 
Q 2838 1875 2053 1875 
L 1259 1875 
L 1259 0 
L 628 0 
L 628 4666 
z
" transform="scale(0.015625)"/>
       <path id="DejaVuSans-4f" d="M 2522 4238 
Q 1834 4238 1429 3725 
Q 1025 3213 1025 2328 
Q 1025 1447 1429 934 
Q 1834 422 2522 422 
Q 3209 422 3611 934 
Q 4013 1447 4013 2328 
Q 4013 3213 3611 3725 
Q 3209 4238 2522 4238 
z
M 2522 4750 
Q 3503 4750 4090 4092 
Q 4678 3434 4678 2328 
Q 4678 1225 4090 567 
Q 3503 -91 2522 -91 
Q 1538 -91 948 565 
Q 359 1222 359 2328 
Q 359 3434 948 4092 
Q 1538 4750 2522 4750 
z
" transform="scale(0.015625)"/>
      </defs>
      <use xlink:href="#DejaVuSans-73"/>
      <use xlink:href="#DejaVuSans-69" transform="translate(52.099609 0)"/>
      <use xlink:href="#DejaVuSans-6d" transform="translate(79.882812 0)"/>
      <use xlink:href="#DejaVuSans-3a" transform="translate(177.294922 0)"/>
      <use xlink:href="#DejaVuSans-20" transform="translate(210.986328 0)"/>
      <use xlink:href="#DejaVuSans-31" transform="translate(242.773438 0)"/>
      <use xlink:href="#DejaVuSans-30" transform="translate(306.396484 0)"/>
      <use xlink:href="#DejaVuSans-6d" transform="translate(370.019531 0)"/>
      <use xlink:href="#DejaVuSans-67" transform="translate(467.431641 0)"/>
      <use xlink:href="#DejaVuSans-20" transform="translate(530.908203 0)"/>
      <use xlink:href="#DejaVuSans-50" transform="translate(562.695312 0)"/>
      <use xlink:href="#DejaVuSans-4f" transform="translate(622.998047 0)"/>
     </g>
    </g>
    <g id="LineCollection_3">
     <path d="M 193.048424 85.809531 
L 193.048424 72.809531 
" style="fill: none; stroke: #e6550d"/>
    </g>
    <g id="line2d_18">
     <path d="M 180.048424 79.309531 
L 206.048424 79.309531 
" style="fill: none; stroke: #e6550d; stroke-linecap: square"/>
    </g>
    <g id="line2d_19">
     <g>
      <use xlink:href="#m0ddef056a5" x="193.048424" y="79.309531" style="fill: #e6550d; stroke: #000000; stroke-linejoin: miter"/>
     </g>
    </g>
    <g id="text_15">
     <!-- exp: 10mg PO±SD (n=32) -->
     <g transform="translate(216.448424 83.859531) scale(0.13 -0.13)">
      <defs>
       <path id="DejaVuSans-65" d="M 3597 1894 
L 3597 1613 
L 953 1613 
Q 991 1019 1311 708 
Q 1631 397 2203 397 
Q 2534 397 2845 478 
Q 3156 559 3463 722 
L 3463 178 
Q 3153 47 2828 -22 
Q 2503 -91 2169 -91 
Q 1331 -91 842 396 
Q 353 884 353 1716 
Q 353 2575 817 3079 
Q 1281 3584 2069 3584 
Q 2775 3584 3186 3129 
Q 3597 2675 3597 1894 
z
M 3022 2063 
Q 3016 2534 2758 2815 
Q 2500 3097 2075 3097 
Q 1594 3097 1305 2825 
Q 1016 2553 972 2059 
L 3022 2063 
z
" transform="scale(0.015625)"/>
       <path id="DejaVuSans-78" d="M 3513 3500 
L 2247 1797 
L 3578 0 
L 2900 0 
L 1881 1375 
L 863 0 
L 184 0 
L 1544 1831 
L 300 3500 
L 978 3500 
L 1906 2253 
L 2834 3500 
L 3513 3500 
z
" transform="scale(0.015625)"/>
       <path id="DejaVuSans-70" d="M 1159 525 
L 1159 -1331 
L 581 -1331 
L 581 3500 
L 1159 3500 
L 1159 2969 
Q 1341 3281 1617 3432 
Q 1894 3584 2278 3584 
Q 2916 3584 3314 3078 
Q 3713 2572 3713 1747 
Q 3713 922 3314 415 
Q 2916 -91 2278 -91 
Q 1894 -91 1617 61 
Q 1341 213 1159 525 
z
M 3116 1747 
Q 3116 2381 2855 2742 
Q 2594 3103 2138 3103 
Q 1681 3103 1420 2742 
Q 1159 2381 1159 1747 
Q 1159 1113 1420 752 
Q 1681 391 2138 391 
Q 2594 391 2855 752 
Q 3116 1113 3116 1747 
z
" transform="scale(0.015625)"/>
       <path id="DejaVuSans-b1" d="M 2944 4013 
L 2944 2803 
L 4684 2803 
L 4684 2272 
L 2944 2272 
L 2944 1063 
L 2419 1063 
L 2419 2272 
L 678 2272 
L 678 2803 
L 2419 2803 
L 2419 4013 
L 2944 4013 
z
M 678 531 
L 4684 531 
L 4684 0 
L 678 0 
L 678 531 
z
" transform="scale(0.015625)"/>
       <path id="DejaVuSans-53" d="M 3425 4513 
L 3425 3897 
Q 3066 4069 2747 4153 
Q 2428 4238 2131 4238 
Q 1616 4238 1336 4038 
Q 1056 3838 1056 3469 
Q 1056 3159 1242 3001 
Q 1428 2844 1947 2747 
L 2328 2669 
Q 3034 2534 3370 2195 
Q 3706 1856 3706 1288 
Q 3706 609 3251 259 
Q 2797 -91 1919 -91 
Q 1588 -91 1214 -16 
Q 841 59 441 206 
L 441 856 
Q 825 641 1194 531 
Q 1563 422 1919 422 
Q 2459 422 2753 634 
Q 3047 847 3047 1241 
Q 3047 1584 2836 1778 
Q 2625 1972 2144 2069 
L 1759 2144 
Q 1053 2284 737 2584 
Q 422 2884 422 3419 
Q 422 4038 858 4394 
Q 1294 4750 2059 4750 
Q 2388 4750 2728 4690 
Q 3069 4631 3425 4513 
z
" transform="scale(0.015625)"/>
       <path id="DejaVuSans-44" d="M 1259 4147 
L 1259 519 
L 2022 519 
Q 2988 519 3436 956 
Q 3884 1394 3884 2338 
Q 3884 3275 3436 3711 
Q 2988 4147 2022 4147 
L 1259 4147 
z
M 628 4666 
L 1925 4666 
Q 3281 4666 3915 4102 
Q 4550 3538 4550 2338 
Q 4550 1131 3912 565 
Q 3275 0 1925 0 
L 628 0 
L 628 4666 
z
" transform="scale(0.015625)"/>
       <path id="DejaVuSans-28" d="M 1984 4856 
Q 1566 4138 1362 3434 
Q 1159 2731 1159 2009 
Q 1159 1288 1364 580 
Q 1569 -128 1984 -844 
L 1484 -844 
Q 1016 -109 783 600 
Q 550 1309 550 2009 
Q 550 2706 781 3412 
Q 1013 4119 1484 4856 
L 1984 4856 
z
" transform="scale(0.015625)"/>
       <path id="DejaVuSans-6e" d="M 3513 2113 
L 3513 0 
L 2938 0 
L 2938 2094 
Q 2938 2591 2744 2837 
Q 2550 3084 2163 3084 
Q 1697 3084 1428 2787 
Q 1159 2491 1159 1978 
L 1159 0 
L 581 0 
L 581 3500 
L 1159 3500 
L 1159 2956 
Q 1366 3272 1645 3428 
Q 1925 3584 2291 3584 
Q 2894 3584 3203 3211 
Q 3513 2838 3513 2113 
z
" transform="scale(0.015625)"/>
       <path id="DejaVuSans-3d" d="M 678 2906 
L 4684 2906 
L 4684 2381 
L 678 2381 
L 678 2906 
z
M 678 1631 
L 4684 1631 
L 4684 1100 
L 678 1100 
L 678 1631 
z
" transform="scale(0.015625)"/>
       <path id="DejaVuSans-29" d="M 513 4856 
L 1013 4856 
Q 1481 4119 1714 3412 
Q 1947 2706 1947 2009 
Q 1947 1309 1714 600 
Q 1481 -109 1013 -844 
L 513 -844 
Q 928 -128 1133 580 
Q 1338 1288 1338 2009 
Q 1338 2731 1133 3434 
Q 928 4138 513 4856 
z
" transform="scale(0.015625)"/>
      </defs>
      <use xlink:href="#DejaVuSans-65"/>
      <use xlink:href="#DejaVuSans-78" transform="translate(59.773438 0)"/>
      <use xlink:href="#DejaVuSans-70" transform="translate(118.953125 0)"/>
      <use xlink:href="#DejaVuSans-3a" transform="translate(182.429688 0)"/>
      <use xlink:href="#DejaVuSans-20" transform="translate(216.121094 0)"/>
      <use xlink:href="#DejaVuSans-31" transform="translate(247.908203 0)"/>
      <use xlink:href="#DejaVuSans-30" transform="translate(311.53125 0)"/>
      <use xlink:href="#DejaVuSans-6d" transform="translate(375.154297 0)"/>
      <use xlink:href="#DejaVuSans-67" transform="translate(472.566406 0)"/>
      <use xlink:href="#DejaVuSans-20" transform="translate(536.042969 0)"/>
      <use xlink:href="#DejaVuSans-50" transform="translate(567.830078 0)"/>
      <use xlink:href="#DejaVuSans-4f" transform="translate(628.132812 0)"/>
      <use xlink:href="#DejaVuSans-b1" transform="translate(706.84375 0)"/>
      <use xlink:href="#DejaVuSans-53" transform="translate(790.632812 0)"/>
      <use xlink:href="#DejaVuSans-44" transform="translate(854.109375 0)"/>
      <use xlink:href="#DejaVuSans-20" transform="translate(931.111328 0)"/>
      <use xlink:href="#DejaVuSans-28" transform="translate(962.898438 0)"/>
      <use xlink:href="#DejaVuSans-6e" transform="translate(1001.912109 0)"/>
      <use xlink:href="#DejaVuSans-3d" transform="translate(1065.291016 0)"/>
      <use xlink:href="#DejaVuSans-33" transform="translate(1149.080078 0)"/>
      <use xlink:href="#DejaVuSans-32" transform="translate(1212.703125 0)"/>
      <use xlink:href="#DejaVuSans-29" transform="translate(1276.326172 0)"/>
     </g>
    </g>
    <g id="line2d_20">
     <path d="M 180.048424 98.391094 
L 206.048424 98.391094 
" style="fill: none; stroke: #fdd0a2; stroke-width: 2; stroke-linecap: square"/>
    </g>
    <g id="line2d_21"/>
    <g id="text_16">
     <!-- sim: 5mg PO -->
     <g transform="translate(216.448424 102.941094) scale(0.13 -0.13)">
      <use xlink:href="#DejaVuSans-73"/>
      <use xlink:href="#DejaVuSans-69" transform="translate(52.099609 0)"/>
      <use xlink:href="#DejaVuSans-6d" transform="translate(79.882812 0)"/>
      <use xlink:href="#DejaVuSans-3a" transform="translate(177.294922 0)"/>
      <use xlink:href="#DejaVuSans-20" transform="translate(210.986328 0)"/>
      <use xlink:href="#DejaVuSans-35" transform="translate(242.773438 0)"/>
      <use xlink:href="#DejaVuSans-6d" transform="translate(306.396484 0)"/>
      <use xlink:href="#DejaVuSans-67" transform="translate(403.808594 0)"/>
      <use xlink:href="#DejaVuSans-20" transform="translate(467.285156 0)"/>
      <use xlink:href="#DejaVuSans-50" transform="translate(499.072266 0)"/>
      <use xlink:href="#DejaVuSans-4f" transform="translate(559.375 0)"/>
     </g>
    </g>
    <g id="LineCollection_4">
     <path d="M 193.048424 123.972656 
L 193.048424 110.972656 
" style="fill: none; stroke: #fdd0a2"/>
    </g>
    <g id="line2d_22">
     <path d="M 180.048424 117.472656 
L 206.048424 117.472656 
" style="fill: none; stroke: #fdd0a2; stroke-linecap: square"/>
    </g>
    <g id="line2d_23">
     <g>
      <use xlink:href="#mc8746cb55b" x="193.048424" y="117.472656" style="fill: #fdd0a2; stroke: #000000; stroke-linejoin: miter"/>
     </g>
    </g>
    <g id="text_17">
     <!-- exp: 5mg PO±SD (n=22) -->
     <g transform="translate(216.448424 122.022656) scale(0.13 -0.13)">
      <use xlink:href="#DejaVuSans-65"/>
      <use xlink:href="#DejaVuSans-78" transform="translate(59.773438 0)"/>
      <use xlink:href="#DejaVuSans-70" transform="translate(118.953125 0)"/>
      <use xlink:href="#DejaVuSans-3a" transform="translate(182.429688 0)"/>
      <use xlink:href="#DejaVuSans-20" transform="translate(216.121094 0)"/>
      <use xlink:href="#DejaVuSans-35" transform="translate(247.908203 0)"/>
      <use xlink:href="#DejaVuSans-6d" transform="translate(311.53125 0)"/>
      <use xlink:href="#DejaVuSans-67" transform="translate(408.943359 0)"/>
      <use xlink:href="#DejaVuSans-20" transform="translate(472.419922 0)"/>
      <use xlink:href="#DejaVuSans-50" transform="translate(504.207031 0)"/>
      <use xlink:href="#DejaVuSans-4f" transform="translate(564.509766 0)"/>
      <use xlink:href="#DejaVuSans-b1" transform="translate(643.220703 0)"/>
      <use xlink:href="#DejaVuSans-53" transform="translate(727.009766 0)"/>
      <use xlink:href="#DejaVuSans-44" transform="translate(790.486328 0)"/>
      <use xlink:href="#DejaVuSans-20" transform="translate(867.488281 0)"/>
      <use xlink:href="#DejaVuSans-28" transform="translate(899.275391 0)"/>
      <use xlink:href="#DejaVuSans-6e" transform="translate(938.289062 0)"/>
      <use xlink:href="#DejaVuSans-3d" transform="translate(1001.667969 0)"/>
      <use xlink:href="#DejaVuSans-32" transform="translate(1085.457031 0)"/>
      <use xlink:href="#DejaVuSans-32" transform="translate(1149.080078 0)"/>
      <use xlink:href="#DejaVuSans-29" transform="translate(1212.703125 0)"/>
     </g>
    </g>
   </g>
  </g>
  <g id="axes_2">
   <g id="patch_8">
    <path d="M 501.042826 320.4 
L 840.695 320.4 
L 840.695 43.2 
L 501.042826 43.2 
z
" style="fill: #ffffff"/>
   </g>
   <g id="matplotlib.axis_3">
    <g id="xtick_5">
     <g id="line2d_24">
      <g>
       <use xlink:href="#m509c9d8cd7" x="516.481561" y="320.4" style="stroke: #000000; stroke-width: 0.8"/>
      </g>
     </g>
     <g id="text_18">
      <!-- 0 -->
      <g transform="translate(511.709686 338.797656) scale(0.15 -0.15)">
       <use xlink:href="#DejaVuSans-30"/>
      </g>
     </g>
    </g>
    <g id="xtick_6">
     <g id="line2d_25">
      <g>
       <use xlink:href="#m509c9d8cd7" x="598.821482" y="320.4" style="stroke: #000000; stroke-width: 0.8"/>
      </g>
     </g>
     <g id="text_19">
      <!-- 20 -->
      <g transform="translate(589.277732 338.797656) scale(0.15 -0.15)">
       <use xlink:href="#DejaVuSans-32"/>
       <use xlink:href="#DejaVuSans-30" transform="translate(63.623047 0)"/>
      </g>
     </g>
    </g>
    <g id="xtick_7">
     <g id="line2d_26">
      <g>
       <use xlink:href="#m509c9d8cd7" x="681.161403" y="320.4" style="stroke: #000000; stroke-width: 0.8"/>
      </g>
     </g>
     <g id="text_20">
      <!-- 40 -->
      <g transform="translate(671.617653 338.797656) scale(0.15 -0.15)">
       <use xlink:href="#DejaVuSans-34"/>
       <use xlink:href="#DejaVuSans-30" transform="translate(63.623047 0)"/>
      </g>
     </g>
    </g>
    <g id="xtick_8">
     <g id="line2d_27">
      <g>
       <use xlink:href="#m509c9d8cd7" x="763.501324" y="320.4" style="stroke: #000000; stroke-width: 0.8"/>
      </g>
     </g>
     <g id="text_21">
      <!-- 60 -->
      <g transform="translate(753.957574 338.797656) scale(0.15 -0.15)">
       <use xlink:href="#DejaVuSans-36"/>
       <use xlink:href="#DejaVuSans-30" transform="translate(63.623047 0)"/>
      </g>
     </g>
    </g>
    <g id="text_22">
     <!-- time [hr] -->
     <g transform="translate(625.794382 359.594375) scale(0.18 -0.18)">
      <use xlink:href="#DejaVuSans-Bold-74"/>
      <use xlink:href="#DejaVuSans-Bold-69" transform="translate(47.802734 0)"/>
      <use xlink:href="#DejaVuSans-Bold-6d" transform="translate(82.080078 0)"/>
      <use xlink:href="#DejaVuSans-Bold-65" transform="translate(186.279297 0)"/>
      <use xlink:href="#DejaVuSans-Bold-20" transform="translate(254.101562 0)"/>
      <use xlink:href="#DejaVuSans-Bold-5b" transform="translate(288.916016 0)"/>
      <use xlink:href="#DejaVuSans-Bold-68" transform="translate(334.619141 0)"/>
      <use xlink:href="#DejaVuSans-Bold-72" transform="translate(405.810547 0)"/>
      <use xlink:href="#DejaVuSans-Bold-5d" transform="translate(455.126953 0)"/>
     </g>
    </g>
   </g>
   <g id="matplotlib.axis_4">
    <g id="ytick_8">
     <g id="line2d_28">
      <g>
       <use xlink:href="#m7995e866ea" x="501.042826" y="290.680435" style="stroke: #000000; stroke-width: 0.8"/>
      </g>
     </g>
     <g id="text_23">
      <!-- 0.00 -->
      <g transform="translate(460.644389 296.379263) scale(0.15 -0.15)">
       <use xlink:href="#DejaVuSans-30"/>
       <use xlink:href="#DejaVuSans-2e" transform="translate(63.623047 0)"/>
       <use xlink:href="#DejaVuSans-30" transform="translate(95.410156 0)"/>
       <use xlink:href="#DejaVuSans-30" transform="translate(159.033203 0)"/>
      </g>
     </g>
    </g>
    <g id="ytick_9">
     <g id="line2d_29">
      <g>
       <use xlink:href="#m7995e866ea" x="501.042826" y="254.704582" style="stroke: #000000; stroke-width: 0.8"/>
      </g>
     </g>
     <g id="text_24">
      <!-- 0.05 -->
      <g transform="translate(460.644389 260.40341) scale(0.15 -0.15)">
       <use xlink:href="#DejaVuSans-30"/>
       <use xlink:href="#DejaVuSans-2e" transform="translate(63.623047 0)"/>
       <use xlink:href="#DejaVuSans-30" transform="translate(95.410156 0)"/>
       <use xlink:href="#DejaVuSans-35" transform="translate(159.033203 0)"/>
      </g>
     </g>
    </g>
    <g id="ytick_10">
     <g id="line2d_30">
      <g>
       <use xlink:href="#m7995e866ea" x="501.042826" y="218.728728" style="stroke: #000000; stroke-width: 0.8"/>
      </g>
     </g>
     <g id="text_25">
      <!-- 0.10 -->
      <g transform="translate(460.644389 224.427556) scale(0.15 -0.15)">
       <use xlink:href="#DejaVuSans-30"/>
       <use xlink:href="#DejaVuSans-2e" transform="translate(63.623047 0)"/>
       <use xlink:href="#DejaVuSans-31" transform="translate(95.410156 0)"/>
       <use xlink:href="#DejaVuSans-30" transform="translate(159.033203 0)"/>
      </g>
     </g>
    </g>
    <g id="ytick_11">
     <g id="line2d_31">
      <g>
       <use xlink:href="#m7995e866ea" x="501.042826" y="182.752875" style="stroke: #000000; stroke-width: 0.8"/>
      </g>
     </g>
     <g id="text_26">
      <!-- 0.15 -->
      <g transform="translate(460.644389 188.451703) scale(0.15 -0.15)">
       <use xlink:href="#DejaVuSans-30"/>
       <use xlink:href="#DejaVuSans-2e" transform="translate(63.623047 0)"/>
       <use xlink:href="#DejaVuSans-31" transform="translate(95.410156 0)"/>
       <use xlink:href="#DejaVuSans-35" transform="translate(159.033203 0)"/>
      </g>
     </g>
    </g>
    <g id="ytick_12">
     <g id="line2d_32">
      <g>
       <use xlink:href="#m7995e866ea" x="501.042826" y="146.777022" style="stroke: #000000; stroke-width: 0.8"/>
      </g>
     </g>
     <g id="text_27">
      <!-- 0.20 -->
      <g transform="translate(460.644389 152.47585) scale(0.15 -0.15)">
       <use xlink:href="#DejaVuSans-30"/>
       <use xlink:href="#DejaVuSans-2e" transform="translate(63.623047 0)"/>
       <use xlink:href="#DejaVuSans-32" transform="translate(95.410156 0)"/>
       <use xlink:href="#DejaVuSans-30" transform="translate(159.033203 0)"/>
      </g>
     </g>
    </g>
    <g id="ytick_13">
     <g id="line2d_33">
      <g>
       <use xlink:href="#m7995e866ea" x="501.042826" y="110.801168" style="stroke: #000000; stroke-width: 0.8"/>
      </g>
     </g>
     <g id="text_28">
      <!-- 0.25 -->
      <g transform="translate(460.644389 116.499997) scale(0.15 -0.15)">
       <use xlink:href="#DejaVuSans-30"/>
       <use xlink:href="#DejaVuSans-2e" transform="translate(63.623047 0)"/>
       <use xlink:href="#DejaVuSans-32" transform="translate(95.410156 0)"/>
       <use xlink:href="#DejaVuSans-35" transform="translate(159.033203 0)"/>
      </g>
     </g>
    </g>
    <g id="ytick_14">
     <g id="line2d_34">
      <g>
       <use xlink:href="#m7995e866ea" x="501.042826" y="74.825315" style="stroke: #000000; stroke-width: 0.8"/>
      </g>
     </g>
     <g id="text_29">
      <!-- 0.30 -->
      <g transform="translate(460.644389 80.524143) scale(0.15 -0.15)">
       <use xlink:href="#DejaVuSans-30"/>
       <use xlink:href="#DejaVuSans-2e" transform="translate(63.623047 0)"/>
       <use xlink:href="#DejaVuSans-33" transform="translate(95.410156 0)"/>
       <use xlink:href="#DejaVuSans-30" transform="translate(159.033203 0)"/>
      </g>
     </g>
    </g>
    <g id="text_30">
     <!-- apixaban plasma [µM] -->
     <g transform="translate(452.881264 294.6825) rotate(-90) scale(0.18 -0.18)">
      <use xlink:href="#DejaVuSans-Bold-61"/>
      <use xlink:href="#DejaVuSans-Bold-70" transform="translate(67.480469 0)"/>
      <use xlink:href="#DejaVuSans-Bold-69" transform="translate(139.0625 0)"/>
      <use xlink:href="#DejaVuSans-Bold-78" transform="translate(173.339844 0)"/>
      <use xlink:href="#DejaVuSans-Bold-61" transform="translate(237.841797 0)"/>
      <use xlink:href="#DejaVuSans-Bold-62" transform="translate(305.322266 0)"/>
      <use xlink:href="#DejaVuSans-Bold-61" transform="translate(376.904297 0)"/>
      <use xlink:href="#DejaVuSans-Bold-6e" transform="translate(444.384766 0)"/>
      <use xlink:href="#DejaVuSans-Bold-20" transform="translate(515.576172 0)"/>
      <use xlink:href="#DejaVuSans-Bold-70" transform="translate(550.390625 0)"/>
      <use xlink:href="#DejaVuSans-Bold-6c" transform="translate(621.972656 0)"/>
      <use xlink:href="#DejaVuSans-Bold-61" transform="translate(656.25 0)"/>
      <use xlink:href="#DejaVuSans-Bold-73" transform="translate(723.730469 0)"/>
      <use xlink:href="#DejaVuSans-Bold-6d" transform="translate(783.251953 0)"/>
      <use xlink:href="#DejaVuSans-Bold-61" transform="translate(887.451172 0)"/>
      <use xlink:href="#DejaVuSans-Bold-20" transform="translate(954.931641 0)"/>
      <use xlink:href="#DejaVuSans-Bold-5b" transform="translate(989.746094 0)"/>
      <use xlink:href="#DejaVuSans-Bold-b5" transform="translate(1035.449219 0)"/>
      <use xlink:href="#DejaVuSans-Bold-4d" transform="translate(1109.033203 0)"/>
      <use xlink:href="#DejaVuSans-Bold-5d" transform="translate(1208.544922 0)"/>
     </g>
    </g>
   </g>
   <g id="LineCollection_5">
    <path clip-path="url(#p0b15a1b15d)" style="fill: none; stroke: #000000"/>
    <path d="M 518.540059 278.354348 
L 518.540059 171.528261 
" clip-path="url(#p0b15a1b15d)" style="fill: none; stroke: #000000"/>
    <path d="M 520.598557 233.158696 
L 520.598557 100.31087 
" clip-path="url(#p0b15a1b15d)" style="fill: none; stroke: #000000"/>
    <path d="M 522.657055 209.876087 
L 522.657055 68.81087 
" clip-path="url(#p0b15a1b15d)" style="fill: none; stroke: #000000"/>
    <path d="M 524.715553 187.278261 
L 524.715553 55.8 
" clip-path="url(#p0b15a1b15d)" style="fill: none; stroke: #000000"/>
    <path d="M 528.832549 158.517391 
L 528.832549 55.8 
" clip-path="url(#p0b15a1b15d)" style="fill: none; stroke: #000000"/>
    <path d="M 532.949545 159.886957 
L 532.949545 79.082609 
" clip-path="url(#p0b15a1b15d)" style="fill: none; stroke: #000000"/>
    <path d="M 541.183538 196.180435 
L 541.183538 141.397826 
" clip-path="url(#p0b15a1b15d)" style="fill: none; stroke: #000000"/>
    <path d="M 553.534526 234.528261 
L 553.534526 193.441304 
" clip-path="url(#p0b15a1b15d)" style="fill: none; stroke: #000000"/>
    <path d="M 565.885514 261.234783 
L 565.885514 235.213043 
" clip-path="url(#p0b15a1b15d)" style="fill: none; stroke: #000000"/>
    <path d="M 615.289466 281.047771 
L 615.289466 270.918831 
" clip-path="url(#p0b15a1b15d)" style="fill: none; stroke: #000000"/>
    <path d="M 714.097372 289.77632 
L 714.097372 285.427629 
" clip-path="url(#p0b15a1b15d)" style="fill: none; stroke: #000000"/>
    <path d="M 763.501324 291.036378 
L 763.501324 288.662778 
" clip-path="url(#p0b15a1b15d)" style="fill: none; stroke: #000000"/>
    <path d="M 812.905277 291.005389 
L 812.905277 290.035621 
" clip-path="url(#p0b15a1b15d)" style="fill: none; stroke: #000000"/>
   </g>
   <g id="LineCollection_6">
    <path clip-path="url(#p0b15a1b15d)" style="fill: none; stroke: #9467bd"/>
    <path d="M 518.540059 307.8 
L 518.540059 248.908696 
" clip-path="url(#p0b15a1b15d)" style="fill: none; stroke: #9467bd"/>
    <path d="M 520.598557 288.626087 
L 520.598557 176.321739 
" clip-path="url(#p0b15a1b15d)" style="fill: none; stroke: #9467bd"/>
    <path d="M 522.657055 246.854348 
L 522.657055 127.702174 
" clip-path="url(#p0b15a1b15d)" style="fill: none; stroke: #9467bd"/>
    <path d="M 524.715553 213.984783 
L 524.715553 109.897826 
" clip-path="url(#p0b15a1b15d)" style="fill: none; stroke: #9467bd"/>
    <path d="M 528.832549 180.430435 
L 528.832549 116.06087 
" clip-path="url(#p0b15a1b15d)" style="fill: none; stroke: #9467bd"/>
    <path d="M 532.949545 192.756522 
L 532.949545 136.604348 
" clip-path="url(#p0b15a1b15d)" style="fill: none; stroke: #9467bd"/>
    <path d="M 541.183538 224.941304 
L 541.183538 175.636957 
" clip-path="url(#p0b15a1b15d)" style="fill: none; stroke: #9467bd"/>
    <path d="M 553.534526 249.593478 
L 553.534526 215.354348 
" clip-path="url(#p0b15a1b15d)" style="fill: none; stroke: #9467bd"/>
    <path d="M 565.885514 265.343478 
L 565.885514 246.169565 
" clip-path="url(#p0b15a1b15d)" style="fill: none; stroke: #9467bd"/>
    <path d="M 615.289466 283.422714 
L 615.289466 270.925618 
" clip-path="url(#p0b15a1b15d)" style="fill: none; stroke: #9467bd"/>
    <path d="M 714.097372 289.589515 
L 714.097372 285.348735 
" clip-path="url(#p0b15a1b15d)" style="fill: none; stroke: #9467bd"/>
    <path d="M 763.501324 290.918163 
L 763.501324 288.39013 
" clip-path="url(#p0b15a1b15d)" style="fill: none; stroke: #9467bd"/>
    <path d="M 812.905277 291.04542 
L 812.905277 289.179344 
" clip-path="url(#p0b15a1b15d)" style="fill: none; stroke: #9467bd"/>
   </g>
   <g id="line2d_35">
    <path d="M 516.481561 290.680435 
L 517.099111 285.904918 
L 520.804407 228.300635 
L 522.039506 214.439288 
L 523.274605 203.3084 
L 524.509704 194.525992 
L 525.744802 187.75171 
L 526.979901 182.689164 
L 528.215 179.081488 
L 528.832549 177.752539 
L 529.450099 176.706401 
L 530.067648 175.919957 
L 530.685198 175.371723 
L 531.302747 175.041736 
L 531.920296 174.911452 
L 532.537846 174.963648 
L 533.155395 175.182333 
L 533.772945 175.552665 
L 535.008043 176.694181 
L 536.243142 178.289583 
L 537.478241 180.254141 
L 539.330889 183.73705 
L 541.801087 189.078404 
L 544.888834 196.381915 
L 553.534526 217.17308 
L 557.239822 225.365704 
L 560.327569 231.686476 
L 563.415316 237.517629 
L 566.503063 242.858051 
L 569.59081 247.722226 
L 572.678557 252.134069 
L 575.766304 256.122736 
L 578.854051 259.719801 
L 581.941798 262.957388 
L 585.029545 265.866982 
L 588.117292 268.478684 
L 591.20504 270.820789 
L 594.292787 272.919569 
L 597.998083 275.150814 
L 601.703379 277.104233 
L 605.408676 278.813577 
L 609.731522 280.539076 
L 614.054368 282.014572 
L 618.994763 283.44052 
L 623.935158 284.632239 
L 629.493103 285.74039 
L 635.668597 286.735405 
L 642.46164 287.60018 
L 650.489783 288.38126 
L 659.753024 289.039817 
L 670.868913 289.586166 
L 684.455 290.013396 
L 702.363933 290.333079 
L 727.683458 290.542352 
L 772.147016 290.653108 
L 825.256265 290.676488 
L 825.256265 290.676488 
" clip-path="url(#p0b15a1b15d)" style="fill: none; stroke: #000000; stroke-width: 2; stroke-linecap: square"/>
   </g>
   <g id="line2d_36">
    <path d="M 516.481561 290.680435 
L 518.540059 224.941304 
L 520.598557 166.734783 
L 522.657055 139.343478 
L 524.715553 121.53913 
L 528.832549 107.158696 
L 532.949545 119.484783 
L 541.183538 168.78913 
L 553.534526 213.984783 
L 565.885514 248.223913 
L 615.289466 275.983301 
L 714.097372 287.601974 
L 763.501324 289.849578 
L 812.905277 290.520505 
" clip-path="url(#p0b15a1b15d)" style="fill: none; stroke: #000000; stroke-linecap: square"/>
    <defs>
     <path id="m9f13f6c30f" d="M -3 3 
L 3 3 
L 3 -3 
L -3 -3 
z
" style="stroke: #000000; stroke-linejoin: miter"/>
    </defs>
    <g clip-path="url(#p0b15a1b15d)">
     <use xlink:href="#m9f13f6c30f" x="516.481561" y="290.680435" style="stroke: #000000; stroke-linejoin: miter"/>
     <use xlink:href="#m9f13f6c30f" x="518.540059" y="224.941304" style="stroke: #000000; stroke-linejoin: miter"/>
     <use xlink:href="#m9f13f6c30f" x="520.598557" y="166.734783" style="stroke: #000000; stroke-linejoin: miter"/>
     <use xlink:href="#m9f13f6c30f" x="522.657055" y="139.343478" style="stroke: #000000; stroke-linejoin: miter"/>
     <use xlink:href="#m9f13f6c30f" x="524.715553" y="121.53913" style="stroke: #000000; stroke-linejoin: miter"/>
     <use xlink:href="#m9f13f6c30f" x="528.832549" y="107.158696" style="stroke: #000000; stroke-linejoin: miter"/>
     <use xlink:href="#m9f13f6c30f" x="532.949545" y="119.484783" style="stroke: #000000; stroke-linejoin: miter"/>
     <use xlink:href="#m9f13f6c30f" x="541.183538" y="168.78913" style="stroke: #000000; stroke-linejoin: miter"/>
     <use xlink:href="#m9f13f6c30f" x="553.534526" y="213.984783" style="stroke: #000000; stroke-linejoin: miter"/>
     <use xlink:href="#m9f13f6c30f" x="565.885514" y="248.223913" style="stroke: #000000; stroke-linejoin: miter"/>
     <use xlink:href="#m9f13f6c30f" x="615.289466" y="275.983301" style="stroke: #000000; stroke-linejoin: miter"/>
     <use xlink:href="#m9f13f6c30f" x="714.097372" y="287.601974" style="stroke: #000000; stroke-linejoin: miter"/>
     <use xlink:href="#m9f13f6c30f" x="763.501324" y="289.849578" style="stroke: #000000; stroke-linejoin: miter"/>
     <use xlink:href="#m9f13f6c30f" x="812.905277" y="290.520505" style="stroke: #000000; stroke-linejoin: miter"/>
    </g>
   </g>
   <g id="line2d_37">
    <path d="M 516.481561 290.680435 
L 517.099111 283.444803 
L 520.804407 196.165587 
L 522.039506 175.163546 
L 523.274605 158.298563 
L 524.509704 144.991885 
L 525.744802 134.727821 
L 526.979901 127.057297 
L 528.215 121.591122 
L 528.832549 119.577563 
L 529.450099 117.992504 
L 530.067648 116.800923 
L 530.685198 115.970265 
L 531.302747 115.470286 
L 531.920296 115.272885 
L 532.537846 115.35197 
L 533.155395 115.683311 
L 533.772945 116.24442 
L 534.390494 117.014432 
L 535.625593 119.105146 
L 536.860692 121.816931 
L 538.095791 125.030859 
L 539.948439 130.57439 
L 542.418636 138.890152 
L 546.123933 152.365658 
L 552.916976 177.149017 
L 556.622273 189.716887 
L 559.71002 199.439006 
L 562.797767 208.423554 
L 565.885514 216.662652 
L 568.973261 224.174382 
L 572.061008 230.99271 
L 575.148755 237.160623 
L 578.236502 242.725489 
L 581.324249 247.73599 
L 584.411996 252.24013 
L 587.499743 256.284002 
L 590.58749 259.911056 
L 593.675237 263.161727 
L 596.762984 266.073288 
L 599.850731 268.679851 
L 602.938478 271.012473 
L 606.026225 273.099312 
L 609.731522 275.314739 
L 613.436818 277.252012 
L 617.142115 278.945709 
L 621.46496 280.65418 
L 625.787806 282.11428 
L 630.728202 283.524733 
L 635.668597 284.703117 
L 641.226542 285.798608 
L 647.402036 286.782084 
L 654.195079 287.636726 
L 662.223221 288.408589 
L 671.486462 289.059339 
L 682.602352 289.599196 
L 696.188439 290.021341 
L 714.097372 290.337217 
L 740.034447 290.547033 
L 785.115553 290.654622 
L 825.256265 290.674455 
L 825.256265 290.674455 
" clip-path="url(#p0b15a1b15d)" style="fill: none; stroke: #9467bd; stroke-width: 2; stroke-linecap: square"/>
   </g>
   <g id="line2d_38">
    <path d="M 516.481561 290.680435 
L 518.540059 278.354348 
L 520.598557 232.473913 
L 522.657055 187.278261 
L 524.715553 161.941304 
L 528.832549 148.245652 
L 532.949545 164.680435 
L 541.183538 200.28913 
L 553.534526 232.473913 
L 565.885514 255.756522 
L 615.289466 277.174166 
L 714.097372 287.469125 
L 763.501324 289.654147 
L 812.905277 290.112382 
" clip-path="url(#p0b15a1b15d)" style="fill: none; stroke: #9467bd; stroke-linecap: square"/>
    <defs>
     <path id="m5c3bc9bfaa" d="M -3 3 
L 3 3 
L 3 -3 
L -3 -3 
z
" style="stroke: #000000; stroke-linejoin: miter"/>
    </defs>
    <g clip-path="url(#p0b15a1b15d)">
     <use xlink:href="#m5c3bc9bfaa" x="516.481561" y="290.680435" style="fill: #9467bd; stroke: #000000; stroke-linejoin: miter"/>
     <use xlink:href="#m5c3bc9bfaa" x="518.540059" y="278.354348" style="fill: #9467bd; stroke: #000000; stroke-linejoin: miter"/>
     <use xlink:href="#m5c3bc9bfaa" x="520.598557" y="232.473913" style="fill: #9467bd; stroke: #000000; stroke-linejoin: miter"/>
     <use xlink:href="#m5c3bc9bfaa" x="522.657055" y="187.278261" style="fill: #9467bd; stroke: #000000; stroke-linejoin: miter"/>
     <use xlink:href="#m5c3bc9bfaa" x="524.715553" y="161.941304" style="fill: #9467bd; stroke: #000000; stroke-linejoin: miter"/>
     <use xlink:href="#m5c3bc9bfaa" x="528.832549" y="148.245652" style="fill: #9467bd; stroke: #000000; stroke-linejoin: miter"/>
     <use xlink:href="#m5c3bc9bfaa" x="532.949545" y="164.680435" style="fill: #9467bd; stroke: #000000; stroke-linejoin: miter"/>
     <use xlink:href="#m5c3bc9bfaa" x="541.183538" y="200.28913" style="fill: #9467bd; stroke: #000000; stroke-linejoin: miter"/>
     <use xlink:href="#m5c3bc9bfaa" x="553.534526" y="232.473913" style="fill: #9467bd; stroke: #000000; stroke-linejoin: miter"/>
     <use xlink:href="#m5c3bc9bfaa" x="565.885514" y="255.756522" style="fill: #9467bd; stroke: #000000; stroke-linejoin: miter"/>
     <use xlink:href="#m5c3bc9bfaa" x="615.289466" y="277.174166" style="fill: #9467bd; stroke: #000000; stroke-linejoin: miter"/>
     <use xlink:href="#m5c3bc9bfaa" x="714.097372" y="287.469125" style="fill: #9467bd; stroke: #000000; stroke-linejoin: miter"/>
     <use xlink:href="#m5c3bc9bfaa" x="763.501324" y="289.654147" style="fill: #9467bd; stroke: #000000; stroke-linejoin: miter"/>
     <use xlink:href="#m5c3bc9bfaa" x="812.905277" y="290.112382" style="fill: #9467bd; stroke: #000000; stroke-linejoin: miter"/>
    </g>
   </g>
   <g id="patch_9">
    <path d="M 501.042826 320.4 
L 501.042826 43.2 
" style="fill: none; stroke: #000000; stroke-width: 0.8; stroke-linejoin: miter; stroke-linecap: square"/>
   </g>
   <g id="patch_10">
    <path d="M 840.695 320.4 
L 840.695 43.2 
" style="fill: none; stroke: #000000; stroke-width: 0.8; stroke-linejoin: miter; stroke-linecap: square"/>
   </g>
   <g id="patch_11">
    <path d="M 501.042826 320.4 
L 840.695 320.4 
" style="fill: none; stroke: #000000; stroke-width: 0.8; stroke-linejoin: miter; stroke-linecap: square"/>
   </g>
   <g id="patch_12">
    <path d="M 501.042826 43.2 
L 840.695 43.2 
" style="fill: none; stroke: #000000; stroke-width: 0.8; stroke-linejoin: miter; stroke-linecap: square"/>
   </g>
   <g id="legend_2">
    <g id="patch_13">
     <path d="M 604.675938 129.92625 
L 831.595 129.92625 
Q 834.195 129.92625 834.195 127.32625 
L 834.195 52.3 
Q 834.195 49.7 831.595 49.7 
L 604.675938 49.7 
Q 602.075938 49.7 602.075938 52.3 
L 602.075938 127.32625 
Q 602.075938 129.92625 604.675938 129.92625 
z
" style="fill: #ffffff; opacity: 0.8; stroke: #cccccc; stroke-linejoin: miter"/>
    </g>
    <g id="line2d_39">
     <path d="M 607.275938 60.227969 
L 633.275938 60.227969 
" style="fill: none; stroke: #000000; stroke-width: 2; stroke-linecap: square"/>
    </g>
    <g id="line2d_40"/>
    <g id="text_31">
     <!-- sim fasted: 5mg -->
     <g transform="translate(643.675938 64.777969) scale(0.13 -0.13)">
      <defs>
       <path id="DejaVuSans-66" d="M 2375 4863 
L 2375 4384 
L 1825 4384 
Q 1516 4384 1395 4259 
Q 1275 4134 1275 3809 
L 1275 3500 
L 2222 3500 
L 2222 3053 
L 1275 3053 
L 1275 0 
L 697 0 
L 697 3053 
L 147 3053 
L 147 3500 
L 697 3500 
L 697 3744 
Q 697 4328 969 4595 
Q 1241 4863 1831 4863 
L 2375 4863 
z
" transform="scale(0.015625)"/>
       <path id="DejaVuSans-61" d="M 2194 1759 
Q 1497 1759 1228 1600 
Q 959 1441 959 1056 
Q 959 750 1161 570 
Q 1363 391 1709 391 
Q 2188 391 2477 730 
Q 2766 1069 2766 1631 
L 2766 1759 
L 2194 1759 
z
M 3341 1997 
L 3341 0 
L 2766 0 
L 2766 531 
Q 2569 213 2275 61 
Q 1981 -91 1556 -91 
Q 1019 -91 701 211 
Q 384 513 384 1019 
Q 384 1609 779 1909 
Q 1175 2209 1959 2209 
L 2766 2209 
L 2766 2266 
Q 2766 2663 2505 2880 
Q 2244 3097 1772 3097 
Q 1472 3097 1187 3025 
Q 903 2953 641 2809 
L 641 3341 
Q 956 3463 1253 3523 
Q 1550 3584 1831 3584 
Q 2591 3584 2966 3190 
Q 3341 2797 3341 1997 
z
" transform="scale(0.015625)"/>
       <path id="DejaVuSans-74" d="M 1172 4494 
L 1172 3500 
L 2356 3500 
L 2356 3053 
L 1172 3053 
L 1172 1153 
Q 1172 725 1289 603 
Q 1406 481 1766 481 
L 2356 481 
L 2356 0 
L 1766 0 
Q 1100 0 847 248 
Q 594 497 594 1153 
L 594 3053 
L 172 3053 
L 172 3500 
L 594 3500 
L 594 4494 
L 1172 4494 
z
" transform="scale(0.015625)"/>
       <path id="DejaVuSans-64" d="M 2906 2969 
L 2906 4863 
L 3481 4863 
L 3481 0 
L 2906 0 
L 2906 525 
Q 2725 213 2448 61 
Q 2172 -91 1784 -91 
Q 1150 -91 751 415 
Q 353 922 353 1747 
Q 353 2572 751 3078 
Q 1150 3584 1784 3584 
Q 2172 3584 2448 3432 
Q 2725 3281 2906 2969 
z
M 947 1747 
Q 947 1113 1208 752 
Q 1469 391 1925 391 
Q 2381 391 2643 752 
Q 2906 1113 2906 1747 
Q 2906 2381 2643 2742 
Q 2381 3103 1925 3103 
Q 1469 3103 1208 2742 
Q 947 2381 947 1747 
z
" transform="scale(0.015625)"/>
      </defs>
      <use xlink:href="#DejaVuSans-73"/>
      <use xlink:href="#DejaVuSans-69" transform="translate(52.099609 0)"/>
      <use xlink:href="#DejaVuSans-6d" transform="translate(79.882812 0)"/>
      <use xlink:href="#DejaVuSans-20" transform="translate(177.294922 0)"/>
      <use xlink:href="#DejaVuSans-66" transform="translate(209.082031 0)"/>
      <use xlink:href="#DejaVuSans-61" transform="translate(244.287109 0)"/>
      <use xlink:href="#DejaVuSans-73" transform="translate(305.566406 0)"/>
      <use xlink:href="#DejaVuSans-74" transform="translate(357.666016 0)"/>
      <use xlink:href="#DejaVuSans-65" transform="translate(396.875 0)"/>
      <use xlink:href="#DejaVuSans-64" transform="translate(458.398438 0)"/>
      <use xlink:href="#DejaVuSans-3a" transform="translate(521.875 0)"/>
      <use xlink:href="#DejaVuSans-20" transform="translate(555.566406 0)"/>
      <use xlink:href="#DejaVuSans-35" transform="translate(587.353516 0)"/>
      <use xlink:href="#DejaVuSans-6d" transform="translate(650.976562 0)"/>
      <use xlink:href="#DejaVuSans-67" transform="translate(748.388672 0)"/>
     </g>
    </g>
    <g id="LineCollection_7">
     <path d="M 620.275938 85.809531 
L 620.275938 72.809531 
" style="fill: none; stroke: #000000"/>
    </g>
    <g id="line2d_41">
     <path d="M 607.275938 79.309531 
L 633.275938 79.309531 
" style="fill: none; stroke: #000000; stroke-linecap: square"/>
    </g>
    <g id="line2d_42">
     <g>
      <use xlink:href="#m9f13f6c30f" x="620.275938" y="79.309531" style="stroke: #000000; stroke-linejoin: miter"/>
     </g>
    </g>
    <g id="text_32">
     <!-- exp fasted: 5mg±SD (n=22) -->
     <g transform="translate(643.675938 83.859531) scale(0.13 -0.13)">
      <use xlink:href="#DejaVuSans-65"/>
      <use xlink:href="#DejaVuSans-78" transform="translate(59.773438 0)"/>
      <use xlink:href="#DejaVuSans-70" transform="translate(118.953125 0)"/>
      <use xlink:href="#DejaVuSans-20" transform="translate(182.429688 0)"/>
      <use xlink:href="#DejaVuSans-66" transform="translate(214.216797 0)"/>
      <use xlink:href="#DejaVuSans-61" transform="translate(249.421875 0)"/>
      <use xlink:href="#DejaVuSans-73" transform="translate(310.701172 0)"/>
      <use xlink:href="#DejaVuSans-74" transform="translate(362.800781 0)"/>
      <use xlink:href="#DejaVuSans-65" transform="translate(402.009766 0)"/>
      <use xlink:href="#DejaVuSans-64" transform="translate(463.533203 0)"/>
      <use xlink:href="#DejaVuSans-3a" transform="translate(527.009766 0)"/>
      <use xlink:href="#DejaVuSans-20" transform="translate(560.701172 0)"/>
      <use xlink:href="#DejaVuSans-35" transform="translate(592.488281 0)"/>
      <use xlink:href="#DejaVuSans-6d" transform="translate(656.111328 0)"/>
      <use xlink:href="#DejaVuSans-67" transform="translate(753.523438 0)"/>
      <use xlink:href="#DejaVuSans-b1" transform="translate(817 0)"/>
      <use xlink:href="#DejaVuSans-53" transform="translate(900.789062 0)"/>
      <use xlink:href="#DejaVuSans-44" transform="translate(964.265625 0)"/>
      <use xlink:href="#DejaVuSans-20" transform="translate(1041.267578 0)"/>
      <use xlink:href="#DejaVuSans-28" transform="translate(1073.054688 0)"/>
      <use xlink:href="#DejaVuSans-6e" transform="translate(1112.068359 0)"/>
      <use xlink:href="#DejaVuSans-3d" transform="translate(1175.447266 0)"/>
      <use xlink:href="#DejaVuSans-32" transform="translate(1259.236328 0)"/>
      <use xlink:href="#DejaVuSans-32" transform="translate(1322.859375 0)"/>
      <use xlink:href="#DejaVuSans-29" transform="translate(1386.482422 0)"/>
     </g>
    </g>
    <g id="line2d_43">
     <path d="M 607.275938 98.391094 
L 633.275938 98.391094 
" style="fill: none; stroke: #9467bd; stroke-width: 2; stroke-linecap: square"/>
    </g>
    <g id="line2d_44"/>
    <g id="text_33">
     <!-- sim fed: 5mg -->
     <g transform="translate(643.675938 102.941094) scale(0.13 -0.13)">
      <use xlink:href="#DejaVuSans-73"/>
      <use xlink:href="#DejaVuSans-69" transform="translate(52.099609 0)"/>
      <use xlink:href="#DejaVuSans-6d" transform="translate(79.882812 0)"/>
      <use xlink:href="#DejaVuSans-20" transform="translate(177.294922 0)"/>
      <use xlink:href="#DejaVuSans-66" transform="translate(209.082031 0)"/>
      <use xlink:href="#DejaVuSans-65" transform="translate(244.287109 0)"/>
      <use xlink:href="#DejaVuSans-64" transform="translate(305.810547 0)"/>
      <use xlink:href="#DejaVuSans-3a" transform="translate(369.287109 0)"/>
      <use xlink:href="#DejaVuSans-20" transform="translate(402.978516 0)"/>
      <use xlink:href="#DejaVuSans-35" transform="translate(434.765625 0)"/>
      <use xlink:href="#DejaVuSans-6d" transform="translate(498.388672 0)"/>
      <use xlink:href="#DejaVuSans-67" transform="translate(595.800781 0)"/>
     </g>
    </g>
    <g id="LineCollection_8">
     <path d="M 620.275938 123.972656 
L 620.275938 110.972656 
" style="fill: none; stroke: #9467bd"/>
    </g>
    <g id="line2d_45">
     <path d="M 607.275938 117.472656 
L 633.275938 117.472656 
" style="fill: none; stroke: #9467bd; stroke-linecap: square"/>
    </g>
    <g id="line2d_46">
     <g>
      <use xlink:href="#m5c3bc9bfaa" x="620.275938" y="117.472656" style="fill: #9467bd; stroke: #000000; stroke-linejoin: miter"/>
     </g>
    </g>
    <g id="text_34">
     <!-- exp fed: 5mg±SD (n=22) -->
     <g transform="translate(643.675938 122.022656) scale(0.13 -0.13)">
      <use xlink:href="#DejaVuSans-65"/>
      <use xlink:href="#DejaVuSans-78" transform="translate(59.773438 0)"/>
      <use xlink:href="#DejaVuSans-70" transform="translate(118.953125 0)"/>
      <use xlink:href="#DejaVuSans-20" transform="translate(182.429688 0)"/>
      <use xlink:href="#DejaVuSans-66" transform="translate(214.216797 0)"/>
      <use xlink:href="#DejaVuSans-65" transform="translate(249.421875 0)"/>
      <use xlink:href="#DejaVuSans-64" transform="translate(310.945312 0)"/>
      <use xlink:href="#DejaVuSans-3a" transform="translate(374.421875 0)"/>
      <use xlink:href="#DejaVuSans-20" transform="translate(408.113281 0)"/>
      <use xlink:href="#DejaVuSans-35" transform="translate(439.900391 0)"/>
      <use xlink:href="#DejaVuSans-6d" transform="translate(503.523438 0)"/>
      <use xlink:href="#DejaVuSans-67" transform="translate(600.935547 0)"/>
      <use xlink:href="#DejaVuSans-b1" transform="translate(664.412109 0)"/>
      <use xlink:href="#DejaVuSans-53" transform="translate(748.201172 0)"/>
      <use xlink:href="#DejaVuSans-44" transform="translate(811.677734 0)"/>
      <use xlink:href="#DejaVuSans-20" transform="translate(888.679688 0)"/>
      <use xlink:href="#DejaVuSans-28" transform="translate(920.466797 0)"/>
      <use xlink:href="#DejaVuSans-6e" transform="translate(959.480469 0)"/>
      <use xlink:href="#DejaVuSans-3d" transform="translate(1022.859375 0)"/>
      <use xlink:href="#DejaVuSans-32" transform="translate(1106.648438 0)"/>
      <use xlink:href="#DejaVuSans-32" transform="translate(1170.271484 0)"/>
      <use xlink:href="#DejaVuSans-29" transform="translate(1233.894531 0)"/>
     </g>
    </g>
   </g>
  </g>
  <g id="text_35">
   <!-- Song2016 -->
   <g transform="translate(367.270391 26.000781) scale(0.25 -0.25)">
    <defs>
     <path id="DejaVuSans-Bold-53" d="M 3834 4519 
L 3834 3531 
Q 3450 3703 3084 3790 
Q 2719 3878 2394 3878 
Q 1963 3878 1756 3759 
Q 1550 3641 1550 3391 
Q 1550 3203 1689 3098 
Q 1828 2994 2194 2919 
L 2706 2816 
Q 3484 2659 3812 2340 
Q 4141 2022 4141 1434 
Q 4141 663 3683 286 
Q 3225 -91 2284 -91 
Q 1841 -91 1394 -6 
Q 947 78 500 244 
L 500 1259 
Q 947 1022 1364 901 
Q 1781 781 2169 781 
Q 2563 781 2772 912 
Q 2981 1044 2981 1288 
Q 2981 1506 2839 1625 
Q 2697 1744 2272 1838 
L 1806 1941 
Q 1106 2091 782 2419 
Q 459 2747 459 3303 
Q 459 4000 909 4375 
Q 1359 4750 2203 4750 
Q 2588 4750 2994 4692 
Q 3400 4634 3834 4519 
z
" transform="scale(0.015625)"/>
     <path id="DejaVuSans-Bold-6f" d="M 2203 2784 
Q 1831 2784 1636 2517 
Q 1441 2250 1441 1747 
Q 1441 1244 1636 976 
Q 1831 709 2203 709 
Q 2569 709 2762 976 
Q 2956 1244 2956 1747 
Q 2956 2250 2762 2517 
Q 2569 2784 2203 2784 
z
M 2203 3584 
Q 3106 3584 3614 3096 
Q 4122 2609 4122 1747 
Q 4122 884 3614 396 
Q 3106 -91 2203 -91 
Q 1297 -91 786 396 
Q 275 884 275 1747 
Q 275 2609 786 3096 
Q 1297 3584 2203 3584 
z
" transform="scale(0.015625)"/>
     <path id="DejaVuSans-Bold-67" d="M 2919 594 
Q 2688 288 2409 144 
Q 2131 0 1766 0 
Q 1125 0 706 504 
Q 288 1009 288 1791 
Q 288 2575 706 3076 
Q 1125 3578 1766 3578 
Q 2131 3578 2409 3434 
Q 2688 3291 2919 2981 
L 2919 3500 
L 4044 3500 
L 4044 353 
Q 4044 -491 3511 -936 
Q 2978 -1381 1966 -1381 
Q 1638 -1381 1331 -1331 
Q 1025 -1281 716 -1178 
L 716 -306 
Q 1009 -475 1290 -558 
Q 1572 -641 1856 -641 
Q 2406 -641 2662 -400 
Q 2919 -159 2919 353 
L 2919 594 
z
M 2181 2772 
Q 1834 2772 1640 2515 
Q 1447 2259 1447 1791 
Q 1447 1309 1634 1061 
Q 1822 813 2181 813 
Q 2531 813 2725 1069 
Q 2919 1325 2919 1791 
Q 2919 2259 2725 2515 
Q 2531 2772 2181 2772 
z
" transform="scale(0.015625)"/>
     <path id="DejaVuSans-Bold-32" d="M 1844 884 
L 3897 884 
L 3897 0 
L 506 0 
L 506 884 
L 2209 2388 
Q 2438 2594 2547 2791 
Q 2656 2988 2656 3200 
Q 2656 3528 2436 3728 
Q 2216 3928 1850 3928 
Q 1569 3928 1234 3808 
Q 900 3688 519 3450 
L 519 4475 
Q 925 4609 1322 4679 
Q 1719 4750 2100 4750 
Q 2938 4750 3402 4381 
Q 3866 4013 3866 3353 
Q 3866 2972 3669 2642 
Q 3472 2313 2841 1759 
L 1844 884 
z
" transform="scale(0.015625)"/>
     <path id="DejaVuSans-Bold-30" d="M 2944 2338 
Q 2944 3213 2780 3570 
Q 2616 3928 2228 3928 
Q 1841 3928 1675 3570 
Q 1509 3213 1509 2338 
Q 1509 1453 1675 1090 
Q 1841 728 2228 728 
Q 2613 728 2778 1090 
Q 2944 1453 2944 2338 
z
M 4147 2328 
Q 4147 1169 3647 539 
Q 3147 -91 2228 -91 
Q 1306 -91 806 539 
Q 306 1169 306 2328 
Q 306 3491 806 4120 
Q 1306 4750 2228 4750 
Q 3147 4750 3647 4120 
Q 4147 3491 4147 2328 
z
" transform="scale(0.015625)"/>
     <path id="DejaVuSans-Bold-31" d="M 750 831 
L 1813 831 
L 1813 3847 
L 722 3622 
L 722 4441 
L 1806 4666 
L 2950 4666 
L 2950 831 
L 4013 831 
L 4013 0 
L 750 0 
L 750 831 
z
" transform="scale(0.015625)"/>
     <path id="DejaVuSans-Bold-36" d="M 2316 2303 
Q 2000 2303 1842 2098 
Q 1684 1894 1684 1484 
Q 1684 1075 1842 870 
Q 2000 666 2316 666 
Q 2634 666 2792 870 
Q 2950 1075 2950 1484 
Q 2950 1894 2792 2098 
Q 2634 2303 2316 2303 
z
M 3803 4544 
L 3803 3681 
Q 3506 3822 3243 3889 
Q 2981 3956 2731 3956 
Q 2194 3956 1894 3657 
Q 1594 3359 1544 2772 
Q 1750 2925 1990 3001 
Q 2231 3078 2516 3078 
Q 3231 3078 3670 2659 
Q 4109 2241 4109 1563 
Q 4109 813 3618 361 
Q 3128 -91 2303 -91 
Q 1394 -91 895 523 
Q 397 1138 397 2266 
Q 397 3422 980 4083 
Q 1563 4744 2578 4744 
Q 2900 4744 3203 4694 
Q 3506 4644 3803 4544 
z
" transform="scale(0.015625)"/>
    </defs>
    <use xlink:href="#DejaVuSans-Bold-53"/>
    <use xlink:href="#DejaVuSans-Bold-6f" transform="translate(72.021484 0)"/>
    <use xlink:href="#DejaVuSans-Bold-6e" transform="translate(140.722656 0)"/>
    <use xlink:href="#DejaVuSans-Bold-67" transform="translate(211.914062 0)"/>
    <use xlink:href="#DejaVuSans-Bold-32" transform="translate(283.496094 0)"/>
    <use xlink:href="#DejaVuSans-Bold-30" transform="translate(353.076172 0)"/>
    <use xlink:href="#DejaVuSans-Bold-31" transform="translate(422.65625 0)"/>
    <use xlink:href="#DejaVuSans-Bold-36" transform="translate(492.236328 0)"/>
   </g>
  </g>
 </g>
 <defs>
  <clipPath id="pe9e1d68e60">
   <rect x="59.495" y="43.2" width="339.652174" height="277.2"/>
  </clipPath>
  <clipPath id="p0b15a1b15d">
   <rect x="501.042826" y="43.2" width="339.652174" height="277.2"/>
  </clipPath>
 </defs>
</svg>
