<?xml version="1.0" encoding="utf-8" standalone="no"?>
<!DOCTYPE svg PUBLIC "-//W3C//DTD SVG 1.1//EN"
  "http://www.w3.org/Graphics/SVG/1.1/DTD/svg11.dtd">
<svg xmlns:xlink="http://www.w3.org/1999/xlink" width="426.3092pt" height="414.4055pt" viewBox="0 0 426.3092 414.4055" xmlns="http://www.w3.org/2000/svg" version="1.1">
 <metadata>
  <rdf:RDF xmlns:dc="http://purl.org/dc/elements/1.1/" xmlns:cc="http://creativecommons.org/ns#" xmlns:rdf="http://www.w3.org/1999/02/22-rdf-syntax-ns#">
   <cc:Work>
    <dc:type rdf:resource="http://purl.org/dc/dcmitype/StillImage"/>
    <dc:date>2026-03-19T14:48:22.625222</dc:date>
    <dc:format>image/svg+xml</dc:format>
    <dc:creator>
     <cc:Agent>
      <dc:title>Matplotlib v3.10.8, https://matplotlib.org/</dc:title>
     </cc:Agent>
    </dc:creator>
   </cc:Work>
  </rdf:RDF>
 </metadata>
 <defs>
  <style type="text/css">*{stroke-linejoin: round; stroke-linecap: butt}</style>
 </defs>
 <g id="figure_1">
  <g id="patch_1">
   <path d="M 0 414.4055 
L 426.3092 414.4055 
L 426.3092 0 
L 0 0 
z
" style="fill: #ffffff"/>
  </g>
  <g id="axes_1">
   <g id="patch_2">
    <path d="M 45.305 364.248 
L 419.1092 364.248 
L 419.1092 48.24 
L 45.305 48.24 
z
" style="fill: #ffffff"/>
   </g>
   <g id="matplotlib.axis_1">
    <g id="xtick_1">
     <g id="line2d_1">
      <defs>
       <path id="mde7dbc1fde" d="M 0 0 
L 0 3.5 
" style="stroke: #000000; stroke-width: 0.8"/>
      </defs>
      <g>
       <use xlink:href="#mde7dbc1fde" x="63.568845" y="364.248" style="stroke: #000000; stroke-width: 0.8"/>
      </g>
     </g>
     <g id="text_1">
      <!-- 0.0 -->
      <g transform="translate(51.641501 382.645656) scale(0.15 -0.15)">
       <defs>
        <path id="DejaVuSans-30" d="M 2034 4250 
Q 1547 4250 1301 3770 
Q 1056 3291 1056 2328 
Q 1056 1369 1301 889 
Q 1547 409 2034 409 
Q 2525 409 2770 889 
Q 3016 1369 3016 2328 
Q 3016 3291 2770 3770 
Q 2525 4250 2034 4250 
z
M 2034 4750 
Q 2819 4750 3233 4129 
Q 3647 3509 3647 2328 
Q 3647 1150 3233 529 
Q 2819 -91 2034 -91 
Q 1250 -91 836 529 
Q 422 1150 422 2328 
Q 422 3509 836 4129 
Q 1250 4750 2034 4750 
z
" transform="scale(0.015625)"/>
        <path id="DejaVuSans-2e" d="M 684 794 
L 1344 794 
L 1344 0 
L 684 0 
L 684 794 
z
" transform="scale(0.015625)"/>
       </defs>
       <use xlink:href="#DejaVuSans-30"/>
       <use xlink:href="#DejaVuSans-2e" transform="translate(63.623047 0)"/>
       <use xlink:href="#DejaVuSans-30" transform="translate(95.410156 0)"/>
      </g>
     </g>
    </g>
    <g id="xtick_2">
     <g id="line2d_2">
      <g>
       <use xlink:href="#mde7dbc1fde" x="154.314152" y="364.248" style="stroke: #000000; stroke-width: 0.8"/>
      </g>
     </g>
     <g id="text_2">
      <!-- 0.2 -->
      <g transform="translate(142.386808 382.645656) scale(0.15 -0.15)">
       <defs>
        <path id="DejaVuSans-32" d="M 1228 531 
L 3431 531 
L 3431 0 
L 469 0 
L 469 531 
Q 828 903 1448 1529 
Q 2069 2156 2228 2338 
Q 2531 2678 2651 2914 
Q 2772 3150 2772 3378 
Q 2772 3750 2511 3984 
Q 2250 4219 1831 4219 
Q 1534 4219 1204 4116 
Q 875 4013 500 3803 
L 500 4441 
Q 881 4594 1212 4672 
Q 1544 4750 1819 4750 
Q 2544 4750 2975 4387 
Q 3406 4025 3406 3419 
Q 3406 3131 3298 2873 
Q 3191 2616 2906 2266 
Q 2828 2175 2409 1742 
Q 1991 1309 1228 531 
z
" transform="scale(0.015625)"/>
       </defs>
       <use xlink:href="#DejaVuSans-30"/>
       <use xlink:href="#DejaVuSans-2e" transform="translate(63.623047 0)"/>
       <use xlink:href="#DejaVuSans-32" transform="translate(95.410156 0)"/>
      </g>
     </g>
    </g>
    <g id="xtick_3">
     <g id="line2d_3">
      <g>
       <use xlink:href="#mde7dbc1fde" x="245.05946" y="364.248" style="stroke: #000000; stroke-width: 0.8"/>
      </g>
     </g>
     <g id="text_3">
      <!-- 0.4 -->
      <g transform="translate(233.132116 382.645656) scale(0.15 -0.15)">
       <defs>
        <path id="DejaVuSans-34" d="M 2419 4116 
L 825 1625 
L 2419 1625 
L 2419 4116 
z
M 2253 4666 
L 3047 4666 
L 3047 1625 
L 3713 1625 
L 3713 1100 
L 3047 1100 
L 3047 0 
L 2419 0 
L 2419 1100 
L 313 1100 
L 313 1709 
L 2253 4666 
z
" transform="scale(0.015625)"/>
       </defs>
       <use xlink:href="#DejaVuSans-30"/>
       <use xlink:href="#DejaVuSans-2e" transform="translate(63.623047 0)"/>
       <use xlink:href="#DejaVuSans-34" transform="translate(95.410156 0)"/>
      </g>
     </g>
    </g>
    <g id="xtick_4">
     <g id="line2d_4">
      <g>
       <use xlink:href="#mde7dbc1fde" x="335.804767" y="364.248" style="stroke: #000000; stroke-width: 0.8"/>
      </g>
     </g>
     <g id="text_4">
      <!-- 0.6 -->
      <g transform="translate(323.877423 382.645656) scale(0.15 -0.15)">
       <defs>
        <path id="DejaVuSans-36" d="M 2113 2584 
Q 1688 2584 1439 2293 
Q 1191 2003 1191 1497 
Q 1191 994 1439 701 
Q 1688 409 2113 409 
Q 2538 409 2786 701 
Q 3034 994 3034 1497 
Q 3034 2003 2786 2293 
Q 2538 2584 2113 2584 
z
M 3366 4563 
L 3366 3988 
Q 3128 4100 2886 4159 
Q 2644 4219 2406 4219 
Q 1781 4219 1451 3797 
Q 1122 3375 1075 2522 
Q 1259 2794 1537 2939 
Q 1816 3084 2150 3084 
Q 2853 3084 3261 2657 
Q 3669 2231 3669 1497 
Q 3669 778 3244 343 
Q 2819 -91 2113 -91 
Q 1303 -91 875 529 
Q 447 1150 447 2328 
Q 447 3434 972 4092 
Q 1497 4750 2381 4750 
Q 2619 4750 2861 4703 
Q 3103 4656 3366 4563 
z
" transform="scale(0.015625)"/>
       </defs>
       <use xlink:href="#DejaVuSans-30"/>
       <use xlink:href="#DejaVuSans-2e" transform="translate(63.623047 0)"/>
       <use xlink:href="#DejaVuSans-36" transform="translate(95.410156 0)"/>
      </g>
     </g>
    </g>
    <g id="text_5">
     <!-- apixaban plasma [µM] -->
     <g transform="translate(119.3246 403.442375) scale(0.18 -0.18)">
      <defs>
       <path id="DejaVuSans-Bold-61" d="M 2106 1575 
Q 1756 1575 1579 1456 
Q 1403 1338 1403 1106 
Q 1403 894 1545 773 
Q 1688 653 1941 653 
Q 2256 653 2472 879 
Q 2688 1106 2688 1447 
L 2688 1575 
L 2106 1575 
z
M 3816 1997 
L 3816 0 
L 2688 0 
L 2688 519 
Q 2463 200 2181 54 
Q 1900 -91 1497 -91 
Q 953 -91 614 226 
Q 275 544 275 1050 
Q 275 1666 698 1953 
Q 1122 2241 2028 2241 
L 2688 2241 
L 2688 2328 
Q 2688 2594 2478 2717 
Q 2269 2841 1825 2841 
Q 1466 2841 1156 2769 
Q 847 2697 581 2553 
L 581 3406 
Q 941 3494 1303 3539 
Q 1666 3584 2028 3584 
Q 2975 3584 3395 3211 
Q 3816 2838 3816 1997 
z
" transform="scale(0.015625)"/>
       <path id="DejaVuSans-Bold-70" d="M 1656 506 
L 1656 -1331 
L 538 -1331 
L 538 3500 
L 1656 3500 
L 1656 2988 
Q 1888 3294 2169 3439 
Q 2450 3584 2816 3584 
Q 3463 3584 3878 3070 
Q 4294 2556 4294 1747 
Q 4294 938 3878 423 
Q 3463 -91 2816 -91 
Q 2450 -91 2169 54 
Q 1888 200 1656 506 
z
M 2400 2772 
Q 2041 2772 1848 2508 
Q 1656 2244 1656 1747 
Q 1656 1250 1848 986 
Q 2041 722 2400 722 
Q 2759 722 2948 984 
Q 3138 1247 3138 1747 
Q 3138 2247 2948 2509 
Q 2759 2772 2400 2772 
z
" transform="scale(0.015625)"/>
       <path id="DejaVuSans-Bold-69" d="M 538 3500 
L 1656 3500 
L 1656 0 
L 538 0 
L 538 3500 
z
M 538 4863 
L 1656 4863 
L 1656 3950 
L 538 3950 
L 538 4863 
z
" transform="scale(0.015625)"/>
       <path id="DejaVuSans-Bold-78" d="M 1422 1791 
L 159 3500 
L 1344 3500 
L 2059 2463 
L 2784 3500 
L 3969 3500 
L 2706 1797 
L 4031 0 
L 2847 0 
L 2059 1106 
L 1281 0 
L 97 0 
L 1422 1791 
z
" transform="scale(0.015625)"/>
       <path id="DejaVuSans-Bold-62" d="M 2400 722 
Q 2759 722 2948 984 
Q 3138 1247 3138 1747 
Q 3138 2247 2948 2509 
Q 2759 2772 2400 2772 
Q 2041 2772 1848 2508 
Q 1656 2244 1656 1747 
Q 1656 1250 1848 986 
Q 2041 722 2400 722 
z
M 1656 2988 
Q 1888 3294 2169 3439 
Q 2450 3584 2816 3584 
Q 3463 3584 3878 3070 
Q 4294 2556 4294 1747 
Q 4294 938 3878 423 
Q 3463 -91 2816 -91 
Q 2450 -91 2169 54 
Q 1888 200 1656 506 
L 1656 0 
L 538 0 
L 538 4863 
L 1656 4863 
L 1656 2988 
z
" transform="scale(0.015625)"/>
       <path id="DejaVuSans-Bold-6e" d="M 4056 2131 
L 4056 0 
L 2931 0 
L 2931 347 
L 2931 1631 
Q 2931 2084 2911 2256 
Q 2891 2428 2841 2509 
Q 2775 2619 2662 2680 
Q 2550 2741 2406 2741 
Q 2056 2741 1856 2470 
Q 1656 2200 1656 1722 
L 1656 0 
L 538 0 
L 538 3500 
L 1656 3500 
L 1656 2988 
Q 1909 3294 2193 3439 
Q 2478 3584 2822 3584 
Q 3428 3584 3742 3212 
Q 4056 2841 4056 2131 
z
" transform="scale(0.015625)"/>
       <path id="DejaVuSans-Bold-20" transform="scale(0.015625)"/>
       <path id="DejaVuSans-Bold-6c" d="M 538 4863 
L 1656 4863 
L 1656 0 
L 538 0 
L 538 4863 
z
" transform="scale(0.015625)"/>
       <path id="DejaVuSans-Bold-73" d="M 3272 3391 
L 3272 2541 
Q 2913 2691 2578 2766 
Q 2244 2841 1947 2841 
Q 1628 2841 1473 2761 
Q 1319 2681 1319 2516 
Q 1319 2381 1436 2309 
Q 1553 2238 1856 2203 
L 2053 2175 
Q 2913 2066 3209 1816 
Q 3506 1566 3506 1031 
Q 3506 472 3093 190 
Q 2681 -91 1863 -91 
Q 1516 -91 1145 -36 
Q 775 19 384 128 
L 384 978 
Q 719 816 1070 734 
Q 1422 653 1784 653 
Q 2113 653 2278 743 
Q 2444 834 2444 1013 
Q 2444 1163 2330 1236 
Q 2216 1309 1875 1350 
L 1678 1375 
Q 931 1469 631 1722 
Q 331 1975 331 2491 
Q 331 3047 712 3315 
Q 1094 3584 1881 3584 
Q 2191 3584 2531 3537 
Q 2872 3491 3272 3391 
z
" transform="scale(0.015625)"/>
       <path id="DejaVuSans-Bold-6d" d="M 3781 2919 
Q 3994 3244 4286 3414 
Q 4578 3584 4928 3584 
Q 5531 3584 5847 3212 
Q 6163 2841 6163 2131 
L 6163 0 
L 5038 0 
L 5038 1825 
Q 5041 1866 5042 1909 
Q 5044 1953 5044 2034 
Q 5044 2406 4934 2573 
Q 4825 2741 4581 2741 
Q 4263 2741 4089 2478 
Q 3916 2216 3909 1719 
L 3909 0 
L 2784 0 
L 2784 1825 
Q 2784 2406 2684 2573 
Q 2584 2741 2328 2741 
Q 2006 2741 1831 2477 
Q 1656 2213 1656 1722 
L 1656 0 
L 531 0 
L 531 3500 
L 1656 3500 
L 1656 2988 
Q 1863 3284 2130 3434 
Q 2397 3584 2719 3584 
Q 3081 3584 3359 3409 
Q 3638 3234 3781 2919 
z
" transform="scale(0.015625)"/>
       <path id="DejaVuSans-Bold-5b" d="M 550 4863 
L 2491 4863 
L 2491 4159 
L 1613 4159 
L 1613 -141 
L 2491 -141 
L 2491 -844 
L 550 -844 
L 550 4863 
z
" transform="scale(0.015625)"/>
       <path id="DejaVuSans-Bold-b5" d="M 544 -1338 
L 544 3500 
L 1672 3500 
L 1672 1466 
Q 1672 1103 1828 926 
Q 1984 750 2303 750 
Q 2625 750 2781 926 
Q 2938 1103 2938 1466 
L 2938 3500 
L 4063 3500 
L 4063 1159 
Q 4063 938 4114 850 
Q 4166 763 4288 763 
Q 4344 763 4395 778 
Q 4447 794 4506 831 
L 4506 50 
Q 4341 -22 4195 -56 
Q 4050 -91 3909 -91 
Q 3631 -91 3454 26 
Q 3278 144 3169 403 
Q 3022 156 2811 32 
Q 2600 -91 2322 -91 
Q 2091 -91 1928 -17 
Q 1766 56 1672 206 
L 1672 -1338 
L 544 -1338 
z
" transform="scale(0.015625)"/>
       <path id="DejaVuSans-Bold-4d" d="M 588 4666 
L 2119 4666 
L 3181 2169 
L 4250 4666 
L 5778 4666 
L 5778 0 
L 4641 0 
L 4641 3413 
L 3566 897 
L 2803 897 
L 1728 3413 
L 1728 0 
L 588 0 
L 588 4666 
z
" transform="scale(0.015625)"/>
       <path id="DejaVuSans-Bold-5d" d="M 2375 -844 
L 434 -844 
L 434 -141 
L 1313 -141 
L 1313 4159 
L 434 4159 
L 434 4863 
L 2375 4863 
L 2375 -844 
z
" transform="scale(0.015625)"/>
      </defs>
      <use xlink:href="#DejaVuSans-Bold-61"/>
      <use xlink:href="#DejaVuSans-Bold-70" transform="translate(67.480469 0)"/>
      <use xlink:href="#DejaVuSans-Bold-69" transform="translate(139.0625 0)"/>
      <use xlink:href="#DejaVuSans-Bold-78" transform="translate(173.339844 0)"/>
      <use xlink:href="#DejaVuSans-Bold-61" transform="translate(237.841797 0)"/>
      <use xlink:href="#DejaVuSans-Bold-62" transform="translate(305.322266 0)"/>
      <use xlink:href="#DejaVuSans-Bold-61" transform="translate(376.904297 0)"/>
      <use xlink:href="#DejaVuSans-Bold-6e" transform="translate(444.384766 0)"/>
      <use xlink:href="#DejaVuSans-Bold-20" transform="translate(515.576172 0)"/>
      <use xlink:href="#DejaVuSans-Bold-70" transform="translate(550.390625 0)"/>
      <use xlink:href="#DejaVuSans-Bold-6c" transform="translate(621.972656 0)"/>
      <use xlink:href="#DejaVuSans-Bold-61" transform="translate(656.25 0)"/>
      <use xlink:href="#DejaVuSans-Bold-73" transform="translate(723.730469 0)"/>
      <use xlink:href="#DejaVuSans-Bold-6d" transform="translate(783.251953 0)"/>
      <use xlink:href="#DejaVuSans-Bold-61" transform="translate(887.451172 0)"/>
      <use xlink:href="#DejaVuSans-Bold-20" transform="translate(954.931641 0)"/>
      <use xlink:href="#DejaVuSans-Bold-5b" transform="translate(989.746094 0)"/>
      <use xlink:href="#DejaVuSans-Bold-b5" transform="translate(1035.449219 0)"/>
      <use xlink:href="#DejaVuSans-Bold-4d" transform="translate(1109.033203 0)"/>
      <use xlink:href="#DejaVuSans-Bold-5d" transform="translate(1208.544922 0)"/>
     </g>
    </g>
   </g>
   <g id="matplotlib.axis_2">
    <g id="ytick_1">
     <g id="line2d_5">
      <defs>
       <path id="m0262f976ab" d="M 0 0 
L -3.5 0 
" style="stroke: #000000; stroke-width: 0.8"/>
      </defs>
      <g>
       <use xlink:href="#m0262f976ab" x="45.305" y="347.707821" style="stroke: #000000; stroke-width: 0.8"/>
      </g>
     </g>
     <g id="text_6">
      <!-- 0 -->
      <g transform="translate(28.76125 353.406649) scale(0.15 -0.15)">
       <use xlink:href="#DejaVuSans-30"/>
      </g>
     </g>
    </g>
    <g id="ytick_2">
     <g id="line2d_6">
      <g>
       <use xlink:href="#m0262f976ab" x="45.305" y="288.151755" style="stroke: #000000; stroke-width: 0.8"/>
      </g>
     </g>
     <g id="text_7">
      <!-- 1 -->
      <g transform="translate(28.76125 293.850583) scale(0.15 -0.15)">
       <defs>
        <path id="DejaVuSans-31" d="M 794 531 
L 1825 531 
L 1825 4091 
L 703 3866 
L 703 4441 
L 1819 4666 
L 2450 4666 
L 2450 531 
L 3481 531 
L 3481 0 
L 794 0 
L 794 531 
z
" transform="scale(0.015625)"/>
       </defs>
       <use xlink:href="#DejaVuSans-31"/>
      </g>
     </g>
    </g>
    <g id="ytick_3">
     <g id="line2d_7">
      <g>
       <use xlink:href="#m0262f976ab" x="45.305" y="228.595689" style="stroke: #000000; stroke-width: 0.8"/>
      </g>
     </g>
     <g id="text_8">
      <!-- 2 -->
      <g transform="translate(28.76125 234.294517) scale(0.15 -0.15)">
       <use xlink:href="#DejaVuSans-32"/>
      </g>
     </g>
    </g>
    <g id="ytick_4">
     <g id="line2d_8">
      <g>
       <use xlink:href="#m0262f976ab" x="45.305" y="169.039623" style="stroke: #000000; stroke-width: 0.8"/>
      </g>
     </g>
     <g id="text_9">
      <!-- 3 -->
      <g transform="translate(28.76125 174.738451) scale(0.15 -0.15)">
       <defs>
        <path id="DejaVuSans-33" d="M 2597 2516 
Q 3050 2419 3304 2112 
Q 3559 1806 3559 1356 
Q 3559 666 3084 287 
Q 2609 -91 1734 -91 
Q 1441 -91 1130 -33 
Q 819 25 488 141 
L 488 750 
Q 750 597 1062 519 
Q 1375 441 1716 441 
Q 2309 441 2620 675 
Q 2931 909 2931 1356 
Q 2931 1769 2642 2001 
Q 2353 2234 1838 2234 
L 1294 2234 
L 1294 2753 
L 1863 2753 
Q 2328 2753 2575 2939 
Q 2822 3125 2822 3475 
Q 2822 3834 2567 4026 
Q 2313 4219 1838 4219 
Q 1578 4219 1281 4162 
Q 984 4106 628 3988 
L 628 4550 
Q 988 4650 1302 4700 
Q 1616 4750 1894 4750 
Q 2613 4750 3031 4423 
Q 3450 4097 3450 3541 
Q 3450 3153 3228 2886 
Q 3006 2619 2597 2516 
z
" transform="scale(0.015625)"/>
       </defs>
       <use xlink:href="#DejaVuSans-33"/>
      </g>
     </g>
    </g>
    <g id="ytick_5">
     <g id="line2d_9">
      <g>
       <use xlink:href="#m0262f976ab" x="45.305" y="109.483557" style="stroke: #000000; stroke-width: 0.8"/>
      </g>
     </g>
     <g id="text_10">
      <!-- 4 -->
      <g transform="translate(28.76125 115.182385) scale(0.15 -0.15)">
       <use xlink:href="#DejaVuSans-34"/>
      </g>
     </g>
    </g>
    <g id="ytick_6">
     <g id="line2d_10">
      <g>
       <use xlink:href="#m0262f976ab" x="45.305" y="49.927491" style="stroke: #000000; stroke-width: 0.8"/>
      </g>
     </g>
     <g id="text_11">
      <!-- 5 -->
      <g transform="translate(28.76125 55.626319) scale(0.15 -0.15)">
       <defs>
        <path id="DejaVuSans-35" d="M 691 4666 
L 3169 4666 
L 3169 4134 
L 1269 4134 
L 1269 2991 
Q 1406 3038 1543 3061 
Q 1681 3084 1819 3084 
Q 2600 3084 3056 2656 
Q 3513 2228 3513 1497 
Q 3513 744 3044 326 
Q 2575 -91 1722 -91 
Q 1428 -91 1123 -41 
Q 819 9 494 109 
L 494 744 
Q 775 591 1075 516 
Q 1375 441 1709 441 
Q 2250 441 2565 725 
Q 2881 1009 2881 1497 
Q 2881 1984 2565 2268 
Q 2250 2553 1709 2553 
Q 1456 2553 1204 2497 
Q 953 2441 691 2322 
L 691 4666 
z
" transform="scale(0.015625)"/>
       </defs>
       <use xlink:href="#DejaVuSans-35"/>
      </g>
     </g>
    </g>
    <g id="text_12">
     <!-- anti-FXa activity [IU/ml] -->
     <g transform="translate(20.877188 327.824156) rotate(-90) scale(0.18 -0.18)">
      <defs>
       <path id="DejaVuSans-Bold-74" d="M 1759 4494 
L 1759 3500 
L 2913 3500 
L 2913 2700 
L 1759 2700 
L 1759 1216 
Q 1759 972 1856 886 
Q 1953 800 2241 800 
L 2816 800 
L 2816 0 
L 1856 0 
Q 1194 0 917 276 
Q 641 553 641 1216 
L 641 2700 
L 84 2700 
L 84 3500 
L 641 3500 
L 641 4494 
L 1759 4494 
z
" transform="scale(0.015625)"/>
       <path id="DejaVuSans-Bold-2d" d="M 347 2297 
L 2309 2297 
L 2309 1388 
L 347 1388 
L 347 2297 
z
" transform="scale(0.015625)"/>
       <path id="DejaVuSans-Bold-46" d="M 588 4666 
L 3834 4666 
L 3834 3756 
L 1791 3756 
L 1791 2888 
L 3713 2888 
L 3713 1978 
L 1791 1978 
L 1791 0 
L 588 0 
L 588 4666 
z
" transform="scale(0.015625)"/>
       <path id="DejaVuSans-Bold-58" d="M 3188 2381 
L 4806 0 
L 3553 0 
L 2463 1594 
L 1381 0 
L 122 0 
L 1741 2381 
L 184 4666 
L 1441 4666 
L 2463 3163 
L 3481 4666 
L 4744 4666 
L 3188 2381 
z
" transform="scale(0.015625)"/>
       <path id="DejaVuSans-Bold-63" d="M 3366 3391 
L 3366 2478 
Q 3138 2634 2908 2709 
Q 2678 2784 2431 2784 
Q 1963 2784 1702 2511 
Q 1441 2238 1441 1747 
Q 1441 1256 1702 982 
Q 1963 709 2431 709 
Q 2694 709 2930 787 
Q 3166 866 3366 1019 
L 3366 103 
Q 3103 6 2833 -42 
Q 2563 -91 2291 -91 
Q 1344 -91 809 395 
Q 275 881 275 1747 
Q 275 2613 809 3098 
Q 1344 3584 2291 3584 
Q 2566 3584 2833 3536 
Q 3100 3488 3366 3391 
z
" transform="scale(0.015625)"/>
       <path id="DejaVuSans-Bold-76" d="M 97 3500 
L 1216 3500 
L 2088 1081 
L 2956 3500 
L 4078 3500 
L 2700 0 
L 1472 0 
L 97 3500 
z
" transform="scale(0.015625)"/>
       <path id="DejaVuSans-Bold-79" d="M 78 3500 
L 1197 3500 
L 2138 1125 
L 2938 3500 
L 4056 3500 
L 2584 -331 
Q 2363 -916 2067 -1148 
Q 1772 -1381 1288 -1381 
L 641 -1381 
L 641 -647 
L 991 -647 
Q 1275 -647 1404 -556 
Q 1534 -466 1606 -231 
L 1638 -134 
L 78 3500 
z
" transform="scale(0.015625)"/>
       <path id="DejaVuSans-Bold-49" d="M 588 4666 
L 1791 4666 
L 1791 0 
L 588 0 
L 588 4666 
z
" transform="scale(0.015625)"/>
       <path id="DejaVuSans-Bold-55" d="M 588 4666 
L 1791 4666 
L 1791 1869 
Q 1791 1291 1980 1042 
Q 2169 794 2597 794 
Q 3028 794 3217 1042 
Q 3406 1291 3406 1869 
L 3406 4666 
L 4609 4666 
L 4609 1869 
Q 4609 878 4112 393 
Q 3616 -91 2597 -91 
Q 1581 -91 1084 393 
Q 588 878 588 1869 
L 588 4666 
z
" transform="scale(0.015625)"/>
       <path id="DejaVuSans-Bold-2f" d="M 1644 4666 
L 2338 4666 
L 691 -594 
L 0 -594 
L 1644 4666 
z
" transform="scale(0.015625)"/>
      </defs>
      <use xlink:href="#DejaVuSans-Bold-61"/>
      <use xlink:href="#DejaVuSans-Bold-6e" transform="translate(67.480469 0)"/>
      <use xlink:href="#DejaVuSans-Bold-74" transform="translate(138.671875 0)"/>
      <use xlink:href="#DejaVuSans-Bold-69" transform="translate(186.474609 0)"/>
      <use xlink:href="#DejaVuSans-Bold-2d" transform="translate(220.751953 0)"/>
      <use xlink:href="#DejaVuSans-Bold-46" transform="translate(262.255859 0)"/>
      <use xlink:href="#DejaVuSans-Bold-58" transform="translate(330.566406 0)"/>
      <use xlink:href="#DejaVuSans-Bold-61" transform="translate(407.666016 0)"/>
      <use xlink:href="#DejaVuSans-Bold-20" transform="translate(475.146484 0)"/>
      <use xlink:href="#DejaVuSans-Bold-61" transform="translate(509.960938 0)"/>
      <use xlink:href="#DejaVuSans-Bold-63" transform="translate(577.441406 0)"/>
      <use xlink:href="#DejaVuSans-Bold-74" transform="translate(636.71875 0)"/>
      <use xlink:href="#DejaVuSans-Bold-69" transform="translate(684.521484 0)"/>
      <use xlink:href="#DejaVuSans-Bold-76" transform="translate(718.798828 0)"/>
      <use xlink:href="#DejaVuSans-Bold-69" transform="translate(783.984375 0)"/>
      <use xlink:href="#DejaVuSans-Bold-74" transform="translate(818.261719 0)"/>
      <use xlink:href="#DejaVuSans-Bold-79" transform="translate(866.064453 0)"/>
      <use xlink:href="#DejaVuSans-Bold-20" transform="translate(931.25 0)"/>
      <use xlink:href="#DejaVuSans-Bold-5b" transform="translate(966.064453 0)"/>
      <use xlink:href="#DejaVuSans-Bold-49" transform="translate(1011.767578 0)"/>
      <use xlink:href="#DejaVuSans-Bold-55" transform="translate(1048.974609 0)"/>
      <use xlink:href="#DejaVuSans-Bold-2f" transform="translate(1130.175781 0)"/>
      <use xlink:href="#DejaVuSans-Bold-6d" transform="translate(1166.699219 0)"/>
      <use xlink:href="#DejaVuSans-Bold-6c" transform="translate(1270.898438 0)"/>
      <use xlink:href="#DejaVuSans-Bold-5d" transform="translate(1305.175781 0)"/>
     </g>
    </g>
   </g>
   <g id="line2d_11">
    <path d="M 63.568845 347.707821 
L 184.778366 246.952403 
L 63.568942 347.70774 
" clip-path="url(#pb62484b67f)" style="fill: none; stroke: #000000; stroke-width: 2; stroke-linecap: square"/>
   </g>
   <g id="line2d_12">
    <defs>
     <path id="mf80cf0ba3f" d="M -3 3 
L 3 3 
L 3 -3 
L -3 -3 
z
" style="stroke: #000000; stroke-linejoin: miter"/>
    </defs>
    <g clip-path="url(#pb62484b67f)">
     <use xlink:href="#mf80cf0ba3f" x="398.299875" y="69.147425" style="fill: #ffffff; stroke: #000000; stroke-linejoin: miter"/>
     <use xlink:href="#mf80cf0ba3f" x="363.935852" y="117.69217" style="fill: #ffffff; stroke: #000000; stroke-linejoin: miter"/>
     <use xlink:href="#mf80cf0ba3f" x="308.359476" y="124.922872" style="fill: #ffffff; stroke: #000000; stroke-linejoin: miter"/>
     <use xlink:href="#mf80cf0ba3f" x="303.692758" y="129.835056" style="fill: #ffffff; stroke: #000000; stroke-linejoin: miter"/>
     <use xlink:href="#mf80cf0ba3f" x="310.480714" y="166.834858" style="fill: #ffffff; stroke: #000000; stroke-linejoin: miter"/>
     <use xlink:href="#mf80cf0ba3f" x="296.48055" y="151.630194" style="fill: #ffffff; stroke: #000000; stroke-linejoin: miter"/>
     <use xlink:href="#mf80cf0ba3f" x="285.025875" y="148.395704" style="fill: #ffffff; stroke: #000000; stroke-linejoin: miter"/>
     <use xlink:href="#mf80cf0ba3f" x="279.086422" y="151.678435" style="fill: #ffffff; stroke: #000000; stroke-linejoin: miter"/>
     <use xlink:href="#mf80cf0ba3f" x="263.389271" y="162.065012" style="fill: #ffffff; stroke: #000000; stroke-linejoin: miter"/>
     <use xlink:href="#mf80cf0ba3f" x="265.086258" y="176.758685" style="fill: #ffffff; stroke: #000000; stroke-linejoin: miter"/>
     <use xlink:href="#mf80cf0ba3f" x="254.055835" y="197.475858" style="fill: #ffffff; stroke: #000000; stroke-linejoin: miter"/>
     <use xlink:href="#mf80cf0ba3f" x="230.722234" y="180.664372" style="fill: #ffffff; stroke: #000000; stroke-linejoin: miter"/>
     <use xlink:href="#mf80cf0ba3f" x="235.813204" y="189.360153" style="fill: #ffffff; stroke: #000000; stroke-linejoin: miter"/>
     <use xlink:href="#mf80cf0ba3f" x="230.297993" y="195.908343" style="fill: #ffffff; stroke: #000000; stroke-linejoin: miter"/>
     <use xlink:href="#mf80cf0ba3f" x="231.570728" y="220.946904" style="fill: #ffffff; stroke: #000000; stroke-linejoin: miter"/>
     <use xlink:href="#mf80cf0ba3f" x="224.358529" y="217.700503" style="fill: #ffffff; stroke: #000000; stroke-linejoin: miter"/>
     <use xlink:href="#mf80cf0ba3f" x="220.116063" y="209.001744" style="fill: #ffffff; stroke: #000000; stroke-linejoin: miter"/>
     <use xlink:href="#mf80cf0ba3f" x="214.1766" y="216.639214" style="fill: #ffffff; stroke: #000000; stroke-linejoin: miter"/>
     <use xlink:href="#mf80cf0ba3f" x="188.721771" y="215.620805" style="fill: #ffffff; stroke: #000000; stroke-linejoin: miter"/>
     <use xlink:href="#mf80cf0ba3f" x="190.418758" y="245.557853" style="fill: #ffffff; stroke: #000000; stroke-linejoin: miter"/>
     <use xlink:href="#mf80cf0ba3f" x="188.297519" y="236.308795" style="fill: #ffffff; stroke: #000000; stroke-linejoin: miter"/>
     <use xlink:href="#mf80cf0ba3f" x="189.570264" y="232.494825" style="fill: #ffffff; stroke: #000000; stroke-linejoin: miter"/>
     <use xlink:href="#mf80cf0ba3f" x="169.206395" y="259.770312" style="fill: #ffffff; stroke: #000000; stroke-linejoin: miter"/>
     <use xlink:href="#mf80cf0ba3f" x="166.660915" y="269.576218" style="fill: #ffffff; stroke: #000000; stroke-linejoin: miter"/>
     <use xlink:href="#mf80cf0ba3f" x="149.266778" y="264.724781" style="fill: #ffffff; stroke: #000000; stroke-linejoin: miter"/>
     <use xlink:href="#mf80cf0ba3f" x="138.236355" y="262.577189" style="fill: #ffffff; stroke: #000000; stroke-linejoin: miter"/>
     <use xlink:href="#mf80cf0ba3f" x="136.96361" y="289.800267" style="fill: #ffffff; stroke: #000000; stroke-linejoin: miter"/>
     <use xlink:href="#mf80cf0ba3f" x="133.993878" y="274.565826" style="fill: #ffffff; stroke: #000000; stroke-linejoin: miter"/>
     <use xlink:href="#mf80cf0ba3f" x="129.32716" y="282.199722" style="fill: #ffffff; stroke: #000000; stroke-linejoin: miter"/>
     <use xlink:href="#mf80cf0ba3f" x="129.32716" y="290.910392" style="fill: #ffffff; stroke: #000000; stroke-linejoin: miter"/>
     <use xlink:href="#mf80cf0ba3f" x="127.630174" y="297.447266" style="fill: #ffffff; stroke: #000000; stroke-linejoin: miter"/>
     <use xlink:href="#mf80cf0ba3f" x="114.902754" y="300.204712" style="fill: #ffffff; stroke: #000000; stroke-linejoin: miter"/>
     <use xlink:href="#mf80cf0ba3f" x="110.236036" y="296.406822" style="fill: #ffffff; stroke: #000000; stroke-linejoin: miter"/>
     <use xlink:href="#mf80cf0ba3f" x="110.236036" y="293.684514" style="fill: #ffffff; stroke: #000000; stroke-linejoin: miter"/>
     <use xlink:href="#mf80cf0ba3f" x="102.175335" y="311.127294" style="fill: #ffffff; stroke: #000000; stroke-linejoin: miter"/>
     <use xlink:href="#mf80cf0ba3f" x="100.478348" y="299.699677" style="fill: #ffffff; stroke: #000000; stroke-linejoin: miter"/>
     <use xlink:href="#mf80cf0ba3f" x="96.235882" y="298.622903" style="fill: #ffffff; stroke: #000000; stroke-linejoin: miter"/>
     <use xlink:href="#mf80cf0ba3f" x="91.569164" y="312.245162" style="fill: #ffffff; stroke: #000000; stroke-linejoin: miter"/>
     <use xlink:href="#mf80cf0ba3f" x="84.356956" y="311.721068" style="fill: #ffffff; stroke: #000000; stroke-linejoin: miter"/>
     <use xlink:href="#mf80cf0ba3f" x="89.023674" y="320.418041" style="fill: #ffffff; stroke: #000000; stroke-linejoin: miter"/>
     <use xlink:href="#mf80cf0ba3f" x="90.72066" y="330.212631" style="fill: #ffffff; stroke: #000000; stroke-linejoin: miter"/>
     <use xlink:href="#mf80cf0ba3f" x="83.508462" y="324.788265" style="fill: #ffffff; stroke: #000000; stroke-linejoin: miter"/>
     <use xlink:href="#mf80cf0ba3f" x="81.387224" y="327.516528" style="fill: #ffffff; stroke: #000000; stroke-linejoin: miter"/>
     <use xlink:href="#mf80cf0ba3f" x="81.811476" y="343.302459" style="fill: #ffffff; stroke: #000000; stroke-linejoin: miter"/>
     <use xlink:href="#mf80cf0ba3f" x="79.265996" y="344.942633" style="fill: #ffffff; stroke: #000000; stroke-linejoin: miter"/>
     <use xlink:href="#mf80cf0ba3f" x="64.417338" y="342.805762" style="fill: #ffffff; stroke: #000000; stroke-linejoin: miter"/>
    </g>
   </g>
   <g id="line2d_13">
    <path d="M 63.568845 347.707821 
L 199.722365 234.530203 
L 63.568964 347.707723 
" clip-path="url(#pb62484b67f)" style="fill: none; stroke: #000000; stroke-width: 2; stroke-linecap: square"/>
   </g>
   <g id="line2d_14">
    <defs>
     <path id="m08edf0a878" d="M 0 -3 
L -0.673542 -0.927051 
L -2.85317 -0.927051 
L -1.089814 0.354102 
L -1.763356 2.427051 
L -0 1.145898 
L 1.763356 2.427051 
L 1.089814 0.354102 
L 2.85317 -0.927051 
L 0.673542 -0.927051 
z
" style="stroke: #66c2a4; stroke-linejoin: bevel"/>
    </defs>
    <g clip-path="url(#pb62484b67f)">
     <use xlink:href="#m08edf0a878" x="380.905748" y="83.893507" style="fill: #ffffff; stroke: #66c2a4; stroke-linejoin: bevel"/>
     <use xlink:href="#m08edf0a878" x="374.542033" y="72.478991" style="fill: #ffffff; stroke: #66c2a4; stroke-linejoin: bevel"/>
     <use xlink:href="#m08edf0a878" x="366.481342" y="69.234972" style="fill: #ffffff; stroke: #66c2a4; stroke-linejoin: bevel"/>
     <use xlink:href="#m08edf0a878" x="365.632848" y="79.580457" style="fill: #ffffff; stroke: #66c2a4; stroke-linejoin: bevel"/>
     <use xlink:href="#m08edf0a878" x="351.632684" y="77.986141" style="fill: #ffffff; stroke: #66c2a4; stroke-linejoin: bevel"/>
     <use xlink:href="#m08edf0a878" x="348.238711" y="113.925249" style="fill: #ffffff; stroke: #66c2a4; stroke-linejoin: bevel"/>
     <use xlink:href="#m08edf0a878" x="329.99608" y="88.388799" style="fill: #ffffff; stroke: #66c2a4; stroke-linejoin: bevel"/>
     <use xlink:href="#m08edf0a878" x="305.389744" y="133.096942" style="fill: #ffffff; stroke: #66c2a4; stroke-linejoin: bevel"/>
     <use xlink:href="#m08edf0a878" x="302.844264" y="123.304734" style="fill: #ffffff; stroke: #66c2a4; stroke-linejoin: bevel"/>
     <use xlink:href="#m08edf0a878" x="287.571365" y="148.9329" style="fill: #ffffff; stroke: #66c2a4; stroke-linejoin: bevel"/>
     <use xlink:href="#m08edf0a878" x="282.904647" y="157.111734" style="fill: #ffffff; stroke: #66c2a4; stroke-linejoin: bevel"/>
     <use xlink:href="#m08edf0a878" x="277.813677" y="157.126028" style="fill: #ffffff; stroke: #66c2a4; stroke-linejoin: bevel"/>
     <use xlink:href="#m08edf0a878" x="271.874214" y="170.75186" style="fill: #ffffff; stroke: #66c2a4; stroke-linejoin: bevel"/>
     <use xlink:href="#m08edf0a878" x="249.813358" y="186.055387" style="fill: #ffffff; stroke: #66c2a4; stroke-linejoin: bevel"/>
     <use xlink:href="#m08edf0a878" x="245.570892" y="187.700326" style="fill: #ffffff; stroke: #66c2a4; stroke-linejoin: bevel"/>
     <use xlink:href="#m08edf0a878" x="243.025402" y="196.417547" style="fill: #ffffff; stroke: #66c2a4; stroke-linejoin: bevel"/>
     <use xlink:href="#m08edf0a878" x="226.479768" y="203.540452" style="fill: #ffffff; stroke: #66c2a4; stroke-linejoin: bevel"/>
     <use xlink:href="#m08edf0a878" x="217.570573" y="199.209535" style="fill: #ffffff; stroke: #66c2a4; stroke-linejoin: bevel"/>
     <use xlink:href="#m08edf0a878" x="211.63111" y="214.46899" style="fill: #ffffff; stroke: #66c2a4; stroke-linejoin: bevel"/>
     <use xlink:href="#m08edf0a878" x="206.54015" y="212.849661" style="fill: #ffffff; stroke: #66c2a4; stroke-linejoin: bevel"/>
     <use xlink:href="#m08edf0a878" x="206.115899" y="216.117502" style="fill: #ffffff; stroke: #66c2a4; stroke-linejoin: bevel"/>
     <use xlink:href="#m08edf0a878" x="202.721925" y="204.150306" style="fill: #ffffff; stroke: #66c2a4; stroke-linejoin: bevel"/>
     <use xlink:href="#m08edf0a878" x="200.176436" y="215.58924" style="fill: #ffffff; stroke: #66c2a4; stroke-linejoin: bevel"/>
     <use xlink:href="#m08edf0a878" x="198.055207" y="214.506511" style="fill: #ffffff; stroke: #66c2a4; stroke-linejoin: bevel"/>
     <use xlink:href="#m08edf0a878" x="195.085476" y="224.857951" style="fill: #ffffff; stroke: #66c2a4; stroke-linejoin: bevel"/>
     <use xlink:href="#m08edf0a878" x="191.267251" y="218.335966" style="fill: #ffffff; stroke: #66c2a4; stroke-linejoin: bevel"/>
     <use xlink:href="#m08edf0a878" x="190.842999" y="227.047232" style="fill: #ffffff; stroke: #66c2a4; stroke-linejoin: bevel"/>
     <use xlink:href="#m08edf0a878" x="188.721771" y="227.053187" style="fill: #ffffff; stroke: #66c2a4; stroke-linejoin: bevel"/>
     <use xlink:href="#m08edf0a878" x="173.02462" y="229.818375" style="fill: #ffffff; stroke: #66c2a4; stroke-linejoin: bevel"/>
     <use xlink:href="#m08edf0a878" x="169.206395" y="245.616217" style="fill: #ffffff; stroke: #66c2a4; stroke-linejoin: bevel"/>
     <use xlink:href="#m08edf0a878" x="165.38817" y="247.259965" style="fill: #ffffff; stroke: #66c2a4; stroke-linejoin: bevel"/>
     <use xlink:href="#m08edf0a878" x="164.963919" y="257.059916" style="fill: #ffffff; stroke: #66c2a4; stroke-linejoin: bevel"/>
     <use xlink:href="#m08edf0a878" x="157.327469" y="262.52478" style="fill: #ffffff; stroke: #66c2a4; stroke-linejoin: bevel"/>
     <use xlink:href="#m08edf0a878" x="154.781989" y="257.632249" style="fill: #ffffff; stroke: #66c2a4; stroke-linejoin: bevel"/>
     <use xlink:href="#m08edf0a878" x="151.388016" y="261.996518" style="fill: #ffffff; stroke: #66c2a4; stroke-linejoin: bevel"/>
     <use xlink:href="#m08edf0a878" x="150.115271" y="274.521159" style="fill: #ffffff; stroke: #66c2a4; stroke-linejoin: bevel"/>
     <use xlink:href="#m08edf0a878" x="145.024301" y="262.558727" style="fill: #ffffff; stroke: #66c2a4; stroke-linejoin: bevel"/>
     <use xlink:href="#m08edf0a878" x="131.87264" y="268.039076" style="fill: #ffffff; stroke: #66c2a4; stroke-linejoin: bevel"/>
     <use xlink:href="#m08edf0a878" x="128.478667" y="288.190467" style="fill: #ffffff; stroke: #66c2a4; stroke-linejoin: bevel"/>
     <use xlink:href="#m08edf0a878" x="124.236191" y="292.557118" style="fill: #ffffff; stroke: #66c2a4; stroke-linejoin: bevel"/>
     <use xlink:href="#m08edf0a878" x="122.963456" y="288.205951" style="fill: #ffffff; stroke: #66c2a4; stroke-linejoin: bevel"/>
     <use xlink:href="#m08edf0a878" x="119.993724" y="279.503619" style="fill: #ffffff; stroke: #66c2a4; stroke-linejoin: bevel"/>
     <use xlink:href="#m08edf0a878" x="108.963291" y="275.723595" style="fill: #ffffff; stroke: #66c2a4; stroke-linejoin: bevel"/>
     <use xlink:href="#m08edf0a878" x="109.387543" y="304.030594" style="fill: #ffffff; stroke: #66c2a4; stroke-linejoin: bevel"/>
     <use xlink:href="#m08edf0a878" x="106.842063" y="298.049378" style="fill: #ffffff; stroke: #66c2a4; stroke-linejoin: bevel"/>
     <use xlink:href="#m08edf0a878" x="106.417811" y="293.150892" style="fill: #ffffff; stroke: #66c2a4; stroke-linejoin: bevel"/>
     <use xlink:href="#m08edf0a878" x="103.44808" y="292.070544" style="fill: #ffffff; stroke: #66c2a4; stroke-linejoin: bevel"/>
     <use xlink:href="#m08edf0a878" x="107.690556" y="311.112405" style="fill: #ffffff; stroke: #66c2a4; stroke-linejoin: bevel"/>
     <use xlink:href="#m08edf0a878" x="100.9026" y="301.876451" style="fill: #ffffff; stroke: #66c2a4; stroke-linejoin: bevel"/>
     <use xlink:href="#m08edf0a878" x="94.538885" y="302.438064" style="fill: #ffffff; stroke: #66c2a4; stroke-linejoin: bevel"/>
     <use xlink:href="#m08edf0a878" x="96.235882" y="307.332978" style="fill: #ffffff; stroke: #66c2a4; stroke-linejoin: bevel"/>
     <use xlink:href="#m08edf0a878" x="88.599432" y="310.620472" style="fill: #ffffff; stroke: #66c2a4; stroke-linejoin: bevel"/>
     <use xlink:href="#m08edf0a878" x="91.569164" y="325.310572" style="fill: #ffffff; stroke: #66c2a4; stroke-linejoin: bevel"/>
     <use xlink:href="#m08edf0a878" x="83.932714" y="332.953402" style="fill: #ffffff; stroke: #66c2a4; stroke-linejoin: bevel"/>
     <use xlink:href="#m08edf0a878" x="84.356956" y="327.50819" style="fill: #ffffff; stroke: #66c2a4; stroke-linejoin: bevel"/>
     <use xlink:href="#m08edf0a878" x="79.265996" y="331.877223" style="fill: #ffffff; stroke: #66c2a4; stroke-linejoin: bevel"/>
     <use xlink:href="#m08edf0a878" x="77.993251" y="331.880797" style="fill: #ffffff; stroke: #66c2a4; stroke-linejoin: bevel"/>
     <use xlink:href="#m08edf0a878" x="74.175026" y="332.435859" style="fill: #ffffff; stroke: #66c2a4; stroke-linejoin: bevel"/>
     <use xlink:href="#m08edf0a878" x="74.599268" y="336.789408" style="fill: #ffffff; stroke: #66c2a4; stroke-linejoin: bevel"/>
     <use xlink:href="#m08edf0a878" x="76.296264" y="343.317348" style="fill: #ffffff; stroke: #66c2a4; stroke-linejoin: bevel"/>
     <use xlink:href="#m08edf0a878" x="71.205295" y="340.065587" style="fill: #ffffff; stroke: #66c2a4; stroke-linejoin: bevel"/>
     <use xlink:href="#m08edf0a878" x="66.114325" y="340.623627" style="fill: #ffffff; stroke: #66c2a4; stroke-linejoin: bevel"/>
     <use xlink:href="#m08edf0a878" x="65.690083" y="342.257846" style="fill: #ffffff; stroke: #66c2a4; stroke-linejoin: bevel"/>
     <use xlink:href="#m08edf0a878" x="62.2961" y="347.167052" style="fill: #ffffff; stroke: #66c2a4; stroke-linejoin: bevel"/>
    </g>
   </g>
   <g id="line2d_15">
    <path d="M 63.568845 347.707821 
L 213.080075 223.426606 
L 63.568981 347.707708 
" clip-path="url(#pb62484b67f)" style="fill: none; stroke: #000000; stroke-width: 2; stroke-linecap: square"/>
   </g>
   <g id="line2d_16">
    <defs>
     <path id="m8c47186f16" d="M 0 -3 
L -3 3 
L 3 3 
z
" style="stroke: #2ca25f; stroke-linejoin: miter"/>
    </defs>
    <g clip-path="url(#pb62484b67f)">
     <use xlink:href="#m8c47186f16" x="402.1181" y="62.604" style="fill: #ffffff; stroke: #2ca25f; stroke-linejoin: miter"/>
     <use xlink:href="#m8c47186f16" x="383.026976" y="101.308296" style="fill: #ffffff; stroke: #2ca25f; stroke-linejoin: miter"/>
     <use xlink:href="#m8c47186f16" x="379.633003" y="92.607155" style="fill: #ffffff; stroke: #2ca25f; stroke-linejoin: miter"/>
     <use xlink:href="#m8c47186f16" x="353.753922" y="92.678622" style="fill: #ffffff; stroke: #2ca25f; stroke-linejoin: miter"/>
     <use xlink:href="#m8c47186f16" x="350.784191" y="107.92974" style="fill: #ffffff; stroke: #2ca25f; stroke-linejoin: miter"/>
     <use xlink:href="#m8c47186f16" x="342.299248" y="101.964604" style="fill: #ffffff; stroke: #2ca25f; stroke-linejoin: miter"/>
     <use xlink:href="#m8c47186f16" x="329.99608" y="115.063961" style="fill: #ffffff; stroke: #2ca25f; stroke-linejoin: miter"/>
     <use xlink:href="#m8c47186f16" x="321.935388" y="124.341009" style="fill: #ffffff; stroke: #2ca25f; stroke-linejoin: miter"/>
     <use xlink:href="#m8c47186f16" x="313.026194" y="111.84436" style="fill: #ffffff; stroke: #2ca25f; stroke-linejoin: miter"/>
     <use xlink:href="#m8c47186f16" x="309.632211" y="96.611109" style="fill: #ffffff; stroke: #2ca25f; stroke-linejoin: miter"/>
     <use xlink:href="#m8c47186f16" x="292.238083" y="168.517912" style="fill: #ffffff; stroke: #2ca25f; stroke-linejoin: miter"/>
     <use xlink:href="#m8c47186f16" x="288.8441" y="169.071784" style="fill: #ffffff; stroke: #2ca25f; stroke-linejoin: miter"/>
     <use xlink:href="#m8c47186f16" x="278.66217" y="146.779948" style="fill: #ffffff; stroke: #2ca25f; stroke-linejoin: miter"/>
     <use xlink:href="#m8c47186f16" x="274.843946" y="162.033448" style="fill: #ffffff; stroke: #2ca25f; stroke-linejoin: miter"/>
     <use xlink:href="#m8c47186f16" x="268.904483" y="160.960843" style="fill: #ffffff; stroke: #2ca25f; stroke-linejoin: miter"/>
     <use xlink:href="#m8c47186f16" x="248.964865" y="177.892037" style="fill: #ffffff; stroke: #2ca25f; stroke-linejoin: miter"/>
     <use xlink:href="#m8c47186f16" x="257.025566" y="174.059009" style="fill: #ffffff; stroke: #2ca25f; stroke-linejoin: miter"/>
     <use xlink:href="#m8c47186f16" x="243.025402" y="182.263452" style="fill: #ffffff; stroke: #2ca25f; stroke-linejoin: miter"/>
     <use xlink:href="#m8c47186f16" x="223.510036" y="201.370825" style="fill: #ffffff; stroke: #2ca25f; stroke-linejoin: miter"/>
     <use xlink:href="#m8c47186f16" x="215.025093" y="208.471099" style="fill: #ffffff; stroke: #2ca25f; stroke-linejoin: miter"/>
     <use xlink:href="#m8c47186f16" x="202.721925" y="225.925791" style="fill: #ffffff; stroke: #2ca25f; stroke-linejoin: miter"/>
     <use xlink:href="#m8c47186f16" x="200.600687" y="219.399042" style="fill: #ffffff; stroke: #2ca25f; stroke-linejoin: miter"/>
     <use xlink:href="#m8c47186f16" x="200.600687" y="247.162888" style="fill: #ffffff; stroke: #2ca25f; stroke-linejoin: miter"/>
     <use xlink:href="#m8c47186f16" x="184.903546" y="233.051674" style="fill: #ffffff; stroke: #2ca25f; stroke-linejoin: miter"/>
     <use xlink:href="#m8c47186f16" x="170.903382" y="265.209568" style="fill: #ffffff; stroke: #2ca25f; stroke-linejoin: miter"/>
     <use xlink:href="#m8c47186f16" x="166.236664" y="258.145027" style="fill: #ffffff; stroke: #2ca25f; stroke-linejoin: miter"/>
     <use xlink:href="#m8c47186f16" x="161.569946" y="253.802794" style="fill: #ffffff; stroke: #2ca25f; stroke-linejoin: miter"/>
     <use xlink:href="#m8c47186f16" x="160.721452" y="258.160512" style="fill: #ffffff; stroke: #2ca25f; stroke-linejoin: miter"/>
     <use xlink:href="#m8c47186f16" x="156.903227" y="266.881306" style="fill: #ffffff; stroke: #2ca25f; stroke-linejoin: miter"/>
     <use xlink:href="#m8c47186f16" x="142.903073" y="270.186072" style="fill: #ffffff; stroke: #2ca25f; stroke-linejoin: miter"/>
     <use xlink:href="#m8c47186f16" x="128.902909" y="294.177638" style="fill: #ffffff; stroke: #2ca25f; stroke-linejoin: miter"/>
     <use xlink:href="#m8c47186f16" x="128.054415" y="292.002651" style="fill: #ffffff; stroke: #2ca25f; stroke-linejoin: miter"/>
     <use xlink:href="#m8c47186f16" x="125.933177" y="284.931559" style="fill: #ffffff; stroke: #2ca25f; stroke-linejoin: miter"/>
     <use xlink:href="#m8c47186f16" x="110.236036" y="312.738286" style="fill: #ffffff; stroke: #2ca25f; stroke-linejoin: miter"/>
     <use xlink:href="#m8c47186f16" x="108.53905" y="305.666003" style="fill: #ffffff; stroke: #2ca25f; stroke-linejoin: miter"/>
     <use xlink:href="#m8c47186f16" x="103.872331" y="301.868113" style="fill: #ffffff; stroke: #2ca25f; stroke-linejoin: miter"/>
     <use xlink:href="#m8c47186f16" x="97.932868" y="321.482308" style="fill: #ffffff; stroke: #2ca25f; stroke-linejoin: miter"/>
     <use xlink:href="#m8c47186f16" x="94.963137" y="301.348188" style="fill: #ffffff; stroke: #2ca25f; stroke-linejoin: miter"/>
     <use xlink:href="#m8c47186f16" x="92.841899" y="310.608561" style="fill: #ffffff; stroke: #2ca25f; stroke-linejoin: miter"/>
     <use xlink:href="#m8c47186f16" x="90.296419" y="310.071365" style="fill: #ffffff; stroke: #2ca25f; stroke-linejoin: miter"/>
     <use xlink:href="#m8c47186f16" x="90.72066" y="326.401639" style="fill: #ffffff; stroke: #2ca25f; stroke-linejoin: miter"/>
     <use xlink:href="#m8c47186f16" x="90.296419" y="330.758165" style="fill: #ffffff; stroke: #2ca25f; stroke-linejoin: miter"/>
     <use xlink:href="#m8c47186f16" x="88.599432" y="314.430869" style="fill: #ffffff; stroke: #2ca25f; stroke-linejoin: miter"/>
     <use xlink:href="#m8c47186f16" x="86.053942" y="329.680796" style="fill: #ffffff; stroke: #2ca25f; stroke-linejoin: miter"/>
     <use xlink:href="#m8c47186f16" x="80.114489" y="338.407546" style="fill: #ffffff; stroke: #2ca25f; stroke-linejoin: miter"/>
     <use xlink:href="#m8c47186f16" x="76.296264" y="336.785239" style="fill: #ffffff; stroke: #2ca25f; stroke-linejoin: miter"/>
     <use xlink:href="#m8c47186f16" x="74.599268" y="343.866455" style="fill: #ffffff; stroke: #2ca25f; stroke-linejoin: miter"/>
     <use xlink:href="#m8c47186f16" x="68.659815" y="343.883131" style="fill: #ffffff; stroke: #2ca25f; stroke-linejoin: miter"/>
     <use xlink:href="#m8c47186f16" x="63.993096" y="349.884" style="fill: #ffffff; stroke: #2ca25f; stroke-linejoin: miter"/>
    </g>
   </g>
   <g id="line2d_17">
    <path d="M 63.568845 347.707821 
L 198.727427 235.357245 
L 63.568972 347.707716 
" clip-path="url(#pb62484b67f)" style="fill: none; stroke: #000000; stroke-width: 2; stroke-linecap: square"/>
   </g>
   <g id="line2d_18">
    <defs>
     <path id="m018931de2c" d="M 0 3 
C 0.795609 3 1.55874 2.683901 2.12132 2.12132 
C 2.683901 1.55874 3 0.795609 3 0 
C 3 -0.795609 2.683901 -1.55874 2.12132 -2.12132 
C 1.55874 -2.683901 0.795609 -3 0 -3 
C -0.795609 -3 -1.55874 -2.683901 -2.12132 -2.12132 
C -2.683901 -1.55874 -3 -0.795609 -3 0 
C -3 0.795609 -2.683901 1.55874 -2.12132 2.12132 
C -1.55874 2.683901 -0.795609 3 0 3 
z
" style="stroke: #006d2c"/>
    </defs>
    <g clip-path="url(#pb62484b67f)">
     <use xlink:href="#m018931de2c" x="318.117164" y="110.741381" style="fill: #ffffff; stroke: #006d2c"/>
     <use xlink:href="#m018931de2c" x="310.480714" y="122.194609" style="fill: #ffffff; stroke: #006d2c"/>
     <use xlink:href="#m018931de2c" x="298.177536" y="135.838308" style="fill: #ffffff; stroke: #006d2c"/>
     <use xlink:href="#m018931de2c" x="296.904801" y="139.108531" style="fill: #ffffff; stroke: #006d2c"/>
     <use xlink:href="#m018931de2c" x="295.207815" y="141.290666" style="fill: #ffffff; stroke: #006d2c"/>
     <use xlink:href="#m018931de2c" x="291.813832" y="136.400517" style="fill: #ffffff; stroke: #006d2c"/>
     <use xlink:href="#m018931de2c" x="292.238083" y="163.61883" style="fill: #ffffff; stroke: #006d2c"/>
     <use xlink:href="#m018931de2c" x="283.328889" y="152.755208" style="fill: #ffffff; stroke: #006d2c"/>
     <use xlink:href="#m018931de2c" x="274.419694" y="163.123324" style="fill: #ffffff; stroke: #006d2c"/>
     <use xlink:href="#m018931de2c" x="255.32858" y="176.785485" style="fill: #ffffff; stroke: #006d2c"/>
     <use xlink:href="#m018931de2c" x="245.995134" y="166.467992" style="fill: #ffffff; stroke: #006d2c"/>
     <use xlink:href="#m018931de2c" x="245.570892" y="186.611641" style="fill: #ffffff; stroke: #006d2c"/>
     <use xlink:href="#m018931de2c" x="237.934442" y="161.046604" style="fill: #ffffff; stroke: #006d2c"/>
     <use xlink:href="#m018931de2c" x="237.934442" y="199.153553" style="fill: #ffffff; stroke: #006d2c"/>
     <use xlink:href="#m018931de2c" x="215.449335" y="224.257626" style="fill: #ffffff; stroke: #006d2c"/>
     <use xlink:href="#m018931de2c" x="205.267405" y="209.042837" style="fill: #ffffff; stroke: #006d2c"/>
     <use xlink:href="#m018931de2c" x="202.721925" y="224.837106" style="fill: #ffffff; stroke: #006d2c"/>
     <use xlink:href="#m018931de2c" x="183.630801" y="230.877878" style="fill: #ffffff; stroke: #006d2c"/>
     <use xlink:href="#m018931de2c" x="178.11559" y="251.035224" style="fill: #ffffff; stroke: #006d2c"/>
     <use xlink:href="#m018931de2c" x="164.539677" y="255.972422" style="fill: #ffffff; stroke: #006d2c"/>
     <use xlink:href="#m018931de2c" x="162.84269" y="263.598576" style="fill: #ffffff; stroke: #006d2c"/>
     <use xlink:href="#m018931de2c" x="152.660751" y="263.626567" style="fill: #ffffff; stroke: #006d2c"/>
     <use xlink:href="#m018931de2c" x="150.963764" y="265.808702" style="fill: #ffffff; stroke: #006d2c"/>
     <use xlink:href="#m018931de2c" x="146.297046" y="288.685973" style="fill: #ffffff; stroke: #006d2c"/>
     <use xlink:href="#m018931de2c" x="144.60006" y="280.52441" style="fill: #ffffff; stroke: #006d2c"/>
     <use xlink:href="#m018931de2c" x="140.781835" y="276.180391" style="fill: #ffffff; stroke: #006d2c"/>
     <use xlink:href="#m018931de2c" x="139.084848" y="289.249969" style="fill: #ffffff; stroke: #006d2c"/>
     <use xlink:href="#m018931de2c" x="137.812103" y="282.176495" style="fill: #ffffff; stroke: #006d2c"/>
     <use xlink:href="#m018931de2c" x="136.115117" y="278.370267" style="fill: #ffffff; stroke: #006d2c"/>
     <use xlink:href="#m018931de2c" x="127.630174" y="305.069251" style="fill: #ffffff; stroke: #006d2c"/>
     <use xlink:href="#m018931de2c" x="117.448234" y="296.930915" style="fill: #ffffff; stroke: #006d2c"/>
     <use xlink:href="#m018931de2c" x="115.327006" y="301.836548" style="fill: #ffffff; stroke: #006d2c"/>
     <use xlink:href="#m018931de2c" x="113.630009" y="305.107367" style="fill: #ffffff; stroke: #006d2c"/>
     <use xlink:href="#m018931de2c" x="111.933023" y="308.378782" style="fill: #ffffff; stroke: #006d2c"/>
     <use xlink:href="#m018931de2c" x="105.99356" y="319.282902" style="fill: #ffffff; stroke: #006d2c"/>
     <use xlink:href="#m018931de2c" x="84.781207" y="206.10851" style="fill: #ffffff; stroke: #006d2c"/>
     <use xlink:href="#m018931de2c" x="94.538885" y="320.947494" style="fill: #ffffff; stroke: #006d2c"/>
     <use xlink:href="#m018931de2c" x="91.993405" y="327.487346" style="fill: #ffffff; stroke: #006d2c"/>
     <use xlink:href="#m018931de2c" x="89.872167" y="328.581986" style="fill: #ffffff; stroke: #006d2c"/>
     <use xlink:href="#m018931de2c" x="87.326687" y="326.95551" style="fill: #ffffff; stroke: #006d2c"/>
     <use xlink:href="#m018931de2c" x="85.629701" y="332.948637" style="fill: #ffffff; stroke: #006d2c"/>
     <use xlink:href="#m018931de2c" x="83.932714" y="330.231094" style="fill: #ffffff; stroke: #006d2c"/>
     <use xlink:href="#m018931de2c" x="82.235717" y="333.502508" style="fill: #ffffff; stroke: #006d2c"/>
     <use xlink:href="#m018931de2c" x="80.962982" y="343.304841" style="fill: #ffffff; stroke: #006d2c"/>
     <use xlink:href="#m018931de2c" x="75.872013" y="342.774197" style="fill: #ffffff; stroke: #006d2c"/>
     <use xlink:href="#m018931de2c" x="71.205295" y="342.787299" style="fill: #ffffff; stroke: #006d2c"/>
     <use xlink:href="#m018931de2c" x="68.659815" y="342.794446" style="fill: #ffffff; stroke: #006d2c"/>
     <use xlink:href="#m018931de2c" x="65.690083" y="342.802188" style="fill: #ffffff; stroke: #006d2c"/>
     <use xlink:href="#m018931de2c" x="63.568983" y="348.796506" style="fill: #ffffff; stroke: #006d2c"/>
    </g>
   </g>
   <g id="patch_3">
    <path d="M 45.305 364.248 
L 45.305 48.24 
" style="fill: none; stroke: #000000; stroke-width: 0.8; stroke-linejoin: miter; stroke-linecap: square"/>
   </g>
   <g id="patch_4">
    <path d="M 419.1092 364.248 
L 419.1092 48.24 
" style="fill: none; stroke: #000000; stroke-width: 0.8; stroke-linejoin: miter; stroke-linecap: square"/>
   </g>
   <g id="patch_5">
    <path d="M 45.305 364.248 
L 419.1092 364.248 
" style="fill: none; stroke: #000000; stroke-width: 0.8; stroke-linejoin: miter; stroke-linecap: square"/>
   </g>
   <g id="patch_6">
    <path d="M 45.305 48.24 
L 419.1092 48.24 
" style="fill: none; stroke: #000000; stroke-width: 0.8; stroke-linejoin: miter; stroke-linecap: square"/>
   </g>
   <g id="legend_1">
    <g id="patch_7">
     <path d="M 54.405 154.047812 
L 271.4725 154.047812 
Q 274.0725 154.047812 274.0725 151.447812 
L 274.0725 57.34 
Q 274.0725 54.74 271.4725 54.74 
L 54.405 54.74 
Q 51.805 54.74 51.805 57.34 
L 51.805 151.447812 
Q 51.805 154.047812 54.405 154.047812 
z
" style="fill: #ffffff; opacity: 0.8; stroke: #cccccc; stroke-linejoin: miter"/>
    </g>
    <g id="line2d_19">
     <path d="M 57.005 65.267969 
L 83.005 65.267969 
" style="fill: none; stroke: #000000; stroke-width: 2; stroke-linecap: square"/>
    </g>
    <g id="line2d_20"/>
    <g id="text_13">
     <!-- sim: 10mg PO -->
     <g transform="translate(93.405 69.817969) scale(0.13 -0.13)">
      <defs>
       <path id="DejaVuSans-73" d="M 2834 3397 
L 2834 2853 
Q 2591 2978 2328 3040 
Q 2066 3103 1784 3103 
Q 1356 3103 1142 2972 
Q 928 2841 928 2578 
Q 928 2378 1081 2264 
Q 1234 2150 1697 2047 
L 1894 2003 
Q 2506 1872 2764 1633 
Q 3022 1394 3022 966 
Q 3022 478 2636 193 
Q 2250 -91 1575 -91 
Q 1294 -91 989 -36 
Q 684 19 347 128 
L 347 722 
Q 666 556 975 473 
Q 1284 391 1588 391 
Q 1994 391 2212 530 
Q 2431 669 2431 922 
Q 2431 1156 2273 1281 
Q 2116 1406 1581 1522 
L 1381 1569 
Q 847 1681 609 1914 
Q 372 2147 372 2553 
Q 372 3047 722 3315 
Q 1072 3584 1716 3584 
Q 2034 3584 2315 3537 
Q 2597 3491 2834 3397 
z
" transform="scale(0.015625)"/>
       <path id="DejaVuSans-69" d="M 603 3500 
L 1178 3500 
L 1178 0 
L 603 0 
L 603 3500 
z
M 603 4863 
L 1178 4863 
L 1178 4134 
L 603 4134 
L 603 4863 
z
" transform="scale(0.015625)"/>
       <path id="DejaVuSans-6d" d="M 3328 2828 
Q 3544 3216 3844 3400 
Q 4144 3584 4550 3584 
Q 5097 3584 5394 3201 
Q 5691 2819 5691 2113 
L 5691 0 
L 5113 0 
L 5113 2094 
Q 5113 2597 4934 2840 
Q 4756 3084 4391 3084 
Q 3944 3084 3684 2787 
Q 3425 2491 3425 1978 
L 3425 0 
L 2847 0 
L 2847 2094 
Q 2847 2600 2669 2842 
Q 2491 3084 2119 3084 
Q 1678 3084 1418 2786 
Q 1159 2488 1159 1978 
L 1159 0 
L 581 0 
L 581 3500 
L 1159 3500 
L 1159 2956 
Q 1356 3278 1631 3431 
Q 1906 3584 2284 3584 
Q 2666 3584 2933 3390 
Q 3200 3197 3328 2828 
z
" transform="scale(0.015625)"/>
       <path id="DejaVuSans-3a" d="M 750 794 
L 1409 794 
L 1409 0 
L 750 0 
L 750 794 
z
M 750 3309 
L 1409 3309 
L 1409 2516 
L 750 2516 
L 750 3309 
z
" transform="scale(0.015625)"/>
       <path id="DejaVuSans-20" transform="scale(0.015625)"/>
       <path id="DejaVuSans-67" d="M 2906 1791 
Q 2906 2416 2648 2759 
Q 2391 3103 1925 3103 
Q 1463 3103 1205 2759 
Q 947 2416 947 1791 
Q 947 1169 1205 825 
Q 1463 481 1925 481 
Q 2391 481 2648 825 
Q 2906 1169 2906 1791 
z
M 3481 434 
Q 3481 -459 3084 -895 
Q 2688 -1331 1869 -1331 
Q 1566 -1331 1297 -1286 
Q 1028 -1241 775 -1147 
L 775 -588 
Q 1028 -725 1275 -790 
Q 1522 -856 1778 -856 
Q 2344 -856 2625 -561 
Q 2906 -266 2906 331 
L 2906 616 
Q 2728 306 2450 153 
Q 2172 0 1784 0 
Q 1141 0 747 490 
Q 353 981 353 1791 
Q 353 2603 747 3093 
Q 1141 3584 1784 3584 
Q 2172 3584 2450 3431 
Q 2728 3278 2906 2969 
L 2906 3500 
L 3481 3500 
L 3481 434 
z
" transform="scale(0.015625)"/>
       <path id="DejaVuSans-50" d="M 1259 4147 
L 1259 2394 
L 2053 2394 
Q 2494 2394 2734 2622 
Q 2975 2850 2975 3272 
Q 2975 3691 2734 3919 
Q 2494 4147 2053 4147 
L 1259 4147 
z
M 628 4666 
L 2053 4666 
Q 2838 4666 3239 4311 
Q 3641 3956 3641 3272 
Q 3641 2581 3239 2228 
Q 2838 1875 2053 1875 
L 1259 1875 
L 1259 0 
L 628 0 
L 628 4666 
z
" transform="scale(0.015625)"/>
       <path id="DejaVuSans-4f" d="M 2522 4238 
Q 1834 4238 1429 3725 
Q 1025 3213 1025 2328 
Q 1025 1447 1429 934 
Q 1834 422 2522 422 
Q 3209 422 3611 934 
Q 4013 1447 4013 2328 
Q 4013 3213 3611 3725 
Q 3209 4238 2522 4238 
z
M 2522 4750 
Q 3503 4750 4090 4092 
Q 4678 3434 4678 2328 
Q 4678 1225 4090 567 
Q 3503 -91 2522 -91 
Q 1538 -91 948 565 
Q 359 1222 359 2328 
Q 359 3434 948 4092 
Q 1538 4750 2522 4750 
z
" transform="scale(0.015625)"/>
      </defs>
      <use xlink:href="#DejaVuSans-73"/>
      <use xlink:href="#DejaVuSans-69" transform="translate(52.099609 0)"/>
      <use xlink:href="#DejaVuSans-6d" transform="translate(79.882812 0)"/>
      <use xlink:href="#DejaVuSans-3a" transform="translate(177.294922 0)"/>
      <use xlink:href="#DejaVuSans-20" transform="translate(210.986328 0)"/>
      <use xlink:href="#DejaVuSans-31" transform="translate(242.773438 0)"/>
      <use xlink:href="#DejaVuSans-30" transform="translate(306.396484 0)"/>
      <use xlink:href="#DejaVuSans-6d" transform="translate(370.019531 0)"/>
      <use xlink:href="#DejaVuSans-67" transform="translate(467.431641 0)"/>
      <use xlink:href="#DejaVuSans-20" transform="translate(530.908203 0)"/>
      <use xlink:href="#DejaVuSans-50" transform="translate(562.695312 0)"/>
      <use xlink:href="#DejaVuSans-4f" transform="translate(622.998047 0)"/>
     </g>
    </g>
    <g id="line2d_21"/>
    <g id="line2d_22">
     <g>
      <use xlink:href="#mf80cf0ba3f" x="70.005" y="84.349531" style="fill: #ffffff; stroke: #000000; stroke-linejoin: miter"/>
     </g>
    </g>
    <g id="text_14">
     <!-- exp individ: 10mg PO -->
     <g transform="translate(93.405 88.899531) scale(0.13 -0.13)">
      <defs>
       <path id="DejaVuSans-65" d="M 3597 1894 
L 3597 1613 
L 953 1613 
Q 991 1019 1311 708 
Q 1631 397 2203 397 
Q 2534 397 2845 478 
Q 3156 559 3463 722 
L 3463 178 
Q 3153 47 2828 -22 
Q 2503 -91 2169 -91 
Q 1331 -91 842 396 
Q 353 884 353 1716 
Q 353 2575 817 3079 
Q 1281 3584 2069 3584 
Q 2775 3584 3186 3129 
Q 3597 2675 3597 1894 
z
M 3022 2063 
Q 3016 2534 2758 2815 
Q 2500 3097 2075 3097 
Q 1594 3097 1305 2825 
Q 1016 2553 972 2059 
L 3022 2063 
z
" transform="scale(0.015625)"/>
       <path id="DejaVuSans-78" d="M 3513 3500 
L 2247 1797 
L 3578 0 
L 2900 0 
L 1881 1375 
L 863 0 
L 184 0 
L 1544 1831 
L 300 3500 
L 978 3500 
L 1906 2253 
L 2834 3500 
L 3513 3500 
z
" transform="scale(0.015625)"/>
       <path id="DejaVuSans-70" d="M 1159 525 
L 1159 -1331 
L 581 -1331 
L 581 3500 
L 1159 3500 
L 1159 2969 
Q 1341 3281 1617 3432 
Q 1894 3584 2278 3584 
Q 2916 3584 3314 3078 
Q 3713 2572 3713 1747 
Q 3713 922 3314 415 
Q 2916 -91 2278 -91 
Q 1894 -91 1617 61 
Q 1341 213 1159 525 
z
M 3116 1747 
Q 3116 2381 2855 2742 
Q 2594 3103 2138 3103 
Q 1681 3103 1420 2742 
Q 1159 2381 1159 1747 
Q 1159 1113 1420 752 
Q 1681 391 2138 391 
Q 2594 391 2855 752 
Q 3116 1113 3116 1747 
z
" transform="scale(0.015625)"/>
       <path id="DejaVuSans-6e" d="M 3513 2113 
L 3513 0 
L 2938 0 
L 2938 2094 
Q 2938 2591 2744 2837 
Q 2550 3084 2163 3084 
Q 1697 3084 1428 2787 
Q 1159 2491 1159 1978 
L 1159 0 
L 581 0 
L 581 3500 
L 1159 3500 
L 1159 2956 
Q 1366 3272 1645 3428 
Q 1925 3584 2291 3584 
Q 2894 3584 3203 3211 
Q 3513 2838 3513 2113 
z
" transform="scale(0.015625)"/>
       <path id="DejaVuSans-64" d="M 2906 2969 
L 2906 4863 
L 3481 4863 
L 3481 0 
L 2906 0 
L 2906 525 
Q 2725 213 2448 61 
Q 2172 -91 1784 -91 
Q 1150 -91 751 415 
Q 353 922 353 1747 
Q 353 2572 751 3078 
Q 1150 3584 1784 3584 
Q 2172 3584 2448 3432 
Q 2725 3281 2906 2969 
z
M 947 1747 
Q 947 1113 1208 752 
Q 1469 391 1925 391 
Q 2381 391 2643 752 
Q 2906 1113 2906 1747 
Q 2906 2381 2643 2742 
Q 2381 3103 1925 3103 
Q 1469 3103 1208 2742 
Q 947 2381 947 1747 
z
" transform="scale(0.015625)"/>
       <path id="DejaVuSans-76" d="M 191 3500 
L 800 3500 
L 1894 563 
L 2988 3500 
L 3597 3500 
L 2284 0 
L 1503 0 
L 191 3500 
z
" transform="scale(0.015625)"/>
      </defs>
      <use xlink:href="#DejaVuSans-65"/>
      <use xlink:href="#DejaVuSans-78" transform="translate(59.773438 0)"/>
      <use xlink:href="#DejaVuSans-70" transform="translate(118.953125 0)"/>
      <use xlink:href="#DejaVuSans-20" transform="translate(182.429688 0)"/>
      <use xlink:href="#DejaVuSans-69" transform="translate(214.216797 0)"/>
      <use xlink:href="#DejaVuSans-6e" transform="translate(242 0)"/>
      <use xlink:href="#DejaVuSans-64" transform="translate(305.378906 0)"/>
      <use xlink:href="#DejaVuSans-69" transform="translate(368.855469 0)"/>
      <use xlink:href="#DejaVuSans-76" transform="translate(396.638672 0)"/>
      <use xlink:href="#DejaVuSans-69" transform="translate(455.818359 0)"/>
      <use xlink:href="#DejaVuSans-64" transform="translate(483.601562 0)"/>
      <use xlink:href="#DejaVuSans-3a" transform="translate(547.078125 0)"/>
      <use xlink:href="#DejaVuSans-20" transform="translate(580.769531 0)"/>
      <use xlink:href="#DejaVuSans-31" transform="translate(612.556641 0)"/>
      <use xlink:href="#DejaVuSans-30" transform="translate(676.179688 0)"/>
      <use xlink:href="#DejaVuSans-6d" transform="translate(739.802734 0)"/>
      <use xlink:href="#DejaVuSans-67" transform="translate(837.214844 0)"/>
      <use xlink:href="#DejaVuSans-20" transform="translate(900.691406 0)"/>
      <use xlink:href="#DejaVuSans-50" transform="translate(932.478516 0)"/>
      <use xlink:href="#DejaVuSans-4f" transform="translate(992.78125 0)"/>
     </g>
    </g>
    <g id="line2d_23"/>
    <g id="line2d_24">
     <g>
      <use xlink:href="#m08edf0a878" x="70.005" y="103.431094" style="fill: #ffffff; stroke: #66c2a4; stroke-linejoin: bevel"/>
     </g>
    </g>
    <g id="text_15">
     <!-- exp individ MiRI: 10mg PO -->
     <g transform="translate(93.405 107.981094) scale(0.13 -0.13)">
      <defs>
       <path id="DejaVuSans-4d" d="M 628 4666 
L 1569 4666 
L 2759 1491 
L 3956 4666 
L 4897 4666 
L 4897 0 
L 4281 0 
L 4281 4097 
L 3078 897 
L 2444 897 
L 1241 4097 
L 1241 0 
L 628 0 
L 628 4666 
z
" transform="scale(0.015625)"/>
       <path id="DejaVuSans-52" d="M 2841 2188 
Q 3044 2119 3236 1894 
Q 3428 1669 3622 1275 
L 4263 0 
L 3584 0 
L 2988 1197 
Q 2756 1666 2539 1819 
Q 2322 1972 1947 1972 
L 1259 1972 
L 1259 0 
L 628 0 
L 628 4666 
L 2053 4666 
Q 2853 4666 3247 4331 
Q 3641 3997 3641 3322 
Q 3641 2881 3436 2590 
Q 3231 2300 2841 2188 
z
M 1259 4147 
L 1259 2491 
L 2053 2491 
Q 2509 2491 2742 2702 
Q 2975 2913 2975 3322 
Q 2975 3731 2742 3939 
Q 2509 4147 2053 4147 
L 1259 4147 
z
" transform="scale(0.015625)"/>
       <path id="DejaVuSans-49" d="M 628 4666 
L 1259 4666 
L 1259 0 
L 628 0 
L 628 4666 
z
" transform="scale(0.015625)"/>
      </defs>
      <use xlink:href="#DejaVuSans-65"/>
      <use xlink:href="#DejaVuSans-78" transform="translate(59.773438 0)"/>
      <use xlink:href="#DejaVuSans-70" transform="translate(118.953125 0)"/>
      <use xlink:href="#DejaVuSans-20" transform="translate(182.429688 0)"/>
      <use xlink:href="#DejaVuSans-69" transform="translate(214.216797 0)"/>
      <use xlink:href="#DejaVuSans-6e" transform="translate(242 0)"/>
      <use xlink:href="#DejaVuSans-64" transform="translate(305.378906 0)"/>
      <use xlink:href="#DejaVuSans-69" transform="translate(368.855469 0)"/>
      <use xlink:href="#DejaVuSans-76" transform="translate(396.638672 0)"/>
      <use xlink:href="#DejaVuSans-69" transform="translate(455.818359 0)"/>
      <use xlink:href="#DejaVuSans-64" transform="translate(483.601562 0)"/>
      <use xlink:href="#DejaVuSans-20" transform="translate(547.078125 0)"/>
      <use xlink:href="#DejaVuSans-4d" transform="translate(578.865234 0)"/>
      <use xlink:href="#DejaVuSans-69" transform="translate(665.144531 0)"/>
      <use xlink:href="#DejaVuSans-52" transform="translate(692.927734 0)"/>
      <use xlink:href="#DejaVuSans-49" transform="translate(762.410156 0)"/>
      <use xlink:href="#DejaVuSans-3a" transform="translate(791.902344 0)"/>
      <use xlink:href="#DejaVuSans-20" transform="translate(825.59375 0)"/>
      <use xlink:href="#DejaVuSans-31" transform="translate(857.380859 0)"/>
      <use xlink:href="#DejaVuSans-30" transform="translate(921.003906 0)"/>
      <use xlink:href="#DejaVuSans-6d" transform="translate(984.626953 0)"/>
      <use xlink:href="#DejaVuSans-67" transform="translate(1082.039062 0)"/>
      <use xlink:href="#DejaVuSans-20" transform="translate(1145.515625 0)"/>
      <use xlink:href="#DejaVuSans-50" transform="translate(1177.302734 0)"/>
      <use xlink:href="#DejaVuSans-4f" transform="translate(1237.605469 0)"/>
     </g>
    </g>
    <g id="line2d_25"/>
    <g id="line2d_26">
     <g>
      <use xlink:href="#m8c47186f16" x="70.005" y="122.512656" style="fill: #ffffff; stroke: #2ca25f; stroke-linejoin: miter"/>
     </g>
    </g>
    <g id="text_16">
     <!-- exp individ MoRI: 10mg PO -->
     <g transform="translate(93.405 127.062656) scale(0.13 -0.13)">
      <defs>
       <path id="DejaVuSans-6f" d="M 1959 3097 
Q 1497 3097 1228 2736 
Q 959 2375 959 1747 
Q 959 1119 1226 758 
Q 1494 397 1959 397 
Q 2419 397 2687 759 
Q 2956 1122 2956 1747 
Q 2956 2369 2687 2733 
Q 2419 3097 1959 3097 
z
M 1959 3584 
Q 2709 3584 3137 3096 
Q 3566 2609 3566 1747 
Q 3566 888 3137 398 
Q 2709 -91 1959 -91 
Q 1206 -91 779 398 
Q 353 888 353 1747 
Q 353 2609 779 3096 
Q 1206 3584 1959 3584 
z
" transform="scale(0.015625)"/>
      </defs>
      <use xlink:href="#DejaVuSans-65"/>
      <use xlink:href="#DejaVuSans-78" transform="translate(59.773438 0)"/>
      <use xlink:href="#DejaVuSans-70" transform="translate(118.953125 0)"/>
      <use xlink:href="#DejaVuSans-20" transform="translate(182.429688 0)"/>
      <use xlink:href="#DejaVuSans-69" transform="translate(214.216797 0)"/>
      <use xlink:href="#DejaVuSans-6e" transform="translate(242 0)"/>
      <use xlink:href="#DejaVuSans-64" transform="translate(305.378906 0)"/>
      <use xlink:href="#DejaVuSans-69" transform="translate(368.855469 0)"/>
      <use xlink:href="#DejaVuSans-76" transform="translate(396.638672 0)"/>
      <use xlink:href="#DejaVuSans-69" transform="translate(455.818359 0)"/>
      <use xlink:href="#DejaVuSans-64" transform="translate(483.601562 0)"/>
      <use xlink:href="#DejaVuSans-20" transform="translate(547.078125 0)"/>
      <use xlink:href="#DejaVuSans-4d" transform="translate(578.865234 0)"/>
      <use xlink:href="#DejaVuSans-6f" transform="translate(665.144531 0)"/>
      <use xlink:href="#DejaVuSans-52" transform="translate(726.326172 0)"/>
      <use xlink:href="#DejaVuSans-49" transform="translate(795.808594 0)"/>
      <use xlink:href="#DejaVuSans-3a" transform="translate(825.300781 0)"/>
      <use xlink:href="#DejaVuSans-20" transform="translate(858.992188 0)"/>
      <use xlink:href="#DejaVuSans-31" transform="translate(890.779297 0)"/>
      <use xlink:href="#DejaVuSans-30" transform="translate(954.402344 0)"/>
      <use xlink:href="#DejaVuSans-6d" transform="translate(1018.025391 0)"/>
      <use xlink:href="#DejaVuSans-67" transform="translate(1115.4375 0)"/>
      <use xlink:href="#DejaVuSans-20" transform="translate(1178.914062 0)"/>
      <use xlink:href="#DejaVuSans-50" transform="translate(1210.701172 0)"/>
      <use xlink:href="#DejaVuSans-4f" transform="translate(1271.003906 0)"/>
     </g>
    </g>
    <g id="line2d_27"/>
    <g id="line2d_28">
     <g>
      <use xlink:href="#m018931de2c" x="70.005" y="141.594219" style="fill: #ffffff; stroke: #006d2c"/>
     </g>
    </g>
    <g id="text_17">
     <!-- exp individ SRI: 10mg PO -->
     <g transform="translate(93.405 146.144219) scale(0.13 -0.13)">
      <defs>
       <path id="DejaVuSans-53" d="M 3425 4513 
L 3425 3897 
Q 3066 4069 2747 4153 
Q 2428 4238 2131 4238 
Q 1616 4238 1336 4038 
Q 1056 3838 1056 3469 
Q 1056 3159 1242 3001 
Q 1428 2844 1947 2747 
L 2328 2669 
Q 3034 2534 3370 2195 
Q 3706 1856 3706 1288 
Q 3706 609 3251 259 
Q 2797 -91 1919 -91 
Q 1588 -91 1214 -16 
Q 841 59 441 206 
L 441 856 
Q 825 641 1194 531 
Q 1563 422 1919 422 
Q 2459 422 2753 634 
Q 3047 847 3047 1241 
Q 3047 1584 2836 1778 
Q 2625 1972 2144 2069 
L 1759 2144 
Q 1053 2284 737 2584 
Q 422 2884 422 3419 
Q 422 4038 858 4394 
Q 1294 4750 2059 4750 
Q 2388 4750 2728 4690 
Q 3069 4631 3425 4513 
z
" transform="scale(0.015625)"/>
      </defs>
      <use xlink:href="#DejaVuSans-65"/>
      <use xlink:href="#DejaVuSans-78" transform="translate(59.773438 0)"/>
      <use xlink:href="#DejaVuSans-70" transform="translate(118.953125 0)"/>
      <use xlink:href="#DejaVuSans-20" transform="translate(182.429688 0)"/>
      <use xlink:href="#DejaVuSans-69" transform="translate(214.216797 0)"/>
      <use xlink:href="#DejaVuSans-6e" transform="translate(242 0)"/>
      <use xlink:href="#DejaVuSans-64" transform="translate(305.378906 0)"/>
      <use xlink:href="#DejaVuSans-69" transform="translate(368.855469 0)"/>
      <use xlink:href="#DejaVuSans-76" transform="translate(396.638672 0)"/>
      <use xlink:href="#DejaVuSans-69" transform="translate(455.818359 0)"/>
      <use xlink:href="#DejaVuSans-64" transform="translate(483.601562 0)"/>
      <use xlink:href="#DejaVuSans-20" transform="translate(547.078125 0)"/>
      <use xlink:href="#DejaVuSans-53" transform="translate(578.865234 0)"/>
      <use xlink:href="#DejaVuSans-52" transform="translate(642.341797 0)"/>
      <use xlink:href="#DejaVuSans-49" transform="translate(711.824219 0)"/>
      <use xlink:href="#DejaVuSans-3a" transform="translate(741.316406 0)"/>
      <use xlink:href="#DejaVuSans-20" transform="translate(775.007812 0)"/>
      <use xlink:href="#DejaVuSans-31" transform="translate(806.794922 0)"/>
      <use xlink:href="#DejaVuSans-30" transform="translate(870.417969 0)"/>
      <use xlink:href="#DejaVuSans-6d" transform="translate(934.041016 0)"/>
      <use xlink:href="#DejaVuSans-67" transform="translate(1031.453125 0)"/>
      <use xlink:href="#DejaVuSans-20" transform="translate(1094.929688 0)"/>
      <use xlink:href="#DejaVuSans-50" transform="translate(1126.716797 0)"/>
      <use xlink:href="#DejaVuSans-4f" transform="translate(1187.019531 0)"/>
     </g>
    </g>
   </g>
  </g>
  <g id="text_18">
   <!-- Chang2016 -->
   <g transform="translate(147.035422 26.196094) scale(0.25 -0.25)">
    <defs>
     <path id="DejaVuSans-Bold-43" d="M 4288 256 
Q 3956 84 3597 -3 
Q 3238 -91 2847 -91 
Q 1681 -91 1000 561 
Q 319 1213 319 2328 
Q 319 3447 1000 4098 
Q 1681 4750 2847 4750 
Q 3238 4750 3597 4662 
Q 3956 4575 4288 4403 
L 4288 3438 
Q 3953 3666 3628 3772 
Q 3303 3878 2944 3878 
Q 2300 3878 1931 3465 
Q 1563 3053 1563 2328 
Q 1563 1606 1931 1193 
Q 2300 781 2944 781 
Q 3303 781 3628 887 
Q 3953 994 4288 1222 
L 4288 256 
z
" transform="scale(0.015625)"/>
     <path id="DejaVuSans-Bold-68" d="M 4056 2131 
L 4056 0 
L 2931 0 
L 2931 347 
L 2931 1625 
Q 2931 2084 2911 2256 
Q 2891 2428 2841 2509 
Q 2775 2619 2662 2680 
Q 2550 2741 2406 2741 
Q 2056 2741 1856 2470 
Q 1656 2200 1656 1722 
L 1656 0 
L 538 0 
L 538 4863 
L 1656 4863 
L 1656 2988 
Q 1909 3294 2193 3439 
Q 2478 3584 2822 3584 
Q 3428 3584 3742 3212 
Q 4056 2841 4056 2131 
z
" transform="scale(0.015625)"/>
     <path id="DejaVuSans-Bold-67" d="M 2919 594 
Q 2688 288 2409 144 
Q 2131 0 1766 0 
Q 1125 0 706 504 
Q 288 1009 288 1791 
Q 288 2575 706 3076 
Q 1125 3578 1766 3578 
Q 2131 3578 2409 3434 
Q 2688 3291 2919 2981 
L 2919 3500 
L 4044 3500 
L 4044 353 
Q 4044 -491 3511 -936 
Q 2978 -1381 1966 -1381 
Q 1638 -1381 1331 -1331 
Q 1025 -1281 716 -1178 
L 716 -306 
Q 1009 -475 1290 -558 
Q 1572 -641 1856 -641 
Q 2406 -641 2662 -400 
Q 2919 -159 2919 353 
L 2919 594 
z
M 2181 2772 
Q 1834 2772 1640 2515 
Q 1447 2259 1447 1791 
Q 1447 1309 1634 1061 
Q 1822 813 2181 813 
Q 2531 813 2725 1069 
Q 2919 1325 2919 1791 
Q 2919 2259 2725 2515 
Q 2531 2772 2181 2772 
z
" transform="scale(0.015625)"/>
     <path id="DejaVuSans-Bold-32" d="M 1844 884 
L 3897 884 
L 3897 0 
L 506 0 
L 506 884 
L 2209 2388 
Q 2438 2594 2547 2791 
Q 2656 2988 2656 3200 
Q 2656 3528 2436 3728 
Q 2216 3928 1850 3928 
Q 1569 3928 1234 3808 
Q 900 3688 519 3450 
L 519 4475 
Q 925 4609 1322 4679 
Q 1719 4750 2100 4750 
Q 2938 4750 3402 4381 
Q 3866 4013 3866 3353 
Q 3866 2972 3669 2642 
Q 3472 2313 2841 1759 
L 1844 884 
z
" transform="scale(0.015625)"/>
     <path id="DejaVuSans-Bold-30" d="M 2944 2338 
Q 2944 3213 2780 3570 
Q 2616 3928 2228 3928 
Q 1841 3928 1675 3570 
Q 1509 3213 1509 2338 
Q 1509 1453 1675 1090 
Q 1841 728 2228 728 
Q 2613 728 2778 1090 
Q 2944 1453 2944 2338 
z
M 4147 2328 
Q 4147 1169 3647 539 
Q 3147 -91 2228 -91 
Q 1306 -91 806 539 
Q 306 1169 306 2328 
Q 306 3491 806 4120 
Q 1306 4750 2228 4750 
Q 3147 4750 3647 4120 
Q 4147 3491 4147 2328 
z
" transform="scale(0.015625)"/>
     <path id="DejaVuSans-Bold-31" d="M 750 831 
L 1813 831 
L 1813 3847 
L 722 3622 
L 722 4441 
L 1806 4666 
L 2950 4666 
L 2950 831 
L 4013 831 
L 4013 0 
L 750 0 
L 750 831 
z
" transform="scale(0.015625)"/>
     <path id="DejaVuSans-Bold-36" d="M 2316 2303 
Q 2000 2303 1842 2098 
Q 1684 1894 1684 1484 
Q 1684 1075 1842 870 
Q 2000 666 2316 666 
Q 2634 666 2792 870 
Q 2950 1075 2950 1484 
Q 2950 1894 2792 2098 
Q 2634 2303 2316 2303 
z
M 3803 4544 
L 3803 3681 
Q 3506 3822 3243 3889 
Q 2981 3956 2731 3956 
Q 2194 3956 1894 3657 
Q 1594 3359 1544 2772 
Q 1750 2925 1990 3001 
Q 2231 3078 2516 3078 
Q 3231 3078 3670 2659 
Q 4109 2241 4109 1563 
Q 4109 813 3618 361 
Q 3128 -91 2303 -91 
Q 1394 -91 895 523 
Q 397 1138 397 2266 
Q 397 3422 980 4083 
Q 1563 4744 2578 4744 
Q 2900 4744 3203 4694 
Q 3506 4644 3803 4544 
z
" transform="scale(0.015625)"/>
    </defs>
    <use xlink:href="#DejaVuSans-Bold-43"/>
    <use xlink:href="#DejaVuSans-Bold-68" transform="translate(73.388672 0)"/>
    <use xlink:href="#DejaVuSans-Bold-61" transform="translate(144.580078 0)"/>
    <use xlink:href="#DejaVuSans-Bold-6e" transform="translate(212.060547 0)"/>
    <use xlink:href="#DejaVuSans-Bold-67" transform="translate(283.251953 0)"/>
    <use xlink:href="#DejaVuSans-Bold-32" transform="translate(354.833984 0)"/>
    <use xlink:href="#DejaVuSans-Bold-30" transform="translate(424.414062 0)"/>
    <use xlink:href="#DejaVuSans-Bold-31" transform="translate(493.994141 0)"/>
    <use xlink:href="#DejaVuSans-Bold-36" transform="translate(563.574219 0)"/>
   </g>
  </g>
 </g>
 <defs>
  <clipPath id="pb62484b67f">
   <rect x="45.305" y="48.24" width="373.8042" height="316.008"/>
  </clipPath>
 </defs>
</svg>
