<?xml version="1.0" encoding="utf-8" standalone="no"?>
<!DOCTYPE svg PUBLIC "-//W3C//DTD SVG 1.1//EN"
  "http://www.w3.org/Graphics/SVG/1.1/DTD/svg11.dtd">
<svg xmlns:xlink="http://www.w3.org/1999/xlink" width="720pt" height="360pt" viewBox="0 0 720 360" xmlns="http://www.w3.org/2000/svg" version="1.1">
 <metadata>
  <rdf:RDF xmlns:dc="http://purl.org/dc/elements/1.1/" xmlns:cc="http://creativecommons.org/ns#" xmlns:rdf="http://www.w3.org/1999/02/22-rdf-syntax-ns#">
   <cc:Work>
    <dc:type rdf:resource="http://purl.org/dc/dcmitype/StillImage"/>
    <dc:date>2026-04-15T17:21:19.537834</dc:date>
    <dc:format>image/svg+xml</dc:format>
    <dc:creator>
     <cc:Agent>
      <dc:title>Matplotlib v3.10.7, https://matplotlib.org/</dc:title>
     </cc:Agent>
    </dc:creator>
   </cc:Work>
  </rdf:RDF>
 </metadata>
 <defs>
  <style type="text/css">*{stroke-linejoin: round; stroke-linecap: butt}</style>
 </defs>
 <g id="figure_1">
  <g id="patch_1">
   <path d="M 0 360 
L 720 360 
L 720 0 
L 0 0 
z
" style="fill: #ffffff"/>
  </g>
  <g id="axes_1">
   <g id="patch_2">
    <path d="M 90 320.4 
L 343.636364 320.4 
L 343.636364 43.2 
L 90 43.2 
z
" style="fill: #ffffff"/>
   </g>
   <g id="matplotlib.axis_1">
    <g id="xtick_1">
     <g id="line2d_1">
      <defs>
       <path id="m3c60294c80" d="M 0 0 
L 0 3.5 
" style="stroke: #000000; stroke-width: 0.8"/>
      </defs>
      <g>
       <use xlink:href="#m3c60294c80" x="111.136364" y="320.4" style="stroke: #000000; stroke-width: 0.8"/>
      </g>
     </g>
     <g id="text_1">
      <!-- 0 -->
      <g transform="translate(107.955114 334.998438) scale(0.1 -0.1)">
       <defs>
        <path id="DejaVuSans-30" d="M 2034 4250 
Q 1547 4250 1301 3770 
Q 1056 3291 1056 2328 
Q 1056 1369 1301 889 
Q 1547 409 2034 409 
Q 2525 409 2770 889 
Q 3016 1369 3016 2328 
Q 3016 3291 2770 3770 
Q 2525 4250 2034 4250 
z
M 2034 4750 
Q 2819 4750 3233 4129 
Q 3647 3509 3647 2328 
Q 3647 1150 3233 529 
Q 2819 -91 2034 -91 
Q 1250 -91 836 529 
Q 422 1150 422 2328 
Q 422 3509 836 4129 
Q 1250 4750 2034 4750 
z
" transform="scale(0.015625)"/>
       </defs>
       <use xlink:href="#DejaVuSans-30"/>
      </g>
     </g>
    </g>
    <g id="xtick_2">
     <g id="line2d_2">
      <g>
       <use xlink:href="#m3c60294c80" x="153.073593" y="320.4" style="stroke: #000000; stroke-width: 0.8"/>
      </g>
     </g>
     <g id="text_2">
      <!-- 2000 -->
      <g transform="translate(140.348593 334.998438) scale(0.1 -0.1)">
       <defs>
        <path id="DejaVuSans-32" d="M 1228 531 
L 3431 531 
L 3431 0 
L 469 0 
L 469 531 
Q 828 903 1448 1529 
Q 2069 2156 2228 2338 
Q 2531 2678 2651 2914 
Q 2772 3150 2772 3378 
Q 2772 3750 2511 3984 
Q 2250 4219 1831 4219 
Q 1534 4219 1204 4116 
Q 875 4013 500 3803 
L 500 4441 
Q 881 4594 1212 4672 
Q 1544 4750 1819 4750 
Q 2544 4750 2975 4387 
Q 3406 4025 3406 3419 
Q 3406 3131 3298 2873 
Q 3191 2616 2906 2266 
Q 2828 2175 2409 1742 
Q 1991 1309 1228 531 
z
" transform="scale(0.015625)"/>
       </defs>
       <use xlink:href="#DejaVuSans-32"/>
       <use xlink:href="#DejaVuSans-30" transform="translate(63.623047 0)"/>
       <use xlink:href="#DejaVuSans-30" transform="translate(127.246094 0)"/>
       <use xlink:href="#DejaVuSans-30" transform="translate(190.869141 0)"/>
      </g>
     </g>
    </g>
    <g id="xtick_3">
     <g id="line2d_3">
      <g>
       <use xlink:href="#m3c60294c80" x="195.010823" y="320.4" style="stroke: #000000; stroke-width: 0.8"/>
      </g>
     </g>
     <g id="text_3">
      <!-- 4000 -->
      <g transform="translate(182.285823 334.998438) scale(0.1 -0.1)">
       <defs>
        <path id="DejaVuSans-34" d="M 2419 4116 
L 825 1625 
L 2419 1625 
L 2419 4116 
z
M 2253 4666 
L 3047 4666 
L 3047 1625 
L 3713 1625 
L 3713 1100 
L 3047 1100 
L 3047 0 
L 2419 0 
L 2419 1100 
L 313 1100 
L 313 1709 
L 2253 4666 
z
" transform="scale(0.015625)"/>
       </defs>
       <use xlink:href="#DejaVuSans-34"/>
       <use xlink:href="#DejaVuSans-30" transform="translate(63.623047 0)"/>
       <use xlink:href="#DejaVuSans-30" transform="translate(127.246094 0)"/>
       <use xlink:href="#DejaVuSans-30" transform="translate(190.869141 0)"/>
      </g>
     </g>
    </g>
    <g id="xtick_4">
     <g id="line2d_4">
      <g>
       <use xlink:href="#m3c60294c80" x="236.948052" y="320.4" style="stroke: #000000; stroke-width: 0.8"/>
      </g>
     </g>
     <g id="text_4">
      <!-- 6000 -->
      <g transform="translate(224.223052 334.998438) scale(0.1 -0.1)">
       <defs>
        <path id="DejaVuSans-36" d="M 2113 2584 
Q 1688 2584 1439 2293 
Q 1191 2003 1191 1497 
Q 1191 994 1439 701 
Q 1688 409 2113 409 
Q 2538 409 2786 701 
Q 3034 994 3034 1497 
Q 3034 2003 2786 2293 
Q 2538 2584 2113 2584 
z
M 3366 4563 
L 3366 3988 
Q 3128 4100 2886 4159 
Q 2644 4219 2406 4219 
Q 1781 4219 1451 3797 
Q 1122 3375 1075 2522 
Q 1259 2794 1537 2939 
Q 1816 3084 2150 3084 
Q 2853 3084 3261 2657 
Q 3669 2231 3669 1497 
Q 3669 778 3244 343 
Q 2819 -91 2113 -91 
Q 1303 -91 875 529 
Q 447 1150 447 2328 
Q 447 3434 972 4092 
Q 1497 4750 2381 4750 
Q 2619 4750 2861 4703 
Q 3103 4656 3366 4563 
z
" transform="scale(0.015625)"/>
       </defs>
       <use xlink:href="#DejaVuSans-36"/>
       <use xlink:href="#DejaVuSans-30" transform="translate(63.623047 0)"/>
       <use xlink:href="#DejaVuSans-30" transform="translate(127.246094 0)"/>
       <use xlink:href="#DejaVuSans-30" transform="translate(190.869141 0)"/>
      </g>
     </g>
    </g>
    <g id="xtick_5">
     <g id="line2d_5">
      <g>
       <use xlink:href="#m3c60294c80" x="278.885281" y="320.4" style="stroke: #000000; stroke-width: 0.8"/>
      </g>
     </g>
     <g id="text_5">
      <!-- 8000 -->
      <g transform="translate(266.160281 334.998438) scale(0.1 -0.1)">
       <defs>
        <path id="DejaVuSans-38" d="M 2034 2216 
Q 1584 2216 1326 1975 
Q 1069 1734 1069 1313 
Q 1069 891 1326 650 
Q 1584 409 2034 409 
Q 2484 409 2743 651 
Q 3003 894 3003 1313 
Q 3003 1734 2745 1975 
Q 2488 2216 2034 2216 
z
M 1403 2484 
Q 997 2584 770 2862 
Q 544 3141 544 3541 
Q 544 4100 942 4425 
Q 1341 4750 2034 4750 
Q 2731 4750 3128 4425 
Q 3525 4100 3525 3541 
Q 3525 3141 3298 2862 
Q 3072 2584 2669 2484 
Q 3125 2378 3379 2068 
Q 3634 1759 3634 1313 
Q 3634 634 3220 271 
Q 2806 -91 2034 -91 
Q 1263 -91 848 271 
Q 434 634 434 1313 
Q 434 1759 690 2068 
Q 947 2378 1403 2484 
z
M 1172 3481 
Q 1172 3119 1398 2916 
Q 1625 2713 2034 2713 
Q 2441 2713 2670 2916 
Q 2900 3119 2900 3481 
Q 2900 3844 2670 4047 
Q 2441 4250 2034 4250 
Q 1625 4250 1398 4047 
Q 1172 3844 1172 3481 
z
" transform="scale(0.015625)"/>
       </defs>
       <use xlink:href="#DejaVuSans-38"/>
       <use xlink:href="#DejaVuSans-30" transform="translate(63.623047 0)"/>
       <use xlink:href="#DejaVuSans-30" transform="translate(127.246094 0)"/>
       <use xlink:href="#DejaVuSans-30" transform="translate(190.869141 0)"/>
      </g>
     </g>
    </g>
    <g id="xtick_6">
     <g id="line2d_6">
      <g>
       <use xlink:href="#m3c60294c80" x="320.822511" y="320.4" style="stroke: #000000; stroke-width: 0.8"/>
      </g>
     </g>
     <g id="text_6">
      <!-- 10000 -->
      <g transform="translate(304.916261 334.998438) scale(0.1 -0.1)">
       <defs>
        <path id="DejaVuSans-31" d="M 794 531 
L 1825 531 
L 1825 4091 
L 703 3866 
L 703 4441 
L 1819 4666 
L 2450 4666 
L 2450 531 
L 3481 531 
L 3481 0 
L 794 0 
L 794 531 
z
" transform="scale(0.015625)"/>
       </defs>
       <use xlink:href="#DejaVuSans-31"/>
       <use xlink:href="#DejaVuSans-30" transform="translate(63.623047 0)"/>
       <use xlink:href="#DejaVuSans-30" transform="translate(127.246094 0)"/>
       <use xlink:href="#DejaVuSans-30" transform="translate(190.869141 0)"/>
       <use xlink:href="#DejaVuSans-30" transform="translate(254.492188 0)"/>
      </g>
     </g>
    </g>
    <g id="text_7">
     <!-- time -->
     <g transform="translate(203.262869 350.19625) scale(0.12 -0.12)">
      <defs>
       <path id="DejaVuSans-74" d="M 1172 4494 
L 1172 3500 
L 2356 3500 
L 2356 3053 
L 1172 3053 
L 1172 1153 
Q 1172 725 1289 603 
Q 1406 481 1766 481 
L 2356 481 
L 2356 0 
L 1766 0 
Q 1100 0 847 248 
Q 594 497 594 1153 
L 594 3053 
L 172 3053 
L 172 3500 
L 594 3500 
L 594 4494 
L 1172 4494 
z
" transform="scale(0.015625)"/>
       <path id="DejaVuSans-69" d="M 603 3500 
L 1178 3500 
L 1178 0 
L 603 0 
L 603 3500 
z
M 603 4863 
L 1178 4863 
L 1178 4134 
L 603 4134 
L 603 4863 
z
" transform="scale(0.015625)"/>
       <path id="DejaVuSans-6d" d="M 3328 2828 
Q 3544 3216 3844 3400 
Q 4144 3584 4550 3584 
Q 5097 3584 5394 3201 
Q 5691 2819 5691 2113 
L 5691 0 
L 5113 0 
L 5113 2094 
Q 5113 2597 4934 2840 
Q 4756 3084 4391 3084 
Q 3944 3084 3684 2787 
Q 3425 2491 3425 1978 
L 3425 0 
L 2847 0 
L 2847 2094 
Q 2847 2600 2669 2842 
Q 2491 3084 2119 3084 
Q 1678 3084 1418 2786 
Q 1159 2488 1159 1978 
L 1159 0 
L 581 0 
L 581 3500 
L 1159 3500 
L 1159 2956 
Q 1356 3278 1631 3431 
Q 1906 3584 2284 3584 
Q 2666 3584 2933 3390 
Q 3200 3197 3328 2828 
z
" transform="scale(0.015625)"/>
       <path id="DejaVuSans-65" d="M 3597 1894 
L 3597 1613 
L 953 1613 
Q 991 1019 1311 708 
Q 1631 397 2203 397 
Q 2534 397 2845 478 
Q 3156 559 3463 722 
L 3463 178 
Q 3153 47 2828 -22 
Q 2503 -91 2169 -91 
Q 1331 -91 842 396 
Q 353 884 353 1716 
Q 353 2575 817 3079 
Q 1281 3584 2069 3584 
Q 2775 3584 3186 3129 
Q 3597 2675 3597 1894 
z
M 3022 2063 
Q 3016 2534 2758 2815 
Q 2500 3097 2075 3097 
Q 1594 3097 1305 2825 
Q 1016 2553 972 2059 
L 3022 2063 
z
" transform="scale(0.015625)"/>
      </defs>
      <use xlink:href="#DejaVuSans-74"/>
      <use xlink:href="#DejaVuSans-69" transform="translate(39.208984 0)"/>
      <use xlink:href="#DejaVuSans-6d" transform="translate(66.992188 0)"/>
      <use xlink:href="#DejaVuSans-65" transform="translate(164.404297 0)"/>
     </g>
    </g>
   </g>
   <g id="matplotlib.axis_2">
    <g id="ytick_1">
     <g id="line2d_7">
      <defs>
       <path id="m854da24ac3" d="M 0 0 
L -3.5 0 
" style="stroke: #000000; stroke-width: 0.8"/>
      </defs>
      <g>
       <use xlink:href="#m854da24ac3" x="90" y="307.8" style="stroke: #000000; stroke-width: 0.8"/>
      </g>
     </g>
     <g id="text_8">
      <!-- 0.0000 -->
      <g transform="translate(48.009375 311.599219) scale(0.1 -0.1)">
       <defs>
        <path id="DejaVuSans-2e" d="M 684 794 
L 1344 794 
L 1344 0 
L 684 0 
L 684 794 
z
" transform="scale(0.015625)"/>
       </defs>
       <use xlink:href="#DejaVuSans-30"/>
       <use xlink:href="#DejaVuSans-2e" transform="translate(63.623047 0)"/>
       <use xlink:href="#DejaVuSans-30" transform="translate(95.410156 0)"/>
       <use xlink:href="#DejaVuSans-30" transform="translate(159.033203 0)"/>
       <use xlink:href="#DejaVuSans-30" transform="translate(222.65625 0)"/>
       <use xlink:href="#DejaVuSans-30" transform="translate(286.279297 0)"/>
      </g>
     </g>
    </g>
    <g id="ytick_2">
     <g id="line2d_8">
      <g>
       <use xlink:href="#m854da24ac3" x="90" y="272.085362" style="stroke: #000000; stroke-width: 0.8"/>
      </g>
     </g>
     <g id="text_9">
      <!-- 0.0001 -->
      <g transform="translate(48.009375 275.884581) scale(0.1 -0.1)">
       <use xlink:href="#DejaVuSans-30"/>
       <use xlink:href="#DejaVuSans-2e" transform="translate(63.623047 0)"/>
       <use xlink:href="#DejaVuSans-30" transform="translate(95.410156 0)"/>
       <use xlink:href="#DejaVuSans-30" transform="translate(159.033203 0)"/>
       <use xlink:href="#DejaVuSans-30" transform="translate(222.65625 0)"/>
       <use xlink:href="#DejaVuSans-31" transform="translate(286.279297 0)"/>
      </g>
     </g>
    </g>
    <g id="ytick_3">
     <g id="line2d_9">
      <g>
       <use xlink:href="#m854da24ac3" x="90" y="236.370724" style="stroke: #000000; stroke-width: 0.8"/>
      </g>
     </g>
     <g id="text_10">
      <!-- 0.0002 -->
      <g transform="translate(48.009375 240.169942) scale(0.1 -0.1)">
       <use xlink:href="#DejaVuSans-30"/>
       <use xlink:href="#DejaVuSans-2e" transform="translate(63.623047 0)"/>
       <use xlink:href="#DejaVuSans-30" transform="translate(95.410156 0)"/>
       <use xlink:href="#DejaVuSans-30" transform="translate(159.033203 0)"/>
       <use xlink:href="#DejaVuSans-30" transform="translate(222.65625 0)"/>
       <use xlink:href="#DejaVuSans-32" transform="translate(286.279297 0)"/>
      </g>
     </g>
    </g>
    <g id="ytick_4">
     <g id="line2d_10">
      <g>
       <use xlink:href="#m854da24ac3" x="90" y="200.656085" style="stroke: #000000; stroke-width: 0.8"/>
      </g>
     </g>
     <g id="text_11">
      <!-- 0.0003 -->
      <g transform="translate(48.009375 204.455304) scale(0.1 -0.1)">
       <defs>
        <path id="DejaVuSans-33" d="M 2597 2516 
Q 3050 2419 3304 2112 
Q 3559 1806 3559 1356 
Q 3559 666 3084 287 
Q 2609 -91 1734 -91 
Q 1441 -91 1130 -33 
Q 819 25 488 141 
L 488 750 
Q 750 597 1062 519 
Q 1375 441 1716 441 
Q 2309 441 2620 675 
Q 2931 909 2931 1356 
Q 2931 1769 2642 2001 
Q 2353 2234 1838 2234 
L 1294 2234 
L 1294 2753 
L 1863 2753 
Q 2328 2753 2575 2939 
Q 2822 3125 2822 3475 
Q 2822 3834 2567 4026 
Q 2313 4219 1838 4219 
Q 1578 4219 1281 4162 
Q 984 4106 628 3988 
L 628 4550 
Q 988 4650 1302 4700 
Q 1616 4750 1894 4750 
Q 2613 4750 3031 4423 
Q 3450 4097 3450 3541 
Q 3450 3153 3228 2886 
Q 3006 2619 2597 2516 
z
" transform="scale(0.015625)"/>
       </defs>
       <use xlink:href="#DejaVuSans-30"/>
       <use xlink:href="#DejaVuSans-2e" transform="translate(63.623047 0)"/>
       <use xlink:href="#DejaVuSans-30" transform="translate(95.410156 0)"/>
       <use xlink:href="#DejaVuSans-30" transform="translate(159.033203 0)"/>
       <use xlink:href="#DejaVuSans-30" transform="translate(222.65625 0)"/>
       <use xlink:href="#DejaVuSans-33" transform="translate(286.279297 0)"/>
      </g>
     </g>
    </g>
    <g id="ytick_5">
     <g id="line2d_11">
      <g>
       <use xlink:href="#m854da24ac3" x="90" y="164.941447" style="stroke: #000000; stroke-width: 0.8"/>
      </g>
     </g>
     <g id="text_12">
      <!-- 0.0004 -->
      <g transform="translate(48.009375 168.740666) scale(0.1 -0.1)">
       <use xlink:href="#DejaVuSans-30"/>
       <use xlink:href="#DejaVuSans-2e" transform="translate(63.623047 0)"/>
       <use xlink:href="#DejaVuSans-30" transform="translate(95.410156 0)"/>
       <use xlink:href="#DejaVuSans-30" transform="translate(159.033203 0)"/>
       <use xlink:href="#DejaVuSans-30" transform="translate(222.65625 0)"/>
       <use xlink:href="#DejaVuSans-34" transform="translate(286.279297 0)"/>
      </g>
     </g>
    </g>
    <g id="ytick_6">
     <g id="line2d_12">
      <g>
       <use xlink:href="#m854da24ac3" x="90" y="129.226809" style="stroke: #000000; stroke-width: 0.8"/>
      </g>
     </g>
     <g id="text_13">
      <!-- 0.0005 -->
      <g transform="translate(48.009375 133.026028) scale(0.1 -0.1)">
       <defs>
        <path id="DejaVuSans-35" d="M 691 4666 
L 3169 4666 
L 3169 4134 
L 1269 4134 
L 1269 2991 
Q 1406 3038 1543 3061 
Q 1681 3084 1819 3084 
Q 2600 3084 3056 2656 
Q 3513 2228 3513 1497 
Q 3513 744 3044 326 
Q 2575 -91 1722 -91 
Q 1428 -91 1123 -41 
Q 819 9 494 109 
L 494 744 
Q 775 591 1075 516 
Q 1375 441 1709 441 
Q 2250 441 2565 725 
Q 2881 1009 2881 1497 
Q 2881 1984 2565 2268 
Q 2250 2553 1709 2553 
Q 1456 2553 1204 2497 
Q 953 2441 691 2322 
L 691 4666 
z
" transform="scale(0.015625)"/>
       </defs>
       <use xlink:href="#DejaVuSans-30"/>
       <use xlink:href="#DejaVuSans-2e" transform="translate(63.623047 0)"/>
       <use xlink:href="#DejaVuSans-30" transform="translate(95.410156 0)"/>
       <use xlink:href="#DejaVuSans-30" transform="translate(159.033203 0)"/>
       <use xlink:href="#DejaVuSans-30" transform="translate(222.65625 0)"/>
       <use xlink:href="#DejaVuSans-35" transform="translate(286.279297 0)"/>
      </g>
     </g>
    </g>
    <g id="ytick_7">
     <g id="line2d_13">
      <g>
       <use xlink:href="#m854da24ac3" x="90" y="93.512171" style="stroke: #000000; stroke-width: 0.8"/>
      </g>
     </g>
     <g id="text_14">
      <!-- 0.0006 -->
      <g transform="translate(48.009375 97.311389) scale(0.1 -0.1)">
       <use xlink:href="#DejaVuSans-30"/>
       <use xlink:href="#DejaVuSans-2e" transform="translate(63.623047 0)"/>
       <use xlink:href="#DejaVuSans-30" transform="translate(95.410156 0)"/>
       <use xlink:href="#DejaVuSans-30" transform="translate(159.033203 0)"/>
       <use xlink:href="#DejaVuSans-30" transform="translate(222.65625 0)"/>
       <use xlink:href="#DejaVuSans-36" transform="translate(286.279297 0)"/>
      </g>
     </g>
    </g>
    <g id="ytick_8">
     <g id="line2d_14">
      <g>
       <use xlink:href="#m854da24ac3" x="90" y="57.797533" style="stroke: #000000; stroke-width: 0.8"/>
      </g>
     </g>
     <g id="text_15">
      <!-- 0.0007 -->
      <g transform="translate(48.009375 61.596751) scale(0.1 -0.1)">
       <defs>
        <path id="DejaVuSans-37" d="M 525 4666 
L 3525 4666 
L 3525 4397 
L 1831 0 
L 1172 0 
L 2766 4134 
L 525 4134 
L 525 4666 
z
" transform="scale(0.015625)"/>
       </defs>
       <use xlink:href="#DejaVuSans-30"/>
       <use xlink:href="#DejaVuSans-2e" transform="translate(63.623047 0)"/>
       <use xlink:href="#DejaVuSans-30" transform="translate(95.410156 0)"/>
       <use xlink:href="#DejaVuSans-30" transform="translate(159.033203 0)"/>
       <use xlink:href="#DejaVuSans-30" transform="translate(222.65625 0)"/>
       <use xlink:href="#DejaVuSans-37" transform="translate(286.279297 0)"/>
      </g>
     </g>
    </g>
    <g id="text_16">
     <!-- [Cve_api] -->
     <g transform="translate(41.18 210.0675) rotate(-90) scale(0.12 -0.12)">
      <defs>
       <path id="DejaVuSans-5b" d="M 550 4863 
L 1875 4863 
L 1875 4416 
L 1125 4416 
L 1125 -397 
L 1875 -397 
L 1875 -844 
L 550 -844 
L 550 4863 
z
" transform="scale(0.015625)"/>
       <path id="DejaVuSans-43" d="M 4122 4306 
L 4122 3641 
Q 3803 3938 3442 4084 
Q 3081 4231 2675 4231 
Q 1875 4231 1450 3742 
Q 1025 3253 1025 2328 
Q 1025 1406 1450 917 
Q 1875 428 2675 428 
Q 3081 428 3442 575 
Q 3803 722 4122 1019 
L 4122 359 
Q 3791 134 3420 21 
Q 3050 -91 2638 -91 
Q 1578 -91 968 557 
Q 359 1206 359 2328 
Q 359 3453 968 4101 
Q 1578 4750 2638 4750 
Q 3056 4750 3426 4639 
Q 3797 4528 4122 4306 
z
" transform="scale(0.015625)"/>
       <path id="DejaVuSans-76" d="M 191 3500 
L 800 3500 
L 1894 563 
L 2988 3500 
L 3597 3500 
L 2284 0 
L 1503 0 
L 191 3500 
z
" transform="scale(0.015625)"/>
       <path id="DejaVuSans-5f" d="M 3263 -1063 
L 3263 -1509 
L -63 -1509 
L -63 -1063 
L 3263 -1063 
z
" transform="scale(0.015625)"/>
       <path id="DejaVuSans-61" d="M 2194 1759 
Q 1497 1759 1228 1600 
Q 959 1441 959 1056 
Q 959 750 1161 570 
Q 1363 391 1709 391 
Q 2188 391 2477 730 
Q 2766 1069 2766 1631 
L 2766 1759 
L 2194 1759 
z
M 3341 1997 
L 3341 0 
L 2766 0 
L 2766 531 
Q 2569 213 2275 61 
Q 1981 -91 1556 -91 
Q 1019 -91 701 211 
Q 384 513 384 1019 
Q 384 1609 779 1909 
Q 1175 2209 1959 2209 
L 2766 2209 
L 2766 2266 
Q 2766 2663 2505 2880 
Q 2244 3097 1772 3097 
Q 1472 3097 1187 3025 
Q 903 2953 641 2809 
L 641 3341 
Q 956 3463 1253 3523 
Q 1550 3584 1831 3584 
Q 2591 3584 2966 3190 
Q 3341 2797 3341 1997 
z
" transform="scale(0.015625)"/>
       <path id="DejaVuSans-70" d="M 1159 525 
L 1159 -1331 
L 581 -1331 
L 581 3500 
L 1159 3500 
L 1159 2969 
Q 1341 3281 1617 3432 
Q 1894 3584 2278 3584 
Q 2916 3584 3314 3078 
Q 3713 2572 3713 1747 
Q 3713 922 3314 415 
Q 2916 -91 2278 -91 
Q 1894 -91 1617 61 
Q 1341 213 1159 525 
z
M 3116 1747 
Q 3116 2381 2855 2742 
Q 2594 3103 2138 3103 
Q 1681 3103 1420 2742 
Q 1159 2381 1159 1747 
Q 1159 1113 1420 752 
Q 1681 391 2138 391 
Q 2594 391 2855 752 
Q 3116 1113 3116 1747 
z
" transform="scale(0.015625)"/>
       <path id="DejaVuSans-5d" d="M 1947 4863 
L 1947 -844 
L 622 -844 
L 622 -397 
L 1369 -397 
L 1369 4416 
L 622 4416 
L 622 4863 
L 1947 4863 
z
" transform="scale(0.015625)"/>
      </defs>
      <use xlink:href="#DejaVuSans-5b"/>
      <use xlink:href="#DejaVuSans-43" transform="translate(39.013672 0)"/>
      <use xlink:href="#DejaVuSans-76" transform="translate(108.837891 0)"/>
      <use xlink:href="#DejaVuSans-65" transform="translate(168.017578 0)"/>
      <use xlink:href="#DejaVuSans-5f" transform="translate(229.541016 0)"/>
      <use xlink:href="#DejaVuSans-61" transform="translate(279.541016 0)"/>
      <use xlink:href="#DejaVuSans-70" transform="translate(340.820312 0)"/>
      <use xlink:href="#DejaVuSans-69" transform="translate(404.296875 0)"/>
      <use xlink:href="#DejaVuSans-5d" transform="translate(432.080078 0)"/>
     </g>
    </g>
   </g>
   <g id="line2d_15">
    <defs>
     <path id="me98de0d129" d="M -5 5 
L 5 5 
L 5 -5 
L -5 -5 
z
" style="stroke: #000000; stroke-linejoin: miter"/>
    </defs>
    <g clip-path="url(#p582ec6b7f5)">
     <use xlink:href="#me98de0d129" x="111.136364" y="307.8" style="stroke: #000000; stroke-linejoin: miter"/>
     <use xlink:href="#me98de0d129" x="112.394481" y="223.522781" style="stroke: #000000; stroke-linejoin: miter"/>
     <use xlink:href="#me98de0d129" x="113.652597" y="147.670952" style="stroke: #000000; stroke-linejoin: miter"/>
     <use xlink:href="#me98de0d129" x="114.910714" y="139.237789" style="stroke: #000000; stroke-linejoin: miter"/>
     <use xlink:href="#me98de0d129" x="116.168831" y="126.599704" style="stroke: #000000; stroke-linejoin: miter"/>
     <use xlink:href="#me98de0d129" x="118.685065" y="177.16759" style="stroke: #000000; stroke-linejoin: miter"/>
     <use xlink:href="#me98de0d129" x="122.459416" y="227.735476" style="stroke: #000000; stroke-linejoin: miter"/>
     <use xlink:href="#me98de0d129" x="126.233766" y="248.806724" style="stroke: #000000; stroke-linejoin: miter"/>
     <use xlink:href="#me98de0d129" x="127.491883" y="189.805675" style="stroke: #000000; stroke-linejoin: miter"/>
     <use xlink:href="#me98de0d129" x="128.75" y="156.096342" style="stroke: #000000; stroke-linejoin: miter"/>
     <use xlink:href="#me98de0d129" x="130.008117" y="151.883647" style="stroke: #000000; stroke-linejoin: miter"/>
     <use xlink:href="#me98de0d129" x="131.266234" y="168.734427" style="stroke: #000000; stroke-linejoin: miter"/>
     <use xlink:href="#me98de0d129" x="133.782468" y="198.238838" style="stroke: #000000; stroke-linejoin: miter"/>
     <use xlink:href="#me98de0d129" x="137.556818" y="227.735476" style="stroke: #000000; stroke-linejoin: miter"/>
     <use xlink:href="#me98de0d129" x="141.331169" y="244.586256" style="stroke: #000000; stroke-linejoin: miter"/>
     <use xlink:href="#me98de0d129" x="292.305195" y="212.213793" style="stroke: #000000; stroke-linejoin: miter"/>
     <use xlink:href="#me98de0d129" x="293.563312" y="160.075862" style="stroke: #000000; stroke-linejoin: miter"/>
     <use xlink:href="#me98de0d129" x="294.821429" y="68.834483" style="stroke: #000000; stroke-linejoin: miter"/>
     <use xlink:href="#me98de0d129" x="296.079545" y="55.8" style="stroke: #000000; stroke-linejoin: miter"/>
     <use xlink:href="#me98de0d129" x="297.337662" y="60.144828" style="stroke: #000000; stroke-linejoin: miter"/>
     <use xlink:href="#me98de0d129" x="299.853896" y="107.937931" style="stroke: #000000; stroke-linejoin: miter"/>
     <use xlink:href="#me98de0d129" x="303.628247" y="186.144828" style="stroke: #000000; stroke-linejoin: miter"/>
     <use xlink:href="#me98de0d129" x="307.402597" y="216.558621" style="stroke: #000000; stroke-linejoin: miter"/>
     <use xlink:href="#me98de0d129" x="308.660714" y="147.041379" style="stroke: #000000; stroke-linejoin: miter"/>
     <use xlink:href="#me98de0d129" x="309.918831" y="112.282759" style="stroke: #000000; stroke-linejoin: miter"/>
     <use xlink:href="#me98de0d129" x="311.176948" y="125.317241" style="stroke: #000000; stroke-linejoin: miter"/>
     <use xlink:href="#me98de0d129" x="312.435065" y="142.696552" style="stroke: #000000; stroke-linejoin: miter"/>
     <use xlink:href="#me98de0d129" x="314.951299" y="186.144828" style="stroke: #000000; stroke-linejoin: miter"/>
     <use xlink:href="#me98de0d129" x="318.725649" y="220.903448" style="stroke: #000000; stroke-linejoin: miter"/>
     <use xlink:href="#me98de0d129" x="322.5" y="229.593103" style="stroke: #000000; stroke-linejoin: miter"/>
    </g>
   </g>
   <g id="line2d_16">
    <path d="M 111.136364 307.8 
L 111.14191 307.696468 
L 111.220753 296.894713 
L 111.710128 244.381185 
L 112.151744 215.689313 
L 112.638768 197.055015 
L 113.110739 187.294407 
L 113.5072 183.146689 
L 113.903662 181.434804 
L 114.101892 181.23274 
L 114.300123 181.362823 
L 114.696584 182.385377 
L 115.291276 185.189712 
L 116.192025 190.904745 
L 120.341857 219.040464 
L 122.442431 231.049178 
L 124.558186 241.536445 
L 126.233766 248.810346 
L 126.235635 250.611996 
L 126.335619 238.985999 
L 126.796843 196.217368 
L 127.291661 169.434224 
L 127.693893 157.029325 
L 128.119161 149.850236 
L 128.44387 147.180634 
L 128.768579 146.212309 
L 128.930934 146.212481 
L 129.093289 146.470855 
L 129.417998 147.608513 
L 129.905062 150.425388 
L 130.719013 156.794639 
L 135.876525 200.697998 
L 137.724165 213.595561 
L 139.387154 223.890368 
L 141.331169 234.492469 
L 141.333034 235.986583 
L 141.441817 223.468288 
L 141.8917 182.473241 
L 142.334255 158.251108 
L 142.808536 143.691364 
L 143.13668 138.20967 
L 143.464823 135.310988 
L 143.792967 134.277352 
L 143.957039 134.289475 
L 144.12111 134.582913 
L 144.285182 135.113859 
L 144.799523 137.933499 
L 145.571036 144.142367 
L 147.628401 163.9236 
L 149.581472 181.881094 
L 151.550736 197.941205 
L 153.535712 212.108044 
L 155.331616 223.362115 
L 156.428571 229.538174 
L 156.430481 231.980886 
L 156.531093 220.405913 
L 157.00199 177.58297 
L 157.469172 152.799114 
L 157.871771 140.578866 
L 158.348961 133.168988 
L 158.667087 131.101536 
L 158.82615 130.690376 
L 158.985214 130.61323 
L 159.144277 130.820189 
L 159.30334 131.268419 
L 159.788363 133.769098 
L 160.404535 138.531875 
L 161.592889 149.829683 
L 164.527219 178.071627 
L 166.361175 193.544559 
L 168.401575 208.659384 
L 170.075184 219.569894 
L 171.525974 228.028762 
L 171.52791 229.536294 
L 171.631464 217.668321 
L 172.101251 175.271978 
L 172.578795 150.296224 
L 173.051855 136.923192 
L 173.502027 130.855001 
L 173.802142 129.209422 
L 173.952199 128.916167 
L 174.185905 129.017215 
L 174.41961 129.669295 
L 174.887021 132.173485 
L 175.588137 137.767715 
L 177.224075 153.811839 
L 179.565291 176.39707 
L 181.323282 191.456409 
L 183.343701 206.705707 
L 185.012522 217.800711 
L 186.625331 227.817119 
L 186.636803 227.108147 
L 187.303052 167.09464 
L 187.771172 145.555265 
L 188.211429 134.542024 
L 188.651687 129.299951 
L 188.945192 127.972958 
L 189.091944 127.790874 
L 189.447415 128.368355 
L 189.855751 130.336861 
L 190.468257 134.906716 
L 191.640376 146.067431 
L 194.433843 173.585894 
L 196.168639 188.763293 
L 197.903434 202.284377 
L 199.878054 215.841242 
L 201.722732 227.935741 
L 201.737156 226.898708 
L 202.292612 174.053883 
L 202.75371 149.703188 
L 203.222937 136.101589 
L 203.677724 129.778146 
L 203.980915 128.05618 
L 204.132511 127.743687 
L 204.284107 127.728644 
L 204.573675 128.37735 
L 204.974498 130.376196 
L 205.575734 134.899914 
L 206.535844 143.952001 
L 209.76572 175.663466 
L 211.560096 191.103492 
L 213.049355 202.581564 
L 214.744929 214.300075 
L 216.820134 227.945269 
L 216.833576 227.019564 
L 217.402555 173.199976 
L 217.885639 148.373981 
L 218.367006 135.185644 
L 218.828017 129.348364 
L 219.135357 127.890928 
L 219.289028 127.694896 
L 219.522054 127.932911 
L 219.755081 128.693363 
L 220.221134 131.351383 
L 220.920213 137.076806 
L 222.551399 153.232151 
L 224.901545 176.004654 
L 226.674095 191.230534 
L 228.152535 202.617183 
L 229.838429 214.268751 
L 231.917536 228.030608 
L 231.931959 226.993262 
L 232.470124 175.319059 
L 232.890649 152.112824 
L 233.378633 136.960064 
L 233.785882 130.62949 
L 234.095533 128.392049 
L 234.405185 127.733007 
L 234.560011 127.857916 
L 234.714836 128.227426 
L 234.99467 129.402469 
L 235.682282 134.180882 
L 236.699223 143.662146 
L 240.301622 178.755082 
L 242.135278 194.161272 
L 243.663346 205.620255 
L 245.405351 217.297191 
L 247.012987 226.877582 
L 247.014903 231.248448 
L 247.123895 218.63289 
L 247.599262 175.687298 
L 248.089836 150.269037 
L 248.48321 138.791611 
L 248.914267 132.138839 
L 249.210813 130.045254 
L 249.399596 129.485543 
L 249.588378 129.404833 
L 249.77716 129.719614 
L 250.154725 131.266522 
L 250.721072 135.138911 
L 251.607996 143.1296 
L 255.616665 181.67533 
L 257.460549 196.818915 
L 259.304434 210.182303 
L 261.190751 222.206862 
L 262.11039 227.504464 
L 262.112316 230.315874 
L 262.215583 218.429102 
L 262.64618 178.582021 
L 263.12252 152.307899 
L 263.519469 139.765518 
L 263.908876 132.929595 
L 264.298283 129.77827 
L 264.428085 129.330068 
L 264.624737 129.100681 
L 264.9415 129.65042 
L 265.390678 131.833103 
L 266.064444 136.975193 
L 267.411976 149.951856 
L 270.126881 176.303583 
L 272.004893 192.338223 
L 274.073905 207.812413 
L 276.142917 221.236087 
L 277.207792 227.398867 
L 277.209732 229.169773 
L 277.313756 217.240234 
L 277.764691 176.150824 
L 278.218076 151.572127 
L 278.671461 137.800045 
L 279.038658 131.868584 
L 279.315179 129.54466 
L 279.5917 128.574936 
L 279.72996 128.491755 
L 279.941201 128.782432 
L 280.347514 130.443341 
L 281.036776 135.377261 
L 282.185546 146.22187 
L 285.174471 175.464167 
L 286.899396 190.357324 
L 288.557586 203.143486 
L 290.215776 214.556619 
L 292.307148 227.886494 
L 292.317643 227.27877 
L 293.030056 164.456216 
L 293.430946 146.310885 
L 293.89619 134.482053 
L 294.18909 130.511935 
L 294.542267 128.19584 
L 294.718856 127.806426 
L 294.895445 127.819605 
L 295.072034 128.168949 
L 295.425212 129.660433 
L 295.954979 133.272919 
L 296.926588 142.09758 
L 300.822612 179.956292 
L 302.895092 197.077922 
L 304.356476 207.783676 
L 306.253654 220.168914 
L 307.404554 227.576765 
L 307.41902 226.536025 
L 307.991232 172.628416 
L 308.426546 149.80968 
L 308.90045 135.96935 
L 309.255878 130.566908 
L 309.631923 127.968889 
L 309.819945 127.5521 
L 310.007968 127.590067 
L 310.19599 128.003235 
L 310.572035 129.700632 
L 311.136103 133.721022 
L 312.076215 142.399187 
L 315.897825 179.597062 
L 317.742206 194.991708 
L 319.586586 208.578117 
L 321.452281 220.675009 
L 323.55918 232.585016 
L 325.66608 242.876312 
L 327.772979 251.766247 
L 329.879878 259.443786 
L 331.986778 266.072928 
L 334.093677 271.795863 
L 336.200577 276.735763 
L 338.307476 280.999252 
L 340.414375 284.678578 
L 342.521275 287.853509 
L 343.925874 289.72436 
L 343.925874 289.72436 
" clip-path="url(#p582ec6b7f5)" style="fill: none; stroke: #0000ff; stroke-width: 1.5; stroke-linecap: square"/>
   </g>
   <g id="patch_3">
    <path d="M 90 320.4 
L 90 43.2 
" style="fill: none; stroke: #000000; stroke-width: 0.8; stroke-linejoin: miter; stroke-linecap: square"/>
   </g>
   <g id="patch_4">
    <path d="M 343.636364 320.4 
L 343.636364 43.2 
" style="fill: none; stroke: #000000; stroke-width: 0.8; stroke-linejoin: miter; stroke-linecap: square"/>
   </g>
   <g id="patch_5">
    <path d="M 90 320.4 
L 343.636364 320.4 
" style="fill: none; stroke: #000000; stroke-width: 0.8; stroke-linejoin: miter; stroke-linecap: square"/>
   </g>
   <g id="patch_6">
    <path d="M 90 43.2 
L 343.636364 43.2 
" style="fill: none; stroke: #000000; stroke-width: 0.8; stroke-linejoin: miter; stroke-linecap: square"/>
   </g>
   <g id="text_17">
    <!-- Frost2013a fm_apixaban_API10x2 -->
    <g transform="translate(98.433963 37.2) scale(0.14 -0.14)">
     <defs>
      <path id="DejaVuSans-46" d="M 628 4666 
L 3309 4666 
L 3309 4134 
L 1259 4134 
L 1259 2759 
L 3109 2759 
L 3109 2228 
L 1259 2228 
L 1259 0 
L 628 0 
L 628 4666 
z
" transform="scale(0.015625)"/>
      <path id="DejaVuSans-72" d="M 2631 2963 
Q 2534 3019 2420 3045 
Q 2306 3072 2169 3072 
Q 1681 3072 1420 2755 
Q 1159 2438 1159 1844 
L 1159 0 
L 581 0 
L 581 3500 
L 1159 3500 
L 1159 2956 
Q 1341 3275 1631 3429 
Q 1922 3584 2338 3584 
Q 2397 3584 2469 3576 
Q 2541 3569 2628 3553 
L 2631 2963 
z
" transform="scale(0.015625)"/>
      <path id="DejaVuSans-6f" d="M 1959 3097 
Q 1497 3097 1228 2736 
Q 959 2375 959 1747 
Q 959 1119 1226 758 
Q 1494 397 1959 397 
Q 2419 397 2687 759 
Q 2956 1122 2956 1747 
Q 2956 2369 2687 2733 
Q 2419 3097 1959 3097 
z
M 1959 3584 
Q 2709 3584 3137 3096 
Q 3566 2609 3566 1747 
Q 3566 888 3137 398 
Q 2709 -91 1959 -91 
Q 1206 -91 779 398 
Q 353 888 353 1747 
Q 353 2609 779 3096 
Q 1206 3584 1959 3584 
z
" transform="scale(0.015625)"/>
      <path id="DejaVuSans-73" d="M 2834 3397 
L 2834 2853 
Q 2591 2978 2328 3040 
Q 2066 3103 1784 3103 
Q 1356 3103 1142 2972 
Q 928 2841 928 2578 
Q 928 2378 1081 2264 
Q 1234 2150 1697 2047 
L 1894 2003 
Q 2506 1872 2764 1633 
Q 3022 1394 3022 966 
Q 3022 478 2636 193 
Q 2250 -91 1575 -91 
Q 1294 -91 989 -36 
Q 684 19 347 128 
L 347 722 
Q 666 556 975 473 
Q 1284 391 1588 391 
Q 1994 391 2212 530 
Q 2431 669 2431 922 
Q 2431 1156 2273 1281 
Q 2116 1406 1581 1522 
L 1381 1569 
Q 847 1681 609 1914 
Q 372 2147 372 2553 
Q 372 3047 722 3315 
Q 1072 3584 1716 3584 
Q 2034 3584 2315 3537 
Q 2597 3491 2834 3397 
z
" transform="scale(0.015625)"/>
      <path id="DejaVuSans-20" transform="scale(0.015625)"/>
      <path id="DejaVuSans-66" d="M 2375 4863 
L 2375 4384 
L 1825 4384 
Q 1516 4384 1395 4259 
Q 1275 4134 1275 3809 
L 1275 3500 
L 2222 3500 
L 2222 3053 
L 1275 3053 
L 1275 0 
L 697 0 
L 697 3053 
L 147 3053 
L 147 3500 
L 697 3500 
L 697 3744 
Q 697 4328 969 4595 
Q 1241 4863 1831 4863 
L 2375 4863 
z
" transform="scale(0.015625)"/>
      <path id="DejaVuSans-78" d="M 3513 3500 
L 2247 1797 
L 3578 0 
L 2900 0 
L 1881 1375 
L 863 0 
L 184 0 
L 1544 1831 
L 300 3500 
L 978 3500 
L 1906 2253 
L 2834 3500 
L 3513 3500 
z
" transform="scale(0.015625)"/>
      <path id="DejaVuSans-62" d="M 3116 1747 
Q 3116 2381 2855 2742 
Q 2594 3103 2138 3103 
Q 1681 3103 1420 2742 
Q 1159 2381 1159 1747 
Q 1159 1113 1420 752 
Q 1681 391 2138 391 
Q 2594 391 2855 752 
Q 3116 1113 3116 1747 
z
M 1159 2969 
Q 1341 3281 1617 3432 
Q 1894 3584 2278 3584 
Q 2916 3584 3314 3078 
Q 3713 2572 3713 1747 
Q 3713 922 3314 415 
Q 2916 -91 2278 -91 
Q 1894 -91 1617 61 
Q 1341 213 1159 525 
L 1159 0 
L 581 0 
L 581 4863 
L 1159 4863 
L 1159 2969 
z
" transform="scale(0.015625)"/>
      <path id="DejaVuSans-6e" d="M 3513 2113 
L 3513 0 
L 2938 0 
L 2938 2094 
Q 2938 2591 2744 2837 
Q 2550 3084 2163 3084 
Q 1697 3084 1428 2787 
Q 1159 2491 1159 1978 
L 1159 0 
L 581 0 
L 581 3500 
L 1159 3500 
L 1159 2956 
Q 1366 3272 1645 3428 
Q 1925 3584 2291 3584 
Q 2894 3584 3203 3211 
Q 3513 2838 3513 2113 
z
" transform="scale(0.015625)"/>
      <path id="DejaVuSans-41" d="M 2188 4044 
L 1331 1722 
L 3047 1722 
L 2188 4044 
z
M 1831 4666 
L 2547 4666 
L 4325 0 
L 3669 0 
L 3244 1197 
L 1141 1197 
L 716 0 
L 50 0 
L 1831 4666 
z
" transform="scale(0.015625)"/>
      <path id="DejaVuSans-50" d="M 1259 4147 
L 1259 2394 
L 2053 2394 
Q 2494 2394 2734 2622 
Q 2975 2850 2975 3272 
Q 2975 3691 2734 3919 
Q 2494 4147 2053 4147 
L 1259 4147 
z
M 628 4666 
L 2053 4666 
Q 2838 4666 3239 4311 
Q 3641 3956 3641 3272 
Q 3641 2581 3239 2228 
Q 2838 1875 2053 1875 
L 1259 1875 
L 1259 0 
L 628 0 
L 628 4666 
z
" transform="scale(0.015625)"/>
      <path id="DejaVuSans-49" d="M 628 4666 
L 1259 4666 
L 1259 0 
L 628 0 
L 628 4666 
z
" transform="scale(0.015625)"/>
     </defs>
     <use xlink:href="#DejaVuSans-46"/>
     <use xlink:href="#DejaVuSans-72" transform="translate(50.269531 0)"/>
     <use xlink:href="#DejaVuSans-6f" transform="translate(89.132812 0)"/>
     <use xlink:href="#DejaVuSans-73" transform="translate(150.314453 0)"/>
     <use xlink:href="#DejaVuSans-74" transform="translate(202.414062 0)"/>
     <use xlink:href="#DejaVuSans-32" transform="translate(241.623047 0)"/>
     <use xlink:href="#DejaVuSans-30" transform="translate(305.246094 0)"/>
     <use xlink:href="#DejaVuSans-31" transform="translate(368.869141 0)"/>
     <use xlink:href="#DejaVuSans-33" transform="translate(432.492188 0)"/>
     <use xlink:href="#DejaVuSans-61" transform="translate(496.115234 0)"/>
     <use xlink:href="#DejaVuSans-20" transform="translate(557.394531 0)"/>
     <use xlink:href="#DejaVuSans-66" transform="translate(589.181641 0)"/>
     <use xlink:href="#DejaVuSans-6d" transform="translate(624.386719 0)"/>
     <use xlink:href="#DejaVuSans-5f" transform="translate(721.798828 0)"/>
     <use xlink:href="#DejaVuSans-61" transform="translate(771.798828 0)"/>
     <use xlink:href="#DejaVuSans-70" transform="translate(833.078125 0)"/>
     <use xlink:href="#DejaVuSans-69" transform="translate(896.554688 0)"/>
     <use xlink:href="#DejaVuSans-78" transform="translate(924.337891 0)"/>
     <use xlink:href="#DejaVuSans-61" transform="translate(983.517578 0)"/>
     <use xlink:href="#DejaVuSans-62" transform="translate(1044.796875 0)"/>
     <use xlink:href="#DejaVuSans-61" transform="translate(1108.273438 0)"/>
     <use xlink:href="#DejaVuSans-6e" transform="translate(1169.552734 0)"/>
     <use xlink:href="#DejaVuSans-5f" transform="translate(1232.931641 0)"/>
     <use xlink:href="#DejaVuSans-41" transform="translate(1282.931641 0)"/>
     <use xlink:href="#DejaVuSans-50" transform="translate(1351.339844 0)"/>
     <use xlink:href="#DejaVuSans-49" transform="translate(1411.642578 0)"/>
     <use xlink:href="#DejaVuSans-31" transform="translate(1441.134766 0)"/>
     <use xlink:href="#DejaVuSans-30" transform="translate(1504.757812 0)"/>
     <use xlink:href="#DejaVuSans-78" transform="translate(1568.380859 0)"/>
     <use xlink:href="#DejaVuSans-32" transform="translate(1627.560547 0)"/>
    </g>
   </g>
   <g id="legend_1">
    <g id="patch_7">
     <path d="M 97 80.834375 
L 204.265625 80.834375 
Q 206.265625 80.834375 206.265625 78.834375 
L 206.265625 50.2 
Q 206.265625 48.2 204.265625 48.2 
L 97 48.2 
Q 95 48.2 95 50.2 
L 95 78.834375 
Q 95 80.834375 97 80.834375 
z
" style="fill: #ffffff; opacity: 0.8; stroke: #cccccc; stroke-linejoin: miter"/>
    </g>
    <g id="line2d_17">
     <g>
      <use xlink:href="#me98de0d129" x="109" y="56.298437" style="stroke: #000000; stroke-linejoin: miter"/>
     </g>
    </g>
    <g id="text_18">
     <!-- reference_data -->
     <g transform="translate(127 59.798437) scale(0.1 -0.1)">
      <defs>
       <path id="DejaVuSans-63" d="M 3122 3366 
L 3122 2828 
Q 2878 2963 2633 3030 
Q 2388 3097 2138 3097 
Q 1578 3097 1268 2742 
Q 959 2388 959 1747 
Q 959 1106 1268 751 
Q 1578 397 2138 397 
Q 2388 397 2633 464 
Q 2878 531 3122 666 
L 3122 134 
Q 2881 22 2623 -34 
Q 2366 -91 2075 -91 
Q 1284 -91 818 406 
Q 353 903 353 1747 
Q 353 2603 823 3093 
Q 1294 3584 2113 3584 
Q 2378 3584 2631 3529 
Q 2884 3475 3122 3366 
z
" transform="scale(0.015625)"/>
       <path id="DejaVuSans-64" d="M 2906 2969 
L 2906 4863 
L 3481 4863 
L 3481 0 
L 2906 0 
L 2906 525 
Q 2725 213 2448 61 
Q 2172 -91 1784 -91 
Q 1150 -91 751 415 
Q 353 922 353 1747 
Q 353 2572 751 3078 
Q 1150 3584 1784 3584 
Q 2172 3584 2448 3432 
Q 2725 3281 2906 2969 
z
M 947 1747 
Q 947 1113 1208 752 
Q 1469 391 1925 391 
Q 2381 391 2643 752 
Q 2906 1113 2906 1747 
Q 2906 2381 2643 2742 
Q 2381 3103 1925 3103 
Q 1469 3103 1208 2742 
Q 947 2381 947 1747 
z
" transform="scale(0.015625)"/>
      </defs>
      <use xlink:href="#DejaVuSans-72"/>
      <use xlink:href="#DejaVuSans-65" transform="translate(38.863281 0)"/>
      <use xlink:href="#DejaVuSans-66" transform="translate(100.386719 0)"/>
      <use xlink:href="#DejaVuSans-65" transform="translate(135.591797 0)"/>
      <use xlink:href="#DejaVuSans-72" transform="translate(197.115234 0)"/>
      <use xlink:href="#DejaVuSans-65" transform="translate(235.978516 0)"/>
      <use xlink:href="#DejaVuSans-6e" transform="translate(297.501953 0)"/>
      <use xlink:href="#DejaVuSans-63" transform="translate(360.880859 0)"/>
      <use xlink:href="#DejaVuSans-65" transform="translate(415.861328 0)"/>
      <use xlink:href="#DejaVuSans-5f" transform="translate(477.384766 0)"/>
      <use xlink:href="#DejaVuSans-64" transform="translate(527.384766 0)"/>
      <use xlink:href="#DejaVuSans-61" transform="translate(590.861328 0)"/>
      <use xlink:href="#DejaVuSans-74" transform="translate(652.140625 0)"/>
      <use xlink:href="#DejaVuSans-61" transform="translate(691.349609 0)"/>
     </g>
    </g>
    <g id="line2d_18">
     <path d="M 99 71.254687 
L 109 71.254687 
L 119 71.254687 
" style="fill: none; stroke: #0000ff; stroke-width: 1.5; stroke-linecap: square"/>
    </g>
    <g id="text_19">
     <!-- observable -->
     <g transform="translate(127 74.754687) scale(0.1 -0.1)">
      <defs>
       <path id="DejaVuSans-6c" d="M 603 4863 
L 1178 4863 
L 1178 0 
L 603 0 
L 603 4863 
z
" transform="scale(0.015625)"/>
      </defs>
      <use xlink:href="#DejaVuSans-6f"/>
      <use xlink:href="#DejaVuSans-62" transform="translate(61.181641 0)"/>
      <use xlink:href="#DejaVuSans-73" transform="translate(124.658203 0)"/>
      <use xlink:href="#DejaVuSans-65" transform="translate(176.757812 0)"/>
      <use xlink:href="#DejaVuSans-72" transform="translate(238.28125 0)"/>
      <use xlink:href="#DejaVuSans-76" transform="translate(279.394531 0)"/>
      <use xlink:href="#DejaVuSans-61" transform="translate(338.574219 0)"/>
      <use xlink:href="#DejaVuSans-62" transform="translate(399.853516 0)"/>
      <use xlink:href="#DejaVuSans-6c" transform="translate(463.330078 0)"/>
      <use xlink:href="#DejaVuSans-65" transform="translate(491.113281 0)"/>
     </g>
    </g>
   </g>
  </g>
  <g id="axes_2">
   <g id="patch_8">
    <path d="M 394.363636 320.4 
L 648 320.4 
L 648 43.2 
L 394.363636 43.2 
z
" style="fill: #ffffff"/>
   </g>
   <g id="matplotlib.axis_3">
    <g id="xtick_7">
     <g id="line2d_19">
      <g>
       <use xlink:href="#m3c60294c80" x="415.5" y="320.4" style="stroke: #000000; stroke-width: 0.8"/>
      </g>
     </g>
     <g id="text_20">
      <!-- 0 -->
      <g transform="translate(412.31875 334.998438) scale(0.1 -0.1)">
       <use xlink:href="#DejaVuSans-30"/>
      </g>
     </g>
    </g>
    <g id="xtick_8">
     <g id="line2d_20">
      <g>
       <use xlink:href="#m3c60294c80" x="457.437229" y="320.4" style="stroke: #000000; stroke-width: 0.8"/>
      </g>
     </g>
     <g id="text_21">
      <!-- 2000 -->
      <g transform="translate(444.712229 334.998438) scale(0.1 -0.1)">
       <use xlink:href="#DejaVuSans-32"/>
       <use xlink:href="#DejaVuSans-30" transform="translate(63.623047 0)"/>
       <use xlink:href="#DejaVuSans-30" transform="translate(127.246094 0)"/>
       <use xlink:href="#DejaVuSans-30" transform="translate(190.869141 0)"/>
      </g>
     </g>
    </g>
    <g id="xtick_9">
     <g id="line2d_21">
      <g>
       <use xlink:href="#m3c60294c80" x="499.374459" y="320.4" style="stroke: #000000; stroke-width: 0.8"/>
      </g>
     </g>
     <g id="text_22">
      <!-- 4000 -->
      <g transform="translate(486.649459 334.998438) scale(0.1 -0.1)">
       <use xlink:href="#DejaVuSans-34"/>
       <use xlink:href="#DejaVuSans-30" transform="translate(63.623047 0)"/>
       <use xlink:href="#DejaVuSans-30" transform="translate(127.246094 0)"/>
       <use xlink:href="#DejaVuSans-30" transform="translate(190.869141 0)"/>
      </g>
     </g>
    </g>
    <g id="xtick_10">
     <g id="line2d_22">
      <g>
       <use xlink:href="#m3c60294c80" x="541.311688" y="320.4" style="stroke: #000000; stroke-width: 0.8"/>
      </g>
     </g>
     <g id="text_23">
      <!-- 6000 -->
      <g transform="translate(528.586688 334.998438) scale(0.1 -0.1)">
       <use xlink:href="#DejaVuSans-36"/>
       <use xlink:href="#DejaVuSans-30" transform="translate(63.623047 0)"/>
       <use xlink:href="#DejaVuSans-30" transform="translate(127.246094 0)"/>
       <use xlink:href="#DejaVuSans-30" transform="translate(190.869141 0)"/>
      </g>
     </g>
    </g>
    <g id="xtick_11">
     <g id="line2d_23">
      <g>
       <use xlink:href="#m3c60294c80" x="583.248918" y="320.4" style="stroke: #000000; stroke-width: 0.8"/>
      </g>
     </g>
     <g id="text_24">
      <!-- 8000 -->
      <g transform="translate(570.523918 334.998438) scale(0.1 -0.1)">
       <use xlink:href="#DejaVuSans-38"/>
       <use xlink:href="#DejaVuSans-30" transform="translate(63.623047 0)"/>
       <use xlink:href="#DejaVuSans-30" transform="translate(127.246094 0)"/>
       <use xlink:href="#DejaVuSans-30" transform="translate(190.869141 0)"/>
      </g>
     </g>
    </g>
    <g id="xtick_12">
     <g id="line2d_24">
      <g>
       <use xlink:href="#m3c60294c80" x="625.186147" y="320.4" style="stroke: #000000; stroke-width: 0.8"/>
      </g>
     </g>
     <g id="text_25">
      <!-- 10000 -->
      <g transform="translate(609.279897 334.998438) scale(0.1 -0.1)">
       <use xlink:href="#DejaVuSans-31"/>
       <use xlink:href="#DejaVuSans-30" transform="translate(63.623047 0)"/>
       <use xlink:href="#DejaVuSans-30" transform="translate(127.246094 0)"/>
       <use xlink:href="#DejaVuSans-30" transform="translate(190.869141 0)"/>
       <use xlink:href="#DejaVuSans-30" transform="translate(254.492188 0)"/>
      </g>
     </g>
    </g>
    <g id="text_26">
     <!-- time -->
     <g transform="translate(507.626506 350.19625) scale(0.12 -0.12)">
      <use xlink:href="#DejaVuSans-74"/>
      <use xlink:href="#DejaVuSans-69" transform="translate(39.208984 0)"/>
      <use xlink:href="#DejaVuSans-6d" transform="translate(66.992188 0)"/>
      <use xlink:href="#DejaVuSans-65" transform="translate(164.404297 0)"/>
     </g>
    </g>
   </g>
   <g id="matplotlib.axis_4">
    <g id="ytick_9">
     <g id="line2d_25">
      <g>
       <use xlink:href="#m854da24ac3" x="394.363636" y="288.897708" style="stroke: #000000; stroke-width: 0.8"/>
      </g>
     </g>
     <g id="text_27">
      <!-- $\mathdefault{10^{-32}}$ -->
      <g transform="translate(359.463636 292.696927) scale(0.1 -0.1)">
       <defs>
        <path id="DejaVuSans-2212" d="M 678 2272 
L 4684 2272 
L 4684 1741 
L 678 1741 
L 678 2272 
z
" transform="scale(0.015625)"/>
       </defs>
       <use xlink:href="#DejaVuSans-31" transform="translate(0 0.765625)"/>
       <use xlink:href="#DejaVuSans-30" transform="translate(63.623047 0.765625)"/>
       <use xlink:href="#DejaVuSans-2212" transform="translate(128.203125 39.046875) scale(0.7)"/>
       <use xlink:href="#DejaVuSans-33" transform="translate(186.855469 39.046875) scale(0.7)"/>
       <use xlink:href="#DejaVuSans-32" transform="translate(231.391602 39.046875) scale(0.7)"/>
      </g>
     </g>
    </g>
    <g id="ytick_10">
     <g id="line2d_26">
      <g>
       <use xlink:href="#m854da24ac3" x="394.363636" y="256.577515" style="stroke: #000000; stroke-width: 0.8"/>
      </g>
     </g>
     <g id="text_28">
      <!-- $\mathdefault{10^{-28}}$ -->
      <g transform="translate(359.463636 260.376734) scale(0.1 -0.1)">
       <use xlink:href="#DejaVuSans-31" transform="translate(0 0.765625)"/>
       <use xlink:href="#DejaVuSans-30" transform="translate(63.623047 0.765625)"/>
       <use xlink:href="#DejaVuSans-2212" transform="translate(128.203125 39.046875) scale(0.7)"/>
       <use xlink:href="#DejaVuSans-32" transform="translate(186.855469 39.046875) scale(0.7)"/>
       <use xlink:href="#DejaVuSans-38" transform="translate(231.391602 39.046875) scale(0.7)"/>
      </g>
     </g>
    </g>
    <g id="ytick_11">
     <g id="line2d_27">
      <g>
       <use xlink:href="#m854da24ac3" x="394.363636" y="224.257323" style="stroke: #000000; stroke-width: 0.8"/>
      </g>
     </g>
     <g id="text_29">
      <!-- $\mathdefault{10^{-24}}$ -->
      <g transform="translate(359.463636 228.056542) scale(0.1 -0.1)">
       <use xlink:href="#DejaVuSans-31" transform="translate(0 0.765625)"/>
       <use xlink:href="#DejaVuSans-30" transform="translate(63.623047 0.765625)"/>
       <use xlink:href="#DejaVuSans-2212" transform="translate(128.203125 39.046875) scale(0.7)"/>
       <use xlink:href="#DejaVuSans-32" transform="translate(186.855469 39.046875) scale(0.7)"/>
       <use xlink:href="#DejaVuSans-34" transform="translate(231.391602 39.046875) scale(0.7)"/>
      </g>
     </g>
    </g>
    <g id="ytick_12">
     <g id="line2d_28">
      <g>
       <use xlink:href="#m854da24ac3" x="394.363636" y="191.93713" style="stroke: #000000; stroke-width: 0.8"/>
      </g>
     </g>
     <g id="text_30">
      <!-- $\mathdefault{10^{-20}}$ -->
      <g transform="translate(359.463636 195.736349) scale(0.1 -0.1)">
       <use xlink:href="#DejaVuSans-31" transform="translate(0 0.765625)"/>
       <use xlink:href="#DejaVuSans-30" transform="translate(63.623047 0.765625)"/>
       <use xlink:href="#DejaVuSans-2212" transform="translate(128.203125 39.046875) scale(0.7)"/>
       <use xlink:href="#DejaVuSans-32" transform="translate(186.855469 39.046875) scale(0.7)"/>
       <use xlink:href="#DejaVuSans-30" transform="translate(231.391602 39.046875) scale(0.7)"/>
      </g>
     </g>
    </g>
    <g id="ytick_13">
     <g id="line2d_29">
      <g>
       <use xlink:href="#m854da24ac3" x="394.363636" y="159.616937" style="stroke: #000000; stroke-width: 0.8"/>
      </g>
     </g>
     <g id="text_31">
      <!-- $\mathdefault{10^{-16}}$ -->
      <g transform="translate(359.463636 163.416156) scale(0.1 -0.1)">
       <use xlink:href="#DejaVuSans-31" transform="translate(0 0.765625)"/>
       <use xlink:href="#DejaVuSans-30" transform="translate(63.623047 0.765625)"/>
       <use xlink:href="#DejaVuSans-2212" transform="translate(128.203125 39.046875) scale(0.7)"/>
       <use xlink:href="#DejaVuSans-31" transform="translate(186.855469 39.046875) scale(0.7)"/>
       <use xlink:href="#DejaVuSans-36" transform="translate(231.391602 39.046875) scale(0.7)"/>
      </g>
     </g>
    </g>
    <g id="ytick_14">
     <g id="line2d_30">
      <g>
       <use xlink:href="#m854da24ac3" x="394.363636" y="127.296745" style="stroke: #000000; stroke-width: 0.8"/>
      </g>
     </g>
     <g id="text_32">
      <!-- $\mathdefault{10^{-12}}$ -->
      <g transform="translate(359.463636 131.095964) scale(0.1 -0.1)">
       <use xlink:href="#DejaVuSans-31" transform="translate(0 0.765625)"/>
       <use xlink:href="#DejaVuSans-30" transform="translate(63.623047 0.765625)"/>
       <use xlink:href="#DejaVuSans-2212" transform="translate(128.203125 39.046875) scale(0.7)"/>
       <use xlink:href="#DejaVuSans-31" transform="translate(186.855469 39.046875) scale(0.7)"/>
       <use xlink:href="#DejaVuSans-32" transform="translate(231.391602 39.046875) scale(0.7)"/>
      </g>
     </g>
    </g>
    <g id="ytick_15">
     <g id="line2d_31">
      <g>
       <use xlink:href="#m854da24ac3" x="394.363636" y="94.976552" style="stroke: #000000; stroke-width: 0.8"/>
      </g>
     </g>
     <g id="text_33">
      <!-- $\mathdefault{10^{-8}}$ -->
      <g transform="translate(363.863636 98.775771) scale(0.1 -0.1)">
       <use xlink:href="#DejaVuSans-31" transform="translate(0 0.765625)"/>
       <use xlink:href="#DejaVuSans-30" transform="translate(63.623047 0.765625)"/>
       <use xlink:href="#DejaVuSans-2212" transform="translate(128.203125 39.046875) scale(0.7)"/>
       <use xlink:href="#DejaVuSans-38" transform="translate(186.855469 39.046875) scale(0.7)"/>
      </g>
     </g>
    </g>
    <g id="ytick_16">
     <g id="line2d_32">
      <g>
       <use xlink:href="#m854da24ac3" x="394.363636" y="62.656359" style="stroke: #000000; stroke-width: 0.8"/>
      </g>
     </g>
     <g id="text_34">
      <!-- $\mathdefault{10^{-4}}$ -->
      <g transform="translate(363.863636 66.455578) scale(0.1 -0.1)">
       <use xlink:href="#DejaVuSans-31" transform="translate(0 0.684375)"/>
       <use xlink:href="#DejaVuSans-30" transform="translate(63.623047 0.684375)"/>
       <use xlink:href="#DejaVuSans-2212" transform="translate(128.203125 38.965625) scale(0.7)"/>
       <use xlink:href="#DejaVuSans-34" transform="translate(186.855469 38.965625) scale(0.7)"/>
      </g>
     </g>
    </g>
    <g id="text_35">
     <!-- [Cve_api] -->
     <g transform="translate(352.634261 210.0675) rotate(-90) scale(0.12 -0.12)">
      <use xlink:href="#DejaVuSans-5b"/>
      <use xlink:href="#DejaVuSans-43" transform="translate(39.013672 0)"/>
      <use xlink:href="#DejaVuSans-76" transform="translate(108.837891 0)"/>
      <use xlink:href="#DejaVuSans-65" transform="translate(168.017578 0)"/>
      <use xlink:href="#DejaVuSans-5f" transform="translate(229.541016 0)"/>
      <use xlink:href="#DejaVuSans-61" transform="translate(279.541016 0)"/>
      <use xlink:href="#DejaVuSans-70" transform="translate(340.820312 0)"/>
      <use xlink:href="#DejaVuSans-69" transform="translate(404.296875 0)"/>
      <use xlink:href="#DejaVuSans-5d" transform="translate(432.080078 0)"/>
     </g>
    </g>
   </g>
   <g id="line2d_33">
    <g clip-path="url(#pc6ff6e5ba9)">
     <use xlink:href="#me98de0d129" x="415.5" y="8110.384332" style="stroke: #000000; stroke-linejoin: miter"/>
     <use xlink:href="#me98de0d129" x="416.758117" y="59.643601" style="stroke: #000000; stroke-linejoin: miter"/>
     <use xlink:href="#me98de0d129" x="418.016234" y="57.391207" style="stroke: #000000; stroke-linejoin: miter"/>
     <use xlink:href="#me98de0d129" x="419.274351" y="57.211102" style="stroke: #000000; stroke-linejoin: miter"/>
     <use xlink:href="#me98de0d129" x="420.532468" y="56.957399" style="stroke: #000000; stroke-linejoin: miter"/>
     <use xlink:href="#me98de0d129" x="423.048701" y="58.105639" style="stroke: #000000; stroke-linejoin: miter"/>
     <use xlink:href="#me98de0d129" x="426.823052" y="59.823544" style="stroke: #000000; stroke-linejoin: miter"/>
     <use xlink:href="#me98de0d129" x="430.597403" y="60.895262" style="stroke: #000000; stroke-linejoin: miter"/>
     <use xlink:href="#me98de0d129" x="431.855519" y="58.462694" style="stroke: #000000; stroke-linejoin: miter"/>
     <use xlink:href="#me98de0d129" x="433.113636" y="57.580879" style="stroke: #000000; stroke-linejoin: miter"/>
     <use xlink:href="#me98de0d129" x="434.371753" y="57.484762" style="stroke: #000000; stroke-linejoin: miter"/>
     <use xlink:href="#me98de0d129" x="435.62987" y="57.886114" style="stroke: #000000; stroke-linejoin: miter"/>
     <use xlink:href="#me98de0d129" x="438.146104" y="58.722908" style="stroke: #000000; stroke-linejoin: miter"/>
     <use xlink:href="#me98de0d129" x="441.920455" y="59.823544" style="stroke: #000000; stroke-linejoin: miter"/>
     <use xlink:href="#me98de0d129" x="445.694805" y="60.652788" style="stroke: #000000; stroke-linejoin: miter"/>
     <use xlink:href="#me98de0d129" x="596.668831" y="59.201743" style="stroke: #000000; stroke-linejoin: miter"/>
     <use xlink:href="#me98de0d129" x="597.926948" y="57.67416" style="stroke: #000000; stroke-linejoin: miter"/>
     <use xlink:href="#me98de0d129" x="599.185065" y="55.986369" style="stroke: #000000; stroke-linejoin: miter"/>
     <use xlink:href="#me98de0d129" x="600.443182" y="55.8" style="stroke: #000000; stroke-linejoin: miter"/>
     <use xlink:href="#me98de0d129" x="601.701299" y="55.86103" style="stroke: #000000; stroke-linejoin: miter"/>
     <use xlink:href="#me98de0d129" x="604.217532" y="56.61342" style="stroke: #000000; stroke-linejoin: miter"/>
     <use xlink:href="#me98de0d129" x="607.991883" y="58.355477" style="stroke: #000000; stroke-linejoin: miter"/>
     <use xlink:href="#me98de0d129" x="611.766234" y="59.364988" style="stroke: #000000; stroke-linejoin: miter"/>
     <use xlink:href="#me98de0d129" x="613.024351" y="57.377438" style="stroke: #000000; stroke-linejoin: miter"/>
     <use xlink:href="#me98de0d129" x="614.282468" y="56.690546" style="stroke: #000000; stroke-linejoin: miter"/>
     <use xlink:href="#me98de0d129" x="615.540584" y="56.932651" style="stroke: #000000; stroke-linejoin: miter"/>
     <use xlink:href="#me98de0d129" x="616.798701" y="57.283856" style="stroke: #000000; stroke-linejoin: miter"/>
     <use xlink:href="#me98de0d129" x="619.314935" y="58.355477" style="stroke: #000000; stroke-linejoin: miter"/>
     <use xlink:href="#me98de0d129" x="623.089286" y="59.536198" style="stroke: #000000; stroke-linejoin: miter"/>
     <use xlink:href="#me98de0d129" x="626.863636" y="59.905921" style="stroke: #000000; stroke-linejoin: miter"/>
    </g>
   </g>
   <g id="line2d_34">
    <path d="M 415.5 361 
L 415.607693 65.923687 
L 415.802912 62.464811 
L 416.073765 60.641423 
L 416.417976 59.534789 
L 416.807595 58.886567 
L 417.173262 58.551963 
L 417.870837 58.270044 
L 418.663759 58.220182 
L 420.051374 58.396706 
L 423.310172 59.12549 
L 430.597403 60.895478 
L 430.599272 61.004323 
L 430.699255 60.354915 
L 431.021603 59.011949 
L 431.454181 58.140998 
L 431.956972 57.661203 
L 432.482797 57.439293 
L 433.29457 57.359391 
L 434.593408 57.505236 
L 437.284239 58.089532 
L 445.694805 60.132942 
L 445.696671 60.205201 
L 445.805453 59.641333 
L 446.150011 58.478054 
L 446.603036 57.730198 
L 447.077316 57.352363 
L 447.664388 57.154308 
L 448.484747 57.115511 
L 449.934672 57.31472 
L 453.551255 58.139343 
L 460.792208 59.903457 
L 460.794117 60.01473 
L 460.894729 59.516164 
L 461.203097 58.465717 
L 461.591249 57.765732 
L 462.074367 57.32604 
L 462.712597 57.086983 
L 463.507913 57.0401 
L 464.768172 57.196437 
L 467.790482 57.865077 
L 475.899954 59.885198 
L 475.933521 59.709322 
L 476.284164 58.439404 
L 476.683014 57.721969 
L 477.115376 57.319359 
L 477.715606 57.070059 
L 478.549541 57.004532 
L 479.951774 57.180631 
L 483.22573 57.915371 
L 490.998467 59.804897 
L 491.021805 59.685602 
L 491.369528 58.423894 
L 491.744708 57.734507 
L 492.134809 57.345147 
L 492.721818 57.069 
L 493.45558 56.980544 
L 494.831893 57.122077 
L 497.577191 57.718115 
L 506.095863 59.810055 
L 506.128899 59.639577 
L 506.472212 58.412146 
L 506.868293 57.700282 
L 507.283382 57.308488 
L 507.889765 57.049836 
L 508.647743 56.979331 
L 509.93937 57.121939 
L 512.693856 57.720752 
L 521.193268 59.810458 
L 521.226314 59.639877 
L 521.574113 58.401126 
L 521.988237 57.671891 
L 522.423302 57.280646 
L 523.037983 57.038337 
L 523.885691 56.983314 
L 525.28385 57.166401 
L 528.556161 57.903414 
L 536.290666 59.814195 
L 536.318846 59.66879 
L 536.641713 58.478536 
L 537.027517 57.748558 
L 537.449479 57.329325 
L 537.994692 57.073797 
L 538.768821 56.979416 
L 540.045918 57.107376 
L 542.464871 57.621147 
L 551.376623 59.786144 
L 551.378539 59.980993 
L 551.487531 59.445684 
L 551.822735 58.353581 
L 552.243227 57.656897 
L 552.739083 57.254939 
L 553.385667 57.04732 
L 554.329579 57.030982 
L 555.971633 57.293072 
L 560.441272 58.340863 
L 566.474026 59.813434 
L 566.475953 59.938502 
L 566.579219 59.437673 
L 566.930426 58.310254 
L 567.327376 57.659435 
L 567.803716 57.26388 
L 568.402315 57.054349 
L 569.305136 57.016982 
L 570.877258 57.24972 
L 574.830707 58.164891 
L 581.581816 59.868704 
L 581.613164 59.705224 
L 581.968015 58.422933 
L 582.400358 57.668332 
L 582.853743 57.27535 
L 583.402295 57.060949 
L 584.093597 56.994233 
L 585.400412 57.13164 
L 588.158168 57.729043 
L 596.680292 59.807875 
L 596.708522 59.662657 
L 597.04045 58.452508 
L 597.464837 57.685409 
L 597.910893 57.281288 
L 598.552726 57.033993 
L 599.435671 56.987922 
L 600.848382 57.182659 
L 603.942761 57.880895 
L 611.777715 59.794311 
L 611.803571 59.662062 
L 612.139812 58.438716 
L 612.572525 57.665835 
L 613.027134 57.263797 
L 613.619514 57.035082 
L 614.559626 56.984686 
L 616.063807 57.200999 
L 619.800367 58.059778 
L 648.289511 65.046054 
L 648.289511 65.046054 
" clip-path="url(#pc6ff6e5ba9)" style="fill: none; stroke: #0000ff; stroke-width: 1.5; stroke-linecap: square"/>
   </g>
   <g id="patch_9">
    <path d="M 394.363636 320.4 
L 394.363636 43.2 
" style="fill: none; stroke: #000000; stroke-width: 0.8; stroke-linejoin: miter; stroke-linecap: square"/>
   </g>
   <g id="patch_10">
    <path d="M 648 320.4 
L 648 43.2 
" style="fill: none; stroke: #000000; stroke-width: 0.8; stroke-linejoin: miter; stroke-linecap: square"/>
   </g>
   <g id="patch_11">
    <path d="M 394.363636 320.4 
L 648 320.4 
" style="fill: none; stroke: #000000; stroke-width: 0.8; stroke-linejoin: miter; stroke-linecap: square"/>
   </g>
   <g id="patch_12">
    <path d="M 394.363636 43.2 
L 648 43.2 
" style="fill: none; stroke: #000000; stroke-width: 0.8; stroke-linejoin: miter; stroke-linecap: square"/>
   </g>
   <g id="text_36">
    <!-- Frost2013a fm_apixaban_API10x2 -->
    <g transform="translate(402.797599 37.2) scale(0.14 -0.14)">
     <use xlink:href="#DejaVuSans-46"/>
     <use xlink:href="#DejaVuSans-72" transform="translate(50.269531 0)"/>
     <use xlink:href="#DejaVuSans-6f" transform="translate(89.132812 0)"/>
     <use xlink:href="#DejaVuSans-73" transform="translate(150.314453 0)"/>
     <use xlink:href="#DejaVuSans-74" transform="translate(202.414062 0)"/>
     <use xlink:href="#DejaVuSans-32" transform="translate(241.623047 0)"/>
     <use xlink:href="#DejaVuSans-30" transform="translate(305.246094 0)"/>
     <use xlink:href="#DejaVuSans-31" transform="translate(368.869141 0)"/>
     <use xlink:href="#DejaVuSans-33" transform="translate(432.492188 0)"/>
     <use xlink:href="#DejaVuSans-61" transform="translate(496.115234 0)"/>
     <use xlink:href="#DejaVuSans-20" transform="translate(557.394531 0)"/>
     <use xlink:href="#DejaVuSans-66" transform="translate(589.181641 0)"/>
     <use xlink:href="#DejaVuSans-6d" transform="translate(624.386719 0)"/>
     <use xlink:href="#DejaVuSans-5f" transform="translate(721.798828 0)"/>
     <use xlink:href="#DejaVuSans-61" transform="translate(771.798828 0)"/>
     <use xlink:href="#DejaVuSans-70" transform="translate(833.078125 0)"/>
     <use xlink:href="#DejaVuSans-69" transform="translate(896.554688 0)"/>
     <use xlink:href="#DejaVuSans-78" transform="translate(924.337891 0)"/>
     <use xlink:href="#DejaVuSans-61" transform="translate(983.517578 0)"/>
     <use xlink:href="#DejaVuSans-62" transform="translate(1044.796875 0)"/>
     <use xlink:href="#DejaVuSans-61" transform="translate(1108.273438 0)"/>
     <use xlink:href="#DejaVuSans-6e" transform="translate(1169.552734 0)"/>
     <use xlink:href="#DejaVuSans-5f" transform="translate(1232.931641 0)"/>
     <use xlink:href="#DejaVuSans-41" transform="translate(1282.931641 0)"/>
     <use xlink:href="#DejaVuSans-50" transform="translate(1351.339844 0)"/>
     <use xlink:href="#DejaVuSans-49" transform="translate(1411.642578 0)"/>
     <use xlink:href="#DejaVuSans-31" transform="translate(1441.134766 0)"/>
     <use xlink:href="#DejaVuSans-30" transform="translate(1504.757812 0)"/>
     <use xlink:href="#DejaVuSans-78" transform="translate(1568.380859 0)"/>
     <use xlink:href="#DejaVuSans-32" transform="translate(1627.560547 0)"/>
    </g>
   </g>
   <g id="legend_2">
    <g id="patch_13">
     <path d="M 533.734375 315.4 
L 641 315.4 
Q 643 315.4 643 313.4 
L 643 284.765625 
Q 643 282.765625 641 282.765625 
L 533.734375 282.765625 
Q 531.734375 282.765625 531.734375 284.765625 
L 531.734375 313.4 
Q 531.734375 315.4 533.734375 315.4 
z
" style="fill: #ffffff; opacity: 0.8; stroke: #cccccc; stroke-linejoin: miter"/>
    </g>
    <g id="line2d_35">
     <g>
      <use xlink:href="#me98de0d129" x="545.734375" y="290.864062" style="stroke: #000000; stroke-linejoin: miter"/>
     </g>
    </g>
    <g id="text_37">
     <!-- reference_data -->
     <g transform="translate(563.734375 294.364062) scale(0.1 -0.1)">
      <use xlink:href="#DejaVuSans-72"/>
      <use xlink:href="#DejaVuSans-65" transform="translate(38.863281 0)"/>
      <use xlink:href="#DejaVuSans-66" transform="translate(100.386719 0)"/>
      <use xlink:href="#DejaVuSans-65" transform="translate(135.591797 0)"/>
      <use xlink:href="#DejaVuSans-72" transform="translate(197.115234 0)"/>
      <use xlink:href="#DejaVuSans-65" transform="translate(235.978516 0)"/>
      <use xlink:href="#DejaVuSans-6e" transform="translate(297.501953 0)"/>
      <use xlink:href="#DejaVuSans-63" transform="translate(360.880859 0)"/>
      <use xlink:href="#DejaVuSans-65" transform="translate(415.861328 0)"/>
      <use xlink:href="#DejaVuSans-5f" transform="translate(477.384766 0)"/>
      <use xlink:href="#DejaVuSans-64" transform="translate(527.384766 0)"/>
      <use xlink:href="#DejaVuSans-61" transform="translate(590.861328 0)"/>
      <use xlink:href="#DejaVuSans-74" transform="translate(652.140625 0)"/>
      <use xlink:href="#DejaVuSans-61" transform="translate(691.349609 0)"/>
     </g>
    </g>
    <g id="line2d_36">
     <path d="M 535.734375 305.820312 
L 545.734375 305.820312 
L 555.734375 305.820312 
" style="fill: none; stroke: #0000ff; stroke-width: 1.5; stroke-linecap: square"/>
    </g>
    <g id="text_38">
     <!-- observable -->
     <g transform="translate(563.734375 309.320312) scale(0.1 -0.1)">
      <use xlink:href="#DejaVuSans-6f"/>
      <use xlink:href="#DejaVuSans-62" transform="translate(61.181641 0)"/>
      <use xlink:href="#DejaVuSans-73" transform="translate(124.658203 0)"/>
      <use xlink:href="#DejaVuSans-65" transform="translate(176.757812 0)"/>
      <use xlink:href="#DejaVuSans-72" transform="translate(238.28125 0)"/>
      <use xlink:href="#DejaVuSans-76" transform="translate(279.394531 0)"/>
      <use xlink:href="#DejaVuSans-61" transform="translate(338.574219 0)"/>
      <use xlink:href="#DejaVuSans-62" transform="translate(399.853516 0)"/>
      <use xlink:href="#DejaVuSans-6c" transform="translate(463.330078 0)"/>
      <use xlink:href="#DejaVuSans-65" transform="translate(491.113281 0)"/>
     </g>
    </g>
   </g>
  </g>
 </g>
 <defs>
  <clipPath id="p582ec6b7f5">
   <rect x="90" y="43.2" width="253.636364" height="277.2"/>
  </clipPath>
  <clipPath id="pc6ff6e5ba9">
   <rect x="394.363636" y="43.2" width="253.636364" height="277.2"/>
  </clipPath>
 </defs>
</svg>
