<?xml version="1.0" encoding="utf-8" standalone="no"?>
<!DOCTYPE svg PUBLIC "-//W3C//DTD SVG 1.1//EN"
  "http://www.w3.org/Graphics/SVG/1.1/DTD/svg11.dtd">
<svg xmlns:xlink="http://www.w3.org/1999/xlink" width="720pt" height="360pt" viewBox="0 0 720 360" xmlns="http://www.w3.org/2000/svg" version="1.1">
 <metadata>
  <rdf:RDF xmlns:dc="http://purl.org/dc/elements/1.1/" xmlns:cc="http://creativecommons.org/ns#" xmlns:rdf="http://www.w3.org/1999/02/22-rdf-syntax-ns#">
   <cc:Work>
    <dc:type rdf:resource="http://purl.org/dc/dcmitype/StillImage"/>
    <dc:date>2026-04-15T17:21:22.545417</dc:date>
    <dc:format>image/svg+xml</dc:format>
    <dc:creator>
     <cc:Agent>
      <dc:title>Matplotlib v3.10.7, https://matplotlib.org/</dc:title>
     </cc:Agent>
    </dc:creator>
   </cc:Work>
  </rdf:RDF>
 </metadata>
 <defs>
  <style type="text/css">*{stroke-linejoin: round; stroke-linecap: butt}</style>
 </defs>
 <g id="figure_1">
  <g id="patch_1">
   <path d="M 0 360 
L 720 360 
L 720 0 
L 0 0 
z
" style="fill: #ffffff"/>
  </g>
  <g id="axes_1">
   <g id="patch_2">
    <path d="M 90 320.4 
L 343.636364 320.4 
L 343.636364 43.2 
L 90 43.2 
z
" style="fill: #ffffff"/>
   </g>
   <g id="matplotlib.axis_1">
    <g id="xtick_1">
     <g id="line2d_1">
      <defs>
       <path id="m1cd726e751" d="M 0 0 
L 0 3.5 
" style="stroke: #000000; stroke-width: 0.8"/>
      </defs>
      <g>
       <use xlink:href="#m1cd726e751" x="108.911483" y="320.4" style="stroke: #000000; stroke-width: 0.8"/>
      </g>
     </g>
     <g id="text_1">
      <!-- 0 -->
      <g transform="translate(105.730233 334.998438) scale(0.1 -0.1)">
       <defs>
        <path id="DejaVuSans-30" d="M 2034 4250 
Q 1547 4250 1301 3770 
Q 1056 3291 1056 2328 
Q 1056 1369 1301 889 
Q 1547 409 2034 409 
Q 2525 409 2770 889 
Q 3016 1369 3016 2328 
Q 3016 3291 2770 3770 
Q 2525 4250 2034 4250 
z
M 2034 4750 
Q 2819 4750 3233 4129 
Q 3647 3509 3647 2328 
Q 3647 1150 3233 529 
Q 2819 -91 2034 -91 
Q 1250 -91 836 529 
Q 422 1150 422 2328 
Q 422 3509 836 4129 
Q 1250 4750 2034 4750 
z
" transform="scale(0.015625)"/>
       </defs>
       <use xlink:href="#DejaVuSans-30"/>
      </g>
     </g>
    </g>
    <g id="xtick_2">
     <g id="line2d_2">
      <g>
       <use xlink:href="#m1cd726e751" x="145.992823" y="320.4" style="stroke: #000000; stroke-width: 0.8"/>
      </g>
     </g>
     <g id="text_2">
      <!-- 500 -->
      <g transform="translate(136.449073 334.998438) scale(0.1 -0.1)">
       <defs>
        <path id="DejaVuSans-35" d="M 691 4666 
L 3169 4666 
L 3169 4134 
L 1269 4134 
L 1269 2991 
Q 1406 3038 1543 3061 
Q 1681 3084 1819 3084 
Q 2600 3084 3056 2656 
Q 3513 2228 3513 1497 
Q 3513 744 3044 326 
Q 2575 -91 1722 -91 
Q 1428 -91 1123 -41 
Q 819 9 494 109 
L 494 744 
Q 775 591 1075 516 
Q 1375 441 1709 441 
Q 2250 441 2565 725 
Q 2881 1009 2881 1497 
Q 2881 1984 2565 2268 
Q 2250 2553 1709 2553 
Q 1456 2553 1204 2497 
Q 953 2441 691 2322 
L 691 4666 
z
" transform="scale(0.015625)"/>
       </defs>
       <use xlink:href="#DejaVuSans-35"/>
       <use xlink:href="#DejaVuSans-30" transform="translate(63.623047 0)"/>
       <use xlink:href="#DejaVuSans-30" transform="translate(127.246094 0)"/>
      </g>
     </g>
    </g>
    <g id="xtick_3">
     <g id="line2d_3">
      <g>
       <use xlink:href="#m1cd726e751" x="183.074163" y="320.4" style="stroke: #000000; stroke-width: 0.8"/>
      </g>
     </g>
     <g id="text_3">
      <!-- 1000 -->
      <g transform="translate(170.349163 334.998438) scale(0.1 -0.1)">
       <defs>
        <path id="DejaVuSans-31" d="M 794 531 
L 1825 531 
L 1825 4091 
L 703 3866 
L 703 4441 
L 1819 4666 
L 2450 4666 
L 2450 531 
L 3481 531 
L 3481 0 
L 794 0 
L 794 531 
z
" transform="scale(0.015625)"/>
       </defs>
       <use xlink:href="#DejaVuSans-31"/>
       <use xlink:href="#DejaVuSans-30" transform="translate(63.623047 0)"/>
       <use xlink:href="#DejaVuSans-30" transform="translate(127.246094 0)"/>
       <use xlink:href="#DejaVuSans-30" transform="translate(190.869141 0)"/>
      </g>
     </g>
    </g>
    <g id="xtick_4">
     <g id="line2d_4">
      <g>
       <use xlink:href="#m1cd726e751" x="220.155502" y="320.4" style="stroke: #000000; stroke-width: 0.8"/>
      </g>
     </g>
     <g id="text_4">
      <!-- 1500 -->
      <g transform="translate(207.430502 334.998438) scale(0.1 -0.1)">
       <use xlink:href="#DejaVuSans-31"/>
       <use xlink:href="#DejaVuSans-35" transform="translate(63.623047 0)"/>
       <use xlink:href="#DejaVuSans-30" transform="translate(127.246094 0)"/>
       <use xlink:href="#DejaVuSans-30" transform="translate(190.869141 0)"/>
      </g>
     </g>
    </g>
    <g id="xtick_5">
     <g id="line2d_5">
      <g>
       <use xlink:href="#m1cd726e751" x="257.236842" y="320.4" style="stroke: #000000; stroke-width: 0.8"/>
      </g>
     </g>
     <g id="text_5">
      <!-- 2000 -->
      <g transform="translate(244.511842 334.998438) scale(0.1 -0.1)">
       <defs>
        <path id="DejaVuSans-32" d="M 1228 531 
L 3431 531 
L 3431 0 
L 469 0 
L 469 531 
Q 828 903 1448 1529 
Q 2069 2156 2228 2338 
Q 2531 2678 2651 2914 
Q 2772 3150 2772 3378 
Q 2772 3750 2511 3984 
Q 2250 4219 1831 4219 
Q 1534 4219 1204 4116 
Q 875 4013 500 3803 
L 500 4441 
Q 881 4594 1212 4672 
Q 1544 4750 1819 4750 
Q 2544 4750 2975 4387 
Q 3406 4025 3406 3419 
Q 3406 3131 3298 2873 
Q 3191 2616 2906 2266 
Q 2828 2175 2409 1742 
Q 1991 1309 1228 531 
z
" transform="scale(0.015625)"/>
       </defs>
       <use xlink:href="#DejaVuSans-32"/>
       <use xlink:href="#DejaVuSans-30" transform="translate(63.623047 0)"/>
       <use xlink:href="#DejaVuSans-30" transform="translate(127.246094 0)"/>
       <use xlink:href="#DejaVuSans-30" transform="translate(190.869141 0)"/>
      </g>
     </g>
    </g>
    <g id="xtick_6">
     <g id="line2d_6">
      <g>
       <use xlink:href="#m1cd726e751" x="294.318182" y="320.4" style="stroke: #000000; stroke-width: 0.8"/>
      </g>
     </g>
     <g id="text_6">
      <!-- 2500 -->
      <g transform="translate(281.593182 334.998438) scale(0.1 -0.1)">
       <use xlink:href="#DejaVuSans-32"/>
       <use xlink:href="#DejaVuSans-35" transform="translate(63.623047 0)"/>
       <use xlink:href="#DejaVuSans-30" transform="translate(127.246094 0)"/>
       <use xlink:href="#DejaVuSans-30" transform="translate(190.869141 0)"/>
      </g>
     </g>
    </g>
    <g id="xtick_7">
     <g id="line2d_7">
      <g>
       <use xlink:href="#m1cd726e751" x="331.399522" y="320.4" style="stroke: #000000; stroke-width: 0.8"/>
      </g>
     </g>
     <g id="text_7">
      <!-- 3000 -->
      <g transform="translate(318.674522 334.998438) scale(0.1 -0.1)">
       <defs>
        <path id="DejaVuSans-33" d="M 2597 2516 
Q 3050 2419 3304 2112 
Q 3559 1806 3559 1356 
Q 3559 666 3084 287 
Q 2609 -91 1734 -91 
Q 1441 -91 1130 -33 
Q 819 25 488 141 
L 488 750 
Q 750 597 1062 519 
Q 1375 441 1716 441 
Q 2309 441 2620 675 
Q 2931 909 2931 1356 
Q 2931 1769 2642 2001 
Q 2353 2234 1838 2234 
L 1294 2234 
L 1294 2753 
L 1863 2753 
Q 2328 2753 2575 2939 
Q 2822 3125 2822 3475 
Q 2822 3834 2567 4026 
Q 2313 4219 1838 4219 
Q 1578 4219 1281 4162 
Q 984 4106 628 3988 
L 628 4550 
Q 988 4650 1302 4700 
Q 1616 4750 1894 4750 
Q 2613 4750 3031 4423 
Q 3450 4097 3450 3541 
Q 3450 3153 3228 2886 
Q 3006 2619 2597 2516 
z
" transform="scale(0.015625)"/>
       </defs>
       <use xlink:href="#DejaVuSans-33"/>
       <use xlink:href="#DejaVuSans-30" transform="translate(63.623047 0)"/>
       <use xlink:href="#DejaVuSans-30" transform="translate(127.246094 0)"/>
       <use xlink:href="#DejaVuSans-30" transform="translate(190.869141 0)"/>
      </g>
     </g>
    </g>
    <g id="text_8">
     <!-- time -->
     <g transform="translate(203.262869 350.19625) scale(0.12 -0.12)">
      <defs>
       <path id="DejaVuSans-74" d="M 1172 4494 
L 1172 3500 
L 2356 3500 
L 2356 3053 
L 1172 3053 
L 1172 1153 
Q 1172 725 1289 603 
Q 1406 481 1766 481 
L 2356 481 
L 2356 0 
L 1766 0 
Q 1100 0 847 248 
Q 594 497 594 1153 
L 594 3053 
L 172 3053 
L 172 3500 
L 594 3500 
L 594 4494 
L 1172 4494 
z
" transform="scale(0.015625)"/>
       <path id="DejaVuSans-69" d="M 603 3500 
L 1178 3500 
L 1178 0 
L 603 0 
L 603 3500 
z
M 603 4863 
L 1178 4863 
L 1178 4134 
L 603 4134 
L 603 4863 
z
" transform="scale(0.015625)"/>
       <path id="DejaVuSans-6d" d="M 3328 2828 
Q 3544 3216 3844 3400 
Q 4144 3584 4550 3584 
Q 5097 3584 5394 3201 
Q 5691 2819 5691 2113 
L 5691 0 
L 5113 0 
L 5113 2094 
Q 5113 2597 4934 2840 
Q 4756 3084 4391 3084 
Q 3944 3084 3684 2787 
Q 3425 2491 3425 1978 
L 3425 0 
L 2847 0 
L 2847 2094 
Q 2847 2600 2669 2842 
Q 2491 3084 2119 3084 
Q 1678 3084 1418 2786 
Q 1159 2488 1159 1978 
L 1159 0 
L 581 0 
L 581 3500 
L 1159 3500 
L 1159 2956 
Q 1356 3278 1631 3431 
Q 1906 3584 2284 3584 
Q 2666 3584 2933 3390 
Q 3200 3197 3328 2828 
z
" transform="scale(0.015625)"/>
       <path id="DejaVuSans-65" d="M 3597 1894 
L 3597 1613 
L 953 1613 
Q 991 1019 1311 708 
Q 1631 397 2203 397 
Q 2534 397 2845 478 
Q 3156 559 3463 722 
L 3463 178 
Q 3153 47 2828 -22 
Q 2503 -91 2169 -91 
Q 1331 -91 842 396 
Q 353 884 353 1716 
Q 353 2575 817 3079 
Q 1281 3584 2069 3584 
Q 2775 3584 3186 3129 
Q 3597 2675 3597 1894 
z
M 3022 2063 
Q 3016 2534 2758 2815 
Q 2500 3097 2075 3097 
Q 1594 3097 1305 2825 
Q 1016 2553 972 2059 
L 3022 2063 
z
" transform="scale(0.015625)"/>
      </defs>
      <use xlink:href="#DejaVuSans-74"/>
      <use xlink:href="#DejaVuSans-69" transform="translate(39.208984 0)"/>
      <use xlink:href="#DejaVuSans-6d" transform="translate(66.992188 0)"/>
      <use xlink:href="#DejaVuSans-65" transform="translate(164.404297 0)"/>
     </g>
    </g>
   </g>
   <g id="matplotlib.axis_2">
    <g id="ytick_1">
     <g id="line2d_8">
      <defs>
       <path id="m84ee209bed" d="M 0 0 
L -3.5 0 
" style="stroke: #000000; stroke-width: 0.8"/>
      </defs>
      <g>
       <use xlink:href="#m84ee209bed" x="90" y="307.8" style="stroke: #000000; stroke-width: 0.8"/>
      </g>
     </g>
     <g id="text_9">
      <!-- 0.00000 -->
      <g transform="translate(41.646875 311.599219) scale(0.1 -0.1)">
       <defs>
        <path id="DejaVuSans-2e" d="M 684 794 
L 1344 794 
L 1344 0 
L 684 0 
L 684 794 
z
" transform="scale(0.015625)"/>
       </defs>
       <use xlink:href="#DejaVuSans-30"/>
       <use xlink:href="#DejaVuSans-2e" transform="translate(63.623047 0)"/>
       <use xlink:href="#DejaVuSans-30" transform="translate(95.410156 0)"/>
       <use xlink:href="#DejaVuSans-30" transform="translate(159.033203 0)"/>
       <use xlink:href="#DejaVuSans-30" transform="translate(222.65625 0)"/>
       <use xlink:href="#DejaVuSans-30" transform="translate(286.279297 0)"/>
       <use xlink:href="#DejaVuSans-30" transform="translate(349.902344 0)"/>
      </g>
     </g>
    </g>
    <g id="ytick_2">
     <g id="line2d_9">
      <g>
       <use xlink:href="#m84ee209bed" x="90" y="255.897714" style="stroke: #000000; stroke-width: 0.8"/>
      </g>
     </g>
     <g id="text_10">
      <!-- 0.00002 -->
      <g transform="translate(41.646875 259.696933) scale(0.1 -0.1)">
       <use xlink:href="#DejaVuSans-30"/>
       <use xlink:href="#DejaVuSans-2e" transform="translate(63.623047 0)"/>
       <use xlink:href="#DejaVuSans-30" transform="translate(95.410156 0)"/>
       <use xlink:href="#DejaVuSans-30" transform="translate(159.033203 0)"/>
       <use xlink:href="#DejaVuSans-30" transform="translate(222.65625 0)"/>
       <use xlink:href="#DejaVuSans-30" transform="translate(286.279297 0)"/>
       <use xlink:href="#DejaVuSans-32" transform="translate(349.902344 0)"/>
      </g>
     </g>
    </g>
    <g id="ytick_3">
     <g id="line2d_10">
      <g>
       <use xlink:href="#m84ee209bed" x="90" y="203.995428" style="stroke: #000000; stroke-width: 0.8"/>
      </g>
     </g>
     <g id="text_11">
      <!-- 0.00004 -->
      <g transform="translate(41.646875 207.794647) scale(0.1 -0.1)">
       <defs>
        <path id="DejaVuSans-34" d="M 2419 4116 
L 825 1625 
L 2419 1625 
L 2419 4116 
z
M 2253 4666 
L 3047 4666 
L 3047 1625 
L 3713 1625 
L 3713 1100 
L 3047 1100 
L 3047 0 
L 2419 0 
L 2419 1100 
L 313 1100 
L 313 1709 
L 2253 4666 
z
" transform="scale(0.015625)"/>
       </defs>
       <use xlink:href="#DejaVuSans-30"/>
       <use xlink:href="#DejaVuSans-2e" transform="translate(63.623047 0)"/>
       <use xlink:href="#DejaVuSans-30" transform="translate(95.410156 0)"/>
       <use xlink:href="#DejaVuSans-30" transform="translate(159.033203 0)"/>
       <use xlink:href="#DejaVuSans-30" transform="translate(222.65625 0)"/>
       <use xlink:href="#DejaVuSans-30" transform="translate(286.279297 0)"/>
       <use xlink:href="#DejaVuSans-34" transform="translate(349.902344 0)"/>
      </g>
     </g>
    </g>
    <g id="ytick_4">
     <g id="line2d_11">
      <g>
       <use xlink:href="#m84ee209bed" x="90" y="152.093142" style="stroke: #000000; stroke-width: 0.8"/>
      </g>
     </g>
     <g id="text_12">
      <!-- 0.00006 -->
      <g transform="translate(41.646875 155.892361) scale(0.1 -0.1)">
       <defs>
        <path id="DejaVuSans-36" d="M 2113 2584 
Q 1688 2584 1439 2293 
Q 1191 2003 1191 1497 
Q 1191 994 1439 701 
Q 1688 409 2113 409 
Q 2538 409 2786 701 
Q 3034 994 3034 1497 
Q 3034 2003 2786 2293 
Q 2538 2584 2113 2584 
z
M 3366 4563 
L 3366 3988 
Q 3128 4100 2886 4159 
Q 2644 4219 2406 4219 
Q 1781 4219 1451 3797 
Q 1122 3375 1075 2522 
Q 1259 2794 1537 2939 
Q 1816 3084 2150 3084 
Q 2853 3084 3261 2657 
Q 3669 2231 3669 1497 
Q 3669 778 3244 343 
Q 2819 -91 2113 -91 
Q 1303 -91 875 529 
Q 447 1150 447 2328 
Q 447 3434 972 4092 
Q 1497 4750 2381 4750 
Q 2619 4750 2861 4703 
Q 3103 4656 3366 4563 
z
" transform="scale(0.015625)"/>
       </defs>
       <use xlink:href="#DejaVuSans-30"/>
       <use xlink:href="#DejaVuSans-2e" transform="translate(63.623047 0)"/>
       <use xlink:href="#DejaVuSans-30" transform="translate(95.410156 0)"/>
       <use xlink:href="#DejaVuSans-30" transform="translate(159.033203 0)"/>
       <use xlink:href="#DejaVuSans-30" transform="translate(222.65625 0)"/>
       <use xlink:href="#DejaVuSans-30" transform="translate(286.279297 0)"/>
       <use xlink:href="#DejaVuSans-36" transform="translate(349.902344 0)"/>
      </g>
     </g>
    </g>
    <g id="ytick_5">
     <g id="line2d_12">
      <g>
       <use xlink:href="#m84ee209bed" x="90" y="100.190856" style="stroke: #000000; stroke-width: 0.8"/>
      </g>
     </g>
     <g id="text_13">
      <!-- 0.00008 -->
      <g transform="translate(41.646875 103.990075) scale(0.1 -0.1)">
       <defs>
        <path id="DejaVuSans-38" d="M 2034 2216 
Q 1584 2216 1326 1975 
Q 1069 1734 1069 1313 
Q 1069 891 1326 650 
Q 1584 409 2034 409 
Q 2484 409 2743 651 
Q 3003 894 3003 1313 
Q 3003 1734 2745 1975 
Q 2488 2216 2034 2216 
z
M 1403 2484 
Q 997 2584 770 2862 
Q 544 3141 544 3541 
Q 544 4100 942 4425 
Q 1341 4750 2034 4750 
Q 2731 4750 3128 4425 
Q 3525 4100 3525 3541 
Q 3525 3141 3298 2862 
Q 3072 2584 2669 2484 
Q 3125 2378 3379 2068 
Q 3634 1759 3634 1313 
Q 3634 634 3220 271 
Q 2806 -91 2034 -91 
Q 1263 -91 848 271 
Q 434 634 434 1313 
Q 434 1759 690 2068 
Q 947 2378 1403 2484 
z
M 1172 3481 
Q 1172 3119 1398 2916 
Q 1625 2713 2034 2713 
Q 2441 2713 2670 2916 
Q 2900 3119 2900 3481 
Q 2900 3844 2670 4047 
Q 2441 4250 2034 4250 
Q 1625 4250 1398 4047 
Q 1172 3844 1172 3481 
z
" transform="scale(0.015625)"/>
       </defs>
       <use xlink:href="#DejaVuSans-30"/>
       <use xlink:href="#DejaVuSans-2e" transform="translate(63.623047 0)"/>
       <use xlink:href="#DejaVuSans-30" transform="translate(95.410156 0)"/>
       <use xlink:href="#DejaVuSans-30" transform="translate(159.033203 0)"/>
       <use xlink:href="#DejaVuSans-30" transform="translate(222.65625 0)"/>
       <use xlink:href="#DejaVuSans-30" transform="translate(286.279297 0)"/>
       <use xlink:href="#DejaVuSans-38" transform="translate(349.902344 0)"/>
      </g>
     </g>
    </g>
    <g id="ytick_6">
     <g id="line2d_13">
      <g>
       <use xlink:href="#m84ee209bed" x="90" y="48.28857" style="stroke: #000000; stroke-width: 0.8"/>
      </g>
     </g>
     <g id="text_14">
      <!-- 0.00010 -->
      <g transform="translate(41.646875 52.087789) scale(0.1 -0.1)">
       <use xlink:href="#DejaVuSans-30"/>
       <use xlink:href="#DejaVuSans-2e" transform="translate(63.623047 0)"/>
       <use xlink:href="#DejaVuSans-30" transform="translate(95.410156 0)"/>
       <use xlink:href="#DejaVuSans-30" transform="translate(159.033203 0)"/>
       <use xlink:href="#DejaVuSans-30" transform="translate(222.65625 0)"/>
       <use xlink:href="#DejaVuSans-31" transform="translate(286.279297 0)"/>
       <use xlink:href="#DejaVuSans-30" transform="translate(349.902344 0)"/>
      </g>
     </g>
    </g>
    <g id="text_15">
     <!-- [Cve_api] -->
     <g transform="translate(34.8175 210.0675) rotate(-90) scale(0.12 -0.12)">
      <defs>
       <path id="DejaVuSans-5b" d="M 550 4863 
L 1875 4863 
L 1875 4416 
L 1125 4416 
L 1125 -397 
L 1875 -397 
L 1875 -844 
L 550 -844 
L 550 4863 
z
" transform="scale(0.015625)"/>
       <path id="DejaVuSans-43" d="M 4122 4306 
L 4122 3641 
Q 3803 3938 3442 4084 
Q 3081 4231 2675 4231 
Q 1875 4231 1450 3742 
Q 1025 3253 1025 2328 
Q 1025 1406 1450 917 
Q 1875 428 2675 428 
Q 3081 428 3442 575 
Q 3803 722 4122 1019 
L 4122 359 
Q 3791 134 3420 21 
Q 3050 -91 2638 -91 
Q 1578 -91 968 557 
Q 359 1206 359 2328 
Q 359 3453 968 4101 
Q 1578 4750 2638 4750 
Q 3056 4750 3426 4639 
Q 3797 4528 4122 4306 
z
" transform="scale(0.015625)"/>
       <path id="DejaVuSans-76" d="M 191 3500 
L 800 3500 
L 1894 563 
L 2988 3500 
L 3597 3500 
L 2284 0 
L 1503 0 
L 191 3500 
z
" transform="scale(0.015625)"/>
       <path id="DejaVuSans-5f" d="M 3263 -1063 
L 3263 -1509 
L -63 -1509 
L -63 -1063 
L 3263 -1063 
z
" transform="scale(0.015625)"/>
       <path id="DejaVuSans-61" d="M 2194 1759 
Q 1497 1759 1228 1600 
Q 959 1441 959 1056 
Q 959 750 1161 570 
Q 1363 391 1709 391 
Q 2188 391 2477 730 
Q 2766 1069 2766 1631 
L 2766 1759 
L 2194 1759 
z
M 3341 1997 
L 3341 0 
L 2766 0 
L 2766 531 
Q 2569 213 2275 61 
Q 1981 -91 1556 -91 
Q 1019 -91 701 211 
Q 384 513 384 1019 
Q 384 1609 779 1909 
Q 1175 2209 1959 2209 
L 2766 2209 
L 2766 2266 
Q 2766 2663 2505 2880 
Q 2244 3097 1772 3097 
Q 1472 3097 1187 3025 
Q 903 2953 641 2809 
L 641 3341 
Q 956 3463 1253 3523 
Q 1550 3584 1831 3584 
Q 2591 3584 2966 3190 
Q 3341 2797 3341 1997 
z
" transform="scale(0.015625)"/>
       <path id="DejaVuSans-70" d="M 1159 525 
L 1159 -1331 
L 581 -1331 
L 581 3500 
L 1159 3500 
L 1159 2969 
Q 1341 3281 1617 3432 
Q 1894 3584 2278 3584 
Q 2916 3584 3314 3078 
Q 3713 2572 3713 1747 
Q 3713 922 3314 415 
Q 2916 -91 2278 -91 
Q 1894 -91 1617 61 
Q 1341 213 1159 525 
z
M 3116 1747 
Q 3116 2381 2855 2742 
Q 2594 3103 2138 3103 
Q 1681 3103 1420 2742 
Q 1159 2381 1159 1747 
Q 1159 1113 1420 752 
Q 1681 391 2138 391 
Q 2594 391 2855 752 
Q 3116 1113 3116 1747 
z
" transform="scale(0.015625)"/>
       <path id="DejaVuSans-5d" d="M 1947 4863 
L 1947 -844 
L 622 -844 
L 622 -397 
L 1369 -397 
L 1369 4416 
L 622 4416 
L 622 4863 
L 1947 4863 
z
" transform="scale(0.015625)"/>
      </defs>
      <use xlink:href="#DejaVuSans-5b"/>
      <use xlink:href="#DejaVuSans-43" transform="translate(39.013672 0)"/>
      <use xlink:href="#DejaVuSans-76" transform="translate(108.837891 0)"/>
      <use xlink:href="#DejaVuSans-65" transform="translate(168.017578 0)"/>
      <use xlink:href="#DejaVuSans-5f" transform="translate(229.541016 0)"/>
      <use xlink:href="#DejaVuSans-61" transform="translate(279.541016 0)"/>
      <use xlink:href="#DejaVuSans-70" transform="translate(340.820312 0)"/>
      <use xlink:href="#DejaVuSans-69" transform="translate(404.296875 0)"/>
      <use xlink:href="#DejaVuSans-5d" transform="translate(432.080078 0)"/>
     </g>
    </g>
   </g>
   <g id="line2d_14">
    <defs>
     <path id="m117f38dc31" d="M -5 5 
L 5 5 
L 5 -5 
L -5 -5 
z
" style="stroke: #000000; stroke-linejoin: miter"/>
    </defs>
    <g clip-path="url(#pf43570f456)">
     <use xlink:href="#m117f38dc31" x="111.136364" y="268.266159" style="stroke: #000000; stroke-linejoin: miter"/>
     <use xlink:href="#m117f38dc31" x="113.361244" y="175.079247" style="stroke: #000000; stroke-linejoin: miter"/>
     <use xlink:href="#m117f38dc31" x="115.586124" y="122.725146" style="stroke: #000000; stroke-linejoin: miter"/>
     <use xlink:href="#m117f38dc31" x="117.811005" y="99.400179" style="stroke: #000000; stroke-linejoin: miter"/>
     <use xlink:href="#m117f38dc31" x="120.035885" y="78.673151" style="stroke: #000000; stroke-linejoin: miter"/>
     <use xlink:href="#m117f38dc31" x="122.260766" y="55.8" style="stroke: #000000; stroke-linejoin: miter"/>
     <use xlink:href="#m117f38dc31" x="126.710526" y="55.8" style="stroke: #000000; stroke-linejoin: miter"/>
     <use xlink:href="#m117f38dc31" x="135.610048" y="131.309637" style="stroke: #000000; stroke-linejoin: miter"/>
     <use xlink:href="#m117f38dc31" x="144.509569" y="184.17203" style="stroke: #000000; stroke-linejoin: miter"/>
     <use xlink:href="#m117f38dc31" x="153.409091" y="219.131242" style="stroke: #000000; stroke-linejoin: miter"/>
     <use xlink:href="#m117f38dc31" x="162.308612" y="242.682116" style="stroke: #000000; stroke-linejoin: miter"/>
     <use xlink:href="#m117f38dc31" x="189.007177" y="275.099866" style="stroke: #000000; stroke-linejoin: miter"/>
     <use xlink:href="#m117f38dc31" x="215.705742" y="283.797311" style="stroke: #000000; stroke-linejoin: miter"/>
     <use xlink:href="#m117f38dc31" x="269.102871" y="298.481309" style="stroke: #000000; stroke-linejoin: miter"/>
     <use xlink:href="#m117f38dc31" x="322.5" y="300.28857" style="stroke: #000000; stroke-linejoin: miter"/>
    </g>
   </g>
   <g id="line2d_15">
    <path d="M 108.911483 307.8 
L 108.927458 307.697753 
L 108.992708 303.859874 
L 109.948496 240.857964 
L 110.764056 199.677376 
L 111.489096 170.682878 
L 112.313065 144.749332 
L 113.009989 127.563835 
L 113.854526 111.439912 
L 114.699063 99.461563 
L 115.5436 90.768488 
L 116.235085 85.613809 
L 117.695003 79.149977 
L 118.498846 77.532374 
L 119.30269 76.941191 
L 120.106533 77.166731 
L 120.910376 78.040053 
L 122.183555 80.42629 
L 123.847656 84.812036 
L 125.511757 90.08023 
L 128.007908 98.815579 
L 135.380978 125.388075 
L 139.80482 140.289737 
L 144.228661 154.093027 
L 148.304458 165.847334 
L 150.90564 172.888666 
L 153.506822 179.588576 
L 156.108005 185.961973 
L 158.709187 192.023886 
L 161.31037 197.789002 
L 163.911552 203.271309 
L 166.512734 208.484105 
L 169.113917 213.44018 
L 171.715099 218.151853 
L 174.316282 222.630897 
L 179.518646 230.935351 
L 184.721011 238.437128 
L 189.923376 245.212434 
L 195.125741 251.330453 
L 200.328106 256.854051 
L 205.53047 261.840252 
L 210.732835 266.340757 
L 215.9352 270.402415 
L 221.137565 274.067644 
L 226.33993 277.374841 
L 231.542294 280.358742 
L 236.744659 283.050761 
L 241.947024 285.479298 
L 247.149389 287.670018 
L 252.351754 289.646114 
L 257.554118 291.428535 
L 262.756483 293.036199 
L 270.56003 295.156941 
L 278.363578 296.973355 
L 286.167125 298.529025 
L 293.970672 299.861319 
L 301.774219 301.002267 
L 312.178949 302.272747 
L 322.583679 303.305864 
L 335.589591 304.330171 
L 348.595503 305.121064 
L 361.601415 305.731713 
L 381.19195 306.399218 
L 404.700592 306.922445 
L 432.127341 307.291464 
L 467.881539 307.550299 
L 519.549384 307.710663 
L 553.88756 307.75467 
L 553.88756 307.75467 
" clip-path="url(#pf43570f456)" style="fill: none; stroke: #0000ff; stroke-width: 1.5; stroke-linecap: square"/>
   </g>
   <g id="patch_3">
    <path d="M 90 320.4 
L 90 43.2 
" style="fill: none; stroke: #000000; stroke-width: 0.8; stroke-linejoin: miter; stroke-linecap: square"/>
   </g>
   <g id="patch_4">
    <path d="M 343.636364 320.4 
L 343.636364 43.2 
" style="fill: none; stroke: #000000; stroke-width: 0.8; stroke-linejoin: miter; stroke-linecap: square"/>
   </g>
   <g id="patch_5">
    <path d="M 90 320.4 
L 343.636364 320.4 
" style="fill: none; stroke: #000000; stroke-width: 0.8; stroke-linejoin: miter; stroke-linecap: square"/>
   </g>
   <g id="patch_6">
    <path d="M 90 43.2 
L 343.636364 43.2 
" style="fill: none; stroke: #000000; stroke-width: 0.8; stroke-linejoin: miter; stroke-linecap: square"/>
   </g>
   <g id="text_16">
    <!-- Frost2018 fm_api_API2.5_caucasian -->
    <g transform="translate(92.167869 37.2) scale(0.14 -0.14)">
     <defs>
      <path id="DejaVuSans-46" d="M 628 4666 
L 3309 4666 
L 3309 4134 
L 1259 4134 
L 1259 2759 
L 3109 2759 
L 3109 2228 
L 1259 2228 
L 1259 0 
L 628 0 
L 628 4666 
z
" transform="scale(0.015625)"/>
      <path id="DejaVuSans-72" d="M 2631 2963 
Q 2534 3019 2420 3045 
Q 2306 3072 2169 3072 
Q 1681 3072 1420 2755 
Q 1159 2438 1159 1844 
L 1159 0 
L 581 0 
L 581 3500 
L 1159 3500 
L 1159 2956 
Q 1341 3275 1631 3429 
Q 1922 3584 2338 3584 
Q 2397 3584 2469 3576 
Q 2541 3569 2628 3553 
L 2631 2963 
z
" transform="scale(0.015625)"/>
      <path id="DejaVuSans-6f" d="M 1959 3097 
Q 1497 3097 1228 2736 
Q 959 2375 959 1747 
Q 959 1119 1226 758 
Q 1494 397 1959 397 
Q 2419 397 2687 759 
Q 2956 1122 2956 1747 
Q 2956 2369 2687 2733 
Q 2419 3097 1959 3097 
z
M 1959 3584 
Q 2709 3584 3137 3096 
Q 3566 2609 3566 1747 
Q 3566 888 3137 398 
Q 2709 -91 1959 -91 
Q 1206 -91 779 398 
Q 353 888 353 1747 
Q 353 2609 779 3096 
Q 1206 3584 1959 3584 
z
" transform="scale(0.015625)"/>
      <path id="DejaVuSans-73" d="M 2834 3397 
L 2834 2853 
Q 2591 2978 2328 3040 
Q 2066 3103 1784 3103 
Q 1356 3103 1142 2972 
Q 928 2841 928 2578 
Q 928 2378 1081 2264 
Q 1234 2150 1697 2047 
L 1894 2003 
Q 2506 1872 2764 1633 
Q 3022 1394 3022 966 
Q 3022 478 2636 193 
Q 2250 -91 1575 -91 
Q 1294 -91 989 -36 
Q 684 19 347 128 
L 347 722 
Q 666 556 975 473 
Q 1284 391 1588 391 
Q 1994 391 2212 530 
Q 2431 669 2431 922 
Q 2431 1156 2273 1281 
Q 2116 1406 1581 1522 
L 1381 1569 
Q 847 1681 609 1914 
Q 372 2147 372 2553 
Q 372 3047 722 3315 
Q 1072 3584 1716 3584 
Q 2034 3584 2315 3537 
Q 2597 3491 2834 3397 
z
" transform="scale(0.015625)"/>
      <path id="DejaVuSans-20" transform="scale(0.015625)"/>
      <path id="DejaVuSans-66" d="M 2375 4863 
L 2375 4384 
L 1825 4384 
Q 1516 4384 1395 4259 
Q 1275 4134 1275 3809 
L 1275 3500 
L 2222 3500 
L 2222 3053 
L 1275 3053 
L 1275 0 
L 697 0 
L 697 3053 
L 147 3053 
L 147 3500 
L 697 3500 
L 697 3744 
Q 697 4328 969 4595 
Q 1241 4863 1831 4863 
L 2375 4863 
z
" transform="scale(0.015625)"/>
      <path id="DejaVuSans-41" d="M 2188 4044 
L 1331 1722 
L 3047 1722 
L 2188 4044 
z
M 1831 4666 
L 2547 4666 
L 4325 0 
L 3669 0 
L 3244 1197 
L 1141 1197 
L 716 0 
L 50 0 
L 1831 4666 
z
" transform="scale(0.015625)"/>
      <path id="DejaVuSans-50" d="M 1259 4147 
L 1259 2394 
L 2053 2394 
Q 2494 2394 2734 2622 
Q 2975 2850 2975 3272 
Q 2975 3691 2734 3919 
Q 2494 4147 2053 4147 
L 1259 4147 
z
M 628 4666 
L 2053 4666 
Q 2838 4666 3239 4311 
Q 3641 3956 3641 3272 
Q 3641 2581 3239 2228 
Q 2838 1875 2053 1875 
L 1259 1875 
L 1259 0 
L 628 0 
L 628 4666 
z
" transform="scale(0.015625)"/>
      <path id="DejaVuSans-49" d="M 628 4666 
L 1259 4666 
L 1259 0 
L 628 0 
L 628 4666 
z
" transform="scale(0.015625)"/>
      <path id="DejaVuSans-63" d="M 3122 3366 
L 3122 2828 
Q 2878 2963 2633 3030 
Q 2388 3097 2138 3097 
Q 1578 3097 1268 2742 
Q 959 2388 959 1747 
Q 959 1106 1268 751 
Q 1578 397 2138 397 
Q 2388 397 2633 464 
Q 2878 531 3122 666 
L 3122 134 
Q 2881 22 2623 -34 
Q 2366 -91 2075 -91 
Q 1284 -91 818 406 
Q 353 903 353 1747 
Q 353 2603 823 3093 
Q 1294 3584 2113 3584 
Q 2378 3584 2631 3529 
Q 2884 3475 3122 3366 
z
" transform="scale(0.015625)"/>
      <path id="DejaVuSans-75" d="M 544 1381 
L 544 3500 
L 1119 3500 
L 1119 1403 
Q 1119 906 1312 657 
Q 1506 409 1894 409 
Q 2359 409 2629 706 
Q 2900 1003 2900 1516 
L 2900 3500 
L 3475 3500 
L 3475 0 
L 2900 0 
L 2900 538 
Q 2691 219 2414 64 
Q 2138 -91 1772 -91 
Q 1169 -91 856 284 
Q 544 659 544 1381 
z
M 1991 3584 
L 1991 3584 
z
" transform="scale(0.015625)"/>
      <path id="DejaVuSans-6e" d="M 3513 2113 
L 3513 0 
L 2938 0 
L 2938 2094 
Q 2938 2591 2744 2837 
Q 2550 3084 2163 3084 
Q 1697 3084 1428 2787 
Q 1159 2491 1159 1978 
L 1159 0 
L 581 0 
L 581 3500 
L 1159 3500 
L 1159 2956 
Q 1366 3272 1645 3428 
Q 1925 3584 2291 3584 
Q 2894 3584 3203 3211 
Q 3513 2838 3513 2113 
z
" transform="scale(0.015625)"/>
     </defs>
     <use xlink:href="#DejaVuSans-46"/>
     <use xlink:href="#DejaVuSans-72" transform="translate(50.269531 0)"/>
     <use xlink:href="#DejaVuSans-6f" transform="translate(89.132812 0)"/>
     <use xlink:href="#DejaVuSans-73" transform="translate(150.314453 0)"/>
     <use xlink:href="#DejaVuSans-74" transform="translate(202.414062 0)"/>
     <use xlink:href="#DejaVuSans-32" transform="translate(241.623047 0)"/>
     <use xlink:href="#DejaVuSans-30" transform="translate(305.246094 0)"/>
     <use xlink:href="#DejaVuSans-31" transform="translate(368.869141 0)"/>
     <use xlink:href="#DejaVuSans-38" transform="translate(432.492188 0)"/>
     <use xlink:href="#DejaVuSans-20" transform="translate(496.115234 0)"/>
     <use xlink:href="#DejaVuSans-66" transform="translate(527.902344 0)"/>
     <use xlink:href="#DejaVuSans-6d" transform="translate(563.107422 0)"/>
     <use xlink:href="#DejaVuSans-5f" transform="translate(660.519531 0)"/>
     <use xlink:href="#DejaVuSans-61" transform="translate(710.519531 0)"/>
     <use xlink:href="#DejaVuSans-70" transform="translate(771.798828 0)"/>
     <use xlink:href="#DejaVuSans-69" transform="translate(835.275391 0)"/>
     <use xlink:href="#DejaVuSans-5f" transform="translate(863.058594 0)"/>
     <use xlink:href="#DejaVuSans-41" transform="translate(913.058594 0)"/>
     <use xlink:href="#DejaVuSans-50" transform="translate(981.466797 0)"/>
     <use xlink:href="#DejaVuSans-49" transform="translate(1041.769531 0)"/>
     <use xlink:href="#DejaVuSans-32" transform="translate(1071.261719 0)"/>
     <use xlink:href="#DejaVuSans-2e" transform="translate(1134.884766 0)"/>
     <use xlink:href="#DejaVuSans-35" transform="translate(1166.671875 0)"/>
     <use xlink:href="#DejaVuSans-5f" transform="translate(1230.294922 0)"/>
     <use xlink:href="#DejaVuSans-63" transform="translate(1280.294922 0)"/>
     <use xlink:href="#DejaVuSans-61" transform="translate(1335.275391 0)"/>
     <use xlink:href="#DejaVuSans-75" transform="translate(1396.554688 0)"/>
     <use xlink:href="#DejaVuSans-63" transform="translate(1459.933594 0)"/>
     <use xlink:href="#DejaVuSans-61" transform="translate(1514.914062 0)"/>
     <use xlink:href="#DejaVuSans-73" transform="translate(1576.193359 0)"/>
     <use xlink:href="#DejaVuSans-69" transform="translate(1628.292969 0)"/>
     <use xlink:href="#DejaVuSans-61" transform="translate(1656.076172 0)"/>
     <use xlink:href="#DejaVuSans-6e" transform="translate(1717.355469 0)"/>
    </g>
   </g>
   <g id="legend_1">
    <g id="patch_7">
     <path d="M 229.370739 80.834375 
L 336.636364 80.834375 
Q 338.636364 80.834375 338.636364 78.834375 
L 338.636364 50.2 
Q 338.636364 48.2 336.636364 48.2 
L 229.370739 48.2 
Q 227.370739 48.2 227.370739 50.2 
L 227.370739 78.834375 
Q 227.370739 80.834375 229.370739 80.834375 
z
" style="fill: #ffffff; opacity: 0.8; stroke: #cccccc; stroke-linejoin: miter"/>
    </g>
    <g id="line2d_16">
     <g>
      <use xlink:href="#m117f38dc31" x="241.370739" y="56.298437" style="stroke: #000000; stroke-linejoin: miter"/>
     </g>
    </g>
    <g id="text_17">
     <!-- reference_data -->
     <g transform="translate(259.370739 59.798437) scale(0.1 -0.1)">
      <defs>
       <path id="DejaVuSans-64" d="M 2906 2969 
L 2906 4863 
L 3481 4863 
L 3481 0 
L 2906 0 
L 2906 525 
Q 2725 213 2448 61 
Q 2172 -91 1784 -91 
Q 1150 -91 751 415 
Q 353 922 353 1747 
Q 353 2572 751 3078 
Q 1150 3584 1784 3584 
Q 2172 3584 2448 3432 
Q 2725 3281 2906 2969 
z
M 947 1747 
Q 947 1113 1208 752 
Q 1469 391 1925 391 
Q 2381 391 2643 752 
Q 2906 1113 2906 1747 
Q 2906 2381 2643 2742 
Q 2381 3103 1925 3103 
Q 1469 3103 1208 2742 
Q 947 2381 947 1747 
z
" transform="scale(0.015625)"/>
      </defs>
      <use xlink:href="#DejaVuSans-72"/>
      <use xlink:href="#DejaVuSans-65" transform="translate(38.863281 0)"/>
      <use xlink:href="#DejaVuSans-66" transform="translate(100.386719 0)"/>
      <use xlink:href="#DejaVuSans-65" transform="translate(135.591797 0)"/>
      <use xlink:href="#DejaVuSans-72" transform="translate(197.115234 0)"/>
      <use xlink:href="#DejaVuSans-65" transform="translate(235.978516 0)"/>
      <use xlink:href="#DejaVuSans-6e" transform="translate(297.501953 0)"/>
      <use xlink:href="#DejaVuSans-63" transform="translate(360.880859 0)"/>
      <use xlink:href="#DejaVuSans-65" transform="translate(415.861328 0)"/>
      <use xlink:href="#DejaVuSans-5f" transform="translate(477.384766 0)"/>
      <use xlink:href="#DejaVuSans-64" transform="translate(527.384766 0)"/>
      <use xlink:href="#DejaVuSans-61" transform="translate(590.861328 0)"/>
      <use xlink:href="#DejaVuSans-74" transform="translate(652.140625 0)"/>
      <use xlink:href="#DejaVuSans-61" transform="translate(691.349609 0)"/>
     </g>
    </g>
    <g id="line2d_17">
     <path d="M 231.370739 71.254687 
L 241.370739 71.254687 
L 251.370739 71.254687 
" style="fill: none; stroke: #0000ff; stroke-width: 1.5; stroke-linecap: square"/>
    </g>
    <g id="text_18">
     <!-- observable -->
     <g transform="translate(259.370739 74.754687) scale(0.1 -0.1)">
      <defs>
       <path id="DejaVuSans-62" d="M 3116 1747 
Q 3116 2381 2855 2742 
Q 2594 3103 2138 3103 
Q 1681 3103 1420 2742 
Q 1159 2381 1159 1747 
Q 1159 1113 1420 752 
Q 1681 391 2138 391 
Q 2594 391 2855 752 
Q 3116 1113 3116 1747 
z
M 1159 2969 
Q 1341 3281 1617 3432 
Q 1894 3584 2278 3584 
Q 2916 3584 3314 3078 
Q 3713 2572 3713 1747 
Q 3713 922 3314 415 
Q 2916 -91 2278 -91 
Q 1894 -91 1617 61 
Q 1341 213 1159 525 
L 1159 0 
L 581 0 
L 581 4863 
L 1159 4863 
L 1159 2969 
z
" transform="scale(0.015625)"/>
       <path id="DejaVuSans-6c" d="M 603 4863 
L 1178 4863 
L 1178 0 
L 603 0 
L 603 4863 
z
" transform="scale(0.015625)"/>
      </defs>
      <use xlink:href="#DejaVuSans-6f"/>
      <use xlink:href="#DejaVuSans-62" transform="translate(61.181641 0)"/>
      <use xlink:href="#DejaVuSans-73" transform="translate(124.658203 0)"/>
      <use xlink:href="#DejaVuSans-65" transform="translate(176.757812 0)"/>
      <use xlink:href="#DejaVuSans-72" transform="translate(238.28125 0)"/>
      <use xlink:href="#DejaVuSans-76" transform="translate(279.394531 0)"/>
      <use xlink:href="#DejaVuSans-61" transform="translate(338.574219 0)"/>
      <use xlink:href="#DejaVuSans-62" transform="translate(399.853516 0)"/>
      <use xlink:href="#DejaVuSans-6c" transform="translate(463.330078 0)"/>
      <use xlink:href="#DejaVuSans-65" transform="translate(491.113281 0)"/>
     </g>
    </g>
   </g>
  </g>
  <g id="axes_2">
   <g id="patch_8">
    <path d="M 394.363636 320.4 
L 648 320.4 
L 648 43.2 
L 394.363636 43.2 
z
" style="fill: #ffffff"/>
   </g>
   <g id="matplotlib.axis_3">
    <g id="xtick_8">
     <g id="line2d_18">
      <g>
       <use xlink:href="#m1cd726e751" x="413.27512" y="320.4" style="stroke: #000000; stroke-width: 0.8"/>
      </g>
     </g>
     <g id="text_19">
      <!-- 0 -->
      <g transform="translate(410.09387 334.998438) scale(0.1 -0.1)">
       <use xlink:href="#DejaVuSans-30"/>
      </g>
     </g>
    </g>
    <g id="xtick_9">
     <g id="line2d_19">
      <g>
       <use xlink:href="#m1cd726e751" x="450.356459" y="320.4" style="stroke: #000000; stroke-width: 0.8"/>
      </g>
     </g>
     <g id="text_20">
      <!-- 500 -->
      <g transform="translate(440.812709 334.998438) scale(0.1 -0.1)">
       <use xlink:href="#DejaVuSans-35"/>
       <use xlink:href="#DejaVuSans-30" transform="translate(63.623047 0)"/>
       <use xlink:href="#DejaVuSans-30" transform="translate(127.246094 0)"/>
      </g>
     </g>
    </g>
    <g id="xtick_10">
     <g id="line2d_20">
      <g>
       <use xlink:href="#m1cd726e751" x="487.437799" y="320.4" style="stroke: #000000; stroke-width: 0.8"/>
      </g>
     </g>
     <g id="text_21">
      <!-- 1000 -->
      <g transform="translate(474.712799 334.998438) scale(0.1 -0.1)">
       <use xlink:href="#DejaVuSans-31"/>
       <use xlink:href="#DejaVuSans-30" transform="translate(63.623047 0)"/>
       <use xlink:href="#DejaVuSans-30" transform="translate(127.246094 0)"/>
       <use xlink:href="#DejaVuSans-30" transform="translate(190.869141 0)"/>
      </g>
     </g>
    </g>
    <g id="xtick_11">
     <g id="line2d_21">
      <g>
       <use xlink:href="#m1cd726e751" x="524.519139" y="320.4" style="stroke: #000000; stroke-width: 0.8"/>
      </g>
     </g>
     <g id="text_22">
      <!-- 1500 -->
      <g transform="translate(511.794139 334.998438) scale(0.1 -0.1)">
       <use xlink:href="#DejaVuSans-31"/>
       <use xlink:href="#DejaVuSans-35" transform="translate(63.623047 0)"/>
       <use xlink:href="#DejaVuSans-30" transform="translate(127.246094 0)"/>
       <use xlink:href="#DejaVuSans-30" transform="translate(190.869141 0)"/>
      </g>
     </g>
    </g>
    <g id="xtick_12">
     <g id="line2d_22">
      <g>
       <use xlink:href="#m1cd726e751" x="561.600478" y="320.4" style="stroke: #000000; stroke-width: 0.8"/>
      </g>
     </g>
     <g id="text_23">
      <!-- 2000 -->
      <g transform="translate(548.875478 334.998438) scale(0.1 -0.1)">
       <use xlink:href="#DejaVuSans-32"/>
       <use xlink:href="#DejaVuSans-30" transform="translate(63.623047 0)"/>
       <use xlink:href="#DejaVuSans-30" transform="translate(127.246094 0)"/>
       <use xlink:href="#DejaVuSans-30" transform="translate(190.869141 0)"/>
      </g>
     </g>
    </g>
    <g id="xtick_13">
     <g id="line2d_23">
      <g>
       <use xlink:href="#m1cd726e751" x="598.681818" y="320.4" style="stroke: #000000; stroke-width: 0.8"/>
      </g>
     </g>
     <g id="text_24">
      <!-- 2500 -->
      <g transform="translate(585.956818 334.998438) scale(0.1 -0.1)">
       <use xlink:href="#DejaVuSans-32"/>
       <use xlink:href="#DejaVuSans-35" transform="translate(63.623047 0)"/>
       <use xlink:href="#DejaVuSans-30" transform="translate(127.246094 0)"/>
       <use xlink:href="#DejaVuSans-30" transform="translate(190.869141 0)"/>
      </g>
     </g>
    </g>
    <g id="xtick_14">
     <g id="line2d_24">
      <g>
       <use xlink:href="#m1cd726e751" x="635.763158" y="320.4" style="stroke: #000000; stroke-width: 0.8"/>
      </g>
     </g>
     <g id="text_25">
      <!-- 3000 -->
      <g transform="translate(623.038158 334.998438) scale(0.1 -0.1)">
       <use xlink:href="#DejaVuSans-33"/>
       <use xlink:href="#DejaVuSans-30" transform="translate(63.623047 0)"/>
       <use xlink:href="#DejaVuSans-30" transform="translate(127.246094 0)"/>
       <use xlink:href="#DejaVuSans-30" transform="translate(190.869141 0)"/>
      </g>
     </g>
    </g>
    <g id="text_26">
     <!-- time -->
     <g transform="translate(507.626506 350.19625) scale(0.12 -0.12)">
      <use xlink:href="#DejaVuSans-74"/>
      <use xlink:href="#DejaVuSans-69" transform="translate(39.208984 0)"/>
      <use xlink:href="#DejaVuSans-6d" transform="translate(66.992188 0)"/>
      <use xlink:href="#DejaVuSans-65" transform="translate(164.404297 0)"/>
     </g>
    </g>
   </g>
   <g id="matplotlib.axis_4">
    <g id="ytick_7">
     <g id="line2d_25">
      <g>
       <use xlink:href="#m84ee209bed" x="394.363636" y="315.415729" style="stroke: #000000; stroke-width: 0.8"/>
      </g>
     </g>
     <g id="text_27">
      <!-- $\mathdefault{10^{-6}}$ -->
      <g transform="translate(363.863636 319.214947) scale(0.1 -0.1)">
       <defs>
        <path id="DejaVuSans-2212" d="M 678 2272 
L 4684 2272 
L 4684 1741 
L 678 1741 
L 678 2272 
z
" transform="scale(0.015625)"/>
       </defs>
       <use xlink:href="#DejaVuSans-31" transform="translate(0 0.765625)"/>
       <use xlink:href="#DejaVuSans-30" transform="translate(63.623047 0.765625)"/>
       <use xlink:href="#DejaVuSans-2212" transform="translate(128.203125 39.046875) scale(0.7)"/>
       <use xlink:href="#DejaVuSans-36" transform="translate(186.855469 39.046875) scale(0.7)"/>
      </g>
     </g>
    </g>
    <g id="ytick_8">
     <g id="line2d_26">
      <g>
       <use xlink:href="#m84ee209bed" x="394.363636" y="234.12298" style="stroke: #000000; stroke-width: 0.8"/>
      </g>
     </g>
     <g id="text_28">
      <!-- $\mathdefault{10^{-5}}$ -->
      <g transform="translate(363.863636 237.922199) scale(0.1 -0.1)">
       <use xlink:href="#DejaVuSans-31" transform="translate(0 0.684375)"/>
       <use xlink:href="#DejaVuSans-30" transform="translate(63.623047 0.684375)"/>
       <use xlink:href="#DejaVuSans-2212" transform="translate(128.203125 38.965625) scale(0.7)"/>
       <use xlink:href="#DejaVuSans-35" transform="translate(186.855469 38.965625) scale(0.7)"/>
      </g>
     </g>
    </g>
    <g id="ytick_9">
     <g id="line2d_27">
      <g>
       <use xlink:href="#m84ee209bed" x="394.363636" y="152.830232" style="stroke: #000000; stroke-width: 0.8"/>
      </g>
     </g>
     <g id="text_29">
      <!-- $\mathdefault{10^{-4}}$ -->
      <g transform="translate(363.863636 156.62945) scale(0.1 -0.1)">
       <use xlink:href="#DejaVuSans-31" transform="translate(0 0.684375)"/>
       <use xlink:href="#DejaVuSans-30" transform="translate(63.623047 0.684375)"/>
       <use xlink:href="#DejaVuSans-2212" transform="translate(128.203125 38.965625) scale(0.7)"/>
       <use xlink:href="#DejaVuSans-34" transform="translate(186.855469 38.965625) scale(0.7)"/>
      </g>
     </g>
    </g>
    <g id="ytick_10">
     <g id="line2d_28">
      <g>
       <use xlink:href="#m84ee209bed" x="394.363636" y="71.537483" style="stroke: #000000; stroke-width: 0.8"/>
      </g>
     </g>
     <g id="text_30">
      <!-- $\mathdefault{10^{-3}}$ -->
      <g transform="translate(363.863636 75.336702) scale(0.1 -0.1)">
       <use xlink:href="#DejaVuSans-31" transform="translate(0 0.765625)"/>
       <use xlink:href="#DejaVuSans-30" transform="translate(63.623047 0.765625)"/>
       <use xlink:href="#DejaVuSans-2212" transform="translate(128.203125 39.046875) scale(0.7)"/>
       <use xlink:href="#DejaVuSans-33" transform="translate(186.855469 39.046875) scale(0.7)"/>
      </g>
     </g>
    </g>
    <g id="ytick_11">
     <g id="line2d_29">
      <defs>
       <path id="mbf4b285e24" d="M 0 0 
L -2 0 
" style="stroke: #000000; stroke-width: 0.6"/>
      </defs>
      <g>
       <use xlink:href="#mbf4b285e24" x="394.363636" y="319.135481" style="stroke: #000000; stroke-width: 0.6"/>
      </g>
     </g>
    </g>
    <g id="ytick_12">
     <g id="line2d_30">
      <g>
       <use xlink:href="#mbf4b285e24" x="394.363636" y="290.944173" style="stroke: #000000; stroke-width: 0.6"/>
      </g>
     </g>
    </g>
    <g id="ytick_13">
     <g id="line2d_31">
      <g>
       <use xlink:href="#mbf4b285e24" x="394.363636" y="276.62923" style="stroke: #000000; stroke-width: 0.6"/>
      </g>
     </g>
    </g>
    <g id="ytick_14">
     <g id="line2d_32">
      <g>
       <use xlink:href="#mbf4b285e24" x="394.363636" y="266.472617" style="stroke: #000000; stroke-width: 0.6"/>
      </g>
     </g>
    </g>
    <g id="ytick_15">
     <g id="line2d_33">
      <g>
       <use xlink:href="#mbf4b285e24" x="394.363636" y="258.594536" style="stroke: #000000; stroke-width: 0.6"/>
      </g>
     </g>
    </g>
    <g id="ytick_16">
     <g id="line2d_34">
      <g>
       <use xlink:href="#mbf4b285e24" x="394.363636" y="252.157675" style="stroke: #000000; stroke-width: 0.6"/>
      </g>
     </g>
    </g>
    <g id="ytick_17">
     <g id="line2d_35">
      <g>
       <use xlink:href="#mbf4b285e24" x="394.363636" y="246.715386" style="stroke: #000000; stroke-width: 0.6"/>
      </g>
     </g>
    </g>
    <g id="ytick_18">
     <g id="line2d_36">
      <g>
       <use xlink:href="#mbf4b285e24" x="394.363636" y="242.001061" style="stroke: #000000; stroke-width: 0.6"/>
      </g>
     </g>
    </g>
    <g id="ytick_19">
     <g id="line2d_37">
      <g>
       <use xlink:href="#mbf4b285e24" x="394.363636" y="237.842732" style="stroke: #000000; stroke-width: 0.6"/>
      </g>
     </g>
    </g>
    <g id="ytick_20">
     <g id="line2d_38">
      <g>
       <use xlink:href="#mbf4b285e24" x="394.363636" y="209.651424" style="stroke: #000000; stroke-width: 0.6"/>
      </g>
     </g>
    </g>
    <g id="ytick_21">
     <g id="line2d_39">
      <g>
       <use xlink:href="#mbf4b285e24" x="394.363636" y="195.336482" style="stroke: #000000; stroke-width: 0.6"/>
      </g>
     </g>
    </g>
    <g id="ytick_22">
     <g id="line2d_40">
      <g>
       <use xlink:href="#mbf4b285e24" x="394.363636" y="185.179869" style="stroke: #000000; stroke-width: 0.6"/>
      </g>
     </g>
    </g>
    <g id="ytick_23">
     <g id="line2d_41">
      <g>
       <use xlink:href="#mbf4b285e24" x="394.363636" y="177.301787" style="stroke: #000000; stroke-width: 0.6"/>
      </g>
     </g>
    </g>
    <g id="ytick_24">
     <g id="line2d_42">
      <g>
       <use xlink:href="#mbf4b285e24" x="394.363636" y="170.864926" style="stroke: #000000; stroke-width: 0.6"/>
      </g>
     </g>
    </g>
    <g id="ytick_25">
     <g id="line2d_43">
      <g>
       <use xlink:href="#mbf4b285e24" x="394.363636" y="165.422638" style="stroke: #000000; stroke-width: 0.6"/>
      </g>
     </g>
    </g>
    <g id="ytick_26">
     <g id="line2d_44">
      <g>
       <use xlink:href="#mbf4b285e24" x="394.363636" y="160.708313" style="stroke: #000000; stroke-width: 0.6"/>
      </g>
     </g>
    </g>
    <g id="ytick_27">
     <g id="line2d_45">
      <g>
       <use xlink:href="#mbf4b285e24" x="394.363636" y="156.549984" style="stroke: #000000; stroke-width: 0.6"/>
      </g>
     </g>
    </g>
    <g id="ytick_28">
     <g id="line2d_46">
      <g>
       <use xlink:href="#mbf4b285e24" x="394.363636" y="128.358676" style="stroke: #000000; stroke-width: 0.6"/>
      </g>
     </g>
    </g>
    <g id="ytick_29">
     <g id="line2d_47">
      <g>
       <use xlink:href="#mbf4b285e24" x="394.363636" y="114.043734" style="stroke: #000000; stroke-width: 0.6"/>
      </g>
     </g>
    </g>
    <g id="ytick_30">
     <g id="line2d_48">
      <g>
       <use xlink:href="#mbf4b285e24" x="394.363636" y="103.88712" style="stroke: #000000; stroke-width: 0.6"/>
      </g>
     </g>
    </g>
    <g id="ytick_31">
     <g id="line2d_49">
      <g>
       <use xlink:href="#mbf4b285e24" x="394.363636" y="96.009039" style="stroke: #000000; stroke-width: 0.6"/>
      </g>
     </g>
    </g>
    <g id="ytick_32">
     <g id="line2d_50">
      <g>
       <use xlink:href="#mbf4b285e24" x="394.363636" y="89.572178" style="stroke: #000000; stroke-width: 0.6"/>
      </g>
     </g>
    </g>
    <g id="ytick_33">
     <g id="line2d_51">
      <g>
       <use xlink:href="#mbf4b285e24" x="394.363636" y="84.129889" style="stroke: #000000; stroke-width: 0.6"/>
      </g>
     </g>
    </g>
    <g id="ytick_34">
     <g id="line2d_52">
      <g>
       <use xlink:href="#mbf4b285e24" x="394.363636" y="79.415565" style="stroke: #000000; stroke-width: 0.6"/>
      </g>
     </g>
    </g>
    <g id="ytick_35">
     <g id="line2d_53">
      <g>
       <use xlink:href="#mbf4b285e24" x="394.363636" y="75.257235" style="stroke: #000000; stroke-width: 0.6"/>
      </g>
     </g>
    </g>
    <g id="ytick_36">
     <g id="line2d_54">
      <g>
       <use xlink:href="#mbf4b285e24" x="394.363636" y="47.065928" style="stroke: #000000; stroke-width: 0.6"/>
      </g>
     </g>
    </g>
    <g id="text_31">
     <!-- [Cve_api] -->
     <g transform="translate(357.034261 210.0675) rotate(-90) scale(0.12 -0.12)">
      <use xlink:href="#DejaVuSans-5b"/>
      <use xlink:href="#DejaVuSans-43" transform="translate(39.013672 0)"/>
      <use xlink:href="#DejaVuSans-76" transform="translate(108.837891 0)"/>
      <use xlink:href="#DejaVuSans-65" transform="translate(168.017578 0)"/>
      <use xlink:href="#DejaVuSans-5f" transform="translate(229.541016 0)"/>
      <use xlink:href="#DejaVuSans-61" transform="translate(279.541016 0)"/>
      <use xlink:href="#DejaVuSans-70" transform="translate(340.820312 0)"/>
      <use xlink:href="#DejaVuSans-69" transform="translate(404.296875 0)"/>
      <use xlink:href="#DejaVuSans-5d" transform="translate(432.080078 0)"/>
     </g>
    </g>
   </g>
   <g id="line2d_55">
    <g clip-path="url(#p0f4fb61961)">
     <use xlink:href="#m117f38dc31" x="415.5" y="219.261648" style="stroke: #000000; stroke-linejoin: miter"/>
     <use xlink:href="#m117f38dc31" x="417.72488" y="176.504115" style="stroke: #000000; stroke-linejoin: miter"/>
     <use xlink:href="#m117f38dc31" x="419.949761" y="164.764745" style="stroke: #000000; stroke-linejoin: miter"/>
     <use xlink:href="#m117f38dc31" x="422.174641" y="160.57411" style="stroke: #000000; stroke-linejoin: miter"/>
     <use xlink:href="#m117f38dc31" x="424.399522" y="157.226585" style="stroke: #000000; stroke-linejoin: miter"/>
     <use xlink:href="#m117f38dc31" x="426.624402" y="153.867198" style="stroke: #000000; stroke-linejoin: miter"/>
     <use xlink:href="#m117f38dc31" x="431.074163" y="153.867198" style="stroke: #000000; stroke-linejoin: miter"/>
     <use xlink:href="#m117f38dc31" x="439.973684" y="166.441523" style="stroke: #000000; stroke-linejoin: miter"/>
     <use xlink:href="#m117f38dc31" x="448.873206" y="179.009728" style="stroke: #000000; stroke-linejoin: miter"/>
     <use xlink:href="#m117f38dc31" x="457.772727" y="190.74402" style="stroke: #000000; stroke-linejoin: miter"/>
     <use xlink:href="#m117f38dc31" x="466.672249" y="201.642967" style="stroke: #000000; stroke-linejoin: miter"/>
     <use xlink:href="#m117f38dc31" x="493.370813" y="225.961753" style="stroke: #000000; stroke-linejoin: miter"/>
     <use xlink:href="#m117f38dc31" x="520.069378" y="236.878527" style="stroke: #000000; stroke-linejoin: miter"/>
     <use xlink:href="#m117f38dc31" x="573.466507" y="270.282122" style="stroke: #000000; stroke-linejoin: miter"/>
     <use xlink:href="#m117f38dc31" x="626.863636" y="277.89375" style="stroke: #000000; stroke-linejoin: miter"/>
    </g>
   </g>
   <g id="line2d_56">
    <path d="M 413.30788 361 
L 413.449825 264.67705 
L 413.713175 229.43038 
L 414.08684 208.456672 
L 414.600507 193.220463 
L 415.127692 183.740979 
L 415.578077 178.092234 
L 416.127389 173.012643 
L 416.951357 167.703687 
L 417.795894 164.046596 
L 418.640431 161.534169 
L 419.484968 159.795116 
L 419.907236 159.141288 
L 420.598722 158.312568 
L 422.058639 157.300133 
L 422.862483 157.051244 
L 423.666326 156.960719 
L 425.274012 157.129169 
L 427.379242 157.817668 
L 429.875393 159.029505 
L 432.371545 160.475211 
L 436.795386 163.30427 
L 445.64307 169.295256 
L 470.876371 186.740504 
L 517.697654 219.402611 
L 608.739038 283.244544 
L 719.465399 361 
L 719.465399 361 
" clip-path="url(#p0f4fb61961)" style="fill: none; stroke: #0000ff; stroke-width: 1.5; stroke-linecap: square"/>
   </g>
   <g id="patch_9">
    <path d="M 394.363636 320.4 
L 394.363636 43.2 
" style="fill: none; stroke: #000000; stroke-width: 0.8; stroke-linejoin: miter; stroke-linecap: square"/>
   </g>
   <g id="patch_10">
    <path d="M 648 320.4 
L 648 43.2 
" style="fill: none; stroke: #000000; stroke-width: 0.8; stroke-linejoin: miter; stroke-linecap: square"/>
   </g>
   <g id="patch_11">
    <path d="M 394.363636 320.4 
L 648 320.4 
" style="fill: none; stroke: #000000; stroke-width: 0.8; stroke-linejoin: miter; stroke-linecap: square"/>
   </g>
   <g id="patch_12">
    <path d="M 394.363636 43.2 
L 648 43.2 
" style="fill: none; stroke: #000000; stroke-width: 0.8; stroke-linejoin: miter; stroke-linecap: square"/>
   </g>
   <g id="text_32">
    <!-- Frost2018 fm_api_API2.5_caucasian -->
    <g transform="translate(396.531506 37.2) scale(0.14 -0.14)">
     <use xlink:href="#DejaVuSans-46"/>
     <use xlink:href="#DejaVuSans-72" transform="translate(50.269531 0)"/>
     <use xlink:href="#DejaVuSans-6f" transform="translate(89.132812 0)"/>
     <use xlink:href="#DejaVuSans-73" transform="translate(150.314453 0)"/>
     <use xlink:href="#DejaVuSans-74" transform="translate(202.414062 0)"/>
     <use xlink:href="#DejaVuSans-32" transform="translate(241.623047 0)"/>
     <use xlink:href="#DejaVuSans-30" transform="translate(305.246094 0)"/>
     <use xlink:href="#DejaVuSans-31" transform="translate(368.869141 0)"/>
     <use xlink:href="#DejaVuSans-38" transform="translate(432.492188 0)"/>
     <use xlink:href="#DejaVuSans-20" transform="translate(496.115234 0)"/>
     <use xlink:href="#DejaVuSans-66" transform="translate(527.902344 0)"/>
     <use xlink:href="#DejaVuSans-6d" transform="translate(563.107422 0)"/>
     <use xlink:href="#DejaVuSans-5f" transform="translate(660.519531 0)"/>
     <use xlink:href="#DejaVuSans-61" transform="translate(710.519531 0)"/>
     <use xlink:href="#DejaVuSans-70" transform="translate(771.798828 0)"/>
     <use xlink:href="#DejaVuSans-69" transform="translate(835.275391 0)"/>
     <use xlink:href="#DejaVuSans-5f" transform="translate(863.058594 0)"/>
     <use xlink:href="#DejaVuSans-41" transform="translate(913.058594 0)"/>
     <use xlink:href="#DejaVuSans-50" transform="translate(981.466797 0)"/>
     <use xlink:href="#DejaVuSans-49" transform="translate(1041.769531 0)"/>
     <use xlink:href="#DejaVuSans-32" transform="translate(1071.261719 0)"/>
     <use xlink:href="#DejaVuSans-2e" transform="translate(1134.884766 0)"/>
     <use xlink:href="#DejaVuSans-35" transform="translate(1166.671875 0)"/>
     <use xlink:href="#DejaVuSans-5f" transform="translate(1230.294922 0)"/>
     <use xlink:href="#DejaVuSans-63" transform="translate(1280.294922 0)"/>
     <use xlink:href="#DejaVuSans-61" transform="translate(1335.275391 0)"/>
     <use xlink:href="#DejaVuSans-75" transform="translate(1396.554688 0)"/>
     <use xlink:href="#DejaVuSans-63" transform="translate(1459.933594 0)"/>
     <use xlink:href="#DejaVuSans-61" transform="translate(1514.914062 0)"/>
     <use xlink:href="#DejaVuSans-73" transform="translate(1576.193359 0)"/>
     <use xlink:href="#DejaVuSans-69" transform="translate(1628.292969 0)"/>
     <use xlink:href="#DejaVuSans-61" transform="translate(1656.076172 0)"/>
     <use xlink:href="#DejaVuSans-6e" transform="translate(1717.355469 0)"/>
    </g>
   </g>
   <g id="legend_2">
    <g id="patch_13">
     <path d="M 533.734375 80.834375 
L 641 80.834375 
Q 643 80.834375 643 78.834375 
L 643 50.2 
Q 643 48.2 641 48.2 
L 533.734375 48.2 
Q 531.734375 48.2 531.734375 50.2 
L 531.734375 78.834375 
Q 531.734375 80.834375 533.734375 80.834375 
z
" style="fill: #ffffff; opacity: 0.8; stroke: #cccccc; stroke-linejoin: miter"/>
    </g>
    <g id="line2d_57">
     <g>
      <use xlink:href="#m117f38dc31" x="545.734375" y="56.298437" style="stroke: #000000; stroke-linejoin: miter"/>
     </g>
    </g>
    <g id="text_33">
     <!-- reference_data -->
     <g transform="translate(563.734375 59.798437) scale(0.1 -0.1)">
      <use xlink:href="#DejaVuSans-72"/>
      <use xlink:href="#DejaVuSans-65" transform="translate(38.863281 0)"/>
      <use xlink:href="#DejaVuSans-66" transform="translate(100.386719 0)"/>
      <use xlink:href="#DejaVuSans-65" transform="translate(135.591797 0)"/>
      <use xlink:href="#DejaVuSans-72" transform="translate(197.115234 0)"/>
      <use xlink:href="#DejaVuSans-65" transform="translate(235.978516 0)"/>
      <use xlink:href="#DejaVuSans-6e" transform="translate(297.501953 0)"/>
      <use xlink:href="#DejaVuSans-63" transform="translate(360.880859 0)"/>
      <use xlink:href="#DejaVuSans-65" transform="translate(415.861328 0)"/>
      <use xlink:href="#DejaVuSans-5f" transform="translate(477.384766 0)"/>
      <use xlink:href="#DejaVuSans-64" transform="translate(527.384766 0)"/>
      <use xlink:href="#DejaVuSans-61" transform="translate(590.861328 0)"/>
      <use xlink:href="#DejaVuSans-74" transform="translate(652.140625 0)"/>
      <use xlink:href="#DejaVuSans-61" transform="translate(691.349609 0)"/>
     </g>
    </g>
    <g id="line2d_58">
     <path d="M 535.734375 71.254687 
L 545.734375 71.254687 
L 555.734375 71.254687 
" style="fill: none; stroke: #0000ff; stroke-width: 1.5; stroke-linecap: square"/>
    </g>
    <g id="text_34">
     <!-- observable -->
     <g transform="translate(563.734375 74.754687) scale(0.1 -0.1)">
      <use xlink:href="#DejaVuSans-6f"/>
      <use xlink:href="#DejaVuSans-62" transform="translate(61.181641 0)"/>
      <use xlink:href="#DejaVuSans-73" transform="translate(124.658203 0)"/>
      <use xlink:href="#DejaVuSans-65" transform="translate(176.757812 0)"/>
      <use xlink:href="#DejaVuSans-72" transform="translate(238.28125 0)"/>
      <use xlink:href="#DejaVuSans-76" transform="translate(279.394531 0)"/>
      <use xlink:href="#DejaVuSans-61" transform="translate(338.574219 0)"/>
      <use xlink:href="#DejaVuSans-62" transform="translate(399.853516 0)"/>
      <use xlink:href="#DejaVuSans-6c" transform="translate(463.330078 0)"/>
      <use xlink:href="#DejaVuSans-65" transform="translate(491.113281 0)"/>
     </g>
    </g>
   </g>
  </g>
 </g>
 <defs>
  <clipPath id="pf43570f456">
   <rect x="90" y="43.2" width="253.636364" height="277.2"/>
  </clipPath>
  <clipPath id="p0f4fb61961">
   <rect x="394.363636" y="43.2" width="253.636364" height="277.2"/>
  </clipPath>
 </defs>
</svg>
