<?xml version="1.0" encoding="utf-8" standalone="no"?>
<!DOCTYPE svg PUBLIC "-//W3C//DTD SVG 1.1//EN"
  "http://www.w3.org/Graphics/SVG/1.1/DTD/svg11.dtd">
<svg xmlns:xlink="http://www.w3.org/1999/xlink" width="360pt" height="360pt" viewBox="0 0 360 360" xmlns="http://www.w3.org/2000/svg" version="1.1">
 <metadata>
  <rdf:RDF xmlns:dc="http://purl.org/dc/elements/1.1/" xmlns:cc="http://creativecommons.org/ns#" xmlns:rdf="http://www.w3.org/1999/02/22-rdf-syntax-ns#">
   <cc:Work>
    <dc:type rdf:resource="http://purl.org/dc/dcmitype/StillImage"/>
    <dc:date>2026-04-15T17:21:09.979305</dc:date>
    <dc:format>image/svg+xml</dc:format>
    <dc:creator>
     <cc:Agent>
      <dc:title>Matplotlib v3.10.7, https://matplotlib.org/</dc:title>
     </cc:Agent>
    </dc:creator>
   </cc:Work>
  </rdf:RDF>
 </metadata>
 <defs>
  <style type="text/css">*{stroke-linejoin: round; stroke-linecap: butt}</style>
 </defs>
 <g id="figure_1">
  <g id="patch_1">
   <path d="M 0 360 
L 360 360 
L 360 0 
L 0 0 
z
" style="fill: #ffffff"/>
  </g>
  <g id="axes_1">
   <g id="patch_2">
    <path d="M 45 320.4 
L 324 320.4 
L 324 43.2 
L 45 43.2 
z
" style="fill: #ffffff"/>
   </g>
   <g id="matplotlib.axis_1">
    <g id="xtick_1">
     <g id="line2d_1">
      <defs>
       <path id="m4998d74de9" d="M 0 0 
L 0 3.5 
" style="stroke: #000000; stroke-width: 0.8"/>
      </defs>
      <g>
       <use xlink:href="#m4998d74de9" x="57.681818" y="320.4" style="stroke: #000000; stroke-width: 0.8"/>
      </g>
     </g>
     <g id="text_1">
      <!-- 0 -->
      <g transform="translate(54.500568 334.998438) scale(0.1 -0.1)">
       <defs>
        <path id="DejaVuSans-30" d="M 2034 4250 
Q 1547 4250 1301 3770 
Q 1056 3291 1056 2328 
Q 1056 1369 1301 889 
Q 1547 409 2034 409 
Q 2525 409 2770 889 
Q 3016 1369 3016 2328 
Q 3016 3291 2770 3770 
Q 2525 4250 2034 4250 
z
M 2034 4750 
Q 2819 4750 3233 4129 
Q 3647 3509 3647 2328 
Q 3647 1150 3233 529 
Q 2819 -91 2034 -91 
Q 1250 -91 836 529 
Q 422 1150 422 2328 
Q 422 3509 836 4129 
Q 1250 4750 2034 4750 
z
" transform="scale(0.015625)"/>
       </defs>
       <use xlink:href="#DejaVuSans-30"/>
      </g>
     </g>
    </g>
    <g id="xtick_2">
     <g id="line2d_2">
      <g>
       <use xlink:href="#m4998d74de9" x="109.025212" y="320.4" style="stroke: #000000; stroke-width: 0.8"/>
      </g>
     </g>
     <g id="text_2">
      <!-- 50 -->
      <g transform="translate(102.662712 334.998438) scale(0.1 -0.1)">
       <defs>
        <path id="DejaVuSans-35" d="M 691 4666 
L 3169 4666 
L 3169 4134 
L 1269 4134 
L 1269 2991 
Q 1406 3038 1543 3061 
Q 1681 3084 1819 3084 
Q 2600 3084 3056 2656 
Q 3513 2228 3513 1497 
Q 3513 744 3044 326 
Q 2575 -91 1722 -91 
Q 1428 -91 1123 -41 
Q 819 9 494 109 
L 494 744 
Q 775 591 1075 516 
Q 1375 441 1709 441 
Q 2250 441 2565 725 
Q 2881 1009 2881 1497 
Q 2881 1984 2565 2268 
Q 2250 2553 1709 2553 
Q 1456 2553 1204 2497 
Q 953 2441 691 2322 
L 691 4666 
z
" transform="scale(0.015625)"/>
       </defs>
       <use xlink:href="#DejaVuSans-35"/>
       <use xlink:href="#DejaVuSans-30" transform="translate(63.623047 0)"/>
      </g>
     </g>
    </g>
    <g id="xtick_3">
     <g id="line2d_3">
      <g>
       <use xlink:href="#m4998d74de9" x="160.368605" y="320.4" style="stroke: #000000; stroke-width: 0.8"/>
      </g>
     </g>
     <g id="text_3">
      <!-- 100 -->
      <g transform="translate(150.824855 334.998438) scale(0.1 -0.1)">
       <defs>
        <path id="DejaVuSans-31" d="M 794 531 
L 1825 531 
L 1825 4091 
L 703 3866 
L 703 4441 
L 1819 4666 
L 2450 4666 
L 2450 531 
L 3481 531 
L 3481 0 
L 794 0 
L 794 531 
z
" transform="scale(0.015625)"/>
       </defs>
       <use xlink:href="#DejaVuSans-31"/>
       <use xlink:href="#DejaVuSans-30" transform="translate(63.623047 0)"/>
       <use xlink:href="#DejaVuSans-30" transform="translate(127.246094 0)"/>
      </g>
     </g>
    </g>
    <g id="xtick_4">
     <g id="line2d_4">
      <g>
       <use xlink:href="#m4998d74de9" x="211.711999" y="320.4" style="stroke: #000000; stroke-width: 0.8"/>
      </g>
     </g>
     <g id="text_4">
      <!-- 150 -->
      <g transform="translate(202.168249 334.998438) scale(0.1 -0.1)">
       <use xlink:href="#DejaVuSans-31"/>
       <use xlink:href="#DejaVuSans-35" transform="translate(63.623047 0)"/>
       <use xlink:href="#DejaVuSans-30" transform="translate(127.246094 0)"/>
      </g>
     </g>
    </g>
    <g id="xtick_5">
     <g id="line2d_5">
      <g>
       <use xlink:href="#m4998d74de9" x="263.055392" y="320.4" style="stroke: #000000; stroke-width: 0.8"/>
      </g>
     </g>
     <g id="text_5">
      <!-- 200 -->
      <g transform="translate(253.511642 334.998438) scale(0.1 -0.1)">
       <defs>
        <path id="DejaVuSans-32" d="M 1228 531 
L 3431 531 
L 3431 0 
L 469 0 
L 469 531 
Q 828 903 1448 1529 
Q 2069 2156 2228 2338 
Q 2531 2678 2651 2914 
Q 2772 3150 2772 3378 
Q 2772 3750 2511 3984 
Q 2250 4219 1831 4219 
Q 1534 4219 1204 4116 
Q 875 4013 500 3803 
L 500 4441 
Q 881 4594 1212 4672 
Q 1544 4750 1819 4750 
Q 2544 4750 2975 4387 
Q 3406 4025 3406 3419 
Q 3406 3131 3298 2873 
Q 3191 2616 2906 2266 
Q 2828 2175 2409 1742 
Q 1991 1309 1228 531 
z
" transform="scale(0.015625)"/>
       </defs>
       <use xlink:href="#DejaVuSans-32"/>
       <use xlink:href="#DejaVuSans-30" transform="translate(63.623047 0)"/>
       <use xlink:href="#DejaVuSans-30" transform="translate(127.246094 0)"/>
      </g>
     </g>
    </g>
    <g id="xtick_6">
     <g id="line2d_6">
      <g>
       <use xlink:href="#m4998d74de9" x="314.398785" y="320.4" style="stroke: #000000; stroke-width: 0.8"/>
      </g>
     </g>
     <g id="text_6">
      <!-- 250 -->
      <g transform="translate(304.855035 334.998438) scale(0.1 -0.1)">
       <use xlink:href="#DejaVuSans-32"/>
       <use xlink:href="#DejaVuSans-35" transform="translate(63.623047 0)"/>
       <use xlink:href="#DejaVuSans-30" transform="translate(127.246094 0)"/>
      </g>
     </g>
    </g>
    <g id="text_7">
     <!-- Optimization step -->
     <g transform="translate(131.233125 350.19625) scale(0.12 -0.12)">
      <defs>
       <path id="DejaVuSans-4f" d="M 2522 4238 
Q 1834 4238 1429 3725 
Q 1025 3213 1025 2328 
Q 1025 1447 1429 934 
Q 1834 422 2522 422 
Q 3209 422 3611 934 
Q 4013 1447 4013 2328 
Q 4013 3213 3611 3725 
Q 3209 4238 2522 4238 
z
M 2522 4750 
Q 3503 4750 4090 4092 
Q 4678 3434 4678 2328 
Q 4678 1225 4090 567 
Q 3503 -91 2522 -91 
Q 1538 -91 948 565 
Q 359 1222 359 2328 
Q 359 3434 948 4092 
Q 1538 4750 2522 4750 
z
" transform="scale(0.015625)"/>
       <path id="DejaVuSans-70" d="M 1159 525 
L 1159 -1331 
L 581 -1331 
L 581 3500 
L 1159 3500 
L 1159 2969 
Q 1341 3281 1617 3432 
Q 1894 3584 2278 3584 
Q 2916 3584 3314 3078 
Q 3713 2572 3713 1747 
Q 3713 922 3314 415 
Q 2916 -91 2278 -91 
Q 1894 -91 1617 61 
Q 1341 213 1159 525 
z
M 3116 1747 
Q 3116 2381 2855 2742 
Q 2594 3103 2138 3103 
Q 1681 3103 1420 2742 
Q 1159 2381 1159 1747 
Q 1159 1113 1420 752 
Q 1681 391 2138 391 
Q 2594 391 2855 752 
Q 3116 1113 3116 1747 
z
" transform="scale(0.015625)"/>
       <path id="DejaVuSans-74" d="M 1172 4494 
L 1172 3500 
L 2356 3500 
L 2356 3053 
L 1172 3053 
L 1172 1153 
Q 1172 725 1289 603 
Q 1406 481 1766 481 
L 2356 481 
L 2356 0 
L 1766 0 
Q 1100 0 847 248 
Q 594 497 594 1153 
L 594 3053 
L 172 3053 
L 172 3500 
L 594 3500 
L 594 4494 
L 1172 4494 
z
" transform="scale(0.015625)"/>
       <path id="DejaVuSans-69" d="M 603 3500 
L 1178 3500 
L 1178 0 
L 603 0 
L 603 3500 
z
M 603 4863 
L 1178 4863 
L 1178 4134 
L 603 4134 
L 603 4863 
z
" transform="scale(0.015625)"/>
       <path id="DejaVuSans-6d" d="M 3328 2828 
Q 3544 3216 3844 3400 
Q 4144 3584 4550 3584 
Q 5097 3584 5394 3201 
Q 5691 2819 5691 2113 
L 5691 0 
L 5113 0 
L 5113 2094 
Q 5113 2597 4934 2840 
Q 4756 3084 4391 3084 
Q 3944 3084 3684 2787 
Q 3425 2491 3425 1978 
L 3425 0 
L 2847 0 
L 2847 2094 
Q 2847 2600 2669 2842 
Q 2491 3084 2119 3084 
Q 1678 3084 1418 2786 
Q 1159 2488 1159 1978 
L 1159 0 
L 581 0 
L 581 3500 
L 1159 3500 
L 1159 2956 
Q 1356 3278 1631 3431 
Q 1906 3584 2284 3584 
Q 2666 3584 2933 3390 
Q 3200 3197 3328 2828 
z
" transform="scale(0.015625)"/>
       <path id="DejaVuSans-7a" d="M 353 3500 
L 3084 3500 
L 3084 2975 
L 922 459 
L 3084 459 
L 3084 0 
L 275 0 
L 275 525 
L 2438 3041 
L 353 3041 
L 353 3500 
z
" transform="scale(0.015625)"/>
       <path id="DejaVuSans-61" d="M 2194 1759 
Q 1497 1759 1228 1600 
Q 959 1441 959 1056 
Q 959 750 1161 570 
Q 1363 391 1709 391 
Q 2188 391 2477 730 
Q 2766 1069 2766 1631 
L 2766 1759 
L 2194 1759 
z
M 3341 1997 
L 3341 0 
L 2766 0 
L 2766 531 
Q 2569 213 2275 61 
Q 1981 -91 1556 -91 
Q 1019 -91 701 211 
Q 384 513 384 1019 
Q 384 1609 779 1909 
Q 1175 2209 1959 2209 
L 2766 2209 
L 2766 2266 
Q 2766 2663 2505 2880 
Q 2244 3097 1772 3097 
Q 1472 3097 1187 3025 
Q 903 2953 641 2809 
L 641 3341 
Q 956 3463 1253 3523 
Q 1550 3584 1831 3584 
Q 2591 3584 2966 3190 
Q 3341 2797 3341 1997 
z
" transform="scale(0.015625)"/>
       <path id="DejaVuSans-6f" d="M 1959 3097 
Q 1497 3097 1228 2736 
Q 959 2375 959 1747 
Q 959 1119 1226 758 
Q 1494 397 1959 397 
Q 2419 397 2687 759 
Q 2956 1122 2956 1747 
Q 2956 2369 2687 2733 
Q 2419 3097 1959 3097 
z
M 1959 3584 
Q 2709 3584 3137 3096 
Q 3566 2609 3566 1747 
Q 3566 888 3137 398 
Q 2709 -91 1959 -91 
Q 1206 -91 779 398 
Q 353 888 353 1747 
Q 353 2609 779 3096 
Q 1206 3584 1959 3584 
z
" transform="scale(0.015625)"/>
       <path id="DejaVuSans-6e" d="M 3513 2113 
L 3513 0 
L 2938 0 
L 2938 2094 
Q 2938 2591 2744 2837 
Q 2550 3084 2163 3084 
Q 1697 3084 1428 2787 
Q 1159 2491 1159 1978 
L 1159 0 
L 581 0 
L 581 3500 
L 1159 3500 
L 1159 2956 
Q 1366 3272 1645 3428 
Q 1925 3584 2291 3584 
Q 2894 3584 3203 3211 
Q 3513 2838 3513 2113 
z
" transform="scale(0.015625)"/>
       <path id="DejaVuSans-20" transform="scale(0.015625)"/>
       <path id="DejaVuSans-73" d="M 2834 3397 
L 2834 2853 
Q 2591 2978 2328 3040 
Q 2066 3103 1784 3103 
Q 1356 3103 1142 2972 
Q 928 2841 928 2578 
Q 928 2378 1081 2264 
Q 1234 2150 1697 2047 
L 1894 2003 
Q 2506 1872 2764 1633 
Q 3022 1394 3022 966 
Q 3022 478 2636 193 
Q 2250 -91 1575 -91 
Q 1294 -91 989 -36 
Q 684 19 347 128 
L 347 722 
Q 666 556 975 473 
Q 1284 391 1588 391 
Q 1994 391 2212 530 
Q 2431 669 2431 922 
Q 2431 1156 2273 1281 
Q 2116 1406 1581 1522 
L 1381 1569 
Q 847 1681 609 1914 
Q 372 2147 372 2553 
Q 372 3047 722 3315 
Q 1072 3584 1716 3584 
Q 2034 3584 2315 3537 
Q 2597 3491 2834 3397 
z
" transform="scale(0.015625)"/>
       <path id="DejaVuSans-65" d="M 3597 1894 
L 3597 1613 
L 953 1613 
Q 991 1019 1311 708 
Q 1631 397 2203 397 
Q 2534 397 2845 478 
Q 3156 559 3463 722 
L 3463 178 
Q 3153 47 2828 -22 
Q 2503 -91 2169 -91 
Q 1331 -91 842 396 
Q 353 884 353 1716 
Q 353 2575 817 3079 
Q 1281 3584 2069 3584 
Q 2775 3584 3186 3129 
Q 3597 2675 3597 1894 
z
M 3022 2063 
Q 3016 2534 2758 2815 
Q 2500 3097 2075 3097 
Q 1594 3097 1305 2825 
Q 1016 2553 972 2059 
L 3022 2063 
z
" transform="scale(0.015625)"/>
      </defs>
      <use xlink:href="#DejaVuSans-4f"/>
      <use xlink:href="#DejaVuSans-70" transform="translate(78.710938 0)"/>
      <use xlink:href="#DejaVuSans-74" transform="translate(142.1875 0)"/>
      <use xlink:href="#DejaVuSans-69" transform="translate(181.396484 0)"/>
      <use xlink:href="#DejaVuSans-6d" transform="translate(209.179688 0)"/>
      <use xlink:href="#DejaVuSans-69" transform="translate(306.591797 0)"/>
      <use xlink:href="#DejaVuSans-7a" transform="translate(334.375 0)"/>
      <use xlink:href="#DejaVuSans-61" transform="translate(386.865234 0)"/>
      <use xlink:href="#DejaVuSans-74" transform="translate(448.144531 0)"/>
      <use xlink:href="#DejaVuSans-69" transform="translate(487.353516 0)"/>
      <use xlink:href="#DejaVuSans-6f" transform="translate(515.136719 0)"/>
      <use xlink:href="#DejaVuSans-6e" transform="translate(576.318359 0)"/>
      <use xlink:href="#DejaVuSans-20" transform="translate(639.697266 0)"/>
      <use xlink:href="#DejaVuSans-73" transform="translate(671.484375 0)"/>
      <use xlink:href="#DejaVuSans-74" transform="translate(723.583984 0)"/>
      <use xlink:href="#DejaVuSans-65" transform="translate(762.792969 0)"/>
      <use xlink:href="#DejaVuSans-70" transform="translate(824.316406 0)"/>
     </g>
    </g>
   </g>
   <g id="matplotlib.axis_2">
    <g id="ytick_1">
     <g id="line2d_7">
      <defs>
       <path id="m8ccddd1e45" d="M 0 0 
L -3.5 0 
" style="stroke: #000000; stroke-width: 0.8"/>
      </defs>
      <g>
       <use xlink:href="#m8ccddd1e45" x="45" y="291.316498" style="stroke: #000000; stroke-width: 0.8"/>
      </g>
     </g>
     <g id="text_8">
      <!-- $\mathdefault{10^{3}}$ -->
      <g transform="translate(20.4 295.115717) scale(0.1 -0.1)">
       <defs>
        <path id="DejaVuSans-33" d="M 2597 2516 
Q 3050 2419 3304 2112 
Q 3559 1806 3559 1356 
Q 3559 666 3084 287 
Q 2609 -91 1734 -91 
Q 1441 -91 1130 -33 
Q 819 25 488 141 
L 488 750 
Q 750 597 1062 519 
Q 1375 441 1716 441 
Q 2309 441 2620 675 
Q 2931 909 2931 1356 
Q 2931 1769 2642 2001 
Q 2353 2234 1838 2234 
L 1294 2234 
L 1294 2753 
L 1863 2753 
Q 2328 2753 2575 2939 
Q 2822 3125 2822 3475 
Q 2822 3834 2567 4026 
Q 2313 4219 1838 4219 
Q 1578 4219 1281 4162 
Q 984 4106 628 3988 
L 628 4550 
Q 988 4650 1302 4700 
Q 1616 4750 1894 4750 
Q 2613 4750 3031 4423 
Q 3450 4097 3450 3541 
Q 3450 3153 3228 2886 
Q 3006 2619 2597 2516 
z
" transform="scale(0.015625)"/>
       </defs>
       <use xlink:href="#DejaVuSans-31" transform="translate(0 0.765625)"/>
       <use xlink:href="#DejaVuSans-30" transform="translate(63.623047 0.765625)"/>
       <use xlink:href="#DejaVuSans-33" transform="translate(128.203125 39.046875) scale(0.7)"/>
      </g>
     </g>
    </g>
    <g id="ytick_2">
     <g id="line2d_8">
      <g>
       <use xlink:href="#m8ccddd1e45" x="45" y="233.26564" style="stroke: #000000; stroke-width: 0.8"/>
      </g>
     </g>
     <g id="text_9">
      <!-- $\mathdefault{10^{4}}$ -->
      <g transform="translate(20.4 237.064859) scale(0.1 -0.1)">
       <defs>
        <path id="DejaVuSans-34" d="M 2419 4116 
L 825 1625 
L 2419 1625 
L 2419 4116 
z
M 2253 4666 
L 3047 4666 
L 3047 1625 
L 3713 1625 
L 3713 1100 
L 3047 1100 
L 3047 0 
L 2419 0 
L 2419 1100 
L 313 1100 
L 313 1709 
L 2253 4666 
z
" transform="scale(0.015625)"/>
       </defs>
       <use xlink:href="#DejaVuSans-31" transform="translate(0 0.684375)"/>
       <use xlink:href="#DejaVuSans-30" transform="translate(63.623047 0.684375)"/>
       <use xlink:href="#DejaVuSans-34" transform="translate(128.203125 38.965625) scale(0.7)"/>
      </g>
     </g>
    </g>
    <g id="ytick_3">
     <g id="line2d_9">
      <g>
       <use xlink:href="#m8ccddd1e45" x="45" y="175.214783" style="stroke: #000000; stroke-width: 0.8"/>
      </g>
     </g>
     <g id="text_10">
      <!-- $\mathdefault{10^{5}}$ -->
      <g transform="translate(20.4 179.014001) scale(0.1 -0.1)">
       <use xlink:href="#DejaVuSans-31" transform="translate(0 0.684375)"/>
       <use xlink:href="#DejaVuSans-30" transform="translate(63.623047 0.684375)"/>
       <use xlink:href="#DejaVuSans-35" transform="translate(128.203125 38.965625) scale(0.7)"/>
      </g>
     </g>
    </g>
    <g id="ytick_4">
     <g id="line2d_10">
      <g>
       <use xlink:href="#m8ccddd1e45" x="45" y="117.163925" style="stroke: #000000; stroke-width: 0.8"/>
      </g>
     </g>
     <g id="text_11">
      <!-- $\mathdefault{10^{6}}$ -->
      <g transform="translate(20.4 120.963144) scale(0.1 -0.1)">
       <defs>
        <path id="DejaVuSans-36" d="M 2113 2584 
Q 1688 2584 1439 2293 
Q 1191 2003 1191 1497 
Q 1191 994 1439 701 
Q 1688 409 2113 409 
Q 2538 409 2786 701 
Q 3034 994 3034 1497 
Q 3034 2003 2786 2293 
Q 2538 2584 2113 2584 
z
M 3366 4563 
L 3366 3988 
Q 3128 4100 2886 4159 
Q 2644 4219 2406 4219 
Q 1781 4219 1451 3797 
Q 1122 3375 1075 2522 
Q 1259 2794 1537 2939 
Q 1816 3084 2150 3084 
Q 2853 3084 3261 2657 
Q 3669 2231 3669 1497 
Q 3669 778 3244 343 
Q 2819 -91 2113 -91 
Q 1303 -91 875 529 
Q 447 1150 447 2328 
Q 447 3434 972 4092 
Q 1497 4750 2381 4750 
Q 2619 4750 2861 4703 
Q 3103 4656 3366 4563 
z
" transform="scale(0.015625)"/>
       </defs>
       <use xlink:href="#DejaVuSans-31" transform="translate(0 0.765625)"/>
       <use xlink:href="#DejaVuSans-30" transform="translate(63.623047 0.765625)"/>
       <use xlink:href="#DejaVuSans-36" transform="translate(128.203125 39.046875) scale(0.7)"/>
      </g>
     </g>
    </g>
    <g id="ytick_5">
     <g id="line2d_11">
      <g>
       <use xlink:href="#m8ccddd1e45" x="45" y="59.113067" style="stroke: #000000; stroke-width: 0.8"/>
      </g>
     </g>
     <g id="text_12">
      <!-- $\mathdefault{10^{7}}$ -->
      <g transform="translate(20.4 62.912286) scale(0.1 -0.1)">
       <defs>
        <path id="DejaVuSans-37" d="M 525 4666 
L 3525 4666 
L 3525 4397 
L 1831 0 
L 1172 0 
L 2766 4134 
L 525 4134 
L 525 4666 
z
" transform="scale(0.015625)"/>
       </defs>
       <use xlink:href="#DejaVuSans-31" transform="translate(0 0.684375)"/>
       <use xlink:href="#DejaVuSans-30" transform="translate(63.623047 0.684375)"/>
       <use xlink:href="#DejaVuSans-37" transform="translate(128.203125 38.965625) scale(0.7)"/>
      </g>
     </g>
    </g>
    <g id="ytick_6">
     <g id="line2d_12">
      <defs>
       <path id="mec960f4100" d="M 0 0 
L -2 0 
" style="stroke: #000000; stroke-width: 0.6"/>
      </defs>
      <g>
       <use xlink:href="#mec960f4100" x="45" y="314.417257" style="stroke: #000000; stroke-width: 0.6"/>
      </g>
     </g>
    </g>
    <g id="ytick_7">
     <g id="line2d_13">
      <g>
       <use xlink:href="#mec960f4100" x="45" y="308.791547" style="stroke: #000000; stroke-width: 0.6"/>
      </g>
     </g>
    </g>
    <g id="ytick_8">
     <g id="line2d_14">
      <g>
       <use xlink:href="#mec960f4100" x="45" y="304.195008" style="stroke: #000000; stroke-width: 0.6"/>
      </g>
     </g>
    </g>
    <g id="ytick_9">
     <g id="line2d_15">
      <g>
       <use xlink:href="#mec960f4100" x="45" y="300.30869" style="stroke: #000000; stroke-width: 0.6"/>
      </g>
     </g>
    </g>
    <g id="ytick_10">
     <g id="line2d_16">
      <g>
       <use xlink:href="#mec960f4100" x="45" y="296.942207" style="stroke: #000000; stroke-width: 0.6"/>
      </g>
     </g>
    </g>
    <g id="ytick_11">
     <g id="line2d_17">
      <g>
       <use xlink:href="#mec960f4100" x="45" y="293.97276" style="stroke: #000000; stroke-width: 0.6"/>
      </g>
     </g>
    </g>
    <g id="ytick_12">
     <g id="line2d_18">
      <g>
       <use xlink:href="#mec960f4100" x="45" y="273.841449" style="stroke: #000000; stroke-width: 0.6"/>
      </g>
     </g>
    </g>
    <g id="ytick_13">
     <g id="line2d_19">
      <g>
       <use xlink:href="#mec960f4100" x="45" y="263.6192" style="stroke: #000000; stroke-width: 0.6"/>
      </g>
     </g>
    </g>
    <g id="ytick_14">
     <g id="line2d_20">
      <g>
       <use xlink:href="#mec960f4100" x="45" y="256.366399" style="stroke: #000000; stroke-width: 0.6"/>
      </g>
     </g>
    </g>
    <g id="ytick_15">
     <g id="line2d_21">
      <g>
       <use xlink:href="#mec960f4100" x="45" y="250.74069" style="stroke: #000000; stroke-width: 0.6"/>
      </g>
     </g>
    </g>
    <g id="ytick_16">
     <g id="line2d_22">
      <g>
       <use xlink:href="#mec960f4100" x="45" y="246.14415" style="stroke: #000000; stroke-width: 0.6"/>
      </g>
     </g>
    </g>
    <g id="ytick_17">
     <g id="line2d_23">
      <g>
       <use xlink:href="#mec960f4100" x="45" y="242.257832" style="stroke: #000000; stroke-width: 0.6"/>
      </g>
     </g>
    </g>
    <g id="ytick_18">
     <g id="line2d_24">
      <g>
       <use xlink:href="#mec960f4100" x="45" y="238.89135" style="stroke: #000000; stroke-width: 0.6"/>
      </g>
     </g>
    </g>
    <g id="ytick_19">
     <g id="line2d_25">
      <g>
       <use xlink:href="#mec960f4100" x="45" y="235.921902" style="stroke: #000000; stroke-width: 0.6"/>
      </g>
     </g>
    </g>
    <g id="ytick_20">
     <g id="line2d_26">
      <g>
       <use xlink:href="#mec960f4100" x="45" y="215.790591" style="stroke: #000000; stroke-width: 0.6"/>
      </g>
     </g>
    </g>
    <g id="ytick_21">
     <g id="line2d_27">
      <g>
       <use xlink:href="#mec960f4100" x="45" y="205.568342" style="stroke: #000000; stroke-width: 0.6"/>
      </g>
     </g>
    </g>
    <g id="ytick_22">
     <g id="line2d_28">
      <g>
       <use xlink:href="#mec960f4100" x="45" y="198.315541" style="stroke: #000000; stroke-width: 0.6"/>
      </g>
     </g>
    </g>
    <g id="ytick_23">
     <g id="line2d_29">
      <g>
       <use xlink:href="#mec960f4100" x="45" y="192.689832" style="stroke: #000000; stroke-width: 0.6"/>
      </g>
     </g>
    </g>
    <g id="ytick_24">
     <g id="line2d_30">
      <g>
       <use xlink:href="#mec960f4100" x="45" y="188.093293" style="stroke: #000000; stroke-width: 0.6"/>
      </g>
     </g>
    </g>
    <g id="ytick_25">
     <g id="line2d_31">
      <g>
       <use xlink:href="#mec960f4100" x="45" y="184.206974" style="stroke: #000000; stroke-width: 0.6"/>
      </g>
     </g>
    </g>
    <g id="ytick_26">
     <g id="line2d_32">
      <g>
       <use xlink:href="#mec960f4100" x="45" y="180.840492" style="stroke: #000000; stroke-width: 0.6"/>
      </g>
     </g>
    </g>
    <g id="ytick_27">
     <g id="line2d_33">
      <g>
       <use xlink:href="#mec960f4100" x="45" y="177.871044" style="stroke: #000000; stroke-width: 0.6"/>
      </g>
     </g>
    </g>
    <g id="ytick_28">
     <g id="line2d_34">
      <g>
       <use xlink:href="#mec960f4100" x="45" y="157.739733" style="stroke: #000000; stroke-width: 0.6"/>
      </g>
     </g>
    </g>
    <g id="ytick_29">
     <g id="line2d_35">
      <g>
       <use xlink:href="#mec960f4100" x="45" y="147.517485" style="stroke: #000000; stroke-width: 0.6"/>
      </g>
     </g>
    </g>
    <g id="ytick_30">
     <g id="line2d_36">
      <g>
       <use xlink:href="#mec960f4100" x="45" y="140.264684" style="stroke: #000000; stroke-width: 0.6"/>
      </g>
     </g>
    </g>
    <g id="ytick_31">
     <g id="line2d_37">
      <g>
       <use xlink:href="#mec960f4100" x="45" y="134.638974" style="stroke: #000000; stroke-width: 0.6"/>
      </g>
     </g>
    </g>
    <g id="ytick_32">
     <g id="line2d_38">
      <g>
       <use xlink:href="#mec960f4100" x="45" y="130.042435" style="stroke: #000000; stroke-width: 0.6"/>
      </g>
     </g>
    </g>
    <g id="ytick_33">
     <g id="line2d_39">
      <g>
       <use xlink:href="#mec960f4100" x="45" y="126.156117" style="stroke: #000000; stroke-width: 0.6"/>
      </g>
     </g>
    </g>
    <g id="ytick_34">
     <g id="line2d_40">
      <g>
       <use xlink:href="#mec960f4100" x="45" y="122.789634" style="stroke: #000000; stroke-width: 0.6"/>
      </g>
     </g>
    </g>
    <g id="ytick_35">
     <g id="line2d_41">
      <g>
       <use xlink:href="#mec960f4100" x="45" y="119.820187" style="stroke: #000000; stroke-width: 0.6"/>
      </g>
     </g>
    </g>
    <g id="ytick_36">
     <g id="line2d_42">
      <g>
       <use xlink:href="#mec960f4100" x="45" y="99.688875" style="stroke: #000000; stroke-width: 0.6"/>
      </g>
     </g>
    </g>
    <g id="ytick_37">
     <g id="line2d_43">
      <g>
       <use xlink:href="#mec960f4100" x="45" y="89.466627" style="stroke: #000000; stroke-width: 0.6"/>
      </g>
     </g>
    </g>
    <g id="ytick_38">
     <g id="line2d_44">
      <g>
       <use xlink:href="#mec960f4100" x="45" y="82.213826" style="stroke: #000000; stroke-width: 0.6"/>
      </g>
     </g>
    </g>
    <g id="ytick_39">
     <g id="line2d_45">
      <g>
       <use xlink:href="#mec960f4100" x="45" y="76.588117" style="stroke: #000000; stroke-width: 0.6"/>
      </g>
     </g>
    </g>
    <g id="ytick_40">
     <g id="line2d_46">
      <g>
       <use xlink:href="#mec960f4100" x="45" y="71.991577" style="stroke: #000000; stroke-width: 0.6"/>
      </g>
     </g>
    </g>
    <g id="ytick_41">
     <g id="line2d_47">
      <g>
       <use xlink:href="#mec960f4100" x="45" y="68.105259" style="stroke: #000000; stroke-width: 0.6"/>
      </g>
     </g>
    </g>
    <g id="ytick_42">
     <g id="line2d_48">
      <g>
       <use xlink:href="#mec960f4100" x="45" y="64.738777" style="stroke: #000000; stroke-width: 0.6"/>
      </g>
     </g>
    </g>
    <g id="ytick_43">
     <g id="line2d_49">
      <g>
       <use xlink:href="#mec960f4100" x="45" y="61.769329" style="stroke: #000000; stroke-width: 0.6"/>
      </g>
     </g>
    </g>
    <g id="text_13">
     <!-- Cost -->
     <g transform="translate(13.904375 195.13875) rotate(-90) scale(0.12 -0.12)">
      <defs>
       <path id="DejaVuSans-43" d="M 4122 4306 
L 4122 3641 
Q 3803 3938 3442 4084 
Q 3081 4231 2675 4231 
Q 1875 4231 1450 3742 
Q 1025 3253 1025 2328 
Q 1025 1406 1450 917 
Q 1875 428 2675 428 
Q 3081 428 3442 575 
Q 3803 722 4122 1019 
L 4122 359 
Q 3791 134 3420 21 
Q 3050 -91 2638 -91 
Q 1578 -91 968 557 
Q 359 1206 359 2328 
Q 359 3453 968 4101 
Q 1578 4750 2638 4750 
Q 3056 4750 3426 4639 
Q 3797 4528 4122 4306 
z
" transform="scale(0.015625)"/>
      </defs>
      <use xlink:href="#DejaVuSans-43"/>
      <use xlink:href="#DejaVuSans-6f" transform="translate(69.824219 0)"/>
      <use xlink:href="#DejaVuSans-73" transform="translate(131.005859 0)"/>
      <use xlink:href="#DejaVuSans-74" transform="translate(183.105469 0)"/>
     </g>
    </g>
   </g>
   <g id="line2d_50">
    <path d="M 57.681818 233.716647 
L 58.708686 234.183665 
L 59.735554 234.514783 
L 60.762422 231.630906 
L 61.78929 233.527015 
L 62.816158 233.417591 
L 63.843025 233.934415 
L 64.869893 233.635462 
L 65.896761 234.154511 
L 66.923629 233.632397 
L 67.950497 234.144546 
L 68.977365 205.68252 
L 70.004233 247.656262 
L 71.0311 247.764652 
L 72.057968 247.549458 
L 73.084836 246.184695 
L 74.111704 247.44181 
L 75.138572 247.581596 
L 76.16544 247.59899 
L 77.192308 247.027735 
L 78.219176 247.687929 
L 79.246043 247.542565 
L 80.272911 247.65522 
L 81.299779 251.704276 
L 82.326647 253.629597 
L 83.353515 252.206881 
L 84.380383 255.834403 
L 85.407251 252.529711 
L 86.434119 251.281035 
L 87.460986 252.854003 
L 88.487854 252.159329 
L 89.514722 252.794476 
L 90.54159 252.326928 
L 91.568458 252.097972 
L 92.595326 288.170759 
L 93.622194 288.046423 
L 94.649061 288.126063 
L 95.675929 292.755732 
L 96.702797 289.852908 
L 97.729665 283.952045 
L 98.756533 283.984143 
L 99.783401 288.125913 
L 100.810269 290.685955 
L 101.837137 285.752452 
L 102.864004 288.151712 
L 103.890872 303.028702 
L 104.91774 303.112327 
L 105.944608 302.622639 
L 106.971476 299.82615 
L 107.998344 303.297466 
L 109.025212 301.274545 
L 110.052079 301.244615 
L 111.078947 302.642217 
L 112.105815 303.749117 
L 113.132683 301.96495 
L 114.159551 302.127548 
L 115.186419 306.739927 
L 116.213287 306.638213 
L 117.240155 306.338348 
L 118.267022 298.820311 
L 119.29389 304.867251 
L 120.320758 306.090164 
L 121.347626 306.305962 
L 122.374494 306.413513 
L 123.401362 305.488264 
L 124.42823 306.97631 
L 125.455098 306.482107 
L 126.481965 307.738087 
L 127.508833 307.288627 
L 128.535701 307.011067 
L 129.562569 299.788971 
L 130.589437 306.107475 
L 131.616305 307.158708 
L 132.643173 307.564297 
L 133.67004 307.217826 
L 134.696908 306.463794 
L 135.723776 307.8 
L 136.750644 307.284882 
L 137.777512 307.383865 
L 138.80438 306.959488 
L 139.831248 307.325188 
L 140.858116 307.526498 
L 141.884983 307.569331 
L 142.911851 307.428912 
L 143.938719 307.784442 
L 144.965587 306.80128 
L 145.992455 307.02762 
L 147.019323 299.374602 
L 148.046191 305.829003 
L 149.073059 307.146784 
L 150.099926 307.563763 
L 151.126794 307.22776 
L 152.153662 307.17103 
L 153.18053 307.798976 
L 154.207398 307.550414 
L 155.234266 307.393512 
L 156.261134 307.028344 
L 157.288001 307.78234 
L 158.314869 307.783974 
L 159.341737 307.783944 
L 160.368605 307.78358 
L 161.395473 307.784519 
L 162.422341 306.801283 
L 163.449209 307.027626 
L 164.476077 299.379408 
L 165.502944 306.046741 
L 166.529812 307.146854 
L 167.55668 307.563491 
L 168.583548 306.741231 
L 169.610416 306.316842 
L 170.637284 307.799034 
L 171.664152 307.544977 
" clip-path="url(#p1500542cb6)" style="fill: none; stroke: #1f77b4; stroke-opacity: 0.8; stroke-width: 1.5; stroke-linecap: square"/>
   </g>
   <g id="line2d_51">
    <path d="M 57.681818 190.600901 
L 59.735554 190.587164 
L 60.762422 190.416653 
L 61.78929 190.722024 
L 62.816158 190.570652 
L 67.950497 190.571214 
L 68.977365 237.546457 
L 70.004233 237.248296 
L 71.0311 237.604272 
L 72.057968 239.978563 
L 73.084836 239.850355 
L 74.111704 237.426282 
L 75.138572 237.572989 
L 77.192308 237.329332 
L 78.219176 237.677902 
L 79.246043 237.457685 
L 80.272911 269.696749 
L 82.326647 270.35234 
L 83.353515 270.208889 
L 84.380383 271.760447 
L 85.407251 270.176551 
L 86.434119 269.974357 
L 87.460986 269.928085 
L 88.487854 270.34736 
L 89.514722 270.086773 
L 90.54159 270.415419 
L 91.568458 271.907348 
L 92.595326 272.199192 
L 93.622194 271.901891 
L 94.649061 272.517227 
L 95.675929 272.951304 
L 96.702797 271.290252 
L 97.729665 271.642522 
L 99.783401 272.016976 
L 100.810269 271.617171 
L 101.837137 271.834125 
L 102.864004 273.754823 
L 104.91774 273.753392 
L 105.944608 270.915361 
L 106.971476 273.495071 
L 107.998344 273.606383 
L 109.025212 273.603321 
L 110.052079 273.724315 
L 111.078947 273.660416 
L 113.132683 273.776751 
L 114.159551 224.467001 
L 115.186419 275.384845 
L 117.240155 275.33821 
L 118.267022 271.484673 
L 119.29389 275.127062 
L 120.320758 275.479686 
L 121.347626 275.525637 
L 123.401362 274.98113 
L 124.42823 275.409462 
L 125.455098 275.391971 
L 126.481965 214.474305 
L 127.508833 278.954574 
L 128.535701 278.803501 
L 129.562569 279.016055 
L 130.589437 277.059554 
L 131.616305 279.102412 
L 134.696908 278.945243 
L 135.723776 278.447799 
L 136.750644 278.999999 
L 137.777512 278.91728 
L 138.80438 254.154757 
L 139.831248 281.817864 
L 140.858116 281.843369 
L 141.884983 282.064421 
L 142.911851 282.002389 
L 143.938719 282.380461 
L 144.965587 281.790434 
L 145.992455 281.758792 
L 147.019323 281.594309 
L 148.046191 281.567166 
L 149.073059 281.945063 
L 150.099926 281.903157 
L 151.126794 286.115068 
L 152.153662 285.960333 
L 153.18053 286.113929 
L 154.207398 290.668938 
L 156.261134 286.101459 
L 157.288001 286.068391 
L 158.314869 286.319136 
L 159.341737 288.364062 
L 160.368605 286.872386 
L 161.395473 286.57999 
L 162.422341 290.801173 
L 163.449209 290.739254 
L 164.476077 290.793543 
L 165.502944 288.008459 
L 166.529812 290.820959 
L 168.583548 290.552611 
L 169.610416 290.499059 
L 170.637284 290.833154 
L 171.664152 290.463434 
L 172.69102 290.479918 
L 173.717887 291.044055 
L 174.744755 290.634992 
L 175.771623 293.155283 
L 176.798491 281.984158 
L 177.825359 290.533155 
L 178.852227 290.981318 
L 179.879095 291.116066 
L 180.905962 290.422075 
L 181.93283 289.94433 
L 182.959698 291.670187 
L 183.986566 291.434004 
L 185.013434 299.724419 
L 186.040302 299.893605 
L 187.06717 301.325605 
L 188.094038 287.722543 
L 189.120905 300.196103 
L 190.147773 301.49898 
L 191.174641 300.340317 
L 192.201509 300.535766 
L 193.228377 298.730999 
L 194.255245 299.919163 
L 195.282113 300.174419 
L 196.30898 301.736024 
L 197.335848 301.664109 
L 198.362716 303.04796 
L 199.389584 289.33521 
L 200.416452 300.882179 
L 201.44332 301.503023 
L 202.470188 303.22684 
L 203.497056 301.578118 
L 204.523923 301.102338 
L 206.577659 303.332831 
L 207.604527 305.051434 
L 208.631395 304.372613 
L 209.658263 304.986861 
L 210.685131 292.072146 
L 211.711999 304.321339 
L 212.738866 303.830891 
L 214.792602 304.029429 
L 215.81947 301.873526 
L 216.846338 304.985391 
L 217.873206 305.356887 
L 218.900074 306.762539 
L 219.926941 306.762211 
L 220.953809 306.492684 
L 221.980677 297.739161 
L 223.007545 306.201844 
L 224.034413 306.710231 
L 225.061281 306.447017 
L 226.088149 306.872501 
L 227.115017 306.28436 
L 228.141884 306.904632 
L 229.168752 306.787189 
L 230.19562 306.984219 
L 231.222488 306.498971 
L 232.249356 306.389715 
L 233.276224 295.73159 
L 234.303092 305.55924 
L 235.32996 306.914109 
L 236.356827 305.885738 
L 237.383695 306.801613 
L 238.410563 305.142829 
L 239.437431 307.118189 
L 240.464299 306.664493 
L 241.491167 307.180967 
L 243.544902 306.654153 
L 244.57177 296.279346 
L 245.598638 306.208638 
L 246.625506 306.963201 
L 247.652374 306.676626 
L 249.70611 306.673682 
L 250.732978 307.006788 
L 251.759845 306.894576 
L 252.786713 306.341845 
L 254.840449 306.595034 
L 256.894185 307.220527 
L 257.921053 306.880729 
L 258.947921 306.328129 
L 259.974788 297.577654 
L 261.001656 306.074767 
L 262.028524 307.013056 
L 263.055392 306.878432 
L 264.08226 306.278913 
L 265.109128 306.705487 
L 266.135996 306.932495 
L 267.162863 306.334423 
L 268.189731 306.955539 
L 269.216599 307.183418 
L 270.243467 306.714419 
L 271.270335 306.657784 
L 272.297203 307.221182 
L 273.324071 306.880839 
L 274.350939 306.755912 
L 275.377806 297.451485 
L 276.404674 306.078735 
L 277.431542 307.013125 
L 278.45841 306.350065 
L 280.512146 306.723686 
L 281.539014 306.442109 
L 282.565881 306.33597 
L 283.592749 307.218956 
L 284.619617 307.221355 
L 285.646485 306.880884 
L 286.673353 306.804321 
L 287.700221 297.475143 
L 288.727089 306.08108 
L 289.753957 307.013226 
L 290.780824 306.52436 
L 291.807692 306.71076 
L 293.861428 306.793466 
L 294.888296 306.337436 
L 295.915164 307.220665 
L 297.9689 307.221514 
L 298.995767 306.880845 
L 300.022635 306.354878 
L 301.049503 297.438535 
L 302.076371 306.080158 
L 303.103239 307.013148 
L 304.130107 306.872961 
L 305.156975 306.430335 
L 306.183842 306.727915 
L 307.21071 307.177524 
L 308.237578 306.337126 
L 309.264446 307.22112 
L 311.318182 307.221302 
L 311.318182 307.221302 
" clip-path="url(#p1500542cb6)" style="fill: none; stroke: #ff7f0e; stroke-opacity: 0.8; stroke-width: 1.5; stroke-linecap: square"/>
   </g>
   <g id="line2d_52">
    <path d="M 57.681818 212.070849 
L 58.708686 211.572941 
L 59.735554 212.052947 
L 60.762422 212.705335 
L 61.78929 213.186227 
L 62.816158 212.073672 
L 63.843025 212.068589 
L 64.869893 211.878803 
L 65.896761 212.019463 
L 66.923629 211.588808 
L 67.950497 211.94523 
L 68.977365 266.610185 
L 70.004233 267.396744 
L 71.0311 266.693651 
L 72.057968 264.497343 
L 73.084836 267.839743 
L 74.111704 266.384208 
L 75.138572 266.445651 
L 76.16544 266.728949 
L 77.192308 267.582344 
L 78.219176 266.579263 
L 79.246043 267.126208 
L 80.272911 261.57937 
L 81.299779 264.527984 
L 82.326647 269.619712 
L 83.353515 269.71963 
L 84.380383 269.978649 
L 85.407251 267.637485 
L 86.434119 270.954033 
L 87.460986 267.951154 
L 89.514722 267.965342 
L 90.54159 269.27441 
L 91.568458 269.414815 
L 92.595326 269.73171 
L 93.622194 269.416091 
L 94.649061 269.862069 
L 96.702797 269.985131 
L 97.729665 267.712677 
L 98.756533 270.033031 
L 100.810269 269.677314 
L 101.837137 268.223779 
L 102.864004 270.115933 
L 103.890872 269.741025 
L 104.91774 269.87136 
L 105.944608 270.261262 
L 106.971476 270.420615 
L 107.998344 270.342574 
L 109.025212 268.033613 
L 110.052079 271.338642 
L 111.078947 270.005925 
L 112.105815 270.074621 
L 113.132683 268.680604 
L 114.159551 270.465235 
L 115.186419 270.176469 
L 116.213287 270.2257 
L 117.240155 270.152055 
L 118.267022 269.350073 
L 119.29389 270.287016 
L 120.320758 270.470892 
L 121.347626 269.287769 
L 122.374494 267.615592 
L 123.401362 271.177095 
L 124.42823 270.03103 
L 125.455098 270.101154 
L 126.481965 268.732333 
L 127.508833 270.043365 
L 128.535701 270.230957 
L 130.589437 270.350007 
L 131.616305 269.480794 
L 132.643173 270.622611 
L 133.67004 268.134494 
L 134.696908 271.500382 
L 135.723776 270.24114 
L 136.750644 270.311171 
L 137.777512 268.778616 
L 138.80438 270.567772 
L 139.831248 270.264984 
L 140.858116 269.288898 
L 141.884983 270.439906 
L 142.911851 269.5101 
L 143.938719 270.705346 
L 144.965587 267.667237 
L 145.992455 271.397057 
L 147.019323 270.187663 
L 148.046191 270.257975 
L 149.073059 268.743198 
L 150.099926 270.091554 
L 151.126794 270.561969 
L 152.153662 269.097692 
L 153.18053 270.373454 
L 157.288001 270.462911 
L 159.341737 268.064983 
L 160.368605 271.03343 
L 161.395473 270.181577 
L 162.422341 270.250628 
L 163.449209 268.739155 
L 164.476077 270.090496 
L 165.502944 270.574136 
L 166.529812 269.095709 
L 167.55668 270.437899 
L 169.610416 270.467758 
L 171.664152 268.037759 
L 172.69102 271.418936 
L 173.717887 270.181188 
L 174.744755 270.251114 
L 175.771623 268.743701 
L 176.798491 270.094475 
L 177.825359 270.572222 
L 178.852227 269.102923 
L 179.879095 270.434635 
L 183.986566 270.473619 
L 185.013434 269.176581 
L 186.040302 267.2738 
L 187.06717 271.141648 
L 188.094038 270.188494 
L 189.120905 270.249466 
L 190.147773 268.742417 
L 191.174641 270.09464 
L 192.201509 270.572297 
L 193.228377 269.102962 
L 194.255245 270.445326 
L 195.282113 270.440225 
L 195.282113 270.440225 
" clip-path="url(#p1500542cb6)" style="fill: none; stroke: #2ca02c; stroke-opacity: 0.8; stroke-width: 1.5; stroke-linecap: square"/>
   </g>
   <g id="line2d_53">
    <path d="M 57.681818 59.080042 
L 58.708686 59.195029 
L 59.735554 59.10555 
L 60.762422 55.8 
L 61.78929 56.59939 
L 62.816158 59.152637 
L 64.869893 59.138627 
L 65.896761 58.514669 
L 66.923629 59.199796 
L 67.950497 59.079674 
L 68.977365 114.225003 
L 71.0311 114.651733 
L 72.057968 110.79962 
L 73.084836 109.954977 
L 74.111704 114.224596 
L 75.138572 114.617525 
L 76.16544 114.361855 
L 77.192308 112.667144 
L 78.219176 114.747483 
L 79.246043 114.320622 
L 80.272911 167.059263 
L 81.299779 167.455105 
L 82.326647 167.058029 
L 83.353515 162.967498 
L 84.380383 161.737478 
L 85.407251 167.096332 
L 86.434119 167.058656 
L 87.460986 167.781611 
L 88.487854 164.661777 
L 89.514722 167.041965 
L 90.54159 167.088158 
L 91.568458 222.548377 
L 92.595326 222.231124 
L 93.622194 224.118241 
L 94.649061 217.640379 
L 95.675929 215.692991 
L 96.702797 223.221039 
L 97.729665 221.930698 
L 98.756533 224.228889 
L 99.783401 219.562052 
L 100.810269 224.893944 
L 101.837137 222.715641 
L 102.864004 267.223779 
L 103.890872 268.513762 
L 104.91774 268.045429 
L 105.944608 260.858118 
L 106.971476 258.88462 
L 107.998344 267.913388 
L 109.025212 267.052659 
L 110.052079 267.365917 
L 111.078947 264.080912 
L 112.105815 267.356932 
L 113.132683 268.332705 
L 114.159551 295.679727 
L 115.186419 295.26889 
L 116.213287 295.447119 
L 117.240155 294.566107 
L 118.267022 291.891301 
L 119.29389 294.963159 
L 120.320758 295.220124 
L 121.347626 294.66437 
L 122.374494 296.743341 
L 123.401362 295.727675 
L 124.42823 296.176753 
L 125.455098 303.094774 
L 126.481965 304.009003 
L 127.508833 302.798956 
L 128.535701 306.806879 
L 129.562569 306.859364 
L 130.589437 302.52307 
L 131.616305 302.707573 
L 132.643173 303.876011 
L 133.67004 305.571183 
L 134.696908 303.19935 
L 135.723776 302.883515 
L 136.750644 307.233026 
L 137.777512 307.095933 
L 138.80438 307.072943 
L 139.831248 302.876039 
L 140.858116 301.137002 
L 141.884983 307.148949 
L 143.938719 306.993213 
L 144.965587 307.258805 
L 145.992455 307.387603 
L 148.046191 307.230828 
L 149.073059 307.388417 
L 150.099926 307.304659 
L 151.126794 307.102954 
L 152.153662 303.275332 
L 153.18053 303.077795 
L 154.207398 307.028206 
L 155.234266 306.955703 
L 156.261134 307.021893 
L 157.288001 306.42475 
L 158.314869 307.368276 
L 159.341737 307.047796 
L 160.368605 307.50358 
L 162.422341 306.866198 
L 163.449209 302.555223 
L 164.476077 301.51541 
L 165.502944 307.114616 
L 167.55668 306.902928 
L 168.583548 306.97576 
L 169.610416 307.392182 
L 170.637284 307.366453 
L 171.664152 307.585501 
L 172.69102 307.21853 
L 173.717887 307.166964 
L 174.744755 303.121711 
L 175.771623 301.986654 
L 176.798491 307.320126 
L 177.825359 307.224856 
L 178.852227 306.919513 
L 179.879095 306.338295 
L 180.905962 307.561092 
L 181.93283 307.190859 
L 182.959698 307.587525 
L 183.986566 307.403988 
L 185.013434 307.054365 
L 186.040302 301.32955 
L 187.06717 302.87609 
L 188.094038 307.364223 
L 189.120905 307.37847 
L 190.147773 307.280189 
L 191.174641 306.973295 
L 192.201509 307.547505 
L 193.228377 307.417518 
L 195.282113 307.610916 
L 196.30898 307.469225 
L 197.335848 307.04461 
L 198.362716 302.758558 
L 200.416452 307.291543 
L 201.44332 307.423553 
L 202.470188 307.203302 
L 203.497056 307.358408 
L 204.523923 307.357893 
L 205.550791 307.469629 
L 206.577659 307.325584 
L 207.604527 307.607454 
L 208.631395 307.647919 
L 210.685131 307.13789 
L 211.711999 301.479338 
L 212.738866 303.244368 
L 213.765734 307.194667 
L 214.792602 307.301296 
L 215.81947 307.196075 
L 216.846338 306.121163 
L 217.873206 307.495102 
L 218.900074 307.374109 
L 219.926941 307.54648 
L 221.980677 307.432794 
L 223.007545 307.650653 
L 225.061281 307.239176 
L 226.088149 301.954707 
L 227.115017 303.476238 
L 228.141884 307.365737 
L 229.168752 307.421354 
L 230.19562 307.266136 
L 231.222488 306.710791 
L 232.249356 307.58919 
L 233.276224 307.438999 
L 237.383695 307.557559 
L 238.410563 307.414645 
L 239.437431 307.621075 
L 239.437431 307.621075 
" clip-path="url(#p1500542cb6)" style="fill: none; stroke: #d62728; stroke-opacity: 0.8; stroke-width: 1.5; stroke-linecap: square"/>
   </g>
   <g id="line2d_54">
    <path d="M 57.681818 206.538769 
L 58.708686 206.401125 
L 59.735554 206.54217 
L 60.762422 206.39602 
L 61.78929 208.492864 
L 62.816158 206.492702 
L 63.843025 206.941595 
L 64.869893 206.736455 
L 65.896761 206.140263 
L 66.923629 206.61424 
L 67.950497 206.573014 
L 68.977365 203.450583 
L 70.004233 221.358089 
L 71.0311 220.919523 
L 72.057968 221.004495 
L 73.084836 220.549344 
L 74.111704 224.071016 
L 75.138572 221.045248 
L 76.16544 221.332971 
L 77.192308 221.283031 
L 78.219176 221.370647 
L 79.246043 220.897548 
L 80.272911 220.529842 
L 81.299779 225.689494 
L 82.326647 225.742157 
L 83.353515 224.984745 
L 84.380383 225.909261 
L 85.407251 227.727171 
L 86.434119 225.6179 
L 87.460986 225.655748 
L 88.487854 225.669783 
L 89.514722 225.814178 
L 90.54159 226.086598 
L 91.568458 225.936996 
L 92.595326 247.908028 
L 93.622194 249.857195 
L 94.649061 249.823829 
L 95.675929 248.290422 
L 96.702797 250.428944 
L 97.729665 249.822524 
L 98.756533 249.760342 
L 99.783401 249.674734 
L 100.810269 248.657804 
L 101.837137 250.171395 
L 102.864004 248.798698 
L 103.890872 231.211444 
L 104.91774 247.779495 
L 105.944608 247.587249 
L 106.971476 250.107955 
L 107.998344 248.949624 
L 109.025212 249.957286 
L 110.052079 249.86888 
L 111.078947 251.148827 
L 112.105815 250.022863 
L 113.132683 249.590303 
L 114.159551 250.175254 
L 115.186419 248.36162 
L 116.213287 248.634279 
L 117.240155 249.86699 
L 118.267022 250.043878 
L 119.29389 249.187593 
L 120.320758 250.372547 
L 121.347626 249.427694 
L 122.374494 250.111418 
L 123.401362 250.187721 
L 124.42823 251.131677 
L 125.455098 250.040154 
L 126.481965 250.487875 
L 127.508833 249.545724 
L 128.535701 248.400363 
L 129.562569 248.954899 
L 130.589437 249.156535 
L 131.616305 248.29834 
L 132.643173 248.133916 
L 133.67004 248.812055 
L 134.696908 248.426729 
L 135.723776 248.144001 
L 136.750644 249.952847 
L 137.777512 249.932396 
L 138.80438 250.096488 
" clip-path="url(#p1500542cb6)" style="fill: none; stroke: #9467bd; stroke-opacity: 0.8; stroke-width: 1.5; stroke-linecap: square"/>
   </g>
   <g id="line2d_55">
    <path d="M 57.681818 187.88702 
L 64.869893 187.890221 
L 65.896761 187.628092 
L 66.923629 187.884134 
L 67.950497 187.890934 
L 68.977365 208.320218 
L 70.004233 208.388934 
L 71.0311 208.32611 
L 72.057968 208.756428 
L 73.084836 208.710223 
L 74.111704 208.319299 
L 78.219176 208.258738 
L 79.246043 208.335313 
L 80.272911 298.378483 
L 81.299779 296.635101 
L 82.326647 297.984518 
L 83.353515 302.488455 
L 84.380383 302.563179 
L 85.407251 298.718023 
L 87.460986 298.685135 
L 88.487854 299.784238 
L 89.514722 298.199891 
L 90.54159 298.0303 
L 91.568458 305.507355 
L 92.595326 305.431015 
L 93.622194 305.633567 
L 94.649061 304.52154 
L 95.675929 304.175775 
L 96.702797 305.302352 
L 97.729665 305.30376 
L 98.756533 305.732878 
L 99.783401 306.01771 
L 100.810269 305.866096 
L 101.837137 305.407617 
L 102.864004 305.663817 
L 103.890872 305.264267 
L 104.91774 305.4388 
L 105.944608 298.044236 
L 106.971476 298.971999 
L 107.998344 305.597574 
L 109.025212 305.025478 
L 110.052079 305.960533 
L 111.078947 302.91747 
L 112.105815 304.931059 
L 113.132683 305.131887 
L 114.159551 306.37367 
L 115.186419 305.880604 
L 116.213287 305.953882 
L 117.240155 299.308756 
L 118.267022 300.744747 
L 119.29389 306.168803 
L 120.320758 305.73728 
L 121.347626 305.97138 
L 122.374494 305.498238 
L 123.401362 306.32818 
L 124.42823 305.898768 
L 125.455098 305.932777 
L 126.481965 306.377096 
L 127.508833 306.366611 
L 128.535701 306.159838 
L 129.562569 301.588334 
L 130.589437 300.824573 
L 131.616305 305.685229 
L 132.643173 306.242391 
L 133.67004 306.016797 
L 134.696908 305.187602 
L 135.723776 306.219381 
L 136.750644 306.400815 
L 137.777512 306.400717 
L 138.80438 306.176243 
L 139.831248 306.084304 
L 140.858116 301.239241 
L 141.884983 301.255228 
L 142.911851 306.099125 
L 143.938719 306.245659 
L 144.965587 305.970158 
L 145.992455 305.344157 
L 147.019323 306.473434 
L 148.046191 306.367729 
L 149.073059 306.463062 
L 150.099926 305.887362 
L 151.126794 306.142777 
L 152.153662 300.974752 
L 153.18053 301.255471 
L 154.207398 306.184125 
L 155.234266 306.247936 
L 156.261134 306.13116 
L 157.288001 305.542236 
L 158.314869 306.274215 
L 159.341737 306.426179 
L 160.368605 306.347944 
L 161.395473 306.487808 
L 162.422341 306.239051 
L 163.449209 306.194184 
L 164.476077 300.907314 
L 165.502944 300.479585 
L 166.529812 306.096105 
L 168.583548 306.086705 
L 169.610416 305.909396 
L 170.637284 306.422998 
L 171.664152 306.398171 
L 172.69102 306.16503 
L 173.717887 306.433423 
L 174.744755 306.487946 
L 175.771623 306.240057 
L 176.798491 306.197055 
L 177.825359 301.212488 
L 178.852227 301.277987 
L 179.879095 306.206812 
L 181.93283 306.052303 
L 182.959698 306.089548 
L 185.013434 306.437285 
L 188.094038 306.487684 
L 190.147773 306.488002 
L 191.174641 306.240968 
L 192.201509 306.197081 
L 193.228377 301.411805 
L 194.255245 301.286443 
L 195.282113 306.206709 
L 197.335848 306.013857 
L 198.362716 306.09003 
L 200.416452 306.437274 
L 203.497056 306.487944 
L 203.497056 306.487944 
" clip-path="url(#p1500542cb6)" style="fill: none; stroke: #8c564b; stroke-opacity: 0.8; stroke-width: 1.5; stroke-linecap: square"/>
   </g>
   <g id="line2d_56">
    <path d="M 57.681818 71.767971 
L 58.708686 71.570771 
L 59.735554 71.747771 
L 60.762422 65.762369 
L 61.78929 70.50844 
L 62.816158 71.911717 
L 63.843025 71.700532 
L 64.869893 71.661074 
L 65.896761 71.498614 
L 66.923629 71.873574 
L 67.950497 71.525862 
L 68.977365 114.42446 
L 71.0311 114.331248 
L 72.057968 107.448934 
L 73.084836 112.08509 
L 74.111704 114.400432 
L 75.138572 114.400637 
L 76.16544 114.861693 
L 77.192308 113.052174 
L 78.219176 114.425921 
L 79.246043 114.318978 
L 80.272911 145.541921 
L 81.299779 145.435632 
L 82.326647 145.46241 
L 83.353515 139.021937 
L 84.380383 142.47141 
L 85.407251 145.460768 
L 86.434119 145.481253 
L 87.460986 145.645946 
L 88.487854 143.321536 
L 89.514722 145.485171 
L 90.54159 144.885994 
L 91.568458 180.45224 
L 93.622194 180.068605 
L 94.649061 174.848987 
L 95.675929 177.13944 
L 96.702797 180.443534 
L 97.729665 180.444704 
L 98.756533 182.294821 
L 99.783401 179.153672 
L 100.810269 180.425342 
L 101.837137 180.452991 
L 102.864004 239.828032 
L 103.890872 239.853032 
L 104.91774 240.393975 
L 105.944608 232.255437 
L 106.971476 234.966117 
L 107.998344 238.570332 
L 109.025212 238.710336 
L 110.052079 240.009136 
L 111.078947 235.942356 
L 112.105815 240.267792 
L 113.132683 240.287041 
L 114.159551 268.667784 
L 116.213287 268.753618 
L 117.240155 264.267119 
L 118.267022 267.738696 
L 119.29389 268.72592 
L 120.320758 268.722153 
L 121.347626 267.749485 
L 123.401362 268.285311 
L 124.42823 268.486871 
L 125.455098 277.445691 
L 126.481965 276.707657 
L 127.508833 277.467387 
L 128.535701 281.70461 
L 129.562569 279.70227 
L 130.589437 277.364088 
L 131.616305 277.357236 
L 132.643173 276.981335 
L 133.67004 278.741451 
L 134.696908 277.291241 
L 135.723776 277.452232 
L 136.750644 292.673606 
L 137.777512 293.37519 
L 138.80438 292.852653 
L 139.831248 285.010956 
L 140.858116 292.198006 
L 141.884983 292.888441 
L 142.911851 292.886544 
L 144.965587 292.418677 
L 145.992455 292.793248 
L 147.019323 292.676859 
L 148.046191 299.773147 
L 149.073059 300.448019 
L 150.099926 300.339413 
L 151.126794 301.072731 
L 152.153662 302.559113 
L 153.18053 301.531683 
L 154.207398 301.541866 
L 155.234266 302.104619 
L 156.261134 301.318405 
L 157.288001 299.990467 
L 158.314869 299.802467 
L 159.341737 304.767668 
L 160.368605 304.860774 
L 161.395473 304.688205 
L 162.422341 297.51861 
L 163.449209 304.982838 
L 164.476077 304.698817 
L 165.502944 304.717029 
L 166.529812 304.583762 
L 167.55668 304.790531 
L 168.583548 304.697108 
L 169.610416 304.72191 
L 170.637284 305.480689 
L 171.664152 305.077191 
L 172.69102 305.247156 
L 173.717887 292.784378 
L 174.744755 304.282199 
L 175.771623 305.648373 
L 176.798491 305.606787 
L 177.825359 305.422695 
L 178.852227 304.222217 
L 179.879095 305.426935 
L 180.905962 305.429221 
L 182.959698 305.983054 
L 183.986566 305.516649 
L 185.013434 300.324112 
L 186.040302 306.222607 
L 187.06717 306.049577 
L 189.120905 306.104856 
L 190.147773 305.953722 
L 191.174641 306.118642 
L 192.201509 305.748934 
L 193.228377 306.009701 
L 194.255245 305.747639 
L 195.282113 305.783629 
L 196.30898 296.161319 
L 197.335848 305.802091 
L 198.362716 306.246687 
L 199.389584 306.243059 
L 201.44332 305.504195 
L 202.470188 305.930688 
L 203.497056 305.921387 
L 204.523923 304.367376 
L 205.550791 306.211911 
L 207.604527 305.943062 
L 208.631395 296.215902 
L 209.658263 306.138558 
L 210.685131 306.316432 
L 211.711999 306.316774 
L 213.765734 305.181345 
L 214.792602 306.232639 
L 217.873206 306.142223 
L 218.900074 306.235225 
L 220.953809 305.957336 
L 221.980677 296.251502 
L 223.007545 306.139466 
L 224.034413 306.329324 
L 225.061281 306.358948 
L 226.088149 305.814032 
L 227.115017 305.683992 
L 228.141884 306.266368 
L 230.19562 306.080486 
L 232.249356 306.238222 
L 234.303092 305.960858 
L 235.32996 296.225647 
L 236.356827 306.143617 
L 237.383695 306.302566 
L 238.410563 306.308479 
L 239.437431 305.785218 
L 240.464299 305.726269 
L 241.491167 306.271672 
L 242.518035 306.1831 
L 244.57177 306.238637 
L 246.625506 305.962293 
L 247.652374 296.22848 
L 248.679242 306.117401 
L 249.70611 306.302994 
L 250.732978 306.32575 
L 251.759845 305.786008 
L 252.786713 305.744851 
L 253.813581 306.236575 
L 257.921053 305.962648 
L 258.947921 296.229387 
L 259.974788 306.117336 
L 261.001656 306.302516 
L 262.028524 306.325939 
L 263.055392 305.786171 
L 264.08226 305.74571 
L 265.109128 306.237013 
L 269.216599 305.963011 
L 270.243467 296.229592 
L 271.270335 306.117488 
L 272.297203 306.302717 
L 273.324071 306.325706 
L 274.350939 305.786347 
L 275.377806 305.746544 
L 276.404674 306.237461 
L 278.45841 306.199814 
L 283.592749 306.239268 
L 283.592749 306.239268 
" clip-path="url(#p1500542cb6)" style="fill: none; stroke: #e377c2; stroke-opacity: 0.8; stroke-width: 1.5; stroke-linecap: square"/>
   </g>
   <g id="line2d_57">
    <path d="M 57.681818 207.912723 
L 58.708686 208.020623 
L 59.735554 207.943942 
L 60.762422 208.219945 
L 61.78929 208.359205 
L 62.816158 207.92006 
L 64.869893 207.817326 
L 65.896761 207.396157 
L 66.923629 207.887482 
L 67.950497 207.943997 
L 68.977365 277.097763 
L 70.004233 279.108146 
L 71.0311 278.241473 
L 72.057968 267.852159 
L 74.111704 276.499523 
L 75.138572 277.137576 
L 76.16544 277.613388 
L 77.192308 274.363495 
L 78.219176 277.566005 
L 79.246043 277.408425 
L 80.272911 298.358355 
L 81.299779 296.593284 
L 82.326647 297.670854 
L 83.353515 289.816113 
L 84.380383 294.482493 
L 85.407251 296.830505 
L 86.434119 296.993814 
L 88.487854 298.52224 
L 89.514722 299.180601 
L 90.54159 298.034033 
L 91.568458 301.759743 
L 92.595326 298.59907 
L 93.622194 300.717833 
L 94.649061 287.536184 
L 96.702797 301.13327 
L 97.729665 301.123339 
L 98.756533 300.250348 
L 99.783401 296.799049 
L 100.810269 299.293315 
L 101.837137 302.140307 
L 102.864004 304.449987 
L 103.890872 302.92325 
L 104.91774 303.520907 
L 105.944608 296.288361 
L 106.971476 299.646548 
L 107.998344 305.720431 
L 109.025212 305.68298 
L 110.052079 304.664679 
L 111.078947 302.010989 
L 112.105815 303.368429 
L 113.132683 303.722192 
L 114.159551 306.801634 
L 115.186419 306.581233 
L 116.213287 306.50124 
L 117.240155 298.648683 
L 118.267022 303.073105 
L 119.29389 306.418556 
L 120.320758 306.470825 
L 121.347626 306.839051 
L 122.374494 305.452935 
L 123.401362 307.173363 
L 124.42823 306.429415 
L 125.455098 306.197162 
L 126.481965 306.928639 
L 127.508833 306.793772 
L 128.535701 306.219426 
L 129.562569 297.332871 
L 130.589437 303.738643 
L 131.616305 306.819666 
L 132.643173 306.605538 
L 133.67004 307.023587 
L 134.696908 305.964072 
L 135.723776 306.710799 
L 136.750644 307.303116 
L 137.777512 307.034648 
L 138.80438 306.367036 
L 139.831248 306.649172 
L 140.858116 299.082605 
L 141.884983 303.553392 
L 142.911851 306.868558 
L 143.938719 307.048431 
L 144.965587 307.079819 
L 145.992455 305.367809 
L 147.019323 307.353124 
L 149.073059 307.250064 
L 150.099926 307.226199 
L 151.126794 306.569516 
L 152.153662 301.08385 
L 153.18053 302.739343 
L 154.207398 307.137858 
L 155.234266 306.917955 
L 156.261134 307.139097 
L 157.288001 306.452494 
L 158.314869 307.379336 
L 160.368605 307.276008 
L 161.395473 307.315221 
L 162.422341 307.129495 
L 163.449209 300.307514 
L 165.502944 307.148446 
L 167.55668 307.192711 
L 168.583548 306.308159 
L 169.610416 307.428626 
L 170.637284 306.868421 
L 171.664152 307.397366 
L 172.69102 307.299164 
L 173.717887 306.935747 
L 174.744755 299.697279 
L 175.771623 305.58687 
L 176.798491 307.154735 
L 178.852227 307.2025 
L 179.879095 306.813425 
L 180.905962 307.473559 
L 181.93283 307.03994 
L 182.959698 307.406603 
L 183.986566 307.036871 
L 185.013434 307.071847 
L 186.040302 298.87241 
L 187.06717 303.812492 
L 188.094038 307.22841 
L 189.120905 306.726342 
L 190.147773 307.121644 
L 191.174641 307.15898 
L 192.201509 307.469814 
L 193.228377 307.478458 
L 194.255245 307.042483 
L 195.282113 307.539086 
L 196.30898 307.036281 
L 197.335848 307.196345 
L 198.362716 301.805705 
L 199.389584 304.013616 
L 200.416452 307.180592 
L 202.470188 307.246423 
L 203.497056 306.751565 
L 204.523923 307.328802 
L 205.550791 307.452045 
L 206.577659 307.202025 
L 207.604527 307.479238 
L 211.711999 307.31904 
L 212.738866 307.541476 
L 213.765734 307.036384 
L 214.792602 307.199034 
L 215.81947 301.805765 
L 216.846338 304.008152 
L 217.873206 307.231047 
L 218.900074 307.224041 
L 220.953809 306.752466 
L 221.980677 307.328894 
L 224.034413 307.528019 
L 227.115017 307.521525 
L 227.115017 307.521525 
" clip-path="url(#p1500542cb6)" style="fill: none; stroke: #7f7f7f; stroke-opacity: 0.8; stroke-width: 1.5; stroke-linecap: square"/>
   </g>
   <g id="line2d_58">
    <path d="M 57.681818 196.150358 
L 58.708686 196.199586 
L 59.735554 196.294479 
L 60.762422 196.134793 
L 61.78929 196.060173 
L 62.816158 196.122731 
L 63.843025 196.148684 
L 64.869893 194.703403 
L 65.896761 196.118103 
L 66.923629 196.121678 
L 67.950497 197.061975 
L 68.977365 264.489056 
L 70.004233 264.613969 
L 71.0311 264.329303 
L 72.057968 268.415729 
L 73.084836 270.216064 
L 74.111704 264.510067 
L 75.138572 264.656548 
L 76.16544 261.461621 
L 77.192308 264.893921 
L 78.219176 264.637998 
L 79.246043 266.414592 
L 80.272911 294.310338 
L 81.299779 293.690047 
L 82.326647 292.980794 
L 83.353515 288.185266 
L 84.380383 286.973141 
L 85.407251 293.235132 
L 86.434119 293.926758 
L 87.460986 291.771747 
L 88.487854 292.517891 
L 89.514722 293.180548 
L 90.54159 295.311429 
L 91.568458 297.709584 
L 92.595326 298.58535 
L 93.622194 297.396307 
L 94.649061 304.099926 
L 95.675929 304.645403 
L 96.702797 298.015524 
L 97.729665 297.941498 
L 98.756533 298.30631 
L 99.783401 301.870779 
L 100.810269 299.098356 
L 101.837137 298.956696 
L 102.864004 306.401267 
L 103.890872 305.662457 
L 104.91774 306.106288 
L 105.944608 302.440446 
L 106.971476 301.740616 
L 107.998344 306.228473 
L 109.025212 306.259561 
L 110.052079 305.597569 
L 111.078947 305.069778 
L 112.105815 305.732658 
L 113.132683 306.458365 
L 114.159551 303.817038 
L 115.186419 306.139338 
L 116.213287 306.506121 
L 117.240155 306.234429 
L 118.267022 306.107073 
L 119.29389 302.23572 
L 120.320758 301.831614 
L 121.347626 306.255021 
L 122.374494 305.685186 
L 123.401362 306.239287 
L 124.42823 304.954759 
L 125.455098 306.214237 
L 126.481965 306.406409 
L 127.508833 306.60251 
L 128.535701 306.516112 
L 129.562569 305.992658 
L 130.589437 301.620496 
L 131.616305 302.239264 
L 132.643173 306.184647 
L 133.67004 306.369356 
L 134.696908 305.929934 
L 135.723776 305.911985 
L 136.750644 306.346751 
L 137.777512 306.239177 
L 138.80438 305.491958 
L 139.831248 306.292909 
L 140.858116 306.557883 
L 141.884983 306.227208 
L 142.911851 306.286792 
L 143.938719 306.573099 
L 144.965587 306.596095 
L 145.992455 306.600554 
L 147.019323 306.602327 
L 148.046191 306.602303 
L 149.073059 306.60292 
L 150.099926 306.515788 
L 151.126794 305.992854 
L 152.153662 301.630799 
L 153.18053 302.23927 
L 154.207398 306.184367 
L 155.234266 306.369501 
L 156.261134 305.929942 
L 157.288001 305.911902 
L 158.314869 306.34675 
L 159.341737 306.23901 
L 160.368605 306.602965 
L 161.395473 306.515607 
L 162.422341 305.992757 
L 163.449209 301.629963 
L 164.476077 302.239138 
L 165.502944 306.184391 
L 166.529812 306.369783 
L 167.55668 305.929983 
L 168.583548 305.912387 
L 169.610416 306.346751 
L 170.637284 306.239049 
L 171.664152 306.602583 
L 172.69102 306.602804 
L 173.717887 306.602676 
" clip-path="url(#p1500542cb6)" style="fill: none; stroke: #bcbd22; stroke-opacity: 0.8; stroke-width: 1.5; stroke-linecap: square"/>
   </g>
   <g id="line2d_59">
    <path d="M 57.681818 192.762171 
L 58.708686 192.77371 
L 59.735554 192.769349 
L 60.762422 192.786599 
L 61.78929 192.795997 
L 62.816158 192.777847 
L 63.843025 192.780345 
L 64.869893 192.807247 
L 65.896761 192.170241 
L 66.923629 192.808945 
L 67.950497 192.78862 
L 68.977365 116.541845 
L 70.004233 217.886835 
L 71.0311 217.298594 
L 72.057968 217.826708 
L 73.084836 217.871247 
L 74.111704 217.546251 
L 75.138572 217.85688 
L 76.16544 217.862465 
L 77.192308 217.947427 
L 78.219176 216.442465 
L 79.246043 217.827674 
L 80.272911 217.89747 
L 81.299779 233.495865 
L 82.326647 232.445756 
L 83.353515 232.433586 
L 84.380383 234.08904 
L 85.407251 232.780351 
L 86.434119 232.932074 
L 87.460986 233.032513 
L 88.487854 233.049035 
L 89.514722 232.594962 
L 90.54159 232.983689 
L 91.568458 233.057383 
L 92.595326 232.934224 
L 93.622194 240.402028 
L 94.649061 239.86817 
L 95.675929 240.433148 
L 96.702797 239.991394 
L 97.729665 240.617867 
L 98.756533 239.785647 
L 99.783401 239.8072 
L 100.810269 240.386148 
L 101.837137 239.842184 
L 102.864004 239.859949 
L 103.890872 239.679138 
L 104.91774 239.6477 
L 105.944608 240.48603 
L 106.971476 240.63208 
L 107.998344 240.816632 
L 109.025212 241.333584 
L 110.052079 243.318307 
L 111.078947 241.898477 
L 112.105815 241.928603 
L 113.132683 241.263676 
L 114.159551 240.79746 
L 115.186419 240.486794 
L 116.213287 242.225745 
L 117.240155 243.094752 
L 118.267022 242.150784 
L 119.29389 243.306707 
L 120.320758 242.451911 
L 121.347626 244.262464 
L 122.374494 243.753323 
L 123.401362 242.980229 
L 124.42823 242.809469 
L 125.455098 242.233928 
L 126.481965 243.77643 
L 127.508833 242.120898 
L 128.535701 242.366581 
L 129.562569 243.600727 
L 130.589437 241.901274 
L 131.616305 241.997933 
L 132.643173 243.608107 
L 133.67004 244.408571 
L 134.696908 243.526365 
L 135.723776 241.781883 
L 136.750644 242.537149 
L 137.777512 243.082182 
L 138.80438 242.887533 
L 139.831248 241.83448 
L 140.858116 242.905517 
L 141.884983 241.889322 
L 142.911851 241.646989 
L 143.938719 243.267046 
L 144.965587 241.913911 
L 145.992455 243.597327 
L 147.019323 243.599246 
L 148.046191 243.600069 
" clip-path="url(#p1500542cb6)" style="fill: none; stroke: #17becf; stroke-opacity: 0.8; stroke-width: 1.5; stroke-linecap: square"/>
   </g>
   <g id="line2d_60">
    <defs>
     <path id="mc1c1e7e8a7" d="M 0 3 
C 0.795609 3 1.55874 2.683901 2.12132 2.12132 
C 2.683901 1.55874 3 0.795609 3 0 
C 3 -0.795609 2.683901 -1.55874 2.12132 -2.12132 
C 1.55874 -2.683901 0.795609 -3 0 -3 
C -0.795609 -3 -1.55874 -2.683901 -2.12132 -2.12132 
C -2.683901 -1.55874 -3 -0.795609 -3 0 
C -3 0.795609 -2.683901 1.55874 -2.12132 2.12132 
C -1.55874 2.683901 -0.795609 3 0 3 
z
" style="stroke: #000000; stroke-opacity: 0.8"/>
    </defs>
    <g clip-path="url(#p1500542cb6)">
     <use xlink:href="#mc1c1e7e8a7" x="171.664152" y="307.544977" style="fill-opacity: 0.8; stroke: #000000; stroke-opacity: 0.8"/>
    </g>
   </g>
   <g id="line2d_61">
    <g clip-path="url(#p1500542cb6)">
     <use xlink:href="#mc1c1e7e8a7" x="311.318182" y="307.221302" style="fill-opacity: 0.8; stroke: #000000; stroke-opacity: 0.8"/>
    </g>
   </g>
   <g id="line2d_62">
    <g clip-path="url(#p1500542cb6)">
     <use xlink:href="#mc1c1e7e8a7" x="195.282113" y="270.440225" style="fill-opacity: 0.8; stroke: #000000; stroke-opacity: 0.8"/>
    </g>
   </g>
   <g id="line2d_63">
    <g clip-path="url(#p1500542cb6)">
     <use xlink:href="#mc1c1e7e8a7" x="239.437431" y="307.621075" style="fill-opacity: 0.8; stroke: #000000; stroke-opacity: 0.8"/>
    </g>
   </g>
   <g id="line2d_64">
    <g clip-path="url(#p1500542cb6)">
     <use xlink:href="#mc1c1e7e8a7" x="138.80438" y="250.096488" style="fill-opacity: 0.8; stroke: #000000; stroke-opacity: 0.8"/>
    </g>
   </g>
   <g id="line2d_65">
    <g clip-path="url(#p1500542cb6)">
     <use xlink:href="#mc1c1e7e8a7" x="203.497056" y="306.487944" style="fill-opacity: 0.8; stroke: #000000; stroke-opacity: 0.8"/>
    </g>
   </g>
   <g id="line2d_66">
    <g clip-path="url(#p1500542cb6)">
     <use xlink:href="#mc1c1e7e8a7" x="283.592749" y="306.239268" style="fill-opacity: 0.8; stroke: #000000; stroke-opacity: 0.8"/>
    </g>
   </g>
   <g id="line2d_67">
    <g clip-path="url(#p1500542cb6)">
     <use xlink:href="#mc1c1e7e8a7" x="227.115017" y="307.521525" style="fill-opacity: 0.8; stroke: #000000; stroke-opacity: 0.8"/>
    </g>
   </g>
   <g id="line2d_68">
    <g clip-path="url(#p1500542cb6)">
     <use xlink:href="#mc1c1e7e8a7" x="173.717887" y="306.602676" style="fill-opacity: 0.8; stroke: #000000; stroke-opacity: 0.8"/>
    </g>
   </g>
   <g id="line2d_69">
    <g clip-path="url(#p1500542cb6)">
     <use xlink:href="#mc1c1e7e8a7" x="148.046191" y="243.600069" style="fill-opacity: 0.8; stroke: #000000; stroke-opacity: 0.8"/>
    </g>
   </g>
   <g id="patch_3">
    <path d="M 45 320.4 
L 45 43.2 
" style="fill: none; stroke: #000000; stroke-width: 0.8; stroke-linejoin: miter; stroke-linecap: square"/>
   </g>
   <g id="patch_4">
    <path d="M 324 320.4 
L 324 43.2 
" style="fill: none; stroke: #000000; stroke-width: 0.8; stroke-linejoin: miter; stroke-linecap: square"/>
   </g>
   <g id="patch_5">
    <path d="M 45 320.4 
L 324 320.4 
" style="fill: none; stroke: #000000; stroke-width: 0.8; stroke-linejoin: miter; stroke-linecap: square"/>
   </g>
   <g id="patch_6">
    <path d="M 45 43.2 
L 324 43.2 
" style="fill: none; stroke: #000000; stroke-width: 0.8; stroke-linejoin: miter; stroke-linecap: square"/>
   </g>
  </g>
 </g>
 <defs>
  <clipPath id="p1500542cb6">
   <rect x="45" y="43.2" width="279" height="277.2"/>
  </clipPath>
 </defs>
</svg>
