<?xml version="1.0" encoding="utf-8" standalone="no"?>
<!DOCTYPE svg PUBLIC "-//W3C//DTD SVG 1.1//EN"
  "http://www.w3.org/Graphics/SVG/1.1/DTD/svg11.dtd">
<svg xmlns:xlink="http://www.w3.org/1999/xlink" width="485.92625pt" height="370.537812pt" viewBox="0 0 485.92625 370.537812" xmlns="http://www.w3.org/2000/svg" version="1.1">
 <metadata>
  <rdf:RDF xmlns:dc="http://purl.org/dc/elements/1.1/" xmlns:cc="http://creativecommons.org/ns#" xmlns:rdf="http://www.w3.org/1999/02/22-rdf-syntax-ns#">
   <cc:Work>
    <dc:type rdf:resource="http://purl.org/dc/dcmitype/StillImage"/>
    <dc:date>2026-03-19T12:03:27.048620</dc:date>
    <dc:format>image/svg+xml</dc:format>
    <dc:creator>
     <cc:Agent>
      <dc:title>Matplotlib v3.10.8, https://matplotlib.org/</dc:title>
     </cc:Agent>
    </dc:creator>
   </cc:Work>
  </rdf:RDF>
 </metadata>
 <defs>
  <style type="text/css">*{stroke-linejoin: round; stroke-linecap: butt}</style>
 </defs>
 <g id="figure_1">
  <g id="patch_1">
   <path d="M 0 370.537812 
L 485.92625 370.537812 
L 485.92625 0 
L 0 0 
z
" style="fill: #ffffff"/>
  </g>
  <g id="axes_1">
   <g id="patch_2">
    <path d="M 88.12625 320.4 
L 478.72625 320.4 
L 478.72625 43.2 
L 88.12625 43.2 
z
" style="fill: #ffffff"/>
   </g>
   <g id="matplotlib.axis_1">
    <g id="xtick_1">
     <g id="line2d_1">
      <defs>
       <path id="m3cac9ffd10" d="M 0 0 
L 0 3.5 
" style="stroke: #000000; stroke-width: 0.8"/>
      </defs>
      <g>
       <use xlink:href="#m3cac9ffd10" x="105.880795" y="320.4" style="stroke: #000000; stroke-width: 0.8"/>
      </g>
     </g>
     <g id="text_1">
      <!-- 0 -->
      <g transform="translate(101.10892 338.797656) scale(0.15 -0.15)">
       <defs>
        <path id="DejaVuSans-30" d="M 2034 4250 
Q 1547 4250 1301 3770 
Q 1056 3291 1056 2328 
Q 1056 1369 1301 889 
Q 1547 409 2034 409 
Q 2525 409 2770 889 
Q 3016 1369 3016 2328 
Q 3016 3291 2770 3770 
Q 2525 4250 2034 4250 
z
M 2034 4750 
Q 2819 4750 3233 4129 
Q 3647 3509 3647 2328 
Q 3647 1150 3233 529 
Q 2819 -91 2034 -91 
Q 1250 -91 836 529 
Q 422 1150 422 2328 
Q 422 3509 836 4129 
Q 1250 4750 2034 4750 
z
" transform="scale(0.015625)"/>
       </defs>
       <use xlink:href="#DejaVuSans-30"/>
      </g>
     </g>
    </g>
    <g id="xtick_2">
     <g id="line2d_2">
      <g>
       <use xlink:href="#m3cac9ffd10" x="176.898977" y="320.4" style="stroke: #000000; stroke-width: 0.8"/>
      </g>
     </g>
     <g id="text_2">
      <!-- 10 -->
      <g transform="translate(167.355227 338.797656) scale(0.15 -0.15)">
       <defs>
        <path id="DejaVuSans-31" d="M 794 531 
L 1825 531 
L 1825 4091 
L 703 3866 
L 703 4441 
L 1819 4666 
L 2450 4666 
L 2450 531 
L 3481 531 
L 3481 0 
L 794 0 
L 794 531 
z
" transform="scale(0.015625)"/>
       </defs>
       <use xlink:href="#DejaVuSans-31"/>
       <use xlink:href="#DejaVuSans-30" transform="translate(63.623047 0)"/>
      </g>
     </g>
    </g>
    <g id="xtick_3">
     <g id="line2d_3">
      <g>
       <use xlink:href="#m3cac9ffd10" x="247.917159" y="320.4" style="stroke: #000000; stroke-width: 0.8"/>
      </g>
     </g>
     <g id="text_3">
      <!-- 20 -->
      <g transform="translate(238.373409 338.797656) scale(0.15 -0.15)">
       <defs>
        <path id="DejaVuSans-32" d="M 1228 531 
L 3431 531 
L 3431 0 
L 469 0 
L 469 531 
Q 828 903 1448 1529 
Q 2069 2156 2228 2338 
Q 2531 2678 2651 2914 
Q 2772 3150 2772 3378 
Q 2772 3750 2511 3984 
Q 2250 4219 1831 4219 
Q 1534 4219 1204 4116 
Q 875 4013 500 3803 
L 500 4441 
Q 881 4594 1212 4672 
Q 1544 4750 1819 4750 
Q 2544 4750 2975 4387 
Q 3406 4025 3406 3419 
Q 3406 3131 3298 2873 
Q 3191 2616 2906 2266 
Q 2828 2175 2409 1742 
Q 1991 1309 1228 531 
z
" transform="scale(0.015625)"/>
       </defs>
       <use xlink:href="#DejaVuSans-32"/>
       <use xlink:href="#DejaVuSans-30" transform="translate(63.623047 0)"/>
      </g>
     </g>
    </g>
    <g id="xtick_4">
     <g id="line2d_4">
      <g>
       <use xlink:href="#m3cac9ffd10" x="318.935341" y="320.4" style="stroke: #000000; stroke-width: 0.8"/>
      </g>
     </g>
     <g id="text_4">
      <!-- 30 -->
      <g transform="translate(309.391591 338.797656) scale(0.15 -0.15)">
       <defs>
        <path id="DejaVuSans-33" d="M 2597 2516 
Q 3050 2419 3304 2112 
Q 3559 1806 3559 1356 
Q 3559 666 3084 287 
Q 2609 -91 1734 -91 
Q 1441 -91 1130 -33 
Q 819 25 488 141 
L 488 750 
Q 750 597 1062 519 
Q 1375 441 1716 441 
Q 2309 441 2620 675 
Q 2931 909 2931 1356 
Q 2931 1769 2642 2001 
Q 2353 2234 1838 2234 
L 1294 2234 
L 1294 2753 
L 1863 2753 
Q 2328 2753 2575 2939 
Q 2822 3125 2822 3475 
Q 2822 3834 2567 4026 
Q 2313 4219 1838 4219 
Q 1578 4219 1281 4162 
Q 984 4106 628 3988 
L 628 4550 
Q 988 4650 1302 4700 
Q 1616 4750 1894 4750 
Q 2613 4750 3031 4423 
Q 3450 4097 3450 3541 
Q 3450 3153 3228 2886 
Q 3006 2619 2597 2516 
z
" transform="scale(0.015625)"/>
       </defs>
       <use xlink:href="#DejaVuSans-33"/>
       <use xlink:href="#DejaVuSans-30" transform="translate(63.623047 0)"/>
      </g>
     </g>
    </g>
    <g id="xtick_5">
     <g id="line2d_5">
      <g>
       <use xlink:href="#m3cac9ffd10" x="389.953523" y="320.4" style="stroke: #000000; stroke-width: 0.8"/>
      </g>
     </g>
     <g id="text_5">
      <!-- 40 -->
      <g transform="translate(380.409773 338.797656) scale(0.15 -0.15)">
       <defs>
        <path id="DejaVuSans-34" d="M 2419 4116 
L 825 1625 
L 2419 1625 
L 2419 4116 
z
M 2253 4666 
L 3047 4666 
L 3047 1625 
L 3713 1625 
L 3713 1100 
L 3047 1100 
L 3047 0 
L 2419 0 
L 2419 1100 
L 313 1100 
L 313 1709 
L 2253 4666 
z
" transform="scale(0.015625)"/>
       </defs>
       <use xlink:href="#DejaVuSans-34"/>
       <use xlink:href="#DejaVuSans-30" transform="translate(63.623047 0)"/>
      </g>
     </g>
    </g>
    <g id="xtick_6">
     <g id="line2d_6">
      <g>
       <use xlink:href="#m3cac9ffd10" x="460.971705" y="320.4" style="stroke: #000000; stroke-width: 0.8"/>
      </g>
     </g>
     <g id="text_6">
      <!-- 50 -->
      <g transform="translate(451.427955 338.797656) scale(0.15 -0.15)">
       <defs>
        <path id="DejaVuSans-35" d="M 691 4666 
L 3169 4666 
L 3169 4134 
L 1269 4134 
L 1269 2991 
Q 1406 3038 1543 3061 
Q 1681 3084 1819 3084 
Q 2600 3084 3056 2656 
Q 3513 2228 3513 1497 
Q 3513 744 3044 326 
Q 2575 -91 1722 -91 
Q 1428 -91 1123 -41 
Q 819 9 494 109 
L 494 744 
Q 775 591 1075 516 
Q 1375 441 1709 441 
Q 2250 441 2565 725 
Q 2881 1009 2881 1497 
Q 2881 1984 2565 2268 
Q 2250 2553 1709 2553 
Q 1456 2553 1204 2497 
Q 953 2441 691 2322 
L 691 4666 
z
" transform="scale(0.015625)"/>
       </defs>
       <use xlink:href="#DejaVuSans-35"/>
       <use xlink:href="#DejaVuSans-30" transform="translate(63.623047 0)"/>
      </g>
     </g>
    </g>
    <g id="text_7">
     <!-- time [hr] -->
     <g transform="translate(238.351719 359.594375) scale(0.18 -0.18)">
      <defs>
       <path id="DejaVuSans-Bold-74" d="M 1759 4494 
L 1759 3500 
L 2913 3500 
L 2913 2700 
L 1759 2700 
L 1759 1216 
Q 1759 972 1856 886 
Q 1953 800 2241 800 
L 2816 800 
L 2816 0 
L 1856 0 
Q 1194 0 917 276 
Q 641 553 641 1216 
L 641 2700 
L 84 2700 
L 84 3500 
L 641 3500 
L 641 4494 
L 1759 4494 
z
" transform="scale(0.015625)"/>
       <path id="DejaVuSans-Bold-69" d="M 538 3500 
L 1656 3500 
L 1656 0 
L 538 0 
L 538 3500 
z
M 538 4863 
L 1656 4863 
L 1656 3950 
L 538 3950 
L 538 4863 
z
" transform="scale(0.015625)"/>
       <path id="DejaVuSans-Bold-6d" d="M 3781 2919 
Q 3994 3244 4286 3414 
Q 4578 3584 4928 3584 
Q 5531 3584 5847 3212 
Q 6163 2841 6163 2131 
L 6163 0 
L 5038 0 
L 5038 1825 
Q 5041 1866 5042 1909 
Q 5044 1953 5044 2034 
Q 5044 2406 4934 2573 
Q 4825 2741 4581 2741 
Q 4263 2741 4089 2478 
Q 3916 2216 3909 1719 
L 3909 0 
L 2784 0 
L 2784 1825 
Q 2784 2406 2684 2573 
Q 2584 2741 2328 2741 
Q 2006 2741 1831 2477 
Q 1656 2213 1656 1722 
L 1656 0 
L 531 0 
L 531 3500 
L 1656 3500 
L 1656 2988 
Q 1863 3284 2130 3434 
Q 2397 3584 2719 3584 
Q 3081 3584 3359 3409 
Q 3638 3234 3781 2919 
z
" transform="scale(0.015625)"/>
       <path id="DejaVuSans-Bold-65" d="M 4031 1759 
L 4031 1441 
L 1416 1441 
Q 1456 1047 1700 850 
Q 1944 653 2381 653 
Q 2734 653 3104 758 
Q 3475 863 3866 1075 
L 3866 213 
Q 3469 63 3072 -14 
Q 2675 -91 2278 -91 
Q 1328 -91 801 392 
Q 275 875 275 1747 
Q 275 2603 792 3093 
Q 1309 3584 2216 3584 
Q 3041 3584 3536 3087 
Q 4031 2591 4031 1759 
z
M 2881 2131 
Q 2881 2450 2695 2645 
Q 2509 2841 2209 2841 
Q 1884 2841 1681 2658 
Q 1478 2475 1428 2131 
L 2881 2131 
z
" transform="scale(0.015625)"/>
       <path id="DejaVuSans-Bold-20" transform="scale(0.015625)"/>
       <path id="DejaVuSans-Bold-5b" d="M 550 4863 
L 2491 4863 
L 2491 4159 
L 1613 4159 
L 1613 -141 
L 2491 -141 
L 2491 -844 
L 550 -844 
L 550 4863 
z
" transform="scale(0.015625)"/>
       <path id="DejaVuSans-Bold-68" d="M 4056 2131 
L 4056 0 
L 2931 0 
L 2931 347 
L 2931 1625 
Q 2931 2084 2911 2256 
Q 2891 2428 2841 2509 
Q 2775 2619 2662 2680 
Q 2550 2741 2406 2741 
Q 2056 2741 1856 2470 
Q 1656 2200 1656 1722 
L 1656 0 
L 538 0 
L 538 4863 
L 1656 4863 
L 1656 2988 
Q 1909 3294 2193 3439 
Q 2478 3584 2822 3584 
Q 3428 3584 3742 3212 
Q 4056 2841 4056 2131 
z
" transform="scale(0.015625)"/>
       <path id="DejaVuSans-Bold-72" d="M 3138 2547 
Q 2991 2616 2845 2648 
Q 2700 2681 2553 2681 
Q 2122 2681 1889 2404 
Q 1656 2128 1656 1613 
L 1656 0 
L 538 0 
L 538 3500 
L 1656 3500 
L 1656 2925 
Q 1872 3269 2151 3426 
Q 2431 3584 2822 3584 
Q 2878 3584 2943 3579 
Q 3009 3575 3134 3559 
L 3138 2547 
z
" transform="scale(0.015625)"/>
       <path id="DejaVuSans-Bold-5d" d="M 2375 -844 
L 434 -844 
L 434 -141 
L 1313 -141 
L 1313 4159 
L 434 4159 
L 434 4863 
L 2375 4863 
L 2375 -844 
z
" transform="scale(0.015625)"/>
      </defs>
      <use xlink:href="#DejaVuSans-Bold-74"/>
      <use xlink:href="#DejaVuSans-Bold-69" transform="translate(47.802734 0)"/>
      <use xlink:href="#DejaVuSans-Bold-6d" transform="translate(82.080078 0)"/>
      <use xlink:href="#DejaVuSans-Bold-65" transform="translate(186.279297 0)"/>
      <use xlink:href="#DejaVuSans-Bold-20" transform="translate(254.101562 0)"/>
      <use xlink:href="#DejaVuSans-Bold-5b" transform="translate(288.916016 0)"/>
      <use xlink:href="#DejaVuSans-Bold-68" transform="translate(334.619141 0)"/>
      <use xlink:href="#DejaVuSans-Bold-72" transform="translate(405.810547 0)"/>
      <use xlink:href="#DejaVuSans-Bold-5d" transform="translate(455.126953 0)"/>
     </g>
    </g>
   </g>
   <g id="matplotlib.axis_2">
    <g id="ytick_1">
     <g id="line2d_7">
      <defs>
       <path id="mab80c0a9dc" d="M 0 0 
L -3.5 0 
" style="stroke: #000000; stroke-width: 0.8"/>
      </defs>
      <g>
       <use xlink:href="#mab80c0a9dc" x="88.12625" y="299.416062" style="stroke: #000000; stroke-width: 0.8"/>
      </g>
     </g>
     <g id="text_8">
      <!-- 0.0000 -->
      <g transform="translate(28.640313 305.11489) scale(0.15 -0.15)">
       <defs>
        <path id="DejaVuSans-2e" d="M 684 794 
L 1344 794 
L 1344 0 
L 684 0 
L 684 794 
z
" transform="scale(0.015625)"/>
       </defs>
       <use xlink:href="#DejaVuSans-30"/>
       <use xlink:href="#DejaVuSans-2e" transform="translate(63.623047 0)"/>
       <use xlink:href="#DejaVuSans-30" transform="translate(95.410156 0)"/>
       <use xlink:href="#DejaVuSans-30" transform="translate(159.033203 0)"/>
       <use xlink:href="#DejaVuSans-30" transform="translate(222.65625 0)"/>
       <use xlink:href="#DejaVuSans-30" transform="translate(286.279297 0)"/>
      </g>
     </g>
    </g>
    <g id="ytick_2">
     <g id="line2d_8">
      <g>
       <use xlink:href="#mab80c0a9dc" x="88.12625" y="238.919526" style="stroke: #000000; stroke-width: 0.8"/>
      </g>
     </g>
     <g id="text_9">
      <!-- 0.0005 -->
      <g transform="translate(28.640313 244.618354) scale(0.15 -0.15)">
       <use xlink:href="#DejaVuSans-30"/>
       <use xlink:href="#DejaVuSans-2e" transform="translate(63.623047 0)"/>
       <use xlink:href="#DejaVuSans-30" transform="translate(95.410156 0)"/>
       <use xlink:href="#DejaVuSans-30" transform="translate(159.033203 0)"/>
       <use xlink:href="#DejaVuSans-30" transform="translate(222.65625 0)"/>
       <use xlink:href="#DejaVuSans-35" transform="translate(286.279297 0)"/>
      </g>
     </g>
    </g>
    <g id="ytick_3">
     <g id="line2d_9">
      <g>
       <use xlink:href="#mab80c0a9dc" x="88.12625" y="178.42299" style="stroke: #000000; stroke-width: 0.8"/>
      </g>
     </g>
     <g id="text_10">
      <!-- 0.0010 -->
      <g transform="translate(28.640313 184.121818) scale(0.15 -0.15)">
       <use xlink:href="#DejaVuSans-30"/>
       <use xlink:href="#DejaVuSans-2e" transform="translate(63.623047 0)"/>
       <use xlink:href="#DejaVuSans-30" transform="translate(95.410156 0)"/>
       <use xlink:href="#DejaVuSans-30" transform="translate(159.033203 0)"/>
       <use xlink:href="#DejaVuSans-31" transform="translate(222.65625 0)"/>
       <use xlink:href="#DejaVuSans-30" transform="translate(286.279297 0)"/>
      </g>
     </g>
    </g>
    <g id="ytick_4">
     <g id="line2d_10">
      <g>
       <use xlink:href="#mab80c0a9dc" x="88.12625" y="117.926454" style="stroke: #000000; stroke-width: 0.8"/>
      </g>
     </g>
     <g id="text_11">
      <!-- 0.0015 -->
      <g transform="translate(28.640313 123.625282) scale(0.15 -0.15)">
       <use xlink:href="#DejaVuSans-30"/>
       <use xlink:href="#DejaVuSans-2e" transform="translate(63.623047 0)"/>
       <use xlink:href="#DejaVuSans-30" transform="translate(95.410156 0)"/>
       <use xlink:href="#DejaVuSans-30" transform="translate(159.033203 0)"/>
       <use xlink:href="#DejaVuSans-31" transform="translate(222.65625 0)"/>
       <use xlink:href="#DejaVuSans-35" transform="translate(286.279297 0)"/>
      </g>
     </g>
    </g>
    <g id="ytick_5">
     <g id="line2d_11">
      <g>
       <use xlink:href="#mab80c0a9dc" x="88.12625" y="57.429918" style="stroke: #000000; stroke-width: 0.8"/>
      </g>
     </g>
     <g id="text_12">
      <!-- 0.0020 -->
      <g transform="translate(28.640313 63.128746) scale(0.15 -0.15)">
       <use xlink:href="#DejaVuSans-30"/>
       <use xlink:href="#DejaVuSans-2e" transform="translate(63.623047 0)"/>
       <use xlink:href="#DejaVuSans-30" transform="translate(95.410156 0)"/>
       <use xlink:href="#DejaVuSans-30" transform="translate(159.033203 0)"/>
       <use xlink:href="#DejaVuSans-32" transform="translate(222.65625 0)"/>
       <use xlink:href="#DejaVuSans-30" transform="translate(286.279297 0)"/>
      </g>
     </g>
    </g>
    <g id="text_13">
     <!-- apixaban plasma [µM] -->
     <g transform="translate(20.877187 294.6825) rotate(-90) scale(0.18 -0.18)">
      <defs>
       <path id="DejaVuSans-Bold-61" d="M 2106 1575 
Q 1756 1575 1579 1456 
Q 1403 1338 1403 1106 
Q 1403 894 1545 773 
Q 1688 653 1941 653 
Q 2256 653 2472 879 
Q 2688 1106 2688 1447 
L 2688 1575 
L 2106 1575 
z
M 3816 1997 
L 3816 0 
L 2688 0 
L 2688 519 
Q 2463 200 2181 54 
Q 1900 -91 1497 -91 
Q 953 -91 614 226 
Q 275 544 275 1050 
Q 275 1666 698 1953 
Q 1122 2241 2028 2241 
L 2688 2241 
L 2688 2328 
Q 2688 2594 2478 2717 
Q 2269 2841 1825 2841 
Q 1466 2841 1156 2769 
Q 847 2697 581 2553 
L 581 3406 
Q 941 3494 1303 3539 
Q 1666 3584 2028 3584 
Q 2975 3584 3395 3211 
Q 3816 2838 3816 1997 
z
" transform="scale(0.015625)"/>
       <path id="DejaVuSans-Bold-70" d="M 1656 506 
L 1656 -1331 
L 538 -1331 
L 538 3500 
L 1656 3500 
L 1656 2988 
Q 1888 3294 2169 3439 
Q 2450 3584 2816 3584 
Q 3463 3584 3878 3070 
Q 4294 2556 4294 1747 
Q 4294 938 3878 423 
Q 3463 -91 2816 -91 
Q 2450 -91 2169 54 
Q 1888 200 1656 506 
z
M 2400 2772 
Q 2041 2772 1848 2508 
Q 1656 2244 1656 1747 
Q 1656 1250 1848 986 
Q 2041 722 2400 722 
Q 2759 722 2948 984 
Q 3138 1247 3138 1747 
Q 3138 2247 2948 2509 
Q 2759 2772 2400 2772 
z
" transform="scale(0.015625)"/>
       <path id="DejaVuSans-Bold-78" d="M 1422 1791 
L 159 3500 
L 1344 3500 
L 2059 2463 
L 2784 3500 
L 3969 3500 
L 2706 1797 
L 4031 0 
L 2847 0 
L 2059 1106 
L 1281 0 
L 97 0 
L 1422 1791 
z
" transform="scale(0.015625)"/>
       <path id="DejaVuSans-Bold-62" d="M 2400 722 
Q 2759 722 2948 984 
Q 3138 1247 3138 1747 
Q 3138 2247 2948 2509 
Q 2759 2772 2400 2772 
Q 2041 2772 1848 2508 
Q 1656 2244 1656 1747 
Q 1656 1250 1848 986 
Q 2041 722 2400 722 
z
M 1656 2988 
Q 1888 3294 2169 3439 
Q 2450 3584 2816 3584 
Q 3463 3584 3878 3070 
Q 4294 2556 4294 1747 
Q 4294 938 3878 423 
Q 3463 -91 2816 -91 
Q 2450 -91 2169 54 
Q 1888 200 1656 506 
L 1656 0 
L 538 0 
L 538 4863 
L 1656 4863 
L 1656 2988 
z
" transform="scale(0.015625)"/>
       <path id="DejaVuSans-Bold-6e" d="M 4056 2131 
L 4056 0 
L 2931 0 
L 2931 347 
L 2931 1631 
Q 2931 2084 2911 2256 
Q 2891 2428 2841 2509 
Q 2775 2619 2662 2680 
Q 2550 2741 2406 2741 
Q 2056 2741 1856 2470 
Q 1656 2200 1656 1722 
L 1656 0 
L 538 0 
L 538 3500 
L 1656 3500 
L 1656 2988 
Q 1909 3294 2193 3439 
Q 2478 3584 2822 3584 
Q 3428 3584 3742 3212 
Q 4056 2841 4056 2131 
z
" transform="scale(0.015625)"/>
       <path id="DejaVuSans-Bold-6c" d="M 538 4863 
L 1656 4863 
L 1656 0 
L 538 0 
L 538 4863 
z
" transform="scale(0.015625)"/>
       <path id="DejaVuSans-Bold-73" d="M 3272 3391 
L 3272 2541 
Q 2913 2691 2578 2766 
Q 2244 2841 1947 2841 
Q 1628 2841 1473 2761 
Q 1319 2681 1319 2516 
Q 1319 2381 1436 2309 
Q 1553 2238 1856 2203 
L 2053 2175 
Q 2913 2066 3209 1816 
Q 3506 1566 3506 1031 
Q 3506 472 3093 190 
Q 2681 -91 1863 -91 
Q 1516 -91 1145 -36 
Q 775 19 384 128 
L 384 978 
Q 719 816 1070 734 
Q 1422 653 1784 653 
Q 2113 653 2278 743 
Q 2444 834 2444 1013 
Q 2444 1163 2330 1236 
Q 2216 1309 1875 1350 
L 1678 1375 
Q 931 1469 631 1722 
Q 331 1975 331 2491 
Q 331 3047 712 3315 
Q 1094 3584 1881 3584 
Q 2191 3584 2531 3537 
Q 2872 3491 3272 3391 
z
" transform="scale(0.015625)"/>
       <path id="DejaVuSans-Bold-b5" d="M 544 -1338 
L 544 3500 
L 1672 3500 
L 1672 1466 
Q 1672 1103 1828 926 
Q 1984 750 2303 750 
Q 2625 750 2781 926 
Q 2938 1103 2938 1466 
L 2938 3500 
L 4063 3500 
L 4063 1159 
Q 4063 938 4114 850 
Q 4166 763 4288 763 
Q 4344 763 4395 778 
Q 4447 794 4506 831 
L 4506 50 
Q 4341 -22 4195 -56 
Q 4050 -91 3909 -91 
Q 3631 -91 3454 26 
Q 3278 144 3169 403 
Q 3022 156 2811 32 
Q 2600 -91 2322 -91 
Q 2091 -91 1928 -17 
Q 1766 56 1672 206 
L 1672 -1338 
L 544 -1338 
z
" transform="scale(0.015625)"/>
       <path id="DejaVuSans-Bold-4d" d="M 588 4666 
L 2119 4666 
L 3181 2169 
L 4250 4666 
L 5778 4666 
L 5778 0 
L 4641 0 
L 4641 3413 
L 3566 897 
L 2803 897 
L 1728 3413 
L 1728 0 
L 588 0 
L 588 4666 
z
" transform="scale(0.015625)"/>
      </defs>
      <use xlink:href="#DejaVuSans-Bold-61"/>
      <use xlink:href="#DejaVuSans-Bold-70" transform="translate(67.480469 0)"/>
      <use xlink:href="#DejaVuSans-Bold-69" transform="translate(139.0625 0)"/>
      <use xlink:href="#DejaVuSans-Bold-78" transform="translate(173.339844 0)"/>
      <use xlink:href="#DejaVuSans-Bold-61" transform="translate(237.841797 0)"/>
      <use xlink:href="#DejaVuSans-Bold-62" transform="translate(305.322266 0)"/>
      <use xlink:href="#DejaVuSans-Bold-61" transform="translate(376.904297 0)"/>
      <use xlink:href="#DejaVuSans-Bold-6e" transform="translate(444.384766 0)"/>
      <use xlink:href="#DejaVuSans-Bold-20" transform="translate(515.576172 0)"/>
      <use xlink:href="#DejaVuSans-Bold-70" transform="translate(550.390625 0)"/>
      <use xlink:href="#DejaVuSans-Bold-6c" transform="translate(621.972656 0)"/>
      <use xlink:href="#DejaVuSans-Bold-61" transform="translate(656.25 0)"/>
      <use xlink:href="#DejaVuSans-Bold-73" transform="translate(723.730469 0)"/>
      <use xlink:href="#DejaVuSans-Bold-6d" transform="translate(783.251953 0)"/>
      <use xlink:href="#DejaVuSans-Bold-61" transform="translate(887.451172 0)"/>
      <use xlink:href="#DejaVuSans-Bold-20" transform="translate(954.931641 0)"/>
      <use xlink:href="#DejaVuSans-Bold-5b" transform="translate(989.746094 0)"/>
      <use xlink:href="#DejaVuSans-Bold-b5" transform="translate(1035.449219 0)"/>
      <use xlink:href="#DejaVuSans-Bold-4d" transform="translate(1109.033203 0)"/>
      <use xlink:href="#DejaVuSans-Bold-5d" transform="translate(1208.544922 0)"/>
     </g>
    </g>
   </g>
   <g id="LineCollection_1">
    <path clip-path="url(#p27f31705d3)" style="fill: none; stroke: #000000"/>
    <path d="M 107.65625 272.228827 
L 107.65625 198.111025 
" clip-path="url(#p27f31705d3)" style="fill: none; stroke: #000000"/>
    <path d="M 109.431705 209.836425 
L 109.431705 127.919244 
" clip-path="url(#p27f31705d3)" style="fill: none; stroke: #000000"/>
    <path d="M 111.207159 180.534773 
L 111.207159 75.351111 
" clip-path="url(#p27f31705d3)" style="fill: none; stroke: #000000"/>
    <path d="M 112.982614 165.001843 
L 112.982614 55.8 
" clip-path="url(#p27f31705d3)" style="fill: none; stroke: #000000"/>
    <path d="M 116.533523 157.247227 
L 116.533523 75.351111 
" clip-path="url(#p27f31705d3)" style="fill: none; stroke: #000000"/>
    <path d="M 120.084432 163.171807 
L 120.084432 69.547657 
" clip-path="url(#p27f31705d3)" style="fill: none; stroke: #000000"/>
    <path d="M 123.635341 149.56634 
L 123.635341 75.448538 
" clip-path="url(#p27f31705d3)" style="fill: none; stroke: #000000"/>
    <path d="M 127.18625 169.117451 
L 127.18625 102.804295 
" clip-path="url(#p27f31705d3)" style="fill: none; stroke: #000000"/>
    <path d="M 130.737159 171.116009 
L 130.737159 116.504555 
" clip-path="url(#p27f31705d3)" style="fill: none; stroke: #000000"/>
    <path d="M 134.288068 184.821535 
L 134.288068 130.204815 
" clip-path="url(#p27f31705d3)" style="fill: none; stroke: #000000"/>
    <path d="M 141.389886 196.618031 
L 141.389886 138.104254 
" clip-path="url(#p27f31705d3)" style="fill: none; stroke: #000000"/>
    <path d="M 148.491705 216.219172 
L 148.491705 173.30942 
" clip-path="url(#p27f31705d3)" style="fill: none; stroke: #000000"/>
    <path d="M 162.695341 245.681446 
L 162.695341 202.771694 
" clip-path="url(#p27f31705d3)" style="fill: none; stroke: #000000"/>
    <path d="M 176.898977 253.678311 
L 176.898977 230.26964 
" clip-path="url(#p27f31705d3)" style="fill: none; stroke: #000000"/>
    <path d="M 191.102614 265.572233 
L 191.102614 246.065885 
" clip-path="url(#p27f31705d3)" style="fill: none; stroke: #000000"/>
    <path d="M 276.324432 290.15792 
L 276.324432 286.255597 
" clip-path="url(#p27f31705d3)" style="fill: none; stroke: #000000"/>
   </g>
   <g id="LineCollection_2">
    <path clip-path="url(#p27f31705d3)" style="fill: none; stroke: #1f77b4"/>
    <path d="M 107.65625 283.919996 
L 107.65625 233.23193 
" clip-path="url(#p27f31705d3)" style="fill: none; stroke: #1f77b4"/>
    <path d="M 109.431705 248.849121 
L 109.431705 100.608251 
" clip-path="url(#p27f31705d3)" style="fill: none; stroke: #1f77b4"/>
    <path d="M 111.207159 205.949901 
L 111.207159 96.721727 
" clip-path="url(#p27f31705d3)" style="fill: none; stroke: #1f77b4"/>
    <path d="M 112.982614 196.233591 
L 112.982614 98.707119 
" clip-path="url(#p27f31705d3)" style="fill: none; stroke: #1f77b4"/>
    <path d="M 116.533523 178.728435 
L 116.533523 100.70831 
" clip-path="url(#p27f31705d3)" style="fill: none; stroke: #1f77b4"/>
    <path d="M 120.084432 182.675521 
L 120.084432 104.655396 
" clip-path="url(#p27f31705d3)" style="fill: none; stroke: #1f77b4"/>
    <path d="M 123.635341 178.823228 
L 123.635341 116.407128 
" clip-path="url(#p27f31705d3)" style="fill: none; stroke: #1f77b4"/>
    <path d="M 127.18625 190.57496 
L 127.18625 120.359481 
" clip-path="url(#p27f31705d3)" style="fill: none; stroke: #1f77b4"/>
    <path d="M 130.737159 200.375531 
L 130.737159 145.75881 
" clip-path="url(#p27f31705d3)" style="fill: none; stroke: #1f77b4"/>
    <path d="M 134.288068 208.22494 
L 134.288068 165.341519 
" clip-path="url(#p27f31705d3)" style="fill: none; stroke: #1f77b4"/>
    <path d="M 141.389886 221.97523 
L 141.389886 190.76718 
" clip-path="url(#p27f31705d3)" style="fill: none; stroke: #1f77b4"/>
    <path d="M 148.491705 241.576371 
L 148.491705 214.291709 
" clip-path="url(#p27f31705d3)" style="fill: none; stroke: #1f77b4"/>
    <path d="M 162.695341 261.285471 
L 162.695341 245.681446 
" clip-path="url(#p27f31705d3)" style="fill: none; stroke: #1f77b4"/>
    <path d="M 176.898977 275.130554 
L 176.898977 267.331175 
" clip-path="url(#p27f31705d3)" style="fill: none; stroke: #1f77b4"/>
    <path d="M 191.102614 281.176258 
L 191.102614 277.300266 
" clip-path="url(#p27f31705d3)" style="fill: none; stroke: #1f77b4"/>
    <path clip-path="url(#p27f31705d3)" style="fill: none; stroke: #1f77b4"/>
   </g>
   <g id="LineCollection_3">
    <path d="M 105.880795 307.8 
L 105.880795 274.258982 
" clip-path="url(#p27f31705d3)" style="fill: none; stroke: #000000"/>
    <path d="M 107.65625 239.038018 
L 107.65625 195.433115 
" clip-path="url(#p27f31705d3)" style="fill: none; stroke: #000000"/>
    <path d="M 109.431705 155.180208 
L 109.431705 104.866048 
" clip-path="url(#p27f31705d3)" style="fill: none; stroke: #000000"/>
    <path d="M 111.207159 155.180208 
L 111.207159 81.383649 
" clip-path="url(#p27f31705d3)" style="fill: none; stroke: #000000"/>
    <path d="M 112.982614 156.857522 
L 112.982614 96.479477 
" clip-path="url(#p27f31705d3)" style="fill: none; stroke: #000000"/>
    <path d="M 116.533523 161.889464 
L 116.533523 108.220676 
" clip-path="url(#p27f31705d3)" style="fill: none; stroke: #000000"/>
    <path d="M 120.084432 185.366597 
L 120.084432 104.866048 
" clip-path="url(#p27f31705d3)" style="fill: none; stroke: #000000"/>
    <path d="M 123.635341 195.433115 
L 123.635341 124.991185 
" clip-path="url(#p27f31705d3)" style="fill: none; stroke: #000000"/>
    <path d="M 127.18625 215.558252 
L 127.18625 158.534836 
" clip-path="url(#p27f31705d3)" style="fill: none; stroke: #000000"/>
    <path d="M 130.737159 225.622137 
L 130.737159 198.78511 
" clip-path="url(#p27f31705d3)" style="fill: none; stroke: #000000"/>
    <path d="M 134.288068 240.712699 
L 134.288068 217.235566 
" clip-path="url(#p27f31705d3)" style="fill: none; stroke: #000000"/>
    <path d="M 141.389886 249.101903 
L 141.389886 232.328761 
" clip-path="url(#p27f31705d3)" style="fill: none; stroke: #000000"/>
    <path d="M 148.491705 260.843102 
L 148.491705 244.06996 
" clip-path="url(#p27f31705d3)" style="fill: none; stroke: #000000"/>
    <path d="M 162.695341 274.258982 
L 162.695341 267.549726 
" clip-path="url(#p27f31705d3)" style="fill: none; stroke: #000000"/>
    <path d="M 176.898977 284.322868 
L 176.898977 274.258982 
" clip-path="url(#p27f31705d3)" style="fill: none; stroke: #000000"/>
    <path clip-path="url(#p27f31705d3)" style="fill: none; stroke: #000000"/>
    <path clip-path="url(#p27f31705d3)" style="fill: none; stroke: #000000"/>
   </g>
   <g id="LineCollection_4">
    <path clip-path="url(#p27f31705d3)" style="fill: none; stroke: #ff7f0e"/>
    <path d="M 107.65625 242.392646 
L 107.65625 178.659973 
" clip-path="url(#p27f31705d3)" style="fill: none; stroke: #ff7f0e"/>
    <path d="M 109.431705 171.950716 
L 109.431705 94.804796 
" clip-path="url(#p27f31705d3)" style="fill: none; stroke: #ff7f0e"/>
    <path d="M 111.207159 161.889464 
L 111.207159 84.738278 
" clip-path="url(#p27f31705d3)" style="fill: none; stroke: #ff7f0e"/>
    <path d="M 112.982614 166.921407 
L 112.982614 93.124849 
" clip-path="url(#p27f31705d3)" style="fill: none; stroke: #ff7f0e"/>
    <path d="M 116.533523 187.046544 
L 116.533523 119.959243 
" clip-path="url(#p27f31705d3)" style="fill: none; stroke: #ff7f0e"/>
    <path d="M 120.084432 192.078487 
L 120.084432 145.113689 
" clip-path="url(#p27f31705d3)" style="fill: none; stroke: #ff7f0e"/>
    <path d="M 123.635341 203.817053 
L 123.635341 153.502893 
" clip-path="url(#p27f31705d3)" style="fill: none; stroke: #ff7f0e"/>
    <path d="M 127.18625 218.91288 
L 127.18625 188.721225 
" clip-path="url(#p27f31705d3)" style="fill: none; stroke: #ff7f0e"/>
    <path d="M 130.737159 225.622137 
L 130.737159 198.78511 
" clip-path="url(#p27f31705d3)" style="fill: none; stroke: #ff7f0e"/>
    <path d="M 134.288068 235.683389 
L 134.288068 215.560885 
" clip-path="url(#p27f31705d3)" style="fill: none; stroke: #ff7f0e"/>
    <path d="M 141.389886 254.133845 
L 141.389886 234.006075 
" clip-path="url(#p27f31705d3)" style="fill: none; stroke: #ff7f0e"/>
    <path d="M 148.491705 264.195097 
L 148.491705 244.072593 
" clip-path="url(#p27f31705d3)" style="fill: none; stroke: #ff7f0e"/>
    <path d="M 162.695341 275.936297 
L 162.695341 265.872412 
" clip-path="url(#p27f31705d3)" style="fill: none; stroke: #ff7f0e"/>
    <path clip-path="url(#p27f31705d3)" style="fill: none; stroke: #ff7f0e"/>
    <path clip-path="url(#p27f31705d3)" style="fill: none; stroke: #ff7f0e"/>
    <path clip-path="url(#p27f31705d3)" style="fill: none; stroke: #ff7f0e"/>
   </g>
   <g id="LineCollection_5">
    <path clip-path="url(#p27f31705d3)" style="fill: none; stroke: #000000"/>
    <path d="M 107.65625 263.802759 
L 107.65625 231.430858 
" clip-path="url(#p27f31705d3)" style="fill: none; stroke: #000000"/>
    <path d="M 109.431705 195.817554 
L 109.431705 146.17748 
" clip-path="url(#p27f31705d3)" style="fill: none; stroke: #000000"/>
    <path d="M 111.207159 153.729344 
L 111.207159 123.511357 
" clip-path="url(#p27f31705d3)" style="fill: none; stroke: #000000"/>
    <path d="M 112.982614 140.77953 
L 112.982614 110.561544 
" clip-path="url(#p27f31705d3)" style="fill: none; stroke: #000000"/>
    <path d="M 116.533523 131.068487 
L 116.533523 83.582327 
" clip-path="url(#p27f31705d3)" style="fill: none; stroke: #000000"/>
    <path d="M 120.084432 142.93871 
L 120.084432 86.821097 
" clip-path="url(#p27f31705d3)" style="fill: none; stroke: #000000"/>
    <path d="M 123.635341 136.463804 
L 123.635341 84.66455 
" clip-path="url(#p27f31705d3)" style="fill: none; stroke: #000000"/>
    <path d="M 127.18625 153.729344 
L 127.18625 80.348823 
" clip-path="url(#p27f31705d3)" style="fill: none; stroke: #000000"/>
    <path d="M 130.737159 163.443021 
L 130.737159 100.847867 
" clip-path="url(#p27f31705d3)" style="fill: none; stroke: #000000"/>
    <path d="M 134.288068 176.392834 
L 134.288068 118.11604 
" clip-path="url(#p27f31705d3)" style="fill: none; stroke: #000000"/>
    <path d="M 141.389886 192.578784 
L 141.389886 158.047704 
" clip-path="url(#p27f31705d3)" style="fill: none; stroke: #000000"/>
    <path d="M 148.491705 216.321865 
L 148.491705 183.944698 
" clip-path="url(#p27f31705d3)" style="fill: none; stroke: #000000"/>
    <path d="M 162.695341 237.903132 
L 162.695341 214.162685 
" clip-path="url(#p27f31705d3)" style="fill: none; stroke: #000000"/>
    <path d="M 176.898977 258.407442 
L 176.898977 241.144535 
" clip-path="url(#p27f31705d3)" style="fill: none; stroke: #000000"/>
    <path d="M 191.102614 270.277665 
L 191.102614 257.327852 
" clip-path="url(#p27f31705d3)" style="fill: none; stroke: #000000"/>
    <path clip-path="url(#p27f31705d3)" style="fill: none; stroke: #000000"/>
   </g>
   <g id="LineCollection_6">
    <path clip-path="url(#p27f31705d3)" style="fill: none; stroke: #d62728"/>
    <path d="M 107.65625 256.253528 
L 107.65625 217.398821 
" clip-path="url(#p27f31705d3)" style="fill: none; stroke: #d62728"/>
    <path d="M 109.431705 187.183468 
L 109.431705 146.174847 
" clip-path="url(#p27f31705d3)" style="fill: none; stroke: #d62728"/>
    <path d="M 111.207159 152.649754 
L 111.207159 72.791693 
" clip-path="url(#p27f31705d3)" style="fill: none; stroke: #d62728"/>
    <path d="M 112.982614 148.33666 
L 112.982614 85.741507 
" clip-path="url(#p27f31705d3)" style="fill: none; stroke: #d62728"/>
    <path d="M 116.533523 135.386847 
L 116.533523 72.791693 
" clip-path="url(#p27f31705d3)" style="fill: none; stroke: #d62728"/>
    <path d="M 120.084432 150.493207 
L 120.084432 83.58496 
" clip-path="url(#p27f31705d3)" style="fill: none; stroke: #d62728"/>
    <path d="M 123.635341 146.174847 
L 123.635341 79.2666 
" clip-path="url(#p27f31705d3)" style="fill: none; stroke: #d62728"/>
    <path d="M 127.18625 154.808934 
L 127.18625 87.900686 
" clip-path="url(#p27f31705d3)" style="fill: none; stroke: #d62728"/>
    <path d="M 130.737159 169.915294 
L 130.737159 109.484587 
" clip-path="url(#p27f31705d3)" style="fill: none; stroke: #d62728"/>
    <path d="M 134.288068 178.549381 
L 134.288068 128.909307 
" clip-path="url(#p27f31705d3)" style="fill: none; stroke: #d62728"/>
    <path d="M 141.389886 201.215504 
L 141.389886 164.519977 
" clip-path="url(#p27f31705d3)" style="fill: none; stroke: #d62728"/>
    <path d="M 148.491705 217.401454 
L 148.491705 189.342648 
" clip-path="url(#p27f31705d3)" style="fill: none; stroke: #d62728"/>
    <path d="M 162.695341 247.619441 
L 162.695341 226.032908 
" clip-path="url(#p27f31705d3)" style="fill: none; stroke: #d62728"/>
    <path d="M 176.898977 259.487032 
L 176.898977 246.537218 
" clip-path="url(#p27f31705d3)" style="fill: none; stroke: #d62728"/>
    <path clip-path="url(#p27f31705d3)" style="fill: none; stroke: #d62728"/>
    <path clip-path="url(#p27f31705d3)" style="fill: none; stroke: #d62728"/>
   </g>
   <g id="line2d_12">
    <path d="M 105.880795 299.416062 
L 106.590977 297.662688 
L 107.301159 293.337079 
L 111.56225 261.736514 
L 112.982614 252.97939 
L 114.402977 245.314827 
L 115.823341 238.658543 
L 117.243705 232.918612 
L 118.664068 228.006875 
L 120.084432 223.841799 
L 121.504795 220.348857 
L 122.925159 217.460195 
L 124.345523 215.114128 
L 125.765886 213.254617 
L 127.18625 211.830776 
L 128.606614 210.796419 
L 130.026977 210.109635 
L 131.447341 209.732416 
L 132.867705 209.6303 
L 134.288068 209.772061 
L 135.708432 210.129417 
L 137.128795 210.676765 
L 139.259341 211.803962 
L 141.389886 213.23802 
L 143.520432 214.919689 
L 146.361159 217.460414 
L 149.912068 220.978431 
L 154.883341 226.275445 
L 169.086977 241.661236 
L 174.768432 247.379641 
L 179.739705 252.058592 
L 184.710977 256.410408 
L 189.68225 260.429516 
L 194.653523 264.121367 
L 199.624795 267.498468 
L 204.596068 270.577595 
L 209.567341 273.377852 
L 214.538614 275.919347 
L 219.509886 278.22229 
L 225.191341 280.587389 
L 230.872795 282.694699 
L 236.55425 284.57041 
L 242.945886 286.433722 
L 249.337523 288.065596 
L 256.439341 289.641204 
L 264.251341 291.124359 
L 272.063341 292.383366 
L 280.585523 293.540443 
L 290.528068 294.652478 
L 301.180795 295.61177 
L 313.253886 296.467788 
L 326.747341 297.198789 
L 342.371341 297.821955 
L 361.54625 298.352807 
L 384.98225 298.767926 
L 415.520068 299.076008 
L 460.261523 299.28389 
L 460.971705 299.285858 
L 460.971705 299.285858 
" clip-path="url(#p27f31705d3)" style="fill: none; stroke: #000000; stroke-width: 2; stroke-linecap: square"/>
   </g>
   <g id="line2d_13">
    <path d="M 105.880795 297.562327 
L 107.65625 235.169926 
L 109.431705 168.877835 
L 111.207159 127.942942 
L 112.982614 110.400922 
L 116.533523 116.299169 
L 120.084432 116.359732 
L 123.635341 112.507439 
L 127.18625 135.960873 
L 130.737159 143.810282 
L 134.288068 157.513175 
L 141.389886 167.361142 
L 148.491705 194.764296 
L 162.695341 224.22657 
L 176.898977 241.973976 
L 191.102614 255.819059 
L 276.324432 288.206758 
" clip-path="url(#p27f31705d3)" style="fill: none; stroke-dasharray: 3.7,1.6; stroke-dashoffset: 0; stroke: #000000"/>
    <defs>
     <path id="mde7636e066" d="M -3 3 
L 3 3 
L 3 -3 
L -3 -3 
z
" style="stroke: #000000; stroke-linejoin: miter"/>
    </defs>
    <g clip-path="url(#p27f31705d3)">
     <use xlink:href="#mde7636e066" x="105.880795" y="297.562327" style="stroke: #000000; stroke-linejoin: miter"/>
     <use xlink:href="#mde7636e066" x="107.65625" y="235.169926" style="stroke: #000000; stroke-linejoin: miter"/>
     <use xlink:href="#mde7636e066" x="109.431705" y="168.877835" style="stroke: #000000; stroke-linejoin: miter"/>
     <use xlink:href="#mde7636e066" x="111.207159" y="127.942942" style="stroke: #000000; stroke-linejoin: miter"/>
     <use xlink:href="#mde7636e066" x="112.982614" y="110.400922" style="stroke: #000000; stroke-linejoin: miter"/>
     <use xlink:href="#mde7636e066" x="116.533523" y="116.299169" style="stroke: #000000; stroke-linejoin: miter"/>
     <use xlink:href="#mde7636e066" x="120.084432" y="116.359732" style="stroke: #000000; stroke-linejoin: miter"/>
     <use xlink:href="#mde7636e066" x="123.635341" y="112.507439" style="stroke: #000000; stroke-linejoin: miter"/>
     <use xlink:href="#mde7636e066" x="127.18625" y="135.960873" style="stroke: #000000; stroke-linejoin: miter"/>
     <use xlink:href="#mde7636e066" x="130.737159" y="143.810282" style="stroke: #000000; stroke-linejoin: miter"/>
     <use xlink:href="#mde7636e066" x="134.288068" y="157.513175" style="stroke: #000000; stroke-linejoin: miter"/>
     <use xlink:href="#mde7636e066" x="141.389886" y="167.361142" style="stroke: #000000; stroke-linejoin: miter"/>
     <use xlink:href="#mde7636e066" x="148.491705" y="194.764296" style="stroke: #000000; stroke-linejoin: miter"/>
     <use xlink:href="#mde7636e066" x="162.695341" y="224.22657" style="stroke: #000000; stroke-linejoin: miter"/>
     <use xlink:href="#mde7636e066" x="176.898977" y="241.973976" style="stroke: #000000; stroke-linejoin: miter"/>
     <use xlink:href="#mde7636e066" x="191.102614" y="255.819059" style="stroke: #000000; stroke-linejoin: miter"/>
     <use xlink:href="#mde7636e066" x="276.324432" y="288.206758" style="stroke: #000000; stroke-linejoin: miter"/>
    </g>
   </g>
   <g id="line2d_14">
    <path d="M 105.880795 299.416062 
L 106.590977 297.662688 
L 107.301159 293.337079 
L 111.56225 261.736514 
L 112.982614 252.97939 
L 114.402977 245.314827 
L 115.823341 238.658543 
L 117.243705 232.918612 
L 118.664068 228.006875 
L 120.084432 223.841799 
L 121.504795 220.348857 
L 122.925159 217.460195 
L 124.345523 215.114128 
L 125.765886 213.254617 
L 127.18625 211.830776 
L 128.606614 210.796419 
L 130.026977 210.109635 
L 131.447341 209.732416 
L 132.867705 209.6303 
L 134.288068 209.772061 
L 135.708432 210.129417 
L 137.128795 210.676765 
L 139.259341 211.803962 
L 141.389886 213.23802 
L 143.520432 214.919689 
L 146.361159 217.460414 
L 149.912068 220.978431 
L 154.883341 226.275445 
L 169.086977 241.661236 
L 174.768432 247.379641 
L 179.739705 252.058592 
L 184.710977 256.410408 
L 189.68225 260.429516 
L 194.653523 264.121367 
L 199.624795 267.498468 
L 204.596068 270.577595 
L 209.567341 273.377852 
L 214.538614 275.919347 
L 219.509886 278.22229 
L 225.191341 280.587389 
L 230.872795 282.694699 
L 236.55425 284.57041 
L 242.945886 286.433722 
L 249.337523 288.065596 
L 256.439341 289.641204 
L 264.251341 291.124359 
L 272.063341 292.383366 
L 280.585523 293.540443 
L 290.528068 294.652478 
L 301.180795 295.61177 
L 313.253886 296.467788 
L 326.747341 297.198789 
L 342.371341 297.821955 
L 361.54625 298.352807 
L 384.98225 298.767926 
L 415.520068 299.076008 
L 460.261523 299.28389 
L 460.971705 299.285858 
L 460.971705 299.285858 
" clip-path="url(#p27f31705d3)" style="fill: none; stroke: #1f77b4; stroke-width: 2; stroke-linecap: square"/>
   </g>
   <g id="line2d_15">
    <path d="M 105.880795 299.416062 
L 107.65625 258.575963 
L 109.431705 174.728686 
L 111.207159 151.335814 
L 112.982614 147.470355 
L 116.533523 139.718372 
L 120.084432 143.665459 
L 123.635341 147.615178 
L 127.18625 155.46722 
L 130.737159 173.06717 
L 134.288068 186.783229 
L 141.389886 206.371205 
L 148.491705 227.93404 
L 162.695341 253.483458 
L 176.898977 271.230864 
L 191.102614 279.238262 
L 276.324432 297.959932 
" clip-path="url(#p27f31705d3)" style="fill: none; stroke-dasharray: 3.7,1.6; stroke-dashoffset: 0; stroke: #1f77b4"/>
    <defs>
     <path id="m8799784f5e" d="M -3 3 
L 3 3 
L 3 -3 
L -3 -3 
z
" style="stroke: #000000; stroke-linejoin: miter"/>
    </defs>
    <g clip-path="url(#p27f31705d3)">
     <use xlink:href="#m8799784f5e" x="105.880795" y="299.416062" style="fill: #1f77b4; stroke: #000000; stroke-linejoin: miter"/>
     <use xlink:href="#m8799784f5e" x="107.65625" y="258.575963" style="fill: #1f77b4; stroke: #000000; stroke-linejoin: miter"/>
     <use xlink:href="#m8799784f5e" x="109.431705" y="174.728686" style="fill: #1f77b4; stroke: #000000; stroke-linejoin: miter"/>
     <use xlink:href="#m8799784f5e" x="111.207159" y="151.335814" style="fill: #1f77b4; stroke: #000000; stroke-linejoin: miter"/>
     <use xlink:href="#m8799784f5e" x="112.982614" y="147.470355" style="fill: #1f77b4; stroke: #000000; stroke-linejoin: miter"/>
     <use xlink:href="#m8799784f5e" x="116.533523" y="139.718372" style="fill: #1f77b4; stroke: #000000; stroke-linejoin: miter"/>
     <use xlink:href="#m8799784f5e" x="120.084432" y="143.665459" style="fill: #1f77b4; stroke: #000000; stroke-linejoin: miter"/>
     <use xlink:href="#m8799784f5e" x="123.635341" y="147.615178" style="fill: #1f77b4; stroke: #000000; stroke-linejoin: miter"/>
     <use xlink:href="#m8799784f5e" x="127.18625" y="155.46722" style="fill: #1f77b4; stroke: #000000; stroke-linejoin: miter"/>
     <use xlink:href="#m8799784f5e" x="130.737159" y="173.06717" style="fill: #1f77b4; stroke: #000000; stroke-linejoin: miter"/>
     <use xlink:href="#m8799784f5e" x="134.288068" y="186.783229" style="fill: #1f77b4; stroke: #000000; stroke-linejoin: miter"/>
     <use xlink:href="#m8799784f5e" x="141.389886" y="206.371205" style="fill: #1f77b4; stroke: #000000; stroke-linejoin: miter"/>
     <use xlink:href="#m8799784f5e" x="148.491705" y="227.93404" style="fill: #1f77b4; stroke: #000000; stroke-linejoin: miter"/>
     <use xlink:href="#m8799784f5e" x="162.695341" y="253.483458" style="fill: #1f77b4; stroke: #000000; stroke-linejoin: miter"/>
     <use xlink:href="#m8799784f5e" x="176.898977" y="271.230864" style="fill: #1f77b4; stroke: #000000; stroke-linejoin: miter"/>
     <use xlink:href="#m8799784f5e" x="191.102614" y="279.238262" style="fill: #1f77b4; stroke: #000000; stroke-linejoin: miter"/>
     <use xlink:href="#m8799784f5e" x="276.324432" y="297.959932" style="fill: #1f77b4; stroke: #000000; stroke-linejoin: miter"/>
    </g>
   </g>
   <g id="line2d_16">
    <path d="M 105.880795 299.416062 
L 106.590977 297.662688 
L 107.301159 293.337079 
L 111.56225 261.736514 
L 112.982614 252.97939 
L 114.402977 245.314827 
L 115.823341 238.658543 
L 117.243705 232.918612 
L 118.664068 228.006875 
L 120.084432 223.841799 
L 121.504795 220.348857 
L 122.925159 217.460195 
L 124.345523 215.114128 
L 125.765886 213.254617 
L 127.18625 211.830776 
L 128.606614 210.796419 
L 130.026977 210.109635 
L 131.447341 209.732416 
L 132.867705 209.6303 
L 134.288068 209.772061 
L 135.708432 210.129417 
L 137.128795 210.676765 
L 139.259341 211.803962 
L 141.389886 213.23802 
L 143.520432 214.919689 
L 146.361159 217.460414 
L 149.912068 220.978431 
L 154.883341 226.275445 
L 169.086977 241.661236 
L 174.768432 247.379641 
L 179.739705 252.058592 
L 184.710977 256.410408 
L 189.68225 260.429516 
L 194.653523 264.121367 
L 199.624795 267.498468 
L 204.596068 270.577595 
L 209.567341 273.377852 
L 214.538614 275.919347 
L 219.509886 278.22229 
L 225.191341 280.587389 
L 230.872795 282.694699 
L 236.55425 284.57041 
L 242.945886 286.433722 
L 249.337523 288.065596 
L 256.439341 289.641204 
L 264.251341 291.124359 
L 272.063341 292.383366 
L 280.585523 293.540443 
L 290.528068 294.652478 
L 301.180795 295.61177 
L 313.253886 296.467788 
L 326.747341 297.198789 
L 342.371341 297.821955 
L 361.54625 298.352807 
L 384.98225 298.767926 
L 415.520068 299.076008 
L 460.261523 299.28389 
L 460.971705 299.285858 
L 460.971705 299.285858 
" clip-path="url(#p27f31705d3)" style="fill: none; stroke: #000000; stroke-width: 2; stroke-linecap: square"/>
   </g>
   <g id="line2d_17">
    <path d="M 105.880795 291.029491 
L 107.65625 217.235566 
L 109.431705 130.023128 
L 111.207159 118.281928 
L 112.982614 126.668499 
L 116.533523 135.05507 
L 120.084432 145.116322 
L 123.635341 160.21215 
L 127.18625 187.046544 
L 130.737159 212.203624 
L 134.288068 228.974132 
L 141.389886 240.715332 
L 148.491705 252.456531 
L 162.695341 270.904354 
L 176.898977 279.290925 
L 191.102614 287.674863 
L 276.324432 296.061434 
" clip-path="url(#p27f31705d3)" style="fill: none; stroke-dasharray: 3.7,1.6; stroke-dashoffset: 0; stroke: #000000"/>
    <g clip-path="url(#p27f31705d3)">
     <use xlink:href="#mde7636e066" x="105.880795" y="291.029491" style="stroke: #000000; stroke-linejoin: miter"/>
     <use xlink:href="#mde7636e066" x="107.65625" y="217.235566" style="stroke: #000000; stroke-linejoin: miter"/>
     <use xlink:href="#mde7636e066" x="109.431705" y="130.023128" style="stroke: #000000; stroke-linejoin: miter"/>
     <use xlink:href="#mde7636e066" x="111.207159" y="118.281928" style="stroke: #000000; stroke-linejoin: miter"/>
     <use xlink:href="#mde7636e066" x="112.982614" y="126.668499" style="stroke: #000000; stroke-linejoin: miter"/>
     <use xlink:href="#mde7636e066" x="116.533523" y="135.05507" style="stroke: #000000; stroke-linejoin: miter"/>
     <use xlink:href="#mde7636e066" x="120.084432" y="145.116322" style="stroke: #000000; stroke-linejoin: miter"/>
     <use xlink:href="#mde7636e066" x="123.635341" y="160.21215" style="stroke: #000000; stroke-linejoin: miter"/>
     <use xlink:href="#mde7636e066" x="127.18625" y="187.046544" style="stroke: #000000; stroke-linejoin: miter"/>
     <use xlink:href="#mde7636e066" x="130.737159" y="212.203624" style="stroke: #000000; stroke-linejoin: miter"/>
     <use xlink:href="#mde7636e066" x="134.288068" y="228.974132" style="stroke: #000000; stroke-linejoin: miter"/>
     <use xlink:href="#mde7636e066" x="141.389886" y="240.715332" style="stroke: #000000; stroke-linejoin: miter"/>
     <use xlink:href="#mde7636e066" x="148.491705" y="252.456531" style="stroke: #000000; stroke-linejoin: miter"/>
     <use xlink:href="#mde7636e066" x="162.695341" y="270.904354" style="stroke: #000000; stroke-linejoin: miter"/>
     <use xlink:href="#mde7636e066" x="176.898977" y="279.290925" style="stroke: #000000; stroke-linejoin: miter"/>
     <use xlink:href="#mde7636e066" x="191.102614" y="287.674863" style="stroke: #000000; stroke-linejoin: miter"/>
     <use xlink:href="#mde7636e066" x="276.324432" y="296.061434" style="stroke: #000000; stroke-linejoin: miter"/>
    </g>
   </g>
   <g id="line2d_18">
    <path d="M 105.880795 299.416062 
L 106.590977 297.662688 
L 107.301159 293.337079 
L 111.56225 261.736514 
L 112.982614 252.97939 
L 114.402977 245.314827 
L 115.823341 238.658543 
L 117.243705 232.918612 
L 118.664068 228.006875 
L 120.084432 223.841799 
L 121.504795 220.348857 
L 122.925159 217.460195 
L 124.345523 215.114128 
L 125.765886 213.254617 
L 127.18625 211.830776 
L 128.606614 210.796419 
L 130.026977 210.109635 
L 131.447341 209.732416 
L 132.867705 209.6303 
L 134.288068 209.772061 
L 135.708432 210.129417 
L 137.128795 210.676765 
L 139.259341 211.803962 
L 141.389886 213.23802 
L 143.520432 214.919689 
L 146.361159 217.460414 
L 149.912068 220.978431 
L 154.883341 226.275445 
L 169.086977 241.661236 
L 174.768432 247.379641 
L 179.739705 252.058592 
L 184.710977 256.410408 
L 189.68225 260.429516 
L 194.653523 264.121367 
L 199.624795 267.498468 
L 204.596068 270.577595 
L 209.567341 273.377852 
L 214.538614 275.919347 
L 219.509886 278.22229 
L 225.191341 280.587389 
L 230.872795 282.694699 
L 236.55425 284.57041 
L 242.945886 286.433722 
L 249.337523 288.065596 
L 256.439341 289.641204 
L 264.251341 291.124359 
L 272.063341 292.383366 
L 280.585523 293.540443 
L 290.528068 294.652478 
L 301.180795 295.61177 
L 313.253886 296.467788 
L 326.747341 297.198789 
L 342.371341 297.821955 
L 361.54625 298.352807 
L 384.98225 298.767926 
L 415.520068 299.076008 
L 460.261523 299.28389 
L 460.971705 299.285858 
L 460.971705 299.285858 
" clip-path="url(#p27f31705d3)" style="fill: none; stroke: #ff7f0e; stroke-width: 2; stroke-linecap: square"/>
   </g>
   <g id="line2d_19">
    <path d="M 105.880795 296.061434 
L 107.65625 210.52631 
L 109.431705 133.377756 
L 111.207159 123.313871 
L 112.982614 130.023128 
L 116.533523 153.502893 
L 120.084432 168.596088 
L 123.635341 178.659973 
L 127.18625 203.817053 
L 130.737159 212.203624 
L 134.288068 225.622137 
L 141.389886 244.06996 
L 148.491705 254.133845 
L 162.695341 270.904354 
L 176.898977 280.968239 
L 191.102614 285.997549 
L 276.324432 294.38412 
" clip-path="url(#p27f31705d3)" style="fill: none; stroke-dasharray: 3.7,1.6; stroke-dashoffset: 0; stroke: #ff7f0e"/>
    <defs>
     <path id="m08b57947c4" d="M -3 3 
L 3 3 
L 3 -3 
L -3 -3 
z
" style="stroke: #000000; stroke-linejoin: miter"/>
    </defs>
    <g clip-path="url(#p27f31705d3)">
     <use xlink:href="#m08b57947c4" x="105.880795" y="296.061434" style="fill: #ff7f0e; stroke: #000000; stroke-linejoin: miter"/>
     <use xlink:href="#m08b57947c4" x="107.65625" y="210.52631" style="fill: #ff7f0e; stroke: #000000; stroke-linejoin: miter"/>
     <use xlink:href="#m08b57947c4" x="109.431705" y="133.377756" style="fill: #ff7f0e; stroke: #000000; stroke-linejoin: miter"/>
     <use xlink:href="#m08b57947c4" x="111.207159" y="123.313871" style="fill: #ff7f0e; stroke: #000000; stroke-linejoin: miter"/>
     <use xlink:href="#m08b57947c4" x="112.982614" y="130.023128" style="fill: #ff7f0e; stroke: #000000; stroke-linejoin: miter"/>
     <use xlink:href="#m08b57947c4" x="116.533523" y="153.502893" style="fill: #ff7f0e; stroke: #000000; stroke-linejoin: miter"/>
     <use xlink:href="#m08b57947c4" x="120.084432" y="168.596088" style="fill: #ff7f0e; stroke: #000000; stroke-linejoin: miter"/>
     <use xlink:href="#m08b57947c4" x="123.635341" y="178.659973" style="fill: #ff7f0e; stroke: #000000; stroke-linejoin: miter"/>
     <use xlink:href="#m08b57947c4" x="127.18625" y="203.817053" style="fill: #ff7f0e; stroke: #000000; stroke-linejoin: miter"/>
     <use xlink:href="#m08b57947c4" x="130.737159" y="212.203624" style="fill: #ff7f0e; stroke: #000000; stroke-linejoin: miter"/>
     <use xlink:href="#m08b57947c4" x="134.288068" y="225.622137" style="fill: #ff7f0e; stroke: #000000; stroke-linejoin: miter"/>
     <use xlink:href="#m08b57947c4" x="141.389886" y="244.06996" style="fill: #ff7f0e; stroke: #000000; stroke-linejoin: miter"/>
     <use xlink:href="#m08b57947c4" x="148.491705" y="254.133845" style="fill: #ff7f0e; stroke: #000000; stroke-linejoin: miter"/>
     <use xlink:href="#m08b57947c4" x="162.695341" y="270.904354" style="fill: #ff7f0e; stroke: #000000; stroke-linejoin: miter"/>
     <use xlink:href="#m08b57947c4" x="176.898977" y="280.968239" style="fill: #ff7f0e; stroke: #000000; stroke-linejoin: miter"/>
     <use xlink:href="#m08b57947c4" x="191.102614" y="285.997549" style="fill: #ff7f0e; stroke: #000000; stroke-linejoin: miter"/>
     <use xlink:href="#m08b57947c4" x="276.324432" y="294.38412" style="fill: #ff7f0e; stroke: #000000; stroke-linejoin: miter"/>
    </g>
   </g>
   <g id="line2d_20">
    <path d="M 105.880795 299.416062 
L 106.590977 297.662688 
L 107.301159 293.337079 
L 111.56225 261.736514 
L 112.982614 252.97939 
L 114.402977 245.314827 
L 115.823341 238.658543 
L 117.243705 232.918612 
L 118.664068 228.006875 
L 120.084432 223.841799 
L 121.504795 220.348857 
L 122.925159 217.460195 
L 124.345523 215.114128 
L 125.765886 213.254617 
L 127.18625 211.830776 
L 128.606614 210.796419 
L 130.026977 210.109635 
L 131.447341 209.732416 
L 132.867705 209.6303 
L 134.288068 209.772061 
L 135.708432 210.129417 
L 137.128795 210.676765 
L 139.259341 211.803962 
L 141.389886 213.23802 
L 143.520432 214.919689 
L 146.361159 217.460414 
L 149.912068 220.978431 
L 154.883341 226.275445 
L 169.086977 241.661236 
L 174.768432 247.379641 
L 179.739705 252.058592 
L 184.710977 256.410408 
L 189.68225 260.429516 
L 194.653523 264.121367 
L 199.624795 267.498468 
L 204.596068 270.577595 
L 209.567341 273.377852 
L 214.538614 275.919347 
L 219.509886 278.22229 
L 225.191341 280.587389 
L 230.872795 282.694699 
L 236.55425 284.57041 
L 242.945886 286.433722 
L 249.337523 288.065596 
L 256.439341 289.641204 
L 264.251341 291.124359 
L 272.063341 292.383366 
L 280.585523 293.540443 
L 290.528068 294.652478 
L 301.180795 295.61177 
L 313.253886 296.467788 
L 326.747341 297.198789 
L 342.371341 297.821955 
L 361.54625 298.352807 
L 384.98225 298.767926 
L 415.520068 299.076008 
L 460.261523 299.28389 
L 460.971705 299.285858 
L 460.971705 299.285858 
" clip-path="url(#p27f31705d3)" style="fill: none; stroke: #000000; stroke-width: 2; stroke-linecap: square"/>
   </g>
   <g id="line2d_21">
    <path d="M 105.880795 299.416062 
L 107.65625 247.616808 
L 109.431705 170.997517 
L 111.207159 138.62035 
L 112.982614 125.670537 
L 116.533523 107.325407 
L 120.084432 114.879903 
L 123.635341 110.564177 
L 127.18625 117.039083 
L 130.737159 132.145444 
L 134.288068 147.254437 
L 141.389886 175.313244 
L 148.491705 200.133281 
L 162.695341 226.032908 
L 176.898977 249.775988 
L 191.102614 263.802759 
L 276.324432 287.545839 
" clip-path="url(#p27f31705d3)" style="fill: none; stroke-dasharray: 3.7,1.6; stroke-dashoffset: 0; stroke: #000000"/>
    <g clip-path="url(#p27f31705d3)">
     <use xlink:href="#mde7636e066" x="105.880795" y="299.416062" style="stroke: #000000; stroke-linejoin: miter"/>
     <use xlink:href="#mde7636e066" x="107.65625" y="247.616808" style="stroke: #000000; stroke-linejoin: miter"/>
     <use xlink:href="#mde7636e066" x="109.431705" y="170.997517" style="stroke: #000000; stroke-linejoin: miter"/>
     <use xlink:href="#mde7636e066" x="111.207159" y="138.62035" style="stroke: #000000; stroke-linejoin: miter"/>
     <use xlink:href="#mde7636e066" x="112.982614" y="125.670537" style="stroke: #000000; stroke-linejoin: miter"/>
     <use xlink:href="#mde7636e066" x="116.533523" y="107.325407" style="stroke: #000000; stroke-linejoin: miter"/>
     <use xlink:href="#mde7636e066" x="120.084432" y="114.879903" style="stroke: #000000; stroke-linejoin: miter"/>
     <use xlink:href="#mde7636e066" x="123.635341" y="110.564177" style="stroke: #000000; stroke-linejoin: miter"/>
     <use xlink:href="#mde7636e066" x="127.18625" y="117.039083" style="stroke: #000000; stroke-linejoin: miter"/>
     <use xlink:href="#mde7636e066" x="130.737159" y="132.145444" style="stroke: #000000; stroke-linejoin: miter"/>
     <use xlink:href="#mde7636e066" x="134.288068" y="147.254437" style="stroke: #000000; stroke-linejoin: miter"/>
     <use xlink:href="#mde7636e066" x="141.389886" y="175.313244" style="stroke: #000000; stroke-linejoin: miter"/>
     <use xlink:href="#mde7636e066" x="148.491705" y="200.133281" style="stroke: #000000; stroke-linejoin: miter"/>
     <use xlink:href="#mde7636e066" x="162.695341" y="226.032908" style="stroke: #000000; stroke-linejoin: miter"/>
     <use xlink:href="#mde7636e066" x="176.898977" y="249.775988" style="stroke: #000000; stroke-linejoin: miter"/>
     <use xlink:href="#mde7636e066" x="191.102614" y="263.802759" style="stroke: #000000; stroke-linejoin: miter"/>
     <use xlink:href="#mde7636e066" x="276.324432" y="287.545839" style="stroke: #000000; stroke-linejoin: miter"/>
    </g>
   </g>
   <g id="line2d_22">
    <path d="M 105.880795 299.416062 
L 106.590977 297.662688 
L 107.301159 293.337079 
L 111.56225 261.736514 
L 112.982614 252.97939 
L 114.402977 245.314827 
L 115.823341 238.658543 
L 117.243705 232.918612 
L 118.664068 228.006875 
L 120.084432 223.841799 
L 121.504795 220.348857 
L 122.925159 217.460195 
L 124.345523 215.114128 
L 125.765886 213.254617 
L 127.18625 211.830776 
L 128.606614 210.796419 
L 130.026977 210.109635 
L 131.447341 209.732416 
L 132.867705 209.6303 
L 134.288068 209.772061 
L 135.708432 210.129417 
L 137.128795 210.676765 
L 139.259341 211.803962 
L 141.389886 213.23802 
L 143.520432 214.919689 
L 146.361159 217.460414 
L 149.912068 220.978431 
L 154.883341 226.275445 
L 169.086977 241.661236 
L 174.768432 247.379641 
L 179.739705 252.058592 
L 184.710977 256.410408 
L 189.68225 260.429516 
L 194.653523 264.121367 
L 199.624795 267.498468 
L 204.596068 270.577595 
L 209.567341 273.377852 
L 214.538614 275.919347 
L 219.509886 278.22229 
L 225.191341 280.587389 
L 230.872795 282.694699 
L 236.55425 284.57041 
L 242.945886 286.433722 
L 249.337523 288.065596 
L 256.439341 289.641204 
L 264.251341 291.124359 
L 272.063341 292.383366 
L 280.585523 293.540443 
L 290.528068 294.652478 
L 301.180795 295.61177 
L 313.253886 296.467788 
L 326.747341 297.198789 
L 342.371341 297.821955 
L 361.54625 298.352807 
L 384.98225 298.767926 
L 415.520068 299.076008 
L 460.261523 299.28389 
L 460.971705 299.285858 
L 460.971705 299.285858 
" clip-path="url(#p27f31705d3)" style="fill: none; stroke: #d62728; stroke-width: 2; stroke-linecap: square"/>
   </g>
   <g id="line2d_23">
    <path d="M 105.880795 299.416062 
L 107.65625 236.826175 
L 109.431705 166.679157 
L 111.207159 112.720723 
L 112.982614 117.039083 
L 116.533523 104.08927 
L 120.084432 117.039083 
L 123.635341 112.720723 
L 127.18625 121.35481 
L 130.737159 139.69994 
L 134.288068 153.729344 
L 141.389886 182.867741 
L 148.491705 203.372051 
L 162.695341 236.826175 
L 176.898977 253.012125 
L 191.102614 268.121118 
L 276.324432 289.702386 
" clip-path="url(#p27f31705d3)" style="fill: none; stroke-dasharray: 3.7,1.6; stroke-dashoffset: 0; stroke: #d62728"/>
    <defs>
     <path id="m03fae4dbfc" d="M -3 3 
L 3 3 
L 3 -3 
L -3 -3 
z
" style="stroke: #000000; stroke-linejoin: miter"/>
    </defs>
    <g clip-path="url(#p27f31705d3)">
     <use xlink:href="#m03fae4dbfc" x="105.880795" y="299.416062" style="fill: #d62728; stroke: #000000; stroke-linejoin: miter"/>
     <use xlink:href="#m03fae4dbfc" x="107.65625" y="236.826175" style="fill: #d62728; stroke: #000000; stroke-linejoin: miter"/>
     <use xlink:href="#m03fae4dbfc" x="109.431705" y="166.679157" style="fill: #d62728; stroke: #000000; stroke-linejoin: miter"/>
     <use xlink:href="#m03fae4dbfc" x="111.207159" y="112.720723" style="fill: #d62728; stroke: #000000; stroke-linejoin: miter"/>
     <use xlink:href="#m03fae4dbfc" x="112.982614" y="117.039083" style="fill: #d62728; stroke: #000000; stroke-linejoin: miter"/>
     <use xlink:href="#m03fae4dbfc" x="116.533523" y="104.08927" style="fill: #d62728; stroke: #000000; stroke-linejoin: miter"/>
     <use xlink:href="#m03fae4dbfc" x="120.084432" y="117.039083" style="fill: #d62728; stroke: #000000; stroke-linejoin: miter"/>
     <use xlink:href="#m03fae4dbfc" x="123.635341" y="112.720723" style="fill: #d62728; stroke: #000000; stroke-linejoin: miter"/>
     <use xlink:href="#m03fae4dbfc" x="127.18625" y="121.35481" style="fill: #d62728; stroke: #000000; stroke-linejoin: miter"/>
     <use xlink:href="#m03fae4dbfc" x="130.737159" y="139.69994" style="fill: #d62728; stroke: #000000; stroke-linejoin: miter"/>
     <use xlink:href="#m03fae4dbfc" x="134.288068" y="153.729344" style="fill: #d62728; stroke: #000000; stroke-linejoin: miter"/>
     <use xlink:href="#m03fae4dbfc" x="141.389886" y="182.867741" style="fill: #d62728; stroke: #000000; stroke-linejoin: miter"/>
     <use xlink:href="#m03fae4dbfc" x="148.491705" y="203.372051" style="fill: #d62728; stroke: #000000; stroke-linejoin: miter"/>
     <use xlink:href="#m03fae4dbfc" x="162.695341" y="236.826175" style="fill: #d62728; stroke: #000000; stroke-linejoin: miter"/>
     <use xlink:href="#m03fae4dbfc" x="176.898977" y="253.012125" style="fill: #d62728; stroke: #000000; stroke-linejoin: miter"/>
     <use xlink:href="#m03fae4dbfc" x="191.102614" y="268.121118" style="fill: #d62728; stroke: #000000; stroke-linejoin: miter"/>
     <use xlink:href="#m03fae4dbfc" x="276.324432" y="289.702386" style="fill: #d62728; stroke: #000000; stroke-linejoin: miter"/>
    </g>
   </g>
   <g id="patch_3">
    <path d="M 88.12625 320.4 
L 88.12625 43.2 
" style="fill: none; stroke: #000000; stroke-width: 0.8; stroke-linejoin: miter; stroke-linecap: square"/>
   </g>
   <g id="patch_4">
    <path d="M 478.72625 320.4 
L 478.72625 43.2 
" style="fill: none; stroke: #000000; stroke-width: 0.8; stroke-linejoin: miter; stroke-linecap: square"/>
   </g>
   <g id="patch_5">
    <path d="M 88.12625 320.4 
L 478.72625 320.4 
" style="fill: none; stroke: #000000; stroke-width: 0.8; stroke-linejoin: miter; stroke-linecap: square"/>
   </g>
   <g id="patch_6">
    <path d="M 88.12625 43.2 
L 478.72625 43.2 
" style="fill: none; stroke: #000000; stroke-width: 0.8; stroke-linejoin: miter; stroke-linecap: square"/>
   </g>
   <g id="legend_1">
    <g id="patch_7">
     <path d="M 275.662188 282.57875 
L 469.62625 282.57875 
Q 472.22625 282.57875 472.22625 279.97875 
L 472.22625 52.3 
Q 472.22625 49.7 469.62625 49.7 
L 275.662188 49.7 
Q 273.062188 49.7 273.062188 52.3 
L 273.062188 279.97875 
Q 273.062188 282.57875 275.662188 282.57875 
z
" style="fill: #ffffff; opacity: 0.8; stroke: #cccccc; stroke-linejoin: miter"/>
    </g>
    <g id="line2d_24">
     <path d="M 278.262188 60.227969 
L 304.262188 60.227969 
" style="fill: none; stroke: #000000; stroke-width: 2; stroke-linecap: square"/>
    </g>
    <g id="line2d_25"/>
    <g id="text_14">
     <!-- API25 (1) -->
     <g transform="translate(314.662188 64.777969) scale(0.13 -0.13)">
      <defs>
       <path id="DejaVuSans-41" d="M 2188 4044 
L 1331 1722 
L 3047 1722 
L 2188 4044 
z
M 1831 4666 
L 2547 4666 
L 4325 0 
L 3669 0 
L 3244 1197 
L 1141 1197 
L 716 0 
L 50 0 
L 1831 4666 
z
" transform="scale(0.015625)"/>
       <path id="DejaVuSans-50" d="M 1259 4147 
L 1259 2394 
L 2053 2394 
Q 2494 2394 2734 2622 
Q 2975 2850 2975 3272 
Q 2975 3691 2734 3919 
Q 2494 4147 2053 4147 
L 1259 4147 
z
M 628 4666 
L 2053 4666 
Q 2838 4666 3239 4311 
Q 3641 3956 3641 3272 
Q 3641 2581 3239 2228 
Q 2838 1875 2053 1875 
L 1259 1875 
L 1259 0 
L 628 0 
L 628 4666 
z
" transform="scale(0.015625)"/>
       <path id="DejaVuSans-49" d="M 628 4666 
L 1259 4666 
L 1259 0 
L 628 0 
L 628 4666 
z
" transform="scale(0.015625)"/>
       <path id="DejaVuSans-20" transform="scale(0.015625)"/>
       <path id="DejaVuSans-28" d="M 1984 4856 
Q 1566 4138 1362 3434 
Q 1159 2731 1159 2009 
Q 1159 1288 1364 580 
Q 1569 -128 1984 -844 
L 1484 -844 
Q 1016 -109 783 600 
Q 550 1309 550 2009 
Q 550 2706 781 3412 
Q 1013 4119 1484 4856 
L 1984 4856 
z
" transform="scale(0.015625)"/>
       <path id="DejaVuSans-29" d="M 513 4856 
L 1013 4856 
Q 1481 4119 1714 3412 
Q 1947 2706 1947 2009 
Q 1947 1309 1714 600 
Q 1481 -109 1013 -844 
L 513 -844 
Q 928 -128 1133 580 
Q 1338 1288 1338 2009 
Q 1338 2731 1133 3434 
Q 928 4138 513 4856 
z
" transform="scale(0.015625)"/>
      </defs>
      <use xlink:href="#DejaVuSans-41"/>
      <use xlink:href="#DejaVuSans-50" transform="translate(68.408203 0)"/>
      <use xlink:href="#DejaVuSans-49" transform="translate(128.710938 0)"/>
      <use xlink:href="#DejaVuSans-32" transform="translate(158.203125 0)"/>
      <use xlink:href="#DejaVuSans-35" transform="translate(221.826172 0)"/>
      <use xlink:href="#DejaVuSans-20" transform="translate(285.449219 0)"/>
      <use xlink:href="#DejaVuSans-28" transform="translate(317.236328 0)"/>
      <use xlink:href="#DejaVuSans-31" transform="translate(356.25 0)"/>
      <use xlink:href="#DejaVuSans-29" transform="translate(419.873047 0)"/>
     </g>
    </g>
    <g id="LineCollection_7">
     <path d="M 291.262188 85.809531 
L 291.262188 72.809531 
" style="fill: none; stroke: #000000"/>
    </g>
    <g id="line2d_26">
     <path d="M 278.262188 79.309531 
L 304.262188 79.309531 
" style="fill: none; stroke-dasharray: 3.7,1.6; stroke-dashoffset: 0; stroke: #000000"/>
    </g>
    <g id="line2d_27">
     <g>
      <use xlink:href="#mde7636e066" x="291.262188" y="79.309531" style="stroke: #000000; stroke-linejoin: miter"/>
     </g>
    </g>
    <g id="text_15">
     <!-- API25 (1)±SD (n=12) -->
     <g transform="translate(314.662188 83.859531) scale(0.13 -0.13)">
      <defs>
       <path id="DejaVuSans-b1" d="M 2944 4013 
L 2944 2803 
L 4684 2803 
L 4684 2272 
L 2944 2272 
L 2944 1063 
L 2419 1063 
L 2419 2272 
L 678 2272 
L 678 2803 
L 2419 2803 
L 2419 4013 
L 2944 4013 
z
M 678 531 
L 4684 531 
L 4684 0 
L 678 0 
L 678 531 
z
" transform="scale(0.015625)"/>
       <path id="DejaVuSans-53" d="M 3425 4513 
L 3425 3897 
Q 3066 4069 2747 4153 
Q 2428 4238 2131 4238 
Q 1616 4238 1336 4038 
Q 1056 3838 1056 3469 
Q 1056 3159 1242 3001 
Q 1428 2844 1947 2747 
L 2328 2669 
Q 3034 2534 3370 2195 
Q 3706 1856 3706 1288 
Q 3706 609 3251 259 
Q 2797 -91 1919 -91 
Q 1588 -91 1214 -16 
Q 841 59 441 206 
L 441 856 
Q 825 641 1194 531 
Q 1563 422 1919 422 
Q 2459 422 2753 634 
Q 3047 847 3047 1241 
Q 3047 1584 2836 1778 
Q 2625 1972 2144 2069 
L 1759 2144 
Q 1053 2284 737 2584 
Q 422 2884 422 3419 
Q 422 4038 858 4394 
Q 1294 4750 2059 4750 
Q 2388 4750 2728 4690 
Q 3069 4631 3425 4513 
z
" transform="scale(0.015625)"/>
       <path id="DejaVuSans-44" d="M 1259 4147 
L 1259 519 
L 2022 519 
Q 2988 519 3436 956 
Q 3884 1394 3884 2338 
Q 3884 3275 3436 3711 
Q 2988 4147 2022 4147 
L 1259 4147 
z
M 628 4666 
L 1925 4666 
Q 3281 4666 3915 4102 
Q 4550 3538 4550 2338 
Q 4550 1131 3912 565 
Q 3275 0 1925 0 
L 628 0 
L 628 4666 
z
" transform="scale(0.015625)"/>
       <path id="DejaVuSans-6e" d="M 3513 2113 
L 3513 0 
L 2938 0 
L 2938 2094 
Q 2938 2591 2744 2837 
Q 2550 3084 2163 3084 
Q 1697 3084 1428 2787 
Q 1159 2491 1159 1978 
L 1159 0 
L 581 0 
L 581 3500 
L 1159 3500 
L 1159 2956 
Q 1366 3272 1645 3428 
Q 1925 3584 2291 3584 
Q 2894 3584 3203 3211 
Q 3513 2838 3513 2113 
z
" transform="scale(0.015625)"/>
       <path id="DejaVuSans-3d" d="M 678 2906 
L 4684 2906 
L 4684 2381 
L 678 2381 
L 678 2906 
z
M 678 1631 
L 4684 1631 
L 4684 1100 
L 678 1100 
L 678 1631 
z
" transform="scale(0.015625)"/>
      </defs>
      <use xlink:href="#DejaVuSans-41"/>
      <use xlink:href="#DejaVuSans-50" transform="translate(68.408203 0)"/>
      <use xlink:href="#DejaVuSans-49" transform="translate(128.710938 0)"/>
      <use xlink:href="#DejaVuSans-32" transform="translate(158.203125 0)"/>
      <use xlink:href="#DejaVuSans-35" transform="translate(221.826172 0)"/>
      <use xlink:href="#DejaVuSans-20" transform="translate(285.449219 0)"/>
      <use xlink:href="#DejaVuSans-28" transform="translate(317.236328 0)"/>
      <use xlink:href="#DejaVuSans-31" transform="translate(356.25 0)"/>
      <use xlink:href="#DejaVuSans-29" transform="translate(419.873047 0)"/>
      <use xlink:href="#DejaVuSans-b1" transform="translate(458.886719 0)"/>
      <use xlink:href="#DejaVuSans-53" transform="translate(542.675781 0)"/>
      <use xlink:href="#DejaVuSans-44" transform="translate(606.152344 0)"/>
      <use xlink:href="#DejaVuSans-20" transform="translate(683.154297 0)"/>
      <use xlink:href="#DejaVuSans-28" transform="translate(714.941406 0)"/>
      <use xlink:href="#DejaVuSans-6e" transform="translate(753.955078 0)"/>
      <use xlink:href="#DejaVuSans-3d" transform="translate(817.333984 0)"/>
      <use xlink:href="#DejaVuSans-31" transform="translate(901.123047 0)"/>
      <use xlink:href="#DejaVuSans-32" transform="translate(964.746094 0)"/>
      <use xlink:href="#DejaVuSans-29" transform="translate(1028.369141 0)"/>
     </g>
    </g>
    <g id="line2d_28">
     <path d="M 278.262188 98.391094 
L 304.262188 98.391094 
" style="fill: none; stroke: #1f77b4; stroke-width: 2; stroke-linecap: square"/>
    </g>
    <g id="line2d_29"/>
    <g id="text_16">
     <!-- API25, CAR -->
     <g transform="translate(314.662188 102.941094) scale(0.13 -0.13)">
      <defs>
       <path id="DejaVuSans-2c" d="M 750 794 
L 1409 794 
L 1409 256 
L 897 -744 
L 494 -744 
L 750 256 
L 750 794 
z
" transform="scale(0.015625)"/>
       <path id="DejaVuSans-43" d="M 4122 4306 
L 4122 3641 
Q 3803 3938 3442 4084 
Q 3081 4231 2675 4231 
Q 1875 4231 1450 3742 
Q 1025 3253 1025 2328 
Q 1025 1406 1450 917 
Q 1875 428 2675 428 
Q 3081 428 3442 575 
Q 3803 722 4122 1019 
L 4122 359 
Q 3791 134 3420 21 
Q 3050 -91 2638 -91 
Q 1578 -91 968 557 
Q 359 1206 359 2328 
Q 359 3453 968 4101 
Q 1578 4750 2638 4750 
Q 3056 4750 3426 4639 
Q 3797 4528 4122 4306 
z
" transform="scale(0.015625)"/>
       <path id="DejaVuSans-52" d="M 2841 2188 
Q 3044 2119 3236 1894 
Q 3428 1669 3622 1275 
L 4263 0 
L 3584 0 
L 2988 1197 
Q 2756 1666 2539 1819 
Q 2322 1972 1947 1972 
L 1259 1972 
L 1259 0 
L 628 0 
L 628 4666 
L 2053 4666 
Q 2853 4666 3247 4331 
Q 3641 3997 3641 3322 
Q 3641 2881 3436 2590 
Q 3231 2300 2841 2188 
z
M 1259 4147 
L 1259 2491 
L 2053 2491 
Q 2509 2491 2742 2702 
Q 2975 2913 2975 3322 
Q 2975 3731 2742 3939 
Q 2509 4147 2053 4147 
L 1259 4147 
z
" transform="scale(0.015625)"/>
      </defs>
      <use xlink:href="#DejaVuSans-41"/>
      <use xlink:href="#DejaVuSans-50" transform="translate(68.408203 0)"/>
      <use xlink:href="#DejaVuSans-49" transform="translate(128.710938 0)"/>
      <use xlink:href="#DejaVuSans-32" transform="translate(158.203125 0)"/>
      <use xlink:href="#DejaVuSans-35" transform="translate(221.826172 0)"/>
      <use xlink:href="#DejaVuSans-2c" transform="translate(285.449219 0)"/>
      <use xlink:href="#DejaVuSans-20" transform="translate(317.236328 0)"/>
      <use xlink:href="#DejaVuSans-43" transform="translate(349.023438 0)"/>
      <use xlink:href="#DejaVuSans-41" transform="translate(418.847656 0)"/>
      <use xlink:href="#DejaVuSans-52" transform="translate(487.255859 0)"/>
     </g>
    </g>
    <g id="LineCollection_8">
     <path d="M 291.262188 123.972656 
L 291.262188 110.972656 
" style="fill: none; stroke: #1f77b4"/>
    </g>
    <g id="line2d_30">
     <path d="M 278.262188 117.472656 
L 304.262188 117.472656 
" style="fill: none; stroke-dasharray: 3.7,1.6; stroke-dashoffset: 0; stroke: #1f77b4"/>
    </g>
    <g id="line2d_31">
     <g>
      <use xlink:href="#m8799784f5e" x="291.262188" y="117.472656" style="fill: #1f77b4; stroke: #000000; stroke-linejoin: miter"/>
     </g>
    </g>
    <g id="text_17">
     <!-- API25, CAR±SD (n=12) -->
     <g transform="translate(314.662188 122.022656) scale(0.13 -0.13)">
      <use xlink:href="#DejaVuSans-41"/>
      <use xlink:href="#DejaVuSans-50" transform="translate(68.408203 0)"/>
      <use xlink:href="#DejaVuSans-49" transform="translate(128.710938 0)"/>
      <use xlink:href="#DejaVuSans-32" transform="translate(158.203125 0)"/>
      <use xlink:href="#DejaVuSans-35" transform="translate(221.826172 0)"/>
      <use xlink:href="#DejaVuSans-2c" transform="translate(285.449219 0)"/>
      <use xlink:href="#DejaVuSans-20" transform="translate(317.236328 0)"/>
      <use xlink:href="#DejaVuSans-43" transform="translate(349.023438 0)"/>
      <use xlink:href="#DejaVuSans-41" transform="translate(418.847656 0)"/>
      <use xlink:href="#DejaVuSans-52" transform="translate(487.255859 0)"/>
      <use xlink:href="#DejaVuSans-b1" transform="translate(556.738281 0)"/>
      <use xlink:href="#DejaVuSans-53" transform="translate(640.527344 0)"/>
      <use xlink:href="#DejaVuSans-44" transform="translate(704.003906 0)"/>
      <use xlink:href="#DejaVuSans-20" transform="translate(781.005859 0)"/>
      <use xlink:href="#DejaVuSans-28" transform="translate(812.792969 0)"/>
      <use xlink:href="#DejaVuSans-6e" transform="translate(851.806641 0)"/>
      <use xlink:href="#DejaVuSans-3d" transform="translate(915.185547 0)"/>
      <use xlink:href="#DejaVuSans-31" transform="translate(998.974609 0)"/>
      <use xlink:href="#DejaVuSans-32" transform="translate(1062.597656 0)"/>
      <use xlink:href="#DejaVuSans-29" transform="translate(1126.220703 0)"/>
     </g>
    </g>
    <g id="line2d_32">
     <path d="M 278.262188 136.554219 
L 304.262188 136.554219 
" style="fill: none; stroke: #000000; stroke-width: 2; stroke-linecap: square"/>
    </g>
    <g id="line2d_33"/>
    <g id="text_18">
     <!-- API25 (2) -->
     <g transform="translate(314.662188 141.104219) scale(0.13 -0.13)">
      <use xlink:href="#DejaVuSans-41"/>
      <use xlink:href="#DejaVuSans-50" transform="translate(68.408203 0)"/>
      <use xlink:href="#DejaVuSans-49" transform="translate(128.710938 0)"/>
      <use xlink:href="#DejaVuSans-32" transform="translate(158.203125 0)"/>
      <use xlink:href="#DejaVuSans-35" transform="translate(221.826172 0)"/>
      <use xlink:href="#DejaVuSans-20" transform="translate(285.449219 0)"/>
      <use xlink:href="#DejaVuSans-28" transform="translate(317.236328 0)"/>
      <use xlink:href="#DejaVuSans-32" transform="translate(356.25 0)"/>
      <use xlink:href="#DejaVuSans-29" transform="translate(419.873047 0)"/>
     </g>
    </g>
    <g id="LineCollection_9">
     <path d="M 291.262188 162.135781 
L 291.262188 149.135781 
" style="fill: none; stroke: #000000"/>
    </g>
    <g id="line2d_34">
     <path d="M 278.262188 155.635781 
L 304.262188 155.635781 
" style="fill: none; stroke-dasharray: 3.7,1.6; stroke-dashoffset: 0; stroke: #000000"/>
    </g>
    <g id="line2d_35">
     <g>
      <use xlink:href="#mde7636e066" x="291.262188" y="155.635781" style="stroke: #000000; stroke-linejoin: miter"/>
     </g>
    </g>
    <g id="text_19">
     <!-- API25 (2)±SD (n=11) -->
     <g transform="translate(314.662188 160.185781) scale(0.13 -0.13)">
      <use xlink:href="#DejaVuSans-41"/>
      <use xlink:href="#DejaVuSans-50" transform="translate(68.408203 0)"/>
      <use xlink:href="#DejaVuSans-49" transform="translate(128.710938 0)"/>
      <use xlink:href="#DejaVuSans-32" transform="translate(158.203125 0)"/>
      <use xlink:href="#DejaVuSans-35" transform="translate(221.826172 0)"/>
      <use xlink:href="#DejaVuSans-20" transform="translate(285.449219 0)"/>
      <use xlink:href="#DejaVuSans-28" transform="translate(317.236328 0)"/>
      <use xlink:href="#DejaVuSans-32" transform="translate(356.25 0)"/>
      <use xlink:href="#DejaVuSans-29" transform="translate(419.873047 0)"/>
      <use xlink:href="#DejaVuSans-b1" transform="translate(458.886719 0)"/>
      <use xlink:href="#DejaVuSans-53" transform="translate(542.675781 0)"/>
      <use xlink:href="#DejaVuSans-44" transform="translate(606.152344 0)"/>
      <use xlink:href="#DejaVuSans-20" transform="translate(683.154297 0)"/>
      <use xlink:href="#DejaVuSans-28" transform="translate(714.941406 0)"/>
      <use xlink:href="#DejaVuSans-6e" transform="translate(753.955078 0)"/>
      <use xlink:href="#DejaVuSans-3d" transform="translate(817.333984 0)"/>
      <use xlink:href="#DejaVuSans-31" transform="translate(901.123047 0)"/>
      <use xlink:href="#DejaVuSans-31" transform="translate(964.746094 0)"/>
      <use xlink:href="#DejaVuSans-29" transform="translate(1028.369141 0)"/>
     </g>
    </g>
    <g id="line2d_36">
     <path d="M 278.262188 174.717344 
L 304.262188 174.717344 
" style="fill: none; stroke: #ff7f0e; stroke-width: 2; stroke-linecap: square"/>
    </g>
    <g id="line2d_37"/>
    <g id="text_20">
     <!-- API25, GAB -->
     <g transform="translate(314.662188 179.267344) scale(0.13 -0.13)">
      <defs>
       <path id="DejaVuSans-47" d="M 3809 666 
L 3809 1919 
L 2778 1919 
L 2778 2438 
L 4434 2438 
L 4434 434 
Q 4069 175 3628 42 
Q 3188 -91 2688 -91 
Q 1594 -91 976 548 
Q 359 1188 359 2328 
Q 359 3472 976 4111 
Q 1594 4750 2688 4750 
Q 3144 4750 3555 4637 
Q 3966 4525 4313 4306 
L 4313 3634 
Q 3963 3931 3569 4081 
Q 3175 4231 2741 4231 
Q 1884 4231 1454 3753 
Q 1025 3275 1025 2328 
Q 1025 1384 1454 906 
Q 1884 428 2741 428 
Q 3075 428 3337 486 
Q 3600 544 3809 666 
z
" transform="scale(0.015625)"/>
       <path id="DejaVuSans-42" d="M 1259 2228 
L 1259 519 
L 2272 519 
Q 2781 519 3026 730 
Q 3272 941 3272 1375 
Q 3272 1813 3026 2020 
Q 2781 2228 2272 2228 
L 1259 2228 
z
M 1259 4147 
L 1259 2741 
L 2194 2741 
Q 2656 2741 2882 2914 
Q 3109 3088 3109 3444 
Q 3109 3797 2882 3972 
Q 2656 4147 2194 4147 
L 1259 4147 
z
M 628 4666 
L 2241 4666 
Q 2963 4666 3353 4366 
Q 3744 4066 3744 3513 
Q 3744 3084 3544 2831 
Q 3344 2578 2956 2516 
Q 3422 2416 3680 2098 
Q 3938 1781 3938 1306 
Q 3938 681 3513 340 
Q 3088 0 2303 0 
L 628 0 
L 628 4666 
z
" transform="scale(0.015625)"/>
      </defs>
      <use xlink:href="#DejaVuSans-41"/>
      <use xlink:href="#DejaVuSans-50" transform="translate(68.408203 0)"/>
      <use xlink:href="#DejaVuSans-49" transform="translate(128.710938 0)"/>
      <use xlink:href="#DejaVuSans-32" transform="translate(158.203125 0)"/>
      <use xlink:href="#DejaVuSans-35" transform="translate(221.826172 0)"/>
      <use xlink:href="#DejaVuSans-2c" transform="translate(285.449219 0)"/>
      <use xlink:href="#DejaVuSans-20" transform="translate(317.236328 0)"/>
      <use xlink:href="#DejaVuSans-47" transform="translate(349.023438 0)"/>
      <use xlink:href="#DejaVuSans-41" transform="translate(426.513672 0)"/>
      <use xlink:href="#DejaVuSans-42" transform="translate(494.921875 0)"/>
     </g>
    </g>
    <g id="LineCollection_10">
     <path d="M 291.262188 200.298906 
L 291.262188 187.298906 
" style="fill: none; stroke: #ff7f0e"/>
    </g>
    <g id="line2d_38">
     <path d="M 278.262188 193.798906 
L 304.262188 193.798906 
" style="fill: none; stroke-dasharray: 3.7,1.6; stroke-dashoffset: 0; stroke: #ff7f0e"/>
    </g>
    <g id="line2d_39">
     <g>
      <use xlink:href="#m08b57947c4" x="291.262188" y="193.798906" style="fill: #ff7f0e; stroke: #000000; stroke-linejoin: miter"/>
     </g>
    </g>
    <g id="text_21">
     <!-- API25, GAB±SD (n=11) -->
     <g transform="translate(314.662188 198.348906) scale(0.13 -0.13)">
      <use xlink:href="#DejaVuSans-41"/>
      <use xlink:href="#DejaVuSans-50" transform="translate(68.408203 0)"/>
      <use xlink:href="#DejaVuSans-49" transform="translate(128.710938 0)"/>
      <use xlink:href="#DejaVuSans-32" transform="translate(158.203125 0)"/>
      <use xlink:href="#DejaVuSans-35" transform="translate(221.826172 0)"/>
      <use xlink:href="#DejaVuSans-2c" transform="translate(285.449219 0)"/>
      <use xlink:href="#DejaVuSans-20" transform="translate(317.236328 0)"/>
      <use xlink:href="#DejaVuSans-47" transform="translate(349.023438 0)"/>
      <use xlink:href="#DejaVuSans-41" transform="translate(426.513672 0)"/>
      <use xlink:href="#DejaVuSans-42" transform="translate(494.921875 0)"/>
      <use xlink:href="#DejaVuSans-b1" transform="translate(563.525391 0)"/>
      <use xlink:href="#DejaVuSans-53" transform="translate(647.314453 0)"/>
      <use xlink:href="#DejaVuSans-44" transform="translate(710.791016 0)"/>
      <use xlink:href="#DejaVuSans-20" transform="translate(787.792969 0)"/>
      <use xlink:href="#DejaVuSans-28" transform="translate(819.580078 0)"/>
      <use xlink:href="#DejaVuSans-6e" transform="translate(858.59375 0)"/>
      <use xlink:href="#DejaVuSans-3d" transform="translate(921.972656 0)"/>
      <use xlink:href="#DejaVuSans-31" transform="translate(1005.761719 0)"/>
      <use xlink:href="#DejaVuSans-31" transform="translate(1069.384766 0)"/>
      <use xlink:href="#DejaVuSans-29" transform="translate(1133.007812 0)"/>
     </g>
    </g>
    <g id="line2d_40">
     <path d="M 278.262188 212.880469 
L 304.262188 212.880469 
" style="fill: none; stroke: #000000; stroke-width: 2; stroke-linecap: square"/>
    </g>
    <g id="line2d_41"/>
    <g id="text_22">
     <!-- API25 (3) -->
     <g transform="translate(314.662188 217.430469) scale(0.13 -0.13)">
      <use xlink:href="#DejaVuSans-41"/>
      <use xlink:href="#DejaVuSans-50" transform="translate(68.408203 0)"/>
      <use xlink:href="#DejaVuSans-49" transform="translate(128.710938 0)"/>
      <use xlink:href="#DejaVuSans-32" transform="translate(158.203125 0)"/>
      <use xlink:href="#DejaVuSans-35" transform="translate(221.826172 0)"/>
      <use xlink:href="#DejaVuSans-20" transform="translate(285.449219 0)"/>
      <use xlink:href="#DejaVuSans-28" transform="translate(317.236328 0)"/>
      <use xlink:href="#DejaVuSans-33" transform="translate(356.25 0)"/>
      <use xlink:href="#DejaVuSans-29" transform="translate(419.873047 0)"/>
     </g>
    </g>
    <g id="LineCollection_11">
     <path d="M 291.262188 238.462031 
L 291.262188 225.462031 
" style="fill: none; stroke: #000000"/>
    </g>
    <g id="line2d_42">
     <path d="M 278.262188 231.962031 
L 304.262188 231.962031 
" style="fill: none; stroke-dasharray: 3.7,1.6; stroke-dashoffset: 0; stroke: #000000"/>
    </g>
    <g id="line2d_43">
     <g>
      <use xlink:href="#mde7636e066" x="291.262188" y="231.962031" style="stroke: #000000; stroke-linejoin: miter"/>
     </g>
    </g>
    <g id="text_23">
     <!-- API25 (3)±SD (n=12) -->
     <g transform="translate(314.662188 236.512031) scale(0.13 -0.13)">
      <use xlink:href="#DejaVuSans-41"/>
      <use xlink:href="#DejaVuSans-50" transform="translate(68.408203 0)"/>
      <use xlink:href="#DejaVuSans-49" transform="translate(128.710938 0)"/>
      <use xlink:href="#DejaVuSans-32" transform="translate(158.203125 0)"/>
      <use xlink:href="#DejaVuSans-35" transform="translate(221.826172 0)"/>
      <use xlink:href="#DejaVuSans-20" transform="translate(285.449219 0)"/>
      <use xlink:href="#DejaVuSans-28" transform="translate(317.236328 0)"/>
      <use xlink:href="#DejaVuSans-33" transform="translate(356.25 0)"/>
      <use xlink:href="#DejaVuSans-29" transform="translate(419.873047 0)"/>
      <use xlink:href="#DejaVuSans-b1" transform="translate(458.886719 0)"/>
      <use xlink:href="#DejaVuSans-53" transform="translate(542.675781 0)"/>
      <use xlink:href="#DejaVuSans-44" transform="translate(606.152344 0)"/>
      <use xlink:href="#DejaVuSans-20" transform="translate(683.154297 0)"/>
      <use xlink:href="#DejaVuSans-28" transform="translate(714.941406 0)"/>
      <use xlink:href="#DejaVuSans-6e" transform="translate(753.955078 0)"/>
      <use xlink:href="#DejaVuSans-3d" transform="translate(817.333984 0)"/>
      <use xlink:href="#DejaVuSans-31" transform="translate(901.123047 0)"/>
      <use xlink:href="#DejaVuSans-32" transform="translate(964.746094 0)"/>
      <use xlink:href="#DejaVuSans-29" transform="translate(1028.369141 0)"/>
     </g>
    </g>
    <g id="line2d_44">
     <path d="M 278.262188 251.043594 
L 304.262188 251.043594 
" style="fill: none; stroke: #d62728; stroke-width: 2; stroke-linecap: square"/>
    </g>
    <g id="line2d_45"/>
    <g id="text_24">
     <!-- API25, PRE -->
     <g transform="translate(314.662188 255.593594) scale(0.13 -0.13)">
      <defs>
       <path id="DejaVuSans-45" d="M 628 4666 
L 3578 4666 
L 3578 4134 
L 1259 4134 
L 1259 2753 
L 3481 2753 
L 3481 2222 
L 1259 2222 
L 1259 531 
L 3634 531 
L 3634 0 
L 628 0 
L 628 4666 
z
" transform="scale(0.015625)"/>
      </defs>
      <use xlink:href="#DejaVuSans-41"/>
      <use xlink:href="#DejaVuSans-50" transform="translate(68.408203 0)"/>
      <use xlink:href="#DejaVuSans-49" transform="translate(128.710938 0)"/>
      <use xlink:href="#DejaVuSans-32" transform="translate(158.203125 0)"/>
      <use xlink:href="#DejaVuSans-35" transform="translate(221.826172 0)"/>
      <use xlink:href="#DejaVuSans-2c" transform="translate(285.449219 0)"/>
      <use xlink:href="#DejaVuSans-20" transform="translate(317.236328 0)"/>
      <use xlink:href="#DejaVuSans-50" transform="translate(349.023438 0)"/>
      <use xlink:href="#DejaVuSans-52" transform="translate(409.326172 0)"/>
      <use xlink:href="#DejaVuSans-45" transform="translate(478.808594 0)"/>
     </g>
    </g>
    <g id="LineCollection_12">
     <path d="M 291.262188 276.625156 
L 291.262188 263.625156 
" style="fill: none; stroke: #d62728"/>
    </g>
    <g id="line2d_46">
     <path d="M 278.262188 270.125156 
L 304.262188 270.125156 
" style="fill: none; stroke-dasharray: 3.7,1.6; stroke-dashoffset: 0; stroke: #d62728"/>
    </g>
    <g id="line2d_47">
     <g>
      <use xlink:href="#m03fae4dbfc" x="291.262188" y="270.125156" style="fill: #d62728; stroke: #000000; stroke-linejoin: miter"/>
     </g>
    </g>
    <g id="text_25">
     <!-- API25, PRE±SD (n=12) -->
     <g transform="translate(314.662188 274.675156) scale(0.13 -0.13)">
      <use xlink:href="#DejaVuSans-41"/>
      <use xlink:href="#DejaVuSans-50" transform="translate(68.408203 0)"/>
      <use xlink:href="#DejaVuSans-49" transform="translate(128.710938 0)"/>
      <use xlink:href="#DejaVuSans-32" transform="translate(158.203125 0)"/>
      <use xlink:href="#DejaVuSans-35" transform="translate(221.826172 0)"/>
      <use xlink:href="#DejaVuSans-2c" transform="translate(285.449219 0)"/>
      <use xlink:href="#DejaVuSans-20" transform="translate(317.236328 0)"/>
      <use xlink:href="#DejaVuSans-50" transform="translate(349.023438 0)"/>
      <use xlink:href="#DejaVuSans-52" transform="translate(409.326172 0)"/>
      <use xlink:href="#DejaVuSans-45" transform="translate(478.808594 0)"/>
      <use xlink:href="#DejaVuSans-b1" transform="translate(541.992188 0)"/>
      <use xlink:href="#DejaVuSans-53" transform="translate(625.78125 0)"/>
      <use xlink:href="#DejaVuSans-44" transform="translate(689.257812 0)"/>
      <use xlink:href="#DejaVuSans-20" transform="translate(766.259766 0)"/>
      <use xlink:href="#DejaVuSans-28" transform="translate(798.046875 0)"/>
      <use xlink:href="#DejaVuSans-6e" transform="translate(837.060547 0)"/>
      <use xlink:href="#DejaVuSans-3d" transform="translate(900.439453 0)"/>
      <use xlink:href="#DejaVuSans-31" transform="translate(984.228516 0)"/>
      <use xlink:href="#DejaVuSans-32" transform="translate(1047.851562 0)"/>
      <use xlink:href="#DejaVuSans-29" transform="translate(1111.474609 0)"/>
     </g>
    </g>
   </g>
  </g>
  <g id="text_26">
   <!-- Lenard2025 (healthy) -->
   <g transform="translate(124.552031 26.196094) scale(0.25 -0.25)">
    <defs>
     <path id="DejaVuSans-Bold-4c" d="M 588 4666 
L 1791 4666 
L 1791 909 
L 3903 909 
L 3903 0 
L 588 0 
L 588 4666 
z
" transform="scale(0.015625)"/>
     <path id="DejaVuSans-Bold-64" d="M 2919 2988 
L 2919 4863 
L 4044 4863 
L 4044 0 
L 2919 0 
L 2919 506 
Q 2688 197 2409 53 
Q 2131 -91 1766 -91 
Q 1119 -91 703 423 
Q 288 938 288 1747 
Q 288 2556 703 3070 
Q 1119 3584 1766 3584 
Q 2128 3584 2408 3439 
Q 2688 3294 2919 2988 
z
M 2181 722 
Q 2541 722 2730 984 
Q 2919 1247 2919 1747 
Q 2919 2247 2730 2509 
Q 2541 2772 2181 2772 
Q 1825 2772 1636 2509 
Q 1447 2247 1447 1747 
Q 1447 1247 1636 984 
Q 1825 722 2181 722 
z
" transform="scale(0.015625)"/>
     <path id="DejaVuSans-Bold-32" d="M 1844 884 
L 3897 884 
L 3897 0 
L 506 0 
L 506 884 
L 2209 2388 
Q 2438 2594 2547 2791 
Q 2656 2988 2656 3200 
Q 2656 3528 2436 3728 
Q 2216 3928 1850 3928 
Q 1569 3928 1234 3808 
Q 900 3688 519 3450 
L 519 4475 
Q 925 4609 1322 4679 
Q 1719 4750 2100 4750 
Q 2938 4750 3402 4381 
Q 3866 4013 3866 3353 
Q 3866 2972 3669 2642 
Q 3472 2313 2841 1759 
L 1844 884 
z
" transform="scale(0.015625)"/>
     <path id="DejaVuSans-Bold-30" d="M 2944 2338 
Q 2944 3213 2780 3570 
Q 2616 3928 2228 3928 
Q 1841 3928 1675 3570 
Q 1509 3213 1509 2338 
Q 1509 1453 1675 1090 
Q 1841 728 2228 728 
Q 2613 728 2778 1090 
Q 2944 1453 2944 2338 
z
M 4147 2328 
Q 4147 1169 3647 539 
Q 3147 -91 2228 -91 
Q 1306 -91 806 539 
Q 306 1169 306 2328 
Q 306 3491 806 4120 
Q 1306 4750 2228 4750 
Q 3147 4750 3647 4120 
Q 4147 3491 4147 2328 
z
" transform="scale(0.015625)"/>
     <path id="DejaVuSans-Bold-35" d="M 678 4666 
L 3669 4666 
L 3669 3781 
L 1638 3781 
L 1638 3059 
Q 1775 3097 1914 3117 
Q 2053 3138 2203 3138 
Q 3056 3138 3531 2711 
Q 4006 2284 4006 1522 
Q 4006 766 3489 337 
Q 2972 -91 2053 -91 
Q 1656 -91 1267 -14 
Q 878 63 494 219 
L 494 1166 
Q 875 947 1217 837 
Q 1559 728 1863 728 
Q 2300 728 2551 942 
Q 2803 1156 2803 1522 
Q 2803 1891 2551 2103 
Q 2300 2316 1863 2316 
Q 1603 2316 1309 2248 
Q 1016 2181 678 2041 
L 678 4666 
z
" transform="scale(0.015625)"/>
     <path id="DejaVuSans-Bold-28" d="M 2413 -844 
L 1484 -844 
Q 1006 -72 778 623 
Q 550 1319 550 2003 
Q 550 2688 779 3389 
Q 1009 4091 1484 4856 
L 2413 4856 
Q 2013 4116 1813 3408 
Q 1613 2700 1613 2009 
Q 1613 1319 1811 609 
Q 2009 -100 2413 -844 
z
" transform="scale(0.015625)"/>
     <path id="DejaVuSans-Bold-79" d="M 78 3500 
L 1197 3500 
L 2138 1125 
L 2938 3500 
L 4056 3500 
L 2584 -331 
Q 2363 -916 2067 -1148 
Q 1772 -1381 1288 -1381 
L 641 -1381 
L 641 -647 
L 991 -647 
Q 1275 -647 1404 -556 
Q 1534 -466 1606 -231 
L 1638 -134 
L 78 3500 
z
" transform="scale(0.015625)"/>
     <path id="DejaVuSans-Bold-29" d="M 513 -844 
Q 913 -100 1113 609 
Q 1313 1319 1313 2009 
Q 1313 2700 1113 3408 
Q 913 4116 513 4856 
L 1441 4856 
Q 1916 4091 2145 3389 
Q 2375 2688 2375 2003 
Q 2375 1319 2147 623 
Q 1919 -72 1441 -844 
L 513 -844 
z
" transform="scale(0.015625)"/>
    </defs>
    <use xlink:href="#DejaVuSans-Bold-4c"/>
    <use xlink:href="#DejaVuSans-Bold-65" transform="translate(63.720703 0)"/>
    <use xlink:href="#DejaVuSans-Bold-6e" transform="translate(131.542969 0)"/>
    <use xlink:href="#DejaVuSans-Bold-61" transform="translate(202.734375 0)"/>
    <use xlink:href="#DejaVuSans-Bold-72" transform="translate(270.214844 0)"/>
    <use xlink:href="#DejaVuSans-Bold-64" transform="translate(319.53125 0)"/>
    <use xlink:href="#DejaVuSans-Bold-32" transform="translate(391.113281 0)"/>
    <use xlink:href="#DejaVuSans-Bold-30" transform="translate(460.693359 0)"/>
    <use xlink:href="#DejaVuSans-Bold-32" transform="translate(530.273438 0)"/>
    <use xlink:href="#DejaVuSans-Bold-35" transform="translate(599.853516 0)"/>
    <use xlink:href="#DejaVuSans-Bold-20" transform="translate(669.433594 0)"/>
    <use xlink:href="#DejaVuSans-Bold-28" transform="translate(704.248047 0)"/>
    <use xlink:href="#DejaVuSans-Bold-68" transform="translate(749.951172 0)"/>
    <use xlink:href="#DejaVuSans-Bold-65" transform="translate(821.142578 0)"/>
    <use xlink:href="#DejaVuSans-Bold-61" transform="translate(888.964844 0)"/>
    <use xlink:href="#DejaVuSans-Bold-6c" transform="translate(956.445312 0)"/>
    <use xlink:href="#DejaVuSans-Bold-74" transform="translate(990.722656 0)"/>
    <use xlink:href="#DejaVuSans-Bold-68" transform="translate(1038.525391 0)"/>
    <use xlink:href="#DejaVuSans-Bold-79" transform="translate(1109.716797 0)"/>
    <use xlink:href="#DejaVuSans-Bold-29" transform="translate(1174.902344 0)"/>
   </g>
  </g>
 </g>
 <defs>
  <clipPath id="p27f31705d3">
   <rect x="88.12625" y="43.2" width="390.6" height="277.2"/>
  </clipPath>
 </defs>
</svg>
