<?xml version="1.0" encoding="utf-8" standalone="no"?>
<!DOCTYPE svg PUBLIC "-//W3C//DTD SVG 1.1//EN"
  "http://www.w3.org/Graphics/SVG/1.1/DTD/svg11.dtd">
<svg xmlns:xlink="http://www.w3.org/1999/xlink" width="440.479512pt" height="414.4055pt" viewBox="0 0 440.479512 414.4055" xmlns="http://www.w3.org/2000/svg" version="1.1">
 <metadata>
  <rdf:RDF xmlns:dc="http://purl.org/dc/elements/1.1/" xmlns:cc="http://creativecommons.org/ns#" xmlns:rdf="http://www.w3.org/1999/02/22-rdf-syntax-ns#">
   <cc:Work>
    <dc:type rdf:resource="http://purl.org/dc/dcmitype/StillImage"/>
    <dc:date>2026-03-23T09:58:21.384188</dc:date>
    <dc:format>image/svg+xml</dc:format>
    <dc:creator>
     <cc:Agent>
      <dc:title>Matplotlib v3.10.8, https://matplotlib.org/</dc:title>
     </cc:Agent>
    </dc:creator>
   </cc:Work>
  </rdf:RDF>
 </metadata>
 <defs>
  <style type="text/css">*{stroke-linejoin: round; stroke-linecap: butt}</style>
 </defs>
 <g id="figure_1">
  <g id="patch_1">
   <path d="M 0 414.4055 
L 440.479512 414.4055 
L 440.479512 0 
L 0 0 
z
" style="fill: #ffffff"/>
  </g>
  <g id="axes_1">
   <g id="patch_2">
    <path d="M 59.475313 364.248 
L 433.279513 364.248 
L 433.279513 48.24 
L 59.475313 48.24 
z
" style="fill: #ffffff"/>
   </g>
   <g id="matplotlib.axis_1">
    <g id="xtick_1">
     <g id="line2d_1">
      <defs>
       <path id="m8a366eb06d" d="M 0 0 
L 0 3.5 
" style="stroke: #000000; stroke-width: 0.8"/>
      </defs>
      <g>
       <use xlink:href="#m8a366eb06d" x="76.466413" y="364.248" style="stroke: #000000; stroke-width: 0.8"/>
      </g>
     </g>
     <g id="text_1">
      <!-- 0.0 -->
      <g transform="translate(64.539069 382.645656) scale(0.15 -0.15)">
       <defs>
        <path id="DejaVuSans-30" d="M 2034 4250 
Q 1547 4250 1301 3770 
Q 1056 3291 1056 2328 
Q 1056 1369 1301 889 
Q 1547 409 2034 409 
Q 2525 409 2770 889 
Q 3016 1369 3016 2328 
Q 3016 3291 2770 3770 
Q 2525 4250 2034 4250 
z
M 2034 4750 
Q 2819 4750 3233 4129 
Q 3647 3509 3647 2328 
Q 3647 1150 3233 529 
Q 2819 -91 2034 -91 
Q 1250 -91 836 529 
Q 422 1150 422 2328 
Q 422 3509 836 4129 
Q 1250 4750 2034 4750 
z
" transform="scale(0.015625)"/>
        <path id="DejaVuSans-2e" d="M 684 794 
L 1344 794 
L 1344 0 
L 684 0 
L 684 794 
z
" transform="scale(0.015625)"/>
       </defs>
       <use xlink:href="#DejaVuSans-30"/>
       <use xlink:href="#DejaVuSans-2e" transform="translate(63.623047 0)"/>
       <use xlink:href="#DejaVuSans-30" transform="translate(95.410156 0)"/>
      </g>
     </g>
    </g>
    <g id="xtick_2">
     <g id="line2d_2">
      <g>
       <use xlink:href="#m8a366eb06d" x="167.05177" y="364.248" style="stroke: #000000; stroke-width: 0.8"/>
      </g>
     </g>
     <g id="text_2">
      <!-- 0.2 -->
      <g transform="translate(155.124427 382.645656) scale(0.15 -0.15)">
       <defs>
        <path id="DejaVuSans-32" d="M 1228 531 
L 3431 531 
L 3431 0 
L 469 0 
L 469 531 
Q 828 903 1448 1529 
Q 2069 2156 2228 2338 
Q 2531 2678 2651 2914 
Q 2772 3150 2772 3378 
Q 2772 3750 2511 3984 
Q 2250 4219 1831 4219 
Q 1534 4219 1204 4116 
Q 875 4013 500 3803 
L 500 4441 
Q 881 4594 1212 4672 
Q 1544 4750 1819 4750 
Q 2544 4750 2975 4387 
Q 3406 4025 3406 3419 
Q 3406 3131 3298 2873 
Q 3191 2616 2906 2266 
Q 2828 2175 2409 1742 
Q 1991 1309 1228 531 
z
" transform="scale(0.015625)"/>
       </defs>
       <use xlink:href="#DejaVuSans-30"/>
       <use xlink:href="#DejaVuSans-2e" transform="translate(63.623047 0)"/>
       <use xlink:href="#DejaVuSans-32" transform="translate(95.410156 0)"/>
      </g>
     </g>
    </g>
    <g id="xtick_3">
     <g id="line2d_3">
      <g>
       <use xlink:href="#m8a366eb06d" x="257.637128" y="364.248" style="stroke: #000000; stroke-width: 0.8"/>
      </g>
     </g>
     <g id="text_3">
      <!-- 0.4 -->
      <g transform="translate(245.709784 382.645656) scale(0.15 -0.15)">
       <defs>
        <path id="DejaVuSans-34" d="M 2419 4116 
L 825 1625 
L 2419 1625 
L 2419 4116 
z
M 2253 4666 
L 3047 4666 
L 3047 1625 
L 3713 1625 
L 3713 1100 
L 3047 1100 
L 3047 0 
L 2419 0 
L 2419 1100 
L 313 1100 
L 313 1709 
L 2253 4666 
z
" transform="scale(0.015625)"/>
       </defs>
       <use xlink:href="#DejaVuSans-30"/>
       <use xlink:href="#DejaVuSans-2e" transform="translate(63.623047 0)"/>
       <use xlink:href="#DejaVuSans-34" transform="translate(95.410156 0)"/>
      </g>
     </g>
    </g>
    <g id="xtick_4">
     <g id="line2d_4">
      <g>
       <use xlink:href="#m8a366eb06d" x="348.222486" y="364.248" style="stroke: #000000; stroke-width: 0.8"/>
      </g>
     </g>
     <g id="text_4">
      <!-- 0.6 -->
      <g transform="translate(336.295142 382.645656) scale(0.15 -0.15)">
       <defs>
        <path id="DejaVuSans-36" d="M 2113 2584 
Q 1688 2584 1439 2293 
Q 1191 2003 1191 1497 
Q 1191 994 1439 701 
Q 1688 409 2113 409 
Q 2538 409 2786 701 
Q 3034 994 3034 1497 
Q 3034 2003 2786 2293 
Q 2538 2584 2113 2584 
z
M 3366 4563 
L 3366 3988 
Q 3128 4100 2886 4159 
Q 2644 4219 2406 4219 
Q 1781 4219 1451 3797 
Q 1122 3375 1075 2522 
Q 1259 2794 1537 2939 
Q 1816 3084 2150 3084 
Q 2853 3084 3261 2657 
Q 3669 2231 3669 1497 
Q 3669 778 3244 343 
Q 2819 -91 2113 -91 
Q 1303 -91 875 529 
Q 447 1150 447 2328 
Q 447 3434 972 4092 
Q 1497 4750 2381 4750 
Q 2619 4750 2861 4703 
Q 3103 4656 3366 4563 
z
" transform="scale(0.015625)"/>
       </defs>
       <use xlink:href="#DejaVuSans-30"/>
       <use xlink:href="#DejaVuSans-2e" transform="translate(63.623047 0)"/>
       <use xlink:href="#DejaVuSans-36" transform="translate(95.410156 0)"/>
      </g>
     </g>
    </g>
    <g id="text_5">
     <!-- apixaban plasma [µM] -->
     <g transform="translate(133.494913 403.442375) scale(0.18 -0.18)">
      <defs>
       <path id="DejaVuSans-Bold-61" d="M 2106 1575 
Q 1756 1575 1579 1456 
Q 1403 1338 1403 1106 
Q 1403 894 1545 773 
Q 1688 653 1941 653 
Q 2256 653 2472 879 
Q 2688 1106 2688 1447 
L 2688 1575 
L 2106 1575 
z
M 3816 1997 
L 3816 0 
L 2688 0 
L 2688 519 
Q 2463 200 2181 54 
Q 1900 -91 1497 -91 
Q 953 -91 614 226 
Q 275 544 275 1050 
Q 275 1666 698 1953 
Q 1122 2241 2028 2241 
L 2688 2241 
L 2688 2328 
Q 2688 2594 2478 2717 
Q 2269 2841 1825 2841 
Q 1466 2841 1156 2769 
Q 847 2697 581 2553 
L 581 3406 
Q 941 3494 1303 3539 
Q 1666 3584 2028 3584 
Q 2975 3584 3395 3211 
Q 3816 2838 3816 1997 
z
" transform="scale(0.015625)"/>
       <path id="DejaVuSans-Bold-70" d="M 1656 506 
L 1656 -1331 
L 538 -1331 
L 538 3500 
L 1656 3500 
L 1656 2988 
Q 1888 3294 2169 3439 
Q 2450 3584 2816 3584 
Q 3463 3584 3878 3070 
Q 4294 2556 4294 1747 
Q 4294 938 3878 423 
Q 3463 -91 2816 -91 
Q 2450 -91 2169 54 
Q 1888 200 1656 506 
z
M 2400 2772 
Q 2041 2772 1848 2508 
Q 1656 2244 1656 1747 
Q 1656 1250 1848 986 
Q 2041 722 2400 722 
Q 2759 722 2948 984 
Q 3138 1247 3138 1747 
Q 3138 2247 2948 2509 
Q 2759 2772 2400 2772 
z
" transform="scale(0.015625)"/>
       <path id="DejaVuSans-Bold-69" d="M 538 3500 
L 1656 3500 
L 1656 0 
L 538 0 
L 538 3500 
z
M 538 4863 
L 1656 4863 
L 1656 3950 
L 538 3950 
L 538 4863 
z
" transform="scale(0.015625)"/>
       <path id="DejaVuSans-Bold-78" d="M 1422 1791 
L 159 3500 
L 1344 3500 
L 2059 2463 
L 2784 3500 
L 3969 3500 
L 2706 1797 
L 4031 0 
L 2847 0 
L 2059 1106 
L 1281 0 
L 97 0 
L 1422 1791 
z
" transform="scale(0.015625)"/>
       <path id="DejaVuSans-Bold-62" d="M 2400 722 
Q 2759 722 2948 984 
Q 3138 1247 3138 1747 
Q 3138 2247 2948 2509 
Q 2759 2772 2400 2772 
Q 2041 2772 1848 2508 
Q 1656 2244 1656 1747 
Q 1656 1250 1848 986 
Q 2041 722 2400 722 
z
M 1656 2988 
Q 1888 3294 2169 3439 
Q 2450 3584 2816 3584 
Q 3463 3584 3878 3070 
Q 4294 2556 4294 1747 
Q 4294 938 3878 423 
Q 3463 -91 2816 -91 
Q 2450 -91 2169 54 
Q 1888 200 1656 506 
L 1656 0 
L 538 0 
L 538 4863 
L 1656 4863 
L 1656 2988 
z
" transform="scale(0.015625)"/>
       <path id="DejaVuSans-Bold-6e" d="M 4056 2131 
L 4056 0 
L 2931 0 
L 2931 347 
L 2931 1631 
Q 2931 2084 2911 2256 
Q 2891 2428 2841 2509 
Q 2775 2619 2662 2680 
Q 2550 2741 2406 2741 
Q 2056 2741 1856 2470 
Q 1656 2200 1656 1722 
L 1656 0 
L 538 0 
L 538 3500 
L 1656 3500 
L 1656 2988 
Q 1909 3294 2193 3439 
Q 2478 3584 2822 3584 
Q 3428 3584 3742 3212 
Q 4056 2841 4056 2131 
z
" transform="scale(0.015625)"/>
       <path id="DejaVuSans-Bold-20" transform="scale(0.015625)"/>
       <path id="DejaVuSans-Bold-6c" d="M 538 4863 
L 1656 4863 
L 1656 0 
L 538 0 
L 538 4863 
z
" transform="scale(0.015625)"/>
       <path id="DejaVuSans-Bold-73" d="M 3272 3391 
L 3272 2541 
Q 2913 2691 2578 2766 
Q 2244 2841 1947 2841 
Q 1628 2841 1473 2761 
Q 1319 2681 1319 2516 
Q 1319 2381 1436 2309 
Q 1553 2238 1856 2203 
L 2053 2175 
Q 2913 2066 3209 1816 
Q 3506 1566 3506 1031 
Q 3506 472 3093 190 
Q 2681 -91 1863 -91 
Q 1516 -91 1145 -36 
Q 775 19 384 128 
L 384 978 
Q 719 816 1070 734 
Q 1422 653 1784 653 
Q 2113 653 2278 743 
Q 2444 834 2444 1013 
Q 2444 1163 2330 1236 
Q 2216 1309 1875 1350 
L 1678 1375 
Q 931 1469 631 1722 
Q 331 1975 331 2491 
Q 331 3047 712 3315 
Q 1094 3584 1881 3584 
Q 2191 3584 2531 3537 
Q 2872 3491 3272 3391 
z
" transform="scale(0.015625)"/>
       <path id="DejaVuSans-Bold-6d" d="M 3781 2919 
Q 3994 3244 4286 3414 
Q 4578 3584 4928 3584 
Q 5531 3584 5847 3212 
Q 6163 2841 6163 2131 
L 6163 0 
L 5038 0 
L 5038 1825 
Q 5041 1866 5042 1909 
Q 5044 1953 5044 2034 
Q 5044 2406 4934 2573 
Q 4825 2741 4581 2741 
Q 4263 2741 4089 2478 
Q 3916 2216 3909 1719 
L 3909 0 
L 2784 0 
L 2784 1825 
Q 2784 2406 2684 2573 
Q 2584 2741 2328 2741 
Q 2006 2741 1831 2477 
Q 1656 2213 1656 1722 
L 1656 0 
L 531 0 
L 531 3500 
L 1656 3500 
L 1656 2988 
Q 1863 3284 2130 3434 
Q 2397 3584 2719 3584 
Q 3081 3584 3359 3409 
Q 3638 3234 3781 2919 
z
" transform="scale(0.015625)"/>
       <path id="DejaVuSans-Bold-5b" d="M 550 4863 
L 2491 4863 
L 2491 4159 
L 1613 4159 
L 1613 -141 
L 2491 -141 
L 2491 -844 
L 550 -844 
L 550 4863 
z
" transform="scale(0.015625)"/>
       <path id="DejaVuSans-Bold-b5" d="M 544 -1338 
L 544 3500 
L 1672 3500 
L 1672 1466 
Q 1672 1103 1828 926 
Q 1984 750 2303 750 
Q 2625 750 2781 926 
Q 2938 1103 2938 1466 
L 2938 3500 
L 4063 3500 
L 4063 1159 
Q 4063 938 4114 850 
Q 4166 763 4288 763 
Q 4344 763 4395 778 
Q 4447 794 4506 831 
L 4506 50 
Q 4341 -22 4195 -56 
Q 4050 -91 3909 -91 
Q 3631 -91 3454 26 
Q 3278 144 3169 403 
Q 3022 156 2811 32 
Q 2600 -91 2322 -91 
Q 2091 -91 1928 -17 
Q 1766 56 1672 206 
L 1672 -1338 
L 544 -1338 
z
" transform="scale(0.015625)"/>
       <path id="DejaVuSans-Bold-4d" d="M 588 4666 
L 2119 4666 
L 3181 2169 
L 4250 4666 
L 5778 4666 
L 5778 0 
L 4641 0 
L 4641 3413 
L 3566 897 
L 2803 897 
L 1728 3413 
L 1728 0 
L 588 0 
L 588 4666 
z
" transform="scale(0.015625)"/>
       <path id="DejaVuSans-Bold-5d" d="M 2375 -844 
L 434 -844 
L 434 -141 
L 1313 -141 
L 1313 4159 
L 434 4159 
L 434 4863 
L 2375 4863 
L 2375 -844 
z
" transform="scale(0.015625)"/>
      </defs>
      <use xlink:href="#DejaVuSans-Bold-61"/>
      <use xlink:href="#DejaVuSans-Bold-70" transform="translate(67.480469 0)"/>
      <use xlink:href="#DejaVuSans-Bold-69" transform="translate(139.0625 0)"/>
      <use xlink:href="#DejaVuSans-Bold-78" transform="translate(173.339844 0)"/>
      <use xlink:href="#DejaVuSans-Bold-61" transform="translate(237.841797 0)"/>
      <use xlink:href="#DejaVuSans-Bold-62" transform="translate(305.322266 0)"/>
      <use xlink:href="#DejaVuSans-Bold-61" transform="translate(376.904297 0)"/>
      <use xlink:href="#DejaVuSans-Bold-6e" transform="translate(444.384766 0)"/>
      <use xlink:href="#DejaVuSans-Bold-20" transform="translate(515.576172 0)"/>
      <use xlink:href="#DejaVuSans-Bold-70" transform="translate(550.390625 0)"/>
      <use xlink:href="#DejaVuSans-Bold-6c" transform="translate(621.972656 0)"/>
      <use xlink:href="#DejaVuSans-Bold-61" transform="translate(656.25 0)"/>
      <use xlink:href="#DejaVuSans-Bold-73" transform="translate(723.730469 0)"/>
      <use xlink:href="#DejaVuSans-Bold-6d" transform="translate(783.251953 0)"/>
      <use xlink:href="#DejaVuSans-Bold-61" transform="translate(887.451172 0)"/>
      <use xlink:href="#DejaVuSans-Bold-20" transform="translate(954.931641 0)"/>
      <use xlink:href="#DejaVuSans-Bold-5b" transform="translate(989.746094 0)"/>
      <use xlink:href="#DejaVuSans-Bold-b5" transform="translate(1035.449219 0)"/>
      <use xlink:href="#DejaVuSans-Bold-4d" transform="translate(1109.033203 0)"/>
      <use xlink:href="#DejaVuSans-Bold-5d" transform="translate(1208.544922 0)"/>
     </g>
    </g>
   </g>
   <g id="matplotlib.axis_2">
    <g id="ytick_1">
     <g id="line2d_5">
      <defs>
       <path id="m4fe0351906" d="M 0 0 
L -3.5 0 
" style="stroke: #000000; stroke-width: 0.8"/>
      </defs>
      <g>
       <use xlink:href="#m4fe0351906" x="59.475313" y="317.727792" style="stroke: #000000; stroke-width: 0.8"/>
      </g>
     </g>
     <g id="text_6">
      <!-- 1.0 -->
      <g transform="translate(28.620625 323.42662) scale(0.15 -0.15)">
       <defs>
        <path id="DejaVuSans-31" d="M 794 531 
L 1825 531 
L 1825 4091 
L 703 3866 
L 703 4441 
L 1819 4666 
L 2450 4666 
L 2450 531 
L 3481 531 
L 3481 0 
L 794 0 
L 794 531 
z
" transform="scale(0.015625)"/>
       </defs>
       <use xlink:href="#DejaVuSans-31"/>
       <use xlink:href="#DejaVuSans-2e" transform="translate(63.623047 0)"/>
       <use xlink:href="#DejaVuSans-30" transform="translate(95.410156 0)"/>
      </g>
     </g>
    </g>
    <g id="ytick_2">
     <g id="line2d_6">
      <g>
       <use xlink:href="#m4fe0351906" x="59.475313" y="253.887792" style="stroke: #000000; stroke-width: 0.8"/>
      </g>
     </g>
     <g id="text_7">
      <!-- 1.2 -->
      <g transform="translate(28.620625 259.58662) scale(0.15 -0.15)">
       <use xlink:href="#DejaVuSans-31"/>
       <use xlink:href="#DejaVuSans-2e" transform="translate(63.623047 0)"/>
       <use xlink:href="#DejaVuSans-32" transform="translate(95.410156 0)"/>
      </g>
     </g>
    </g>
    <g id="ytick_3">
     <g id="line2d_7">
      <g>
       <use xlink:href="#m4fe0351906" x="59.475313" y="190.047792" style="stroke: #000000; stroke-width: 0.8"/>
      </g>
     </g>
     <g id="text_8">
      <!-- 1.4 -->
      <g transform="translate(28.620625 195.74662) scale(0.15 -0.15)">
       <use xlink:href="#DejaVuSans-31"/>
       <use xlink:href="#DejaVuSans-2e" transform="translate(63.623047 0)"/>
       <use xlink:href="#DejaVuSans-34" transform="translate(95.410156 0)"/>
      </g>
     </g>
    </g>
    <g id="ytick_4">
     <g id="line2d_8">
      <g>
       <use xlink:href="#m4fe0351906" x="59.475313" y="126.207792" style="stroke: #000000; stroke-width: 0.8"/>
      </g>
     </g>
     <g id="text_9">
      <!-- 1.6 -->
      <g transform="translate(28.620625 131.90662) scale(0.15 -0.15)">
       <use xlink:href="#DejaVuSans-31"/>
       <use xlink:href="#DejaVuSans-2e" transform="translate(63.623047 0)"/>
       <use xlink:href="#DejaVuSans-36" transform="translate(95.410156 0)"/>
      </g>
     </g>
    </g>
    <g id="ytick_5">
     <g id="line2d_9">
      <g>
       <use xlink:href="#m4fe0351906" x="59.475313" y="62.367792" style="stroke: #000000; stroke-width: 0.8"/>
      </g>
     </g>
     <g id="text_10">
      <!-- 1.8 -->
      <g transform="translate(28.620625 68.06662) scale(0.15 -0.15)">
       <defs>
        <path id="DejaVuSans-38" d="M 2034 2216 
Q 1584 2216 1326 1975 
Q 1069 1734 1069 1313 
Q 1069 891 1326 650 
Q 1584 409 2034 409 
Q 2484 409 2743 651 
Q 3003 894 3003 1313 
Q 3003 1734 2745 1975 
Q 2488 2216 2034 2216 
z
M 1403 2484 
Q 997 2584 770 2862 
Q 544 3141 544 3541 
Q 544 4100 942 4425 
Q 1341 4750 2034 4750 
Q 2731 4750 3128 4425 
Q 3525 4100 3525 3541 
Q 3525 3141 3298 2862 
Q 3072 2584 2669 2484 
Q 3125 2378 3379 2068 
Q 3634 1759 3634 1313 
Q 3634 634 3220 271 
Q 2806 -91 2034 -91 
Q 1263 -91 848 271 
Q 434 634 434 1313 
Q 434 1759 690 2068 
Q 947 2378 1403 2484 
z
M 1172 3481 
Q 1172 3119 1398 2916 
Q 1625 2713 2034 2713 
Q 2441 2713 2670 2916 
Q 2900 3119 2900 3481 
Q 2900 3844 2670 4047 
Q 2441 4250 2034 4250 
Q 1625 4250 1398 4047 
Q 1172 3844 1172 3481 
z
" transform="scale(0.015625)"/>
       </defs>
       <use xlink:href="#DejaVuSans-31"/>
       <use xlink:href="#DejaVuSans-2e" transform="translate(63.623047 0)"/>
       <use xlink:href="#DejaVuSans-38" transform="translate(95.410156 0)"/>
      </g>
     </g>
    </g>
    <g id="text_11">
     <!-- INR [-] -->
     <g transform="translate(20.877187 239.148844) rotate(-90) scale(0.18 -0.18)">
      <defs>
       <path id="DejaVuSans-Bold-49" d="M 588 4666 
L 1791 4666 
L 1791 0 
L 588 0 
L 588 4666 
z
" transform="scale(0.015625)"/>
       <path id="DejaVuSans-Bold-4e" d="M 588 4666 
L 1931 4666 
L 3628 1466 
L 3628 4666 
L 4769 4666 
L 4769 0 
L 3425 0 
L 1728 3200 
L 1728 0 
L 588 0 
L 588 4666 
z
" transform="scale(0.015625)"/>
       <path id="DejaVuSans-Bold-52" d="M 2297 2597 
Q 2675 2597 2839 2737 
Q 3003 2878 3003 3200 
Q 3003 3519 2839 3656 
Q 2675 3794 2297 3794 
L 1791 3794 
L 1791 2597 
L 2297 2597 
z
M 1791 1766 
L 1791 0 
L 588 0 
L 588 4666 
L 2425 4666 
Q 3347 4666 3776 4356 
Q 4206 4047 4206 3378 
Q 4206 2916 3982 2619 
Q 3759 2322 3309 2181 
Q 3556 2125 3751 1926 
Q 3947 1728 4147 1325 
L 4800 0 
L 3519 0 
L 2950 1159 
Q 2778 1509 2601 1637 
Q 2425 1766 2131 1766 
L 1791 1766 
z
" transform="scale(0.015625)"/>
       <path id="DejaVuSans-Bold-2d" d="M 347 2297 
L 2309 2297 
L 2309 1388 
L 347 1388 
L 347 2297 
z
" transform="scale(0.015625)"/>
      </defs>
      <use xlink:href="#DejaVuSans-Bold-49"/>
      <use xlink:href="#DejaVuSans-Bold-4e" transform="translate(37.207031 0)"/>
      <use xlink:href="#DejaVuSans-Bold-52" transform="translate(120.898438 0)"/>
      <use xlink:href="#DejaVuSans-Bold-20" transform="translate(197.900391 0)"/>
      <use xlink:href="#DejaVuSans-Bold-5b" transform="translate(232.714844 0)"/>
      <use xlink:href="#DejaVuSans-Bold-2d" transform="translate(278.417969 0)"/>
      <use xlink:href="#DejaVuSans-Bold-5d" transform="translate(319.921875 0)"/>
     </g>
    </g>
   </g>
   <g id="line2d_10">
    <path d="M 76.466413 317.727792 
L 84.721595 312.699771 
L 99.456325 304.095573 
L 114.1106 295.978205 
L 127.419988 288.958172 
L 139.196011 283.007971 
L 154.133413 275.78995 
L 166.159615 270.22986 
L 180.814644 263.737528 
L 195.262951 257.622087 
L 197.462287 256.714844 
L 182.179753 263.147912 
L 168.743565 269.063084 
L 156.3196 274.763008 
L 143.860082 280.715715 
L 131.295063 286.973902 
L 119.50001 293.096554 
L 107.685476 299.485435 
L 96.188539 305.964255 
L 85.134561 312.452261 
L 76.46651 317.727732 
L 76.46651 317.727732 
" clip-path="url(#pbc8008c62e)" style="fill: none; stroke: #000000; stroke-width: 2; stroke-linecap: square"/>
   </g>
   <g id="line2d_11">
    <defs>
     <path id="m46372d557e" d="M -3 3 
L 3 3 
L 3 -3 
L -3 -3 
z
" style="stroke: #000000; stroke-linejoin: miter"/>
    </defs>
    <g clip-path="url(#pbc8008c62e)">
     <use xlink:href="#m46372d557e" x="410.800606" y="115.412448" style="fill: #ffffff; stroke: #000000; stroke-linejoin: miter"/>
     <use xlink:href="#m46372d557e" x="376.607334" y="130.197792" style="fill: #ffffff; stroke: #000000; stroke-linejoin: miter"/>
     <use xlink:href="#m46372d557e" x="321.729246" y="166.107792" style="fill: #ffffff; stroke: #000000; stroke-linejoin: miter"/>
     <use xlink:href="#m46372d557e" x="320.040691" y="282.992448" style="fill: #ffffff; stroke: #000000; stroke-linejoin: miter"/>
     <use xlink:href="#m46372d557e" x="317.50785" y="262.573224" style="fill: #ffffff; stroke: #000000; stroke-linejoin: miter"/>
     <use xlink:href="#m46372d557e" x="308.642934" y="216.803136" style="fill: #ffffff; stroke: #000000; stroke-linejoin: miter"/>
     <use xlink:href="#m46372d557e" x="292.601647" y="232.999344" style="fill: #ffffff; stroke: #000000; stroke-linejoin: miter"/>
     <use xlink:href="#m46372d557e" x="297.66731" y="282.287016" style="fill: #ffffff; stroke: #000000; stroke-linejoin: miter"/>
     <use xlink:href="#m46372d557e" x="277.826781" y="195.681672" style="fill: #ffffff; stroke: #000000; stroke-linejoin: miter"/>
     <use xlink:href="#m46372d557e" x="275.716083" y="279.471672" style="fill: #ffffff; stroke: #000000; stroke-linejoin: miter"/>
     <use xlink:href="#m46372d557e" x="247.854895" y="276.653136" style="fill: #ffffff; stroke: #000000; stroke-linejoin: miter"/>
     <use xlink:href="#m46372d557e" x="243.633509" y="199.904688" style="fill: #ffffff; stroke: #000000; stroke-linejoin: miter"/>
     <use xlink:href="#m46372d557e" x="243.633509" y="292.143912" style="fill: #ffffff; stroke: #000000; stroke-linejoin: miter"/>
     <use xlink:href="#m46372d557e" x="243.211366" y="285.10236" style="fill: #ffffff; stroke: #000000; stroke-linejoin: miter"/>
     <use xlink:href="#m46372d557e" x="237.723559" y="321.01236" style="fill: #ffffff; stroke: #000000; stroke-linejoin: miter"/>
     <use xlink:href="#m46372d557e" x="231.813608" y="260.46012" style="fill: #ffffff; stroke: #000000; stroke-linejoin: miter"/>
     <use xlink:href="#m46372d557e" x="226.325801" y="196.383912" style="fill: #ffffff; stroke: #000000; stroke-linejoin: miter"/>
     <use xlink:href="#m46372d557e" x="203.108153" y="233.701584" style="fill: #ffffff; stroke: #000000; stroke-linejoin: miter"/>
     <use xlink:href="#m46372d557e" x="200.575312" y="274.543224" style="fill: #ffffff; stroke: #000000; stroke-linejoin: miter"/>
     <use xlink:href="#m46372d557e" x="200.153178" y="285.10236" style="fill: #ffffff; stroke: #000000; stroke-linejoin: miter"/>
     <use xlink:href="#m46372d557e" x="201.419599" y="290.73624" style="fill: #ffffff; stroke: #000000; stroke-linejoin: miter"/>
     <use xlink:href="#m46372d557e" x="181.156916" y="326.64624" style="fill: #ffffff; stroke: #000000; stroke-linejoin: miter"/>
     <use xlink:href="#m46372d557e" x="179.046218" y="254.82624" style="fill: #ffffff; stroke: #000000; stroke-linejoin: miter"/>
     <use xlink:href="#m46372d557e" x="163.004931" y="281.581584" style="fill: #ffffff; stroke: #000000; stroke-linejoin: miter"/>
     <use xlink:href="#m46372d557e" x="151.18504" y="247.082448" style="fill: #ffffff; stroke: #000000; stroke-linejoin: miter"/>
     <use xlink:href="#m46372d557e" x="149.496486" y="277.358568" style="fill: #ffffff; stroke: #000000; stroke-linejoin: miter"/>
     <use xlink:href="#m46372d557e" x="146.119367" y="321.717792" style="fill: #ffffff; stroke: #000000; stroke-linejoin: miter"/>
     <use xlink:href="#m46372d557e" x="141.897981" y="349.178568" style="fill: #ffffff; stroke: #000000; stroke-linejoin: miter"/>
     <use xlink:href="#m46372d557e" x="141.053704" y="267.501672" style="fill: #ffffff; stroke: #000000; stroke-linejoin: miter"/>
     <use xlink:href="#m46372d557e" x="127.967382" y="311.155464" style="fill: #ffffff; stroke: #000000; stroke-linejoin: miter"/>
     <use xlink:href="#m46372d557e" x="124.590273" y="309.747792" style="fill: #ffffff; stroke: #000000; stroke-linejoin: miter"/>
     <use xlink:href="#m46372d557e" x="122.901719" y="320.31012" style="fill: #ffffff; stroke: #000000; stroke-linejoin: miter"/>
     <use xlink:href="#m46372d557e" x="114.458937" y="271.724688" style="fill: #ffffff; stroke: #000000; stroke-linejoin: miter"/>
     <use xlink:href="#m46372d557e" x="112.770382" y="335.095464" style="fill: #ffffff; stroke: #000000; stroke-linejoin: miter"/>
     <use xlink:href="#m46372d557e" x="112.770382" y="349.178568" style="fill: #ffffff; stroke: #000000; stroke-linejoin: miter"/>
     <use xlink:href="#m46372d557e" x="108.548986" y="318.197016" style="fill: #ffffff; stroke: #000000; stroke-linejoin: miter"/>
     <use xlink:href="#m46372d557e" x="103.483313" y="268.909344" style="fill: #ffffff; stroke: #000000; stroke-linejoin: miter"/>
     <use xlink:href="#m46372d557e" x="103.483313" y="283.694688" style="fill: #ffffff; stroke: #000000; stroke-linejoin: miter"/>
     <use xlink:href="#m46372d557e" x="102.639036" y="293.551584" style="fill: #ffffff; stroke: #000000; stroke-linejoin: miter"/>
     <use xlink:href="#m46372d557e" x="101.372625" y="347.770896" style="fill: #ffffff; stroke: #000000; stroke-linejoin: miter"/>
     <use xlink:href="#m46372d557e" x="97.573373" y="338.61624" style="fill: #ffffff; stroke: #000000; stroke-linejoin: miter"/>
     <use xlink:href="#m46372d557e" x="95.884808" y="311.155464" style="fill: #ffffff; stroke: #000000; stroke-linejoin: miter"/>
     <use xlink:href="#m46372d557e" x="94.196254" y="273.837792" style="fill: #ffffff; stroke: #000000; stroke-linejoin: miter"/>
     <use xlink:href="#m46372d557e" x="92.507699" y="347.065464" style="fill: #ffffff; stroke: #000000; stroke-linejoin: miter"/>
     <use xlink:href="#m46372d557e" x="92.507699" y="337.208568" style="fill: #ffffff; stroke: #000000; stroke-linejoin: miter"/>
     <use xlink:href="#m46372d557e" x="88.708447" y="331.574688" style="fill: #ffffff; stroke: #000000; stroke-linejoin: miter"/>
     <use xlink:href="#m46372d557e" x="88.286303" y="297.777792" style="fill: #ffffff; stroke: #000000; stroke-linejoin: miter"/>
     <use xlink:href="#m46372d557e" x="87.86417" y="290.73624" style="fill: #ffffff; stroke: #000000; stroke-linejoin: miter"/>
     <use xlink:href="#m46372d557e" x="80.687808" y="349.884" style="fill: #ffffff; stroke: #000000; stroke-linejoin: miter"/>
     <use xlink:href="#m46372d557e" x="77.31069" y="336.503136" style="fill: #ffffff; stroke: #000000; stroke-linejoin: miter"/>
     <use xlink:href="#m46372d557e" x="77.31069" y="349.884" style="fill: #ffffff; stroke: #000000; stroke-linejoin: miter"/>
    </g>
   </g>
   <g id="line2d_12">
    <path d="M 76.466413 317.727792 
L 85.141271 312.448242 
L 92.731916 307.965075 
L 100.724477 303.376271 
L 116.37725 294.759662 
L 130.736774 287.258168 
L 143.56929 280.857591 
L 154.91236 275.423206 
L 169.366447 268.783261 
L 184.458856 262.169112 
L 197.764702 256.590572 
L 212.379946 250.718402 
L 185.421114 261.757937 
L 171.726166 267.728209 
L 158.618473 273.690992 
L 145.719084 279.811947 
L 133.612437 285.799697 
L 121.382208 292.102804 
L 109.591488 298.436727 
L 98.068377 304.886586 
L 86.873265 311.41429 
L 76.466531 317.727719 
L 76.466531 317.727719 
" clip-path="url(#pbc8008c62e)" style="fill: none; stroke: #000000; stroke-width: 2; stroke-linecap: square"/>
   </g>
   <g id="line2d_13">
    <defs>
     <path id="m427480ed98" d="M 0 -3 
L -0.673542 -0.927051 
L -2.85317 -0.927051 
L -1.089814 0.354102 
L -1.763356 2.427051 
L -0 1.145898 
L 1.763356 2.427051 
L 1.089814 0.354102 
L 2.85317 -0.927051 
L 0.673542 -0.927051 
z
" style="stroke: #66c2a4; stroke-linejoin: bevel"/>
    </defs>
    <g clip-path="url(#pbc8008c62e)">
     <use xlink:href="#m427480ed98" x="393.915032" y="80.204688" style="fill: #ffffff; stroke: #66c2a4; stroke-linejoin: bevel"/>
     <use xlink:href="#m427480ed98" x="387.160814" y="156.250896" style="fill: #ffffff; stroke: #66c2a4; stroke-linejoin: bevel"/>
     <use xlink:href="#m427480ed98" x="378.718032" y="183.00624" style="fill: #ffffff; stroke: #66c2a4; stroke-linejoin: bevel"/>
     <use xlink:href="#m427480ed98" x="378.718032" y="195.681672" style="fill: #ffffff; stroke: #66c2a4; stroke-linejoin: bevel"/>
     <use xlink:href="#m427480ed98" x="364.365299" y="133.013136" style="fill: #ffffff; stroke: #66c2a4; stroke-linejoin: bevel"/>
     <use xlink:href="#m427480ed98" x="360.143903" y="133.013136" style="fill: #ffffff; stroke: #66c2a4; stroke-linejoin: bevel"/>
     <use xlink:href="#m427480ed98" x="341.991919" y="155.545464" style="fill: #ffffff; stroke: #66c2a4; stroke-linejoin: bevel"/>
     <use xlink:href="#m427480ed98" x="317.929993" y="191.455464" style="fill: #ffffff; stroke: #66c2a4; stroke-linejoin: bevel"/>
     <use xlink:href="#m427480ed98" x="314.552884" y="201.31236" style="fill: #ffffff; stroke: #66c2a4; stroke-linejoin: bevel"/>
     <use xlink:href="#m427480ed98" x="300.200152" y="178.077792" style="fill: #ffffff; stroke: #66c2a4; stroke-linejoin: bevel"/>
     <use xlink:href="#m427480ed98" x="295.978756" y="185.119344" style="fill: #ffffff; stroke: #66c2a4; stroke-linejoin: bevel"/>
     <use xlink:href="#m427480ed98" x="289.646672" y="189.34236" style="fill: #ffffff; stroke: #66c2a4; stroke-linejoin: bevel"/>
     <use xlink:href="#m427480ed98" x="284.158865" y="169.628568" style="fill: #ffffff; stroke: #66c2a4; stroke-linejoin: bevel"/>
     <use xlink:href="#m427480ed98" x="261.785494" y="190.047792" style="fill: #ffffff; stroke: #66c2a4; stroke-linejoin: bevel"/>
     <use xlink:href="#m427480ed98" x="257.141954" y="181.598568" style="fill: #ffffff; stroke: #66c2a4; stroke-linejoin: bevel"/>
     <use xlink:href="#m427480ed98" x="254.609123" y="267.501672" style="fill: #ffffff; stroke: #66c2a4; stroke-linejoin: bevel"/>
     <use xlink:href="#m427480ed98" x="238.567836" y="249.19236" style="fill: #ffffff; stroke: #66c2a4; stroke-linejoin: bevel"/>
     <use xlink:href="#m427480ed98" x="230.547197" y="264.683136" style="fill: #ffffff; stroke: #66c2a4; stroke-linejoin: bevel"/>
     <use xlink:href="#m427480ed98" x="224.215103" y="213.987792" style="fill: #ffffff; stroke: #66c2a4; stroke-linejoin: bevel"/>
     <use xlink:href="#m427480ed98" x="218.305163" y="201.31236" style="fill: #ffffff; stroke: #66c2a4; stroke-linejoin: bevel"/>
     <use xlink:href="#m427480ed98" x="219.993717" y="207.651672" style="fill: #ffffff; stroke: #66c2a4; stroke-linejoin: bevel"/>
     <use xlink:href="#m427480ed98" x="212.395213" y="211.172448" style="fill: #ffffff; stroke: #66c2a4; stroke-linejoin: bevel"/>
     <use xlink:href="#m427480ed98" x="215.772321" y="261.16236" style="fill: #ffffff; stroke: #66c2a4; stroke-linejoin: bevel"/>
     <use xlink:href="#m427480ed98" x="206.907406" y="200.61012" style="fill: #ffffff; stroke: #66c2a4; stroke-linejoin: bevel"/>
     <use xlink:href="#m427480ed98" x="210.706658" y="290.034" style="fill: #ffffff; stroke: #66c2a4; stroke-linejoin: bevel"/>
     <use xlink:href="#m427480ed98" x="203.530287" y="213.987792" style="fill: #ffffff; stroke: #66c2a4; stroke-linejoin: bevel"/>
     <use xlink:href="#m427480ed98" x="202.68601" y="244.969344" style="fill: #ffffff; stroke: #66c2a4; stroke-linejoin: bevel"/>
     <use xlink:href="#m427480ed98" x="201.419599" y="285.807792" style="fill: #ffffff; stroke: #66c2a4; stroke-linejoin: bevel"/>
     <use xlink:href="#m427480ed98" x="189.599698" y="251.305464" style="fill: #ffffff; stroke: #66c2a4; stroke-linejoin: bevel"/>
     <use xlink:href="#m427480ed98" x="185.800446" y="210.467016" style="fill: #ffffff; stroke: #66c2a4; stroke-linejoin: bevel"/>
     <use xlink:href="#m427480ed98" x="182.001193" y="210.467016" style="fill: #ffffff; stroke: #66c2a4; stroke-linejoin: bevel"/>
     <use xlink:href="#m427480ed98" x="177.779807" y="255.531672" style="fill: #ffffff; stroke: #66c2a4; stroke-linejoin: bevel"/>
     <use xlink:href="#m427480ed98" x="177.779807" y="305.521584" style="fill: #ffffff; stroke: #66c2a4; stroke-linejoin: bevel"/>
     <use xlink:href="#m427480ed98" x="167.226327" y="223.844688" style="fill: #ffffff; stroke: #66c2a4; stroke-linejoin: bevel"/>
     <use xlink:href="#m427480ed98" x="168.492738" y="255.531672" style="fill: #ffffff; stroke: #66c2a4; stroke-linejoin: bevel"/>
     <use xlink:href="#m427480ed98" x="162.582797" y="244.969344" style="fill: #ffffff; stroke: #66c2a4; stroke-linejoin: bevel"/>
     <use xlink:href="#m427480ed98" x="164.693485" y="258.347016" style="fill: #ffffff; stroke: #66c2a4; stroke-linejoin: bevel"/>
     <use xlink:href="#m427480ed98" x="157.517124" y="299.890896" style="fill: #ffffff; stroke: #66c2a4; stroke-linejoin: bevel"/>
     <use xlink:href="#m427480ed98" x="144.430813" y="252.010896" style="fill: #ffffff; stroke: #66c2a4; stroke-linejoin: bevel"/>
     <use xlink:href="#m427480ed98" x="140.63156" y="242.154" style="fill: #ffffff; stroke: #66c2a4; stroke-linejoin: bevel"/>
     <use xlink:href="#m427480ed98" x="135.565887" y="253.418568" style="fill: #ffffff; stroke: #66c2a4; stroke-linejoin: bevel"/>
     <use xlink:href="#m427480ed98" x="131.766634" y="255.531672" style="fill: #ffffff; stroke: #66c2a4; stroke-linejoin: bevel"/>
     <use xlink:href="#m427480ed98" x="118.680323" y="233.701584" style="fill: #ffffff; stroke: #66c2a4; stroke-linejoin: bevel"/>
     <use xlink:href="#m427480ed98" x="135.98803" y="290.034" style="fill: #ffffff; stroke: #66c2a4; stroke-linejoin: bevel"/>
     <use xlink:href="#m427480ed98" x="119.946744" y="284.40012" style="fill: #ffffff; stroke: #66c2a4; stroke-linejoin: bevel"/>
     <use xlink:href="#m427480ed98" x="120.368877" y="290.034" style="fill: #ffffff; stroke: #66c2a4; stroke-linejoin: bevel"/>
     <use xlink:href="#m427480ed98" x="121.213164" y="297.777792" style="fill: #ffffff; stroke: #66c2a4; stroke-linejoin: bevel"/>
     <use xlink:href="#m427480ed98" x="121.635298" y="302.70624" style="fill: #ffffff; stroke: #66c2a4; stroke-linejoin: bevel"/>
     <use xlink:href="#m427480ed98" x="116.569625" y="278.064" style="fill: #ffffff; stroke: #66c2a4; stroke-linejoin: bevel"/>
     <use xlink:href="#m427480ed98" x="112.348239" y="292.143912" style="fill: #ffffff; stroke: #66c2a4; stroke-linejoin: bevel"/>
     <use xlink:href="#m427480ed98" x="110.237541" y="275.245464" style="fill: #ffffff; stroke: #66c2a4; stroke-linejoin: bevel"/>
     <use xlink:href="#m427480ed98" x="108.548986" y="262.573224" style="fill: #ffffff; stroke: #66c2a4; stroke-linejoin: bevel"/>
     <use xlink:href="#m427480ed98" x="108.548986" y="254.82624" style="fill: #ffffff; stroke: #66c2a4; stroke-linejoin: bevel"/>
     <use xlink:href="#m427480ed98" x="103.905457" y="254.82624" style="fill: #ffffff; stroke: #66c2a4; stroke-linejoin: bevel"/>
     <use xlink:href="#m427480ed98" x="97.995506" y="261.867792" style="fill: #ffffff; stroke: #66c2a4; stroke-linejoin: bevel"/>
     <use xlink:href="#m427480ed98" x="96.729095" y="294.257016" style="fill: #ffffff; stroke: #66c2a4; stroke-linejoin: bevel"/>
     <use xlink:href="#m427480ed98" x="101.794759" y="341.431584" style="fill: #ffffff; stroke: #66c2a4; stroke-linejoin: bevel"/>
     <use xlink:href="#m427480ed98" x="91.663422" y="282.287016" style="fill: #ffffff; stroke: #66c2a4; stroke-linejoin: bevel"/>
     <use xlink:href="#m427480ed98" x="92.507699" y="293.551584" style="fill: #ffffff; stroke: #66c2a4; stroke-linejoin: bevel"/>
     <use xlink:href="#m427480ed98" x="89.552724" y="314.67624" style="fill: #ffffff; stroke: #66c2a4; stroke-linejoin: bevel"/>
     <use xlink:href="#m427480ed98" x="89.130591" y="290.034" style="fill: #ffffff; stroke: #66c2a4; stroke-linejoin: bevel"/>
     <use xlink:href="#m427480ed98" x="87.019893" y="281.581584" style="fill: #ffffff; stroke: #66c2a4; stroke-linejoin: bevel"/>
     <use xlink:href="#m427480ed98" x="87.442026" y="262.573224" style="fill: #ffffff; stroke: #66c2a4; stroke-linejoin: bevel"/>
     <use xlink:href="#m427480ed98" x="82.376363" y="309.04236" style="fill: #ffffff; stroke: #66c2a4; stroke-linejoin: bevel"/>
     <use xlink:href="#m427480ed98" x="81.532086" y="294.257016" style="fill: #ffffff; stroke: #66c2a4; stroke-linejoin: bevel"/>
     <use xlink:href="#m427480ed98" x="78.999244" y="284.40012" style="fill: #ffffff; stroke: #66c2a4; stroke-linejoin: bevel"/>
     <use xlink:href="#m427480ed98" x="78.999244" y="299.890896" style="fill: #ffffff; stroke: #66c2a4; stroke-linejoin: bevel"/>
     <use xlink:href="#m427480ed98" x="80.265665" y="340.729344" style="fill: #ffffff; stroke: #66c2a4; stroke-linejoin: bevel"/>
    </g>
   </g>
   <g id="line2d_14">
    <path d="M 76.466413 317.727792 
L 85.675301 312.128738 
L 93.747212 307.374783 
L 102.272499 302.502643 
L 110.778477 297.787187 
L 126.973193 289.188648 
L 141.661191 281.791961 
L 154.764605 275.4927 
L 166.359105 270.139437 
L 181.169255 263.584123 
L 196.693309 257.03136 
L 210.449855 251.479158 
L 225.714111 245.580068 
L 198.19647 256.413343 
L 184.608344 262.105155 
L 171.343979 267.898551 
L 157.900836 274.024783 
L 144.905664 280.206711 
L 132.8387 286.190722 
L 120.726979 292.448014 
L 109.093823 298.709867 
L 97.744046 305.071997 
L 86.568183 311.595938 
L 76.466548 317.727708 
L 76.466548 317.727708 
" clip-path="url(#pbc8008c62e)" style="fill: none; stroke: #000000; stroke-width: 2; stroke-linecap: square"/>
   </g>
   <g id="line2d_15">
    <defs>
     <path id="me310292e49" d="M 0 -3 
L -3 3 
L 3 3 
z
" style="stroke: #2ca25f; stroke-linejoin: miter"/>
    </defs>
    <g clip-path="url(#pbc8008c62e)">
     <use xlink:href="#me310292e49" x="416.288412" y="96.400896" style="fill: #ffffff; stroke: #2ca25f; stroke-linejoin: miter"/>
     <use xlink:href="#me310292e49" x="395.181452" y="100.623912" style="fill: #ffffff; stroke: #2ca25f; stroke-linejoin: miter"/>
     <use xlink:href="#me310292e49" x="390.960066" y="128.79012" style="fill: #ffffff; stroke: #2ca25f; stroke-linejoin: miter"/>
     <use xlink:href="#me310292e49" x="355.500374" y="128.79012" style="fill: #ffffff; stroke: #2ca25f; stroke-linejoin: miter"/>
     <use xlink:href="#me310292e49" x="363.943156" y="137.941584" style="fill: #ffffff; stroke: #2ca25f; stroke-linejoin: miter"/>
     <use xlink:href="#me310292e49" x="365.209577" y="162.587016" style="fill: #ffffff; stroke: #2ca25f; stroke-linejoin: miter"/>
     <use xlink:href="#me310292e49" x="342.414062" y="166.813224" style="fill: #ffffff; stroke: #2ca25f; stroke-linejoin: miter"/>
     <use xlink:href="#me310292e49" x="333.97128" y="190.753224" style="fill: #ffffff; stroke: #2ca25f; stroke-linejoin: miter"/>
     <use xlink:href="#me310292e49" x="325.106354" y="100.623912" style="fill: #ffffff; stroke: #2ca25f; stroke-linejoin: miter"/>
     <use xlink:href="#me310292e49" x="323.4178" y="224.55012" style="fill: #ffffff; stroke: #2ca25f; stroke-linejoin: miter"/>
     <use xlink:href="#me310292e49" x="303.155127" y="192.160896" style="fill: #ffffff; stroke: #2ca25f; stroke-linejoin: miter"/>
     <use xlink:href="#me310292e49" x="302.732983" y="201.31236" style="fill: #ffffff; stroke: #2ca25f; stroke-linejoin: miter"/>
     <use xlink:href="#me310292e49" x="292.179503" y="161.881584" style="fill: #ffffff; stroke: #2ca25f; stroke-linejoin: miter"/>
     <use xlink:href="#me310292e49" x="286.269563" y="260.46012" style="fill: #ffffff; stroke: #2ca25f; stroke-linejoin: miter"/>
     <use xlink:href="#me310292e49" x="282.048167" y="189.34236" style="fill: #ffffff; stroke: #2ca25f; stroke-linejoin: miter"/>
     <use xlink:href="#me310292e49" x="268.961855" y="242.154" style="fill: #ffffff; stroke: #2ca25f; stroke-linejoin: miter"/>
     <use xlink:href="#me310292e49" x="261.785494" y="182.304" style="fill: #ffffff; stroke: #2ca25f; stroke-linejoin: miter"/>
     <use xlink:href="#me310292e49" x="254.186989" y="223.142448" style="fill: #ffffff; stroke: #2ca25f; stroke-linejoin: miter"/>
     <use xlink:href="#me310292e49" x="236.457138" y="239.335464" style="fill: #ffffff; stroke: #2ca25f; stroke-linejoin: miter"/>
     <use xlink:href="#me310292e49" x="228.858633" y="216.100896" style="fill: #ffffff; stroke: #2ca25f; stroke-linejoin: miter"/>
     <use xlink:href="#me310292e49" x="215.772321" y="254.124" style="fill: #ffffff; stroke: #2ca25f; stroke-linejoin: miter"/>
     <use xlink:href="#me310292e49" x="213.661633" y="223.844688" style="fill: #ffffff; stroke: #2ca25f; stroke-linejoin: miter"/>
     <use xlink:href="#me310292e49" x="213.23949" y="203.425464" style="fill: #ffffff; stroke: #2ca25f; stroke-linejoin: miter"/>
     <use xlink:href="#me310292e49" x="198.04248" y="190.753224" style="fill: #ffffff; stroke: #2ca25f; stroke-linejoin: miter"/>
     <use xlink:href="#me310292e49" x="183.267614" y="238.633224" style="fill: #ffffff; stroke: #2ca25f; stroke-linejoin: miter"/>
     <use xlink:href="#me310292e49" x="175.246966" y="200.61012" style="fill: #ffffff; stroke: #2ca25f; stroke-linejoin: miter"/>
     <use xlink:href="#me310292e49" x="178.624084" y="276.653136" style="fill: #ffffff; stroke: #2ca25f; stroke-linejoin: miter"/>
     <use xlink:href="#me310292e49" x="174.824832" y="223.142448" style="fill: #ffffff; stroke: #2ca25f; stroke-linejoin: miter"/>
     <use xlink:href="#me310292e49" x="173.136277" y="211.874688" style="fill: #ffffff; stroke: #2ca25f; stroke-linejoin: miter"/>
     <use xlink:href="#me310292e49" x="169.337025" y="310.453224" style="fill: #ffffff; stroke: #2ca25f; stroke-linejoin: miter"/>
     <use xlink:href="#me310292e49" x="168.070604" y="223.142448" style="fill: #ffffff; stroke: #2ca25f; stroke-linejoin: miter"/>
     <use xlink:href="#me310292e49" x="155.82857" y="292.143912" style="fill: #ffffff; stroke: #2ca25f; stroke-linejoin: miter"/>
     <use xlink:href="#me310292e49" x="140.63156" y="248.49012" style="fill: #ffffff; stroke: #2ca25f; stroke-linejoin: miter"/>
     <use xlink:href="#me310292e49" x="140.63156" y="256.233912" style="fill: #ffffff; stroke: #2ca25f; stroke-linejoin: miter"/>
     <use xlink:href="#me310292e49" x="137.254451" y="296.37012" style="fill: #ffffff; stroke: #2ca25f; stroke-linejoin: miter"/>
     <use xlink:href="#me310292e49" x="122.901719" y="322.423224" style="fill: #ffffff; stroke: #2ca25f; stroke-linejoin: miter"/>
     <use xlink:href="#me310292e49" x="121.213164" y="247.784688" style="fill: #ffffff; stroke: #2ca25f; stroke-linejoin: miter"/>
     <use xlink:href="#me310292e49" x="116.991768" y="255.531672" style="fill: #ffffff; stroke: #2ca25f; stroke-linejoin: miter"/>
     <use xlink:href="#me310292e49" x="109.393264" y="285.807792" style="fill: #ffffff; stroke: #2ca25f; stroke-linejoin: miter"/>
     <use xlink:href="#me310292e49" x="108.126843" y="254.124" style="fill: #ffffff; stroke: #2ca25f; stroke-linejoin: miter"/>
     <use xlink:href="#me310292e49" x="105.594011" y="244.263912" style="fill: #ffffff; stroke: #2ca25f; stroke-linejoin: miter"/>
     <use xlink:href="#me310292e49" x="102.216902" y="268.909344" style="fill: #ffffff; stroke: #2ca25f; stroke-linejoin: miter"/>
     <use xlink:href="#me310292e49" x="103.905457" y="290.73624" style="fill: #ffffff; stroke: #2ca25f; stroke-linejoin: miter"/>
     <use xlink:href="#me310292e49" x="103.061179" y="304.819344" style="fill: #ffffff; stroke: #2ca25f; stroke-linejoin: miter"/>
     <use xlink:href="#me310292e49" x="100.528338" y="318.902448" style="fill: #ffffff; stroke: #2ca25f; stroke-linejoin: miter"/>
     <use xlink:href="#me310292e49" x="92.085556" y="330.872448" style="fill: #ffffff; stroke: #2ca25f; stroke-linejoin: miter"/>
     <use xlink:href="#me310292e49" x="87.86417" y="278.76624" style="fill: #ffffff; stroke: #2ca25f; stroke-linejoin: miter"/>
     <use xlink:href="#me310292e49" x="87.86417" y="285.807792" style="fill: #ffffff; stroke: #2ca25f; stroke-linejoin: miter"/>
     <use xlink:href="#me310292e49" x="80.265665" y="287.215464" style="fill: #ffffff; stroke: #2ca25f; stroke-linejoin: miter"/>
    </g>
   </g>
   <g id="line2d_16">
    <path d="M 76.466413 317.727792 
L 84.701913 312.711577 
L 99.554064 304.040018 
L 114.517784 295.758593 
L 128.308798 288.500729 
L 140.708343 282.260788 
L 151.745831 276.919912 
L 165.947307 270.326158 
L 181.00667 263.654436 
L 194.614176 257.89088 
L 209.444712 251.877083 
L 211.386762 251.109323 
L 196.18824 257.239654 
L 182.305133 263.093884 
L 169.083797 268.91017 
L 156.48412 274.686022 
L 144.076273 280.610325 
L 131.629443 286.803903 
L 119.923919 292.872176 
L 108.129757 299.240356 
L 96.856724 305.580363 
L 85.737589 312.091513 
L 76.466539 317.727714 
L 76.466539 317.727714 
" clip-path="url(#pbc8008c62e)" style="fill: none; stroke: #000000; stroke-width: 2; stroke-linecap: square"/>
   </g>
   <g id="line2d_17">
    <defs>
     <path id="md44e76a5ae" d="M 0 3 
C 0.795609 3 1.55874 2.683901 2.12132 2.12132 
C 2.683901 1.55874 3 0.795609 3 0 
C 3 -0.795609 2.683901 -1.55874 2.12132 -2.12132 
C 1.55874 -2.683901 0.795609 -3 0 -3 
C -0.795609 -3 -1.55874 -2.683901 -2.12132 -2.12132 
C -2.683901 -1.55874 -3 -0.795609 -3 0 
C -3 0.795609 -2.683901 1.55874 -2.12132 2.12132 
C -1.55874 2.683901 -0.795609 3 0 3 
z
" style="stroke: #006d2c"/>
    </defs>
    <g clip-path="url(#pbc8008c62e)">
     <use xlink:href="#md44e76a5ae" x="304.843681" y="62.604" style="fill: #ffffff; stroke: #006d2c"/>
     <use xlink:href="#md44e76a5ae" x="296.400899" y="96.400896" style="fill: #ffffff; stroke: #006d2c"/>
     <use xlink:href="#md44e76a5ae" x="332.282726" y="197.791584" style="fill: #ffffff; stroke: #006d2c"/>
     <use xlink:href="#md44e76a5ae" x="322.151389" y="222.437016" style="fill: #ffffff; stroke: #006d2c"/>
     <use xlink:href="#md44e76a5ae" x="310.753632" y="227.365464" style="fill: #ffffff; stroke: #006d2c"/>
     <use xlink:href="#md44e76a5ae" x="307.376513" y="223.142448" style="fill: #ffffff; stroke: #006d2c"/>
     <use xlink:href="#md44e76a5ae" x="310.331488" y="234.407016" style="fill: #ffffff; stroke: #006d2c"/>
     <use xlink:href="#md44e76a5ae" x="304.843681" y="245.671584" style="fill: #ffffff; stroke: #006d2c"/>
     <use xlink:href="#md44e76a5ae" x="286.269563" y="213.28236" style="fill: #ffffff; stroke: #006d2c"/>
     <use xlink:href="#md44e76a5ae" x="258.830519" y="113.299344" style="fill: #ffffff; stroke: #006d2c"/>
     <use xlink:href="#md44e76a5ae" x="267.273301" y="211.172448" style="fill: #ffffff; stroke: #006d2c"/>
     <use xlink:href="#md44e76a5ae" x="259.252652" y="215.395464" style="fill: #ffffff; stroke: #006d2c"/>
     <use xlink:href="#md44e76a5ae" x="250.80987" y="248.49012" style="fill: #ffffff; stroke: #006d2c"/>
     <use xlink:href="#md44e76a5ae" x="250.80987" y="259.052448" style="fill: #ffffff; stroke: #006d2c"/>
     <use xlink:href="#md44e76a5ae" x="227.170079" y="178.077792" style="fill: #ffffff; stroke: #006d2c"/>
     <use xlink:href="#md44e76a5ae" x="217.460886" y="269.611584" style="fill: #ffffff; stroke: #006d2c"/>
     <use xlink:href="#md44e76a5ae" x="215.772321" y="264.683136" style="fill: #ffffff; stroke: #006d2c"/>
     <use xlink:href="#md44e76a5ae" x="195.087505" y="176.67012" style="fill: #ffffff; stroke: #006d2c"/>
     <use xlink:href="#md44e76a5ae" x="192.554673" y="289.328568" style="fill: #ffffff; stroke: #006d2c"/>
     <use xlink:href="#md44e76a5ae" x="178.624084" y="236.52012" style="fill: #ffffff; stroke: #006d2c"/>
     <use xlink:href="#md44e76a5ae" x="175.246966" y="249.897792" style="fill: #ffffff; stroke: #006d2c"/>
     <use xlink:href="#md44e76a5ae" x="164.693485" y="203.425464" style="fill: #ffffff; stroke: #006d2c"/>
     <use xlink:href="#md44e76a5ae" x="157.939268" y="172.443912" style="fill: #ffffff; stroke: #006d2c"/>
     <use xlink:href="#md44e76a5ae" x="163.849208" y="285.10236" style="fill: #ffffff; stroke: #006d2c"/>
     <use xlink:href="#md44e76a5ae" x="158.361401" y="242.85624" style="fill: #ffffff; stroke: #006d2c"/>
     <use xlink:href="#md44e76a5ae" x="152.873595" y="205.538568" style="fill: #ffffff; stroke: #006d2c"/>
     <use xlink:href="#md44e76a5ae" x="150.762897" y="232.293912" style="fill: #ffffff; stroke: #006d2c"/>
     <use xlink:href="#md44e76a5ae" x="148.652199" y="244.969344" style="fill: #ffffff; stroke: #006d2c"/>
     <use xlink:href="#md44e76a5ae" x="153.717872" y="326.64624" style="fill: #ffffff; stroke: #006d2c"/>
     <use xlink:href="#md44e76a5ae" x="141.053704" y="311.155464" style="fill: #ffffff; stroke: #006d2c"/>
     <use xlink:href="#md44e76a5ae" x="128.811669" y="235.112448" style="fill: #ffffff; stroke: #006d2c"/>
     <use xlink:href="#md44e76a5ae" x="125.012417" y="232.999344" style="fill: #ffffff; stroke: #006d2c"/>
     <use xlink:href="#md44e76a5ae" x="127.123105" y="298.483224" style="fill: #ffffff; stroke: #006d2c"/>
     <use xlink:href="#md44e76a5ae" x="124.16813" y="346.363224" style="fill: #ffffff; stroke: #006d2c"/>
     <use xlink:href="#md44e76a5ae" x="118.258189" y="322.423224" style="fill: #ffffff; stroke: #006d2c"/>
     <use xlink:href="#md44e76a5ae" x="107.282566" y="273.837792" style="fill: #ffffff; stroke: #006d2c"/>
     <use xlink:href="#md44e76a5ae" x="103.483313" y="230.184" style="fill: #ffffff; stroke: #006d2c"/>
     <use xlink:href="#md44e76a5ae" x="97.995506" y="239.335464" style="fill: #ffffff; stroke: #006d2c"/>
     <use xlink:href="#md44e76a5ae" x="106.016155" y="323.125464" style="fill: #ffffff; stroke: #006d2c"/>
     <use xlink:href="#md44e76a5ae" x="96.729095" y="250.603224" style="fill: #ffffff; stroke: #006d2c"/>
     <use xlink:href="#md44e76a5ae" x="100.528338" y="316.083912" style="fill: #ffffff; stroke: #006d2c"/>
     <use xlink:href="#md44e76a5ae" x="98.839783" y="324.533136" style="fill: #ffffff; stroke: #006d2c"/>
     <use xlink:href="#md44e76a5ae" x="95.040531" y="307.634688" style="fill: #ffffff; stroke: #006d2c"/>
     <use xlink:href="#md44e76a5ae" x="94.618397" y="318.902448" style="fill: #ffffff; stroke: #006d2c"/>
     <use xlink:href="#md44e76a5ae" x="89.130591" y="278.76624" style="fill: #ffffff; stroke: #006d2c"/>
     <use xlink:href="#md44e76a5ae" x="82.376363" y="221.731584" style="fill: #ffffff; stroke: #006d2c"/>
     <use xlink:href="#md44e76a5ae" x="80.687808" y="267.501672" style="fill: #ffffff; stroke: #006d2c"/>
     <use xlink:href="#md44e76a5ae" x="83.642774" y="316.789344" style="fill: #ffffff; stroke: #006d2c"/>
     <use xlink:href="#md44e76a5ae" x="78.999244" y="279.471672" style="fill: #ffffff; stroke: #006d2c"/>
    </g>
   </g>
   <g id="patch_3">
    <path d="M 59.475313 364.248 
L 59.475313 48.24 
" style="fill: none; stroke: #000000; stroke-width: 0.8; stroke-linejoin: miter; stroke-linecap: square"/>
   </g>
   <g id="patch_4">
    <path d="M 433.279513 364.248 
L 433.279513 48.24 
" style="fill: none; stroke: #000000; stroke-width: 0.8; stroke-linejoin: miter; stroke-linecap: square"/>
   </g>
   <g id="patch_5">
    <path d="M 59.475313 364.248 
L 433.279513 364.248 
" style="fill: none; stroke: #000000; stroke-width: 0.8; stroke-linejoin: miter; stroke-linecap: square"/>
   </g>
   <g id="patch_6">
    <path d="M 59.475313 48.24 
L 433.279513 48.24 
" style="fill: none; stroke: #000000; stroke-width: 0.8; stroke-linejoin: miter; stroke-linecap: square"/>
   </g>
   <g id="legend_1">
    <g id="patch_7">
     <path d="M 66.125313 125.561094 
L 224.751563 125.561094 
Q 226.651563 125.561094 226.651563 123.661094 
L 226.651563 54.89 
Q 226.651563 52.99 224.751563 52.99 
L 66.125313 52.99 
Q 64.225313 52.99 64.225313 54.89 
L 64.225313 123.661094 
Q 64.225313 125.561094 66.125313 125.561094 
z
" style="fill: #ffffff; opacity: 0.8; stroke: #cccccc; stroke-linejoin: miter"/>
    </g>
    <g id="line2d_18">
     <path d="M 68.025312 60.683516 
L 87.025312 60.683516 
" style="fill: none; stroke: #000000; stroke-width: 2; stroke-linecap: square"/>
    </g>
    <g id="line2d_19"/>
    <g id="text_12">
     <!-- sim: 10mg PO -->
     <g transform="translate(94.625313 64.008516) scale(0.095 -0.095)">
      <defs>
       <path id="DejaVuSans-73" d="M 2834 3397 
L 2834 2853 
Q 2591 2978 2328 3040 
Q 2066 3103 1784 3103 
Q 1356 3103 1142 2972 
Q 928 2841 928 2578 
Q 928 2378 1081 2264 
Q 1234 2150 1697 2047 
L 1894 2003 
Q 2506 1872 2764 1633 
Q 3022 1394 3022 966 
Q 3022 478 2636 193 
Q 2250 -91 1575 -91 
Q 1294 -91 989 -36 
Q 684 19 347 128 
L 347 722 
Q 666 556 975 473 
Q 1284 391 1588 391 
Q 1994 391 2212 530 
Q 2431 669 2431 922 
Q 2431 1156 2273 1281 
Q 2116 1406 1581 1522 
L 1381 1569 
Q 847 1681 609 1914 
Q 372 2147 372 2553 
Q 372 3047 722 3315 
Q 1072 3584 1716 3584 
Q 2034 3584 2315 3537 
Q 2597 3491 2834 3397 
z
" transform="scale(0.015625)"/>
       <path id="DejaVuSans-69" d="M 603 3500 
L 1178 3500 
L 1178 0 
L 603 0 
L 603 3500 
z
M 603 4863 
L 1178 4863 
L 1178 4134 
L 603 4134 
L 603 4863 
z
" transform="scale(0.015625)"/>
       <path id="DejaVuSans-6d" d="M 3328 2828 
Q 3544 3216 3844 3400 
Q 4144 3584 4550 3584 
Q 5097 3584 5394 3201 
Q 5691 2819 5691 2113 
L 5691 0 
L 5113 0 
L 5113 2094 
Q 5113 2597 4934 2840 
Q 4756 3084 4391 3084 
Q 3944 3084 3684 2787 
Q 3425 2491 3425 1978 
L 3425 0 
L 2847 0 
L 2847 2094 
Q 2847 2600 2669 2842 
Q 2491 3084 2119 3084 
Q 1678 3084 1418 2786 
Q 1159 2488 1159 1978 
L 1159 0 
L 581 0 
L 581 3500 
L 1159 3500 
L 1159 2956 
Q 1356 3278 1631 3431 
Q 1906 3584 2284 3584 
Q 2666 3584 2933 3390 
Q 3200 3197 3328 2828 
z
" transform="scale(0.015625)"/>
       <path id="DejaVuSans-3a" d="M 750 794 
L 1409 794 
L 1409 0 
L 750 0 
L 750 794 
z
M 750 3309 
L 1409 3309 
L 1409 2516 
L 750 2516 
L 750 3309 
z
" transform="scale(0.015625)"/>
       <path id="DejaVuSans-20" transform="scale(0.015625)"/>
       <path id="DejaVuSans-67" d="M 2906 1791 
Q 2906 2416 2648 2759 
Q 2391 3103 1925 3103 
Q 1463 3103 1205 2759 
Q 947 2416 947 1791 
Q 947 1169 1205 825 
Q 1463 481 1925 481 
Q 2391 481 2648 825 
Q 2906 1169 2906 1791 
z
M 3481 434 
Q 3481 -459 3084 -895 
Q 2688 -1331 1869 -1331 
Q 1566 -1331 1297 -1286 
Q 1028 -1241 775 -1147 
L 775 -588 
Q 1028 -725 1275 -790 
Q 1522 -856 1778 -856 
Q 2344 -856 2625 -561 
Q 2906 -266 2906 331 
L 2906 616 
Q 2728 306 2450 153 
Q 2172 0 1784 0 
Q 1141 0 747 490 
Q 353 981 353 1791 
Q 353 2603 747 3093 
Q 1141 3584 1784 3584 
Q 2172 3584 2450 3431 
Q 2728 3278 2906 2969 
L 2906 3500 
L 3481 3500 
L 3481 434 
z
" transform="scale(0.015625)"/>
       <path id="DejaVuSans-50" d="M 1259 4147 
L 1259 2394 
L 2053 2394 
Q 2494 2394 2734 2622 
Q 2975 2850 2975 3272 
Q 2975 3691 2734 3919 
Q 2494 4147 2053 4147 
L 1259 4147 
z
M 628 4666 
L 2053 4666 
Q 2838 4666 3239 4311 
Q 3641 3956 3641 3272 
Q 3641 2581 3239 2228 
Q 2838 1875 2053 1875 
L 1259 1875 
L 1259 0 
L 628 0 
L 628 4666 
z
" transform="scale(0.015625)"/>
       <path id="DejaVuSans-4f" d="M 2522 4238 
Q 1834 4238 1429 3725 
Q 1025 3213 1025 2328 
Q 1025 1447 1429 934 
Q 1834 422 2522 422 
Q 3209 422 3611 934 
Q 4013 1447 4013 2328 
Q 4013 3213 3611 3725 
Q 3209 4238 2522 4238 
z
M 2522 4750 
Q 3503 4750 4090 4092 
Q 4678 3434 4678 2328 
Q 4678 1225 4090 567 
Q 3503 -91 2522 -91 
Q 1538 -91 948 565 
Q 359 1222 359 2328 
Q 359 3434 948 4092 
Q 1538 4750 2522 4750 
z
" transform="scale(0.015625)"/>
      </defs>
      <use xlink:href="#DejaVuSans-73"/>
      <use xlink:href="#DejaVuSans-69" transform="translate(52.099609 0)"/>
      <use xlink:href="#DejaVuSans-6d" transform="translate(79.882812 0)"/>
      <use xlink:href="#DejaVuSans-3a" transform="translate(177.294922 0)"/>
      <use xlink:href="#DejaVuSans-20" transform="translate(210.986328 0)"/>
      <use xlink:href="#DejaVuSans-31" transform="translate(242.773438 0)"/>
      <use xlink:href="#DejaVuSans-30" transform="translate(306.396484 0)"/>
      <use xlink:href="#DejaVuSans-6d" transform="translate(370.019531 0)"/>
      <use xlink:href="#DejaVuSans-67" transform="translate(467.431641 0)"/>
      <use xlink:href="#DejaVuSans-20" transform="translate(530.908203 0)"/>
      <use xlink:href="#DejaVuSans-50" transform="translate(562.695312 0)"/>
      <use xlink:href="#DejaVuSans-4f" transform="translate(622.998047 0)"/>
     </g>
    </g>
    <g id="line2d_20"/>
    <g id="line2d_21">
     <g>
      <use xlink:href="#m46372d557e" x="77.525312" y="74.627734" style="fill: #ffffff; stroke: #000000; stroke-linejoin: miter"/>
     </g>
    </g>
    <g id="text_13">
     <!-- exp individ: 10mg PO -->
     <g transform="translate(94.625313 77.952734) scale(0.095 -0.095)">
      <defs>
       <path id="DejaVuSans-65" d="M 3597 1894 
L 3597 1613 
L 953 1613 
Q 991 1019 1311 708 
Q 1631 397 2203 397 
Q 2534 397 2845 478 
Q 3156 559 3463 722 
L 3463 178 
Q 3153 47 2828 -22 
Q 2503 -91 2169 -91 
Q 1331 -91 842 396 
Q 353 884 353 1716 
Q 353 2575 817 3079 
Q 1281 3584 2069 3584 
Q 2775 3584 3186 3129 
Q 3597 2675 3597 1894 
z
M 3022 2063 
Q 3016 2534 2758 2815 
Q 2500 3097 2075 3097 
Q 1594 3097 1305 2825 
Q 1016 2553 972 2059 
L 3022 2063 
z
" transform="scale(0.015625)"/>
       <path id="DejaVuSans-78" d="M 3513 3500 
L 2247 1797 
L 3578 0 
L 2900 0 
L 1881 1375 
L 863 0 
L 184 0 
L 1544 1831 
L 300 3500 
L 978 3500 
L 1906 2253 
L 2834 3500 
L 3513 3500 
z
" transform="scale(0.015625)"/>
       <path id="DejaVuSans-70" d="M 1159 525 
L 1159 -1331 
L 581 -1331 
L 581 3500 
L 1159 3500 
L 1159 2969 
Q 1341 3281 1617 3432 
Q 1894 3584 2278 3584 
Q 2916 3584 3314 3078 
Q 3713 2572 3713 1747 
Q 3713 922 3314 415 
Q 2916 -91 2278 -91 
Q 1894 -91 1617 61 
Q 1341 213 1159 525 
z
M 3116 1747 
Q 3116 2381 2855 2742 
Q 2594 3103 2138 3103 
Q 1681 3103 1420 2742 
Q 1159 2381 1159 1747 
Q 1159 1113 1420 752 
Q 1681 391 2138 391 
Q 2594 391 2855 752 
Q 3116 1113 3116 1747 
z
" transform="scale(0.015625)"/>
       <path id="DejaVuSans-6e" d="M 3513 2113 
L 3513 0 
L 2938 0 
L 2938 2094 
Q 2938 2591 2744 2837 
Q 2550 3084 2163 3084 
Q 1697 3084 1428 2787 
Q 1159 2491 1159 1978 
L 1159 0 
L 581 0 
L 581 3500 
L 1159 3500 
L 1159 2956 
Q 1366 3272 1645 3428 
Q 1925 3584 2291 3584 
Q 2894 3584 3203 3211 
Q 3513 2838 3513 2113 
z
" transform="scale(0.015625)"/>
       <path id="DejaVuSans-64" d="M 2906 2969 
L 2906 4863 
L 3481 4863 
L 3481 0 
L 2906 0 
L 2906 525 
Q 2725 213 2448 61 
Q 2172 -91 1784 -91 
Q 1150 -91 751 415 
Q 353 922 353 1747 
Q 353 2572 751 3078 
Q 1150 3584 1784 3584 
Q 2172 3584 2448 3432 
Q 2725 3281 2906 2969 
z
M 947 1747 
Q 947 1113 1208 752 
Q 1469 391 1925 391 
Q 2381 391 2643 752 
Q 2906 1113 2906 1747 
Q 2906 2381 2643 2742 
Q 2381 3103 1925 3103 
Q 1469 3103 1208 2742 
Q 947 2381 947 1747 
z
" transform="scale(0.015625)"/>
       <path id="DejaVuSans-76" d="M 191 3500 
L 800 3500 
L 1894 563 
L 2988 3500 
L 3597 3500 
L 2284 0 
L 1503 0 
L 191 3500 
z
" transform="scale(0.015625)"/>
      </defs>
      <use xlink:href="#DejaVuSans-65"/>
      <use xlink:href="#DejaVuSans-78" transform="translate(59.773438 0)"/>
      <use xlink:href="#DejaVuSans-70" transform="translate(118.953125 0)"/>
      <use xlink:href="#DejaVuSans-20" transform="translate(182.429688 0)"/>
      <use xlink:href="#DejaVuSans-69" transform="translate(214.216797 0)"/>
      <use xlink:href="#DejaVuSans-6e" transform="translate(242 0)"/>
      <use xlink:href="#DejaVuSans-64" transform="translate(305.378906 0)"/>
      <use xlink:href="#DejaVuSans-69" transform="translate(368.855469 0)"/>
      <use xlink:href="#DejaVuSans-76" transform="translate(396.638672 0)"/>
      <use xlink:href="#DejaVuSans-69" transform="translate(455.818359 0)"/>
      <use xlink:href="#DejaVuSans-64" transform="translate(483.601562 0)"/>
      <use xlink:href="#DejaVuSans-3a" transform="translate(547.078125 0)"/>
      <use xlink:href="#DejaVuSans-20" transform="translate(580.769531 0)"/>
      <use xlink:href="#DejaVuSans-31" transform="translate(612.556641 0)"/>
      <use xlink:href="#DejaVuSans-30" transform="translate(676.179688 0)"/>
      <use xlink:href="#DejaVuSans-6d" transform="translate(739.802734 0)"/>
      <use xlink:href="#DejaVuSans-67" transform="translate(837.214844 0)"/>
      <use xlink:href="#DejaVuSans-20" transform="translate(900.691406 0)"/>
      <use xlink:href="#DejaVuSans-50" transform="translate(932.478516 0)"/>
      <use xlink:href="#DejaVuSans-4f" transform="translate(992.78125 0)"/>
     </g>
    </g>
    <g id="line2d_22"/>
    <g id="line2d_23">
     <g>
      <use xlink:href="#m427480ed98" x="77.525312" y="88.571953" style="fill: #ffffff; stroke: #66c2a4; stroke-linejoin: bevel"/>
     </g>
    </g>
    <g id="text_14">
     <!-- exp individ MiRI: 10mg PO -->
     <g transform="translate(94.625313 91.896953) scale(0.095 -0.095)">
      <defs>
       <path id="DejaVuSans-4d" d="M 628 4666 
L 1569 4666 
L 2759 1491 
L 3956 4666 
L 4897 4666 
L 4897 0 
L 4281 0 
L 4281 4097 
L 3078 897 
L 2444 897 
L 1241 4097 
L 1241 0 
L 628 0 
L 628 4666 
z
" transform="scale(0.015625)"/>
       <path id="DejaVuSans-52" d="M 2841 2188 
Q 3044 2119 3236 1894 
Q 3428 1669 3622 1275 
L 4263 0 
L 3584 0 
L 2988 1197 
Q 2756 1666 2539 1819 
Q 2322 1972 1947 1972 
L 1259 1972 
L 1259 0 
L 628 0 
L 628 4666 
L 2053 4666 
Q 2853 4666 3247 4331 
Q 3641 3997 3641 3322 
Q 3641 2881 3436 2590 
Q 3231 2300 2841 2188 
z
M 1259 4147 
L 1259 2491 
L 2053 2491 
Q 2509 2491 2742 2702 
Q 2975 2913 2975 3322 
Q 2975 3731 2742 3939 
Q 2509 4147 2053 4147 
L 1259 4147 
z
" transform="scale(0.015625)"/>
       <path id="DejaVuSans-49" d="M 628 4666 
L 1259 4666 
L 1259 0 
L 628 0 
L 628 4666 
z
" transform="scale(0.015625)"/>
      </defs>
      <use xlink:href="#DejaVuSans-65"/>
      <use xlink:href="#DejaVuSans-78" transform="translate(59.773438 0)"/>
      <use xlink:href="#DejaVuSans-70" transform="translate(118.953125 0)"/>
      <use xlink:href="#DejaVuSans-20" transform="translate(182.429688 0)"/>
      <use xlink:href="#DejaVuSans-69" transform="translate(214.216797 0)"/>
      <use xlink:href="#DejaVuSans-6e" transform="translate(242 0)"/>
      <use xlink:href="#DejaVuSans-64" transform="translate(305.378906 0)"/>
      <use xlink:href="#DejaVuSans-69" transform="translate(368.855469 0)"/>
      <use xlink:href="#DejaVuSans-76" transform="translate(396.638672 0)"/>
      <use xlink:href="#DejaVuSans-69" transform="translate(455.818359 0)"/>
      <use xlink:href="#DejaVuSans-64" transform="translate(483.601562 0)"/>
      <use xlink:href="#DejaVuSans-20" transform="translate(547.078125 0)"/>
      <use xlink:href="#DejaVuSans-4d" transform="translate(578.865234 0)"/>
      <use xlink:href="#DejaVuSans-69" transform="translate(665.144531 0)"/>
      <use xlink:href="#DejaVuSans-52" transform="translate(692.927734 0)"/>
      <use xlink:href="#DejaVuSans-49" transform="translate(762.410156 0)"/>
      <use xlink:href="#DejaVuSans-3a" transform="translate(791.902344 0)"/>
      <use xlink:href="#DejaVuSans-20" transform="translate(825.59375 0)"/>
      <use xlink:href="#DejaVuSans-31" transform="translate(857.380859 0)"/>
      <use xlink:href="#DejaVuSans-30" transform="translate(921.003906 0)"/>
      <use xlink:href="#DejaVuSans-6d" transform="translate(984.626953 0)"/>
      <use xlink:href="#DejaVuSans-67" transform="translate(1082.039062 0)"/>
      <use xlink:href="#DejaVuSans-20" transform="translate(1145.515625 0)"/>
      <use xlink:href="#DejaVuSans-50" transform="translate(1177.302734 0)"/>
      <use xlink:href="#DejaVuSans-4f" transform="translate(1237.605469 0)"/>
     </g>
    </g>
    <g id="line2d_24"/>
    <g id="line2d_25">
     <g>
      <use xlink:href="#me310292e49" x="77.525312" y="102.516172" style="fill: #ffffff; stroke: #2ca25f; stroke-linejoin: miter"/>
     </g>
    </g>
    <g id="text_15">
     <!-- exp individ MoRI: 10mg PO -->
     <g transform="translate(94.625313 105.841172) scale(0.095 -0.095)">
      <defs>
       <path id="DejaVuSans-6f" d="M 1959 3097 
Q 1497 3097 1228 2736 
Q 959 2375 959 1747 
Q 959 1119 1226 758 
Q 1494 397 1959 397 
Q 2419 397 2687 759 
Q 2956 1122 2956 1747 
Q 2956 2369 2687 2733 
Q 2419 3097 1959 3097 
z
M 1959 3584 
Q 2709 3584 3137 3096 
Q 3566 2609 3566 1747 
Q 3566 888 3137 398 
Q 2709 -91 1959 -91 
Q 1206 -91 779 398 
Q 353 888 353 1747 
Q 353 2609 779 3096 
Q 1206 3584 1959 3584 
z
" transform="scale(0.015625)"/>
      </defs>
      <use xlink:href="#DejaVuSans-65"/>
      <use xlink:href="#DejaVuSans-78" transform="translate(59.773438 0)"/>
      <use xlink:href="#DejaVuSans-70" transform="translate(118.953125 0)"/>
      <use xlink:href="#DejaVuSans-20" transform="translate(182.429688 0)"/>
      <use xlink:href="#DejaVuSans-69" transform="translate(214.216797 0)"/>
      <use xlink:href="#DejaVuSans-6e" transform="translate(242 0)"/>
      <use xlink:href="#DejaVuSans-64" transform="translate(305.378906 0)"/>
      <use xlink:href="#DejaVuSans-69" transform="translate(368.855469 0)"/>
      <use xlink:href="#DejaVuSans-76" transform="translate(396.638672 0)"/>
      <use xlink:href="#DejaVuSans-69" transform="translate(455.818359 0)"/>
      <use xlink:href="#DejaVuSans-64" transform="translate(483.601562 0)"/>
      <use xlink:href="#DejaVuSans-20" transform="translate(547.078125 0)"/>
      <use xlink:href="#DejaVuSans-4d" transform="translate(578.865234 0)"/>
      <use xlink:href="#DejaVuSans-6f" transform="translate(665.144531 0)"/>
      <use xlink:href="#DejaVuSans-52" transform="translate(726.326172 0)"/>
      <use xlink:href="#DejaVuSans-49" transform="translate(795.808594 0)"/>
      <use xlink:href="#DejaVuSans-3a" transform="translate(825.300781 0)"/>
      <use xlink:href="#DejaVuSans-20" transform="translate(858.992188 0)"/>
      <use xlink:href="#DejaVuSans-31" transform="translate(890.779297 0)"/>
      <use xlink:href="#DejaVuSans-30" transform="translate(954.402344 0)"/>
      <use xlink:href="#DejaVuSans-6d" transform="translate(1018.025391 0)"/>
      <use xlink:href="#DejaVuSans-67" transform="translate(1115.4375 0)"/>
      <use xlink:href="#DejaVuSans-20" transform="translate(1178.914062 0)"/>
      <use xlink:href="#DejaVuSans-50" transform="translate(1210.701172 0)"/>
      <use xlink:href="#DejaVuSans-4f" transform="translate(1271.003906 0)"/>
     </g>
    </g>
    <g id="line2d_26"/>
    <g id="line2d_27">
     <g>
      <use xlink:href="#md44e76a5ae" x="77.525312" y="116.460391" style="fill: #ffffff; stroke: #006d2c"/>
     </g>
    </g>
    <g id="text_16">
     <!-- exp individ SRI: 10mg PO -->
     <g transform="translate(94.625313 119.785391) scale(0.095 -0.095)">
      <defs>
       <path id="DejaVuSans-53" d="M 3425 4513 
L 3425 3897 
Q 3066 4069 2747 4153 
Q 2428 4238 2131 4238 
Q 1616 4238 1336 4038 
Q 1056 3838 1056 3469 
Q 1056 3159 1242 3001 
Q 1428 2844 1947 2747 
L 2328 2669 
Q 3034 2534 3370 2195 
Q 3706 1856 3706 1288 
Q 3706 609 3251 259 
Q 2797 -91 1919 -91 
Q 1588 -91 1214 -16 
Q 841 59 441 206 
L 441 856 
Q 825 641 1194 531 
Q 1563 422 1919 422 
Q 2459 422 2753 634 
Q 3047 847 3047 1241 
Q 3047 1584 2836 1778 
Q 2625 1972 2144 2069 
L 1759 2144 
Q 1053 2284 737 2584 
Q 422 2884 422 3419 
Q 422 4038 858 4394 
Q 1294 4750 2059 4750 
Q 2388 4750 2728 4690 
Q 3069 4631 3425 4513 
z
" transform="scale(0.015625)"/>
      </defs>
      <use xlink:href="#DejaVuSans-65"/>
      <use xlink:href="#DejaVuSans-78" transform="translate(59.773438 0)"/>
      <use xlink:href="#DejaVuSans-70" transform="translate(118.953125 0)"/>
      <use xlink:href="#DejaVuSans-20" transform="translate(182.429688 0)"/>
      <use xlink:href="#DejaVuSans-69" transform="translate(214.216797 0)"/>
      <use xlink:href="#DejaVuSans-6e" transform="translate(242 0)"/>
      <use xlink:href="#DejaVuSans-64" transform="translate(305.378906 0)"/>
      <use xlink:href="#DejaVuSans-69" transform="translate(368.855469 0)"/>
      <use xlink:href="#DejaVuSans-76" transform="translate(396.638672 0)"/>
      <use xlink:href="#DejaVuSans-69" transform="translate(455.818359 0)"/>
      <use xlink:href="#DejaVuSans-64" transform="translate(483.601562 0)"/>
      <use xlink:href="#DejaVuSans-20" transform="translate(547.078125 0)"/>
      <use xlink:href="#DejaVuSans-53" transform="translate(578.865234 0)"/>
      <use xlink:href="#DejaVuSans-52" transform="translate(642.341797 0)"/>
      <use xlink:href="#DejaVuSans-49" transform="translate(711.824219 0)"/>
      <use xlink:href="#DejaVuSans-3a" transform="translate(741.316406 0)"/>
      <use xlink:href="#DejaVuSans-20" transform="translate(775.007812 0)"/>
      <use xlink:href="#DejaVuSans-31" transform="translate(806.794922 0)"/>
      <use xlink:href="#DejaVuSans-30" transform="translate(870.417969 0)"/>
      <use xlink:href="#DejaVuSans-6d" transform="translate(934.041016 0)"/>
      <use xlink:href="#DejaVuSans-67" transform="translate(1031.453125 0)"/>
      <use xlink:href="#DejaVuSans-20" transform="translate(1094.929688 0)"/>
      <use xlink:href="#DejaVuSans-50" transform="translate(1126.716797 0)"/>
      <use xlink:href="#DejaVuSans-4f" transform="translate(1187.019531 0)"/>
     </g>
    </g>
   </g>
  </g>
  <g id="text_17">
   <!-- Chang2016 -->
   <g transform="translate(161.205734 26.196094) scale(0.25 -0.25)">
    <defs>
     <path id="DejaVuSans-Bold-43" d="M 4288 256 
Q 3956 84 3597 -3 
Q 3238 -91 2847 -91 
Q 1681 -91 1000 561 
Q 319 1213 319 2328 
Q 319 3447 1000 4098 
Q 1681 4750 2847 4750 
Q 3238 4750 3597 4662 
Q 3956 4575 4288 4403 
L 4288 3438 
Q 3953 3666 3628 3772 
Q 3303 3878 2944 3878 
Q 2300 3878 1931 3465 
Q 1563 3053 1563 2328 
Q 1563 1606 1931 1193 
Q 2300 781 2944 781 
Q 3303 781 3628 887 
Q 3953 994 4288 1222 
L 4288 256 
z
" transform="scale(0.015625)"/>
     <path id="DejaVuSans-Bold-68" d="M 4056 2131 
L 4056 0 
L 2931 0 
L 2931 347 
L 2931 1625 
Q 2931 2084 2911 2256 
Q 2891 2428 2841 2509 
Q 2775 2619 2662 2680 
Q 2550 2741 2406 2741 
Q 2056 2741 1856 2470 
Q 1656 2200 1656 1722 
L 1656 0 
L 538 0 
L 538 4863 
L 1656 4863 
L 1656 2988 
Q 1909 3294 2193 3439 
Q 2478 3584 2822 3584 
Q 3428 3584 3742 3212 
Q 4056 2841 4056 2131 
z
" transform="scale(0.015625)"/>
     <path id="DejaVuSans-Bold-67" d="M 2919 594 
Q 2688 288 2409 144 
Q 2131 0 1766 0 
Q 1125 0 706 504 
Q 288 1009 288 1791 
Q 288 2575 706 3076 
Q 1125 3578 1766 3578 
Q 2131 3578 2409 3434 
Q 2688 3291 2919 2981 
L 2919 3500 
L 4044 3500 
L 4044 353 
Q 4044 -491 3511 -936 
Q 2978 -1381 1966 -1381 
Q 1638 -1381 1331 -1331 
Q 1025 -1281 716 -1178 
L 716 -306 
Q 1009 -475 1290 -558 
Q 1572 -641 1856 -641 
Q 2406 -641 2662 -400 
Q 2919 -159 2919 353 
L 2919 594 
z
M 2181 2772 
Q 1834 2772 1640 2515 
Q 1447 2259 1447 1791 
Q 1447 1309 1634 1061 
Q 1822 813 2181 813 
Q 2531 813 2725 1069 
Q 2919 1325 2919 1791 
Q 2919 2259 2725 2515 
Q 2531 2772 2181 2772 
z
" transform="scale(0.015625)"/>
     <path id="DejaVuSans-Bold-32" d="M 1844 884 
L 3897 884 
L 3897 0 
L 506 0 
L 506 884 
L 2209 2388 
Q 2438 2594 2547 2791 
Q 2656 2988 2656 3200 
Q 2656 3528 2436 3728 
Q 2216 3928 1850 3928 
Q 1569 3928 1234 3808 
Q 900 3688 519 3450 
L 519 4475 
Q 925 4609 1322 4679 
Q 1719 4750 2100 4750 
Q 2938 4750 3402 4381 
Q 3866 4013 3866 3353 
Q 3866 2972 3669 2642 
Q 3472 2313 2841 1759 
L 1844 884 
z
" transform="scale(0.015625)"/>
     <path id="DejaVuSans-Bold-30" d="M 2944 2338 
Q 2944 3213 2780 3570 
Q 2616 3928 2228 3928 
Q 1841 3928 1675 3570 
Q 1509 3213 1509 2338 
Q 1509 1453 1675 1090 
Q 1841 728 2228 728 
Q 2613 728 2778 1090 
Q 2944 1453 2944 2338 
z
M 4147 2328 
Q 4147 1169 3647 539 
Q 3147 -91 2228 -91 
Q 1306 -91 806 539 
Q 306 1169 306 2328 
Q 306 3491 806 4120 
Q 1306 4750 2228 4750 
Q 3147 4750 3647 4120 
Q 4147 3491 4147 2328 
z
" transform="scale(0.015625)"/>
     <path id="DejaVuSans-Bold-31" d="M 750 831 
L 1813 831 
L 1813 3847 
L 722 3622 
L 722 4441 
L 1806 4666 
L 2950 4666 
L 2950 831 
L 4013 831 
L 4013 0 
L 750 0 
L 750 831 
z
" transform="scale(0.015625)"/>
     <path id="DejaVuSans-Bold-36" d="M 2316 2303 
Q 2000 2303 1842 2098 
Q 1684 1894 1684 1484 
Q 1684 1075 1842 870 
Q 2000 666 2316 666 
Q 2634 666 2792 870 
Q 2950 1075 2950 1484 
Q 2950 1894 2792 2098 
Q 2634 2303 2316 2303 
z
M 3803 4544 
L 3803 3681 
Q 3506 3822 3243 3889 
Q 2981 3956 2731 3956 
Q 2194 3956 1894 3657 
Q 1594 3359 1544 2772 
Q 1750 2925 1990 3001 
Q 2231 3078 2516 3078 
Q 3231 3078 3670 2659 
Q 4109 2241 4109 1563 
Q 4109 813 3618 361 
Q 3128 -91 2303 -91 
Q 1394 -91 895 523 
Q 397 1138 397 2266 
Q 397 3422 980 4083 
Q 1563 4744 2578 4744 
Q 2900 4744 3203 4694 
Q 3506 4644 3803 4544 
z
" transform="scale(0.015625)"/>
    </defs>
    <use xlink:href="#DejaVuSans-Bold-43"/>
    <use xlink:href="#DejaVuSans-Bold-68" transform="translate(73.388672 0)"/>
    <use xlink:href="#DejaVuSans-Bold-61" transform="translate(144.580078 0)"/>
    <use xlink:href="#DejaVuSans-Bold-6e" transform="translate(212.060547 0)"/>
    <use xlink:href="#DejaVuSans-Bold-67" transform="translate(283.251953 0)"/>
    <use xlink:href="#DejaVuSans-Bold-32" transform="translate(354.833984 0)"/>
    <use xlink:href="#DejaVuSans-Bold-30" transform="translate(424.414062 0)"/>
    <use xlink:href="#DejaVuSans-Bold-31" transform="translate(493.994141 0)"/>
    <use xlink:href="#DejaVuSans-Bold-36" transform="translate(563.574219 0)"/>
   </g>
  </g>
 </g>
 <defs>
  <clipPath id="pbc8008c62e">
   <rect x="59.475313" y="48.24" width="373.8042" height="316.008"/>
  </clipPath>
 </defs>
</svg>
