<?xml version="1.0" encoding="utf-8" standalone="no"?>
<!DOCTYPE svg PUBLIC "-//W3C//DTD SVG 1.1//EN"
  "http://www.w3.org/Graphics/SVG/1.1/DTD/svg11.dtd">
<svg xmlns:xlink="http://www.w3.org/1999/xlink" width="495.47pt" height="370.537812pt" viewBox="0 0 495.47 370.537812" xmlns="http://www.w3.org/2000/svg" version="1.1">
 <metadata>
  <rdf:RDF xmlns:dc="http://purl.org/dc/elements/1.1/" xmlns:cc="http://creativecommons.org/ns#" xmlns:rdf="http://www.w3.org/1999/02/22-rdf-syntax-ns#">
   <cc:Work>
    <dc:type rdf:resource="http://purl.org/dc/dcmitype/StillImage"/>
    <dc:date>2026-03-19T11:56:57.915236</dc:date>
    <dc:format>image/svg+xml</dc:format>
    <dc:creator>
     <cc:Agent>
      <dc:title>Matplotlib v3.10.8, https://matplotlib.org/</dc:title>
     </cc:Agent>
    </dc:creator>
   </cc:Work>
  </rdf:RDF>
 </metadata>
 <defs>
  <style type="text/css">*{stroke-linejoin: round; stroke-linecap: butt}</style>
 </defs>
 <g id="figure_1">
  <g id="patch_1">
   <path d="M 0 370.537812 
L 495.47 370.537812 
L 495.47 0 
L 0 0 
z
" style="fill: #ffffff"/>
  </g>
  <g id="axes_1">
   <g id="patch_2">
    <path d="M 97.67 320.4 
L 488.27 320.4 
L 488.27 43.2 
L 97.67 43.2 
z
" style="fill: #ffffff"/>
   </g>
   <g id="matplotlib.axis_1">
    <g id="xtick_1">
     <g id="line2d_1">
      <defs>
       <path id="m411091f219" d="M 0 0 
L 0 3.5 
" style="stroke: #000000; stroke-width: 0.8"/>
      </defs>
      <g>
       <use xlink:href="#m411091f219" x="115.424545" y="320.4" style="stroke: #000000; stroke-width: 0.8"/>
      </g>
     </g>
     <g id="text_1">
      <!-- 0 -->
      <g transform="translate(110.65267 338.797656) scale(0.15 -0.15)">
       <defs>
        <path id="DejaVuSans-30" d="M 2034 4250 
Q 1547 4250 1301 3770 
Q 1056 3291 1056 2328 
Q 1056 1369 1301 889 
Q 1547 409 2034 409 
Q 2525 409 2770 889 
Q 3016 1369 3016 2328 
Q 3016 3291 2770 3770 
Q 2525 4250 2034 4250 
z
M 2034 4750 
Q 2819 4750 3233 4129 
Q 3647 3509 3647 2328 
Q 3647 1150 3233 529 
Q 2819 -91 2034 -91 
Q 1250 -91 836 529 
Q 422 1150 422 2328 
Q 422 3509 836 4129 
Q 1250 4750 2034 4750 
z
" transform="scale(0.015625)"/>
       </defs>
       <use xlink:href="#DejaVuSans-30"/>
      </g>
     </g>
    </g>
    <g id="xtick_2">
     <g id="line2d_2">
      <g>
       <use xlink:href="#m411091f219" x="186.442727" y="320.4" style="stroke: #000000; stroke-width: 0.8"/>
      </g>
     </g>
     <g id="text_2">
      <!-- 10 -->
      <g transform="translate(176.898977 338.797656) scale(0.15 -0.15)">
       <defs>
        <path id="DejaVuSans-31" d="M 794 531 
L 1825 531 
L 1825 4091 
L 703 3866 
L 703 4441 
L 1819 4666 
L 2450 4666 
L 2450 531 
L 3481 531 
L 3481 0 
L 794 0 
L 794 531 
z
" transform="scale(0.015625)"/>
       </defs>
       <use xlink:href="#DejaVuSans-31"/>
       <use xlink:href="#DejaVuSans-30" transform="translate(63.623047 0)"/>
      </g>
     </g>
    </g>
    <g id="xtick_3">
     <g id="line2d_3">
      <g>
       <use xlink:href="#m411091f219" x="257.460909" y="320.4" style="stroke: #000000; stroke-width: 0.8"/>
      </g>
     </g>
     <g id="text_3">
      <!-- 20 -->
      <g transform="translate(247.917159 338.797656) scale(0.15 -0.15)">
       <defs>
        <path id="DejaVuSans-32" d="M 1228 531 
L 3431 531 
L 3431 0 
L 469 0 
L 469 531 
Q 828 903 1448 1529 
Q 2069 2156 2228 2338 
Q 2531 2678 2651 2914 
Q 2772 3150 2772 3378 
Q 2772 3750 2511 3984 
Q 2250 4219 1831 4219 
Q 1534 4219 1204 4116 
Q 875 4013 500 3803 
L 500 4441 
Q 881 4594 1212 4672 
Q 1544 4750 1819 4750 
Q 2544 4750 2975 4387 
Q 3406 4025 3406 3419 
Q 3406 3131 3298 2873 
Q 3191 2616 2906 2266 
Q 2828 2175 2409 1742 
Q 1991 1309 1228 531 
z
" transform="scale(0.015625)"/>
       </defs>
       <use xlink:href="#DejaVuSans-32"/>
       <use xlink:href="#DejaVuSans-30" transform="translate(63.623047 0)"/>
      </g>
     </g>
    </g>
    <g id="xtick_4">
     <g id="line2d_4">
      <g>
       <use xlink:href="#m411091f219" x="328.479091" y="320.4" style="stroke: #000000; stroke-width: 0.8"/>
      </g>
     </g>
     <g id="text_4">
      <!-- 30 -->
      <g transform="translate(318.935341 338.797656) scale(0.15 -0.15)">
       <defs>
        <path id="DejaVuSans-33" d="M 2597 2516 
Q 3050 2419 3304 2112 
Q 3559 1806 3559 1356 
Q 3559 666 3084 287 
Q 2609 -91 1734 -91 
Q 1441 -91 1130 -33 
Q 819 25 488 141 
L 488 750 
Q 750 597 1062 519 
Q 1375 441 1716 441 
Q 2309 441 2620 675 
Q 2931 909 2931 1356 
Q 2931 1769 2642 2001 
Q 2353 2234 1838 2234 
L 1294 2234 
L 1294 2753 
L 1863 2753 
Q 2328 2753 2575 2939 
Q 2822 3125 2822 3475 
Q 2822 3834 2567 4026 
Q 2313 4219 1838 4219 
Q 1578 4219 1281 4162 
Q 984 4106 628 3988 
L 628 4550 
Q 988 4650 1302 4700 
Q 1616 4750 1894 4750 
Q 2613 4750 3031 4423 
Q 3450 4097 3450 3541 
Q 3450 3153 3228 2886 
Q 3006 2619 2597 2516 
z
" transform="scale(0.015625)"/>
       </defs>
       <use xlink:href="#DejaVuSans-33"/>
       <use xlink:href="#DejaVuSans-30" transform="translate(63.623047 0)"/>
      </g>
     </g>
    </g>
    <g id="xtick_5">
     <g id="line2d_5">
      <g>
       <use xlink:href="#m411091f219" x="399.497273" y="320.4" style="stroke: #000000; stroke-width: 0.8"/>
      </g>
     </g>
     <g id="text_5">
      <!-- 40 -->
      <g transform="translate(389.953523 338.797656) scale(0.15 -0.15)">
       <defs>
        <path id="DejaVuSans-34" d="M 2419 4116 
L 825 1625 
L 2419 1625 
L 2419 4116 
z
M 2253 4666 
L 3047 4666 
L 3047 1625 
L 3713 1625 
L 3713 1100 
L 3047 1100 
L 3047 0 
L 2419 0 
L 2419 1100 
L 313 1100 
L 313 1709 
L 2253 4666 
z
" transform="scale(0.015625)"/>
       </defs>
       <use xlink:href="#DejaVuSans-34"/>
       <use xlink:href="#DejaVuSans-30" transform="translate(63.623047 0)"/>
      </g>
     </g>
    </g>
    <g id="xtick_6">
     <g id="line2d_6">
      <g>
       <use xlink:href="#m411091f219" x="470.515455" y="320.4" style="stroke: #000000; stroke-width: 0.8"/>
      </g>
     </g>
     <g id="text_6">
      <!-- 50 -->
      <g transform="translate(460.971705 338.797656) scale(0.15 -0.15)">
       <defs>
        <path id="DejaVuSans-35" d="M 691 4666 
L 3169 4666 
L 3169 4134 
L 1269 4134 
L 1269 2991 
Q 1406 3038 1543 3061 
Q 1681 3084 1819 3084 
Q 2600 3084 3056 2656 
Q 3513 2228 3513 1497 
Q 3513 744 3044 326 
Q 2575 -91 1722 -91 
Q 1428 -91 1123 -41 
Q 819 9 494 109 
L 494 744 
Q 775 591 1075 516 
Q 1375 441 1709 441 
Q 2250 441 2565 725 
Q 2881 1009 2881 1497 
Q 2881 1984 2565 2268 
Q 2250 2553 1709 2553 
Q 1456 2553 1204 2497 
Q 953 2441 691 2322 
L 691 4666 
z
" transform="scale(0.015625)"/>
       </defs>
       <use xlink:href="#DejaVuSans-35"/>
       <use xlink:href="#DejaVuSans-30" transform="translate(63.623047 0)"/>
      </g>
     </g>
    </g>
    <g id="text_7">
     <!-- time [hr] -->
     <g transform="translate(247.895469 359.594375) scale(0.18 -0.18)">
      <defs>
       <path id="DejaVuSans-Bold-74" d="M 1759 4494 
L 1759 3500 
L 2913 3500 
L 2913 2700 
L 1759 2700 
L 1759 1216 
Q 1759 972 1856 886 
Q 1953 800 2241 800 
L 2816 800 
L 2816 0 
L 1856 0 
Q 1194 0 917 276 
Q 641 553 641 1216 
L 641 2700 
L 84 2700 
L 84 3500 
L 641 3500 
L 641 4494 
L 1759 4494 
z
" transform="scale(0.015625)"/>
       <path id="DejaVuSans-Bold-69" d="M 538 3500 
L 1656 3500 
L 1656 0 
L 538 0 
L 538 3500 
z
M 538 4863 
L 1656 4863 
L 1656 3950 
L 538 3950 
L 538 4863 
z
" transform="scale(0.015625)"/>
       <path id="DejaVuSans-Bold-6d" d="M 3781 2919 
Q 3994 3244 4286 3414 
Q 4578 3584 4928 3584 
Q 5531 3584 5847 3212 
Q 6163 2841 6163 2131 
L 6163 0 
L 5038 0 
L 5038 1825 
Q 5041 1866 5042 1909 
Q 5044 1953 5044 2034 
Q 5044 2406 4934 2573 
Q 4825 2741 4581 2741 
Q 4263 2741 4089 2478 
Q 3916 2216 3909 1719 
L 3909 0 
L 2784 0 
L 2784 1825 
Q 2784 2406 2684 2573 
Q 2584 2741 2328 2741 
Q 2006 2741 1831 2477 
Q 1656 2213 1656 1722 
L 1656 0 
L 531 0 
L 531 3500 
L 1656 3500 
L 1656 2988 
Q 1863 3284 2130 3434 
Q 2397 3584 2719 3584 
Q 3081 3584 3359 3409 
Q 3638 3234 3781 2919 
z
" transform="scale(0.015625)"/>
       <path id="DejaVuSans-Bold-65" d="M 4031 1759 
L 4031 1441 
L 1416 1441 
Q 1456 1047 1700 850 
Q 1944 653 2381 653 
Q 2734 653 3104 758 
Q 3475 863 3866 1075 
L 3866 213 
Q 3469 63 3072 -14 
Q 2675 -91 2278 -91 
Q 1328 -91 801 392 
Q 275 875 275 1747 
Q 275 2603 792 3093 
Q 1309 3584 2216 3584 
Q 3041 3584 3536 3087 
Q 4031 2591 4031 1759 
z
M 2881 2131 
Q 2881 2450 2695 2645 
Q 2509 2841 2209 2841 
Q 1884 2841 1681 2658 
Q 1478 2475 1428 2131 
L 2881 2131 
z
" transform="scale(0.015625)"/>
       <path id="DejaVuSans-Bold-20" transform="scale(0.015625)"/>
       <path id="DejaVuSans-Bold-5b" d="M 550 4863 
L 2491 4863 
L 2491 4159 
L 1613 4159 
L 1613 -141 
L 2491 -141 
L 2491 -844 
L 550 -844 
L 550 4863 
z
" transform="scale(0.015625)"/>
       <path id="DejaVuSans-Bold-68" d="M 4056 2131 
L 4056 0 
L 2931 0 
L 2931 347 
L 2931 1625 
Q 2931 2084 2911 2256 
Q 2891 2428 2841 2509 
Q 2775 2619 2662 2680 
Q 2550 2741 2406 2741 
Q 2056 2741 1856 2470 
Q 1656 2200 1656 1722 
L 1656 0 
L 538 0 
L 538 4863 
L 1656 4863 
L 1656 2988 
Q 1909 3294 2193 3439 
Q 2478 3584 2822 3584 
Q 3428 3584 3742 3212 
Q 4056 2841 4056 2131 
z
" transform="scale(0.015625)"/>
       <path id="DejaVuSans-Bold-72" d="M 3138 2547 
Q 2991 2616 2845 2648 
Q 2700 2681 2553 2681 
Q 2122 2681 1889 2404 
Q 1656 2128 1656 1613 
L 1656 0 
L 538 0 
L 538 3500 
L 1656 3500 
L 1656 2925 
Q 1872 3269 2151 3426 
Q 2431 3584 2822 3584 
Q 2878 3584 2943 3579 
Q 3009 3575 3134 3559 
L 3138 2547 
z
" transform="scale(0.015625)"/>
       <path id="DejaVuSans-Bold-5d" d="M 2375 -844 
L 434 -844 
L 434 -141 
L 1313 -141 
L 1313 4159 
L 434 4159 
L 434 4863 
L 2375 4863 
L 2375 -844 
z
" transform="scale(0.015625)"/>
      </defs>
      <use xlink:href="#DejaVuSans-Bold-74"/>
      <use xlink:href="#DejaVuSans-Bold-69" transform="translate(47.802734 0)"/>
      <use xlink:href="#DejaVuSans-Bold-6d" transform="translate(82.080078 0)"/>
      <use xlink:href="#DejaVuSans-Bold-65" transform="translate(186.279297 0)"/>
      <use xlink:href="#DejaVuSans-Bold-20" transform="translate(254.101562 0)"/>
      <use xlink:href="#DejaVuSans-Bold-5b" transform="translate(288.916016 0)"/>
      <use xlink:href="#DejaVuSans-Bold-68" transform="translate(334.619141 0)"/>
      <use xlink:href="#DejaVuSans-Bold-72" transform="translate(405.810547 0)"/>
      <use xlink:href="#DejaVuSans-Bold-5d" transform="translate(455.126953 0)"/>
     </g>
    </g>
   </g>
   <g id="matplotlib.axis_2">
    <g id="ytick_1">
     <g id="line2d_7">
      <defs>
       <path id="m658d5daf90" d="M 0 0 
L -3.5 0 
" style="stroke: #000000; stroke-width: 0.8"/>
      </defs>
      <g>
       <use xlink:href="#m658d5daf90" x="97.67" y="307.8" style="stroke: #000000; stroke-width: 0.8"/>
      </g>
     </g>
     <g id="text_8">
      <!-- 0.00000 -->
      <g transform="translate(28.640312 313.498828) scale(0.15 -0.15)">
       <defs>
        <path id="DejaVuSans-2e" d="M 684 794 
L 1344 794 
L 1344 0 
L 684 0 
L 684 794 
z
" transform="scale(0.015625)"/>
       </defs>
       <use xlink:href="#DejaVuSans-30"/>
       <use xlink:href="#DejaVuSans-2e" transform="translate(63.623047 0)"/>
       <use xlink:href="#DejaVuSans-30" transform="translate(95.410156 0)"/>
       <use xlink:href="#DejaVuSans-30" transform="translate(159.033203 0)"/>
       <use xlink:href="#DejaVuSans-30" transform="translate(222.65625 0)"/>
       <use xlink:href="#DejaVuSans-30" transform="translate(286.279297 0)"/>
       <use xlink:href="#DejaVuSans-30" transform="translate(349.902344 0)"/>
      </g>
     </g>
    </g>
    <g id="ytick_2">
     <g id="line2d_8">
      <g>
       <use xlink:href="#m658d5daf90" x="97.67" y="275.075779" style="stroke: #000000; stroke-width: 0.8"/>
      </g>
     </g>
     <g id="text_9">
      <!-- 0.00025 -->
      <g transform="translate(28.640312 280.774608) scale(0.15 -0.15)">
       <use xlink:href="#DejaVuSans-30"/>
       <use xlink:href="#DejaVuSans-2e" transform="translate(63.623047 0)"/>
       <use xlink:href="#DejaVuSans-30" transform="translate(95.410156 0)"/>
       <use xlink:href="#DejaVuSans-30" transform="translate(159.033203 0)"/>
       <use xlink:href="#DejaVuSans-30" transform="translate(222.65625 0)"/>
       <use xlink:href="#DejaVuSans-32" transform="translate(286.279297 0)"/>
       <use xlink:href="#DejaVuSans-35" transform="translate(349.902344 0)"/>
      </g>
     </g>
    </g>
    <g id="ytick_3">
     <g id="line2d_9">
      <g>
       <use xlink:href="#m658d5daf90" x="97.67" y="242.351559" style="stroke: #000000; stroke-width: 0.8"/>
      </g>
     </g>
     <g id="text_10">
      <!-- 0.00050 -->
      <g transform="translate(28.640312 248.050387) scale(0.15 -0.15)">
       <use xlink:href="#DejaVuSans-30"/>
       <use xlink:href="#DejaVuSans-2e" transform="translate(63.623047 0)"/>
       <use xlink:href="#DejaVuSans-30" transform="translate(95.410156 0)"/>
       <use xlink:href="#DejaVuSans-30" transform="translate(159.033203 0)"/>
       <use xlink:href="#DejaVuSans-30" transform="translate(222.65625 0)"/>
       <use xlink:href="#DejaVuSans-35" transform="translate(286.279297 0)"/>
       <use xlink:href="#DejaVuSans-30" transform="translate(349.902344 0)"/>
      </g>
     </g>
    </g>
    <g id="ytick_4">
     <g id="line2d_10">
      <g>
       <use xlink:href="#m658d5daf90" x="97.67" y="209.627338" style="stroke: #000000; stroke-width: 0.8"/>
      </g>
     </g>
     <g id="text_11">
      <!-- 0.00075 -->
      <g transform="translate(28.640312 215.326166) scale(0.15 -0.15)">
       <defs>
        <path id="DejaVuSans-37" d="M 525 4666 
L 3525 4666 
L 3525 4397 
L 1831 0 
L 1172 0 
L 2766 4134 
L 525 4134 
L 525 4666 
z
" transform="scale(0.015625)"/>
       </defs>
       <use xlink:href="#DejaVuSans-30"/>
       <use xlink:href="#DejaVuSans-2e" transform="translate(63.623047 0)"/>
       <use xlink:href="#DejaVuSans-30" transform="translate(95.410156 0)"/>
       <use xlink:href="#DejaVuSans-30" transform="translate(159.033203 0)"/>
       <use xlink:href="#DejaVuSans-30" transform="translate(222.65625 0)"/>
       <use xlink:href="#DejaVuSans-37" transform="translate(286.279297 0)"/>
       <use xlink:href="#DejaVuSans-35" transform="translate(349.902344 0)"/>
      </g>
     </g>
    </g>
    <g id="ytick_5">
     <g id="line2d_11">
      <g>
       <use xlink:href="#m658d5daf90" x="97.67" y="176.903118" style="stroke: #000000; stroke-width: 0.8"/>
      </g>
     </g>
     <g id="text_12">
      <!-- 0.00100 -->
      <g transform="translate(28.640312 182.601946) scale(0.15 -0.15)">
       <use xlink:href="#DejaVuSans-30"/>
       <use xlink:href="#DejaVuSans-2e" transform="translate(63.623047 0)"/>
       <use xlink:href="#DejaVuSans-30" transform="translate(95.410156 0)"/>
       <use xlink:href="#DejaVuSans-30" transform="translate(159.033203 0)"/>
       <use xlink:href="#DejaVuSans-31" transform="translate(222.65625 0)"/>
       <use xlink:href="#DejaVuSans-30" transform="translate(286.279297 0)"/>
       <use xlink:href="#DejaVuSans-30" transform="translate(349.902344 0)"/>
      </g>
     </g>
    </g>
    <g id="ytick_6">
     <g id="line2d_12">
      <g>
       <use xlink:href="#m658d5daf90" x="97.67" y="144.178897" style="stroke: #000000; stroke-width: 0.8"/>
      </g>
     </g>
     <g id="text_13">
      <!-- 0.00125 -->
      <g transform="translate(28.640312 149.877725) scale(0.15 -0.15)">
       <use xlink:href="#DejaVuSans-30"/>
       <use xlink:href="#DejaVuSans-2e" transform="translate(63.623047 0)"/>
       <use xlink:href="#DejaVuSans-30" transform="translate(95.410156 0)"/>
       <use xlink:href="#DejaVuSans-30" transform="translate(159.033203 0)"/>
       <use xlink:href="#DejaVuSans-31" transform="translate(222.65625 0)"/>
       <use xlink:href="#DejaVuSans-32" transform="translate(286.279297 0)"/>
       <use xlink:href="#DejaVuSans-35" transform="translate(349.902344 0)"/>
      </g>
     </g>
    </g>
    <g id="ytick_7">
     <g id="line2d_13">
      <g>
       <use xlink:href="#m658d5daf90" x="97.67" y="111.454677" style="stroke: #000000; stroke-width: 0.8"/>
      </g>
     </g>
     <g id="text_14">
      <!-- 0.00150 -->
      <g transform="translate(28.640312 117.153505) scale(0.15 -0.15)">
       <use xlink:href="#DejaVuSans-30"/>
       <use xlink:href="#DejaVuSans-2e" transform="translate(63.623047 0)"/>
       <use xlink:href="#DejaVuSans-30" transform="translate(95.410156 0)"/>
       <use xlink:href="#DejaVuSans-30" transform="translate(159.033203 0)"/>
       <use xlink:href="#DejaVuSans-31" transform="translate(222.65625 0)"/>
       <use xlink:href="#DejaVuSans-35" transform="translate(286.279297 0)"/>
       <use xlink:href="#DejaVuSans-30" transform="translate(349.902344 0)"/>
      </g>
     </g>
    </g>
    <g id="ytick_8">
     <g id="line2d_14">
      <g>
       <use xlink:href="#m658d5daf90" x="97.67" y="78.730456" style="stroke: #000000; stroke-width: 0.8"/>
      </g>
     </g>
     <g id="text_15">
      <!-- 0.00175 -->
      <g transform="translate(28.640312 84.429284) scale(0.15 -0.15)">
       <use xlink:href="#DejaVuSans-30"/>
       <use xlink:href="#DejaVuSans-2e" transform="translate(63.623047 0)"/>
       <use xlink:href="#DejaVuSans-30" transform="translate(95.410156 0)"/>
       <use xlink:href="#DejaVuSans-30" transform="translate(159.033203 0)"/>
       <use xlink:href="#DejaVuSans-31" transform="translate(222.65625 0)"/>
       <use xlink:href="#DejaVuSans-37" transform="translate(286.279297 0)"/>
       <use xlink:href="#DejaVuSans-35" transform="translate(349.902344 0)"/>
      </g>
     </g>
    </g>
    <g id="ytick_9">
     <g id="line2d_15">
      <g>
       <use xlink:href="#m658d5daf90" x="97.67" y="46.006235" style="stroke: #000000; stroke-width: 0.8"/>
      </g>
     </g>
     <g id="text_16">
      <!-- 0.00200 -->
      <g transform="translate(28.640312 51.705064) scale(0.15 -0.15)">
       <use xlink:href="#DejaVuSans-30"/>
       <use xlink:href="#DejaVuSans-2e" transform="translate(63.623047 0)"/>
       <use xlink:href="#DejaVuSans-30" transform="translate(95.410156 0)"/>
       <use xlink:href="#DejaVuSans-30" transform="translate(159.033203 0)"/>
       <use xlink:href="#DejaVuSans-32" transform="translate(222.65625 0)"/>
       <use xlink:href="#DejaVuSans-30" transform="translate(286.279297 0)"/>
       <use xlink:href="#DejaVuSans-30" transform="translate(349.902344 0)"/>
      </g>
     </g>
    </g>
    <g id="text_17">
     <!-- apixaban plasma [µM] -->
     <g transform="translate(20.877187 294.6825) rotate(-90) scale(0.18 -0.18)">
      <defs>
       <path id="DejaVuSans-Bold-61" d="M 2106 1575 
Q 1756 1575 1579 1456 
Q 1403 1338 1403 1106 
Q 1403 894 1545 773 
Q 1688 653 1941 653 
Q 2256 653 2472 879 
Q 2688 1106 2688 1447 
L 2688 1575 
L 2106 1575 
z
M 3816 1997 
L 3816 0 
L 2688 0 
L 2688 519 
Q 2463 200 2181 54 
Q 1900 -91 1497 -91 
Q 953 -91 614 226 
Q 275 544 275 1050 
Q 275 1666 698 1953 
Q 1122 2241 2028 2241 
L 2688 2241 
L 2688 2328 
Q 2688 2594 2478 2717 
Q 2269 2841 1825 2841 
Q 1466 2841 1156 2769 
Q 847 2697 581 2553 
L 581 3406 
Q 941 3494 1303 3539 
Q 1666 3584 2028 3584 
Q 2975 3584 3395 3211 
Q 3816 2838 3816 1997 
z
" transform="scale(0.015625)"/>
       <path id="DejaVuSans-Bold-70" d="M 1656 506 
L 1656 -1331 
L 538 -1331 
L 538 3500 
L 1656 3500 
L 1656 2988 
Q 1888 3294 2169 3439 
Q 2450 3584 2816 3584 
Q 3463 3584 3878 3070 
Q 4294 2556 4294 1747 
Q 4294 938 3878 423 
Q 3463 -91 2816 -91 
Q 2450 -91 2169 54 
Q 1888 200 1656 506 
z
M 2400 2772 
Q 2041 2772 1848 2508 
Q 1656 2244 1656 1747 
Q 1656 1250 1848 986 
Q 2041 722 2400 722 
Q 2759 722 2948 984 
Q 3138 1247 3138 1747 
Q 3138 2247 2948 2509 
Q 2759 2772 2400 2772 
z
" transform="scale(0.015625)"/>
       <path id="DejaVuSans-Bold-78" d="M 1422 1791 
L 159 3500 
L 1344 3500 
L 2059 2463 
L 2784 3500 
L 3969 3500 
L 2706 1797 
L 4031 0 
L 2847 0 
L 2059 1106 
L 1281 0 
L 97 0 
L 1422 1791 
z
" transform="scale(0.015625)"/>
       <path id="DejaVuSans-Bold-62" d="M 2400 722 
Q 2759 722 2948 984 
Q 3138 1247 3138 1747 
Q 3138 2247 2948 2509 
Q 2759 2772 2400 2772 
Q 2041 2772 1848 2508 
Q 1656 2244 1656 1747 
Q 1656 1250 1848 986 
Q 2041 722 2400 722 
z
M 1656 2988 
Q 1888 3294 2169 3439 
Q 2450 3584 2816 3584 
Q 3463 3584 3878 3070 
Q 4294 2556 4294 1747 
Q 4294 938 3878 423 
Q 3463 -91 2816 -91 
Q 2450 -91 2169 54 
Q 1888 200 1656 506 
L 1656 0 
L 538 0 
L 538 4863 
L 1656 4863 
L 1656 2988 
z
" transform="scale(0.015625)"/>
       <path id="DejaVuSans-Bold-6e" d="M 4056 2131 
L 4056 0 
L 2931 0 
L 2931 347 
L 2931 1631 
Q 2931 2084 2911 2256 
Q 2891 2428 2841 2509 
Q 2775 2619 2662 2680 
Q 2550 2741 2406 2741 
Q 2056 2741 1856 2470 
Q 1656 2200 1656 1722 
L 1656 0 
L 538 0 
L 538 3500 
L 1656 3500 
L 1656 2988 
Q 1909 3294 2193 3439 
Q 2478 3584 2822 3584 
Q 3428 3584 3742 3212 
Q 4056 2841 4056 2131 
z
" transform="scale(0.015625)"/>
       <path id="DejaVuSans-Bold-6c" d="M 538 4863 
L 1656 4863 
L 1656 0 
L 538 0 
L 538 4863 
z
" transform="scale(0.015625)"/>
       <path id="DejaVuSans-Bold-73" d="M 3272 3391 
L 3272 2541 
Q 2913 2691 2578 2766 
Q 2244 2841 1947 2841 
Q 1628 2841 1473 2761 
Q 1319 2681 1319 2516 
Q 1319 2381 1436 2309 
Q 1553 2238 1856 2203 
L 2053 2175 
Q 2913 2066 3209 1816 
Q 3506 1566 3506 1031 
Q 3506 472 3093 190 
Q 2681 -91 1863 -91 
Q 1516 -91 1145 -36 
Q 775 19 384 128 
L 384 978 
Q 719 816 1070 734 
Q 1422 653 1784 653 
Q 2113 653 2278 743 
Q 2444 834 2444 1013 
Q 2444 1163 2330 1236 
Q 2216 1309 1875 1350 
L 1678 1375 
Q 931 1469 631 1722 
Q 331 1975 331 2491 
Q 331 3047 712 3315 
Q 1094 3584 1881 3584 
Q 2191 3584 2531 3537 
Q 2872 3491 3272 3391 
z
" transform="scale(0.015625)"/>
       <path id="DejaVuSans-Bold-b5" d="M 544 -1338 
L 544 3500 
L 1672 3500 
L 1672 1466 
Q 1672 1103 1828 926 
Q 1984 750 2303 750 
Q 2625 750 2781 926 
Q 2938 1103 2938 1466 
L 2938 3500 
L 4063 3500 
L 4063 1159 
Q 4063 938 4114 850 
Q 4166 763 4288 763 
Q 4344 763 4395 778 
Q 4447 794 4506 831 
L 4506 50 
Q 4341 -22 4195 -56 
Q 4050 -91 3909 -91 
Q 3631 -91 3454 26 
Q 3278 144 3169 403 
Q 3022 156 2811 32 
Q 2600 -91 2322 -91 
Q 2091 -91 1928 -17 
Q 1766 56 1672 206 
L 1672 -1338 
L 544 -1338 
z
" transform="scale(0.015625)"/>
       <path id="DejaVuSans-Bold-4d" d="M 588 4666 
L 2119 4666 
L 3181 2169 
L 4250 4666 
L 5778 4666 
L 5778 0 
L 4641 0 
L 4641 3413 
L 3566 897 
L 2803 897 
L 1728 3413 
L 1728 0 
L 588 0 
L 588 4666 
z
" transform="scale(0.015625)"/>
      </defs>
      <use xlink:href="#DejaVuSans-Bold-61"/>
      <use xlink:href="#DejaVuSans-Bold-70" transform="translate(67.480469 0)"/>
      <use xlink:href="#DejaVuSans-Bold-69" transform="translate(139.0625 0)"/>
      <use xlink:href="#DejaVuSans-Bold-78" transform="translate(173.339844 0)"/>
      <use xlink:href="#DejaVuSans-Bold-61" transform="translate(237.841797 0)"/>
      <use xlink:href="#DejaVuSans-Bold-62" transform="translate(305.322266 0)"/>
      <use xlink:href="#DejaVuSans-Bold-61" transform="translate(376.904297 0)"/>
      <use xlink:href="#DejaVuSans-Bold-6e" transform="translate(444.384766 0)"/>
      <use xlink:href="#DejaVuSans-Bold-20" transform="translate(515.576172 0)"/>
      <use xlink:href="#DejaVuSans-Bold-70" transform="translate(550.390625 0)"/>
      <use xlink:href="#DejaVuSans-Bold-6c" transform="translate(621.972656 0)"/>
      <use xlink:href="#DejaVuSans-Bold-61" transform="translate(656.25 0)"/>
      <use xlink:href="#DejaVuSans-Bold-73" transform="translate(723.730469 0)"/>
      <use xlink:href="#DejaVuSans-Bold-6d" transform="translate(783.251953 0)"/>
      <use xlink:href="#DejaVuSans-Bold-61" transform="translate(887.451172 0)"/>
      <use xlink:href="#DejaVuSans-Bold-20" transform="translate(954.931641 0)"/>
      <use xlink:href="#DejaVuSans-Bold-5b" transform="translate(989.746094 0)"/>
      <use xlink:href="#DejaVuSans-Bold-b5" transform="translate(1035.449219 0)"/>
      <use xlink:href="#DejaVuSans-Bold-4d" transform="translate(1109.033203 0)"/>
      <use xlink:href="#DejaVuSans-Bold-5d" transform="translate(1208.544922 0)"/>
     </g>
    </g>
   </g>
   <g id="LineCollection_1">
    <path clip-path="url(#p057e5ed512)" style="fill: none; stroke: #1f77b4"/>
    <path d="M 117.2 289.995745 
L 117.2 254.387235 
" clip-path="url(#p057e5ed512)" style="fill: none; stroke: #1f77b4"/>
    <path d="M 118.975455 233.842549 
L 118.975455 187.278013 
" clip-path="url(#p057e5ed512)" style="fill: none; stroke: #1f77b4"/>
    <path d="M 120.750909 190.018444 
L 120.750909 135.232615 
" clip-path="url(#p057e5ed512)" style="fill: none; stroke: #1f77b4"/>
    <path d="M 122.526364 169.473758 
L 122.526364 100.997169 
" clip-path="url(#p057e5ed512)" style="fill: none; stroke: #1f77b4"/>
    <path d="M 126.077273 169.473758 
L 126.077273 103.7376 
" clip-path="url(#p057e5ed512)" style="fill: none; stroke: #1f77b4"/>
    <path d="M 129.628182 181.8 
L 129.628182 105.107816 
" clip-path="url(#p057e5ed512)" style="fill: none; stroke: #1f77b4"/>
    <path d="M 133.179091 172.214189 
L 133.179091 90.041143 
" clip-path="url(#p057e5ed512)" style="fill: none; stroke: #1f77b4"/>
    <path d="M 136.73 190.018444 
L 136.73 118.801424 
" clip-path="url(#p057e5ed512)" style="fill: none; stroke: #1f77b4"/>
    <path d="M 140.280909 199.604255 
L 140.280909 144.824123 
" clip-path="url(#p057e5ed512)" style="fill: none; stroke: #1f77b4"/>
    <path d="M 143.831818 202.344686 
L 143.831818 155.78015 
" clip-path="url(#p057e5ed512)" style="fill: none; stroke: #1f77b4"/>
    <path d="M 150.933636 221.519156 
L 150.933636 172.214189 
" clip-path="url(#p057e5ed512)" style="fill: none; stroke: #1f77b4"/>
    <path d="M 158.035455 236.58298 
L 158.035455 198.234039 
" clip-path="url(#p057e5ed512)" style="fill: none; stroke: #1f77b4"/>
    <path d="M 172.239091 258.495033 
L 172.239091 236.58298 
" clip-path="url(#p057e5ed512)" style="fill: none; stroke: #1f77b4"/>
    <path d="M 186.442727 274.931921 
L 186.442727 258.495033 
" clip-path="url(#p057e5ed512)" style="fill: none; stroke: #1f77b4"/>
    <path d="M 200.646364 285.887947 
L 200.646364 269.451059 
" clip-path="url(#p057e5ed512)" style="fill: none; stroke: #1f77b4"/>
    <path clip-path="url(#p057e5ed512)" style="fill: none; stroke: #1f77b4"/>
   </g>
   <g id="LineCollection_2">
    <path clip-path="url(#p057e5ed512)" style="fill: none; stroke: #00008b"/>
    <path d="M 117.2 287.255314 
L 117.2 254.387235 
" clip-path="url(#p057e5ed512)" style="fill: none; stroke: #00008b"/>
    <path d="M 118.975455 196.866673 
L 118.975455 147.561706 
" clip-path="url(#p057e5ed512)" style="fill: none; stroke: #00008b"/>
    <path d="M 120.750909 162.62553 
L 120.750909 96.889372 
" clip-path="url(#p057e5ed512)" style="fill: none; stroke: #00008b"/>
    <path d="M 122.526364 144.821275 
L 122.526364 87.300712 
" clip-path="url(#p057e5ed512)" style="fill: none; stroke: #00008b"/>
    <path d="M 126.077273 144.821275 
L 126.077273 79.085117 
" clip-path="url(#p057e5ed512)" style="fill: none; stroke: #00008b"/>
    <path d="M 129.628182 140.713477 
L 129.628182 72.236888 
" clip-path="url(#p057e5ed512)" style="fill: none; stroke: #00008b"/>
    <path d="M 133.179091 129.757451 
L 133.179091 55.8 
" clip-path="url(#p057e5ed512)" style="fill: none; stroke: #00008b"/>
    <path d="M 136.73 150.302137 
L 136.73 79.085117 
" clip-path="url(#p057e5ed512)" style="fill: none; stroke: #00008b"/>
    <path d="M 140.280909 162.62553 
L 140.280909 116.060993 
" clip-path="url(#p057e5ed512)" style="fill: none; stroke: #00008b"/>
    <path d="M 143.831818 170.841125 
L 143.831818 132.497882 
" clip-path="url(#p057e5ed512)" style="fill: none; stroke: #00008b"/>
    <path d="M 150.933636 190.015595 
L 150.933636 148.931921 
" clip-path="url(#p057e5ed512)" style="fill: none; stroke: #00008b"/>
    <path d="M 158.035455 211.930497 
L 158.035455 162.62553 
" clip-path="url(#p057e5ed512)" style="fill: none; stroke: #00008b"/>
    <path d="M 172.239091 242.058145 
L 172.239091 214.670928 
" clip-path="url(#p057e5ed512)" style="fill: none; stroke: #00008b"/>
    <path d="M 186.442727 254.387235 
L 186.442727 232.475183 
" clip-path="url(#p057e5ed512)" style="fill: none; stroke: #00008b"/>
    <path d="M 200.646364 272.194339 
L 200.646364 253.01702 
" clip-path="url(#p057e5ed512)" style="fill: none; stroke: #00008b"/>
    <path d="M 285.868182 299.584405 
L 285.868182 285.887947 
" clip-path="url(#p057e5ed512)" style="fill: none; stroke: #00008b"/>
   </g>
   <g id="line2d_16">
    <path d="M 115.424545 307.8 
L 116.134727 305.903104 
L 116.844909 301.223425 
L 121.106 267.036217 
L 122.526364 257.562284 
L 123.946727 249.270344 
L 125.367091 242.069213 
L 126.787455 235.859444 
L 128.207818 230.54566 
L 129.628182 226.039654 
L 131.048545 222.260799 
L 132.468909 219.135688 
L 133.889273 216.597585 
L 135.309636 214.585865 
L 136.73 213.045477 
L 138.150364 211.926453 
L 139.570727 211.183453 
L 140.991091 210.775356 
L 142.411455 210.664882 
L 143.831818 210.818247 
L 145.252182 211.204854 
L 146.672545 211.797004 
L 148.803091 213.016468 
L 150.933636 214.567909 
L 153.064182 216.387231 
L 155.904909 219.135925 
L 159.455818 222.941908 
L 164.427091 228.672504 
L 178.630727 245.31769 
L 183.602 250.753262 
L 188.573273 255.864316 
L 193.544545 260.623619 
L 197.805636 264.416483 
L 202.066727 267.947165 
L 206.327818 271.222796 
L 210.588909 274.253597 
L 215.560182 277.496386 
L 220.531455 280.443633 
L 225.502727 283.117206 
L 230.474 285.538872 
L 235.445273 287.729743 
L 241.126727 289.976722 
L 246.808182 291.97653 
L 252.489636 293.754998 
L 258.881273 295.520449 
L 265.272909 297.065723 
L 272.374727 298.557038 
L 280.186727 299.960327 
L 288.708909 301.250074 
L 297.941273 302.409474 
L 307.883818 303.429936 
L 319.246727 304.362052 
L 332.03 305.17537 
L 346.233636 305.855548 
L 363.278 306.443368 
L 383.873273 306.921889 
L 410.15 307.295897 
L 445.659091 307.561878 
L 470.515455 307.659138 
L 470.515455 307.659138 
" clip-path="url(#p057e5ed512)" style="fill: none; stroke: #1f77b4; stroke-width: 2; stroke-linecap: square"/>
   </g>
   <g id="line2d_17">
    <path d="M 115.424545 307.8 
L 117.2 272.19149 
L 118.975455 210.560281 
L 120.750909 162.62553 
L 122.526364 135.235464 
L 126.077273 136.605679 
L 129.628182 143.453908 
L 133.179091 131.127666 
L 136.73 154.409934 
L 140.280909 172.214189 
L 143.831818 179.062418 
L 150.933636 196.866673 
L 158.035455 217.40851 
L 172.239091 247.539007 
L 186.442727 266.713477 
L 200.646364 277.669503 
L 285.868182 300.951771 
" clip-path="url(#p057e5ed512)" style="fill: none; stroke-dasharray: 3.7,1.6; stroke-dashoffset: 0; stroke: #1f77b4"/>
    <defs>
     <path id="m49d981db32" d="M -3 3 
L 3 3 
L 3 -3 
L -3 -3 
z
" style="stroke: #000000; stroke-linejoin: miter"/>
    </defs>
    <g clip-path="url(#p057e5ed512)">
     <use xlink:href="#m49d981db32" x="115.424545" y="307.8" style="fill: #1f77b4; stroke: #000000; stroke-linejoin: miter"/>
     <use xlink:href="#m49d981db32" x="117.2" y="272.19149" style="fill: #1f77b4; stroke: #000000; stroke-linejoin: miter"/>
     <use xlink:href="#m49d981db32" x="118.975455" y="210.560281" style="fill: #1f77b4; stroke: #000000; stroke-linejoin: miter"/>
     <use xlink:href="#m49d981db32" x="120.750909" y="162.62553" style="fill: #1f77b4; stroke: #000000; stroke-linejoin: miter"/>
     <use xlink:href="#m49d981db32" x="122.526364" y="135.235464" style="fill: #1f77b4; stroke: #000000; stroke-linejoin: miter"/>
     <use xlink:href="#m49d981db32" x="126.077273" y="136.605679" style="fill: #1f77b4; stroke: #000000; stroke-linejoin: miter"/>
     <use xlink:href="#m49d981db32" x="129.628182" y="143.453908" style="fill: #1f77b4; stroke: #000000; stroke-linejoin: miter"/>
     <use xlink:href="#m49d981db32" x="133.179091" y="131.127666" style="fill: #1f77b4; stroke: #000000; stroke-linejoin: miter"/>
     <use xlink:href="#m49d981db32" x="136.73" y="154.409934" style="fill: #1f77b4; stroke: #000000; stroke-linejoin: miter"/>
     <use xlink:href="#m49d981db32" x="140.280909" y="172.214189" style="fill: #1f77b4; stroke: #000000; stroke-linejoin: miter"/>
     <use xlink:href="#m49d981db32" x="143.831818" y="179.062418" style="fill: #1f77b4; stroke: #000000; stroke-linejoin: miter"/>
     <use xlink:href="#m49d981db32" x="150.933636" y="196.866673" style="fill: #1f77b4; stroke: #000000; stroke-linejoin: miter"/>
     <use xlink:href="#m49d981db32" x="158.035455" y="217.40851" style="fill: #1f77b4; stroke: #000000; stroke-linejoin: miter"/>
     <use xlink:href="#m49d981db32" x="172.239091" y="247.539007" style="fill: #1f77b4; stroke: #000000; stroke-linejoin: miter"/>
     <use xlink:href="#m49d981db32" x="186.442727" y="266.713477" style="fill: #1f77b4; stroke: #000000; stroke-linejoin: miter"/>
     <use xlink:href="#m49d981db32" x="200.646364" y="277.669503" style="fill: #1f77b4; stroke: #000000; stroke-linejoin: miter"/>
     <use xlink:href="#m49d981db32" x="285.868182" y="300.951771" style="fill: #1f77b4; stroke: #000000; stroke-linejoin: miter"/>
    </g>
   </g>
   <g id="line2d_18">
    <path d="M 115.424545 307.8 
L 116.134727 305.903104 
L 116.844909 301.223425 
L 121.106 267.036217 
L 122.526364 257.562284 
L 123.946727 249.270344 
L 125.367091 242.069213 
L 126.787455 235.859444 
L 128.207818 230.54566 
L 129.628182 226.039654 
L 131.048545 222.260799 
L 132.468909 219.135688 
L 133.889273 216.597585 
L 135.309636 214.585865 
L 136.73 213.045477 
L 138.150364 211.926453 
L 139.570727 211.183453 
L 140.991091 210.775356 
L 142.411455 210.664882 
L 143.831818 210.818247 
L 145.252182 211.204854 
L 146.672545 211.797004 
L 148.803091 213.016468 
L 150.933636 214.567909 
L 153.064182 216.387231 
L 155.904909 219.135925 
L 159.455818 222.941908 
L 164.427091 228.672504 
L 178.630727 245.31769 
L 183.602 250.753262 
L 188.573273 255.864316 
L 193.544545 260.623619 
L 197.805636 264.416483 
L 202.066727 267.947165 
L 206.327818 271.222796 
L 210.588909 274.253597 
L 215.560182 277.496386 
L 220.531455 280.443633 
L 225.502727 283.117206 
L 230.474 285.538872 
L 235.445273 287.729743 
L 241.126727 289.976722 
L 246.808182 291.97653 
L 252.489636 293.754998 
L 258.881273 295.520449 
L 265.272909 297.065723 
L 272.374727 298.557038 
L 280.186727 299.960327 
L 288.708909 301.250074 
L 297.941273 302.409474 
L 307.883818 303.429936 
L 319.246727 304.362052 
L 332.03 305.17537 
L 346.233636 305.855548 
L 363.278 306.443368 
L 383.873273 306.921889 
L 410.15 307.295897 
L 445.659091 307.561878 
L 470.515455 307.659138 
L 470.515455 307.659138 
" clip-path="url(#p057e5ed512)" style="fill: none; stroke: #00008b; stroke-width: 2; stroke-linecap: square"/>
   </g>
   <g id="line2d_19">
    <path d="M 115.424545 307.8 
L 117.2 270.821275 
L 118.975455 172.214189 
L 120.750909 129.757451 
L 122.526364 116.060993 
L 126.077273 111.953196 
L 129.628182 106.475183 
L 133.179091 92.778725 
L 136.73 114.693627 
L 140.280909 139.343262 
L 143.831818 151.669503 
L 150.933636 169.473758 
L 158.035455 187.278013 
L 172.239091 228.364536 
L 186.442727 243.431209 
L 200.646364 262.605679 
L 285.868182 292.736176 
" clip-path="url(#p057e5ed512)" style="fill: none; stroke-dasharray: 3.7,1.6; stroke-dashoffset: 0; stroke: #00008b"/>
    <defs>
     <path id="m1f4699dce5" d="M -3 3 
L 3 3 
L 3 -3 
L -3 -3 
z
" style="stroke: #000000; stroke-linejoin: miter"/>
    </defs>
    <g clip-path="url(#p057e5ed512)">
     <use xlink:href="#m1f4699dce5" x="115.424545" y="307.8" style="fill: #00008b; stroke: #000000; stroke-linejoin: miter"/>
     <use xlink:href="#m1f4699dce5" x="117.2" y="270.821275" style="fill: #00008b; stroke: #000000; stroke-linejoin: miter"/>
     <use xlink:href="#m1f4699dce5" x="118.975455" y="172.214189" style="fill: #00008b; stroke: #000000; stroke-linejoin: miter"/>
     <use xlink:href="#m1f4699dce5" x="120.750909" y="129.757451" style="fill: #00008b; stroke: #000000; stroke-linejoin: miter"/>
     <use xlink:href="#m1f4699dce5" x="122.526364" y="116.060993" style="fill: #00008b; stroke: #000000; stroke-linejoin: miter"/>
     <use xlink:href="#m1f4699dce5" x="126.077273" y="111.953196" style="fill: #00008b; stroke: #000000; stroke-linejoin: miter"/>
     <use xlink:href="#m1f4699dce5" x="129.628182" y="106.475183" style="fill: #00008b; stroke: #000000; stroke-linejoin: miter"/>
     <use xlink:href="#m1f4699dce5" x="133.179091" y="92.778725" style="fill: #00008b; stroke: #000000; stroke-linejoin: miter"/>
     <use xlink:href="#m1f4699dce5" x="136.73" y="114.693627" style="fill: #00008b; stroke: #000000; stroke-linejoin: miter"/>
     <use xlink:href="#m1f4699dce5" x="140.280909" y="139.343262" style="fill: #00008b; stroke: #000000; stroke-linejoin: miter"/>
     <use xlink:href="#m1f4699dce5" x="143.831818" y="151.669503" style="fill: #00008b; stroke: #000000; stroke-linejoin: miter"/>
     <use xlink:href="#m1f4699dce5" x="150.933636" y="169.473758" style="fill: #00008b; stroke: #000000; stroke-linejoin: miter"/>
     <use xlink:href="#m1f4699dce5" x="158.035455" y="187.278013" style="fill: #00008b; stroke: #000000; stroke-linejoin: miter"/>
     <use xlink:href="#m1f4699dce5" x="172.239091" y="228.364536" style="fill: #00008b; stroke: #000000; stroke-linejoin: miter"/>
     <use xlink:href="#m1f4699dce5" x="186.442727" y="243.431209" style="fill: #00008b; stroke: #000000; stroke-linejoin: miter"/>
     <use xlink:href="#m1f4699dce5" x="200.646364" y="262.605679" style="fill: #00008b; stroke: #000000; stroke-linejoin: miter"/>
     <use xlink:href="#m1f4699dce5" x="285.868182" y="292.736176" style="fill: #00008b; stroke: #000000; stroke-linejoin: miter"/>
    </g>
   </g>
   <g id="patch_3">
    <path d="M 97.67 320.4 
L 97.67 43.2 
" style="fill: none; stroke: #000000; stroke-width: 0.8; stroke-linejoin: miter; stroke-linecap: square"/>
   </g>
   <g id="patch_4">
    <path d="M 488.27 320.4 
L 488.27 43.2 
" style="fill: none; stroke: #000000; stroke-width: 0.8; stroke-linejoin: miter; stroke-linecap: square"/>
   </g>
   <g id="patch_5">
    <path d="M 97.67 320.4 
L 488.27 320.4 
" style="fill: none; stroke: #000000; stroke-width: 0.8; stroke-linejoin: miter; stroke-linecap: square"/>
   </g>
   <g id="patch_6">
    <path d="M 97.67 43.2 
L 488.27 43.2 
" style="fill: none; stroke: #000000; stroke-width: 0.8; stroke-linejoin: miter; stroke-linecap: square"/>
   </g>
   <g id="legend_1">
    <g id="patch_7">
     <path d="M 178.721719 129.92625 
L 479.17 129.92625 
Q 481.77 129.92625 481.77 127.32625 
L 481.77 52.3 
Q 481.77 49.7 479.17 49.7 
L 178.721719 49.7 
Q 176.121719 49.7 176.121719 52.3 
L 176.121719 127.32625 
Q 176.121719 129.92625 178.721719 129.92625 
z
" style="fill: #ffffff; opacity: 0.8; stroke: #cccccc; stroke-linejoin: miter"/>
    </g>
    <g id="line2d_20">
     <path d="M 181.321719 60.227969 
L 207.321719 60.227969 
" style="fill: none; stroke: #1f77b4; stroke-width: 2; stroke-linecap: square"/>
    </g>
    <g id="line2d_21"/>
    <g id="text_18">
     <!-- API25, RIV25, EDO50 -->
     <g transform="translate(217.721719 64.777969) scale(0.13 -0.13)">
      <defs>
       <path id="DejaVuSans-41" d="M 2188 4044 
L 1331 1722 
L 3047 1722 
L 2188 4044 
z
M 1831 4666 
L 2547 4666 
L 4325 0 
L 3669 0 
L 3244 1197 
L 1141 1197 
L 716 0 
L 50 0 
L 1831 4666 
z
" transform="scale(0.015625)"/>
       <path id="DejaVuSans-50" d="M 1259 4147 
L 1259 2394 
L 2053 2394 
Q 2494 2394 2734 2622 
Q 2975 2850 2975 3272 
Q 2975 3691 2734 3919 
Q 2494 4147 2053 4147 
L 1259 4147 
z
M 628 4666 
L 2053 4666 
Q 2838 4666 3239 4311 
Q 3641 3956 3641 3272 
Q 3641 2581 3239 2228 
Q 2838 1875 2053 1875 
L 1259 1875 
L 1259 0 
L 628 0 
L 628 4666 
z
" transform="scale(0.015625)"/>
       <path id="DejaVuSans-49" d="M 628 4666 
L 1259 4666 
L 1259 0 
L 628 0 
L 628 4666 
z
" transform="scale(0.015625)"/>
       <path id="DejaVuSans-2c" d="M 750 794 
L 1409 794 
L 1409 256 
L 897 -744 
L 494 -744 
L 750 256 
L 750 794 
z
" transform="scale(0.015625)"/>
       <path id="DejaVuSans-20" transform="scale(0.015625)"/>
       <path id="DejaVuSans-52" d="M 2841 2188 
Q 3044 2119 3236 1894 
Q 3428 1669 3622 1275 
L 4263 0 
L 3584 0 
L 2988 1197 
Q 2756 1666 2539 1819 
Q 2322 1972 1947 1972 
L 1259 1972 
L 1259 0 
L 628 0 
L 628 4666 
L 2053 4666 
Q 2853 4666 3247 4331 
Q 3641 3997 3641 3322 
Q 3641 2881 3436 2590 
Q 3231 2300 2841 2188 
z
M 1259 4147 
L 1259 2491 
L 2053 2491 
Q 2509 2491 2742 2702 
Q 2975 2913 2975 3322 
Q 2975 3731 2742 3939 
Q 2509 4147 2053 4147 
L 1259 4147 
z
" transform="scale(0.015625)"/>
       <path id="DejaVuSans-56" d="M 1831 0 
L 50 4666 
L 709 4666 
L 2188 738 
L 3669 4666 
L 4325 4666 
L 2547 0 
L 1831 0 
z
" transform="scale(0.015625)"/>
       <path id="DejaVuSans-45" d="M 628 4666 
L 3578 4666 
L 3578 4134 
L 1259 4134 
L 1259 2753 
L 3481 2753 
L 3481 2222 
L 1259 2222 
L 1259 531 
L 3634 531 
L 3634 0 
L 628 0 
L 628 4666 
z
" transform="scale(0.015625)"/>
       <path id="DejaVuSans-44" d="M 1259 4147 
L 1259 519 
L 2022 519 
Q 2988 519 3436 956 
Q 3884 1394 3884 2338 
Q 3884 3275 3436 3711 
Q 2988 4147 2022 4147 
L 1259 4147 
z
M 628 4666 
L 1925 4666 
Q 3281 4666 3915 4102 
Q 4550 3538 4550 2338 
Q 4550 1131 3912 565 
Q 3275 0 1925 0 
L 628 0 
L 628 4666 
z
" transform="scale(0.015625)"/>
       <path id="DejaVuSans-4f" d="M 2522 4238 
Q 1834 4238 1429 3725 
Q 1025 3213 1025 2328 
Q 1025 1447 1429 934 
Q 1834 422 2522 422 
Q 3209 422 3611 934 
Q 4013 1447 4013 2328 
Q 4013 3213 3611 3725 
Q 3209 4238 2522 4238 
z
M 2522 4750 
Q 3503 4750 4090 4092 
Q 4678 3434 4678 2328 
Q 4678 1225 4090 567 
Q 3503 -91 2522 -91 
Q 1538 -91 948 565 
Q 359 1222 359 2328 
Q 359 3434 948 4092 
Q 1538 4750 2522 4750 
z
" transform="scale(0.015625)"/>
      </defs>
      <use xlink:href="#DejaVuSans-41"/>
      <use xlink:href="#DejaVuSans-50" transform="translate(68.408203 0)"/>
      <use xlink:href="#DejaVuSans-49" transform="translate(128.710938 0)"/>
      <use xlink:href="#DejaVuSans-32" transform="translate(158.203125 0)"/>
      <use xlink:href="#DejaVuSans-35" transform="translate(221.826172 0)"/>
      <use xlink:href="#DejaVuSans-2c" transform="translate(285.449219 0)"/>
      <use xlink:href="#DejaVuSans-20" transform="translate(317.236328 0)"/>
      <use xlink:href="#DejaVuSans-52" transform="translate(349.023438 0)"/>
      <use xlink:href="#DejaVuSans-49" transform="translate(418.505859 0)"/>
      <use xlink:href="#DejaVuSans-56" transform="translate(447.998047 0)"/>
      <use xlink:href="#DejaVuSans-32" transform="translate(516.40625 0)"/>
      <use xlink:href="#DejaVuSans-35" transform="translate(580.029297 0)"/>
      <use xlink:href="#DejaVuSans-2c" transform="translate(643.652344 0)"/>
      <use xlink:href="#DejaVuSans-20" transform="translate(675.439453 0)"/>
      <use xlink:href="#DejaVuSans-45" transform="translate(707.226562 0)"/>
      <use xlink:href="#DejaVuSans-44" transform="translate(770.410156 0)"/>
      <use xlink:href="#DejaVuSans-4f" transform="translate(847.412109 0)"/>
      <use xlink:href="#DejaVuSans-35" transform="translate(926.123047 0)"/>
      <use xlink:href="#DejaVuSans-30" transform="translate(989.746094 0)"/>
     </g>
    </g>
    <g id="LineCollection_3">
     <path d="M 194.321719 85.809531 
L 194.321719 72.809531 
" style="fill: none; stroke: #1f77b4"/>
    </g>
    <g id="line2d_22">
     <path d="M 181.321719 79.309531 
L 207.321719 79.309531 
" style="fill: none; stroke-dasharray: 3.7,1.6; stroke-dashoffset: 0; stroke: #1f77b4"/>
    </g>
    <g id="line2d_23">
     <g>
      <use xlink:href="#m49d981db32" x="194.321719" y="79.309531" style="fill: #1f77b4; stroke: #000000; stroke-linejoin: miter"/>
     </g>
    </g>
    <g id="text_19">
     <!-- API25, RIV25, EDO50±SD (n=12) -->
     <g transform="translate(217.721719 83.859531) scale(0.13 -0.13)">
      <defs>
       <path id="DejaVuSans-b1" d="M 2944 4013 
L 2944 2803 
L 4684 2803 
L 4684 2272 
L 2944 2272 
L 2944 1063 
L 2419 1063 
L 2419 2272 
L 678 2272 
L 678 2803 
L 2419 2803 
L 2419 4013 
L 2944 4013 
z
M 678 531 
L 4684 531 
L 4684 0 
L 678 0 
L 678 531 
z
" transform="scale(0.015625)"/>
       <path id="DejaVuSans-53" d="M 3425 4513 
L 3425 3897 
Q 3066 4069 2747 4153 
Q 2428 4238 2131 4238 
Q 1616 4238 1336 4038 
Q 1056 3838 1056 3469 
Q 1056 3159 1242 3001 
Q 1428 2844 1947 2747 
L 2328 2669 
Q 3034 2534 3370 2195 
Q 3706 1856 3706 1288 
Q 3706 609 3251 259 
Q 2797 -91 1919 -91 
Q 1588 -91 1214 -16 
Q 841 59 441 206 
L 441 856 
Q 825 641 1194 531 
Q 1563 422 1919 422 
Q 2459 422 2753 634 
Q 3047 847 3047 1241 
Q 3047 1584 2836 1778 
Q 2625 1972 2144 2069 
L 1759 2144 
Q 1053 2284 737 2584 
Q 422 2884 422 3419 
Q 422 4038 858 4394 
Q 1294 4750 2059 4750 
Q 2388 4750 2728 4690 
Q 3069 4631 3425 4513 
z
" transform="scale(0.015625)"/>
       <path id="DejaVuSans-28" d="M 1984 4856 
Q 1566 4138 1362 3434 
Q 1159 2731 1159 2009 
Q 1159 1288 1364 580 
Q 1569 -128 1984 -844 
L 1484 -844 
Q 1016 -109 783 600 
Q 550 1309 550 2009 
Q 550 2706 781 3412 
Q 1013 4119 1484 4856 
L 1984 4856 
z
" transform="scale(0.015625)"/>
       <path id="DejaVuSans-6e" d="M 3513 2113 
L 3513 0 
L 2938 0 
L 2938 2094 
Q 2938 2591 2744 2837 
Q 2550 3084 2163 3084 
Q 1697 3084 1428 2787 
Q 1159 2491 1159 1978 
L 1159 0 
L 581 0 
L 581 3500 
L 1159 3500 
L 1159 2956 
Q 1366 3272 1645 3428 
Q 1925 3584 2291 3584 
Q 2894 3584 3203 3211 
Q 3513 2838 3513 2113 
z
" transform="scale(0.015625)"/>
       <path id="DejaVuSans-3d" d="M 678 2906 
L 4684 2906 
L 4684 2381 
L 678 2381 
L 678 2906 
z
M 678 1631 
L 4684 1631 
L 4684 1100 
L 678 1100 
L 678 1631 
z
" transform="scale(0.015625)"/>
       <path id="DejaVuSans-29" d="M 513 4856 
L 1013 4856 
Q 1481 4119 1714 3412 
Q 1947 2706 1947 2009 
Q 1947 1309 1714 600 
Q 1481 -109 1013 -844 
L 513 -844 
Q 928 -128 1133 580 
Q 1338 1288 1338 2009 
Q 1338 2731 1133 3434 
Q 928 4138 513 4856 
z
" transform="scale(0.015625)"/>
      </defs>
      <use xlink:href="#DejaVuSans-41"/>
      <use xlink:href="#DejaVuSans-50" transform="translate(68.408203 0)"/>
      <use xlink:href="#DejaVuSans-49" transform="translate(128.710938 0)"/>
      <use xlink:href="#DejaVuSans-32" transform="translate(158.203125 0)"/>
      <use xlink:href="#DejaVuSans-35" transform="translate(221.826172 0)"/>
      <use xlink:href="#DejaVuSans-2c" transform="translate(285.449219 0)"/>
      <use xlink:href="#DejaVuSans-20" transform="translate(317.236328 0)"/>
      <use xlink:href="#DejaVuSans-52" transform="translate(349.023438 0)"/>
      <use xlink:href="#DejaVuSans-49" transform="translate(418.505859 0)"/>
      <use xlink:href="#DejaVuSans-56" transform="translate(447.998047 0)"/>
      <use xlink:href="#DejaVuSans-32" transform="translate(516.40625 0)"/>
      <use xlink:href="#DejaVuSans-35" transform="translate(580.029297 0)"/>
      <use xlink:href="#DejaVuSans-2c" transform="translate(643.652344 0)"/>
      <use xlink:href="#DejaVuSans-20" transform="translate(675.439453 0)"/>
      <use xlink:href="#DejaVuSans-45" transform="translate(707.226562 0)"/>
      <use xlink:href="#DejaVuSans-44" transform="translate(770.410156 0)"/>
      <use xlink:href="#DejaVuSans-4f" transform="translate(847.412109 0)"/>
      <use xlink:href="#DejaVuSans-35" transform="translate(926.123047 0)"/>
      <use xlink:href="#DejaVuSans-30" transform="translate(989.746094 0)"/>
      <use xlink:href="#DejaVuSans-b1" transform="translate(1053.369141 0)"/>
      <use xlink:href="#DejaVuSans-53" transform="translate(1137.158203 0)"/>
      <use xlink:href="#DejaVuSans-44" transform="translate(1200.634766 0)"/>
      <use xlink:href="#DejaVuSans-20" transform="translate(1277.636719 0)"/>
      <use xlink:href="#DejaVuSans-28" transform="translate(1309.423828 0)"/>
      <use xlink:href="#DejaVuSans-6e" transform="translate(1348.4375 0)"/>
      <use xlink:href="#DejaVuSans-3d" transform="translate(1411.816406 0)"/>
      <use xlink:href="#DejaVuSans-31" transform="translate(1495.605469 0)"/>
      <use xlink:href="#DejaVuSans-32" transform="translate(1559.228516 0)"/>
      <use xlink:href="#DejaVuSans-29" transform="translate(1622.851562 0)"/>
     </g>
    </g>
    <g id="line2d_24">
     <path d="M 181.321719 98.391094 
L 207.321719 98.391094 
" style="fill: none; stroke: #00008b; stroke-width: 2; stroke-linecap: square"/>
    </g>
    <g id="line2d_25"/>
    <g id="text_20">
     <!-- API25, RIV25, EDO50, CLAR -->
     <g transform="translate(217.721719 102.941094) scale(0.13 -0.13)">
      <defs>
       <path id="DejaVuSans-43" d="M 4122 4306 
L 4122 3641 
Q 3803 3938 3442 4084 
Q 3081 4231 2675 4231 
Q 1875 4231 1450 3742 
Q 1025 3253 1025 2328 
Q 1025 1406 1450 917 
Q 1875 428 2675 428 
Q 3081 428 3442 575 
Q 3803 722 4122 1019 
L 4122 359 
Q 3791 134 3420 21 
Q 3050 -91 2638 -91 
Q 1578 -91 968 557 
Q 359 1206 359 2328 
Q 359 3453 968 4101 
Q 1578 4750 2638 4750 
Q 3056 4750 3426 4639 
Q 3797 4528 4122 4306 
z
" transform="scale(0.015625)"/>
       <path id="DejaVuSans-4c" d="M 628 4666 
L 1259 4666 
L 1259 531 
L 3531 531 
L 3531 0 
L 628 0 
L 628 4666 
z
" transform="scale(0.015625)"/>
      </defs>
      <use xlink:href="#DejaVuSans-41"/>
      <use xlink:href="#DejaVuSans-50" transform="translate(68.408203 0)"/>
      <use xlink:href="#DejaVuSans-49" transform="translate(128.710938 0)"/>
      <use xlink:href="#DejaVuSans-32" transform="translate(158.203125 0)"/>
      <use xlink:href="#DejaVuSans-35" transform="translate(221.826172 0)"/>
      <use xlink:href="#DejaVuSans-2c" transform="translate(285.449219 0)"/>
      <use xlink:href="#DejaVuSans-20" transform="translate(317.236328 0)"/>
      <use xlink:href="#DejaVuSans-52" transform="translate(349.023438 0)"/>
      <use xlink:href="#DejaVuSans-49" transform="translate(418.505859 0)"/>
      <use xlink:href="#DejaVuSans-56" transform="translate(447.998047 0)"/>
      <use xlink:href="#DejaVuSans-32" transform="translate(516.40625 0)"/>
      <use xlink:href="#DejaVuSans-35" transform="translate(580.029297 0)"/>
      <use xlink:href="#DejaVuSans-2c" transform="translate(643.652344 0)"/>
      <use xlink:href="#DejaVuSans-20" transform="translate(675.439453 0)"/>
      <use xlink:href="#DejaVuSans-45" transform="translate(707.226562 0)"/>
      <use xlink:href="#DejaVuSans-44" transform="translate(770.410156 0)"/>
      <use xlink:href="#DejaVuSans-4f" transform="translate(847.412109 0)"/>
      <use xlink:href="#DejaVuSans-35" transform="translate(926.123047 0)"/>
      <use xlink:href="#DejaVuSans-30" transform="translate(989.746094 0)"/>
      <use xlink:href="#DejaVuSans-2c" transform="translate(1053.369141 0)"/>
      <use xlink:href="#DejaVuSans-20" transform="translate(1085.15625 0)"/>
      <use xlink:href="#DejaVuSans-43" transform="translate(1116.943359 0)"/>
      <use xlink:href="#DejaVuSans-4c" transform="translate(1186.767578 0)"/>
      <use xlink:href="#DejaVuSans-41" transform="translate(1244.730469 0)"/>
      <use xlink:href="#DejaVuSans-52" transform="translate(1313.138672 0)"/>
     </g>
    </g>
    <g id="LineCollection_4">
     <path d="M 194.321719 123.972656 
L 194.321719 110.972656 
" style="fill: none; stroke: #00008b"/>
    </g>
    <g id="line2d_26">
     <path d="M 181.321719 117.472656 
L 207.321719 117.472656 
" style="fill: none; stroke-dasharray: 3.7,1.6; stroke-dashoffset: 0; stroke: #00008b"/>
    </g>
    <g id="line2d_27">
     <g>
      <use xlink:href="#m1f4699dce5" x="194.321719" y="117.472656" style="fill: #00008b; stroke: #000000; stroke-linejoin: miter"/>
     </g>
    </g>
    <g id="text_21">
     <!-- API25, RIV25, EDO50, CLAR±SD (n=12) -->
     <g transform="translate(217.721719 122.022656) scale(0.13 -0.13)">
      <use xlink:href="#DejaVuSans-41"/>
      <use xlink:href="#DejaVuSans-50" transform="translate(68.408203 0)"/>
      <use xlink:href="#DejaVuSans-49" transform="translate(128.710938 0)"/>
      <use xlink:href="#DejaVuSans-32" transform="translate(158.203125 0)"/>
      <use xlink:href="#DejaVuSans-35" transform="translate(221.826172 0)"/>
      <use xlink:href="#DejaVuSans-2c" transform="translate(285.449219 0)"/>
      <use xlink:href="#DejaVuSans-20" transform="translate(317.236328 0)"/>
      <use xlink:href="#DejaVuSans-52" transform="translate(349.023438 0)"/>
      <use xlink:href="#DejaVuSans-49" transform="translate(418.505859 0)"/>
      <use xlink:href="#DejaVuSans-56" transform="translate(447.998047 0)"/>
      <use xlink:href="#DejaVuSans-32" transform="translate(516.40625 0)"/>
      <use xlink:href="#DejaVuSans-35" transform="translate(580.029297 0)"/>
      <use xlink:href="#DejaVuSans-2c" transform="translate(643.652344 0)"/>
      <use xlink:href="#DejaVuSans-20" transform="translate(675.439453 0)"/>
      <use xlink:href="#DejaVuSans-45" transform="translate(707.226562 0)"/>
      <use xlink:href="#DejaVuSans-44" transform="translate(770.410156 0)"/>
      <use xlink:href="#DejaVuSans-4f" transform="translate(847.412109 0)"/>
      <use xlink:href="#DejaVuSans-35" transform="translate(926.123047 0)"/>
      <use xlink:href="#DejaVuSans-30" transform="translate(989.746094 0)"/>
      <use xlink:href="#DejaVuSans-2c" transform="translate(1053.369141 0)"/>
      <use xlink:href="#DejaVuSans-20" transform="translate(1085.15625 0)"/>
      <use xlink:href="#DejaVuSans-43" transform="translate(1116.943359 0)"/>
      <use xlink:href="#DejaVuSans-4c" transform="translate(1186.767578 0)"/>
      <use xlink:href="#DejaVuSans-41" transform="translate(1244.730469 0)"/>
      <use xlink:href="#DejaVuSans-52" transform="translate(1313.138672 0)"/>
      <use xlink:href="#DejaVuSans-b1" transform="translate(1382.621094 0)"/>
      <use xlink:href="#DejaVuSans-53" transform="translate(1466.410156 0)"/>
      <use xlink:href="#DejaVuSans-44" transform="translate(1529.886719 0)"/>
      <use xlink:href="#DejaVuSans-20" transform="translate(1606.888672 0)"/>
      <use xlink:href="#DejaVuSans-28" transform="translate(1638.675781 0)"/>
      <use xlink:href="#DejaVuSans-6e" transform="translate(1677.689453 0)"/>
      <use xlink:href="#DejaVuSans-3d" transform="translate(1741.068359 0)"/>
      <use xlink:href="#DejaVuSans-31" transform="translate(1824.857422 0)"/>
      <use xlink:href="#DejaVuSans-32" transform="translate(1888.480469 0)"/>
      <use xlink:href="#DejaVuSans-29" transform="translate(1952.103516 0)"/>
     </g>
    </g>
   </g>
  </g>
  <g id="text_22">
   <!-- Lenard2024 (healthy) -->
   <g transform="translate(134.095781 26.196094) scale(0.25 -0.25)">
    <defs>
     <path id="DejaVuSans-Bold-4c" d="M 588 4666 
L 1791 4666 
L 1791 909 
L 3903 909 
L 3903 0 
L 588 0 
L 588 4666 
z
" transform="scale(0.015625)"/>
     <path id="DejaVuSans-Bold-64" d="M 2919 2988 
L 2919 4863 
L 4044 4863 
L 4044 0 
L 2919 0 
L 2919 506 
Q 2688 197 2409 53 
Q 2131 -91 1766 -91 
Q 1119 -91 703 423 
Q 288 938 288 1747 
Q 288 2556 703 3070 
Q 1119 3584 1766 3584 
Q 2128 3584 2408 3439 
Q 2688 3294 2919 2988 
z
M 2181 722 
Q 2541 722 2730 984 
Q 2919 1247 2919 1747 
Q 2919 2247 2730 2509 
Q 2541 2772 2181 2772 
Q 1825 2772 1636 2509 
Q 1447 2247 1447 1747 
Q 1447 1247 1636 984 
Q 1825 722 2181 722 
z
" transform="scale(0.015625)"/>
     <path id="DejaVuSans-Bold-32" d="M 1844 884 
L 3897 884 
L 3897 0 
L 506 0 
L 506 884 
L 2209 2388 
Q 2438 2594 2547 2791 
Q 2656 2988 2656 3200 
Q 2656 3528 2436 3728 
Q 2216 3928 1850 3928 
Q 1569 3928 1234 3808 
Q 900 3688 519 3450 
L 519 4475 
Q 925 4609 1322 4679 
Q 1719 4750 2100 4750 
Q 2938 4750 3402 4381 
Q 3866 4013 3866 3353 
Q 3866 2972 3669 2642 
Q 3472 2313 2841 1759 
L 1844 884 
z
" transform="scale(0.015625)"/>
     <path id="DejaVuSans-Bold-30" d="M 2944 2338 
Q 2944 3213 2780 3570 
Q 2616 3928 2228 3928 
Q 1841 3928 1675 3570 
Q 1509 3213 1509 2338 
Q 1509 1453 1675 1090 
Q 1841 728 2228 728 
Q 2613 728 2778 1090 
Q 2944 1453 2944 2338 
z
M 4147 2328 
Q 4147 1169 3647 539 
Q 3147 -91 2228 -91 
Q 1306 -91 806 539 
Q 306 1169 306 2328 
Q 306 3491 806 4120 
Q 1306 4750 2228 4750 
Q 3147 4750 3647 4120 
Q 4147 3491 4147 2328 
z
" transform="scale(0.015625)"/>
     <path id="DejaVuSans-Bold-34" d="M 2356 3675 
L 1038 1722 
L 2356 1722 
L 2356 3675 
z
M 2156 4666 
L 3494 4666 
L 3494 1722 
L 4159 1722 
L 4159 850 
L 3494 850 
L 3494 0 
L 2356 0 
L 2356 850 
L 288 850 
L 288 1881 
L 2156 4666 
z
" transform="scale(0.015625)"/>
     <path id="DejaVuSans-Bold-28" d="M 2413 -844 
L 1484 -844 
Q 1006 -72 778 623 
Q 550 1319 550 2003 
Q 550 2688 779 3389 
Q 1009 4091 1484 4856 
L 2413 4856 
Q 2013 4116 1813 3408 
Q 1613 2700 1613 2009 
Q 1613 1319 1811 609 
Q 2009 -100 2413 -844 
z
" transform="scale(0.015625)"/>
     <path id="DejaVuSans-Bold-79" d="M 78 3500 
L 1197 3500 
L 2138 1125 
L 2938 3500 
L 4056 3500 
L 2584 -331 
Q 2363 -916 2067 -1148 
Q 1772 -1381 1288 -1381 
L 641 -1381 
L 641 -647 
L 991 -647 
Q 1275 -647 1404 -556 
Q 1534 -466 1606 -231 
L 1638 -134 
L 78 3500 
z
" transform="scale(0.015625)"/>
     <path id="DejaVuSans-Bold-29" d="M 513 -844 
Q 913 -100 1113 609 
Q 1313 1319 1313 2009 
Q 1313 2700 1113 3408 
Q 913 4116 513 4856 
L 1441 4856 
Q 1916 4091 2145 3389 
Q 2375 2688 2375 2003 
Q 2375 1319 2147 623 
Q 1919 -72 1441 -844 
L 513 -844 
z
" transform="scale(0.015625)"/>
    </defs>
    <use xlink:href="#DejaVuSans-Bold-4c"/>
    <use xlink:href="#DejaVuSans-Bold-65" transform="translate(63.720703 0)"/>
    <use xlink:href="#DejaVuSans-Bold-6e" transform="translate(131.542969 0)"/>
    <use xlink:href="#DejaVuSans-Bold-61" transform="translate(202.734375 0)"/>
    <use xlink:href="#DejaVuSans-Bold-72" transform="translate(270.214844 0)"/>
    <use xlink:href="#DejaVuSans-Bold-64" transform="translate(319.53125 0)"/>
    <use xlink:href="#DejaVuSans-Bold-32" transform="translate(391.113281 0)"/>
    <use xlink:href="#DejaVuSans-Bold-30" transform="translate(460.693359 0)"/>
    <use xlink:href="#DejaVuSans-Bold-32" transform="translate(530.273438 0)"/>
    <use xlink:href="#DejaVuSans-Bold-34" transform="translate(599.853516 0)"/>
    <use xlink:href="#DejaVuSans-Bold-20" transform="translate(669.433594 0)"/>
    <use xlink:href="#DejaVuSans-Bold-28" transform="translate(704.248047 0)"/>
    <use xlink:href="#DejaVuSans-Bold-68" transform="translate(749.951172 0)"/>
    <use xlink:href="#DejaVuSans-Bold-65" transform="translate(821.142578 0)"/>
    <use xlink:href="#DejaVuSans-Bold-61" transform="translate(888.964844 0)"/>
    <use xlink:href="#DejaVuSans-Bold-6c" transform="translate(956.445312 0)"/>
    <use xlink:href="#DejaVuSans-Bold-74" transform="translate(990.722656 0)"/>
    <use xlink:href="#DejaVuSans-Bold-68" transform="translate(1038.525391 0)"/>
    <use xlink:href="#DejaVuSans-Bold-79" transform="translate(1109.716797 0)"/>
    <use xlink:href="#DejaVuSans-Bold-29" transform="translate(1174.902344 0)"/>
   </g>
  </g>
 </g>
 <defs>
  <clipPath id="p057e5ed512">
   <rect x="97.67" y="43.2" width="390.6" height="277.2"/>
  </clipPath>
 </defs>
</svg>
