<?xml version="1.0" encoding="utf-8" standalone="no"?>
<!DOCTYPE svg PUBLIC "-//W3C//DTD SVG 1.1//EN"
  "http://www.w3.org/Graphics/SVG/1.1/DTD/svg11.dtd">
<svg xmlns:xlink="http://www.w3.org/1999/xlink" width="926.015pt" height="414.385812pt" viewBox="0 0 926.015 414.385812" xmlns="http://www.w3.org/2000/svg" version="1.1">
 <metadata>
  <rdf:RDF xmlns:dc="http://purl.org/dc/elements/1.1/" xmlns:cc="http://creativecommons.org/ns#" xmlns:rdf="http://www.w3.org/1999/02/22-rdf-syntax-ns#">
   <cc:Work>
    <dc:type rdf:resource="http://purl.org/dc/dcmitype/StillImage"/>
    <dc:date>2026-03-19T14:41:59.474384</dc:date>
    <dc:format>image/svg+xml</dc:format>
    <dc:creator>
     <cc:Agent>
      <dc:title>Matplotlib v3.10.8, https://matplotlib.org/</dc:title>
     </cc:Agent>
    </dc:creator>
   </cc:Work>
  </rdf:RDF>
 </metadata>
 <defs>
  <style type="text/css">*{stroke-linejoin: round; stroke-linecap: butt}</style>
 </defs>
 <g id="figure_1">
  <g id="patch_1">
   <path d="M 0 414.385812 
L 926.015 414.385812 
L 926.015 -0 
L 0 -0 
z
" style="fill: #ffffff"/>
  </g>
  <g id="axes_1">
   <g id="patch_2">
    <path d="M 59.495 364.248 
L 433.112391 364.248 
L 433.112391 48.24 
L 59.495 48.24 
z
" style="fill: #ffffff"/>
   </g>
   <g id="matplotlib.axis_1">
    <g id="xtick_1">
     <g id="line2d_1">
      <defs>
       <path id="m7b28a1a9c3" d="M 0 0 
L 0 3.5 
" style="stroke: #000000; stroke-width: 0.8"/>
      </defs>
      <g>
       <use xlink:href="#m7b28a1a9c3" x="76.477609" y="364.248" style="stroke: #000000; stroke-width: 0.8"/>
      </g>
     </g>
     <g id="text_1">
      <!-- 0 -->
      <g transform="translate(71.705734 382.645656) scale(0.15 -0.15)">
       <defs>
        <path id="DejaVuSans-30" d="M 2034 4250 
Q 1547 4250 1301 3770 
Q 1056 3291 1056 2328 
Q 1056 1369 1301 889 
Q 1547 409 2034 409 
Q 2525 409 2770 889 
Q 3016 1369 3016 2328 
Q 3016 3291 2770 3770 
Q 2525 4250 2034 4250 
z
M 2034 4750 
Q 2819 4750 3233 4129 
Q 3647 3509 3647 2328 
Q 3647 1150 3233 529 
Q 2819 -91 2034 -91 
Q 1250 -91 836 529 
Q 422 1150 422 2328 
Q 422 3509 836 4129 
Q 1250 4750 2034 4750 
z
" transform="scale(0.015625)"/>
       </defs>
       <use xlink:href="#DejaVuSans-30"/>
      </g>
     </g>
    </g>
    <g id="xtick_2">
     <g id="line2d_2">
      <g>
       <use xlink:href="#m7b28a1a9c3" x="139.376159" y="364.248" style="stroke: #000000; stroke-width: 0.8"/>
      </g>
     </g>
     <g id="text_2">
      <!-- 10 -->
      <g transform="translate(129.832409 382.645656) scale(0.15 -0.15)">
       <defs>
        <path id="DejaVuSans-31" d="M 794 531 
L 1825 531 
L 1825 4091 
L 703 3866 
L 703 4441 
L 1819 4666 
L 2450 4666 
L 2450 531 
L 3481 531 
L 3481 0 
L 794 0 
L 794 531 
z
" transform="scale(0.015625)"/>
       </defs>
       <use xlink:href="#DejaVuSans-31"/>
       <use xlink:href="#DejaVuSans-30" transform="translate(63.623047 0)"/>
      </g>
     </g>
    </g>
    <g id="xtick_3">
     <g id="line2d_3">
      <g>
       <use xlink:href="#m7b28a1a9c3" x="202.27471" y="364.248" style="stroke: #000000; stroke-width: 0.8"/>
      </g>
     </g>
     <g id="text_3">
      <!-- 20 -->
      <g transform="translate(192.73096 382.645656) scale(0.15 -0.15)">
       <defs>
        <path id="DejaVuSans-32" d="M 1228 531 
L 3431 531 
L 3431 0 
L 469 0 
L 469 531 
Q 828 903 1448 1529 
Q 2069 2156 2228 2338 
Q 2531 2678 2651 2914 
Q 2772 3150 2772 3378 
Q 2772 3750 2511 3984 
Q 2250 4219 1831 4219 
Q 1534 4219 1204 4116 
Q 875 4013 500 3803 
L 500 4441 
Q 881 4594 1212 4672 
Q 1544 4750 1819 4750 
Q 2544 4750 2975 4387 
Q 3406 4025 3406 3419 
Q 3406 3131 3298 2873 
Q 3191 2616 2906 2266 
Q 2828 2175 2409 1742 
Q 1991 1309 1228 531 
z
" transform="scale(0.015625)"/>
       </defs>
       <use xlink:href="#DejaVuSans-32"/>
       <use xlink:href="#DejaVuSans-30" transform="translate(63.623047 0)"/>
      </g>
     </g>
    </g>
    <g id="xtick_4">
     <g id="line2d_4">
      <g>
       <use xlink:href="#m7b28a1a9c3" x="265.173261" y="364.248" style="stroke: #000000; stroke-width: 0.8"/>
      </g>
     </g>
     <g id="text_4">
      <!-- 30 -->
      <g transform="translate(255.629511 382.645656) scale(0.15 -0.15)">
       <defs>
        <path id="DejaVuSans-33" d="M 2597 2516 
Q 3050 2419 3304 2112 
Q 3559 1806 3559 1356 
Q 3559 666 3084 287 
Q 2609 -91 1734 -91 
Q 1441 -91 1130 -33 
Q 819 25 488 141 
L 488 750 
Q 750 597 1062 519 
Q 1375 441 1716 441 
Q 2309 441 2620 675 
Q 2931 909 2931 1356 
Q 2931 1769 2642 2001 
Q 2353 2234 1838 2234 
L 1294 2234 
L 1294 2753 
L 1863 2753 
Q 2328 2753 2575 2939 
Q 2822 3125 2822 3475 
Q 2822 3834 2567 4026 
Q 2313 4219 1838 4219 
Q 1578 4219 1281 4162 
Q 984 4106 628 3988 
L 628 4550 
Q 988 4650 1302 4700 
Q 1616 4750 1894 4750 
Q 2613 4750 3031 4423 
Q 3450 4097 3450 3541 
Q 3450 3153 3228 2886 
Q 3006 2619 2597 2516 
z
" transform="scale(0.015625)"/>
       </defs>
       <use xlink:href="#DejaVuSans-33"/>
       <use xlink:href="#DejaVuSans-30" transform="translate(63.623047 0)"/>
      </g>
     </g>
    </g>
    <g id="xtick_5">
     <g id="line2d_5">
      <g>
       <use xlink:href="#m7b28a1a9c3" x="328.071812" y="364.248" style="stroke: #000000; stroke-width: 0.8"/>
      </g>
     </g>
     <g id="text_5">
      <!-- 40 -->
      <g transform="translate(318.528062 382.645656) scale(0.15 -0.15)">
       <defs>
        <path id="DejaVuSans-34" d="M 2419 4116 
L 825 1625 
L 2419 1625 
L 2419 4116 
z
M 2253 4666 
L 3047 4666 
L 3047 1625 
L 3713 1625 
L 3713 1100 
L 3047 1100 
L 3047 0 
L 2419 0 
L 2419 1100 
L 313 1100 
L 313 1709 
L 2253 4666 
z
" transform="scale(0.015625)"/>
       </defs>
       <use xlink:href="#DejaVuSans-34"/>
       <use xlink:href="#DejaVuSans-30" transform="translate(63.623047 0)"/>
      </g>
     </g>
    </g>
    <g id="xtick_6">
     <g id="line2d_6">
      <g>
       <use xlink:href="#m7b28a1a9c3" x="390.970362" y="364.248" style="stroke: #000000; stroke-width: 0.8"/>
      </g>
     </g>
     <g id="text_6">
      <!-- 50 -->
      <g transform="translate(381.426612 382.645656) scale(0.15 -0.15)">
       <defs>
        <path id="DejaVuSans-35" d="M 691 4666 
L 3169 4666 
L 3169 4134 
L 1269 4134 
L 1269 2991 
Q 1406 3038 1543 3061 
Q 1681 3084 1819 3084 
Q 2600 3084 3056 2656 
Q 3513 2228 3513 1497 
Q 3513 744 3044 326 
Q 2575 -91 1722 -91 
Q 1428 -91 1123 -41 
Q 819 9 494 109 
L 494 744 
Q 775 591 1075 516 
Q 1375 441 1709 441 
Q 2250 441 2565 725 
Q 2881 1009 2881 1497 
Q 2881 1984 2565 2268 
Q 2250 2553 1709 2553 
Q 1456 2553 1204 2497 
Q 953 2441 691 2322 
L 691 4666 
z
" transform="scale(0.015625)"/>
       </defs>
       <use xlink:href="#DejaVuSans-35"/>
       <use xlink:href="#DejaVuSans-30" transform="translate(63.623047 0)"/>
      </g>
     </g>
    </g>
    <g id="text_7">
     <!-- time [hr] -->
     <g transform="translate(201.229164 403.442375) scale(0.18 -0.18)">
      <defs>
       <path id="DejaVuSans-Bold-74" d="M 1759 4494 
L 1759 3500 
L 2913 3500 
L 2913 2700 
L 1759 2700 
L 1759 1216 
Q 1759 972 1856 886 
Q 1953 800 2241 800 
L 2816 800 
L 2816 0 
L 1856 0 
Q 1194 0 917 276 
Q 641 553 641 1216 
L 641 2700 
L 84 2700 
L 84 3500 
L 641 3500 
L 641 4494 
L 1759 4494 
z
" transform="scale(0.015625)"/>
       <path id="DejaVuSans-Bold-69" d="M 538 3500 
L 1656 3500 
L 1656 0 
L 538 0 
L 538 3500 
z
M 538 4863 
L 1656 4863 
L 1656 3950 
L 538 3950 
L 538 4863 
z
" transform="scale(0.015625)"/>
       <path id="DejaVuSans-Bold-6d" d="M 3781 2919 
Q 3994 3244 4286 3414 
Q 4578 3584 4928 3584 
Q 5531 3584 5847 3212 
Q 6163 2841 6163 2131 
L 6163 0 
L 5038 0 
L 5038 1825 
Q 5041 1866 5042 1909 
Q 5044 1953 5044 2034 
Q 5044 2406 4934 2573 
Q 4825 2741 4581 2741 
Q 4263 2741 4089 2478 
Q 3916 2216 3909 1719 
L 3909 0 
L 2784 0 
L 2784 1825 
Q 2784 2406 2684 2573 
Q 2584 2741 2328 2741 
Q 2006 2741 1831 2477 
Q 1656 2213 1656 1722 
L 1656 0 
L 531 0 
L 531 3500 
L 1656 3500 
L 1656 2988 
Q 1863 3284 2130 3434 
Q 2397 3584 2719 3584 
Q 3081 3584 3359 3409 
Q 3638 3234 3781 2919 
z
" transform="scale(0.015625)"/>
       <path id="DejaVuSans-Bold-65" d="M 4031 1759 
L 4031 1441 
L 1416 1441 
Q 1456 1047 1700 850 
Q 1944 653 2381 653 
Q 2734 653 3104 758 
Q 3475 863 3866 1075 
L 3866 213 
Q 3469 63 3072 -14 
Q 2675 -91 2278 -91 
Q 1328 -91 801 392 
Q 275 875 275 1747 
Q 275 2603 792 3093 
Q 1309 3584 2216 3584 
Q 3041 3584 3536 3087 
Q 4031 2591 4031 1759 
z
M 2881 2131 
Q 2881 2450 2695 2645 
Q 2509 2841 2209 2841 
Q 1884 2841 1681 2658 
Q 1478 2475 1428 2131 
L 2881 2131 
z
" transform="scale(0.015625)"/>
       <path id="DejaVuSans-Bold-20" transform="scale(0.015625)"/>
       <path id="DejaVuSans-Bold-5b" d="M 550 4863 
L 2491 4863 
L 2491 4159 
L 1613 4159 
L 1613 -141 
L 2491 -141 
L 2491 -844 
L 550 -844 
L 550 4863 
z
" transform="scale(0.015625)"/>
       <path id="DejaVuSans-Bold-68" d="M 4056 2131 
L 4056 0 
L 2931 0 
L 2931 347 
L 2931 1625 
Q 2931 2084 2911 2256 
Q 2891 2428 2841 2509 
Q 2775 2619 2662 2680 
Q 2550 2741 2406 2741 
Q 2056 2741 1856 2470 
Q 1656 2200 1656 1722 
L 1656 0 
L 538 0 
L 538 4863 
L 1656 4863 
L 1656 2988 
Q 1909 3294 2193 3439 
Q 2478 3584 2822 3584 
Q 3428 3584 3742 3212 
Q 4056 2841 4056 2131 
z
" transform="scale(0.015625)"/>
       <path id="DejaVuSans-Bold-72" d="M 3138 2547 
Q 2991 2616 2845 2648 
Q 2700 2681 2553 2681 
Q 2122 2681 1889 2404 
Q 1656 2128 1656 1613 
L 1656 0 
L 538 0 
L 538 3500 
L 1656 3500 
L 1656 2925 
Q 1872 3269 2151 3426 
Q 2431 3584 2822 3584 
Q 2878 3584 2943 3579 
Q 3009 3575 3134 3559 
L 3138 2547 
z
" transform="scale(0.015625)"/>
       <path id="DejaVuSans-Bold-5d" d="M 2375 -844 
L 434 -844 
L 434 -141 
L 1313 -141 
L 1313 4159 
L 434 4159 
L 434 4863 
L 2375 4863 
L 2375 -844 
z
" transform="scale(0.015625)"/>
      </defs>
      <use xlink:href="#DejaVuSans-Bold-74"/>
      <use xlink:href="#DejaVuSans-Bold-69" transform="translate(47.802734 0)"/>
      <use xlink:href="#DejaVuSans-Bold-6d" transform="translate(82.080078 0)"/>
      <use xlink:href="#DejaVuSans-Bold-65" transform="translate(186.279297 0)"/>
      <use xlink:href="#DejaVuSans-Bold-20" transform="translate(254.101562 0)"/>
      <use xlink:href="#DejaVuSans-Bold-5b" transform="translate(288.916016 0)"/>
      <use xlink:href="#DejaVuSans-Bold-68" transform="translate(334.619141 0)"/>
      <use xlink:href="#DejaVuSans-Bold-72" transform="translate(405.810547 0)"/>
      <use xlink:href="#DejaVuSans-Bold-5d" transform="translate(455.126953 0)"/>
     </g>
    </g>
   </g>
   <g id="matplotlib.axis_2">
    <g id="ytick_1">
     <g id="line2d_7">
      <defs>
       <path id="m870c281079" d="M 0 0 
L -3.5 0 
" style="stroke: #000000; stroke-width: 0.8"/>
      </defs>
      <g>
       <use xlink:href="#m870c281079" x="59.495" y="349.884" style="stroke: #000000; stroke-width: 0.8"/>
      </g>
     </g>
     <g id="text_8">
      <!-- 0.0 -->
      <g transform="translate(28.640313 355.582828) scale(0.15 -0.15)">
       <defs>
        <path id="DejaVuSans-2e" d="M 684 794 
L 1344 794 
L 1344 0 
L 684 0 
L 684 794 
z
" transform="scale(0.015625)"/>
       </defs>
       <use xlink:href="#DejaVuSans-30"/>
       <use xlink:href="#DejaVuSans-2e" transform="translate(63.623047 0)"/>
       <use xlink:href="#DejaVuSans-30" transform="translate(95.410156 0)"/>
      </g>
     </g>
    </g>
    <g id="ytick_2">
     <g id="line2d_8">
      <g>
       <use xlink:href="#m870c281079" x="59.495" y="285.873708" style="stroke: #000000; stroke-width: 0.8"/>
      </g>
     </g>
     <g id="text_9">
      <!-- 0.1 -->
      <g transform="translate(28.640313 291.572536) scale(0.15 -0.15)">
       <use xlink:href="#DejaVuSans-30"/>
       <use xlink:href="#DejaVuSans-2e" transform="translate(63.623047 0)"/>
       <use xlink:href="#DejaVuSans-31" transform="translate(95.410156 0)"/>
      </g>
     </g>
    </g>
    <g id="ytick_3">
     <g id="line2d_9">
      <g>
       <use xlink:href="#m870c281079" x="59.495" y="221.863416" style="stroke: #000000; stroke-width: 0.8"/>
      </g>
     </g>
     <g id="text_10">
      <!-- 0.2 -->
      <g transform="translate(28.640313 227.562245) scale(0.15 -0.15)">
       <use xlink:href="#DejaVuSans-30"/>
       <use xlink:href="#DejaVuSans-2e" transform="translate(63.623047 0)"/>
       <use xlink:href="#DejaVuSans-32" transform="translate(95.410156 0)"/>
      </g>
     </g>
    </g>
    <g id="ytick_4">
     <g id="line2d_10">
      <g>
       <use xlink:href="#m870c281079" x="59.495" y="157.853125" style="stroke: #000000; stroke-width: 0.8"/>
      </g>
     </g>
     <g id="text_11">
      <!-- 0.3 -->
      <g transform="translate(28.640313 163.551953) scale(0.15 -0.15)">
       <use xlink:href="#DejaVuSans-30"/>
       <use xlink:href="#DejaVuSans-2e" transform="translate(63.623047 0)"/>
       <use xlink:href="#DejaVuSans-33" transform="translate(95.410156 0)"/>
      </g>
     </g>
    </g>
    <g id="ytick_5">
     <g id="line2d_11">
      <g>
       <use xlink:href="#m870c281079" x="59.495" y="93.842833" style="stroke: #000000; stroke-width: 0.8"/>
      </g>
     </g>
     <g id="text_12">
      <!-- 0.4 -->
      <g transform="translate(28.640313 99.541661) scale(0.15 -0.15)">
       <use xlink:href="#DejaVuSans-30"/>
       <use xlink:href="#DejaVuSans-2e" transform="translate(63.623047 0)"/>
       <use xlink:href="#DejaVuSans-34" transform="translate(95.410156 0)"/>
      </g>
     </g>
    </g>
    <g id="text_13">
     <!-- apixaban plasma [µM] -->
     <g transform="translate(20.877188 319.1265) rotate(-90) scale(0.18 -0.18)">
      <defs>
       <path id="DejaVuSans-Bold-61" d="M 2106 1575 
Q 1756 1575 1579 1456 
Q 1403 1338 1403 1106 
Q 1403 894 1545 773 
Q 1688 653 1941 653 
Q 2256 653 2472 879 
Q 2688 1106 2688 1447 
L 2688 1575 
L 2106 1575 
z
M 3816 1997 
L 3816 0 
L 2688 0 
L 2688 519 
Q 2463 200 2181 54 
Q 1900 -91 1497 -91 
Q 953 -91 614 226 
Q 275 544 275 1050 
Q 275 1666 698 1953 
Q 1122 2241 2028 2241 
L 2688 2241 
L 2688 2328 
Q 2688 2594 2478 2717 
Q 2269 2841 1825 2841 
Q 1466 2841 1156 2769 
Q 847 2697 581 2553 
L 581 3406 
Q 941 3494 1303 3539 
Q 1666 3584 2028 3584 
Q 2975 3584 3395 3211 
Q 3816 2838 3816 1997 
z
" transform="scale(0.015625)"/>
       <path id="DejaVuSans-Bold-70" d="M 1656 506 
L 1656 -1331 
L 538 -1331 
L 538 3500 
L 1656 3500 
L 1656 2988 
Q 1888 3294 2169 3439 
Q 2450 3584 2816 3584 
Q 3463 3584 3878 3070 
Q 4294 2556 4294 1747 
Q 4294 938 3878 423 
Q 3463 -91 2816 -91 
Q 2450 -91 2169 54 
Q 1888 200 1656 506 
z
M 2400 2772 
Q 2041 2772 1848 2508 
Q 1656 2244 1656 1747 
Q 1656 1250 1848 986 
Q 2041 722 2400 722 
Q 2759 722 2948 984 
Q 3138 1247 3138 1747 
Q 3138 2247 2948 2509 
Q 2759 2772 2400 2772 
z
" transform="scale(0.015625)"/>
       <path id="DejaVuSans-Bold-78" d="M 1422 1791 
L 159 3500 
L 1344 3500 
L 2059 2463 
L 2784 3500 
L 3969 3500 
L 2706 1797 
L 4031 0 
L 2847 0 
L 2059 1106 
L 1281 0 
L 97 0 
L 1422 1791 
z
" transform="scale(0.015625)"/>
       <path id="DejaVuSans-Bold-62" d="M 2400 722 
Q 2759 722 2948 984 
Q 3138 1247 3138 1747 
Q 3138 2247 2948 2509 
Q 2759 2772 2400 2772 
Q 2041 2772 1848 2508 
Q 1656 2244 1656 1747 
Q 1656 1250 1848 986 
Q 2041 722 2400 722 
z
M 1656 2988 
Q 1888 3294 2169 3439 
Q 2450 3584 2816 3584 
Q 3463 3584 3878 3070 
Q 4294 2556 4294 1747 
Q 4294 938 3878 423 
Q 3463 -91 2816 -91 
Q 2450 -91 2169 54 
Q 1888 200 1656 506 
L 1656 0 
L 538 0 
L 538 4863 
L 1656 4863 
L 1656 2988 
z
" transform="scale(0.015625)"/>
       <path id="DejaVuSans-Bold-6e" d="M 4056 2131 
L 4056 0 
L 2931 0 
L 2931 347 
L 2931 1631 
Q 2931 2084 2911 2256 
Q 2891 2428 2841 2509 
Q 2775 2619 2662 2680 
Q 2550 2741 2406 2741 
Q 2056 2741 1856 2470 
Q 1656 2200 1656 1722 
L 1656 0 
L 538 0 
L 538 3500 
L 1656 3500 
L 1656 2988 
Q 1909 3294 2193 3439 
Q 2478 3584 2822 3584 
Q 3428 3584 3742 3212 
Q 4056 2841 4056 2131 
z
" transform="scale(0.015625)"/>
       <path id="DejaVuSans-Bold-6c" d="M 538 4863 
L 1656 4863 
L 1656 0 
L 538 0 
L 538 4863 
z
" transform="scale(0.015625)"/>
       <path id="DejaVuSans-Bold-73" d="M 3272 3391 
L 3272 2541 
Q 2913 2691 2578 2766 
Q 2244 2841 1947 2841 
Q 1628 2841 1473 2761 
Q 1319 2681 1319 2516 
Q 1319 2381 1436 2309 
Q 1553 2238 1856 2203 
L 2053 2175 
Q 2913 2066 3209 1816 
Q 3506 1566 3506 1031 
Q 3506 472 3093 190 
Q 2681 -91 1863 -91 
Q 1516 -91 1145 -36 
Q 775 19 384 128 
L 384 978 
Q 719 816 1070 734 
Q 1422 653 1784 653 
Q 2113 653 2278 743 
Q 2444 834 2444 1013 
Q 2444 1163 2330 1236 
Q 2216 1309 1875 1350 
L 1678 1375 
Q 931 1469 631 1722 
Q 331 1975 331 2491 
Q 331 3047 712 3315 
Q 1094 3584 1881 3584 
Q 2191 3584 2531 3537 
Q 2872 3491 3272 3391 
z
" transform="scale(0.015625)"/>
       <path id="DejaVuSans-Bold-b5" d="M 544 -1338 
L 544 3500 
L 1672 3500 
L 1672 1466 
Q 1672 1103 1828 926 
Q 1984 750 2303 750 
Q 2625 750 2781 926 
Q 2938 1103 2938 1466 
L 2938 3500 
L 4063 3500 
L 4063 1159 
Q 4063 938 4114 850 
Q 4166 763 4288 763 
Q 4344 763 4395 778 
Q 4447 794 4506 831 
L 4506 50 
Q 4341 -22 4195 -56 
Q 4050 -91 3909 -91 
Q 3631 -91 3454 26 
Q 3278 144 3169 403 
Q 3022 156 2811 32 
Q 2600 -91 2322 -91 
Q 2091 -91 1928 -17 
Q 1766 56 1672 206 
L 1672 -1338 
L 544 -1338 
z
" transform="scale(0.015625)"/>
       <path id="DejaVuSans-Bold-4d" d="M 588 4666 
L 2119 4666 
L 3181 2169 
L 4250 4666 
L 5778 4666 
L 5778 0 
L 4641 0 
L 4641 3413 
L 3566 897 
L 2803 897 
L 1728 3413 
L 1728 0 
L 588 0 
L 588 4666 
z
" transform="scale(0.015625)"/>
      </defs>
      <use xlink:href="#DejaVuSans-Bold-61"/>
      <use xlink:href="#DejaVuSans-Bold-70" transform="translate(67.480469 0)"/>
      <use xlink:href="#DejaVuSans-Bold-69" transform="translate(139.0625 0)"/>
      <use xlink:href="#DejaVuSans-Bold-78" transform="translate(173.339844 0)"/>
      <use xlink:href="#DejaVuSans-Bold-61" transform="translate(237.841797 0)"/>
      <use xlink:href="#DejaVuSans-Bold-62" transform="translate(305.322266 0)"/>
      <use xlink:href="#DejaVuSans-Bold-61" transform="translate(376.904297 0)"/>
      <use xlink:href="#DejaVuSans-Bold-6e" transform="translate(444.384766 0)"/>
      <use xlink:href="#DejaVuSans-Bold-20" transform="translate(515.576172 0)"/>
      <use xlink:href="#DejaVuSans-Bold-70" transform="translate(550.390625 0)"/>
      <use xlink:href="#DejaVuSans-Bold-6c" transform="translate(621.972656 0)"/>
      <use xlink:href="#DejaVuSans-Bold-61" transform="translate(656.25 0)"/>
      <use xlink:href="#DejaVuSans-Bold-73" transform="translate(723.730469 0)"/>
      <use xlink:href="#DejaVuSans-Bold-6d" transform="translate(783.251953 0)"/>
      <use xlink:href="#DejaVuSans-Bold-61" transform="translate(887.451172 0)"/>
      <use xlink:href="#DejaVuSans-Bold-20" transform="translate(954.931641 0)"/>
      <use xlink:href="#DejaVuSans-Bold-5b" transform="translate(989.746094 0)"/>
      <use xlink:href="#DejaVuSans-Bold-b5" transform="translate(1035.449219 0)"/>
      <use xlink:href="#DejaVuSans-Bold-4d" transform="translate(1109.033203 0)"/>
      <use xlink:href="#DejaVuSans-Bold-5d" transform="translate(1208.544922 0)"/>
     </g>
    </g>
   </g>
   <g id="LineCollection_1">
    <path clip-path="url(#p6e5f2726fe)" style="fill: none; stroke: #006d2c"/>
    <path clip-path="url(#p6e5f2726fe)" style="fill: none; stroke: #006d2c"/>
    <path clip-path="url(#p6e5f2726fe)" style="fill: none; stroke: #006d2c"/>
    <path clip-path="url(#p6e5f2726fe)" style="fill: none; stroke: #006d2c"/>
    <path clip-path="url(#p6e5f2726fe)" style="fill: none; stroke: #006d2c"/>
    <path clip-path="url(#p6e5f2726fe)" style="fill: none; stroke: #006d2c"/>
    <path clip-path="url(#p6e5f2726fe)" style="fill: none; stroke: #006d2c"/>
    <path clip-path="url(#p6e5f2726fe)" style="fill: none; stroke: #006d2c"/>
   </g>
   <g id="line2d_12">
    <path d="M 76.477609 349.884 
L 76.817261 349.626054 
L 77.156913 348.803552 
L 77.836217 346.210764 
L 82.931 323.746768 
L 84.629261 317.959129 
L 86.327522 313.049129 
L 88.025783 308.924173 
L 89.384391 306.130836 
L 90.743 303.743508 
L 92.101609 301.724759 
L 93.460217 300.040229 
L 94.818826 298.658396 
L 96.177435 297.550355 
L 97.536043 296.689613 
L 98.894652 296.051894 
L 100.253261 295.614963 
L 101.951522 295.320312 
L 103.649783 295.271714 
L 105.348043 295.436973 
L 107.385957 295.877283 
L 109.42387 296.540362 
L 111.801435 297.544726 
L 114.518652 298.933556 
L 117.915174 300.936738 
L 122.330652 303.829619 
L 129.803 309.048569 
L 138.973609 315.379349 
L 145.087348 319.318986 
L 150.521783 322.562419 
L 155.956217 325.541479 
L 161.390652 328.252553 
L 166.825087 330.702306 
L 172.259522 332.903724 
L 177.693957 334.873386 
L 183.468043 336.732703 
L 189.581783 338.463791 
L 196.035174 340.054284 
L 202.828217 341.497126 
L 210.300565 342.846557 
L 218.112565 344.029824 
L 226.60387 345.09437 
L 236.11413 346.06069 
L 246.643348 346.906296 
L 258.870826 347.65749 
L 272.796565 348.285654 
L 289.439522 348.808794 
L 310.158304 349.227807 
L 337.330478 349.540695 
L 376.390478 349.748741 
L 416.129783 349.831568 
L 416.129783 349.831568 
" clip-path="url(#p6e5f2726fe)" style="fill: none; stroke: #006d2c; stroke-width: 2; stroke-linecap: square"/>
   </g>
   <g id="line2d_13">
    <path d="M 76.477609 349.884 
L 79.036194 333.911094 
L 82.660856 268.414591 
L 88.844103 228.065105 
L 101.210598 209.465606 
L 126.583234 225.96715 
L 229.497558 302.418949 
L 355.592177 339.288648 
" clip-path="url(#p6e5f2726fe)" style="fill: none; stroke-dasharray: 3.7,1.6; stroke-dashoffset: 0; stroke: #006d2c"/>
    <defs>
     <path id="m6e733d5de2" d="M -3 3 
L 3 3 
L 3 -3 
L -3 -3 
z
" style="stroke: #000000; stroke-linejoin: miter"/>
    </defs>
    <g clip-path="url(#p6e5f2726fe)">
     <use xlink:href="#m6e733d5de2" x="76.477609" y="349.884" style="fill: #006d2c; stroke: #000000; stroke-linejoin: miter"/>
     <use xlink:href="#m6e733d5de2" x="79.036194" y="333.911094" style="fill: #006d2c; stroke: #000000; stroke-linejoin: miter"/>
     <use xlink:href="#m6e733d5de2" x="82.660856" y="268.414591" style="fill: #006d2c; stroke: #000000; stroke-linejoin: miter"/>
     <use xlink:href="#m6e733d5de2" x="88.844103" y="228.065105" style="fill: #006d2c; stroke: #000000; stroke-linejoin: miter"/>
     <use xlink:href="#m6e733d5de2" x="101.210598" y="209.465606" style="fill: #006d2c; stroke: #000000; stroke-linejoin: miter"/>
     <use xlink:href="#m6e733d5de2" x="126.583234" y="225.96715" style="fill: #006d2c; stroke: #000000; stroke-linejoin: miter"/>
     <use xlink:href="#m6e733d5de2" x="229.497558" y="302.418949" style="fill: #006d2c; stroke: #000000; stroke-linejoin: miter"/>
     <use xlink:href="#m6e733d5de2" x="355.592177" y="339.288648" style="fill: #006d2c; stroke: #000000; stroke-linejoin: miter"/>
    </g>
   </g>
   <g id="line2d_14">
    <defs>
     <path id="m304fcfdef3" d="M 0 2.6 
C 0.689528 2.6 1.350908 2.326048 1.838478 1.838478 
C 2.326048 1.350908 2.6 0.689528 2.6 0 
C 2.6 -0.689528 2.326048 -1.350908 1.838478 -1.838478 
C 1.350908 -2.326048 0.689528 -2.6 0 -2.6 
C -0.689528 -2.6 -1.350908 -2.326048 -1.838478 -1.838478 
C -2.326048 -1.350908 -2.6 -0.689528 -2.6 0 
C -2.6 0.689528 -2.326048 1.350908 -1.838478 1.838478 
C -1.350908 2.326048 -0.689528 2.6 0 2.6 
z
" style="stroke: #006d2c; stroke-opacity: 0.25098"/>
    </defs>
    <g clip-path="url(#p6e5f2726fe)">
     <use xlink:href="#m304fcfdef3" x="76.477609" y="349.884" style="fill: #006d2c; fill-opacity: 0.25098; stroke: #006d2c; stroke-opacity: 0.25098"/>
    </g>
   </g>
   <g id="line2d_15">
    <g clip-path="url(#p6e5f2726fe)">
     <use xlink:href="#m304fcfdef3" x="79.036194" y="347.338007" style="fill: #006d2c; fill-opacity: 0.25098; stroke: #006d2c; stroke-opacity: 0.25098"/>
    </g>
   </g>
   <g id="line2d_16">
    <g clip-path="url(#p6e5f2726fe)">
     <use xlink:href="#m304fcfdef3" x="79.67584" y="246.629045" style="fill: #006d2c; fill-opacity: 0.25098; stroke: #006d2c; stroke-opacity: 0.25098"/>
    </g>
   </g>
   <g id="line2d_17">
    <g clip-path="url(#p6e5f2726fe)">
     <use xlink:href="#m304fcfdef3" x="82.447641" y="347.300078" style="fill: #006d2c; fill-opacity: 0.25098; stroke: #006d2c; stroke-opacity: 0.25098"/>
    </g>
   </g>
   <g id="line2d_18">
    <g clip-path="url(#p6e5f2726fe)">
     <use xlink:href="#m304fcfdef3" x="82.874071" y="312.049689" style="fill: #006d2c; fill-opacity: 0.25098; stroke: #006d2c; stroke-opacity: 0.25098"/>
    </g>
   </g>
   <g id="line2d_19">
    <g clip-path="url(#p6e5f2726fe)">
     <use xlink:href="#m304fcfdef3" x="82.660856" y="244.917493" style="fill: #006d2c; fill-opacity: 0.25098; stroke: #006d2c; stroke-opacity: 0.25098"/>
    </g>
   </g>
   <g id="line2d_20">
    <g clip-path="url(#p6e5f2726fe)">
     <use xlink:href="#m304fcfdef3" x="82.447641" y="181.981207" style="fill: #006d2c; fill-opacity: 0.25098; stroke: #006d2c; stroke-opacity: 0.25098"/>
    </g>
   </g>
   <g id="line2d_21">
    <g clip-path="url(#p6e5f2726fe)">
     <use xlink:href="#m304fcfdef3" x="82.447641" y="169.393476" style="fill: #006d2c; fill-opacity: 0.25098; stroke: #006d2c; stroke-opacity: 0.25098"/>
    </g>
   </g>
   <g id="line2d_22">
    <g clip-path="url(#p6e5f2726fe)">
     <use xlink:href="#m304fcfdef3" x="89.057319" y="347.22659" style="fill: #006d2c; fill-opacity: 0.25098; stroke: #006d2c; stroke-opacity: 0.25098"/>
    </g>
   </g>
   <g id="line2d_23">
    <g clip-path="url(#p6e5f2726fe)">
     <use xlink:href="#m304fcfdef3" x="88.844103" y="309.465767" style="fill: #006d2c; fill-opacity: 0.25098; stroke: #006d2c; stroke-opacity: 0.25098"/>
    </g>
   </g>
   <g id="line2d_24">
    <g clip-path="url(#p6e5f2726fe)">
     <use xlink:href="#m304fcfdef3" x="89.270534" y="223.025271" style="fill: #006d2c; fill-opacity: 0.25098; stroke: #006d2c; stroke-opacity: 0.25098"/>
    </g>
   </g>
   <g id="line2d_25">
    <g clip-path="url(#p6e5f2726fe)">
     <use xlink:href="#m304fcfdef3" x="89.270534" y="181.066167" style="fill: #006d2c; fill-opacity: 0.25098; stroke: #006d2c; stroke-opacity: 0.25098"/>
    </g>
   </g>
   <g id="line2d_26">
    <g clip-path="url(#p6e5f2726fe)">
     <use xlink:href="#m304fcfdef3" x="89.057319" y="166.802442" style="fill: #006d2c; fill-opacity: 0.25098; stroke: #006d2c; stroke-opacity: 0.25098"/>
    </g>
   </g>
   <g id="line2d_27">
    <g clip-path="url(#p6e5f2726fe)">
     <use xlink:href="#m304fcfdef3" x="89.057319" y="147.501254" style="fill: #006d2c; fill-opacity: 0.25098; stroke: #006d2c; stroke-opacity: 0.25098"/>
    </g>
   </g>
   <g id="line2d_28">
    <g clip-path="url(#p6e5f2726fe)">
     <use xlink:href="#m304fcfdef3" x="101.637029" y="311.841079" style="fill: #006d2c; fill-opacity: 0.25098; stroke: #006d2c; stroke-opacity: 0.25098"/>
    </g>
   </g>
   <g id="line2d_29">
    <g clip-path="url(#p6e5f2726fe)">
     <use xlink:href="#m304fcfdef3" x="101.423814" y="289.185533" style="fill: #006d2c; fill-opacity: 0.25098; stroke: #006d2c; stroke-opacity: 0.25098"/>
    </g>
   </g>
   <g id="line2d_30">
    <g clip-path="url(#p6e5f2726fe)">
     <use xlink:href="#m304fcfdef3" x="101.423814" y="217.855056" style="fill: #006d2c; fill-opacity: 0.25098; stroke: #006d2c; stroke-opacity: 0.25098"/>
    </g>
   </g>
   <g id="line2d_31">
    <g clip-path="url(#p6e5f2726fe)">
     <use xlink:href="#m304fcfdef3" x="101.637029" y="211.978411" style="fill: #006d2c; fill-opacity: 0.25098; stroke: #006d2c; stroke-opacity: 0.25098"/>
    </g>
   </g>
   <g id="line2d_32">
    <g clip-path="url(#p6e5f2726fe)">
     <use xlink:href="#m304fcfdef3" x="101.423814" y="166.664949" style="fill: #006d2c; fill-opacity: 0.25098; stroke: #006d2c; stroke-opacity: 0.25098"/>
    </g>
   </g>
   <g id="line2d_33">
    <g clip-path="url(#p6e5f2726fe)">
     <use xlink:href="#m304fcfdef3" x="101.637029" y="62.604" style="fill: #006d2c; fill-opacity: 0.25098; stroke: #006d2c; stroke-opacity: 0.25098"/>
    </g>
   </g>
   <g id="line2d_34">
    <g clip-path="url(#p6e5f2726fe)">
     <use xlink:href="#m304fcfdef3" x="126.583234" y="308.206994" style="fill: #006d2c; fill-opacity: 0.25098; stroke: #006d2c; stroke-opacity: 0.25098"/>
    </g>
   </g>
   <g id="line2d_35">
    <g clip-path="url(#p6e5f2726fe)">
     <use xlink:href="#m304fcfdef3" x="127.22288" y="271.27587" style="fill: #006d2c; fill-opacity: 0.25098; stroke: #006d2c; stroke-opacity: 0.25098"/>
    </g>
   </g>
   <g id="line2d_36">
    <g clip-path="url(#p6e5f2726fe)">
     <use xlink:href="#m304fcfdef3" x="127.009665" y="261.208056" style="fill: #006d2c; fill-opacity: 0.25098; stroke: #006d2c; stroke-opacity: 0.25098"/>
    </g>
   </g>
   <g id="line2d_37">
    <g clip-path="url(#p6e5f2726fe)">
     <use xlink:href="#m304fcfdef3" x="127.009665" y="220.927316" style="fill: #006d2c; fill-opacity: 0.25098; stroke: #006d2c; stroke-opacity: 0.25098"/>
    </g>
   </g>
   <g id="line2d_38">
    <g clip-path="url(#p6e5f2726fe)">
     <use xlink:href="#m304fcfdef3" x="126.796449" y="214.21623" style="fill: #006d2c; fill-opacity: 0.25098; stroke: #006d2c; stroke-opacity: 0.25098"/>
    </g>
   </g>
   <g id="line2d_39">
    <g clip-path="url(#p6e5f2726fe)">
     <use xlink:href="#m304fcfdef3" x="126.796449" y="81.625461" style="fill: #006d2c; fill-opacity: 0.25098; stroke: #006d2c; stroke-opacity: 0.25098"/>
    </g>
   </g>
   <g id="line2d_40">
    <g clip-path="url(#p6e5f2726fe)">
     <use xlink:href="#m304fcfdef3" x="227.759111" y="345.453403" style="fill: #006d2c; fill-opacity: 0.25098; stroke: #006d2c; stroke-opacity: 0.25098"/>
    </g>
   </g>
   <g id="line2d_41">
    <g clip-path="url(#p6e5f2726fe)">
     <use xlink:href="#m304fcfdef3" x="227.759111" y="317.760394" style="fill: #006d2c; fill-opacity: 0.25098; stroke: #006d2c; stroke-opacity: 0.25098"/>
    </g>
   </g>
   <g id="line2d_42">
    <g clip-path="url(#p6e5f2726fe)">
     <use xlink:href="#m304fcfdef3" x="227.759111" y="304.333481" style="fill: #006d2c; fill-opacity: 0.25098; stroke: #006d2c; stroke-opacity: 0.25098"/>
    </g>
   </g>
   <g id="line2d_43">
    <g clip-path="url(#p6e5f2726fe)">
     <use xlink:href="#m304fcfdef3" x="227.759111" y="297.620024" style="fill: #006d2c; fill-opacity: 0.25098; stroke: #006d2c; stroke-opacity: 0.25098"/>
    </g>
   </g>
   <g id="line2d_44">
    <g clip-path="url(#p6e5f2726fe)">
     <use xlink:href="#m304fcfdef3" x="227.759111" y="269.922274" style="fill: #006d2c; fill-opacity: 0.25098; stroke: #006d2c; stroke-opacity: 0.25098"/>
    </g>
   </g>
   <g id="line2d_45">
    <g clip-path="url(#p6e5f2726fe)">
     <use xlink:href="#m304fcfdef3" x="227.759111" y="253.982556" style="fill: #006d2c; fill-opacity: 0.25098; stroke: #006d2c; stroke-opacity: 0.25098"/>
    </g>
   </g>
   <g id="line2d_46">
    <g clip-path="url(#p6e5f2726fe)">
     <use xlink:href="#m304fcfdef3" x="353.231232" y="345.913294" style="fill: #006d2c; fill-opacity: 0.25098; stroke: #006d2c; stroke-opacity: 0.25098"/>
    </g>
   </g>
   <g id="line2d_47">
    <g clip-path="url(#p6e5f2726fe)">
     <use xlink:href="#m304fcfdef3" x="353.231232" y="324.936112" style="fill: #006d2c; fill-opacity: 0.25098; stroke: #006d2c; stroke-opacity: 0.25098"/>
    </g>
   </g>
   <g id="line2d_48">
    <g clip-path="url(#p6e5f2726fe)">
     <use xlink:href="#m304fcfdef3" x="353.231232" y="314.024375" style="fill: #006d2c; fill-opacity: 0.25098; stroke: #006d2c; stroke-opacity: 0.25098"/>
    </g>
   </g>
   <g id="line2d_49">
    <g clip-path="url(#p6e5f2726fe)">
     <use xlink:href="#m304fcfdef3" x="353.231232" y="306.469365" style="fill: #006d2c; fill-opacity: 0.25098; stroke: #006d2c; stroke-opacity: 0.25098"/>
    </g>
   </g>
   <g id="patch_3">
    <path d="M 59.495 364.248 
L 59.495 48.24 
" style="fill: none; stroke: #000000; stroke-width: 0.8; stroke-linejoin: miter; stroke-linecap: square"/>
   </g>
   <g id="patch_4">
    <path d="M 433.112391 364.248 
L 433.112391 48.24 
" style="fill: none; stroke: #000000; stroke-width: 0.8; stroke-linejoin: miter; stroke-linecap: square"/>
   </g>
   <g id="patch_5">
    <path d="M 59.495 364.248 
L 433.112391 364.248 
" style="fill: none; stroke: #000000; stroke-width: 0.8; stroke-linejoin: miter; stroke-linecap: square"/>
   </g>
   <g id="patch_6">
    <path d="M 59.495 48.24 
L 433.112391 48.24 
" style="fill: none; stroke: #000000; stroke-width: 0.8; stroke-linejoin: miter; stroke-linecap: square"/>
   </g>
   <g id="legend_1">
    <g id="patch_7">
     <path d="M 190.300829 115.884687 
L 424.012391 115.884687 
Q 426.612391 115.884687 426.612391 113.284687 
L 426.612391 57.34 
Q 426.612391 54.74 424.012391 54.74 
L 190.300829 54.74 
Q 187.700829 54.74 187.700829 57.34 
L 187.700829 113.284687 
Q 187.700829 115.884687 190.300829 115.884687 
z
" style="fill: #ffffff; opacity: 0.8; stroke: #cccccc; stroke-linejoin: miter"/>
    </g>
    <g id="line2d_50">
     <path d="M 192.900829 65.267969 
L 218.900829 65.267969 
" style="fill: none; stroke: #006d2c; stroke-width: 2; stroke-linecap: square"/>
    </g>
    <g id="line2d_51"/>
    <g id="text_14">
     <!-- sim SRI: 2.5mg PO -->
     <g transform="translate(229.300829 69.817969) scale(0.13 -0.13)">
      <defs>
       <path id="DejaVuSans-73" d="M 2834 3397 
L 2834 2853 
Q 2591 2978 2328 3040 
Q 2066 3103 1784 3103 
Q 1356 3103 1142 2972 
Q 928 2841 928 2578 
Q 928 2378 1081 2264 
Q 1234 2150 1697 2047 
L 1894 2003 
Q 2506 1872 2764 1633 
Q 3022 1394 3022 966 
Q 3022 478 2636 193 
Q 2250 -91 1575 -91 
Q 1294 -91 989 -36 
Q 684 19 347 128 
L 347 722 
Q 666 556 975 473 
Q 1284 391 1588 391 
Q 1994 391 2212 530 
Q 2431 669 2431 922 
Q 2431 1156 2273 1281 
Q 2116 1406 1581 1522 
L 1381 1569 
Q 847 1681 609 1914 
Q 372 2147 372 2553 
Q 372 3047 722 3315 
Q 1072 3584 1716 3584 
Q 2034 3584 2315 3537 
Q 2597 3491 2834 3397 
z
" transform="scale(0.015625)"/>
       <path id="DejaVuSans-69" d="M 603 3500 
L 1178 3500 
L 1178 0 
L 603 0 
L 603 3500 
z
M 603 4863 
L 1178 4863 
L 1178 4134 
L 603 4134 
L 603 4863 
z
" transform="scale(0.015625)"/>
       <path id="DejaVuSans-6d" d="M 3328 2828 
Q 3544 3216 3844 3400 
Q 4144 3584 4550 3584 
Q 5097 3584 5394 3201 
Q 5691 2819 5691 2113 
L 5691 0 
L 5113 0 
L 5113 2094 
Q 5113 2597 4934 2840 
Q 4756 3084 4391 3084 
Q 3944 3084 3684 2787 
Q 3425 2491 3425 1978 
L 3425 0 
L 2847 0 
L 2847 2094 
Q 2847 2600 2669 2842 
Q 2491 3084 2119 3084 
Q 1678 3084 1418 2786 
Q 1159 2488 1159 1978 
L 1159 0 
L 581 0 
L 581 3500 
L 1159 3500 
L 1159 2956 
Q 1356 3278 1631 3431 
Q 1906 3584 2284 3584 
Q 2666 3584 2933 3390 
Q 3200 3197 3328 2828 
z
" transform="scale(0.015625)"/>
       <path id="DejaVuSans-20" transform="scale(0.015625)"/>
       <path id="DejaVuSans-53" d="M 3425 4513 
L 3425 3897 
Q 3066 4069 2747 4153 
Q 2428 4238 2131 4238 
Q 1616 4238 1336 4038 
Q 1056 3838 1056 3469 
Q 1056 3159 1242 3001 
Q 1428 2844 1947 2747 
L 2328 2669 
Q 3034 2534 3370 2195 
Q 3706 1856 3706 1288 
Q 3706 609 3251 259 
Q 2797 -91 1919 -91 
Q 1588 -91 1214 -16 
Q 841 59 441 206 
L 441 856 
Q 825 641 1194 531 
Q 1563 422 1919 422 
Q 2459 422 2753 634 
Q 3047 847 3047 1241 
Q 3047 1584 2836 1778 
Q 2625 1972 2144 2069 
L 1759 2144 
Q 1053 2284 737 2584 
Q 422 2884 422 3419 
Q 422 4038 858 4394 
Q 1294 4750 2059 4750 
Q 2388 4750 2728 4690 
Q 3069 4631 3425 4513 
z
" transform="scale(0.015625)"/>
       <path id="DejaVuSans-52" d="M 2841 2188 
Q 3044 2119 3236 1894 
Q 3428 1669 3622 1275 
L 4263 0 
L 3584 0 
L 2988 1197 
Q 2756 1666 2539 1819 
Q 2322 1972 1947 1972 
L 1259 1972 
L 1259 0 
L 628 0 
L 628 4666 
L 2053 4666 
Q 2853 4666 3247 4331 
Q 3641 3997 3641 3322 
Q 3641 2881 3436 2590 
Q 3231 2300 2841 2188 
z
M 1259 4147 
L 1259 2491 
L 2053 2491 
Q 2509 2491 2742 2702 
Q 2975 2913 2975 3322 
Q 2975 3731 2742 3939 
Q 2509 4147 2053 4147 
L 1259 4147 
z
" transform="scale(0.015625)"/>
       <path id="DejaVuSans-49" d="M 628 4666 
L 1259 4666 
L 1259 0 
L 628 0 
L 628 4666 
z
" transform="scale(0.015625)"/>
       <path id="DejaVuSans-3a" d="M 750 794 
L 1409 794 
L 1409 0 
L 750 0 
L 750 794 
z
M 750 3309 
L 1409 3309 
L 1409 2516 
L 750 2516 
L 750 3309 
z
" transform="scale(0.015625)"/>
       <path id="DejaVuSans-67" d="M 2906 1791 
Q 2906 2416 2648 2759 
Q 2391 3103 1925 3103 
Q 1463 3103 1205 2759 
Q 947 2416 947 1791 
Q 947 1169 1205 825 
Q 1463 481 1925 481 
Q 2391 481 2648 825 
Q 2906 1169 2906 1791 
z
M 3481 434 
Q 3481 -459 3084 -895 
Q 2688 -1331 1869 -1331 
Q 1566 -1331 1297 -1286 
Q 1028 -1241 775 -1147 
L 775 -588 
Q 1028 -725 1275 -790 
Q 1522 -856 1778 -856 
Q 2344 -856 2625 -561 
Q 2906 -266 2906 331 
L 2906 616 
Q 2728 306 2450 153 
Q 2172 0 1784 0 
Q 1141 0 747 490 
Q 353 981 353 1791 
Q 353 2603 747 3093 
Q 1141 3584 1784 3584 
Q 2172 3584 2450 3431 
Q 2728 3278 2906 2969 
L 2906 3500 
L 3481 3500 
L 3481 434 
z
" transform="scale(0.015625)"/>
       <path id="DejaVuSans-50" d="M 1259 4147 
L 1259 2394 
L 2053 2394 
Q 2494 2394 2734 2622 
Q 2975 2850 2975 3272 
Q 2975 3691 2734 3919 
Q 2494 4147 2053 4147 
L 1259 4147 
z
M 628 4666 
L 2053 4666 
Q 2838 4666 3239 4311 
Q 3641 3956 3641 3272 
Q 3641 2581 3239 2228 
Q 2838 1875 2053 1875 
L 1259 1875 
L 1259 0 
L 628 0 
L 628 4666 
z
" transform="scale(0.015625)"/>
       <path id="DejaVuSans-4f" d="M 2522 4238 
Q 1834 4238 1429 3725 
Q 1025 3213 1025 2328 
Q 1025 1447 1429 934 
Q 1834 422 2522 422 
Q 3209 422 3611 934 
Q 4013 1447 4013 2328 
Q 4013 3213 3611 3725 
Q 3209 4238 2522 4238 
z
M 2522 4750 
Q 3503 4750 4090 4092 
Q 4678 3434 4678 2328 
Q 4678 1225 4090 567 
Q 3503 -91 2522 -91 
Q 1538 -91 948 565 
Q 359 1222 359 2328 
Q 359 3434 948 4092 
Q 1538 4750 2522 4750 
z
" transform="scale(0.015625)"/>
      </defs>
      <use xlink:href="#DejaVuSans-73"/>
      <use xlink:href="#DejaVuSans-69" transform="translate(52.099609 0)"/>
      <use xlink:href="#DejaVuSans-6d" transform="translate(79.882812 0)"/>
      <use xlink:href="#DejaVuSans-20" transform="translate(177.294922 0)"/>
      <use xlink:href="#DejaVuSans-53" transform="translate(209.082031 0)"/>
      <use xlink:href="#DejaVuSans-52" transform="translate(272.558594 0)"/>
      <use xlink:href="#DejaVuSans-49" transform="translate(342.041016 0)"/>
      <use xlink:href="#DejaVuSans-3a" transform="translate(371.533203 0)"/>
      <use xlink:href="#DejaVuSans-20" transform="translate(405.224609 0)"/>
      <use xlink:href="#DejaVuSans-32" transform="translate(437.011719 0)"/>
      <use xlink:href="#DejaVuSans-2e" transform="translate(500.634766 0)"/>
      <use xlink:href="#DejaVuSans-35" transform="translate(532.421875 0)"/>
      <use xlink:href="#DejaVuSans-6d" transform="translate(596.044922 0)"/>
      <use xlink:href="#DejaVuSans-67" transform="translate(693.457031 0)"/>
      <use xlink:href="#DejaVuSans-20" transform="translate(756.933594 0)"/>
      <use xlink:href="#DejaVuSans-50" transform="translate(788.720703 0)"/>
      <use xlink:href="#DejaVuSans-4f" transform="translate(849.023438 0)"/>
     </g>
    </g>
    <g id="LineCollection_2">
     <path d="M 205.900829 90.849531 
L 205.900829 77.849531 
" style="fill: none; stroke: #006d2c"/>
    </g>
    <g id="line2d_52">
     <path d="M 192.900829 84.349531 
L 218.900829 84.349531 
" style="fill: none; stroke-dasharray: 3.7,1.6; stroke-dashoffset: 0; stroke: #006d2c"/>
    </g>
    <g id="line2d_53">
     <g>
      <use xlink:href="#m6e733d5de2" x="205.900829" y="84.349531" style="fill: #006d2c; stroke: #000000; stroke-linejoin: miter"/>
     </g>
    </g>
    <g id="text_15">
     <!-- exp SRI: 2.5mg PO±SD (n=6) -->
     <g transform="translate(229.300829 88.899531) scale(0.13 -0.13)">
      <defs>
       <path id="DejaVuSans-65" d="M 3597 1894 
L 3597 1613 
L 953 1613 
Q 991 1019 1311 708 
Q 1631 397 2203 397 
Q 2534 397 2845 478 
Q 3156 559 3463 722 
L 3463 178 
Q 3153 47 2828 -22 
Q 2503 -91 2169 -91 
Q 1331 -91 842 396 
Q 353 884 353 1716 
Q 353 2575 817 3079 
Q 1281 3584 2069 3584 
Q 2775 3584 3186 3129 
Q 3597 2675 3597 1894 
z
M 3022 2063 
Q 3016 2534 2758 2815 
Q 2500 3097 2075 3097 
Q 1594 3097 1305 2825 
Q 1016 2553 972 2059 
L 3022 2063 
z
" transform="scale(0.015625)"/>
       <path id="DejaVuSans-78" d="M 3513 3500 
L 2247 1797 
L 3578 0 
L 2900 0 
L 1881 1375 
L 863 0 
L 184 0 
L 1544 1831 
L 300 3500 
L 978 3500 
L 1906 2253 
L 2834 3500 
L 3513 3500 
z
" transform="scale(0.015625)"/>
       <path id="DejaVuSans-70" d="M 1159 525 
L 1159 -1331 
L 581 -1331 
L 581 3500 
L 1159 3500 
L 1159 2969 
Q 1341 3281 1617 3432 
Q 1894 3584 2278 3584 
Q 2916 3584 3314 3078 
Q 3713 2572 3713 1747 
Q 3713 922 3314 415 
Q 2916 -91 2278 -91 
Q 1894 -91 1617 61 
Q 1341 213 1159 525 
z
M 3116 1747 
Q 3116 2381 2855 2742 
Q 2594 3103 2138 3103 
Q 1681 3103 1420 2742 
Q 1159 2381 1159 1747 
Q 1159 1113 1420 752 
Q 1681 391 2138 391 
Q 2594 391 2855 752 
Q 3116 1113 3116 1747 
z
" transform="scale(0.015625)"/>
       <path id="DejaVuSans-b1" d="M 2944 4013 
L 2944 2803 
L 4684 2803 
L 4684 2272 
L 2944 2272 
L 2944 1063 
L 2419 1063 
L 2419 2272 
L 678 2272 
L 678 2803 
L 2419 2803 
L 2419 4013 
L 2944 4013 
z
M 678 531 
L 4684 531 
L 4684 0 
L 678 0 
L 678 531 
z
" transform="scale(0.015625)"/>
       <path id="DejaVuSans-44" d="M 1259 4147 
L 1259 519 
L 2022 519 
Q 2988 519 3436 956 
Q 3884 1394 3884 2338 
Q 3884 3275 3436 3711 
Q 2988 4147 2022 4147 
L 1259 4147 
z
M 628 4666 
L 1925 4666 
Q 3281 4666 3915 4102 
Q 4550 3538 4550 2338 
Q 4550 1131 3912 565 
Q 3275 0 1925 0 
L 628 0 
L 628 4666 
z
" transform="scale(0.015625)"/>
       <path id="DejaVuSans-28" d="M 1984 4856 
Q 1566 4138 1362 3434 
Q 1159 2731 1159 2009 
Q 1159 1288 1364 580 
Q 1569 -128 1984 -844 
L 1484 -844 
Q 1016 -109 783 600 
Q 550 1309 550 2009 
Q 550 2706 781 3412 
Q 1013 4119 1484 4856 
L 1984 4856 
z
" transform="scale(0.015625)"/>
       <path id="DejaVuSans-6e" d="M 3513 2113 
L 3513 0 
L 2938 0 
L 2938 2094 
Q 2938 2591 2744 2837 
Q 2550 3084 2163 3084 
Q 1697 3084 1428 2787 
Q 1159 2491 1159 1978 
L 1159 0 
L 581 0 
L 581 3500 
L 1159 3500 
L 1159 2956 
Q 1366 3272 1645 3428 
Q 1925 3584 2291 3584 
Q 2894 3584 3203 3211 
Q 3513 2838 3513 2113 
z
" transform="scale(0.015625)"/>
       <path id="DejaVuSans-3d" d="M 678 2906 
L 4684 2906 
L 4684 2381 
L 678 2381 
L 678 2906 
z
M 678 1631 
L 4684 1631 
L 4684 1100 
L 678 1100 
L 678 1631 
z
" transform="scale(0.015625)"/>
       <path id="DejaVuSans-36" d="M 2113 2584 
Q 1688 2584 1439 2293 
Q 1191 2003 1191 1497 
Q 1191 994 1439 701 
Q 1688 409 2113 409 
Q 2538 409 2786 701 
Q 3034 994 3034 1497 
Q 3034 2003 2786 2293 
Q 2538 2584 2113 2584 
z
M 3366 4563 
L 3366 3988 
Q 3128 4100 2886 4159 
Q 2644 4219 2406 4219 
Q 1781 4219 1451 3797 
Q 1122 3375 1075 2522 
Q 1259 2794 1537 2939 
Q 1816 3084 2150 3084 
Q 2853 3084 3261 2657 
Q 3669 2231 3669 1497 
Q 3669 778 3244 343 
Q 2819 -91 2113 -91 
Q 1303 -91 875 529 
Q 447 1150 447 2328 
Q 447 3434 972 4092 
Q 1497 4750 2381 4750 
Q 2619 4750 2861 4703 
Q 3103 4656 3366 4563 
z
" transform="scale(0.015625)"/>
       <path id="DejaVuSans-29" d="M 513 4856 
L 1013 4856 
Q 1481 4119 1714 3412 
Q 1947 2706 1947 2009 
Q 1947 1309 1714 600 
Q 1481 -109 1013 -844 
L 513 -844 
Q 928 -128 1133 580 
Q 1338 1288 1338 2009 
Q 1338 2731 1133 3434 
Q 928 4138 513 4856 
z
" transform="scale(0.015625)"/>
      </defs>
      <use xlink:href="#DejaVuSans-65"/>
      <use xlink:href="#DejaVuSans-78" transform="translate(59.773438 0)"/>
      <use xlink:href="#DejaVuSans-70" transform="translate(118.953125 0)"/>
      <use xlink:href="#DejaVuSans-20" transform="translate(182.429688 0)"/>
      <use xlink:href="#DejaVuSans-53" transform="translate(214.216797 0)"/>
      <use xlink:href="#DejaVuSans-52" transform="translate(277.693359 0)"/>
      <use xlink:href="#DejaVuSans-49" transform="translate(347.175781 0)"/>
      <use xlink:href="#DejaVuSans-3a" transform="translate(376.667969 0)"/>
      <use xlink:href="#DejaVuSans-20" transform="translate(410.359375 0)"/>
      <use xlink:href="#DejaVuSans-32" transform="translate(442.146484 0)"/>
      <use xlink:href="#DejaVuSans-2e" transform="translate(505.769531 0)"/>
      <use xlink:href="#DejaVuSans-35" transform="translate(537.556641 0)"/>
      <use xlink:href="#DejaVuSans-6d" transform="translate(601.179688 0)"/>
      <use xlink:href="#DejaVuSans-67" transform="translate(698.591797 0)"/>
      <use xlink:href="#DejaVuSans-20" transform="translate(762.068359 0)"/>
      <use xlink:href="#DejaVuSans-50" transform="translate(793.855469 0)"/>
      <use xlink:href="#DejaVuSans-4f" transform="translate(854.158203 0)"/>
      <use xlink:href="#DejaVuSans-b1" transform="translate(932.869141 0)"/>
      <use xlink:href="#DejaVuSans-53" transform="translate(1016.658203 0)"/>
      <use xlink:href="#DejaVuSans-44" transform="translate(1080.134766 0)"/>
      <use xlink:href="#DejaVuSans-20" transform="translate(1157.136719 0)"/>
      <use xlink:href="#DejaVuSans-28" transform="translate(1188.923828 0)"/>
      <use xlink:href="#DejaVuSans-6e" transform="translate(1227.9375 0)"/>
      <use xlink:href="#DejaVuSans-3d" transform="translate(1291.316406 0)"/>
      <use xlink:href="#DejaVuSans-36" transform="translate(1375.105469 0)"/>
      <use xlink:href="#DejaVuSans-29" transform="translate(1438.728516 0)"/>
     </g>
    </g>
    <g id="line2d_54"/>
    <g id="line2d_55">
     <g>
      <use xlink:href="#m304fcfdef3" x="205.900829" y="103.431094" style="fill: #006d2c; fill-opacity: 0.25098; stroke: #006d2c; stroke-opacity: 0.25098"/>
     </g>
    </g>
    <g id="text_16">
     <!-- exp individ SRI: 2.5mg PO -->
     <g transform="translate(229.300829 107.981094) scale(0.13 -0.13)">
      <defs>
       <path id="DejaVuSans-64" d="M 2906 2969 
L 2906 4863 
L 3481 4863 
L 3481 0 
L 2906 0 
L 2906 525 
Q 2725 213 2448 61 
Q 2172 -91 1784 -91 
Q 1150 -91 751 415 
Q 353 922 353 1747 
Q 353 2572 751 3078 
Q 1150 3584 1784 3584 
Q 2172 3584 2448 3432 
Q 2725 3281 2906 2969 
z
M 947 1747 
Q 947 1113 1208 752 
Q 1469 391 1925 391 
Q 2381 391 2643 752 
Q 2906 1113 2906 1747 
Q 2906 2381 2643 2742 
Q 2381 3103 1925 3103 
Q 1469 3103 1208 2742 
Q 947 2381 947 1747 
z
" transform="scale(0.015625)"/>
       <path id="DejaVuSans-76" d="M 191 3500 
L 800 3500 
L 1894 563 
L 2988 3500 
L 3597 3500 
L 2284 0 
L 1503 0 
L 191 3500 
z
" transform="scale(0.015625)"/>
      </defs>
      <use xlink:href="#DejaVuSans-65"/>
      <use xlink:href="#DejaVuSans-78" transform="translate(59.773438 0)"/>
      <use xlink:href="#DejaVuSans-70" transform="translate(118.953125 0)"/>
      <use xlink:href="#DejaVuSans-20" transform="translate(182.429688 0)"/>
      <use xlink:href="#DejaVuSans-69" transform="translate(214.216797 0)"/>
      <use xlink:href="#DejaVuSans-6e" transform="translate(242 0)"/>
      <use xlink:href="#DejaVuSans-64" transform="translate(305.378906 0)"/>
      <use xlink:href="#DejaVuSans-69" transform="translate(368.855469 0)"/>
      <use xlink:href="#DejaVuSans-76" transform="translate(396.638672 0)"/>
      <use xlink:href="#DejaVuSans-69" transform="translate(455.818359 0)"/>
      <use xlink:href="#DejaVuSans-64" transform="translate(483.601562 0)"/>
      <use xlink:href="#DejaVuSans-20" transform="translate(547.078125 0)"/>
      <use xlink:href="#DejaVuSans-53" transform="translate(578.865234 0)"/>
      <use xlink:href="#DejaVuSans-52" transform="translate(642.341797 0)"/>
      <use xlink:href="#DejaVuSans-49" transform="translate(711.824219 0)"/>
      <use xlink:href="#DejaVuSans-3a" transform="translate(741.316406 0)"/>
      <use xlink:href="#DejaVuSans-20" transform="translate(775.007812 0)"/>
      <use xlink:href="#DejaVuSans-32" transform="translate(806.794922 0)"/>
      <use xlink:href="#DejaVuSans-2e" transform="translate(870.417969 0)"/>
      <use xlink:href="#DejaVuSans-35" transform="translate(902.205078 0)"/>
      <use xlink:href="#DejaVuSans-6d" transform="translate(965.828125 0)"/>
      <use xlink:href="#DejaVuSans-67" transform="translate(1063.240234 0)"/>
      <use xlink:href="#DejaVuSans-20" transform="translate(1126.716797 0)"/>
      <use xlink:href="#DejaVuSans-50" transform="translate(1158.503906 0)"/>
      <use xlink:href="#DejaVuSans-4f" transform="translate(1218.806641 0)"/>
     </g>
    </g>
   </g>
  </g>
  <g id="axes_2">
   <g id="patch_8">
    <path d="M 545.197609 364.248 
L 918.815 364.248 
L 918.815 48.24 
L 545.197609 48.24 
z
" style="fill: #ffffff"/>
   </g>
   <g id="matplotlib.axis_3">
    <g id="xtick_7">
     <g id="line2d_56">
      <g>
       <use xlink:href="#m7b28a1a9c3" x="562.180217" y="364.248" style="stroke: #000000; stroke-width: 0.8"/>
      </g>
     </g>
     <g id="text_17">
      <!-- 0 -->
      <g transform="translate(557.408342 382.645656) scale(0.15 -0.15)">
       <use xlink:href="#DejaVuSans-30"/>
      </g>
     </g>
    </g>
    <g id="xtick_8">
     <g id="line2d_57">
      <g>
       <use xlink:href="#m7b28a1a9c3" x="625.078768" y="364.248" style="stroke: #000000; stroke-width: 0.8"/>
      </g>
     </g>
     <g id="text_18">
      <!-- 10 -->
      <g transform="translate(615.535018 382.645656) scale(0.15 -0.15)">
       <use xlink:href="#DejaVuSans-31"/>
       <use xlink:href="#DejaVuSans-30" transform="translate(63.623047 0)"/>
      </g>
     </g>
    </g>
    <g id="xtick_9">
     <g id="line2d_58">
      <g>
       <use xlink:href="#m7b28a1a9c3" x="687.977319" y="364.248" style="stroke: #000000; stroke-width: 0.8"/>
      </g>
     </g>
     <g id="text_19">
      <!-- 20 -->
      <g transform="translate(678.433569 382.645656) scale(0.15 -0.15)">
       <use xlink:href="#DejaVuSans-32"/>
       <use xlink:href="#DejaVuSans-30" transform="translate(63.623047 0)"/>
      </g>
     </g>
    </g>
    <g id="xtick_10">
     <g id="line2d_59">
      <g>
       <use xlink:href="#m7b28a1a9c3" x="750.87587" y="364.248" style="stroke: #000000; stroke-width: 0.8"/>
      </g>
     </g>
     <g id="text_20">
      <!-- 30 -->
      <g transform="translate(741.33212 382.645656) scale(0.15 -0.15)">
       <use xlink:href="#DejaVuSans-33"/>
       <use xlink:href="#DejaVuSans-30" transform="translate(63.623047 0)"/>
      </g>
     </g>
    </g>
    <g id="xtick_11">
     <g id="line2d_60">
      <g>
       <use xlink:href="#m7b28a1a9c3" x="813.77442" y="364.248" style="stroke: #000000; stroke-width: 0.8"/>
      </g>
     </g>
     <g id="text_21">
      <!-- 40 -->
      <g transform="translate(804.23067 382.645656) scale(0.15 -0.15)">
       <use xlink:href="#DejaVuSans-34"/>
       <use xlink:href="#DejaVuSans-30" transform="translate(63.623047 0)"/>
      </g>
     </g>
    </g>
    <g id="xtick_12">
     <g id="line2d_61">
      <g>
       <use xlink:href="#m7b28a1a9c3" x="876.672971" y="364.248" style="stroke: #000000; stroke-width: 0.8"/>
      </g>
     </g>
     <g id="text_22">
      <!-- 50 -->
      <g transform="translate(867.129221 382.645656) scale(0.15 -0.15)">
       <use xlink:href="#DejaVuSans-35"/>
       <use xlink:href="#DejaVuSans-30" transform="translate(63.623047 0)"/>
      </g>
     </g>
    </g>
    <g id="text_23">
     <!-- time [hr] -->
     <g transform="translate(686.931773 403.442375) scale(0.18 -0.18)">
      <use xlink:href="#DejaVuSans-Bold-74"/>
      <use xlink:href="#DejaVuSans-Bold-69" transform="translate(47.802734 0)"/>
      <use xlink:href="#DejaVuSans-Bold-6d" transform="translate(82.080078 0)"/>
      <use xlink:href="#DejaVuSans-Bold-65" transform="translate(186.279297 0)"/>
      <use xlink:href="#DejaVuSans-Bold-20" transform="translate(254.101562 0)"/>
      <use xlink:href="#DejaVuSans-Bold-5b" transform="translate(288.916016 0)"/>
      <use xlink:href="#DejaVuSans-Bold-68" transform="translate(334.619141 0)"/>
      <use xlink:href="#DejaVuSans-Bold-72" transform="translate(405.810547 0)"/>
      <use xlink:href="#DejaVuSans-Bold-5d" transform="translate(455.126953 0)"/>
     </g>
    </g>
   </g>
   <g id="matplotlib.axis_4">
    <g id="ytick_6">
     <g id="line2d_62">
      <g>
       <use xlink:href="#m870c281079" x="545.197609" y="349.884" style="stroke: #000000; stroke-width: 0.8"/>
      </g>
     </g>
     <g id="text_24">
      <!-- 0.0 -->
      <g transform="translate(514.342921 355.582828) scale(0.15 -0.15)">
       <use xlink:href="#DejaVuSans-30"/>
       <use xlink:href="#DejaVuSans-2e" transform="translate(63.623047 0)"/>
       <use xlink:href="#DejaVuSans-30" transform="translate(95.410156 0)"/>
      </g>
     </g>
    </g>
    <g id="ytick_7">
     <g id="line2d_63">
      <g>
       <use xlink:href="#m870c281079" x="545.197609" y="302.958639" style="stroke: #000000; stroke-width: 0.8"/>
      </g>
     </g>
     <g id="text_25">
      <!-- 0.1 -->
      <g transform="translate(514.342921 308.657468) scale(0.15 -0.15)">
       <use xlink:href="#DejaVuSans-30"/>
       <use xlink:href="#DejaVuSans-2e" transform="translate(63.623047 0)"/>
       <use xlink:href="#DejaVuSans-31" transform="translate(95.410156 0)"/>
      </g>
     </g>
    </g>
    <g id="ytick_8">
     <g id="line2d_64">
      <g>
       <use xlink:href="#m870c281079" x="545.197609" y="256.033279" style="stroke: #000000; stroke-width: 0.8"/>
      </g>
     </g>
     <g id="text_26">
      <!-- 0.2 -->
      <g transform="translate(514.342921 261.732107) scale(0.15 -0.15)">
       <use xlink:href="#DejaVuSans-30"/>
       <use xlink:href="#DejaVuSans-2e" transform="translate(63.623047 0)"/>
       <use xlink:href="#DejaVuSans-32" transform="translate(95.410156 0)"/>
      </g>
     </g>
    </g>
    <g id="ytick_9">
     <g id="line2d_65">
      <g>
       <use xlink:href="#m870c281079" x="545.197609" y="209.107918" style="stroke: #000000; stroke-width: 0.8"/>
      </g>
     </g>
     <g id="text_27">
      <!-- 0.3 -->
      <g transform="translate(514.342921 214.806746) scale(0.15 -0.15)">
       <use xlink:href="#DejaVuSans-30"/>
       <use xlink:href="#DejaVuSans-2e" transform="translate(63.623047 0)"/>
       <use xlink:href="#DejaVuSans-33" transform="translate(95.410156 0)"/>
      </g>
     </g>
    </g>
    <g id="ytick_10">
     <g id="line2d_66">
      <g>
       <use xlink:href="#m870c281079" x="545.197609" y="162.182558" style="stroke: #000000; stroke-width: 0.8"/>
      </g>
     </g>
     <g id="text_28">
      <!-- 0.4 -->
      <g transform="translate(514.342921 167.881386) scale(0.15 -0.15)">
       <use xlink:href="#DejaVuSans-30"/>
       <use xlink:href="#DejaVuSans-2e" transform="translate(63.623047 0)"/>
       <use xlink:href="#DejaVuSans-34" transform="translate(95.410156 0)"/>
      </g>
     </g>
    </g>
    <g id="ytick_11">
     <g id="line2d_67">
      <g>
       <use xlink:href="#m870c281079" x="545.197609" y="115.257197" style="stroke: #000000; stroke-width: 0.8"/>
      </g>
     </g>
     <g id="text_29">
      <!-- 0.5 -->
      <g transform="translate(514.342921 120.956025) scale(0.15 -0.15)">
       <use xlink:href="#DejaVuSans-30"/>
       <use xlink:href="#DejaVuSans-2e" transform="translate(63.623047 0)"/>
       <use xlink:href="#DejaVuSans-35" transform="translate(95.410156 0)"/>
      </g>
     </g>
    </g>
    <g id="ytick_12">
     <g id="line2d_68">
      <g>
       <use xlink:href="#m870c281079" x="545.197609" y="68.331837" style="stroke: #000000; stroke-width: 0.8"/>
      </g>
     </g>
     <g id="text_30">
      <!-- 0.6 -->
      <g transform="translate(514.342921 74.030665) scale(0.15 -0.15)">
       <use xlink:href="#DejaVuSans-30"/>
       <use xlink:href="#DejaVuSans-2e" transform="translate(63.623047 0)"/>
       <use xlink:href="#DejaVuSans-36" transform="translate(95.410156 0)"/>
      </g>
     </g>
    </g>
    <g id="text_31">
     <!-- apixaban plasma [µM] -->
     <g transform="translate(506.579796 319.1265) rotate(-90) scale(0.18 -0.18)">
      <use xlink:href="#DejaVuSans-Bold-61"/>
      <use xlink:href="#DejaVuSans-Bold-70" transform="translate(67.480469 0)"/>
      <use xlink:href="#DejaVuSans-Bold-69" transform="translate(139.0625 0)"/>
      <use xlink:href="#DejaVuSans-Bold-78" transform="translate(173.339844 0)"/>
      <use xlink:href="#DejaVuSans-Bold-61" transform="translate(237.841797 0)"/>
      <use xlink:href="#DejaVuSans-Bold-62" transform="translate(305.322266 0)"/>
      <use xlink:href="#DejaVuSans-Bold-61" transform="translate(376.904297 0)"/>
      <use xlink:href="#DejaVuSans-Bold-6e" transform="translate(444.384766 0)"/>
      <use xlink:href="#DejaVuSans-Bold-20" transform="translate(515.576172 0)"/>
      <use xlink:href="#DejaVuSans-Bold-70" transform="translate(550.390625 0)"/>
      <use xlink:href="#DejaVuSans-Bold-6c" transform="translate(621.972656 0)"/>
      <use xlink:href="#DejaVuSans-Bold-61" transform="translate(656.25 0)"/>
      <use xlink:href="#DejaVuSans-Bold-73" transform="translate(723.730469 0)"/>
      <use xlink:href="#DejaVuSans-Bold-6d" transform="translate(783.251953 0)"/>
      <use xlink:href="#DejaVuSans-Bold-61" transform="translate(887.451172 0)"/>
      <use xlink:href="#DejaVuSans-Bold-20" transform="translate(954.931641 0)"/>
      <use xlink:href="#DejaVuSans-Bold-5b" transform="translate(989.746094 0)"/>
      <use xlink:href="#DejaVuSans-Bold-b5" transform="translate(1035.449219 0)"/>
      <use xlink:href="#DejaVuSans-Bold-4d" transform="translate(1109.033203 0)"/>
      <use xlink:href="#DejaVuSans-Bold-5d" transform="translate(1208.544922 0)"/>
     </g>
    </g>
   </g>
   <g id="LineCollection_3">
    <path clip-path="url(#pf276d5f1b3)" style="fill: none; stroke: #006d2c"/>
    <path clip-path="url(#pf276d5f1b3)" style="fill: none; stroke: #006d2c"/>
    <path clip-path="url(#pf276d5f1b3)" style="fill: none; stroke: #006d2c"/>
    <path clip-path="url(#pf276d5f1b3)" style="fill: none; stroke: #006d2c"/>
    <path clip-path="url(#pf276d5f1b3)" style="fill: none; stroke: #006d2c"/>
    <path clip-path="url(#pf276d5f1b3)" style="fill: none; stroke: #006d2c"/>
    <path clip-path="url(#pf276d5f1b3)" style="fill: none; stroke: #006d2c"/>
    <path clip-path="url(#pf276d5f1b3)" style="fill: none; stroke: #006d2c"/>
   </g>
   <g id="line2d_69">
    <path d="M 562.180217 349.884 
L 562.51987 349.505804 
L 562.859522 348.299866 
L 563.538826 344.498368 
L 568.633609 311.562068 
L 570.33187 303.076337 
L 572.03013 295.877384 
L 573.388739 290.953232 
L 574.747348 286.69974 
L 576.105957 283.055991 
L 577.464565 279.96593 
L 578.823174 277.378086 
L 580.181783 275.245232 
L 581.540391 273.524061 
L 582.899 272.17487 
L 584.257609 271.161278 
L 585.616217 270.449962 
L 586.974826 270.010406 
L 588.333435 269.814687 
L 589.692043 269.837258 
L 591.050652 270.054763 
L 592.748913 270.568429 
L 594.447174 271.315799 
L 596.485087 272.474093 
L 598.862652 274.122 
L 601.57987 276.311861 
L 604.976391 279.383279 
L 609.39187 283.725019 
L 628.752043 303.191784 
L 633.846826 307.791737 
L 638.601957 311.784967 
L 643.357087 315.47759 
L 648.112217 318.870535 
L 652.867348 321.972314 
L 657.622478 324.796324 
L 662.377609 327.3589 
L 667.132739 329.677925 
L 672.227522 331.913298 
L 677.322304 333.912824 
L 682.756739 335.810236 
L 688.530826 337.587319 
L 694.644565 339.230855 
L 701.097957 340.732509 
L 707.891 342.088492 
L 715.363348 343.351825 
L 723.515 344.499679 
L 732.345957 345.518144 
L 742.19587 346.429582 
L 753.404391 347.238303 
L 766.311174 347.938398 
L 781.25587 348.521282 
L 799.597087 349.003888 
L 822.693435 349.37656 
L 853.941435 349.643133 
L 901.832391 349.807125 
L 901.832391 349.807125 
" clip-path="url(#pf276d5f1b3)" style="fill: none; stroke: #006d2c; stroke-width: 2; stroke-linecap: square"/>
   </g>
   <g id="line2d_70">
    <path d="M 562.180217 349.884 
L 564.005067 327.579964 
L 567.722937 264.332027 
L 575.117381 198.674358 
L 587.090993 172.219029 
L 612.03061 190.720947 
L 712.615815 284.782423 
L 837.099985 318.988556 
" clip-path="url(#pf276d5f1b3)" style="fill: none; stroke-dasharray: 3.7,1.6; stroke-dashoffset: 0; stroke: #006d2c"/>
    <g clip-path="url(#pf276d5f1b3)">
     <use xlink:href="#m6e733d5de2" x="562.180217" y="349.884" style="fill: #006d2c; stroke: #000000; stroke-linejoin: miter"/>
     <use xlink:href="#m6e733d5de2" x="564.005067" y="327.579964" style="fill: #006d2c; stroke: #000000; stroke-linejoin: miter"/>
     <use xlink:href="#m6e733d5de2" x="567.722937" y="264.332027" style="fill: #006d2c; stroke: #000000; stroke-linejoin: miter"/>
     <use xlink:href="#m6e733d5de2" x="575.117381" y="198.674358" style="fill: #006d2c; stroke: #000000; stroke-linejoin: miter"/>
     <use xlink:href="#m6e733d5de2" x="587.090993" y="172.219029" style="fill: #006d2c; stroke: #000000; stroke-linejoin: miter"/>
     <use xlink:href="#m6e733d5de2" x="612.03061" y="190.720947" style="fill: #006d2c; stroke: #000000; stroke-linejoin: miter"/>
     <use xlink:href="#m6e733d5de2" x="712.615815" y="284.782423" style="fill: #006d2c; stroke: #000000; stroke-linejoin: miter"/>
     <use xlink:href="#m6e733d5de2" x="837.099985" y="318.988556" style="fill: #006d2c; stroke: #000000; stroke-linejoin: miter"/>
    </g>
   </g>
   <g id="line2d_71">
    <g clip-path="url(#pf276d5f1b3)">
     <use xlink:href="#m304fcfdef3" x="562.180217" y="349.884" style="fill: #006d2c; fill-opacity: 0.25098; stroke: #006d2c; stroke-opacity: 0.25098"/>
    </g>
   </g>
   <g id="line2d_72">
    <g clip-path="url(#pf276d5f1b3)">
     <use xlink:href="#m304fcfdef3" x="564.528268" y="349.884" style="fill: #006d2c; fill-opacity: 0.25098; stroke: #006d2c; stroke-opacity: 0.25098"/>
    </g>
   </g>
   <g id="line2d_73">
    <g clip-path="url(#pf276d5f1b3)">
     <use xlink:href="#m304fcfdef3" x="565.230343" y="335.540318" style="fill: #006d2c; fill-opacity: 0.25098; stroke: #006d2c; stroke-opacity: 0.25098"/>
    </g>
   </g>
   <g id="line2d_74">
    <g clip-path="url(#pf276d5f1b3)">
     <use xlink:href="#m304fcfdef3" x="565.264147" y="327.44495" style="fill: #006d2c; fill-opacity: 0.25098; stroke: #006d2c; stroke-opacity: 0.25098"/>
    </g>
   </g>
   <g id="line2d_75">
    <g clip-path="url(#pf276d5f1b3)">
     <use xlink:href="#m304fcfdef3" x="565.734797" y="316.855182" style="fill: #006d2c; fill-opacity: 0.25098; stroke: #006d2c; stroke-opacity: 0.25098"/>
    </g>
   </g>
   <g id="line2d_76">
    <g clip-path="url(#pf276d5f1b3)">
     <use xlink:href="#m304fcfdef3" x="565.565779" y="306.270691" style="fill: #006d2c; fill-opacity: 0.25098; stroke: #006d2c; stroke-opacity: 0.25098"/>
    </g>
   </g>
   <g id="line2d_77">
    <g clip-path="url(#pf276d5f1b3)">
     <use xlink:href="#m304fcfdef3" x="569.22437" y="93.900107" style="fill: #006d2c; fill-opacity: 0.25098; stroke: #006d2c; stroke-opacity: 0.25098"/>
    </g>
   </g>
   <g id="line2d_78">
    <g clip-path="url(#pf276d5f1b3)">
     <use xlink:href="#m304fcfdef3" x="568.85513" y="335.510413" style="fill: #006d2c; fill-opacity: 0.25098; stroke: #006d2c; stroke-opacity: 0.25098"/>
    </g>
   </g>
   <g id="line2d_79">
    <g clip-path="url(#pf276d5f1b3)">
     <use xlink:href="#m304fcfdef3" x="568.881133" y="329.283207" style="fill: #006d2c; fill-opacity: 0.25098; stroke: #006d2c; stroke-opacity: 0.25098"/>
    </g>
   </g>
   <g id="line2d_80">
    <g clip-path="url(#pf276d5f1b3)">
     <use xlink:href="#m304fcfdef3" x="568.337675" y="306.247823" style="fill: #006d2c; fill-opacity: 0.25098; stroke: #006d2c; stroke-opacity: 0.25098"/>
    </g>
   </g>
   <g id="line2d_81">
    <g clip-path="url(#pf276d5f1b3)">
     <use xlink:href="#m304fcfdef3" x="568.823927" y="291.921732" style="fill: #006d2c; fill-opacity: 0.25098; stroke: #006d2c; stroke-opacity: 0.25098"/>
    </g>
   </g>
   <g id="line2d_82">
    <g clip-path="url(#pf276d5f1b3)">
     <use xlink:href="#m304fcfdef3" x="569.078754" y="230.895115" style="fill: #006d2c; fill-opacity: 0.25098; stroke: #006d2c; stroke-opacity: 0.25098"/>
    </g>
   </g>
   <g id="line2d_83">
    <g clip-path="url(#pf276d5f1b3)">
     <use xlink:href="#m304fcfdef3" x="574.695354" y="264.474531" style="fill: #006d2c; fill-opacity: 0.25098; stroke: #006d2c; stroke-opacity: 0.25098"/>
    </g>
   </g>
   <g id="line2d_84">
    <g clip-path="url(#pf276d5f1b3)">
     <use xlink:href="#m304fcfdef3" x="574.775963" y="245.170193" style="fill: #006d2c; fill-opacity: 0.25098; stroke: #006d2c; stroke-opacity: 0.25098"/>
    </g>
   </g>
   <g id="line2d_85">
    <g clip-path="url(#pf276d5f1b3)">
     <use xlink:href="#m304fcfdef3" x="575.134801" y="210.296081" style="fill: #006d2c; fill-opacity: 0.25098; stroke: #006d2c; stroke-opacity: 0.25098"/>
    </g>
   </g>
   <g id="line2d_86">
    <g clip-path="url(#pf276d5f1b3)">
     <use xlink:href="#m304fcfdef3" x="575.433833" y="138.683215" style="fill: #006d2c; fill-opacity: 0.25098; stroke: #006d2c; stroke-opacity: 0.25098"/>
    </g>
   </g>
   <g id="line2d_87">
    <g clip-path="url(#pf276d5f1b3)">
     <use xlink:href="#m304fcfdef3" x="575.480638" y="127.474245" style="fill: #006d2c; fill-opacity: 0.25098; stroke: #006d2c; stroke-opacity: 0.25098"/>
    </g>
   </g>
   <g id="line2d_88">
    <g clip-path="url(#pf276d5f1b3)">
     <use xlink:href="#m304fcfdef3" x="587.171486" y="289.279567" style="fill: #006d2c; fill-opacity: 0.25098; stroke: #006d2c; stroke-opacity: 0.25098"/>
    </g>
   </g>
   <g id="line2d_89">
    <g clip-path="url(#pf276d5f1b3)">
     <use xlink:href="#m304fcfdef3" x="587.907365" y="215.1723" style="fill: #006d2c; fill-opacity: 0.25098; stroke: #006d2c; stroke-opacity: 0.25098"/>
    </g>
   </g>
   <g id="line2d_90">
    <g clip-path="url(#pf276d5f1b3)">
     <use xlink:href="#m304fcfdef3" x="588.305207" y="170.95738" style="fill: #006d2c; fill-opacity: 0.25098; stroke: #006d2c; stroke-opacity: 0.25098"/>
    </g>
   </g>
   <g id="line2d_91">
    <g clip-path="url(#pf276d5f1b3)">
     <use xlink:href="#m304fcfdef3" x="588.622441" y="146.046798" style="fill: #006d2c; fill-opacity: 0.25098; stroke: #006d2c; stroke-opacity: 0.25098"/>
    </g>
   </g>
   <g id="line2d_92">
    <g clip-path="url(#pf276d5f1b3)">
     <use xlink:href="#m304fcfdef3" x="588.674447" y="133.592387" style="fill: #006d2c; fill-opacity: 0.25098; stroke: #006d2c; stroke-opacity: 0.25098"/>
    </g>
   </g>
   <g id="line2d_93">
    <g clip-path="url(#pf276d5f1b3)">
     <use xlink:href="#m304fcfdef3" x="588.757656" y="62.604" style="fill: #006d2c; fill-opacity: 0.25098; stroke: #006d2c; stroke-opacity: 0.25098"/>
    </g>
   </g>
   <g id="line2d_94">
    <g clip-path="url(#pf276d5f1b3)">
     <use xlink:href="#m304fcfdef3" x="612.711414" y="249.216117" style="fill: #006d2c; fill-opacity: 0.25098; stroke: #006d2c; stroke-opacity: 0.25098"/>
    </g>
   </g>
   <g id="line2d_95">
    <g clip-path="url(#pf276d5f1b3)">
     <use xlink:href="#m304fcfdef3" x="613.14566" y="196.283109" style="fill: #006d2c; fill-opacity: 0.25098; stroke: #006d2c; stroke-opacity: 0.25098"/>
    </g>
   </g>
   <g id="line2d_96">
    <g clip-path="url(#pf276d5f1b3)">
     <use xlink:href="#m304fcfdef3" x="613.161262" y="192.546786" style="fill: #006d2c; fill-opacity: 0.25098; stroke: #006d2c; stroke-opacity: 0.25098"/>
    </g>
   </g>
   <g id="line2d_97">
    <g clip-path="url(#pf276d5f1b3)">
     <use xlink:href="#m304fcfdef3" x="613.179464" y="188.187742" style="fill: #006d2c; fill-opacity: 0.25098; stroke: #006d2c; stroke-opacity: 0.25098"/>
    </g>
   </g>
   <g id="line2d_98">
    <g clip-path="url(#pf276d5f1b3)">
     <use xlink:href="#m304fcfdef3" x="613.439492" y="125.915684" style="fill: #006d2c; fill-opacity: 0.25098; stroke: #006d2c; stroke-opacity: 0.25098"/>
    </g>
   </g>
   <g id="line2d_99">
    <g clip-path="url(#pf276d5f1b3)">
     <use xlink:href="#m304fcfdef3" x="713.461719" y="329.78455" style="fill: #006d2c; fill-opacity: 0.25098; stroke: #006d2c; stroke-opacity: 0.25098"/>
    </g>
   </g>
   <g id="line2d_100">
    <g clip-path="url(#pf276d5f1b3)">
     <use xlink:href="#m304fcfdef3" x="714.773588" y="295.533159" style="fill: #006d2c; fill-opacity: 0.25098; stroke: #006d2c; stroke-opacity: 0.25098"/>
    </g>
   </g>
   <g id="line2d_101">
    <g clip-path="url(#pf276d5f1b3)">
     <use xlink:href="#m304fcfdef3" x="714.82138" y="292.419556" style="fill: #006d2c; fill-opacity: 0.25098; stroke: #006d2c; stroke-opacity: 0.25098"/>
    </g>
   </g>
   <g id="line2d_102">
    <g clip-path="url(#pf276d5f1b3)">
     <use xlink:href="#m304fcfdef3" x="713.507121" y="275.609619" style="fill: #006d2c; fill-opacity: 0.25098; stroke: #006d2c; stroke-opacity: 0.25098"/>
    </g>
   </g>
   <g id="line2d_103">
    <g clip-path="url(#pf276d5f1b3)">
     <use xlink:href="#m304fcfdef3" x="712.959912" y="260.043364" style="fill: #006d2c; fill-opacity: 0.25098; stroke: #006d2c; stroke-opacity: 0.25098"/>
    </g>
   </g>
   <g id="line2d_104">
    <g clip-path="url(#pf276d5f1b3)">
     <use xlink:href="#m304fcfdef3" x="713.112844" y="250.079834" style="fill: #006d2c; fill-opacity: 0.25098; stroke: #006d2c; stroke-opacity: 0.25098"/>
    </g>
   </g>
   <g id="line2d_105">
    <g clip-path="url(#pf276d5f1b3)">
     <use xlink:href="#m304fcfdef3" x="837.389122" y="348.18823" style="fill: #006d2c; fill-opacity: 0.25098; stroke: #006d2c; stroke-opacity: 0.25098"/>
    </g>
   </g>
   <g id="line2d_106">
    <g clip-path="url(#pf276d5f1b3)">
     <use xlink:href="#m304fcfdef3" x="839.343783" y="323.275889" style="fill: #006d2c; fill-opacity: 0.25098; stroke: #006d2c; stroke-opacity: 0.25098"/>
    </g>
   </g>
   <g id="line2d_107">
    <g clip-path="url(#pf276d5f1b3)">
     <use xlink:href="#m304fcfdef3" x="838.681875" y="315.18228" style="fill: #006d2c; fill-opacity: 0.25098; stroke: #006d2c; stroke-opacity: 0.25098"/>
    </g>
   </g>
   <g id="line2d_108">
    <g clip-path="url(#pf276d5f1b3)">
     <use xlink:href="#m304fcfdef3" x="838.844365" y="304.59603" style="fill: #006d2c; fill-opacity: 0.25098; stroke: #006d2c; stroke-opacity: 0.25098"/>
    </g>
   </g>
   <g id="patch_9">
    <path d="M 545.197609 364.248 
L 545.197609 48.24 
" style="fill: none; stroke: #000000; stroke-width: 0.8; stroke-linejoin: miter; stroke-linecap: square"/>
   </g>
   <g id="patch_10">
    <path d="M 918.815 364.248 
L 918.815 48.24 
" style="fill: none; stroke: #000000; stroke-width: 0.8; stroke-linejoin: miter; stroke-linecap: square"/>
   </g>
   <g id="patch_11">
    <path d="M 545.197609 364.248 
L 918.815 364.248 
" style="fill: none; stroke: #000000; stroke-width: 0.8; stroke-linejoin: miter; stroke-linecap: square"/>
   </g>
   <g id="patch_12">
    <path d="M 545.197609 48.24 
L 918.815 48.24 
" style="fill: none; stroke: #000000; stroke-width: 0.8; stroke-linejoin: miter; stroke-linecap: square"/>
   </g>
   <g id="legend_2">
    <g id="patch_13">
     <path d="M 688.40625 115.884687 
L 909.715 115.884687 
Q 912.315 115.884687 912.315 113.284687 
L 912.315 57.34 
Q 912.315 54.74 909.715 54.74 
L 688.40625 54.74 
Q 685.80625 54.74 685.80625 57.34 
L 685.80625 113.284687 
Q 685.80625 115.884687 688.40625 115.884687 
z
" style="fill: #ffffff; opacity: 0.8; stroke: #cccccc; stroke-linejoin: miter"/>
    </g>
    <g id="line2d_109">
     <path d="M 691.00625 65.267969 
L 717.00625 65.267969 
" style="fill: none; stroke: #006d2c; stroke-width: 2; stroke-linecap: square"/>
    </g>
    <g id="line2d_110"/>
    <g id="text_32">
     <!-- sim SRI: 5mg PO -->
     <g transform="translate(727.40625 69.817969) scale(0.13 -0.13)">
      <use xlink:href="#DejaVuSans-73"/>
      <use xlink:href="#DejaVuSans-69" transform="translate(52.099609 0)"/>
      <use xlink:href="#DejaVuSans-6d" transform="translate(79.882812 0)"/>
      <use xlink:href="#DejaVuSans-20" transform="translate(177.294922 0)"/>
      <use xlink:href="#DejaVuSans-53" transform="translate(209.082031 0)"/>
      <use xlink:href="#DejaVuSans-52" transform="translate(272.558594 0)"/>
      <use xlink:href="#DejaVuSans-49" transform="translate(342.041016 0)"/>
      <use xlink:href="#DejaVuSans-3a" transform="translate(371.533203 0)"/>
      <use xlink:href="#DejaVuSans-20" transform="translate(405.224609 0)"/>
      <use xlink:href="#DejaVuSans-35" transform="translate(437.011719 0)"/>
      <use xlink:href="#DejaVuSans-6d" transform="translate(500.634766 0)"/>
      <use xlink:href="#DejaVuSans-67" transform="translate(598.046875 0)"/>
      <use xlink:href="#DejaVuSans-20" transform="translate(661.523438 0)"/>
      <use xlink:href="#DejaVuSans-50" transform="translate(693.310547 0)"/>
      <use xlink:href="#DejaVuSans-4f" transform="translate(753.613281 0)"/>
     </g>
    </g>
    <g id="LineCollection_4">
     <path d="M 704.00625 90.849531 
L 704.00625 77.849531 
" style="fill: none; stroke: #006d2c"/>
    </g>
    <g id="line2d_111">
     <path d="M 691.00625 84.349531 
L 717.00625 84.349531 
" style="fill: none; stroke-dasharray: 3.7,1.6; stroke-dashoffset: 0; stroke: #006d2c"/>
    </g>
    <g id="line2d_112">
     <g>
      <use xlink:href="#m6e733d5de2" x="704.00625" y="84.349531" style="fill: #006d2c; stroke: #000000; stroke-linejoin: miter"/>
     </g>
    </g>
    <g id="text_33">
     <!-- exp SRI: 5mg PO±SD (n=6) -->
     <g transform="translate(727.40625 88.899531) scale(0.13 -0.13)">
      <use xlink:href="#DejaVuSans-65"/>
      <use xlink:href="#DejaVuSans-78" transform="translate(59.773438 0)"/>
      <use xlink:href="#DejaVuSans-70" transform="translate(118.953125 0)"/>
      <use xlink:href="#DejaVuSans-20" transform="translate(182.429688 0)"/>
      <use xlink:href="#DejaVuSans-53" transform="translate(214.216797 0)"/>
      <use xlink:href="#DejaVuSans-52" transform="translate(277.693359 0)"/>
      <use xlink:href="#DejaVuSans-49" transform="translate(347.175781 0)"/>
      <use xlink:href="#DejaVuSans-3a" transform="translate(376.667969 0)"/>
      <use xlink:href="#DejaVuSans-20" transform="translate(410.359375 0)"/>
      <use xlink:href="#DejaVuSans-35" transform="translate(442.146484 0)"/>
      <use xlink:href="#DejaVuSans-6d" transform="translate(505.769531 0)"/>
      <use xlink:href="#DejaVuSans-67" transform="translate(603.181641 0)"/>
      <use xlink:href="#DejaVuSans-20" transform="translate(666.658203 0)"/>
      <use xlink:href="#DejaVuSans-50" transform="translate(698.445312 0)"/>
      <use xlink:href="#DejaVuSans-4f" transform="translate(758.748047 0)"/>
      <use xlink:href="#DejaVuSans-b1" transform="translate(837.458984 0)"/>
      <use xlink:href="#DejaVuSans-53" transform="translate(921.248047 0)"/>
      <use xlink:href="#DejaVuSans-44" transform="translate(984.724609 0)"/>
      <use xlink:href="#DejaVuSans-20" transform="translate(1061.726562 0)"/>
      <use xlink:href="#DejaVuSans-28" transform="translate(1093.513672 0)"/>
      <use xlink:href="#DejaVuSans-6e" transform="translate(1132.527344 0)"/>
      <use xlink:href="#DejaVuSans-3d" transform="translate(1195.90625 0)"/>
      <use xlink:href="#DejaVuSans-36" transform="translate(1279.695312 0)"/>
      <use xlink:href="#DejaVuSans-29" transform="translate(1343.318359 0)"/>
     </g>
    </g>
    <g id="line2d_113"/>
    <g id="line2d_114">
     <g>
      <use xlink:href="#m304fcfdef3" x="704.00625" y="103.431094" style="fill: #006d2c; fill-opacity: 0.25098; stroke: #006d2c; stroke-opacity: 0.25098"/>
     </g>
    </g>
    <g id="text_34">
     <!-- exp individ SRI: 5mg PO -->
     <g transform="translate(727.40625 107.981094) scale(0.13 -0.13)">
      <use xlink:href="#DejaVuSans-65"/>
      <use xlink:href="#DejaVuSans-78" transform="translate(59.773438 0)"/>
      <use xlink:href="#DejaVuSans-70" transform="translate(118.953125 0)"/>
      <use xlink:href="#DejaVuSans-20" transform="translate(182.429688 0)"/>
      <use xlink:href="#DejaVuSans-69" transform="translate(214.216797 0)"/>
      <use xlink:href="#DejaVuSans-6e" transform="translate(242 0)"/>
      <use xlink:href="#DejaVuSans-64" transform="translate(305.378906 0)"/>
      <use xlink:href="#DejaVuSans-69" transform="translate(368.855469 0)"/>
      <use xlink:href="#DejaVuSans-76" transform="translate(396.638672 0)"/>
      <use xlink:href="#DejaVuSans-69" transform="translate(455.818359 0)"/>
      <use xlink:href="#DejaVuSans-64" transform="translate(483.601562 0)"/>
      <use xlink:href="#DejaVuSans-20" transform="translate(547.078125 0)"/>
      <use xlink:href="#DejaVuSans-53" transform="translate(578.865234 0)"/>
      <use xlink:href="#DejaVuSans-52" transform="translate(642.341797 0)"/>
      <use xlink:href="#DejaVuSans-49" transform="translate(711.824219 0)"/>
      <use xlink:href="#DejaVuSans-3a" transform="translate(741.316406 0)"/>
      <use xlink:href="#DejaVuSans-20" transform="translate(775.007812 0)"/>
      <use xlink:href="#DejaVuSans-35" transform="translate(806.794922 0)"/>
      <use xlink:href="#DejaVuSans-6d" transform="translate(870.417969 0)"/>
      <use xlink:href="#DejaVuSans-67" transform="translate(967.830078 0)"/>
      <use xlink:href="#DejaVuSans-20" transform="translate(1031.306641 0)"/>
      <use xlink:href="#DejaVuSans-50" transform="translate(1063.09375 0)"/>
      <use xlink:href="#DejaVuSans-4f" transform="translate(1123.396484 0)"/>
     </g>
    </g>
   </g>
  </g>
  <g id="text_35">
   <!-- VandenBosch2021 -->
   <g transform="translate(345.998125 26.196094) scale(0.25 -0.25)">
    <defs>
     <path id="DejaVuSans-Bold-56" d="M 31 4666 
L 1241 4666 
L 2478 1222 
L 3713 4666 
L 4922 4666 
L 3194 0 
L 1759 0 
L 31 4666 
z
" transform="scale(0.015625)"/>
     <path id="DejaVuSans-Bold-64" d="M 2919 2988 
L 2919 4863 
L 4044 4863 
L 4044 0 
L 2919 0 
L 2919 506 
Q 2688 197 2409 53 
Q 2131 -91 1766 -91 
Q 1119 -91 703 423 
Q 288 938 288 1747 
Q 288 2556 703 3070 
Q 1119 3584 1766 3584 
Q 2128 3584 2408 3439 
Q 2688 3294 2919 2988 
z
M 2181 722 
Q 2541 722 2730 984 
Q 2919 1247 2919 1747 
Q 2919 2247 2730 2509 
Q 2541 2772 2181 2772 
Q 1825 2772 1636 2509 
Q 1447 2247 1447 1747 
Q 1447 1247 1636 984 
Q 1825 722 2181 722 
z
" transform="scale(0.015625)"/>
     <path id="DejaVuSans-Bold-42" d="M 2456 2859 
Q 2741 2859 2887 2984 
Q 3034 3109 3034 3353 
Q 3034 3594 2887 3720 
Q 2741 3847 2456 3847 
L 1791 3847 
L 1791 2859 
L 2456 2859 
z
M 2497 819 
Q 2859 819 3042 972 
Q 3225 1125 3225 1434 
Q 3225 1738 3044 1889 
Q 2863 2041 2497 2041 
L 1791 2041 
L 1791 819 
L 2497 819 
z
M 3616 2497 
Q 4003 2384 4215 2081 
Q 4428 1778 4428 1338 
Q 4428 663 3972 331 
Q 3516 0 2584 0 
L 588 0 
L 588 4666 
L 2394 4666 
Q 3366 4666 3802 4372 
Q 4238 4078 4238 3431 
Q 4238 3091 4078 2852 
Q 3919 2613 3616 2497 
z
" transform="scale(0.015625)"/>
     <path id="DejaVuSans-Bold-6f" d="M 2203 2784 
Q 1831 2784 1636 2517 
Q 1441 2250 1441 1747 
Q 1441 1244 1636 976 
Q 1831 709 2203 709 
Q 2569 709 2762 976 
Q 2956 1244 2956 1747 
Q 2956 2250 2762 2517 
Q 2569 2784 2203 2784 
z
M 2203 3584 
Q 3106 3584 3614 3096 
Q 4122 2609 4122 1747 
Q 4122 884 3614 396 
Q 3106 -91 2203 -91 
Q 1297 -91 786 396 
Q 275 884 275 1747 
Q 275 2609 786 3096 
Q 1297 3584 2203 3584 
z
" transform="scale(0.015625)"/>
     <path id="DejaVuSans-Bold-63" d="M 3366 3391 
L 3366 2478 
Q 3138 2634 2908 2709 
Q 2678 2784 2431 2784 
Q 1963 2784 1702 2511 
Q 1441 2238 1441 1747 
Q 1441 1256 1702 982 
Q 1963 709 2431 709 
Q 2694 709 2930 787 
Q 3166 866 3366 1019 
L 3366 103 
Q 3103 6 2833 -42 
Q 2563 -91 2291 -91 
Q 1344 -91 809 395 
Q 275 881 275 1747 
Q 275 2613 809 3098 
Q 1344 3584 2291 3584 
Q 2566 3584 2833 3536 
Q 3100 3488 3366 3391 
z
" transform="scale(0.015625)"/>
     <path id="DejaVuSans-Bold-32" d="M 1844 884 
L 3897 884 
L 3897 0 
L 506 0 
L 506 884 
L 2209 2388 
Q 2438 2594 2547 2791 
Q 2656 2988 2656 3200 
Q 2656 3528 2436 3728 
Q 2216 3928 1850 3928 
Q 1569 3928 1234 3808 
Q 900 3688 519 3450 
L 519 4475 
Q 925 4609 1322 4679 
Q 1719 4750 2100 4750 
Q 2938 4750 3402 4381 
Q 3866 4013 3866 3353 
Q 3866 2972 3669 2642 
Q 3472 2313 2841 1759 
L 1844 884 
z
" transform="scale(0.015625)"/>
     <path id="DejaVuSans-Bold-30" d="M 2944 2338 
Q 2944 3213 2780 3570 
Q 2616 3928 2228 3928 
Q 1841 3928 1675 3570 
Q 1509 3213 1509 2338 
Q 1509 1453 1675 1090 
Q 1841 728 2228 728 
Q 2613 728 2778 1090 
Q 2944 1453 2944 2338 
z
M 4147 2328 
Q 4147 1169 3647 539 
Q 3147 -91 2228 -91 
Q 1306 -91 806 539 
Q 306 1169 306 2328 
Q 306 3491 806 4120 
Q 1306 4750 2228 4750 
Q 3147 4750 3647 4120 
Q 4147 3491 4147 2328 
z
" transform="scale(0.015625)"/>
     <path id="DejaVuSans-Bold-31" d="M 750 831 
L 1813 831 
L 1813 3847 
L 722 3622 
L 722 4441 
L 1806 4666 
L 2950 4666 
L 2950 831 
L 4013 831 
L 4013 0 
L 750 0 
L 750 831 
z
" transform="scale(0.015625)"/>
    </defs>
    <use xlink:href="#DejaVuSans-Bold-56"/>
    <use xlink:href="#DejaVuSans-Bold-61" transform="translate(71.892578 0)"/>
    <use xlink:href="#DejaVuSans-Bold-6e" transform="translate(139.373047 0)"/>
    <use xlink:href="#DejaVuSans-Bold-64" transform="translate(210.564453 0)"/>
    <use xlink:href="#DejaVuSans-Bold-65" transform="translate(282.146484 0)"/>
    <use xlink:href="#DejaVuSans-Bold-6e" transform="translate(349.96875 0)"/>
    <use xlink:href="#DejaVuSans-Bold-42" transform="translate(421.160156 0)"/>
    <use xlink:href="#DejaVuSans-Bold-6f" transform="translate(497.380859 0)"/>
    <use xlink:href="#DejaVuSans-Bold-73" transform="translate(566.082031 0)"/>
    <use xlink:href="#DejaVuSans-Bold-63" transform="translate(625.603516 0)"/>
    <use xlink:href="#DejaVuSans-Bold-68" transform="translate(684.880859 0)"/>
    <use xlink:href="#DejaVuSans-Bold-32" transform="translate(756.072266 0)"/>
    <use xlink:href="#DejaVuSans-Bold-30" transform="translate(825.652344 0)"/>
    <use xlink:href="#DejaVuSans-Bold-32" transform="translate(895.232422 0)"/>
    <use xlink:href="#DejaVuSans-Bold-31" transform="translate(964.8125 0)"/>
   </g>
  </g>
 </g>
 <defs>
  <clipPath id="p6e5f2726fe">
   <rect x="59.495" y="48.24" width="373.617391" height="316.008"/>
  </clipPath>
  <clipPath id="pf276d5f1b3">
   <rect x="545.197609" y="48.24" width="373.617391" height="316.008"/>
  </clipPath>
 </defs>
</svg>
